G04*
G04 #@! TF.GenerationSoftware,Altium Limited,Altium Designer,22.10.1 (41)*
G04*
G04 Layer_Color=255*
%FSLAX44Y44*%
%MOMM*%
G71*
G04*
G04 #@! TF.SameCoordinates,F6035E9F-F1FD-4C6C-B8EA-126E05AD2449*
G04*
G04*
G04 #@! TF.FilePolarity,Positive*
G04*
G01*
G75*
%ADD13R,0.8065X1.3082*%
%ADD14R,1.1000X1.2500*%
%ADD15R,1.3082X0.8065*%
%ADD16R,1.1000X1.3500*%
%ADD18R,1.4000X1.4000*%
%ADD19C,1.4000*%
%ADD20R,1.4000X1.4000*%
%ADD25C,1.5700*%
%ADD26R,1.5700X1.5700*%
%ADD33C,1.6650*%
%ADD34C,1.7000*%
%ADD35R,1.7000X1.7000*%
%ADD36C,2.0320*%
D13*
X101600Y342900D02*
D03*
X118617D02*
D03*
X102363Y322580D02*
D03*
X119380D02*
D03*
D14*
X63500Y239710D02*
D03*
Y263210D02*
D03*
D15*
Y288671D02*
D03*
Y305688D02*
D03*
D16*
X85740Y322580D02*
D03*
X71740D02*
D03*
X85740Y342900D02*
D03*
X71740D02*
D03*
D18*
X299120Y48090D02*
D03*
X161960D02*
D03*
X97320Y391160D02*
D03*
X241900Y391330D02*
D03*
X433540Y48260D02*
D03*
X531460Y391330D02*
D03*
X384140D02*
D03*
D19*
X274120Y48090D02*
D03*
X249120D02*
D03*
X224120D02*
D03*
X136960D02*
D03*
X111960D02*
D03*
X86960D02*
D03*
X30480Y145580D02*
D03*
Y170580D02*
D03*
Y195580D02*
D03*
X122320Y391160D02*
D03*
X147320D02*
D03*
X172320D02*
D03*
X266900Y391330D02*
D03*
X291900D02*
D03*
X316900D02*
D03*
X408540Y48260D02*
D03*
X383540D02*
D03*
X358540D02*
D03*
X606460Y391330D02*
D03*
X581460D02*
D03*
X556460D02*
D03*
X459140D02*
D03*
X434140D02*
D03*
X409140D02*
D03*
D20*
X30480Y120580D02*
D03*
D25*
X177800Y330200D02*
D03*
D26*
X152400D02*
D03*
D33*
X93980Y134620D02*
D03*
X119380Y287020D02*
D03*
X449580D02*
D03*
X119380Y261620D02*
D03*
Y134620D02*
D03*
X93980Y287020D02*
D03*
X144780D02*
D03*
X157480Y165120D02*
D03*
X182880D02*
D03*
X208280D02*
D03*
X233680D02*
D03*
X259080D02*
D03*
X551180Y261620D02*
D03*
Y236220D02*
D03*
Y210820D02*
D03*
Y185420D02*
D03*
Y160020D02*
D03*
X449580Y134620D02*
D03*
X474980Y287020D02*
D03*
X500380D02*
D03*
X525780D02*
D03*
X551180D02*
D03*
X576580D02*
D03*
X601980D02*
D03*
X627380D02*
D03*
X652780D02*
D03*
X678180D02*
D03*
Y134620D02*
D03*
X652780D02*
D03*
X627380D02*
D03*
X601980D02*
D03*
X576580D02*
D03*
X551180D02*
D03*
X525780D02*
D03*
X500380D02*
D03*
X474980D02*
D03*
X170180Y287020D02*
D03*
X195580D02*
D03*
X220980D02*
D03*
X246380D02*
D03*
X271780D02*
D03*
X297180D02*
D03*
X322580D02*
D03*
X347980D02*
D03*
X373380D02*
D03*
X398780D02*
D03*
X424180D02*
D03*
Y134620D02*
D03*
X398780D02*
D03*
X373380D02*
D03*
X347980D02*
D03*
X322580D02*
D03*
X297180D02*
D03*
X271780D02*
D03*
X246380D02*
D03*
X220980D02*
D03*
X195580D02*
D03*
X170180D02*
D03*
X144780D02*
D03*
D34*
X37446Y326336D02*
D03*
Y300936D02*
D03*
D35*
Y275536D02*
D03*
D36*
X528320Y50800D02*
D03*
X553720D02*
D03*
X579120D02*
D03*
X604520D02*
D03*
X629920D02*
D03*
X528320Y330200D02*
D03*
X553720D02*
D03*
X579120D02*
D03*
X604520D02*
D03*
X629920D02*
D03*
M02*
