G04*
G04 #@! TF.GenerationSoftware,Altium Limited,Altium Designer,22.10.1 (41)*
G04*
G04 Layer_Color=8388736*
%FSLAX44Y44*%
%MOMM*%
G71*
G04*
G04 #@! TF.SameCoordinates,0536D981-BEB6-4F1E-8F52-2FA45D902929*
G04*
G04*
G04 #@! TF.FilePolarity,Positive*
G04*
G01*
G75*
%ADD11C,0.2000*%
D11*
X496800Y339550D02*
X620800D01*
X496800D02*
Y397050D01*
X620800D01*
Y339550D02*
Y397050D01*
X463580Y70140D02*
X587580D01*
X463580D02*
Y127640D01*
X587580D01*
Y70140D02*
Y127640D01*
X296850Y30580D02*
Y106580D01*
X414350D01*
Y30580D02*
Y106580D01*
X296850Y30580D02*
X414350D01*
X273150Y46992D02*
Y66992D01*
X285650D01*
Y46992D02*
Y66992D01*
X273150Y46992D02*
X285650D01*
X183700Y66400D02*
X222700D01*
X183700D02*
Y115400D01*
X222700D01*
Y66400D02*
Y115400D01*
X153050Y50900D02*
Y105500D01*
X126350Y50900D02*
X153050D01*
X126350D02*
Y105500D01*
X153050D01*
X167800Y33850D02*
X187800D01*
X167800D02*
Y46350D01*
X187800D01*
Y33850D02*
Y46350D01*
X44350Y152908D02*
Y172908D01*
X31850Y152908D02*
X44350D01*
X31850D02*
Y172908D01*
X44350D01*
X92740Y339380D02*
X216740D01*
X92740D02*
Y396880D01*
X216740D01*
Y339380D02*
Y396880D01*
X361980Y339380D02*
X485980D01*
X361980D02*
Y396880D01*
X485980D01*
Y339380D02*
Y396880D01*
X227360Y339380D02*
X351360D01*
X227360D02*
Y396880D01*
X351360D01*
Y339380D02*
Y396880D01*
X31350Y104850D02*
X44850D01*
Y125850D01*
X31350D02*
X44850D01*
X31350Y104850D02*
Y125850D01*
M02*
