G04*
G04 #@! TF.GenerationSoftware,Altium Limited,Altium Designer,22.10.1 (41)*
G04*
G04 Layer_Color=32768*
%FSLAX44Y44*%
%MOMM*%
G71*
G04*
G04 #@! TF.SameCoordinates,295DBC84-E909-44D4-8D2A-457EB23B93A0*
G04*
G04*
G04 #@! TF.FilePolarity,Positive*
G04*
G01*
G75*
%ADD11C,0.2000*%
%ADD41C,0.0500*%
D11*
X45850Y97840D02*
Y135840D01*
X30350Y97840D02*
X45850D01*
X30350D02*
Y135840D01*
X45850D01*
X495800Y338550D02*
X621800D01*
X495800D02*
Y398050D01*
X621800D01*
Y338550D02*
Y398050D01*
X462580Y69140D02*
X588580D01*
X462580D02*
Y128640D01*
X588580D01*
Y69140D02*
Y128640D01*
X294350Y11080D02*
Y126080D01*
X416850D01*
Y11080D02*
Y126080D01*
X294350Y11080D02*
X416850D01*
X271400Y43450D02*
Y70533D01*
X287400D01*
Y43450D02*
Y70533D01*
X271400Y43450D02*
X287400D01*
X161669Y61400D02*
X244731D01*
X161669D02*
Y120400D01*
X244731D01*
Y61400D02*
Y120400D01*
X101240Y102490D02*
X157840D01*
X101240D02*
Y131190D01*
X157840D01*
Y102490D02*
Y131190D01*
X124507Y80900D02*
X151590D01*
X124507D02*
Y96900D01*
X151590D01*
Y80900D02*
Y96900D01*
X46100Y149368D02*
Y176450D01*
X30100Y149368D02*
X46100D01*
X30100D02*
Y176450D01*
X46100D01*
X91740Y338380D02*
X217740D01*
X91740D02*
Y397880D01*
X217740D01*
Y338380D02*
Y397880D01*
X360980Y338380D02*
X486980D01*
X360980D02*
Y397880D01*
X486980D01*
Y338380D02*
Y397880D01*
X226360Y338380D02*
X352360D01*
X226360D02*
Y397880D01*
X352360D01*
Y338380D02*
Y397880D01*
D41*
X691100Y38100D02*
G03*
X691100Y38100I-18000J0D01*
G01*
Y381000D02*
G03*
X691100Y381000I-18000J0D01*
G01*
X56100Y38100D02*
G03*
X56100Y38100I-18000J0D01*
G01*
Y381000D02*
G03*
X56100Y381000I-18000J0D01*
G01*
M02*
