G04*
G04 #@! TF.GenerationSoftware,Altium Limited,Altium Designer,22.10.1 (41)*
G04*
G04 Layer_Color=16711935*
%FSLAX44Y44*%
%MOMM*%
G71*
G04*
G04 #@! TF.SameCoordinates,295DBC84-E909-44D4-8D2A-457EB23B93A0*
G04*
G04*
G04 #@! TF.FilePolarity,Positive*
G04*
G01*
G75*
%ADD11C,0.2000*%
G36*
X42615Y114381D02*
X42606Y114214D01*
X42597Y114029D01*
X42579Y113844D01*
X42551Y113659D01*
X42523Y113502D01*
Y113493D01*
X42514Y113475D01*
Y113447D01*
X42495Y113410D01*
X42468Y113308D01*
X42421Y113179D01*
X42357Y113031D01*
X42273Y112874D01*
X42181Y112717D01*
X42061Y112569D01*
X42052Y112559D01*
X42042Y112550D01*
X42014Y112522D01*
X41987Y112485D01*
X41894Y112393D01*
X41765Y112282D01*
X41608Y112162D01*
X41423Y112032D01*
X41210Y111912D01*
X40970Y111810D01*
X40960D01*
X40942Y111801D01*
X40905Y111783D01*
X40850Y111773D01*
X40785Y111746D01*
X40711Y111727D01*
X40628Y111709D01*
X40526Y111681D01*
X40424Y111653D01*
X40304Y111635D01*
X40045Y111588D01*
X39759Y111561D01*
X39444Y111552D01*
X39435D01*
X39416D01*
X39370D01*
X39324D01*
X39259Y111561D01*
X39185D01*
X39010Y111570D01*
X38806Y111598D01*
X38594Y111625D01*
X38372Y111672D01*
X38150Y111727D01*
X38141D01*
X38122Y111736D01*
X38094Y111746D01*
X38057Y111755D01*
X37956Y111792D01*
X37826Y111847D01*
X37678Y111903D01*
X37530Y111977D01*
X37373Y112069D01*
X37225Y112162D01*
X37207Y112171D01*
X37161Y112208D01*
X37096Y112263D01*
X37013Y112337D01*
X36920Y112421D01*
X36828Y112522D01*
X36726Y112624D01*
X36643Y112744D01*
X36634Y112763D01*
X36606Y112800D01*
X36569Y112864D01*
X36523Y112957D01*
X36467Y113068D01*
X36421Y113197D01*
X36365Y113345D01*
X36319Y113512D01*
Y113530D01*
X36310Y113558D01*
X36301Y113586D01*
X36291Y113678D01*
X36273Y113807D01*
X36254Y113955D01*
X36236Y114131D01*
X36227Y114325D01*
X36218Y114538D01*
Y116840D01*
X42615D01*
Y114381D01*
D02*
G37*
G36*
X557219Y368291D02*
X557293Y368282D01*
X557367Y368272D01*
X557561Y368235D01*
X557765Y368180D01*
X557977Y368097D01*
X558088Y368041D01*
X558190Y367976D01*
X558282Y367902D01*
X558375Y367819D01*
X558384Y367810D01*
X558393Y367801D01*
X558412Y367764D01*
X558439Y367727D01*
X558476Y367681D01*
X558513Y367616D01*
X558550Y367542D01*
X558597Y367459D01*
X558634Y367366D01*
X558671Y367255D01*
X558708Y367144D01*
X558745Y367015D01*
X558763Y366876D01*
X558791Y366719D01*
X558800Y366562D01*
Y366386D01*
X558033Y366275D01*
Y366284D01*
Y366303D01*
Y366340D01*
X558023Y366395D01*
X558014Y366451D01*
Y366516D01*
X557986Y366673D01*
X557959Y366839D01*
X557903Y367006D01*
X557848Y367154D01*
X557811Y367218D01*
X557765Y367274D01*
X557755Y367283D01*
X557718Y367311D01*
X557663Y367357D01*
X557589Y367403D01*
X557487Y367459D01*
X557376Y367496D01*
X557238Y367533D01*
X557090Y367542D01*
X557034D01*
X556979Y367533D01*
X556895Y367523D01*
X556812Y367505D01*
X556720Y367486D01*
X556627Y367449D01*
X556535Y367403D01*
X556526Y367394D01*
X556498Y367375D01*
X556461Y367338D01*
X556405Y367302D01*
X556359Y367237D01*
X556304Y367172D01*
X556258Y367098D01*
X556221Y367006D01*
Y366996D01*
X556202Y366959D01*
X556193Y366895D01*
X556174Y366811D01*
X556156Y366701D01*
X556147Y366562D01*
X556128Y366395D01*
Y366201D01*
Y361791D01*
X555277D01*
Y366155D01*
Y366164D01*
Y366192D01*
Y366229D01*
Y366284D01*
X555287Y366358D01*
Y366432D01*
X555305Y366608D01*
X555324Y366811D01*
X555361Y367024D01*
X555416Y367218D01*
X555481Y367403D01*
Y367412D01*
X555490Y367422D01*
X555518Y367477D01*
X555564Y367551D01*
X555629Y367653D01*
X555721Y367755D01*
X555823Y367865D01*
X555952Y367976D01*
X556100Y368069D01*
X556119Y368078D01*
X556174Y368106D01*
X556258Y368143D01*
X556378Y368180D01*
X556526Y368226D01*
X556692Y368263D01*
X556877Y368291D01*
X557080Y368300D01*
X557164D01*
X557219Y368291D01*
D02*
G37*
G36*
X554325Y368180D02*
Y368143D01*
Y368087D01*
X554316Y368013D01*
X554307Y367930D01*
X554288Y367838D01*
X554270Y367745D01*
X554233Y367644D01*
Y367634D01*
X554224Y367625D01*
X554205Y367570D01*
X554168Y367486D01*
X554113Y367375D01*
X554039Y367246D01*
X553946Y367098D01*
X553844Y366950D01*
X553715Y366793D01*
Y366784D01*
X553697Y366775D01*
X553650Y366719D01*
X553567Y366636D01*
X553447Y366516D01*
X553308Y366377D01*
X553133Y366211D01*
X552920Y366026D01*
X552689Y365831D01*
X552679Y365822D01*
X552643Y365794D01*
X552587Y365748D01*
X552522Y365693D01*
X552439Y365619D01*
X552337Y365536D01*
X552236Y365443D01*
X552116Y365341D01*
X551884Y365120D01*
X551653Y364898D01*
X551542Y364787D01*
X551441Y364676D01*
X551348Y364574D01*
X551274Y364472D01*
Y364463D01*
X551256Y364454D01*
X551237Y364426D01*
X551219Y364389D01*
X551154Y364287D01*
X551080Y364167D01*
X551015Y364019D01*
X550951Y363862D01*
X550914Y363686D01*
X550895Y363520D01*
Y363511D01*
Y363502D01*
X550904Y363446D01*
X550914Y363354D01*
X550941Y363252D01*
X550978Y363122D01*
X551043Y362993D01*
X551126Y362864D01*
X551237Y362734D01*
X551256Y362716D01*
X551302Y362679D01*
X551367Y362632D01*
X551468Y362568D01*
X551598Y362512D01*
X551746Y362457D01*
X551921Y362420D01*
X552116Y362411D01*
X552171D01*
X552208Y362420D01*
X552319Y362429D01*
X552448Y362457D01*
X552587Y362494D01*
X552744Y362559D01*
X552892Y362642D01*
X553031Y362753D01*
X553049Y362771D01*
X553086Y362817D01*
X553142Y362891D01*
X553197Y363002D01*
X553262Y363132D01*
X553317Y363298D01*
X553354Y363483D01*
X553373Y363696D01*
X554177Y363613D01*
Y363603D01*
X554168Y363576D01*
Y363529D01*
X554159Y363465D01*
X554140Y363391D01*
X554122Y363307D01*
X554094Y363206D01*
X554066Y363104D01*
X553992Y362882D01*
X553881Y362660D01*
X553817Y362549D01*
X553733Y362438D01*
X553650Y362337D01*
X553558Y362244D01*
X553549Y362235D01*
X553530Y362226D01*
X553502Y362198D01*
X553456Y362170D01*
X553401Y362133D01*
X553336Y362096D01*
X553262Y362050D01*
X553170Y362004D01*
X553068Y361958D01*
X552957Y361911D01*
X552837Y361874D01*
X552707Y361837D01*
X552569Y361810D01*
X552421Y361782D01*
X552263Y361773D01*
X552097Y361763D01*
X552005D01*
X551940Y361773D01*
X551866Y361782D01*
X551773Y361791D01*
X551672Y361810D01*
X551570Y361828D01*
X551330Y361893D01*
X551089Y361985D01*
X550969Y362041D01*
X550849Y362105D01*
X550738Y362189D01*
X550636Y362281D01*
X550627Y362290D01*
X550608Y362300D01*
X550590Y362337D01*
X550553Y362374D01*
X550507Y362420D01*
X550461Y362485D01*
X550414Y362549D01*
X550359Y362632D01*
X550266Y362808D01*
X550174Y363030D01*
X550137Y363141D01*
X550118Y363270D01*
X550100Y363400D01*
X550091Y363539D01*
Y363557D01*
Y363603D01*
X550100Y363677D01*
X550109Y363779D01*
X550128Y363890D01*
X550165Y364019D01*
X550202Y364158D01*
X550257Y364297D01*
X550266Y364315D01*
X550285Y364361D01*
X550322Y364435D01*
X550377Y364537D01*
X550451Y364648D01*
X550544Y364787D01*
X550655Y364925D01*
X550784Y365083D01*
X550803Y365101D01*
X550849Y365157D01*
X550895Y365203D01*
X550941Y365249D01*
X550997Y365304D01*
X551071Y365378D01*
X551145Y365452D01*
X551237Y365536D01*
X551330Y365628D01*
X551441Y365730D01*
X551561Y365831D01*
X551690Y365952D01*
X551838Y366072D01*
X551986Y366201D01*
X551995Y366211D01*
X552014Y366229D01*
X552051Y366257D01*
X552097Y366294D01*
X552152Y366349D01*
X552217Y366405D01*
X552365Y366525D01*
X552522Y366664D01*
X552670Y366802D01*
X552800Y366922D01*
X552855Y366969D01*
X552901Y367015D01*
X552911Y367024D01*
X552938Y367052D01*
X552975Y367089D01*
X553022Y367144D01*
X553068Y367209D01*
X553123Y367274D01*
X553234Y367431D01*
X550081D01*
Y368189D01*
X554325D01*
Y368180D01*
D02*
G37*
G36*
X519090Y98881D02*
X519164Y98872D01*
X519247Y98862D01*
X519348Y98853D01*
X519450Y98825D01*
X519681Y98770D01*
X519912Y98687D01*
X520033Y98631D01*
X520153Y98567D01*
X520264Y98493D01*
X520375Y98409D01*
X520384Y98400D01*
X520402Y98391D01*
X520421Y98354D01*
X520458Y98317D01*
X520504Y98271D01*
X520550Y98215D01*
X520606Y98141D01*
X520652Y98058D01*
X520708Y97975D01*
X520763Y97873D01*
X520865Y97651D01*
X520948Y97392D01*
X520976Y97254D01*
X520994Y97106D01*
X520171Y97041D01*
Y97050D01*
Y97069D01*
X520162Y97097D01*
X520153Y97143D01*
X520125Y97244D01*
X520088Y97383D01*
X520033Y97522D01*
X519959Y97679D01*
X519866Y97818D01*
X519755Y97947D01*
X519737Y97956D01*
X519700Y97993D01*
X519626Y98040D01*
X519524Y98095D01*
X519413Y98151D01*
X519275Y98197D01*
X519117Y98234D01*
X518942Y98243D01*
X518886D01*
X518849Y98234D01*
X518738Y98224D01*
X518609Y98188D01*
X518452Y98141D01*
X518294Y98067D01*
X518128Y97956D01*
X518054Y97892D01*
X517980Y97818D01*
X517971Y97808D01*
X517962Y97799D01*
X517943Y97771D01*
X517915Y97744D01*
X517851Y97642D01*
X517777Y97513D01*
X517712Y97355D01*
X517647Y97161D01*
X517601Y96930D01*
X517583Y96810D01*
Y96680D01*
Y96671D01*
Y96653D01*
Y96616D01*
X517592Y96569D01*
Y96514D01*
X517601Y96449D01*
X517629Y96301D01*
X517675Y96126D01*
X517740Y95950D01*
X517832Y95784D01*
X517962Y95626D01*
Y95617D01*
X517980Y95608D01*
X518026Y95562D01*
X518110Y95497D01*
X518221Y95423D01*
X518368Y95358D01*
X518535Y95294D01*
X518729Y95247D01*
X518840Y95229D01*
X519016D01*
X519090Y95238D01*
X519182Y95247D01*
X519293Y95275D01*
X519404Y95303D01*
X519524Y95349D01*
X519644Y95405D01*
X519654Y95414D01*
X519691Y95432D01*
X519746Y95478D01*
X519820Y95525D01*
X519894Y95589D01*
X519968Y95673D01*
X520051Y95756D01*
X520116Y95858D01*
X520856Y95756D01*
X520236Y92464D01*
X517056D01*
Y93213D01*
X519617D01*
X519959Y94942D01*
X519949Y94933D01*
X519931Y94924D01*
X519903Y94905D01*
X519857Y94878D01*
X519802Y94850D01*
X519737Y94813D01*
X519589Y94739D01*
X519404Y94665D01*
X519201Y94600D01*
X518979Y94554D01*
X518868Y94535D01*
X518664D01*
X518609Y94545D01*
X518535Y94554D01*
X518452Y94563D01*
X518359Y94582D01*
X518258Y94609D01*
X518036Y94674D01*
X517915Y94720D01*
X517795Y94785D01*
X517675Y94850D01*
X517555Y94924D01*
X517444Y95016D01*
X517333Y95118D01*
X517324Y95127D01*
X517305Y95146D01*
X517277Y95173D01*
X517240Y95220D01*
X517194Y95284D01*
X517148Y95349D01*
X517093Y95432D01*
X517037Y95525D01*
X516991Y95626D01*
X516935Y95737D01*
X516889Y95867D01*
X516843Y95996D01*
X516806Y96135D01*
X516778Y96292D01*
X516760Y96449D01*
X516750Y96616D01*
Y96625D01*
Y96653D01*
Y96699D01*
X516760Y96764D01*
X516769Y96838D01*
X516778Y96921D01*
X516797Y97022D01*
X516815Y97124D01*
X516871Y97365D01*
X516963Y97614D01*
X517019Y97744D01*
X517093Y97864D01*
X517167Y97993D01*
X517259Y98113D01*
X517268Y98123D01*
X517287Y98151D01*
X517324Y98188D01*
X517370Y98234D01*
X517435Y98289D01*
X517509Y98363D01*
X517601Y98428D01*
X517703Y98502D01*
X517814Y98576D01*
X517943Y98640D01*
X518082Y98705D01*
X518230Y98770D01*
X518387Y98816D01*
X518563Y98853D01*
X518748Y98881D01*
X518942Y98890D01*
X519025D01*
X519090Y98881D01*
D02*
G37*
G36*
X523999D02*
X524073Y98872D01*
X524147Y98862D01*
X524341Y98825D01*
X524545Y98770D01*
X524757Y98687D01*
X524868Y98631D01*
X524970Y98567D01*
X525062Y98493D01*
X525155Y98409D01*
X525164Y98400D01*
X525173Y98391D01*
X525192Y98354D01*
X525219Y98317D01*
X525257Y98271D01*
X525294Y98206D01*
X525330Y98132D01*
X525377Y98049D01*
X525414Y97956D01*
X525451Y97845D01*
X525488Y97734D01*
X525525Y97605D01*
X525543Y97466D01*
X525571Y97309D01*
X525580Y97152D01*
Y96976D01*
X524813Y96865D01*
Y96875D01*
Y96893D01*
Y96930D01*
X524803Y96986D01*
X524794Y97041D01*
Y97106D01*
X524767Y97263D01*
X524739Y97429D01*
X524683Y97596D01*
X524628Y97744D01*
X524591Y97808D01*
X524545Y97864D01*
X524535Y97873D01*
X524498Y97901D01*
X524443Y97947D01*
X524369Y97993D01*
X524267Y98049D01*
X524156Y98086D01*
X524018Y98123D01*
X523870Y98132D01*
X523814D01*
X523759Y98123D01*
X523675Y98113D01*
X523592Y98095D01*
X523500Y98076D01*
X523407Y98040D01*
X523315Y97993D01*
X523306Y97984D01*
X523278Y97966D01*
X523241Y97929D01*
X523186Y97892D01*
X523139Y97827D01*
X523084Y97762D01*
X523037Y97688D01*
X523001Y97596D01*
Y97586D01*
X522982Y97549D01*
X522973Y97485D01*
X522954Y97402D01*
X522936Y97291D01*
X522927Y97152D01*
X522908Y96986D01*
Y96791D01*
Y92381D01*
X522057D01*
Y96745D01*
Y96754D01*
Y96782D01*
Y96819D01*
Y96875D01*
X522067Y96948D01*
Y97022D01*
X522085Y97198D01*
X522104Y97402D01*
X522141Y97614D01*
X522196Y97808D01*
X522261Y97993D01*
Y98003D01*
X522270Y98012D01*
X522298Y98067D01*
X522344Y98141D01*
X522409Y98243D01*
X522501Y98345D01*
X522603Y98456D01*
X522732Y98567D01*
X522880Y98659D01*
X522899Y98668D01*
X522954Y98696D01*
X523037Y98733D01*
X523158Y98770D01*
X523306Y98816D01*
X523472Y98853D01*
X523657Y98881D01*
X523860Y98890D01*
X523944D01*
X523999Y98881D01*
D02*
G37*
G36*
X353742Y78889D02*
X353816Y78879D01*
X353899Y78861D01*
X353991Y78843D01*
X354093Y78824D01*
X354315Y78750D01*
X354435Y78695D01*
X354546Y78639D01*
X354666Y78565D01*
X354786Y78482D01*
X354907Y78390D01*
X355018Y78278D01*
X355027Y78269D01*
X355045Y78251D01*
X355073Y78214D01*
X355110Y78168D01*
X355156Y78112D01*
X355202Y78038D01*
X355258Y77955D01*
X355304Y77853D01*
X355360Y77751D01*
X355415Y77631D01*
X355461Y77511D01*
X355508Y77372D01*
X355545Y77224D01*
X355572Y77067D01*
X355591Y76910D01*
X355600Y76734D01*
Y76651D01*
X355591Y76596D01*
X355582Y76522D01*
X355572Y76439D01*
X355554Y76346D01*
X355535Y76245D01*
X355480Y76023D01*
X355387Y75791D01*
X355332Y75671D01*
X355267Y75560D01*
X355184Y75449D01*
X355101Y75338D01*
X355092Y75329D01*
X355073Y75311D01*
X355045Y75283D01*
X355008Y75255D01*
X354962Y75209D01*
X354897Y75163D01*
X354833Y75107D01*
X354749Y75052D01*
X354657Y74996D01*
X354565Y74941D01*
X354343Y74839D01*
X354084Y74756D01*
X353945Y74728D01*
X353797Y74710D01*
X353695Y75496D01*
X353705D01*
X353723Y75505D01*
X353760Y75514D01*
X353806Y75523D01*
X353862Y75533D01*
X353927Y75551D01*
X354065Y75597D01*
X354232Y75662D01*
X354389Y75745D01*
X354537Y75838D01*
X354666Y75949D01*
X354675Y75967D01*
X354712Y76004D01*
X354759Y76078D01*
X354805Y76171D01*
X354860Y76281D01*
X354907Y76420D01*
X354944Y76577D01*
X354953Y76744D01*
Y76799D01*
X354944Y76836D01*
X354934Y76938D01*
X354907Y77067D01*
X354860Y77215D01*
X354796Y77372D01*
X354703Y77530D01*
X354574Y77677D01*
X354555Y77696D01*
X354500Y77742D01*
X354417Y77798D01*
X354306Y77872D01*
X354167Y77946D01*
X354010Y78001D01*
X353825Y78047D01*
X353621Y78066D01*
X353612D01*
X353594D01*
X353566D01*
X353529Y78057D01*
X353427Y78047D01*
X353307Y78020D01*
X353159Y77983D01*
X353011Y77918D01*
X352863Y77825D01*
X352725Y77705D01*
X352706Y77687D01*
X352669Y77641D01*
X352614Y77567D01*
X352549Y77465D01*
X352484Y77336D01*
X352429Y77178D01*
X352392Y77003D01*
X352373Y76809D01*
Y76725D01*
X352383Y76660D01*
X352392Y76577D01*
X352410Y76485D01*
X352429Y76374D01*
X352457Y76254D01*
X351763Y76346D01*
Y76392D01*
X351772Y76429D01*
Y76550D01*
X351754Y76651D01*
X351735Y76771D01*
X351708Y76910D01*
X351661Y77067D01*
X351597Y77215D01*
X351513Y77372D01*
Y77382D01*
X351504Y77391D01*
X351467Y77437D01*
X351403Y77502D01*
X351319Y77576D01*
X351199Y77650D01*
X351060Y77715D01*
X350903Y77761D01*
X350811Y77779D01*
X350709D01*
X350700D01*
X350691D01*
X350635D01*
X350561Y77761D01*
X350460Y77742D01*
X350349Y77705D01*
X350228Y77659D01*
X350108Y77585D01*
X349997Y77483D01*
X349988Y77474D01*
X349951Y77428D01*
X349905Y77363D01*
X349849Y77280D01*
X349803Y77169D01*
X349757Y77040D01*
X349720Y76892D01*
X349711Y76725D01*
Y76651D01*
X349729Y76568D01*
X349748Y76457D01*
X349785Y76337D01*
X349831Y76217D01*
X349905Y76087D01*
X349997Y75967D01*
X350006Y75958D01*
X350053Y75921D01*
X350117Y75865D01*
X350210Y75801D01*
X350330Y75736D01*
X350478Y75671D01*
X350654Y75616D01*
X350857Y75579D01*
X350718Y74793D01*
X350709D01*
X350681Y74802D01*
X350644Y74811D01*
X350589Y74821D01*
X350524Y74839D01*
X350450Y74867D01*
X350275Y74922D01*
X350071Y75015D01*
X349868Y75126D01*
X349674Y75264D01*
X349498Y75440D01*
X349489Y75449D01*
X349479Y75468D01*
X349461Y75496D01*
X349433Y75533D01*
X349396Y75579D01*
X349359Y75644D01*
X349322Y75708D01*
X349276Y75791D01*
X349202Y75976D01*
X349128Y76189D01*
X349082Y76439D01*
X349063Y76568D01*
Y76799D01*
X349073Y76901D01*
X349091Y77021D01*
X349119Y77169D01*
X349165Y77336D01*
X349221Y77502D01*
X349295Y77668D01*
Y77677D01*
X349304Y77687D01*
X349332Y77742D01*
X349387Y77825D01*
X349452Y77918D01*
X349544Y78029D01*
X349646Y78140D01*
X349766Y78251D01*
X349905Y78343D01*
X349923Y78352D01*
X349969Y78380D01*
X350053Y78417D01*
X350154Y78463D01*
X350275Y78510D01*
X350413Y78547D01*
X350570Y78574D01*
X350728Y78584D01*
X350746D01*
X350802D01*
X350876Y78574D01*
X350977Y78556D01*
X351097Y78528D01*
X351227Y78482D01*
X351356Y78426D01*
X351486Y78352D01*
X351504Y78343D01*
X351541Y78316D01*
X351606Y78260D01*
X351680Y78186D01*
X351763Y78094D01*
X351856Y77983D01*
X351939Y77853D01*
X352022Y77696D01*
Y77705D01*
X352031Y77724D01*
X352040Y77751D01*
X352050Y77789D01*
X352087Y77890D01*
X352142Y78020D01*
X352216Y78168D01*
X352309Y78316D01*
X352429Y78454D01*
X352567Y78584D01*
X352586Y78593D01*
X352641Y78630D01*
X352734Y78685D01*
X352854Y78741D01*
X353002Y78796D01*
X353178Y78852D01*
X353381Y78889D01*
X353603Y78898D01*
X353612D01*
X353640D01*
X353686D01*
X353742Y78889D01*
D02*
G37*
G36*
X353030Y73600D02*
X353122D01*
X353233Y73591D01*
X353344Y73582D01*
X353594Y73554D01*
X353853Y73517D01*
X354102Y73461D01*
X354222Y73425D01*
X354333Y73388D01*
X354343D01*
X354361Y73378D01*
X354389Y73360D01*
X354426Y73341D01*
X354528Y73286D01*
X354657Y73203D01*
X354805Y73092D01*
X354953Y72962D01*
X355110Y72796D01*
X355249Y72593D01*
Y72583D01*
X355267Y72565D01*
X355276Y72537D01*
X355304Y72491D01*
X355332Y72435D01*
X355360Y72361D01*
X355387Y72287D01*
X355424Y72195D01*
X355461Y72093D01*
X355489Y71982D01*
X355517Y71862D01*
X355545Y71723D01*
X355563Y71585D01*
X355582Y71437D01*
X355600Y71104D01*
Y71021D01*
X355591Y70956D01*
Y70882D01*
X355582Y70790D01*
X355572Y70688D01*
X355563Y70586D01*
X355526Y70355D01*
X355471Y70105D01*
X355397Y69865D01*
X355295Y69634D01*
Y69625D01*
X355276Y69606D01*
X355258Y69578D01*
X355239Y69541D01*
X355165Y69440D01*
X355064Y69320D01*
X354934Y69181D01*
X354786Y69051D01*
X354602Y68922D01*
X354398Y68820D01*
X354389D01*
X354370Y68811D01*
X354333Y68802D01*
X354287Y68783D01*
X354232Y68765D01*
X354158Y68746D01*
X354075Y68719D01*
X353973Y68700D01*
X353862Y68682D01*
X353742Y68654D01*
X353612Y68635D01*
X353474Y68617D01*
X353316Y68598D01*
X353150Y68589D01*
X352974Y68580D01*
X352789D01*
X349091D01*
Y69430D01*
X352789D01*
X352799D01*
X352826D01*
X352873D01*
X352928D01*
X352993Y69440D01*
X353076D01*
X353252Y69449D01*
X353455Y69468D01*
X353658Y69495D01*
X353853Y69532D01*
X353936Y69551D01*
X354019Y69578D01*
X354038Y69588D01*
X354084Y69606D01*
X354148Y69652D01*
X354241Y69708D01*
X354333Y69773D01*
X354435Y69865D01*
X354537Y69976D01*
X354620Y70105D01*
X354629Y70124D01*
X354657Y70170D01*
X354685Y70253D01*
X354722Y70364D01*
X354768Y70494D01*
X354796Y70660D01*
X354823Y70836D01*
X354833Y71030D01*
Y71122D01*
X354823Y71178D01*
Y71261D01*
X354814Y71344D01*
X354777Y71548D01*
X354731Y71770D01*
X354657Y71982D01*
X354555Y72186D01*
X354491Y72278D01*
X354417Y72361D01*
X354407Y72371D01*
X354398Y72380D01*
X354370Y72398D01*
X354333Y72426D01*
X354278Y72454D01*
X354222Y72491D01*
X354139Y72528D01*
X354056Y72565D01*
X353954Y72602D01*
X353834Y72629D01*
X353695Y72666D01*
X353548Y72694D01*
X353381Y72722D01*
X353205Y72740D01*
X353002Y72759D01*
X352789D01*
X349091D01*
Y73609D01*
X352789D01*
X352799D01*
X352836D01*
X352882D01*
X352947D01*
X353030Y73600D01*
D02*
G37*
G36*
X279400Y63001D02*
X279391D01*
X279354D01*
X279298D01*
X279224Y63010D01*
X279141Y63019D01*
X279049Y63038D01*
X278956Y63056D01*
X278855Y63093D01*
X278845D01*
X278836Y63103D01*
X278781Y63121D01*
X278697Y63158D01*
X278587Y63214D01*
X278457Y63288D01*
X278309Y63380D01*
X278161Y63482D01*
X278004Y63611D01*
X277995D01*
X277985Y63630D01*
X277930Y63676D01*
X277847Y63759D01*
X277727Y63879D01*
X277588Y64018D01*
X277421Y64194D01*
X277237Y64406D01*
X277042Y64637D01*
X277033Y64647D01*
X277006Y64684D01*
X276959Y64739D01*
X276904Y64804D01*
X276830Y64887D01*
X276747Y64989D01*
X276654Y65090D01*
X276552Y65211D01*
X276331Y65442D01*
X276109Y65673D01*
X275998Y65784D01*
X275887Y65886D01*
X275785Y65978D01*
X275683Y66052D01*
X275674D01*
X275665Y66070D01*
X275637Y66089D01*
X275600Y66108D01*
X275498Y66172D01*
X275378Y66246D01*
X275230Y66311D01*
X275073Y66376D01*
X274897Y66413D01*
X274731Y66431D01*
X274722D01*
X274713D01*
X274657Y66422D01*
X274565Y66413D01*
X274463Y66385D01*
X274333Y66348D01*
X274204Y66283D01*
X274075Y66200D01*
X273945Y66089D01*
X273927Y66070D01*
X273890Y66024D01*
X273843Y65960D01*
X273779Y65858D01*
X273723Y65728D01*
X273668Y65581D01*
X273631Y65405D01*
X273622Y65211D01*
Y65155D01*
X273631Y65118D01*
X273640Y65007D01*
X273668Y64878D01*
X273705Y64739D01*
X273769Y64582D01*
X273853Y64434D01*
X273964Y64295D01*
X273982Y64277D01*
X274028Y64240D01*
X274102Y64184D01*
X274213Y64129D01*
X274343Y64064D01*
X274509Y64009D01*
X274694Y63972D01*
X274907Y63953D01*
X274823Y63149D01*
X274814D01*
X274786Y63158D01*
X274740D01*
X274676Y63167D01*
X274602Y63186D01*
X274518Y63204D01*
X274417Y63232D01*
X274315Y63260D01*
X274093Y63334D01*
X273871Y63445D01*
X273760Y63509D01*
X273649Y63593D01*
X273548Y63676D01*
X273455Y63768D01*
X273446Y63778D01*
X273437Y63796D01*
X273409Y63824D01*
X273381Y63870D01*
X273344Y63925D01*
X273307Y63990D01*
X273261Y64064D01*
X273215Y64157D01*
X273169Y64258D01*
X273122Y64369D01*
X273085Y64489D01*
X273048Y64619D01*
X273021Y64758D01*
X272993Y64906D01*
X272984Y65063D01*
X272974Y65229D01*
Y65322D01*
X272984Y65386D01*
X272993Y65460D01*
X273002Y65553D01*
X273021Y65655D01*
X273039Y65756D01*
X273104Y65996D01*
X273196Y66237D01*
X273252Y66357D01*
X273316Y66477D01*
X273400Y66588D01*
X273492Y66690D01*
X273501Y66699D01*
X273511Y66718D01*
X273548Y66736D01*
X273585Y66773D01*
X273631Y66819D01*
X273696Y66866D01*
X273760Y66912D01*
X273843Y66967D01*
X274019Y67060D01*
X274241Y67152D01*
X274352Y67189D01*
X274481Y67208D01*
X274611Y67226D01*
X274750Y67235D01*
X274768D01*
X274814D01*
X274888Y67226D01*
X274990Y67217D01*
X275101Y67199D01*
X275230Y67161D01*
X275369Y67125D01*
X275508Y67069D01*
X275526Y67060D01*
X275572Y67041D01*
X275646Y67004D01*
X275748Y66949D01*
X275859Y66875D01*
X275998Y66782D01*
X276136Y66672D01*
X276294Y66542D01*
X276312Y66523D01*
X276367Y66477D01*
X276414Y66431D01*
X276460Y66385D01*
X276515Y66329D01*
X276589Y66255D01*
X276663Y66182D01*
X276747Y66089D01*
X276839Y65996D01*
X276941Y65886D01*
X277042Y65765D01*
X277163Y65636D01*
X277283Y65488D01*
X277412Y65340D01*
X277421Y65331D01*
X277440Y65312D01*
X277468Y65275D01*
X277505Y65229D01*
X277560Y65174D01*
X277616Y65109D01*
X277736Y64961D01*
X277875Y64804D01*
X278013Y64656D01*
X278133Y64527D01*
X278180Y64471D01*
X278226Y64425D01*
X278235Y64415D01*
X278263Y64388D01*
X278300Y64351D01*
X278355Y64305D01*
X278420Y64258D01*
X278485Y64203D01*
X278642Y64092D01*
Y67245D01*
X279400D01*
Y63001D01*
D02*
G37*
G36*
Y61559D02*
X278069Y60717D01*
X278060D01*
X278041Y60699D01*
X278013Y60680D01*
X277976Y60653D01*
X277875Y60588D01*
X277745Y60505D01*
X277606Y60403D01*
X277458Y60301D01*
X277320Y60199D01*
X277190Y60107D01*
X277181Y60098D01*
X277144Y60070D01*
X277089Y60024D01*
X277024Y59959D01*
X276885Y59820D01*
X276821Y59746D01*
X276765Y59673D01*
X276756Y59663D01*
X276747Y59645D01*
X276728Y59608D01*
X276700Y59552D01*
X276673Y59497D01*
X276645Y59432D01*
X276599Y59284D01*
Y59275D01*
X276589Y59257D01*
Y59219D01*
X276580Y59173D01*
X276571Y59109D01*
Y59035D01*
X276562Y58933D01*
Y57842D01*
X279400D01*
Y56991D01*
X273002D01*
Y59959D01*
X273011Y60033D01*
Y60116D01*
X273021Y60311D01*
X273048Y60514D01*
X273076Y60736D01*
X273122Y60939D01*
X273150Y61041D01*
X273178Y61124D01*
Y61133D01*
X273187Y61143D01*
X273215Y61198D01*
X273252Y61281D01*
X273316Y61383D01*
X273400Y61494D01*
X273511Y61614D01*
X273640Y61725D01*
X273788Y61836D01*
X273797D01*
X273806Y61845D01*
X273862Y61882D01*
X273954Y61919D01*
X274075Y61975D01*
X274213Y62021D01*
X274380Y62067D01*
X274555Y62095D01*
X274750Y62104D01*
X274759D01*
X274777D01*
X274814D01*
X274860Y62095D01*
X274925D01*
X274990Y62086D01*
X275147Y62049D01*
X275332Y61993D01*
X275526Y61919D01*
X275720Y61808D01*
X275813Y61734D01*
X275905Y61660D01*
X275914Y61651D01*
X275924Y61642D01*
X275951Y61614D01*
X275979Y61577D01*
X276016Y61531D01*
X276053Y61475D01*
X276099Y61402D01*
X276155Y61328D01*
X276201Y61235D01*
X276247Y61133D01*
X276303Y61022D01*
X276349Y60902D01*
X276386Y60764D01*
X276432Y60625D01*
X276460Y60468D01*
X276488Y60301D01*
X276497Y60320D01*
X276515Y60357D01*
X276552Y60412D01*
X276589Y60486D01*
X276691Y60653D01*
X276756Y60736D01*
X276811Y60810D01*
X276830Y60828D01*
X276876Y60875D01*
X276950Y60948D01*
X277042Y61041D01*
X277172Y61143D01*
X277311Y61263D01*
X277477Y61383D01*
X277662Y61512D01*
X279400Y62613D01*
Y61559D01*
D02*
G37*
G36*
X200824Y90891D02*
X200898D01*
X200990Y90882D01*
X201092Y90872D01*
X201194Y90863D01*
X201425Y90826D01*
X201675Y90771D01*
X201915Y90697D01*
X202146Y90595D01*
X202155D01*
X202174Y90577D01*
X202202Y90558D01*
X202239Y90540D01*
X202340Y90466D01*
X202460Y90364D01*
X202599Y90234D01*
X202729Y90086D01*
X202858Y89902D01*
X202960Y89698D01*
Y89689D01*
X202969Y89670D01*
X202978Y89634D01*
X202997Y89587D01*
X203015Y89532D01*
X203034Y89458D01*
X203061Y89375D01*
X203080Y89273D01*
X203098Y89162D01*
X203126Y89042D01*
X203145Y88912D01*
X203163Y88774D01*
X203182Y88617D01*
X203191Y88450D01*
X203200Y88274D01*
Y88090D01*
Y84391D01*
X202349D01*
Y88090D01*
Y88099D01*
Y88126D01*
Y88173D01*
Y88228D01*
X202340Y88293D01*
Y88376D01*
X202331Y88552D01*
X202313Y88755D01*
X202285Y88959D01*
X202248Y89153D01*
X202229Y89236D01*
X202202Y89319D01*
X202192Y89338D01*
X202174Y89384D01*
X202128Y89449D01*
X202072Y89541D01*
X202007Y89634D01*
X201915Y89735D01*
X201804Y89837D01*
X201675Y89920D01*
X201656Y89929D01*
X201610Y89957D01*
X201527Y89985D01*
X201416Y90022D01*
X201286Y90068D01*
X201120Y90096D01*
X200944Y90124D01*
X200750Y90133D01*
X200658D01*
X200602Y90124D01*
X200519D01*
X200436Y90114D01*
X200232Y90077D01*
X200010Y90031D01*
X199798Y89957D01*
X199594Y89855D01*
X199502Y89791D01*
X199419Y89717D01*
X199409Y89707D01*
X199400Y89698D01*
X199382Y89670D01*
X199354Y89634D01*
X199326Y89578D01*
X199289Y89523D01*
X199252Y89439D01*
X199215Y89356D01*
X199178Y89254D01*
X199151Y89134D01*
X199114Y88996D01*
X199086Y88848D01*
X199058Y88681D01*
X199040Y88505D01*
X199021Y88302D01*
Y88090D01*
Y84391D01*
X198171D01*
Y88090D01*
Y88099D01*
Y88136D01*
Y88182D01*
Y88247D01*
X198180Y88330D01*
Y88422D01*
X198189Y88533D01*
X198198Y88644D01*
X198226Y88894D01*
X198263Y89153D01*
X198318Y89402D01*
X198355Y89523D01*
X198392Y89634D01*
Y89643D01*
X198402Y89661D01*
X198420Y89689D01*
X198439Y89726D01*
X198494Y89828D01*
X198577Y89957D01*
X198688Y90105D01*
X198818Y90253D01*
X198984Y90410D01*
X199188Y90549D01*
X199197D01*
X199215Y90567D01*
X199243Y90577D01*
X199289Y90604D01*
X199345Y90632D01*
X199419Y90660D01*
X199493Y90688D01*
X199585Y90724D01*
X199687Y90761D01*
X199798Y90789D01*
X199918Y90817D01*
X200057Y90845D01*
X200195Y90863D01*
X200343Y90882D01*
X200676Y90900D01*
X200759D01*
X200824Y90891D01*
D02*
G37*
G36*
X197190Y90780D02*
Y90743D01*
Y90688D01*
X197181Y90613D01*
X197172Y90530D01*
X197153Y90438D01*
X197135Y90345D01*
X197098Y90244D01*
Y90234D01*
X197089Y90225D01*
X197070Y90170D01*
X197033Y90086D01*
X196978Y89976D01*
X196904Y89846D01*
X196811Y89698D01*
X196710Y89550D01*
X196580Y89393D01*
Y89384D01*
X196562Y89375D01*
X196516Y89319D01*
X196432Y89236D01*
X196312Y89116D01*
X196173Y88977D01*
X195998Y88811D01*
X195785Y88626D01*
X195554Y88432D01*
X195545Y88422D01*
X195508Y88395D01*
X195452Y88348D01*
X195387Y88293D01*
X195304Y88219D01*
X195203Y88136D01*
X195101Y88043D01*
X194981Y87942D01*
X194750Y87720D01*
X194519Y87498D01*
X194408Y87387D01*
X194306Y87276D01*
X194213Y87174D01*
X194139Y87072D01*
Y87063D01*
X194121Y87054D01*
X194102Y87026D01*
X194084Y86989D01*
X194019Y86888D01*
X193945Y86767D01*
X193881Y86619D01*
X193816Y86462D01*
X193779Y86287D01*
X193760Y86120D01*
Y86111D01*
Y86102D01*
X193770Y86046D01*
X193779Y85954D01*
X193806Y85852D01*
X193843Y85723D01*
X193908Y85593D01*
X193992Y85464D01*
X194102Y85334D01*
X194121Y85316D01*
X194167Y85279D01*
X194232Y85233D01*
X194333Y85168D01*
X194463Y85112D01*
X194611Y85057D01*
X194787Y85020D01*
X194981Y85011D01*
X195036D01*
X195073Y85020D01*
X195184Y85029D01*
X195314Y85057D01*
X195452Y85094D01*
X195609Y85159D01*
X195757Y85242D01*
X195896Y85353D01*
X195914Y85371D01*
X195951Y85417D01*
X196007Y85492D01*
X196063Y85602D01*
X196127Y85732D01*
X196183Y85898D01*
X196220Y86083D01*
X196238Y86296D01*
X197043Y86213D01*
Y86203D01*
X197033Y86176D01*
Y86129D01*
X197024Y86065D01*
X197006Y85991D01*
X196987Y85907D01*
X196959Y85806D01*
X196932Y85704D01*
X196858Y85482D01*
X196747Y85260D01*
X196682Y85149D01*
X196599Y85038D01*
X196516Y84937D01*
X196423Y84844D01*
X196414Y84835D01*
X196395Y84826D01*
X196368Y84798D01*
X196321Y84770D01*
X196266Y84733D01*
X196201Y84696D01*
X196127Y84650D01*
X196035Y84604D01*
X195933Y84558D01*
X195822Y84511D01*
X195702Y84474D01*
X195572Y84438D01*
X195434Y84410D01*
X195286Y84382D01*
X195129Y84373D01*
X194962Y84363D01*
X194870D01*
X194805Y84373D01*
X194731Y84382D01*
X194639Y84391D01*
X194537Y84410D01*
X194435Y84428D01*
X194195Y84493D01*
X193955Y84585D01*
X193834Y84641D01*
X193714Y84706D01*
X193603Y84789D01*
X193501Y84881D01*
X193492Y84890D01*
X193474Y84900D01*
X193455Y84937D01*
X193418Y84974D01*
X193372Y85020D01*
X193326Y85085D01*
X193279Y85149D01*
X193224Y85233D01*
X193132Y85408D01*
X193039Y85630D01*
X193002Y85741D01*
X192984Y85871D01*
X192965Y86000D01*
X192956Y86139D01*
Y86157D01*
Y86203D01*
X192965Y86277D01*
X192974Y86379D01*
X192993Y86490D01*
X193030Y86619D01*
X193067Y86758D01*
X193122Y86897D01*
X193132Y86915D01*
X193150Y86961D01*
X193187Y87036D01*
X193243Y87137D01*
X193316Y87248D01*
X193409Y87387D01*
X193520Y87526D01*
X193649Y87683D01*
X193668Y87701D01*
X193714Y87757D01*
X193760Y87803D01*
X193806Y87849D01*
X193862Y87905D01*
X193936Y87978D01*
X194010Y88053D01*
X194102Y88136D01*
X194195Y88228D01*
X194306Y88330D01*
X194426Y88432D01*
X194555Y88552D01*
X194703Y88672D01*
X194851Y88801D01*
X194860Y88811D01*
X194879Y88829D01*
X194916Y88857D01*
X194962Y88894D01*
X195018Y88949D01*
X195082Y89005D01*
X195230Y89125D01*
X195387Y89264D01*
X195536Y89402D01*
X195665Y89523D01*
X195720Y89569D01*
X195767Y89615D01*
X195776Y89624D01*
X195804Y89652D01*
X195841Y89689D01*
X195887Y89744D01*
X195933Y89809D01*
X195989Y89874D01*
X196099Y90031D01*
X192947D01*
Y90789D01*
X197190D01*
Y90780D01*
D02*
G37*
G36*
X127959Y116831D02*
X128033Y116822D01*
X128107Y116812D01*
X128301Y116775D01*
X128505Y116720D01*
X128717Y116637D01*
X128828Y116581D01*
X128930Y116517D01*
X129022Y116442D01*
X129115Y116359D01*
X129124Y116350D01*
X129133Y116341D01*
X129152Y116304D01*
X129180Y116267D01*
X129217Y116221D01*
X129254Y116156D01*
X129291Y116082D01*
X129337Y115999D01*
X129374Y115906D01*
X129411Y115795D01*
X129448Y115684D01*
X129485Y115555D01*
X129503Y115416D01*
X129531Y115259D01*
X129540Y115102D01*
Y114926D01*
X128773Y114815D01*
Y114824D01*
Y114843D01*
Y114880D01*
X128764Y114936D01*
X128754Y114991D01*
Y115056D01*
X128727Y115213D01*
X128699Y115379D01*
X128643Y115546D01*
X128588Y115694D01*
X128551Y115758D01*
X128505Y115814D01*
X128495Y115823D01*
X128458Y115851D01*
X128403Y115897D01*
X128329Y115943D01*
X128227Y115999D01*
X128116Y116036D01*
X127978Y116073D01*
X127830Y116082D01*
X127774D01*
X127719Y116073D01*
X127636Y116063D01*
X127552Y116045D01*
X127460Y116026D01*
X127367Y115990D01*
X127275Y115943D01*
X127266Y115934D01*
X127238Y115915D01*
X127201Y115878D01*
X127146Y115842D01*
X127099Y115777D01*
X127044Y115712D01*
X126998Y115638D01*
X126961Y115546D01*
Y115536D01*
X126942Y115499D01*
X126933Y115435D01*
X126914Y115351D01*
X126896Y115241D01*
X126887Y115102D01*
X126868Y114936D01*
Y114741D01*
Y110331D01*
X126018D01*
Y114695D01*
Y114704D01*
Y114732D01*
Y114769D01*
Y114824D01*
X126027Y114899D01*
Y114972D01*
X126045Y115148D01*
X126064Y115351D01*
X126101Y115564D01*
X126156Y115758D01*
X126221Y115943D01*
Y115953D01*
X126230Y115962D01*
X126258Y116017D01*
X126304Y116091D01*
X126369Y116193D01*
X126461Y116295D01*
X126563Y116405D01*
X126692Y116517D01*
X126840Y116609D01*
X126859Y116618D01*
X126914Y116646D01*
X126998Y116683D01*
X127118Y116720D01*
X127266Y116766D01*
X127432Y116803D01*
X127617Y116831D01*
X127821Y116840D01*
X127904D01*
X127959Y116831D01*
D02*
G37*
G36*
X122865D02*
X122939D01*
X123022Y116822D01*
X123115Y116803D01*
X123225Y116775D01*
X123336Y116748D01*
X123466Y116711D01*
X123595Y116664D01*
X123725Y116609D01*
X123863Y116535D01*
X123993Y116452D01*
X124122Y116359D01*
X124252Y116248D01*
X124372Y116119D01*
X124381Y116110D01*
X124400Y116082D01*
X124427Y116045D01*
X124464Y115980D01*
X124520Y115897D01*
X124566Y115805D01*
X124621Y115684D01*
X124677Y115555D01*
X124742Y115398D01*
X124797Y115222D01*
X124843Y115028D01*
X124890Y114815D01*
X124936Y114575D01*
X124964Y114316D01*
X124982Y114039D01*
X124991Y113743D01*
Y113734D01*
Y113724D01*
Y113697D01*
Y113660D01*
X124982Y113567D01*
Y113438D01*
X124973Y113290D01*
X124954Y113114D01*
X124936Y112920D01*
X124908Y112707D01*
X124871Y112495D01*
X124825Y112263D01*
X124769Y112042D01*
X124705Y111820D01*
X124621Y111607D01*
X124529Y111404D01*
X124427Y111209D01*
X124307Y111043D01*
X124298Y111034D01*
X124279Y111015D01*
X124242Y110978D01*
X124196Y110923D01*
X124141Y110867D01*
X124067Y110812D01*
X123974Y110738D01*
X123882Y110673D01*
X123771Y110609D01*
X123651Y110535D01*
X123512Y110479D01*
X123373Y110414D01*
X123216Y110368D01*
X123050Y110331D01*
X122874Y110313D01*
X122689Y110303D01*
X122615D01*
X122560Y110313D01*
X122495D01*
X122421Y110322D01*
X122245Y110359D01*
X122051Y110405D01*
X121848Y110479D01*
X121644Y110590D01*
X121543Y110655D01*
X121450Y110729D01*
X121441Y110738D01*
X121432Y110747D01*
X121404Y110775D01*
X121376Y110803D01*
X121330Y110849D01*
X121293Y110904D01*
X121191Y111034D01*
X121090Y111200D01*
X120997Y111404D01*
X120914Y111635D01*
X120858Y111894D01*
X121644Y111958D01*
Y111949D01*
X121654Y111940D01*
X121663Y111884D01*
X121691Y111801D01*
X121728Y111699D01*
X121765Y111589D01*
X121820Y111478D01*
X121885Y111376D01*
X121950Y111293D01*
X121968Y111274D01*
X122005Y111237D01*
X122070Y111182D01*
X122162Y111117D01*
X122282Y111062D01*
X122412Y111006D01*
X122569Y110969D01*
X122735Y110951D01*
X122800D01*
X122874Y110960D01*
X122957Y110978D01*
X123068Y111006D01*
X123179Y111043D01*
X123290Y111089D01*
X123401Y111163D01*
X123420Y111173D01*
X123466Y111209D01*
X123531Y111274D01*
X123614Y111367D01*
X123706Y111478D01*
X123808Y111607D01*
X123900Y111774D01*
X123993Y111958D01*
Y111968D01*
X124002Y111986D01*
X124011Y112014D01*
X124030Y112051D01*
X124039Y112106D01*
X124058Y112171D01*
X124076Y112245D01*
X124094Y112338D01*
X124122Y112439D01*
X124141Y112550D01*
X124159Y112670D01*
X124169Y112800D01*
X124187Y112948D01*
X124196Y113096D01*
X124205Y113262D01*
Y113428D01*
X124196Y113419D01*
X124159Y113364D01*
X124094Y113290D01*
X124011Y113197D01*
X123919Y113086D01*
X123799Y112985D01*
X123669Y112883D01*
X123521Y112790D01*
X123512D01*
X123503Y112781D01*
X123447Y112753D01*
X123364Y112726D01*
X123253Y112680D01*
X123124Y112643D01*
X122976Y112615D01*
X122819Y112587D01*
X122652Y112578D01*
X122578D01*
X122523Y112587D01*
X122449Y112596D01*
X122375Y112606D01*
X122282Y112624D01*
X122190Y112652D01*
X121977Y112717D01*
X121866Y112763D01*
X121755Y112828D01*
X121644Y112892D01*
X121524Y112966D01*
X121413Y113059D01*
X121312Y113160D01*
X121302Y113170D01*
X121284Y113188D01*
X121256Y113216D01*
X121228Y113262D01*
X121182Y113327D01*
X121136Y113392D01*
X121090Y113475D01*
X121034Y113567D01*
X120979Y113669D01*
X120933Y113780D01*
X120886Y113909D01*
X120840Y114039D01*
X120812Y114177D01*
X120785Y114334D01*
X120766Y114492D01*
X120757Y114658D01*
Y114667D01*
Y114686D01*
Y114714D01*
Y114760D01*
X120766Y114815D01*
Y114871D01*
X120794Y115019D01*
X120822Y115194D01*
X120868Y115379D01*
X120933Y115583D01*
X121025Y115777D01*
Y115786D01*
X121034Y115795D01*
X121053Y115823D01*
X121071Y115860D01*
X121127Y115953D01*
X121210Y116073D01*
X121312Y116202D01*
X121432Y116332D01*
X121580Y116461D01*
X121737Y116572D01*
X121746D01*
X121755Y116581D01*
X121783Y116600D01*
X121820Y116609D01*
X121912Y116655D01*
X122033Y116701D01*
X122190Y116757D01*
X122366Y116794D01*
X122560Y116831D01*
X122772Y116840D01*
X122819D01*
X122865Y116831D01*
D02*
G37*
G36*
X138049Y82502D02*
X135081D01*
X135007Y82511D01*
X134924D01*
X134729Y82521D01*
X134526Y82548D01*
X134304Y82576D01*
X134101Y82622D01*
X133999Y82650D01*
X133916Y82678D01*
X133906D01*
X133897Y82687D01*
X133842Y82715D01*
X133759Y82752D01*
X133657Y82816D01*
X133546Y82900D01*
X133426Y83011D01*
X133315Y83140D01*
X133204Y83288D01*
Y83297D01*
X133195Y83307D01*
X133158Y83362D01*
X133121Y83455D01*
X133065Y83575D01*
X133019Y83713D01*
X132973Y83880D01*
X132945Y84056D01*
X132936Y84250D01*
Y84259D01*
Y84277D01*
Y84314D01*
X132945Y84361D01*
Y84425D01*
X132954Y84490D01*
X132991Y84647D01*
X133047Y84832D01*
X133121Y85026D01*
X133232Y85220D01*
X133306Y85313D01*
X133379Y85405D01*
X133389Y85415D01*
X133398Y85424D01*
X133426Y85451D01*
X133463Y85479D01*
X133509Y85516D01*
X133565Y85553D01*
X133638Y85599D01*
X133712Y85655D01*
X133805Y85701D01*
X133906Y85747D01*
X134017Y85803D01*
X134138Y85849D01*
X134276Y85886D01*
X134415Y85932D01*
X134572Y85960D01*
X134739Y85988D01*
X134720Y85997D01*
X134683Y86016D01*
X134628Y86053D01*
X134554Y86089D01*
X134387Y86191D01*
X134304Y86256D01*
X134230Y86311D01*
X134212Y86330D01*
X134165Y86376D01*
X134092Y86450D01*
X133999Y86543D01*
X133897Y86672D01*
X133777Y86811D01*
X133657Y86977D01*
X133527Y87162D01*
X132427Y88900D01*
X133481D01*
X134323Y87569D01*
Y87559D01*
X134341Y87541D01*
X134360Y87513D01*
X134387Y87476D01*
X134452Y87375D01*
X134535Y87245D01*
X134637Y87107D01*
X134739Y86959D01*
X134840Y86820D01*
X134933Y86691D01*
X134942Y86681D01*
X134970Y86644D01*
X135016Y86589D01*
X135081Y86524D01*
X135219Y86385D01*
X135293Y86321D01*
X135367Y86265D01*
X135377Y86256D01*
X135395Y86247D01*
X135432Y86228D01*
X135487Y86200D01*
X135543Y86173D01*
X135608Y86145D01*
X135756Y86099D01*
X135765D01*
X135783Y86089D01*
X135820D01*
X135867Y86080D01*
X135931Y86071D01*
X136005D01*
X136107Y86062D01*
X137198D01*
Y88900D01*
X138049D01*
Y82502D01*
D02*
G37*
G36*
X129755Y83898D02*
X129764Y83907D01*
X129811Y83945D01*
X129866Y84000D01*
X129959Y84065D01*
X130060Y84148D01*
X130190Y84240D01*
X130338Y84342D01*
X130504Y84444D01*
X130513D01*
X130523Y84453D01*
X130578Y84490D01*
X130671Y84536D01*
X130781Y84592D01*
X130911Y84656D01*
X131050Y84721D01*
X131188Y84786D01*
X131327Y84841D01*
Y84083D01*
X131318D01*
X131299Y84065D01*
X131262Y84056D01*
X131216Y84028D01*
X131161Y84000D01*
X131096Y83963D01*
X130939Y83870D01*
X130754Y83769D01*
X130569Y83639D01*
X130375Y83491D01*
X130181Y83334D01*
X130171Y83325D01*
X130162Y83316D01*
X130134Y83288D01*
X130097Y83260D01*
X130014Y83168D01*
X129903Y83057D01*
X129792Y82928D01*
X129672Y82780D01*
X129570Y82632D01*
X129478Y82474D01*
X128969D01*
Y88900D01*
X129755D01*
Y83898D01*
D02*
G37*
G36*
X44609Y159941D02*
X44599Y159867D01*
Y159784D01*
X44590Y159590D01*
X44563Y159386D01*
X44535Y159164D01*
X44489Y158961D01*
X44461Y158859D01*
X44433Y158776D01*
Y158767D01*
X44424Y158757D01*
X44396Y158702D01*
X44359Y158619D01*
X44294Y158517D01*
X44211Y158406D01*
X44100Y158286D01*
X43971Y158175D01*
X43823Y158064D01*
X43814D01*
X43804Y158055D01*
X43749Y158018D01*
X43657Y157981D01*
X43536Y157925D01*
X43398Y157879D01*
X43231Y157833D01*
X43056Y157805D01*
X42861Y157796D01*
X42852D01*
X42834D01*
X42797D01*
X42750Y157805D01*
X42686D01*
X42621Y157814D01*
X42464Y157851D01*
X42279Y157907D01*
X42085Y157981D01*
X41891Y158092D01*
X41798Y158166D01*
X41706Y158240D01*
X41696Y158249D01*
X41687Y158258D01*
X41659Y158286D01*
X41632Y158323D01*
X41595Y158369D01*
X41558Y158425D01*
X41512Y158498D01*
X41456Y158573D01*
X41410Y158665D01*
X41364Y158767D01*
X41308Y158878D01*
X41262Y158998D01*
X41225Y159136D01*
X41179Y159275D01*
X41151Y159432D01*
X41123Y159599D01*
X41114Y159580D01*
X41095Y159543D01*
X41059Y159488D01*
X41021Y159414D01*
X40920Y159247D01*
X40855Y159164D01*
X40800Y159090D01*
X40781Y159072D01*
X40735Y159025D01*
X40661Y158952D01*
X40568Y158859D01*
X40439Y158757D01*
X40300Y158637D01*
X40134Y158517D01*
X39949Y158388D01*
X38211Y157287D01*
Y158341D01*
X39542Y159183D01*
X39551D01*
X39570Y159201D01*
X39598Y159220D01*
X39635Y159247D01*
X39736Y159312D01*
X39866Y159395D01*
X40005Y159497D01*
X40152Y159599D01*
X40291Y159700D01*
X40420Y159793D01*
X40430Y159802D01*
X40467Y159830D01*
X40522Y159876D01*
X40587Y159941D01*
X40726Y160079D01*
X40790Y160154D01*
X40846Y160227D01*
X40855Y160237D01*
X40864Y160255D01*
X40883Y160292D01*
X40911Y160348D01*
X40938Y160403D01*
X40966Y160468D01*
X41012Y160616D01*
Y160625D01*
X41021Y160644D01*
Y160681D01*
X41031Y160727D01*
X41040Y160791D01*
Y160865D01*
X41049Y160967D01*
Y162058D01*
X38211D01*
Y162909D01*
X44609D01*
Y159941D01*
D02*
G37*
G36*
X40005Y155993D02*
X39995D01*
X39977Y155984D01*
X39940Y155975D01*
X39894Y155965D01*
X39838Y155956D01*
X39773Y155938D01*
X39635Y155891D01*
X39468Y155827D01*
X39311Y155743D01*
X39163Y155651D01*
X39034Y155540D01*
X39024Y155521D01*
X38988Y155484D01*
X38941Y155410D01*
X38895Y155318D01*
X38839Y155207D01*
X38793Y155068D01*
X38756Y154911D01*
X38747Y154745D01*
Y154689D01*
X38756Y154652D01*
X38766Y154551D01*
X38793Y154421D01*
X38839Y154273D01*
X38904Y154116D01*
X38997Y153959D01*
X39126Y153811D01*
X39145Y153792D01*
X39200Y153746D01*
X39283Y153691D01*
X39394Y153617D01*
X39533Y153543D01*
X39690Y153487D01*
X39875Y153441D01*
X40078Y153423D01*
X40088D01*
X40106D01*
X40134D01*
X40171Y153432D01*
X40273Y153441D01*
X40393Y153469D01*
X40541Y153506D01*
X40689Y153571D01*
X40837Y153663D01*
X40975Y153783D01*
X40994Y153802D01*
X41031Y153848D01*
X41086Y153922D01*
X41151Y154024D01*
X41216Y154153D01*
X41271Y154310D01*
X41308Y154486D01*
X41327Y154680D01*
Y154763D01*
X41317Y154828D01*
X41308Y154911D01*
X41290Y155004D01*
X41271Y155115D01*
X41243Y155235D01*
X41937Y155142D01*
Y155096D01*
X41928Y155059D01*
Y154939D01*
X41946Y154837D01*
X41965Y154717D01*
X41992Y154578D01*
X42038Y154421D01*
X42103Y154273D01*
X42186Y154116D01*
Y154107D01*
X42196Y154098D01*
X42233Y154051D01*
X42297Y153987D01*
X42381Y153913D01*
X42501Y153839D01*
X42639Y153774D01*
X42797Y153728D01*
X42889Y153709D01*
X42991D01*
X43000D01*
X43009D01*
X43065D01*
X43139Y153728D01*
X43240Y153746D01*
X43351Y153783D01*
X43472Y153829D01*
X43592Y153904D01*
X43703Y154005D01*
X43712Y154014D01*
X43749Y154061D01*
X43795Y154125D01*
X43851Y154209D01*
X43897Y154319D01*
X43943Y154449D01*
X43980Y154597D01*
X43989Y154763D01*
Y154837D01*
X43971Y154921D01*
X43952Y155031D01*
X43915Y155152D01*
X43869Y155272D01*
X43795Y155401D01*
X43703Y155521D01*
X43693Y155531D01*
X43647Y155568D01*
X43583Y155623D01*
X43490Y155688D01*
X43370Y155753D01*
X43222Y155817D01*
X43046Y155873D01*
X42843Y155910D01*
X42982Y156696D01*
X42991D01*
X43018Y156686D01*
X43056Y156677D01*
X43111Y156668D01*
X43176Y156649D01*
X43250Y156622D01*
X43425Y156566D01*
X43629Y156474D01*
X43832Y156363D01*
X44026Y156224D01*
X44202Y156048D01*
X44211Y156039D01*
X44220Y156021D01*
X44239Y155993D01*
X44267Y155956D01*
X44304Y155910D01*
X44341Y155845D01*
X44378Y155780D01*
X44424Y155697D01*
X44498Y155512D01*
X44572Y155300D01*
X44618Y155050D01*
X44637Y154921D01*
Y154689D01*
X44627Y154588D01*
X44609Y154467D01*
X44581Y154319D01*
X44535Y154153D01*
X44479Y153987D01*
X44405Y153820D01*
Y153811D01*
X44396Y153802D01*
X44368Y153746D01*
X44313Y153663D01*
X44248Y153571D01*
X44156Y153460D01*
X44054Y153349D01*
X43934Y153238D01*
X43795Y153145D01*
X43777Y153136D01*
X43730Y153108D01*
X43647Y153071D01*
X43545Y153025D01*
X43425Y152979D01*
X43287Y152942D01*
X43130Y152914D01*
X42972Y152905D01*
X42954D01*
X42898D01*
X42824Y152914D01*
X42723Y152933D01*
X42603Y152960D01*
X42473Y153007D01*
X42344Y153062D01*
X42214Y153136D01*
X42196Y153145D01*
X42159Y153173D01*
X42094Y153229D01*
X42020Y153302D01*
X41937Y153395D01*
X41844Y153506D01*
X41761Y153635D01*
X41678Y153792D01*
Y153783D01*
X41669Y153765D01*
X41659Y153737D01*
X41650Y153700D01*
X41613Y153598D01*
X41558Y153469D01*
X41484Y153321D01*
X41391Y153173D01*
X41271Y153034D01*
X41132Y152905D01*
X41114Y152896D01*
X41059Y152859D01*
X40966Y152803D01*
X40846Y152748D01*
X40698Y152692D01*
X40522Y152637D01*
X40319Y152600D01*
X40097Y152591D01*
X40088D01*
X40060D01*
X40014D01*
X39958Y152600D01*
X39884Y152609D01*
X39801Y152628D01*
X39709Y152646D01*
X39607Y152664D01*
X39385Y152739D01*
X39265Y152794D01*
X39154Y152850D01*
X39034Y152923D01*
X38914Y153007D01*
X38793Y153099D01*
X38682Y153210D01*
X38673Y153219D01*
X38655Y153238D01*
X38627Y153275D01*
X38590Y153321D01*
X38544Y153377D01*
X38497Y153450D01*
X38442Y153534D01*
X38396Y153635D01*
X38340Y153737D01*
X38285Y153857D01*
X38239Y153977D01*
X38192Y154116D01*
X38155Y154264D01*
X38128Y154421D01*
X38109Y154578D01*
X38100Y154754D01*
Y154837D01*
X38109Y154893D01*
X38118Y154967D01*
X38128Y155050D01*
X38146Y155142D01*
X38165Y155244D01*
X38220Y155466D01*
X38312Y155697D01*
X38368Y155817D01*
X38433Y155928D01*
X38516Y156039D01*
X38599Y156150D01*
X38608Y156159D01*
X38627Y156178D01*
X38655Y156206D01*
X38692Y156233D01*
X38738Y156280D01*
X38802Y156326D01*
X38867Y156381D01*
X38951Y156437D01*
X39043Y156492D01*
X39135Y156548D01*
X39357Y156649D01*
X39616Y156733D01*
X39755Y156760D01*
X39903Y156779D01*
X40005Y155993D01*
D02*
G37*
G36*
X153159Y368121D02*
X153233Y368112D01*
X153307Y368102D01*
X153501Y368065D01*
X153705Y368010D01*
X153917Y367927D01*
X154028Y367871D01*
X154130Y367807D01*
X154222Y367733D01*
X154315Y367649D01*
X154324Y367640D01*
X154333Y367631D01*
X154352Y367594D01*
X154380Y367557D01*
X154417Y367511D01*
X154453Y367446D01*
X154490Y367372D01*
X154537Y367289D01*
X154574Y367196D01*
X154611Y367085D01*
X154648Y366974D01*
X154685Y366845D01*
X154703Y366706D01*
X154731Y366549D01*
X154740Y366392D01*
Y366216D01*
X153973Y366105D01*
Y366115D01*
Y366133D01*
Y366170D01*
X153963Y366226D01*
X153954Y366281D01*
Y366346D01*
X153926Y366503D01*
X153899Y366669D01*
X153843Y366836D01*
X153788Y366984D01*
X153751Y367048D01*
X153705Y367104D01*
X153695Y367113D01*
X153658Y367141D01*
X153603Y367187D01*
X153529Y367233D01*
X153427Y367289D01*
X153316Y367326D01*
X153178Y367363D01*
X153030Y367372D01*
X152974D01*
X152919Y367363D01*
X152836Y367354D01*
X152752Y367335D01*
X152660Y367317D01*
X152567Y367280D01*
X152475Y367233D01*
X152466Y367224D01*
X152438Y367206D01*
X152401Y367169D01*
X152346Y367132D01*
X152299Y367067D01*
X152244Y367002D01*
X152198Y366928D01*
X152161Y366836D01*
Y366827D01*
X152142Y366790D01*
X152133Y366725D01*
X152114Y366642D01*
X152096Y366531D01*
X152087Y366392D01*
X152068Y366226D01*
Y366031D01*
Y361621D01*
X151217D01*
Y365985D01*
Y365994D01*
Y366022D01*
Y366059D01*
Y366115D01*
X151227Y366189D01*
Y366263D01*
X151245Y366438D01*
X151264Y366642D01*
X151301Y366854D01*
X151356Y367048D01*
X151421Y367233D01*
Y367243D01*
X151430Y367252D01*
X151458Y367307D01*
X151504Y367381D01*
X151569Y367483D01*
X151661Y367585D01*
X151763Y367696D01*
X151892Y367807D01*
X152040Y367899D01*
X152059Y367908D01*
X152114Y367936D01*
X152198Y367973D01*
X152318Y368010D01*
X152466Y368056D01*
X152632Y368093D01*
X152817Y368121D01*
X153020Y368130D01*
X153104D01*
X153159Y368121D01*
D02*
G37*
G36*
X147982Y363017D02*
X147991Y363027D01*
X148037Y363064D01*
X148092Y363119D01*
X148185Y363184D01*
X148287Y363267D01*
X148416Y363359D01*
X148564Y363461D01*
X148730Y363563D01*
X148740D01*
X148749Y363572D01*
X148804Y363609D01*
X148897Y363655D01*
X149008Y363711D01*
X149137Y363775D01*
X149276Y363840D01*
X149415Y363905D01*
X149553Y363960D01*
Y363202D01*
X149544D01*
X149526Y363184D01*
X149489Y363175D01*
X149442Y363147D01*
X149387Y363119D01*
X149322Y363082D01*
X149165Y362990D01*
X148980Y362888D01*
X148795Y362758D01*
X148601Y362611D01*
X148407Y362453D01*
X148398Y362444D01*
X148388Y362435D01*
X148361Y362407D01*
X148324Y362379D01*
X148240Y362287D01*
X148130Y362176D01*
X148019Y362047D01*
X147898Y361899D01*
X147797Y361751D01*
X147704Y361594D01*
X147196D01*
Y368019D01*
X147982D01*
Y363017D01*
D02*
G37*
G36*
X417499Y368121D02*
X417573Y368112D01*
X417656Y368102D01*
X417748Y368084D01*
X417850Y368065D01*
X418072Y368010D01*
X418303Y367918D01*
X418424Y367862D01*
X418534Y367797D01*
X418645Y367714D01*
X418756Y367631D01*
X418766Y367622D01*
X418784Y367603D01*
X418812Y367575D01*
X418839Y367538D01*
X418886Y367492D01*
X418932Y367427D01*
X418988Y367363D01*
X419043Y367280D01*
X419098Y367187D01*
X419154Y367095D01*
X419256Y366873D01*
X419339Y366614D01*
X419366Y366475D01*
X419385Y366327D01*
X418599Y366226D01*
Y366235D01*
X418590Y366253D01*
X418581Y366290D01*
X418571Y366337D01*
X418562Y366392D01*
X418544Y366457D01*
X418497Y366595D01*
X418433Y366762D01*
X418349Y366919D01*
X418257Y367067D01*
X418146Y367196D01*
X418128Y367206D01*
X418091Y367243D01*
X418017Y367289D01*
X417924Y367335D01*
X417813Y367391D01*
X417675Y367437D01*
X417517Y367474D01*
X417351Y367483D01*
X417295D01*
X417258Y367474D01*
X417157Y367464D01*
X417027Y367437D01*
X416880Y367391D01*
X416722Y367326D01*
X416565Y367233D01*
X416417Y367104D01*
X416399Y367085D01*
X416353Y367030D01*
X416297Y366947D01*
X416223Y366836D01*
X416149Y366697D01*
X416094Y366540D01*
X416047Y366355D01*
X416029Y366152D01*
Y366142D01*
Y366124D01*
Y366096D01*
X416038Y366059D01*
X416047Y365957D01*
X416075Y365837D01*
X416112Y365689D01*
X416177Y365541D01*
X416269Y365393D01*
X416389Y365255D01*
X416408Y365236D01*
X416454Y365199D01*
X416528Y365144D01*
X416630Y365079D01*
X416759Y365014D01*
X416916Y364959D01*
X417092Y364922D01*
X417286Y364903D01*
X417369D01*
X417434Y364913D01*
X417517Y364922D01*
X417610Y364940D01*
X417721Y364959D01*
X417841Y364987D01*
X417748Y364293D01*
X417702D01*
X417665Y364302D01*
X417545D01*
X417443Y364284D01*
X417323Y364266D01*
X417185Y364238D01*
X417027Y364192D01*
X416880Y364127D01*
X416722Y364044D01*
X416713D01*
X416704Y364034D01*
X416658Y363997D01*
X416593Y363933D01*
X416519Y363849D01*
X416445Y363729D01*
X416380Y363591D01*
X416334Y363433D01*
X416315Y363341D01*
Y363239D01*
Y363230D01*
Y363221D01*
Y363165D01*
X416334Y363091D01*
X416353Y362990D01*
X416389Y362879D01*
X416436Y362758D01*
X416510Y362638D01*
X416611Y362527D01*
X416621Y362518D01*
X416667Y362481D01*
X416731Y362435D01*
X416815Y362379D01*
X416926Y362333D01*
X417055Y362287D01*
X417203Y362250D01*
X417369Y362241D01*
X417443D01*
X417527Y362259D01*
X417638Y362278D01*
X417758Y362315D01*
X417878Y362361D01*
X418007Y362435D01*
X418128Y362527D01*
X418137Y362537D01*
X418174Y362583D01*
X418229Y362648D01*
X418294Y362740D01*
X418359Y362860D01*
X418424Y363008D01*
X418479Y363184D01*
X418516Y363387D01*
X419302Y363248D01*
Y363239D01*
X419293Y363212D01*
X419283Y363175D01*
X419274Y363119D01*
X419256Y363054D01*
X419228Y362980D01*
X419172Y362805D01*
X419080Y362601D01*
X418969Y362398D01*
X418830Y362204D01*
X418655Y362028D01*
X418645Y362019D01*
X418627Y362010D01*
X418599Y361991D01*
X418562Y361963D01*
X418516Y361926D01*
X418451Y361889D01*
X418386Y361852D01*
X418303Y361806D01*
X418118Y361732D01*
X417906Y361658D01*
X417656Y361612D01*
X417527Y361594D01*
X417295D01*
X417194Y361603D01*
X417074Y361621D01*
X416926Y361649D01*
X416759Y361695D01*
X416593Y361751D01*
X416426Y361825D01*
X416417D01*
X416408Y361834D01*
X416353Y361862D01*
X416269Y361917D01*
X416177Y361982D01*
X416066Y362074D01*
X415955Y362176D01*
X415844Y362296D01*
X415751Y362435D01*
X415742Y362453D01*
X415714Y362500D01*
X415677Y362583D01*
X415631Y362685D01*
X415585Y362805D01*
X415548Y362943D01*
X415520Y363101D01*
X415511Y363258D01*
Y363276D01*
Y363332D01*
X415520Y363406D01*
X415539Y363507D01*
X415567Y363628D01*
X415613Y363757D01*
X415668Y363886D01*
X415742Y364016D01*
X415751Y364034D01*
X415779Y364071D01*
X415835Y364136D01*
X415909Y364210D01*
X416001Y364293D01*
X416112Y364386D01*
X416241Y364469D01*
X416399Y364552D01*
X416389D01*
X416371Y364561D01*
X416343Y364571D01*
X416306Y364580D01*
X416204Y364617D01*
X416075Y364672D01*
X415927Y364746D01*
X415779Y364839D01*
X415640Y364959D01*
X415511Y365098D01*
X415502Y365116D01*
X415465Y365172D01*
X415409Y365264D01*
X415354Y365384D01*
X415299Y365532D01*
X415243Y365708D01*
X415206Y365911D01*
X415197Y366133D01*
Y366142D01*
Y366170D01*
Y366216D01*
X415206Y366272D01*
X415215Y366346D01*
X415234Y366429D01*
X415252Y366521D01*
X415271Y366623D01*
X415345Y366845D01*
X415400Y366965D01*
X415456Y367076D01*
X415530Y367196D01*
X415613Y367317D01*
X415705Y367437D01*
X415816Y367548D01*
X415826Y367557D01*
X415844Y367575D01*
X415881Y367603D01*
X415927Y367640D01*
X415983Y367686D01*
X416057Y367733D01*
X416140Y367788D01*
X416241Y367834D01*
X416343Y367890D01*
X416463Y367945D01*
X416584Y367991D01*
X416722Y368038D01*
X416870Y368075D01*
X417027Y368102D01*
X417185Y368121D01*
X417360Y368130D01*
X417443D01*
X417499Y368121D01*
D02*
G37*
G36*
X422399D02*
X422473Y368112D01*
X422547Y368102D01*
X422741Y368065D01*
X422945Y368010D01*
X423157Y367927D01*
X423268Y367871D01*
X423370Y367807D01*
X423462Y367733D01*
X423555Y367649D01*
X423564Y367640D01*
X423573Y367631D01*
X423592Y367594D01*
X423619Y367557D01*
X423657Y367511D01*
X423694Y367446D01*
X423730Y367372D01*
X423777Y367289D01*
X423814Y367196D01*
X423851Y367085D01*
X423888Y366974D01*
X423925Y366845D01*
X423943Y366706D01*
X423971Y366549D01*
X423980Y366392D01*
Y366216D01*
X423213Y366105D01*
Y366115D01*
Y366133D01*
Y366170D01*
X423203Y366226D01*
X423194Y366281D01*
Y366346D01*
X423167Y366503D01*
X423139Y366669D01*
X423083Y366836D01*
X423028Y366984D01*
X422991Y367048D01*
X422945Y367104D01*
X422935Y367113D01*
X422898Y367141D01*
X422843Y367187D01*
X422769Y367233D01*
X422667Y367289D01*
X422556Y367326D01*
X422418Y367363D01*
X422270Y367372D01*
X422214D01*
X422159Y367363D01*
X422076Y367354D01*
X421992Y367335D01*
X421900Y367317D01*
X421807Y367280D01*
X421715Y367233D01*
X421706Y367224D01*
X421678Y367206D01*
X421641Y367169D01*
X421586Y367132D01*
X421539Y367067D01*
X421484Y367002D01*
X421437Y366928D01*
X421401Y366836D01*
Y366827D01*
X421382Y366790D01*
X421373Y366725D01*
X421354Y366642D01*
X421336Y366531D01*
X421327Y366392D01*
X421308Y366226D01*
Y366031D01*
Y361621D01*
X420457D01*
Y365985D01*
Y365994D01*
Y366022D01*
Y366059D01*
Y366115D01*
X420467Y366189D01*
Y366263D01*
X420485Y366438D01*
X420504Y366642D01*
X420541Y366854D01*
X420596Y367048D01*
X420661Y367233D01*
Y367243D01*
X420670Y367252D01*
X420698Y367307D01*
X420744Y367381D01*
X420809Y367483D01*
X420901Y367585D01*
X421003Y367696D01*
X421132Y367807D01*
X421280Y367899D01*
X421299Y367908D01*
X421354Y367936D01*
X421437Y367973D01*
X421558Y368010D01*
X421706Y368056D01*
X421872Y368093D01*
X422057Y368121D01*
X422260Y368130D01*
X422344D01*
X422399Y368121D01*
D02*
G37*
G36*
X287779D02*
X287853Y368112D01*
X287927Y368102D01*
X288121Y368065D01*
X288325Y368010D01*
X288537Y367927D01*
X288648Y367871D01*
X288750Y367807D01*
X288842Y367733D01*
X288935Y367649D01*
X288944Y367640D01*
X288953Y367631D01*
X288972Y367594D01*
X289000Y367557D01*
X289037Y367511D01*
X289074Y367446D01*
X289110Y367372D01*
X289157Y367289D01*
X289194Y367196D01*
X289231Y367085D01*
X289268Y366974D01*
X289305Y366845D01*
X289323Y366706D01*
X289351Y366549D01*
X289360Y366392D01*
Y366216D01*
X288593Y366105D01*
Y366115D01*
Y366133D01*
Y366170D01*
X288583Y366226D01*
X288574Y366281D01*
Y366346D01*
X288547Y366503D01*
X288519Y366669D01*
X288463Y366836D01*
X288408Y366984D01*
X288371Y367048D01*
X288325Y367104D01*
X288315Y367113D01*
X288278Y367141D01*
X288223Y367187D01*
X288149Y367233D01*
X288047Y367289D01*
X287936Y367326D01*
X287798Y367363D01*
X287650Y367372D01*
X287594D01*
X287539Y367363D01*
X287456Y367354D01*
X287372Y367335D01*
X287280Y367317D01*
X287187Y367280D01*
X287095Y367233D01*
X287086Y367224D01*
X287058Y367206D01*
X287021Y367169D01*
X286966Y367132D01*
X286919Y367067D01*
X286864Y367002D01*
X286817Y366928D01*
X286781Y366836D01*
Y366827D01*
X286762Y366790D01*
X286753Y366725D01*
X286734Y366642D01*
X286716Y366531D01*
X286707Y366392D01*
X286688Y366226D01*
Y366031D01*
Y361621D01*
X285837D01*
Y365985D01*
Y365994D01*
Y366022D01*
Y366059D01*
Y366115D01*
X285847Y366189D01*
Y366263D01*
X285865Y366438D01*
X285884Y366642D01*
X285921Y366854D01*
X285976Y367048D01*
X286041Y367233D01*
Y367243D01*
X286050Y367252D01*
X286078Y367307D01*
X286124Y367381D01*
X286189Y367483D01*
X286281Y367585D01*
X286383Y367696D01*
X286512Y367807D01*
X286660Y367899D01*
X286679Y367908D01*
X286734Y367936D01*
X286817Y367973D01*
X286938Y368010D01*
X287086Y368056D01*
X287252Y368093D01*
X287437Y368121D01*
X287640Y368130D01*
X287724D01*
X287779Y368121D01*
D02*
G37*
G36*
X282260Y366484D02*
X285042D01*
Y365763D01*
X282111Y361621D01*
X281474D01*
Y365763D01*
X280604D01*
Y366484D01*
X281474D01*
Y368019D01*
X282260D01*
Y366484D01*
D02*
G37*
%LPC*%
G36*
X41857Y115989D02*
X36976D01*
Y114473D01*
X36985Y114408D01*
X36994Y114270D01*
X37003Y114113D01*
X37022Y113946D01*
X37050Y113780D01*
X37087Y113641D01*
X37096Y113623D01*
X37105Y113576D01*
X37133Y113512D01*
X37170Y113428D01*
X37225Y113336D01*
X37281Y113244D01*
X37345Y113151D01*
X37420Y113059D01*
X37438Y113049D01*
X37475Y113012D01*
X37540Y112957D01*
X37632Y112892D01*
X37752Y112818D01*
X37891Y112735D01*
X38048Y112661D01*
X38224Y112596D01*
X38233D01*
X38252Y112587D01*
X38279Y112578D01*
X38316Y112569D01*
X38363Y112559D01*
X38427Y112541D01*
X38492Y112522D01*
X38566Y112504D01*
X38751Y112476D01*
X38963Y112448D01*
X39204Y112430D01*
X39463Y112421D01*
X39472D01*
X39509D01*
X39555D01*
X39629Y112430D01*
X39712D01*
X39805Y112439D01*
X39916Y112448D01*
X40027Y112458D01*
X40276Y112504D01*
X40535Y112559D01*
X40776Y112642D01*
X40896Y112698D01*
X40998Y112753D01*
X41007D01*
X41025Y112772D01*
X41053Y112790D01*
X41090Y112809D01*
X41182Y112883D01*
X41293Y112975D01*
X41414Y113096D01*
X41534Y113234D01*
X41635Y113391D01*
X41719Y113558D01*
X41728Y113576D01*
X41737Y113623D01*
X41765Y113706D01*
X41793Y113826D01*
X41811Y113974D01*
X41839Y114159D01*
X41848Y114270D01*
Y114390D01*
X41857Y114510D01*
Y115989D01*
D02*
G37*
G36*
X274759Y61235D02*
X274750D01*
X274740D01*
X274685Y61226D01*
X274602Y61217D01*
X274491Y61198D01*
X274380Y61152D01*
X274250Y61096D01*
X274130Y61013D01*
X274010Y60902D01*
X274001Y60884D01*
X273964Y60837D01*
X273917Y60764D01*
X273862Y60643D01*
X273806Y60505D01*
X273760Y60320D01*
X273723Y60107D01*
X273714Y59858D01*
Y57842D01*
X275831D01*
Y59746D01*
X275822Y59858D01*
X275813Y59987D01*
X275804Y60135D01*
X275785Y60283D01*
X275757Y60431D01*
X275720Y60560D01*
X275711Y60579D01*
X275693Y60616D01*
X275665Y60671D01*
X275628Y60745D01*
X275572Y60828D01*
X275508Y60911D01*
X275424Y60995D01*
X275332Y61059D01*
X275323Y61069D01*
X275286Y61087D01*
X275230Y61115D01*
X275156Y61152D01*
X275073Y61180D01*
X274981Y61207D01*
X274870Y61226D01*
X274759Y61235D01*
D02*
G37*
G36*
X122782Y116193D02*
X122735D01*
X122698Y116184D01*
X122606Y116174D01*
X122486Y116147D01*
X122356Y116091D01*
X122208Y116026D01*
X122060Y115925D01*
X121987Y115869D01*
X121922Y115795D01*
Y115786D01*
X121903Y115777D01*
X121866Y115721D01*
X121811Y115629D01*
X121737Y115509D01*
X121672Y115351D01*
X121617Y115167D01*
X121580Y114954D01*
X121561Y114704D01*
Y114695D01*
Y114677D01*
Y114640D01*
X121570Y114593D01*
Y114538D01*
X121580Y114473D01*
X121607Y114325D01*
X121644Y114159D01*
X121709Y113983D01*
X121802Y113817D01*
X121922Y113660D01*
X121940Y113641D01*
X121987Y113595D01*
X122060Y113539D01*
X122162Y113465D01*
X122292Y113392D01*
X122439Y113336D01*
X122615Y113290D01*
X122809Y113271D01*
X122865D01*
X122902Y113280D01*
X122994Y113290D01*
X123124Y113317D01*
X123262Y113364D01*
X123420Y113438D01*
X123567Y113530D01*
X123715Y113660D01*
X123734Y113678D01*
X123771Y113724D01*
X123836Y113807D01*
X123900Y113928D01*
X123965Y114066D01*
X124030Y114242D01*
X124067Y114436D01*
X124085Y114658D01*
Y114677D01*
Y114723D01*
X124076Y114806D01*
X124067Y114908D01*
X124048Y115028D01*
X124011Y115157D01*
X123974Y115296D01*
X123919Y115435D01*
X123910Y115453D01*
X123882Y115499D01*
X123845Y115564D01*
X123789Y115647D01*
X123725Y115731D01*
X123642Y115832D01*
X123549Y115915D01*
X123438Y115999D01*
X123420Y116008D01*
X123383Y116026D01*
X123318Y116063D01*
X123235Y116091D01*
X123142Y116128D01*
X123031Y116165D01*
X122911Y116184D01*
X122782Y116193D01*
D02*
G37*
G36*
X137198Y85331D02*
X135293D01*
X135182Y85322D01*
X135053Y85313D01*
X134905Y85304D01*
X134757Y85285D01*
X134609Y85257D01*
X134480Y85220D01*
X134461Y85211D01*
X134424Y85193D01*
X134369Y85165D01*
X134295Y85128D01*
X134212Y85072D01*
X134128Y85008D01*
X134045Y84924D01*
X133981Y84832D01*
X133971Y84823D01*
X133953Y84786D01*
X133925Y84730D01*
X133888Y84656D01*
X133860Y84573D01*
X133833Y84481D01*
X133814Y84370D01*
X133805Y84259D01*
Y84250D01*
Y84240D01*
X133814Y84185D01*
X133823Y84102D01*
X133842Y83991D01*
X133888Y83880D01*
X133944Y83750D01*
X134027Y83630D01*
X134138Y83510D01*
X134156Y83501D01*
X134202Y83464D01*
X134276Y83418D01*
X134397Y83362D01*
X134535Y83307D01*
X134720Y83260D01*
X134933Y83223D01*
X135182Y83214D01*
X137198D01*
Y85331D01*
D02*
G37*
G36*
X43897Y162058D02*
X41780D01*
Y160154D01*
X41789Y160042D01*
X41798Y159913D01*
X41807Y159765D01*
X41826Y159617D01*
X41854Y159469D01*
X41891Y159340D01*
X41900Y159321D01*
X41918Y159284D01*
X41946Y159229D01*
X41983Y159155D01*
X42038Y159072D01*
X42103Y158989D01*
X42186Y158905D01*
X42279Y158841D01*
X42288Y158831D01*
X42325Y158813D01*
X42381Y158785D01*
X42455Y158748D01*
X42538Y158720D01*
X42630Y158693D01*
X42741Y158674D01*
X42852Y158665D01*
X42861D01*
X42871D01*
X42926Y158674D01*
X43009Y158683D01*
X43120Y158702D01*
X43231Y158748D01*
X43361Y158804D01*
X43481Y158887D01*
X43601Y158998D01*
X43610Y159016D01*
X43647Y159062D01*
X43693Y159136D01*
X43749Y159257D01*
X43804Y159395D01*
X43851Y159580D01*
X43888Y159793D01*
X43897Y160042D01*
Y162058D01*
D02*
G37*
G36*
X284275Y365763D02*
X282260D01*
Y362897D01*
X284275Y365763D01*
D02*
G37*
%LPD*%
D11*
X45850Y97840D02*
Y135840D01*
X30350Y97840D02*
X45850D01*
X30350D02*
Y135840D01*
X45850D01*
X495800Y338550D02*
X621800D01*
X495800D02*
Y398050D01*
X621800D01*
Y338550D02*
Y398050D01*
X462580Y69140D02*
X588580D01*
X462580D02*
Y128640D01*
X588580D01*
Y69140D02*
Y128640D01*
X294350Y11080D02*
Y126080D01*
X416850D01*
Y11080D02*
Y126080D01*
X294350Y11080D02*
X416850D01*
X271400Y43450D02*
Y70533D01*
X287400D01*
Y43450D02*
Y70533D01*
X271400Y43450D02*
X287400D01*
X161669Y61400D02*
X244731D01*
X161669D02*
Y120400D01*
X244731D01*
Y61400D02*
Y120400D01*
X101240Y102490D02*
X157840D01*
X101240D02*
Y131190D01*
X157840D01*
Y102490D02*
Y131190D01*
X124507Y80900D02*
X151590D01*
X124507D02*
Y96900D01*
X151590D01*
Y80900D02*
Y96900D01*
X46100Y149368D02*
Y176450D01*
X30100Y149368D02*
X46100D01*
X30100D02*
Y176450D01*
X46100D01*
X91740Y338380D02*
X217740D01*
X91740D02*
Y397880D01*
X217740D01*
Y338380D02*
Y397880D01*
X360980Y338380D02*
X486980D01*
X360980D02*
Y397880D01*
X486980D01*
Y338380D02*
Y397880D01*
X226360Y338380D02*
X352360D01*
X226360D02*
Y397880D01*
X352360D01*
Y338380D02*
Y397880D01*
M02*
