G04*
G04 #@! TF.GenerationSoftware,Altium Limited,Altium Designer,22.10.1 (41)*
G04*
G04 Layer_Color=65535*
%FSLAX44Y44*%
%MOMM*%
G71*
G04*
G04 #@! TF.SameCoordinates,0536D981-BEB6-4F1E-8F52-2FA45D902929*
G04*
G04*
G04 #@! TF.FilePolarity,Positive*
G04*
G01*
G75*
%ADD10C,0.2500*%
%ADD11C,0.2000*%
%ADD12C,0.1270*%
%ADD13C,0.2540*%
D10*
X492550Y373550D02*
G03*
X492550Y373550I-1250J0D01*
G01*
X459330Y104140D02*
G03*
X459330Y104140I-1250J0D01*
G01*
X306050Y5580D02*
G03*
X306050Y5580I-1250J0D01*
G01*
X246481Y71850D02*
G03*
X246481Y71850I-1250J0D01*
G01*
X140950Y109450D02*
G03*
X140950Y109450I-1250J0D01*
G01*
X50350Y197800D02*
G03*
X50350Y197800I-1250J0D01*
G01*
X88490Y373380D02*
G03*
X88490Y373380I-1250J0D01*
G01*
X357730D02*
G03*
X357730Y373380I-1250J0D01*
G01*
X223110D02*
G03*
X223110Y373380I-1250J0D01*
G01*
D11*
X139700Y135400D02*
G03*
X140700Y135400I500J0D01*
G01*
D02*
G03*
X139700Y135400I-500J0D01*
G01*
D02*
G03*
X140700Y135400I500J0D01*
G01*
X496800Y339550D02*
X620800D01*
X496800D02*
Y397050D01*
X620800D01*
Y339550D02*
Y397050D01*
X463580Y70140D02*
X587580D01*
X463580D02*
Y127640D01*
X587580D01*
Y70140D02*
Y127640D01*
X296850Y30580D02*
Y106580D01*
X413150D02*
X414350D01*
X296850D02*
X298050D01*
X414350Y30580D02*
Y106580D01*
X413150Y30580D02*
X414350D01*
X296850D02*
X298050D01*
X273150Y56266D02*
Y57717D01*
X285650Y56266D02*
Y57717D01*
X193713Y66400D02*
X212687D01*
X193713D02*
Y115400D01*
X212687D01*
Y66400D02*
Y115400D01*
X153050Y50900D02*
Y105500D01*
X126350Y50900D02*
X153050D01*
X126350D02*
Y105500D01*
X153050D01*
X177074Y33850D02*
X178526D01*
X177074Y46350D02*
X178526D01*
X44350Y162183D02*
Y163634D01*
X31850Y162183D02*
Y163634D01*
X9600Y191300D02*
Y295300D01*
X55600D01*
Y191300D02*
Y295300D01*
X9600Y191300D02*
X55600D01*
X14600D02*
Y295300D01*
X76200Y141700D02*
X685800D01*
Y319500D01*
X76200D02*
X685800D01*
X76200Y141700D02*
Y319500D01*
X92740Y339380D02*
X216740D01*
X92740D02*
Y396880D01*
X216740D01*
Y339380D02*
Y396880D01*
X361980Y339380D02*
X485980D01*
X361980D02*
Y396880D01*
X485980D01*
Y339380D02*
Y396880D01*
X227360Y339380D02*
X351360D01*
X227360D02*
Y396880D01*
X351360D01*
Y339380D02*
Y396880D01*
X38100Y86100D02*
Y92100D01*
X35100Y89100D02*
X41100D01*
X44850Y113600D02*
Y117100D01*
X31350Y113600D02*
Y117100D01*
D12*
X577700Y43020D02*
Y54480D01*
X463700D02*
X577700D01*
X463700Y43020D02*
Y54480D01*
Y6480D02*
Y17940D01*
Y6480D02*
X577700D01*
Y17940D01*
D13*
X236221Y411478D02*
X231143D01*
X233682D01*
Y398782D01*
X231143Y396242D01*
X228603D01*
X226064Y398782D01*
X248917Y396242D02*
Y411478D01*
X241299Y403860D01*
X251456D01*
X644652Y409443D02*
Y394208D01*
Y401825D01*
X647191Y404365D01*
X652270D01*
X654809Y401825D01*
Y394208D01*
X667505D02*
Y409443D01*
X659887Y401825D01*
X670044D01*
X650244Y30477D02*
Y15243D01*
Y22860D01*
X652783Y25399D01*
X657862D01*
X660401Y22860D01*
Y15243D01*
X665479Y27938D02*
X668018Y30477D01*
X673097D01*
X675636Y27938D01*
Y25399D01*
X673097Y22860D01*
X670557D01*
X673097D01*
X675636Y20321D01*
Y17782D01*
X673097Y15243D01*
X668018D01*
X665479Y17782D01*
X40644Y27938D02*
Y12702D01*
Y20320D01*
X43183Y22859D01*
X48262D01*
X50801Y20320D01*
Y12702D01*
X66036D02*
X55879D01*
X66036Y22859D01*
Y25398D01*
X63497Y27938D01*
X58418D01*
X55879Y25398D01*
X40643Y406398D02*
Y391162D01*
Y398780D01*
X43183Y401319D01*
X48261D01*
X50800Y398780D01*
Y391162D01*
X55878D02*
X60957D01*
X58418D01*
Y406398D01*
X55878Y403858D01*
X439421Y132078D02*
X434342D01*
X436882D01*
Y119382D01*
X434342Y116842D01*
X431803D01*
X429264Y119382D01*
X454656Y132078D02*
X444499D01*
Y124460D01*
X449577Y126999D01*
X452117D01*
X454656Y124460D01*
Y119382D01*
X452117Y116842D01*
X447038D01*
X444499Y119382D01*
X508002Y48257D02*
Y45718D01*
X513080Y40640D01*
X518158Y45718D01*
Y48257D01*
X513080Y40640D02*
Y33022D01*
X26039Y150272D02*
X10824Y149490D01*
X10433Y157097D01*
X12839Y159763D01*
X17910Y160024D01*
X20577Y157619D01*
X20968Y150011D01*
X20707Y155083D02*
X25518Y160415D01*
X12578Y164835D02*
X9912Y167241D01*
X9651Y172312D01*
X12056Y174978D01*
X14592Y175109D01*
X17258Y172703D01*
X17389Y170168D01*
X17258Y172703D01*
X19664Y175370D01*
X22200Y175500D01*
X24866Y173095D01*
X25127Y168023D01*
X22721Y165357D01*
X264164Y25403D02*
Y40637D01*
X271782D01*
X274321Y38098D01*
Y33020D01*
X271782Y30481D01*
X264164D01*
X269242D02*
X274321Y25403D01*
X289556D02*
X279399D01*
X289556Y35559D01*
Y38098D01*
X287017Y40637D01*
X281938D01*
X279399Y38098D01*
X170183Y7623D02*
Y22857D01*
X177801D01*
X180340Y20318D01*
Y15240D01*
X177801Y12701D01*
X170183D01*
X175262D02*
X180340Y7623D01*
X185418D02*
X190497D01*
X187958D01*
Y22857D01*
X185418Y20318D01*
X347982Y56424D02*
X360678D01*
X363218Y58963D01*
Y64042D01*
X360678Y66581D01*
X347982D01*
X350522Y71659D02*
X347982Y74198D01*
Y79277D01*
X350522Y81816D01*
X353061D01*
X355600Y79277D01*
Y76737D01*
Y79277D01*
X358139Y81816D01*
X360678D01*
X363218Y79277D01*
Y74198D01*
X360678Y71659D01*
X205744Y137157D02*
Y124462D01*
X208283Y121923D01*
X213362D01*
X215901Y124462D01*
Y137157D01*
X231136Y121923D02*
X220979D01*
X231136Y132079D01*
Y134618D01*
X228597Y137157D01*
X223518D01*
X220979Y134618D01*
X11176Y319241D02*
Y306545D01*
X13715Y304006D01*
X18793D01*
X21333Y306545D01*
Y319241D01*
X26411Y304006D02*
X31489D01*
X28950D01*
Y319241D01*
X26411Y316702D01*
X127001Y129537D02*
X121923D01*
X124462D01*
Y116842D01*
X121923Y114303D01*
X119383D01*
X116844Y116842D01*
X142236Y129537D02*
X137157Y126998D01*
X132079Y121920D01*
Y116842D01*
X134618Y114303D01*
X139697D01*
X142236Y116842D01*
Y119381D01*
X139697Y121920D01*
X132079D01*
X373381Y411478D02*
X368302D01*
X370842D01*
Y398782D01*
X368302Y396242D01*
X365763D01*
X363224Y398782D01*
X378459Y408938D02*
X380998Y411478D01*
X386077D01*
X388616Y408938D01*
Y406399D01*
X386077Y403860D01*
X383537D01*
X386077D01*
X388616Y401321D01*
Y398782D01*
X386077Y396242D01*
X380998D01*
X378459Y398782D01*
X508001Y411478D02*
X502923D01*
X505462D01*
Y398782D01*
X502923Y396242D01*
X500383D01*
X497844Y398782D01*
X523236Y396242D02*
X513079D01*
X523236Y406399D01*
Y408938D01*
X520697Y411478D01*
X515618D01*
X513079Y408938D01*
X101600Y411478D02*
X96522D01*
X99061D01*
Y398782D01*
X96522Y396242D01*
X93982D01*
X91443Y398782D01*
X106678Y396242D02*
X111757D01*
X109218D01*
Y411478D01*
X106678Y408938D01*
X11684Y132805D02*
Y117570D01*
X19302D01*
X21841Y120109D01*
Y130266D01*
X19302Y132805D01*
X11684D01*
X292102Y81281D02*
X289562Y78742D01*
Y73663D01*
X292102Y71124D01*
X302258D01*
X304797Y73663D01*
Y78742D01*
X302258Y81281D01*
X304797Y93977D02*
X289562D01*
X297180Y86359D01*
Y96516D01*
X264161Y139698D02*
X261622Y142238D01*
X256543D01*
X254004Y139698D01*
Y129542D01*
X256543Y127002D01*
X261622D01*
X264161Y129542D01*
X269239Y139698D02*
X271778Y142238D01*
X276857D01*
X279396Y139698D01*
Y137159D01*
X276857Y134620D01*
X274317D01*
X276857D01*
X279396Y132081D01*
Y129542D01*
X276857Y127002D01*
X271778D01*
X269239Y129542D01*
X612137Y67306D02*
X609598Y69845D01*
X604519D01*
X601980Y67306D01*
Y57149D01*
X604519Y54610D01*
X609598D01*
X612137Y57149D01*
X627372Y54610D02*
X617215D01*
X627372Y64767D01*
Y67306D01*
X624833Y69845D01*
X619754D01*
X617215Y67306D01*
X434337D02*
X431797Y69845D01*
X426719D01*
X424180Y67306D01*
Y57149D01*
X426719Y54610D01*
X431797D01*
X434337Y57149D01*
X439415Y54610D02*
X444493D01*
X441954D01*
Y69845D01*
X439415Y67306D01*
X295933Y236217D02*
X306089D01*
X301011D01*
Y220982D01*
X321324Y236217D02*
X311168D01*
Y220982D01*
X321324D01*
X311168Y228600D02*
X316246D01*
X336559Y236217D02*
X326403D01*
Y220982D01*
X336559D01*
X326403Y228600D02*
X331481D01*
X341638Y220982D02*
Y236217D01*
X351795Y220982D01*
Y236217D01*
X367030Y233678D02*
X364490Y236217D01*
X359412D01*
X356873Y233678D01*
Y231139D01*
X359412Y228600D01*
X364490D01*
X367030Y226061D01*
Y223522D01*
X364490Y220982D01*
X359412D01*
X356873Y223522D01*
X372108Y236217D02*
Y233678D01*
X377186Y228600D01*
X382265Y233678D01*
Y236217D01*
X377186Y228600D02*
Y220982D01*
X410196D02*
Y236217D01*
X402578Y228600D01*
X412735D01*
X417813Y220982D02*
Y223522D01*
X420352D01*
Y220982D01*
X417813D01*
X430509D02*
X435587D01*
X433048D01*
Y236217D01*
X430509Y233678D01*
M02*
