G04*
G04 #@! TF.GenerationSoftware,Altium Limited,Altium Designer,22.10.1 (41)*
G04*
G04 Layer_Color=16711935*
%FSLAX44Y44*%
%MOMM*%
G71*
G04*
G04 #@! TF.SameCoordinates,51D38C2D-7858-46DE-8B48-74D45336439E*
G04*
G04*
G04 #@! TF.FilePolarity,Positive*
G04*
G01*
G75*
%ADD12C,0.1270*%
%ADD13C,0.2540*%
%ADD42C,0.1000*%
D12*
X463700Y6480D02*
X577700D01*
X463700D02*
Y54480D01*
X577700D01*
Y6480D02*
Y54480D01*
D13*
X0Y0D02*
X711200D01*
X0Y414020D02*
X711200D01*
Y0D02*
Y414020D01*
X0Y0D02*
Y414020D01*
D42*
X38470Y303960D02*
Y325960D01*
X52970Y303960D02*
Y325960D01*
X38470Y303960D02*
X52970D01*
X38470Y325960D02*
X52970D01*
X18150Y303960D02*
Y325960D01*
X32650Y303960D02*
Y325960D01*
X18150Y303960D02*
X32650D01*
X18150Y325960D02*
X32650D01*
X55600Y191300D02*
Y295300D01*
X9600Y191300D02*
X55600D01*
X9600D02*
Y295300D01*
X55600D01*
X22600Y191300D02*
Y295300D01*
X260150Y109050D02*
Y123550D01*
X282150Y109050D02*
Y123550D01*
X260150D02*
X282150D01*
X260150Y109050D02*
X282150D01*
X260150Y83650D02*
Y98150D01*
X282150Y83650D02*
Y98150D01*
X260150D02*
X282150D01*
X260150Y83650D02*
X282150D01*
X602350Y18850D02*
Y40850D01*
X616850Y18850D02*
Y40850D01*
X602350Y18850D02*
X616850D01*
X602350Y40850D02*
X616850D01*
X424550Y18850D02*
Y40850D01*
X439050Y18850D02*
Y40850D01*
X424550Y18850D02*
X439050D01*
X424550Y40850D02*
X439050D01*
M02*
