G04*
G04 #@! TF.GenerationSoftware,Altium Limited,Altium Designer,22.10.1 (41)*
G04*
G04 Layer_Color=16711935*
%FSLAX44Y44*%
%MOMM*%
G71*
G04*
G04 #@! TF.SameCoordinates,F6035E9F-F1FD-4C6C-B8EA-126E05AD2449*
G04*
G04*
G04 #@! TF.FilePolarity,Positive*
G04*
G01*
G75*
%ADD11C,0.2000*%
G36*
X265142Y55483D02*
Y55476D01*
Y55448D01*
Y55406D01*
Y55351D01*
X265135Y55281D01*
Y55205D01*
X265129Y55115D01*
X265115Y55025D01*
X265094Y54824D01*
X265059Y54616D01*
X265011Y54415D01*
X264976Y54324D01*
X264941Y54234D01*
Y54227D01*
X264934Y54214D01*
X264921Y54193D01*
X264907Y54165D01*
X264858Y54082D01*
X264789Y53985D01*
X264706Y53881D01*
X264602Y53770D01*
X264470Y53666D01*
X264324Y53569D01*
X264317D01*
X264303Y53562D01*
X264283Y53548D01*
X264248Y53534D01*
X264213Y53513D01*
X264165Y53499D01*
X264109Y53479D01*
X264047Y53458D01*
X263901Y53409D01*
X263735Y53375D01*
X263548Y53347D01*
X263340Y53340D01*
X263256D01*
X263201Y53347D01*
X263132Y53354D01*
X263048Y53368D01*
X262958Y53382D01*
X262861Y53402D01*
X262757Y53423D01*
X262653Y53458D01*
X262542Y53492D01*
X262438Y53541D01*
X262327Y53596D01*
X262230Y53659D01*
X262133Y53735D01*
X262043Y53818D01*
X262036Y53825D01*
X262022Y53839D01*
X262001Y53867D01*
X261973Y53909D01*
X261939Y53957D01*
X261904Y54019D01*
X261863Y54096D01*
X261821Y54179D01*
X261786Y54276D01*
X261745Y54380D01*
X261710Y54498D01*
X261675Y54630D01*
X261654Y54768D01*
X261634Y54921D01*
X261620Y55080D01*
Y55254D01*
X262383Y55365D01*
Y55358D01*
Y55330D01*
X262390Y55295D01*
Y55247D01*
X262397Y55184D01*
X262403Y55115D01*
X262424Y54963D01*
X262459Y54796D01*
X262507Y54630D01*
X262535Y54553D01*
X262570Y54477D01*
X262612Y54415D01*
X262653Y54359D01*
X262667Y54345D01*
X262702Y54318D01*
X262757Y54276D01*
X262833Y54227D01*
X262930Y54179D01*
X263048Y54137D01*
X263180Y54110D01*
X263333Y54096D01*
X263388D01*
X263444Y54103D01*
X263520Y54117D01*
X263610Y54130D01*
X263700Y54158D01*
X263790Y54193D01*
X263880Y54241D01*
X263894Y54248D01*
X263922Y54269D01*
X263957Y54304D01*
X264012Y54345D01*
X264061Y54401D01*
X264116Y54470D01*
X264165Y54546D01*
X264206Y54637D01*
X264213Y54650D01*
X264220Y54685D01*
X264234Y54748D01*
X264255Y54831D01*
X264269Y54942D01*
X264283Y55080D01*
X264289Y55240D01*
X264296Y55337D01*
Y55434D01*
Y59844D01*
X265142D01*
Y55483D01*
D02*
G37*
G36*
X268318Y59858D02*
X268374D01*
X268436Y59844D01*
X268512Y59837D01*
X268589Y59823D01*
X268769Y59782D01*
X268956Y59719D01*
X269053Y59685D01*
X269157Y59636D01*
X269254Y59588D01*
X269352Y59525D01*
X269358Y59518D01*
X269372Y59511D01*
X269400Y59490D01*
X269435Y59463D01*
X269483Y59428D01*
X269532Y59387D01*
X269587Y59338D01*
X269643Y59282D01*
X269705Y59220D01*
X269774Y59144D01*
X269837Y59068D01*
X269906Y58984D01*
X269969Y58887D01*
X270031Y58790D01*
X270086Y58679D01*
X270142Y58568D01*
Y58561D01*
X270156Y58541D01*
X270170Y58506D01*
X270184Y58450D01*
X270204Y58388D01*
X270225Y58312D01*
X270253Y58222D01*
X270281Y58111D01*
X270301Y57993D01*
X270329Y57861D01*
X270350Y57708D01*
X270371Y57549D01*
X270385Y57376D01*
X270399Y57188D01*
X270412Y56987D01*
Y56772D01*
Y56758D01*
Y56717D01*
Y56654D01*
X270406Y56571D01*
Y56467D01*
X270399Y56342D01*
X270392Y56211D01*
X270378Y56065D01*
X270364Y55912D01*
X270350Y55753D01*
X270301Y55427D01*
X270232Y55108D01*
X270191Y54963D01*
X270142Y54817D01*
Y54810D01*
X270128Y54782D01*
X270114Y54748D01*
X270093Y54699D01*
X270066Y54637D01*
X270031Y54567D01*
X269989Y54491D01*
X269948Y54408D01*
X269837Y54234D01*
X269698Y54047D01*
X269539Y53874D01*
X269449Y53791D01*
X269352Y53714D01*
X269345Y53707D01*
X269331Y53700D01*
X269296Y53680D01*
X269261Y53659D01*
X269206Y53631D01*
X269150Y53596D01*
X269081Y53562D01*
X268998Y53527D01*
X268915Y53492D01*
X268818Y53458D01*
X268720Y53430D01*
X268610Y53395D01*
X268374Y53354D01*
X268249Y53347D01*
X268117Y53340D01*
X268048D01*
X267992Y53347D01*
X267930Y53354D01*
X267854Y53361D01*
X267771Y53375D01*
X267680Y53395D01*
X267486Y53444D01*
X267389Y53479D01*
X267285Y53513D01*
X267181Y53562D01*
X267077Y53617D01*
X266980Y53680D01*
X266890Y53756D01*
X266883Y53763D01*
X266869Y53777D01*
X266848Y53797D01*
X266814Y53832D01*
X266779Y53874D01*
X266737Y53929D01*
X266689Y53992D01*
X266640Y54061D01*
X266592Y54137D01*
X266543Y54227D01*
X266502Y54324D01*
X266453Y54429D01*
X266411Y54539D01*
X266377Y54657D01*
X266349Y54789D01*
X266328Y54928D01*
X267084Y54990D01*
Y54983D01*
X267091Y54969D01*
Y54942D01*
X267105Y54900D01*
X267112Y54858D01*
X267126Y54810D01*
X267160Y54692D01*
X267209Y54567D01*
X267271Y54442D01*
X267355Y54324D01*
X267396Y54269D01*
X267445Y54220D01*
X267458Y54214D01*
X267493Y54186D01*
X267556Y54144D01*
X267632Y54103D01*
X267736Y54061D01*
X267854Y54019D01*
X267985Y53992D01*
X268138Y53985D01*
X268200D01*
X268270Y53992D01*
X268353Y54006D01*
X268450Y54026D01*
X268554Y54054D01*
X268665Y54089D01*
X268769Y54144D01*
X268783Y54151D01*
X268818Y54172D01*
X268866Y54214D01*
X268929Y54262D01*
X268998Y54324D01*
X269074Y54401D01*
X269150Y54491D01*
X269220Y54588D01*
X269227Y54602D01*
X269247Y54637D01*
X269282Y54699D01*
X269324Y54789D01*
X269365Y54893D01*
X269414Y55018D01*
X269463Y55170D01*
X269511Y55337D01*
Y55344D01*
X269518Y55358D01*
X269525Y55385D01*
X269532Y55420D01*
X269539Y55462D01*
X269546Y55510D01*
X269559Y55573D01*
X269573Y55635D01*
X269594Y55781D01*
X269608Y55940D01*
X269622Y56114D01*
X269629Y56294D01*
Y56308D01*
Y56335D01*
Y56384D01*
Y56446D01*
X269615Y56439D01*
X269608Y56419D01*
X269587Y56391D01*
X269532Y56322D01*
X269463Y56238D01*
X269365Y56141D01*
X269254Y56037D01*
X269130Y55940D01*
X268984Y55843D01*
X268977D01*
X268963Y55836D01*
X268942Y55822D01*
X268915Y55808D01*
X268873Y55788D01*
X268831Y55774D01*
X268720Y55732D01*
X268589Y55684D01*
X268436Y55649D01*
X268270Y55621D01*
X268096Y55614D01*
X268062D01*
X268020Y55621D01*
X267965D01*
X267895Y55635D01*
X267819Y55642D01*
X267729Y55663D01*
X267632Y55684D01*
X267528Y55718D01*
X267424Y55753D01*
X267313Y55802D01*
X267202Y55857D01*
X267084Y55919D01*
X266973Y55996D01*
X266862Y56086D01*
X266758Y56183D01*
X266751Y56190D01*
X266737Y56211D01*
X266710Y56245D01*
X266675Y56287D01*
X266633Y56342D01*
X266585Y56412D01*
X266536Y56495D01*
X266488Y56592D01*
X266432Y56689D01*
X266384Y56807D01*
X266335Y56932D01*
X266294Y57063D01*
X266259Y57209D01*
X266231Y57369D01*
X266217Y57528D01*
X266210Y57702D01*
Y57715D01*
Y57743D01*
X266217Y57799D01*
Y57861D01*
X266231Y57944D01*
X266238Y58041D01*
X266259Y58145D01*
X266280Y58263D01*
X266314Y58381D01*
X266349Y58513D01*
X266397Y58644D01*
X266453Y58769D01*
X266515Y58901D01*
X266592Y59033D01*
X266682Y59151D01*
X266779Y59269D01*
X266786Y59275D01*
X266807Y59296D01*
X266841Y59324D01*
X266883Y59359D01*
X266938Y59407D01*
X267008Y59456D01*
X267084Y59511D01*
X267174Y59567D01*
X267271Y59622D01*
X267382Y59678D01*
X267500Y59726D01*
X267625Y59775D01*
X267764Y59809D01*
X267909Y59837D01*
X268055Y59858D01*
X268214Y59865D01*
X268277D01*
X268318Y59858D01*
D02*
G37*
G36*
X127982Y55483D02*
Y55476D01*
Y55448D01*
Y55406D01*
Y55351D01*
X127976Y55282D01*
Y55205D01*
X127969Y55115D01*
X127955Y55025D01*
X127934Y54824D01*
X127899Y54616D01*
X127851Y54415D01*
X127816Y54325D01*
X127781Y54234D01*
Y54227D01*
X127774Y54214D01*
X127761Y54193D01*
X127747Y54165D01*
X127698Y54082D01*
X127629Y53985D01*
X127546Y53881D01*
X127442Y53770D01*
X127310Y53666D01*
X127164Y53569D01*
X127157D01*
X127143Y53562D01*
X127123Y53548D01*
X127088Y53534D01*
X127053Y53513D01*
X127005Y53499D01*
X126949Y53479D01*
X126887Y53458D01*
X126741Y53409D01*
X126575Y53375D01*
X126388Y53347D01*
X126180Y53340D01*
X126096D01*
X126041Y53347D01*
X125971Y53354D01*
X125888Y53368D01*
X125798Y53382D01*
X125701Y53402D01*
X125597Y53423D01*
X125493Y53458D01*
X125382Y53492D01*
X125278Y53541D01*
X125167Y53597D01*
X125070Y53659D01*
X124973Y53735D01*
X124883Y53818D01*
X124876Y53825D01*
X124862Y53839D01*
X124841Y53867D01*
X124813Y53909D01*
X124779Y53957D01*
X124744Y54019D01*
X124703Y54096D01*
X124661Y54179D01*
X124626Y54276D01*
X124585Y54380D01*
X124550Y54498D01*
X124515Y54630D01*
X124494Y54768D01*
X124474Y54921D01*
X124460Y55080D01*
Y55254D01*
X125223Y55365D01*
Y55358D01*
Y55330D01*
X125230Y55295D01*
Y55247D01*
X125237Y55184D01*
X125243Y55115D01*
X125264Y54963D01*
X125299Y54796D01*
X125347Y54630D01*
X125375Y54553D01*
X125410Y54477D01*
X125451Y54415D01*
X125493Y54359D01*
X125507Y54345D01*
X125542Y54318D01*
X125597Y54276D01*
X125673Y54227D01*
X125770Y54179D01*
X125888Y54137D01*
X126020Y54110D01*
X126173Y54096D01*
X126228D01*
X126284Y54103D01*
X126360Y54117D01*
X126450Y54130D01*
X126540Y54158D01*
X126630Y54193D01*
X126720Y54241D01*
X126734Y54248D01*
X126762Y54269D01*
X126797Y54304D01*
X126852Y54345D01*
X126901Y54401D01*
X126956Y54470D01*
X127005Y54546D01*
X127046Y54637D01*
X127053Y54651D01*
X127060Y54685D01*
X127074Y54748D01*
X127095Y54831D01*
X127109Y54942D01*
X127123Y55080D01*
X127129Y55240D01*
X127136Y55337D01*
Y55434D01*
Y59844D01*
X127982D01*
Y55483D01*
D02*
G37*
G36*
X131262Y59858D02*
X131332Y59851D01*
X131415Y59837D01*
X131505Y59823D01*
X131609Y59803D01*
X131713Y59775D01*
X131824Y59747D01*
X131935Y59706D01*
X132046Y59657D01*
X132164Y59601D01*
X132268Y59532D01*
X132379Y59463D01*
X132476Y59373D01*
X132483Y59366D01*
X132497Y59352D01*
X132524Y59324D01*
X132559Y59289D01*
X132594Y59241D01*
X132635Y59186D01*
X132684Y59116D01*
X132732Y59047D01*
X132781Y58964D01*
X132830Y58873D01*
X132871Y58776D01*
X132906Y58672D01*
X132940Y58561D01*
X132968Y58443D01*
X132982Y58319D01*
X132989Y58194D01*
Y58187D01*
Y58173D01*
Y58152D01*
Y58118D01*
X132982Y58083D01*
X132975Y58034D01*
X132961Y57930D01*
X132934Y57812D01*
X132892Y57681D01*
X132830Y57549D01*
X132753Y57417D01*
Y57410D01*
X132739Y57403D01*
X132712Y57362D01*
X132656Y57306D01*
X132580Y57230D01*
X132476Y57154D01*
X132358Y57064D01*
X132212Y56987D01*
X132046Y56911D01*
X132053D01*
X132074Y56904D01*
X132101Y56890D01*
X132143Y56876D01*
X132191Y56856D01*
X132247Y56828D01*
X132379Y56758D01*
X132524Y56675D01*
X132670Y56564D01*
X132816Y56439D01*
X132940Y56287D01*
X132947Y56280D01*
X132954Y56266D01*
X132968Y56245D01*
X132989Y56211D01*
X133010Y56169D01*
X133038Y56121D01*
X133065Y56065D01*
X133100Y56003D01*
X133155Y55857D01*
X133204Y55684D01*
X133239Y55490D01*
X133252Y55385D01*
Y55275D01*
Y55268D01*
Y55240D01*
X133245Y55198D01*
Y55136D01*
X133232Y55066D01*
X133225Y54983D01*
X133204Y54893D01*
X133183Y54796D01*
X133148Y54685D01*
X133114Y54574D01*
X133065Y54463D01*
X133010Y54345D01*
X132940Y54227D01*
X132864Y54117D01*
X132774Y53999D01*
X132670Y53895D01*
X132663Y53888D01*
X132642Y53874D01*
X132608Y53846D01*
X132566Y53811D01*
X132503Y53763D01*
X132434Y53721D01*
X132351Y53666D01*
X132261Y53617D01*
X132157Y53569D01*
X132039Y53513D01*
X131914Y53472D01*
X131782Y53430D01*
X131637Y53389D01*
X131484Y53361D01*
X131318Y53347D01*
X131144Y53340D01*
X131103D01*
X131054Y53347D01*
X130985D01*
X130909Y53354D01*
X130812Y53368D01*
X130708Y53389D01*
X130597Y53409D01*
X130479Y53437D01*
X130354Y53479D01*
X130229Y53520D01*
X130097Y53576D01*
X129973Y53638D01*
X129848Y53714D01*
X129723Y53798D01*
X129612Y53895D01*
X129605Y53902D01*
X129584Y53922D01*
X129557Y53950D01*
X129522Y53999D01*
X129480Y54054D01*
X129432Y54117D01*
X129376Y54193D01*
X129328Y54283D01*
X129272Y54380D01*
X129217Y54484D01*
X129168Y54602D01*
X129127Y54720D01*
X129092Y54852D01*
X129064Y54997D01*
X129043Y55143D01*
X129036Y55295D01*
Y55302D01*
Y55323D01*
Y55358D01*
X129043Y55399D01*
Y55455D01*
X129050Y55517D01*
X129064Y55587D01*
X129078Y55663D01*
X129113Y55822D01*
X129168Y55996D01*
X129244Y56169D01*
X129293Y56252D01*
X129348Y56336D01*
X129355Y56342D01*
X129362Y56356D01*
X129383Y56377D01*
X129411Y56405D01*
X129439Y56439D01*
X129480Y56474D01*
X129529Y56523D01*
X129584Y56564D01*
X129709Y56661D01*
X129862Y56758D01*
X130042Y56842D01*
X130250Y56911D01*
X130243D01*
X130229Y56918D01*
X130201Y56932D01*
X130174Y56946D01*
X130132Y56960D01*
X130084Y56987D01*
X129979Y57043D01*
X129862Y57112D01*
X129744Y57202D01*
X129626Y57299D01*
X129529Y57417D01*
Y57424D01*
X129522Y57431D01*
X129508Y57452D01*
X129494Y57480D01*
X129452Y57549D01*
X129411Y57639D01*
X129369Y57757D01*
X129328Y57896D01*
X129300Y58048D01*
X129293Y58215D01*
Y58222D01*
Y58242D01*
X129300Y58284D01*
Y58333D01*
X129307Y58388D01*
X129321Y58457D01*
X129335Y58534D01*
X129355Y58624D01*
X129383Y58714D01*
X129418Y58804D01*
X129452Y58901D01*
X129501Y59005D01*
X129563Y59102D01*
X129626Y59199D01*
X129702Y59296D01*
X129792Y59387D01*
X129799Y59394D01*
X129813Y59407D01*
X129841Y59428D01*
X129882Y59463D01*
X129931Y59497D01*
X129993Y59539D01*
X130063Y59581D01*
X130146Y59629D01*
X130236Y59671D01*
X130340Y59713D01*
X130444Y59754D01*
X130562Y59789D01*
X130694Y59823D01*
X130826Y59844D01*
X130971Y59858D01*
X131124Y59865D01*
X131207D01*
X131262Y59858D01*
D02*
G37*
G36*
X37755Y157317D02*
X37748D01*
X37720D01*
X37685Y157310D01*
X37637D01*
X37574Y157303D01*
X37505Y157296D01*
X37352Y157276D01*
X37186Y157241D01*
X37020Y157192D01*
X36943Y157165D01*
X36867Y157130D01*
X36805Y157088D01*
X36749Y157047D01*
X36735Y157033D01*
X36708Y156998D01*
X36666Y156943D01*
X36617Y156867D01*
X36569Y156770D01*
X36527Y156652D01*
X36500Y156520D01*
X36486Y156367D01*
Y156312D01*
X36493Y156256D01*
X36507Y156180D01*
X36520Y156090D01*
X36548Y156000D01*
X36583Y155910D01*
X36631Y155820D01*
X36638Y155806D01*
X36659Y155778D01*
X36694Y155743D01*
X36735Y155688D01*
X36791Y155639D01*
X36860Y155584D01*
X36936Y155535D01*
X37027Y155494D01*
X37040Y155487D01*
X37075Y155480D01*
X37137Y155466D01*
X37221Y155445D01*
X37332Y155431D01*
X37470Y155417D01*
X37630Y155410D01*
X37727Y155403D01*
X37824D01*
X42234D01*
Y154558D01*
X37873D01*
X37866D01*
X37838D01*
X37796D01*
X37741D01*
X37671Y154565D01*
X37595D01*
X37505Y154571D01*
X37415Y154585D01*
X37214Y154606D01*
X37006Y154641D01*
X36805Y154689D01*
X36714Y154724D01*
X36624Y154759D01*
X36617D01*
X36604Y154766D01*
X36583Y154779D01*
X36555Y154793D01*
X36472Y154842D01*
X36375Y154911D01*
X36271Y154994D01*
X36160Y155098D01*
X36056Y155230D01*
X35959Y155376D01*
Y155383D01*
X35952Y155397D01*
X35938Y155417D01*
X35924Y155452D01*
X35903Y155487D01*
X35889Y155535D01*
X35868Y155591D01*
X35848Y155653D01*
X35799Y155799D01*
X35765Y155965D01*
X35737Y156152D01*
X35730Y156360D01*
Y156444D01*
X35737Y156499D01*
X35744Y156568D01*
X35758Y156652D01*
X35772Y156742D01*
X35792Y156839D01*
X35813Y156943D01*
X35848Y157047D01*
X35882Y157158D01*
X35931Y157262D01*
X35986Y157373D01*
X36049Y157470D01*
X36125Y157567D01*
X36208Y157657D01*
X36215Y157664D01*
X36229Y157678D01*
X36257Y157699D01*
X36298Y157726D01*
X36347Y157761D01*
X36409Y157796D01*
X36486Y157837D01*
X36569Y157879D01*
X36666Y157914D01*
X36770Y157955D01*
X36888Y157990D01*
X37020Y158025D01*
X37158Y158045D01*
X37311Y158066D01*
X37470Y158080D01*
X37644D01*
X37755Y157317D01*
D02*
G37*
G36*
X42151Y149301D02*
X41534D01*
X41527Y149308D01*
X41506Y149329D01*
X41464Y149364D01*
X41416Y149405D01*
X41347Y149461D01*
X41270Y149530D01*
X41180Y149600D01*
X41076Y149683D01*
X40958Y149773D01*
X40827Y149870D01*
X40681Y149974D01*
X40528Y150078D01*
X40369Y150182D01*
X40188Y150293D01*
X40001Y150411D01*
X39807Y150522D01*
X39793Y150529D01*
X39759Y150550D01*
X39703Y150577D01*
X39620Y150619D01*
X39523Y150667D01*
X39405Y150730D01*
X39273Y150792D01*
X39128Y150862D01*
X38968Y150931D01*
X38795Y151007D01*
X38607Y151083D01*
X38420Y151160D01*
X38219Y151236D01*
X38011Y151312D01*
X37588Y151444D01*
X37581D01*
X37554Y151451D01*
X37505Y151465D01*
X37450Y151479D01*
X37373Y151500D01*
X37283Y151520D01*
X37179Y151548D01*
X37068Y151569D01*
X36943Y151597D01*
X36805Y151617D01*
X36659Y151645D01*
X36507Y151666D01*
X36347Y151694D01*
X36181Y151714D01*
X35834Y151742D01*
Y152547D01*
X35841D01*
X35868D01*
X35910D01*
X35966Y152540D01*
X36042Y152533D01*
X36125Y152526D01*
X36229Y152519D01*
X36340Y152505D01*
X36472Y152491D01*
X36604Y152470D01*
X36756Y152450D01*
X36916Y152422D01*
X37089Y152387D01*
X37269Y152353D01*
X37457Y152304D01*
X37651Y152255D01*
X37664Y152248D01*
X37699Y152241D01*
X37755Y152228D01*
X37831Y152200D01*
X37928Y152172D01*
X38046Y152137D01*
X38171Y152096D01*
X38309Y152047D01*
X38462Y151992D01*
X38628Y151930D01*
X38802Y151867D01*
X38975Y151791D01*
X39343Y151631D01*
X39717Y151444D01*
X39731Y151437D01*
X39759Y151416D01*
X39814Y151389D01*
X39883Y151354D01*
X39967Y151299D01*
X40064Y151243D01*
X40175Y151174D01*
X40300Y151104D01*
X40424Y151021D01*
X40563Y150931D01*
X40840Y150737D01*
X41125Y150529D01*
X41263Y150418D01*
X41395Y150307D01*
Y153441D01*
X42151D01*
Y149301D01*
D02*
G37*
G36*
X110109Y336500D02*
X107134D01*
X107058Y336507D01*
X106981D01*
X106891Y336514D01*
X106787Y336521D01*
X106579Y336541D01*
X106364Y336576D01*
X106156Y336618D01*
X106066Y336646D01*
X105976Y336673D01*
X105969D01*
X105955Y336680D01*
X105934Y336694D01*
X105900Y336708D01*
X105816Y336749D01*
X105719Y336812D01*
X105602Y336895D01*
X105484Y337006D01*
X105366Y337131D01*
X105262Y337283D01*
Y337290D01*
X105248Y337304D01*
X105234Y337325D01*
X105220Y337360D01*
X105199Y337401D01*
X105178Y337450D01*
X105151Y337505D01*
X105123Y337568D01*
X105075Y337713D01*
X105033Y337873D01*
X105005Y338053D01*
X104991Y338247D01*
Y338254D01*
Y338275D01*
Y338317D01*
X104998Y338358D01*
X105005Y338421D01*
X105012Y338490D01*
X105026Y338566D01*
X105047Y338649D01*
X105102Y338830D01*
X105137Y338927D01*
X105178Y339024D01*
X105227Y339121D01*
X105289Y339218D01*
X105359Y339308D01*
X105435Y339398D01*
X105442Y339405D01*
X105456Y339419D01*
X105484Y339440D01*
X105518Y339475D01*
X105567Y339509D01*
X105622Y339551D01*
X105692Y339599D01*
X105775Y339648D01*
X105865Y339697D01*
X105962Y339745D01*
X106073Y339794D01*
X106198Y339842D01*
X106330Y339884D01*
X106475Y339925D01*
X106635Y339960D01*
X106801Y339988D01*
X106794D01*
X106787Y339995D01*
X106746Y340015D01*
X106683Y340050D01*
X106607Y340092D01*
X106524Y340140D01*
X106440Y340189D01*
X106357Y340251D01*
X106288Y340307D01*
X106281Y340314D01*
X106274Y340321D01*
X106253Y340341D01*
X106226Y340369D01*
X106191Y340404D01*
X106149Y340445D01*
X106059Y340542D01*
X105955Y340667D01*
X105837Y340813D01*
X105712Y340979D01*
X105588Y341160D01*
X104478Y342900D01*
X105539D01*
X106385Y341569D01*
X106392Y341562D01*
X106399Y341541D01*
X106420Y341513D01*
X106447Y341472D01*
X106475Y341423D01*
X106517Y341368D01*
X106600Y341243D01*
X106697Y341097D01*
X106794Y340952D01*
X106898Y340813D01*
X106995Y340688D01*
Y340681D01*
X107009Y340674D01*
X107037Y340640D01*
X107078Y340584D01*
X107141Y340522D01*
X107203Y340452D01*
X107280Y340383D01*
X107356Y340314D01*
X107425Y340265D01*
X107432Y340258D01*
X107460Y340244D01*
X107494Y340224D01*
X107543Y340196D01*
X107605Y340168D01*
X107668Y340140D01*
X107737Y340113D01*
X107814Y340092D01*
X107820D01*
X107841Y340085D01*
X107876Y340078D01*
X107924Y340071D01*
X107994D01*
X108077Y340064D01*
X108174Y340057D01*
X109263D01*
Y342900D01*
X110109D01*
Y336500D01*
D02*
G37*
G36*
X101462Y341368D02*
X104249D01*
Y340647D01*
X101323Y336500D01*
X100678D01*
Y340647D01*
X99811D01*
Y341368D01*
X100678D01*
Y342900D01*
X101462D01*
Y341368D01*
D02*
G37*
G36*
X133239Y385903D02*
X133308Y385896D01*
X133391Y385882D01*
X133482Y385868D01*
X133579Y385848D01*
X133683Y385827D01*
X133787Y385792D01*
X133898Y385758D01*
X134002Y385709D01*
X134113Y385654D01*
X134210Y385591D01*
X134307Y385515D01*
X134397Y385432D01*
X134404Y385425D01*
X134418Y385411D01*
X134438Y385383D01*
X134466Y385341D01*
X134501Y385293D01*
X134536Y385231D01*
X134577Y385154D01*
X134619Y385071D01*
X134654Y384974D01*
X134695Y384870D01*
X134730Y384752D01*
X134764Y384620D01*
X134785Y384482D01*
X134806Y384329D01*
X134820Y384170D01*
Y383996D01*
X134057Y383885D01*
Y383892D01*
Y383920D01*
X134050Y383955D01*
Y384003D01*
X134043Y384066D01*
X134036Y384135D01*
X134016Y384287D01*
X133981Y384454D01*
X133932Y384620D01*
X133905Y384697D01*
X133870Y384773D01*
X133828Y384835D01*
X133787Y384891D01*
X133773Y384905D01*
X133738Y384932D01*
X133683Y384974D01*
X133606Y385023D01*
X133509Y385071D01*
X133391Y385113D01*
X133260Y385140D01*
X133107Y385154D01*
X133052D01*
X132996Y385147D01*
X132920Y385134D01*
X132830Y385120D01*
X132740Y385092D01*
X132649Y385057D01*
X132559Y385009D01*
X132545Y385002D01*
X132518Y384981D01*
X132483Y384946D01*
X132428Y384905D01*
X132379Y384849D01*
X132324Y384780D01*
X132275Y384704D01*
X132233Y384613D01*
X132226Y384600D01*
X132219Y384565D01*
X132206Y384502D01*
X132185Y384419D01*
X132171Y384308D01*
X132157Y384170D01*
X132150Y384010D01*
X132143Y383913D01*
Y383816D01*
Y379406D01*
X131297D01*
Y383768D01*
Y383774D01*
Y383802D01*
Y383844D01*
Y383899D01*
X131304Y383969D01*
Y384045D01*
X131311Y384135D01*
X131325Y384225D01*
X131346Y384426D01*
X131381Y384634D01*
X131429Y384835D01*
X131464Y384925D01*
X131498Y385016D01*
Y385023D01*
X131505Y385036D01*
X131519Y385057D01*
X131533Y385085D01*
X131582Y385168D01*
X131651Y385265D01*
X131734Y385369D01*
X131838Y385480D01*
X131970Y385584D01*
X132115Y385681D01*
X132122D01*
X132136Y385688D01*
X132157Y385702D01*
X132192Y385716D01*
X132226Y385737D01*
X132275Y385751D01*
X132331Y385771D01*
X132393Y385792D01*
X132538Y385841D01*
X132705Y385876D01*
X132892Y385903D01*
X133100Y385910D01*
X133183D01*
X133239Y385903D01*
D02*
G37*
G36*
X128059Y380807D02*
X128073Y380820D01*
X128108Y380855D01*
X128170Y380904D01*
X128260Y380973D01*
X128364Y381056D01*
X128496Y381146D01*
X128642Y381243D01*
X128808Y381347D01*
X128815D01*
X128829Y381361D01*
X128849Y381375D01*
X128884Y381389D01*
X128926Y381417D01*
X128974Y381438D01*
X129085Y381500D01*
X129210Y381562D01*
X129349Y381632D01*
X129494Y381694D01*
X129633Y381750D01*
Y380994D01*
X129626Y380987D01*
X129605Y380980D01*
X129571Y380959D01*
X129522Y380938D01*
X129467Y380911D01*
X129397Y380869D01*
X129321Y380827D01*
X129245Y380786D01*
X129065Y380675D01*
X128870Y380543D01*
X128669Y380404D01*
X128482Y380245D01*
X128475Y380238D01*
X128461Y380224D01*
X128434Y380203D01*
X128399Y380169D01*
X128364Y380127D01*
X128316Y380085D01*
X128212Y379967D01*
X128094Y379843D01*
X127976Y379697D01*
X127872Y379544D01*
X127782Y379385D01*
X127275D01*
Y385806D01*
X128059D01*
Y380807D01*
D02*
G37*
G36*
X102835Y322573D02*
X102911Y322566D01*
X102994Y322552D01*
X103091Y322538D01*
X103195Y322518D01*
X103306Y322497D01*
X103424Y322462D01*
X103542Y322421D01*
X103660Y322372D01*
X103778Y322317D01*
X103896Y322254D01*
X104007Y322178D01*
X104118Y322095D01*
X104125Y322088D01*
X104138Y322074D01*
X104166Y322046D01*
X104201Y322005D01*
X104249Y321956D01*
X104298Y321900D01*
X104347Y321831D01*
X104402Y321748D01*
X104457Y321665D01*
X104513Y321568D01*
X104561Y321457D01*
X104610Y321346D01*
X104658Y321221D01*
X104693Y321089D01*
X104721Y320944D01*
X104742Y320798D01*
X103917Y320736D01*
Y320742D01*
X103910Y320763D01*
X103903Y320791D01*
X103896Y320833D01*
X103889Y320881D01*
X103868Y320944D01*
X103833Y321075D01*
X103778Y321221D01*
X103702Y321373D01*
X103611Y321512D01*
X103556Y321575D01*
X103500Y321637D01*
X103494D01*
X103487Y321651D01*
X103466Y321665D01*
X103438Y321686D01*
X103369Y321734D01*
X103272Y321783D01*
X103154Y321838D01*
X103015Y321887D01*
X102863Y321921D01*
X102779Y321928D01*
X102689Y321935D01*
X102634D01*
X102592Y321928D01*
X102544Y321921D01*
X102488Y321914D01*
X102356Y321880D01*
X102204Y321831D01*
X102128Y321796D01*
X102044Y321755D01*
X101961Y321706D01*
X101885Y321651D01*
X101809Y321589D01*
X101732Y321512D01*
X101725Y321505D01*
X101718Y321491D01*
X101698Y321471D01*
X101670Y321436D01*
X101642Y321387D01*
X101608Y321339D01*
X101573Y321276D01*
X101531Y321207D01*
X101496Y321131D01*
X101462Y321048D01*
X101427Y320951D01*
X101399Y320854D01*
X101372Y320742D01*
X101351Y320625D01*
X101344Y320507D01*
X101337Y320375D01*
Y320368D01*
Y320347D01*
Y320313D01*
X101344Y320264D01*
X101351Y320209D01*
X101358Y320139D01*
X101372Y320070D01*
X101386Y319987D01*
X101427Y319820D01*
X101496Y319640D01*
X101538Y319557D01*
X101594Y319474D01*
X101649Y319390D01*
X101718Y319314D01*
X101725Y319307D01*
X101732Y319300D01*
X101760Y319279D01*
X101788Y319252D01*
X101822Y319224D01*
X101871Y319189D01*
X101919Y319155D01*
X101982Y319113D01*
X102051Y319078D01*
X102121Y319044D01*
X102294Y318981D01*
X102384Y318953D01*
X102488Y318933D01*
X102592Y318926D01*
X102703Y318919D01*
X102766D01*
X102842Y318926D01*
X102932Y318940D01*
X103043Y318960D01*
X103161Y318995D01*
X103279Y319037D01*
X103397Y319099D01*
X103410Y319106D01*
X103445Y319127D01*
X103500Y319168D01*
X103570Y319217D01*
X103639Y319286D01*
X103722Y319363D01*
X103799Y319453D01*
X103868Y319550D01*
X104603Y319446D01*
X103986Y316159D01*
X100803D01*
Y316908D01*
X103362D01*
X103702Y318628D01*
X103695Y318621D01*
X103674Y318607D01*
X103646Y318593D01*
X103604Y318565D01*
X103549Y318537D01*
X103487Y318503D01*
X103417Y318461D01*
X103334Y318426D01*
X103251Y318392D01*
X103154Y318350D01*
X102953Y318288D01*
X102842Y318260D01*
X102731Y318239D01*
X102613Y318232D01*
X102495Y318225D01*
X102460D01*
X102412Y318232D01*
X102356D01*
X102287Y318246D01*
X102204Y318253D01*
X102107Y318274D01*
X102010Y318295D01*
X101899Y318329D01*
X101788Y318364D01*
X101670Y318413D01*
X101552Y318468D01*
X101434Y318537D01*
X101316Y318614D01*
X101198Y318704D01*
X101087Y318808D01*
X101081Y318815D01*
X101060Y318836D01*
X101032Y318870D01*
X100997Y318912D01*
X100949Y318967D01*
X100900Y319044D01*
X100852Y319120D01*
X100796Y319210D01*
X100741Y319314D01*
X100692Y319432D01*
X100637Y319550D01*
X100595Y319688D01*
X100560Y319827D01*
X100533Y319980D01*
X100512Y320139D01*
X100505Y320306D01*
Y320313D01*
Y320347D01*
Y320389D01*
X100512Y320451D01*
X100519Y320528D01*
X100533Y320611D01*
X100547Y320708D01*
X100567Y320819D01*
X100595Y320930D01*
X100630Y321055D01*
X100671Y321179D01*
X100720Y321304D01*
X100775Y321429D01*
X100845Y321561D01*
X100921Y321686D01*
X101011Y321803D01*
X101018Y321810D01*
X101039Y321838D01*
X101074Y321873D01*
X101122Y321921D01*
X101185Y321984D01*
X101261Y322046D01*
X101351Y322122D01*
X101455Y322192D01*
X101566Y322261D01*
X101691Y322337D01*
X101829Y322400D01*
X101982Y322455D01*
X102141Y322511D01*
X102315Y322545D01*
X102495Y322573D01*
X102689Y322580D01*
X102772D01*
X102835Y322573D01*
D02*
G37*
G36*
X110872Y316076D02*
X107897D01*
X107821Y316083D01*
X107744D01*
X107654Y316090D01*
X107550Y316097D01*
X107342Y316117D01*
X107127Y316152D01*
X106919Y316194D01*
X106829Y316221D01*
X106739Y316249D01*
X106732D01*
X106718Y316256D01*
X106697Y316270D01*
X106663Y316284D01*
X106579Y316325D01*
X106482Y316388D01*
X106364Y316471D01*
X106246Y316582D01*
X106129Y316707D01*
X106025Y316859D01*
Y316866D01*
X106011Y316880D01*
X105997Y316901D01*
X105983Y316936D01*
X105962Y316977D01*
X105941Y317026D01*
X105914Y317081D01*
X105886Y317144D01*
X105837Y317289D01*
X105796Y317449D01*
X105768Y317629D01*
X105754Y317823D01*
Y317830D01*
Y317851D01*
Y317893D01*
X105761Y317934D01*
X105768Y317997D01*
X105775Y318066D01*
X105789Y318142D01*
X105810Y318225D01*
X105865Y318406D01*
X105900Y318503D01*
X105941Y318600D01*
X105990Y318697D01*
X106052Y318794D01*
X106122Y318884D01*
X106198Y318974D01*
X106205Y318981D01*
X106219Y318995D01*
X106246Y319016D01*
X106281Y319051D01*
X106330Y319085D01*
X106385Y319127D01*
X106454Y319175D01*
X106538Y319224D01*
X106628Y319272D01*
X106725Y319321D01*
X106836Y319370D01*
X106961Y319418D01*
X107092Y319460D01*
X107238Y319501D01*
X107397Y319536D01*
X107564Y319564D01*
X107557D01*
X107550Y319571D01*
X107508Y319591D01*
X107446Y319626D01*
X107370Y319668D01*
X107287Y319716D01*
X107203Y319765D01*
X107120Y319827D01*
X107051Y319883D01*
X107044Y319890D01*
X107037Y319897D01*
X107016Y319917D01*
X106988Y319945D01*
X106954Y319980D01*
X106912Y320021D01*
X106822Y320118D01*
X106718Y320243D01*
X106600Y320389D01*
X106475Y320555D01*
X106350Y320736D01*
X105241Y322476D01*
X106302D01*
X107148Y321145D01*
X107155Y321138D01*
X107162Y321117D01*
X107183Y321089D01*
X107210Y321048D01*
X107238Y320999D01*
X107280Y320944D01*
X107363Y320819D01*
X107460Y320673D01*
X107557Y320528D01*
X107661Y320389D01*
X107758Y320264D01*
Y320257D01*
X107772Y320250D01*
X107800Y320215D01*
X107841Y320160D01*
X107904Y320098D01*
X107966Y320028D01*
X108042Y319959D01*
X108119Y319890D01*
X108188Y319841D01*
X108195Y319834D01*
X108223Y319820D01*
X108257Y319799D01*
X108306Y319772D01*
X108368Y319744D01*
X108431Y319716D01*
X108500Y319688D01*
X108576Y319668D01*
X108583D01*
X108604Y319661D01*
X108639Y319654D01*
X108687Y319647D01*
X108757D01*
X108840Y319640D01*
X108937Y319633D01*
X110026D01*
Y322476D01*
X110872D01*
Y316076D01*
D02*
G37*
G36*
X277819Y386073D02*
X277889Y386066D01*
X277972Y386052D01*
X278062Y386039D01*
X278159Y386018D01*
X278263Y385997D01*
X278367Y385962D01*
X278478Y385928D01*
X278582Y385879D01*
X278693Y385824D01*
X278790Y385761D01*
X278887Y385685D01*
X278977Y385602D01*
X278984Y385595D01*
X278998Y385581D01*
X279019Y385553D01*
X279046Y385512D01*
X279081Y385463D01*
X279116Y385401D01*
X279157Y385324D01*
X279199Y385241D01*
X279234Y385144D01*
X279275Y385040D01*
X279310Y384922D01*
X279345Y384790D01*
X279366Y384652D01*
X279386Y384499D01*
X279400Y384340D01*
Y384166D01*
X278637Y384055D01*
Y384062D01*
Y384090D01*
X278630Y384125D01*
Y384173D01*
X278624Y384236D01*
X278617Y384305D01*
X278596Y384458D01*
X278561Y384624D01*
X278512Y384790D01*
X278485Y384867D01*
X278450Y384943D01*
X278409Y385005D01*
X278367Y385061D01*
X278353Y385075D01*
X278318Y385102D01*
X278263Y385144D01*
X278187Y385192D01*
X278090Y385241D01*
X277972Y385283D01*
X277840Y385310D01*
X277687Y385324D01*
X277632D01*
X277576Y385317D01*
X277500Y385303D01*
X277410Y385290D01*
X277320Y385262D01*
X277230Y385227D01*
X277140Y385179D01*
X277126Y385172D01*
X277098Y385151D01*
X277063Y385116D01*
X277008Y385075D01*
X276959Y385019D01*
X276904Y384950D01*
X276855Y384874D01*
X276814Y384783D01*
X276807Y384770D01*
X276800Y384735D01*
X276786Y384672D01*
X276765Y384589D01*
X276751Y384478D01*
X276737Y384340D01*
X276730Y384180D01*
X276723Y384083D01*
Y383986D01*
Y379576D01*
X275878D01*
Y383937D01*
Y383944D01*
Y383972D01*
Y384014D01*
Y384069D01*
X275884Y384138D01*
Y384215D01*
X275891Y384305D01*
X275905Y384395D01*
X275926Y384596D01*
X275961Y384804D01*
X276009Y385005D01*
X276044Y385095D01*
X276079Y385186D01*
Y385192D01*
X276086Y385206D01*
X276099Y385227D01*
X276113Y385255D01*
X276162Y385338D01*
X276231Y385435D01*
X276314Y385539D01*
X276418Y385650D01*
X276550Y385754D01*
X276696Y385851D01*
X276703D01*
X276717Y385858D01*
X276737Y385872D01*
X276772Y385886D01*
X276807Y385907D01*
X276855Y385921D01*
X276911Y385941D01*
X276973Y385962D01*
X277119Y386011D01*
X277285Y386045D01*
X277472Y386073D01*
X277680Y386080D01*
X277764D01*
X277819Y386073D01*
D02*
G37*
G36*
X272293Y384444D02*
X275080D01*
Y383722D01*
X272154Y379576D01*
X271509D01*
Y383722D01*
X270642D01*
Y384444D01*
X271509D01*
Y385976D01*
X272293D01*
Y384444D01*
D02*
G37*
G36*
X172076Y336718D02*
X172138Y336711D01*
X172214Y336704D01*
X172298Y336690D01*
X172388Y336670D01*
X172589Y336621D01*
X172686Y336586D01*
X172797Y336545D01*
X172901Y336496D01*
X172998Y336434D01*
X173095Y336371D01*
X173192Y336295D01*
X173199Y336288D01*
X173213Y336274D01*
X173241Y336253D01*
X173268Y336219D01*
X173310Y336177D01*
X173352Y336122D01*
X173400Y336059D01*
X173449Y335990D01*
X173497Y335914D01*
X173546Y335824D01*
X173594Y335726D01*
X173643Y335622D01*
X173684Y335512D01*
X173719Y335394D01*
X173754Y335269D01*
X173775Y335130D01*
X172991Y335068D01*
Y335075D01*
X172984Y335089D01*
X172977Y335109D01*
X172970Y335144D01*
X172949Y335227D01*
X172915Y335324D01*
X172873Y335435D01*
X172818Y335546D01*
X172762Y335650D01*
X172693Y335740D01*
X172686Y335747D01*
X172679Y335754D01*
X172658Y335775D01*
X172637Y335796D01*
X172568Y335851D01*
X172471Y335914D01*
X172360Y335976D01*
X172221Y336025D01*
X172069Y336066D01*
X171985Y336073D01*
X171902Y336080D01*
X171840D01*
X171764Y336066D01*
X171674Y336052D01*
X171569Y336025D01*
X171458Y335990D01*
X171348Y335934D01*
X171237Y335865D01*
X171230D01*
X171223Y335851D01*
X171202Y335837D01*
X171174Y335817D01*
X171112Y335754D01*
X171029Y335664D01*
X170931Y335553D01*
X170835Y335414D01*
X170744Y335255D01*
X170654Y335075D01*
Y335068D01*
X170647Y335054D01*
X170633Y335019D01*
X170620Y334977D01*
X170606Y334929D01*
X170585Y334860D01*
X170564Y334783D01*
X170543Y334700D01*
X170522Y334603D01*
X170508Y334492D01*
X170488Y334367D01*
X170467Y334236D01*
X170453Y334097D01*
X170446Y333944D01*
X170439Y333778D01*
X170433Y333612D01*
X170432Y333611D01*
Y333605D01*
X170433Y333612D01*
X170446Y333625D01*
X170460Y333646D01*
X170481Y333674D01*
X170543Y333750D01*
X170620Y333847D01*
X170723Y333951D01*
X170841Y334055D01*
X170973Y334152D01*
X171119Y334243D01*
X171126D01*
X171140Y334249D01*
X171160Y334263D01*
X171188Y334277D01*
X171230Y334291D01*
X171271Y334312D01*
X171382Y334353D01*
X171514Y334388D01*
X171660Y334423D01*
X171819Y334450D01*
X171985Y334458D01*
X172020D01*
X172062Y334450D01*
X172117D01*
X172187Y334437D01*
X172263Y334430D01*
X172353Y334409D01*
X172450Y334388D01*
X172547Y334353D01*
X172658Y334319D01*
X172769Y334270D01*
X172880Y334215D01*
X172998Y334145D01*
X173109Y334069D01*
X173220Y333979D01*
X173324Y333875D01*
X173331Y333868D01*
X173345Y333847D01*
X173372Y333820D01*
X173414Y333771D01*
X173456Y333716D01*
X173497Y333646D01*
X173553Y333563D01*
X173601Y333473D01*
X173650Y333369D01*
X173705Y333258D01*
X173747Y333133D01*
X173795Y333001D01*
X173830Y332863D01*
X173858Y332710D01*
X173872Y332551D01*
X173879Y332384D01*
Y332377D01*
Y332356D01*
Y332329D01*
X173872Y332280D01*
Y332232D01*
X173865Y332169D01*
X173858Y332093D01*
X173844Y332017D01*
X173816Y331843D01*
X173768Y331656D01*
X173705Y331462D01*
X173615Y331261D01*
Y331254D01*
X173601Y331240D01*
X173587Y331212D01*
X173566Y331178D01*
X173539Y331136D01*
X173511Y331087D01*
X173428Y330970D01*
X173331Y330845D01*
X173206Y330713D01*
X173060Y330581D01*
X172901Y330470D01*
X172894D01*
X172880Y330456D01*
X172852Y330443D01*
X172818Y330429D01*
X172776Y330408D01*
X172728Y330387D01*
X172665Y330359D01*
X172603Y330339D01*
X172450Y330283D01*
X172270Y330242D01*
X172076Y330214D01*
X171868Y330200D01*
X171826D01*
X171771Y330207D01*
X171701Y330214D01*
X171618Y330221D01*
X171521Y330242D01*
X171417Y330262D01*
X171299Y330290D01*
X171174Y330332D01*
X171042Y330373D01*
X170911Y330436D01*
X170779Y330505D01*
X170640Y330588D01*
X170515Y330685D01*
X170384Y330796D01*
X170266Y330921D01*
X170259Y330928D01*
X170238Y330956D01*
X170210Y330997D01*
X170169Y331060D01*
X170120Y331136D01*
X170072Y331233D01*
X170016Y331351D01*
X169961Y331490D01*
X169898Y331642D01*
X169843Y331815D01*
X169794Y332010D01*
X169746Y332225D01*
X169704Y332460D01*
X169676Y332717D01*
X169656Y332994D01*
X169649Y333293D01*
Y333299D01*
Y333313D01*
Y333341D01*
Y333376D01*
Y333417D01*
X169656Y333473D01*
Y333528D01*
X169663Y333598D01*
X169669Y333750D01*
X169683Y333923D01*
X169704Y334118D01*
X169732Y334326D01*
X169774Y334548D01*
X169815Y334770D01*
X169871Y334991D01*
X169940Y335213D01*
X170016Y335428D01*
X170106Y335636D01*
X170217Y335824D01*
X170335Y335990D01*
X170342Y335997D01*
X170363Y336025D01*
X170398Y336059D01*
X170446Y336108D01*
X170502Y336163D01*
X170578Y336226D01*
X170661Y336288D01*
X170758Y336357D01*
X170869Y336427D01*
X170994Y336489D01*
X171126Y336552D01*
X171271Y336607D01*
X171424Y336656D01*
X171590Y336690D01*
X171764Y336718D01*
X171951Y336725D01*
X172027D01*
X172076Y336718D01*
D02*
G37*
G36*
X168622Y332342D02*
Y332336D01*
Y332308D01*
Y332266D01*
Y332211D01*
X168615Y332141D01*
Y332065D01*
X168609Y331975D01*
X168595Y331885D01*
X168574Y331684D01*
X168539Y331476D01*
X168491Y331275D01*
X168456Y331185D01*
X168421Y331094D01*
Y331087D01*
X168414Y331074D01*
X168401Y331053D01*
X168387Y331025D01*
X168338Y330942D01*
X168269Y330845D01*
X168186Y330741D01*
X168082Y330630D01*
X167950Y330526D01*
X167804Y330429D01*
X167797D01*
X167783Y330422D01*
X167763Y330408D01*
X167728Y330394D01*
X167693Y330373D01*
X167645Y330359D01*
X167589Y330339D01*
X167527Y330318D01*
X167381Y330269D01*
X167215Y330234D01*
X167028Y330207D01*
X166820Y330200D01*
X166736D01*
X166681Y330207D01*
X166611Y330214D01*
X166528Y330228D01*
X166438Y330242D01*
X166341Y330262D01*
X166237Y330283D01*
X166133Y330318D01*
X166022Y330352D01*
X165918Y330401D01*
X165807Y330456D01*
X165710Y330519D01*
X165613Y330595D01*
X165523Y330678D01*
X165516Y330685D01*
X165502Y330699D01*
X165481Y330727D01*
X165453Y330769D01*
X165419Y330817D01*
X165384Y330879D01*
X165343Y330956D01*
X165301Y331039D01*
X165266Y331136D01*
X165225Y331240D01*
X165190Y331358D01*
X165155Y331490D01*
X165135Y331628D01*
X165114Y331781D01*
X165100Y331940D01*
Y332114D01*
X165863Y332225D01*
Y332218D01*
Y332190D01*
X165870Y332155D01*
Y332107D01*
X165877Y332044D01*
X165883Y331975D01*
X165904Y331823D01*
X165939Y331656D01*
X165987Y331490D01*
X166015Y331413D01*
X166050Y331337D01*
X166091Y331275D01*
X166133Y331219D01*
X166147Y331205D01*
X166182Y331178D01*
X166237Y331136D01*
X166313Y331087D01*
X166410Y331039D01*
X166528Y330997D01*
X166660Y330970D01*
X166813Y330956D01*
X166868D01*
X166924Y330963D01*
X167000Y330976D01*
X167090Y330990D01*
X167180Y331018D01*
X167270Y331053D01*
X167360Y331101D01*
X167374Y331108D01*
X167402Y331129D01*
X167437Y331164D01*
X167492Y331205D01*
X167541Y331261D01*
X167596Y331330D01*
X167645Y331406D01*
X167686Y331497D01*
X167693Y331510D01*
X167700Y331545D01*
X167714Y331608D01*
X167735Y331691D01*
X167749Y331802D01*
X167763Y331940D01*
X167770Y332100D01*
X167777Y332197D01*
Y332294D01*
Y336704D01*
X168622D01*
Y332342D01*
D02*
G37*
G36*
X399563Y55653D02*
Y55646D01*
Y55618D01*
Y55576D01*
Y55521D01*
X399556Y55452D01*
Y55375D01*
X399549Y55285D01*
X399535Y55195D01*
X399514Y54994D01*
X399480Y54786D01*
X399431Y54585D01*
X399396Y54495D01*
X399362Y54405D01*
Y54398D01*
X399355Y54384D01*
X399341Y54363D01*
X399327Y54335D01*
X399278Y54252D01*
X399209Y54155D01*
X399126Y54051D01*
X399022Y53940D01*
X398890Y53836D01*
X398745Y53739D01*
X398738D01*
X398724Y53732D01*
X398703Y53718D01*
X398668Y53704D01*
X398634Y53683D01*
X398585Y53670D01*
X398530Y53649D01*
X398467Y53628D01*
X398322Y53579D01*
X398155Y53545D01*
X397968Y53517D01*
X397760Y53510D01*
X397677D01*
X397621Y53517D01*
X397552Y53524D01*
X397469Y53538D01*
X397379Y53552D01*
X397281Y53573D01*
X397177Y53593D01*
X397073Y53628D01*
X396963Y53663D01*
X396858Y53711D01*
X396748Y53767D01*
X396650Y53829D01*
X396553Y53905D01*
X396463Y53988D01*
X396456Y53995D01*
X396442Y54009D01*
X396422Y54037D01*
X396394Y54079D01*
X396359Y54127D01*
X396325Y54190D01*
X396283Y54266D01*
X396241Y54349D01*
X396207Y54446D01*
X396165Y54550D01*
X396130Y54668D01*
X396096Y54800D01*
X396075Y54939D01*
X396054Y55091D01*
X396040Y55251D01*
Y55424D01*
X396803Y55535D01*
Y55528D01*
Y55500D01*
X396810Y55465D01*
Y55417D01*
X396817Y55355D01*
X396824Y55285D01*
X396845Y55133D01*
X396879Y54966D01*
X396928Y54800D01*
X396955Y54724D01*
X396990Y54647D01*
X397032Y54585D01*
X397073Y54529D01*
X397087Y54516D01*
X397122Y54488D01*
X397177Y54446D01*
X397254Y54398D01*
X397351Y54349D01*
X397469Y54307D01*
X397600Y54280D01*
X397753Y54266D01*
X397808D01*
X397864Y54273D01*
X397940Y54287D01*
X398030Y54301D01*
X398120Y54328D01*
X398211Y54363D01*
X398301Y54412D01*
X398315Y54418D01*
X398342Y54439D01*
X398377Y54474D01*
X398433Y54516D01*
X398481Y54571D01*
X398536Y54640D01*
X398585Y54717D01*
X398627Y54807D01*
X398634Y54821D01*
X398641Y54855D01*
X398654Y54918D01*
X398675Y55001D01*
X398689Y55112D01*
X398703Y55251D01*
X398710Y55410D01*
X398717Y55507D01*
Y55604D01*
Y60014D01*
X399563D01*
Y55653D01*
D02*
G37*
G36*
X404569Y59182D02*
X402011D01*
X401671Y57463D01*
X401678Y57470D01*
X401698Y57483D01*
X401726Y57497D01*
X401768Y57525D01*
X401823Y57553D01*
X401886Y57587D01*
X401955Y57629D01*
X402038Y57664D01*
X402122Y57698D01*
X402219Y57740D01*
X402420Y57802D01*
X402531Y57830D01*
X402642Y57851D01*
X402760Y57858D01*
X402877Y57865D01*
X402912D01*
X402961Y57858D01*
X403016D01*
X403085Y57844D01*
X403169Y57837D01*
X403266Y57816D01*
X403363Y57795D01*
X403474Y57761D01*
X403585Y57726D01*
X403703Y57677D01*
X403820Y57622D01*
X403938Y57553D01*
X404056Y57476D01*
X404174Y57386D01*
X404285Y57282D01*
X404292Y57275D01*
X404313Y57255D01*
X404341Y57220D01*
X404375Y57178D01*
X404424Y57123D01*
X404472Y57046D01*
X404521Y56970D01*
X404576Y56880D01*
X404632Y56776D01*
X404680Y56658D01*
X404736Y56540D01*
X404777Y56402D01*
X404812Y56263D01*
X404840Y56110D01*
X404860Y55951D01*
X404868Y55785D01*
Y55778D01*
Y55743D01*
Y55701D01*
X404860Y55639D01*
X404854Y55563D01*
X404840Y55479D01*
X404826Y55382D01*
X404805Y55271D01*
X404777Y55160D01*
X404743Y55036D01*
X404701Y54911D01*
X404652Y54786D01*
X404597Y54661D01*
X404528Y54529D01*
X404451Y54405D01*
X404361Y54287D01*
X404354Y54280D01*
X404333Y54252D01*
X404299Y54217D01*
X404250Y54169D01*
X404188Y54106D01*
X404112Y54044D01*
X404021Y53968D01*
X403918Y53898D01*
X403806Y53829D01*
X403682Y53753D01*
X403543Y53690D01*
X403391Y53635D01*
X403231Y53579D01*
X403058Y53545D01*
X402877Y53517D01*
X402683Y53510D01*
X402600D01*
X402538Y53517D01*
X402461Y53524D01*
X402378Y53538D01*
X402281Y53552D01*
X402177Y53573D01*
X402066Y53593D01*
X401948Y53628D01*
X401830Y53670D01*
X401712Y53718D01*
X401595Y53774D01*
X401477Y53836D01*
X401366Y53912D01*
X401255Y53995D01*
X401248Y54002D01*
X401234Y54016D01*
X401206Y54044D01*
X401171Y54086D01*
X401123Y54134D01*
X401074Y54190D01*
X401026Y54259D01*
X400970Y54342D01*
X400915Y54425D01*
X400859Y54522D01*
X400811Y54633D01*
X400762Y54744D01*
X400714Y54869D01*
X400679Y55001D01*
X400652Y55146D01*
X400631Y55292D01*
X401456Y55355D01*
Y55348D01*
X401463Y55327D01*
X401470Y55299D01*
X401477Y55258D01*
X401484Y55209D01*
X401504Y55146D01*
X401539Y55015D01*
X401595Y54869D01*
X401671Y54717D01*
X401761Y54578D01*
X401816Y54516D01*
X401872Y54453D01*
X401879D01*
X401886Y54439D01*
X401907Y54425D01*
X401934Y54405D01*
X402004Y54356D01*
X402101Y54307D01*
X402219Y54252D01*
X402357Y54204D01*
X402510Y54169D01*
X402593Y54162D01*
X402683Y54155D01*
X402739D01*
X402780Y54162D01*
X402829Y54169D01*
X402884Y54176D01*
X403016Y54210D01*
X403169Y54259D01*
X403245Y54294D01*
X403328Y54335D01*
X403411Y54384D01*
X403488Y54439D01*
X403564Y54502D01*
X403640Y54578D01*
X403647Y54585D01*
X403654Y54599D01*
X403675Y54619D01*
X403703Y54654D01*
X403730Y54703D01*
X403765Y54751D01*
X403800Y54814D01*
X403841Y54883D01*
X403876Y54959D01*
X403910Y55043D01*
X403945Y55140D01*
X403973Y55237D01*
X404001Y55348D01*
X404021Y55465D01*
X404028Y55583D01*
X404035Y55715D01*
Y55722D01*
Y55743D01*
Y55778D01*
X404028Y55826D01*
X404021Y55882D01*
X404015Y55951D01*
X404001Y56020D01*
X403987Y56103D01*
X403945Y56270D01*
X403876Y56450D01*
X403834Y56533D01*
X403779Y56617D01*
X403723Y56700D01*
X403654Y56776D01*
X403647Y56783D01*
X403640Y56790D01*
X403612Y56811D01*
X403585Y56838D01*
X403550Y56866D01*
X403501Y56901D01*
X403453Y56936D01*
X403391Y56977D01*
X403321Y57012D01*
X403252Y57046D01*
X403078Y57109D01*
X402988Y57137D01*
X402884Y57157D01*
X402780Y57164D01*
X402669Y57171D01*
X402607D01*
X402531Y57164D01*
X402440Y57151D01*
X402329Y57130D01*
X402212Y57095D01*
X402094Y57053D01*
X401976Y56991D01*
X401962Y56984D01*
X401927Y56963D01*
X401872Y56922D01*
X401802Y56873D01*
X401733Y56804D01*
X401650Y56727D01*
X401574Y56637D01*
X401504Y56540D01*
X400769Y56644D01*
X401386Y59931D01*
X404569D01*
Y59182D01*
D02*
G37*
G36*
X68018Y249075D02*
X68011Y249005D01*
Y248922D01*
X68004Y248839D01*
X67997Y248652D01*
X67976Y248464D01*
X67955Y248277D01*
X67935Y248194D01*
X67921Y248118D01*
Y248111D01*
X67914Y248090D01*
X67907Y248062D01*
X67893Y248028D01*
X67879Y247979D01*
X67865Y247924D01*
X67817Y247792D01*
X67754Y247646D01*
X67678Y247494D01*
X67581Y247334D01*
X67463Y247182D01*
X67456Y247175D01*
X67442Y247161D01*
X67421Y247133D01*
X67387Y247098D01*
X67345Y247057D01*
X67290Y247008D01*
X67234Y246953D01*
X67165Y246897D01*
X67089Y246835D01*
X67005Y246772D01*
X66915Y246710D01*
X66818Y246648D01*
X66603Y246530D01*
X66368Y246426D01*
X66361D01*
X66340Y246412D01*
X66298Y246405D01*
X66250Y246384D01*
X66187Y246363D01*
X66111Y246343D01*
X66028Y246322D01*
X65931Y246294D01*
X65820Y246273D01*
X65702Y246252D01*
X65577Y246232D01*
X65445Y246211D01*
X65307Y246190D01*
X65161Y246183D01*
X64849Y246169D01*
X64842D01*
X64814D01*
X64780D01*
X64724D01*
X64662Y246176D01*
X64585D01*
X64502Y246183D01*
X64412Y246190D01*
X64211Y246211D01*
X63996Y246245D01*
X63774Y246287D01*
X63552Y246343D01*
X63545D01*
X63524Y246350D01*
X63497Y246363D01*
X63462Y246370D01*
X63414Y246391D01*
X63358Y246412D01*
X63226Y246460D01*
X63081Y246523D01*
X62921Y246599D01*
X62769Y246682D01*
X62623Y246779D01*
X62616D01*
X62609Y246793D01*
X62588Y246807D01*
X62561Y246828D01*
X62498Y246877D01*
X62415Y246953D01*
X62318Y247036D01*
X62221Y247133D01*
X62131Y247244D01*
X62041Y247362D01*
Y247369D01*
X62034Y247376D01*
X62006Y247417D01*
X61971Y247487D01*
X61923Y247577D01*
X61874Y247688D01*
X61819Y247819D01*
X61770Y247972D01*
X61722Y248132D01*
Y248139D01*
X61715Y248152D01*
Y248173D01*
X61708Y248208D01*
X61701Y248249D01*
X61687Y248305D01*
X61680Y248360D01*
X61673Y248423D01*
X61652Y248575D01*
X61631Y248749D01*
X61624Y248943D01*
X61618Y249151D01*
Y251460D01*
X68018D01*
Y249075D01*
D02*
G37*
G36*
X70011Y294205D02*
X70004Y294129D01*
Y294053D01*
X69997Y293963D01*
X69990Y293859D01*
X69970Y293651D01*
X69935Y293436D01*
X69893Y293228D01*
X69865Y293137D01*
X69838Y293047D01*
Y293040D01*
X69831Y293027D01*
X69817Y293006D01*
X69803Y292971D01*
X69762Y292888D01*
X69699Y292791D01*
X69616Y292673D01*
X69505Y292555D01*
X69380Y292437D01*
X69227Y292333D01*
X69221D01*
X69207Y292319D01*
X69186Y292305D01*
X69151Y292292D01*
X69110Y292271D01*
X69061Y292250D01*
X69006Y292222D01*
X68943Y292194D01*
X68798Y292146D01*
X68638Y292104D01*
X68458Y292076D01*
X68264Y292063D01*
X68257D01*
X68236D01*
X68194D01*
X68153Y292070D01*
X68090Y292076D01*
X68021Y292083D01*
X67945Y292097D01*
X67861Y292118D01*
X67681Y292174D01*
X67584Y292208D01*
X67487Y292250D01*
X67390Y292298D01*
X67293Y292361D01*
X67203Y292430D01*
X67113Y292506D01*
X67106Y292513D01*
X67092Y292527D01*
X67071Y292555D01*
X67036Y292590D01*
X67002Y292638D01*
X66960Y292694D01*
X66912Y292763D01*
X66863Y292846D01*
X66814Y292936D01*
X66766Y293033D01*
X66717Y293144D01*
X66669Y293269D01*
X66627Y293401D01*
X66586Y293547D01*
X66551Y293706D01*
X66523Y293873D01*
Y293866D01*
X66516Y293859D01*
X66495Y293817D01*
X66461Y293755D01*
X66419Y293678D01*
X66371Y293595D01*
X66322Y293512D01*
X66260Y293429D01*
X66204Y293359D01*
X66197Y293352D01*
X66190Y293346D01*
X66170Y293325D01*
X66142Y293297D01*
X66107Y293262D01*
X66066Y293221D01*
X65968Y293130D01*
X65844Y293027D01*
X65698Y292909D01*
X65532Y292784D01*
X65351Y292659D01*
X63611Y291549D01*
Y292610D01*
X64942Y293456D01*
X64949Y293463D01*
X64970Y293470D01*
X64998Y293491D01*
X65039Y293519D01*
X65088Y293547D01*
X65143Y293588D01*
X65268Y293671D01*
X65414Y293768D01*
X65559Y293866D01*
X65698Y293969D01*
X65823Y294067D01*
X65830D01*
X65837Y294081D01*
X65871Y294108D01*
X65927Y294150D01*
X65989Y294212D01*
X66059Y294275D01*
X66128Y294351D01*
X66197Y294427D01*
X66246Y294496D01*
X66253Y294503D01*
X66267Y294531D01*
X66287Y294566D01*
X66315Y294614D01*
X66343Y294677D01*
X66371Y294739D01*
X66398Y294809D01*
X66419Y294885D01*
Y294892D01*
X66426Y294913D01*
X66433Y294947D01*
X66440Y294996D01*
Y295065D01*
X66447Y295148D01*
X66454Y295245D01*
Y296334D01*
X63611D01*
Y297180D01*
X70011D01*
Y294205D01*
D02*
G37*
G36*
X65407Y290267D02*
X65400D01*
X65379Y290260D01*
X65344Y290253D01*
X65296Y290239D01*
X65240Y290225D01*
X65178Y290211D01*
X65032Y290163D01*
X64873Y290100D01*
X64713Y290024D01*
X64568Y289927D01*
X64505Y289871D01*
X64443Y289816D01*
Y289809D01*
X64429Y289802D01*
X64415Y289781D01*
X64394Y289760D01*
X64353Y289691D01*
X64297Y289594D01*
X64242Y289476D01*
X64200Y289344D01*
X64166Y289185D01*
X64152Y289018D01*
Y288963D01*
X64159Y288921D01*
X64166Y288880D01*
X64173Y288817D01*
X64200Y288693D01*
X64242Y288540D01*
X64311Y288381D01*
X64360Y288304D01*
X64408Y288228D01*
X64464Y288152D01*
X64533Y288076D01*
X64540Y288069D01*
X64554Y288062D01*
X64575Y288041D01*
X64602Y288013D01*
X64637Y287985D01*
X64686Y287958D01*
X64734Y287923D01*
X64797Y287881D01*
X64935Y287812D01*
X65095Y287757D01*
X65282Y287708D01*
X65379Y287701D01*
X65483Y287694D01*
X65490D01*
X65504D01*
X65539D01*
X65573Y287701D01*
X65622Y287708D01*
X65670Y287715D01*
X65795Y287736D01*
X65941Y287784D01*
X66086Y287847D01*
X66163Y287888D01*
X66232Y287937D01*
X66301Y287992D01*
X66371Y288055D01*
X66378Y288062D01*
X66385Y288069D01*
X66405Y288089D01*
X66426Y288117D01*
X66454Y288152D01*
X66482Y288193D01*
X66551Y288297D01*
X66613Y288429D01*
X66669Y288582D01*
X66710Y288755D01*
X66717Y288852D01*
X66724Y288949D01*
Y288991D01*
X66717Y289039D01*
Y289102D01*
X66704Y289185D01*
X66690Y289275D01*
X66669Y289386D01*
X66641Y289504D01*
X67328Y289421D01*
Y289407D01*
X67321Y289372D01*
X67314Y289331D01*
Y289240D01*
X67321Y289206D01*
Y289157D01*
X67328Y289109D01*
X67348Y288991D01*
X67376Y288852D01*
X67425Y288699D01*
X67487Y288540D01*
X67577Y288388D01*
Y288381D01*
X67591Y288367D01*
X67605Y288353D01*
X67626Y288325D01*
X67688Y288256D01*
X67778Y288179D01*
X67889Y288110D01*
X68028Y288041D01*
X68104Y288013D01*
X68194Y287999D01*
X68285Y287985D01*
X68382Y287978D01*
X68389D01*
X68402D01*
X68423D01*
X68458Y287985D01*
X68534Y287992D01*
X68638Y288013D01*
X68749Y288048D01*
X68867Y288103D01*
X68992Y288179D01*
X69047Y288221D01*
X69103Y288277D01*
X69117Y288290D01*
X69144Y288332D01*
X69193Y288394D01*
X69248Y288478D01*
X69297Y288589D01*
X69345Y288720D01*
X69373Y288866D01*
X69387Y289032D01*
Y289074D01*
X69380Y289109D01*
Y289150D01*
X69373Y289192D01*
X69352Y289303D01*
X69318Y289421D01*
X69262Y289552D01*
X69193Y289677D01*
X69096Y289802D01*
X69082Y289816D01*
X69040Y289851D01*
X68978Y289906D01*
X68881Y289962D01*
X68763Y290031D01*
X68610Y290093D01*
X68437Y290149D01*
X68236Y290190D01*
X68375Y290974D01*
X68382D01*
X68409Y290967D01*
X68451Y290960D01*
X68506Y290946D01*
X68569Y290925D01*
X68645Y290905D01*
X68728Y290877D01*
X68818Y290842D01*
X69019Y290752D01*
X69117Y290704D01*
X69221Y290641D01*
X69318Y290572D01*
X69415Y290495D01*
X69512Y290412D01*
X69595Y290322D01*
X69602Y290315D01*
X69616Y290301D01*
X69637Y290267D01*
X69664Y290232D01*
X69699Y290177D01*
X69734Y290121D01*
X69775Y290052D01*
X69817Y289968D01*
X69852Y289885D01*
X69893Y289788D01*
X69928Y289684D01*
X69963Y289573D01*
X69990Y289448D01*
X70011Y289324D01*
X70025Y289192D01*
X70032Y289053D01*
Y288963D01*
X70025Y288915D01*
X70018Y288866D01*
X70004Y288734D01*
X69976Y288589D01*
X69935Y288422D01*
X69879Y288256D01*
X69803Y288089D01*
Y288082D01*
X69796Y288069D01*
X69782Y288048D01*
X69762Y288013D01*
X69713Y287937D01*
X69644Y287840D01*
X69553Y287729D01*
X69449Y287618D01*
X69331Y287507D01*
X69193Y287410D01*
X69186D01*
X69179Y287403D01*
X69151Y287389D01*
X69124Y287375D01*
X69089Y287354D01*
X69047Y287334D01*
X68943Y287292D01*
X68818Y287250D01*
X68680Y287209D01*
X68527Y287181D01*
X68368Y287174D01*
X68361D01*
X68347D01*
X68326D01*
X68298D01*
X68215Y287188D01*
X68118Y287202D01*
X68000Y287229D01*
X67875Y287271D01*
X67744Y287327D01*
X67612Y287403D01*
X67605D01*
X67598Y287410D01*
X67556Y287444D01*
X67494Y287493D01*
X67418Y287569D01*
X67328Y287659D01*
X67237Y287777D01*
X67154Y287909D01*
X67071Y288062D01*
Y288055D01*
X67064Y288034D01*
X67057Y288006D01*
X67043Y287964D01*
X67029Y287923D01*
X67009Y287867D01*
X66953Y287736D01*
X66877Y287597D01*
X66787Y287451D01*
X66669Y287306D01*
X66523Y287181D01*
X66516Y287174D01*
X66502Y287167D01*
X66482Y287153D01*
X66447Y287132D01*
X66412Y287105D01*
X66364Y287077D01*
X66308Y287049D01*
X66239Y287022D01*
X66170Y286994D01*
X66093Y286966D01*
X65920Y286910D01*
X65719Y286876D01*
X65608Y286862D01*
X65497D01*
X65490D01*
X65462D01*
X65414Y286869D01*
X65358D01*
X65282Y286883D01*
X65199Y286897D01*
X65109Y286910D01*
X65005Y286938D01*
X64894Y286973D01*
X64783Y287015D01*
X64665Y287063D01*
X64547Y287125D01*
X64422Y287195D01*
X64304Y287278D01*
X64186Y287368D01*
X64075Y287479D01*
X64068Y287486D01*
X64048Y287507D01*
X64020Y287542D01*
X63985Y287590D01*
X63944Y287646D01*
X63895Y287722D01*
X63840Y287805D01*
X63791Y287902D01*
X63736Y288006D01*
X63680Y288124D01*
X63632Y288249D01*
X63590Y288388D01*
X63555Y288533D01*
X63528Y288686D01*
X63507Y288845D01*
X63500Y289018D01*
Y289053D01*
X63507Y289102D01*
Y289157D01*
X63514Y289233D01*
X63528Y289317D01*
X63541Y289407D01*
X63562Y289511D01*
X63590Y289622D01*
X63625Y289733D01*
X63659Y289851D01*
X63708Y289968D01*
X63770Y290086D01*
X63833Y290197D01*
X63909Y290315D01*
X63999Y290419D01*
X64006Y290426D01*
X64020Y290440D01*
X64048Y290468D01*
X64089Y290509D01*
X64138Y290551D01*
X64200Y290599D01*
X64270Y290648D01*
X64353Y290704D01*
X64436Y290759D01*
X64540Y290814D01*
X64644Y290870D01*
X64762Y290919D01*
X64887Y290960D01*
X65019Y291002D01*
X65157Y291029D01*
X65303Y291050D01*
X65407Y290267D01*
D02*
G37*
G36*
X567379Y386073D02*
X567449Y386066D01*
X567532Y386052D01*
X567622Y386039D01*
X567719Y386018D01*
X567823Y385997D01*
X567927Y385962D01*
X568038Y385928D01*
X568142Y385879D01*
X568253Y385824D01*
X568350Y385761D01*
X568447Y385685D01*
X568537Y385602D01*
X568544Y385595D01*
X568558Y385581D01*
X568579Y385553D01*
X568606Y385512D01*
X568641Y385463D01*
X568676Y385401D01*
X568717Y385324D01*
X568759Y385241D01*
X568794Y385144D01*
X568835Y385040D01*
X568870Y384922D01*
X568905Y384790D01*
X568926Y384652D01*
X568946Y384499D01*
X568960Y384340D01*
Y384166D01*
X568197Y384055D01*
Y384062D01*
Y384090D01*
X568190Y384125D01*
Y384173D01*
X568184Y384236D01*
X568177Y384305D01*
X568156Y384458D01*
X568121Y384624D01*
X568073Y384790D01*
X568045Y384867D01*
X568010Y384943D01*
X567968Y385005D01*
X567927Y385061D01*
X567913Y385075D01*
X567878Y385102D01*
X567823Y385144D01*
X567747Y385192D01*
X567650Y385241D01*
X567532Y385283D01*
X567400Y385310D01*
X567247Y385324D01*
X567192D01*
X567136Y385317D01*
X567060Y385303D01*
X566970Y385290D01*
X566880Y385262D01*
X566790Y385227D01*
X566700Y385179D01*
X566686Y385172D01*
X566658Y385151D01*
X566623Y385116D01*
X566568Y385075D01*
X566519Y385019D01*
X566464Y384950D01*
X566415Y384874D01*
X566374Y384783D01*
X566367Y384770D01*
X566360Y384735D01*
X566346Y384673D01*
X566325Y384589D01*
X566311Y384478D01*
X566297Y384340D01*
X566291Y384180D01*
X566283Y384083D01*
Y383986D01*
Y379576D01*
X565438D01*
Y383937D01*
Y383944D01*
Y383972D01*
Y384014D01*
Y384069D01*
X565444Y384139D01*
Y384215D01*
X565451Y384305D01*
X565465Y384395D01*
X565486Y384596D01*
X565521Y384804D01*
X565569Y385005D01*
X565604Y385095D01*
X565639Y385186D01*
Y385192D01*
X565646Y385206D01*
X565659Y385227D01*
X565673Y385255D01*
X565722Y385338D01*
X565791Y385435D01*
X565874Y385539D01*
X565978Y385650D01*
X566110Y385754D01*
X566256Y385851D01*
X566263D01*
X566277Y385858D01*
X566297Y385872D01*
X566332Y385886D01*
X566367Y385907D01*
X566415Y385921D01*
X566471Y385941D01*
X566533Y385962D01*
X566679Y386011D01*
X566845Y386045D01*
X567032Y386073D01*
X567240Y386080D01*
X567324D01*
X567379Y386073D01*
D02*
G37*
G36*
X564481Y385962D02*
Y385928D01*
Y385872D01*
X564474Y385803D01*
X564467Y385719D01*
X564446Y385629D01*
X564425Y385532D01*
X564390Y385435D01*
Y385428D01*
X564384Y385414D01*
X564377Y385394D01*
X564363Y385359D01*
X564342Y385324D01*
X564321Y385276D01*
X564266Y385165D01*
X564196Y385033D01*
X564106Y384887D01*
X564002Y384735D01*
X563877Y384582D01*
X563870Y384575D01*
X563863Y384562D01*
X563843Y384541D01*
X563808Y384506D01*
X563773Y384471D01*
X563725Y384423D01*
X563676Y384367D01*
X563614Y384305D01*
X563545Y384236D01*
X563468Y384166D01*
X563385Y384083D01*
X563288Y384000D01*
X563191Y383910D01*
X563080Y383820D01*
X562969Y383722D01*
X562844Y383619D01*
X562830Y383612D01*
X562796Y383577D01*
X562747Y383535D01*
X562678Y383473D01*
X562594Y383404D01*
X562497Y383320D01*
X562387Y383230D01*
X562276Y383126D01*
X562040Y382911D01*
X561811Y382682D01*
X561700Y382571D01*
X561596Y382461D01*
X561506Y382356D01*
X561430Y382259D01*
X561423Y382252D01*
X561416Y382239D01*
X561395Y382211D01*
X561374Y382176D01*
X561339Y382128D01*
X561312Y382079D01*
X561242Y381954D01*
X561173Y381809D01*
X561111Y381649D01*
X561069Y381483D01*
X561062Y381399D01*
X561055Y381316D01*
Y381309D01*
Y381296D01*
Y381268D01*
X561062Y381240D01*
Y381199D01*
X561076Y381150D01*
X561097Y381046D01*
X561138Y380921D01*
X561201Y380789D01*
X561235Y380720D01*
X561284Y380658D01*
X561333Y380595D01*
X561395Y380533D01*
X561402Y380526D01*
X561409Y380519D01*
X561430Y380505D01*
X561457Y380484D01*
X561492Y380457D01*
X561534Y380429D01*
X561631Y380366D01*
X561762Y380311D01*
X561908Y380255D01*
X562081Y380221D01*
X562178Y380207D01*
X562331D01*
X562373Y380214D01*
X562421D01*
X562477Y380228D01*
X562602Y380248D01*
X562747Y380290D01*
X562900Y380353D01*
X562976Y380394D01*
X563052Y380436D01*
X563121Y380491D01*
X563191Y380554D01*
X563198Y380560D01*
X563205Y380567D01*
X563219Y380588D01*
X563246Y380616D01*
X563267Y380651D01*
X563295Y380692D01*
X563330Y380741D01*
X563357Y380796D01*
X563392Y380859D01*
X563420Y380928D01*
X563475Y381094D01*
X563517Y381275D01*
X563524Y381379D01*
X563531Y381490D01*
X564335Y381407D01*
Y381393D01*
X564328Y381365D01*
X564321Y381323D01*
X564314Y381261D01*
X564300Y381185D01*
X564280Y381094D01*
X564259Y380997D01*
X564224Y380893D01*
X564189Y380789D01*
X564148Y380672D01*
X564092Y380560D01*
X564037Y380450D01*
X563968Y380332D01*
X563891Y380228D01*
X563808Y380124D01*
X563711Y380033D01*
X563704Y380027D01*
X563683Y380013D01*
X563656Y379992D01*
X563614Y379957D01*
X563558Y379923D01*
X563489Y379881D01*
X563413Y379839D01*
X563323Y379791D01*
X563226Y379749D01*
X563115Y379708D01*
X562997Y379666D01*
X562865Y379631D01*
X562726Y379597D01*
X562581Y379576D01*
X562421Y379562D01*
X562255Y379555D01*
X562165D01*
X562102Y379562D01*
X562026Y379569D01*
X561936Y379583D01*
X561832Y379597D01*
X561728Y379618D01*
X561610Y379645D01*
X561492Y379680D01*
X561367Y379721D01*
X561249Y379770D01*
X561124Y379832D01*
X561007Y379902D01*
X560896Y379978D01*
X560792Y380068D01*
X560785Y380075D01*
X560771Y380089D01*
X560743Y380124D01*
X560708Y380158D01*
X560667Y380207D01*
X560618Y380269D01*
X560570Y380339D01*
X560521Y380422D01*
X560473Y380505D01*
X560424Y380602D01*
X560376Y380706D01*
X560334Y380817D01*
X560299Y380942D01*
X560272Y381067D01*
X560258Y381199D01*
X560251Y381337D01*
Y381344D01*
Y381351D01*
Y381372D01*
Y381399D01*
X560258Y381476D01*
X560272Y381573D01*
X560292Y381691D01*
X560320Y381816D01*
X560355Y381954D01*
X560410Y382093D01*
Y382100D01*
X560417Y382107D01*
X560424Y382128D01*
X560438Y382155D01*
X560480Y382232D01*
X560535Y382329D01*
X560611Y382447D01*
X560701Y382578D01*
X560806Y382717D01*
X560937Y382870D01*
X560944Y382877D01*
X560951Y382890D01*
X560979Y382911D01*
X561007Y382946D01*
X561048Y382988D01*
X561097Y383036D01*
X561152Y383098D01*
X561222Y383161D01*
X561305Y383237D01*
X561395Y383320D01*
X561492Y383417D01*
X561603Y383515D01*
X561721Y383625D01*
X561853Y383736D01*
X561998Y383861D01*
X562151Y383993D01*
X562158Y384000D01*
X562178Y384021D01*
X562220Y384048D01*
X562262Y384090D01*
X562324Y384139D01*
X562387Y384194D01*
X562532Y384319D01*
X562685Y384451D01*
X562830Y384589D01*
X562900Y384652D01*
X562962Y384707D01*
X563018Y384763D01*
X563059Y384804D01*
X563066Y384811D01*
X563094Y384839D01*
X563129Y384880D01*
X563177Y384936D01*
X563232Y384998D01*
X563288Y385068D01*
X563399Y385220D01*
X560244D01*
Y385976D01*
X564481D01*
Y385962D01*
D02*
G37*
G36*
X415101Y386073D02*
X415157D01*
X415233Y386066D01*
X415316Y386052D01*
X415406Y386039D01*
X415510Y386018D01*
X415621Y385990D01*
X415732Y385955D01*
X415850Y385921D01*
X415968Y385872D01*
X416086Y385810D01*
X416197Y385747D01*
X416315Y385671D01*
X416419Y385581D01*
X416426Y385574D01*
X416439Y385560D01*
X416467Y385532D01*
X416509Y385491D01*
X416550Y385442D01*
X416599Y385380D01*
X416647Y385310D01*
X416703Y385227D01*
X416758Y385144D01*
X416814Y385040D01*
X416869Y384936D01*
X416918Y384818D01*
X416959Y384693D01*
X417001Y384562D01*
X417029Y384423D01*
X417050Y384277D01*
X416266Y384173D01*
Y384180D01*
X416259Y384201D01*
X416252Y384236D01*
X416238Y384284D01*
X416225Y384340D01*
X416211Y384402D01*
X416162Y384548D01*
X416100Y384707D01*
X416023Y384867D01*
X415926Y385012D01*
X415871Y385075D01*
X415815Y385137D01*
X415808D01*
X415802Y385151D01*
X415781Y385165D01*
X415760Y385186D01*
X415690Y385227D01*
X415593Y385283D01*
X415476Y385338D01*
X415344Y385380D01*
X415184Y385414D01*
X415018Y385428D01*
X414962D01*
X414921Y385421D01*
X414879Y385414D01*
X414817Y385407D01*
X414692Y385380D01*
X414539Y385338D01*
X414380Y385269D01*
X414304Y385220D01*
X414227Y385172D01*
X414151Y385116D01*
X414075Y385047D01*
X414068Y385040D01*
X414061Y385026D01*
X414040Y385005D01*
X414012Y384977D01*
X413985Y384943D01*
X413957Y384894D01*
X413922Y384846D01*
X413881Y384783D01*
X413811Y384645D01*
X413756Y384485D01*
X413707Y384298D01*
X413700Y384201D01*
X413694Y384097D01*
Y384090D01*
Y384076D01*
Y384041D01*
X413700Y384007D01*
X413707Y383958D01*
X413714Y383910D01*
X413735Y383785D01*
X413784Y383639D01*
X413846Y383494D01*
X413888Y383417D01*
X413936Y383348D01*
X413992Y383279D01*
X414054Y383209D01*
X414061Y383202D01*
X414068Y383195D01*
X414089Y383175D01*
X414117Y383154D01*
X414151Y383126D01*
X414193Y383098D01*
X414297Y383029D01*
X414428Y382967D01*
X414581Y382911D01*
X414754Y382869D01*
X414851Y382863D01*
X414949Y382856D01*
X414990D01*
X415039Y382863D01*
X415101D01*
X415184Y382877D01*
X415275Y382890D01*
X415385Y382911D01*
X415503Y382939D01*
X415420Y382252D01*
X415406D01*
X415372Y382259D01*
X415330Y382266D01*
X415240D01*
X415205Y382259D01*
X415157D01*
X415108Y382252D01*
X414990Y382232D01*
X414851Y382204D01*
X414699Y382155D01*
X414539Y382093D01*
X414387Y382003D01*
X414380D01*
X414366Y381989D01*
X414352Y381975D01*
X414324Y381954D01*
X414255Y381892D01*
X414179Y381802D01*
X414109Y381691D01*
X414040Y381552D01*
X414012Y381476D01*
X413999Y381386D01*
X413985Y381296D01*
X413978Y381198D01*
Y381191D01*
Y381178D01*
Y381157D01*
X413985Y381122D01*
X413992Y381046D01*
X414012Y380942D01*
X414047Y380831D01*
X414103Y380713D01*
X414179Y380588D01*
X414221Y380533D01*
X414276Y380477D01*
X414290Y380463D01*
X414331Y380436D01*
X414394Y380387D01*
X414477Y380332D01*
X414588Y380283D01*
X414720Y380234D01*
X414865Y380207D01*
X415032Y380193D01*
X415073D01*
X415108Y380200D01*
X415150D01*
X415191Y380207D01*
X415302Y380228D01*
X415420Y380262D01*
X415552Y380318D01*
X415677Y380387D01*
X415802Y380484D01*
X415815Y380498D01*
X415850Y380540D01*
X415905Y380602D01*
X415961Y380699D01*
X416030Y380817D01*
X416093Y380970D01*
X416148Y381143D01*
X416190Y381344D01*
X416973Y381205D01*
Y381198D01*
X416966Y381171D01*
X416959Y381129D01*
X416946Y381074D01*
X416925Y381011D01*
X416904Y380935D01*
X416876Y380852D01*
X416842Y380761D01*
X416752Y380560D01*
X416703Y380463D01*
X416641Y380359D01*
X416571Y380262D01*
X416495Y380165D01*
X416412Y380068D01*
X416321Y379985D01*
X416315Y379978D01*
X416301Y379964D01*
X416266Y379943D01*
X416231Y379916D01*
X416176Y379881D01*
X416120Y379846D01*
X416051Y379805D01*
X415968Y379763D01*
X415885Y379728D01*
X415788Y379687D01*
X415684Y379652D01*
X415573Y379617D01*
X415448Y379590D01*
X415323Y379569D01*
X415191Y379555D01*
X415053Y379548D01*
X414962D01*
X414914Y379555D01*
X414865Y379562D01*
X414734Y379576D01*
X414588Y379604D01*
X414422Y379645D01*
X414255Y379701D01*
X414089Y379777D01*
X414082D01*
X414068Y379784D01*
X414047Y379798D01*
X414012Y379818D01*
X413936Y379867D01*
X413839Y379936D01*
X413728Y380027D01*
X413617Y380131D01*
X413506Y380248D01*
X413409Y380387D01*
Y380394D01*
X413402Y380401D01*
X413388Y380429D01*
X413374Y380456D01*
X413354Y380491D01*
X413333Y380533D01*
X413291Y380637D01*
X413250Y380761D01*
X413208Y380900D01*
X413180Y381053D01*
X413173Y381212D01*
Y381219D01*
Y381233D01*
Y381254D01*
Y381282D01*
X413187Y381365D01*
X413201Y381462D01*
X413229Y381580D01*
X413270Y381705D01*
X413326Y381836D01*
X413402Y381968D01*
Y381975D01*
X413409Y381982D01*
X413444Y382024D01*
X413492Y382086D01*
X413569Y382162D01*
X413659Y382252D01*
X413777Y382342D01*
X413908Y382426D01*
X414061Y382509D01*
X414054D01*
X414033Y382516D01*
X414006Y382523D01*
X413964Y382537D01*
X413922Y382551D01*
X413867Y382571D01*
X413735Y382627D01*
X413596Y382703D01*
X413451Y382793D01*
X413305Y382911D01*
X413180Y383057D01*
X413173Y383064D01*
X413167Y383078D01*
X413153Y383098D01*
X413132Y383133D01*
X413104Y383168D01*
X413076Y383216D01*
X413049Y383272D01*
X413021Y383341D01*
X412993Y383410D01*
X412965Y383487D01*
X412910Y383660D01*
X412875Y383861D01*
X412861Y383972D01*
Y384083D01*
Y384090D01*
Y384118D01*
X412868Y384166D01*
Y384222D01*
X412882Y384298D01*
X412896Y384381D01*
X412910Y384471D01*
X412938Y384575D01*
X412972Y384686D01*
X413014Y384797D01*
X413063Y384915D01*
X413125Y385033D01*
X413194Y385158D01*
X413277Y385276D01*
X413368Y385394D01*
X413479Y385504D01*
X413485Y385512D01*
X413506Y385532D01*
X413541Y385560D01*
X413590Y385595D01*
X413645Y385636D01*
X413721Y385685D01*
X413804Y385740D01*
X413901Y385789D01*
X414006Y385844D01*
X414123Y385900D01*
X414248Y385948D01*
X414387Y385990D01*
X414533Y386025D01*
X414685Y386052D01*
X414845Y386073D01*
X415018Y386080D01*
X415053D01*
X415101Y386073D01*
D02*
G37*
G36*
X420059Y386066D02*
X420128Y386059D01*
X420212Y386045D01*
X420302Y386031D01*
X420399Y386011D01*
X420503Y385990D01*
X420607Y385955D01*
X420718Y385921D01*
X420822Y385872D01*
X420933Y385817D01*
X421030Y385754D01*
X421127Y385678D01*
X421217Y385595D01*
X421224Y385588D01*
X421238Y385574D01*
X421259Y385546D01*
X421286Y385504D01*
X421321Y385456D01*
X421356Y385394D01*
X421397Y385317D01*
X421439Y385234D01*
X421474Y385137D01*
X421515Y385033D01*
X421550Y384915D01*
X421585Y384783D01*
X421605Y384645D01*
X421626Y384492D01*
X421640Y384333D01*
Y384159D01*
X420877Y384048D01*
Y384055D01*
Y384083D01*
X420870Y384118D01*
Y384166D01*
X420863Y384229D01*
X420857Y384298D01*
X420836Y384450D01*
X420801Y384617D01*
X420752Y384783D01*
X420725Y384860D01*
X420690Y384936D01*
X420648Y384998D01*
X420607Y385054D01*
X420593Y385068D01*
X420558Y385095D01*
X420503Y385137D01*
X420427Y385186D01*
X420330Y385234D01*
X420212Y385276D01*
X420080Y385303D01*
X419927Y385317D01*
X419872D01*
X419816Y385310D01*
X419740Y385297D01*
X419650Y385283D01*
X419560Y385255D01*
X419470Y385220D01*
X419380Y385172D01*
X419366Y385165D01*
X419338Y385144D01*
X419303Y385109D01*
X419248Y385068D01*
X419199Y385012D01*
X419144Y384943D01*
X419095Y384867D01*
X419054Y384776D01*
X419047Y384763D01*
X419040Y384728D01*
X419026Y384665D01*
X419005Y384582D01*
X418991Y384471D01*
X418977Y384333D01*
X418970Y384173D01*
X418964Y384076D01*
Y383979D01*
Y379569D01*
X418117D01*
Y383931D01*
Y383937D01*
Y383965D01*
Y384007D01*
Y384062D01*
X418124Y384132D01*
Y384208D01*
X418131Y384298D01*
X418145Y384388D01*
X418166Y384589D01*
X418201Y384797D01*
X418249Y384998D01*
X418284Y385089D01*
X418319Y385179D01*
Y385186D01*
X418326Y385199D01*
X418339Y385220D01*
X418353Y385248D01*
X418402Y385331D01*
X418471Y385428D01*
X418554Y385532D01*
X418658Y385643D01*
X418790Y385747D01*
X418936Y385844D01*
X418943D01*
X418956Y385851D01*
X418977Y385865D01*
X419012Y385879D01*
X419047Y385900D01*
X419095Y385914D01*
X419151Y385934D01*
X419213Y385955D01*
X419359Y386004D01*
X419525Y386039D01*
X419712Y386066D01*
X419920Y386073D01*
X420004D01*
X420059Y386066D01*
D02*
G37*
%LPC*%
G36*
X268311Y59213D02*
X268263D01*
X268221Y59206D01*
X268180Y59199D01*
X268124Y59192D01*
X267999Y59158D01*
X267854Y59109D01*
X267777Y59075D01*
X267701Y59033D01*
X267625Y58984D01*
X267549Y58922D01*
X267472Y58860D01*
X267396Y58783D01*
X267389Y58776D01*
X267382Y58762D01*
X267361Y58742D01*
X267334Y58707D01*
X267306Y58665D01*
X267278Y58610D01*
X267243Y58554D01*
X267209Y58485D01*
X267167Y58409D01*
X267133Y58326D01*
X267105Y58235D01*
X267077Y58131D01*
X267029Y57916D01*
X267022Y57799D01*
X267015Y57674D01*
Y57667D01*
Y57646D01*
Y57618D01*
X267022Y57570D01*
X267029Y57521D01*
X267036Y57459D01*
X267063Y57320D01*
X267105Y57161D01*
X267167Y57001D01*
X267209Y56918D01*
X267257Y56835D01*
X267313Y56758D01*
X267375Y56682D01*
X267382Y56675D01*
X267389Y56668D01*
X267410Y56648D01*
X267445Y56627D01*
X267479Y56599D01*
X267521Y56564D01*
X267569Y56530D01*
X267625Y56495D01*
X267764Y56426D01*
X267916Y56363D01*
X268096Y56322D01*
X268193Y56315D01*
X268291Y56308D01*
X268346D01*
X268381Y56315D01*
X268429Y56322D01*
X268478Y56329D01*
X268603Y56356D01*
X268748Y56398D01*
X268894Y56467D01*
X268970Y56509D01*
X269046Y56557D01*
X269116Y56620D01*
X269185Y56682D01*
X269192Y56689D01*
X269199Y56703D01*
X269220Y56724D01*
X269241Y56751D01*
X269268Y56793D01*
X269296Y56842D01*
X269331Y56897D01*
X269365Y56960D01*
X269393Y57029D01*
X269428Y57112D01*
X269456Y57195D01*
X269483Y57292D01*
X269504Y57396D01*
X269525Y57500D01*
X269532Y57618D01*
X269539Y57743D01*
Y57750D01*
Y57771D01*
Y57806D01*
X269532Y57854D01*
X269525Y57909D01*
X269518Y57979D01*
X269511Y58048D01*
X269497Y58131D01*
X269449Y58298D01*
X269386Y58478D01*
X269345Y58568D01*
X269296Y58651D01*
X269241Y58735D01*
X269178Y58811D01*
X269171Y58818D01*
X269164Y58832D01*
X269144Y58846D01*
X269116Y58873D01*
X269081Y58901D01*
X269039Y58936D01*
X268936Y59012D01*
X268811Y59088D01*
X268658Y59151D01*
X268582Y59179D01*
X268492Y59199D01*
X268402Y59206D01*
X268311Y59213D01*
D02*
G37*
G36*
X131221Y59220D02*
X131096D01*
X131061Y59213D01*
X131027D01*
X130978Y59206D01*
X130874Y59186D01*
X130756Y59151D01*
X130631Y59095D01*
X130506Y59026D01*
X130389Y58929D01*
X130375Y58915D01*
X130340Y58880D01*
X130299Y58818D01*
X130243Y58735D01*
X130188Y58638D01*
X130146Y58520D01*
X130111Y58388D01*
X130097Y58242D01*
Y58236D01*
Y58222D01*
Y58201D01*
X130104Y58166D01*
Y58124D01*
X130111Y58083D01*
X130132Y57979D01*
X130167Y57861D01*
X130215Y57736D01*
X130285Y57611D01*
X130382Y57500D01*
X130395Y57487D01*
X130437Y57459D01*
X130500Y57410D01*
X130590Y57362D01*
X130694Y57306D01*
X130826Y57258D01*
X130978Y57230D01*
X131144Y57216D01*
X131186D01*
X131221Y57223D01*
X131262D01*
X131304Y57230D01*
X131408Y57251D01*
X131526Y57285D01*
X131651Y57334D01*
X131776Y57403D01*
X131893Y57500D01*
X131907Y57514D01*
X131942Y57549D01*
X131983Y57611D01*
X132039Y57695D01*
X132094Y57792D01*
X132136Y57916D01*
X132171Y58048D01*
X132185Y58194D01*
Y58201D01*
Y58215D01*
Y58236D01*
X132178Y58270D01*
X132171Y58346D01*
X132150Y58450D01*
X132115Y58561D01*
X132060Y58686D01*
X131983Y58804D01*
X131942Y58867D01*
X131886Y58922D01*
Y58929D01*
X131873Y58936D01*
X131831Y58970D01*
X131769Y59019D01*
X131678Y59075D01*
X131574Y59123D01*
X131443Y59172D01*
X131297Y59206D01*
X131221Y59220D01*
D02*
G37*
G36*
X131124Y56571D02*
X131068D01*
X131033Y56564D01*
X130985Y56557D01*
X130929Y56550D01*
X130798Y56523D01*
X130652Y56481D01*
X130500Y56419D01*
X130423Y56377D01*
X130347Y56329D01*
X130271Y56266D01*
X130201Y56204D01*
X130195Y56197D01*
X130188Y56190D01*
X130167Y56169D01*
X130146Y56141D01*
X130118Y56100D01*
X130090Y56058D01*
X130056Y56010D01*
X130021Y55954D01*
X129952Y55822D01*
X129896Y55663D01*
X129855Y55483D01*
X129848Y55392D01*
X129841Y55288D01*
Y55282D01*
Y55275D01*
Y55233D01*
X129848Y55164D01*
X129862Y55080D01*
X129875Y54983D01*
X129903Y54872D01*
X129945Y54755D01*
X129993Y54637D01*
X130000Y54623D01*
X130021Y54588D01*
X130063Y54526D01*
X130111Y54456D01*
X130181Y54380D01*
X130257Y54304D01*
X130354Y54221D01*
X130465Y54151D01*
X130472D01*
X130479Y54144D01*
X130520Y54124D01*
X130583Y54096D01*
X130673Y54068D01*
X130770Y54040D01*
X130888Y54012D01*
X131013Y53992D01*
X131144Y53985D01*
X131200D01*
X131242Y53992D01*
X131290Y53999D01*
X131346Y54006D01*
X131477Y54033D01*
X131623Y54075D01*
X131782Y54137D01*
X131859Y54179D01*
X131935Y54227D01*
X132011Y54283D01*
X132081Y54345D01*
X132087Y54352D01*
X132094Y54359D01*
X132115Y54380D01*
X132136Y54408D01*
X132164Y54449D01*
X132198Y54491D01*
X132233Y54539D01*
X132268Y54595D01*
X132330Y54727D01*
X132393Y54886D01*
X132434Y55060D01*
X132441Y55157D01*
X132448Y55261D01*
Y55268D01*
Y55288D01*
Y55316D01*
X132441Y55358D01*
X132434Y55406D01*
X132427Y55462D01*
X132400Y55594D01*
X132358Y55739D01*
X132289Y55899D01*
X132247Y55975D01*
X132191Y56051D01*
X132136Y56128D01*
X132067Y56197D01*
X132060Y56204D01*
X132053Y56211D01*
X132032Y56231D01*
X131997Y56252D01*
X131963Y56287D01*
X131921Y56315D01*
X131866Y56349D01*
X131810Y56384D01*
X131671Y56453D01*
X131512Y56516D01*
X131325Y56557D01*
X131228Y56564D01*
X131124Y56571D01*
D02*
G37*
G36*
X109263Y339322D02*
X107349D01*
X107300Y339315D01*
X107245D01*
X107113Y339308D01*
X106967Y339294D01*
X106815Y339273D01*
X106669Y339246D01*
X106538Y339204D01*
X106531D01*
X106524Y339197D01*
X106482Y339183D01*
X106427Y339156D01*
X106350Y339114D01*
X106274Y339059D01*
X106191Y338996D01*
X106108Y338913D01*
X106038Y338823D01*
X106031Y338809D01*
X106011Y338774D01*
X105983Y338726D01*
X105948Y338649D01*
X105920Y338566D01*
X105893Y338469D01*
X105872Y338358D01*
X105865Y338247D01*
Y338240D01*
Y338227D01*
Y338206D01*
X105872Y338171D01*
Y338136D01*
X105879Y338088D01*
X105907Y337984D01*
X105948Y337866D01*
X106004Y337741D01*
X106087Y337623D01*
X106142Y337561D01*
X106198Y337505D01*
X106205Y337498D01*
X106212Y337491D01*
X106233Y337478D01*
X106260Y337457D01*
X106295Y337436D01*
X106343Y337408D01*
X106392Y337380D01*
X106454Y337353D01*
X106524Y337325D01*
X106600Y337304D01*
X106683Y337276D01*
X106773Y337256D01*
X106877Y337235D01*
X106988Y337221D01*
X107106Y337207D01*
X109263D01*
Y339322D01*
D02*
G37*
G36*
X103480Y340647D02*
X101462D01*
Y337762D01*
X103480Y340647D01*
D02*
G37*
G36*
X110026Y318898D02*
X108112D01*
X108063Y318891D01*
X108008D01*
X107876Y318884D01*
X107730Y318870D01*
X107578Y318850D01*
X107432Y318822D01*
X107300Y318780D01*
X107294D01*
X107287Y318773D01*
X107245Y318759D01*
X107190Y318732D01*
X107113Y318690D01*
X107037Y318634D01*
X106954Y318572D01*
X106870Y318489D01*
X106801Y318399D01*
X106794Y318385D01*
X106773Y318350D01*
X106746Y318302D01*
X106711Y318225D01*
X106683Y318142D01*
X106656Y318045D01*
X106635Y317934D01*
X106628Y317823D01*
Y317816D01*
Y317802D01*
Y317782D01*
X106635Y317747D01*
Y317712D01*
X106642Y317664D01*
X106669Y317560D01*
X106711Y317442D01*
X106767Y317317D01*
X106850Y317199D01*
X106905Y317137D01*
X106961Y317081D01*
X106968Y317074D01*
X106974Y317067D01*
X106995Y317054D01*
X107023Y317033D01*
X107058Y317012D01*
X107106Y316984D01*
X107155Y316956D01*
X107217Y316929D01*
X107287Y316901D01*
X107363Y316880D01*
X107446Y316852D01*
X107536Y316832D01*
X107640Y316811D01*
X107751Y316797D01*
X107869Y316783D01*
X110026D01*
Y318898D01*
D02*
G37*
G36*
X274310Y383722D02*
X272293D01*
Y380838D01*
X274310Y383722D01*
D02*
G37*
G36*
X171826Y333764D02*
X171777D01*
X171736Y333757D01*
X171694Y333750D01*
X171639Y333743D01*
X171514Y333716D01*
X171368Y333667D01*
X171216Y333598D01*
X171140Y333556D01*
X171063Y333507D01*
X170987Y333445D01*
X170918Y333376D01*
X170911Y333369D01*
X170904Y333355D01*
X170883Y333334D01*
X170862Y333306D01*
X170835Y333272D01*
X170800Y333223D01*
X170765Y333168D01*
X170737Y333105D01*
X170703Y333043D01*
X170668Y332967D01*
X170606Y332793D01*
X170564Y332599D01*
X170557Y332488D01*
X170550Y332377D01*
Y332370D01*
Y332356D01*
Y332336D01*
Y332308D01*
X170557Y332273D01*
Y332232D01*
X170571Y332128D01*
X170592Y332010D01*
X170620Y331878D01*
X170661Y331739D01*
X170717Y331601D01*
Y331594D01*
X170723Y331587D01*
X170737Y331566D01*
X170751Y331538D01*
X170786Y331476D01*
X170841Y331393D01*
X170911Y331302D01*
X170994Y331212D01*
X171084Y331122D01*
X171195Y331039D01*
X171202D01*
X171209Y331032D01*
X171250Y331011D01*
X171313Y330976D01*
X171396Y330942D01*
X171493Y330907D01*
X171604Y330872D01*
X171729Y330852D01*
X171854Y330845D01*
X171902D01*
X171937Y330852D01*
X171985Y330859D01*
X172034Y330866D01*
X172152Y330893D01*
X172284Y330942D01*
X172360Y330976D01*
X172429Y331011D01*
X172506Y331060D01*
X172575Y331108D01*
X172644Y331171D01*
X172714Y331240D01*
X172721Y331247D01*
X172728Y331261D01*
X172748Y331282D01*
X172769Y331316D01*
X172797Y331358D01*
X172825Y331406D01*
X172859Y331462D01*
X172894Y331531D01*
X172929Y331601D01*
X172963Y331684D01*
X172991Y331774D01*
X173019Y331871D01*
X173039Y331975D01*
X173060Y332093D01*
X173067Y332211D01*
X173074Y332336D01*
Y332342D01*
Y332363D01*
Y332398D01*
X173067Y332447D01*
X173060Y332502D01*
X173053Y332564D01*
X173046Y332634D01*
X173033Y332710D01*
X172991Y332877D01*
X172929Y333050D01*
X172887Y333140D01*
X172838Y333223D01*
X172783Y333299D01*
X172721Y333376D01*
X172714Y333383D01*
X172707Y333390D01*
X172686Y333410D01*
X172658Y333438D01*
X172624Y333466D01*
X172582Y333501D01*
X172478Y333570D01*
X172346Y333639D01*
X172194Y333702D01*
X172020Y333750D01*
X171923Y333757D01*
X171826Y333764D01*
D02*
G37*
G36*
X67262Y250614D02*
X62373D01*
Y249144D01*
X62380Y249088D01*
Y249026D01*
X62387Y248887D01*
X62401Y248728D01*
X62422Y248561D01*
X62450Y248402D01*
X62484Y248256D01*
Y248249D01*
X62491Y248242D01*
X62498Y248222D01*
X62505Y248194D01*
X62533Y248132D01*
X62568Y248048D01*
X62616Y247958D01*
X62672Y247861D01*
X62741Y247764D01*
X62817Y247681D01*
X62824Y247674D01*
X62831Y247667D01*
X62873Y247632D01*
X62942Y247577D01*
X63032Y247507D01*
X63150Y247438D01*
X63289Y247362D01*
X63448Y247286D01*
X63629Y247216D01*
X63635D01*
X63649Y247209D01*
X63677Y247202D01*
X63719Y247188D01*
X63767Y247175D01*
X63830Y247161D01*
X63899Y247147D01*
X63975Y247126D01*
X64058Y247112D01*
X64156Y247098D01*
X64253Y247085D01*
X64363Y247071D01*
X64599Y247050D01*
X64863Y247043D01*
X64877D01*
X64904D01*
X64960D01*
X65029Y247050D01*
X65112D01*
X65209Y247057D01*
X65314Y247071D01*
X65431Y247085D01*
X65681Y247126D01*
X65938Y247182D01*
X66180Y247265D01*
X66298Y247320D01*
X66402Y247376D01*
X66409Y247383D01*
X66423Y247390D01*
X66451Y247410D01*
X66492Y247438D01*
X66534Y247466D01*
X66582Y247507D01*
X66693Y247598D01*
X66818Y247715D01*
X66936Y247854D01*
X67047Y248007D01*
X67089Y248090D01*
X67130Y248180D01*
Y248187D01*
X67137Y248194D01*
X67144Y248215D01*
X67151Y248242D01*
X67158Y248284D01*
X67172Y248326D01*
X67186Y248381D01*
X67200Y248444D01*
X67207Y248513D01*
X67220Y248596D01*
X67234Y248686D01*
X67241Y248783D01*
X67248Y248894D01*
X67255Y249012D01*
X67262Y249137D01*
Y250614D01*
D02*
G37*
G36*
X69304Y296334D02*
X67189D01*
Y294420D01*
X67196Y294372D01*
Y294316D01*
X67203Y294184D01*
X67217Y294039D01*
X67237Y293886D01*
X67265Y293741D01*
X67307Y293609D01*
Y293602D01*
X67314Y293595D01*
X67328Y293554D01*
X67355Y293498D01*
X67397Y293422D01*
X67452Y293346D01*
X67515Y293262D01*
X67598Y293179D01*
X67688Y293110D01*
X67702Y293103D01*
X67737Y293082D01*
X67785Y293054D01*
X67861Y293020D01*
X67945Y292992D01*
X68042Y292964D01*
X68153Y292943D01*
X68264Y292936D01*
X68271D01*
X68285D01*
X68305D01*
X68340Y292943D01*
X68375D01*
X68423Y292950D01*
X68527Y292978D01*
X68645Y293020D01*
X68770Y293075D01*
X68888Y293158D01*
X68950Y293214D01*
X69006Y293269D01*
X69013Y293276D01*
X69019Y293283D01*
X69033Y293304D01*
X69054Y293332D01*
X69075Y293366D01*
X69103Y293415D01*
X69130Y293463D01*
X69158Y293526D01*
X69186Y293595D01*
X69207Y293671D01*
X69234Y293755D01*
X69255Y293845D01*
X69276Y293949D01*
X69290Y294060D01*
X69304Y294178D01*
Y296334D01*
D02*
G37*
%LPD*%
D11*
X198620Y23590D02*
Y83090D01*
Y23590D02*
X324620D01*
Y83090D01*
X198620D02*
X324620D01*
X61460Y23590D02*
Y83090D01*
Y23590D02*
X187460D01*
Y83090D01*
X61460D02*
X187460D01*
X5980Y221080D02*
X65480D01*
X5980Y95080D02*
Y221080D01*
Y95080D02*
X65480D01*
Y221080D01*
X123650Y334900D02*
Y350900D01*
X96567D02*
X123650D01*
X96567Y334900D02*
Y350900D01*
Y334900D02*
X123650D01*
X197820Y356160D02*
Y415660D01*
X71820D02*
X197820D01*
X71820Y356160D02*
Y415660D01*
Y356160D02*
X197820D01*
X124413Y314580D02*
Y330580D01*
X97330D02*
X124413D01*
X97330Y314580D02*
Y330580D01*
Y314580D02*
X124413D01*
X342400Y356330D02*
Y415830D01*
X216400D02*
X342400D01*
X216400Y356330D02*
Y415830D01*
Y356330D02*
X342400D01*
X136800Y315850D02*
Y344550D01*
Y315850D02*
X193400D01*
Y344550D01*
X136800D02*
X193400D01*
X333040Y23760D02*
Y83260D01*
Y23760D02*
X459040D01*
Y83260D01*
X333040D02*
X459040D01*
X55750Y270460D02*
X71250D01*
X55750Y232460D02*
Y270460D01*
Y232460D02*
X71250D01*
Y270460D01*
X55500Y310721D02*
X71500D01*
X55500Y283639D02*
Y310721D01*
Y283639D02*
X71500D01*
Y310721D01*
X505960Y356330D02*
X631960D01*
X505960D02*
Y415830D01*
X631960D01*
Y356330D02*
Y415830D01*
X358640Y356330D02*
X484640D01*
X358640D02*
Y415830D01*
X484640D01*
Y356330D02*
Y415830D01*
M02*
