G04*
G04 #@! TF.GenerationSoftware,Altium Limited,Altium Designer,22.10.1 (41)*
G04*
G04 Layer_Physical_Order=1*
G04 Layer_Color=255*
%FSLAX44Y44*%
%MOMM*%
G71*
G04*
G04 #@! TF.SameCoordinates,F6035E9F-F1FD-4C6C-B8EA-126E05AD2449*
G04*
G04*
G04 #@! TF.FilePolarity,Positive*
G04*
G01*
G75*
%ADD13R,0.8065X1.3082*%
%ADD14R,1.1000X1.2500*%
%ADD15R,1.3082X0.8065*%
%ADD16R,1.1000X1.3500*%
%ADD18R,1.4000X1.4000*%
%ADD19C,1.4000*%
%ADD20R,1.4000X1.4000*%
%ADD25C,1.5700*%
%ADD26R,1.5700X1.5700*%
%ADD30C,0.3810*%
%ADD31C,0.3048*%
%ADD32C,0.4064*%
%ADD33C,1.6650*%
%ADD34C,1.7000*%
%ADD35R,1.7000X1.7000*%
%ADD36C,2.0320*%
%ADD37C,0.4064*%
%ADD38C,0.7620*%
G36*
X707316Y3884D02*
X3884D01*
Y415215D01*
X707316D01*
Y3884D01*
D02*
G37*
%LPC*%
G36*
X539984Y399854D02*
X532476D01*
Y392346D01*
X539984D01*
Y399854D01*
D02*
G37*
G36*
X435263D02*
X435156D01*
Y392346D01*
X442664D01*
Y392452D01*
X442083Y394620D01*
X440961Y396564D01*
X439374Y398151D01*
X437430Y399273D01*
X435263Y399854D01*
D02*
G37*
G36*
X392664D02*
X385156D01*
Y392346D01*
X392664D01*
Y399854D01*
D02*
G37*
G36*
X250424D02*
X242916D01*
Y392346D01*
X250424D01*
Y399854D01*
D02*
G37*
G36*
X582582D02*
X582476D01*
Y392346D01*
X589984D01*
Y392452D01*
X589403Y394620D01*
X588281Y396564D01*
X586694Y398151D01*
X584750Y399273D01*
X582582Y399854D01*
D02*
G37*
G36*
X293023D02*
X292916D01*
Y392346D01*
X300424D01*
Y392452D01*
X299843Y394620D01*
X298721Y396564D01*
X297134Y398151D01*
X295191Y399273D01*
X293023Y399854D01*
D02*
G37*
G36*
X530444D02*
X522936D01*
Y392346D01*
X530444D01*
Y399854D01*
D02*
G37*
G36*
X433124D02*
X433018D01*
X430850Y399273D01*
X428907Y398151D01*
X427319Y396564D01*
X426197Y394620D01*
X425616Y392452D01*
Y392346D01*
X433124D01*
Y399854D01*
D02*
G37*
G36*
X240884D02*
X233376D01*
Y392346D01*
X240884D01*
Y399854D01*
D02*
G37*
G36*
X580444D02*
X580338D01*
X578170Y399273D01*
X576226Y398151D01*
X574639Y396564D01*
X573517Y394620D01*
X572936Y392452D01*
Y392346D01*
X580444D01*
Y399854D01*
D02*
G37*
G36*
X383124D02*
X375616D01*
Y392346D01*
X383124D01*
Y399854D01*
D02*
G37*
G36*
X290884D02*
X290778D01*
X288610Y399273D01*
X286667Y398151D01*
X285079Y396564D01*
X283957Y394620D01*
X283376Y392452D01*
Y392346D01*
X290884D01*
Y399854D01*
D02*
G37*
G36*
X590628Y410270D02*
X518922D01*
X517733Y410033D01*
X516725Y409360D01*
X403204Y295839D01*
X402582Y296198D01*
X400077Y296869D01*
X397483D01*
X394978Y296198D01*
X392733Y294901D01*
X390899Y293067D01*
X389602Y290822D01*
X388931Y288317D01*
Y285723D01*
X389602Y283218D01*
X390899Y280973D01*
X392733Y279139D01*
X394978Y277842D01*
X397483Y277171D01*
X400077D01*
X402582Y277842D01*
X404827Y279139D01*
X406661Y280973D01*
X407958Y283218D01*
X408629Y285723D01*
Y288317D01*
X407958Y290822D01*
X407599Y291444D01*
X520209Y404054D01*
X589341D01*
X598611Y394784D01*
X598517Y394620D01*
X597936Y392452D01*
Y390208D01*
X598517Y388040D01*
X599639Y386096D01*
X601226Y384509D01*
X603170Y383387D01*
X605338Y382806D01*
X607582D01*
X609750Y383387D01*
X611694Y384509D01*
X613281Y386096D01*
X614403Y388040D01*
X614984Y390208D01*
Y392452D01*
X614403Y394620D01*
X613281Y396564D01*
X611694Y398151D01*
X609750Y399273D01*
X607582Y399854D01*
X605338D01*
X603170Y399273D01*
X603006Y399179D01*
X592826Y409360D01*
X591818Y410033D01*
X590628Y410270D01*
D02*
G37*
G36*
X589984Y390314D02*
X582476D01*
Y382806D01*
X582582D01*
X584750Y383387D01*
X586694Y384509D01*
X588281Y386096D01*
X589403Y388040D01*
X589984Y390208D01*
Y390314D01*
D02*
G37*
G36*
X580444D02*
X572936D01*
Y390208D01*
X573517Y388040D01*
X574639Y386096D01*
X576226Y384509D01*
X578170Y383387D01*
X580338Y382806D01*
X580444D01*
Y390314D01*
D02*
G37*
G36*
X557582Y399854D02*
X555338D01*
X553170Y399273D01*
X551226Y398151D01*
X549639Y396564D01*
X548517Y394620D01*
X547936Y392452D01*
Y390208D01*
X548517Y388040D01*
X549639Y386096D01*
X551226Y384509D01*
X553170Y383387D01*
X555338Y382806D01*
X557582D01*
X559750Y383387D01*
X561694Y384509D01*
X563281Y386096D01*
X564403Y388040D01*
X564984Y390208D01*
Y392452D01*
X564403Y394620D01*
X563281Y396564D01*
X561694Y398151D01*
X559750Y399273D01*
X557582Y399854D01*
D02*
G37*
G36*
X539984Y390314D02*
X532476D01*
Y382806D01*
X539984D01*
Y390314D01*
D02*
G37*
G36*
X530444D02*
X522936D01*
Y382806D01*
X530444D01*
Y390314D01*
D02*
G37*
G36*
X460262Y399854D02*
X458018D01*
X455850Y399273D01*
X453906Y398151D01*
X452319Y396564D01*
X451197Y394620D01*
X450616Y392452D01*
Y390208D01*
X451197Y388040D01*
X452319Y386096D01*
X453906Y384509D01*
X455850Y383387D01*
X458018Y382806D01*
X460262D01*
X462430Y383387D01*
X464374Y384509D01*
X465961Y386096D01*
X467083Y388040D01*
X467664Y390208D01*
Y392452D01*
X467083Y394620D01*
X465961Y396564D01*
X464374Y398151D01*
X462430Y399273D01*
X460262Y399854D01*
D02*
G37*
G36*
X442664Y390314D02*
X435156D01*
Y382806D01*
X435263D01*
X437430Y383387D01*
X439374Y384509D01*
X440961Y386096D01*
X442083Y388040D01*
X442664Y390208D01*
Y390314D01*
D02*
G37*
G36*
X433124D02*
X425616D01*
Y390208D01*
X426197Y388040D01*
X427319Y386096D01*
X428907Y384509D01*
X430850Y383387D01*
X433018Y382806D01*
X433124D01*
Y390314D01*
D02*
G37*
G36*
X392664D02*
X385156D01*
Y382806D01*
X392664D01*
Y390314D01*
D02*
G37*
G36*
X383124D02*
X375616D01*
Y382806D01*
X383124D01*
Y390314D01*
D02*
G37*
G36*
X300424D02*
X292916D01*
Y382806D01*
X293023D01*
X295191Y383387D01*
X297134Y384509D01*
X298721Y386096D01*
X299843Y388040D01*
X300424Y390208D01*
Y390314D01*
D02*
G37*
G36*
X290884D02*
X283376D01*
Y390208D01*
X283957Y388040D01*
X285079Y386096D01*
X286667Y384509D01*
X288610Y383387D01*
X290778Y382806D01*
X290884D01*
Y390314D01*
D02*
G37*
G36*
X250424D02*
X242916D01*
Y382806D01*
X250424D01*
Y390314D01*
D02*
G37*
G36*
X240884D02*
X233376D01*
Y382806D01*
X240884D01*
Y390314D01*
D02*
G37*
G36*
X173442Y399684D02*
X171197D01*
X169030Y399103D01*
X167086Y397981D01*
X165499Y396394D01*
X164377Y394450D01*
X163796Y392282D01*
Y390038D01*
X164377Y387870D01*
X165499Y385926D01*
X167086Y384339D01*
X169030Y383217D01*
X171197Y382636D01*
X173442D01*
X175610Y383217D01*
X177554Y384339D01*
X179141Y385926D01*
X180263Y387870D01*
X180844Y390038D01*
Y392282D01*
X180263Y394450D01*
X179141Y396394D01*
X177554Y397981D01*
X175610Y399103D01*
X173442Y399684D01*
D02*
G37*
G36*
X674727Y397524D02*
X671472D01*
X668280Y396889D01*
X665273Y395643D01*
X662567Y393835D01*
X660265Y391533D01*
X658457Y388827D01*
X657211Y385820D01*
X656576Y382627D01*
Y379372D01*
X657211Y376180D01*
X658457Y373173D01*
X660265Y370467D01*
X662567Y368165D01*
X665273Y366357D01*
X668280Y365111D01*
X671472Y364476D01*
X674727D01*
X677920Y365111D01*
X680927Y366357D01*
X683633Y368165D01*
X685935Y370467D01*
X687743Y373173D01*
X688989Y376180D01*
X689624Y379372D01*
Y382627D01*
X688989Y385820D01*
X687743Y388827D01*
X685935Y391533D01*
X683633Y393835D01*
X680927Y395643D01*
X677920Y396889D01*
X674727Y397524D01*
D02*
G37*
G36*
X39727D02*
X36472D01*
X33280Y396889D01*
X30273Y395643D01*
X27567Y393835D01*
X25265Y391533D01*
X23457Y388827D01*
X22211Y385820D01*
X21576Y382627D01*
Y379372D01*
X22211Y376180D01*
X23457Y373173D01*
X25265Y370467D01*
X27567Y368165D01*
X30273Y366357D01*
X33280Y365111D01*
X36472Y364476D01*
X39727D01*
X42920Y365111D01*
X45927Y366357D01*
X48633Y368165D01*
X50935Y370467D01*
X52743Y373173D01*
X53989Y376180D01*
X54624Y379372D01*
Y382627D01*
X53989Y385820D01*
X52743Y388827D01*
X50935Y391533D01*
X48633Y393835D01*
X45927Y395643D01*
X42920Y396889D01*
X39727Y397524D01*
D02*
G37*
G36*
X92764Y351174D02*
X86756D01*
Y343916D01*
X92764D01*
Y351174D01*
D02*
G37*
G36*
X529858Y341884D02*
X529336D01*
Y331216D01*
X540004D01*
Y331738D01*
X539208Y334710D01*
X537669Y337374D01*
X535494Y339549D01*
X532830Y341088D01*
X529858Y341884D01*
D02*
G37*
G36*
X527304D02*
X526782D01*
X523810Y341088D01*
X521146Y339549D01*
X518970Y337374D01*
X517432Y334710D01*
X516636Y331738D01*
Y331216D01*
X527304D01*
Y341884D01*
D02*
G37*
G36*
X120396Y330645D02*
Y323596D01*
X124937D01*
Y330645D01*
X120396D01*
D02*
G37*
G36*
X179034Y339574D02*
X176566D01*
X174182Y338935D01*
X172044Y337701D01*
X170299Y335956D01*
X169065Y333818D01*
X168426Y331434D01*
Y328966D01*
X169065Y326582D01*
X170299Y324444D01*
X172044Y322699D01*
X174182Y321465D01*
X176566Y320826D01*
X179034D01*
X181418Y321465D01*
X183556Y322699D01*
X185301Y324444D01*
X186535Y326582D01*
X187174Y328966D01*
Y331434D01*
X186535Y333818D01*
X185301Y335956D01*
X183556Y337701D01*
X181418Y338935D01*
X179034Y339574D01*
D02*
G37*
G36*
X148442Y399684D02*
X146198D01*
X144030Y399103D01*
X142086Y397981D01*
X140499Y396394D01*
X139377Y394450D01*
X138796Y392282D01*
Y390038D01*
X139377Y387870D01*
X140499Y385926D01*
X142086Y384339D01*
X144030Y383217D01*
X146198Y382636D01*
X148442D01*
X149292Y381984D01*
Y339574D01*
X143026D01*
Y320826D01*
X161774D01*
Y339574D01*
X155508D01*
Y386080D01*
X155271Y387269D01*
X155081Y387554D01*
X155263Y387870D01*
X155844Y390038D01*
Y392282D01*
X155263Y394450D01*
X154141Y396394D01*
X152554Y397981D01*
X150610Y399103D01*
X148442Y399684D01*
D02*
G37*
G36*
X631458Y341884D02*
X628382D01*
X625410Y341088D01*
X622746Y339549D01*
X620570Y337374D01*
X619032Y334710D01*
X618236Y331738D01*
Y328662D01*
X619032Y325690D01*
X620570Y323026D01*
X622746Y320850D01*
X625410Y319312D01*
X628382Y318516D01*
X631458D01*
X634430Y319312D01*
X637094Y320850D01*
X639269Y323026D01*
X640808Y325690D01*
X641604Y328662D01*
Y331738D01*
X640808Y334710D01*
X639269Y337374D01*
X637094Y339549D01*
X634430Y341088D01*
X631458Y341884D01*
D02*
G37*
G36*
X580658D02*
X577582D01*
X574610Y341088D01*
X571946Y339549D01*
X569771Y337374D01*
X568232Y334710D01*
X567436Y331738D01*
Y328662D01*
X568232Y325690D01*
X569771Y323026D01*
X571946Y320850D01*
X574610Y319312D01*
X577582Y318516D01*
X580658D01*
X583630Y319312D01*
X586294Y320850D01*
X588470Y323026D01*
X590008Y325690D01*
X590804Y328662D01*
Y331738D01*
X590008Y334710D01*
X588470Y337374D01*
X586294Y339549D01*
X583630Y341088D01*
X580658Y341884D01*
D02*
G37*
G36*
X555258D02*
X552182D01*
X549210Y341088D01*
X546546Y339549D01*
X544370Y337374D01*
X542832Y334710D01*
X542036Y331738D01*
Y328662D01*
X542832Y325690D01*
X544370Y323026D01*
X546546Y320850D01*
X549210Y319312D01*
X552182Y318516D01*
X555258D01*
X558230Y319312D01*
X560894Y320850D01*
X563069Y323026D01*
X564608Y325690D01*
X565404Y328662D01*
Y331738D01*
X564608Y334710D01*
X563069Y337374D01*
X560894Y339549D01*
X558230Y341088D01*
X555258Y341884D01*
D02*
G37*
G36*
X540004Y329184D02*
X529336D01*
Y318516D01*
X529858D01*
X532830Y319312D01*
X535494Y320850D01*
X537669Y323026D01*
X539208Y325690D01*
X540004Y328662D01*
Y329184D01*
D02*
G37*
G36*
X527304D02*
X516636D01*
Y328662D01*
X517432Y325690D01*
X518970Y323026D01*
X521146Y320850D01*
X523810Y319312D01*
X526782Y318516D01*
X527304D01*
Y329184D01*
D02*
G37*
G36*
X124937Y321564D02*
X120396D01*
Y314515D01*
X124937D01*
Y321564D01*
D02*
G37*
G36*
X410262Y399854D02*
X408018D01*
X405850Y399273D01*
X403906Y398151D01*
X402319Y396564D01*
X401197Y394620D01*
X400616Y392452D01*
Y390208D01*
X401197Y388040D01*
X402319Y386096D01*
X403906Y384509D01*
X405850Y383387D01*
X406032Y383338D01*
Y374867D01*
X327004Y295839D01*
X326382Y296198D01*
X323877Y296869D01*
X321283D01*
X318778Y296198D01*
X316533Y294901D01*
X314699Y293067D01*
X313402Y290822D01*
X312731Y288317D01*
Y285723D01*
X313402Y283218D01*
X314699Y280973D01*
X316533Y279139D01*
X318778Y277842D01*
X321283Y277171D01*
X323877D01*
X326382Y277842D01*
X328627Y279139D01*
X330461Y280973D01*
X331758Y283218D01*
X332429Y285723D01*
Y288317D01*
X331758Y290822D01*
X331399Y291444D01*
X411338Y371383D01*
X412011Y372391D01*
X412248Y373580D01*
Y383338D01*
X412430Y383387D01*
X414374Y384509D01*
X415961Y386096D01*
X417083Y388040D01*
X417664Y390208D01*
Y392452D01*
X417083Y394620D01*
X415961Y396564D01*
X414374Y398151D01*
X412430Y399273D01*
X410262Y399854D01*
D02*
G37*
G36*
X318022D02*
X315778D01*
X313610Y399273D01*
X311666Y398151D01*
X310079Y396564D01*
X308957Y394620D01*
X308376Y392452D01*
Y390208D01*
X308957Y388040D01*
X310079Y386096D01*
X311666Y384509D01*
X313610Y383387D01*
X313792Y383338D01*
Y308027D01*
X301604Y295839D01*
X300982Y296198D01*
X298477Y296869D01*
X295883D01*
X293378Y296198D01*
X291133Y294901D01*
X289299Y293067D01*
X288002Y290822D01*
X287331Y288317D01*
Y285723D01*
X288002Y283218D01*
X289299Y280973D01*
X290797Y279474D01*
X290844Y279427D01*
X290063Y278475D01*
X290063Y278475D01*
X290063Y278475D01*
X288911Y278703D01*
X288614Y278762D01*
X279247D01*
X278721Y280032D01*
X279661Y280973D01*
X280958Y283218D01*
X281629Y285723D01*
Y288317D01*
X280958Y290822D01*
X279661Y293067D01*
X277827Y294901D01*
X275582Y296198D01*
X274888Y296384D01*
Y339090D01*
X274651Y340279D01*
X273978Y341287D01*
X270008Y345257D01*
Y383338D01*
X270190Y383387D01*
X272134Y384509D01*
X273721Y386096D01*
X274843Y388040D01*
X275424Y390208D01*
Y392452D01*
X274843Y394620D01*
X273721Y396564D01*
X272134Y398151D01*
X270190Y399273D01*
X268022Y399854D01*
X265778D01*
X263610Y399273D01*
X261666Y398151D01*
X260079Y396564D01*
X258957Y394620D01*
X258376Y392452D01*
Y390208D01*
X258957Y388040D01*
X260079Y386096D01*
X261666Y384509D01*
X263610Y383387D01*
X263792Y383338D01*
Y343970D01*
X264029Y342781D01*
X264703Y341772D01*
X268672Y337803D01*
Y296384D01*
X267978Y296198D01*
X265733Y294901D01*
X263899Y293067D01*
X262602Y290822D01*
X262034Y288700D01*
X260767Y288170D01*
X260266Y288671D01*
X259132Y289429D01*
X257794Y289695D01*
X255860D01*
X255558Y290822D01*
X254261Y293067D01*
X252427Y294901D01*
X250182Y296198D01*
X247677Y296869D01*
X245083D01*
X242578Y296198D01*
X240333Y294901D01*
X238499Y293067D01*
X237202Y290822D01*
X236531Y288317D01*
Y285723D01*
X237202Y283218D01*
X238499Y280973D01*
X240333Y279139D01*
X242578Y277842D01*
X245083Y277171D01*
X247677D01*
X250182Y277842D01*
X252427Y279139D01*
X254261Y280973D01*
X255153Y282517D01*
X255263Y282526D01*
X256530Y282151D01*
X256796Y280813D01*
X257554Y279679D01*
X264439Y272794D01*
X265573Y272036D01*
X266911Y271770D01*
X266912Y271770D01*
X287166D01*
X386148Y172788D01*
X387282Y172030D01*
X388620Y171764D01*
X388620Y171764D01*
X417593D01*
X418619Y170738D01*
X420579Y169926D01*
X422701D01*
X424661Y170738D01*
X426162Y172239D01*
X426974Y174199D01*
Y176321D01*
X426162Y178281D01*
X424661Y179782D01*
X422701Y180594D01*
X420579D01*
X418619Y179782D01*
X417593Y178756D01*
X414019D01*
X413531Y180026D01*
X414274Y181819D01*
Y183941D01*
X413462Y185902D01*
X412048Y187316D01*
Y270493D01*
X419756Y278201D01*
X420378Y277842D01*
X422883Y277171D01*
X425477D01*
X427982Y277842D01*
X430227Y279139D01*
X432061Y280973D01*
X433358Y283218D01*
X434029Y285723D01*
Y288317D01*
X433358Y290822D01*
X432061Y293067D01*
X430227Y294901D01*
X427982Y296198D01*
X425477Y296869D01*
X422883D01*
X420378Y296198D01*
X418133Y294901D01*
X416299Y293067D01*
X415002Y290822D01*
X414331Y288317D01*
Y285723D01*
X415002Y283218D01*
X415361Y282596D01*
X406743Y273978D01*
X406069Y272969D01*
X405832Y271780D01*
Y187316D01*
X404418Y185902D01*
X403606Y183941D01*
Y181819D01*
X404349Y180026D01*
X403861Y178756D01*
X390068D01*
X291094Y277730D01*
X291086Y277738D01*
X291831Y278736D01*
X291856Y278721D01*
X293378Y277842D01*
X295883Y277171D01*
X298477D01*
X300982Y277842D01*
X303227Y279139D01*
X305061Y280973D01*
X306358Y283218D01*
X307029Y285723D01*
Y288317D01*
X306358Y290822D01*
X305999Y291444D01*
X319097Y304543D01*
X319771Y305551D01*
X320008Y306740D01*
Y383338D01*
X320190Y383387D01*
X322134Y384509D01*
X323721Y386096D01*
X324843Y388040D01*
X325424Y390208D01*
Y392452D01*
X324843Y394620D01*
X323721Y396564D01*
X322134Y398151D01*
X320190Y399273D01*
X318022Y399854D01*
D02*
G37*
G36*
X606058Y341884D02*
X602982D01*
X600010Y341088D01*
X597346Y339549D01*
X595171Y337374D01*
X593632Y334710D01*
X592836Y331738D01*
Y328662D01*
X593632Y325690D01*
X595171Y323026D01*
X597346Y320850D01*
X600010Y319312D01*
X602982Y318516D01*
X606058D01*
X609030Y319312D01*
X610292Y318575D01*
Y294432D01*
X609022Y293906D01*
X608027Y294901D01*
X605782Y296198D01*
X603277Y296869D01*
X600683D01*
X598178Y296198D01*
X595933Y294901D01*
X594099Y293067D01*
X592802Y290822D01*
X592131Y288317D01*
Y285723D01*
X592802Y283218D01*
X594099Y280973D01*
X595933Y279139D01*
X598178Y277842D01*
X600683Y277171D01*
X603277D01*
X605782Y277842D01*
X608027Y279139D01*
X609022Y280134D01*
X610292Y279608D01*
Y198606D01*
X588032Y176346D01*
X557547D01*
X557350Y177082D01*
X557304Y177616D01*
X559061Y179373D01*
X560358Y181618D01*
X561029Y184123D01*
Y186717D01*
X560358Y189222D01*
X559061Y191467D01*
X557227Y193301D01*
X554982Y194598D01*
X552477Y195269D01*
X549883D01*
X547378Y194598D01*
X545133Y193301D01*
X543299Y191467D01*
X542002Y189222D01*
X541331Y186717D01*
Y184123D01*
X542002Y181618D01*
X543299Y179373D01*
X545056Y177616D01*
X545010Y177082D01*
X544813Y176346D01*
X487680D01*
X486292Y176070D01*
X485116Y175284D01*
X485116Y175284D01*
X453539Y143707D01*
X453382Y143798D01*
X450877Y144469D01*
X448283D01*
X445778Y143798D01*
X443533Y142501D01*
X441699Y140667D01*
X440402Y138422D01*
X439731Y135917D01*
Y133323D01*
X440402Y130818D01*
X441699Y128573D01*
X443533Y126739D01*
X445778Y125442D01*
X448283Y124771D01*
X450877D01*
X453382Y125442D01*
X455627Y126739D01*
X457461Y128573D01*
X458758Y130818D01*
X459429Y133323D01*
Y135917D01*
X458758Y138422D01*
X458667Y138579D01*
X489182Y169094D01*
X544813D01*
X545010Y168358D01*
X545056Y167824D01*
X543299Y166067D01*
X542002Y163822D01*
X541331Y161317D01*
Y158723D01*
X542002Y156218D01*
X543299Y153973D01*
X545133Y152139D01*
X547378Y150842D01*
X549883Y150171D01*
X552477D01*
X554982Y150842D01*
X557227Y152139D01*
X559061Y153973D01*
X560358Y156218D01*
X561029Y158723D01*
Y161317D01*
X560358Y163822D01*
X559061Y166067D01*
X557304Y167824D01*
X557350Y168358D01*
X557547Y169094D01*
X589534D01*
X589534Y169094D01*
X590922Y169370D01*
X592098Y170156D01*
X616482Y194540D01*
X617268Y195716D01*
X617544Y197104D01*
X617544Y197104D01*
Y281819D01*
X618814Y282159D01*
X619499Y280973D01*
X621333Y279139D01*
X623578Y277842D01*
X626083Y277171D01*
X628677D01*
X631182Y277842D01*
X633427Y279139D01*
X635261Y280973D01*
X636558Y283218D01*
X637229Y285723D01*
Y288317D01*
X636558Y290822D01*
X635261Y293067D01*
X633427Y294901D01*
X631182Y296198D01*
X628677Y296869D01*
X626083D01*
X623578Y296198D01*
X621333Y294901D01*
X619499Y293067D01*
X618814Y291881D01*
X617544Y292221D01*
Y320802D01*
X617544Y320802D01*
X617268Y322189D01*
X616482Y323366D01*
X614950Y324897D01*
X615408Y325690D01*
X616204Y328662D01*
Y331738D01*
X615408Y334710D01*
X613870Y337374D01*
X611694Y339549D01*
X609030Y341088D01*
X606058Y341884D01*
D02*
G37*
G36*
X450877Y296869D02*
X450596D01*
Y288036D01*
X459429D01*
Y288317D01*
X458758Y290822D01*
X457461Y293067D01*
X455627Y294901D01*
X453382Y296198D01*
X450877Y296869D01*
D02*
G37*
G36*
X448564D02*
X448283D01*
X445778Y296198D01*
X443533Y294901D01*
X441699Y293067D01*
X440402Y290822D01*
X439731Y288317D01*
Y288036D01*
X448564D01*
Y296869D01*
D02*
G37*
G36*
X120677D02*
X120396D01*
Y288036D01*
X129229D01*
Y288317D01*
X128558Y290822D01*
X127261Y293067D01*
X125427Y294901D01*
X123182Y296198D01*
X120677Y296869D01*
D02*
G37*
G36*
X118364D02*
X118083D01*
X115578Y296198D01*
X113333Y294901D01*
X111499Y293067D01*
X110202Y290822D01*
X109531Y288317D01*
Y288036D01*
X118364D01*
Y296869D01*
D02*
G37*
G36*
X679477D02*
X676883D01*
X674378Y296198D01*
X672133Y294901D01*
X670299Y293067D01*
X669002Y290822D01*
X668331Y288317D01*
Y285723D01*
X669002Y283218D01*
X670299Y280973D01*
X672133Y279139D01*
X674378Y277842D01*
X676883Y277171D01*
X679477D01*
X681982Y277842D01*
X684227Y279139D01*
X686061Y280973D01*
X687358Y283218D01*
X688029Y285723D01*
Y288317D01*
X687358Y290822D01*
X686061Y293067D01*
X684227Y294901D01*
X681982Y296198D01*
X679477Y296869D01*
D02*
G37*
G36*
X654077D02*
X651483D01*
X648978Y296198D01*
X646733Y294901D01*
X644899Y293067D01*
X643602Y290822D01*
X642931Y288317D01*
Y285723D01*
X643602Y283218D01*
X644899Y280973D01*
X646733Y279139D01*
X648978Y277842D01*
X651483Y277171D01*
X654077D01*
X656582Y277842D01*
X658827Y279139D01*
X660661Y280973D01*
X661958Y283218D01*
X662629Y285723D01*
Y288317D01*
X661958Y290822D01*
X660661Y293067D01*
X658827Y294901D01*
X656582Y296198D01*
X654077Y296869D01*
D02*
G37*
G36*
X577877D02*
X575283D01*
X572778Y296198D01*
X570533Y294901D01*
X568699Y293067D01*
X567402Y290822D01*
X566731Y288317D01*
Y285723D01*
X567402Y283218D01*
X568699Y280973D01*
X570533Y279139D01*
X572778Y277842D01*
X575283Y277171D01*
X577877D01*
X580382Y277842D01*
X582627Y279139D01*
X584461Y280973D01*
X585758Y283218D01*
X586429Y285723D01*
Y288317D01*
X585758Y290822D01*
X584461Y293067D01*
X582627Y294901D01*
X580382Y296198D01*
X577877Y296869D01*
D02*
G37*
G36*
X552477D02*
X549883D01*
X547378Y296198D01*
X545133Y294901D01*
X543299Y293067D01*
X542002Y290822D01*
X541331Y288317D01*
Y285723D01*
X542002Y283218D01*
X543299Y280973D01*
X545133Y279139D01*
X547378Y277842D01*
X549883Y277171D01*
X552477D01*
X554982Y277842D01*
X557227Y279139D01*
X559061Y280973D01*
X560358Y283218D01*
X561029Y285723D01*
Y288317D01*
X560358Y290822D01*
X559061Y293067D01*
X557227Y294901D01*
X554982Y296198D01*
X552477Y296869D01*
D02*
G37*
G36*
X527077D02*
X524483D01*
X521978Y296198D01*
X519733Y294901D01*
X517899Y293067D01*
X516602Y290822D01*
X515931Y288317D01*
Y285723D01*
X516602Y283218D01*
X517899Y280973D01*
X519733Y279139D01*
X521978Y277842D01*
X524483Y277171D01*
X527077D01*
X529582Y277842D01*
X531827Y279139D01*
X533661Y280973D01*
X534958Y283218D01*
X535629Y285723D01*
Y288317D01*
X534958Y290822D01*
X533661Y293067D01*
X531827Y294901D01*
X529582Y296198D01*
X527077Y296869D01*
D02*
G37*
G36*
X501677D02*
X499083D01*
X496578Y296198D01*
X494333Y294901D01*
X492499Y293067D01*
X491202Y290822D01*
X490531Y288317D01*
Y285723D01*
X491202Y283218D01*
X492499Y280973D01*
X494333Y279139D01*
X496578Y277842D01*
X499083Y277171D01*
X501677D01*
X504182Y277842D01*
X506427Y279139D01*
X508261Y280973D01*
X509558Y283218D01*
X510229Y285723D01*
Y288317D01*
X509558Y290822D01*
X508261Y293067D01*
X506427Y294901D01*
X504182Y296198D01*
X501677Y296869D01*
D02*
G37*
G36*
X476277D02*
X473683D01*
X471178Y296198D01*
X468933Y294901D01*
X467099Y293067D01*
X465802Y290822D01*
X465131Y288317D01*
Y285723D01*
X465802Y283218D01*
X467099Y280973D01*
X468933Y279139D01*
X471178Y277842D01*
X473683Y277171D01*
X476277D01*
X478782Y277842D01*
X481027Y279139D01*
X482861Y280973D01*
X484158Y283218D01*
X484829Y285723D01*
Y288317D01*
X484158Y290822D01*
X482861Y293067D01*
X481027Y294901D01*
X478782Y296198D01*
X476277Y296869D01*
D02*
G37*
G36*
X459429Y286004D02*
X450596D01*
Y277171D01*
X450877D01*
X453382Y277842D01*
X455627Y279139D01*
X457461Y280973D01*
X458758Y283218D01*
X459429Y285723D01*
Y286004D01*
D02*
G37*
G36*
X448564D02*
X439731D01*
Y285723D01*
X440402Y283218D01*
X441699Y280973D01*
X443533Y279139D01*
X445778Y277842D01*
X448283Y277171D01*
X448564D01*
Y286004D01*
D02*
G37*
G36*
X374677Y296869D02*
X372083D01*
X369578Y296198D01*
X367333Y294901D01*
X365499Y293067D01*
X364202Y290822D01*
X363531Y288317D01*
Y285723D01*
X364202Y283218D01*
X365499Y280973D01*
X367333Y279139D01*
X369578Y277842D01*
X372083Y277171D01*
X374677D01*
X377182Y277842D01*
X379427Y279139D01*
X381261Y280973D01*
X382558Y283218D01*
X383229Y285723D01*
Y288317D01*
X382558Y290822D01*
X381261Y293067D01*
X379427Y294901D01*
X377182Y296198D01*
X374677Y296869D01*
D02*
G37*
G36*
X349277D02*
X346683D01*
X344178Y296198D01*
X341933Y294901D01*
X340099Y293067D01*
X338802Y290822D01*
X338131Y288317D01*
Y285723D01*
X338802Y283218D01*
X340099Y280973D01*
X341933Y279139D01*
X344178Y277842D01*
X346683Y277171D01*
X349277D01*
X351782Y277842D01*
X354027Y279139D01*
X355861Y280973D01*
X357158Y283218D01*
X357829Y285723D01*
Y288317D01*
X357158Y290822D01*
X355861Y293067D01*
X354027Y294901D01*
X351782Y296198D01*
X349277Y296869D01*
D02*
G37*
G36*
X222277D02*
X219683D01*
X217178Y296198D01*
X214933Y294901D01*
X213099Y293067D01*
X211802Y290822D01*
X211131Y288317D01*
Y285723D01*
X211802Y283218D01*
X213099Y280973D01*
X214933Y279139D01*
X217178Y277842D01*
X219683Y277171D01*
X222277D01*
X224782Y277842D01*
X227027Y279139D01*
X228861Y280973D01*
X230158Y283218D01*
X230829Y285723D01*
Y288317D01*
X230158Y290822D01*
X228861Y293067D01*
X227027Y294901D01*
X224782Y296198D01*
X222277Y296869D01*
D02*
G37*
G36*
X196877D02*
X194283D01*
X191778Y296198D01*
X189533Y294901D01*
X187699Y293067D01*
X186402Y290822D01*
X185731Y288317D01*
Y285723D01*
X186402Y283218D01*
X187699Y280973D01*
X189533Y279139D01*
X191778Y277842D01*
X194283Y277171D01*
X196877D01*
X199382Y277842D01*
X201627Y279139D01*
X203461Y280973D01*
X204758Y283218D01*
X205429Y285723D01*
Y288317D01*
X204758Y290822D01*
X203461Y293067D01*
X201627Y294901D01*
X199382Y296198D01*
X196877Y296869D01*
D02*
G37*
G36*
X130048Y404428D02*
X87122D01*
X85933Y404191D01*
X84924Y403517D01*
X84251Y402509D01*
X84014Y401320D01*
Y367030D01*
X84251Y365841D01*
X84924Y364832D01*
X97522Y352235D01*
X96996Y350965D01*
X96044D01*
Y336640D01*
X95062Y335835D01*
X94996Y335848D01*
X92764D01*
Y341884D01*
X85740D01*
Y342900D01*
X84724D01*
Y351174D01*
X64716D01*
Y346008D01*
X54010D01*
X52821Y345771D01*
X51813Y345098D01*
X41998Y335283D01*
X41315Y335677D01*
X38766Y336360D01*
X36126D01*
X33577Y335677D01*
X31291Y334357D01*
X29425Y332491D01*
X28105Y330205D01*
X27422Y327656D01*
Y325017D01*
X28105Y322467D01*
X29425Y320181D01*
X31291Y318315D01*
X33577Y316995D01*
X36126Y316312D01*
X38766D01*
X41315Y316995D01*
X43601Y318315D01*
X45467Y320181D01*
X46787Y322467D01*
X47470Y325017D01*
Y327656D01*
X46787Y330205D01*
X46393Y330888D01*
X55297Y339792D01*
X64716D01*
Y334626D01*
X68763D01*
X68869Y334091D01*
X69543Y333083D01*
X70598Y332027D01*
X70112Y330854D01*
X64716D01*
Y314306D01*
X66063D01*
X66549Y313133D01*
X64661Y311245D01*
X55435D01*
Y308796D01*
X52758D01*
X51569Y308560D01*
X50561Y307886D01*
X47913Y305239D01*
X46383Y305504D01*
X45467Y307091D01*
X43601Y308957D01*
X41315Y310277D01*
X38766Y310960D01*
X36126D01*
X33577Y310277D01*
X31291Y308957D01*
X29425Y307091D01*
X28105Y304805D01*
X27422Y302256D01*
Y299617D01*
X28105Y297067D01*
X29425Y294781D01*
X31291Y292915D01*
X33577Y291595D01*
X36126Y290912D01*
X38766D01*
X41315Y291595D01*
X43601Y292915D01*
X45467Y294781D01*
X46787Y297067D01*
X46991Y297828D01*
X48006D01*
X49195Y298065D01*
X50203Y298739D01*
X54046Y302581D01*
X55435D01*
Y300132D01*
X64661D01*
X69392Y295401D01*
X68906Y294228D01*
X55435D01*
Y283115D01*
X60392D01*
Y270984D01*
X56476D01*
Y255436D01*
X70524D01*
Y270984D01*
X66608D01*
Y283115D01*
X71565D01*
Y292255D01*
X72771Y293310D01*
X84773D01*
X85506Y292040D01*
X84802Y290822D01*
X84131Y288317D01*
Y285723D01*
X84802Y283218D01*
X86099Y280973D01*
X87933Y279139D01*
X90178Y277842D01*
X92683Y277171D01*
X95277D01*
X97782Y277842D01*
X100027Y279139D01*
X101861Y280973D01*
X103158Y283218D01*
X103829Y285723D01*
Y288317D01*
X103158Y290822D01*
X101861Y293067D01*
X100027Y294901D01*
X97782Y296198D01*
X97088Y296384D01*
Y296418D01*
X96851Y297607D01*
X96178Y298615D01*
X95169Y299289D01*
X93980Y299526D01*
X74058D01*
X71565Y302018D01*
Y309359D01*
X73938Y311731D01*
X74611Y312740D01*
X74848Y313929D01*
Y314306D01*
X84724D01*
Y322580D01*
X86756D01*
Y314306D01*
X91888D01*
Y312166D01*
X92125Y310977D01*
X92799Y309968D01*
X99403Y303365D01*
X100411Y302691D01*
X101600Y302454D01*
X105664D01*
X106853Y302691D01*
X107861Y303365D01*
X112179Y307682D01*
X112853Y308691D01*
X113090Y309880D01*
Y313549D01*
X113823Y314515D01*
X114360Y314515D01*
X118364D01*
Y322580D01*
Y330645D01*
X114360D01*
X113823Y330645D01*
X113090Y331611D01*
Y331961D01*
X115079Y333950D01*
X118617D01*
X119806Y334187D01*
X120776Y334835D01*
X124173D01*
Y350965D01*
X121725D01*
Y363711D01*
X124517Y366503D01*
X125191Y367511D01*
X125428Y368701D01*
Y383168D01*
X125610Y383217D01*
X127554Y384339D01*
X128210Y384996D01*
X129480Y384470D01*
Y324612D01*
X129717Y323423D01*
X130391Y322415D01*
X161361Y291444D01*
X161002Y290822D01*
X160331Y288317D01*
Y285723D01*
X161002Y283218D01*
X162299Y280973D01*
X164133Y279139D01*
X166378Y277842D01*
X168883Y277171D01*
X171477D01*
X173982Y277842D01*
X176227Y279139D01*
X178061Y280973D01*
X179358Y283218D01*
X180029Y285723D01*
Y288317D01*
X179358Y290822D01*
X178061Y293067D01*
X176227Y294901D01*
X173982Y296198D01*
X171477Y296869D01*
X168883D01*
X166378Y296198D01*
X165756Y295839D01*
X135696Y325899D01*
Y398780D01*
X135459Y399969D01*
X134785Y400978D01*
X132246Y403517D01*
X131237Y404191D01*
X130048Y404428D01*
D02*
G37*
G36*
X146077Y296869D02*
X143483D01*
X140978Y296198D01*
X138733Y294901D01*
X136899Y293067D01*
X135602Y290822D01*
X134931Y288317D01*
Y285723D01*
X135602Y283218D01*
X136899Y280973D01*
X138733Y279139D01*
X140978Y277842D01*
X143483Y277171D01*
X146077D01*
X148582Y277842D01*
X150827Y279139D01*
X152661Y280973D01*
X153958Y283218D01*
X154629Y285723D01*
Y288317D01*
X153958Y290822D01*
X152661Y293067D01*
X150827Y294901D01*
X148582Y296198D01*
X146077Y296869D01*
D02*
G37*
G36*
X129229Y286004D02*
X120396D01*
Y277171D01*
X120677D01*
X123182Y277842D01*
X125427Y279139D01*
X127261Y280973D01*
X128558Y283218D01*
X129229Y285723D01*
Y286004D01*
D02*
G37*
G36*
X118364D02*
X109531D01*
Y285723D01*
X110202Y283218D01*
X111499Y280973D01*
X113333Y279139D01*
X115578Y277842D01*
X118083Y277171D01*
X118364D01*
Y286004D01*
D02*
G37*
G36*
X47470Y285560D02*
X38462D01*
Y276552D01*
X47470D01*
Y285560D01*
D02*
G37*
G36*
X36430D02*
X27422D01*
Y276552D01*
X36430D01*
Y285560D01*
D02*
G37*
G36*
X47470Y274520D02*
X38462D01*
Y265512D01*
X47470D01*
Y274520D01*
D02*
G37*
G36*
X36430D02*
X27422D01*
Y265512D01*
X36430D01*
Y274520D01*
D02*
G37*
G36*
X552477Y271469D02*
X549883D01*
X547378Y270798D01*
X545133Y269501D01*
X543299Y267667D01*
X542002Y265422D01*
X541331Y262917D01*
Y260323D01*
X542002Y257818D01*
X543299Y255573D01*
X545133Y253739D01*
X547378Y252442D01*
X549883Y251771D01*
X552477D01*
X554982Y252442D01*
X557227Y253739D01*
X559061Y255573D01*
X560358Y257818D01*
X561029Y260323D01*
Y262917D01*
X560358Y265422D01*
X559061Y267667D01*
X557227Y269501D01*
X554982Y270798D01*
X552477Y271469D01*
D02*
G37*
G36*
X120677D02*
X118083D01*
X115578Y270798D01*
X113333Y269501D01*
X111499Y267667D01*
X110202Y265422D01*
X109531Y262917D01*
Y260323D01*
X110202Y257818D01*
X111499Y255573D01*
X113333Y253739D01*
X115578Y252442D01*
X118083Y251771D01*
X120677D01*
X123182Y252442D01*
X125427Y253739D01*
X127261Y255573D01*
X128558Y257818D01*
X129229Y260323D01*
Y262917D01*
X128558Y265422D01*
X127261Y267667D01*
X125427Y269501D01*
X123182Y270798D01*
X120677Y271469D01*
D02*
G37*
G36*
X282956Y247268D02*
Y244856D01*
X285368D01*
X284955Y245854D01*
X283954Y246855D01*
X282956Y247268D01*
D02*
G37*
G36*
X280924D02*
X279926Y246855D01*
X278925Y245854D01*
X278512Y244856D01*
X280924D01*
Y247268D01*
D02*
G37*
G36*
X70524Y247484D02*
X64516D01*
Y240726D01*
X70524D01*
Y247484D01*
D02*
G37*
G36*
X62484D02*
X56476D01*
Y240726D01*
X62484D01*
Y247484D01*
D02*
G37*
G36*
X285368Y242824D02*
X282956D01*
Y240412D01*
X283954Y240825D01*
X284955Y241826D01*
X285368Y242824D01*
D02*
G37*
G36*
X280924D02*
X278512D01*
X278925Y241826D01*
X279926Y240825D01*
X280924Y240412D01*
Y242824D01*
D02*
G37*
G36*
X70524Y238694D02*
X64516D01*
Y231936D01*
X70524D01*
Y238694D01*
D02*
G37*
G36*
X62484D02*
X56476D01*
Y231936D01*
X62484D01*
Y238694D01*
D02*
G37*
G36*
X552477Y246069D02*
X549883D01*
X547378Y245398D01*
X545133Y244101D01*
X543299Y242267D01*
X542002Y240022D01*
X541331Y237517D01*
Y234923D01*
X542002Y232418D01*
X543299Y230173D01*
X545133Y228339D01*
X547378Y227042D01*
X549883Y226371D01*
X552477D01*
X554982Y227042D01*
X557227Y228339D01*
X559061Y230173D01*
X560358Y232418D01*
X561029Y234923D01*
Y237517D01*
X560358Y240022D01*
X559061Y242267D01*
X557227Y244101D01*
X554982Y245398D01*
X552477Y246069D01*
D02*
G37*
G36*
Y220669D02*
X549883D01*
X547378Y219998D01*
X545133Y218701D01*
X543299Y216867D01*
X542002Y214622D01*
X541331Y212117D01*
Y209523D01*
X542002Y207018D01*
X543299Y204773D01*
X545133Y202939D01*
X547378Y201642D01*
X549883Y200971D01*
X552477D01*
X554982Y201642D01*
X557227Y202939D01*
X559061Y204773D01*
X560358Y207018D01*
X561029Y209523D01*
Y212117D01*
X560358Y214622D01*
X559061Y216867D01*
X557227Y218701D01*
X554982Y219998D01*
X552477Y220669D01*
D02*
G37*
G36*
X31602Y204104D02*
X31496D01*
Y196596D01*
X39004D01*
Y196702D01*
X38423Y198870D01*
X37301Y200814D01*
X35714Y202401D01*
X33770Y203523D01*
X31602Y204104D01*
D02*
G37*
G36*
X29464D02*
X29358D01*
X27190Y203523D01*
X25246Y202401D01*
X23659Y200814D01*
X22537Y198870D01*
X21956Y196702D01*
Y196596D01*
X29464D01*
Y204104D01*
D02*
G37*
G36*
X39004Y194564D02*
X31496D01*
Y187056D01*
X31602D01*
X33770Y187637D01*
X35714Y188759D01*
X37301Y190346D01*
X38423Y192290D01*
X39004Y194458D01*
Y194564D01*
D02*
G37*
G36*
X29464D02*
X21956D01*
Y194458D01*
X22537Y192290D01*
X23659Y190346D01*
X25246Y188759D01*
X27190Y187637D01*
X29358Y187056D01*
X29464D01*
Y194564D01*
D02*
G37*
G36*
X280416Y181228D02*
Y178816D01*
X282828D01*
X282415Y179814D01*
X281414Y180815D01*
X280416Y181228D01*
D02*
G37*
G36*
X278384D02*
X277386Y180815D01*
X276385Y179814D01*
X275972Y178816D01*
X278384D01*
Y181228D01*
D02*
G37*
G36*
X282828Y176784D02*
X280416D01*
Y174372D01*
X281414Y174785D01*
X282415Y175786D01*
X282828Y176784D01*
D02*
G37*
G36*
X278384D02*
X275972D01*
X276385Y175786D01*
X277386Y174785D01*
X278384Y174372D01*
Y176784D01*
D02*
G37*
G36*
X31602Y179104D02*
X29358D01*
X27190Y178523D01*
X25246Y177401D01*
X23659Y175814D01*
X22537Y173870D01*
X21956Y171702D01*
Y169458D01*
X22537Y167290D01*
X23659Y165346D01*
X25246Y163759D01*
X27190Y162637D01*
X29358Y162056D01*
X31602D01*
X33770Y162637D01*
X35714Y163759D01*
X37301Y165346D01*
X38423Y167290D01*
X39004Y169458D01*
Y171702D01*
X38423Y173870D01*
X37301Y175814D01*
X35714Y177401D01*
X33770Y178523D01*
X31602Y179104D01*
D02*
G37*
G36*
X260377Y174969D02*
X257783D01*
X255278Y174298D01*
X253033Y173001D01*
X251199Y171167D01*
X249902Y168921D01*
X249231Y166416D01*
Y163823D01*
X249902Y161318D01*
X251199Y159072D01*
X253033Y157239D01*
X255278Y155942D01*
X257783Y155271D01*
X260377D01*
X262882Y155942D01*
X265127Y157239D01*
X266961Y159072D01*
X268258Y161318D01*
X268929Y163823D01*
Y166416D01*
X268258Y168921D01*
X266961Y171167D01*
X265127Y173001D01*
X262882Y174298D01*
X260377Y174969D01*
D02*
G37*
G36*
X234977D02*
X232383D01*
X229878Y174298D01*
X227633Y173001D01*
X225799Y171167D01*
X224502Y168921D01*
X223831Y166416D01*
Y163823D01*
X224502Y161318D01*
X225799Y159072D01*
X227633Y157239D01*
X229878Y155942D01*
X232383Y155271D01*
X234977D01*
X237482Y155942D01*
X239727Y157239D01*
X241561Y159072D01*
X242858Y161318D01*
X243529Y163823D01*
Y166416D01*
X242858Y168921D01*
X241561Y171167D01*
X239727Y173001D01*
X237482Y174298D01*
X234977Y174969D01*
D02*
G37*
G36*
X209577D02*
X206983D01*
X204478Y174298D01*
X202233Y173001D01*
X200399Y171167D01*
X199102Y168921D01*
X198431Y166416D01*
Y163823D01*
X199102Y161318D01*
X200399Y159072D01*
X202233Y157239D01*
X204478Y155942D01*
X206983Y155271D01*
X209577D01*
X212082Y155942D01*
X214327Y157239D01*
X216161Y159072D01*
X217458Y161318D01*
X218129Y163823D01*
Y166416D01*
X217458Y168921D01*
X216161Y171167D01*
X214327Y173001D01*
X212082Y174298D01*
X209577Y174969D01*
D02*
G37*
G36*
X184177D02*
X181583D01*
X179078Y174298D01*
X176833Y173001D01*
X174999Y171167D01*
X173702Y168921D01*
X173031Y166416D01*
Y163823D01*
X173702Y161318D01*
X174999Y159072D01*
X176833Y157239D01*
X179078Y155942D01*
X181583Y155271D01*
X184177D01*
X186682Y155942D01*
X188927Y157239D01*
X190761Y159072D01*
X192058Y161318D01*
X192729Y163823D01*
Y166416D01*
X192058Y168921D01*
X190761Y171167D01*
X188927Y173001D01*
X186682Y174298D01*
X184177Y174969D01*
D02*
G37*
G36*
X158777D02*
X156183D01*
X153678Y174298D01*
X151433Y173001D01*
X149599Y171167D01*
X148302Y168921D01*
X147631Y166416D01*
Y163823D01*
X148302Y161318D01*
X149599Y159072D01*
X151433Y157239D01*
X153678Y155942D01*
X156183Y155271D01*
X158777D01*
X161282Y155942D01*
X163527Y157239D01*
X165361Y159072D01*
X166658Y161318D01*
X167329Y163823D01*
Y166416D01*
X166658Y168921D01*
X165361Y171167D01*
X163527Y173001D01*
X161282Y174298D01*
X158777Y174969D01*
D02*
G37*
G36*
X31602Y154104D02*
X29358D01*
X27190Y153523D01*
X25246Y152401D01*
X23659Y150814D01*
X22537Y148870D01*
X21956Y146702D01*
Y144458D01*
X22537Y142290D01*
X23659Y140346D01*
X25246Y138759D01*
X27190Y137637D01*
X29358Y137056D01*
X31602D01*
X33770Y137637D01*
X35714Y138759D01*
X37301Y140346D01*
X38423Y142290D01*
X39004Y144458D01*
Y146702D01*
X38423Y148870D01*
X37301Y150814D01*
X35714Y152401D01*
X33770Y153523D01*
X31602Y154104D01*
D02*
G37*
G36*
X95277Y144469D02*
X94996D01*
Y135636D01*
X103829D01*
Y135917D01*
X103158Y138422D01*
X101861Y140667D01*
X100027Y142501D01*
X97782Y143798D01*
X95277Y144469D01*
D02*
G37*
G36*
X92964D02*
X92683D01*
X90178Y143798D01*
X87933Y142501D01*
X86099Y140667D01*
X84802Y138422D01*
X84131Y135917D01*
Y135636D01*
X92964D01*
Y144469D01*
D02*
G37*
G36*
X679477D02*
X676883D01*
X674378Y143798D01*
X672133Y142501D01*
X670299Y140667D01*
X669002Y138422D01*
X668331Y135917D01*
Y133323D01*
X669002Y130818D01*
X670299Y128573D01*
X672133Y126739D01*
X674378Y125442D01*
X676883Y124771D01*
X679477D01*
X681982Y125442D01*
X684227Y126739D01*
X686061Y128573D01*
X687358Y130818D01*
X688029Y133323D01*
Y135917D01*
X687358Y138422D01*
X686061Y140667D01*
X684227Y142501D01*
X681982Y143798D01*
X679477Y144469D01*
D02*
G37*
G36*
X654077D02*
X651483D01*
X648978Y143798D01*
X646733Y142501D01*
X644899Y140667D01*
X643602Y138422D01*
X642931Y135917D01*
Y133323D01*
X643602Y130818D01*
X644899Y128573D01*
X646733Y126739D01*
X648978Y125442D01*
X651483Y124771D01*
X654077D01*
X656582Y125442D01*
X658827Y126739D01*
X660661Y128573D01*
X661958Y130818D01*
X662629Y133323D01*
Y135917D01*
X661958Y138422D01*
X660661Y140667D01*
X658827Y142501D01*
X656582Y143798D01*
X654077Y144469D01*
D02*
G37*
G36*
X628677D02*
X626083D01*
X623578Y143798D01*
X621333Y142501D01*
X619499Y140667D01*
X618202Y138422D01*
X617531Y135917D01*
Y133323D01*
X618202Y130818D01*
X619499Y128573D01*
X621333Y126739D01*
X623578Y125442D01*
X626083Y124771D01*
X628677D01*
X631182Y125442D01*
X633427Y126739D01*
X635261Y128573D01*
X636558Y130818D01*
X637229Y133323D01*
Y135917D01*
X636558Y138422D01*
X635261Y140667D01*
X633427Y142501D01*
X631182Y143798D01*
X628677Y144469D01*
D02*
G37*
G36*
X603277D02*
X600683D01*
X598178Y143798D01*
X595933Y142501D01*
X594099Y140667D01*
X592802Y138422D01*
X592131Y135917D01*
Y133323D01*
X592802Y130818D01*
X594099Y128573D01*
X595933Y126739D01*
X598178Y125442D01*
X600683Y124771D01*
X603277D01*
X605782Y125442D01*
X608027Y126739D01*
X609861Y128573D01*
X611158Y130818D01*
X611829Y133323D01*
Y135917D01*
X611158Y138422D01*
X609861Y140667D01*
X608027Y142501D01*
X605782Y143798D01*
X603277Y144469D01*
D02*
G37*
G36*
X577877D02*
X575283D01*
X572778Y143798D01*
X570533Y142501D01*
X568699Y140667D01*
X567402Y138422D01*
X566731Y135917D01*
Y133323D01*
X567402Y130818D01*
X567761Y130196D01*
X478773Y41208D01*
X442064D01*
Y47244D01*
X425016D01*
Y41208D01*
X415339D01*
X414813Y42478D01*
X415361Y43026D01*
X416483Y44970D01*
X417064Y47138D01*
Y49382D01*
X416483Y51550D01*
X415361Y53494D01*
X413774Y55081D01*
X411830Y56203D01*
X409662Y56784D01*
X407418D01*
X405250Y56203D01*
X403306Y55081D01*
X401719Y53494D01*
X400597Y51550D01*
X400016Y49382D01*
Y47138D01*
X400597Y44970D01*
X401719Y43026D01*
X402268Y42478D01*
X401742Y41208D01*
X390339D01*
X389813Y42478D01*
X390361Y43026D01*
X391483Y44970D01*
X392064Y47138D01*
Y49382D01*
X391483Y51550D01*
X390361Y53494D01*
X388774Y55081D01*
X386830Y56203D01*
X384662Y56784D01*
X382418D01*
X380250Y56203D01*
X378306Y55081D01*
X376719Y53494D01*
X375597Y51550D01*
X375016Y49382D01*
Y47138D01*
X375597Y44970D01*
X376719Y43026D01*
X377267Y42478D01*
X376741Y41208D01*
X369988D01*
X366389Y44806D01*
X366483Y44970D01*
X367064Y47138D01*
Y49382D01*
X366483Y51550D01*
X365361Y53494D01*
X363774Y55081D01*
X361830Y56203D01*
X359663Y56784D01*
X357418D01*
X355250Y56203D01*
X353307Y55081D01*
X351719Y53494D01*
X350597Y51550D01*
X350016Y49382D01*
Y47138D01*
X350597Y44970D01*
X351719Y43026D01*
X353307Y41439D01*
X355250Y40317D01*
X357418Y39736D01*
X359663D01*
X361830Y40317D01*
X361994Y40411D01*
X366503Y35903D01*
X367511Y35229D01*
X368700Y34992D01*
X480060D01*
X481249Y35229D01*
X482257Y35903D01*
X572156Y125801D01*
X572778Y125442D01*
X575283Y124771D01*
X577877D01*
X580382Y125442D01*
X582627Y126739D01*
X584461Y128573D01*
X585758Y130818D01*
X586429Y133323D01*
Y135917D01*
X585758Y138422D01*
X584461Y140667D01*
X582627Y142501D01*
X580382Y143798D01*
X577877Y144469D01*
D02*
G37*
G36*
X552477D02*
X549883D01*
X547378Y143798D01*
X545133Y142501D01*
X543299Y140667D01*
X542002Y138422D01*
X541331Y135917D01*
Y133323D01*
X542002Y130818D01*
X543299Y128573D01*
X545133Y126739D01*
X547378Y125442D01*
X549883Y124771D01*
X552477D01*
X554982Y125442D01*
X557227Y126739D01*
X559061Y128573D01*
X560358Y130818D01*
X561029Y133323D01*
Y135917D01*
X560358Y138422D01*
X559061Y140667D01*
X557227Y142501D01*
X554982Y143798D01*
X552477Y144469D01*
D02*
G37*
G36*
X527077D02*
X524483D01*
X521978Y143798D01*
X519733Y142501D01*
X517899Y140667D01*
X516602Y138422D01*
X515931Y135917D01*
Y133323D01*
X516602Y130818D01*
X516961Y130196D01*
X473347Y86582D01*
X334504D01*
X333315Y86345D01*
X332307Y85672D01*
X303249Y56614D01*
X290596D01*
Y39566D01*
X307644D01*
Y52219D01*
X335792Y80366D01*
X474634D01*
X475823Y80603D01*
X476832Y81277D01*
X521356Y125801D01*
X521978Y125442D01*
X524483Y124771D01*
X527077D01*
X529582Y125442D01*
X531827Y126739D01*
X533661Y128573D01*
X534958Y130818D01*
X535629Y133323D01*
Y135917D01*
X534958Y138422D01*
X533661Y140667D01*
X531827Y142501D01*
X529582Y143798D01*
X527077Y144469D01*
D02*
G37*
G36*
X501677D02*
X499083D01*
X496578Y143798D01*
X494333Y142501D01*
X492499Y140667D01*
X491202Y138422D01*
X490531Y135917D01*
Y133323D01*
X491202Y130818D01*
X492499Y128573D01*
X494333Y126739D01*
X496578Y125442D01*
X499083Y124771D01*
X501677D01*
X504182Y125442D01*
X506427Y126739D01*
X508261Y128573D01*
X509558Y130818D01*
X510229Y133323D01*
Y135917D01*
X509558Y138422D01*
X508261Y140667D01*
X506427Y142501D01*
X504182Y143798D01*
X501677Y144469D01*
D02*
G37*
G36*
X476277D02*
X473683D01*
X471178Y143798D01*
X468933Y142501D01*
X467099Y140667D01*
X465802Y138422D01*
X465131Y135917D01*
Y133323D01*
X465802Y130818D01*
X467099Y128573D01*
X468933Y126739D01*
X471178Y125442D01*
X473683Y124771D01*
X476277D01*
X478782Y125442D01*
X481027Y126739D01*
X482861Y128573D01*
X484158Y130818D01*
X484829Y133323D01*
Y135917D01*
X484158Y138422D01*
X482861Y140667D01*
X481027Y142501D01*
X478782Y143798D01*
X476277Y144469D01*
D02*
G37*
G36*
X425477D02*
X422883D01*
X420378Y143798D01*
X418133Y142501D01*
X416299Y140667D01*
X415002Y138422D01*
X414331Y135917D01*
Y133323D01*
X415002Y130818D01*
X416299Y128573D01*
X418133Y126739D01*
X420378Y125442D01*
X422883Y124771D01*
X425477D01*
X427982Y125442D01*
X430227Y126739D01*
X432061Y128573D01*
X433358Y130818D01*
X434029Y133323D01*
Y135917D01*
X433358Y138422D01*
X432061Y140667D01*
X430227Y142501D01*
X427982Y143798D01*
X425477Y144469D01*
D02*
G37*
G36*
X400077D02*
X397483D01*
X394978Y143798D01*
X392733Y142501D01*
X390899Y140667D01*
X389602Y138422D01*
X388931Y135917D01*
Y133323D01*
X389602Y130818D01*
X390899Y128573D01*
X392733Y126739D01*
X394978Y125442D01*
X397483Y124771D01*
X400077D01*
X402582Y125442D01*
X404827Y126739D01*
X406661Y128573D01*
X407958Y130818D01*
X408629Y133323D01*
Y135917D01*
X407958Y138422D01*
X406661Y140667D01*
X404827Y142501D01*
X402582Y143798D01*
X400077Y144469D01*
D02*
G37*
G36*
X374677D02*
X372083D01*
X369578Y143798D01*
X367333Y142501D01*
X365499Y140667D01*
X364202Y138422D01*
X363531Y135917D01*
Y133323D01*
X364202Y130818D01*
X365499Y128573D01*
X367333Y126739D01*
X369578Y125442D01*
X372083Y124771D01*
X374677D01*
X377182Y125442D01*
X379427Y126739D01*
X381261Y128573D01*
X382558Y130818D01*
X383229Y133323D01*
Y135917D01*
X382558Y138422D01*
X381261Y140667D01*
X379427Y142501D01*
X377182Y143798D01*
X374677Y144469D01*
D02*
G37*
G36*
X349277D02*
X346683D01*
X344178Y143798D01*
X341933Y142501D01*
X340099Y140667D01*
X338802Y138422D01*
X338131Y135917D01*
Y133323D01*
X338802Y130818D01*
X340099Y128573D01*
X341933Y126739D01*
X344178Y125442D01*
X346683Y124771D01*
X349277D01*
X351782Y125442D01*
X354027Y126739D01*
X355861Y128573D01*
X357158Y130818D01*
X357829Y133323D01*
Y135917D01*
X357158Y138422D01*
X355861Y140667D01*
X354027Y142501D01*
X351782Y143798D01*
X349277Y144469D01*
D02*
G37*
G36*
X323877D02*
X321283D01*
X318778Y143798D01*
X316533Y142501D01*
X314699Y140667D01*
X313402Y138422D01*
X312731Y135917D01*
Y133323D01*
X313402Y130818D01*
X314699Y128573D01*
X316533Y126739D01*
X318778Y125442D01*
X321283Y124771D01*
X323877D01*
X326382Y125442D01*
X328627Y126739D01*
X330461Y128573D01*
X331758Y130818D01*
X332429Y133323D01*
Y135917D01*
X331758Y138422D01*
X330461Y140667D01*
X328627Y142501D01*
X326382Y143798D01*
X323877Y144469D01*
D02*
G37*
G36*
X298477D02*
X295883D01*
X293378Y143798D01*
X291133Y142501D01*
X289299Y140667D01*
X288002Y138422D01*
X287331Y135917D01*
Y133323D01*
X288002Y130818D01*
X289299Y128573D01*
X291133Y126739D01*
X293378Y125442D01*
X295883Y124771D01*
X298477D01*
X300982Y125442D01*
X303227Y126739D01*
X305061Y128573D01*
X306358Y130818D01*
X307029Y133323D01*
Y135917D01*
X306358Y138422D01*
X305061Y140667D01*
X303227Y142501D01*
X300982Y143798D01*
X298477Y144469D01*
D02*
G37*
G36*
X273077D02*
X270483D01*
X267978Y143798D01*
X265733Y142501D01*
X263899Y140667D01*
X262602Y138422D01*
X261931Y135917D01*
Y133323D01*
X262602Y130818D01*
X263899Y128573D01*
X265733Y126739D01*
X267978Y125442D01*
X270483Y124771D01*
X273077D01*
X275582Y125442D01*
X277827Y126739D01*
X279661Y128573D01*
X280958Y130818D01*
X281629Y133323D01*
Y135917D01*
X280958Y138422D01*
X279661Y140667D01*
X277827Y142501D01*
X275582Y143798D01*
X273077Y144469D01*
D02*
G37*
G36*
X247677D02*
X245083D01*
X242578Y143798D01*
X240333Y142501D01*
X238499Y140667D01*
X237202Y138422D01*
X236531Y135917D01*
Y133323D01*
X237202Y130818D01*
X238499Y128573D01*
X240333Y126739D01*
X242578Y125442D01*
X245083Y124771D01*
X247677D01*
X250182Y125442D01*
X252427Y126739D01*
X254261Y128573D01*
X255558Y130818D01*
X256229Y133323D01*
Y135917D01*
X255558Y138422D01*
X254261Y140667D01*
X252427Y142501D01*
X250182Y143798D01*
X247677Y144469D01*
D02*
G37*
G36*
X222277D02*
X219683D01*
X217178Y143798D01*
X214933Y142501D01*
X213099Y140667D01*
X211802Y138422D01*
X211131Y135917D01*
Y133323D01*
X211802Y130818D01*
X213099Y128573D01*
X214933Y126739D01*
X217178Y125442D01*
X219683Y124771D01*
X222277D01*
X224782Y125442D01*
X227027Y126739D01*
X228861Y128573D01*
X230158Y130818D01*
X230829Y133323D01*
Y135917D01*
X230158Y138422D01*
X228861Y140667D01*
X227027Y142501D01*
X224782Y143798D01*
X222277Y144469D01*
D02*
G37*
G36*
X196877D02*
X194283D01*
X191778Y143798D01*
X189533Y142501D01*
X187699Y140667D01*
X186402Y138422D01*
X185731Y135917D01*
Y133323D01*
X186402Y130818D01*
X187699Y128573D01*
X189533Y126739D01*
X191778Y125442D01*
X194283Y124771D01*
X196877D01*
X199382Y125442D01*
X201627Y126739D01*
X203461Y128573D01*
X204758Y130818D01*
X205429Y133323D01*
Y135917D01*
X204758Y138422D01*
X203461Y140667D01*
X201627Y142501D01*
X199382Y143798D01*
X196877Y144469D01*
D02*
G37*
G36*
X171477D02*
X168883D01*
X166378Y143798D01*
X164133Y142501D01*
X162299Y140667D01*
X161002Y138422D01*
X160331Y135917D01*
Y133323D01*
X161002Y130818D01*
X162299Y128573D01*
X164133Y126739D01*
X166378Y125442D01*
X168883Y124771D01*
X171477D01*
X173982Y125442D01*
X176227Y126739D01*
X178061Y128573D01*
X179358Y130818D01*
X180029Y133323D01*
Y135917D01*
X179358Y138422D01*
X178061Y140667D01*
X176227Y142501D01*
X173982Y143798D01*
X171477Y144469D01*
D02*
G37*
G36*
X146077D02*
X143483D01*
X140978Y143798D01*
X138733Y142501D01*
X136899Y140667D01*
X135602Y138422D01*
X134931Y135917D01*
Y133323D01*
X135602Y130818D01*
X136899Y128573D01*
X138733Y126739D01*
X140978Y125442D01*
X143483Y124771D01*
X146077D01*
X148582Y125442D01*
X150827Y126739D01*
X152661Y128573D01*
X153958Y130818D01*
X154629Y133323D01*
Y135917D01*
X153958Y138422D01*
X152661Y140667D01*
X150827Y142501D01*
X148582Y143798D01*
X146077Y144469D01*
D02*
G37*
G36*
X120677D02*
X118083D01*
X115578Y143798D01*
X113333Y142501D01*
X111499Y140667D01*
X110202Y138422D01*
X109531Y135917D01*
Y133323D01*
X110202Y130818D01*
X111499Y128573D01*
X113333Y126739D01*
X115578Y125442D01*
X118083Y124771D01*
X120677D01*
X123182Y125442D01*
X125427Y126739D01*
X127261Y128573D01*
X128558Y130818D01*
X129229Y133323D01*
Y135917D01*
X128558Y138422D01*
X127261Y140667D01*
X125427Y142501D01*
X123182Y143798D01*
X120677Y144469D01*
D02*
G37*
G36*
X103829Y133604D02*
X94996D01*
Y124771D01*
X95277D01*
X97782Y125442D01*
X100027Y126739D01*
X101861Y128573D01*
X103158Y130818D01*
X103829Y133323D01*
Y133604D01*
D02*
G37*
G36*
X92964D02*
X84131D01*
Y133323D01*
X84802Y130818D01*
X86099Y128573D01*
X87933Y126739D01*
X90178Y125442D01*
X92683Y124771D01*
X92964D01*
Y133604D01*
D02*
G37*
G36*
X39004Y129104D02*
X21956D01*
Y112056D01*
X39004D01*
Y129104D01*
D02*
G37*
G36*
X606058Y62484D02*
X605536D01*
Y51816D01*
X616204D01*
Y52338D01*
X615408Y55310D01*
X613870Y57974D01*
X611694Y60149D01*
X609030Y61688D01*
X606058Y62484D01*
D02*
G37*
G36*
X529858D02*
X529336D01*
Y51816D01*
X540004D01*
Y52338D01*
X539208Y55310D01*
X537669Y57974D01*
X535494Y60149D01*
X532830Y61688D01*
X529858Y62484D01*
D02*
G37*
G36*
X603504D02*
X602982D01*
X600010Y61688D01*
X597346Y60149D01*
X595171Y57974D01*
X593632Y55310D01*
X592836Y52338D01*
Y51816D01*
X603504D01*
Y62484D01*
D02*
G37*
G36*
X527304D02*
X526782D01*
X523810Y61688D01*
X521146Y60149D01*
X518970Y57974D01*
X517432Y55310D01*
X516636Y52338D01*
Y51816D01*
X527304D01*
Y62484D01*
D02*
G37*
G36*
X442064Y56784D02*
X434556D01*
Y49276D01*
X442064D01*
Y56784D01*
D02*
G37*
G36*
X432524D02*
X425016D01*
Y49276D01*
X432524D01*
Y56784D01*
D02*
G37*
G36*
X275242Y56614D02*
X275136D01*
Y49106D01*
X282644D01*
Y49212D01*
X282063Y51380D01*
X280941Y53324D01*
X279354Y54911D01*
X277410Y56033D01*
X275242Y56614D01*
D02*
G37*
G36*
X273104D02*
X272998D01*
X270830Y56033D01*
X268886Y54911D01*
X267299Y53324D01*
X266177Y51380D01*
X265596Y49212D01*
Y49106D01*
X273104D01*
Y56614D01*
D02*
G37*
G36*
X225242D02*
X225136D01*
Y49106D01*
X232644D01*
Y49212D01*
X232063Y51380D01*
X230941Y53324D01*
X229354Y54911D01*
X227410Y56033D01*
X225242Y56614D01*
D02*
G37*
G36*
X223104D02*
X222998D01*
X220830Y56033D01*
X218886Y54911D01*
X217299Y53324D01*
X216177Y51380D01*
X215596Y49212D01*
Y49106D01*
X223104D01*
Y56614D01*
D02*
G37*
G36*
X138082D02*
X137976D01*
Y49106D01*
X145484D01*
Y49212D01*
X144903Y51380D01*
X143781Y53324D01*
X142194Y54911D01*
X140250Y56033D01*
X138082Y56614D01*
D02*
G37*
G36*
X135944D02*
X135838D01*
X133670Y56033D01*
X131726Y54911D01*
X130139Y53324D01*
X129017Y51380D01*
X128436Y49212D01*
Y49106D01*
X135944D01*
Y56614D01*
D02*
G37*
G36*
X88082D02*
X87976D01*
Y49106D01*
X95484D01*
Y49212D01*
X94903Y51380D01*
X93781Y53324D01*
X92194Y54911D01*
X90250Y56033D01*
X88082Y56614D01*
D02*
G37*
G36*
X85944D02*
X85838D01*
X83670Y56033D01*
X81726Y54911D01*
X80139Y53324D01*
X79017Y51380D01*
X78436Y49212D01*
Y49106D01*
X85944D01*
Y56614D01*
D02*
G37*
G36*
X282644Y47074D02*
X275136D01*
Y39566D01*
X275242D01*
X277410Y40147D01*
X279354Y41269D01*
X280941Y42856D01*
X282063Y44800D01*
X282644Y46968D01*
Y47074D01*
D02*
G37*
G36*
X273104D02*
X265596D01*
Y46968D01*
X266177Y44800D01*
X267299Y42856D01*
X268886Y41269D01*
X270830Y40147D01*
X272998Y39566D01*
X273104D01*
Y47074D01*
D02*
G37*
G36*
X250242Y56614D02*
X247998D01*
X245830Y56033D01*
X243886Y54911D01*
X242299Y53324D01*
X241177Y51380D01*
X240596Y49212D01*
Y46968D01*
X241177Y44800D01*
X242299Y42856D01*
X243886Y41269D01*
X245830Y40147D01*
X247998Y39566D01*
X250242D01*
X252410Y40147D01*
X254354Y41269D01*
X255941Y42856D01*
X257063Y44800D01*
X257644Y46968D01*
Y49212D01*
X257063Y51380D01*
X255941Y53324D01*
X254354Y54911D01*
X252410Y56033D01*
X250242Y56614D01*
D02*
G37*
G36*
X232644Y47074D02*
X225136D01*
Y39566D01*
X225242D01*
X227410Y40147D01*
X229354Y41269D01*
X230941Y42856D01*
X232063Y44800D01*
X232644Y46968D01*
Y47074D01*
D02*
G37*
G36*
X223104D02*
X215596D01*
Y46968D01*
X216177Y44800D01*
X217299Y42856D01*
X218886Y41269D01*
X220830Y40147D01*
X222998Y39566D01*
X223104D01*
Y47074D01*
D02*
G37*
G36*
X170484Y56614D02*
X153436D01*
Y39566D01*
X170484D01*
Y56614D01*
D02*
G37*
G36*
X145484Y47074D02*
X137976D01*
Y39566D01*
X138082D01*
X140250Y40147D01*
X142194Y41269D01*
X143781Y42856D01*
X144903Y44800D01*
X145484Y46968D01*
Y47074D01*
D02*
G37*
G36*
X135944D02*
X128436D01*
Y46968D01*
X129017Y44800D01*
X130139Y42856D01*
X131726Y41269D01*
X133670Y40147D01*
X135838Y39566D01*
X135944D01*
Y47074D01*
D02*
G37*
G36*
X113082Y56614D02*
X110838D01*
X108670Y56033D01*
X106726Y54911D01*
X105139Y53324D01*
X104017Y51380D01*
X103436Y49212D01*
Y46968D01*
X104017Y44800D01*
X105139Y42856D01*
X106726Y41269D01*
X108670Y40147D01*
X110838Y39566D01*
X113082D01*
X115250Y40147D01*
X117194Y41269D01*
X118781Y42856D01*
X119903Y44800D01*
X120484Y46968D01*
Y49212D01*
X119903Y51380D01*
X118781Y53324D01*
X117194Y54911D01*
X115250Y56033D01*
X113082Y56614D01*
D02*
G37*
G36*
X95484Y47074D02*
X87976D01*
Y39566D01*
X88082D01*
X90250Y40147D01*
X92194Y41269D01*
X93781Y42856D01*
X94903Y44800D01*
X95484Y46968D01*
Y47074D01*
D02*
G37*
G36*
X85944D02*
X78436D01*
Y46968D01*
X79017Y44800D01*
X80139Y42856D01*
X81726Y41269D01*
X83670Y40147D01*
X85838Y39566D01*
X85944D01*
Y47074D01*
D02*
G37*
G36*
X631458Y62484D02*
X628382D01*
X625410Y61688D01*
X622746Y60149D01*
X620570Y57974D01*
X619032Y55310D01*
X618236Y52338D01*
Y49262D01*
X619032Y46290D01*
X620570Y43626D01*
X622746Y41451D01*
X625410Y39912D01*
X628382Y39116D01*
X631458D01*
X634430Y39912D01*
X637094Y41451D01*
X639269Y43626D01*
X640808Y46290D01*
X641604Y49262D01*
Y52338D01*
X640808Y55310D01*
X639269Y57974D01*
X637094Y60149D01*
X634430Y61688D01*
X631458Y62484D01*
D02*
G37*
G36*
X616204Y49784D02*
X605536D01*
Y39116D01*
X606058D01*
X609030Y39912D01*
X611694Y41451D01*
X613870Y43626D01*
X615408Y46290D01*
X616204Y49262D01*
Y49784D01*
D02*
G37*
G36*
X603504D02*
X592836D01*
Y49262D01*
X593632Y46290D01*
X595171Y43626D01*
X597346Y41451D01*
X600010Y39912D01*
X602982Y39116D01*
X603504D01*
Y49784D01*
D02*
G37*
G36*
X580658Y62484D02*
X577582D01*
X574610Y61688D01*
X571946Y60149D01*
X569771Y57974D01*
X568232Y55310D01*
X567436Y52338D01*
Y49262D01*
X568232Y46290D01*
X569771Y43626D01*
X571946Y41451D01*
X574610Y39912D01*
X577582Y39116D01*
X580658D01*
X583630Y39912D01*
X586294Y41451D01*
X588470Y43626D01*
X590008Y46290D01*
X590804Y49262D01*
Y52338D01*
X590008Y55310D01*
X588470Y57974D01*
X586294Y60149D01*
X583630Y61688D01*
X580658Y62484D01*
D02*
G37*
G36*
X555258D02*
X552182D01*
X549210Y61688D01*
X546546Y60149D01*
X544370Y57974D01*
X542832Y55310D01*
X542036Y52338D01*
Y49262D01*
X542832Y46290D01*
X544370Y43626D01*
X546546Y41451D01*
X549210Y39912D01*
X552182Y39116D01*
X555258D01*
X558230Y39912D01*
X560894Y41451D01*
X563069Y43626D01*
X564608Y46290D01*
X565404Y49262D01*
Y52338D01*
X564608Y55310D01*
X563069Y57974D01*
X560894Y60149D01*
X558230Y61688D01*
X555258Y62484D01*
D02*
G37*
G36*
X540004Y49784D02*
X529336D01*
Y39116D01*
X529858D01*
X532830Y39912D01*
X535494Y41451D01*
X537669Y43626D01*
X539208Y46290D01*
X540004Y49262D01*
Y49784D01*
D02*
G37*
G36*
X527304D02*
X516636D01*
Y49262D01*
X517432Y46290D01*
X518970Y43626D01*
X521146Y41451D01*
X523810Y39912D01*
X526782Y39116D01*
X527304D01*
Y49784D01*
D02*
G37*
G36*
X674727Y54624D02*
X671472D01*
X668280Y53989D01*
X665273Y52743D01*
X662567Y50935D01*
X660265Y48633D01*
X658457Y45927D01*
X657211Y42920D01*
X656576Y39727D01*
Y36472D01*
X657211Y33280D01*
X658457Y30273D01*
X660265Y27567D01*
X662567Y25265D01*
X665273Y23457D01*
X668280Y22211D01*
X671472Y21576D01*
X674727D01*
X677920Y22211D01*
X680927Y23457D01*
X683633Y25265D01*
X685935Y27567D01*
X687743Y30273D01*
X688989Y33280D01*
X689624Y36472D01*
Y39727D01*
X688989Y42920D01*
X687743Y45927D01*
X685935Y48633D01*
X683633Y50935D01*
X680927Y52743D01*
X677920Y53989D01*
X674727Y54624D01*
D02*
G37*
G36*
X39727D02*
X36472D01*
X33280Y53989D01*
X30273Y52743D01*
X27567Y50935D01*
X25265Y48633D01*
X23457Y45927D01*
X22211Y42920D01*
X21576Y39727D01*
Y36472D01*
X22211Y33280D01*
X23457Y30273D01*
X25265Y27567D01*
X27567Y25265D01*
X30273Y23457D01*
X33280Y22211D01*
X36472Y21576D01*
X39727D01*
X42920Y22211D01*
X45927Y23457D01*
X48633Y25265D01*
X50935Y27567D01*
X52743Y30273D01*
X53989Y33280D01*
X54624Y36472D01*
Y39727D01*
X53989Y42920D01*
X52743Y45927D01*
X50935Y48633D01*
X48633Y50935D01*
X45927Y52743D01*
X42920Y53989D01*
X39727Y54624D01*
D02*
G37*
%LPD*%
G36*
X116047Y396942D02*
X115499Y396394D01*
X114377Y394450D01*
X113796Y392282D01*
Y390038D01*
X114377Y387870D01*
X115499Y385926D01*
X117086Y384339D01*
X119030Y383217D01*
X119212Y383168D01*
Y369988D01*
X116419Y367196D01*
X115746Y366187D01*
X115509Y364998D01*
Y350965D01*
X113061D01*
Y340020D01*
X112603Y339929D01*
X111594Y339255D01*
X108427Y336087D01*
X107156Y336614D01*
Y350965D01*
X104708D01*
Y352552D01*
X104471Y353741D01*
X103798Y354749D01*
X90230Y368317D01*
Y382636D01*
X96304D01*
Y391160D01*
X97320D01*
Y392176D01*
X105844D01*
Y398212D01*
X115521D01*
X116047Y396942D01*
D02*
G37*
%LPC*%
G36*
X105844Y390144D02*
X98336D01*
Y382636D01*
X105844D01*
Y390144D01*
D02*
G37*
%LPD*%
D13*
X101600Y342900D02*
D03*
X118617D02*
D03*
X102363Y322580D02*
D03*
X119380D02*
D03*
D14*
X63500Y239710D02*
D03*
Y263210D02*
D03*
D15*
Y288671D02*
D03*
Y305688D02*
D03*
D16*
X85740Y322580D02*
D03*
X71740D02*
D03*
X85740Y342900D02*
D03*
X71740D02*
D03*
D18*
X299120Y48090D02*
D03*
X161960D02*
D03*
X97320Y391160D02*
D03*
X241900Y391330D02*
D03*
X433540Y48260D02*
D03*
X531460Y391330D02*
D03*
X384140D02*
D03*
D19*
X274120Y48090D02*
D03*
X249120D02*
D03*
X224120D02*
D03*
X136960D02*
D03*
X111960D02*
D03*
X86960D02*
D03*
X30480Y145580D02*
D03*
Y170580D02*
D03*
Y195580D02*
D03*
X122320Y391160D02*
D03*
X147320D02*
D03*
X172320D02*
D03*
X266900Y391330D02*
D03*
X291900D02*
D03*
X316900D02*
D03*
X408540Y48260D02*
D03*
X383540D02*
D03*
X358540D02*
D03*
X606460Y391330D02*
D03*
X581460D02*
D03*
X556460D02*
D03*
X459140D02*
D03*
X434140D02*
D03*
X409140D02*
D03*
D20*
X30480Y120580D02*
D03*
D25*
X177800Y330200D02*
D03*
D26*
X152400D02*
D03*
D30*
X288614Y275266D02*
X388620Y175260D01*
X266911Y275266D02*
X288614D01*
X257794Y286199D02*
X260026Y283967D01*
Y282151D02*
X266911Y275266D01*
X247201Y286199D02*
X257794D01*
X260026Y282151D02*
Y283967D01*
X388620Y175260D02*
X421640D01*
X246380Y287020D02*
X247201Y286199D01*
D31*
X408940Y182880D02*
Y271780D01*
X424180Y287020D01*
X72771Y296418D02*
X93980D01*
X113792Y337058D02*
X118617D01*
X398780Y287020D02*
X518922Y407162D01*
X590628D01*
X606460Y391330D01*
X322580Y287020D02*
X409140Y373580D01*
Y391330D01*
X316900Y306740D02*
Y391330D01*
X297180Y287020D02*
X316900Y306740D01*
X152400Y330200D02*
Y386080D01*
X147320Y391160D02*
X152400Y386080D01*
X101600Y342900D02*
Y352552D01*
X87122Y367030D02*
X101600Y352552D01*
X87122Y367030D02*
Y401320D01*
X130048D01*
X132588Y398780D01*
Y324612D02*
Y398780D01*
Y324612D02*
X170180Y287020D01*
X266900Y343970D02*
Y391330D01*
Y343970D02*
X271780Y339090D01*
Y287020D02*
Y339090D01*
X71740Y313929D02*
Y322580D01*
X63500Y305688D02*
X71740Y313929D01*
X474634Y83474D02*
X525780Y134620D01*
X334504Y83474D02*
X474634D01*
X299120Y48090D02*
X334504Y83474D01*
X358540Y48260D02*
X368700Y38100D01*
X480060D01*
X576580Y134620D01*
X93980Y287020D02*
Y296418D01*
X63500Y305688D02*
X72771Y296418D01*
X54010Y342900D02*
X71740D01*
X37446Y326336D02*
X54010Y342900D01*
X101600Y334431D02*
Y342900D01*
Y334431D02*
X102363Y333668D01*
Y322580D02*
Y333668D01*
X118617Y337058D02*
Y342900D01*
X109982Y333248D02*
X113792Y337058D01*
X109982Y309880D02*
Y333248D01*
X105664Y305562D02*
X109982Y309880D01*
X101600Y305562D02*
X105664D01*
X94996Y312166D02*
X101600Y305562D01*
X94996Y312166D02*
Y332740D01*
X74280D02*
X94996D01*
X71740Y335280D02*
X74280Y332740D01*
X71740Y335280D02*
Y342900D01*
X52758Y305688D02*
X63500D01*
X48006Y300936D02*
X52758Y305688D01*
X37446Y300936D02*
X48006D01*
X63500Y263210D02*
Y288671D01*
X122320Y368701D02*
Y391160D01*
X118617Y364998D02*
X122320Y368701D01*
X118617Y342900D02*
Y364998D01*
D32*
X604520Y330200D02*
X613918Y320802D01*
Y197104D02*
Y320802D01*
X589534Y172720D02*
X613918Y197104D01*
X487680Y172720D02*
X589534D01*
X449580Y134620D02*
X487680Y172720D01*
D33*
X93980Y134620D02*
D03*
X119380Y287020D02*
D03*
X449580D02*
D03*
X119380Y261620D02*
D03*
Y134620D02*
D03*
X93980Y287020D02*
D03*
X144780D02*
D03*
X157480Y165120D02*
D03*
X182880D02*
D03*
X208280D02*
D03*
X233680D02*
D03*
X259080D02*
D03*
X551180Y261620D02*
D03*
Y236220D02*
D03*
Y210820D02*
D03*
Y185420D02*
D03*
Y160020D02*
D03*
X449580Y134620D02*
D03*
X474980Y287020D02*
D03*
X500380D02*
D03*
X525780D02*
D03*
X551180D02*
D03*
X576580D02*
D03*
X601980D02*
D03*
X627380D02*
D03*
X652780D02*
D03*
X678180D02*
D03*
Y134620D02*
D03*
X652780D02*
D03*
X627380D02*
D03*
X601980D02*
D03*
X576580D02*
D03*
X551180D02*
D03*
X525780D02*
D03*
X500380D02*
D03*
X474980D02*
D03*
X170180Y287020D02*
D03*
X195580D02*
D03*
X220980D02*
D03*
X246380D02*
D03*
X271780D02*
D03*
X297180D02*
D03*
X322580D02*
D03*
X347980D02*
D03*
X373380D02*
D03*
X398780D02*
D03*
X424180D02*
D03*
Y134620D02*
D03*
X398780D02*
D03*
X373380D02*
D03*
X347980D02*
D03*
X322580D02*
D03*
X297180D02*
D03*
X271780D02*
D03*
X246380D02*
D03*
X220980D02*
D03*
X195580D02*
D03*
X170180D02*
D03*
X144780D02*
D03*
D34*
X37446Y326336D02*
D03*
Y300936D02*
D03*
D35*
Y275536D02*
D03*
D36*
X528320Y50800D02*
D03*
X553720D02*
D03*
X579120D02*
D03*
X604520D02*
D03*
X629920D02*
D03*
X528320Y330200D02*
D03*
X553720D02*
D03*
X579120D02*
D03*
X604520D02*
D03*
X629920D02*
D03*
D37*
X279400Y177800D02*
D03*
X281940Y243840D02*
D03*
D38*
X421640Y175260D02*
D03*
X408940Y182880D02*
D03*
M02*
