G04*
G04 #@! TF.GenerationSoftware,Altium Limited,Altium Designer,22.10.1 (41)*
G04*
G04 Layer_Color=255*
%FSLAX44Y44*%
%MOMM*%
G71*
G04*
G04 #@! TF.SameCoordinates,0536D981-BEB6-4F1E-8F52-2FA45D902929*
G04*
G04*
G04 #@! TF.FilePolarity,Positive*
G04*
G01*
G75*
%ADD26C,1.4000*%
%ADD27R,1.4000X1.4000*%
%ADD29R,1.5700X1.5700*%
%ADD30C,1.5700*%
%ADD35R,1.7000X1.7000*%
%ADD36C,1.7000*%
%ADD37C,1.6650*%
D26*
X596300Y373550D02*
D03*
X571300D02*
D03*
X546300D02*
D03*
X563080Y104140D02*
D03*
X538080D02*
D03*
X513080D02*
D03*
X192240Y373380D02*
D03*
X167240D02*
D03*
X142240D02*
D03*
X461480D02*
D03*
X436480D02*
D03*
X411480D02*
D03*
X326860D02*
D03*
X301860D02*
D03*
X276860D02*
D03*
D27*
X521300Y373550D02*
D03*
X488080Y104140D02*
D03*
X117240Y373380D02*
D03*
X386480D02*
D03*
X251860D02*
D03*
D29*
X139700Y90900D02*
D03*
D30*
Y65500D02*
D03*
D35*
X38100Y217900D02*
D03*
D36*
Y243300D02*
D03*
Y268700D02*
D03*
D37*
X139700Y154400D02*
D03*
X165100D02*
D03*
X190500D02*
D03*
X215900D02*
D03*
X241300D02*
D03*
X266700D02*
D03*
X292100D02*
D03*
X317500D02*
D03*
X342900D02*
D03*
X368300D02*
D03*
X393700D02*
D03*
X419100D02*
D03*
Y306800D02*
D03*
X393700D02*
D03*
X368300D02*
D03*
X342900D02*
D03*
X317500D02*
D03*
X292100D02*
D03*
X266700D02*
D03*
X241300D02*
D03*
X215900D02*
D03*
X190500D02*
D03*
X165100D02*
D03*
X469900Y154400D02*
D03*
X495300D02*
D03*
X520700D02*
D03*
X546100D02*
D03*
X571500D02*
D03*
X596900D02*
D03*
X622300D02*
D03*
X647700D02*
D03*
X673100D02*
D03*
Y306800D02*
D03*
X647700D02*
D03*
X622300D02*
D03*
X596900D02*
D03*
X571500D02*
D03*
X546100D02*
D03*
X520700D02*
D03*
X495300D02*
D03*
X469900D02*
D03*
X444500Y154400D02*
D03*
X546100Y179800D02*
D03*
Y205200D02*
D03*
Y230600D02*
D03*
Y256000D02*
D03*
Y281400D02*
D03*
X254000Y184900D02*
D03*
X228600D02*
D03*
X203200D02*
D03*
X177800D02*
D03*
X152400D02*
D03*
X139700Y306800D02*
D03*
X88900D02*
D03*
X114300Y154400D02*
D03*
Y281400D02*
D03*
X444500Y306800D02*
D03*
X114300D02*
D03*
X88900Y154400D02*
D03*
M02*
