G04*
G04 #@! TF.GenerationSoftware,Altium Limited,Altium Designer,22.10.1 (41)*
G04*
G04 Layer_Color=32896*
%FSLAX44Y44*%
%MOMM*%
G71*
G04*
G04 #@! TF.SameCoordinates,F6035E9F-F1FD-4C6C-B8EA-126E05AD2449*
G04*
G04*
G04 #@! TF.FilePolarity,Positive*
G04*
G01*
G75*
%ADD11C,0.2000*%
%ADD47C,0.1000*%
G36*
X344982Y105474D02*
X345141Y105460D01*
X345287Y105439D01*
X345426Y105405D01*
X345557Y105370D01*
X345675Y105328D01*
X345786Y105287D01*
X345883Y105245D01*
X345973Y105197D01*
X346050Y105155D01*
X346119Y105113D01*
X346175Y105079D01*
X346216Y105044D01*
X346244Y105023D01*
X346265Y105009D01*
X346272Y105002D01*
X346369Y104912D01*
X346452Y104808D01*
X346528Y104704D01*
X346598Y104586D01*
X346653Y104475D01*
X346708Y104365D01*
X346750Y104247D01*
X346785Y104143D01*
X346819Y104039D01*
X346840Y103941D01*
X346861Y103851D01*
X346875Y103775D01*
X346882Y103713D01*
X346889Y103671D01*
X346896Y103643D01*
Y103630D01*
X346091Y103546D01*
X346084Y103657D01*
X346077Y103761D01*
X346036Y103941D01*
X345980Y104108D01*
X345953Y104177D01*
X345918Y104240D01*
X345890Y104295D01*
X345855Y104344D01*
X345828Y104385D01*
X345807Y104420D01*
X345779Y104448D01*
X345765Y104468D01*
X345758Y104475D01*
X345751Y104482D01*
X345682Y104545D01*
X345613Y104600D01*
X345536Y104642D01*
X345460Y104684D01*
X345308Y104746D01*
X345162Y104788D01*
X345037Y104808D01*
X344982Y104822D01*
X344933D01*
X344892Y104829D01*
X344739D01*
X344642Y104815D01*
X344469Y104781D01*
X344323Y104725D01*
X344191Y104670D01*
X344094Y104607D01*
X344053Y104579D01*
X344018Y104552D01*
X343990Y104531D01*
X343969Y104517D01*
X343963Y104510D01*
X343955Y104503D01*
X343893Y104441D01*
X343845Y104378D01*
X343796Y104316D01*
X343761Y104247D01*
X343699Y104115D01*
X343657Y103990D01*
X343637Y103886D01*
X343623Y103837D01*
Y103796D01*
X343616Y103768D01*
Y103741D01*
Y103727D01*
Y103720D01*
X343623Y103636D01*
X343630Y103553D01*
X343671Y103387D01*
X343734Y103227D01*
X343803Y103082D01*
X343872Y102957D01*
X343900Y102908D01*
X343935Y102860D01*
X343955Y102825D01*
X343976Y102797D01*
X343983Y102783D01*
X343990Y102777D01*
X344067Y102680D01*
X344157Y102576D01*
X344261Y102465D01*
X344372Y102354D01*
X344600Y102125D01*
X344836Y101910D01*
X344947Y101806D01*
X345058Y101716D01*
X345155Y101632D01*
X345238Y101563D01*
X345308Y101501D01*
X345356Y101459D01*
X345391Y101424D01*
X345405Y101418D01*
X345530Y101313D01*
X345640Y101216D01*
X345751Y101126D01*
X345849Y101036D01*
X345946Y100953D01*
X346029Y100870D01*
X346105Y100800D01*
X346175Y100731D01*
X346237Y100669D01*
X346285Y100613D01*
X346334Y100565D01*
X346369Y100530D01*
X346403Y100495D01*
X346424Y100474D01*
X346431Y100461D01*
X346438Y100454D01*
X346563Y100301D01*
X346667Y100148D01*
X346757Y100003D01*
X346826Y99871D01*
X346882Y99760D01*
X346903Y99712D01*
X346923Y99677D01*
X346937Y99642D01*
X346944Y99621D01*
X346951Y99608D01*
Y99601D01*
X346986Y99504D01*
X347007Y99407D01*
X347027Y99316D01*
X347034Y99233D01*
X347041Y99164D01*
Y99108D01*
Y99074D01*
Y99060D01*
X342804D01*
Y99816D01*
X345960D01*
X345849Y99968D01*
X345793Y100038D01*
X345738Y100100D01*
X345689Y100155D01*
X345654Y100197D01*
X345627Y100225D01*
X345620Y100232D01*
X345578Y100273D01*
X345523Y100329D01*
X345460Y100384D01*
X345391Y100447D01*
X345245Y100585D01*
X345093Y100717D01*
X344947Y100842D01*
X344885Y100897D01*
X344822Y100946D01*
X344781Y100988D01*
X344739Y101015D01*
X344718Y101036D01*
X344711Y101043D01*
X344559Y101175D01*
X344413Y101300D01*
X344281Y101411D01*
X344164Y101522D01*
X344053Y101619D01*
X343955Y101716D01*
X343865Y101799D01*
X343782Y101875D01*
X343713Y101938D01*
X343657Y102000D01*
X343609Y102049D01*
X343567Y102090D01*
X343540Y102125D01*
X343512Y102146D01*
X343505Y102160D01*
X343498Y102166D01*
X343366Y102319D01*
X343262Y102458D01*
X343172Y102589D01*
X343096Y102707D01*
X343040Y102804D01*
X342999Y102881D01*
X342985Y102908D01*
X342978Y102929D01*
X342971Y102936D01*
Y102943D01*
X342915Y103082D01*
X342881Y103220D01*
X342853Y103345D01*
X342832Y103463D01*
X342818Y103560D01*
X342811Y103636D01*
Y103664D01*
Y103685D01*
Y103692D01*
Y103699D01*
X342818Y103837D01*
X342832Y103969D01*
X342860Y104094D01*
X342895Y104219D01*
X342936Y104330D01*
X342985Y104434D01*
X343033Y104531D01*
X343082Y104614D01*
X343130Y104697D01*
X343179Y104767D01*
X343227Y104829D01*
X343269Y104878D01*
X343304Y104912D01*
X343331Y104947D01*
X343345Y104961D01*
X343352Y104968D01*
X343456Y105058D01*
X343567Y105134D01*
X343685Y105204D01*
X343810Y105266D01*
X343928Y105315D01*
X344053Y105356D01*
X344170Y105391D01*
X344288Y105419D01*
X344392Y105439D01*
X344496Y105453D01*
X344586Y105467D01*
X344663Y105474D01*
X344725Y105481D01*
X344815D01*
X344982Y105474D01*
D02*
G37*
G36*
X353060Y99060D02*
X352214D01*
Y101903D01*
X351125D01*
X351028Y101896D01*
X350945Y101889D01*
X350876D01*
X350827Y101882D01*
X350793Y101875D01*
X350772Y101868D01*
X350765D01*
X350689Y101847D01*
X350619Y101820D01*
X350557Y101792D01*
X350494Y101764D01*
X350446Y101736D01*
X350411Y101716D01*
X350383Y101702D01*
X350377Y101695D01*
X350307Y101646D01*
X350231Y101577D01*
X350155Y101508D01*
X350092Y101438D01*
X350030Y101376D01*
X349988Y101320D01*
X349961Y101286D01*
X349947Y101279D01*
Y101272D01*
X349850Y101147D01*
X349746Y101008D01*
X349649Y100863D01*
X349551Y100717D01*
X349468Y100592D01*
X349427Y100537D01*
X349399Y100488D01*
X349371Y100447D01*
X349350Y100419D01*
X349343Y100398D01*
X349337Y100391D01*
X348490Y99060D01*
X347430D01*
X348539Y100800D01*
X348664Y100981D01*
X348789Y101147D01*
X348907Y101293D01*
X349011Y101418D01*
X349101Y101515D01*
X349142Y101556D01*
X349177Y101591D01*
X349205Y101619D01*
X349226Y101639D01*
X349232Y101646D01*
X349239Y101653D01*
X349309Y101709D01*
X349392Y101771D01*
X349475Y101820D01*
X349558Y101868D01*
X349635Y101910D01*
X349697Y101945D01*
X349739Y101965D01*
X349746Y101972D01*
X349753D01*
X349586Y102000D01*
X349427Y102035D01*
X349281Y102076D01*
X349149Y102118D01*
X349024Y102166D01*
X348913Y102215D01*
X348816Y102263D01*
X348726Y102312D01*
X348643Y102361D01*
X348574Y102409D01*
X348518Y102451D01*
X348470Y102485D01*
X348435Y102520D01*
X348407Y102541D01*
X348393Y102555D01*
X348386Y102562D01*
X348310Y102652D01*
X348241Y102742D01*
X348178Y102839D01*
X348130Y102936D01*
X348088Y103033D01*
X348054Y103130D01*
X347998Y103310D01*
X347977Y103394D01*
X347963Y103470D01*
X347957Y103539D01*
X347950Y103602D01*
X347943Y103643D01*
Y103685D01*
Y103706D01*
Y103713D01*
X347957Y103907D01*
X347984Y104087D01*
X348026Y104247D01*
X348074Y104392D01*
X348102Y104455D01*
X348130Y104510D01*
X348151Y104559D01*
X348172Y104600D01*
X348185Y104635D01*
X348199Y104656D01*
X348213Y104670D01*
Y104677D01*
X348317Y104829D01*
X348435Y104954D01*
X348553Y105065D01*
X348671Y105148D01*
X348768Y105211D01*
X348851Y105252D01*
X348886Y105266D01*
X348907Y105280D01*
X348920Y105287D01*
X348927D01*
X349017Y105315D01*
X349108Y105342D01*
X349316Y105384D01*
X349531Y105419D01*
X349739Y105439D01*
X349843Y105446D01*
X349933Y105453D01*
X350009D01*
X350085Y105460D01*
X353060D01*
Y99060D01*
D02*
G37*
G36*
X209953Y336461D02*
X210057Y336309D01*
X210175Y336163D01*
X210292Y336039D01*
X210396Y335921D01*
X210445Y335879D01*
X210480Y335837D01*
X210514Y335803D01*
X210542Y335782D01*
X210556Y335768D01*
X210563Y335761D01*
X210750Y335602D01*
X210951Y335463D01*
X211145Y335331D01*
X211326Y335220D01*
X211402Y335179D01*
X211478Y335137D01*
X211548Y335095D01*
X211603Y335068D01*
X211651Y335047D01*
X211686Y335026D01*
X211707Y335019D01*
X211714Y335012D01*
Y334256D01*
X211575Y334312D01*
X211430Y334374D01*
X211291Y334444D01*
X211166Y334506D01*
X211055Y334568D01*
X211007Y334589D01*
X210965Y334617D01*
X210930Y334631D01*
X210910Y334645D01*
X210896Y334659D01*
X210889D01*
X210722Y334763D01*
X210577Y334860D01*
X210445Y334950D01*
X210341Y335033D01*
X210251Y335102D01*
X210188Y335151D01*
X210154Y335186D01*
X210140Y335199D01*
Y330200D01*
X209356D01*
Y336621D01*
X209862D01*
X209953Y336461D01*
D02*
G37*
G36*
X218440Y330200D02*
X217594D01*
Y333043D01*
X216506D01*
X216408Y333036D01*
X216325Y333029D01*
X216256D01*
X216207Y333022D01*
X216173Y333015D01*
X216152Y333008D01*
X216145D01*
X216069Y332987D01*
X215999Y332960D01*
X215937Y332932D01*
X215875Y332904D01*
X215826Y332877D01*
X215791Y332856D01*
X215763Y332842D01*
X215757Y332835D01*
X215687Y332786D01*
X215611Y332717D01*
X215535Y332648D01*
X215472Y332578D01*
X215410Y332516D01*
X215368Y332460D01*
X215340Y332426D01*
X215327Y332419D01*
Y332412D01*
X215230Y332287D01*
X215126Y332148D01*
X215028Y332003D01*
X214931Y331857D01*
X214848Y331732D01*
X214807Y331677D01*
X214779Y331628D01*
X214751Y331587D01*
X214730Y331559D01*
X214723Y331538D01*
X214716Y331531D01*
X213871Y330200D01*
X212810D01*
X213919Y331940D01*
X214044Y332121D01*
X214169Y332287D01*
X214286Y332433D01*
X214391Y332557D01*
X214481Y332655D01*
X214522Y332696D01*
X214557Y332731D01*
X214585Y332759D01*
X214606Y332779D01*
X214612Y332786D01*
X214619Y332793D01*
X214689Y332849D01*
X214772Y332911D01*
X214855Y332960D01*
X214938Y333008D01*
X215015Y333050D01*
X215077Y333084D01*
X215119Y333105D01*
X215126Y333112D01*
X215133D01*
X214966Y333140D01*
X214807Y333175D01*
X214661Y333216D01*
X214529Y333258D01*
X214404Y333306D01*
X214293Y333355D01*
X214196Y333404D01*
X214106Y333452D01*
X214023Y333501D01*
X213954Y333549D01*
X213898Y333591D01*
X213850Y333625D01*
X213815Y333660D01*
X213787Y333681D01*
X213773Y333695D01*
X213766Y333702D01*
X213690Y333792D01*
X213621Y333882D01*
X213559Y333979D01*
X213510Y334076D01*
X213468Y334173D01*
X213434Y334270D01*
X213378Y334450D01*
X213357Y334534D01*
X213344Y334610D01*
X213337Y334679D01*
X213330Y334742D01*
X213323Y334783D01*
Y334825D01*
Y334846D01*
Y334853D01*
X213337Y335047D01*
X213364Y335227D01*
X213406Y335387D01*
X213454Y335532D01*
X213482Y335595D01*
X213510Y335650D01*
X213531Y335699D01*
X213552Y335740D01*
X213565Y335775D01*
X213579Y335796D01*
X213593Y335810D01*
Y335817D01*
X213697Y335969D01*
X213815Y336094D01*
X213933Y336205D01*
X214051Y336288D01*
X214148Y336351D01*
X214231Y336392D01*
X214266Y336406D01*
X214286Y336420D01*
X214300Y336427D01*
X214307D01*
X214398Y336455D01*
X214488Y336482D01*
X214696Y336524D01*
X214911Y336558D01*
X215119Y336579D01*
X215223Y336586D01*
X215313Y336593D01*
X215389D01*
X215465Y336600D01*
X218440D01*
Y330200D01*
D02*
G37*
G36*
X273862Y237658D02*
X274021Y237644D01*
X274167Y237623D01*
X274306Y237589D01*
X274437Y237554D01*
X274555Y237512D01*
X274666Y237471D01*
X274763Y237429D01*
X274853Y237381D01*
X274930Y237339D01*
X274999Y237297D01*
X275054Y237263D01*
X275096Y237228D01*
X275124Y237207D01*
X275145Y237193D01*
X275152Y237187D01*
X275249Y237096D01*
X275332Y236992D01*
X275408Y236888D01*
X275478Y236770D01*
X275533Y236660D01*
X275588Y236549D01*
X275630Y236431D01*
X275665Y236327D01*
X275699Y236223D01*
X275720Y236126D01*
X275741Y236035D01*
X275755Y235959D01*
X275762Y235897D01*
X275769Y235855D01*
X275776Y235827D01*
Y235814D01*
X274971Y235730D01*
X274964Y235841D01*
X274957Y235945D01*
X274916Y236126D01*
X274860Y236292D01*
X274833Y236361D01*
X274798Y236424D01*
X274770Y236479D01*
X274736Y236528D01*
X274708Y236569D01*
X274687Y236604D01*
X274659Y236632D01*
X274645Y236653D01*
X274638Y236660D01*
X274632Y236666D01*
X274562Y236729D01*
X274493Y236784D01*
X274417Y236826D01*
X274340Y236868D01*
X274188Y236930D01*
X274042Y236971D01*
X273917Y236992D01*
X273862Y237006D01*
X273813D01*
X273772Y237013D01*
X273619D01*
X273522Y236999D01*
X273349Y236965D01*
X273203Y236909D01*
X273071Y236854D01*
X272974Y236791D01*
X272933Y236763D01*
X272898Y236736D01*
X272870Y236715D01*
X272849Y236701D01*
X272843Y236694D01*
X272836Y236687D01*
X272773Y236625D01*
X272725Y236562D01*
X272676Y236500D01*
X272641Y236431D01*
X272579Y236299D01*
X272537Y236174D01*
X272516Y236070D01*
X272503Y236021D01*
Y235980D01*
X272496Y235952D01*
Y235924D01*
Y235911D01*
Y235904D01*
X272503Y235821D01*
X272510Y235737D01*
X272551Y235571D01*
X272614Y235411D01*
X272683Y235266D01*
X272752Y235141D01*
X272780Y235092D01*
X272815Y235044D01*
X272836Y235009D01*
X272856Y234981D01*
X272863Y234968D01*
X272870Y234961D01*
X272946Y234863D01*
X273037Y234760D01*
X273141Y234649D01*
X273252Y234538D01*
X273480Y234309D01*
X273716Y234094D01*
X273827Y233990D01*
X273938Y233900D01*
X274035Y233817D01*
X274118Y233747D01*
X274188Y233685D01*
X274236Y233643D01*
X274271Y233608D01*
X274285Y233601D01*
X274410Y233498D01*
X274520Y233400D01*
X274632Y233310D01*
X274729Y233220D01*
X274826Y233137D01*
X274909Y233054D01*
X274985Y232984D01*
X275054Y232915D01*
X275117Y232853D01*
X275165Y232797D01*
X275214Y232749D01*
X275249Y232714D01*
X275283Y232679D01*
X275304Y232659D01*
X275311Y232645D01*
X275318Y232638D01*
X275443Y232485D01*
X275547Y232333D01*
X275637Y232187D01*
X275706Y232055D01*
X275762Y231944D01*
X275783Y231896D01*
X275803Y231861D01*
X275817Y231826D01*
X275824Y231806D01*
X275831Y231792D01*
Y231785D01*
X275866Y231688D01*
X275887Y231591D01*
X275907Y231500D01*
X275914Y231417D01*
X275921Y231348D01*
Y231292D01*
Y231258D01*
Y231244D01*
X271684D01*
Y232000D01*
X274839D01*
X274729Y232152D01*
X274673Y232222D01*
X274618Y232284D01*
X274569Y232339D01*
X274534Y232381D01*
X274507Y232409D01*
X274500Y232416D01*
X274458Y232457D01*
X274403Y232513D01*
X274340Y232568D01*
X274271Y232631D01*
X274125Y232769D01*
X273973Y232901D01*
X273827Y233026D01*
X273765Y233081D01*
X273702Y233130D01*
X273661Y233172D01*
X273619Y233199D01*
X273598Y233220D01*
X273591Y233227D01*
X273439Y233359D01*
X273293Y233484D01*
X273161Y233595D01*
X273043Y233706D01*
X272933Y233803D01*
X272836Y233900D01*
X272745Y233983D01*
X272662Y234059D01*
X272593Y234122D01*
X272537Y234184D01*
X272489Y234233D01*
X272447Y234274D01*
X272419Y234309D01*
X272392Y234330D01*
X272385Y234343D01*
X272378Y234350D01*
X272246Y234503D01*
X272142Y234642D01*
X272052Y234773D01*
X271976Y234891D01*
X271920Y234988D01*
X271879Y235065D01*
X271865Y235092D01*
X271858Y235113D01*
X271851Y235120D01*
Y235127D01*
X271795Y235266D01*
X271761Y235404D01*
X271733Y235529D01*
X271712Y235647D01*
X271698Y235744D01*
X271691Y235821D01*
Y235848D01*
Y235869D01*
Y235876D01*
Y235883D01*
X271698Y236021D01*
X271712Y236153D01*
X271740Y236278D01*
X271775Y236403D01*
X271816Y236514D01*
X271865Y236618D01*
X271913Y236715D01*
X271962Y236798D01*
X272010Y236881D01*
X272059Y236951D01*
X272107Y237013D01*
X272149Y237062D01*
X272184Y237096D01*
X272211Y237131D01*
X272225Y237145D01*
X272232Y237152D01*
X272336Y237242D01*
X272447Y237318D01*
X272565Y237388D01*
X272690Y237450D01*
X272808Y237498D01*
X272933Y237540D01*
X273050Y237575D01*
X273168Y237603D01*
X273272Y237623D01*
X273376Y237637D01*
X273466Y237651D01*
X273543Y237658D01*
X273605Y237665D01*
X273695D01*
X273862Y237658D01*
D02*
G37*
G36*
X281940Y233948D02*
Y233761D01*
X281926Y233588D01*
X281919Y233421D01*
X281898Y233269D01*
X281885Y233123D01*
X281864Y232991D01*
X281843Y232873D01*
X281815Y232763D01*
X281794Y232665D01*
X281774Y232582D01*
X281753Y232506D01*
X281732Y232450D01*
X281718Y232402D01*
X281704Y232367D01*
X281697Y232346D01*
Y232339D01*
X281649Y232236D01*
X281593Y232132D01*
X281469Y231951D01*
X281337Y231799D01*
X281198Y231674D01*
X281136Y231618D01*
X281080Y231577D01*
X281025Y231535D01*
X280976Y231500D01*
X280942Y231480D01*
X280914Y231459D01*
X280893Y231452D01*
X280886Y231445D01*
X280775Y231390D01*
X280657Y231348D01*
X280415Y231272D01*
X280165Y231216D01*
X279929Y231182D01*
X279825Y231168D01*
X279721Y231154D01*
X279638Y231147D01*
X279562D01*
X279499Y231140D01*
X279409D01*
X279243Y231147D01*
X279083Y231154D01*
X278931Y231175D01*
X278785Y231195D01*
X278653Y231223D01*
X278528Y231251D01*
X278418Y231285D01*
X278321Y231320D01*
X278223Y231348D01*
X278147Y231383D01*
X278078Y231410D01*
X278022Y231438D01*
X277974Y231459D01*
X277946Y231480D01*
X277925Y231487D01*
X277918Y231493D01*
X277814Y231563D01*
X277717Y231632D01*
X277634Y231709D01*
X277551Y231785D01*
X277481Y231861D01*
X277412Y231944D01*
X277357Y232014D01*
X277308Y232090D01*
X277225Y232215D01*
X277197Y232270D01*
X277169Y232319D01*
X277149Y232360D01*
X277135Y232388D01*
X277128Y232409D01*
Y232416D01*
X277086Y232527D01*
X277052Y232645D01*
X276996Y232894D01*
X276961Y233151D01*
X276934Y233393D01*
X276927Y233511D01*
X276920Y233615D01*
X276913Y233706D01*
X276906Y233789D01*
Y233858D01*
Y233907D01*
Y233934D01*
Y233948D01*
Y237644D01*
X277752D01*
Y233948D01*
X277759Y233733D01*
X277766Y233532D01*
X277787Y233352D01*
X277814Y233186D01*
X277842Y233040D01*
X277877Y232908D01*
X277918Y232790D01*
X277953Y232686D01*
X277988Y232596D01*
X278029Y232520D01*
X278064Y232457D01*
X278092Y232409D01*
X278119Y232374D01*
X278133Y232346D01*
X278147Y232333D01*
X278154Y232326D01*
X278237Y232249D01*
X278327Y232187D01*
X278424Y232132D01*
X278528Y232083D01*
X278639Y232041D01*
X278750Y232007D01*
X278965Y231958D01*
X279069Y231937D01*
X279166Y231923D01*
X279257Y231917D01*
X279333Y231910D01*
X279395Y231903D01*
X279485D01*
X279680Y231910D01*
X279860Y231937D01*
X280019Y231972D01*
X280158Y232007D01*
X280214Y232027D01*
X280262Y232048D01*
X280311Y232062D01*
X280345Y232076D01*
X280373Y232090D01*
X280394Y232104D01*
X280408Y232111D01*
X280415D01*
X280546Y232201D01*
X280657Y232298D01*
X280747Y232395D01*
X280817Y232499D01*
X280872Y232582D01*
X280914Y232659D01*
X280928Y232686D01*
X280935Y232707D01*
X280942Y232714D01*
Y232721D01*
X280969Y232797D01*
X280990Y232887D01*
X281032Y233081D01*
X281059Y233283D01*
X281073Y233484D01*
X281080Y233574D01*
X281087Y233664D01*
Y233740D01*
X281094Y233810D01*
Y233872D01*
Y233914D01*
Y233941D01*
Y233948D01*
Y237644D01*
X281940D01*
Y233948D01*
D02*
G37*
G36*
X393785Y208266D02*
X393952Y208259D01*
X394104Y208239D01*
X394250Y208225D01*
X394382Y208204D01*
X394500Y208183D01*
X394610Y208155D01*
X394708Y208134D01*
X394791Y208114D01*
X394867Y208093D01*
X394923Y208072D01*
X394971Y208058D01*
X395006Y208044D01*
X395027Y208037D01*
X395033D01*
X395137Y207989D01*
X395242Y207933D01*
X395422Y207809D01*
X395574Y207677D01*
X395699Y207538D01*
X395755Y207476D01*
X395796Y207420D01*
X395838Y207365D01*
X395873Y207316D01*
X395893Y207282D01*
X395914Y207254D01*
X395921Y207233D01*
X395928Y207226D01*
X395984Y207115D01*
X396025Y206997D01*
X396101Y206755D01*
X396157Y206505D01*
X396191Y206269D01*
X396205Y206165D01*
X396219Y206061D01*
X396226Y205978D01*
Y205902D01*
X396233Y205839D01*
Y205749D01*
X396226Y205583D01*
X396219Y205423D01*
X396199Y205271D01*
X396178Y205125D01*
X396150Y204993D01*
X396122Y204869D01*
X396087Y204758D01*
X396053Y204660D01*
X396025Y204563D01*
X395990Y204487D01*
X395963Y204418D01*
X395935Y204362D01*
X395914Y204314D01*
X395893Y204286D01*
X395886Y204265D01*
X395880Y204258D01*
X395810Y204154D01*
X395741Y204057D01*
X395664Y203974D01*
X395588Y203891D01*
X395512Y203821D01*
X395429Y203752D01*
X395359Y203697D01*
X395283Y203648D01*
X395158Y203565D01*
X395103Y203537D01*
X395054Y203509D01*
X395013Y203489D01*
X394985Y203475D01*
X394964Y203468D01*
X394957D01*
X394846Y203426D01*
X394728Y203391D01*
X394479Y203336D01*
X394222Y203301D01*
X393979Y203274D01*
X393862Y203267D01*
X393758Y203260D01*
X393667Y203253D01*
X393584Y203246D01*
X393515D01*
X393466D01*
X393439D01*
X393425D01*
X389729D01*
Y204092D01*
X393425D01*
X393640Y204099D01*
X393841Y204106D01*
X394021Y204126D01*
X394188Y204154D01*
X394333Y204182D01*
X394465Y204217D01*
X394583Y204258D01*
X394687Y204293D01*
X394777Y204328D01*
X394853Y204369D01*
X394916Y204404D01*
X394964Y204432D01*
X394999Y204459D01*
X395027Y204473D01*
X395041Y204487D01*
X395047Y204494D01*
X395124Y204577D01*
X395186Y204667D01*
X395242Y204764D01*
X395290Y204869D01*
X395332Y204979D01*
X395366Y205090D01*
X395415Y205305D01*
X395436Y205409D01*
X395450Y205506D01*
X395457Y205597D01*
X395463Y205673D01*
X395470Y205735D01*
Y205825D01*
X395463Y206020D01*
X395436Y206200D01*
X395401Y206359D01*
X395366Y206498D01*
X395346Y206553D01*
X395325Y206602D01*
X395311Y206651D01*
X395297Y206685D01*
X395283Y206713D01*
X395269Y206734D01*
X395262Y206748D01*
Y206755D01*
X395172Y206886D01*
X395075Y206997D01*
X394978Y207087D01*
X394874Y207157D01*
X394791Y207212D01*
X394715Y207254D01*
X394687Y207268D01*
X394666Y207275D01*
X394659Y207282D01*
X394652D01*
X394576Y207309D01*
X394486Y207330D01*
X394292Y207372D01*
X394090Y207400D01*
X393889Y207413D01*
X393799Y207420D01*
X393709Y207427D01*
X393633D01*
X393563Y207434D01*
X393501D01*
X393460D01*
X393432D01*
X393425D01*
X389729D01*
Y208280D01*
X393425D01*
X393612D01*
X393785Y208266D01*
D02*
G37*
G36*
X394583Y202129D02*
X394721Y202102D01*
X394853Y202060D01*
X394978Y202019D01*
X395096Y201970D01*
X395200Y201915D01*
X395304Y201859D01*
X395387Y201804D01*
X395470Y201748D01*
X395540Y201700D01*
X395602Y201651D01*
X395651Y201609D01*
X395692Y201568D01*
X395720Y201540D01*
X395734Y201526D01*
X395741Y201519D01*
X395831Y201415D01*
X395907Y201297D01*
X395970Y201186D01*
X396032Y201069D01*
X396081Y200951D01*
X396115Y200833D01*
X396150Y200722D01*
X396178Y200611D01*
X396199Y200507D01*
X396212Y200417D01*
X396226Y200333D01*
X396233Y200257D01*
Y200202D01*
X396240Y200153D01*
Y200119D01*
X396233Y199945D01*
X396212Y199786D01*
X396185Y199633D01*
X396150Y199488D01*
X396108Y199349D01*
X396060Y199224D01*
X396004Y199106D01*
X395949Y199002D01*
X395900Y198905D01*
X395845Y198822D01*
X395796Y198746D01*
X395755Y198690D01*
X395720Y198642D01*
X395692Y198607D01*
X395672Y198586D01*
X395664Y198579D01*
X395554Y198468D01*
X395436Y198378D01*
X395318Y198295D01*
X395193Y198225D01*
X395075Y198163D01*
X394957Y198115D01*
X394846Y198073D01*
X394735Y198038D01*
X394631Y198011D01*
X394541Y197997D01*
X394458Y197983D01*
X394382Y197969D01*
X394326D01*
X394278Y197962D01*
X394250D01*
X394243D01*
X394132D01*
X394021Y197976D01*
X393820Y198011D01*
X393647Y198066D01*
X393570Y198094D01*
X393501Y198121D01*
X393432Y198149D01*
X393376Y198177D01*
X393328Y198205D01*
X393293Y198232D01*
X393258Y198253D01*
X393238Y198267D01*
X393224Y198274D01*
X393217Y198281D01*
X393071Y198406D01*
X392953Y198551D01*
X392863Y198697D01*
X392787Y198836D01*
X392731Y198967D01*
X392711Y199023D01*
X392697Y199065D01*
X392683Y199106D01*
X392676Y199134D01*
X392669Y199155D01*
Y199162D01*
X392586Y199009D01*
X392503Y198877D01*
X392412Y198759D01*
X392322Y198669D01*
X392246Y198593D01*
X392184Y198545D01*
X392142Y198510D01*
X392135Y198503D01*
X392128D01*
X391996Y198427D01*
X391865Y198371D01*
X391740Y198330D01*
X391622Y198302D01*
X391525Y198288D01*
X391442Y198274D01*
X391414D01*
X391393D01*
X391379D01*
X391372D01*
X391213Y198281D01*
X391060Y198309D01*
X390922Y198350D01*
X390797Y198392D01*
X390693Y198434D01*
X390651Y198454D01*
X390616Y198475D01*
X390589Y198489D01*
X390561Y198503D01*
X390554Y198510D01*
X390547D01*
X390408Y198607D01*
X390290Y198718D01*
X390187Y198829D01*
X390096Y198940D01*
X390027Y199037D01*
X389978Y199113D01*
X389958Y199148D01*
X389944Y199169D01*
X389937Y199182D01*
Y199189D01*
X389861Y199356D01*
X389805Y199522D01*
X389763Y199689D01*
X389736Y199834D01*
X389722Y199966D01*
X389715Y200015D01*
X389708Y200063D01*
Y200153D01*
X389715Y200292D01*
X389729Y200424D01*
X389750Y200548D01*
X389777Y200673D01*
X389812Y200784D01*
X389847Y200888D01*
X389888Y200985D01*
X389923Y201069D01*
X389965Y201152D01*
X390006Y201221D01*
X390041Y201277D01*
X390076Y201332D01*
X390103Y201367D01*
X390124Y201401D01*
X390138Y201415D01*
X390145Y201422D01*
X390228Y201512D01*
X390325Y201596D01*
X390422Y201672D01*
X390519Y201741D01*
X390623Y201804D01*
X390720Y201852D01*
X390922Y201942D01*
X391012Y201977D01*
X391095Y202005D01*
X391171Y202026D01*
X391234Y202046D01*
X391289Y202060D01*
X391331Y202067D01*
X391358Y202074D01*
X391365D01*
X391504Y201290D01*
X391303Y201249D01*
X391130Y201193D01*
X390977Y201131D01*
X390859Y201062D01*
X390762Y201006D01*
X390700Y200951D01*
X390658Y200916D01*
X390644Y200902D01*
X390547Y200777D01*
X390478Y200653D01*
X390422Y200521D01*
X390388Y200403D01*
X390367Y200292D01*
X390360Y200250D01*
Y200209D01*
X390353Y200174D01*
Y200132D01*
X390367Y199966D01*
X390395Y199820D01*
X390443Y199689D01*
X390492Y199578D01*
X390547Y199494D01*
X390596Y199432D01*
X390623Y199391D01*
X390637Y199377D01*
X390693Y199321D01*
X390748Y199279D01*
X390873Y199203D01*
X390991Y199148D01*
X391102Y199113D01*
X391206Y199092D01*
X391282Y199085D01*
X391317Y199078D01*
X391338D01*
X391352D01*
X391358D01*
X391455Y199085D01*
X391546Y199099D01*
X391636Y199113D01*
X391712Y199141D01*
X391851Y199210D01*
X391962Y199279D01*
X392052Y199356D01*
X392114Y199425D01*
X392135Y199453D01*
X392149Y199467D01*
X392163Y199481D01*
Y199488D01*
X392253Y199640D01*
X392315Y199800D01*
X392364Y199952D01*
X392392Y200091D01*
X392412Y200209D01*
X392419Y200257D01*
Y200306D01*
X392426Y200340D01*
Y200431D01*
X392419Y200472D01*
X392412Y200507D01*
Y200521D01*
X393099Y200604D01*
X393071Y200486D01*
X393050Y200375D01*
X393036Y200285D01*
X393023Y200202D01*
Y200139D01*
X393016Y200091D01*
Y200049D01*
X393023Y199952D01*
X393030Y199855D01*
X393071Y199682D01*
X393127Y199529D01*
X393189Y199397D01*
X393258Y199293D01*
X393286Y199252D01*
X393314Y199217D01*
X393335Y199189D01*
X393355Y199169D01*
X393362Y199162D01*
X393369Y199155D01*
X393439Y199092D01*
X393508Y199037D01*
X393577Y198988D01*
X393654Y198947D01*
X393799Y198884D01*
X393945Y198836D01*
X394070Y198815D01*
X394118Y198808D01*
X394167Y198801D01*
X394201Y198794D01*
X394236D01*
X394250D01*
X394257D01*
X394361Y198801D01*
X394458Y198808D01*
X394645Y198857D01*
X394805Y198912D01*
X394943Y198981D01*
X395006Y199023D01*
X395054Y199058D01*
X395103Y199085D01*
X395137Y199113D01*
X395165Y199141D01*
X395186Y199162D01*
X395200Y199169D01*
X395207Y199175D01*
X395276Y199252D01*
X395332Y199328D01*
X395380Y199404D01*
X395429Y199481D01*
X395498Y199640D01*
X395540Y199793D01*
X395568Y199918D01*
X395574Y199980D01*
X395581Y200021D01*
X395588Y200063D01*
Y200119D01*
X395574Y200285D01*
X395540Y200445D01*
X395498Y200576D01*
X395443Y200694D01*
X395387Y200791D01*
X395346Y200861D01*
X395325Y200881D01*
X395311Y200902D01*
X395297Y200909D01*
Y200916D01*
X395235Y200972D01*
X395172Y201027D01*
X395027Y201124D01*
X394867Y201200D01*
X394708Y201263D01*
X394562Y201311D01*
X394500Y201325D01*
X394444Y201339D01*
X394396Y201353D01*
X394361Y201360D01*
X394340Y201367D01*
X394333D01*
X394437Y202150D01*
X394583Y202129D01*
D02*
G37*
%LPC*%
G36*
X352214Y104753D02*
X350058D01*
X349940Y104739D01*
X349829Y104725D01*
X349725Y104704D01*
X349635Y104684D01*
X349551Y104656D01*
X349475Y104635D01*
X349406Y104607D01*
X349343Y104579D01*
X349295Y104552D01*
X349246Y104524D01*
X349212Y104503D01*
X349184Y104482D01*
X349163Y104468D01*
X349156Y104462D01*
X349149Y104455D01*
X349094Y104399D01*
X349038Y104337D01*
X348955Y104219D01*
X348900Y104094D01*
X348858Y103976D01*
X348830Y103872D01*
X348823Y103824D01*
Y103789D01*
X348816Y103754D01*
Y103734D01*
Y103720D01*
Y103713D01*
X348823Y103602D01*
X348844Y103491D01*
X348872Y103394D01*
X348900Y103310D01*
X348934Y103234D01*
X348962Y103186D01*
X348983Y103151D01*
X348990Y103137D01*
X349059Y103047D01*
X349142Y102964D01*
X349226Y102901D01*
X349302Y102846D01*
X349378Y102804D01*
X349434Y102777D01*
X349475Y102763D01*
X349482Y102756D01*
X349489D01*
X349621Y102714D01*
X349766Y102687D01*
X349919Y102666D01*
X350065Y102652D01*
X350196Y102645D01*
X350252D01*
X350300Y102638D01*
X352214D01*
Y104753D01*
D02*
G37*
G36*
X217594Y335893D02*
X215438D01*
X215320Y335879D01*
X215209Y335865D01*
X215105Y335844D01*
X215015Y335824D01*
X214931Y335796D01*
X214855Y335775D01*
X214786Y335747D01*
X214723Y335719D01*
X214675Y335692D01*
X214626Y335664D01*
X214592Y335643D01*
X214564Y335622D01*
X214543Y335608D01*
X214536Y335602D01*
X214529Y335595D01*
X214474Y335539D01*
X214418Y335477D01*
X214335Y335359D01*
X214280Y335234D01*
X214238Y335116D01*
X214210Y335012D01*
X214203Y334964D01*
Y334929D01*
X214196Y334894D01*
Y334874D01*
Y334860D01*
Y334853D01*
X214203Y334742D01*
X214224Y334631D01*
X214252Y334534D01*
X214280Y334450D01*
X214314Y334374D01*
X214342Y334326D01*
X214363Y334291D01*
X214370Y334277D01*
X214439Y334187D01*
X214522Y334104D01*
X214606Y334041D01*
X214682Y333986D01*
X214758Y333944D01*
X214813Y333917D01*
X214855Y333903D01*
X214862Y333896D01*
X214869D01*
X215001Y333854D01*
X215146Y333826D01*
X215299Y333806D01*
X215445Y333792D01*
X215576Y333785D01*
X215632D01*
X215680Y333778D01*
X217594D01*
Y335893D01*
D02*
G37*
%LPD*%
D11*
X366601Y91060D02*
Y107060D01*
X339519Y91060D02*
X366601D01*
X339519D02*
Y107060D01*
X366601D01*
X231981Y322200D02*
Y338200D01*
X204899Y322200D02*
X231981D01*
X204899D02*
Y338200D01*
X231981D01*
X323471Y201640D02*
Y260640D01*
X240409Y201640D02*
X323471D01*
X240409D02*
Y260640D01*
X323471D01*
X334990Y265780D02*
X457490D01*
Y150780D02*
Y265780D01*
X334990Y150780D02*
X457490D01*
X334990D02*
Y265780D01*
D47*
X71280Y111920D02*
Y309720D01*
Y111920D02*
X700880D01*
Y309720D01*
X71280D02*
X700880D01*
M02*
