G04*
G04 #@! TF.GenerationSoftware,Altium Limited,Altium Designer,22.10.1 (41)*
G04*
G04 Layer_Color=8388736*
%FSLAX44Y44*%
%MOMM*%
G71*
G04*
G04 #@! TF.SameCoordinates,51D38C2D-7858-46DE-8B48-74D45336439E*
G04*
G04*
G04 #@! TF.FilePolarity,Negative*
G04*
G01*
G75*
%ADD15R,1.1000X1.2500*%
G04:AMPARAMS|DCode=17|XSize=1.9mm|YSize=0.6mm|CornerRadius=0.3mm|HoleSize=0mm|Usage=FLASHONLY|Rotation=90.000|XOffset=0mm|YOffset=0mm|HoleType=Round|Shape=RoundedRectangle|*
%AMROUNDEDRECTD17*
21,1,1.9000,0.0000,0,0,90.0*
21,1,1.3000,0.6000,0,0,90.0*
1,1,0.6000,0.0000,0.6500*
1,1,0.6000,0.0000,-0.6500*
1,1,0.6000,0.0000,-0.6500*
1,1,0.6000,0.0000,0.6500*
%
%ADD17ROUNDEDRECTD17*%
%ADD19R,1.3082X0.8065*%
%ADD20R,2.2044X0.6080*%
G04:AMPARAMS|DCode=21|XSize=2.2044mm|YSize=0.608mm|CornerRadius=0.304mm|HoleSize=0mm|Usage=FLASHONLY|Rotation=180.000|XOffset=0mm|YOffset=0mm|HoleType=Round|Shape=RoundedRectangle|*
%AMROUNDEDRECTD21*
21,1,2.2044,0.0000,0,0,180.0*
21,1,1.5965,0.6080,0,0,180.0*
1,1,0.6080,-0.7982,0.0000*
1,1,0.6080,0.7982,0.0000*
1,1,0.6080,0.7982,0.0000*
1,1,0.6080,-0.7982,0.0000*
%
%ADD21ROUNDEDRECTD21*%
%ADD22R,0.8065X1.3082*%
%ADD24R,1.5000X1.2500*%
%ADD25R,5.6500X2.1500*%
%ADD26R,1.4000X1.6000*%
%ADD27R,1.6000X1.4000*%
%ADD28C,0.1500*%
%ADD29C,1.8500*%
%ADD30R,1.8500X1.8500*%
%ADD31C,1.8150*%
%ADD32C,1.4000*%
%ADD33R,1.4000X1.4000*%
%ADD34R,1.5700X1.5700*%
%ADD35C,1.5700*%
D15*
X38100Y128590D02*
D03*
Y105090D02*
D03*
D17*
X304800Y21580D02*
D03*
X317500D02*
D03*
X330200D02*
D03*
X342900D02*
D03*
X355600D02*
D03*
X368300D02*
D03*
X381000D02*
D03*
X393700D02*
D03*
X406400D02*
D03*
Y115580D02*
D03*
X393700D02*
D03*
X381000D02*
D03*
X368300D02*
D03*
X355600D02*
D03*
X342900D02*
D03*
X330200D02*
D03*
X317500D02*
D03*
X304800D02*
D03*
D19*
X279400Y48483D02*
D03*
Y65500D02*
D03*
X38100Y171417D02*
D03*
Y154400D02*
D03*
D20*
X228709Y71850D02*
D03*
D21*
Y84550D02*
D03*
Y97250D02*
D03*
Y109950D02*
D03*
X177691D02*
D03*
Y97250D02*
D03*
Y84550D02*
D03*
Y71850D02*
D03*
D22*
X146557Y88900D02*
D03*
X129540D02*
D03*
D24*
X45720Y307960D02*
D03*
Y321960D02*
D03*
X25400Y307960D02*
D03*
Y321960D02*
D03*
D25*
X473200Y30480D02*
D03*
X568200D02*
D03*
D26*
X262900Y116300D02*
D03*
X279400D02*
D03*
X262900Y90900D02*
D03*
X279400D02*
D03*
D27*
X609600Y21600D02*
D03*
Y38100D02*
D03*
X431800Y21600D02*
D03*
Y38100D02*
D03*
D28*
X673100D02*
D03*
Y381000D02*
D03*
X38100Y38100D02*
D03*
Y381000D02*
D03*
D29*
Y268700D02*
D03*
Y243300D02*
D03*
D30*
Y217900D02*
D03*
D31*
X88900Y154400D02*
D03*
X114300Y306800D02*
D03*
X444500D02*
D03*
X114300Y281400D02*
D03*
Y154400D02*
D03*
X88900Y306800D02*
D03*
X139700D02*
D03*
X152400Y184900D02*
D03*
X177800D02*
D03*
X203200D02*
D03*
X228600D02*
D03*
X254000D02*
D03*
X546100Y281400D02*
D03*
Y256000D02*
D03*
Y230600D02*
D03*
Y205200D02*
D03*
Y179800D02*
D03*
X444500Y154400D02*
D03*
X469900Y306800D02*
D03*
X495300D02*
D03*
X520700D02*
D03*
X546100D02*
D03*
X571500D02*
D03*
X596900D02*
D03*
X622300D02*
D03*
X647700D02*
D03*
X673100D02*
D03*
Y154400D02*
D03*
X647700D02*
D03*
X622300D02*
D03*
X596900D02*
D03*
X571500D02*
D03*
X546100D02*
D03*
X520700D02*
D03*
X495300D02*
D03*
X469900D02*
D03*
X165100Y306800D02*
D03*
X190500D02*
D03*
X215900D02*
D03*
X241300D02*
D03*
X266700D02*
D03*
X292100D02*
D03*
X317500D02*
D03*
X342900D02*
D03*
X368300D02*
D03*
X393700D02*
D03*
X419100D02*
D03*
Y154400D02*
D03*
X393700D02*
D03*
X368300D02*
D03*
X342900D02*
D03*
X317500D02*
D03*
X292100D02*
D03*
X266700D02*
D03*
X241300D02*
D03*
X215900D02*
D03*
X190500D02*
D03*
X165100D02*
D03*
X139700D02*
D03*
D32*
X596300Y373550D02*
D03*
X571300D02*
D03*
X546300D02*
D03*
X563080Y104140D02*
D03*
X538080D02*
D03*
X513080D02*
D03*
X192240Y373380D02*
D03*
X167240D02*
D03*
X142240D02*
D03*
X461480D02*
D03*
X436480D02*
D03*
X411480D02*
D03*
X326860D02*
D03*
X301860D02*
D03*
X276860D02*
D03*
D33*
X521300Y373550D02*
D03*
X488080Y104140D02*
D03*
X117240Y373380D02*
D03*
X386480D02*
D03*
X251860D02*
D03*
D34*
X142240Y116840D02*
D03*
D35*
X116840D02*
D03*
M02*
