G04*
G04 #@! TF.GenerationSoftware,Altium Limited,Altium Designer,22.10.1 (41)*
G04*
G04 Layer_Color=65535*
%FSLAX44Y44*%
%MOMM*%
G71*
G04*
G04 #@! TF.SameCoordinates,295DBC84-E909-44D4-8D2A-457EB23B93A0*
G04*
G04*
G04 #@! TF.FilePolarity,Positive*
G04*
G01*
G75*
%ADD10C,0.2500*%
%ADD11C,0.2000*%
%ADD12C,0.1270*%
%ADD13C,0.2540*%
D10*
X50350Y197800D02*
G03*
X50350Y197800I-1250J0D01*
G01*
X492550Y373550D02*
G03*
X492550Y373550I-1250J0D01*
G01*
X459330Y104140D02*
G03*
X459330Y104140I-1250J0D01*
G01*
X306050Y5580D02*
G03*
X306050Y5580I-1250J0D01*
G01*
X246481Y71850D02*
G03*
X246481Y71850I-1250J0D01*
G01*
X162040Y116840D02*
G03*
X162040Y116840I-1250J0D01*
G01*
X88490Y373380D02*
G03*
X88490Y373380I-1250J0D01*
G01*
X357730D02*
G03*
X357730Y373380I-1250J0D01*
G01*
X223110D02*
G03*
X223110Y373380I-1250J0D01*
G01*
D11*
X139700Y135400D02*
G03*
X140700Y135400I500J0D01*
G01*
D02*
G03*
X139700Y135400I-500J0D01*
G01*
D02*
G03*
X140700Y135400I500J0D01*
G01*
X14600Y191300D02*
Y295300D01*
X9600Y191300D02*
X55600D01*
Y295300D01*
X9600D02*
X55600D01*
X9600Y191300D02*
Y295300D01*
X76200Y141700D02*
Y319500D01*
X685800D01*
Y141700D02*
Y319500D01*
X76200Y141700D02*
X685800D01*
X44850Y115090D02*
Y118590D01*
X31350Y115090D02*
Y118590D01*
X35100Y143090D02*
X41100D01*
X38100Y140090D02*
Y146090D01*
X496800Y339550D02*
X620800D01*
X496800D02*
Y397050D01*
X620800D01*
Y339550D02*
Y397050D01*
X463580Y70140D02*
X587580D01*
X463580D02*
Y127640D01*
X587580D01*
Y70140D02*
Y127640D01*
X296850Y30580D02*
Y106580D01*
X413150D02*
X414350D01*
X296850D02*
X298050D01*
X414350Y30580D02*
Y106580D01*
X413150Y30580D02*
X414350D01*
X296850D02*
X298050D01*
X273150Y56266D02*
Y57717D01*
X285650Y56266D02*
Y57717D01*
X193713Y66400D02*
X212687D01*
X193713D02*
Y115400D01*
X212687D01*
Y66400D02*
Y115400D01*
X102240Y103490D02*
X156840D01*
X102240D02*
Y130190D01*
X156840D01*
Y103490D02*
Y130190D01*
X137323Y82650D02*
X138774D01*
X137323Y95150D02*
X138774D01*
X44350Y162183D02*
Y163634D01*
X31850Y162183D02*
Y163634D01*
X92740Y339380D02*
X216740D01*
X92740D02*
Y396880D01*
X216740D01*
Y339380D02*
Y396880D01*
X361980Y339380D02*
X485980D01*
X361980D02*
Y396880D01*
X485980D01*
Y339380D02*
Y396880D01*
X227360Y339380D02*
X351360D01*
X227360D02*
Y396880D01*
X351360D01*
Y339380D02*
Y396880D01*
D12*
X577700Y43020D02*
Y54480D01*
X463700D02*
X577700D01*
X463700Y43020D02*
Y54480D01*
Y6480D02*
Y17940D01*
Y6480D02*
X577700D01*
Y17940D01*
D13*
X236221Y411478D02*
X231143D01*
X233682D01*
Y398782D01*
X231143Y396242D01*
X228603D01*
X226064Y398782D01*
X248917Y396242D02*
Y411478D01*
X241299Y403860D01*
X251456D01*
X55881Y347978D02*
X53342Y350518D01*
X48263D01*
X45724Y347978D01*
Y337822D01*
X48263Y335283D01*
X53342D01*
X55881Y337822D01*
X71116Y350518D02*
X66038Y347978D01*
X60959Y342900D01*
Y337822D01*
X63498Y335283D01*
X68577D01*
X71116Y337822D01*
Y340361D01*
X68577Y342900D01*
X60959D01*
X20321Y347978D02*
X17782Y350518D01*
X12703D01*
X10164Y347978D01*
Y337822D01*
X12703Y335283D01*
X17782D01*
X20321Y337822D01*
X35556Y350518D02*
X25399D01*
Y342900D01*
X30477Y345439D01*
X33017D01*
X35556Y342900D01*
Y337822D01*
X33017Y335283D01*
X27938D01*
X25399Y337822D01*
X439421Y132078D02*
X434342D01*
X436882D01*
Y119382D01*
X434342Y116842D01*
X431803D01*
X429264Y119382D01*
X454656Y132078D02*
X444499D01*
Y124460D01*
X449577Y126999D01*
X452117D01*
X454656Y124460D01*
Y119382D01*
X452117Y116842D01*
X447038D01*
X444499Y119382D01*
X508002Y48257D02*
Y45718D01*
X513080Y40640D01*
X518158Y45718D01*
Y48257D01*
X513080Y40640D02*
Y33022D01*
X25397Y154944D02*
X10162Y154944D01*
X10162Y162562D01*
X12702Y165101D01*
X17780Y165101D01*
X20319Y162562D01*
X20319Y154944D01*
X20319Y160022D02*
X25398Y165101D01*
X12702Y170179D02*
X10163Y172719D01*
X10163Y177797D01*
X12702Y180336D01*
X15241Y180336D01*
X17780Y177797D01*
X17780Y175257D01*
X17780Y177797D01*
X20319Y180336D01*
X22859Y180336D01*
X25398Y177796D01*
X25398Y172718D01*
X22858Y170179D01*
X264164Y25403D02*
Y40637D01*
X271782D01*
X274321Y38098D01*
Y33020D01*
X271782Y30481D01*
X264164D01*
X269242D02*
X274321Y25403D01*
X289556D02*
X279399D01*
X289556Y35559D01*
Y38098D01*
X287017Y40637D01*
X281938D01*
X279399Y38098D01*
X130432Y56423D02*
Y71658D01*
X138049D01*
X140589Y69118D01*
Y64040D01*
X138049Y61501D01*
X130432D01*
X135510D02*
X140589Y56423D01*
X145667D02*
X150745D01*
X148206D01*
Y71658D01*
X145667Y69118D01*
X347982Y56424D02*
X360678D01*
X363218Y58963D01*
Y64042D01*
X360678Y66581D01*
X347982D01*
X350522Y71659D02*
X347982Y74198D01*
Y79277D01*
X350522Y81816D01*
X353061D01*
X355600Y79277D01*
Y76737D01*
Y79277D01*
X358139Y81816D01*
X360678D01*
X363218Y79277D01*
Y74198D01*
X360678Y71659D01*
X205744Y137157D02*
Y124462D01*
X208283Y121923D01*
X213362D01*
X215901Y124462D01*
Y137157D01*
X231136Y121923D02*
X220979D01*
X231136Y132079D01*
Y134618D01*
X228597Y137157D01*
X223518D01*
X220979Y134618D01*
X58422Y231143D02*
X71118D01*
X73657Y233682D01*
Y238761D01*
X71118Y241300D01*
X58422D01*
X73657Y246378D02*
Y251457D01*
Y248918D01*
X58422D01*
X60962Y246378D01*
X180877Y129539D02*
Y134618D01*
Y132078D01*
X168182D01*
X165643Y134618D01*
Y137157D01*
X168182Y139696D01*
X180877Y114304D02*
X178338Y119382D01*
X173260Y124461D01*
X168182D01*
X165643Y121922D01*
Y116843D01*
X168182Y114304D01*
X170721D01*
X173260Y116843D01*
Y124461D01*
X373381Y411478D02*
X368302D01*
X370842D01*
Y398782D01*
X368302Y396242D01*
X365763D01*
X363224Y398782D01*
X378459Y408938D02*
X380998Y411478D01*
X386077D01*
X388616Y408938D01*
Y406399D01*
X386077Y403860D01*
X383537D01*
X386077D01*
X388616Y401321D01*
Y398782D01*
X386077Y396242D01*
X380998D01*
X378459Y398782D01*
X508001Y411478D02*
X502923D01*
X505462D01*
Y398782D01*
X502923Y396242D01*
X500383D01*
X497844Y398782D01*
X523236Y396242D02*
X513079D01*
X523236Y406399D01*
Y408938D01*
X520697Y411478D01*
X515618D01*
X513079Y408938D01*
X101600Y411478D02*
X96522D01*
X99061D01*
Y398782D01*
X96522Y396242D01*
X93982D01*
X91443Y398782D01*
X106678Y396242D02*
X111757D01*
X109218D01*
Y411478D01*
X106678Y408938D01*
X10162Y121917D02*
Y106683D01*
X17779D01*
X20318Y109222D01*
Y119378D01*
X17779Y121917D01*
X10162D01*
X292102Y81281D02*
X289562Y78742D01*
Y73663D01*
X292102Y71124D01*
X302258D01*
X304797Y73663D01*
Y78742D01*
X302258Y81281D01*
X304797Y93977D02*
X289562D01*
X297180Y86359D01*
Y96516D01*
X264161Y139698D02*
X261622Y142238D01*
X256543D01*
X254004Y139698D01*
Y129542D01*
X256543Y127002D01*
X261622D01*
X264161Y129542D01*
X269239Y139698D02*
X271778Y142238D01*
X276857D01*
X279396Y139698D01*
Y137159D01*
X276857Y134620D01*
X274317D01*
X276857D01*
X279396Y132081D01*
Y129542D01*
X276857Y127002D01*
X271778D01*
X269239Y129542D01*
X612137Y67306D02*
X609598Y69845D01*
X604519D01*
X601980Y67306D01*
Y57149D01*
X604519Y54610D01*
X609598D01*
X612137Y57149D01*
X627372Y54610D02*
X617215D01*
X627372Y64767D01*
Y67306D01*
X624833Y69845D01*
X619754D01*
X617215Y67306D01*
X434337D02*
X431797Y69845D01*
X426719D01*
X424180Y67306D01*
Y57149D01*
X426719Y54610D01*
X431797D01*
X434337Y57149D01*
X439415Y54610D02*
X444493D01*
X441954D01*
Y69845D01*
X439415Y67306D01*
X355603Y236217D02*
Y220982D01*
X363221D01*
X365760Y223522D01*
Y226061D01*
X363221Y228600D01*
X355603D01*
X363221D01*
X365760Y231139D01*
Y233678D01*
X363221Y236217D01*
X355603D01*
X370838Y220982D02*
X375917D01*
X373378D01*
Y236217D01*
X370838Y233678D01*
M02*
