G04*
G04 #@! TF.GenerationSoftware,Altium Limited,Altium Designer,22.10.1 (41)*
G04*
G04 Layer_Color=16711935*
%FSLAX44Y44*%
%MOMM*%
G71*
G04*
G04 #@! TF.SameCoordinates,51D38C2D-7858-46DE-8B48-74D45336439E*
G04*
G04*
G04 #@! TF.FilePolarity,Positive*
G04*
G01*
G75*
%ADD11C,0.2000*%
G36*
X42618Y114455D02*
X42611Y114385D01*
Y114302D01*
X42604Y114219D01*
X42597Y114032D01*
X42576Y113844D01*
X42555Y113657D01*
X42535Y113574D01*
X42521Y113498D01*
Y113491D01*
X42514Y113470D01*
X42507Y113442D01*
X42493Y113408D01*
X42479Y113359D01*
X42465Y113304D01*
X42417Y113172D01*
X42354Y113026D01*
X42278Y112874D01*
X42181Y112714D01*
X42063Y112562D01*
X42056Y112555D01*
X42042Y112541D01*
X42021Y112513D01*
X41987Y112478D01*
X41945Y112437D01*
X41890Y112388D01*
X41834Y112333D01*
X41765Y112277D01*
X41689Y112215D01*
X41605Y112153D01*
X41515Y112090D01*
X41418Y112028D01*
X41203Y111910D01*
X40967Y111806D01*
X40960D01*
X40940Y111792D01*
X40898Y111785D01*
X40850Y111764D01*
X40787Y111743D01*
X40711Y111723D01*
X40628Y111702D01*
X40531Y111674D01*
X40420Y111653D01*
X40302Y111632D01*
X40177Y111612D01*
X40045Y111591D01*
X39906Y111570D01*
X39761Y111563D01*
X39449Y111549D01*
X39442D01*
X39414D01*
X39380D01*
X39324D01*
X39262Y111556D01*
X39185D01*
X39102Y111563D01*
X39012Y111570D01*
X38811Y111591D01*
X38596Y111625D01*
X38374Y111667D01*
X38152Y111723D01*
X38145D01*
X38124Y111729D01*
X38097Y111743D01*
X38062Y111750D01*
X38014Y111771D01*
X37958Y111792D01*
X37826Y111840D01*
X37681Y111903D01*
X37521Y111979D01*
X37369Y112062D01*
X37223Y112159D01*
X37216D01*
X37209Y112173D01*
X37188Y112187D01*
X37161Y112208D01*
X37098Y112256D01*
X37015Y112333D01*
X36918Y112416D01*
X36821Y112513D01*
X36731Y112624D01*
X36641Y112742D01*
Y112749D01*
X36634Y112756D01*
X36606Y112797D01*
X36571Y112867D01*
X36523Y112957D01*
X36474Y113068D01*
X36419Y113200D01*
X36370Y113352D01*
X36322Y113512D01*
Y113518D01*
X36315Y113532D01*
Y113553D01*
X36308Y113588D01*
X36301Y113630D01*
X36287Y113685D01*
X36280Y113740D01*
X36273Y113803D01*
X36252Y113955D01*
X36231Y114129D01*
X36225Y114323D01*
X36218Y114531D01*
Y116840D01*
X42618D01*
Y114455D01*
D02*
G37*
G36*
X557219Y368293D02*
X557289Y368286D01*
X557372Y368272D01*
X557462Y368259D01*
X557559Y368238D01*
X557663Y368217D01*
X557767Y368182D01*
X557878Y368148D01*
X557982Y368099D01*
X558093Y368044D01*
X558190Y367981D01*
X558287Y367905D01*
X558377Y367822D01*
X558384Y367815D01*
X558398Y367801D01*
X558419Y367773D01*
X558447Y367732D01*
X558481Y367683D01*
X558516Y367621D01*
X558557Y367544D01*
X558599Y367461D01*
X558634Y367364D01*
X558675Y367260D01*
X558710Y367142D01*
X558745Y367010D01*
X558765Y366872D01*
X558786Y366719D01*
X558800Y366560D01*
Y366386D01*
X558037Y366275D01*
Y366282D01*
Y366310D01*
X558030Y366345D01*
Y366393D01*
X558023Y366456D01*
X558017Y366525D01*
X557996Y366678D01*
X557961Y366844D01*
X557912Y367010D01*
X557885Y367087D01*
X557850Y367163D01*
X557808Y367225D01*
X557767Y367281D01*
X557753Y367295D01*
X557718Y367322D01*
X557663Y367364D01*
X557587Y367412D01*
X557490Y367461D01*
X557372Y367503D01*
X557240Y367530D01*
X557087Y367544D01*
X557032D01*
X556976Y367537D01*
X556900Y367523D01*
X556810Y367510D01*
X556720Y367482D01*
X556630Y367447D01*
X556540Y367399D01*
X556526Y367392D01*
X556498Y367371D01*
X556463Y367336D01*
X556408Y367295D01*
X556359Y367239D01*
X556304Y367170D01*
X556255Y367094D01*
X556214Y367003D01*
X556207Y366990D01*
X556200Y366955D01*
X556186Y366893D01*
X556165Y366809D01*
X556151Y366698D01*
X556137Y366560D01*
X556130Y366400D01*
X556124Y366303D01*
Y366206D01*
Y361796D01*
X555278D01*
Y366157D01*
Y366164D01*
Y366192D01*
Y366234D01*
Y366289D01*
X555285Y366359D01*
Y366435D01*
X555291Y366525D01*
X555305Y366615D01*
X555326Y366816D01*
X555361Y367024D01*
X555409Y367225D01*
X555444Y367315D01*
X555479Y367406D01*
Y367412D01*
X555486Y367426D01*
X555499Y367447D01*
X555513Y367475D01*
X555562Y367558D01*
X555631Y367655D01*
X555714Y367759D01*
X555818Y367870D01*
X555950Y367974D01*
X556096Y368071D01*
X556103D01*
X556117Y368078D01*
X556137Y368092D01*
X556172Y368106D01*
X556207Y368127D01*
X556255Y368141D01*
X556311Y368161D01*
X556373Y368182D01*
X556519Y368231D01*
X556685Y368265D01*
X556872Y368293D01*
X557080Y368300D01*
X557164D01*
X557219Y368293D01*
D02*
G37*
G36*
X554321Y368182D02*
Y368148D01*
Y368092D01*
X554314Y368023D01*
X554307Y367939D01*
X554286Y367849D01*
X554265Y367752D01*
X554230Y367655D01*
Y367648D01*
X554224Y367634D01*
X554217Y367614D01*
X554203Y367579D01*
X554182Y367544D01*
X554161Y367496D01*
X554106Y367385D01*
X554036Y367253D01*
X553946Y367107D01*
X553842Y366955D01*
X553717Y366802D01*
X553710Y366795D01*
X553703Y366782D01*
X553683Y366761D01*
X553648Y366726D01*
X553613Y366691D01*
X553565Y366643D01*
X553516Y366587D01*
X553454Y366525D01*
X553385Y366456D01*
X553308Y366386D01*
X553225Y366303D01*
X553128Y366220D01*
X553031Y366130D01*
X552920Y366040D01*
X552809Y365942D01*
X552684Y365839D01*
X552670Y365832D01*
X552636Y365797D01*
X552587Y365755D01*
X552518Y365693D01*
X552435Y365624D01*
X552337Y365540D01*
X552226Y365450D01*
X552116Y365346D01*
X551880Y365131D01*
X551651Y364902D01*
X551540Y364791D01*
X551436Y364680D01*
X551346Y364576D01*
X551270Y364479D01*
X551263Y364472D01*
X551256Y364459D01*
X551235Y364431D01*
X551214Y364396D01*
X551179Y364348D01*
X551152Y364299D01*
X551082Y364174D01*
X551013Y364029D01*
X550951Y363869D01*
X550909Y363703D01*
X550902Y363619D01*
X550895Y363536D01*
Y363529D01*
Y363516D01*
Y363488D01*
X550902Y363460D01*
Y363419D01*
X550916Y363370D01*
X550937Y363266D01*
X550978Y363141D01*
X551041Y363009D01*
X551075Y362940D01*
X551124Y362878D01*
X551172Y362815D01*
X551235Y362753D01*
X551242Y362746D01*
X551249Y362739D01*
X551270Y362725D01*
X551297Y362704D01*
X551332Y362677D01*
X551374Y362649D01*
X551471Y362586D01*
X551602Y362531D01*
X551748Y362475D01*
X551921Y362441D01*
X552019Y362427D01*
X552171D01*
X552213Y362434D01*
X552261D01*
X552317Y362448D01*
X552441Y362468D01*
X552587Y362510D01*
X552740Y362573D01*
X552816Y362614D01*
X552892Y362656D01*
X552962Y362711D01*
X553031Y362774D01*
X553038Y362780D01*
X553045Y362787D01*
X553059Y362808D01*
X553086Y362836D01*
X553107Y362871D01*
X553135Y362912D01*
X553170Y362961D01*
X553197Y363016D01*
X553232Y363079D01*
X553260Y363148D01*
X553315Y363314D01*
X553357Y363495D01*
X553364Y363599D01*
X553371Y363710D01*
X554175Y363627D01*
Y363613D01*
X554168Y363585D01*
X554161Y363543D01*
X554154Y363481D01*
X554140Y363405D01*
X554119Y363314D01*
X554099Y363217D01*
X554064Y363113D01*
X554029Y363009D01*
X553988Y362892D01*
X553932Y362780D01*
X553877Y362670D01*
X553807Y362552D01*
X553731Y362448D01*
X553648Y362344D01*
X553551Y362253D01*
X553544Y362247D01*
X553523Y362233D01*
X553495Y362212D01*
X553454Y362177D01*
X553398Y362143D01*
X553329Y362101D01*
X553253Y362059D01*
X553163Y362011D01*
X553065Y361969D01*
X552955Y361928D01*
X552837Y361886D01*
X552705Y361851D01*
X552566Y361817D01*
X552421Y361796D01*
X552261Y361782D01*
X552095Y361775D01*
X552005D01*
X551942Y361782D01*
X551866Y361789D01*
X551776Y361803D01*
X551672Y361817D01*
X551568Y361838D01*
X551450Y361865D01*
X551332Y361900D01*
X551207Y361941D01*
X551089Y361990D01*
X550965Y362052D01*
X550847Y362122D01*
X550736Y362198D01*
X550632Y362288D01*
X550625Y362295D01*
X550611Y362309D01*
X550583Y362344D01*
X550548Y362378D01*
X550507Y362427D01*
X550458Y362489D01*
X550410Y362559D01*
X550361Y362642D01*
X550313Y362725D01*
X550264Y362822D01*
X550216Y362926D01*
X550174Y363037D01*
X550139Y363162D01*
X550112Y363287D01*
X550098Y363419D01*
X550091Y363557D01*
Y363564D01*
Y363571D01*
Y363592D01*
Y363619D01*
X550098Y363696D01*
X550112Y363793D01*
X550132Y363911D01*
X550160Y364036D01*
X550195Y364174D01*
X550250Y364313D01*
Y364320D01*
X550257Y364327D01*
X550264Y364348D01*
X550278Y364375D01*
X550320Y364452D01*
X550375Y364549D01*
X550451Y364667D01*
X550541Y364798D01*
X550645Y364937D01*
X550777Y365090D01*
X550784Y365097D01*
X550791Y365110D01*
X550819Y365131D01*
X550847Y365166D01*
X550888Y365207D01*
X550937Y365256D01*
X550992Y365318D01*
X551062Y365381D01*
X551145Y365457D01*
X551235Y365540D01*
X551332Y365637D01*
X551443Y365734D01*
X551561Y365845D01*
X551693Y365956D01*
X551838Y366081D01*
X551991Y366213D01*
X551998Y366220D01*
X552019Y366241D01*
X552060Y366268D01*
X552102Y366310D01*
X552164Y366359D01*
X552226Y366414D01*
X552372Y366539D01*
X552525Y366671D01*
X552670Y366809D01*
X552740Y366872D01*
X552802Y366927D01*
X552858Y366983D01*
X552899Y367024D01*
X552906Y367031D01*
X552934Y367059D01*
X552968Y367100D01*
X553017Y367156D01*
X553073Y367218D01*
X553128Y367288D01*
X553239Y367440D01*
X550084D01*
Y368196D01*
X554321D01*
Y368182D01*
D02*
G37*
G36*
X519083Y98883D02*
X519159Y98876D01*
X519242Y98862D01*
X519339Y98848D01*
X519443Y98828D01*
X519554Y98807D01*
X519672Y98772D01*
X519790Y98731D01*
X519908Y98682D01*
X520026Y98627D01*
X520144Y98564D01*
X520255Y98488D01*
X520366Y98405D01*
X520373Y98398D01*
X520386Y98384D01*
X520414Y98356D01*
X520449Y98315D01*
X520497Y98266D01*
X520546Y98211D01*
X520594Y98141D01*
X520650Y98058D01*
X520705Y97975D01*
X520761Y97878D01*
X520809Y97767D01*
X520858Y97656D01*
X520906Y97531D01*
X520941Y97399D01*
X520969Y97254D01*
X520990Y97108D01*
X520164Y97046D01*
Y97053D01*
X520158Y97073D01*
X520151Y97101D01*
X520144Y97143D01*
X520137Y97191D01*
X520116Y97254D01*
X520081Y97385D01*
X520026Y97531D01*
X519950Y97684D01*
X519859Y97822D01*
X519804Y97885D01*
X519748Y97947D01*
X519742D01*
X519735Y97961D01*
X519714Y97975D01*
X519686Y97996D01*
X519617Y98044D01*
X519520Y98093D01*
X519402Y98148D01*
X519263Y98197D01*
X519110Y98231D01*
X519027Y98238D01*
X518937Y98245D01*
X518882D01*
X518840Y98238D01*
X518792Y98231D01*
X518736Y98224D01*
X518604Y98190D01*
X518452Y98141D01*
X518376Y98107D01*
X518292Y98065D01*
X518209Y98016D01*
X518133Y97961D01*
X518056Y97899D01*
X517980Y97822D01*
X517973Y97815D01*
X517966Y97802D01*
X517946Y97781D01*
X517918Y97746D01*
X517890Y97697D01*
X517855Y97649D01*
X517821Y97586D01*
X517779Y97517D01*
X517744Y97441D01*
X517710Y97358D01*
X517675Y97261D01*
X517647Y97163D01*
X517620Y97053D01*
X517599Y96935D01*
X517592Y96817D01*
X517585Y96685D01*
Y96678D01*
Y96657D01*
Y96623D01*
X517592Y96574D01*
X517599Y96519D01*
X517606Y96449D01*
X517620Y96380D01*
X517634Y96297D01*
X517675Y96130D01*
X517744Y95950D01*
X517786Y95867D01*
X517842Y95784D01*
X517897Y95700D01*
X517966Y95624D01*
X517973Y95617D01*
X517980Y95610D01*
X518008Y95589D01*
X518036Y95562D01*
X518070Y95534D01*
X518119Y95499D01*
X518167Y95465D01*
X518230Y95423D01*
X518299Y95388D01*
X518369Y95354D01*
X518542Y95291D01*
X518632Y95264D01*
X518736Y95243D01*
X518840Y95236D01*
X518951Y95229D01*
X519013D01*
X519090Y95236D01*
X519180Y95250D01*
X519291Y95271D01*
X519409Y95305D01*
X519527Y95347D01*
X519645Y95409D01*
X519658Y95416D01*
X519693Y95437D01*
X519748Y95478D01*
X519818Y95527D01*
X519887Y95596D01*
X519970Y95673D01*
X520047Y95763D01*
X520116Y95860D01*
X520851Y95756D01*
X520234Y92469D01*
X517051D01*
Y93218D01*
X519610D01*
X519950Y94938D01*
X519943Y94931D01*
X519922Y94917D01*
X519894Y94903D01*
X519852Y94875D01*
X519797Y94847D01*
X519735Y94813D01*
X519665Y94771D01*
X519582Y94736D01*
X519499Y94702D01*
X519402Y94660D01*
X519201Y94598D01*
X519090Y94570D01*
X518979Y94549D01*
X518861Y94542D01*
X518743Y94535D01*
X518708D01*
X518660Y94542D01*
X518604D01*
X518535Y94556D01*
X518452Y94563D01*
X518355Y94584D01*
X518258Y94605D01*
X518147Y94640D01*
X518036Y94674D01*
X517918Y94723D01*
X517800Y94778D01*
X517682Y94847D01*
X517564Y94924D01*
X517446Y95014D01*
X517335Y95118D01*
X517328Y95125D01*
X517308Y95146D01*
X517280Y95180D01*
X517245Y95222D01*
X517197Y95277D01*
X517148Y95354D01*
X517100Y95430D01*
X517044Y95520D01*
X516989Y95624D01*
X516940Y95742D01*
X516885Y95860D01*
X516843Y95999D01*
X516808Y96137D01*
X516781Y96290D01*
X516760Y96449D01*
X516753Y96616D01*
Y96623D01*
Y96657D01*
Y96699D01*
X516760Y96761D01*
X516767Y96838D01*
X516781Y96921D01*
X516795Y97018D01*
X516815Y97129D01*
X516843Y97240D01*
X516878Y97365D01*
X516919Y97489D01*
X516968Y97614D01*
X517023Y97739D01*
X517093Y97871D01*
X517169Y97996D01*
X517259Y98113D01*
X517266Y98120D01*
X517287Y98148D01*
X517322Y98183D01*
X517370Y98231D01*
X517432Y98294D01*
X517509Y98356D01*
X517599Y98433D01*
X517703Y98502D01*
X517814Y98571D01*
X517939Y98647D01*
X518077Y98710D01*
X518230Y98765D01*
X518389Y98821D01*
X518563Y98855D01*
X518743Y98883D01*
X518937Y98890D01*
X519020D01*
X519083Y98883D01*
D02*
G37*
G36*
X523999D02*
X524068Y98876D01*
X524152Y98862D01*
X524242Y98848D01*
X524339Y98828D01*
X524443Y98807D01*
X524547Y98772D01*
X524658Y98738D01*
X524762Y98689D01*
X524873Y98634D01*
X524970Y98571D01*
X525067Y98495D01*
X525157Y98412D01*
X525164Y98405D01*
X525178Y98391D01*
X525199Y98363D01*
X525227Y98322D01*
X525261Y98273D01*
X525296Y98211D01*
X525337Y98134D01*
X525379Y98051D01*
X525414Y97954D01*
X525455Y97850D01*
X525490Y97732D01*
X525525Y97600D01*
X525546Y97462D01*
X525566Y97309D01*
X525580Y97150D01*
Y96976D01*
X524817Y96865D01*
Y96872D01*
Y96900D01*
X524810Y96935D01*
Y96983D01*
X524804Y97046D01*
X524797Y97115D01*
X524776Y97268D01*
X524741Y97434D01*
X524692Y97600D01*
X524665Y97677D01*
X524630Y97753D01*
X524589Y97815D01*
X524547Y97871D01*
X524533Y97885D01*
X524498Y97912D01*
X524443Y97954D01*
X524367Y98003D01*
X524270Y98051D01*
X524152Y98093D01*
X524020Y98120D01*
X523867Y98134D01*
X523812D01*
X523756Y98127D01*
X523680Y98113D01*
X523590Y98100D01*
X523500Y98072D01*
X523410Y98037D01*
X523320Y97989D01*
X523306Y97982D01*
X523278Y97961D01*
X523243Y97926D01*
X523188Y97885D01*
X523139Y97829D01*
X523084Y97760D01*
X523035Y97684D01*
X522994Y97593D01*
X522987Y97580D01*
X522980Y97545D01*
X522966Y97483D01*
X522945Y97399D01*
X522931Y97288D01*
X522917Y97150D01*
X522910Y96990D01*
X522904Y96893D01*
Y96796D01*
Y92386D01*
X522058D01*
Y96748D01*
Y96754D01*
Y96782D01*
Y96824D01*
Y96879D01*
X522065Y96948D01*
Y97025D01*
X522071Y97115D01*
X522085Y97205D01*
X522106Y97406D01*
X522141Y97614D01*
X522189Y97815D01*
X522224Y97906D01*
X522259Y97996D01*
Y98003D01*
X522266Y98016D01*
X522279Y98037D01*
X522293Y98065D01*
X522342Y98148D01*
X522411Y98245D01*
X522494Y98349D01*
X522598Y98460D01*
X522730Y98564D01*
X522876Y98661D01*
X522883D01*
X522897Y98668D01*
X522917Y98682D01*
X522952Y98696D01*
X522987Y98717D01*
X523035Y98731D01*
X523091Y98751D01*
X523153Y98772D01*
X523299Y98821D01*
X523465Y98855D01*
X523652Y98883D01*
X523860Y98890D01*
X523944D01*
X523999Y98883D01*
D02*
G37*
G36*
X353686Y78891D02*
X353742D01*
X353818Y78877D01*
X353901Y78863D01*
X353991Y78849D01*
X354095Y78822D01*
X354206Y78787D01*
X354317Y78745D01*
X354435Y78697D01*
X354553Y78635D01*
X354678Y78565D01*
X354796Y78482D01*
X354914Y78392D01*
X355024Y78281D01*
X355032Y78274D01*
X355052Y78253D01*
X355080Y78218D01*
X355115Y78170D01*
X355156Y78114D01*
X355205Y78038D01*
X355260Y77955D01*
X355309Y77858D01*
X355364Y77754D01*
X355420Y77636D01*
X355468Y77511D01*
X355510Y77372D01*
X355545Y77227D01*
X355572Y77074D01*
X355593Y76915D01*
X355600Y76741D01*
Y76707D01*
X355593Y76658D01*
Y76603D01*
X355586Y76526D01*
X355572Y76443D01*
X355559Y76353D01*
X355538Y76249D01*
X355510Y76138D01*
X355475Y76027D01*
X355441Y75909D01*
X355392Y75791D01*
X355330Y75674D01*
X355267Y75563D01*
X355191Y75445D01*
X355101Y75341D01*
X355094Y75334D01*
X355080Y75320D01*
X355052Y75292D01*
X355011Y75251D01*
X354962Y75209D01*
X354900Y75160D01*
X354830Y75112D01*
X354747Y75056D01*
X354664Y75001D01*
X354560Y74946D01*
X354456Y74890D01*
X354338Y74841D01*
X354213Y74800D01*
X354081Y74758D01*
X353943Y74731D01*
X353797Y74710D01*
X353693Y75493D01*
X353700D01*
X353721Y75500D01*
X353756Y75507D01*
X353804Y75521D01*
X353860Y75535D01*
X353922Y75549D01*
X354068Y75597D01*
X354227Y75660D01*
X354387Y75736D01*
X354532Y75833D01*
X354595Y75889D01*
X354657Y75944D01*
Y75951D01*
X354671Y75958D01*
X354685Y75979D01*
X354706Y75999D01*
X354747Y76069D01*
X354803Y76166D01*
X354858Y76284D01*
X354900Y76416D01*
X354934Y76575D01*
X354948Y76741D01*
Y76797D01*
X354941Y76838D01*
X354934Y76880D01*
X354927Y76943D01*
X354900Y77067D01*
X354858Y77220D01*
X354789Y77379D01*
X354740Y77456D01*
X354692Y77532D01*
X354636Y77608D01*
X354567Y77684D01*
X354560Y77691D01*
X354546Y77698D01*
X354525Y77719D01*
X354497Y77747D01*
X354463Y77775D01*
X354414Y77802D01*
X354366Y77837D01*
X354303Y77879D01*
X354165Y77948D01*
X354005Y78004D01*
X353818Y78052D01*
X353721Y78059D01*
X353617Y78066D01*
X353610D01*
X353596D01*
X353561D01*
X353527Y78059D01*
X353478Y78052D01*
X353430Y78045D01*
X353305Y78024D01*
X353159Y77976D01*
X353014Y77913D01*
X352937Y77872D01*
X352868Y77823D01*
X352799Y77768D01*
X352729Y77705D01*
X352722Y77698D01*
X352715Y77691D01*
X352695Y77671D01*
X352674Y77643D01*
X352646Y77608D01*
X352618Y77567D01*
X352549Y77463D01*
X352487Y77331D01*
X352431Y77178D01*
X352389Y77005D01*
X352383Y76908D01*
X352376Y76811D01*
Y76769D01*
X352383Y76721D01*
Y76658D01*
X352397Y76575D01*
X352410Y76485D01*
X352431Y76374D01*
X352459Y76256D01*
X351772Y76339D01*
Y76353D01*
X351779Y76388D01*
X351786Y76429D01*
Y76519D01*
X351779Y76554D01*
Y76603D01*
X351772Y76651D01*
X351752Y76769D01*
X351724Y76908D01*
X351675Y77060D01*
X351613Y77220D01*
X351523Y77372D01*
Y77379D01*
X351509Y77393D01*
X351495Y77407D01*
X351474Y77435D01*
X351412Y77504D01*
X351322Y77580D01*
X351211Y77650D01*
X351072Y77719D01*
X350996Y77747D01*
X350906Y77761D01*
X350816Y77775D01*
X350718Y77782D01*
X350712D01*
X350698D01*
X350677D01*
X350642Y77775D01*
X350566Y77768D01*
X350462Y77747D01*
X350351Y77712D01*
X350233Y77657D01*
X350108Y77580D01*
X350053Y77539D01*
X349997Y77483D01*
X349983Y77470D01*
X349956Y77428D01*
X349907Y77365D01*
X349852Y77282D01*
X349803Y77171D01*
X349754Y77040D01*
X349727Y76894D01*
X349713Y76728D01*
Y76686D01*
X349720Y76651D01*
Y76610D01*
X349727Y76568D01*
X349748Y76457D01*
X349782Y76339D01*
X349838Y76207D01*
X349907Y76083D01*
X350004Y75958D01*
X350018Y75944D01*
X350060Y75909D01*
X350122Y75854D01*
X350219Y75798D01*
X350337Y75729D01*
X350490Y75667D01*
X350663Y75611D01*
X350864Y75570D01*
X350725Y74786D01*
X350718D01*
X350691Y74793D01*
X350649Y74800D01*
X350594Y74814D01*
X350531Y74834D01*
X350455Y74855D01*
X350372Y74883D01*
X350281Y74918D01*
X350080Y75008D01*
X349983Y75056D01*
X349879Y75119D01*
X349782Y75188D01*
X349685Y75264D01*
X349588Y75348D01*
X349505Y75438D01*
X349498Y75445D01*
X349484Y75459D01*
X349463Y75493D01*
X349436Y75528D01*
X349401Y75583D01*
X349366Y75639D01*
X349325Y75708D01*
X349283Y75791D01*
X349248Y75875D01*
X349207Y75972D01*
X349172Y76076D01*
X349137Y76187D01*
X349110Y76311D01*
X349089Y76436D01*
X349075Y76568D01*
X349068Y76707D01*
Y76797D01*
X349075Y76845D01*
X349082Y76894D01*
X349096Y77026D01*
X349123Y77171D01*
X349165Y77338D01*
X349221Y77504D01*
X349297Y77671D01*
Y77677D01*
X349304Y77691D01*
X349318Y77712D01*
X349338Y77747D01*
X349387Y77823D01*
X349456Y77920D01*
X349547Y78031D01*
X349650Y78142D01*
X349768Y78253D01*
X349907Y78350D01*
X349914D01*
X349921Y78357D01*
X349949Y78371D01*
X349976Y78385D01*
X350011Y78406D01*
X350053Y78426D01*
X350157Y78468D01*
X350281Y78510D01*
X350420Y78551D01*
X350573Y78579D01*
X350732Y78586D01*
X350739D01*
X350753D01*
X350774D01*
X350802D01*
X350885Y78572D01*
X350982Y78558D01*
X351100Y78530D01*
X351225Y78489D01*
X351356Y78433D01*
X351488Y78357D01*
X351495D01*
X351502Y78350D01*
X351544Y78316D01*
X351606Y78267D01*
X351682Y78191D01*
X351772Y78101D01*
X351862Y77983D01*
X351946Y77851D01*
X352029Y77698D01*
Y77705D01*
X352036Y77726D01*
X352043Y77754D01*
X352057Y77795D01*
X352071Y77837D01*
X352091Y77892D01*
X352147Y78024D01*
X352223Y78163D01*
X352313Y78309D01*
X352431Y78454D01*
X352577Y78579D01*
X352584Y78586D01*
X352598Y78593D01*
X352618Y78607D01*
X352653Y78628D01*
X352688Y78655D01*
X352736Y78683D01*
X352792Y78711D01*
X352861Y78738D01*
X352930Y78766D01*
X353007Y78794D01*
X353180Y78849D01*
X353381Y78884D01*
X353492Y78898D01*
X353603D01*
X353610D01*
X353638D01*
X353686Y78891D01*
D02*
G37*
G36*
X353027Y73607D02*
X353118Y73600D01*
X353222Y73593D01*
X353340Y73586D01*
X353582Y73559D01*
X353839Y73524D01*
X354088Y73468D01*
X354206Y73434D01*
X354317Y73392D01*
X354324D01*
X354345Y73385D01*
X354373Y73371D01*
X354414Y73351D01*
X354463Y73323D01*
X354518Y73295D01*
X354643Y73212D01*
X354719Y73163D01*
X354789Y73108D01*
X354872Y73039D01*
X354948Y72969D01*
X355024Y72886D01*
X355101Y72803D01*
X355170Y72706D01*
X355239Y72602D01*
X355246Y72595D01*
X355253Y72574D01*
X355274Y72546D01*
X355295Y72498D01*
X355323Y72442D01*
X355350Y72373D01*
X355385Y72297D01*
X355413Y72200D01*
X355448Y72102D01*
X355482Y71992D01*
X355510Y71867D01*
X355538Y71735D01*
X355559Y71589D01*
X355579Y71437D01*
X355586Y71277D01*
X355593Y71111D01*
Y71021D01*
X355586Y70958D01*
Y70882D01*
X355579Y70799D01*
X355565Y70695D01*
X355551Y70591D01*
X355517Y70355D01*
X355461Y70105D01*
X355385Y69863D01*
X355344Y69745D01*
X355288Y69634D01*
X355281Y69627D01*
X355274Y69606D01*
X355253Y69578D01*
X355233Y69544D01*
X355198Y69495D01*
X355156Y69440D01*
X355115Y69384D01*
X355059Y69322D01*
X354934Y69183D01*
X354782Y69051D01*
X354602Y68927D01*
X354497Y68871D01*
X354394Y68823D01*
X354387D01*
X354366Y68816D01*
X354331Y68802D01*
X354283Y68788D01*
X354227Y68767D01*
X354151Y68746D01*
X354068Y68726D01*
X353970Y68705D01*
X353860Y68677D01*
X353742Y68656D01*
X353610Y68635D01*
X353464Y68622D01*
X353312Y68601D01*
X353145Y68594D01*
X352972Y68580D01*
X352785D01*
X349089D01*
Y69426D01*
X352785D01*
X352792D01*
X352820D01*
X352861D01*
X352924D01*
X352993Y69433D01*
X353069D01*
X353159Y69440D01*
X353249Y69447D01*
X353451Y69461D01*
X353652Y69488D01*
X353846Y69530D01*
X353936Y69551D01*
X354012Y69578D01*
X354019D01*
X354026Y69585D01*
X354047Y69592D01*
X354075Y69606D01*
X354151Y69648D01*
X354234Y69703D01*
X354338Y69773D01*
X354435Y69863D01*
X354532Y69974D01*
X354622Y70105D01*
Y70112D01*
X354629Y70126D01*
X354643Y70147D01*
X354657Y70175D01*
X354671Y70209D01*
X354685Y70258D01*
X354706Y70307D01*
X354726Y70362D01*
X354761Y70501D01*
X354796Y70660D01*
X354823Y70840D01*
X354830Y71035D01*
Y71125D01*
X354823Y71187D01*
X354817Y71263D01*
X354810Y71354D01*
X354796Y71451D01*
X354775Y71555D01*
X354726Y71770D01*
X354692Y71881D01*
X354650Y71992D01*
X354602Y72095D01*
X354546Y72193D01*
X354484Y72283D01*
X354407Y72366D01*
X354400Y72373D01*
X354387Y72387D01*
X354359Y72401D01*
X354324Y72428D01*
X354276Y72456D01*
X354213Y72491D01*
X354137Y72532D01*
X354047Y72567D01*
X353943Y72602D01*
X353825Y72643D01*
X353693Y72678D01*
X353548Y72706D01*
X353381Y72733D01*
X353201Y72754D01*
X353000Y72761D01*
X352785Y72768D01*
X349089D01*
Y73614D01*
X352785D01*
X352799D01*
X352826D01*
X352875D01*
X352944D01*
X353027Y73607D01*
D02*
G37*
G36*
X279400Y63010D02*
X279386D01*
X279352D01*
X279296D01*
X279227Y63017D01*
X279144Y63024D01*
X279053Y63045D01*
X278956Y63066D01*
X278859Y63100D01*
X278852D01*
X278838Y63107D01*
X278818Y63114D01*
X278783Y63128D01*
X278748Y63149D01*
X278700Y63170D01*
X278589Y63225D01*
X278457Y63295D01*
X278311Y63385D01*
X278159Y63489D01*
X278006Y63614D01*
X277999Y63620D01*
X277985Y63627D01*
X277965Y63648D01*
X277930Y63683D01*
X277895Y63717D01*
X277847Y63766D01*
X277791Y63815D01*
X277729Y63877D01*
X277660Y63946D01*
X277590Y64023D01*
X277507Y64106D01*
X277424Y64203D01*
X277334Y64300D01*
X277244Y64411D01*
X277146Y64522D01*
X277043Y64647D01*
X277036Y64661D01*
X277001Y64695D01*
X276959Y64744D01*
X276897Y64813D01*
X276828Y64896D01*
X276744Y64993D01*
X276654Y65104D01*
X276550Y65215D01*
X276335Y65451D01*
X276106Y65680D01*
X275995Y65791D01*
X275884Y65895D01*
X275780Y65985D01*
X275683Y66061D01*
X275676Y66068D01*
X275663Y66075D01*
X275635Y66096D01*
X275600Y66117D01*
X275552Y66151D01*
X275503Y66179D01*
X275378Y66248D01*
X275233Y66318D01*
X275073Y66380D01*
X274907Y66422D01*
X274823Y66429D01*
X274740Y66436D01*
X274733D01*
X274720D01*
X274692D01*
X274664Y66429D01*
X274622D01*
X274574Y66415D01*
X274470Y66394D01*
X274345Y66353D01*
X274213Y66290D01*
X274144Y66255D01*
X274082Y66207D01*
X274019Y66158D01*
X273957Y66096D01*
X273950Y66089D01*
X273943Y66082D01*
X273929Y66061D01*
X273908Y66034D01*
X273881Y65999D01*
X273853Y65957D01*
X273790Y65860D01*
X273735Y65728D01*
X273679Y65583D01*
X273645Y65409D01*
X273631Y65312D01*
Y65160D01*
X273638Y65118D01*
Y65070D01*
X273652Y65014D01*
X273673Y64889D01*
X273714Y64744D01*
X273776Y64591D01*
X273818Y64515D01*
X273860Y64439D01*
X273915Y64369D01*
X273978Y64300D01*
X273985Y64293D01*
X273991Y64286D01*
X274012Y64272D01*
X274040Y64244D01*
X274075Y64224D01*
X274116Y64196D01*
X274165Y64161D01*
X274220Y64134D01*
X274283Y64099D01*
X274352Y64071D01*
X274518Y64016D01*
X274699Y63974D01*
X274803Y63967D01*
X274914Y63960D01*
X274830Y63156D01*
X274817D01*
X274789Y63163D01*
X274747Y63170D01*
X274685Y63177D01*
X274609Y63190D01*
X274518Y63211D01*
X274421Y63232D01*
X274317Y63267D01*
X274213Y63301D01*
X274095Y63343D01*
X273985Y63398D01*
X273874Y63454D01*
X273756Y63523D01*
X273652Y63600D01*
X273548Y63683D01*
X273458Y63780D01*
X273451Y63787D01*
X273437Y63808D01*
X273416Y63835D01*
X273381Y63877D01*
X273347Y63932D01*
X273305Y64002D01*
X273263Y64078D01*
X273215Y64168D01*
X273173Y64265D01*
X273132Y64376D01*
X273090Y64494D01*
X273055Y64626D01*
X273021Y64764D01*
X273000Y64910D01*
X272986Y65070D01*
X272979Y65236D01*
Y65326D01*
X272986Y65389D01*
X272993Y65465D01*
X273007Y65555D01*
X273021Y65659D01*
X273041Y65763D01*
X273069Y65881D01*
X273104Y65999D01*
X273146Y66124D01*
X273194Y66241D01*
X273256Y66366D01*
X273326Y66484D01*
X273402Y66595D01*
X273492Y66699D01*
X273499Y66706D01*
X273513Y66720D01*
X273548Y66748D01*
X273582Y66782D01*
X273631Y66824D01*
X273693Y66873D01*
X273763Y66921D01*
X273846Y66970D01*
X273929Y67018D01*
X274026Y67067D01*
X274130Y67115D01*
X274241Y67157D01*
X274366Y67192D01*
X274491Y67219D01*
X274622Y67233D01*
X274761Y67240D01*
X274768D01*
X274775D01*
X274796D01*
X274823D01*
X274900Y67233D01*
X274997Y67219D01*
X275115Y67198D01*
X275240Y67171D01*
X275378Y67136D01*
X275517Y67081D01*
X275524D01*
X275531Y67074D01*
X275552Y67067D01*
X275579Y67053D01*
X275656Y67011D01*
X275753Y66956D01*
X275871Y66880D01*
X276002Y66789D01*
X276141Y66685D01*
X276294Y66554D01*
X276301Y66547D01*
X276314Y66540D01*
X276335Y66512D01*
X276370Y66484D01*
X276411Y66443D01*
X276460Y66394D01*
X276522Y66339D01*
X276585Y66269D01*
X276661Y66186D01*
X276744Y66096D01*
X276841Y65999D01*
X276938Y65888D01*
X277049Y65770D01*
X277160Y65638D01*
X277285Y65493D01*
X277417Y65340D01*
X277424Y65333D01*
X277445Y65312D01*
X277472Y65271D01*
X277514Y65229D01*
X277563Y65167D01*
X277618Y65104D01*
X277743Y64959D01*
X277875Y64806D01*
X278013Y64661D01*
X278076Y64591D01*
X278131Y64529D01*
X278187Y64473D01*
X278228Y64432D01*
X278235Y64425D01*
X278263Y64397D01*
X278305Y64362D01*
X278360Y64314D01*
X278422Y64258D01*
X278492Y64203D01*
X278644Y64092D01*
Y67247D01*
X279400D01*
Y63010D01*
D02*
G37*
G36*
Y61561D02*
X278069Y60715D01*
X278062Y60708D01*
X278041Y60701D01*
X278013Y60680D01*
X277972Y60653D01*
X277923Y60625D01*
X277868Y60583D01*
X277743Y60500D01*
X277597Y60403D01*
X277452Y60306D01*
X277313Y60202D01*
X277188Y60105D01*
X277181D01*
X277174Y60091D01*
X277140Y60063D01*
X277084Y60022D01*
X277022Y59959D01*
X276952Y59897D01*
X276883Y59820D01*
X276814Y59744D01*
X276765Y59675D01*
X276758Y59668D01*
X276744Y59640D01*
X276723Y59605D01*
X276696Y59557D01*
X276668Y59495D01*
X276640Y59432D01*
X276613Y59363D01*
X276592Y59286D01*
Y59280D01*
X276585Y59259D01*
X276578Y59224D01*
X276571Y59176D01*
Y59106D01*
X276564Y59023D01*
X276557Y58926D01*
Y57837D01*
X279400D01*
Y56991D01*
X273000D01*
Y59966D01*
X273007Y60042D01*
Y60119D01*
X273014Y60209D01*
X273021Y60313D01*
X273041Y60521D01*
X273076Y60736D01*
X273118Y60944D01*
X273146Y61034D01*
X273173Y61124D01*
Y61131D01*
X273180Y61145D01*
X273194Y61166D01*
X273208Y61200D01*
X273249Y61284D01*
X273312Y61381D01*
X273395Y61498D01*
X273506Y61616D01*
X273631Y61734D01*
X273783Y61838D01*
X273790D01*
X273804Y61852D01*
X273825Y61866D01*
X273860Y61880D01*
X273901Y61901D01*
X273950Y61922D01*
X274005Y61949D01*
X274068Y61977D01*
X274213Y62025D01*
X274373Y62067D01*
X274553Y62095D01*
X274747Y62109D01*
X274754D01*
X274775D01*
X274817D01*
X274858Y62102D01*
X274921Y62095D01*
X274990Y62088D01*
X275066Y62074D01*
X275149Y62053D01*
X275330Y61998D01*
X275427Y61963D01*
X275524Y61922D01*
X275621Y61873D01*
X275718Y61811D01*
X275808Y61741D01*
X275898Y61665D01*
X275905Y61658D01*
X275919Y61644D01*
X275940Y61616D01*
X275975Y61582D01*
X276009Y61533D01*
X276051Y61478D01*
X276099Y61408D01*
X276148Y61325D01*
X276196Y61235D01*
X276245Y61138D01*
X276294Y61027D01*
X276342Y60902D01*
X276384Y60770D01*
X276425Y60625D01*
X276460Y60465D01*
X276488Y60299D01*
Y60306D01*
X276495Y60313D01*
X276516Y60354D01*
X276550Y60417D01*
X276592Y60493D01*
X276640Y60576D01*
X276689Y60659D01*
X276751Y60743D01*
X276807Y60812D01*
X276814Y60819D01*
X276821Y60826D01*
X276841Y60847D01*
X276869Y60875D01*
X276904Y60909D01*
X276945Y60951D01*
X277043Y61041D01*
X277167Y61145D01*
X277313Y61263D01*
X277479Y61388D01*
X277660Y61512D01*
X279400Y62622D01*
Y61561D01*
D02*
G37*
G36*
X200822Y90893D02*
X200898D01*
X200981Y90886D01*
X201085Y90872D01*
X201189Y90858D01*
X201425Y90824D01*
X201675Y90768D01*
X201917Y90692D01*
X202035Y90651D01*
X202146Y90595D01*
X202153Y90588D01*
X202174Y90581D01*
X202202Y90560D01*
X202236Y90540D01*
X202285Y90505D01*
X202340Y90463D01*
X202396Y90422D01*
X202458Y90366D01*
X202597Y90241D01*
X202729Y90089D01*
X202853Y89909D01*
X202909Y89804D01*
X202957Y89700D01*
Y89694D01*
X202964Y89673D01*
X202978Y89638D01*
X202992Y89590D01*
X203013Y89534D01*
X203034Y89458D01*
X203055Y89375D01*
X203075Y89277D01*
X203103Y89167D01*
X203124Y89049D01*
X203145Y88917D01*
X203158Y88771D01*
X203179Y88619D01*
X203186Y88452D01*
X203200Y88279D01*
Y88092D01*
Y84396D01*
X202354D01*
Y88092D01*
Y88099D01*
Y88126D01*
Y88168D01*
Y88230D01*
X202347Y88300D01*
Y88376D01*
X202340Y88466D01*
X202333Y88556D01*
X202320Y88757D01*
X202292Y88959D01*
X202250Y89153D01*
X202229Y89243D01*
X202202Y89319D01*
Y89326D01*
X202195Y89333D01*
X202188Y89354D01*
X202174Y89382D01*
X202132Y89458D01*
X202077Y89541D01*
X202007Y89645D01*
X201917Y89742D01*
X201806Y89839D01*
X201675Y89929D01*
X201668D01*
X201654Y89936D01*
X201633Y89950D01*
X201605Y89964D01*
X201571Y89978D01*
X201522Y89992D01*
X201474Y90013D01*
X201418Y90033D01*
X201279Y90068D01*
X201120Y90103D01*
X200940Y90131D01*
X200745Y90137D01*
X200655D01*
X200593Y90131D01*
X200517Y90124D01*
X200426Y90117D01*
X200329Y90103D01*
X200225Y90082D01*
X200010Y90033D01*
X199899Y89999D01*
X199788Y89957D01*
X199685Y89909D01*
X199587Y89853D01*
X199497Y89791D01*
X199414Y89714D01*
X199407Y89707D01*
X199393Y89694D01*
X199379Y89666D01*
X199352Y89631D01*
X199324Y89583D01*
X199289Y89520D01*
X199248Y89444D01*
X199213Y89354D01*
X199178Y89250D01*
X199137Y89132D01*
X199102Y89000D01*
X199074Y88855D01*
X199046Y88688D01*
X199026Y88508D01*
X199019Y88307D01*
X199012Y88092D01*
Y84396D01*
X198166D01*
Y88092D01*
Y88106D01*
Y88133D01*
Y88182D01*
Y88251D01*
X198173Y88335D01*
X198180Y88425D01*
X198187Y88529D01*
X198194Y88646D01*
X198221Y88889D01*
X198256Y89146D01*
X198312Y89395D01*
X198346Y89513D01*
X198388Y89624D01*
Y89631D01*
X198395Y89652D01*
X198409Y89680D01*
X198429Y89721D01*
X198457Y89770D01*
X198485Y89825D01*
X198568Y89950D01*
X198617Y90026D01*
X198672Y90096D01*
X198741Y90179D01*
X198811Y90255D01*
X198894Y90331D01*
X198977Y90408D01*
X199074Y90477D01*
X199178Y90547D01*
X199185Y90553D01*
X199206Y90560D01*
X199234Y90581D01*
X199282Y90602D01*
X199338Y90630D01*
X199407Y90658D01*
X199483Y90692D01*
X199580Y90720D01*
X199678Y90754D01*
X199788Y90789D01*
X199913Y90817D01*
X200045Y90845D01*
X200191Y90865D01*
X200343Y90886D01*
X200503Y90893D01*
X200669Y90900D01*
X200759D01*
X200822Y90893D01*
D02*
G37*
G36*
X197181Y90782D02*
Y90748D01*
Y90692D01*
X197174Y90623D01*
X197167Y90540D01*
X197147Y90449D01*
X197126Y90352D01*
X197091Y90255D01*
Y90248D01*
X197084Y90234D01*
X197077Y90214D01*
X197063Y90179D01*
X197043Y90144D01*
X197022Y90096D01*
X196966Y89985D01*
X196897Y89853D01*
X196807Y89707D01*
X196703Y89555D01*
X196578Y89402D01*
X196571Y89395D01*
X196564Y89382D01*
X196543Y89361D01*
X196509Y89326D01*
X196474Y89291D01*
X196425Y89243D01*
X196377Y89187D01*
X196315Y89125D01*
X196245Y89056D01*
X196169Y88986D01*
X196086Y88903D01*
X195989Y88820D01*
X195891Y88730D01*
X195781Y88640D01*
X195670Y88542D01*
X195545Y88439D01*
X195531Y88432D01*
X195496Y88397D01*
X195448Y88355D01*
X195378Y88293D01*
X195295Y88223D01*
X195198Y88140D01*
X195087Y88050D01*
X194976Y87946D01*
X194740Y87731D01*
X194512Y87502D01*
X194401Y87391D01*
X194297Y87281D01*
X194207Y87177D01*
X194130Y87079D01*
X194123Y87072D01*
X194116Y87059D01*
X194095Y87031D01*
X194075Y86996D01*
X194040Y86948D01*
X194012Y86899D01*
X193943Y86774D01*
X193874Y86629D01*
X193811Y86469D01*
X193770Y86303D01*
X193763Y86220D01*
X193756Y86136D01*
Y86129D01*
Y86116D01*
Y86088D01*
X193763Y86060D01*
Y86018D01*
X193776Y85970D01*
X193797Y85866D01*
X193839Y85741D01*
X193901Y85609D01*
X193936Y85540D01*
X193985Y85478D01*
X194033Y85415D01*
X194095Y85353D01*
X194102Y85346D01*
X194109Y85339D01*
X194130Y85325D01*
X194158Y85304D01*
X194193Y85276D01*
X194234Y85249D01*
X194331Y85186D01*
X194463Y85131D01*
X194609Y85075D01*
X194782Y85041D01*
X194879Y85027D01*
X195032D01*
X195073Y85034D01*
X195122D01*
X195177Y85048D01*
X195302Y85069D01*
X195448Y85110D01*
X195600Y85173D01*
X195676Y85214D01*
X195753Y85256D01*
X195822Y85311D01*
X195891Y85374D01*
X195898Y85380D01*
X195905Y85387D01*
X195919Y85408D01*
X195947Y85436D01*
X195968Y85471D01*
X195996Y85512D01*
X196030Y85561D01*
X196058Y85616D01*
X196093Y85679D01*
X196120Y85748D01*
X196176Y85914D01*
X196217Y86095D01*
X196224Y86199D01*
X196231Y86310D01*
X197036Y86227D01*
Y86213D01*
X197029Y86185D01*
X197022Y86143D01*
X197015Y86081D01*
X197001Y86005D01*
X196980Y85914D01*
X196959Y85817D01*
X196925Y85713D01*
X196890Y85609D01*
X196848Y85492D01*
X196793Y85380D01*
X196737Y85270D01*
X196668Y85152D01*
X196592Y85048D01*
X196509Y84944D01*
X196411Y84853D01*
X196405Y84847D01*
X196384Y84833D01*
X196356Y84812D01*
X196315Y84777D01*
X196259Y84743D01*
X196190Y84701D01*
X196113Y84659D01*
X196023Y84611D01*
X195926Y84569D01*
X195815Y84528D01*
X195697Y84486D01*
X195566Y84451D01*
X195427Y84417D01*
X195281Y84396D01*
X195122Y84382D01*
X194955Y84375D01*
X194865D01*
X194803Y84382D01*
X194727Y84389D01*
X194636Y84403D01*
X194532Y84417D01*
X194428Y84438D01*
X194310Y84465D01*
X194193Y84500D01*
X194068Y84542D01*
X193950Y84590D01*
X193825Y84652D01*
X193707Y84722D01*
X193596Y84798D01*
X193492Y84888D01*
X193485Y84895D01*
X193471Y84909D01*
X193444Y84944D01*
X193409Y84978D01*
X193367Y85027D01*
X193319Y85089D01*
X193270Y85159D01*
X193222Y85242D01*
X193173Y85325D01*
X193125Y85422D01*
X193076Y85526D01*
X193035Y85637D01*
X193000Y85762D01*
X192972Y85887D01*
X192958Y86018D01*
X192951Y86157D01*
Y86164D01*
Y86171D01*
Y86192D01*
Y86220D01*
X192958Y86296D01*
X192972Y86393D01*
X192993Y86511D01*
X193021Y86636D01*
X193055Y86774D01*
X193111Y86913D01*
Y86920D01*
X193118Y86927D01*
X193125Y86948D01*
X193139Y86975D01*
X193180Y87052D01*
X193236Y87149D01*
X193312Y87267D01*
X193402Y87398D01*
X193506Y87537D01*
X193638Y87690D01*
X193645Y87697D01*
X193652Y87710D01*
X193680Y87731D01*
X193707Y87766D01*
X193749Y87808D01*
X193797Y87856D01*
X193853Y87918D01*
X193922Y87981D01*
X194005Y88057D01*
X194095Y88140D01*
X194193Y88237D01*
X194303Y88335D01*
X194421Y88445D01*
X194553Y88556D01*
X194699Y88681D01*
X194851Y88813D01*
X194858Y88820D01*
X194879Y88841D01*
X194921Y88868D01*
X194962Y88910D01*
X195025Y88959D01*
X195087Y89014D01*
X195233Y89139D01*
X195385Y89271D01*
X195531Y89409D01*
X195600Y89472D01*
X195663Y89527D01*
X195718Y89583D01*
X195760Y89624D01*
X195767Y89631D01*
X195794Y89659D01*
X195829Y89700D01*
X195878Y89756D01*
X195933Y89818D01*
X195989Y89888D01*
X196099Y90040D01*
X192944D01*
Y90796D01*
X197181D01*
Y90782D01*
D02*
G37*
G36*
X127959Y116833D02*
X128028Y116826D01*
X128112Y116812D01*
X128202Y116798D01*
X128299Y116778D01*
X128403Y116757D01*
X128507Y116722D01*
X128618Y116688D01*
X128722Y116639D01*
X128833Y116584D01*
X128930Y116521D01*
X129027Y116445D01*
X129117Y116362D01*
X129124Y116355D01*
X129138Y116341D01*
X129159Y116313D01*
X129186Y116271D01*
X129221Y116223D01*
X129256Y116161D01*
X129298Y116084D01*
X129339Y116001D01*
X129374Y115904D01*
X129415Y115800D01*
X129450Y115682D01*
X129485Y115550D01*
X129506Y115412D01*
X129526Y115259D01*
X129540Y115100D01*
Y114926D01*
X128777Y114815D01*
Y114822D01*
Y114850D01*
X128771Y114885D01*
Y114933D01*
X128764Y114996D01*
X128757Y115065D01*
X128736Y115218D01*
X128701Y115384D01*
X128653Y115550D01*
X128625Y115627D01*
X128590Y115703D01*
X128549Y115765D01*
X128507Y115821D01*
X128493Y115835D01*
X128458Y115862D01*
X128403Y115904D01*
X128327Y115953D01*
X128230Y116001D01*
X128112Y116043D01*
X127980Y116070D01*
X127827Y116084D01*
X127772D01*
X127717Y116077D01*
X127640Y116063D01*
X127550Y116050D01*
X127460Y116022D01*
X127370Y115987D01*
X127280Y115939D01*
X127266Y115932D01*
X127238Y115911D01*
X127203Y115876D01*
X127148Y115835D01*
X127099Y115779D01*
X127044Y115710D01*
X126995Y115634D01*
X126954Y115543D01*
X126947Y115530D01*
X126940Y115495D01*
X126926Y115433D01*
X126905Y115349D01*
X126891Y115238D01*
X126877Y115100D01*
X126870Y114940D01*
X126864Y114843D01*
Y114746D01*
Y110336D01*
X126018D01*
Y114698D01*
Y114704D01*
Y114732D01*
Y114774D01*
Y114829D01*
X126025Y114899D01*
Y114975D01*
X126031Y115065D01*
X126045Y115155D01*
X126066Y115356D01*
X126101Y115564D01*
X126149Y115765D01*
X126184Y115856D01*
X126219Y115946D01*
Y115953D01*
X126226Y115966D01*
X126240Y115987D01*
X126253Y116015D01*
X126302Y116098D01*
X126371Y116195D01*
X126454Y116299D01*
X126558Y116410D01*
X126690Y116514D01*
X126836Y116611D01*
X126843D01*
X126857Y116618D01*
X126877Y116632D01*
X126912Y116646D01*
X126947Y116667D01*
X126995Y116681D01*
X127051Y116701D01*
X127113Y116722D01*
X127259Y116771D01*
X127425Y116805D01*
X127612Y116833D01*
X127821Y116840D01*
X127904D01*
X127959Y116833D01*
D02*
G37*
G36*
X122870D02*
X122939Y116826D01*
X123022Y116819D01*
X123119Y116798D01*
X123223Y116778D01*
X123341Y116750D01*
X123466Y116708D01*
X123597Y116667D01*
X123729Y116604D01*
X123861Y116535D01*
X124000Y116452D01*
X124124Y116355D01*
X124256Y116244D01*
X124374Y116119D01*
X124381Y116112D01*
X124402Y116084D01*
X124430Y116043D01*
X124471Y115980D01*
X124520Y115904D01*
X124568Y115807D01*
X124624Y115689D01*
X124679Y115550D01*
X124742Y115398D01*
X124797Y115225D01*
X124846Y115030D01*
X124894Y114815D01*
X124936Y114580D01*
X124964Y114323D01*
X124984Y114046D01*
X124991Y113748D01*
Y113741D01*
Y113727D01*
Y113699D01*
Y113664D01*
Y113623D01*
X124984Y113567D01*
Y113512D01*
X124977Y113442D01*
X124971Y113290D01*
X124957Y113117D01*
X124936Y112922D01*
X124908Y112714D01*
X124867Y112492D01*
X124825Y112270D01*
X124769Y112049D01*
X124700Y111827D01*
X124624Y111612D01*
X124534Y111404D01*
X124423Y111216D01*
X124305Y111050D01*
X124298Y111043D01*
X124277Y111015D01*
X124242Y110981D01*
X124194Y110932D01*
X124138Y110877D01*
X124062Y110814D01*
X123979Y110752D01*
X123882Y110683D01*
X123771Y110613D01*
X123646Y110551D01*
X123514Y110488D01*
X123369Y110433D01*
X123216Y110384D01*
X123050Y110350D01*
X122876Y110322D01*
X122689Y110315D01*
X122613D01*
X122564Y110322D01*
X122502Y110329D01*
X122426Y110336D01*
X122343Y110350D01*
X122252Y110371D01*
X122051Y110419D01*
X121954Y110454D01*
X121843Y110495D01*
X121739Y110544D01*
X121642Y110606D01*
X121545Y110669D01*
X121448Y110745D01*
X121441Y110752D01*
X121427Y110766D01*
X121399Y110787D01*
X121372Y110821D01*
X121330Y110863D01*
X121288Y110918D01*
X121240Y110981D01*
X121191Y111050D01*
X121143Y111126D01*
X121094Y111216D01*
X121046Y111314D01*
X120997Y111418D01*
X120956Y111529D01*
X120921Y111646D01*
X120886Y111771D01*
X120865Y111910D01*
X121649Y111972D01*
Y111965D01*
X121656Y111952D01*
X121663Y111931D01*
X121670Y111896D01*
X121691Y111813D01*
X121725Y111716D01*
X121767Y111605D01*
X121822Y111494D01*
X121878Y111390D01*
X121947Y111300D01*
X121954Y111293D01*
X121961Y111286D01*
X121982Y111265D01*
X122003Y111244D01*
X122072Y111189D01*
X122169Y111126D01*
X122280Y111064D01*
X122419Y111015D01*
X122571Y110974D01*
X122654Y110967D01*
X122738Y110960D01*
X122800D01*
X122876Y110974D01*
X122966Y110988D01*
X123070Y111015D01*
X123181Y111050D01*
X123292Y111105D01*
X123403Y111175D01*
X123410D01*
X123417Y111189D01*
X123438Y111203D01*
X123466Y111223D01*
X123528Y111286D01*
X123611Y111376D01*
X123708Y111487D01*
X123806Y111626D01*
X123896Y111785D01*
X123986Y111965D01*
Y111972D01*
X123993Y111986D01*
X124007Y112021D01*
X124021Y112063D01*
X124034Y112111D01*
X124055Y112180D01*
X124076Y112257D01*
X124097Y112340D01*
X124118Y112437D01*
X124131Y112548D01*
X124152Y112673D01*
X124173Y112804D01*
X124187Y112943D01*
X124194Y113096D01*
X124201Y113262D01*
X124207Y113428D01*
X124194Y113415D01*
X124180Y113394D01*
X124159Y113366D01*
X124097Y113290D01*
X124021Y113193D01*
X123917Y113089D01*
X123799Y112985D01*
X123667Y112888D01*
X123521Y112797D01*
X123514D01*
X123500Y112791D01*
X123480Y112777D01*
X123452Y112763D01*
X123410Y112749D01*
X123369Y112728D01*
X123258Y112687D01*
X123126Y112652D01*
X122980Y112617D01*
X122821Y112590D01*
X122654Y112583D01*
X122620D01*
X122578Y112590D01*
X122523D01*
X122453Y112603D01*
X122377Y112610D01*
X122287Y112631D01*
X122190Y112652D01*
X122093Y112687D01*
X121982Y112721D01*
X121871Y112770D01*
X121760Y112825D01*
X121642Y112895D01*
X121531Y112971D01*
X121420Y113061D01*
X121316Y113165D01*
X121309Y113172D01*
X121295Y113193D01*
X121268Y113221D01*
X121226Y113269D01*
X121184Y113324D01*
X121143Y113394D01*
X121087Y113477D01*
X121039Y113567D01*
X120990Y113671D01*
X120935Y113782D01*
X120893Y113907D01*
X120845Y114039D01*
X120810Y114177D01*
X120782Y114330D01*
X120768Y114489D01*
X120761Y114656D01*
Y114663D01*
Y114684D01*
Y114711D01*
X120768Y114760D01*
Y114808D01*
X120775Y114871D01*
X120782Y114947D01*
X120796Y115023D01*
X120824Y115197D01*
X120872Y115384D01*
X120935Y115578D01*
X121025Y115779D01*
Y115786D01*
X121039Y115800D01*
X121053Y115828D01*
X121074Y115862D01*
X121101Y115904D01*
X121129Y115953D01*
X121212Y116070D01*
X121309Y116195D01*
X121434Y116327D01*
X121580Y116459D01*
X121739Y116570D01*
X121746D01*
X121760Y116584D01*
X121788Y116597D01*
X121822Y116611D01*
X121864Y116632D01*
X121912Y116653D01*
X121975Y116681D01*
X122037Y116701D01*
X122190Y116757D01*
X122370Y116798D01*
X122564Y116826D01*
X122772Y116840D01*
X122814D01*
X122870Y116833D01*
D02*
G37*
G36*
X138049Y82500D02*
X135074D01*
X134998Y82507D01*
X134921D01*
X134831Y82514D01*
X134727Y82521D01*
X134519Y82542D01*
X134304Y82576D01*
X134096Y82618D01*
X134006Y82646D01*
X133916Y82673D01*
X133909D01*
X133895Y82680D01*
X133874Y82694D01*
X133840Y82708D01*
X133756Y82750D01*
X133659Y82812D01*
X133541Y82895D01*
X133424Y83006D01*
X133306Y83131D01*
X133202Y83284D01*
Y83290D01*
X133188Y83304D01*
X133174Y83325D01*
X133160Y83360D01*
X133139Y83401D01*
X133118Y83450D01*
X133091Y83505D01*
X133063Y83568D01*
X133014Y83713D01*
X132973Y83873D01*
X132945Y84053D01*
X132931Y84247D01*
Y84254D01*
Y84275D01*
Y84317D01*
X132938Y84358D01*
X132945Y84421D01*
X132952Y84490D01*
X132966Y84566D01*
X132987Y84649D01*
X133042Y84830D01*
X133077Y84927D01*
X133118Y85024D01*
X133167Y85121D01*
X133229Y85218D01*
X133299Y85308D01*
X133375Y85398D01*
X133382Y85405D01*
X133396Y85419D01*
X133424Y85440D01*
X133458Y85475D01*
X133507Y85509D01*
X133562Y85551D01*
X133631Y85599D01*
X133715Y85648D01*
X133805Y85697D01*
X133902Y85745D01*
X134013Y85794D01*
X134138Y85842D01*
X134269Y85884D01*
X134415Y85925D01*
X134574Y85960D01*
X134741Y85988D01*
X134734D01*
X134727Y85995D01*
X134685Y86016D01*
X134623Y86050D01*
X134547Y86092D01*
X134464Y86140D01*
X134380Y86189D01*
X134297Y86251D01*
X134228Y86307D01*
X134221Y86314D01*
X134214Y86321D01*
X134193Y86341D01*
X134165Y86369D01*
X134131Y86404D01*
X134089Y86445D01*
X133999Y86543D01*
X133895Y86667D01*
X133777Y86813D01*
X133652Y86979D01*
X133527Y87160D01*
X132418Y88900D01*
X133479D01*
X134325Y87569D01*
X134332Y87562D01*
X134339Y87541D01*
X134360Y87513D01*
X134387Y87472D01*
X134415Y87423D01*
X134457Y87368D01*
X134540Y87243D01*
X134637Y87097D01*
X134734Y86952D01*
X134838Y86813D01*
X134935Y86688D01*
Y86681D01*
X134949Y86674D01*
X134977Y86640D01*
X135018Y86584D01*
X135081Y86522D01*
X135143Y86452D01*
X135219Y86383D01*
X135296Y86314D01*
X135365Y86265D01*
X135372Y86258D01*
X135400Y86244D01*
X135434Y86224D01*
X135483Y86196D01*
X135545Y86168D01*
X135608Y86140D01*
X135677Y86113D01*
X135753Y86092D01*
X135760D01*
X135781Y86085D01*
X135816Y86078D01*
X135864Y86071D01*
X135934D01*
X136017Y86064D01*
X136114Y86057D01*
X137203D01*
Y88900D01*
X138049D01*
Y82500D01*
D02*
G37*
G36*
X129748Y83901D02*
X129762Y83914D01*
X129797Y83949D01*
X129859Y83998D01*
X129949Y84067D01*
X130053Y84150D01*
X130185Y84240D01*
X130331Y84337D01*
X130497Y84441D01*
X130504D01*
X130518Y84455D01*
X130539Y84469D01*
X130574Y84483D01*
X130615Y84511D01*
X130664Y84532D01*
X130775Y84594D01*
X130899Y84656D01*
X131038Y84726D01*
X131184Y84788D01*
X131322Y84844D01*
Y84088D01*
X131315Y84081D01*
X131295Y84074D01*
X131260Y84053D01*
X131211Y84032D01*
X131156Y84005D01*
X131087Y83963D01*
X131010Y83921D01*
X130934Y83880D01*
X130754Y83769D01*
X130560Y83637D01*
X130358Y83498D01*
X130171Y83339D01*
X130164Y83332D01*
X130150Y83318D01*
X130123Y83297D01*
X130088Y83263D01*
X130053Y83221D01*
X130005Y83179D01*
X129901Y83062D01*
X129783Y82937D01*
X129665Y82791D01*
X129561Y82639D01*
X129471Y82479D01*
X128965D01*
Y88900D01*
X129748D01*
Y83901D01*
D02*
G37*
G36*
X44611Y159934D02*
X44604Y159858D01*
Y159781D01*
X44597Y159691D01*
X44590Y159587D01*
X44570Y159379D01*
X44535Y159164D01*
X44493Y158956D01*
X44465Y158866D01*
X44438Y158776D01*
Y158769D01*
X44431Y158755D01*
X44417Y158734D01*
X44403Y158700D01*
X44362Y158616D01*
X44299Y158519D01*
X44216Y158401D01*
X44105Y158284D01*
X43980Y158166D01*
X43828Y158062D01*
X43821D01*
X43807Y158048D01*
X43786Y158034D01*
X43751Y158020D01*
X43710Y157999D01*
X43661Y157978D01*
X43606Y157951D01*
X43543Y157923D01*
X43398Y157874D01*
X43238Y157833D01*
X43058Y157805D01*
X42864Y157791D01*
X42857D01*
X42836D01*
X42794D01*
X42753Y157798D01*
X42690Y157805D01*
X42621Y157812D01*
X42545Y157826D01*
X42462Y157847D01*
X42281Y157902D01*
X42184Y157937D01*
X42087Y157978D01*
X41990Y158027D01*
X41893Y158089D01*
X41803Y158159D01*
X41713Y158235D01*
X41706Y158242D01*
X41692Y158256D01*
X41671Y158284D01*
X41636Y158318D01*
X41602Y158367D01*
X41560Y158422D01*
X41512Y158492D01*
X41463Y158575D01*
X41414Y158665D01*
X41366Y158762D01*
X41317Y158873D01*
X41269Y158998D01*
X41227Y159129D01*
X41186Y159275D01*
X41151Y159435D01*
X41123Y159601D01*
Y159594D01*
X41116Y159587D01*
X41095Y159546D01*
X41061Y159483D01*
X41019Y159407D01*
X40971Y159324D01*
X40922Y159241D01*
X40860Y159157D01*
X40804Y159088D01*
X40797Y159081D01*
X40790Y159074D01*
X40770Y159053D01*
X40742Y159025D01*
X40707Y158991D01*
X40665Y158949D01*
X40568Y158859D01*
X40444Y158755D01*
X40298Y158637D01*
X40132Y158512D01*
X39951Y158388D01*
X38211Y157278D01*
Y158339D01*
X39542Y159185D01*
X39549Y159192D01*
X39570Y159199D01*
X39598Y159220D01*
X39639Y159247D01*
X39688Y159275D01*
X39743Y159317D01*
X39868Y159400D01*
X40014Y159497D01*
X40159Y159594D01*
X40298Y159698D01*
X40423Y159795D01*
X40430D01*
X40437Y159809D01*
X40471Y159837D01*
X40527Y159878D01*
X40589Y159941D01*
X40659Y160003D01*
X40728Y160079D01*
X40797Y160156D01*
X40846Y160225D01*
X40853Y160232D01*
X40867Y160260D01*
X40887Y160294D01*
X40915Y160343D01*
X40943Y160405D01*
X40971Y160468D01*
X40998Y160537D01*
X41019Y160613D01*
Y160620D01*
X41026Y160641D01*
X41033Y160676D01*
X41040Y160724D01*
Y160794D01*
X41047Y160877D01*
X41054Y160974D01*
Y162063D01*
X38211D01*
Y162909D01*
X44611D01*
Y159934D01*
D02*
G37*
G36*
X40007Y155995D02*
X40000D01*
X39979Y155988D01*
X39944Y155981D01*
X39896Y155968D01*
X39840Y155954D01*
X39778Y155940D01*
X39632Y155891D01*
X39473Y155829D01*
X39313Y155753D01*
X39168Y155655D01*
X39105Y155600D01*
X39043Y155545D01*
Y155538D01*
X39029Y155531D01*
X39015Y155510D01*
X38994Y155489D01*
X38953Y155420D01*
X38897Y155323D01*
X38842Y155205D01*
X38800Y155073D01*
X38766Y154914D01*
X38752Y154747D01*
Y154692D01*
X38759Y154650D01*
X38766Y154608D01*
X38772Y154546D01*
X38800Y154421D01*
X38842Y154269D01*
X38911Y154109D01*
X38960Y154033D01*
X39008Y153957D01*
X39064Y153880D01*
X39133Y153804D01*
X39140Y153797D01*
X39154Y153790D01*
X39175Y153769D01*
X39202Y153742D01*
X39237Y153714D01*
X39286Y153686D01*
X39334Y153652D01*
X39397Y153610D01*
X39535Y153541D01*
X39695Y153485D01*
X39882Y153436D01*
X39979Y153430D01*
X40083Y153423D01*
X40090D01*
X40104D01*
X40139D01*
X40173Y153430D01*
X40222Y153436D01*
X40270Y153443D01*
X40395Y153464D01*
X40541Y153513D01*
X40686Y153575D01*
X40763Y153617D01*
X40832Y153665D01*
X40901Y153721D01*
X40971Y153783D01*
X40978Y153790D01*
X40985Y153797D01*
X41005Y153818D01*
X41026Y153846D01*
X41054Y153880D01*
X41082Y153922D01*
X41151Y154026D01*
X41213Y154158D01*
X41269Y154310D01*
X41310Y154484D01*
X41317Y154581D01*
X41324Y154678D01*
Y154719D01*
X41317Y154768D01*
Y154830D01*
X41304Y154914D01*
X41290Y155004D01*
X41269Y155115D01*
X41241Y155232D01*
X41928Y155149D01*
Y155135D01*
X41921Y155101D01*
X41914Y155059D01*
Y154969D01*
X41921Y154934D01*
Y154886D01*
X41928Y154837D01*
X41948Y154719D01*
X41976Y154581D01*
X42025Y154428D01*
X42087Y154269D01*
X42177Y154116D01*
Y154109D01*
X42191Y154095D01*
X42205Y154081D01*
X42226Y154054D01*
X42288Y153984D01*
X42378Y153908D01*
X42489Y153839D01*
X42628Y153769D01*
X42704Y153742D01*
X42794Y153728D01*
X42884Y153714D01*
X42982Y153707D01*
X42989D01*
X43002D01*
X43023D01*
X43058Y153714D01*
X43134Y153721D01*
X43238Y153742D01*
X43349Y153776D01*
X43467Y153832D01*
X43592Y153908D01*
X43647Y153950D01*
X43703Y154005D01*
X43717Y154019D01*
X43744Y154061D01*
X43793Y154123D01*
X43848Y154206D01*
X43897Y154317D01*
X43945Y154449D01*
X43973Y154595D01*
X43987Y154761D01*
Y154803D01*
X43980Y154837D01*
Y154879D01*
X43973Y154921D01*
X43952Y155031D01*
X43918Y155149D01*
X43862Y155281D01*
X43793Y155406D01*
X43696Y155531D01*
X43682Y155545D01*
X43640Y155579D01*
X43578Y155635D01*
X43481Y155690D01*
X43363Y155759D01*
X43210Y155822D01*
X43037Y155877D01*
X42836Y155919D01*
X42975Y156703D01*
X42982D01*
X43009Y156696D01*
X43051Y156689D01*
X43106Y156675D01*
X43169Y156654D01*
X43245Y156633D01*
X43328Y156606D01*
X43418Y156571D01*
X43619Y156481D01*
X43717Y156432D01*
X43821Y156370D01*
X43918Y156300D01*
X44015Y156224D01*
X44112Y156141D01*
X44195Y156051D01*
X44202Y156044D01*
X44216Y156030D01*
X44237Y155995D01*
X44264Y155961D01*
X44299Y155905D01*
X44334Y155850D01*
X44375Y155780D01*
X44417Y155697D01*
X44452Y155614D01*
X44493Y155517D01*
X44528Y155413D01*
X44563Y155302D01*
X44590Y155177D01*
X44611Y155052D01*
X44625Y154921D01*
X44632Y154782D01*
Y154692D01*
X44625Y154643D01*
X44618Y154595D01*
X44604Y154463D01*
X44576Y154317D01*
X44535Y154151D01*
X44479Y153984D01*
X44403Y153818D01*
Y153811D01*
X44396Y153797D01*
X44382Y153776D01*
X44362Y153742D01*
X44313Y153665D01*
X44244Y153568D01*
X44153Y153457D01*
X44049Y153346D01*
X43931Y153236D01*
X43793Y153138D01*
X43786D01*
X43779Y153131D01*
X43751Y153118D01*
X43724Y153104D01*
X43689Y153083D01*
X43647Y153062D01*
X43543Y153020D01*
X43418Y152979D01*
X43280Y152937D01*
X43127Y152909D01*
X42968Y152903D01*
X42961D01*
X42947D01*
X42926D01*
X42898D01*
X42815Y152916D01*
X42718Y152930D01*
X42600Y152958D01*
X42475Y153000D01*
X42344Y153055D01*
X42212Y153131D01*
X42205D01*
X42198Y153138D01*
X42156Y153173D01*
X42094Y153222D01*
X42018Y153298D01*
X41928Y153388D01*
X41837Y153506D01*
X41754Y153638D01*
X41671Y153790D01*
Y153783D01*
X41664Y153763D01*
X41657Y153735D01*
X41643Y153693D01*
X41629Y153652D01*
X41609Y153596D01*
X41553Y153464D01*
X41477Y153326D01*
X41387Y153180D01*
X41269Y153034D01*
X41123Y152909D01*
X41116Y152903D01*
X41102Y152896D01*
X41082Y152882D01*
X41047Y152861D01*
X41012Y152833D01*
X40964Y152806D01*
X40908Y152778D01*
X40839Y152750D01*
X40770Y152722D01*
X40693Y152695D01*
X40520Y152639D01*
X40319Y152604D01*
X40208Y152591D01*
X40097D01*
X40090D01*
X40062D01*
X40014Y152598D01*
X39958D01*
X39882Y152611D01*
X39799Y152625D01*
X39709Y152639D01*
X39605Y152667D01*
X39494Y152702D01*
X39383Y152743D01*
X39265Y152792D01*
X39147Y152854D01*
X39022Y152923D01*
X38904Y153007D01*
X38786Y153097D01*
X38675Y153208D01*
X38668Y153215D01*
X38648Y153236D01*
X38620Y153270D01*
X38585Y153319D01*
X38544Y153374D01*
X38495Y153450D01*
X38440Y153534D01*
X38391Y153631D01*
X38336Y153735D01*
X38280Y153853D01*
X38232Y153977D01*
X38190Y154116D01*
X38155Y154262D01*
X38128Y154414D01*
X38107Y154574D01*
X38100Y154747D01*
Y154782D01*
X38107Y154830D01*
Y154886D01*
X38114Y154962D01*
X38128Y155045D01*
X38142Y155135D01*
X38162Y155239D01*
X38190Y155350D01*
X38225Y155461D01*
X38259Y155579D01*
X38308Y155697D01*
X38370Y155815D01*
X38433Y155926D01*
X38509Y156044D01*
X38599Y156148D01*
X38606Y156155D01*
X38620Y156169D01*
X38648Y156196D01*
X38689Y156238D01*
X38738Y156280D01*
X38800Y156328D01*
X38870Y156377D01*
X38953Y156432D01*
X39036Y156488D01*
X39140Y156543D01*
X39244Y156599D01*
X39362Y156647D01*
X39487Y156689D01*
X39618Y156730D01*
X39757Y156758D01*
X39903Y156779D01*
X40007Y155995D01*
D02*
G37*
G36*
X153159Y368123D02*
X153228Y368116D01*
X153312Y368102D01*
X153402Y368088D01*
X153499Y368068D01*
X153603Y368047D01*
X153707Y368012D01*
X153818Y367978D01*
X153922Y367929D01*
X154033Y367874D01*
X154130Y367811D01*
X154227Y367735D01*
X154317Y367652D01*
X154324Y367645D01*
X154338Y367631D01*
X154359Y367603D01*
X154386Y367561D01*
X154421Y367513D01*
X154456Y367451D01*
X154497Y367374D01*
X154539Y367291D01*
X154574Y367194D01*
X154615Y367090D01*
X154650Y366972D01*
X154685Y366840D01*
X154705Y366702D01*
X154726Y366549D01*
X154740Y366390D01*
Y366216D01*
X153977Y366105D01*
Y366112D01*
Y366140D01*
X153970Y366175D01*
Y366223D01*
X153963Y366286D01*
X153956Y366355D01*
X153936Y366507D01*
X153901Y366674D01*
X153853Y366840D01*
X153825Y366917D01*
X153790Y366993D01*
X153749Y367055D01*
X153707Y367111D01*
X153693Y367125D01*
X153658Y367152D01*
X153603Y367194D01*
X153527Y367243D01*
X153429Y367291D01*
X153312Y367333D01*
X153180Y367360D01*
X153027Y367374D01*
X152972D01*
X152916Y367367D01*
X152840Y367354D01*
X152750Y367340D01*
X152660Y367312D01*
X152570Y367277D01*
X152479Y367229D01*
X152466Y367222D01*
X152438Y367201D01*
X152403Y367166D01*
X152348Y367125D01*
X152299Y367069D01*
X152244Y367000D01*
X152195Y366924D01*
X152154Y366833D01*
X152147Y366820D01*
X152140Y366785D01*
X152126Y366722D01*
X152105Y366639D01*
X152091Y366528D01*
X152077Y366390D01*
X152070Y366230D01*
X152064Y366133D01*
Y366036D01*
Y361626D01*
X151217D01*
Y365988D01*
Y365994D01*
Y366022D01*
Y366064D01*
Y366119D01*
X151224Y366189D01*
Y366265D01*
X151231Y366355D01*
X151245Y366445D01*
X151266Y366646D01*
X151301Y366854D01*
X151349Y367055D01*
X151384Y367146D01*
X151419Y367236D01*
Y367243D01*
X151426Y367256D01*
X151439Y367277D01*
X151453Y367305D01*
X151502Y367388D01*
X151571Y367485D01*
X151654Y367589D01*
X151758Y367700D01*
X151890Y367804D01*
X152036Y367901D01*
X152043D01*
X152057Y367908D01*
X152077Y367922D01*
X152112Y367936D01*
X152147Y367957D01*
X152195Y367971D01*
X152251Y367991D01*
X152313Y368012D01*
X152459Y368061D01*
X152625Y368096D01*
X152812Y368123D01*
X153020Y368130D01*
X153104D01*
X153159Y368123D01*
D02*
G37*
G36*
X147979Y363027D02*
X147993Y363040D01*
X148028Y363075D01*
X148090Y363124D01*
X148180Y363193D01*
X148284Y363276D01*
X148416Y363366D01*
X148562Y363463D01*
X148728Y363567D01*
X148735D01*
X148749Y363581D01*
X148770Y363595D01*
X148804Y363609D01*
X148846Y363637D01*
X148895Y363658D01*
X149005Y363720D01*
X149130Y363782D01*
X149269Y363852D01*
X149415Y363914D01*
X149553Y363970D01*
Y363214D01*
X149546Y363207D01*
X149526Y363200D01*
X149491Y363179D01*
X149442Y363158D01*
X149387Y363131D01*
X149318Y363089D01*
X149241Y363047D01*
X149165Y363006D01*
X148985Y362895D01*
X148791Y362763D01*
X148589Y362624D01*
X148402Y362465D01*
X148395Y362458D01*
X148381Y362444D01*
X148354Y362423D01*
X148319Y362389D01*
X148284Y362347D01*
X148236Y362305D01*
X148132Y362188D01*
X148014Y362063D01*
X147896Y361917D01*
X147792Y361764D01*
X147702Y361605D01*
X147196D01*
Y368026D01*
X147979D01*
Y363027D01*
D02*
G37*
G36*
X417441Y368123D02*
X417497D01*
X417573Y368116D01*
X417656Y368102D01*
X417746Y368088D01*
X417850Y368068D01*
X417961Y368040D01*
X418072Y368005D01*
X418190Y367971D01*
X418308Y367922D01*
X418426Y367860D01*
X418537Y367797D01*
X418655Y367721D01*
X418759Y367631D01*
X418766Y367624D01*
X418779Y367610D01*
X418807Y367582D01*
X418849Y367541D01*
X418890Y367492D01*
X418939Y367430D01*
X418988Y367360D01*
X419043Y367277D01*
X419098Y367194D01*
X419154Y367090D01*
X419209Y366986D01*
X419258Y366868D01*
X419300Y366743D01*
X419341Y366612D01*
X419369Y366473D01*
X419390Y366327D01*
X418606Y366223D01*
Y366230D01*
X418599Y366251D01*
X418592Y366286D01*
X418578Y366334D01*
X418564Y366390D01*
X418551Y366452D01*
X418502Y366598D01*
X418440Y366757D01*
X418363Y366917D01*
X418266Y367062D01*
X418211Y367125D01*
X418155Y367187D01*
X418148D01*
X418142Y367201D01*
X418121Y367215D01*
X418100Y367236D01*
X418031Y367277D01*
X417934Y367333D01*
X417816Y367388D01*
X417684Y367430D01*
X417524Y367464D01*
X417358Y367478D01*
X417302D01*
X417261Y367471D01*
X417219Y367464D01*
X417157Y367458D01*
X417032Y367430D01*
X416880Y367388D01*
X416720Y367319D01*
X416644Y367270D01*
X416567Y367222D01*
X416491Y367166D01*
X416415Y367097D01*
X416408Y367090D01*
X416401Y367076D01*
X416380Y367055D01*
X416353Y367028D01*
X416325Y366993D01*
X416297Y366944D01*
X416262Y366896D01*
X416221Y366833D01*
X416151Y366695D01*
X416096Y366535D01*
X416047Y366348D01*
X416040Y366251D01*
X416034Y366147D01*
Y366140D01*
Y366126D01*
Y366091D01*
X416040Y366057D01*
X416047Y366008D01*
X416054Y365960D01*
X416075Y365835D01*
X416124Y365689D01*
X416186Y365544D01*
X416228Y365467D01*
X416276Y365398D01*
X416332Y365329D01*
X416394Y365259D01*
X416401Y365252D01*
X416408Y365246D01*
X416429Y365225D01*
X416456Y365204D01*
X416491Y365176D01*
X416533Y365148D01*
X416637Y365079D01*
X416768Y365017D01*
X416921Y364961D01*
X417094Y364920D01*
X417192Y364913D01*
X417289Y364906D01*
X417330D01*
X417379Y364913D01*
X417441D01*
X417524Y364926D01*
X417615Y364940D01*
X417725Y364961D01*
X417843Y364989D01*
X417760Y364302D01*
X417746D01*
X417712Y364309D01*
X417670Y364316D01*
X417580D01*
X417545Y364309D01*
X417497D01*
X417448Y364302D01*
X417330Y364282D01*
X417192Y364254D01*
X417039Y364205D01*
X416880Y364143D01*
X416727Y364053D01*
X416720D01*
X416706Y364039D01*
X416692Y364025D01*
X416665Y364004D01*
X416595Y363942D01*
X416519Y363852D01*
X416450Y363741D01*
X416380Y363602D01*
X416353Y363526D01*
X416339Y363436D01*
X416325Y363345D01*
X416318Y363248D01*
Y363242D01*
Y363228D01*
Y363207D01*
X416325Y363172D01*
X416332Y363096D01*
X416353Y362992D01*
X416387Y362881D01*
X416443Y362763D01*
X416519Y362638D01*
X416561Y362583D01*
X416616Y362527D01*
X416630Y362513D01*
X416671Y362486D01*
X416734Y362437D01*
X416817Y362382D01*
X416928Y362333D01*
X417060Y362285D01*
X417205Y362257D01*
X417372Y362243D01*
X417413D01*
X417448Y362250D01*
X417490D01*
X417531Y362257D01*
X417642Y362278D01*
X417760Y362312D01*
X417892Y362368D01*
X418017Y362437D01*
X418142Y362534D01*
X418155Y362548D01*
X418190Y362590D01*
X418246Y362652D01*
X418301Y362749D01*
X418370Y362867D01*
X418433Y363020D01*
X418488Y363193D01*
X418530Y363394D01*
X419313Y363255D01*
Y363248D01*
X419306Y363221D01*
X419300Y363179D01*
X419286Y363124D01*
X419265Y363061D01*
X419244Y362985D01*
X419216Y362902D01*
X419182Y362812D01*
X419091Y362611D01*
X419043Y362513D01*
X418980Y362409D01*
X418911Y362312D01*
X418835Y362215D01*
X418752Y362118D01*
X418661Y362035D01*
X418655Y362028D01*
X418641Y362014D01*
X418606Y361993D01*
X418571Y361966D01*
X418516Y361931D01*
X418461Y361896D01*
X418391Y361855D01*
X418308Y361813D01*
X418225Y361778D01*
X418128Y361737D01*
X418024Y361702D01*
X417913Y361668D01*
X417788Y361640D01*
X417663Y361619D01*
X417531Y361605D01*
X417393Y361598D01*
X417302D01*
X417254Y361605D01*
X417205Y361612D01*
X417074Y361626D01*
X416928Y361654D01*
X416762Y361695D01*
X416595Y361751D01*
X416429Y361827D01*
X416422D01*
X416408Y361834D01*
X416387Y361848D01*
X416353Y361869D01*
X416276Y361917D01*
X416179Y361986D01*
X416068Y362077D01*
X415957Y362181D01*
X415846Y362299D01*
X415749Y362437D01*
Y362444D01*
X415742Y362451D01*
X415728Y362479D01*
X415714Y362506D01*
X415694Y362541D01*
X415673Y362583D01*
X415631Y362687D01*
X415590Y362812D01*
X415548Y362950D01*
X415520Y363103D01*
X415513Y363262D01*
Y363269D01*
Y363283D01*
Y363304D01*
Y363332D01*
X415527Y363415D01*
X415541Y363512D01*
X415569Y363630D01*
X415611Y363755D01*
X415666Y363886D01*
X415742Y364018D01*
Y364025D01*
X415749Y364032D01*
X415784Y364074D01*
X415832Y364136D01*
X415909Y364212D01*
X415999Y364302D01*
X416117Y364393D01*
X416248Y364476D01*
X416401Y364559D01*
X416394D01*
X416373Y364566D01*
X416345Y364573D01*
X416304Y364587D01*
X416262Y364601D01*
X416207Y364621D01*
X416075Y364677D01*
X415936Y364753D01*
X415791Y364843D01*
X415645Y364961D01*
X415520Y365107D01*
X415513Y365114D01*
X415507Y365128D01*
X415493Y365148D01*
X415472Y365183D01*
X415444Y365218D01*
X415416Y365266D01*
X415389Y365322D01*
X415361Y365391D01*
X415333Y365461D01*
X415305Y365537D01*
X415250Y365710D01*
X415215Y365911D01*
X415201Y366022D01*
Y366133D01*
Y366140D01*
Y366168D01*
X415208Y366216D01*
Y366272D01*
X415222Y366348D01*
X415236Y366431D01*
X415250Y366521D01*
X415278Y366625D01*
X415312Y366736D01*
X415354Y366847D01*
X415402Y366965D01*
X415465Y367083D01*
X415534Y367208D01*
X415617Y367326D01*
X415708Y367444D01*
X415818Y367555D01*
X415826Y367561D01*
X415846Y367582D01*
X415881Y367610D01*
X415929Y367645D01*
X415985Y367686D01*
X416061Y367735D01*
X416144Y367790D01*
X416241Y367839D01*
X416345Y367894D01*
X416463Y367950D01*
X416588Y367998D01*
X416727Y368040D01*
X416872Y368075D01*
X417025Y368102D01*
X417185Y368123D01*
X417358Y368130D01*
X417393D01*
X417441Y368123D01*
D02*
G37*
G36*
X422399Y368116D02*
X422468Y368109D01*
X422552Y368096D01*
X422642Y368082D01*
X422739Y368061D01*
X422843Y368040D01*
X422947Y368005D01*
X423058Y367971D01*
X423162Y367922D01*
X423273Y367867D01*
X423370Y367804D01*
X423467Y367728D01*
X423557Y367645D01*
X423564Y367638D01*
X423578Y367624D01*
X423599Y367596D01*
X423626Y367555D01*
X423661Y367506D01*
X423696Y367444D01*
X423737Y367367D01*
X423779Y367284D01*
X423814Y367187D01*
X423855Y367083D01*
X423890Y366965D01*
X423925Y366833D01*
X423945Y366695D01*
X423966Y366542D01*
X423980Y366383D01*
Y366209D01*
X423217Y366098D01*
Y366105D01*
Y366133D01*
X423210Y366168D01*
Y366216D01*
X423203Y366279D01*
X423196Y366348D01*
X423176Y366501D01*
X423141Y366667D01*
X423092Y366833D01*
X423065Y366910D01*
X423030Y366986D01*
X422989Y367048D01*
X422947Y367104D01*
X422933Y367118D01*
X422898Y367146D01*
X422843Y367187D01*
X422767Y367236D01*
X422669Y367284D01*
X422552Y367326D01*
X422420Y367354D01*
X422267Y367367D01*
X422212D01*
X422156Y367360D01*
X422080Y367347D01*
X421990Y367333D01*
X421900Y367305D01*
X421810Y367270D01*
X421720Y367222D01*
X421706Y367215D01*
X421678Y367194D01*
X421643Y367159D01*
X421588Y367118D01*
X421539Y367062D01*
X421484Y366993D01*
X421435Y366917D01*
X421394Y366827D01*
X421387Y366813D01*
X421380Y366778D01*
X421366Y366716D01*
X421345Y366632D01*
X421331Y366521D01*
X421317Y366383D01*
X421310Y366223D01*
X421303Y366126D01*
Y366029D01*
Y361619D01*
X420457D01*
Y365980D01*
Y365988D01*
Y366015D01*
Y366057D01*
Y366112D01*
X420464Y366182D01*
Y366258D01*
X420471Y366348D01*
X420485Y366438D01*
X420506Y366639D01*
X420541Y366847D01*
X420589Y367048D01*
X420624Y367138D01*
X420659Y367229D01*
Y367236D01*
X420666Y367249D01*
X420679Y367270D01*
X420693Y367298D01*
X420742Y367381D01*
X420811Y367478D01*
X420894Y367582D01*
X420998Y367693D01*
X421130Y367797D01*
X421276Y367894D01*
X421283D01*
X421297Y367901D01*
X421317Y367915D01*
X421352Y367929D01*
X421387Y367950D01*
X421435Y367964D01*
X421491Y367985D01*
X421553Y368005D01*
X421699Y368054D01*
X421865Y368088D01*
X422052Y368116D01*
X422260Y368123D01*
X422344D01*
X422399Y368116D01*
D02*
G37*
G36*
X287779Y368123D02*
X287848Y368116D01*
X287932Y368102D01*
X288022Y368088D01*
X288119Y368068D01*
X288223Y368047D01*
X288327Y368012D01*
X288438Y367978D01*
X288542Y367929D01*
X288653Y367874D01*
X288750Y367811D01*
X288847Y367735D01*
X288937Y367652D01*
X288944Y367645D01*
X288958Y367631D01*
X288979Y367603D01*
X289007Y367561D01*
X289041Y367513D01*
X289076Y367451D01*
X289117Y367374D01*
X289159Y367291D01*
X289194Y367194D01*
X289235Y367090D01*
X289270Y366972D01*
X289305Y366840D01*
X289326Y366702D01*
X289346Y366549D01*
X289360Y366390D01*
Y366216D01*
X288597Y366105D01*
Y366112D01*
Y366140D01*
X288590Y366175D01*
Y366223D01*
X288584Y366286D01*
X288577Y366355D01*
X288556Y366507D01*
X288521Y366674D01*
X288472Y366840D01*
X288445Y366917D01*
X288410Y366993D01*
X288368Y367055D01*
X288327Y367111D01*
X288313Y367125D01*
X288278Y367152D01*
X288223Y367194D01*
X288147Y367243D01*
X288050Y367291D01*
X287932Y367333D01*
X287800Y367360D01*
X287647Y367374D01*
X287592D01*
X287536Y367367D01*
X287460Y367354D01*
X287370Y367340D01*
X287280Y367312D01*
X287190Y367277D01*
X287100Y367229D01*
X287086Y367222D01*
X287058Y367201D01*
X287023Y367166D01*
X286968Y367125D01*
X286919Y367069D01*
X286864Y367000D01*
X286815Y366924D01*
X286774Y366833D01*
X286767Y366820D01*
X286760Y366785D01*
X286746Y366722D01*
X286725Y366639D01*
X286711Y366528D01*
X286697Y366390D01*
X286691Y366230D01*
X286684Y366133D01*
Y366036D01*
Y361626D01*
X285838D01*
Y365988D01*
Y365994D01*
Y366022D01*
Y366064D01*
Y366119D01*
X285844Y366189D01*
Y366265D01*
X285851Y366355D01*
X285865Y366445D01*
X285886Y366646D01*
X285921Y366854D01*
X285969Y367055D01*
X286004Y367146D01*
X286039Y367236D01*
Y367243D01*
X286046Y367256D01*
X286059Y367277D01*
X286073Y367305D01*
X286122Y367388D01*
X286191Y367485D01*
X286274Y367589D01*
X286378Y367700D01*
X286510Y367804D01*
X286656Y367901D01*
X286663D01*
X286677Y367908D01*
X286697Y367922D01*
X286732Y367936D01*
X286767Y367957D01*
X286815Y367971D01*
X286871Y367991D01*
X286933Y368012D01*
X287079Y368061D01*
X287245Y368096D01*
X287432Y368123D01*
X287640Y368130D01*
X287724D01*
X287779Y368123D01*
D02*
G37*
G36*
X282253Y366494D02*
X285040D01*
Y365773D01*
X282114Y361626D01*
X281469D01*
Y365773D01*
X280602D01*
Y366494D01*
X281469D01*
Y368026D01*
X282253D01*
Y366494D01*
D02*
G37*
%LPC*%
G36*
X41862Y115994D02*
X36973D01*
Y114524D01*
X36980Y114468D01*
Y114406D01*
X36987Y114267D01*
X37001Y114108D01*
X37022Y113941D01*
X37050Y113782D01*
X37084Y113636D01*
Y113630D01*
X37091Y113623D01*
X37098Y113602D01*
X37105Y113574D01*
X37133Y113512D01*
X37167Y113428D01*
X37216Y113338D01*
X37272Y113241D01*
X37341Y113144D01*
X37417Y113061D01*
X37424Y113054D01*
X37431Y113047D01*
X37473Y113012D01*
X37542Y112957D01*
X37632Y112887D01*
X37750Y112818D01*
X37889Y112742D01*
X38048Y112666D01*
X38228Y112596D01*
X38235D01*
X38249Y112589D01*
X38277Y112582D01*
X38319Y112569D01*
X38367Y112555D01*
X38430Y112541D01*
X38499Y112527D01*
X38575Y112506D01*
X38658Y112492D01*
X38756Y112478D01*
X38853Y112465D01*
X38963Y112451D01*
X39199Y112430D01*
X39463Y112423D01*
X39477D01*
X39504D01*
X39560D01*
X39629Y112430D01*
X39712D01*
X39810Y112437D01*
X39913Y112451D01*
X40031Y112465D01*
X40281Y112506D01*
X40538Y112562D01*
X40780Y112645D01*
X40898Y112700D01*
X41002Y112756D01*
X41009Y112763D01*
X41023Y112770D01*
X41051Y112790D01*
X41092Y112818D01*
X41134Y112846D01*
X41182Y112887D01*
X41293Y112978D01*
X41418Y113096D01*
X41536Y113234D01*
X41647Y113387D01*
X41689Y113470D01*
X41730Y113560D01*
Y113567D01*
X41737Y113574D01*
X41744Y113595D01*
X41751Y113623D01*
X41758Y113664D01*
X41772Y113706D01*
X41786Y113761D01*
X41800Y113824D01*
X41807Y113893D01*
X41820Y113976D01*
X41834Y114066D01*
X41841Y114163D01*
X41848Y114274D01*
X41855Y114392D01*
X41862Y114517D01*
Y115994D01*
D02*
G37*
G36*
X274747Y61235D02*
X274740D01*
X274727D01*
X274706D01*
X274671Y61228D01*
X274636D01*
X274588Y61221D01*
X274484Y61193D01*
X274366Y61152D01*
X274241Y61096D01*
X274123Y61013D01*
X274061Y60958D01*
X274005Y60902D01*
X273998Y60895D01*
X273991Y60888D01*
X273978Y60868D01*
X273957Y60840D01*
X273936Y60805D01*
X273908Y60757D01*
X273881Y60708D01*
X273853Y60646D01*
X273825Y60576D01*
X273804Y60500D01*
X273776Y60417D01*
X273756Y60327D01*
X273735Y60223D01*
X273721Y60112D01*
X273707Y59994D01*
Y57837D01*
X275822D01*
Y59751D01*
X275815Y59800D01*
Y59855D01*
X275808Y59987D01*
X275794Y60132D01*
X275774Y60285D01*
X275746Y60431D01*
X275704Y60562D01*
Y60569D01*
X275697Y60576D01*
X275683Y60618D01*
X275656Y60673D01*
X275614Y60750D01*
X275559Y60826D01*
X275496Y60909D01*
X275413Y60992D01*
X275323Y61062D01*
X275309Y61069D01*
X275274Y61089D01*
X275226Y61117D01*
X275149Y61152D01*
X275066Y61180D01*
X274969Y61207D01*
X274858Y61228D01*
X274747Y61235D01*
D02*
G37*
G36*
X124208Y113435D02*
X124207Y113428D01*
X124208Y113428D01*
Y113435D01*
D02*
G37*
G36*
X122786Y116195D02*
X122738D01*
X122703Y116188D01*
X122654Y116181D01*
X122606Y116174D01*
X122488Y116147D01*
X122356Y116098D01*
X122280Y116063D01*
X122211Y116029D01*
X122134Y115980D01*
X122065Y115932D01*
X121996Y115869D01*
X121926Y115800D01*
X121919Y115793D01*
X121912Y115779D01*
X121892Y115758D01*
X121871Y115724D01*
X121843Y115682D01*
X121816Y115634D01*
X121781Y115578D01*
X121746Y115509D01*
X121711Y115439D01*
X121677Y115356D01*
X121649Y115266D01*
X121621Y115169D01*
X121601Y115065D01*
X121580Y114947D01*
X121573Y114829D01*
X121566Y114704D01*
Y114698D01*
Y114677D01*
Y114642D01*
X121573Y114593D01*
X121580Y114538D01*
X121587Y114476D01*
X121594Y114406D01*
X121607Y114330D01*
X121649Y114164D01*
X121711Y113990D01*
X121753Y113900D01*
X121802Y113817D01*
X121857Y113741D01*
X121919Y113664D01*
X121926Y113657D01*
X121933Y113650D01*
X121954Y113630D01*
X121982Y113602D01*
X122016Y113574D01*
X122058Y113539D01*
X122162Y113470D01*
X122294Y113401D01*
X122446Y113338D01*
X122620Y113290D01*
X122717Y113283D01*
X122814Y113276D01*
X122863D01*
X122904Y113283D01*
X122946Y113290D01*
X123001Y113297D01*
X123126Y113324D01*
X123272Y113373D01*
X123424Y113442D01*
X123500Y113484D01*
X123577Y113532D01*
X123653Y113595D01*
X123722Y113664D01*
X123729Y113671D01*
X123736Y113685D01*
X123757Y113706D01*
X123778Y113734D01*
X123806Y113768D01*
X123840Y113817D01*
X123875Y113872D01*
X123903Y113935D01*
X123937Y113997D01*
X123972Y114073D01*
X124034Y114247D01*
X124076Y114441D01*
X124083Y114552D01*
X124090Y114663D01*
Y114670D01*
Y114684D01*
Y114704D01*
Y114732D01*
X124083Y114767D01*
Y114808D01*
X124069Y114912D01*
X124048Y115030D01*
X124021Y115162D01*
X123979Y115301D01*
X123924Y115439D01*
Y115446D01*
X123917Y115453D01*
X123903Y115474D01*
X123889Y115502D01*
X123854Y115564D01*
X123799Y115647D01*
X123729Y115738D01*
X123646Y115828D01*
X123556Y115918D01*
X123445Y116001D01*
X123438D01*
X123431Y116008D01*
X123390Y116029D01*
X123327Y116063D01*
X123244Y116098D01*
X123147Y116133D01*
X123036Y116167D01*
X122911Y116188D01*
X122786Y116195D01*
D02*
G37*
G36*
X137203Y85322D02*
X135289D01*
X135240Y85315D01*
X135185D01*
X135053Y85308D01*
X134907Y85294D01*
X134755Y85274D01*
X134609Y85246D01*
X134478Y85204D01*
X134471D01*
X134464Y85197D01*
X134422Y85183D01*
X134367Y85156D01*
X134290Y85114D01*
X134214Y85059D01*
X134131Y84996D01*
X134047Y84913D01*
X133978Y84823D01*
X133971Y84809D01*
X133951Y84774D01*
X133923Y84726D01*
X133888Y84649D01*
X133860Y84566D01*
X133833Y84469D01*
X133812Y84358D01*
X133805Y84247D01*
Y84240D01*
Y84227D01*
Y84206D01*
X133812Y84171D01*
Y84136D01*
X133819Y84088D01*
X133846Y83984D01*
X133888Y83866D01*
X133944Y83741D01*
X134027Y83623D01*
X134082Y83561D01*
X134138Y83505D01*
X134145Y83498D01*
X134151Y83491D01*
X134172Y83478D01*
X134200Y83457D01*
X134235Y83436D01*
X134283Y83408D01*
X134332Y83380D01*
X134394Y83353D01*
X134464Y83325D01*
X134540Y83304D01*
X134623Y83277D01*
X134713Y83256D01*
X134817Y83235D01*
X134928Y83221D01*
X135046Y83207D01*
X137203D01*
Y85322D01*
D02*
G37*
G36*
X43904Y162063D02*
X41789D01*
Y160149D01*
X41796Y160100D01*
Y160045D01*
X41803Y159913D01*
X41817Y159768D01*
X41837Y159615D01*
X41865Y159469D01*
X41907Y159338D01*
Y159331D01*
X41914Y159324D01*
X41928Y159282D01*
X41955Y159227D01*
X41997Y159150D01*
X42052Y159074D01*
X42115Y158991D01*
X42198Y158908D01*
X42288Y158838D01*
X42302Y158831D01*
X42337Y158811D01*
X42385Y158783D01*
X42462Y158748D01*
X42545Y158720D01*
X42642Y158693D01*
X42753Y158672D01*
X42864Y158665D01*
X42871D01*
X42884D01*
X42905D01*
X42940Y158672D01*
X42975D01*
X43023Y158679D01*
X43127Y158707D01*
X43245Y158748D01*
X43370Y158804D01*
X43488Y158887D01*
X43550Y158942D01*
X43606Y158998D01*
X43613Y159005D01*
X43619Y159012D01*
X43633Y159032D01*
X43654Y159060D01*
X43675Y159095D01*
X43703Y159143D01*
X43730Y159192D01*
X43758Y159254D01*
X43786Y159324D01*
X43807Y159400D01*
X43835Y159483D01*
X43855Y159573D01*
X43876Y159677D01*
X43890Y159788D01*
X43904Y159906D01*
Y162063D01*
D02*
G37*
G36*
X284270Y365773D02*
X282253D01*
Y362888D01*
X284270Y365773D01*
D02*
G37*
%LPD*%
D11*
X45850Y97840D02*
Y135840D01*
X30350Y97840D02*
X45850D01*
X30350D02*
Y135840D01*
X45850D01*
X495800Y338550D02*
X621800D01*
X495800D02*
Y398050D01*
X621800D01*
Y338550D02*
Y398050D01*
X462580Y69140D02*
X588580D01*
X462580D02*
Y128640D01*
X588580D01*
Y69140D02*
Y128640D01*
X294350Y11080D02*
Y126080D01*
X416850D01*
Y11080D02*
Y126080D01*
X294350Y11080D02*
X416850D01*
X271400Y43450D02*
Y70533D01*
X287400D01*
Y43450D02*
Y70533D01*
X271400Y43450D02*
X287400D01*
X161669Y61400D02*
X244731D01*
X161669D02*
Y120400D01*
X244731D01*
Y61400D02*
Y120400D01*
X101240Y102490D02*
X157840D01*
X101240D02*
Y131190D01*
X157840D01*
Y102490D02*
Y131190D01*
X124507Y80900D02*
X151590D01*
X124507D02*
Y96900D01*
X151590D01*
Y80900D02*
Y96900D01*
X46100Y149368D02*
Y176450D01*
X30100Y149368D02*
X46100D01*
X30100D02*
Y176450D01*
X46100D01*
X91740Y338380D02*
X217740D01*
X91740D02*
Y397880D01*
X217740D01*
Y338380D02*
Y397880D01*
X360980Y338380D02*
X486980D01*
X360980D02*
Y397880D01*
X486980D01*
Y338380D02*
Y397880D01*
X226360Y338380D02*
X352360D01*
X226360D02*
Y397880D01*
X352360D01*
Y338380D02*
Y397880D01*
M02*
