G04*
G04 #@! TF.GenerationSoftware,Altium Limited,Altium Designer,22.10.1 (41)*
G04*
G04 Layer_Physical_Order=1*
G04 Layer_Color=255*
%FSLAX44Y44*%
%MOMM*%
G71*
G04*
G04 #@! TF.SameCoordinates,51D38C2D-7858-46DE-8B48-74D45336439E*
G04*
G04*
G04 #@! TF.FilePolarity,Positive*
G04*
G01*
G75*
%ADD13C,0.2540*%
%ADD14R,1.3500X1.1000*%
%ADD15R,1.1000X1.2500*%
%ADD16R,5.5000X2.0000*%
G04:AMPARAMS|DCode=17|XSize=1.9mm|YSize=0.6mm|CornerRadius=0.3mm|HoleSize=0mm|Usage=FLASHONLY|Rotation=90.000|XOffset=0mm|YOffset=0mm|HoleType=Round|Shape=RoundedRectangle|*
%AMROUNDEDRECTD17*
21,1,1.9000,0.0000,0,0,90.0*
21,1,1.3000,0.6000,0,0,90.0*
1,1,0.6000,0.0000,0.6500*
1,1,0.6000,0.0000,-0.6500*
1,1,0.6000,0.0000,-0.6500*
1,1,0.6000,0.0000,0.6500*
%
%ADD17ROUNDEDRECTD17*%
%ADD18R,1.2500X1.4500*%
%ADD19R,1.3082X0.8065*%
%ADD20R,2.2044X0.6080*%
G04:AMPARAMS|DCode=21|XSize=2.2044mm|YSize=0.608mm|CornerRadius=0.304mm|HoleSize=0mm|Usage=FLASHONLY|Rotation=180.000|XOffset=0mm|YOffset=0mm|HoleType=Round|Shape=RoundedRectangle|*
%AMROUNDEDRECTD21*
21,1,2.2044,0.0000,0,0,180.0*
21,1,1.5965,0.6080,0,0,180.0*
1,1,0.6080,-0.7982,0.0000*
1,1,0.6080,0.7982,0.0000*
1,1,0.6080,0.7982,0.0000*
1,1,0.6080,-0.7982,0.0000*
%
%ADD21ROUNDEDRECTD21*%
%ADD22R,0.8065X1.3082*%
%ADD23R,1.4500X1.2500*%
%ADD32C,1.4000*%
%ADD33R,1.4000X1.4000*%
%ADD34R,1.5700X1.5700*%
%ADD35C,1.5700*%
%ADD36C,0.2032*%
%ADD37C,0.1524*%
%ADD38C,1.7000*%
%ADD39R,1.7000X1.7000*%
%ADD40C,1.6650*%
G36*
X707316Y3884D02*
X3884D01*
Y415215D01*
X707316D01*
Y3884D01*
D02*
G37*
%LPC*%
G36*
X529824Y382074D02*
X522316D01*
Y374566D01*
X529824D01*
Y382074D01*
D02*
G37*
G36*
X572422D02*
X572316D01*
Y374566D01*
X579824D01*
Y374672D01*
X579243Y376840D01*
X578121Y378784D01*
X576534Y380371D01*
X574590Y381493D01*
X572422Y382074D01*
D02*
G37*
G36*
X520284D02*
X512776D01*
Y374566D01*
X520284D01*
Y382074D01*
D02*
G37*
G36*
X570284D02*
X570178D01*
X568010Y381493D01*
X566066Y380371D01*
X564479Y378784D01*
X563357Y376840D01*
X562776Y374672D01*
Y374566D01*
X570284D01*
Y382074D01*
D02*
G37*
G36*
X437602Y381904D02*
X437496D01*
Y374396D01*
X445004D01*
Y374502D01*
X444423Y376670D01*
X443301Y378614D01*
X441714Y380201D01*
X439770Y381323D01*
X437602Y381904D01*
D02*
G37*
G36*
X302982D02*
X302876D01*
Y374396D01*
X310384D01*
Y374502D01*
X309803Y376670D01*
X308681Y378614D01*
X307094Y380201D01*
X305150Y381323D01*
X302982Y381904D01*
D02*
G37*
G36*
X260384D02*
X252876D01*
Y374396D01*
X260384D01*
Y381904D01*
D02*
G37*
G36*
X125764D02*
X118256D01*
Y374396D01*
X125764D01*
Y381904D01*
D02*
G37*
G36*
X395004D02*
X387496D01*
Y374396D01*
X395004D01*
Y381904D01*
D02*
G37*
G36*
X435464D02*
X435358D01*
X433190Y381323D01*
X431246Y380201D01*
X429659Y378614D01*
X428537Y376670D01*
X427956Y374502D01*
Y374396D01*
X435464D01*
Y381904D01*
D02*
G37*
G36*
X300844D02*
X300738D01*
X298570Y381323D01*
X296626Y380201D01*
X295039Y378614D01*
X293917Y376670D01*
X293336Y374502D01*
Y374396D01*
X300844D01*
Y381904D01*
D02*
G37*
G36*
X116224D02*
X108716D01*
Y374396D01*
X116224D01*
Y381904D01*
D02*
G37*
G36*
X385464D02*
X377956D01*
Y374396D01*
X385464D01*
Y381904D01*
D02*
G37*
G36*
X250844D02*
X243336D01*
Y374396D01*
X250844D01*
Y381904D01*
D02*
G37*
G36*
X597422Y382074D02*
X595178D01*
X593010Y381493D01*
X591066Y380371D01*
X589479Y378784D01*
X588357Y376840D01*
X587776Y374672D01*
Y372428D01*
X588357Y370260D01*
X589479Y368316D01*
X591066Y366729D01*
X593010Y365607D01*
X595178Y365026D01*
X597422D01*
X599590Y365607D01*
X601534Y366729D01*
X603121Y368316D01*
X604243Y370260D01*
X604824Y372428D01*
Y374672D01*
X604243Y376840D01*
X603121Y378784D01*
X601534Y380371D01*
X599590Y381493D01*
X597422Y382074D01*
D02*
G37*
G36*
X579824Y372534D02*
X572316D01*
Y365026D01*
X572422D01*
X574590Y365607D01*
X576534Y366729D01*
X578121Y368316D01*
X579243Y370260D01*
X579824Y372428D01*
Y372534D01*
D02*
G37*
G36*
X570284D02*
X562776D01*
Y372428D01*
X563357Y370260D01*
X564479Y368316D01*
X566066Y366729D01*
X568010Y365607D01*
X570178Y365026D01*
X570284D01*
Y372534D01*
D02*
G37*
G36*
X547422Y382074D02*
X545178D01*
X543010Y381493D01*
X541066Y380371D01*
X539479Y378784D01*
X538357Y376840D01*
X537776Y374672D01*
Y372428D01*
X538357Y370260D01*
X539479Y368316D01*
X541066Y366729D01*
X543010Y365607D01*
X545178Y365026D01*
X547422D01*
X549590Y365607D01*
X551534Y366729D01*
X553121Y368316D01*
X554243Y370260D01*
X554824Y372428D01*
Y374672D01*
X554243Y376840D01*
X553121Y378784D01*
X551534Y380371D01*
X549590Y381493D01*
X547422Y382074D01*
D02*
G37*
G36*
X529824Y372534D02*
X522316D01*
Y365026D01*
X529824D01*
Y372534D01*
D02*
G37*
G36*
X520284D02*
X512776D01*
Y365026D01*
X520284D01*
Y372534D01*
D02*
G37*
G36*
X462602Y381904D02*
X460358D01*
X458190Y381323D01*
X456246Y380201D01*
X454659Y378614D01*
X453537Y376670D01*
X452956Y374502D01*
Y372258D01*
X453537Y370090D01*
X454659Y368146D01*
X456246Y366559D01*
X458190Y365437D01*
X460358Y364856D01*
X462602D01*
X464770Y365437D01*
X466714Y366559D01*
X468301Y368146D01*
X469423Y370090D01*
X470004Y372258D01*
Y374502D01*
X469423Y376670D01*
X468301Y378614D01*
X466714Y380201D01*
X464770Y381323D01*
X462602Y381904D01*
D02*
G37*
G36*
X445004Y372364D02*
X437496D01*
Y364856D01*
X437602D01*
X439770Y365437D01*
X441714Y366559D01*
X443301Y368146D01*
X444423Y370090D01*
X445004Y372258D01*
Y372364D01*
D02*
G37*
G36*
X435464D02*
X427956D01*
Y372258D01*
X428537Y370090D01*
X429659Y368146D01*
X431246Y366559D01*
X433190Y365437D01*
X435358Y364856D01*
X435464D01*
Y372364D01*
D02*
G37*
G36*
X412602Y381904D02*
X410358D01*
X408190Y381323D01*
X406246Y380201D01*
X404659Y378614D01*
X403537Y376670D01*
X402956Y374502D01*
Y372258D01*
X403537Y370090D01*
X404659Y368146D01*
X406246Y366559D01*
X408190Y365437D01*
X410358Y364856D01*
X412602D01*
X414770Y365437D01*
X416714Y366559D01*
X418301Y368146D01*
X419423Y370090D01*
X420004Y372258D01*
Y374502D01*
X419423Y376670D01*
X418301Y378614D01*
X416714Y380201D01*
X414770Y381323D01*
X412602Y381904D01*
D02*
G37*
G36*
X395004Y372364D02*
X387496D01*
Y364856D01*
X395004D01*
Y372364D01*
D02*
G37*
G36*
X385464D02*
X377956D01*
Y364856D01*
X385464D01*
Y372364D01*
D02*
G37*
G36*
X310384D02*
X302876D01*
Y364856D01*
X302982D01*
X305150Y365437D01*
X307094Y366559D01*
X308681Y368146D01*
X309803Y370090D01*
X310384Y372258D01*
Y372364D01*
D02*
G37*
G36*
X300844D02*
X293336D01*
Y372258D01*
X293917Y370090D01*
X295039Y368146D01*
X296626Y366559D01*
X298570Y365437D01*
X300738Y364856D01*
X300844D01*
Y372364D01*
D02*
G37*
G36*
X260384D02*
X252876D01*
Y364856D01*
X260384D01*
Y372364D01*
D02*
G37*
G36*
X250844D02*
X243336D01*
Y364856D01*
X250844D01*
Y372364D01*
D02*
G37*
G36*
X125764D02*
X118256D01*
Y364856D01*
X125764D01*
Y372364D01*
D02*
G37*
G36*
X116224D02*
X108716D01*
Y364856D01*
X116224D01*
Y372364D01*
D02*
G37*
G36*
X674727Y397524D02*
X671472D01*
X668280Y396889D01*
X665273Y395643D01*
X662567Y393835D01*
X660265Y391533D01*
X658457Y388827D01*
X657211Y385820D01*
X656576Y382627D01*
Y379372D01*
X657211Y376180D01*
X658457Y373173D01*
X660265Y370467D01*
X662567Y368165D01*
X665273Y366357D01*
X668280Y365111D01*
X671472Y364476D01*
X674727D01*
X677920Y365111D01*
X680927Y366357D01*
X683633Y368165D01*
X685935Y370467D01*
X687743Y373173D01*
X688989Y376180D01*
X689624Y379372D01*
Y382627D01*
X688989Y385820D01*
X687743Y388827D01*
X685935Y391533D01*
X683633Y393835D01*
X680927Y395643D01*
X677920Y396889D01*
X674727Y397524D01*
D02*
G37*
G36*
X39727D02*
X36472D01*
X33280Y396889D01*
X30273Y395643D01*
X27567Y393835D01*
X25265Y391533D01*
X23457Y388827D01*
X22211Y385820D01*
X21576Y382627D01*
Y379372D01*
X22211Y376180D01*
X23457Y373173D01*
X25265Y370467D01*
X27567Y368165D01*
X30273Y366357D01*
X33280Y365111D01*
X36472Y364476D01*
X39727D01*
X42920Y365111D01*
X45927Y366357D01*
X48633Y368165D01*
X50935Y370467D01*
X52743Y373173D01*
X53989Y376180D01*
X54624Y379372D01*
Y382627D01*
X53989Y385820D01*
X52743Y388827D01*
X50935Y391533D01*
X48633Y393835D01*
X45927Y395643D01*
X42920Y396889D01*
X39727Y397524D01*
D02*
G37*
G36*
X24384Y328984D02*
X17126D01*
Y322976D01*
X24384D01*
Y328984D01*
D02*
G37*
G36*
X327982Y381904D02*
X325738D01*
X323570Y381323D01*
X321626Y380201D01*
X320039Y378614D01*
X318917Y376670D01*
X318336Y374502D01*
Y372258D01*
X318917Y370090D01*
X320039Y368146D01*
X321626Y366559D01*
X323570Y365437D01*
X324270Y365249D01*
Y342633D01*
X296988Y315350D01*
X295902Y315978D01*
X293397Y316649D01*
X290803D01*
X288298Y315978D01*
X286053Y314681D01*
X284219Y312847D01*
X282922Y310602D01*
X282251Y308097D01*
Y305503D01*
X282922Y302998D01*
X284219Y300753D01*
X286053Y298919D01*
X288298Y297622D01*
X290803Y296951D01*
X293397D01*
X295902Y297622D01*
X298147Y298919D01*
X299981Y300753D01*
X301278Y302998D01*
X301949Y305503D01*
Y308097D01*
X301278Y310602D01*
X300651Y311688D01*
X328691Y339729D01*
X329253Y340569D01*
X329450Y341560D01*
Y365249D01*
X330150Y365437D01*
X332094Y366559D01*
X333681Y368146D01*
X334803Y370090D01*
X335384Y372258D01*
Y374502D01*
X334803Y376670D01*
X333681Y378614D01*
X332094Y380201D01*
X330150Y381323D01*
X327982Y381904D01*
D02*
G37*
G36*
X277982D02*
X275738D01*
X273570Y381323D01*
X271626Y380201D01*
X270039Y378614D01*
X268917Y376670D01*
X268336Y374502D01*
Y372258D01*
X268917Y370090D01*
X270039Y368146D01*
X271626Y366559D01*
X273570Y365437D01*
X274270Y365249D01*
Y318033D01*
X271588Y315350D01*
X270502Y315978D01*
X267997Y316649D01*
X265403D01*
X262898Y315978D01*
X260653Y314681D01*
X258819Y312847D01*
X257522Y310602D01*
X256851Y308097D01*
Y305503D01*
X257522Y302998D01*
X258819Y300753D01*
X260653Y298919D01*
X262898Y297622D01*
X265403Y296951D01*
X267997D01*
X270502Y297622D01*
X272747Y298919D01*
X274581Y300753D01*
X275878Y302998D01*
X276549Y305503D01*
Y308097D01*
X275878Y310602D01*
X275250Y311688D01*
X278691Y315129D01*
X279253Y315969D01*
X279450Y316960D01*
Y365249D01*
X280150Y365437D01*
X282094Y366559D01*
X283681Y368146D01*
X284803Y370090D01*
X285384Y372258D01*
Y374502D01*
X284803Y376670D01*
X283681Y378614D01*
X282094Y380201D01*
X280150Y381323D01*
X277982Y381904D01*
D02*
G37*
G36*
X193362D02*
X191118D01*
X188950Y381323D01*
X187006Y380201D01*
X185419Y378614D01*
X184297Y376670D01*
X183716Y374502D01*
Y372258D01*
X184297Y370090D01*
X185419Y368146D01*
X187006Y366559D01*
X188950Y365437D01*
X191118Y364856D01*
X193362D01*
X195530Y365437D01*
X196158Y365799D01*
X198832Y363125D01*
Y314192D01*
X197562Y313666D01*
X196547Y314681D01*
X194302Y315978D01*
X191797Y316649D01*
X189203D01*
X186698Y315978D01*
X184453Y314681D01*
X182619Y312847D01*
X181322Y310602D01*
X180651Y308097D01*
Y305503D01*
X181322Y302998D01*
X182619Y300753D01*
X184453Y298919D01*
X186698Y297622D01*
X189203Y296951D01*
X191797D01*
X194302Y297622D01*
X196547Y298919D01*
X197562Y299934D01*
X198832Y299408D01*
Y241357D01*
X190447Y232971D01*
X189885Y232131D01*
X189688Y231140D01*
Y173990D01*
X189885Y172999D01*
X190447Y172159D01*
X198832Y163773D01*
Y161792D01*
X197562Y161266D01*
X196547Y162281D01*
X194302Y163578D01*
X191797Y164249D01*
X189203D01*
X186698Y163578D01*
X184453Y162281D01*
X182619Y160447D01*
X181322Y158202D01*
X180651Y155697D01*
Y153103D01*
X181322Y150598D01*
X182619Y148353D01*
X184453Y146519D01*
X186698Y145222D01*
X189203Y144551D01*
X191797D01*
X194302Y145222D01*
X196547Y146519D01*
X197562Y147534D01*
X198832Y147008D01*
Y87655D01*
X198317Y87140D01*
X189432D01*
X188964Y87840D01*
X187454Y88849D01*
X185674Y89203D01*
X169709D01*
X167928Y88849D01*
X166419Y87840D01*
X165951Y87140D01*
X152114D01*
Y96965D01*
X141000D01*
Y84793D01*
X139827Y84307D01*
X138734Y85401D01*
Y98425D01*
X138537Y99416D01*
X137975Y100256D01*
X129844Y108388D01*
Y149234D01*
X131114Y149574D01*
X131819Y148353D01*
X133653Y146519D01*
X135898Y145222D01*
X138403Y144551D01*
X140997D01*
X143502Y145222D01*
X145747Y146519D01*
X147581Y148353D01*
X148540Y150014D01*
X149810Y149673D01*
Y128073D01*
X147951Y126214D01*
X132866D01*
Y107466D01*
X147951D01*
X159999Y95419D01*
X160839Y94857D01*
X161830Y94660D01*
X165951D01*
X166419Y93960D01*
X167928Y92951D01*
X169709Y92597D01*
X185674D01*
X187454Y92951D01*
X188964Y93960D01*
X189973Y95469D01*
X190327Y97250D01*
X189973Y99031D01*
X188964Y100540D01*
X187454Y101549D01*
X185674Y101903D01*
X169709D01*
X167928Y101549D01*
X166419Y100540D01*
X165951Y99840D01*
X162903D01*
X151614Y111129D01*
Y122551D01*
X154231Y125169D01*
X154793Y126009D01*
X154990Y127000D01*
Y149673D01*
X156260Y150014D01*
X157219Y148353D01*
X159053Y146519D01*
X161298Y145222D01*
X163803Y144551D01*
X166397D01*
X168902Y145222D01*
X171147Y146519D01*
X172981Y148353D01*
X174278Y150598D01*
X174949Y153103D01*
Y155697D01*
X174278Y158202D01*
X172981Y160447D01*
X171147Y162281D01*
X168902Y163578D01*
X166397Y164249D01*
X163803D01*
X161298Y163578D01*
X159053Y162281D01*
X157219Y160447D01*
X156260Y158786D01*
X154990Y159127D01*
Y161995D01*
X165153Y172159D01*
X165715Y172999D01*
X165912Y173990D01*
Y273247D01*
X177853Y285189D01*
X178415Y286029D01*
X178612Y287020D01*
Y364598D01*
X178415Y365589D01*
X177853Y366429D01*
X174821Y369462D01*
X175183Y370090D01*
X175764Y372258D01*
Y374502D01*
X175183Y376670D01*
X174061Y378614D01*
X172474Y380201D01*
X170530Y381323D01*
X168362Y381904D01*
X166118D01*
X163950Y381323D01*
X162006Y380201D01*
X160419Y378614D01*
X159297Y376670D01*
X158716Y374502D01*
Y372258D01*
X159297Y370090D01*
X160419Y368146D01*
X162006Y366559D01*
X163950Y365437D01*
X166118Y364856D01*
X168362D01*
X170530Y365437D01*
X171158Y365799D01*
X173432Y363526D01*
Y314192D01*
X172162Y313666D01*
X171147Y314681D01*
X168902Y315978D01*
X166397Y316649D01*
X163803D01*
X161298Y315978D01*
X159053Y314681D01*
X157219Y312847D01*
X155922Y310602D01*
X155251Y308097D01*
Y305503D01*
X155922Y302998D01*
X157219Y300753D01*
X159053Y298919D01*
X161298Y297622D01*
X163803Y296951D01*
X166397D01*
X168902Y297622D01*
X171147Y298919D01*
X172162Y299934D01*
X173432Y299408D01*
Y288093D01*
X161491Y276151D01*
X160929Y275311D01*
X160732Y274320D01*
Y192292D01*
X159462Y191766D01*
X158447Y192781D01*
X156202Y194078D01*
X153697Y194749D01*
X151103D01*
X148598Y194078D01*
X146353Y192781D01*
X144519Y190947D01*
X143222Y188701D01*
X142551Y186196D01*
Y183603D01*
X143222Y181098D01*
X144519Y178852D01*
X146353Y177019D01*
X148598Y175722D01*
X151103Y175051D01*
X153697D01*
X156202Y175722D01*
X158447Y177019D01*
X159462Y178034D01*
X160732Y177507D01*
Y175063D01*
X150569Y164899D01*
X150007Y164059D01*
X149810Y163068D01*
Y159127D01*
X148540Y158786D01*
X147581Y160447D01*
X145747Y162281D01*
X143502Y163578D01*
X140997Y164249D01*
X138403D01*
X135898Y163578D01*
X133653Y162281D01*
X131819Y160447D01*
X131114Y159226D01*
X129844Y159566D01*
Y167988D01*
X129647Y168979D01*
X129085Y169819D01*
X125656Y173248D01*
X124816Y173810D01*
X123825Y174007D01*
X46165D01*
Y176973D01*
X39166D01*
Y194056D01*
X38969Y195047D01*
X38407Y195887D01*
X29514Y204781D01*
Y207876D01*
X37084D01*
Y217900D01*
Y227924D01*
X29514D01*
Y231051D01*
X33084Y234621D01*
X34231Y233959D01*
X36780Y233276D01*
X39420D01*
X41969Y233959D01*
X44255Y235279D01*
X46121Y237145D01*
X47441Y239431D01*
X48124Y241980D01*
Y244620D01*
X47441Y247169D01*
X46779Y248316D01*
X52571Y254108D01*
X53132Y254949D01*
X53329Y255940D01*
Y285303D01*
X53132Y286294D01*
X52571Y287134D01*
X48310Y291395D01*
Y300936D01*
X53994D01*
Y305371D01*
X65475D01*
X65877Y304969D01*
X66717Y304407D01*
X67708Y304210D01*
X79398D01*
X79722Y302998D01*
X81019Y300753D01*
X82853Y298919D01*
X85098Y297622D01*
X87603Y296951D01*
X90197D01*
X92702Y297622D01*
X94947Y298919D01*
X96781Y300753D01*
X98078Y302998D01*
X98749Y305503D01*
Y308097D01*
X98078Y310602D01*
X96781Y312847D01*
X94947Y314681D01*
X92702Y315978D01*
X90197Y316649D01*
X87603D01*
X85098Y315978D01*
X82853Y314681D01*
X81019Y312847D01*
X79722Y310602D01*
X79398Y309390D01*
X68781D01*
X68379Y309792D01*
X67539Y310353D01*
X66548Y310550D01*
X53994D01*
Y314936D01*
Y320944D01*
X45720D01*
Y322976D01*
X53994D01*
Y327610D01*
X99060D01*
X100051Y327807D01*
X100891Y328369D01*
X138322Y365799D01*
X138950Y365437D01*
X141118Y364856D01*
X143362D01*
X145530Y365437D01*
X147474Y366559D01*
X149061Y368146D01*
X150183Y370090D01*
X150764Y372258D01*
Y374502D01*
X150183Y376670D01*
X149061Y378614D01*
X147474Y380201D01*
X145530Y381323D01*
X143362Y381904D01*
X141118D01*
X138950Y381323D01*
X137006Y380201D01*
X135419Y378614D01*
X134297Y376670D01*
X133716Y374502D01*
Y372258D01*
X134297Y370090D01*
X134659Y369462D01*
X97987Y332790D01*
X36576D01*
X35585Y332593D01*
X34745Y332031D01*
X34491Y331777D01*
X33929Y330937D01*
X33784Y330209D01*
X33732Y329946D01*
X33732Y329944D01*
X33674Y328984D01*
X26416D01*
Y321960D01*
X25400D01*
Y320944D01*
X17126D01*
Y314936D01*
Y300936D01*
X22810D01*
Y281400D01*
X23007Y280409D01*
X23569Y279569D01*
X29421Y273716D01*
X28759Y272569D01*
X28076Y270020D01*
Y267380D01*
X28759Y264831D01*
X30079Y262545D01*
X31945Y260679D01*
X34231Y259359D01*
X36780Y258676D01*
X39420D01*
X41969Y259359D01*
X44255Y260679D01*
X46121Y262545D01*
X46880Y263859D01*
X48150Y263519D01*
Y257012D01*
X43116Y251979D01*
X41969Y252641D01*
X39420Y253324D01*
X36780D01*
X34231Y252641D01*
X31945Y251321D01*
X30079Y249455D01*
X28759Y247169D01*
X28076Y244620D01*
Y241980D01*
X28759Y239431D01*
X29421Y238284D01*
X25093Y233955D01*
X24531Y233115D01*
X24334Y232124D01*
Y203708D01*
X24531Y202717D01*
X25093Y201877D01*
X33986Y192983D01*
Y176973D01*
X30035D01*
Y165861D01*
X46165D01*
Y168827D01*
X122752D01*
X124664Y166915D01*
Y159137D01*
X124478Y159009D01*
X122792Y159389D01*
X122181Y160447D01*
X120347Y162281D01*
X118102Y163578D01*
X115597Y164249D01*
X113003D01*
X110498Y163578D01*
X108253Y162281D01*
X106419Y160447D01*
X105122Y158202D01*
X104451Y155697D01*
Y153103D01*
X105122Y150598D01*
X106419Y148353D01*
X108253Y146519D01*
X110498Y145222D01*
X113003Y144551D01*
X115597D01*
X118102Y145222D01*
X120347Y146519D01*
X122181Y148353D01*
X122792Y149411D01*
X124478Y149791D01*
X124664Y149663D01*
Y124069D01*
X123394Y123543D01*
X122596Y124341D01*
X120458Y125575D01*
X118074Y126214D01*
X115606D01*
X113222Y125575D01*
X111084Y124341D01*
X109339Y122596D01*
X108105Y120458D01*
X107466Y118074D01*
Y115606D01*
X108105Y113222D01*
X109339Y111084D01*
X111084Y109339D01*
X113222Y108105D01*
X114816Y107678D01*
X115009Y107389D01*
X124408Y97990D01*
X123983Y96965D01*
X123983D01*
Y80835D01*
X135097D01*
X135097Y80835D01*
Y80835D01*
X136284Y80526D01*
X154379Y62431D01*
X155219Y61869D01*
X156210Y61672D01*
X203200D01*
X204191Y61869D01*
X205031Y62431D01*
X208333Y65733D01*
X208895Y66573D01*
X209092Y67564D01*
Y91002D01*
X212750Y94660D01*
X216968D01*
X217436Y93960D01*
X218946Y92951D01*
X220727Y92597D01*
X236691D01*
X238472Y92951D01*
X239981Y93960D01*
X240450Y94660D01*
X243402D01*
X251410Y86652D01*
Y81264D01*
X251607Y80273D01*
X252169Y79433D01*
X252423Y79179D01*
X253263Y78618D01*
X254254Y78421D01*
X274508D01*
Y71056D01*
X271335D01*
Y59943D01*
X271335D01*
X271305Y58686D01*
X268425Y55806D01*
X267863Y54966D01*
X267666Y53975D01*
Y41275D01*
X267863Y40284D01*
X268425Y39444D01*
X271854Y36015D01*
X272694Y35453D01*
X273685Y35256D01*
X313252D01*
X314910Y33598D01*
Y31790D01*
X314238Y31341D01*
X313239Y29845D01*
X312887Y28080D01*
Y15080D01*
X313239Y13315D01*
X314238Y11818D01*
X315735Y10818D01*
X317500Y10467D01*
X319265Y10818D01*
X320762Y11818D01*
X321762Y13315D01*
X322113Y15080D01*
Y28080D01*
X321762Y29845D01*
X320762Y31341D01*
X320090Y31790D01*
Y34671D01*
X319893Y35662D01*
X319331Y36502D01*
X316156Y39677D01*
X315316Y40239D01*
X314325Y40436D01*
X274758D01*
X273537Y41656D01*
X274063Y42927D01*
X287465D01*
Y45893D01*
X287634D01*
X288625Y46090D01*
X289465Y46652D01*
X319331Y76518D01*
X319893Y77358D01*
X320090Y78349D01*
Y99959D01*
X321360Y100084D01*
X321457Y99593D01*
X322019Y98753D01*
X325194Y95578D01*
X326034Y95016D01*
X327025Y94819D01*
X377825D01*
X378816Y95016D01*
X379656Y95578D01*
X382831Y98753D01*
X383393Y99593D01*
X383590Y100584D01*
Y105370D01*
X384262Y105819D01*
X385261Y107315D01*
X385613Y109080D01*
Y122080D01*
X385275Y123775D01*
X385270Y123998D01*
X385920Y125045D01*
X388780D01*
X389430Y123998D01*
X389425Y123775D01*
X389087Y122080D01*
Y109080D01*
X389439Y107315D01*
X390438Y105819D01*
X391935Y104819D01*
X393700Y104468D01*
X395465Y104819D01*
X396962Y105819D01*
X397962Y107315D01*
X398313Y109080D01*
Y122080D01*
X397976Y123775D01*
X397970Y123998D01*
X398620Y125045D01*
X401480D01*
X402130Y123998D01*
X402124Y123775D01*
X401787Y122080D01*
Y109080D01*
X402138Y107315D01*
X403138Y105819D01*
X404635Y104819D01*
X406400Y104468D01*
X408165Y104819D01*
X409662Y105819D01*
X410662Y107315D01*
X411013Y109080D01*
Y122080D01*
X410676Y123775D01*
X410670Y123998D01*
X411320Y125045D01*
X422275D01*
X423266Y125242D01*
X424106Y125804D01*
X431853Y133551D01*
X432415Y134391D01*
X432612Y135382D01*
Y295878D01*
X432415Y296869D01*
X431853Y297709D01*
X427650Y301912D01*
X428278Y302998D01*
X428949Y305503D01*
Y308097D01*
X428278Y310602D01*
X426981Y312847D01*
X425147Y314681D01*
X422902Y315978D01*
X420397Y316649D01*
X417803D01*
X415298Y315978D01*
X413053Y314681D01*
X411219Y312847D01*
X409922Y310602D01*
X409251Y308097D01*
Y305503D01*
X409922Y302998D01*
X411219Y300753D01*
X413053Y298919D01*
X415298Y297622D01*
X417803Y296951D01*
X420397D01*
X422902Y297622D01*
X423988Y298249D01*
X427432Y294805D01*
Y161792D01*
X426162Y161266D01*
X425147Y162281D01*
X422902Y163578D01*
X420397Y164249D01*
X417803D01*
X415298Y163578D01*
X413053Y162281D01*
X411219Y160447D01*
X409922Y158202D01*
X409251Y155697D01*
Y153103D01*
X409922Y150598D01*
X410550Y149512D01*
X397231Y136194D01*
X379879D01*
X379754Y137464D01*
X380245Y137561D01*
X381085Y138123D01*
X388812Y145850D01*
X389898Y145222D01*
X392403Y144551D01*
X394997D01*
X397502Y145222D01*
X399747Y146519D01*
X401581Y148353D01*
X402878Y150598D01*
X403549Y153103D01*
Y155697D01*
X402878Y158202D01*
X401581Y160447D01*
X399747Y162281D01*
X397502Y163578D01*
X394997Y164249D01*
X392403D01*
X389898Y163578D01*
X387653Y162281D01*
X385819Y160447D01*
X384522Y158202D01*
X383851Y155697D01*
Y153103D01*
X384522Y150598D01*
X385149Y149512D01*
X378181Y142544D01*
X361766D01*
X361280Y143717D01*
X363412Y145850D01*
X364498Y145222D01*
X367003Y144551D01*
X369597D01*
X372102Y145222D01*
X374347Y146519D01*
X376181Y148353D01*
X377478Y150598D01*
X378149Y153103D01*
Y155697D01*
X377478Y158202D01*
X376181Y160447D01*
X374347Y162281D01*
X372102Y163578D01*
X369597Y164249D01*
X367003D01*
X364498Y163578D01*
X362253Y162281D01*
X360419Y160447D01*
X359122Y158202D01*
X358451Y155697D01*
Y153103D01*
X359122Y150598D01*
X359749Y149512D01*
X356337Y146100D01*
X350324D01*
X349798Y147370D01*
X350781Y148353D01*
X352078Y150598D01*
X352749Y153103D01*
Y155697D01*
X352078Y158202D01*
X350781Y160447D01*
X348947Y162281D01*
X346702Y163578D01*
X344197Y164249D01*
X341603D01*
X339098Y163578D01*
X336853Y162281D01*
X335019Y160447D01*
X333722Y158202D01*
X333051Y155697D01*
Y153103D01*
X333722Y150598D01*
X335019Y148353D01*
X336002Y147370D01*
X335584Y146237D01*
X335485Y146090D01*
X334543Y145903D01*
X333703Y145341D01*
X328369Y140007D01*
X327807Y139167D01*
X327710Y138676D01*
X326440Y138801D01*
Y140335D01*
X326243Y141326D01*
X325681Y142166D01*
X323070Y144777D01*
X323206Y146321D01*
X323547Y146519D01*
X325381Y148353D01*
X326678Y150598D01*
X327349Y153103D01*
Y155697D01*
X326678Y158202D01*
X325381Y160447D01*
X323547Y162281D01*
X321302Y163578D01*
X318797Y164249D01*
X316203D01*
X313698Y163578D01*
X311453Y162281D01*
X309619Y160447D01*
X308322Y158202D01*
X307651Y155697D01*
Y153103D01*
X308322Y150598D01*
X309619Y148353D01*
X310602Y147370D01*
X310076Y146100D01*
X299524D01*
X298998Y147370D01*
X299981Y148353D01*
X301278Y150598D01*
X301949Y153103D01*
Y155697D01*
X301278Y158202D01*
X299981Y160447D01*
X298147Y162281D01*
X295902Y163578D01*
X293397Y164249D01*
X290803D01*
X288298Y163578D01*
X286053Y162281D01*
X284219Y160447D01*
X282922Y158202D01*
X282251Y155697D01*
Y153103D01*
X282922Y150598D01*
X284219Y148353D01*
X285024Y147548D01*
X284561Y146365D01*
X283502Y146245D01*
X280212Y149536D01*
Y270478D01*
X280015Y271469D01*
X279453Y272309D01*
X249851Y301912D01*
X250478Y302998D01*
X251149Y305503D01*
Y308097D01*
X250478Y310602D01*
X249181Y312847D01*
X247347Y314681D01*
X245102Y315978D01*
X242597Y316649D01*
X240003D01*
X237498Y315978D01*
X235253Y314681D01*
X233419Y312847D01*
X232122Y310602D01*
X231451Y308097D01*
Y305503D01*
X232122Y302998D01*
X233419Y300753D01*
X235253Y298919D01*
X237498Y297622D01*
X240003Y296951D01*
X242597D01*
X245102Y297622D01*
X246188Y298249D01*
X275032Y269405D01*
Y161792D01*
X273762Y161266D01*
X272747Y162281D01*
X270502Y163578D01*
X267997Y164249D01*
X265403D01*
X262898Y163578D01*
X260653Y162281D01*
X258819Y160447D01*
X257522Y158202D01*
X256851Y155697D01*
Y153103D01*
X257522Y150598D01*
X258819Y148353D01*
X260653Y146519D01*
X262898Y145222D01*
X265403Y144551D01*
X267997D01*
X270502Y145222D01*
X272747Y146519D01*
X273896Y147667D01*
X274771Y147539D01*
X275336Y147312D01*
X275791Y146632D01*
X280744Y141679D01*
X281584Y141117D01*
X282575Y140920D01*
X319602D01*
X321260Y139262D01*
Y126536D01*
X319990Y125857D01*
X319265Y126342D01*
X317500Y126693D01*
X315735Y126342D01*
X314238Y125342D01*
X312978Y125741D01*
Y130175D01*
X312781Y131166D01*
X312219Y132006D01*
X306758Y137467D01*
X305918Y138029D01*
X304927Y138226D01*
X259715D01*
X258724Y138029D01*
X257884Y137467D01*
X244295Y123878D01*
X243733Y123038D01*
X243536Y122047D01*
Y115373D01*
X241467Y113303D01*
X239981Y113240D01*
X238472Y114249D01*
X236691Y114603D01*
X220727D01*
X218946Y114249D01*
X217436Y113240D01*
X216427Y111731D01*
X216073Y109950D01*
X216427Y108169D01*
X217436Y106660D01*
X218946Y105651D01*
X220727Y105297D01*
X236691D01*
X238472Y105651D01*
X239981Y106660D01*
X240450Y107360D01*
X241776D01*
X242767Y107557D01*
X243607Y108119D01*
X247957Y112469D01*
X248519Y113309D01*
X248716Y114300D01*
Y120974D01*
X260788Y133046D01*
X303854D01*
X307798Y129102D01*
Y127026D01*
X306756Y126314D01*
X306528Y126349D01*
X304800Y126693D01*
X303035Y126342D01*
X301538Y125342D01*
X300539Y123845D01*
X300187Y122080D01*
Y118170D01*
X297127D01*
X296344Y118693D01*
X295353Y118890D01*
X287174D01*
Y125074D01*
X271944D01*
X271626Y125074D01*
X270674D01*
X270356Y125074D01*
X263916D01*
Y116300D01*
Y107526D01*
X270356D01*
X270674Y107526D01*
X271626D01*
X271944Y107526D01*
X276810D01*
Y99674D01*
X271626D01*
Y99674D01*
X270674D01*
Y99674D01*
X263916D01*
Y90900D01*
X261884D01*
Y99674D01*
X255126D01*
Y91921D01*
X253953Y91435D01*
X246306Y99081D01*
X245466Y99643D01*
X244475Y99840D01*
X240450D01*
X239981Y100540D01*
X238472Y101549D01*
X236691Y101903D01*
X220727D01*
X218946Y101549D01*
X217436Y100540D01*
X216968Y99840D01*
X211677D01*
X210686Y99643D01*
X209846Y99081D01*
X205282Y94517D01*
X204012Y95043D01*
Y164846D01*
X203815Y165837D01*
X203253Y166677D01*
X194868Y175063D01*
Y177507D01*
X196138Y178034D01*
X197153Y177019D01*
X199398Y175722D01*
X201903Y175051D01*
X204497D01*
X207002Y175722D01*
X209247Y177019D01*
X211081Y178852D01*
X212378Y181098D01*
X213049Y183603D01*
Y186196D01*
X212378Y188701D01*
X211081Y190947D01*
X209247Y192781D01*
X207002Y194078D01*
X204497Y194749D01*
X201903D01*
X199398Y194078D01*
X197153Y192781D01*
X196138Y191766D01*
X194868Y192292D01*
Y230067D01*
X203253Y238453D01*
X203815Y239293D01*
X204012Y240284D01*
Y364198D01*
X203815Y365189D01*
X203253Y366029D01*
X199820Y369462D01*
X200183Y370090D01*
X200764Y372258D01*
Y374502D01*
X200183Y376670D01*
X199061Y378614D01*
X197474Y380201D01*
X195530Y381323D01*
X193362Y381904D01*
D02*
G37*
G36*
X445797Y316649D02*
X445516D01*
Y307816D01*
X454349D01*
Y308097D01*
X453678Y310602D01*
X452381Y312847D01*
X450547Y314681D01*
X448302Y315978D01*
X445797Y316649D01*
D02*
G37*
G36*
X443484D02*
X443203D01*
X440698Y315978D01*
X438453Y314681D01*
X436619Y312847D01*
X435322Y310602D01*
X434651Y308097D01*
Y307816D01*
X443484D01*
Y316649D01*
D02*
G37*
G36*
X115597D02*
X115316D01*
Y307816D01*
X124149D01*
Y308097D01*
X123478Y310602D01*
X122181Y312847D01*
X120347Y314681D01*
X118102Y315978D01*
X115597Y316649D01*
D02*
G37*
G36*
X113284D02*
X113003D01*
X110498Y315978D01*
X108253Y314681D01*
X106419Y312847D01*
X105122Y310602D01*
X104451Y308097D01*
Y307816D01*
X113284D01*
Y316649D01*
D02*
G37*
G36*
X674397D02*
X671803D01*
X669298Y315978D01*
X667053Y314681D01*
X665219Y312847D01*
X663922Y310602D01*
X663251Y308097D01*
Y305503D01*
X663922Y302998D01*
X665219Y300753D01*
X667053Y298919D01*
X669298Y297622D01*
X671803Y296951D01*
X674397D01*
X676902Y297622D01*
X679147Y298919D01*
X680981Y300753D01*
X682278Y302998D01*
X682949Y305503D01*
Y308097D01*
X682278Y310602D01*
X680981Y312847D01*
X679147Y314681D01*
X676902Y315978D01*
X674397Y316649D01*
D02*
G37*
G36*
X648997D02*
X646403D01*
X643898Y315978D01*
X641653Y314681D01*
X639819Y312847D01*
X638522Y310602D01*
X637851Y308097D01*
Y305503D01*
X638522Y302998D01*
X639819Y300753D01*
X641653Y298919D01*
X643898Y297622D01*
X646403Y296951D01*
X648997D01*
X651502Y297622D01*
X653747Y298919D01*
X655581Y300753D01*
X656878Y302998D01*
X657549Y305503D01*
Y308097D01*
X656878Y310602D01*
X655581Y312847D01*
X653747Y314681D01*
X651502Y315978D01*
X648997Y316649D01*
D02*
G37*
G36*
X623597D02*
X621003D01*
X618498Y315978D01*
X616253Y314681D01*
X614419Y312847D01*
X613122Y310602D01*
X612451Y308097D01*
Y305503D01*
X613122Y302998D01*
X614419Y300753D01*
X616253Y298919D01*
X618498Y297622D01*
X621003Y296951D01*
X623597D01*
X626102Y297622D01*
X628347Y298919D01*
X630181Y300753D01*
X631478Y302998D01*
X632149Y305503D01*
Y308097D01*
X631478Y310602D01*
X630181Y312847D01*
X628347Y314681D01*
X626102Y315978D01*
X623597Y316649D01*
D02*
G37*
G36*
X598197D02*
X595603D01*
X593098Y315978D01*
X590853Y314681D01*
X589019Y312847D01*
X587722Y310602D01*
X587051Y308097D01*
Y305503D01*
X587722Y302998D01*
X589019Y300753D01*
X590853Y298919D01*
X593098Y297622D01*
X595603Y296951D01*
X598197D01*
X600702Y297622D01*
X602947Y298919D01*
X604781Y300753D01*
X606078Y302998D01*
X606749Y305503D01*
Y308097D01*
X606078Y310602D01*
X604781Y312847D01*
X602947Y314681D01*
X600702Y315978D01*
X598197Y316649D01*
D02*
G37*
G36*
X572797D02*
X570203D01*
X567698Y315978D01*
X565453Y314681D01*
X563619Y312847D01*
X562322Y310602D01*
X561651Y308097D01*
Y305503D01*
X562322Y302998D01*
X563619Y300753D01*
X565453Y298919D01*
X567698Y297622D01*
X570203Y296951D01*
X572797D01*
X575302Y297622D01*
X577547Y298919D01*
X579381Y300753D01*
X580678Y302998D01*
X581349Y305503D01*
Y308097D01*
X580678Y310602D01*
X579381Y312847D01*
X577547Y314681D01*
X575302Y315978D01*
X572797Y316649D01*
D02*
G37*
G36*
X547397D02*
X544803D01*
X542298Y315978D01*
X540053Y314681D01*
X538219Y312847D01*
X536922Y310602D01*
X536251Y308097D01*
Y305503D01*
X536922Y302998D01*
X538219Y300753D01*
X540053Y298919D01*
X542298Y297622D01*
X544803Y296951D01*
X547397D01*
X549902Y297622D01*
X552147Y298919D01*
X553981Y300753D01*
X555278Y302998D01*
X555949Y305503D01*
Y308097D01*
X555278Y310602D01*
X553981Y312847D01*
X552147Y314681D01*
X549902Y315978D01*
X547397Y316649D01*
D02*
G37*
G36*
X521997D02*
X519403D01*
X516898Y315978D01*
X514653Y314681D01*
X512819Y312847D01*
X511522Y310602D01*
X510851Y308097D01*
Y305503D01*
X511522Y302998D01*
X512819Y300753D01*
X514653Y298919D01*
X516898Y297622D01*
X519403Y296951D01*
X521997D01*
X524502Y297622D01*
X526747Y298919D01*
X528581Y300753D01*
X529878Y302998D01*
X530549Y305503D01*
Y308097D01*
X529878Y310602D01*
X528581Y312847D01*
X526747Y314681D01*
X524502Y315978D01*
X521997Y316649D01*
D02*
G37*
G36*
X496597D02*
X494003D01*
X491498Y315978D01*
X489253Y314681D01*
X487419Y312847D01*
X486122Y310602D01*
X485451Y308097D01*
Y305503D01*
X486122Y302998D01*
X487419Y300753D01*
X489253Y298919D01*
X491498Y297622D01*
X494003Y296951D01*
X496597D01*
X499102Y297622D01*
X501347Y298919D01*
X503181Y300753D01*
X504478Y302998D01*
X505149Y305503D01*
Y308097D01*
X504478Y310602D01*
X503181Y312847D01*
X501347Y314681D01*
X499102Y315978D01*
X496597Y316649D01*
D02*
G37*
G36*
X471197D02*
X468603D01*
X466098Y315978D01*
X463853Y314681D01*
X462019Y312847D01*
X460722Y310602D01*
X460051Y308097D01*
Y305503D01*
X460722Y302998D01*
X462019Y300753D01*
X463853Y298919D01*
X466098Y297622D01*
X468603Y296951D01*
X471197D01*
X473702Y297622D01*
X475947Y298919D01*
X477781Y300753D01*
X479078Y302998D01*
X479749Y305503D01*
Y308097D01*
X479078Y310602D01*
X477781Y312847D01*
X475947Y314681D01*
X473702Y315978D01*
X471197Y316649D01*
D02*
G37*
G36*
X454349Y305784D02*
X445516D01*
Y296951D01*
X445797D01*
X448302Y297622D01*
X450547Y298919D01*
X452381Y300753D01*
X453678Y302998D01*
X454349Y305503D01*
Y305784D01*
D02*
G37*
G36*
X443484D02*
X434651D01*
Y305503D01*
X435322Y302998D01*
X436619Y300753D01*
X438453Y298919D01*
X440698Y297622D01*
X443203Y296951D01*
X443484D01*
Y305784D01*
D02*
G37*
G36*
X394997Y316649D02*
X392403D01*
X389898Y315978D01*
X387653Y314681D01*
X385819Y312847D01*
X384522Y310602D01*
X383851Y308097D01*
Y305503D01*
X384522Y302998D01*
X385819Y300753D01*
X387653Y298919D01*
X389898Y297622D01*
X392403Y296951D01*
X394997D01*
X397502Y297622D01*
X399747Y298919D01*
X401581Y300753D01*
X402878Y302998D01*
X403549Y305503D01*
Y308097D01*
X402878Y310602D01*
X401581Y312847D01*
X399747Y314681D01*
X397502Y315978D01*
X394997Y316649D01*
D02*
G37*
G36*
X369597D02*
X367003D01*
X364498Y315978D01*
X362253Y314681D01*
X360419Y312847D01*
X359122Y310602D01*
X358451Y308097D01*
Y305503D01*
X359122Y302998D01*
X360419Y300753D01*
X362253Y298919D01*
X364498Y297622D01*
X367003Y296951D01*
X369597D01*
X372102Y297622D01*
X374347Y298919D01*
X376181Y300753D01*
X377478Y302998D01*
X378149Y305503D01*
Y308097D01*
X377478Y310602D01*
X376181Y312847D01*
X374347Y314681D01*
X372102Y315978D01*
X369597Y316649D01*
D02*
G37*
G36*
X344197D02*
X341603D01*
X339098Y315978D01*
X336853Y314681D01*
X335019Y312847D01*
X333722Y310602D01*
X333051Y308097D01*
Y305503D01*
X333722Y302998D01*
X335019Y300753D01*
X336853Y298919D01*
X339098Y297622D01*
X341603Y296951D01*
X344197D01*
X346702Y297622D01*
X348947Y298919D01*
X350781Y300753D01*
X352078Y302998D01*
X352749Y305503D01*
Y308097D01*
X352078Y310602D01*
X350781Y312847D01*
X348947Y314681D01*
X346702Y315978D01*
X344197Y316649D01*
D02*
G37*
G36*
X318797D02*
X316203D01*
X313698Y315978D01*
X311453Y314681D01*
X309619Y312847D01*
X308322Y310602D01*
X307651Y308097D01*
Y305503D01*
X308322Y302998D01*
X309619Y300753D01*
X311453Y298919D01*
X313698Y297622D01*
X316203Y296951D01*
X318797D01*
X321302Y297622D01*
X323547Y298919D01*
X325381Y300753D01*
X326678Y302998D01*
X327349Y305503D01*
Y308097D01*
X326678Y310602D01*
X325381Y312847D01*
X323547Y314681D01*
X321302Y315978D01*
X318797Y316649D01*
D02*
G37*
G36*
X217197D02*
X214603D01*
X212098Y315978D01*
X209853Y314681D01*
X208019Y312847D01*
X206722Y310602D01*
X206051Y308097D01*
Y305503D01*
X206722Y302998D01*
X208019Y300753D01*
X209853Y298919D01*
X212098Y297622D01*
X214603Y296951D01*
X217197D01*
X219702Y297622D01*
X221947Y298919D01*
X223781Y300753D01*
X225078Y302998D01*
X225749Y305503D01*
Y308097D01*
X225078Y310602D01*
X223781Y312847D01*
X221947Y314681D01*
X219702Y315978D01*
X217197Y316649D01*
D02*
G37*
G36*
X140997D02*
X138403D01*
X135898Y315978D01*
X133653Y314681D01*
X131819Y312847D01*
X130522Y310602D01*
X129851Y308097D01*
Y305503D01*
X130522Y302998D01*
X131819Y300753D01*
X133653Y298919D01*
X135898Y297622D01*
X138403Y296951D01*
X140997D01*
X143502Y297622D01*
X145747Y298919D01*
X147581Y300753D01*
X148878Y302998D01*
X149549Y305503D01*
Y308097D01*
X148878Y310602D01*
X147581Y312847D01*
X145747Y314681D01*
X143502Y315978D01*
X140997Y316649D01*
D02*
G37*
G36*
X124149Y305784D02*
X115316D01*
Y296951D01*
X115597D01*
X118102Y297622D01*
X120347Y298919D01*
X122181Y300753D01*
X123478Y302998D01*
X124149Y305503D01*
Y305784D01*
D02*
G37*
G36*
X113284D02*
X104451D01*
Y305503D01*
X105122Y302998D01*
X106419Y300753D01*
X108253Y298919D01*
X110498Y297622D01*
X113003Y296951D01*
X113284D01*
Y305784D01*
D02*
G37*
G36*
X547397Y291249D02*
X544803D01*
X542298Y290578D01*
X540053Y289281D01*
X538219Y287447D01*
X536922Y285202D01*
X536251Y282697D01*
Y280103D01*
X536922Y277598D01*
X538219Y275353D01*
X540053Y273519D01*
X542298Y272222D01*
X544803Y271551D01*
X547397D01*
X549902Y272222D01*
X552147Y273519D01*
X553981Y275353D01*
X555278Y277598D01*
X555949Y280103D01*
Y282697D01*
X555278Y285202D01*
X553981Y287447D01*
X552147Y289281D01*
X549902Y290578D01*
X547397Y291249D01*
D02*
G37*
G36*
X115597D02*
X113003D01*
X110498Y290578D01*
X108253Y289281D01*
X106419Y287447D01*
X105122Y285202D01*
X104451Y282697D01*
Y280103D01*
X105122Y277598D01*
X106419Y275353D01*
X108253Y273519D01*
X110498Y272222D01*
X113003Y271551D01*
X115597D01*
X118102Y272222D01*
X120347Y273519D01*
X122181Y275353D01*
X123478Y277598D01*
X124149Y280103D01*
Y282697D01*
X123478Y285202D01*
X122181Y287447D01*
X120347Y289281D01*
X118102Y290578D01*
X115597Y291249D01*
D02*
G37*
G36*
X547397Y265849D02*
X544803D01*
X542298Y265178D01*
X540053Y263881D01*
X538219Y262047D01*
X536922Y259802D01*
X536251Y257297D01*
Y254703D01*
X536922Y252198D01*
X538219Y249953D01*
X540053Y248119D01*
X542298Y246822D01*
X544803Y246151D01*
X547397D01*
X549902Y246822D01*
X552147Y248119D01*
X553981Y249953D01*
X555278Y252198D01*
X555949Y254703D01*
Y257297D01*
X555278Y259802D01*
X553981Y262047D01*
X552147Y263881D01*
X549902Y265178D01*
X547397Y265849D01*
D02*
G37*
G36*
Y240449D02*
X544803D01*
X542298Y239778D01*
X540053Y238481D01*
X538219Y236647D01*
X536922Y234402D01*
X536251Y231897D01*
Y229303D01*
X536922Y226798D01*
X538219Y224553D01*
X540053Y222719D01*
X542298Y221422D01*
X544803Y220751D01*
X547397D01*
X549902Y221422D01*
X552147Y222719D01*
X553981Y224553D01*
X555278Y226798D01*
X555949Y229303D01*
Y231897D01*
X555278Y234402D01*
X553981Y236647D01*
X552147Y238481D01*
X549902Y239778D01*
X547397Y240449D01*
D02*
G37*
G36*
X48124Y227924D02*
X39116D01*
Y218916D01*
X48124D01*
Y227924D01*
D02*
G37*
G36*
Y216884D02*
X39116D01*
Y207876D01*
X48124D01*
Y216884D01*
D02*
G37*
G36*
X547397Y215049D02*
X544803D01*
X542298Y214378D01*
X540053Y213081D01*
X538219Y211247D01*
X536922Y209002D01*
X536251Y206497D01*
Y203903D01*
X536922Y201398D01*
X538219Y199153D01*
X540053Y197319D01*
X542298Y196022D01*
X544803Y195351D01*
X547397D01*
X549902Y196022D01*
X552147Y197319D01*
X553981Y199153D01*
X555278Y201398D01*
X555949Y203903D01*
Y206497D01*
X555278Y209002D01*
X553981Y211247D01*
X552147Y213081D01*
X549902Y214378D01*
X547397Y215049D01*
D02*
G37*
G36*
X255297Y194749D02*
X255016D01*
Y185916D01*
X263849D01*
Y186196D01*
X263178Y188701D01*
X261881Y190947D01*
X260047Y192781D01*
X257802Y194078D01*
X255297Y194749D01*
D02*
G37*
G36*
X252984D02*
X252703D01*
X250198Y194078D01*
X247953Y192781D01*
X246119Y190947D01*
X244822Y188701D01*
X244151Y186196D01*
Y185916D01*
X252984D01*
Y194749D01*
D02*
G37*
G36*
X229897D02*
X229616D01*
Y185916D01*
X238449D01*
Y186196D01*
X237778Y188701D01*
X236481Y190947D01*
X234647Y192781D01*
X232402Y194078D01*
X229897Y194749D01*
D02*
G37*
G36*
X227584D02*
X227303D01*
X224798Y194078D01*
X222553Y192781D01*
X220719Y190947D01*
X219422Y188701D01*
X218751Y186196D01*
Y185916D01*
X227584D01*
Y194749D01*
D02*
G37*
G36*
X263849Y183884D02*
X255016D01*
Y175051D01*
X255297D01*
X257802Y175722D01*
X260047Y177019D01*
X261881Y178852D01*
X263178Y181098D01*
X263849Y183603D01*
Y183884D01*
D02*
G37*
G36*
X252984D02*
X244151D01*
Y183603D01*
X244822Y181098D01*
X246119Y178852D01*
X247953Y177019D01*
X250198Y175722D01*
X252703Y175051D01*
X252984D01*
Y183884D01*
D02*
G37*
G36*
X238449D02*
X229616D01*
Y175051D01*
X229897D01*
X232402Y175722D01*
X234647Y177019D01*
X236481Y178852D01*
X237778Y181098D01*
X238449Y183603D01*
Y183884D01*
D02*
G37*
G36*
X227584D02*
X218751D01*
Y183603D01*
X219422Y181098D01*
X220719Y178852D01*
X222553Y177019D01*
X224798Y175722D01*
X227303Y175051D01*
X227584D01*
Y183884D01*
D02*
G37*
G36*
X179097Y194749D02*
X176503D01*
X173998Y194078D01*
X171753Y192781D01*
X169919Y190947D01*
X168622Y188701D01*
X167951Y186196D01*
Y183603D01*
X168622Y181098D01*
X169919Y178852D01*
X171753Y177019D01*
X173998Y175722D01*
X176503Y175051D01*
X179097D01*
X181602Y175722D01*
X183847Y177019D01*
X185681Y178852D01*
X186978Y181098D01*
X187649Y183603D01*
Y186196D01*
X186978Y188701D01*
X185681Y190947D01*
X183847Y192781D01*
X181602Y194078D01*
X179097Y194749D01*
D02*
G37*
G36*
X547397Y189649D02*
X544803D01*
X542298Y188978D01*
X540053Y187681D01*
X538219Y185847D01*
X536922Y183602D01*
X536251Y181097D01*
Y178503D01*
X536922Y175998D01*
X538219Y173753D01*
X540053Y171919D01*
X542298Y170622D01*
X544803Y169951D01*
X547397D01*
X549902Y170622D01*
X552147Y171919D01*
X553981Y173753D01*
X555278Y175998D01*
X555949Y178503D01*
Y181097D01*
X555278Y183602D01*
X553981Y185847D01*
X552147Y187681D01*
X549902Y188978D01*
X547397Y189649D01*
D02*
G37*
G36*
X90197Y164249D02*
X89916D01*
Y155416D01*
X98749D01*
Y155697D01*
X98078Y158202D01*
X96781Y160447D01*
X94947Y162281D01*
X92702Y163578D01*
X90197Y164249D01*
D02*
G37*
G36*
X87884D02*
X87603D01*
X85098Y163578D01*
X82853Y162281D01*
X81019Y160447D01*
X79722Y158202D01*
X79051Y155697D01*
Y155416D01*
X87884D01*
Y164249D01*
D02*
G37*
G36*
X674397D02*
X671803D01*
X669298Y163578D01*
X667053Y162281D01*
X665219Y160447D01*
X663922Y158202D01*
X663251Y155697D01*
Y153103D01*
X663922Y150598D01*
X665219Y148353D01*
X667053Y146519D01*
X669298Y145222D01*
X671803Y144551D01*
X674397D01*
X676902Y145222D01*
X679147Y146519D01*
X680981Y148353D01*
X682278Y150598D01*
X682949Y153103D01*
Y155697D01*
X682278Y158202D01*
X680981Y160447D01*
X679147Y162281D01*
X676902Y163578D01*
X674397Y164249D01*
D02*
G37*
G36*
X648997D02*
X646403D01*
X643898Y163578D01*
X641653Y162281D01*
X639819Y160447D01*
X638522Y158202D01*
X637851Y155697D01*
Y153103D01*
X638522Y150598D01*
X639819Y148353D01*
X641653Y146519D01*
X643898Y145222D01*
X646403Y144551D01*
X648997D01*
X651502Y145222D01*
X653747Y146519D01*
X655581Y148353D01*
X656878Y150598D01*
X657549Y153103D01*
Y155697D01*
X656878Y158202D01*
X655581Y160447D01*
X653747Y162281D01*
X651502Y163578D01*
X648997Y164249D01*
D02*
G37*
G36*
X623597D02*
X621003D01*
X618498Y163578D01*
X616253Y162281D01*
X614419Y160447D01*
X613122Y158202D01*
X612451Y155697D01*
Y153103D01*
X613122Y150598D01*
X614419Y148353D01*
X616253Y146519D01*
X618498Y145222D01*
X621003Y144551D01*
X623597D01*
X626102Y145222D01*
X628347Y146519D01*
X630181Y148353D01*
X631478Y150598D01*
X632149Y153103D01*
Y155697D01*
X631478Y158202D01*
X630181Y160447D01*
X628347Y162281D01*
X626102Y163578D01*
X623597Y164249D01*
D02*
G37*
G36*
X598197D02*
X595603D01*
X593098Y163578D01*
X590853Y162281D01*
X589019Y160447D01*
X587722Y158202D01*
X587051Y155697D01*
Y153103D01*
X587722Y150598D01*
X589019Y148353D01*
X590853Y146519D01*
X593098Y145222D01*
X595603Y144551D01*
X598197D01*
X600702Y145222D01*
X602947Y146519D01*
X604781Y148353D01*
X606078Y150598D01*
X606749Y153103D01*
Y155697D01*
X606078Y158202D01*
X604781Y160447D01*
X602947Y162281D01*
X600702Y163578D01*
X598197Y164249D01*
D02*
G37*
G36*
X496597D02*
X494003D01*
X491498Y163578D01*
X489253Y162281D01*
X487419Y160447D01*
X486122Y158202D01*
X485451Y155697D01*
Y153103D01*
X486122Y150598D01*
X487419Y148353D01*
X489253Y146519D01*
X491498Y145222D01*
X494003Y144551D01*
X496597D01*
X499102Y145222D01*
X501347Y146519D01*
X503181Y148353D01*
X504478Y150598D01*
X505149Y153103D01*
Y155697D01*
X504478Y158202D01*
X503181Y160447D01*
X501347Y162281D01*
X499102Y163578D01*
X496597Y164249D01*
D02*
G37*
G36*
X471197D02*
X468603D01*
X466098Y163578D01*
X463853Y162281D01*
X462019Y160447D01*
X460722Y158202D01*
X460051Y155697D01*
Y153103D01*
X460722Y150598D01*
X462019Y148353D01*
X463853Y146519D01*
X466098Y145222D01*
X468603Y144551D01*
X471197D01*
X473702Y145222D01*
X475947Y146519D01*
X477781Y148353D01*
X479078Y150598D01*
X479749Y153103D01*
Y155697D01*
X479078Y158202D01*
X477781Y160447D01*
X475947Y162281D01*
X473702Y163578D01*
X471197Y164249D01*
D02*
G37*
G36*
X445797D02*
X443203D01*
X440698Y163578D01*
X438453Y162281D01*
X436619Y160447D01*
X435322Y158202D01*
X434651Y155697D01*
Y153103D01*
X435322Y150598D01*
X436619Y148353D01*
X438453Y146519D01*
X440698Y145222D01*
X443203Y144551D01*
X445797D01*
X448302Y145222D01*
X450547Y146519D01*
X452381Y148353D01*
X453678Y150598D01*
X454349Y153103D01*
Y155697D01*
X453678Y158202D01*
X452381Y160447D01*
X450547Y162281D01*
X448302Y163578D01*
X445797Y164249D01*
D02*
G37*
G36*
X242597D02*
X240003D01*
X237498Y163578D01*
X235253Y162281D01*
X233419Y160447D01*
X232122Y158202D01*
X231451Y155697D01*
Y153103D01*
X232122Y150598D01*
X233419Y148353D01*
X235253Y146519D01*
X237498Y145222D01*
X240003Y144551D01*
X242597D01*
X245102Y145222D01*
X247347Y146519D01*
X249181Y148353D01*
X250478Y150598D01*
X251149Y153103D01*
Y155697D01*
X250478Y158202D01*
X249181Y160447D01*
X247347Y162281D01*
X245102Y163578D01*
X242597Y164249D01*
D02*
G37*
G36*
X217197D02*
X214603D01*
X212098Y163578D01*
X209853Y162281D01*
X208019Y160447D01*
X206722Y158202D01*
X206051Y155697D01*
Y153103D01*
X206722Y150598D01*
X208019Y148353D01*
X209853Y146519D01*
X212098Y145222D01*
X214603Y144551D01*
X217197D01*
X219702Y145222D01*
X221947Y146519D01*
X223781Y148353D01*
X225078Y150598D01*
X225749Y153103D01*
Y155697D01*
X225078Y158202D01*
X223781Y160447D01*
X221947Y162281D01*
X219702Y163578D01*
X217197Y164249D01*
D02*
G37*
G36*
X98749Y153384D02*
X89916D01*
Y144551D01*
X90197D01*
X92702Y145222D01*
X94947Y146519D01*
X96781Y148353D01*
X98078Y150598D01*
X98749Y153103D01*
Y153384D01*
D02*
G37*
G36*
X87884D02*
X79051D01*
Y153103D01*
X79722Y150598D01*
X81019Y148353D01*
X82853Y146519D01*
X85098Y145222D01*
X87603Y144551D01*
X87884D01*
Y153384D01*
D02*
G37*
G36*
X46165Y159957D02*
X30035D01*
Y148843D01*
X35510D01*
Y136364D01*
X31076D01*
Y120816D01*
X45124D01*
Y136364D01*
X40690D01*
Y148843D01*
X46165D01*
Y159957D01*
D02*
G37*
G36*
X261884Y125074D02*
X255126D01*
Y117316D01*
X261884D01*
Y125074D01*
D02*
G37*
G36*
X572797Y164249D02*
X570203D01*
X567698Y163578D01*
X565453Y162281D01*
X563619Y160447D01*
X562322Y158202D01*
X561651Y155697D01*
Y153103D01*
X562322Y150598D01*
X563619Y148353D01*
X565453Y146519D01*
X567698Y145222D01*
X568910Y144897D01*
Y113633D01*
X566998Y111721D01*
X566370Y112083D01*
X564202Y112664D01*
X561958D01*
X559790Y112083D01*
X557846Y110961D01*
X556259Y109374D01*
X555137Y107430D01*
X554556Y105262D01*
Y103018D01*
X555137Y100850D01*
X556259Y98906D01*
X557846Y97319D01*
X559790Y96197D01*
X561958Y95616D01*
X564202D01*
X566370Y96197D01*
X568314Y97319D01*
X569901Y98906D01*
X571023Y100850D01*
X571604Y103018D01*
Y105262D01*
X571023Y107430D01*
X570661Y108058D01*
X573331Y110729D01*
X573893Y111569D01*
X574090Y112560D01*
Y144897D01*
X575302Y145222D01*
X577547Y146519D01*
X579381Y148353D01*
X580678Y150598D01*
X581349Y153103D01*
Y155697D01*
X580678Y158202D01*
X579381Y160447D01*
X577547Y162281D01*
X575302Y163578D01*
X572797Y164249D01*
D02*
G37*
G36*
X547397D02*
X544803D01*
X542298Y163578D01*
X540053Y162281D01*
X538219Y160447D01*
X536922Y158202D01*
X536251Y155697D01*
Y153103D01*
X536922Y150598D01*
X538219Y148353D01*
X540053Y146519D01*
X542298Y145222D01*
X543510Y144897D01*
Y113232D01*
X541998Y111721D01*
X541370Y112083D01*
X539202Y112664D01*
X536958D01*
X534790Y112083D01*
X532846Y110961D01*
X531259Y109374D01*
X530137Y107430D01*
X529556Y105262D01*
Y103018D01*
X530137Y100850D01*
X531259Y98906D01*
X532846Y97319D01*
X534790Y96197D01*
X536958Y95616D01*
X539202D01*
X541370Y96197D01*
X543314Y97319D01*
X544901Y98906D01*
X546023Y100850D01*
X546604Y103018D01*
Y105262D01*
X546023Y107430D01*
X545661Y108058D01*
X547931Y110329D01*
X548493Y111169D01*
X548690Y112160D01*
Y144897D01*
X549902Y145222D01*
X552147Y146519D01*
X553981Y148353D01*
X555278Y150598D01*
X555949Y153103D01*
Y155697D01*
X555278Y158202D01*
X553981Y160447D01*
X552147Y162281D01*
X549902Y163578D01*
X547397Y164249D01*
D02*
G37*
G36*
X521997D02*
X519403D01*
X516898Y163578D01*
X514653Y162281D01*
X512819Y160447D01*
X511522Y158202D01*
X510851Y155697D01*
Y153103D01*
X511522Y150598D01*
X512819Y148353D01*
X514653Y146519D01*
X516898Y145222D01*
X518110Y144897D01*
Y112833D01*
X516998Y111721D01*
X516370Y112083D01*
X514202Y112664D01*
X511958D01*
X509790Y112083D01*
X507846Y110961D01*
X506259Y109374D01*
X505137Y107430D01*
X504556Y105262D01*
Y103018D01*
X505137Y100850D01*
X506259Y98906D01*
X507846Y97319D01*
X509790Y96197D01*
X511958Y95616D01*
X514202D01*
X516370Y96197D01*
X518314Y97319D01*
X519901Y98906D01*
X521023Y100850D01*
X521604Y103018D01*
Y105262D01*
X521023Y107430D01*
X520661Y108058D01*
X522531Y109929D01*
X523093Y110769D01*
X523290Y111760D01*
Y144897D01*
X524502Y145222D01*
X526747Y146519D01*
X528581Y148353D01*
X529878Y150598D01*
X530549Y153103D01*
Y155697D01*
X529878Y158202D01*
X528581Y160447D01*
X526747Y162281D01*
X524502Y163578D01*
X521997Y164249D01*
D02*
G37*
G36*
X261884Y115284D02*
X255126D01*
Y107526D01*
X261884D01*
Y115284D01*
D02*
G37*
G36*
X45124Y112864D02*
X39116D01*
Y106106D01*
X45124D01*
Y112864D01*
D02*
G37*
G36*
X37084D02*
X31076D01*
Y106106D01*
X37084D01*
Y112864D01*
D02*
G37*
G36*
X185674Y114603D02*
X169709D01*
X167928Y114249D01*
X166419Y113240D01*
X165410Y111731D01*
X165056Y109950D01*
X165410Y108169D01*
X166419Y106660D01*
X167928Y105651D01*
X169709Y105297D01*
X185674D01*
X187454Y105651D01*
X188964Y106660D01*
X189973Y108169D01*
X190327Y109950D01*
X189973Y111731D01*
X188964Y113240D01*
X187454Y114249D01*
X185674Y114603D01*
D02*
G37*
G36*
X496604Y112664D02*
X489096D01*
Y105156D01*
X496604D01*
Y112664D01*
D02*
G37*
G36*
X487064D02*
X479556D01*
Y105156D01*
X487064D01*
Y112664D01*
D02*
G37*
G36*
X45124Y104074D02*
X39116D01*
Y97316D01*
X45124D01*
Y104074D01*
D02*
G37*
G36*
X37084D02*
X31076D01*
Y97316D01*
X37084D01*
Y104074D01*
D02*
G37*
G36*
X496604Y103124D02*
X489096D01*
Y95616D01*
X496604D01*
Y103124D01*
D02*
G37*
G36*
X487064D02*
X479556D01*
Y95616D01*
X487064D01*
Y103124D01*
D02*
G37*
G36*
X236691Y89203D02*
X229725D01*
Y85566D01*
X241142D01*
X240990Y86331D01*
X239981Y87840D01*
X238472Y88849D01*
X236691Y89203D01*
D02*
G37*
G36*
X227693D02*
X220727D01*
X218946Y88849D01*
X217436Y87840D01*
X216427Y86331D01*
X216275Y85566D01*
X227693D01*
Y89203D01*
D02*
G37*
G36*
X241142Y83534D02*
X229725D01*
Y79897D01*
X236691D01*
X238472Y80251D01*
X239981Y81260D01*
X240990Y82769D01*
X241142Y83534D01*
D02*
G37*
G36*
X227693D02*
X216275D01*
X216427Y82769D01*
X217436Y81260D01*
X218946Y80251D01*
X220727Y79897D01*
X227693D01*
Y83534D01*
D02*
G37*
G36*
X618374Y45874D02*
X600826D01*
Y40690D01*
X597224D01*
Y42004D01*
X539176D01*
Y18956D01*
X558750D01*
Y13773D01*
X557107Y12130D01*
X411217D01*
X410687Y13120D01*
X410678Y13400D01*
X411013Y15080D01*
Y20564D01*
X406400D01*
X401787D01*
Y15080D01*
X402122Y13400D01*
X402113Y13120D01*
X401583Y12130D01*
X400313D01*
X398155Y14287D01*
X398313Y15080D01*
Y28080D01*
X397962Y29845D01*
X396962Y31341D01*
X395465Y32341D01*
X393700Y32692D01*
X391935Y32341D01*
X390438Y31341D01*
X389439Y29845D01*
X389087Y28080D01*
Y15080D01*
X389439Y13315D01*
X390438Y11818D01*
X391935Y10818D01*
X393700Y10467D01*
X394492Y10625D01*
X397409Y7709D01*
X398249Y7147D01*
X399240Y6950D01*
X558180D01*
X559171Y7147D01*
X560011Y7709D01*
X563171Y10869D01*
X563733Y11709D01*
X563930Y12700D01*
Y18956D01*
X597224D01*
Y35270D01*
X597465Y35510D01*
X600826D01*
Y30644D01*
X600826Y30326D01*
Y29374D01*
X600826Y29056D01*
Y22616D01*
X618374D01*
Y29056D01*
X618374Y29374D01*
Y30326D01*
X618374Y30644D01*
Y45874D01*
D02*
G37*
G36*
X407416Y32490D02*
Y22596D01*
X411013D01*
Y28080D01*
X410662Y29845D01*
X409662Y31341D01*
X408165Y32341D01*
X407416Y32490D01*
D02*
G37*
G36*
X405384D02*
X404635Y32341D01*
X403138Y31341D01*
X402138Y29845D01*
X401787Y28080D01*
Y22596D01*
X405384D01*
Y32490D01*
D02*
G37*
G36*
X674727Y54624D02*
X671472D01*
X668280Y53989D01*
X665273Y52743D01*
X662567Y50935D01*
X660265Y48633D01*
X658457Y45927D01*
X657211Y42920D01*
X656576Y39727D01*
Y36472D01*
X657211Y33280D01*
X658457Y30273D01*
X660265Y27567D01*
X662567Y25265D01*
X665273Y23457D01*
X668280Y22211D01*
X671472Y21576D01*
X674727D01*
X677920Y22211D01*
X680927Y23457D01*
X683633Y25265D01*
X685935Y27567D01*
X687743Y30273D01*
X688989Y33280D01*
X689624Y36472D01*
Y39727D01*
X688989Y42920D01*
X687743Y45927D01*
X685935Y48633D01*
X683633Y50935D01*
X680927Y52743D01*
X677920Y53989D01*
X674727Y54624D01*
D02*
G37*
G36*
X39727D02*
X36472D01*
X33280Y53989D01*
X30273Y52743D01*
X27567Y50935D01*
X25265Y48633D01*
X23457Y45927D01*
X22211Y42920D01*
X21576Y39727D01*
Y36472D01*
X22211Y33280D01*
X23457Y30273D01*
X25265Y27567D01*
X27567Y25265D01*
X30273Y23457D01*
X33280Y22211D01*
X36472Y21576D01*
X39727D01*
X42920Y22211D01*
X45927Y23457D01*
X48633Y25265D01*
X50935Y27567D01*
X52743Y30273D01*
X53989Y33280D01*
X54624Y36472D01*
Y39727D01*
X53989Y42920D01*
X52743Y45927D01*
X50935Y48633D01*
X48633Y50935D01*
X45927Y52743D01*
X42920Y53989D01*
X39727Y54624D01*
D02*
G37*
G36*
X440574Y45874D02*
X423026D01*
Y40690D01*
X384175D01*
X383184Y40493D01*
X382344Y39931D01*
X379169Y36756D01*
X378607Y35916D01*
X378410Y34925D01*
Y31790D01*
X377738Y31341D01*
X376739Y29845D01*
X376387Y28080D01*
Y15080D01*
X376739Y13315D01*
X377738Y11818D01*
X379235Y10818D01*
X381000Y10467D01*
X382765Y10818D01*
X384262Y11818D01*
X385261Y13315D01*
X385613Y15080D01*
Y28080D01*
X385261Y29845D01*
X384262Y31341D01*
X383590Y31790D01*
Y33852D01*
X385248Y35510D01*
X423026D01*
Y30644D01*
X423026Y30326D01*
X423026D01*
Y29374D01*
X423026D01*
Y22616D01*
X440574D01*
Y27890D01*
X444176D01*
Y18956D01*
X502224D01*
Y42004D01*
X444176D01*
Y33070D01*
X440574D01*
Y45874D01*
D02*
G37*
G36*
X618374Y20584D02*
X610616D01*
Y13826D01*
X618374D01*
Y20584D01*
D02*
G37*
G36*
X608584D02*
X600826D01*
Y13826D01*
X608584D01*
Y20584D01*
D02*
G37*
G36*
X440574D02*
X432816D01*
Y13826D01*
X440574D01*
Y20584D01*
D02*
G37*
G36*
X430784D02*
X423026D01*
Y13826D01*
X430784D01*
Y20584D01*
D02*
G37*
G36*
X368300Y32692D02*
X366535Y32341D01*
X365038Y31341D01*
X364039Y29845D01*
X363687Y28080D01*
Y15080D01*
X364039Y13315D01*
X365038Y11818D01*
X366535Y10818D01*
X368300Y10467D01*
X370065Y10818D01*
X371562Y11818D01*
X372561Y13315D01*
X372913Y15080D01*
Y28080D01*
X372561Y29845D01*
X371562Y31341D01*
X370065Y32341D01*
X368300Y32692D01*
D02*
G37*
G36*
X355600D02*
X353835Y32341D01*
X352338Y31341D01*
X351339Y29845D01*
X350987Y28080D01*
Y15080D01*
X351339Y13315D01*
X352338Y11818D01*
X353835Y10818D01*
X355600Y10467D01*
X357365Y10818D01*
X358862Y11818D01*
X359861Y13315D01*
X360213Y15080D01*
Y28080D01*
X359861Y29845D01*
X358862Y31341D01*
X357365Y32341D01*
X355600Y32692D01*
D02*
G37*
G36*
X342900D02*
X341135Y32341D01*
X339638Y31341D01*
X338638Y29845D01*
X338287Y28080D01*
Y15080D01*
X338638Y13315D01*
X339638Y11818D01*
X341135Y10818D01*
X342900Y10467D01*
X344665Y10818D01*
X346162Y11818D01*
X347161Y13315D01*
X347513Y15080D01*
Y28080D01*
X347161Y29845D01*
X346162Y31341D01*
X344665Y32341D01*
X342900Y32692D01*
D02*
G37*
G36*
X330200D02*
X328435Y32341D01*
X326938Y31341D01*
X325938Y29845D01*
X325587Y28080D01*
Y15080D01*
X325938Y13315D01*
X326938Y11818D01*
X328435Y10818D01*
X330200Y10467D01*
X331965Y10818D01*
X333462Y11818D01*
X334462Y13315D01*
X334813Y15080D01*
Y28080D01*
X334462Y29845D01*
X333462Y31341D01*
X331965Y32341D01*
X330200Y32692D01*
D02*
G37*
G36*
X241255Y76414D02*
X216163D01*
Y67286D01*
X241255D01*
Y67961D01*
X242525Y68487D01*
X251156Y59855D01*
Y24765D01*
X251353Y23774D01*
X251915Y22934D01*
X255344Y19505D01*
X256184Y18943D01*
X257175Y18746D01*
X300187D01*
Y15080D01*
X300539Y13315D01*
X301538Y11818D01*
X303035Y10818D01*
X304800Y10467D01*
X306565Y10818D01*
X308062Y11818D01*
X309062Y13315D01*
X309413Y15080D01*
Y28080D01*
X309062Y29845D01*
X308062Y31341D01*
X306565Y32341D01*
X304800Y32692D01*
X303035Y32341D01*
X301538Y31341D01*
X300539Y29845D01*
X300187Y28080D01*
Y23926D01*
X258248D01*
X256336Y25838D01*
Y60928D01*
X256139Y61919D01*
X255577Y62759D01*
X244655Y73681D01*
X243815Y74243D01*
X242824Y74440D01*
X241255D01*
Y76414D01*
D02*
G37*
%LPD*%
G36*
X37446Y306952D02*
Y300936D01*
X43130D01*
Y290322D01*
X43327Y289331D01*
X43889Y288491D01*
X48150Y284230D01*
Y273881D01*
X46880Y273541D01*
X46121Y274855D01*
X44255Y276721D01*
X41969Y278041D01*
X39420Y278724D01*
X36780D01*
X34231Y278041D01*
X33084Y277379D01*
X27990Y282473D01*
Y300936D01*
X33674D01*
Y305478D01*
X34123Y305568D01*
X34964Y306129D01*
X36273Y307438D01*
X37446Y306952D01*
D02*
G37*
G36*
X427432Y147008D02*
Y136455D01*
X421202Y130225D01*
X400104D01*
X399719Y131495D01*
X400135Y131773D01*
X414212Y145850D01*
X415298Y145222D01*
X417803Y144551D01*
X420397D01*
X422902Y145222D01*
X425147Y146519D01*
X426162Y147534D01*
X427432Y147008D01*
D02*
G37*
G36*
X367139Y129744D02*
X366723Y129466D01*
X366469Y129212D01*
X365907Y128372D01*
X365710Y127381D01*
Y125791D01*
X365038Y125342D01*
X364039Y123845D01*
X363687Y122080D01*
Y109080D01*
X364039Y107315D01*
X365038Y105819D01*
X366535Y104819D01*
X368300Y104468D01*
X370065Y104819D01*
X371562Y105819D01*
X372561Y107315D01*
X372913Y109080D01*
Y122080D01*
X372575Y123775D01*
X372570Y123998D01*
X373220Y125045D01*
X376080D01*
X376730Y123998D01*
X376725Y123775D01*
X376387Y122080D01*
Y109080D01*
X376739Y107315D01*
X377738Y105819D01*
X378410Y105370D01*
Y101657D01*
X376752Y99999D01*
X355393D01*
X354867Y101269D01*
X357431Y103833D01*
X357993Y104673D01*
X358122Y105324D01*
X358862Y105819D01*
X359861Y107315D01*
X360213Y109080D01*
Y122080D01*
X359861Y123845D01*
X358862Y125342D01*
X357365Y126342D01*
X355600Y126693D01*
X353835Y126342D01*
X352338Y125342D01*
X351339Y123845D01*
X350987Y122080D01*
Y109080D01*
X351339Y107315D01*
X352240Y105966D01*
X351352Y105079D01*
X347166D01*
X346516Y106349D01*
X347161Y107315D01*
X347513Y109080D01*
Y122080D01*
X347161Y123845D01*
X346162Y125342D01*
X345490Y125791D01*
Y129356D01*
X347148Y131014D01*
X366754D01*
X367139Y129744D01*
D02*
G37*
G36*
X203912Y83614D02*
Y68637D01*
X202127Y66852D01*
X188694D01*
X188309Y68122D01*
X188964Y68560D01*
X189973Y70069D01*
X190327Y71850D01*
X189973Y73631D01*
X188964Y75140D01*
X187454Y76149D01*
X185674Y76503D01*
X169709D01*
X167928Y76149D01*
X166419Y75140D01*
X165410Y73631D01*
X165056Y71850D01*
X165410Y70069D01*
X166419Y68560D01*
X167074Y68122D01*
X166689Y66852D01*
X157283D01*
X144473Y79662D01*
X144959Y80835D01*
X152114D01*
Y81960D01*
X165951D01*
X166419Y81260D01*
X167928Y80251D01*
X169709Y79897D01*
X185674D01*
X187454Y80251D01*
X188964Y81260D01*
X189432Y81960D01*
X199390D01*
X200381Y82157D01*
X201221Y82719D01*
X202642Y84140D01*
X203912Y83614D01*
D02*
G37*
G36*
X295082Y113188D02*
X296073Y112990D01*
X300187D01*
Y109080D01*
X300539Y107315D01*
X301538Y105819D01*
X303035Y104819D01*
X304800Y104468D01*
X306528Y104811D01*
X306756Y104846D01*
X307798Y104134D01*
Y81906D01*
X288638Y62746D01*
X287465Y63232D01*
Y71056D01*
X279688D01*
Y78528D01*
X280137Y78618D01*
X280977Y79179D01*
X281231Y79433D01*
X281793Y80273D01*
X281990Y81264D01*
Y82126D01*
X287174D01*
Y99674D01*
X281990D01*
Y107526D01*
X287174D01*
Y113710D01*
X294300D01*
X295082Y113188D01*
D02*
G37*
D13*
X38100Y502920D02*
X53340Y508000D01*
X38100Y502920D02*
X53340Y497840D01*
X657860D02*
X673100Y502920D01*
X657860Y508000D02*
X673100Y502920D01*
X38100D02*
X297958D01*
X405114D02*
X673100D01*
X38100Y398540D02*
Y505460D01*
X673100Y398540D02*
Y505460D01*
X873760Y381000D02*
X878840Y365760D01*
X868680D02*
X873760Y381000D01*
X868680Y53340D02*
X873760Y38100D01*
X878840Y53340D01*
X873760Y257794D02*
Y381000D01*
Y38100D02*
Y153178D01*
X690640Y381000D02*
X876300D01*
X690640Y38100D02*
X876300D01*
X789940Y416560D02*
X795020Y401320D01*
X784860D02*
X789940Y416560D01*
X784860Y15240D02*
X789940Y0D01*
X795020Y15240D01*
X789940Y256524D02*
Y416560D01*
Y0D02*
Y151908D01*
X713740Y416560D02*
X792480D01*
X713740Y0D02*
X792480D01*
X0Y457200D02*
X15240Y462280D01*
X0Y457200D02*
X15240Y452120D01*
X695960D02*
X711200Y457200D01*
X695960Y462280D02*
X711200Y457200D01*
X0D02*
X297958D01*
X405114D02*
X711200D01*
X0Y419100D02*
Y459740D01*
X711200Y419100D02*
Y459740D01*
D14*
X45720Y307960D02*
D03*
Y321960D02*
D03*
X25400Y307960D02*
D03*
Y321960D02*
D03*
D15*
X38100Y128590D02*
D03*
Y105090D02*
D03*
D16*
X473200Y30480D02*
D03*
X568200D02*
D03*
D17*
X304800Y21580D02*
D03*
X317500D02*
D03*
X330200D02*
D03*
X342900D02*
D03*
X355600D02*
D03*
X368300D02*
D03*
X381000D02*
D03*
X393700D02*
D03*
X406400D02*
D03*
Y115580D02*
D03*
X393700D02*
D03*
X381000D02*
D03*
X368300D02*
D03*
X355600D02*
D03*
X342900D02*
D03*
X330200D02*
D03*
X317500D02*
D03*
X304800D02*
D03*
D18*
X262900Y116300D02*
D03*
X279400D02*
D03*
X262900Y90900D02*
D03*
X279400D02*
D03*
D19*
Y48483D02*
D03*
Y65500D02*
D03*
X38100Y171417D02*
D03*
Y154400D02*
D03*
D20*
X228709Y71850D02*
D03*
D21*
Y84550D02*
D03*
Y97250D02*
D03*
Y109950D02*
D03*
X177691D02*
D03*
Y97250D02*
D03*
Y84550D02*
D03*
Y71850D02*
D03*
D22*
X146557Y88900D02*
D03*
X129540D02*
D03*
D23*
X609600Y21600D02*
D03*
Y38100D02*
D03*
X431800Y21600D02*
D03*
Y38100D02*
D03*
D32*
X596300Y373550D02*
D03*
X571300D02*
D03*
X546300D02*
D03*
X563080Y104140D02*
D03*
X538080D02*
D03*
X513080D02*
D03*
X192240Y373380D02*
D03*
X167240D02*
D03*
X142240D02*
D03*
X461480D02*
D03*
X436480D02*
D03*
X411480D02*
D03*
X326860D02*
D03*
X301860D02*
D03*
X276860D02*
D03*
D33*
X521300Y373550D02*
D03*
X488080Y104140D02*
D03*
X117240Y373380D02*
D03*
X386480D02*
D03*
X251860D02*
D03*
D34*
X142240Y116840D02*
D03*
D35*
X116840D02*
D03*
D36*
X561340Y23620D02*
X568200Y30480D01*
X561340Y12700D02*
Y23620D01*
X558180Y9540D02*
X561340Y12700D01*
X399240Y9540D02*
X558180D01*
X393700Y15080D02*
Y21580D01*
Y15080D02*
X399240Y9540D01*
X279400Y81264D02*
Y84666D01*
X277098Y81010D02*
X279146D01*
X254254D02*
X277098D01*
Y82364D01*
Y65500D02*
Y81010D01*
X36576Y171417D02*
Y194056D01*
X257175Y21336D02*
X304800D01*
X228709Y97250D02*
X244475D01*
X254000Y87725D01*
Y81264D02*
Y87725D01*
Y81264D02*
X254254Y81010D01*
X279146D02*
X279400Y81264D01*
X342900Y115580D02*
Y130429D01*
X346075Y133604D01*
X398304D01*
X419100Y154400D01*
X276860Y316960D02*
Y373380D01*
X266700Y306800D02*
X276860Y316960D01*
X167240Y373380D02*
X176022Y364598D01*
Y287020D02*
Y364598D01*
X163322Y274320D02*
X176022Y287020D01*
X163322Y173990D02*
Y274320D01*
X152400Y163068D02*
X163322Y173990D01*
X152400Y127000D02*
Y163068D01*
X142240Y116840D02*
X152400Y127000D01*
X381000Y100584D02*
Y115580D01*
X377825Y97409D02*
X381000Y100584D01*
X327025Y97409D02*
X377825D01*
X323850Y100584D02*
X327025Y97409D01*
X323850Y100584D02*
Y140335D01*
X320675Y143510D02*
X323850Y140335D01*
X282575Y143510D02*
X320675D01*
X277622Y148463D02*
X282575Y143510D01*
X277622Y148463D02*
Y270478D01*
X241300Y306800D02*
X277622Y270478D01*
X546100Y112160D02*
Y154400D01*
X538080Y104140D02*
X546100Y112160D01*
X25400Y281400D02*
Y307960D01*
Y281400D02*
X38100Y268700D01*
X99060Y330200D02*
X142240Y373380D01*
X36576Y330200D02*
X99060D01*
X36322Y329946D02*
X36576Y330200D01*
X36322Y311150D02*
Y329946D01*
X33132Y307960D02*
X36322Y311150D01*
X25400Y307960D02*
X33132D01*
X571500Y112560D02*
Y154400D01*
X563080Y104140D02*
X571500Y112560D01*
X520700Y111760D02*
Y154400D01*
X513080Y104140D02*
X520700Y111760D01*
X419100Y306800D02*
X430022Y295878D01*
Y135382D02*
Y295878D01*
X422275Y127635D02*
X430022Y135382D01*
X368554Y127635D02*
X422275D01*
X368300Y127381D02*
X368554Y127635D01*
X368300Y115580D02*
Y127381D01*
X150907Y84550D02*
X177691D01*
X146557Y88900D02*
X150907Y84550D01*
X596392Y38100D02*
X609600D01*
X588772Y30480D02*
X596392Y38100D01*
X568200Y30480D02*
X588772D01*
X432054D02*
X473200D01*
X431800Y30734D02*
X432054Y30480D01*
X431800Y30734D02*
Y38100D01*
X116840Y109220D02*
Y116840D01*
Y109220D02*
X129540Y96520D01*
Y88900D02*
Y96520D01*
X38100Y171417D02*
X123825D01*
X127254Y167988D01*
Y107315D02*
Y167988D01*
Y107315D02*
X136144Y98425D01*
Y84328D02*
Y98425D01*
Y84328D02*
X156210Y64262D01*
X203200D01*
X206502Y67564D01*
Y92075D01*
X211677Y97250D01*
X228709D01*
X355600Y105664D02*
Y115580D01*
X352425Y102489D02*
X355600Y105664D01*
X339598Y102489D02*
X352425D01*
X337312Y104775D02*
X339598Y102489D01*
X337312Y104775D02*
Y136525D01*
X340741Y139954D01*
X379254D01*
X393700Y154400D01*
X330200Y115580D02*
Y138176D01*
X335534Y143510D01*
X357410D01*
X368300Y154400D01*
X317500Y78349D02*
Y115580D01*
X287634Y48483D02*
X317500Y78349D01*
X279400Y48483D02*
X287634D01*
X277098Y65500D02*
X279400D01*
X277098Y82364D02*
X279400Y84666D01*
Y90900D01*
X296073Y115580D02*
X304800D01*
X295353Y116300D02*
X296073Y115580D01*
X279400Y116300D02*
X295353D01*
X228709Y109950D02*
X241776D01*
X246126Y114300D01*
Y122047D01*
X259715Y135636D01*
X304927D01*
X310388Y130175D01*
Y80834D02*
Y130175D01*
X286705Y57150D02*
X310388Y80834D01*
X273431Y57150D02*
X286705D01*
X270256Y53975D02*
X273431Y57150D01*
X270256Y41275D02*
Y53975D01*
Y41275D02*
X273685Y37846D01*
X314325D01*
X317500Y34671D01*
Y21580D02*
Y34671D01*
X304800Y21336D02*
Y21580D01*
X253746Y24765D02*
X257175Y21336D01*
X253746Y24765D02*
Y60928D01*
X242824Y71850D02*
X253746Y60928D01*
X228709Y71850D02*
X242824D01*
X45720Y290322D02*
Y307960D01*
Y290322D02*
X50739Y285303D01*
Y255940D02*
Y285303D01*
X38100Y243300D02*
X50739Y255940D01*
X142240Y116840D02*
X161830Y97250D01*
X177691D01*
X292100Y306800D02*
X326860Y341560D01*
Y373380D01*
X381000Y21580D02*
Y34925D01*
X384175Y38100D01*
X431800D01*
X192240Y373380D02*
X201422Y364198D01*
Y240284D02*
Y364198D01*
X192278Y231140D02*
X201422Y240284D01*
X192278Y173990D02*
Y231140D01*
Y173990D02*
X201422Y164846D01*
Y86582D02*
Y164846D01*
X199390Y84550D02*
X201422Y86582D01*
X177691Y84550D02*
X199390D01*
X36576Y171417D02*
X38100D01*
X26924Y203708D02*
X36576Y194056D01*
X26924Y203708D02*
Y232124D01*
X38100Y243300D01*
X279400Y90900D02*
Y116300D01*
X67708Y306800D02*
X88900D01*
X66548Y307960D02*
X67708Y306800D01*
X45720Y307960D02*
X66548D01*
X38100Y128590D02*
Y154400D01*
D37*
X312179Y493778D02*
X302022D01*
X312179Y503935D01*
Y506474D01*
X309639Y509013D01*
X304561D01*
X302022Y506474D01*
X327414Y509013D02*
X317257D01*
Y501396D01*
X322335Y503935D01*
X324875D01*
X327414Y501396D01*
Y496318D01*
X324875Y493778D01*
X319796D01*
X317257Y496318D01*
X332492Y506474D02*
X335031Y509013D01*
X340110D01*
X342649Y506474D01*
Y496318D01*
X340110Y493778D01*
X335031D01*
X332492Y496318D01*
Y506474D01*
X347727D02*
X350266Y509013D01*
X355345D01*
X357884Y506474D01*
Y496318D01*
X355345Y493778D01*
X350266D01*
X347727Y496318D01*
Y506474D01*
X362962Y493778D02*
Y496318D01*
X365502D01*
Y493778D01*
X362962D01*
X375658Y506474D02*
X378197Y509013D01*
X383276D01*
X385815Y506474D01*
Y496318D01*
X383276Y493778D01*
X378197D01*
X375658Y496318D01*
Y506474D01*
X390893D02*
X393432Y509013D01*
X398511D01*
X401050Y506474D01*
Y496318D01*
X398511Y493778D01*
X393432D01*
X390893Y496318D01*
Y506474D01*
X882902Y157242D02*
Y162320D01*
Y159781D01*
X867666D01*
X870206Y157242D01*
Y169937D02*
X867666Y172477D01*
Y177555D01*
X870206Y180094D01*
X872745D01*
X875284Y177555D01*
Y175016D01*
Y177555D01*
X877823Y180094D01*
X880362D01*
X882902Y177555D01*
Y172477D01*
X880362Y169937D01*
X867666Y195329D02*
Y185173D01*
X875284D01*
X872745Y190251D01*
Y192790D01*
X875284Y195329D01*
X880362D01*
X882902Y192790D01*
Y187712D01*
X880362Y185173D01*
X870206Y200408D02*
X867666Y202947D01*
Y208025D01*
X870206Y210564D01*
X880362D01*
X882902Y208025D01*
Y202947D01*
X880362Y200408D01*
X870206D01*
X882902Y215643D02*
X880362D01*
Y218182D01*
X882902D01*
Y215643D01*
X870206Y228339D02*
X867666Y230878D01*
Y235956D01*
X870206Y238495D01*
X880362D01*
X882902Y235956D01*
Y230878D01*
X880362Y228339D01*
X870206D01*
Y243574D02*
X867666Y246113D01*
Y251191D01*
X870206Y253730D01*
X880362D01*
X882902Y251191D01*
Y246113D01*
X880362Y243574D01*
X870206D01*
X799081Y155972D02*
Y161050D01*
Y158511D01*
X783847D01*
X786386Y155972D01*
X783847Y178824D02*
X786386Y173746D01*
X791464Y168668D01*
X796542D01*
X799081Y171207D01*
Y176285D01*
X796542Y178824D01*
X794003D01*
X791464Y176285D01*
Y168668D01*
X799081Y191520D02*
X783847D01*
X791464Y183903D01*
Y194059D01*
X786386Y199138D02*
X783847Y201677D01*
Y206755D01*
X786386Y209294D01*
X796542D01*
X799081Y206755D01*
Y201677D01*
X796542Y199138D01*
X786386D01*
X799081Y214373D02*
X796542D01*
Y216912D01*
X799081D01*
Y214373D01*
X786386Y227069D02*
X783847Y229608D01*
Y234686D01*
X786386Y237225D01*
X796542D01*
X799081Y234686D01*
Y229608D01*
X796542Y227069D01*
X786386D01*
Y242304D02*
X783847Y244843D01*
Y249921D01*
X786386Y252460D01*
X796542D01*
X799081Y249921D01*
Y244843D01*
X796542Y242304D01*
X786386D01*
X312179Y448059D02*
X302022D01*
X312179Y458215D01*
Y460754D01*
X309639Y463293D01*
X304561D01*
X302022Y460754D01*
X317257D02*
X319796Y463293D01*
X324875D01*
X327414Y460754D01*
Y458215D01*
X324875Y455676D01*
X327414Y453137D01*
Y450598D01*
X324875Y448059D01*
X319796D01*
X317257Y450598D01*
Y453137D01*
X319796Y455676D01*
X317257Y458215D01*
Y460754D01*
X319796Y455676D02*
X324875D01*
X332492Y460754D02*
X335031Y463293D01*
X340110D01*
X342649Y460754D01*
Y450598D01*
X340110Y448059D01*
X335031D01*
X332492Y450598D01*
Y460754D01*
X347727D02*
X350266Y463293D01*
X355345D01*
X357884Y460754D01*
Y450598D01*
X355345Y448059D01*
X350266D01*
X347727Y450598D01*
Y460754D01*
X362962Y448059D02*
Y450598D01*
X365502D01*
Y448059D01*
X362962D01*
X375658Y460754D02*
X378197Y463293D01*
X383276D01*
X385815Y460754D01*
Y450598D01*
X383276Y448059D01*
X378197D01*
X375658Y450598D01*
Y460754D01*
X390893D02*
X393432Y463293D01*
X398511D01*
X401050Y460754D01*
Y450598D01*
X398511Y448059D01*
X393432D01*
X390893Y450598D01*
Y460754D01*
D38*
X38100Y268700D02*
D03*
Y243300D02*
D03*
D39*
Y217900D02*
D03*
D40*
X88900Y154400D02*
D03*
X114300Y306800D02*
D03*
X444500D02*
D03*
X114300Y281400D02*
D03*
Y154400D02*
D03*
X88900Y306800D02*
D03*
X139700D02*
D03*
X152400Y184900D02*
D03*
X177800D02*
D03*
X203200D02*
D03*
X228600D02*
D03*
X254000D02*
D03*
X546100Y281400D02*
D03*
Y256000D02*
D03*
Y230600D02*
D03*
Y205200D02*
D03*
Y179800D02*
D03*
X444500Y154400D02*
D03*
X469900Y306800D02*
D03*
X495300D02*
D03*
X520700D02*
D03*
X546100D02*
D03*
X571500D02*
D03*
X596900D02*
D03*
X622300D02*
D03*
X647700D02*
D03*
X673100D02*
D03*
Y154400D02*
D03*
X647700D02*
D03*
X622300D02*
D03*
X596900D02*
D03*
X571500D02*
D03*
X546100D02*
D03*
X520700D02*
D03*
X495300D02*
D03*
X469900D02*
D03*
X165100Y306800D02*
D03*
X190500D02*
D03*
X215900D02*
D03*
X241300D02*
D03*
X266700D02*
D03*
X292100D02*
D03*
X317500D02*
D03*
X342900D02*
D03*
X368300D02*
D03*
X393700D02*
D03*
X419100D02*
D03*
Y154400D02*
D03*
X393700D02*
D03*
X368300D02*
D03*
X342900D02*
D03*
X317500D02*
D03*
X292100D02*
D03*
X266700D02*
D03*
X241300D02*
D03*
X215900D02*
D03*
X190500D02*
D03*
X165100D02*
D03*
X139700D02*
D03*
M02*
