G04*
G04 #@! TF.GenerationSoftware,Altium Limited,Altium Designer,22.10.1 (41)*
G04*
G04 Layer_Color=32768*
%FSLAX44Y44*%
%MOMM*%
G71*
G04*
G04 #@! TF.SameCoordinates,F6035E9F-F1FD-4C6C-B8EA-126E05AD2449*
G04*
G04*
G04 #@! TF.FilePolarity,Positive*
G04*
G01*
G75*
%ADD11C,0.2000*%
%ADD46C,0.0500*%
D11*
X198620Y23590D02*
Y83090D01*
Y23590D02*
X324620D01*
Y83090D01*
X198620D02*
X324620D01*
X61460Y23590D02*
Y83090D01*
Y23590D02*
X187460D01*
Y83090D01*
X61460D02*
X187460D01*
X5980Y221080D02*
X65480D01*
X5980Y95080D02*
Y221080D01*
Y95080D02*
X65480D01*
Y221080D01*
X123650Y334900D02*
Y350900D01*
X96567D02*
X123650D01*
X96567Y334900D02*
Y350900D01*
Y334900D02*
X123650D01*
X197820Y356160D02*
Y415660D01*
X71820D02*
X197820D01*
X71820Y356160D02*
Y415660D01*
Y356160D02*
X197820D01*
X124413Y314580D02*
Y330580D01*
X97330D02*
X124413D01*
X97330Y314580D02*
Y330580D01*
Y314580D02*
X124413D01*
X342400Y356330D02*
Y415830D01*
X216400D02*
X342400D01*
X216400Y356330D02*
Y415830D01*
Y356330D02*
X342400D01*
X136800Y315850D02*
Y344550D01*
Y315850D02*
X193400D01*
Y344550D01*
X136800D02*
X193400D01*
X333040Y23760D02*
Y83260D01*
Y23760D02*
X459040D01*
Y83260D01*
X333040D02*
X459040D01*
X55750Y270460D02*
X71250D01*
X55750Y232460D02*
Y270460D01*
Y232460D02*
X71250D01*
Y270460D01*
X55500Y310721D02*
X71500D01*
X55500Y283639D02*
Y310721D01*
Y283639D02*
X71500D01*
Y310721D01*
X505960Y356330D02*
X631960D01*
X505960D02*
Y415830D01*
X631960D01*
Y356330D02*
Y415830D01*
X358640Y356330D02*
X484640D01*
X358640D02*
Y415830D01*
X484640D01*
Y356330D02*
Y415830D01*
D46*
X56100Y381000D02*
G03*
X56100Y381000I-18000J0D01*
G01*
Y38100D02*
G03*
X56100Y38100I-18000J0D01*
G01*
X691100D02*
G03*
X691100Y38100I-18000J0D01*
G01*
Y381000D02*
G03*
X691100Y381000I-18000J0D01*
G01*
M02*
