G04*
G04 #@! TF.GenerationSoftware,Altium Limited,Altium Designer,22.10.1 (41)*
G04*
G04 Layer_Color=8388736*
%FSLAX44Y44*%
%MOMM*%
G71*
G04*
G04 #@! TF.SameCoordinates,BBA1CDE9-E941-4060-8147-212A69EDE18F*
G04*
G04*
G04 #@! TF.FilePolarity,Negative*
G04*
G01*
G75*
G04:AMPARAMS|DCode=18|XSize=1.8741mm|YSize=0.5421mm|CornerRadius=0.2711mm|HoleSize=0mm|Usage=FLASHONLY|Rotation=0.000|XOffset=0mm|YOffset=0mm|HoleType=Round|Shape=RoundedRectangle|*
%AMROUNDEDRECTD18*
21,1,1.8741,0.0000,0,0,0.0*
21,1,1.3319,0.5421,0,0,0.0*
1,1,0.5421,0.6660,0.0000*
1,1,0.5421,-0.6660,0.0000*
1,1,0.5421,-0.6660,0.0000*
1,1,0.5421,0.6660,0.0000*
%
%ADD18ROUNDEDRECTD18*%
%ADD19R,1.8741X0.5421*%
%ADD21R,0.3500X0.5750*%
%ADD22R,0.5750X0.3500*%
%ADD23R,0.3500X0.3750*%
%ADD24R,0.3750X0.3500*%
%ADD25R,1.7032X1.7532*%
%ADD26R,2.5032X1.2032*%
%ADD27R,1.7532X1.7032*%
%ADD28R,1.4462X1.4462*%
%ADD29C,1.4462*%
%ADD30C,1.2000*%
%ADD31R,1.2000X1.2000*%
%ADD32R,1.7032X1.7032*%
%ADD33C,1.7032*%
%ADD34C,1.6032*%
%ADD35C,1.9032*%
%ADD36R,1.9032X1.9032*%
%ADD37C,1.4732*%
%ADD38C,2.7432*%
D18*
X446071Y767080D02*
D03*
Y754380D02*
D03*
Y741680D02*
D03*
Y728980D02*
D03*
X399749D02*
D03*
Y741680D02*
D03*
Y754380D02*
D03*
D19*
Y767080D02*
D03*
D21*
X214550Y329965D02*
D03*
X209550D02*
D03*
X204550D02*
D03*
Y348215D02*
D03*
X209550D02*
D03*
X214550D02*
D03*
D22*
X197925Y331590D02*
D03*
Y336590D02*
D03*
Y341590D02*
D03*
Y346590D02*
D03*
X221175D02*
D03*
Y341590D02*
D03*
Y336590D02*
D03*
Y331590D02*
D03*
D23*
X208320Y264165D02*
D03*
X213320D02*
D03*
Y248915D02*
D03*
X208320D02*
D03*
D24*
X218445Y264040D02*
D03*
Y259040D02*
D03*
Y254040D02*
D03*
Y249040D02*
D03*
X203195D02*
D03*
Y254040D02*
D03*
Y259040D02*
D03*
Y264040D02*
D03*
D25*
X119930Y629920D02*
D03*
X138430D02*
D03*
X118110Y686435D02*
D03*
X136610D02*
D03*
X118110Y742950D02*
D03*
X136610D02*
D03*
X120290Y296545D02*
D03*
X138790D02*
D03*
X120290Y364490D02*
D03*
X138790D02*
D03*
X138790Y228600D02*
D03*
X120290D02*
D03*
D26*
X199390Y572190D02*
D03*
Y521190D02*
D03*
Y453190D02*
D03*
Y470190D02*
D03*
Y487190D02*
D03*
Y504190D02*
D03*
Y589190D02*
D03*
Y538190D02*
D03*
Y555190D02*
D03*
Y436190D02*
D03*
X357390Y572190D02*
D03*
Y521190D02*
D03*
Y453190D02*
D03*
Y470190D02*
D03*
Y487190D02*
D03*
Y504190D02*
D03*
Y589190D02*
D03*
Y538190D02*
D03*
Y555190D02*
D03*
Y436190D02*
D03*
D27*
X516890Y722270D02*
D03*
Y740770D02*
D03*
X195580Y731160D02*
D03*
Y749660D02*
D03*
X260350Y731160D02*
D03*
Y749660D02*
D03*
X325120Y731160D02*
D03*
Y749660D02*
D03*
X234950Y167280D02*
D03*
Y185780D02*
D03*
X191770Y167280D02*
D03*
Y185780D02*
D03*
D28*
X703590Y728020D02*
D03*
D29*
Y708020D02*
D03*
Y688020D02*
D03*
Y668020D02*
D03*
Y648020D02*
D03*
Y628020D02*
D03*
Y608020D02*
D03*
Y588020D02*
D03*
Y568020D02*
D03*
Y548020D02*
D03*
Y528020D02*
D03*
Y508020D02*
D03*
X723590Y728020D02*
D03*
Y708020D02*
D03*
Y688020D02*
D03*
Y668020D02*
D03*
Y648020D02*
D03*
Y628020D02*
D03*
Y608020D02*
D03*
Y588020D02*
D03*
Y568020D02*
D03*
Y548020D02*
D03*
Y528020D02*
D03*
Y508020D02*
D03*
X743590Y728020D02*
D03*
Y708020D02*
D03*
Y688020D02*
D03*
Y668020D02*
D03*
Y648020D02*
D03*
Y628020D02*
D03*
Y608020D02*
D03*
Y588020D02*
D03*
Y568020D02*
D03*
Y548020D02*
D03*
Y528020D02*
D03*
Y508020D02*
D03*
X763590Y728020D02*
D03*
Y708020D02*
D03*
Y688020D02*
D03*
Y668020D02*
D03*
Y648020D02*
D03*
Y628020D02*
D03*
Y608020D02*
D03*
Y588020D02*
D03*
Y568020D02*
D03*
Y548020D02*
D03*
Y528020D02*
D03*
Y508020D02*
D03*
X783590Y728020D02*
D03*
Y708020D02*
D03*
Y688020D02*
D03*
Y668020D02*
D03*
Y648020D02*
D03*
Y628020D02*
D03*
Y608020D02*
D03*
Y588020D02*
D03*
Y568020D02*
D03*
Y548020D02*
D03*
Y528020D02*
D03*
Y508020D02*
D03*
D30*
X439420Y55930D02*
D03*
X464820D02*
D03*
X627380Y238760D02*
D03*
X601980D02*
D03*
D31*
X490220Y55930D02*
D03*
X576580Y238760D02*
D03*
D32*
X504190Y139700D02*
D03*
D33*
Y165100D02*
D03*
Y190500D02*
D03*
Y215900D02*
D03*
X427990Y139700D02*
D03*
Y165100D02*
D03*
Y190500D02*
D03*
Y215900D02*
D03*
D34*
X655320Y312420D02*
D03*
X579120D02*
D03*
X581660Y166370D02*
D03*
X657860D02*
D03*
D35*
X163830Y808990D02*
D03*
X138430D02*
D03*
X320040D02*
D03*
X294640D02*
D03*
D36*
X113030D02*
D03*
X269240D02*
D03*
D37*
X199390Y387350D02*
D03*
X179070D02*
D03*
X250000Y400000D02*
D03*
X700000Y300000D02*
D03*
X750000Y200000D02*
D03*
X700000Y100000D02*
D03*
X650000Y600000D02*
D03*
X600000Y500000D02*
D03*
X650000Y400000D02*
D03*
X600000Y300000D02*
D03*
Y100000D02*
D03*
X500000Y700000D02*
D03*
X550000Y600000D02*
D03*
X500000Y500000D02*
D03*
X550000Y400000D02*
D03*
X500000Y300000D02*
D03*
X400000Y700000D02*
D03*
X450000Y600000D02*
D03*
X400000Y300000D02*
D03*
X450000Y200000D02*
D03*
X400000Y100000D02*
D03*
X300000Y700000D02*
D03*
Y500000D02*
D03*
X350000Y400000D02*
D03*
X300000Y300000D02*
D03*
X350000Y200000D02*
D03*
X300000Y100000D02*
D03*
X200000Y700000D02*
D03*
X250000Y600000D02*
D03*
X200000Y100000D02*
D03*
X100000Y700000D02*
D03*
X150000Y600000D02*
D03*
X100000Y500000D02*
D03*
X150000Y400000D02*
D03*
X100000Y300000D02*
D03*
X150000Y200000D02*
D03*
X100000Y100000D02*
D03*
X637540Y632460D02*
D03*
X601980Y704850D02*
D03*
X641350D02*
D03*
X678180Y647700D02*
D03*
X325120Y448310D02*
D03*
X191770Y307340D02*
D03*
D38*
X823590Y678020D02*
D03*
Y558020D02*
D03*
M02*
