G04*
G04 #@! TF.GenerationSoftware,Altium Limited,Altium Designer,22.10.1 (41)*
G04*
G04 Layer_Color=65535*
%FSLAX44Y44*%
%MOMM*%
G71*
G04*
G04 #@! TF.SameCoordinates,F5FADBD9-E43F-4EF7-845D-54409DE5C24F*
G04*
G04*
G04 #@! TF.FilePolarity,Positive*
G04*
G01*
G75*
%ADD10C,0.2540*%
%ADD11C,0.2500*%
%ADD12C,0.1000*%
%ADD13C,0.1500*%
%ADD14C,0.2000*%
G36*
X683803Y407486D02*
X669882D01*
Y414625D01*
X683803D01*
Y407486D01*
D02*
G37*
G36*
X748055Y400346D02*
X712359D01*
Y407486D01*
X748055D01*
Y400346D01*
D02*
G37*
G36*
X669525Y393564D02*
Y393207D01*
X662742D01*
Y407486D01*
X669525D01*
Y393564D01*
D02*
G37*
G36*
X790890Y400346D02*
X798029D01*
Y389995D01*
Y389638D01*
Y386068D01*
X790890D01*
Y400346D01*
X776969D01*
Y406058D01*
Y406415D01*
Y407486D01*
X790890D01*
Y400346D01*
D02*
G37*
G36*
X776612Y393207D02*
X762333D01*
Y386068D01*
X755551D01*
Y392136D01*
Y392493D01*
Y393207D01*
X748412D01*
Y400346D01*
X776612D01*
Y393207D01*
D02*
G37*
G36*
X690942Y403202D02*
Y402845D01*
Y400346D01*
X712359D01*
Y393207D01*
X698081D01*
Y386068D01*
X691299D01*
Y393207D01*
X690942D01*
Y400346D01*
X684160D01*
Y407486D01*
X690942D01*
Y403202D01*
D02*
G37*
G36*
X755194Y378929D02*
X748412D01*
Y384997D01*
Y385354D01*
Y386068D01*
X755194D01*
Y378929D01*
D02*
G37*
G36*
X690942D02*
X684160D01*
Y386068D01*
X690942D01*
Y378929D01*
D02*
G37*
G36*
X790890Y371790D02*
X783751D01*
Y379286D01*
Y379643D01*
Y386068D01*
X790890D01*
Y371790D01*
D02*
G37*
G36*
X677021Y378929D02*
X683803D01*
Y364651D01*
X677021D01*
Y378929D01*
X669882D01*
Y393207D01*
X677021D01*
Y378929D01*
D02*
G37*
G36*
X676664Y357512D02*
X677021D01*
Y350729D01*
X676664D01*
Y350373D01*
X669882D01*
Y364651D01*
X676664D01*
Y357512D01*
D02*
G37*
G36*
X591351Y350373D02*
X584212D01*
Y357512D01*
X591351D01*
Y350373D01*
D02*
G37*
G36*
X783751Y364651D02*
X790890D01*
Y350373D01*
X798029D01*
Y343233D01*
X805168D01*
Y336094D01*
X812307D01*
Y321816D01*
X805168D01*
Y314677D01*
X798029D01*
Y307538D01*
X790890D01*
Y300399D01*
X783751D01*
Y286120D01*
X776612D01*
Y279338D01*
X776969D01*
Y278981D01*
X790890D01*
Y272199D01*
X798029D01*
Y271842D01*
X805168D01*
Y265060D01*
X805525D01*
Y264703D01*
X812307D01*
Y265060D01*
X819446D01*
Y257921D01*
X826586D01*
Y250781D01*
X833725D01*
Y229364D01*
X826586D01*
Y222225D01*
X812307D01*
Y229364D01*
X805168D01*
Y236503D01*
X790890D01*
Y243642D01*
X783751D01*
Y236503D01*
X790890D01*
Y222225D01*
X798029D01*
Y215086D01*
X805168D01*
Y200807D01*
X812307D01*
Y172251D01*
X805168D01*
Y165112D01*
X812307D01*
Y150834D01*
X769473D01*
Y157973D01*
X755194D01*
Y165112D01*
X719499D01*
Y157973D01*
X712359D01*
Y150834D01*
X705220D01*
Y143694D01*
X698081D01*
Y150834D01*
X691299D01*
Y157973D01*
X683803D01*
Y150834D01*
X677021D01*
Y143694D01*
X698081D01*
Y136555D01*
X677021D01*
Y143337D01*
X676664D01*
Y143694D01*
X669882D01*
Y157973D01*
X662742D01*
Y165112D01*
X641325D01*
Y172251D01*
X627047D01*
Y179390D01*
X619907D01*
Y193668D01*
X627047D01*
Y200807D01*
X648464D01*
Y207947D01*
X662742D01*
Y215086D01*
X669882D01*
Y222225D01*
X677021D01*
Y236146D01*
X676664D01*
Y236503D01*
X662742D01*
Y229364D01*
X648464D01*
Y243642D01*
X634186D01*
Y236503D01*
X627047D01*
Y229364D01*
X648464D01*
Y224724D01*
Y224367D01*
Y222225D01*
X627047D01*
Y229364D01*
X612768D01*
Y236146D01*
X612411D01*
Y236503D01*
X605629D01*
Y243285D01*
X605272D01*
Y243642D01*
X598490D01*
Y257921D01*
X605629D01*
Y271842D01*
X605272D01*
Y272199D01*
X598490D01*
Y286120D01*
X591351D01*
Y293259D01*
X598490D01*
Y292546D01*
Y292188D01*
Y286120D01*
X605629D01*
Y271842D01*
X612768D01*
Y257564D01*
X605629D01*
Y243642D01*
X619907D01*
Y250424D01*
X619551D01*
Y257564D01*
X619907D01*
Y257921D01*
X626690D01*
Y257564D01*
X627047D01*
Y250781D01*
X634186D01*
Y264703D01*
X627047D01*
Y278981D01*
X619907D01*
Y293259D01*
X627047D01*
Y279338D01*
X633829D01*
Y278981D01*
X634186D01*
Y272199D01*
X648464D01*
Y286477D01*
X641325D01*
Y307538D01*
X648464D01*
Y302540D01*
Y302183D01*
Y286477D01*
X655246D01*
Y286120D01*
X655603D01*
Y272199D01*
X662385D01*
Y271842D01*
X662742D01*
Y265060D01*
X676664D01*
Y271842D01*
X677021D01*
Y272199D01*
X690942D01*
Y278981D01*
X677021D01*
Y279338D01*
X676664D01*
Y293259D01*
X677021D01*
Y293616D01*
X683803D01*
Y300399D01*
X698438D01*
Y293259D01*
X705220D01*
Y286120D01*
X705577D01*
Y272199D01*
X719499D01*
Y286120D01*
X719855D01*
Y293259D01*
X726638D01*
Y286477D01*
X741273D01*
Y293259D01*
X740916D01*
Y300756D01*
X734134D01*
Y307538D01*
X719499D01*
Y307895D01*
X712716D01*
Y321816D01*
X712359D01*
Y336094D01*
X719499D01*
Y350373D01*
X726638D01*
Y357512D01*
X733777D01*
Y364651D01*
X755194D01*
Y357512D01*
X762333D01*
Y350373D01*
X769473D01*
Y343590D01*
X762333D01*
Y350373D01*
X755194D01*
Y343590D01*
X755551D01*
Y343233D01*
X762333D01*
Y321816D01*
X755194D01*
Y314677D01*
X741273D01*
Y307538D01*
X748055D01*
Y307895D01*
X762333D01*
Y300399D01*
X755194D01*
Y293616D01*
X762333D01*
Y286477D01*
X776612D01*
Y300756D01*
X783751D01*
Y314677D01*
X790890D01*
Y315034D01*
X798029D01*
Y321816D01*
X798386D01*
Y322173D01*
X805168D01*
Y336094D01*
X790890D01*
Y342163D01*
Y342519D01*
Y350373D01*
X783751D01*
Y358582D01*
Y358940D01*
Y364651D01*
X776612D01*
Y368934D01*
Y369291D01*
Y371790D01*
X783751D01*
Y364651D01*
D02*
G37*
G36*
X584212Y343233D02*
X591351D01*
Y336094D01*
X577073D01*
Y343233D01*
X562794D01*
Y336094D01*
X555655D01*
Y321816D01*
X569934D01*
Y314677D01*
X584212D01*
Y313963D01*
Y313606D01*
Y307538D01*
X591351D01*
Y293616D01*
X584212D01*
Y299685D01*
Y300042D01*
Y307538D01*
X569934D01*
Y314677D01*
X555655D01*
Y315748D01*
Y316105D01*
Y321816D01*
X548516D01*
Y339307D01*
Y339664D01*
Y343233D01*
X555655D01*
Y350373D01*
X584212D01*
Y343233D01*
D02*
G37*
G36*
X669525D02*
X669882D01*
Y328955D01*
X669525D01*
Y321816D01*
X662742D01*
Y341092D01*
Y341449D01*
Y350373D01*
X669525D01*
Y343233D01*
D02*
G37*
G36*
X776612Y321816D02*
X783751D01*
Y317176D01*
Y316819D01*
Y315034D01*
X776612D01*
Y314677D01*
X769473D01*
Y343233D01*
X776612D01*
Y321816D01*
D02*
G37*
G36*
X662385Y314677D02*
X655603D01*
Y321816D01*
X662385D01*
Y314677D01*
D02*
G37*
G36*
X769473Y311107D02*
Y310750D01*
Y307895D01*
X762333D01*
Y314677D01*
X769473D01*
Y311107D01*
D02*
G37*
G36*
X655246Y307895D02*
X648464D01*
Y314677D01*
X655246D01*
Y307895D01*
D02*
G37*
G36*
X612768Y357512D02*
X619907D01*
Y336094D01*
X612768D01*
Y307538D01*
X619907D01*
Y293616D01*
X612768D01*
Y302540D01*
Y302897D01*
Y307538D01*
X605629D01*
Y336094D01*
X612411D01*
Y336451D01*
X612768D01*
Y337522D01*
Y337879D01*
Y357512D01*
X591351D01*
Y364651D01*
X612768D01*
Y357512D01*
D02*
G37*
%LPC*%
G36*
X733777Y336094D02*
X726638D01*
Y329312D01*
X726995D01*
Y328955D01*
X733777D01*
Y330383D01*
Y330740D01*
Y336094D01*
D02*
G37*
G36*
X748412Y343233D02*
X740916D01*
Y338950D01*
Y338593D01*
Y322173D01*
X741273D01*
Y321816D01*
X748055D01*
Y322173D01*
X748412D01*
Y343233D01*
D02*
G37*
G36*
X755194Y293616D02*
X748412D01*
Y293259D01*
X748055D01*
Y286477D01*
X755194D01*
Y293616D01*
D02*
G37*
G36*
X698081Y286120D02*
X691299D01*
Y281123D01*
Y280766D01*
Y279338D01*
X698081D01*
Y286120D01*
D02*
G37*
G36*
X805168Y264703D02*
X798029D01*
Y257564D01*
X790890D01*
Y250781D01*
X798029D01*
Y243642D01*
X805168D01*
Y243285D01*
X805525D01*
Y236503D01*
X812307D01*
Y229364D01*
X819446D01*
Y236503D01*
X812307D01*
Y243642D01*
X819446D01*
Y236503D01*
X826586D01*
Y250424D01*
X819446D01*
Y257564D01*
X805168D01*
Y264703D01*
D02*
G37*
G36*
X662385D02*
X641325D01*
Y250781D01*
X648464D01*
Y243642D01*
X655603D01*
Y236503D01*
X662385D01*
Y243642D01*
X683803D01*
Y250424D01*
X677021D01*
Y250781D01*
X676664D01*
Y257564D01*
X662385D01*
Y264703D01*
D02*
G37*
G36*
X762333Y257921D02*
X741273D01*
Y257564D01*
X740916D01*
Y250781D01*
X726638D01*
Y243642D01*
X719499D01*
Y236503D01*
X712716D01*
Y236146D01*
X712359D01*
Y230435D01*
Y230078D01*
Y215086D01*
X719499D01*
Y207947D01*
X726638D01*
Y193668D01*
X726995D01*
Y172251D01*
X755194D01*
Y179390D01*
X769473D01*
Y186529D01*
X776612D01*
Y193668D01*
X783751D01*
Y236146D01*
X776969D01*
Y236503D01*
X776612D01*
Y250424D01*
X769473D01*
Y257564D01*
X762333D01*
Y257921D01*
D02*
G37*
G36*
X705220Y221868D02*
X684160D01*
Y215086D01*
X683803D01*
Y214729D01*
X677021D01*
Y207947D01*
X676664D01*
Y207590D01*
X669882D01*
Y179390D01*
X677021D01*
Y172251D01*
X705220D01*
Y179390D01*
X719499D01*
Y187600D01*
Y187957D01*
Y200807D01*
X712359D01*
Y214729D01*
X705220D01*
Y221868D01*
D02*
G37*
G36*
X655246Y200451D02*
X648464D01*
Y193311D01*
X627047D01*
Y179390D01*
X641325D01*
Y172251D01*
X655246D01*
Y200451D01*
D02*
G37*
G36*
X805168Y165112D02*
X790890D01*
Y157973D01*
X805168D01*
Y165112D01*
D02*
G37*
%LPD*%
D10*
X173822Y475400D02*
G03*
X173822Y475400I-3162J0D01*
G01*
X708697Y127736D02*
Y112501D01*
Y117579D01*
X718854Y127736D01*
X711236Y120119D01*
X718854Y112501D01*
X723932Y122658D02*
Y115040D01*
X726471Y112501D01*
X734089D01*
Y109962D01*
X731550Y107423D01*
X729010D01*
X734089Y112501D02*
Y122658D01*
X739167Y112501D02*
X744246D01*
X741706D01*
Y127736D01*
X739167D01*
X759481Y112501D02*
X754402D01*
X751863Y115040D01*
Y120119D01*
X754402Y122658D01*
X759481D01*
X762020Y120119D01*
Y117579D01*
X751863D01*
X782333Y127736D02*
X792490D01*
X787411D01*
Y112501D01*
X797568D02*
X805186D01*
X807725Y115040D01*
X805186Y117579D01*
X800107D01*
X797568Y120119D01*
X800107Y122658D01*
X807725D01*
X820421Y112501D02*
X815342D01*
X812803Y115040D01*
Y120119D01*
X815342Y122658D01*
X820421D01*
X822960Y120119D01*
Y117579D01*
X812803D01*
X683305Y83045D02*
Y98280D01*
X690923D01*
X693462Y95740D01*
Y90662D01*
X690923Y88123D01*
X683305D01*
X706158Y83045D02*
X701079D01*
X698540Y85584D01*
Y90662D01*
X701079Y93201D01*
X706158D01*
X708697Y90662D01*
Y88123D01*
X698540D01*
X713775Y93201D02*
Y83045D01*
Y88123D01*
X716314Y90662D01*
X718854Y93201D01*
X721393D01*
X729010Y83045D02*
X734089D01*
X731550D01*
Y93201D01*
X729010D01*
X741706Y77966D02*
Y93201D01*
X749324D01*
X751863Y90662D01*
Y85584D01*
X749324Y83045D01*
X741706D01*
X756941Y98280D02*
Y83045D01*
Y90662D01*
X759481Y93201D01*
X764559D01*
X767098Y90662D01*
Y83045D01*
X779794D02*
X774716D01*
X772176Y85584D01*
Y90662D01*
X774716Y93201D01*
X779794D01*
X782333Y90662D01*
Y88123D01*
X772176D01*
X787411Y93201D02*
Y83045D01*
Y88123D01*
X789951Y90662D01*
X792490Y93201D01*
X795029D01*
X805186D02*
X810264D01*
X812803Y90662D01*
Y83045D01*
X805186D01*
X802647Y85584D01*
X805186Y88123D01*
X812803D01*
X817882Y83045D02*
X822960D01*
X820421D01*
Y98280D01*
X817882D01*
X723932Y53588D02*
Y68823D01*
X731550D01*
X734089Y66284D01*
Y61206D01*
X731550Y58666D01*
X723932D01*
X729010D02*
X734089Y53588D01*
X749324Y68823D02*
X739167D01*
Y53588D01*
X749324D01*
X739167Y61206D02*
X744246D01*
X754402Y68823D02*
Y58666D01*
X759481Y53588D01*
X764559Y58666D01*
Y68823D01*
X795029Y53588D02*
X784872D01*
X795029Y63745D01*
Y66284D01*
X792490Y68823D01*
X787411D01*
X784872Y66284D01*
X800107Y53588D02*
Y56127D01*
X802647D01*
Y53588D01*
X800107D01*
X822960D02*
X812803D01*
X822960Y63745D01*
Y66284D01*
X820421Y68823D01*
X815342D01*
X812803Y66284D01*
X693462Y29210D02*
X698540D01*
X696001D01*
Y44445D01*
X693462Y41906D01*
X706158Y29210D02*
X716314Y39367D01*
X731550Y29210D02*
X721393D01*
X731550Y39367D01*
Y41906D01*
X729010Y44445D01*
X723932D01*
X721393Y41906D01*
X746785Y44445D02*
X736628D01*
Y36827D01*
X741706Y39367D01*
X744246D01*
X746785Y36827D01*
Y31749D01*
X744246Y29210D01*
X739167D01*
X736628Y31749D01*
X751863Y29210D02*
X762020Y39367D01*
X777255Y29210D02*
X767098D01*
X777255Y39367D01*
Y41906D01*
X774716Y44445D01*
X769637D01*
X767098Y41906D01*
X782333D02*
X784872Y44445D01*
X789951D01*
X792490Y41906D01*
Y31749D01*
X789951Y29210D01*
X784872D01*
X782333Y31749D01*
Y41906D01*
X807725Y29210D02*
X797568D01*
X807725Y39367D01*
Y41906D01*
X805186Y44445D01*
X800107D01*
X797568Y41906D01*
X812803D02*
X815342Y44445D01*
X820421D01*
X822960Y41906D01*
Y39367D01*
X820421Y36827D01*
X817882D01*
X820421D01*
X822960Y34288D01*
Y31749D01*
X820421Y29210D01*
X815342D01*
X812803Y31749D01*
X125984Y784347D02*
Y771651D01*
X128523Y769112D01*
X133602D01*
X136141Y771651D01*
Y784347D01*
X151376D02*
X146297Y781808D01*
X141219Y776730D01*
Y771651D01*
X143758Y769112D01*
X148837D01*
X151376Y771651D01*
Y774190D01*
X148837Y776730D01*
X141219D01*
X250444Y784347D02*
Y771651D01*
X252983Y769112D01*
X258062D01*
X260601Y771651D01*
Y784347D01*
X275836D02*
X265679D01*
Y776730D01*
X270757Y779269D01*
X273297D01*
X275836Y776730D01*
Y771651D01*
X273297Y769112D01*
X268218D01*
X265679Y771651D01*
X384556Y797301D02*
Y784605D01*
X387095Y782066D01*
X392174D01*
X394713Y784605D01*
Y797301D01*
X407409Y782066D02*
Y797301D01*
X399791Y789684D01*
X409948D01*
X168656Y512059D02*
Y499363D01*
X171195Y496824D01*
X176273D01*
X178813Y499363D01*
Y512059D01*
X183891Y509520D02*
X186430Y512059D01*
X191509D01*
X194048Y509520D01*
Y506981D01*
X191509Y504441D01*
X188969D01*
X191509D01*
X194048Y501902D01*
Y499363D01*
X191509Y496824D01*
X186430D01*
X183891Y499363D01*
X144018Y218689D02*
Y205993D01*
X146557Y203454D01*
X151636D01*
X154175Y205993D01*
Y218689D01*
X169410Y203454D02*
X159253D01*
X169410Y213611D01*
Y216150D01*
X166871Y218689D01*
X161792D01*
X159253Y216150D01*
X143510Y303525D02*
Y290829D01*
X146049Y288290D01*
X151128D01*
X153667Y290829D01*
Y303525D01*
X158745Y288290D02*
X163823D01*
X161284D01*
Y303525D01*
X158745Y300986D01*
X696211Y770885D02*
X691132D01*
X693671D01*
Y758189D01*
X691132Y755650D01*
X688593D01*
X686054Y758189D01*
X701289Y755650D02*
X706367D01*
X703828D01*
Y770885D01*
X701289Y768346D01*
X74673Y706624D02*
X72133Y709163D01*
X67055D01*
X64516Y706624D01*
Y696467D01*
X67055Y693928D01*
X72133D01*
X74673Y696467D01*
X79751Y693928D02*
X84829D01*
X82290D01*
Y709163D01*
X79751Y706624D01*
X102604Y693928D02*
X92447D01*
X102604Y704085D01*
Y706624D01*
X100064Y709163D01*
X94986D01*
X92447Y706624D01*
X170939Y828290D02*
X168400Y830829D01*
X163321D01*
X160782Y828290D01*
Y818133D01*
X163321Y815594D01*
X168400D01*
X170939Y818133D01*
X176017Y815594D02*
X181095D01*
X178556D01*
Y830829D01*
X176017Y828290D01*
X188713Y815594D02*
X193791D01*
X191252D01*
Y830829D01*
X188713Y828290D01*
X231899D02*
X229359Y830829D01*
X224281D01*
X221742Y828290D01*
Y818133D01*
X224281Y815594D01*
X229359D01*
X231899Y818133D01*
X236977Y815594D02*
X242055D01*
X239516D01*
Y830829D01*
X236977Y828290D01*
X249673D02*
X252212Y830829D01*
X257290D01*
X259830Y828290D01*
Y818133D01*
X257290Y815594D01*
X252212D01*
X249673Y818133D01*
Y828290D01*
X375921Y681988D02*
X373382Y684528D01*
X368303D01*
X365764Y681988D01*
Y671832D01*
X368303Y669293D01*
X373382D01*
X375921Y671832D01*
X380999D02*
X383538Y669293D01*
X388617D01*
X391156Y671832D01*
Y681988D01*
X388617Y684528D01*
X383538D01*
X380999Y681988D01*
Y679449D01*
X383538Y676910D01*
X391156D01*
X516379Y769870D02*
X513839Y772409D01*
X508761D01*
X506222Y769870D01*
Y759713D01*
X508761Y757174D01*
X513839D01*
X516379Y759713D01*
X521457Y769870D02*
X523996Y772409D01*
X529075D01*
X531614Y769870D01*
Y767331D01*
X529075Y764791D01*
X531614Y762252D01*
Y759713D01*
X529075Y757174D01*
X523996D01*
X521457Y759713D01*
Y762252D01*
X523996Y764791D01*
X521457Y767331D01*
Y769870D01*
X523996Y764791D02*
X529075D01*
X73403Y594864D02*
X70863Y597403D01*
X65785D01*
X63246Y594864D01*
Y584707D01*
X65785Y582168D01*
X70863D01*
X73403Y584707D01*
X78481Y597403D02*
X88638D01*
Y594864D01*
X78481Y584707D01*
Y582168D01*
X75943Y650744D02*
X73404Y653283D01*
X68325D01*
X65786Y650744D01*
Y640587D01*
X68325Y638048D01*
X73404D01*
X75943Y640587D01*
X91178Y653283D02*
X86099Y650744D01*
X81021Y645666D01*
Y640587D01*
X83560Y638048D01*
X88639D01*
X91178Y640587D01*
Y643126D01*
X88639Y645666D01*
X81021D01*
X73403Y184654D02*
X70863Y187193D01*
X65785D01*
X63246Y184654D01*
Y174497D01*
X65785Y171958D01*
X70863D01*
X73403Y174497D01*
X88638Y187193D02*
X78481D01*
Y179576D01*
X83559Y182115D01*
X86099D01*
X88638Y179576D01*
Y174497D01*
X86099Y171958D01*
X81020D01*
X78481Y174497D01*
X187449Y141220D02*
X184909Y143759D01*
X179831D01*
X177292Y141220D01*
Y131063D01*
X179831Y128524D01*
X184909D01*
X187449Y131063D01*
X200145Y128524D02*
Y143759D01*
X192527Y136142D01*
X202684D01*
X141729Y141220D02*
X139190Y143759D01*
X134111D01*
X131572Y141220D01*
Y131063D01*
X134111Y128524D01*
X139190D01*
X141729Y131063D01*
X146807Y141220D02*
X149346Y143759D01*
X154425D01*
X156964Y141220D01*
Y138681D01*
X154425Y136142D01*
X151885D01*
X154425D01*
X156964Y133602D01*
Y131063D01*
X154425Y128524D01*
X149346D01*
X146807Y131063D01*
X73403Y252726D02*
X70863Y255265D01*
X65785D01*
X63246Y252726D01*
Y242569D01*
X65785Y240030D01*
X70863D01*
X73403Y242569D01*
X88638Y240030D02*
X78481D01*
X88638Y250187D01*
Y252726D01*
X86099Y255265D01*
X81020D01*
X78481Y252726D01*
X73403Y320544D02*
X70863Y323083D01*
X65785D01*
X63246Y320544D01*
Y310387D01*
X65785Y307848D01*
X70863D01*
X73403Y310387D01*
X78481Y307848D02*
X83559D01*
X81020D01*
Y323083D01*
X78481Y320544D01*
D11*
X347740Y753950D02*
G03*
X347740Y753950I-1250J0D01*
G01*
X187560Y254120D02*
G03*
X187560Y254120I-1250J0D01*
G01*
X385660Y767080D02*
G03*
X385660Y767080I-1250J0D01*
G01*
X223280Y753950D02*
G03*
X223280Y753950I-1250J0D01*
G01*
X145330Y186570D02*
G03*
X145330Y186570I-1250J0D01*
G01*
D12*
X703590Y742020D02*
G03*
X703590Y743020I0J500D01*
G01*
D02*
G03*
X703590Y742020I0J-500D01*
G01*
D13*
X199660Y485650D02*
Y488400D01*
X358660Y485775D02*
Y488400D01*
Y307400D02*
Y310129D01*
X198660Y307400D02*
Y310285D01*
Y307400D02*
X358660D01*
X199660Y488400D02*
X358660D01*
D14*
X248990Y714450D02*
X352990D01*
X248990D02*
Y760450D01*
X352990D01*
X352990Y714450D02*
Y760450D01*
X248990Y719450D02*
X352990D01*
X144310Y245870D02*
X180810D01*
X144310D02*
Y277370D01*
X180810D01*
Y245870D02*
Y277370D01*
X798590Y737420D02*
X918590D01*
Y498620D02*
Y737420D01*
X798590Y498620D02*
X918590D01*
X414120Y723530D02*
Y772530D01*
Y723530D02*
X431700D01*
Y772530D01*
X414120D02*
X431700D01*
X124530Y719450D02*
X228530D01*
X228530Y714450D02*
Y760450D01*
X124530D02*
X228530D01*
X124530Y714450D02*
Y760450D01*
Y714450D02*
X228530D01*
X150080Y165320D02*
Y192820D01*
Y165320D02*
X177580D01*
Y192820D01*
X150080D02*
X177580D01*
M02*
