G04*
G04 #@! TF.GenerationSoftware,Altium Limited,Altium Designer,22.10.1 (41)*
G04*
G04 Layer_Color=65535*
%FSLAX44Y44*%
%MOMM*%
G71*
G04*
G04 #@! TF.SameCoordinates,BBA1CDE9-E941-4060-8147-212A69EDE18F*
G04*
G04*
G04 #@! TF.FilePolarity,Positive*
G04*
G01*
G75*
%ADD10C,0.1000*%
%ADD11C,0.2000*%
%ADD12C,0.2500*%
%ADD13C,0.6000*%
%ADD14C,0.2540*%
%ADD15C,0.1500*%
D10*
X703590Y742020D02*
G03*
X703590Y743020I0J500D01*
G01*
D02*
G03*
X703590Y742020I0J-500D01*
G01*
D11*
X472440Y126800D02*
G03*
X459740Y126800I-6350J0D01*
G01*
X798590Y737420D02*
X918590D01*
Y498620D02*
Y737420D01*
X798590Y498620D02*
X918590D01*
X415920Y31080D02*
X513720D01*
Y80680D01*
X415920D02*
X513720D01*
X415920Y31080D02*
Y80680D01*
X492590Y126800D02*
Y228800D01*
X439590Y126800D02*
Y228800D01*
X472440Y126800D02*
X492590D01*
X439590D02*
X459740D01*
X439590Y228800D02*
X492590D01*
X642620Y312420D02*
Y320040D01*
X591820D02*
X642620D01*
X591820Y304800D02*
Y320040D01*
Y304800D02*
X642620D01*
Y312420D01*
X589534D02*
X591820D01*
X642620D02*
X644906D01*
X594360Y158750D02*
Y166370D01*
Y158750D02*
X645160D01*
Y173990D01*
X594360D02*
X645160D01*
X594360Y166370D02*
Y173990D01*
X645160Y166370D02*
X647446D01*
X592074D02*
X594360D01*
X553080Y263610D02*
X650880D01*
X553080Y214010D02*
Y263610D01*
Y214010D02*
X650880D01*
Y263610D01*
X414120Y723530D02*
Y772530D01*
Y723530D02*
X431700D01*
Y772530D01*
X414120D02*
X431700D01*
X86430Y832490D02*
X190430D01*
X86430Y791490D02*
Y837490D01*
X86430Y791490D02*
X190430D01*
Y837490D01*
X86430D02*
X190430D01*
X242640Y832490D02*
X346640D01*
X242640Y791490D02*
Y837490D01*
X242640Y791490D02*
X346640D01*
Y837490D01*
X242640D02*
X346640D01*
X227800Y323340D02*
Y354840D01*
X191300D02*
X227800D01*
X191300Y323340D02*
Y354840D01*
Y323340D02*
X227800D01*
X197070Y242790D02*
Y270290D01*
Y242790D02*
X224570D01*
Y270290D01*
X197070D02*
X224570D01*
D12*
X505440Y126700D02*
G03*
X505440Y126700I-1250J0D01*
G01*
X385660Y767080D02*
G03*
X385660Y767080I-1250J0D01*
G01*
X94180Y797990D02*
G03*
X94180Y797990I-1250J0D01*
G01*
X250390D02*
G03*
X250390Y797990I-1250J0D01*
G01*
X234550Y331590D02*
G03*
X234550Y331590I-1250J0D01*
G01*
X192320Y264040D02*
G03*
X192320Y264040I-1250J0D01*
G01*
D13*
X485590Y136800D02*
G03*
X485590Y136800I-3000J0D01*
G01*
D14*
X172552Y590190D02*
G03*
X172552Y590190I-3162J0D01*
G01*
X419862Y254503D02*
Y241807D01*
X422401Y239268D01*
X427480D01*
X430019Y241807D01*
Y254503D01*
X435097D02*
X445254D01*
Y251964D01*
X435097Y241807D01*
Y239268D01*
X87884Y861309D02*
Y848613D01*
X90423Y846074D01*
X95501D01*
X98041Y848613D01*
Y861309D01*
X113276D02*
X108197Y858770D01*
X103119Y853691D01*
Y848613D01*
X105658Y846074D01*
X110737D01*
X113276Y848613D01*
Y851152D01*
X110737Y853691D01*
X103119D01*
X244094Y861309D02*
Y848613D01*
X246633Y846074D01*
X251712D01*
X254251Y848613D01*
Y861309D01*
X269486D02*
X259329D01*
Y853691D01*
X264407Y856231D01*
X266947D01*
X269486Y853691D01*
Y848613D01*
X266947Y846074D01*
X261868D01*
X259329Y848613D01*
X384556Y797301D02*
Y784605D01*
X387095Y782066D01*
X392174D01*
X394713Y784605D01*
Y797301D01*
X407409Y782066D02*
Y797301D01*
X399791Y789684D01*
X409948D01*
X167386Y626867D02*
Y614171D01*
X169925Y611632D01*
X175004D01*
X177543Y614171D01*
Y626867D01*
X182621Y624328D02*
X185160Y626867D01*
X190239D01*
X192778Y624328D01*
Y621789D01*
X190239Y619249D01*
X187699D01*
X190239D01*
X192778Y616710D01*
Y614171D01*
X190239Y611632D01*
X185160D01*
X182621Y614171D01*
X191008Y296159D02*
Y283463D01*
X193547Y280924D01*
X198626D01*
X201165Y283463D01*
Y296159D01*
X216400Y280924D02*
X206243D01*
X216400Y291081D01*
Y293620D01*
X213861Y296159D01*
X208782D01*
X206243Y293620D01*
X190500Y380995D02*
Y368299D01*
X193039Y365760D01*
X198118D01*
X200657Y368299D01*
Y380995D01*
X205735Y365760D02*
X210813D01*
X208274D01*
Y380995D01*
X205735Y378456D01*
X576072Y182626D02*
Y197861D01*
X583689D01*
X586229Y195322D01*
Y190243D01*
X583689Y187704D01*
X576072D01*
X581150D02*
X586229Y182626D01*
X601464Y197861D02*
X591307D01*
Y190243D01*
X596385Y192783D01*
X598925D01*
X601464Y190243D01*
Y185165D01*
X598925Y182626D01*
X593846D01*
X591307Y185165D01*
X573532Y328676D02*
Y343911D01*
X581149D01*
X583689Y341372D01*
Y336293D01*
X581149Y333754D01*
X573532D01*
X578610D02*
X583689Y328676D01*
X596385D02*
Y343911D01*
X588767Y336293D01*
X598924D01*
X416560Y90424D02*
Y105659D01*
X424178D01*
X426717Y103120D01*
Y98041D01*
X424178Y95502D01*
X416560D01*
X421638D02*
X426717Y90424D01*
X441952D02*
X431795D01*
X441952Y100581D01*
Y103120D01*
X439413Y105659D01*
X434334D01*
X431795Y103120D01*
X553720Y273304D02*
Y288539D01*
X561338D01*
X563877Y286000D01*
Y280921D01*
X561338Y278382D01*
X553720D01*
X558798D02*
X563877Y273304D01*
X568955D02*
X574033D01*
X571494D01*
Y288539D01*
X568955Y286000D01*
X696211Y770885D02*
X691132D01*
X693671D01*
Y758189D01*
X691132Y755650D01*
X688593D01*
X686054Y758189D01*
X701289Y768346D02*
X703828Y770885D01*
X708907D01*
X711446Y768346D01*
Y765807D01*
X706367Y760728D01*
Y758189D02*
Y755650D01*
X118361Y776474D02*
X115822Y779013D01*
X110743D01*
X108204Y776474D01*
Y766317D01*
X110743Y763778D01*
X115822D01*
X118361Y766317D01*
X123439Y763778D02*
X128517D01*
X125978D01*
Y779013D01*
X123439Y776474D01*
X146292Y763778D02*
X136135D01*
X146292Y773935D01*
Y776474D01*
X143752Y779013D01*
X138674D01*
X136135Y776474D01*
X195069Y782570D02*
X192530Y785109D01*
X187451D01*
X184912Y782570D01*
Y772413D01*
X187451Y769874D01*
X192530D01*
X195069Y772413D01*
X200147Y769874D02*
X205225D01*
X202686D01*
Y785109D01*
X200147Y782570D01*
X212843Y769874D02*
X217921D01*
X215382D01*
Y785109D01*
X212843Y782570D01*
X259839D02*
X257299Y785109D01*
X252221D01*
X249682Y782570D01*
Y772413D01*
X252221Y769874D01*
X257299D01*
X259839Y772413D01*
X264917Y769874D02*
X269995D01*
X267456D01*
Y785109D01*
X264917Y782570D01*
X277613D02*
X280152Y785109D01*
X285231D01*
X287770Y782570D01*
Y772413D01*
X285231Y769874D01*
X280152D01*
X277613Y772413D01*
Y782570D01*
X324609D02*
X322070Y785109D01*
X316991D01*
X314452Y782570D01*
Y772413D01*
X316991Y769874D01*
X322070D01*
X324609Y772413D01*
X329687D02*
X332226Y769874D01*
X337305D01*
X339844Y772413D01*
Y782570D01*
X337305Y785109D01*
X332226D01*
X329687Y782570D01*
Y780031D01*
X332226Y777492D01*
X339844D01*
X516379Y773680D02*
X513839Y776219D01*
X508761D01*
X506222Y773680D01*
Y763523D01*
X508761Y760984D01*
X513839D01*
X516379Y763523D01*
X521457Y773680D02*
X523996Y776219D01*
X529075D01*
X531614Y773680D01*
Y771141D01*
X529075Y768602D01*
X531614Y766062D01*
Y763523D01*
X529075Y760984D01*
X523996D01*
X521457Y763523D01*
Y766062D01*
X523996Y768602D01*
X521457Y771141D01*
Y773680D01*
X523996Y768602D02*
X529075D01*
X120139Y663444D02*
X117599Y665983D01*
X112521D01*
X109982Y663444D01*
Y653287D01*
X112521Y650748D01*
X117599D01*
X120139Y653287D01*
X125217Y665983D02*
X135374D01*
Y663444D01*
X125217Y653287D01*
Y650748D01*
X118213Y719959D02*
X115674Y722498D01*
X110595D01*
X108056Y719959D01*
Y709802D01*
X110595Y707263D01*
X115674D01*
X118213Y709802D01*
X133448Y722498D02*
X128369Y719959D01*
X123291Y714881D01*
Y709802D01*
X125830Y707263D01*
X130909D01*
X133448Y709802D01*
Y712341D01*
X130909Y714881D01*
X123291D01*
X120393Y262124D02*
X117853Y264663D01*
X112775D01*
X110236Y262124D01*
Y251967D01*
X112775Y249428D01*
X117853D01*
X120393Y251967D01*
X135628Y264663D02*
X125471D01*
Y257045D01*
X130549Y259585D01*
X133089D01*
X135628Y257045D01*
Y251967D01*
X133089Y249428D01*
X128010D01*
X125471Y251967D01*
X234439Y218690D02*
X231900Y221229D01*
X226821D01*
X224282Y218690D01*
Y208533D01*
X226821Y205994D01*
X231900D01*
X234439Y208533D01*
X247135Y205994D02*
Y221229D01*
X239517Y213612D01*
X249674D01*
X191259Y218690D02*
X188720Y221229D01*
X183641D01*
X181102Y218690D01*
Y208533D01*
X183641Y205994D01*
X188720D01*
X191259Y208533D01*
X196337Y218690D02*
X198876Y221229D01*
X203955D01*
X206494Y218690D01*
Y216151D01*
X203955Y213612D01*
X201415D01*
X203955D01*
X206494Y211072D01*
Y208533D01*
X203955Y205994D01*
X198876D01*
X196337Y208533D01*
X120393Y330069D02*
X117853Y332608D01*
X112775D01*
X110236Y330069D01*
Y319912D01*
X112775Y317373D01*
X117853D01*
X120393Y319912D01*
X135628Y317373D02*
X125471D01*
X135628Y327530D01*
Y330069D01*
X133089Y332608D01*
X128010D01*
X125471Y330069D01*
X120393Y398014D02*
X117853Y400553D01*
X112775D01*
X110236Y398014D01*
Y387857D01*
X112775Y385318D01*
X117853D01*
X120393Y387857D01*
X125471Y385318D02*
X130549D01*
X128010D01*
Y400553D01*
X125471Y398014D01*
D15*
X198390Y603190D02*
X357390D01*
X197390Y422190D02*
X357390D01*
X197390D02*
Y425075D01*
X357390Y422190D02*
Y424919D01*
Y600565D02*
Y603190D01*
X198390Y600440D02*
Y603190D01*
M02*
