G04*
G04 #@! TF.GenerationSoftware,Altium Limited,Altium Designer,22.10.1 (41)*
G04*
G04 Layer_Physical_Order=2*
G04 Layer_Color=16711680*
%FSLAX44Y44*%
%MOMM*%
G71*
G04*
G04 #@! TF.SameCoordinates,F5FADBD9-E43F-4EF7-845D-54409DE5C24F*
G04*
G04*
G04 #@! TF.FilePolarity,Positive*
G04*
G01*
G75*
%ADD10C,0.2540*%
%ADD34C,0.4064*%
%ADD37C,2.0320*%
%ADD38R,1.7000X1.7000*%
%ADD39C,1.7000*%
%ADD40R,1.2430X1.2430*%
%ADD41C,1.2430*%
%ADD42C,1.2700*%
%ADD43C,2.5400*%
G36*
X840740Y838568D02*
Y24130D01*
X838200Y21590D01*
X15240D01*
Y831850D01*
X839838Y839462D01*
X840740Y838568D01*
D02*
G37*
%LPC*%
G36*
X212970Y753990D02*
X203200D01*
Y744220D01*
X212970D01*
Y753990D01*
D02*
G37*
G36*
X337430D02*
X327660D01*
Y744220D01*
X337430D01*
Y753990D01*
D02*
G37*
G36*
X200660D02*
X190890D01*
Y744220D01*
X200660D01*
Y753990D01*
D02*
G37*
G36*
X325120D02*
X315350D01*
Y744220D01*
X325120D01*
Y753990D01*
D02*
G37*
G36*
X337430Y741680D02*
X327660D01*
Y731910D01*
X337430D01*
Y741680D01*
D02*
G37*
G36*
X325120D02*
X315350D01*
Y731910D01*
X325120D01*
Y741680D01*
D02*
G37*
G36*
X302443Y753990D02*
X299536D01*
X296729Y753238D01*
X294211Y751784D01*
X292156Y749729D01*
X290702Y747211D01*
X289950Y744403D01*
Y741497D01*
X290702Y738689D01*
X292156Y736171D01*
X294211Y734116D01*
X296729Y732662D01*
X299536Y731910D01*
X302443D01*
X305251Y732662D01*
X307769Y734116D01*
X309824Y736171D01*
X311278Y738689D01*
X312030Y741497D01*
Y744403D01*
X311278Y747211D01*
X309824Y749729D01*
X307769Y751784D01*
X305251Y753238D01*
X302443Y753990D01*
D02*
G37*
G36*
X277043D02*
X274137D01*
X271329Y753238D01*
X268811Y751784D01*
X266756Y749729D01*
X265302Y747211D01*
X264550Y744403D01*
Y741497D01*
X265302Y738689D01*
X266756Y736171D01*
X268811Y734116D01*
X271329Y732662D01*
X274137Y731910D01*
X277043D01*
X279851Y732662D01*
X282369Y734116D01*
X284424Y736171D01*
X285878Y738689D01*
X286630Y741497D01*
Y744403D01*
X285878Y747211D01*
X284424Y749729D01*
X282369Y751784D01*
X279851Y753238D01*
X277043Y753990D01*
D02*
G37*
G36*
X212970Y741680D02*
X203200D01*
Y731910D01*
X212970D01*
Y741680D01*
D02*
G37*
G36*
X200660D02*
X190890D01*
Y731910D01*
X200660D01*
Y741680D01*
D02*
G37*
G36*
X177983Y753990D02*
X175077D01*
X172269Y753238D01*
X169751Y751784D01*
X167696Y749729D01*
X166242Y747211D01*
X165490Y744403D01*
Y741497D01*
X166242Y738689D01*
X167696Y736171D01*
X169751Y734116D01*
X172269Y732662D01*
X175077Y731910D01*
X177983D01*
X180791Y732662D01*
X183309Y734116D01*
X185364Y736171D01*
X186818Y738689D01*
X187570Y741497D01*
Y744403D01*
X186818Y747211D01*
X185364Y749729D01*
X183309Y751784D01*
X180791Y753238D01*
X177983Y753990D01*
D02*
G37*
G36*
X152583D02*
X149677D01*
X146869Y753238D01*
X144351Y751784D01*
X142296Y749729D01*
X140842Y747211D01*
X140090Y744403D01*
Y741497D01*
X140842Y738689D01*
X142296Y736171D01*
X144351Y734116D01*
X146869Y732662D01*
X149677Y731910D01*
X152583D01*
X155391Y732662D01*
X157909Y734116D01*
X159964Y736171D01*
X161418Y738689D01*
X162170Y741497D01*
Y744403D01*
X161418Y747211D01*
X159964Y749729D01*
X157909Y751784D01*
X155391Y753238D01*
X152583Y753990D01*
D02*
G37*
G36*
X784743Y736775D02*
X782437D01*
X780211Y736178D01*
X778214Y735026D01*
X776584Y733396D01*
X775432Y731399D01*
X774835Y729173D01*
Y726867D01*
X775432Y724641D01*
X776584Y722644D01*
X778214Y721014D01*
X780211Y719862D01*
X782437Y719265D01*
X784743D01*
X786969Y719862D01*
X788966Y721014D01*
X790596Y722644D01*
X791748Y724641D01*
X792345Y726867D01*
Y729173D01*
X791748Y731399D01*
X790596Y733396D01*
X788966Y735026D01*
X786969Y736178D01*
X784743Y736775D01*
D02*
G37*
G36*
X568860Y750570D02*
X566520D01*
X564259Y749964D01*
X562231Y748794D01*
X560576Y747139D01*
X559406Y745111D01*
X558800Y742850D01*
Y740510D01*
X559406Y738249D01*
X560576Y736221D01*
X562231Y734566D01*
X564259Y733396D01*
X566520Y732790D01*
X568860D01*
X570616Y733260D01*
X603175Y700701D01*
Y683662D01*
X601601Y682754D01*
X599946Y681099D01*
X598776Y679071D01*
X598170Y676810D01*
Y674470D01*
X598776Y672209D01*
X599946Y670181D01*
X601601Y668526D01*
X603629Y667356D01*
X604258Y667187D01*
X604587Y665960D01*
X388413Y449787D01*
X387571Y448527D01*
X387275Y447040D01*
Y380132D01*
X385701Y379224D01*
X384046Y377569D01*
X382876Y375541D01*
X382270Y373280D01*
Y370940D01*
X382876Y368679D01*
X384046Y366651D01*
X385701Y364996D01*
X387729Y363826D01*
X389990Y363220D01*
X392330D01*
X394086Y363690D01*
X403785Y353991D01*
Y308949D01*
X350593Y255757D01*
X349751Y254497D01*
X349604Y253760D01*
X345630Y249785D01*
X344893Y249639D01*
X343633Y248797D01*
X319701Y224865D01*
X155279D01*
X153200Y226944D01*
X153670Y228700D01*
Y231040D01*
X153064Y233301D01*
X151894Y235329D01*
X150239Y236984D01*
X148211Y238154D01*
X145950Y238760D01*
X143610D01*
X141349Y238154D01*
X139321Y236984D01*
X137666Y235329D01*
X136496Y233301D01*
X135890Y231040D01*
Y228700D01*
X136496Y226439D01*
X137666Y224411D01*
X139321Y222756D01*
X141349Y221586D01*
X143610Y220980D01*
X145950D01*
X147706Y221450D01*
X150923Y218233D01*
X152183Y217391D01*
X153670Y217095D01*
X318444D01*
X318930Y215922D01*
X307059Y204052D01*
X293324D01*
X292864Y204849D01*
X291209Y206504D01*
X289181Y207674D01*
X286920Y208280D01*
X284580D01*
X282319Y207674D01*
X280291Y206504D01*
X278636Y204849D01*
X277466Y202821D01*
X276860Y200560D01*
Y198220D01*
X277466Y195959D01*
X278636Y193931D01*
X280291Y192276D01*
X282319Y191106D01*
X284580Y190500D01*
X286920D01*
X289181Y191106D01*
X291209Y192276D01*
X292864Y193931D01*
X293324Y194728D01*
X308990D01*
X310774Y195083D01*
X312286Y196094D01*
X370426Y254234D01*
X370426Y254234D01*
X372101Y255909D01*
X372101Y255909D01*
X557016Y440824D01*
X558027Y442336D01*
X558382Y444120D01*
Y447649D01*
X633216Y522484D01*
X634227Y523996D01*
X634582Y525780D01*
Y596065D01*
X652285Y613768D01*
X653174Y613530D01*
X655515D01*
X657775Y614136D01*
X658981Y614831D01*
X659872Y613880D01*
X659141Y612786D01*
X658786Y611002D01*
Y598069D01*
X640594Y579876D01*
X639583Y578364D01*
X639228Y576580D01*
Y520733D01*
X526637Y408142D01*
X525627Y406629D01*
X525272Y404845D01*
Y379448D01*
X325745Y179922D01*
X278084D01*
X277624Y180719D01*
X275969Y182374D01*
X273941Y183544D01*
X271680Y184150D01*
X269340D01*
X267079Y183544D01*
X265051Y182374D01*
X263396Y180719D01*
X262226Y178691D01*
X261620Y176430D01*
Y174090D01*
X262226Y171829D01*
X263396Y169801D01*
X265051Y168146D01*
X267079Y166976D01*
X269340Y166370D01*
X271680D01*
X273941Y166976D01*
X275969Y168146D01*
X277624Y169801D01*
X278084Y170598D01*
X327676D01*
X329460Y170953D01*
X330972Y171964D01*
X533230Y374221D01*
X534240Y375734D01*
X534595Y377518D01*
Y402915D01*
X647186Y515506D01*
X648197Y517018D01*
X648552Y518802D01*
Y574649D01*
X666091Y592189D01*
X667074Y592630D01*
X667813Y592155D01*
X668911Y591056D01*
X670939Y589886D01*
X673200Y589280D01*
X675540D01*
X677801Y589886D01*
X679829Y591056D01*
X681484Y592711D01*
X682654Y594739D01*
X683260Y597000D01*
Y599340D01*
X682654Y601601D01*
X681484Y603629D01*
X679829Y605284D01*
X679032Y605744D01*
Y610653D01*
X694024Y625646D01*
X695250Y625317D01*
X695432Y624641D01*
X696584Y622644D01*
X698214Y621014D01*
X700211Y619862D01*
X702437Y619265D01*
X704743D01*
X706969Y619862D01*
X708966Y621014D01*
X710596Y622644D01*
X711748Y624641D01*
X712345Y626867D01*
Y629173D01*
X711748Y631399D01*
X711204Y632341D01*
X711938Y633611D01*
X713843D01*
X715424Y633926D01*
X715943Y633468D01*
X716300Y632904D01*
X715432Y631399D01*
X714835Y629173D01*
Y626867D01*
X715432Y624641D01*
X716584Y622644D01*
X718214Y621014D01*
X720211Y619862D01*
X722437Y619265D01*
X724743D01*
X725539Y619478D01*
X727924Y617094D01*
X727144Y616077D01*
X726969Y616178D01*
X724743Y616775D01*
X722437D01*
X720211Y616178D01*
X718214Y615026D01*
X716584Y613396D01*
X715432Y611399D01*
X714835Y609173D01*
Y606867D01*
X715432Y604641D01*
X716584Y602644D01*
X718214Y601014D01*
X720211Y599862D01*
X722437Y599265D01*
X724743D01*
X726969Y599862D01*
X727576Y600212D01*
X728676Y599577D01*
Y596463D01*
X727576Y595828D01*
X726969Y596178D01*
X724743Y596775D01*
X722437D01*
X720211Y596178D01*
X718214Y595026D01*
X716584Y593396D01*
X715432Y591399D01*
X714835Y589173D01*
Y586867D01*
X715432Y584641D01*
X716584Y582644D01*
X718214Y581014D01*
X720211Y579862D01*
X722437Y579265D01*
X724743D01*
X726969Y579862D01*
X727576Y580212D01*
X728676Y579577D01*
Y576463D01*
X727576Y575828D01*
X726969Y576178D01*
X724743Y576775D01*
X722437D01*
X720211Y576178D01*
X718214Y575026D01*
X716584Y573396D01*
X715432Y571399D01*
X714835Y569173D01*
Y566867D01*
X715432Y564641D01*
X716584Y562644D01*
X718214Y561014D01*
X720211Y559862D01*
X722437Y559265D01*
X724743D01*
X726969Y559862D01*
X727576Y560212D01*
X728676Y559577D01*
Y556463D01*
X727576Y555828D01*
X726969Y556178D01*
X724743Y556775D01*
X722437D01*
X720211Y556178D01*
X718214Y555026D01*
X716584Y553396D01*
X715432Y551399D01*
X714835Y549173D01*
Y546867D01*
X715432Y544641D01*
X716584Y542644D01*
X718214Y541014D01*
X720211Y539862D01*
X722437Y539265D01*
X724743D01*
X726969Y539862D01*
X727576Y540212D01*
X728676Y539577D01*
Y536463D01*
X727576Y535828D01*
X726969Y536178D01*
X724743Y536775D01*
X722437D01*
X720211Y536178D01*
X718214Y535026D01*
X716584Y533396D01*
X715432Y531399D01*
X714835Y529173D01*
Y526867D01*
X715432Y524641D01*
X716584Y522644D01*
X718214Y521014D01*
X720211Y519862D01*
X722437Y519265D01*
X724743D01*
X726969Y519862D01*
X727576Y520212D01*
X728676Y519577D01*
Y516463D01*
X727576Y515828D01*
X726969Y516178D01*
X724743Y516775D01*
X722437D01*
X720211Y516178D01*
X718214Y515026D01*
X716584Y513396D01*
X715432Y511399D01*
X714835Y509173D01*
Y506867D01*
X715432Y504641D01*
X716584Y502644D01*
X718214Y501014D01*
X720211Y499862D01*
X722437Y499265D01*
X724743D01*
X726969Y499862D01*
X727576Y500212D01*
X728676Y499577D01*
Y458408D01*
X713079Y442812D01*
X681932D01*
X681444Y444082D01*
X682754Y445391D01*
X683924Y447419D01*
X684530Y449680D01*
Y452020D01*
X683924Y454281D01*
X682754Y456309D01*
X681099Y457964D01*
X679071Y459134D01*
X679032Y459145D01*
Y495009D01*
X680214Y496191D01*
X681384Y498219D01*
X681990Y500480D01*
Y502820D01*
X681384Y505081D01*
X680214Y507109D01*
X678559Y508764D01*
X676531Y509934D01*
X674270Y510540D01*
X671930D01*
X669669Y509934D01*
X667641Y508764D01*
X665986Y507109D01*
X664816Y505081D01*
X664210Y502820D01*
Y500480D01*
X664816Y498219D01*
X665986Y496191D01*
X667641Y494536D01*
X669669Y493366D01*
X669708Y493355D01*
Y457491D01*
X668526Y456309D01*
X667356Y454281D01*
X666750Y452020D01*
Y449680D01*
X667356Y447419D01*
X668526Y445391D01*
X669836Y444082D01*
X669348Y442812D01*
X655274D01*
X654814Y443609D01*
X653159Y445264D01*
X651131Y446434D01*
X648870Y447040D01*
X646530D01*
X644269Y446434D01*
X642241Y445264D01*
X640586Y443609D01*
X639416Y441581D01*
X638810Y439320D01*
Y436980D01*
X639416Y434719D01*
X640586Y432691D01*
X642241Y431036D01*
X644269Y429866D01*
X646530Y429260D01*
X648870D01*
X651131Y429866D01*
X653159Y431036D01*
X654814Y432691D01*
X655274Y433488D01*
X715010D01*
X716794Y433843D01*
X718306Y434854D01*
X736633Y453181D01*
X737644Y454693D01*
X737999Y456477D01*
Y499672D01*
X739269Y500406D01*
X740211Y499862D01*
X742437Y499265D01*
X744743D01*
X746969Y499862D01*
X748966Y501014D01*
X750596Y502644D01*
X751748Y504641D01*
X752345Y506867D01*
Y509173D01*
X751748Y511399D01*
X750596Y513396D01*
X748966Y515026D01*
X746969Y516178D01*
X744743Y516775D01*
X742437D01*
X740211Y516178D01*
X739269Y515634D01*
X737999Y516368D01*
Y519672D01*
X739269Y520406D01*
X740211Y519862D01*
X742437Y519265D01*
X744743D01*
X746969Y519862D01*
X748966Y521014D01*
X750596Y522644D01*
X751748Y524641D01*
X752345Y526867D01*
Y529173D01*
X751748Y531399D01*
X750596Y533396D01*
X748966Y535026D01*
X746969Y536178D01*
X744743Y536775D01*
X742437D01*
X740211Y536178D01*
X739269Y535634D01*
X737999Y536368D01*
Y539672D01*
X739269Y540406D01*
X740211Y539862D01*
X742437Y539265D01*
X744743D01*
X746969Y539862D01*
X748966Y541014D01*
X750596Y542644D01*
X751748Y544641D01*
X752345Y546867D01*
Y549173D01*
X751748Y551399D01*
X750596Y553396D01*
X748966Y555026D01*
X746969Y556178D01*
X744743Y556775D01*
X742437D01*
X740211Y556178D01*
X739269Y555634D01*
X737999Y556368D01*
Y559672D01*
X739269Y560406D01*
X740211Y559862D01*
X742437Y559265D01*
X744743D01*
X746969Y559862D01*
X748966Y561014D01*
X750596Y562644D01*
X751748Y564641D01*
X752345Y566867D01*
Y569173D01*
X751748Y571399D01*
X750596Y573396D01*
X748966Y575026D01*
X746969Y576178D01*
X744743Y576775D01*
X742437D01*
X740211Y576178D01*
X739269Y575634D01*
X737999Y576368D01*
Y579672D01*
X739269Y580406D01*
X740211Y579862D01*
X742437Y579265D01*
X744743D01*
X746969Y579862D01*
X748966Y581014D01*
X750596Y582644D01*
X751748Y584641D01*
X752345Y586867D01*
Y589173D01*
X751748Y591399D01*
X750596Y593396D01*
X748966Y595026D01*
X746969Y596178D01*
X744743Y596775D01*
X742437D01*
X740211Y596178D01*
X739269Y595634D01*
X737999Y596368D01*
Y599672D01*
X739269Y600406D01*
X740211Y599862D01*
X742437Y599265D01*
X744743D01*
X746969Y599862D01*
X748966Y601014D01*
X750596Y602644D01*
X751748Y604641D01*
X752345Y606867D01*
Y609173D01*
X751748Y611399D01*
X750596Y613396D01*
X748966Y615026D01*
X746969Y616178D01*
X744743Y616775D01*
X742437D01*
X740211Y616178D01*
X739269Y615634D01*
X737999Y616368D01*
Y618273D01*
X737684Y619854D01*
X738142Y620373D01*
X738706Y620730D01*
X740211Y619862D01*
X742437Y619265D01*
X744743D01*
X746969Y619862D01*
X748966Y621014D01*
X750596Y622644D01*
X751748Y624641D01*
X752345Y626867D01*
Y629173D01*
X751748Y631399D01*
X750596Y633396D01*
X748966Y635026D01*
X746969Y636178D01*
X744743Y636775D01*
X742437D01*
X740211Y636178D01*
X738214Y635026D01*
X736584Y633396D01*
X735432Y631399D01*
X734835Y629173D01*
Y626867D01*
X735432Y624641D01*
X735533Y624466D01*
X734516Y623686D01*
X732132Y626071D01*
X732345Y626867D01*
Y629173D01*
X731748Y631399D01*
X730596Y633396D01*
X728966Y635026D01*
X726969Y636178D01*
X724743Y636775D01*
X722437D01*
X720211Y636178D01*
X720036Y636077D01*
X719256Y637094D01*
X721641Y639478D01*
X722437Y639265D01*
X724743D01*
X726969Y639862D01*
X728966Y641014D01*
X730596Y642644D01*
X731748Y644641D01*
X732345Y646867D01*
Y649173D01*
X731748Y651399D01*
X730596Y653396D01*
X728966Y655026D01*
X726969Y656178D01*
X726617Y656273D01*
X726067Y657735D01*
X726487Y658364D01*
X726774Y659809D01*
X726969Y659862D01*
X728966Y661014D01*
X730596Y662644D01*
X731748Y664641D01*
X732345Y666867D01*
Y669173D01*
X731748Y671399D01*
X730596Y673396D01*
X728966Y675026D01*
X726969Y676178D01*
X724743Y676775D01*
X722437D01*
X720211Y676178D01*
X718214Y675026D01*
X716584Y673396D01*
X715432Y671399D01*
X714835Y669173D01*
Y666867D01*
X715432Y664641D01*
X715976Y663699D01*
X715242Y662429D01*
X711938D01*
X711204Y663699D01*
X711748Y664641D01*
X712345Y666867D01*
Y669173D01*
X711748Y671399D01*
X710596Y673396D01*
X708966Y675026D01*
X706969Y676178D01*
X704743Y676775D01*
X702437D01*
X700211Y676178D01*
X698214Y675026D01*
X696584Y673396D01*
X696172Y672682D01*
X681990D01*
X680206Y672327D01*
X678694Y671316D01*
X600229Y592852D01*
X599340Y593090D01*
X597000D01*
X594739Y592484D01*
X592711Y591314D01*
X591056Y589659D01*
X589886Y587631D01*
X589280Y585370D01*
Y583030D01*
X589886Y580769D01*
X591056Y578741D01*
X592711Y577086D01*
X594739Y575916D01*
X597000Y575310D01*
X599340D01*
X601601Y575916D01*
X603629Y577086D01*
X605284Y578741D01*
X606454Y580769D01*
X607060Y583030D01*
Y585370D01*
X606822Y586259D01*
X644206Y623644D01*
X645454Y623096D01*
Y621249D01*
X645692Y620360D01*
X626624Y601292D01*
X625613Y599780D01*
X625258Y597996D01*
Y527711D01*
X550424Y452876D01*
X549413Y451364D01*
X549058Y449580D01*
Y446051D01*
X412728Y309720D01*
X411555Y310206D01*
Y355600D01*
X411259Y357087D01*
X410417Y358347D01*
X399580Y369184D01*
X400050Y370940D01*
Y373280D01*
X399444Y375541D01*
X398274Y377569D01*
X396619Y379224D01*
X395045Y380132D01*
Y445431D01*
X611209Y661595D01*
X611268D01*
X612755Y661891D01*
X614015Y662733D01*
X619967Y668685D01*
X620809Y669945D01*
X621105Y671432D01*
Y671491D01*
X686139Y736525D01*
X694835D01*
Y724287D01*
X694745Y723837D01*
Y719552D01*
X690547Y715353D01*
X689536Y713841D01*
X689182Y712057D01*
Y703394D01*
X546601Y560813D01*
X545428Y561299D01*
Y568045D01*
X660881Y683498D01*
X661770Y683260D01*
X664110D01*
X666371Y683866D01*
X668399Y685036D01*
X670054Y686691D01*
X671224Y688719D01*
X671830Y690980D01*
Y693320D01*
X671224Y695581D01*
X670054Y697609D01*
X668399Y699264D01*
X666371Y700434D01*
X664110Y701040D01*
X661770D01*
X659509Y700434D01*
X657481Y699264D01*
X655826Y697609D01*
X654656Y695581D01*
X654050Y693320D01*
Y690980D01*
X654288Y690091D01*
X537470Y573272D01*
X536459Y571760D01*
X536104Y569976D01*
Y541427D01*
X527088Y532410D01*
X526872Y532534D01*
X523642Y533400D01*
X520298D01*
X517068Y532534D01*
X514172Y530863D01*
X511808Y528498D01*
X510135Y525602D01*
X509905Y524742D01*
X508635D01*
X508405Y525602D01*
X506732Y528498D01*
X504368Y530863D01*
X501472Y532534D01*
X498242Y533400D01*
X497840D01*
Y520700D01*
Y508000D01*
X498242D01*
X501472Y508866D01*
X504368Y510537D01*
X506732Y512902D01*
X508405Y515798D01*
X508635Y516658D01*
X509905D01*
X510135Y515798D01*
X511808Y512902D01*
X514172Y510537D01*
X517068Y508866D01*
X520298Y508000D01*
X523642D01*
X526872Y508866D01*
X529768Y510537D01*
X532132Y512902D01*
X533805Y515798D01*
X534035Y516658D01*
X535305D01*
X535536Y515798D01*
X537207Y512902D01*
X539572Y510537D01*
X542468Y508866D01*
X545698Y508000D01*
X549042D01*
X552272Y508866D01*
X555168Y510537D01*
X557533Y512902D01*
X559204Y515798D01*
X559435Y516658D01*
X560705D01*
X560936Y515798D01*
X562607Y512902D01*
X564972Y510537D01*
X567868Y508866D01*
X571098Y508000D01*
X574442D01*
X577672Y508866D01*
X580568Y510537D01*
X582933Y512902D01*
X584604Y515798D01*
X584835Y516658D01*
X586105D01*
X586335Y515798D01*
X588008Y512902D01*
X590372Y510537D01*
X593268Y508866D01*
X596498Y508000D01*
X599842D01*
X603072Y508866D01*
X605968Y510537D01*
X608332Y512902D01*
X610005Y515798D01*
X610870Y519028D01*
Y522372D01*
X610005Y525602D01*
X608332Y528498D01*
X605968Y530863D01*
X603072Y532534D01*
X599842Y533400D01*
X596498D01*
X593268Y532534D01*
X590372Y530863D01*
X588008Y528498D01*
X586335Y525602D01*
X586105Y524742D01*
X584835D01*
X584604Y525602D01*
X582933Y528498D01*
X580568Y530863D01*
X577672Y532534D01*
X574442Y533400D01*
X571098D01*
X567868Y532534D01*
X564972Y530863D01*
X562607Y528498D01*
X560936Y525602D01*
X560705Y524742D01*
X559435D01*
X559204Y525602D01*
X557533Y528498D01*
X555168Y530863D01*
X552272Y532534D01*
X552032Y532599D01*
Y553059D01*
X697139Y698167D01*
X698150Y699679D01*
X699326Y700372D01*
X700211Y699862D01*
X702437Y699265D01*
X704743D01*
X706969Y699862D01*
X708966Y701014D01*
X710596Y702644D01*
X711748Y704641D01*
X712345Y706867D01*
Y709173D01*
X711748Y711399D01*
X710596Y713396D01*
X708966Y715026D01*
X706969Y716178D01*
X704743Y716775D01*
X704065Y717601D01*
X704069Y717621D01*
Y719265D01*
X712345D01*
Y736525D01*
X718272D01*
X718612Y735255D01*
X718214Y735026D01*
X716584Y733396D01*
X715432Y731399D01*
X714835Y729173D01*
Y726867D01*
X715432Y724641D01*
X716584Y722644D01*
X718214Y721014D01*
X720211Y719862D01*
X722437Y719265D01*
X724743D01*
X726969Y719862D01*
X728966Y721014D01*
X730596Y722644D01*
X731748Y724641D01*
X732345Y726867D01*
Y729173D01*
X731748Y731399D01*
X730596Y733396D01*
X728966Y735026D01*
X728568Y735255D01*
X728908Y736525D01*
X738272D01*
X738612Y735255D01*
X738214Y735026D01*
X736584Y733396D01*
X735432Y731399D01*
X734835Y729173D01*
Y726867D01*
X735432Y724641D01*
X736584Y722644D01*
X738214Y721014D01*
X740211Y719862D01*
X742437Y719265D01*
X744743D01*
X746969Y719862D01*
X748599Y720803D01*
X749869Y720264D01*
Y717857D01*
X750165Y716370D01*
X751007Y715110D01*
X755281Y710836D01*
X754835Y709173D01*
Y706867D01*
X755432Y704641D01*
X756584Y702644D01*
X758214Y701014D01*
X760211Y699862D01*
X762437Y699265D01*
X764743D01*
X766969Y699862D01*
X768966Y701014D01*
X770596Y702644D01*
X771748Y704641D01*
X772345Y706867D01*
Y709173D01*
X771748Y711399D01*
X770596Y713396D01*
X768966Y715026D01*
X766969Y716178D01*
X764743Y716775D01*
X762437D01*
X760774Y716329D01*
X758305Y718799D01*
X758385Y719449D01*
X759749Y720128D01*
X760211Y719862D01*
X762437Y719265D01*
X764743D01*
X766969Y719862D01*
X768966Y721014D01*
X770596Y722644D01*
X771748Y724641D01*
X772345Y726867D01*
Y729173D01*
X771748Y731399D01*
X770596Y733396D01*
X768966Y735026D01*
X766969Y736178D01*
X764743Y736775D01*
X762437D01*
X760211Y736178D01*
X758567Y735229D01*
X758023Y735105D01*
X756942Y735549D01*
X756500Y736209D01*
X749553Y743157D01*
X748292Y743999D01*
X746806Y744295D01*
X684530D01*
X683043Y743999D01*
X681783Y743157D01*
X616740Y678113D01*
X615513Y678442D01*
X615344Y679071D01*
X614174Y681099D01*
X612519Y682754D01*
X610945Y683662D01*
Y702310D01*
X610649Y703797D01*
X609807Y705057D01*
X576110Y738754D01*
X576580Y740510D01*
Y742850D01*
X575974Y745111D01*
X574804Y747139D01*
X573149Y748794D01*
X571121Y749964D01*
X568860Y750570D01*
D02*
G37*
G36*
X784743Y716775D02*
X782437D01*
X780211Y716178D01*
X778214Y715026D01*
X776584Y713396D01*
X775432Y711399D01*
X774835Y709173D01*
Y706867D01*
X775432Y704641D01*
X776584Y702644D01*
X778214Y701014D01*
X780211Y699862D01*
X782437Y699265D01*
X784743D01*
X786969Y699862D01*
X788966Y701014D01*
X790596Y702644D01*
X791748Y704641D01*
X792345Y706867D01*
Y709173D01*
X791748Y711399D01*
X790596Y713396D01*
X788966Y715026D01*
X786969Y716178D01*
X784743Y716775D01*
D02*
G37*
G36*
X744743D02*
X742437D01*
X740211Y716178D01*
X738214Y715026D01*
X736584Y713396D01*
X735432Y711399D01*
X734835Y709173D01*
Y706867D01*
X735432Y704641D01*
X736584Y702644D01*
X738214Y701014D01*
X740211Y699862D01*
X742437Y699265D01*
X744743D01*
X746969Y699862D01*
X748966Y701014D01*
X750596Y702644D01*
X751748Y704641D01*
X752345Y706867D01*
Y709173D01*
X751748Y711399D01*
X750596Y713396D01*
X748966Y715026D01*
X746969Y716178D01*
X744743Y716775D01*
D02*
G37*
G36*
X724743D02*
X722437D01*
X720211Y716178D01*
X718214Y715026D01*
X716584Y713396D01*
X715432Y711399D01*
X714835Y709173D01*
Y706867D01*
X715432Y704641D01*
X716584Y702644D01*
X718214Y701014D01*
X720211Y699862D01*
X722437Y699265D01*
X724743D01*
X726969Y699862D01*
X728966Y701014D01*
X730596Y702644D01*
X731748Y704641D01*
X732345Y706867D01*
Y709173D01*
X731748Y711399D01*
X730596Y713396D01*
X728966Y715026D01*
X726969Y716178D01*
X724743Y716775D01*
D02*
G37*
G36*
X784743Y696775D02*
X782437D01*
X780211Y696178D01*
X778214Y695026D01*
X776584Y693396D01*
X775432Y691399D01*
X774835Y689173D01*
Y686867D01*
X775432Y684641D01*
X776584Y682644D01*
X778214Y681014D01*
X780211Y679862D01*
X782437Y679265D01*
X784743D01*
X786969Y679862D01*
X788966Y681014D01*
X790596Y682644D01*
X791748Y684641D01*
X792345Y686867D01*
Y689173D01*
X791748Y691399D01*
X790596Y693396D01*
X788966Y695026D01*
X786969Y696178D01*
X784743Y696775D01*
D02*
G37*
G36*
X764743D02*
X762437D01*
X760211Y696178D01*
X758214Y695026D01*
X756584Y693396D01*
X755432Y691399D01*
X754835Y689173D01*
Y686867D01*
X755432Y684641D01*
X756584Y682644D01*
X758214Y681014D01*
X760211Y679862D01*
X762437Y679265D01*
X764743D01*
X766969Y679862D01*
X768966Y681014D01*
X770596Y682644D01*
X771748Y684641D01*
X772345Y686867D01*
Y689173D01*
X771748Y691399D01*
X770596Y693396D01*
X768966Y695026D01*
X766969Y696178D01*
X764743Y696775D01*
D02*
G37*
G36*
X744743D02*
X742437D01*
X740211Y696178D01*
X738214Y695026D01*
X736584Y693396D01*
X735432Y691399D01*
X734835Y689173D01*
Y686867D01*
X735432Y684641D01*
X736584Y682644D01*
X738214Y681014D01*
X740211Y679862D01*
X742437Y679265D01*
X744743D01*
X746969Y679862D01*
X748966Y681014D01*
X750596Y682644D01*
X751748Y684641D01*
X752345Y686867D01*
Y689173D01*
X751748Y691399D01*
X750596Y693396D01*
X748966Y695026D01*
X746969Y696178D01*
X744743Y696775D01*
D02*
G37*
G36*
X724743D02*
X722437D01*
X720211Y696178D01*
X718214Y695026D01*
X716584Y693396D01*
X715432Y691399D01*
X714835Y689173D01*
Y686867D01*
X715432Y684641D01*
X716584Y682644D01*
X718214Y681014D01*
X720211Y679862D01*
X722437Y679265D01*
X724743D01*
X726969Y679862D01*
X728966Y681014D01*
X730596Y682644D01*
X731748Y684641D01*
X732345Y686867D01*
Y689173D01*
X731748Y691399D01*
X730596Y693396D01*
X728966Y695026D01*
X726969Y696178D01*
X724743Y696775D01*
D02*
G37*
G36*
X704743D02*
X702437D01*
X700211Y696178D01*
X698214Y695026D01*
X696584Y693396D01*
X695432Y691399D01*
X694835Y689173D01*
Y686867D01*
X695432Y684641D01*
X696584Y682644D01*
X698214Y681014D01*
X700211Y679862D01*
X702437Y679265D01*
X704743D01*
X706969Y679862D01*
X708966Y681014D01*
X710596Y682644D01*
X711748Y684641D01*
X712345Y686867D01*
Y689173D01*
X711748Y691399D01*
X710596Y693396D01*
X708966Y695026D01*
X706969Y696178D01*
X704743Y696775D01*
D02*
G37*
G36*
X825091Y693260D02*
X822089D01*
X819145Y692674D01*
X816371Y691525D01*
X813875Y689858D01*
X811752Y687735D01*
X810085Y685239D01*
X808936Y682465D01*
X808350Y679521D01*
Y676519D01*
X808936Y673575D01*
X810085Y670801D01*
X811752Y668305D01*
X813875Y666182D01*
X816371Y664514D01*
X819145Y663366D01*
X822089Y662780D01*
X825091D01*
X828035Y663366D01*
X830809Y664514D01*
X833305Y666182D01*
X835428Y668305D01*
X837095Y670801D01*
X838244Y673575D01*
X838830Y676519D01*
Y679521D01*
X838244Y682465D01*
X837095Y685239D01*
X835428Y687735D01*
X833305Y689858D01*
X830809Y691525D01*
X828035Y692674D01*
X825091Y693260D01*
D02*
G37*
G36*
X784743Y676775D02*
X782437D01*
X780211Y676178D01*
X778214Y675026D01*
X776584Y673396D01*
X775432Y671399D01*
X774835Y669173D01*
Y666867D01*
X775432Y664641D01*
X776584Y662644D01*
X778214Y661014D01*
X780211Y659862D01*
X782437Y659265D01*
X784743D01*
X786969Y659862D01*
X788966Y661014D01*
X790596Y662644D01*
X791748Y664641D01*
X792345Y666867D01*
Y669173D01*
X791748Y671399D01*
X790596Y673396D01*
X788966Y675026D01*
X786969Y676178D01*
X784743Y676775D01*
D02*
G37*
G36*
X764743D02*
X762437D01*
X760211Y676178D01*
X758214Y675026D01*
X756584Y673396D01*
X755432Y671399D01*
X754835Y669173D01*
Y666867D01*
X755432Y664641D01*
X756584Y662644D01*
X758214Y661014D01*
X760211Y659862D01*
X762437Y659265D01*
X764743D01*
X766969Y659862D01*
X768966Y661014D01*
X770596Y662644D01*
X771748Y664641D01*
X772345Y666867D01*
Y669173D01*
X771748Y671399D01*
X770596Y673396D01*
X768966Y675026D01*
X766969Y676178D01*
X764743Y676775D01*
D02*
G37*
G36*
X744743D02*
X742437D01*
X740211Y676178D01*
X738214Y675026D01*
X736584Y673396D01*
X735432Y671399D01*
X734835Y669173D01*
Y666867D01*
X735432Y664641D01*
X736584Y662644D01*
X738214Y661014D01*
X740211Y659862D01*
X742437Y659265D01*
X744743D01*
X746969Y659862D01*
X748966Y661014D01*
X750596Y662644D01*
X751748Y664641D01*
X752345Y666867D01*
Y669173D01*
X751748Y671399D01*
X750596Y673396D01*
X748966Y675026D01*
X746969Y676178D01*
X744743Y676775D01*
D02*
G37*
G36*
X784743Y656775D02*
X782437D01*
X780211Y656178D01*
X778214Y655026D01*
X776584Y653396D01*
X775432Y651399D01*
X774835Y649173D01*
Y646867D01*
X775432Y644641D01*
X776584Y642644D01*
X778214Y641014D01*
X780211Y639862D01*
X782437Y639265D01*
X784743D01*
X786969Y639862D01*
X788966Y641014D01*
X790596Y642644D01*
X791748Y644641D01*
X792345Y646867D01*
Y649173D01*
X791748Y651399D01*
X790596Y653396D01*
X788966Y655026D01*
X786969Y656178D01*
X784743Y656775D01*
D02*
G37*
G36*
X764743D02*
X762437D01*
X760211Y656178D01*
X758214Y655026D01*
X756584Y653396D01*
X755432Y651399D01*
X754835Y649173D01*
Y646867D01*
X755432Y644641D01*
X756584Y642644D01*
X758214Y641014D01*
X760211Y639862D01*
X762437Y639265D01*
X764743D01*
X766969Y639862D01*
X768966Y641014D01*
X770596Y642644D01*
X771748Y644641D01*
X772345Y646867D01*
Y649173D01*
X771748Y651399D01*
X770596Y653396D01*
X768966Y655026D01*
X766969Y656178D01*
X764743Y656775D01*
D02*
G37*
G36*
X744743D02*
X742437D01*
X740211Y656178D01*
X738214Y655026D01*
X736584Y653396D01*
X735432Y651399D01*
X734835Y649173D01*
Y646867D01*
X735432Y644641D01*
X736584Y642644D01*
X738214Y641014D01*
X740211Y639862D01*
X742437Y639265D01*
X744743D01*
X746969Y639862D01*
X748966Y641014D01*
X750596Y642644D01*
X751748Y644641D01*
X752345Y646867D01*
Y649173D01*
X751748Y651399D01*
X750596Y653396D01*
X748966Y655026D01*
X746969Y656178D01*
X744743Y656775D01*
D02*
G37*
G36*
X784743Y636775D02*
X782437D01*
X780211Y636178D01*
X778214Y635026D01*
X776584Y633396D01*
X775432Y631399D01*
X774835Y629173D01*
Y626867D01*
X775432Y624641D01*
X776584Y622644D01*
X778214Y621014D01*
X780211Y619862D01*
X782437Y619265D01*
X784743D01*
X786969Y619862D01*
X788966Y621014D01*
X790596Y622644D01*
X791748Y624641D01*
X792345Y626867D01*
Y629173D01*
X791748Y631399D01*
X790596Y633396D01*
X788966Y635026D01*
X786969Y636178D01*
X784743Y636775D01*
D02*
G37*
G36*
X764743D02*
X762437D01*
X760211Y636178D01*
X758214Y635026D01*
X756584Y633396D01*
X755432Y631399D01*
X754835Y629173D01*
Y626867D01*
X755432Y624641D01*
X756584Y622644D01*
X758214Y621014D01*
X760211Y619862D01*
X762437Y619265D01*
X764743D01*
X766969Y619862D01*
X768966Y621014D01*
X770596Y622644D01*
X771748Y624641D01*
X772345Y626867D01*
Y629173D01*
X771748Y631399D01*
X770596Y633396D01*
X768966Y635026D01*
X766969Y636178D01*
X764743Y636775D01*
D02*
G37*
G36*
X784743Y616775D02*
X782437D01*
X780211Y616178D01*
X778214Y615026D01*
X776584Y613396D01*
X775432Y611399D01*
X774835Y609173D01*
Y606867D01*
X775432Y604641D01*
X776584Y602644D01*
X778214Y601014D01*
X780211Y599862D01*
X782437Y599265D01*
X784743D01*
X786969Y599862D01*
X788966Y601014D01*
X790596Y602644D01*
X791748Y604641D01*
X792345Y606867D01*
Y609173D01*
X791748Y611399D01*
X790596Y613396D01*
X788966Y615026D01*
X786969Y616178D01*
X784743Y616775D01*
D02*
G37*
G36*
X764743D02*
X762437D01*
X760211Y616178D01*
X758214Y615026D01*
X756584Y613396D01*
X755432Y611399D01*
X754835Y609173D01*
Y606867D01*
X755432Y604641D01*
X756584Y602644D01*
X758214Y601014D01*
X760211Y599862D01*
X762437Y599265D01*
X764743D01*
X766969Y599862D01*
X768966Y601014D01*
X770596Y602644D01*
X771748Y604641D01*
X772345Y606867D01*
Y609173D01*
X771748Y611399D01*
X770596Y613396D01*
X768966Y615026D01*
X766969Y616178D01*
X764743Y616775D01*
D02*
G37*
G36*
X704743D02*
X702437D01*
X700211Y616178D01*
X698214Y615026D01*
X696584Y613396D01*
X695432Y611399D01*
X694835Y609173D01*
Y606867D01*
X695432Y604641D01*
X696584Y602644D01*
X698214Y601014D01*
X700211Y599862D01*
X702437Y599265D01*
X704743D01*
X706969Y599862D01*
X708966Y601014D01*
X710596Y602644D01*
X711748Y604641D01*
X712345Y606867D01*
Y609173D01*
X711748Y611399D01*
X710596Y613396D01*
X708966Y615026D01*
X706969Y616178D01*
X704743Y616775D01*
D02*
G37*
G36*
X784743Y596775D02*
X782437D01*
X780211Y596178D01*
X778214Y595026D01*
X776584Y593396D01*
X775432Y591399D01*
X774835Y589173D01*
Y586867D01*
X775432Y584641D01*
X776584Y582644D01*
X778214Y581014D01*
X780211Y579862D01*
X782437Y579265D01*
X784743D01*
X786969Y579862D01*
X788966Y581014D01*
X790596Y582644D01*
X791748Y584641D01*
X792345Y586867D01*
Y589173D01*
X791748Y591399D01*
X790596Y593396D01*
X788966Y595026D01*
X786969Y596178D01*
X784743Y596775D01*
D02*
G37*
G36*
X764743D02*
X762437D01*
X760211Y596178D01*
X758214Y595026D01*
X756584Y593396D01*
X755432Y591399D01*
X754835Y589173D01*
Y586867D01*
X755432Y584641D01*
X756584Y582644D01*
X758214Y581014D01*
X760211Y579862D01*
X762437Y579265D01*
X764743D01*
X766969Y579862D01*
X768966Y581014D01*
X770596Y582644D01*
X771748Y584641D01*
X772345Y586867D01*
Y589173D01*
X771748Y591399D01*
X770596Y593396D01*
X768966Y595026D01*
X766969Y596178D01*
X764743Y596775D01*
D02*
G37*
G36*
X704743D02*
X702437D01*
X700211Y596178D01*
X698214Y595026D01*
X696584Y593396D01*
X695432Y591399D01*
X694835Y589173D01*
Y586867D01*
X695432Y584641D01*
X696584Y582644D01*
X698214Y581014D01*
X700211Y579862D01*
X702437Y579265D01*
X704743D01*
X706969Y579862D01*
X708966Y581014D01*
X710596Y582644D01*
X711748Y584641D01*
X712345Y586867D01*
Y589173D01*
X711748Y591399D01*
X710596Y593396D01*
X708966Y595026D01*
X706969Y596178D01*
X704743Y596775D01*
D02*
G37*
G36*
X572670Y664210D02*
X570330D01*
X568069Y663604D01*
X566041Y662434D01*
X564386Y660779D01*
X563216Y658751D01*
X562610Y656490D01*
Y654150D01*
X563216Y651889D01*
X563434Y651510D01*
X563124Y651199D01*
X562715Y650587D01*
X501624Y589497D01*
X406359D01*
X404575Y589142D01*
X403063Y588131D01*
X363153Y548222D01*
X284480D01*
X282696Y547867D01*
X281184Y546856D01*
X268008Y533680D01*
X267792Y533805D01*
X264562Y534670D01*
X261218D01*
X257988Y533805D01*
X255092Y532132D01*
X252728Y529768D01*
X251056Y526872D01*
X250825Y526012D01*
X249555D01*
X249324Y526872D01*
X247652Y529768D01*
X245288Y532132D01*
X242392Y533805D01*
X239162Y534670D01*
X235818D01*
X232588Y533805D01*
X229692Y532132D01*
X227327Y529768D01*
X225655Y526872D01*
X225425Y526012D01*
X224155D01*
X223925Y526872D01*
X222253Y529768D01*
X219888Y532132D01*
X216992Y533805D01*
X213762Y534670D01*
X213360D01*
Y521970D01*
Y509270D01*
X213762D01*
X216992Y510135D01*
X219888Y511808D01*
X222253Y514172D01*
X223925Y517068D01*
X224155Y517928D01*
X225425D01*
X225655Y517068D01*
X227327Y514172D01*
X229692Y511808D01*
X232588Y510135D01*
X235818Y509270D01*
X239162D01*
X242392Y510135D01*
X242608Y510260D01*
X247886Y504982D01*
X249398Y503971D01*
X251182Y503616D01*
X430808D01*
X432592Y503971D01*
X434104Y504982D01*
X489431Y560308D01*
X490320Y560070D01*
X492660D01*
X494921Y560676D01*
X496949Y561846D01*
X498604Y563501D01*
X499774Y565529D01*
X500380Y567790D01*
Y570130D01*
X499774Y572391D01*
X498604Y574419D01*
X496949Y576074D01*
X494921Y577244D01*
X492660Y577850D01*
X490320D01*
X488059Y577244D01*
X486031Y576074D01*
X484376Y574419D01*
X483206Y572391D01*
X482600Y570130D01*
Y567790D01*
X482838Y566901D01*
X428877Y512940D01*
X324279D01*
X323793Y514113D01*
X323853Y514172D01*
X325524Y517068D01*
X326390Y520298D01*
Y523642D01*
X325524Y526872D01*
X323853Y529768D01*
X321488Y532132D01*
X318592Y533805D01*
X315362Y534670D01*
X312018D01*
X308788Y533805D01*
X305892Y532132D01*
X303528Y529768D01*
X301856Y526872D01*
X301625Y526012D01*
X300355D01*
X300124Y526872D01*
X298452Y529768D01*
X296088Y532132D01*
X293192Y533805D01*
X289962Y534670D01*
X286618D01*
X283388Y533805D01*
X282737Y533429D01*
X281958Y534445D01*
X286411Y538898D01*
X365084D01*
X366868Y539253D01*
X368380Y540264D01*
X408290Y580173D01*
X503555D01*
X505339Y580528D01*
X506851Y581539D01*
X569716Y644404D01*
X570125Y645016D01*
X571539Y646430D01*
X572670D01*
X574931Y647036D01*
X576959Y648206D01*
X578614Y649861D01*
X579784Y651889D01*
X580390Y654150D01*
Y656490D01*
X579784Y658751D01*
X578614Y660779D01*
X576959Y662434D01*
X574931Y663604D01*
X572670Y664210D01*
D02*
G37*
G36*
X784743Y576775D02*
X782437D01*
X780211Y576178D01*
X778214Y575026D01*
X776584Y573396D01*
X775432Y571399D01*
X774835Y569173D01*
Y566867D01*
X775432Y564641D01*
X776584Y562644D01*
X778214Y561014D01*
X780211Y559862D01*
X782437Y559265D01*
X784743D01*
X786969Y559862D01*
X788966Y561014D01*
X790596Y562644D01*
X791748Y564641D01*
X792345Y566867D01*
Y569173D01*
X791748Y571399D01*
X790596Y573396D01*
X788966Y575026D01*
X786969Y576178D01*
X784743Y576775D01*
D02*
G37*
G36*
X764743D02*
X762437D01*
X760211Y576178D01*
X758214Y575026D01*
X756584Y573396D01*
X755432Y571399D01*
X754835Y569173D01*
Y566867D01*
X755432Y564641D01*
X756584Y562644D01*
X758214Y561014D01*
X760211Y559862D01*
X762437Y559265D01*
X764743D01*
X766969Y559862D01*
X768966Y561014D01*
X770596Y562644D01*
X771748Y564641D01*
X772345Y566867D01*
Y569173D01*
X771748Y571399D01*
X770596Y573396D01*
X768966Y575026D01*
X766969Y576178D01*
X764743Y576775D01*
D02*
G37*
G36*
X704743D02*
X702437D01*
X700211Y576178D01*
X698214Y575026D01*
X696584Y573396D01*
X695432Y571399D01*
X694835Y569173D01*
Y566867D01*
X695432Y564641D01*
X696584Y562644D01*
X698214Y561014D01*
X700211Y559862D01*
X702437Y559265D01*
X704743D01*
X706969Y559862D01*
X708966Y561014D01*
X710596Y562644D01*
X711748Y564641D01*
X712345Y566867D01*
Y569173D01*
X711748Y571399D01*
X710596Y573396D01*
X708966Y575026D01*
X706969Y576178D01*
X704743Y576775D01*
D02*
G37*
G36*
X784860Y556744D02*
Y549290D01*
X792314D01*
X791748Y551399D01*
X790596Y553396D01*
X788966Y555026D01*
X786969Y556178D01*
X784860Y556744D01*
D02*
G37*
G36*
X782320D02*
X780211Y556178D01*
X778214Y555026D01*
X776584Y553396D01*
X775432Y551399D01*
X774866Y549290D01*
X782320D01*
Y556744D01*
D02*
G37*
G36*
X825091Y573260D02*
X822089D01*
X819145Y572674D01*
X816371Y571525D01*
X813875Y569858D01*
X811752Y567735D01*
X810085Y565239D01*
X808936Y562465D01*
X808350Y559521D01*
Y556519D01*
X808936Y553575D01*
X810085Y550801D01*
X811752Y548305D01*
X813875Y546182D01*
X816371Y544515D01*
X819145Y543366D01*
X822089Y542780D01*
X825091D01*
X828035Y543366D01*
X830809Y544515D01*
X833305Y546182D01*
X835428Y548305D01*
X837095Y550801D01*
X838244Y553575D01*
X838830Y556519D01*
Y559521D01*
X838244Y562465D01*
X837095Y565239D01*
X835428Y567735D01*
X833305Y569858D01*
X830809Y571525D01*
X828035Y572674D01*
X825091Y573260D01*
D02*
G37*
G36*
X792314Y546750D02*
X784860D01*
Y539296D01*
X786969Y539862D01*
X788966Y541014D01*
X790596Y542644D01*
X791748Y544641D01*
X792314Y546750D01*
D02*
G37*
G36*
X782320D02*
X774866D01*
X775432Y544641D01*
X776584Y542644D01*
X778214Y541014D01*
X780211Y539862D01*
X782320Y539296D01*
Y546750D01*
D02*
G37*
G36*
X764743Y556775D02*
X762437D01*
X760211Y556178D01*
X758214Y555026D01*
X756584Y553396D01*
X755432Y551399D01*
X754835Y549173D01*
Y546867D01*
X755432Y544641D01*
X756584Y542644D01*
X758214Y541014D01*
X760211Y539862D01*
X762437Y539265D01*
X764743D01*
X766969Y539862D01*
X768966Y541014D01*
X770596Y542644D01*
X771748Y544641D01*
X772345Y546867D01*
Y549173D01*
X771748Y551399D01*
X770596Y553396D01*
X768966Y555026D01*
X766969Y556178D01*
X764743Y556775D01*
D02*
G37*
G36*
X704743D02*
X702437D01*
X700211Y556178D01*
X698214Y555026D01*
X696584Y553396D01*
X695432Y551399D01*
X694835Y549173D01*
Y546867D01*
X695432Y544641D01*
X696584Y542644D01*
X698214Y541014D01*
X700211Y539862D01*
X702437Y539265D01*
X704743D01*
X706969Y539862D01*
X708966Y541014D01*
X710596Y542644D01*
X711748Y544641D01*
X712345Y546867D01*
Y549173D01*
X711748Y551399D01*
X710596Y553396D01*
X708966Y555026D01*
X706969Y556178D01*
X704743Y556775D01*
D02*
G37*
G36*
X784860Y536744D02*
Y529290D01*
X792314D01*
X791748Y531399D01*
X790596Y533396D01*
X788966Y535026D01*
X786969Y536178D01*
X784860Y536744D01*
D02*
G37*
G36*
X782320D02*
X780211Y536178D01*
X778214Y535026D01*
X776584Y533396D01*
X775432Y531399D01*
X774866Y529290D01*
X782320D01*
Y536744D01*
D02*
G37*
G36*
X210820Y534670D02*
X210418D01*
X207188Y533805D01*
X204292Y532132D01*
X201928Y529768D01*
X200256Y526872D01*
X199390Y523642D01*
Y523240D01*
X210820D01*
Y534670D01*
D02*
G37*
G36*
X495300Y533400D02*
X494898D01*
X491668Y532534D01*
X488772Y530863D01*
X486408Y528498D01*
X484735Y525602D01*
X483870Y522372D01*
Y521970D01*
X495300D01*
Y533400D01*
D02*
G37*
G36*
X782320Y526750D02*
X774866D01*
X775432Y524641D01*
X776584Y522644D01*
X778214Y521014D01*
X780211Y519862D01*
X782320Y519296D01*
Y526750D01*
D02*
G37*
G36*
X792314D02*
X784860D01*
Y519296D01*
X786969Y519862D01*
X788966Y521014D01*
X790596Y522644D01*
X791748Y524641D01*
X792314Y526750D01*
D02*
G37*
G36*
X764743Y536775D02*
X762437D01*
X760211Y536178D01*
X758214Y535026D01*
X756584Y533396D01*
X755432Y531399D01*
X754835Y529173D01*
Y526867D01*
X755432Y524641D01*
X756584Y522644D01*
X758214Y521014D01*
X760211Y519862D01*
X762437Y519265D01*
X764743D01*
X766969Y519862D01*
X768966Y521014D01*
X770596Y522644D01*
X771748Y524641D01*
X772345Y526867D01*
Y529173D01*
X771748Y531399D01*
X770596Y533396D01*
X768966Y535026D01*
X766969Y536178D01*
X764743Y536775D01*
D02*
G37*
G36*
X704743D02*
X702437D01*
X700211Y536178D01*
X698214Y535026D01*
X696584Y533396D01*
X695432Y531399D01*
X694835Y529173D01*
Y526867D01*
X695432Y524641D01*
X696584Y522644D01*
X698214Y521014D01*
X700211Y519862D01*
X702437Y519265D01*
X704743D01*
X706969Y519862D01*
X708966Y521014D01*
X710596Y522644D01*
X711748Y524641D01*
X712345Y526867D01*
Y529173D01*
X711748Y531399D01*
X710596Y533396D01*
X708966Y535026D01*
X706969Y536178D01*
X704743Y536775D01*
D02*
G37*
G36*
X784860Y516744D02*
Y509290D01*
X792314D01*
X791748Y511399D01*
X790596Y513396D01*
X788966Y515026D01*
X786969Y516178D01*
X784860Y516744D01*
D02*
G37*
G36*
X782320D02*
X780211Y516178D01*
X778214Y515026D01*
X776584Y513396D01*
X775432Y511399D01*
X774866Y509290D01*
X782320D01*
Y516744D01*
D02*
G37*
G36*
X210820Y520700D02*
X199390D01*
Y520298D01*
X200256Y517068D01*
X201928Y514172D01*
X204292Y511808D01*
X207188Y510135D01*
X210418Y509270D01*
X210820D01*
Y520700D01*
D02*
G37*
G36*
X495300Y519430D02*
X483870D01*
Y519028D01*
X484735Y515798D01*
X486408Y512902D01*
X488772Y510537D01*
X491668Y508866D01*
X494898Y508000D01*
X495300D01*
Y519430D01*
D02*
G37*
G36*
X792314Y506750D02*
X784860D01*
Y499296D01*
X786969Y499862D01*
X788966Y501014D01*
X790596Y502644D01*
X791748Y504641D01*
X792314Y506750D01*
D02*
G37*
G36*
X782320D02*
X774866D01*
X775432Y504641D01*
X776584Y502644D01*
X778214Y501014D01*
X780211Y499862D01*
X782320Y499296D01*
Y506750D01*
D02*
G37*
G36*
X764743Y516775D02*
X762437D01*
X760211Y516178D01*
X758214Y515026D01*
X756584Y513396D01*
X755432Y511399D01*
X754835Y509173D01*
Y506867D01*
X755432Y504641D01*
X756584Y502644D01*
X758214Y501014D01*
X760211Y499862D01*
X762437Y499265D01*
X764743D01*
X766969Y499862D01*
X768966Y501014D01*
X770596Y502644D01*
X771748Y504641D01*
X772345Y506867D01*
Y509173D01*
X771748Y511399D01*
X770596Y513396D01*
X768966Y515026D01*
X766969Y516178D01*
X764743Y516775D01*
D02*
G37*
G36*
X704743D02*
X702437D01*
X700211Y516178D01*
X698214Y515026D01*
X696584Y513396D01*
X695432Y511399D01*
X694835Y509173D01*
Y506867D01*
X695432Y504641D01*
X696584Y502644D01*
X698214Y501014D01*
X700211Y499862D01*
X702437Y499265D01*
X704743D01*
X706969Y499862D01*
X708966Y501014D01*
X710596Y502644D01*
X711748Y504641D01*
X712345Y506867D01*
Y509173D01*
X711748Y511399D01*
X710596Y513396D01*
X708966Y515026D01*
X706969Y516178D01*
X704743Y516775D01*
D02*
G37*
G36*
X315362Y255270D02*
X312018D01*
X308788Y254405D01*
X305892Y252733D01*
X303528Y250368D01*
X301856Y247472D01*
X301625Y246612D01*
X300355D01*
X300124Y247472D01*
X298452Y250368D01*
X296088Y252733D01*
X293192Y254405D01*
X289962Y255270D01*
X289560D01*
Y242570D01*
Y229870D01*
X289962D01*
X293192Y230735D01*
X296088Y232407D01*
X298452Y234772D01*
X300124Y237668D01*
X300355Y238528D01*
X301625D01*
X301856Y237668D01*
X303528Y234772D01*
X305892Y232407D01*
X308788Y230735D01*
X312018Y229870D01*
X315362D01*
X318592Y230735D01*
X321488Y232407D01*
X323853Y234772D01*
X325524Y237668D01*
X326390Y240898D01*
Y244242D01*
X325524Y247472D01*
X323853Y250368D01*
X321488Y252733D01*
X318592Y254405D01*
X315362Y255270D01*
D02*
G37*
G36*
X287020D02*
X286618D01*
X283388Y254405D01*
X280492Y252733D01*
X278127Y250368D01*
X276455Y247472D01*
X276225Y246612D01*
X274955D01*
X274725Y247472D01*
X273053Y250368D01*
X270688Y252733D01*
X267792Y254405D01*
X264562Y255270D01*
X261218D01*
X257988Y254405D01*
X255092Y252733D01*
X252728Y250368D01*
X251056Y247472D01*
X250825Y246612D01*
X249555D01*
X249324Y247472D01*
X247652Y250368D01*
X245288Y252733D01*
X242392Y254405D01*
X239162Y255270D01*
X235818D01*
X232588Y254405D01*
X229692Y252733D01*
X227327Y250368D01*
X225655Y247472D01*
X225425Y246612D01*
X224155D01*
X223925Y247472D01*
X222253Y250368D01*
X219888Y252733D01*
X216992Y254405D01*
X213762Y255270D01*
X213360D01*
Y242570D01*
Y229870D01*
X213762D01*
X216992Y230735D01*
X219888Y232407D01*
X222253Y234772D01*
X223925Y237668D01*
X224155Y238528D01*
X225425D01*
X225655Y237668D01*
X227327Y234772D01*
X229692Y232407D01*
X232588Y230735D01*
X235818Y229870D01*
X239162D01*
X242392Y230735D01*
X245288Y232407D01*
X247652Y234772D01*
X249324Y237668D01*
X249555Y238528D01*
X250825D01*
X251056Y237668D01*
X252728Y234772D01*
X255092Y232407D01*
X257988Y230735D01*
X261218Y229870D01*
X264562D01*
X267792Y230735D01*
X270688Y232407D01*
X273053Y234772D01*
X274725Y237668D01*
X274955Y238528D01*
X276225D01*
X276455Y237668D01*
X278127Y234772D01*
X280492Y232407D01*
X283388Y230735D01*
X286618Y229870D01*
X287020D01*
Y242570D01*
Y255270D01*
D02*
G37*
G36*
X599842Y254000D02*
X596498D01*
X593268Y253134D01*
X590372Y251462D01*
X588008Y249098D01*
X586335Y246202D01*
X586105Y245342D01*
X584835D01*
X584604Y246202D01*
X582933Y249098D01*
X580568Y251462D01*
X577672Y253134D01*
X574442Y254000D01*
X574040D01*
Y241300D01*
Y228600D01*
X574442D01*
X577672Y229466D01*
X580568Y231138D01*
X582933Y233502D01*
X584604Y236398D01*
X584835Y237258D01*
X586105D01*
X586335Y236398D01*
X588008Y233502D01*
X590372Y231138D01*
X593268Y229466D01*
X596498Y228600D01*
X599842D01*
X603072Y229466D01*
X605968Y231138D01*
X608332Y233502D01*
X610005Y236398D01*
X610870Y239628D01*
Y242972D01*
X610005Y246202D01*
X608332Y249098D01*
X605968Y251462D01*
X603072Y253134D01*
X599842Y254000D01*
D02*
G37*
G36*
X571500D02*
X571098D01*
X567868Y253134D01*
X564972Y251462D01*
X562607Y249098D01*
X560936Y246202D01*
X560705Y245342D01*
X559435D01*
X559204Y246202D01*
X557533Y249098D01*
X555168Y251462D01*
X552272Y253134D01*
X549042Y254000D01*
X545698D01*
X542468Y253134D01*
X539572Y251462D01*
X537207Y249098D01*
X535536Y246202D01*
X535305Y245342D01*
X534035D01*
X533805Y246202D01*
X532132Y249098D01*
X529768Y251462D01*
X526872Y253134D01*
X523642Y254000D01*
X520298D01*
X517068Y253134D01*
X514172Y251462D01*
X511808Y249098D01*
X510135Y246202D01*
X509905Y245342D01*
X508635D01*
X508405Y246202D01*
X506732Y249098D01*
X504368Y251462D01*
X501472Y253134D01*
X498242Y254000D01*
X497840D01*
Y241300D01*
Y228600D01*
X498242D01*
X501472Y229466D01*
X504368Y231138D01*
X506732Y233502D01*
X508405Y236398D01*
X508635Y237258D01*
X509905D01*
X510135Y236398D01*
X511808Y233502D01*
X514172Y231138D01*
X517068Y229466D01*
X520298Y228600D01*
X523642D01*
X526872Y229466D01*
X529768Y231138D01*
X532132Y233502D01*
X533805Y236398D01*
X534035Y237258D01*
X535305D01*
X535536Y236398D01*
X537207Y233502D01*
X539572Y231138D01*
X542468Y229466D01*
X545698Y228600D01*
X549042D01*
X552272Y229466D01*
X555168Y231138D01*
X557533Y233502D01*
X559204Y236398D01*
X559435Y237258D01*
X560705D01*
X560936Y236398D01*
X562607Y233502D01*
X564972Y231138D01*
X567868Y229466D01*
X571098Y228600D01*
X571500D01*
Y241300D01*
Y254000D01*
D02*
G37*
G36*
X210820Y255270D02*
X210418D01*
X207188Y254405D01*
X204292Y252733D01*
X201928Y250368D01*
X200256Y247472D01*
X199390Y244242D01*
Y243840D01*
X210820D01*
Y255270D01*
D02*
G37*
G36*
X495300Y254000D02*
X494898D01*
X491668Y253134D01*
X488772Y251462D01*
X486408Y249098D01*
X484735Y246202D01*
X483870Y242972D01*
Y242570D01*
X495300D01*
Y254000D01*
D02*
G37*
G36*
X210820Y241300D02*
X199390D01*
Y240898D01*
X200256Y237668D01*
X201928Y234772D01*
X204292Y232407D01*
X207188Y230735D01*
X210418Y229870D01*
X210820D01*
Y241300D01*
D02*
G37*
G36*
X495300Y240030D02*
X483870D01*
Y239628D01*
X484735Y236398D01*
X486408Y233502D01*
X488772Y231138D01*
X491668Y229466D01*
X494898Y228600D01*
X495300D01*
Y240030D01*
D02*
G37*
G36*
X39370Y226033D02*
Y218440D01*
X46963D01*
X46384Y220601D01*
X45214Y222629D01*
X43559Y224284D01*
X41531Y225454D01*
X39370Y226033D01*
D02*
G37*
G36*
X36830D02*
X34669Y225454D01*
X32641Y224284D01*
X30986Y222629D01*
X29816Y220601D01*
X29237Y218440D01*
X36830D01*
Y226033D01*
D02*
G37*
G36*
X46963Y215900D02*
X39370D01*
Y208307D01*
X41531Y208886D01*
X43559Y210056D01*
X45214Y211711D01*
X46384Y213739D01*
X46963Y215900D01*
D02*
G37*
G36*
X36830D02*
X29237D01*
X29816Y213739D01*
X30986Y211711D01*
X32641Y210056D01*
X34669Y208886D01*
X36830Y208307D01*
Y215900D01*
D02*
G37*
G36*
X113030Y193013D02*
Y185420D01*
X120623D01*
X120044Y187581D01*
X118874Y189609D01*
X117219Y191264D01*
X115191Y192434D01*
X113030Y193013D01*
D02*
G37*
G36*
X110490D02*
X108329Y192434D01*
X106301Y191264D01*
X104646Y189609D01*
X103476Y187581D01*
X102897Y185420D01*
X110490D01*
Y193013D01*
D02*
G37*
G36*
X120623Y182880D02*
X113030D01*
Y175287D01*
X115191Y175866D01*
X117219Y177036D01*
X118874Y178691D01*
X120044Y180719D01*
X120623Y182880D01*
D02*
G37*
G36*
X110490D02*
X102897D01*
X103476Y180719D01*
X104646Y178691D01*
X106301Y177036D01*
X108329Y175866D01*
X110490Y175287D01*
Y182880D01*
D02*
G37*
%LPD*%
G36*
X696534Y662461D02*
X696357Y661130D01*
X696256Y661063D01*
X664470Y629277D01*
X663459Y627764D01*
X663339Y627160D01*
X662000Y626939D01*
X661458Y627878D01*
X659803Y629533D01*
X657775Y630704D01*
X655515Y631310D01*
X653668D01*
X653120Y632557D01*
X683921Y663358D01*
X695802D01*
X696534Y662461D01*
D02*
G37*
D10*
X353340Y253010D02*
X407670Y307340D01*
X353340Y252002D02*
Y253010D01*
X407670Y307340D02*
Y355600D01*
X347388Y246050D02*
X353340Y252002D01*
X346380Y246050D02*
X347388D01*
X321310Y220980D02*
X346380Y246050D01*
X391160Y372110D02*
X407670Y355600D01*
X391160Y372110D02*
Y447040D01*
X609600Y665480D01*
X611268D01*
X617220Y671432D01*
Y673100D01*
X684530Y740410D02*
X746806D01*
X617220Y673100D02*
X684530Y740410D01*
X144780Y229870D02*
X153670Y220980D01*
X321310D01*
X607060Y675640D02*
Y702310D01*
X746806Y740410D02*
X753754Y733462D01*
Y717857D02*
X763590Y708020D01*
X753754Y717857D02*
Y733462D01*
X567690Y741680D02*
X607060Y702310D01*
D34*
X647700Y438150D02*
X715010D01*
X733337Y456477D01*
X674370Y452120D02*
Y500380D01*
X673100Y501650D02*
X674370Y500380D01*
Y452120D02*
X675640Y450850D01*
X430808Y508278D02*
X491490Y568960D01*
X674370Y598170D02*
Y612584D01*
X663448Y611002D02*
X667766Y615320D01*
X629920Y597996D02*
X654344Y622420D01*
X663448Y596138D02*
Y611002D01*
X674370Y612584D02*
X700059Y638273D01*
X667766Y615320D02*
Y625980D01*
X699553Y657767D01*
X643890Y576580D02*
X663448Y596138D01*
X719799Y657767D02*
X722180Y660147D01*
Y666610D02*
X723590Y668020D01*
X700059Y638273D02*
X713843D01*
X722180Y660147D02*
Y666610D01*
X699553Y657767D02*
X719799D01*
X365084Y543560D02*
X406359Y584835D01*
X262890Y521970D02*
X284480Y543560D01*
X365084D01*
X368805Y259205D02*
X553720Y444120D01*
Y449580D01*
X367130Y257530D02*
X368805Y259205D01*
X629920Y525780D02*
Y597996D01*
X553720Y449580D02*
X629920Y525780D01*
X308990Y199390D02*
X367130Y257530D01*
X285750Y199390D02*
X308990D01*
X327676Y175260D02*
X529934Y377518D01*
X733337Y456477D02*
Y618273D01*
X237490Y521970D02*
X251182Y508278D01*
X571500Y652983D02*
Y655320D01*
X566420Y647903D02*
X571500Y652983D01*
X566420Y647700D02*
Y647903D01*
X503555Y584835D02*
X566420Y647700D01*
X406359Y584835D02*
X503555D01*
X251182Y508278D02*
X430808D01*
X643890Y518802D02*
Y576580D01*
X598170Y584200D02*
X681990Y668020D01*
X703590D01*
X529934Y404845D02*
X643890Y518802D01*
X270510Y175260D02*
X327676D01*
X529934Y377518D02*
Y404845D01*
X713843Y638273D02*
X723590Y648020D01*
Y628020D02*
X733337Y618273D01*
X540766Y539496D02*
Y569976D01*
X662940Y692150D01*
X521970Y520700D02*
X540766Y539496D01*
X693843Y712057D02*
X699407Y717621D01*
X693843Y701463D02*
Y712057D01*
X547370Y554990D02*
X693843Y701463D01*
X547370Y520700D02*
Y554990D01*
X699407Y717621D02*
Y723837D01*
X703590Y728020D01*
D37*
X496570Y241300D02*
D03*
X521970D02*
D03*
X547370D02*
D03*
X572770D02*
D03*
X598170D02*
D03*
X496570Y520700D02*
D03*
X521970D02*
D03*
X547370D02*
D03*
X572770D02*
D03*
X598170D02*
D03*
X212090Y242570D02*
D03*
X237490D02*
D03*
X262890D02*
D03*
X288290D02*
D03*
X313690D02*
D03*
X212090Y521970D02*
D03*
X237490D02*
D03*
X262890D02*
D03*
X288290D02*
D03*
X313690D02*
D03*
D38*
X326390Y742950D02*
D03*
X201930D02*
D03*
D39*
X300990D02*
D03*
X275590D02*
D03*
X151130D02*
D03*
X176530D02*
D03*
D40*
X703590Y728020D02*
D03*
D41*
Y708020D02*
D03*
Y688020D02*
D03*
Y668020D02*
D03*
Y648020D02*
D03*
Y628020D02*
D03*
Y608020D02*
D03*
Y588020D02*
D03*
Y568020D02*
D03*
Y548020D02*
D03*
Y528020D02*
D03*
Y508020D02*
D03*
X723590Y728020D02*
D03*
Y708020D02*
D03*
Y688020D02*
D03*
Y668020D02*
D03*
Y648020D02*
D03*
Y628020D02*
D03*
Y608020D02*
D03*
Y588020D02*
D03*
Y568020D02*
D03*
Y548020D02*
D03*
Y528020D02*
D03*
Y508020D02*
D03*
X743590Y728020D02*
D03*
Y708020D02*
D03*
Y688020D02*
D03*
Y668020D02*
D03*
Y648020D02*
D03*
Y628020D02*
D03*
Y608020D02*
D03*
Y588020D02*
D03*
Y568020D02*
D03*
Y548020D02*
D03*
Y528020D02*
D03*
Y508020D02*
D03*
X763590Y728020D02*
D03*
Y708020D02*
D03*
Y688020D02*
D03*
Y668020D02*
D03*
Y648020D02*
D03*
Y628020D02*
D03*
Y608020D02*
D03*
Y588020D02*
D03*
Y568020D02*
D03*
Y548020D02*
D03*
Y528020D02*
D03*
Y508020D02*
D03*
X783590Y728020D02*
D03*
Y708020D02*
D03*
Y688020D02*
D03*
Y668020D02*
D03*
Y648020D02*
D03*
Y628020D02*
D03*
Y608020D02*
D03*
Y588020D02*
D03*
Y568020D02*
D03*
Y548020D02*
D03*
Y528020D02*
D03*
Y508020D02*
D03*
D42*
X111760Y184150D02*
D03*
X38100Y217170D02*
D03*
X675640Y450850D02*
D03*
X491490Y568960D02*
D03*
X654344Y622420D02*
D03*
X674370Y598170D02*
D03*
X598170Y584200D02*
D03*
X285750Y199390D02*
D03*
X270510Y175260D02*
D03*
X673100Y501650D02*
D03*
X647700Y438150D02*
D03*
X571500Y655320D02*
D03*
X662940Y692150D02*
D03*
X391160Y372110D02*
D03*
X607060Y675640D02*
D03*
X567690Y741680D02*
D03*
X144780Y229870D02*
D03*
D43*
X823590Y678020D02*
D03*
Y558020D02*
D03*
M02*
