G04*
G04 #@! TF.GenerationSoftware,Altium Limited,Altium Designer,22.10.1 (41)*
G04*
G04 Layer_Physical_Order=2*
G04 Layer_Color=16711680*
%FSLAX44Y44*%
%MOMM*%
G71*
G04*
G04 #@! TF.SameCoordinates,BBA1CDE9-E941-4060-8147-212A69EDE18F*
G04*
G04*
G04 #@! TF.FilePolarity,Positive*
G04*
G01*
G75*
%ADD14C,0.2540*%
%ADD30C,1.2000*%
%ADD31R,1.2000X1.2000*%
%ADD39C,0.4064*%
%ADD42R,1.2430X1.2430*%
%ADD43C,1.2430*%
%ADD44R,1.5000X1.5000*%
%ADD45C,1.5000*%
%ADD46C,1.4000*%
%ADD47C,1.7000*%
%ADD48R,1.7000X1.7000*%
%ADD49C,1.2700*%
%ADD50C,2.5400*%
G36*
X840740Y838568D02*
Y24130D01*
X838200Y21590D01*
X15240D01*
Y831850D01*
X839838Y839462D01*
X840740Y838568D01*
D02*
G37*
%LPC*%
G36*
X280280Y820030D02*
X270510D01*
Y810260D01*
X280280D01*
Y820030D01*
D02*
G37*
G36*
X267970D02*
X258200D01*
Y810260D01*
X267970D01*
Y820030D01*
D02*
G37*
G36*
X124070D02*
X114300D01*
Y810260D01*
X124070D01*
Y820030D01*
D02*
G37*
G36*
X111760D02*
X101990D01*
Y810260D01*
X111760D01*
Y820030D01*
D02*
G37*
G36*
X321493D02*
X318587D01*
X315779Y819278D01*
X313261Y817824D01*
X311206Y815769D01*
X309752Y813251D01*
X309000Y810443D01*
Y807537D01*
X309752Y804729D01*
X311206Y802211D01*
X313261Y800156D01*
X315779Y798702D01*
X318587Y797950D01*
X321493D01*
X324301Y798702D01*
X326819Y800156D01*
X328874Y802211D01*
X330328Y804729D01*
X331080Y807537D01*
Y810443D01*
X330328Y813251D01*
X328874Y815769D01*
X326819Y817824D01*
X324301Y819278D01*
X321493Y820030D01*
D02*
G37*
G36*
X296094D02*
X293187D01*
X290379Y819278D01*
X287861Y817824D01*
X285806Y815769D01*
X284352Y813251D01*
X283600Y810443D01*
Y807537D01*
X284352Y804729D01*
X285806Y802211D01*
X287861Y800156D01*
X290379Y798702D01*
X293187Y797950D01*
X296094D01*
X298901Y798702D01*
X301419Y800156D01*
X303474Y802211D01*
X304928Y804729D01*
X305680Y807537D01*
Y810443D01*
X304928Y813251D01*
X303474Y815769D01*
X301419Y817824D01*
X298901Y819278D01*
X296094Y820030D01*
D02*
G37*
G36*
X280280Y807720D02*
X270510D01*
Y797950D01*
X280280D01*
Y807720D01*
D02*
G37*
G36*
X267970D02*
X258200D01*
Y797950D01*
X267970D01*
Y807720D01*
D02*
G37*
G36*
X165284Y820030D02*
X162377D01*
X159569Y819278D01*
X157051Y817824D01*
X154996Y815769D01*
X153542Y813251D01*
X152790Y810443D01*
Y807537D01*
X153542Y804729D01*
X154996Y802211D01*
X157051Y800156D01*
X159569Y798702D01*
X162377Y797950D01*
X165284D01*
X168091Y798702D01*
X170609Y800156D01*
X172664Y802211D01*
X174118Y804729D01*
X174870Y807537D01*
Y810443D01*
X174118Y813251D01*
X172664Y815769D01*
X170609Y817824D01*
X168091Y819278D01*
X165284Y820030D01*
D02*
G37*
G36*
X139883D02*
X136977D01*
X134169Y819278D01*
X131651Y817824D01*
X129596Y815769D01*
X128142Y813251D01*
X127390Y810443D01*
Y807537D01*
X128142Y804729D01*
X129596Y802211D01*
X131651Y800156D01*
X134169Y798702D01*
X136977Y797950D01*
X139883D01*
X142691Y798702D01*
X145209Y800156D01*
X147264Y802211D01*
X148718Y804729D01*
X149470Y807537D01*
Y810443D01*
X148718Y813251D01*
X147264Y815769D01*
X145209Y817824D01*
X142691Y819278D01*
X139883Y820030D01*
D02*
G37*
G36*
X124070Y807720D02*
X114300D01*
Y797950D01*
X124070D01*
Y807720D01*
D02*
G37*
G36*
X111760D02*
X101990D01*
Y797950D01*
X111760D01*
Y807720D01*
D02*
G37*
G36*
X724743Y736775D02*
X722437D01*
X720211Y736178D01*
X718214Y735026D01*
X716584Y733396D01*
X715432Y731399D01*
X714835Y729173D01*
Y726867D01*
X715281Y725204D01*
X713518Y723442D01*
X712345Y723928D01*
Y736775D01*
X694835D01*
Y721390D01*
X594315D01*
X592828Y721094D01*
X591568Y720252D01*
X328046Y456730D01*
X326290Y457200D01*
X323950D01*
X321689Y456594D01*
X319661Y455424D01*
X318006Y453769D01*
X316836Y451741D01*
X316230Y449480D01*
Y447140D01*
X316836Y444879D01*
X318006Y442851D01*
X319291Y441566D01*
Y440355D01*
X194696Y315760D01*
X192940Y316230D01*
X190600D01*
X188339Y315624D01*
X186311Y314454D01*
X184656Y312799D01*
X183486Y310771D01*
X182880Y308510D01*
Y306170D01*
X183486Y303909D01*
X184656Y301881D01*
X186311Y300226D01*
X188339Y299056D01*
X190600Y298450D01*
X192940D01*
X195201Y299056D01*
X197229Y300226D01*
X198884Y301881D01*
X200054Y303909D01*
X200660Y306170D01*
Y308510D01*
X200190Y310266D01*
X325923Y435999D01*
X326765Y437259D01*
X327061Y438746D01*
Y439626D01*
X328551Y440026D01*
X330579Y441196D01*
X332234Y442851D01*
X333404Y444879D01*
X334010Y447140D01*
Y449480D01*
X333540Y451236D01*
X595628Y713325D01*
X596190Y713239D01*
X596463Y712189D01*
X596469Y711911D01*
X594866Y710309D01*
X593696Y708281D01*
X593090Y706020D01*
Y703680D01*
X593696Y701419D01*
X594866Y699391D01*
X596521Y697736D01*
X598095Y696827D01*
Y668020D01*
X598391Y666533D01*
X599233Y665273D01*
X629120Y635386D01*
X628650Y633630D01*
Y631290D01*
X629256Y629029D01*
X630426Y627001D01*
X632081Y625346D01*
X634109Y624176D01*
X636370Y623570D01*
X638710D01*
X640971Y624176D01*
X642999Y625346D01*
X644654Y627001D01*
X645824Y629029D01*
X646430Y631290D01*
Y633630D01*
X645824Y635891D01*
X644654Y637919D01*
X642999Y639574D01*
X640971Y640744D01*
X638710Y641350D01*
X636370D01*
X634614Y640880D01*
X605865Y669629D01*
Y696827D01*
X607439Y697736D01*
X609094Y699391D01*
X610264Y701419D01*
X610870Y703680D01*
Y706020D01*
X610264Y708281D01*
X609094Y710309D01*
X607439Y711964D01*
X606769Y712350D01*
X607109Y713620D01*
X636221D01*
X636561Y712350D01*
X635891Y711964D01*
X634236Y710309D01*
X633066Y708281D01*
X632460Y706020D01*
Y703680D01*
X633066Y701419D01*
X634236Y699391D01*
X635891Y697736D01*
X636688Y697276D01*
Y684530D01*
X637043Y682746D01*
X638054Y681234D01*
X669528Y649759D01*
X669290Y648870D01*
Y646530D01*
X669896Y644269D01*
X671066Y642241D01*
X672721Y640586D01*
X674749Y639416D01*
X677010Y638810D01*
X679350D01*
X681611Y639416D01*
X683639Y640586D01*
X685294Y642241D01*
X686464Y644269D01*
X687070Y646530D01*
Y648870D01*
X686464Y651131D01*
X685294Y653159D01*
X683639Y654814D01*
X681611Y655984D01*
X679350Y656590D01*
X677010D01*
X676121Y656352D01*
X646012Y686461D01*
Y697276D01*
X646809Y697736D01*
X648464Y699391D01*
X649634Y701419D01*
X650240Y703680D01*
Y706020D01*
X649634Y708281D01*
X648464Y710309D01*
X646809Y711964D01*
X646139Y712350D01*
X646479Y713620D01*
X695247D01*
X695981Y712350D01*
X695432Y711399D01*
X694835Y709173D01*
Y706867D01*
X695432Y704641D01*
X696584Y702644D01*
X698214Y701014D01*
X700211Y699862D01*
X702437Y699265D01*
X704743D01*
X706969Y699862D01*
X708966Y701014D01*
X710596Y702644D01*
X711748Y704641D01*
X712345Y706867D01*
Y709173D01*
X711748Y711399D01*
X711199Y712350D01*
X711933Y713620D01*
X713075D01*
X714562Y713916D01*
X715822Y714758D01*
X720774Y719711D01*
X722437Y719265D01*
X724743D01*
X726969Y719862D01*
X728966Y721014D01*
X730596Y722644D01*
X731748Y724641D01*
X732345Y726867D01*
Y729173D01*
X731748Y731399D01*
X730596Y733396D01*
X728966Y735026D01*
X726969Y736178D01*
X724743Y736775D01*
D02*
G37*
G36*
X784743D02*
X782437D01*
X780211Y736178D01*
X778214Y735026D01*
X776584Y733396D01*
X775432Y731399D01*
X774835Y729173D01*
Y726867D01*
X775432Y724641D01*
X776584Y722644D01*
X778214Y721014D01*
X780211Y719862D01*
X782437Y719265D01*
X784743D01*
X786969Y719862D01*
X788966Y721014D01*
X790596Y722644D01*
X791748Y724641D01*
X792345Y726867D01*
Y729173D01*
X791748Y731399D01*
X790596Y733396D01*
X788966Y735026D01*
X786969Y736178D01*
X784743Y736775D01*
D02*
G37*
G36*
X764743D02*
X762437D01*
X760211Y736178D01*
X758214Y735026D01*
X756584Y733396D01*
X755432Y731399D01*
X754835Y729173D01*
Y726867D01*
X755432Y724641D01*
X756584Y722644D01*
X758214Y721014D01*
X760211Y719862D01*
X762437Y719265D01*
X764743D01*
X766969Y719862D01*
X768966Y721014D01*
X770596Y722644D01*
X771748Y724641D01*
X772345Y726867D01*
Y729173D01*
X771748Y731399D01*
X770596Y733396D01*
X768966Y735026D01*
X766969Y736178D01*
X764743Y736775D01*
D02*
G37*
G36*
X744743D02*
X742437D01*
X740211Y736178D01*
X738214Y735026D01*
X736584Y733396D01*
X735432Y731399D01*
X734835Y729173D01*
Y726867D01*
X735432Y724641D01*
X736584Y722644D01*
X738214Y721014D01*
X740211Y719862D01*
X742437Y719265D01*
X744743D01*
X746969Y719862D01*
X748966Y721014D01*
X750596Y722644D01*
X751748Y724641D01*
X752345Y726867D01*
Y729173D01*
X751748Y731399D01*
X750596Y733396D01*
X748966Y735026D01*
X746969Y736178D01*
X744743Y736775D01*
D02*
G37*
G36*
X501270Y708863D02*
Y701270D01*
X508863D01*
X508284Y703431D01*
X507114Y705459D01*
X505459Y707114D01*
X503431Y708284D01*
X501270Y708863D01*
D02*
G37*
G36*
X498730D02*
X496569Y708284D01*
X494541Y707114D01*
X492886Y705459D01*
X491716Y703431D01*
X491137Y701270D01*
X498730D01*
Y708863D01*
D02*
G37*
G36*
X401270D02*
Y701270D01*
X408863D01*
X408284Y703431D01*
X407114Y705459D01*
X405459Y707114D01*
X403431Y708284D01*
X401270Y708863D01*
D02*
G37*
G36*
X398730D02*
X396569Y708284D01*
X394541Y707114D01*
X392886Y705459D01*
X391716Y703431D01*
X391137Y701270D01*
X398730D01*
Y708863D01*
D02*
G37*
G36*
X301270D02*
Y701270D01*
X308863D01*
X308284Y703431D01*
X307114Y705459D01*
X305459Y707114D01*
X303431Y708284D01*
X301270Y708863D01*
D02*
G37*
G36*
X298730D02*
X296569Y708284D01*
X294541Y707114D01*
X292886Y705459D01*
X291716Y703431D01*
X291137Y701270D01*
X298730D01*
Y708863D01*
D02*
G37*
G36*
X201270D02*
Y701270D01*
X208863D01*
X208284Y703431D01*
X207114Y705459D01*
X205459Y707114D01*
X203431Y708284D01*
X201270Y708863D01*
D02*
G37*
G36*
X198730D02*
X196569Y708284D01*
X194541Y707114D01*
X192886Y705459D01*
X191716Y703431D01*
X191137Y701270D01*
X198730D01*
Y708863D01*
D02*
G37*
G36*
X101270D02*
Y701270D01*
X108863D01*
X108284Y703431D01*
X107114Y705459D01*
X105459Y707114D01*
X103431Y708284D01*
X101270Y708863D01*
D02*
G37*
G36*
X98730D02*
X96569Y708284D01*
X94541Y707114D01*
X92886Y705459D01*
X91716Y703431D01*
X91137Y701270D01*
X98730D01*
Y708863D01*
D02*
G37*
G36*
X784743Y716775D02*
X782437D01*
X780211Y716178D01*
X778214Y715026D01*
X776584Y713396D01*
X775432Y711399D01*
X774835Y709173D01*
Y706867D01*
X775432Y704641D01*
X776584Y702644D01*
X778214Y701014D01*
X780211Y699862D01*
X782437Y699265D01*
X784743D01*
X786969Y699862D01*
X788966Y701014D01*
X790596Y702644D01*
X791748Y704641D01*
X792345Y706867D01*
Y709173D01*
X791748Y711399D01*
X790596Y713396D01*
X788966Y715026D01*
X786969Y716178D01*
X784743Y716775D01*
D02*
G37*
G36*
X764743D02*
X762437D01*
X760211Y716178D01*
X758214Y715026D01*
X756584Y713396D01*
X755432Y711399D01*
X754835Y709173D01*
Y706867D01*
X755432Y704641D01*
X756584Y702644D01*
X758214Y701014D01*
X760211Y699862D01*
X762437Y699265D01*
X764743D01*
X766969Y699862D01*
X768966Y701014D01*
X770596Y702644D01*
X771748Y704641D01*
X772345Y706867D01*
Y709173D01*
X771748Y711399D01*
X770596Y713396D01*
X768966Y715026D01*
X766969Y716178D01*
X764743Y716775D01*
D02*
G37*
G36*
X744743D02*
X742437D01*
X740211Y716178D01*
X738214Y715026D01*
X736584Y713396D01*
X735432Y711399D01*
X734835Y709173D01*
Y706867D01*
X735432Y704641D01*
X736584Y702644D01*
X738214Y701014D01*
X740211Y699862D01*
X742437Y699265D01*
X744743D01*
X746969Y699862D01*
X748966Y701014D01*
X750596Y702644D01*
X751748Y704641D01*
X752345Y706867D01*
Y709173D01*
X751748Y711399D01*
X750596Y713396D01*
X748966Y715026D01*
X746969Y716178D01*
X744743Y716775D01*
D02*
G37*
G36*
X724743D02*
X722437D01*
X720211Y716178D01*
X718214Y715026D01*
X716584Y713396D01*
X715432Y711399D01*
X714835Y709173D01*
Y706867D01*
X715432Y704641D01*
X716584Y702644D01*
X718214Y701014D01*
X720211Y699862D01*
X722437Y699265D01*
X724743D01*
X726969Y699862D01*
X728966Y701014D01*
X730596Y702644D01*
X731748Y704641D01*
X732345Y706867D01*
Y709173D01*
X731748Y711399D01*
X730596Y713396D01*
X728966Y715026D01*
X726969Y716178D01*
X724743Y716775D01*
D02*
G37*
G36*
X508863Y698730D02*
X501270D01*
Y691137D01*
X503431Y691716D01*
X505459Y692886D01*
X507114Y694541D01*
X508284Y696569D01*
X508863Y698730D01*
D02*
G37*
G36*
X498730D02*
X491137D01*
X491716Y696569D01*
X492886Y694541D01*
X494541Y692886D01*
X496569Y691716D01*
X498730Y691137D01*
Y698730D01*
D02*
G37*
G36*
X408863D02*
X401270D01*
Y691137D01*
X403431Y691716D01*
X405459Y692886D01*
X407114Y694541D01*
X408284Y696569D01*
X408863Y698730D01*
D02*
G37*
G36*
X398730D02*
X391137D01*
X391716Y696569D01*
X392886Y694541D01*
X394541Y692886D01*
X396569Y691716D01*
X398730Y691137D01*
Y698730D01*
D02*
G37*
G36*
X308863D02*
X301270D01*
Y691137D01*
X303431Y691716D01*
X305459Y692886D01*
X307114Y694541D01*
X308284Y696569D01*
X308863Y698730D01*
D02*
G37*
G36*
X298730D02*
X291137D01*
X291716Y696569D01*
X292886Y694541D01*
X294541Y692886D01*
X296569Y691716D01*
X298730Y691137D01*
Y698730D01*
D02*
G37*
G36*
X108863D02*
X101270D01*
Y691137D01*
X103431Y691716D01*
X105459Y692886D01*
X107114Y694541D01*
X108284Y696569D01*
X108863Y698730D01*
D02*
G37*
G36*
X98730D02*
X91137D01*
X91716Y696569D01*
X92886Y694541D01*
X94541Y692886D01*
X96569Y691716D01*
X98730Y691137D01*
Y698730D01*
D02*
G37*
G36*
X208863D02*
X201270D01*
Y691137D01*
X203431Y691716D01*
X205459Y692886D01*
X207114Y694541D01*
X208284Y696569D01*
X208863Y698730D01*
D02*
G37*
G36*
X198730D02*
X191137D01*
X191716Y696569D01*
X192886Y694541D01*
X194541Y692886D01*
X196569Y691716D01*
X198730Y691137D01*
Y698730D01*
D02*
G37*
G36*
X784743Y696775D02*
X782437D01*
X780211Y696178D01*
X778214Y695026D01*
X776584Y693396D01*
X775432Y691399D01*
X774835Y689173D01*
Y686867D01*
X775432Y684641D01*
X776584Y682644D01*
X778214Y681014D01*
X780211Y679862D01*
X782437Y679265D01*
X784743D01*
X786969Y679862D01*
X788966Y681014D01*
X790596Y682644D01*
X791748Y684641D01*
X792345Y686867D01*
Y689173D01*
X791748Y691399D01*
X790596Y693396D01*
X788966Y695026D01*
X786969Y696178D01*
X784743Y696775D01*
D02*
G37*
G36*
X764743D02*
X762437D01*
X760211Y696178D01*
X758214Y695026D01*
X756584Y693396D01*
X755432Y691399D01*
X754835Y689173D01*
Y686867D01*
X755432Y684641D01*
X756584Y682644D01*
X758214Y681014D01*
X760211Y679862D01*
X762437Y679265D01*
X764743D01*
X766969Y679862D01*
X768966Y681014D01*
X770596Y682644D01*
X771748Y684641D01*
X772345Y686867D01*
Y689173D01*
X771748Y691399D01*
X770596Y693396D01*
X768966Y695026D01*
X766969Y696178D01*
X764743Y696775D01*
D02*
G37*
G36*
X744743D02*
X742437D01*
X740211Y696178D01*
X738214Y695026D01*
X736584Y693396D01*
X735432Y691399D01*
X734835Y689173D01*
Y686867D01*
X735432Y684641D01*
X736584Y682644D01*
X738214Y681014D01*
X740211Y679862D01*
X742437Y679265D01*
X744743D01*
X746969Y679862D01*
X748966Y681014D01*
X750596Y682644D01*
X751748Y684641D01*
X752345Y686867D01*
Y689173D01*
X751748Y691399D01*
X750596Y693396D01*
X748966Y695026D01*
X746969Y696178D01*
X744743Y696775D01*
D02*
G37*
G36*
X724743D02*
X722437D01*
X720211Y696178D01*
X718214Y695026D01*
X716584Y693396D01*
X715432Y691399D01*
X714835Y689173D01*
Y686867D01*
X715432Y684641D01*
X716584Y682644D01*
X718214Y681014D01*
X720211Y679862D01*
X722437Y679265D01*
X724743D01*
X726969Y679862D01*
X728966Y681014D01*
X730596Y682644D01*
X731748Y684641D01*
X732345Y686867D01*
Y689173D01*
X731748Y691399D01*
X730596Y693396D01*
X728966Y695026D01*
X726969Y696178D01*
X724743Y696775D01*
D02*
G37*
G36*
X704743D02*
X702437D01*
X700211Y696178D01*
X698214Y695026D01*
X696584Y693396D01*
X695432Y691399D01*
X694835Y689173D01*
Y686867D01*
X695432Y684641D01*
X696584Y682644D01*
X698214Y681014D01*
X700211Y679862D01*
X702437Y679265D01*
X704743D01*
X706969Y679862D01*
X708966Y681014D01*
X710596Y682644D01*
X711748Y684641D01*
X712345Y686867D01*
Y689173D01*
X711748Y691399D01*
X710596Y693396D01*
X708966Y695026D01*
X706969Y696178D01*
X704743Y696775D01*
D02*
G37*
G36*
X825091Y693260D02*
X822089D01*
X819145Y692674D01*
X816371Y691525D01*
X813875Y689858D01*
X811752Y687735D01*
X810085Y685239D01*
X808936Y682465D01*
X808350Y679521D01*
Y676519D01*
X808936Y673575D01*
X810085Y670801D01*
X811752Y668305D01*
X813875Y666182D01*
X816371Y664514D01*
X819145Y663366D01*
X822089Y662780D01*
X825091D01*
X828035Y663366D01*
X830809Y664514D01*
X833305Y666182D01*
X835428Y668305D01*
X837095Y670801D01*
X838244Y673575D01*
X838830Y676519D01*
Y679521D01*
X838244Y682465D01*
X837095Y685239D01*
X835428Y687735D01*
X833305Y689858D01*
X830809Y691525D01*
X828035Y692674D01*
X825091Y693260D01*
D02*
G37*
G36*
X784743Y676775D02*
X782437D01*
X780211Y676178D01*
X778214Y675026D01*
X776584Y673396D01*
X775432Y671399D01*
X774835Y669173D01*
Y666867D01*
X775432Y664641D01*
X776584Y662644D01*
X778214Y661014D01*
X780211Y659862D01*
X782437Y659265D01*
X784743D01*
X786969Y659862D01*
X788966Y661014D01*
X790596Y662644D01*
X791748Y664641D01*
X792345Y666867D01*
Y669173D01*
X791748Y671399D01*
X790596Y673396D01*
X788966Y675026D01*
X786969Y676178D01*
X784743Y676775D01*
D02*
G37*
G36*
X764743D02*
X762437D01*
X760211Y676178D01*
X758214Y675026D01*
X756584Y673396D01*
X755432Y671399D01*
X754835Y669173D01*
Y666867D01*
X755432Y664641D01*
X756584Y662644D01*
X758214Y661014D01*
X760211Y659862D01*
X762437Y659265D01*
X764743D01*
X766969Y659862D01*
X768966Y661014D01*
X770596Y662644D01*
X771748Y664641D01*
X772345Y666867D01*
Y669173D01*
X771748Y671399D01*
X770596Y673396D01*
X768966Y675026D01*
X766969Y676178D01*
X764743Y676775D01*
D02*
G37*
G36*
X744743D02*
X742437D01*
X740211Y676178D01*
X738214Y675026D01*
X736584Y673396D01*
X735432Y671399D01*
X734835Y669173D01*
Y666867D01*
X735432Y664641D01*
X736584Y662644D01*
X738214Y661014D01*
X740211Y659862D01*
X742437Y659265D01*
X744743D01*
X746969Y659862D01*
X748966Y661014D01*
X750596Y662644D01*
X751748Y664641D01*
X752345Y666867D01*
Y669173D01*
X751748Y671399D01*
X750596Y673396D01*
X748966Y675026D01*
X746969Y676178D01*
X744743Y676775D01*
D02*
G37*
G36*
X724743D02*
X722437D01*
X720211Y676178D01*
X718214Y675026D01*
X716584Y673396D01*
X715432Y671399D01*
X714835Y669173D01*
Y666867D01*
X715432Y664641D01*
X716584Y662644D01*
X718214Y661014D01*
X720211Y659862D01*
X722437Y659265D01*
X724743D01*
X726969Y659862D01*
X728966Y661014D01*
X730596Y662644D01*
X731748Y664641D01*
X732345Y666867D01*
Y669173D01*
X731748Y671399D01*
X730596Y673396D01*
X728966Y675026D01*
X726969Y676178D01*
X724743Y676775D01*
D02*
G37*
G36*
X704743D02*
X702437D01*
X700211Y676178D01*
X698214Y675026D01*
X696584Y673396D01*
X695432Y671399D01*
X694835Y669173D01*
Y666867D01*
X695432Y664641D01*
X696584Y662644D01*
X698214Y661014D01*
X700211Y659862D01*
X702437Y659265D01*
X704743D01*
X706969Y659862D01*
X708966Y661014D01*
X710596Y662644D01*
X711748Y664641D01*
X712345Y666867D01*
Y669173D01*
X711748Y671399D01*
X710596Y673396D01*
X708966Y675026D01*
X706969Y676178D01*
X704743Y676775D01*
D02*
G37*
G36*
X784743Y656775D02*
X782437D01*
X780211Y656178D01*
X778214Y655026D01*
X776584Y653396D01*
X775432Y651399D01*
X774835Y649173D01*
Y646867D01*
X775432Y644641D01*
X776584Y642644D01*
X778214Y641014D01*
X780211Y639862D01*
X782437Y639265D01*
X784743D01*
X786969Y639862D01*
X788966Y641014D01*
X790596Y642644D01*
X791748Y644641D01*
X792345Y646867D01*
Y649173D01*
X791748Y651399D01*
X790596Y653396D01*
X788966Y655026D01*
X786969Y656178D01*
X784743Y656775D01*
D02*
G37*
G36*
X764743D02*
X762437D01*
X760211Y656178D01*
X758214Y655026D01*
X756584Y653396D01*
X755432Y651399D01*
X754835Y649173D01*
Y646867D01*
X755432Y644641D01*
X756584Y642644D01*
X758214Y641014D01*
X760211Y639862D01*
X762437Y639265D01*
X764743D01*
X766969Y639862D01*
X768966Y641014D01*
X770596Y642644D01*
X771748Y644641D01*
X772345Y646867D01*
Y649173D01*
X771748Y651399D01*
X770596Y653396D01*
X768966Y655026D01*
X766969Y656178D01*
X764743Y656775D01*
D02*
G37*
G36*
X744743D02*
X742437D01*
X740211Y656178D01*
X738214Y655026D01*
X736584Y653396D01*
X735432Y651399D01*
X734835Y649173D01*
Y646867D01*
X735432Y644641D01*
X736584Y642644D01*
X738214Y641014D01*
X740211Y639862D01*
X742437Y639265D01*
X744743D01*
X746969Y639862D01*
X748966Y641014D01*
X750596Y642644D01*
X751748Y644641D01*
X752345Y646867D01*
Y649173D01*
X751748Y651399D01*
X750596Y653396D01*
X748966Y655026D01*
X746969Y656178D01*
X744743Y656775D01*
D02*
G37*
G36*
X724743D02*
X722437D01*
X720211Y656178D01*
X718214Y655026D01*
X716584Y653396D01*
X715432Y651399D01*
X714835Y649173D01*
Y646867D01*
X715432Y644641D01*
X716584Y642644D01*
X718214Y641014D01*
X720211Y639862D01*
X722437Y639265D01*
X724743D01*
X726969Y639862D01*
X728966Y641014D01*
X730596Y642644D01*
X731748Y644641D01*
X732345Y646867D01*
Y649173D01*
X731748Y651399D01*
X730596Y653396D01*
X728966Y655026D01*
X726969Y656178D01*
X724743Y656775D01*
D02*
G37*
G36*
X704743D02*
X702437D01*
X700211Y656178D01*
X698214Y655026D01*
X696584Y653396D01*
X695432Y651399D01*
X694835Y649173D01*
Y646867D01*
X695432Y644641D01*
X696584Y642644D01*
X698214Y641014D01*
X700211Y639862D01*
X702437Y639265D01*
X704743D01*
X706969Y639862D01*
X708966Y641014D01*
X710596Y642644D01*
X711748Y644641D01*
X712345Y646867D01*
Y649173D01*
X711748Y651399D01*
X710596Y653396D01*
X708966Y655026D01*
X706969Y656178D01*
X704743Y656775D01*
D02*
G37*
G36*
X784743Y636775D02*
X782437D01*
X780211Y636178D01*
X778214Y635026D01*
X776584Y633396D01*
X775432Y631399D01*
X774835Y629173D01*
Y626867D01*
X775432Y624641D01*
X776584Y622644D01*
X778214Y621014D01*
X780211Y619862D01*
X782437Y619265D01*
X784743D01*
X786969Y619862D01*
X788966Y621014D01*
X790596Y622644D01*
X791748Y624641D01*
X792345Y626867D01*
Y629173D01*
X791748Y631399D01*
X790596Y633396D01*
X788966Y635026D01*
X786969Y636178D01*
X784743Y636775D01*
D02*
G37*
G36*
X764743D02*
X762437D01*
X760211Y636178D01*
X758214Y635026D01*
X756584Y633396D01*
X755432Y631399D01*
X754835Y629173D01*
Y626867D01*
X755432Y624641D01*
X756584Y622644D01*
X758214Y621014D01*
X760211Y619862D01*
X762437Y619265D01*
X764743D01*
X766969Y619862D01*
X768966Y621014D01*
X770596Y622644D01*
X771748Y624641D01*
X772345Y626867D01*
Y629173D01*
X771748Y631399D01*
X770596Y633396D01*
X768966Y635026D01*
X766969Y636178D01*
X764743Y636775D01*
D02*
G37*
G36*
X744743D02*
X742437D01*
X740211Y636178D01*
X738214Y635026D01*
X736584Y633396D01*
X735432Y631399D01*
X734835Y629173D01*
Y626867D01*
X735432Y624641D01*
X736584Y622644D01*
X738214Y621014D01*
X740211Y619862D01*
X742437Y619265D01*
X744743D01*
X746969Y619862D01*
X748966Y621014D01*
X750596Y622644D01*
X751748Y624641D01*
X752345Y626867D01*
Y629173D01*
X751748Y631399D01*
X750596Y633396D01*
X748966Y635026D01*
X746969Y636178D01*
X744743Y636775D01*
D02*
G37*
G36*
X724743D02*
X722437D01*
X720211Y636178D01*
X718214Y635026D01*
X716584Y633396D01*
X715432Y631399D01*
X714835Y629173D01*
Y626867D01*
X715432Y624641D01*
X716584Y622644D01*
X718214Y621014D01*
X720211Y619862D01*
X722437Y619265D01*
X724743D01*
X726969Y619862D01*
X728966Y621014D01*
X730596Y622644D01*
X731748Y624641D01*
X732345Y626867D01*
Y629173D01*
X731748Y631399D01*
X730596Y633396D01*
X728966Y635026D01*
X726969Y636178D01*
X724743Y636775D01*
D02*
G37*
G36*
X704743D02*
X702437D01*
X700211Y636178D01*
X698214Y635026D01*
X696584Y633396D01*
X695432Y631399D01*
X694835Y629173D01*
Y626867D01*
X695048Y626071D01*
X682504Y613526D01*
X681493Y612014D01*
X681138Y610230D01*
Y404831D01*
X652024Y375716D01*
X651013Y374204D01*
X650658Y372420D01*
Y320745D01*
X649462Y320054D01*
X647686Y318278D01*
X646430Y316102D01*
X645780Y313676D01*
Y311164D01*
X646430Y308738D01*
X647686Y306562D01*
X649462Y304786D01*
X651638Y303530D01*
X651928Y303452D01*
Y173930D01*
X650226Y172228D01*
X649536Y171032D01*
X615950D01*
X614166Y170677D01*
X612654Y169666D01*
X565759Y122772D01*
X476911D01*
X437581Y162102D01*
X438030Y163778D01*
Y166422D01*
X437346Y168975D01*
X436024Y171265D01*
X434155Y173134D01*
X431865Y174456D01*
X429312Y175140D01*
X426668D01*
X424115Y174456D01*
X421825Y173134D01*
X419956Y171265D01*
X418634Y168975D01*
X417950Y166422D01*
Y163778D01*
X418634Y161225D01*
X419956Y158935D01*
X421825Y157066D01*
X424115Y155744D01*
X426668Y155060D01*
X429312D01*
X430988Y155509D01*
X471684Y114814D01*
X473196Y113803D01*
X474980Y113448D01*
X567690D01*
X569474Y113803D01*
X570986Y114814D01*
X617881Y161708D01*
X649536D01*
X650226Y160512D01*
X652002Y158736D01*
X654178Y157480D01*
X656604Y156830D01*
X659116D01*
X661542Y157480D01*
X663718Y158736D01*
X665494Y160512D01*
X666750Y162688D01*
X667400Y165114D01*
Y167626D01*
X666750Y170052D01*
X665494Y172228D01*
X663718Y174004D01*
X661542Y175260D01*
X661252Y175338D01*
Y304860D01*
X662954Y306562D01*
X664210Y308738D01*
X664860Y311164D01*
Y313676D01*
X664210Y316102D01*
X662954Y318278D01*
X661178Y320054D01*
X659982Y320745D01*
Y370489D01*
X689096Y399604D01*
X690107Y401116D01*
X690462Y402900D01*
Y608299D01*
X694516Y612354D01*
X695533Y611574D01*
X695432Y611399D01*
X694835Y609173D01*
Y606867D01*
X695432Y604641D01*
X696584Y602644D01*
X698214Y601014D01*
X700211Y599862D01*
X702437Y599265D01*
X704743D01*
X706969Y599862D01*
X708966Y601014D01*
X710596Y602644D01*
X711748Y604641D01*
X712345Y606867D01*
Y609173D01*
X711748Y611399D01*
X710596Y613396D01*
X708966Y615026D01*
X706969Y616178D01*
X704743Y616775D01*
X702437D01*
X700211Y616178D01*
X700036Y616077D01*
X699256Y617094D01*
X701641Y619478D01*
X702437Y619265D01*
X704743D01*
X706969Y619862D01*
X708966Y621014D01*
X710596Y622644D01*
X711748Y624641D01*
X712345Y626867D01*
Y629173D01*
X711748Y631399D01*
X710596Y633396D01*
X708966Y635026D01*
X706969Y636178D01*
X704743Y636775D01*
D02*
G37*
G36*
X651270Y608863D02*
Y601270D01*
X658863D01*
X658284Y603431D01*
X657114Y605459D01*
X655459Y607114D01*
X653431Y608284D01*
X651270Y608863D01*
D02*
G37*
G36*
X648730D02*
X646569Y608284D01*
X644541Y607114D01*
X642886Y605459D01*
X641716Y603431D01*
X641137Y601270D01*
X648730D01*
Y608863D01*
D02*
G37*
G36*
X551270D02*
Y601270D01*
X558863D01*
X558284Y603431D01*
X557114Y605459D01*
X555459Y607114D01*
X553431Y608284D01*
X551270Y608863D01*
D02*
G37*
G36*
X548730D02*
X546569Y608284D01*
X544541Y607114D01*
X542886Y605459D01*
X541716Y603431D01*
X541137Y601270D01*
X548730D01*
Y608863D01*
D02*
G37*
G36*
X451270D02*
Y601270D01*
X458863D01*
X458284Y603431D01*
X457114Y605459D01*
X455459Y607114D01*
X453431Y608284D01*
X451270Y608863D01*
D02*
G37*
G36*
X448730D02*
X446569Y608284D01*
X444541Y607114D01*
X442886Y605459D01*
X441716Y603431D01*
X441137Y601270D01*
X448730D01*
Y608863D01*
D02*
G37*
G36*
X251270D02*
Y601270D01*
X258863D01*
X258284Y603431D01*
X257114Y605459D01*
X255459Y607114D01*
X253431Y608284D01*
X251270Y608863D01*
D02*
G37*
G36*
X248730D02*
X246569Y608284D01*
X244541Y607114D01*
X242886Y605459D01*
X241716Y603431D01*
X241137Y601270D01*
X248730D01*
Y608863D01*
D02*
G37*
G36*
X151270D02*
Y601270D01*
X158863D01*
X158284Y603431D01*
X157114Y605459D01*
X155459Y607114D01*
X153431Y608284D01*
X151270Y608863D01*
D02*
G37*
G36*
X148730D02*
X146569Y608284D01*
X144541Y607114D01*
X142886Y605459D01*
X141716Y603431D01*
X141137Y601270D01*
X148730D01*
Y608863D01*
D02*
G37*
G36*
X784743Y616775D02*
X782437D01*
X780211Y616178D01*
X778214Y615026D01*
X776584Y613396D01*
X775432Y611399D01*
X774835Y609173D01*
Y606867D01*
X775432Y604641D01*
X776584Y602644D01*
X778214Y601014D01*
X780211Y599862D01*
X782437Y599265D01*
X784743D01*
X786969Y599862D01*
X788966Y601014D01*
X790596Y602644D01*
X791748Y604641D01*
X792345Y606867D01*
Y609173D01*
X791748Y611399D01*
X790596Y613396D01*
X788966Y615026D01*
X786969Y616178D01*
X784743Y616775D01*
D02*
G37*
G36*
X764743D02*
X762437D01*
X760211Y616178D01*
X758214Y615026D01*
X756584Y613396D01*
X755432Y611399D01*
X754835Y609173D01*
Y606867D01*
X755432Y604641D01*
X756584Y602644D01*
X758214Y601014D01*
X760211Y599862D01*
X762437Y599265D01*
X764743D01*
X766969Y599862D01*
X768966Y601014D01*
X770596Y602644D01*
X771748Y604641D01*
X772345Y606867D01*
Y609173D01*
X771748Y611399D01*
X770596Y613396D01*
X768966Y615026D01*
X766969Y616178D01*
X764743Y616775D01*
D02*
G37*
G36*
X744743D02*
X742437D01*
X740211Y616178D01*
X738214Y615026D01*
X736584Y613396D01*
X735432Y611399D01*
X734835Y609173D01*
Y606867D01*
X735432Y604641D01*
X736584Y602644D01*
X738214Y601014D01*
X740211Y599862D01*
X742437Y599265D01*
X744743D01*
X746969Y599862D01*
X748966Y601014D01*
X750596Y602644D01*
X751748Y604641D01*
X752345Y606867D01*
Y609173D01*
X751748Y611399D01*
X750596Y613396D01*
X748966Y615026D01*
X746969Y616178D01*
X744743Y616775D01*
D02*
G37*
G36*
X724743D02*
X722437D01*
X720211Y616178D01*
X718214Y615026D01*
X716584Y613396D01*
X715432Y611399D01*
X714835Y609173D01*
Y606867D01*
X715432Y604641D01*
X716584Y602644D01*
X718214Y601014D01*
X720211Y599862D01*
X722437Y599265D01*
X724743D01*
X726969Y599862D01*
X728966Y601014D01*
X730596Y602644D01*
X731748Y604641D01*
X732345Y606867D01*
Y609173D01*
X731748Y611399D01*
X730596Y613396D01*
X728966Y615026D01*
X726969Y616178D01*
X724743Y616775D01*
D02*
G37*
G36*
X658863Y598730D02*
X651270D01*
Y591137D01*
X653431Y591716D01*
X655459Y592886D01*
X657114Y594541D01*
X658284Y596569D01*
X658863Y598730D01*
D02*
G37*
G36*
X648730D02*
X641137D01*
X641716Y596569D01*
X642886Y594541D01*
X644541Y592886D01*
X646569Y591716D01*
X648730Y591137D01*
Y598730D01*
D02*
G37*
G36*
X558863D02*
X551270D01*
Y591137D01*
X553431Y591716D01*
X555459Y592886D01*
X557114Y594541D01*
X558284Y596569D01*
X558863Y598730D01*
D02*
G37*
G36*
X548730D02*
X541137D01*
X541716Y596569D01*
X542886Y594541D01*
X544541Y592886D01*
X546569Y591716D01*
X548730Y591137D01*
Y598730D01*
D02*
G37*
G36*
X458863D02*
X451270D01*
Y591137D01*
X453431Y591716D01*
X455459Y592886D01*
X457114Y594541D01*
X458284Y596569D01*
X458863Y598730D01*
D02*
G37*
G36*
X448730D02*
X441137D01*
X441716Y596569D01*
X442886Y594541D01*
X444541Y592886D01*
X446569Y591716D01*
X448730Y591137D01*
Y598730D01*
D02*
G37*
G36*
X258863D02*
X251270D01*
Y591137D01*
X253431Y591716D01*
X255459Y592886D01*
X257114Y594541D01*
X258284Y596569D01*
X258863Y598730D01*
D02*
G37*
G36*
X248730D02*
X241137D01*
X241716Y596569D01*
X242886Y594541D01*
X244541Y592886D01*
X246569Y591716D01*
X248730Y591137D01*
Y598730D01*
D02*
G37*
G36*
X158863D02*
X151270D01*
Y591137D01*
X153431Y591716D01*
X155459Y592886D01*
X157114Y594541D01*
X158284Y596569D01*
X158863Y598730D01*
D02*
G37*
G36*
X148730D02*
X141137D01*
X141716Y596569D01*
X142886Y594541D01*
X144541Y592886D01*
X146569Y591716D01*
X148730Y591137D01*
Y598730D01*
D02*
G37*
G36*
X784743Y596775D02*
X782437D01*
X780211Y596178D01*
X778214Y595026D01*
X776584Y593396D01*
X775432Y591399D01*
X774835Y589173D01*
Y586867D01*
X775432Y584641D01*
X776584Y582644D01*
X778214Y581014D01*
X780211Y579862D01*
X782437Y579265D01*
X784743D01*
X786969Y579862D01*
X788966Y581014D01*
X790596Y582644D01*
X791748Y584641D01*
X792345Y586867D01*
Y589173D01*
X791748Y591399D01*
X790596Y593396D01*
X788966Y595026D01*
X786969Y596178D01*
X784743Y596775D01*
D02*
G37*
G36*
X764743D02*
X762437D01*
X760211Y596178D01*
X758214Y595026D01*
X756584Y593396D01*
X755432Y591399D01*
X754835Y589173D01*
Y586867D01*
X755432Y584641D01*
X756584Y582644D01*
X758214Y581014D01*
X760211Y579862D01*
X762437Y579265D01*
X764743D01*
X766969Y579862D01*
X768966Y581014D01*
X770596Y582644D01*
X771748Y584641D01*
X772345Y586867D01*
Y589173D01*
X771748Y591399D01*
X770596Y593396D01*
X768966Y595026D01*
X766969Y596178D01*
X764743Y596775D01*
D02*
G37*
G36*
X744743D02*
X742437D01*
X740211Y596178D01*
X738214Y595026D01*
X736584Y593396D01*
X735432Y591399D01*
X734835Y589173D01*
Y586867D01*
X735432Y584641D01*
X736584Y582644D01*
X738214Y581014D01*
X740211Y579862D01*
X742437Y579265D01*
X744743D01*
X746969Y579862D01*
X748966Y581014D01*
X750596Y582644D01*
X751748Y584641D01*
X752345Y586867D01*
Y589173D01*
X751748Y591399D01*
X750596Y593396D01*
X748966Y595026D01*
X746969Y596178D01*
X744743Y596775D01*
D02*
G37*
G36*
X724743D02*
X722437D01*
X720211Y596178D01*
X718214Y595026D01*
X716584Y593396D01*
X715432Y591399D01*
X714835Y589173D01*
Y586867D01*
X715432Y584641D01*
X716584Y582644D01*
X718214Y581014D01*
X720211Y579862D01*
X722437Y579265D01*
X724743D01*
X726969Y579862D01*
X728966Y581014D01*
X730596Y582644D01*
X731748Y584641D01*
X732345Y586867D01*
Y589173D01*
X731748Y591399D01*
X730596Y593396D01*
X728966Y595026D01*
X726969Y596178D01*
X724743Y596775D01*
D02*
G37*
G36*
X704743D02*
X702437D01*
X700211Y596178D01*
X698214Y595026D01*
X696584Y593396D01*
X695432Y591399D01*
X694835Y589173D01*
Y586867D01*
X695432Y584641D01*
X696584Y582644D01*
X698214Y581014D01*
X700211Y579862D01*
X702437Y579265D01*
X704743D01*
X706969Y579862D01*
X708966Y581014D01*
X710596Y582644D01*
X711748Y584641D01*
X712345Y586867D01*
Y589173D01*
X711748Y591399D01*
X710596Y593396D01*
X708966Y595026D01*
X706969Y596178D01*
X704743Y596775D01*
D02*
G37*
G36*
X784743Y576775D02*
X782437D01*
X780211Y576178D01*
X778214Y575026D01*
X776584Y573396D01*
X775432Y571399D01*
X774835Y569173D01*
Y566867D01*
X775432Y564641D01*
X776584Y562644D01*
X778214Y561014D01*
X780211Y559862D01*
X782437Y559265D01*
X784743D01*
X786969Y559862D01*
X788966Y561014D01*
X790596Y562644D01*
X791748Y564641D01*
X792345Y566867D01*
Y569173D01*
X791748Y571399D01*
X790596Y573396D01*
X788966Y575026D01*
X786969Y576178D01*
X784743Y576775D01*
D02*
G37*
G36*
X764743D02*
X762437D01*
X760211Y576178D01*
X758214Y575026D01*
X756584Y573396D01*
X755432Y571399D01*
X754835Y569173D01*
Y566867D01*
X755432Y564641D01*
X756584Y562644D01*
X758214Y561014D01*
X760211Y559862D01*
X762437Y559265D01*
X764743D01*
X766969Y559862D01*
X768966Y561014D01*
X770596Y562644D01*
X771748Y564641D01*
X772345Y566867D01*
Y569173D01*
X771748Y571399D01*
X770596Y573396D01*
X768966Y575026D01*
X766969Y576178D01*
X764743Y576775D01*
D02*
G37*
G36*
X744743D02*
X742437D01*
X740211Y576178D01*
X738214Y575026D01*
X736584Y573396D01*
X735432Y571399D01*
X734835Y569173D01*
Y566867D01*
X735432Y564641D01*
X736584Y562644D01*
X738214Y561014D01*
X740211Y559862D01*
X742437Y559265D01*
X744743D01*
X746969Y559862D01*
X748966Y561014D01*
X750596Y562644D01*
X751748Y564641D01*
X752345Y566867D01*
Y569173D01*
X751748Y571399D01*
X750596Y573396D01*
X748966Y575026D01*
X746969Y576178D01*
X744743Y576775D01*
D02*
G37*
G36*
X724743D02*
X722437D01*
X720211Y576178D01*
X718214Y575026D01*
X716584Y573396D01*
X715432Y571399D01*
X714835Y569173D01*
Y566867D01*
X715432Y564641D01*
X716584Y562644D01*
X718214Y561014D01*
X720211Y559862D01*
X722437Y559265D01*
X724743D01*
X726969Y559862D01*
X728966Y561014D01*
X730596Y562644D01*
X731748Y564641D01*
X732345Y566867D01*
Y569173D01*
X731748Y571399D01*
X730596Y573396D01*
X728966Y575026D01*
X726969Y576178D01*
X724743Y576775D01*
D02*
G37*
G36*
X704743D02*
X702437D01*
X700211Y576178D01*
X698214Y575026D01*
X696584Y573396D01*
X695432Y571399D01*
X694835Y569173D01*
Y566867D01*
X695432Y564641D01*
X696584Y562644D01*
X698214Y561014D01*
X700211Y559862D01*
X702437Y559265D01*
X704743D01*
X706969Y559862D01*
X708966Y561014D01*
X710596Y562644D01*
X711748Y564641D01*
X712345Y566867D01*
Y569173D01*
X711748Y571399D01*
X710596Y573396D01*
X708966Y575026D01*
X706969Y576178D01*
X704743Y576775D01*
D02*
G37*
G36*
X704860Y556744D02*
Y549290D01*
X712314D01*
X711748Y551399D01*
X710596Y553396D01*
X708966Y555026D01*
X706969Y556178D01*
X704860Y556744D01*
D02*
G37*
G36*
X702320D02*
X700211Y556178D01*
X698214Y555026D01*
X696584Y553396D01*
X695432Y551399D01*
X694866Y549290D01*
X702320D01*
Y556744D01*
D02*
G37*
G36*
X764860Y556744D02*
Y549290D01*
X772314D01*
X771748Y551399D01*
X770596Y553396D01*
X768966Y555026D01*
X766969Y556178D01*
X764860Y556744D01*
D02*
G37*
G36*
X762320Y556744D02*
X760211Y556178D01*
X758214Y555026D01*
X756584Y553396D01*
X755432Y551399D01*
X754866Y549290D01*
X762320D01*
Y556744D01*
D02*
G37*
G36*
X825091Y573260D02*
X822089D01*
X819145Y572674D01*
X816371Y571525D01*
X813875Y569858D01*
X811752Y567735D01*
X810085Y565239D01*
X808936Y562465D01*
X808350Y559521D01*
Y556519D01*
X808936Y553575D01*
X810085Y550801D01*
X811752Y548305D01*
X813875Y546182D01*
X816371Y544515D01*
X819145Y543366D01*
X822089Y542780D01*
X825091D01*
X828035Y543366D01*
X830809Y544515D01*
X833305Y546182D01*
X835428Y548305D01*
X837095Y550801D01*
X838244Y553575D01*
X838830Y556519D01*
Y559521D01*
X838244Y562465D01*
X837095Y565239D01*
X835428Y567735D01*
X833305Y569858D01*
X830809Y571525D01*
X828035Y572674D01*
X825091Y573260D01*
D02*
G37*
G36*
X772314Y546750D02*
X764860D01*
Y539296D01*
X766969Y539862D01*
X768966Y541014D01*
X770596Y542644D01*
X771748Y544641D01*
X772314Y546750D01*
D02*
G37*
G36*
X712314Y546750D02*
X704860D01*
Y539296D01*
X706969Y539862D01*
X708966Y541014D01*
X710596Y542644D01*
X711748Y544641D01*
X712314Y546750D01*
D02*
G37*
G36*
X702320D02*
X694866D01*
X695432Y544641D01*
X696584Y542644D01*
X698214Y541014D01*
X700211Y539862D01*
X702320Y539296D01*
Y546750D01*
D02*
G37*
G36*
X762320Y546750D02*
X754866D01*
X755432Y544641D01*
X756584Y542644D01*
X758214Y541014D01*
X760211Y539862D01*
X762320Y539296D01*
Y546750D01*
D02*
G37*
G36*
X784743Y556775D02*
X782437D01*
X780211Y556178D01*
X778214Y555026D01*
X776584Y553396D01*
X775432Y551399D01*
X774835Y549173D01*
Y546867D01*
X775432Y544641D01*
X776584Y542644D01*
X778214Y541014D01*
X780211Y539862D01*
X782437Y539265D01*
X784743D01*
X786969Y539862D01*
X788966Y541014D01*
X790596Y542644D01*
X791748Y544641D01*
X792345Y546867D01*
Y549173D01*
X791748Y551399D01*
X790596Y553396D01*
X788966Y555026D01*
X786969Y556178D01*
X784743Y556775D01*
D02*
G37*
G36*
X744743D02*
X742437D01*
X740211Y556178D01*
X738214Y555026D01*
X736584Y553396D01*
X735432Y551399D01*
X734835Y549173D01*
Y546867D01*
X735432Y544641D01*
X736584Y542644D01*
X738214Y541014D01*
X740211Y539862D01*
X742437Y539265D01*
X744743D01*
X746969Y539862D01*
X748966Y541014D01*
X750596Y542644D01*
X751748Y544641D01*
X752345Y546867D01*
Y549173D01*
X751748Y551399D01*
X750596Y553396D01*
X748966Y555026D01*
X746969Y556178D01*
X744743Y556775D01*
D02*
G37*
G36*
X724743D02*
X722437D01*
X720211Y556178D01*
X718214Y555026D01*
X716584Y553396D01*
X715432Y551399D01*
X714835Y549173D01*
Y546867D01*
X715432Y544641D01*
X716584Y542644D01*
X718214Y541014D01*
X720211Y539862D01*
X722437Y539265D01*
X724743D01*
X726969Y539862D01*
X728966Y541014D01*
X730596Y542644D01*
X731748Y544641D01*
X732345Y546867D01*
Y549173D01*
X731748Y551399D01*
X730596Y553396D01*
X728966Y555026D01*
X726969Y556178D01*
X724743Y556775D01*
D02*
G37*
G36*
X704860Y536744D02*
Y529290D01*
X712314D01*
X711748Y531399D01*
X710596Y533396D01*
X708966Y535026D01*
X706969Y536178D01*
X704860Y536744D01*
D02*
G37*
G36*
X702320D02*
X700211Y536178D01*
X698214Y535026D01*
X696584Y533396D01*
X695432Y531399D01*
X694866Y529290D01*
X702320D01*
Y536744D01*
D02*
G37*
G36*
Y526750D02*
X694866D01*
X695432Y524641D01*
X696584Y522644D01*
X698214Y521014D01*
X700211Y519862D01*
X702320Y519296D01*
Y526750D01*
D02*
G37*
G36*
X712314D02*
X704860D01*
Y519296D01*
X706969Y519862D01*
X708966Y521014D01*
X710596Y522644D01*
X711748Y524641D01*
X712314Y526750D01*
D02*
G37*
G36*
X784743Y536775D02*
X782437D01*
X780211Y536178D01*
X778214Y535026D01*
X776584Y533396D01*
X775432Y531399D01*
X774835Y529173D01*
Y526867D01*
X775432Y524641D01*
X776584Y522644D01*
X778214Y521014D01*
X780211Y519862D01*
X782437Y519265D01*
X784743D01*
X786969Y519862D01*
X788966Y521014D01*
X790596Y522644D01*
X791748Y524641D01*
X792345Y526867D01*
Y529173D01*
X791748Y531399D01*
X790596Y533396D01*
X788966Y535026D01*
X786969Y536178D01*
X784743Y536775D01*
D02*
G37*
G36*
X764743D02*
X762437D01*
X760211Y536178D01*
X758214Y535026D01*
X756584Y533396D01*
X755432Y531399D01*
X754835Y529173D01*
Y526867D01*
X755432Y524641D01*
X756584Y522644D01*
X758214Y521014D01*
X760211Y519862D01*
X762437Y519265D01*
X764743D01*
X766969Y519862D01*
X768966Y521014D01*
X770596Y522644D01*
X771748Y524641D01*
X772345Y526867D01*
Y529173D01*
X771748Y531399D01*
X770596Y533396D01*
X768966Y535026D01*
X766969Y536178D01*
X764743Y536775D01*
D02*
G37*
G36*
X744743D02*
X742437D01*
X740211Y536178D01*
X738214Y535026D01*
X736584Y533396D01*
X735432Y531399D01*
X734835Y529173D01*
Y526867D01*
X735432Y524641D01*
X736584Y522644D01*
X738214Y521014D01*
X740211Y519862D01*
X742437Y519265D01*
X744743D01*
X746969Y519862D01*
X748966Y521014D01*
X750596Y522644D01*
X751748Y524641D01*
X752345Y526867D01*
Y529173D01*
X751748Y531399D01*
X750596Y533396D01*
X748966Y535026D01*
X746969Y536178D01*
X744743Y536775D01*
D02*
G37*
G36*
X724743D02*
X722437D01*
X720211Y536178D01*
X718214Y535026D01*
X716584Y533396D01*
X715432Y531399D01*
X714835Y529173D01*
Y526867D01*
X715432Y524641D01*
X716584Y522644D01*
X718214Y521014D01*
X720211Y519862D01*
X722437Y519265D01*
X724743D01*
X726969Y519862D01*
X728966Y521014D01*
X730596Y522644D01*
X731748Y524641D01*
X732345Y526867D01*
Y529173D01*
X731748Y531399D01*
X730596Y533396D01*
X728966Y535026D01*
X726969Y536178D01*
X724743Y536775D01*
D02*
G37*
G36*
X704860Y516744D02*
Y509290D01*
X712314D01*
X711748Y511399D01*
X710596Y513396D01*
X708966Y515026D01*
X706969Y516178D01*
X704860Y516744D01*
D02*
G37*
G36*
X702320D02*
X700211Y516178D01*
X698214Y515026D01*
X696584Y513396D01*
X695432Y511399D01*
X694866Y509290D01*
X702320D01*
Y516744D01*
D02*
G37*
G36*
X601270Y508863D02*
Y501270D01*
X608863D01*
X608284Y503431D01*
X607114Y505459D01*
X605459Y507114D01*
X603431Y508284D01*
X601270Y508863D01*
D02*
G37*
G36*
X598730D02*
X596569Y508284D01*
X594541Y507114D01*
X592886Y505459D01*
X591716Y503431D01*
X591137Y501270D01*
X598730D01*
Y508863D01*
D02*
G37*
G36*
X501270D02*
Y501270D01*
X508863D01*
X508284Y503431D01*
X507114Y505459D01*
X505459Y507114D01*
X503431Y508284D01*
X501270Y508863D01*
D02*
G37*
G36*
X498730D02*
X496569Y508284D01*
X494541Y507114D01*
X492886Y505459D01*
X491716Y503431D01*
X491137Y501270D01*
X498730D01*
Y508863D01*
D02*
G37*
G36*
X301270D02*
Y501270D01*
X308863D01*
X308284Y503431D01*
X307114Y505459D01*
X305459Y507114D01*
X303431Y508284D01*
X301270Y508863D01*
D02*
G37*
G36*
X298730D02*
X296569Y508284D01*
X294541Y507114D01*
X292886Y505459D01*
X291716Y503431D01*
X291137Y501270D01*
X298730D01*
Y508863D01*
D02*
G37*
G36*
X101270D02*
Y501270D01*
X108863D01*
X108284Y503431D01*
X107114Y505459D01*
X105459Y507114D01*
X103431Y508284D01*
X101270Y508863D01*
D02*
G37*
G36*
X98730D02*
X96569Y508284D01*
X94541Y507114D01*
X92886Y505459D01*
X91716Y503431D01*
X91137Y501270D01*
X98730D01*
Y508863D01*
D02*
G37*
G36*
X712314Y506750D02*
X704860D01*
Y499296D01*
X706969Y499862D01*
X708966Y501014D01*
X710596Y502644D01*
X711748Y504641D01*
X712314Y506750D01*
D02*
G37*
G36*
X702320D02*
X694866D01*
X695432Y504641D01*
X696584Y502644D01*
X698214Y501014D01*
X700211Y499862D01*
X702320Y499296D01*
Y506750D01*
D02*
G37*
G36*
X784743Y516775D02*
X782437D01*
X780211Y516178D01*
X778214Y515026D01*
X776584Y513396D01*
X775432Y511399D01*
X774835Y509173D01*
Y506867D01*
X775432Y504641D01*
X776584Y502644D01*
X778214Y501014D01*
X780211Y499862D01*
X782437Y499265D01*
X784743D01*
X786969Y499862D01*
X788966Y501014D01*
X790596Y502644D01*
X791748Y504641D01*
X792345Y506867D01*
Y509173D01*
X791748Y511399D01*
X790596Y513396D01*
X788966Y515026D01*
X786969Y516178D01*
X784743Y516775D01*
D02*
G37*
G36*
X764743D02*
X762437D01*
X760211Y516178D01*
X758214Y515026D01*
X756584Y513396D01*
X755432Y511399D01*
X754835Y509173D01*
Y506867D01*
X755432Y504641D01*
X756584Y502644D01*
X758214Y501014D01*
X760211Y499862D01*
X762437Y499265D01*
X764743D01*
X766969Y499862D01*
X768966Y501014D01*
X770596Y502644D01*
X771748Y504641D01*
X772345Y506867D01*
Y509173D01*
X771748Y511399D01*
X770596Y513396D01*
X768966Y515026D01*
X766969Y516178D01*
X764743Y516775D01*
D02*
G37*
G36*
X744743D02*
X742437D01*
X740211Y516178D01*
X738214Y515026D01*
X736584Y513396D01*
X735432Y511399D01*
X734835Y509173D01*
Y506867D01*
X735432Y504641D01*
X736584Y502644D01*
X738214Y501014D01*
X740211Y499862D01*
X742437Y499265D01*
X744743D01*
X746969Y499862D01*
X748966Y501014D01*
X750596Y502644D01*
X751748Y504641D01*
X752345Y506867D01*
Y509173D01*
X751748Y511399D01*
X750596Y513396D01*
X748966Y515026D01*
X746969Y516178D01*
X744743Y516775D01*
D02*
G37*
G36*
X724743D02*
X722437D01*
X720211Y516178D01*
X718214Y515026D01*
X716584Y513396D01*
X715432Y511399D01*
X714835Y509173D01*
Y506867D01*
X715432Y504641D01*
X716584Y502644D01*
X718214Y501014D01*
X720211Y499862D01*
X722437Y499265D01*
X724743D01*
X726969Y499862D01*
X728966Y501014D01*
X730596Y502644D01*
X731748Y504641D01*
X732345Y506867D01*
Y509173D01*
X731748Y511399D01*
X730596Y513396D01*
X728966Y515026D01*
X726969Y516178D01*
X724743Y516775D01*
D02*
G37*
G36*
X608863Y498730D02*
X601270D01*
Y491137D01*
X603431Y491716D01*
X605459Y492886D01*
X607114Y494541D01*
X608284Y496569D01*
X608863Y498730D01*
D02*
G37*
G36*
X598730D02*
X591137D01*
X591716Y496569D01*
X592886Y494541D01*
X594541Y492886D01*
X596569Y491716D01*
X598730Y491137D01*
Y498730D01*
D02*
G37*
G36*
X508863D02*
X501270D01*
Y491137D01*
X503431Y491716D01*
X505459Y492886D01*
X507114Y494541D01*
X508284Y496569D01*
X508863Y498730D01*
D02*
G37*
G36*
X498730D02*
X491137D01*
X491716Y496569D01*
X492886Y494541D01*
X494541Y492886D01*
X496569Y491716D01*
X498730Y491137D01*
Y498730D01*
D02*
G37*
G36*
X308863D02*
X301270D01*
Y491137D01*
X303431Y491716D01*
X305459Y492886D01*
X307114Y494541D01*
X308284Y496569D01*
X308863Y498730D01*
D02*
G37*
G36*
X298730D02*
X291137D01*
X291716Y496569D01*
X292886Y494541D01*
X294541Y492886D01*
X296569Y491716D01*
X298730Y491137D01*
Y498730D01*
D02*
G37*
G36*
X108863D02*
X101270D01*
Y491137D01*
X103431Y491716D01*
X105459Y492886D01*
X107114Y494541D01*
X108284Y496569D01*
X108863Y498730D01*
D02*
G37*
G36*
X98730D02*
X91137D01*
X91716Y496569D01*
X92886Y494541D01*
X94541Y492886D01*
X96569Y491716D01*
X98730Y491137D01*
Y498730D01*
D02*
G37*
G36*
X651270Y408863D02*
Y401270D01*
X658863D01*
X658284Y403431D01*
X657114Y405459D01*
X655459Y407114D01*
X653431Y408284D01*
X651270Y408863D01*
D02*
G37*
G36*
X648730D02*
X646569Y408284D01*
X644541Y407114D01*
X642886Y405459D01*
X641716Y403431D01*
X641137Y401270D01*
X648730D01*
Y408863D01*
D02*
G37*
G36*
X551270D02*
Y401270D01*
X558863D01*
X558284Y403431D01*
X557114Y405459D01*
X555459Y407114D01*
X553431Y408284D01*
X551270Y408863D01*
D02*
G37*
G36*
X548730D02*
X546569Y408284D01*
X544541Y407114D01*
X542886Y405459D01*
X541716Y403431D01*
X541137Y401270D01*
X548730D01*
Y408863D01*
D02*
G37*
G36*
X351270D02*
Y401270D01*
X358863D01*
X358284Y403431D01*
X357114Y405459D01*
X355459Y407114D01*
X353431Y408284D01*
X351270Y408863D01*
D02*
G37*
G36*
X348730D02*
X346569Y408284D01*
X344541Y407114D01*
X342886Y405459D01*
X341716Y403431D01*
X341137Y401270D01*
X348730D01*
Y408863D01*
D02*
G37*
G36*
X251270D02*
Y401270D01*
X258863D01*
X258284Y403431D01*
X257114Y405459D01*
X255459Y407114D01*
X253431Y408284D01*
X251270Y408863D01*
D02*
G37*
G36*
X248730D02*
X246569Y408284D01*
X244541Y407114D01*
X242886Y405459D01*
X241716Y403431D01*
X241137Y401270D01*
X248730D01*
Y408863D01*
D02*
G37*
G36*
X151270D02*
Y401270D01*
X158863D01*
X158284Y403431D01*
X157114Y405459D01*
X155459Y407114D01*
X153431Y408284D01*
X151270Y408863D01*
D02*
G37*
G36*
X148730D02*
X146569Y408284D01*
X144541Y407114D01*
X142886Y405459D01*
X141716Y403431D01*
X141137Y401270D01*
X148730D01*
Y408863D01*
D02*
G37*
G36*
X658863Y398730D02*
X651270D01*
Y391137D01*
X653431Y391716D01*
X655459Y392886D01*
X657114Y394541D01*
X658284Y396569D01*
X658863Y398730D01*
D02*
G37*
G36*
X648730D02*
X641137D01*
X641716Y396569D01*
X642886Y394541D01*
X644541Y392886D01*
X646569Y391716D01*
X648730Y391137D01*
Y398730D01*
D02*
G37*
G36*
X558863D02*
X551270D01*
Y391137D01*
X553431Y391716D01*
X555459Y392886D01*
X557114Y394541D01*
X558284Y396569D01*
X558863Y398730D01*
D02*
G37*
G36*
X548730D02*
X541137D01*
X541716Y396569D01*
X542886Y394541D01*
X544541Y392886D01*
X546569Y391716D01*
X548730Y391137D01*
Y398730D01*
D02*
G37*
G36*
X358863D02*
X351270D01*
Y391137D01*
X353431Y391716D01*
X355459Y392886D01*
X357114Y394541D01*
X358284Y396569D01*
X358863Y398730D01*
D02*
G37*
G36*
X348730D02*
X341137D01*
X341716Y396569D01*
X342886Y394541D01*
X344541Y392886D01*
X346569Y391716D01*
X348730Y391137D01*
Y398730D01*
D02*
G37*
G36*
X258863D02*
X251270D01*
Y391137D01*
X253431Y391716D01*
X255459Y392886D01*
X257114Y394541D01*
X258284Y396569D01*
X258863Y398730D01*
D02*
G37*
G36*
X248730D02*
X241137D01*
X241716Y396569D01*
X242886Y394541D01*
X244541Y392886D01*
X246569Y391716D01*
X248730Y391137D01*
Y398730D01*
D02*
G37*
G36*
X158863D02*
X151270D01*
Y391137D01*
X153431Y391716D01*
X155459Y392886D01*
X157114Y394541D01*
X158284Y396569D01*
X158863Y398730D01*
D02*
G37*
G36*
X148730D02*
X141137D01*
X141716Y396569D01*
X142886Y394541D01*
X144541Y392886D01*
X146569Y391716D01*
X148730Y391137D01*
Y398730D01*
D02*
G37*
G36*
X200660Y396213D02*
Y388620D01*
X208253D01*
X207674Y390781D01*
X206504Y392809D01*
X204849Y394464D01*
X202821Y395634D01*
X200660Y396213D01*
D02*
G37*
G36*
X198120D02*
X195959Y395634D01*
X193931Y394464D01*
X192276Y392809D01*
X191106Y390781D01*
X190527Y388620D01*
X198120D01*
Y396213D01*
D02*
G37*
G36*
X180340D02*
Y388620D01*
X187933D01*
X187354Y390781D01*
X186184Y392809D01*
X184529Y394464D01*
X182501Y395634D01*
X180340Y396213D01*
D02*
G37*
G36*
X177800D02*
X175639Y395634D01*
X173611Y394464D01*
X171956Y392809D01*
X170786Y390781D01*
X170207Y388620D01*
X177800D01*
Y396213D01*
D02*
G37*
G36*
X208253Y386080D02*
X200660D01*
Y378487D01*
X202821Y379066D01*
X204849Y380236D01*
X206504Y381891D01*
X207674Y383919D01*
X208253Y386080D01*
D02*
G37*
G36*
X198120D02*
X190527D01*
X191106Y383919D01*
X192276Y381891D01*
X193931Y380236D01*
X195959Y379066D01*
X198120Y378487D01*
Y386080D01*
D02*
G37*
G36*
X187933D02*
X180340D01*
Y378487D01*
X182501Y379066D01*
X184529Y380236D01*
X186184Y381891D01*
X187354Y383919D01*
X187933Y386080D01*
D02*
G37*
G36*
X177800D02*
X170207D01*
X170786Y383919D01*
X171956Y381891D01*
X173611Y380236D01*
X175639Y379066D01*
X177800Y378487D01*
Y386080D01*
D02*
G37*
G36*
X580376Y321960D02*
X577864D01*
X575438Y321310D01*
X573262Y320054D01*
X571486Y318278D01*
X570230Y316102D01*
X569580Y313676D01*
Y311164D01*
X570230Y308738D01*
X571486Y306562D01*
X573262Y304786D01*
X575438Y303530D01*
X577864Y302880D01*
X580376D01*
X582802Y303530D01*
X584978Y304786D01*
X586754Y306562D01*
X588010Y308738D01*
X588660Y311164D01*
Y313676D01*
X588010Y316102D01*
X586754Y318278D01*
X584978Y320054D01*
X582802Y321310D01*
X580376Y321960D01*
D02*
G37*
G36*
X701270Y308863D02*
Y301270D01*
X708863D01*
X708284Y303431D01*
X707114Y305459D01*
X705459Y307114D01*
X703431Y308284D01*
X701270Y308863D01*
D02*
G37*
G36*
X698730D02*
X696569Y308284D01*
X694541Y307114D01*
X692886Y305459D01*
X691716Y303431D01*
X691137Y301270D01*
X698730D01*
Y308863D01*
D02*
G37*
G36*
X601270D02*
Y301270D01*
X608863D01*
X608284Y303431D01*
X607114Y305459D01*
X605459Y307114D01*
X603431Y308284D01*
X601270Y308863D01*
D02*
G37*
G36*
X598730D02*
X596569Y308284D01*
X594541Y307114D01*
X592886Y305459D01*
X591716Y303431D01*
X591137Y301270D01*
X598730D01*
Y308863D01*
D02*
G37*
G36*
X501270D02*
Y301270D01*
X508863D01*
X508284Y303431D01*
X507114Y305459D01*
X505459Y307114D01*
X503431Y308284D01*
X501270Y308863D01*
D02*
G37*
G36*
X498730D02*
X496569Y308284D01*
X494541Y307114D01*
X492886Y305459D01*
X491716Y303431D01*
X491137Y301270D01*
X498730D01*
Y308863D01*
D02*
G37*
G36*
X401270D02*
Y301270D01*
X408863D01*
X408284Y303431D01*
X407114Y305459D01*
X405459Y307114D01*
X403431Y308284D01*
X401270Y308863D01*
D02*
G37*
G36*
X398730D02*
X396569Y308284D01*
X394541Y307114D01*
X392886Y305459D01*
X391716Y303431D01*
X391137Y301270D01*
X398730D01*
Y308863D01*
D02*
G37*
G36*
X301270D02*
Y301270D01*
X308863D01*
X308284Y303431D01*
X307114Y305459D01*
X305459Y307114D01*
X303431Y308284D01*
X301270Y308863D01*
D02*
G37*
G36*
X298730D02*
X296569Y308284D01*
X294541Y307114D01*
X292886Y305459D01*
X291716Y303431D01*
X291137Y301270D01*
X298730D01*
Y308863D01*
D02*
G37*
G36*
X101270D02*
Y301270D01*
X108863D01*
X108284Y303431D01*
X107114Y305459D01*
X105459Y307114D01*
X103431Y308284D01*
X101270Y308863D01*
D02*
G37*
G36*
X98730D02*
X96569Y308284D01*
X94541Y307114D01*
X92886Y305459D01*
X91716Y303431D01*
X91137Y301270D01*
X98730D01*
Y308863D01*
D02*
G37*
G36*
X708863Y298730D02*
X701270D01*
Y291137D01*
X703431Y291716D01*
X705459Y292886D01*
X707114Y294541D01*
X708284Y296569D01*
X708863Y298730D01*
D02*
G37*
G36*
X698730D02*
X691137D01*
X691716Y296569D01*
X692886Y294541D01*
X694541Y292886D01*
X696569Y291716D01*
X698730Y291137D01*
Y298730D01*
D02*
G37*
G36*
X608863D02*
X601270D01*
Y291137D01*
X603431Y291716D01*
X605459Y292886D01*
X607114Y294541D01*
X608284Y296569D01*
X608863Y298730D01*
D02*
G37*
G36*
X598730D02*
X591137D01*
X591716Y296569D01*
X592886Y294541D01*
X594541Y292886D01*
X596569Y291716D01*
X598730Y291137D01*
Y298730D01*
D02*
G37*
G36*
X508863D02*
X501270D01*
Y291137D01*
X503431Y291716D01*
X505459Y292886D01*
X507114Y294541D01*
X508284Y296569D01*
X508863Y298730D01*
D02*
G37*
G36*
X498730D02*
X491137D01*
X491716Y296569D01*
X492886Y294541D01*
X494541Y292886D01*
X496569Y291716D01*
X498730Y291137D01*
Y298730D01*
D02*
G37*
G36*
X408863D02*
X401270D01*
Y291137D01*
X403431Y291716D01*
X405459Y292886D01*
X407114Y294541D01*
X408284Y296569D01*
X408863Y298730D01*
D02*
G37*
G36*
X398730D02*
X391137D01*
X391716Y296569D01*
X392886Y294541D01*
X394541Y292886D01*
X396569Y291716D01*
X398730Y291137D01*
Y298730D01*
D02*
G37*
G36*
X308863D02*
X301270D01*
Y291137D01*
X303431Y291716D01*
X305459Y292886D01*
X307114Y294541D01*
X308284Y296569D01*
X308863Y298730D01*
D02*
G37*
G36*
X298730D02*
X291137D01*
X291716Y296569D01*
X292886Y294541D01*
X294541Y292886D01*
X296569Y291716D01*
X298730Y291137D01*
Y298730D01*
D02*
G37*
G36*
X108863D02*
X101270D01*
Y291137D01*
X103431Y291716D01*
X105459Y292886D01*
X107114Y294541D01*
X108284Y296569D01*
X108863Y298730D01*
D02*
G37*
G36*
X98730D02*
X91137D01*
X91716Y296569D01*
X92886Y294541D01*
X94541Y292886D01*
X96569Y291716D01*
X98730Y291137D01*
Y298730D01*
D02*
G37*
G36*
X603250Y247261D02*
Y240030D01*
X610481D01*
X609938Y242056D01*
X608814Y244004D01*
X607224Y245594D01*
X605276Y246718D01*
X603250Y247261D01*
D02*
G37*
G36*
X600710D02*
X598684Y246718D01*
X596736Y245594D01*
X595146Y244004D01*
X594022Y242056D01*
X593479Y240030D01*
X600710D01*
Y247261D01*
D02*
G37*
G36*
X610481Y237490D02*
X603250D01*
Y230259D01*
X605276Y230802D01*
X607224Y231926D01*
X608814Y233516D01*
X609938Y235464D01*
X610481Y237490D01*
D02*
G37*
G36*
X600710D02*
X593479D01*
X594022Y235464D01*
X595146Y233516D01*
X596736Y231926D01*
X598684Y230802D01*
X600710Y230259D01*
Y237490D01*
D02*
G37*
G36*
X628504Y247300D02*
X626256D01*
X624084Y246718D01*
X622136Y245594D01*
X620546Y244004D01*
X619422Y242056D01*
X618840Y239884D01*
Y237636D01*
X619422Y235464D01*
X620546Y233516D01*
X622136Y231926D01*
X624084Y230802D01*
X626256Y230220D01*
X628504D01*
X630676Y230802D01*
X632624Y231926D01*
X634214Y233516D01*
X635338Y235464D01*
X635920Y237636D01*
Y239884D01*
X635338Y242056D01*
X634214Y244004D01*
X632624Y245594D01*
X630676Y246718D01*
X628504Y247300D01*
D02*
G37*
G36*
X585120D02*
X568040D01*
Y230220D01*
X585120D01*
Y247300D01*
D02*
G37*
G36*
X429312Y225940D02*
X429260D01*
Y217170D01*
X438030D01*
Y217222D01*
X437346Y219775D01*
X436024Y222065D01*
X434155Y223934D01*
X431865Y225256D01*
X429312Y225940D01*
D02*
G37*
G36*
X505512D02*
X505460D01*
Y217170D01*
X514230D01*
Y217222D01*
X513546Y219775D01*
X512224Y222065D01*
X510355Y223934D01*
X508065Y225256D01*
X505512Y225940D01*
D02*
G37*
G36*
X426720D02*
X426668D01*
X424115Y225256D01*
X421825Y223934D01*
X419956Y222065D01*
X418634Y219775D01*
X417950Y217222D01*
Y217170D01*
X426720D01*
Y225940D01*
D02*
G37*
G36*
X502920D02*
X502868D01*
X500315Y225256D01*
X498025Y223934D01*
X496156Y222065D01*
X494834Y219775D01*
X494150Y217222D01*
Y217170D01*
X502920D01*
Y225940D01*
D02*
G37*
G36*
X514230Y214630D02*
X505460D01*
Y205860D01*
X505512D01*
X508065Y206544D01*
X510355Y207866D01*
X512224Y209735D01*
X513546Y212025D01*
X514230Y214578D01*
Y214630D01*
D02*
G37*
G36*
X502920D02*
X494150D01*
Y214578D01*
X494834Y212025D01*
X496156Y209735D01*
X498025Y207866D01*
X500315Y206544D01*
X502868Y205860D01*
X502920D01*
Y214630D01*
D02*
G37*
G36*
X438030D02*
X429260D01*
Y205860D01*
X429312D01*
X431865Y206544D01*
X434155Y207866D01*
X436024Y209735D01*
X437346Y212025D01*
X438030Y214578D01*
Y214630D01*
D02*
G37*
G36*
X426720D02*
X417950D01*
Y214578D01*
X418634Y212025D01*
X419956Y209735D01*
X421825Y207866D01*
X424115Y206544D01*
X426668Y205860D01*
X426720D01*
Y214630D01*
D02*
G37*
G36*
X751270Y208863D02*
Y201270D01*
X758863D01*
X758284Y203431D01*
X757114Y205459D01*
X755459Y207114D01*
X753431Y208284D01*
X751270Y208863D01*
D02*
G37*
G36*
X748730D02*
X746569Y208284D01*
X744541Y207114D01*
X742886Y205459D01*
X741716Y203431D01*
X741137Y201270D01*
X748730D01*
Y208863D01*
D02*
G37*
G36*
X451270D02*
Y201270D01*
X458863D01*
X458284Y203431D01*
X457114Y205459D01*
X455459Y207114D01*
X453431Y208284D01*
X451270Y208863D01*
D02*
G37*
G36*
X448730D02*
X446569Y208284D01*
X444541Y207114D01*
X442886Y205459D01*
X441716Y203431D01*
X441137Y201270D01*
X448730D01*
Y208863D01*
D02*
G37*
G36*
X351270D02*
Y201270D01*
X358863D01*
X358284Y203431D01*
X357114Y205459D01*
X355459Y207114D01*
X353431Y208284D01*
X351270Y208863D01*
D02*
G37*
G36*
X348730D02*
X346569Y208284D01*
X344541Y207114D01*
X342886Y205459D01*
X341716Y203431D01*
X341137Y201270D01*
X348730D01*
Y208863D01*
D02*
G37*
G36*
X151270D02*
Y201270D01*
X158863D01*
X158284Y203431D01*
X157114Y205459D01*
X155459Y207114D01*
X153431Y208284D01*
X151270Y208863D01*
D02*
G37*
G36*
X148730D02*
X146569Y208284D01*
X144541Y207114D01*
X142886Y205459D01*
X141716Y203431D01*
X141137Y201270D01*
X148730D01*
Y208863D01*
D02*
G37*
G36*
X758863Y198730D02*
X751270D01*
Y191137D01*
X753431Y191716D01*
X755459Y192886D01*
X757114Y194541D01*
X758284Y196569D01*
X758863Y198730D01*
D02*
G37*
G36*
X748730D02*
X741137D01*
X741716Y196569D01*
X742886Y194541D01*
X744541Y192886D01*
X746569Y191716D01*
X748730Y191137D01*
Y198730D01*
D02*
G37*
G36*
X458863D02*
X451270D01*
Y191137D01*
X453431Y191716D01*
X455459Y192886D01*
X457114Y194541D01*
X458284Y196569D01*
X458863Y198730D01*
D02*
G37*
G36*
X448730D02*
X441137D01*
X441716Y196569D01*
X442886Y194541D01*
X444541Y192886D01*
X446569Y191716D01*
X448730Y191137D01*
Y198730D01*
D02*
G37*
G36*
X358863D02*
X351270D01*
Y191137D01*
X353431Y191716D01*
X355459Y192886D01*
X357114Y194541D01*
X358284Y196569D01*
X358863Y198730D01*
D02*
G37*
G36*
X348730D02*
X341137D01*
X341716Y196569D01*
X342886Y194541D01*
X344541Y192886D01*
X346569Y191716D01*
X348730Y191137D01*
Y198730D01*
D02*
G37*
G36*
X158863D02*
X151270D01*
Y191137D01*
X153431Y191716D01*
X155459Y192886D01*
X157114Y194541D01*
X158284Y196569D01*
X158863Y198730D01*
D02*
G37*
G36*
X148730D02*
X141137D01*
X141716Y196569D01*
X142886Y194541D01*
X144541Y192886D01*
X146569Y191716D01*
X148730Y191137D01*
Y198730D01*
D02*
G37*
G36*
X505512Y200540D02*
X502868D01*
X500315Y199856D01*
X498025Y198534D01*
X496156Y196665D01*
X494834Y194375D01*
X494150Y191822D01*
Y189178D01*
X494834Y186625D01*
X496156Y184335D01*
X498025Y182466D01*
X500315Y181144D01*
X502868Y180460D01*
X505512D01*
X508065Y181144D01*
X510355Y182466D01*
X512224Y184335D01*
X513546Y186625D01*
X514230Y189178D01*
Y191822D01*
X513546Y194375D01*
X512224Y196665D01*
X510355Y198534D01*
X508065Y199856D01*
X505512Y200540D01*
D02*
G37*
G36*
X429312D02*
X426668D01*
X424115Y199856D01*
X421825Y198534D01*
X419956Y196665D01*
X418634Y194375D01*
X417950Y191822D01*
Y189178D01*
X418634Y186625D01*
X419956Y184335D01*
X421825Y182466D01*
X424115Y181144D01*
X426668Y180460D01*
X429312D01*
X431865Y181144D01*
X434155Y182466D01*
X436024Y184335D01*
X437346Y186625D01*
X438030Y189178D01*
Y191822D01*
X437346Y194375D01*
X436024Y196665D01*
X434155Y198534D01*
X431865Y199856D01*
X429312Y200540D01*
D02*
G37*
G36*
X582916Y175910D02*
X580404D01*
X577978Y175260D01*
X575802Y174004D01*
X574026Y172228D01*
X572770Y170052D01*
X572120Y167626D01*
Y165114D01*
X572770Y162688D01*
X574026Y160512D01*
X575802Y158736D01*
X577978Y157480D01*
X580404Y156830D01*
X582916D01*
X585342Y157480D01*
X587518Y158736D01*
X589294Y160512D01*
X590550Y162688D01*
X591200Y165114D01*
Y167626D01*
X590550Y170052D01*
X589294Y172228D01*
X587518Y174004D01*
X585342Y175260D01*
X582916Y175910D01*
D02*
G37*
G36*
X505512Y175140D02*
X502868D01*
X500315Y174456D01*
X498025Y173134D01*
X496156Y171265D01*
X494834Y168975D01*
X494150Y166422D01*
Y163778D01*
X494834Y161225D01*
X496156Y158935D01*
X498025Y157066D01*
X500315Y155744D01*
X502868Y155060D01*
X505512D01*
X508065Y155744D01*
X510355Y157066D01*
X512224Y158935D01*
X513546Y161225D01*
X514230Y163778D01*
Y166422D01*
X513546Y168975D01*
X512224Y171265D01*
X510355Y173134D01*
X508065Y174456D01*
X505512Y175140D01*
D02*
G37*
G36*
X514230Y149740D02*
X494150D01*
Y129660D01*
X514230D01*
Y149740D01*
D02*
G37*
G36*
X429312D02*
X426668D01*
X424115Y149056D01*
X421825Y147734D01*
X419956Y145865D01*
X418634Y143575D01*
X417950Y141022D01*
Y138378D01*
X418634Y135825D01*
X419956Y133535D01*
X421825Y131666D01*
X424115Y130344D01*
X426668Y129660D01*
X429312D01*
X431865Y130344D01*
X434155Y131666D01*
X436024Y133535D01*
X437346Y135825D01*
X438030Y138378D01*
Y141022D01*
X437346Y143575D01*
X436024Y145865D01*
X434155Y147734D01*
X431865Y149056D01*
X429312Y149740D01*
D02*
G37*
G36*
X701270Y108863D02*
Y101270D01*
X708863D01*
X708284Y103431D01*
X707114Y105459D01*
X705459Y107114D01*
X703431Y108284D01*
X701270Y108863D01*
D02*
G37*
G36*
X698730D02*
X696569Y108284D01*
X694541Y107114D01*
X692886Y105459D01*
X691716Y103431D01*
X691137Y101270D01*
X698730D01*
Y108863D01*
D02*
G37*
G36*
X601270D02*
Y101270D01*
X608863D01*
X608284Y103431D01*
X607114Y105459D01*
X605459Y107114D01*
X603431Y108284D01*
X601270Y108863D01*
D02*
G37*
G36*
X598730D02*
X596569Y108284D01*
X594541Y107114D01*
X592886Y105459D01*
X591716Y103431D01*
X591137Y101270D01*
X598730D01*
Y108863D01*
D02*
G37*
G36*
X401270D02*
Y101270D01*
X408863D01*
X408284Y103431D01*
X407114Y105459D01*
X405459Y107114D01*
X403431Y108284D01*
X401270Y108863D01*
D02*
G37*
G36*
X398730D02*
X396569Y108284D01*
X394541Y107114D01*
X392886Y105459D01*
X391716Y103431D01*
X391137Y101270D01*
X398730D01*
Y108863D01*
D02*
G37*
G36*
X301270D02*
Y101270D01*
X308863D01*
X308284Y103431D01*
X307114Y105459D01*
X305459Y107114D01*
X303431Y108284D01*
X301270Y108863D01*
D02*
G37*
G36*
X298730D02*
X296569Y108284D01*
X294541Y107114D01*
X292886Y105459D01*
X291716Y103431D01*
X291137Y101270D01*
X298730D01*
Y108863D01*
D02*
G37*
G36*
X201270D02*
Y101270D01*
X208863D01*
X208284Y103431D01*
X207114Y105459D01*
X205459Y107114D01*
X203431Y108284D01*
X201270Y108863D01*
D02*
G37*
G36*
X198730D02*
X196569Y108284D01*
X194541Y107114D01*
X192886Y105459D01*
X191716Y103431D01*
X191137Y101270D01*
X198730D01*
Y108863D01*
D02*
G37*
G36*
X101270D02*
Y101270D01*
X108863D01*
X108284Y103431D01*
X107114Y105459D01*
X105459Y107114D01*
X103431Y108284D01*
X101270Y108863D01*
D02*
G37*
G36*
X98730D02*
X96569Y108284D01*
X94541Y107114D01*
X92886Y105459D01*
X91716Y103431D01*
X91137Y101270D01*
X98730D01*
Y108863D01*
D02*
G37*
G36*
X708863Y98730D02*
X701270D01*
Y91137D01*
X703431Y91716D01*
X705459Y92886D01*
X707114Y94541D01*
X708284Y96569D01*
X708863Y98730D01*
D02*
G37*
G36*
X698730D02*
X691137D01*
X691716Y96569D01*
X692886Y94541D01*
X694541Y92886D01*
X696569Y91716D01*
X698730Y91137D01*
Y98730D01*
D02*
G37*
G36*
X608863D02*
X601270D01*
Y91137D01*
X603431Y91716D01*
X605459Y92886D01*
X607114Y94541D01*
X608284Y96569D01*
X608863Y98730D01*
D02*
G37*
G36*
X598730D02*
X591137D01*
X591716Y96569D01*
X592886Y94541D01*
X594541Y92886D01*
X596569Y91716D01*
X598730Y91137D01*
Y98730D01*
D02*
G37*
G36*
X408863D02*
X401270D01*
Y91137D01*
X403431Y91716D01*
X405459Y92886D01*
X407114Y94541D01*
X408284Y96569D01*
X408863Y98730D01*
D02*
G37*
G36*
X398730D02*
X391137D01*
X391716Y96569D01*
X392886Y94541D01*
X394541Y92886D01*
X396569Y91716D01*
X398730Y91137D01*
Y98730D01*
D02*
G37*
G36*
X308863D02*
X301270D01*
Y91137D01*
X303431Y91716D01*
X305459Y92886D01*
X307114Y94541D01*
X308284Y96569D01*
X308863Y98730D01*
D02*
G37*
G36*
X298730D02*
X291137D01*
X291716Y96569D01*
X292886Y94541D01*
X294541Y92886D01*
X296569Y91716D01*
X298730Y91137D01*
Y98730D01*
D02*
G37*
G36*
X208863D02*
X201270D01*
Y91137D01*
X203431Y91716D01*
X205459Y92886D01*
X207114Y94541D01*
X208284Y96569D01*
X208863Y98730D01*
D02*
G37*
G36*
X198730D02*
X191137D01*
X191716Y96569D01*
X192886Y94541D01*
X194541Y92886D01*
X196569Y91716D01*
X198730Y91137D01*
Y98730D01*
D02*
G37*
G36*
X108863D02*
X101270D01*
Y91137D01*
X103431Y91716D01*
X105459Y92886D01*
X107114Y94541D01*
X108284Y96569D01*
X108863Y98730D01*
D02*
G37*
G36*
X98730D02*
X91137D01*
X91716Y96569D01*
X92886Y94541D01*
X94541Y92886D01*
X96569Y91716D01*
X98730Y91137D01*
Y98730D01*
D02*
G37*
G36*
X498760Y64470D02*
X481680D01*
Y47390D01*
X498760D01*
Y64470D01*
D02*
G37*
G36*
X465944D02*
X463696D01*
X461524Y63888D01*
X459576Y62764D01*
X457986Y61174D01*
X456862Y59226D01*
X456280Y57054D01*
Y54806D01*
X456862Y52634D01*
X457986Y50686D01*
X459576Y49096D01*
X461524Y47972D01*
X463696Y47390D01*
X465944D01*
X468116Y47972D01*
X470064Y49096D01*
X471654Y50686D01*
X472778Y52634D01*
X473360Y54806D01*
Y57054D01*
X472778Y59226D01*
X471654Y61174D01*
X470064Y62764D01*
X468116Y63888D01*
X465944Y64470D01*
D02*
G37*
G36*
X440544D02*
X438296D01*
X436124Y63888D01*
X434176Y62764D01*
X432586Y61174D01*
X431462Y59226D01*
X430880Y57054D01*
Y54806D01*
X431462Y52634D01*
X432586Y50686D01*
X434176Y49096D01*
X436124Y47972D01*
X438296Y47390D01*
X440544D01*
X442716Y47972D01*
X444664Y49096D01*
X446254Y50686D01*
X447378Y52634D01*
X447960Y54806D01*
Y57054D01*
X447378Y59226D01*
X446254Y61174D01*
X444664Y62764D01*
X442716Y63888D01*
X440544Y64470D01*
D02*
G37*
%LPD*%
D14*
X601980Y668020D02*
X637540Y632460D01*
X601980Y668020D02*
Y704850D01*
X594315Y717505D02*
X713075D01*
X723590Y728020D01*
X325120Y448310D02*
X594315Y717505D01*
X323176Y446366D02*
X325120Y448310D01*
X323176Y438746D02*
Y446366D01*
X191770Y307340D02*
X323176Y438746D01*
D30*
X439420Y55930D02*
D03*
X464820D02*
D03*
X627380Y238760D02*
D03*
X601980D02*
D03*
D31*
X490220Y55930D02*
D03*
X576580Y238760D02*
D03*
D39*
X567690Y118110D02*
X615950Y166370D01*
X657860D01*
X474980Y118110D02*
X567690D01*
X656590Y167640D02*
X657860Y166370D01*
X655320Y372420D02*
X685800Y402900D01*
Y610230D02*
X703590Y628020D01*
X685800Y402900D02*
Y610230D01*
X641350Y684530D02*
Y704850D01*
Y684530D02*
X678180Y647700D01*
X427990Y165100D02*
X474980Y118110D01*
X655320Y312420D02*
X656590Y311150D01*
Y167640D02*
Y311150D01*
X655320Y312420D02*
Y372420D01*
D42*
X703590Y728020D02*
D03*
D43*
Y708020D02*
D03*
Y688020D02*
D03*
Y668020D02*
D03*
Y648020D02*
D03*
Y628020D02*
D03*
Y608020D02*
D03*
Y588020D02*
D03*
Y568020D02*
D03*
Y548020D02*
D03*
Y528020D02*
D03*
Y508020D02*
D03*
X723590Y728020D02*
D03*
Y708020D02*
D03*
Y688020D02*
D03*
Y668020D02*
D03*
Y648020D02*
D03*
Y628020D02*
D03*
Y608020D02*
D03*
Y588020D02*
D03*
Y568020D02*
D03*
Y548020D02*
D03*
Y528020D02*
D03*
Y508020D02*
D03*
X743590Y728020D02*
D03*
Y708020D02*
D03*
Y688020D02*
D03*
Y668020D02*
D03*
Y648020D02*
D03*
Y628020D02*
D03*
Y608020D02*
D03*
Y588020D02*
D03*
Y568020D02*
D03*
Y548020D02*
D03*
Y528020D02*
D03*
Y508020D02*
D03*
X763590Y728020D02*
D03*
Y708020D02*
D03*
Y688020D02*
D03*
Y668020D02*
D03*
Y648020D02*
D03*
Y628020D02*
D03*
Y608020D02*
D03*
Y588020D02*
D03*
Y568020D02*
D03*
Y548020D02*
D03*
Y528020D02*
D03*
Y508020D02*
D03*
X783590Y728020D02*
D03*
Y708020D02*
D03*
Y688020D02*
D03*
Y668020D02*
D03*
Y648020D02*
D03*
Y628020D02*
D03*
Y608020D02*
D03*
Y588020D02*
D03*
Y568020D02*
D03*
Y548020D02*
D03*
Y528020D02*
D03*
Y508020D02*
D03*
D44*
X504190Y139700D02*
D03*
D45*
Y165100D02*
D03*
Y190500D02*
D03*
Y215900D02*
D03*
X427990Y139700D02*
D03*
Y165100D02*
D03*
Y190500D02*
D03*
Y215900D02*
D03*
D46*
X655320Y312420D02*
D03*
X579120D02*
D03*
X581660Y166370D02*
D03*
X657860D02*
D03*
D47*
X163830Y808990D02*
D03*
X138430D02*
D03*
X320040D02*
D03*
X294640D02*
D03*
D48*
X113030D02*
D03*
X269240D02*
D03*
D49*
X199390Y387350D02*
D03*
X179070D02*
D03*
X250000Y400000D02*
D03*
X700000Y300000D02*
D03*
X750000Y200000D02*
D03*
X700000Y100000D02*
D03*
X650000Y600000D02*
D03*
X600000Y500000D02*
D03*
X650000Y400000D02*
D03*
X600000Y300000D02*
D03*
Y100000D02*
D03*
X500000Y700000D02*
D03*
X550000Y600000D02*
D03*
X500000Y500000D02*
D03*
X550000Y400000D02*
D03*
X500000Y300000D02*
D03*
X400000Y700000D02*
D03*
X450000Y600000D02*
D03*
X400000Y300000D02*
D03*
X450000Y200000D02*
D03*
X400000Y100000D02*
D03*
X300000Y700000D02*
D03*
Y500000D02*
D03*
X350000Y400000D02*
D03*
X300000Y300000D02*
D03*
X350000Y200000D02*
D03*
X300000Y100000D02*
D03*
X200000Y700000D02*
D03*
X250000Y600000D02*
D03*
X200000Y100000D02*
D03*
X100000Y700000D02*
D03*
X150000Y600000D02*
D03*
X100000Y500000D02*
D03*
X150000Y400000D02*
D03*
X100000Y300000D02*
D03*
X150000Y200000D02*
D03*
X100000Y100000D02*
D03*
X637540Y632460D02*
D03*
X601980Y704850D02*
D03*
X641350D02*
D03*
X678180Y647700D02*
D03*
X325120Y448310D02*
D03*
X191770Y307340D02*
D03*
D50*
X823590Y678020D02*
D03*
Y558020D02*
D03*
M02*
