G04*
G04 #@! TF.GenerationSoftware,Altium Limited,Altium Designer,22.10.1 (41)*
G04*
G04 Layer_Color=8388736*
%FSLAX44Y44*%
%MOMM*%
G71*
G04*
G04 #@! TF.SameCoordinates,F5FADBD9-E43F-4EF7-845D-54409DE5C24F*
G04*
G04*
G04 #@! TF.FilePolarity,Negative*
G04*
G01*
G75*
%ADD17R,0.5750X0.3500*%
%ADD18R,0.3500X0.5750*%
G04:AMPARAMS|DCode=19|XSize=1.8741mm|YSize=0.5421mm|CornerRadius=0.2711mm|HoleSize=0mm|Usage=FLASHONLY|Rotation=0.000|XOffset=0mm|YOffset=0mm|HoleType=Round|Shape=RoundedRectangle|*
%AMROUNDEDRECTD19*
21,1,1.8741,0.0000,0,0,0.0*
21,1,1.3319,0.5421,0,0,0.0*
1,1,0.5421,0.6660,0.0000*
1,1,0.5421,-0.6660,0.0000*
1,1,0.5421,-0.6660,0.0000*
1,1,0.5421,0.6660,0.0000*
%
%ADD19ROUNDEDRECTD19*%
%ADD20R,1.8741X0.5421*%
%ADD22R,0.3500X0.3750*%
%ADD23R,0.3750X0.3500*%
%ADD24R,2.5032X1.2032*%
%ADD25R,1.7032X1.7532*%
%ADD26R,1.7532X1.7032*%
%ADD27C,2.1590*%
%ADD28R,1.9032X1.9032*%
%ADD29C,1.9032*%
%ADD30R,1.4462X1.4462*%
%ADD31C,1.4462*%
%ADD32C,1.4732*%
%ADD33C,2.7432*%
D17*
X174185Y254120D02*
D03*
Y259120D02*
D03*
Y264120D02*
D03*
Y269120D02*
D03*
X150935D02*
D03*
Y264120D02*
D03*
Y259120D02*
D03*
Y254120D02*
D03*
D18*
X167560Y270745D02*
D03*
X162560D02*
D03*
X157560D02*
D03*
Y252495D02*
D03*
X162560D02*
D03*
X167560D02*
D03*
D19*
X446071Y767080D02*
D03*
Y754380D02*
D03*
Y741680D02*
D03*
Y728980D02*
D03*
X399749D02*
D03*
Y741680D02*
D03*
Y754380D02*
D03*
D20*
Y767080D02*
D03*
D22*
X161330Y186695D02*
D03*
X166330D02*
D03*
Y171445D02*
D03*
X161330D02*
D03*
D23*
X171455Y186570D02*
D03*
Y181570D02*
D03*
Y176570D02*
D03*
Y171570D02*
D03*
X156205D02*
D03*
Y176570D02*
D03*
Y181570D02*
D03*
Y186570D02*
D03*
D24*
X358660Y321400D02*
D03*
Y440400D02*
D03*
Y423400D02*
D03*
Y474400D02*
D03*
Y389400D02*
D03*
Y372400D02*
D03*
Y355400D02*
D03*
Y338400D02*
D03*
Y406400D02*
D03*
Y457400D02*
D03*
X200660Y321400D02*
D03*
Y440400D02*
D03*
Y423400D02*
D03*
Y474400D02*
D03*
Y389400D02*
D03*
Y372400D02*
D03*
Y355400D02*
D03*
Y338400D02*
D03*
Y406400D02*
D03*
Y457400D02*
D03*
D25*
X374290Y703580D02*
D03*
X392790D02*
D03*
X73300Y561340D02*
D03*
X91800D02*
D03*
X75840Y617220D02*
D03*
X94340D02*
D03*
X74570Y673100D02*
D03*
X93070D02*
D03*
X73300Y219075D02*
D03*
X91800D02*
D03*
X73300Y287020D02*
D03*
X91800D02*
D03*
X91800Y151130D02*
D03*
X73300D02*
D03*
D26*
X516890Y718460D02*
D03*
Y736960D02*
D03*
X171450Y795380D02*
D03*
Y776880D02*
D03*
X232410Y795380D02*
D03*
Y776880D02*
D03*
X187960Y89810D02*
D03*
Y108310D02*
D03*
X142240Y89810D02*
D03*
Y108310D02*
D03*
D27*
X496570Y241300D02*
D03*
X521970D02*
D03*
X547370D02*
D03*
X572770D02*
D03*
X598170D02*
D03*
X496570Y520700D02*
D03*
X521970D02*
D03*
X547370D02*
D03*
X572770D02*
D03*
X598170D02*
D03*
X212090Y242570D02*
D03*
X237490D02*
D03*
X262890D02*
D03*
X288290D02*
D03*
X313690D02*
D03*
X212090Y521970D02*
D03*
X237490D02*
D03*
X262890D02*
D03*
X288290D02*
D03*
X313690D02*
D03*
D28*
X326390Y742950D02*
D03*
X201930D02*
D03*
D29*
X300990D02*
D03*
X275590D02*
D03*
X151130D02*
D03*
X176530D02*
D03*
D30*
X703590Y728020D02*
D03*
D31*
Y708020D02*
D03*
Y688020D02*
D03*
Y668020D02*
D03*
Y648020D02*
D03*
Y628020D02*
D03*
Y608020D02*
D03*
Y588020D02*
D03*
Y568020D02*
D03*
Y548020D02*
D03*
Y528020D02*
D03*
Y508020D02*
D03*
X723590Y728020D02*
D03*
Y708020D02*
D03*
Y688020D02*
D03*
Y668020D02*
D03*
Y648020D02*
D03*
Y628020D02*
D03*
Y608020D02*
D03*
Y588020D02*
D03*
Y568020D02*
D03*
Y548020D02*
D03*
Y528020D02*
D03*
Y508020D02*
D03*
X743590Y728020D02*
D03*
Y708020D02*
D03*
Y688020D02*
D03*
Y668020D02*
D03*
Y648020D02*
D03*
Y628020D02*
D03*
Y608020D02*
D03*
Y588020D02*
D03*
Y568020D02*
D03*
Y548020D02*
D03*
Y528020D02*
D03*
Y508020D02*
D03*
X763590Y728020D02*
D03*
Y708020D02*
D03*
Y688020D02*
D03*
Y668020D02*
D03*
Y648020D02*
D03*
Y628020D02*
D03*
Y608020D02*
D03*
Y588020D02*
D03*
Y568020D02*
D03*
Y548020D02*
D03*
Y528020D02*
D03*
Y508020D02*
D03*
X783590Y728020D02*
D03*
Y708020D02*
D03*
Y688020D02*
D03*
Y668020D02*
D03*
Y648020D02*
D03*
Y628020D02*
D03*
Y608020D02*
D03*
Y588020D02*
D03*
Y568020D02*
D03*
Y548020D02*
D03*
Y528020D02*
D03*
Y508020D02*
D03*
D32*
X111760Y184150D02*
D03*
X38100Y217170D02*
D03*
X675640Y450850D02*
D03*
X491490Y568960D02*
D03*
X654344Y622420D02*
D03*
X674370Y598170D02*
D03*
X598170Y584200D02*
D03*
X285750Y199390D02*
D03*
X270510Y175260D02*
D03*
X673100Y501650D02*
D03*
X647700Y438150D02*
D03*
X571500Y655320D02*
D03*
X662940Y692150D02*
D03*
X391160Y372110D02*
D03*
X607060Y675640D02*
D03*
X567690Y741680D02*
D03*
X144780Y229870D02*
D03*
D33*
X823590Y678020D02*
D03*
Y558020D02*
D03*
M02*
