G04*
G04 #@! TF.GenerationSoftware,Altium Limited,Altium Designer,22.10.1 (41)*
G04*
G04 Layer_Color=8421504*
%FSLAX44Y44*%
%MOMM*%
G71*
G04*
G04 #@! TF.SameCoordinates,F5FADBD9-E43F-4EF7-845D-54409DE5C24F*
G04*
G04*
G04 #@! TF.FilePolarity,Positive*
G04*
G01*
G75*
%ADD15R,2.3000X1.0000*%
%ADD16R,1.5000X1.5500*%
%ADD17R,0.5750X0.3500*%
%ADD18R,0.3500X0.5750*%
G04:AMPARAMS|DCode=19|XSize=1.8741mm|YSize=0.5421mm|CornerRadius=0.2711mm|HoleSize=0mm|Usage=FLASHONLY|Rotation=0.000|XOffset=0mm|YOffset=0mm|HoleType=Round|Shape=RoundedRectangle|*
%AMROUNDEDRECTD19*
21,1,1.8741,0.0000,0,0,0.0*
21,1,1.3319,0.5421,0,0,0.0*
1,1,0.5421,0.6660,0.0000*
1,1,0.5421,-0.6660,0.0000*
1,1,0.5421,-0.6660,0.0000*
1,1,0.5421,0.6660,0.0000*
%
%ADD19ROUNDEDRECTD19*%
%ADD20R,1.8741X0.5421*%
%ADD21R,1.5500X1.5000*%
%ADD22R,0.3500X0.3750*%
%ADD23R,0.3750X0.3500*%
D15*
X358660Y321400D02*
D03*
Y440400D02*
D03*
Y423400D02*
D03*
Y474400D02*
D03*
Y389400D02*
D03*
Y372400D02*
D03*
Y355400D02*
D03*
Y338400D02*
D03*
Y406400D02*
D03*
Y457400D02*
D03*
X200660Y321400D02*
D03*
Y440400D02*
D03*
Y423400D02*
D03*
Y474400D02*
D03*
Y389400D02*
D03*
Y372400D02*
D03*
Y355400D02*
D03*
Y338400D02*
D03*
Y406400D02*
D03*
Y457400D02*
D03*
D16*
X374290Y703580D02*
D03*
X392790D02*
D03*
X73300Y561340D02*
D03*
X91800D02*
D03*
X75840Y617220D02*
D03*
X94340D02*
D03*
X74570Y673100D02*
D03*
X93070D02*
D03*
X73300Y219075D02*
D03*
X91800D02*
D03*
X73300Y287020D02*
D03*
X91800D02*
D03*
X91800Y151130D02*
D03*
X73300D02*
D03*
D17*
X174185Y254120D02*
D03*
Y259120D02*
D03*
Y264120D02*
D03*
Y269120D02*
D03*
X150935D02*
D03*
Y264120D02*
D03*
Y259120D02*
D03*
Y254120D02*
D03*
D18*
X167560Y270745D02*
D03*
X162560D02*
D03*
X157560D02*
D03*
Y252495D02*
D03*
X162560D02*
D03*
X167560D02*
D03*
D19*
X446071Y767080D02*
D03*
Y754380D02*
D03*
Y741680D02*
D03*
Y728980D02*
D03*
X399749D02*
D03*
Y741680D02*
D03*
Y754380D02*
D03*
D20*
Y767080D02*
D03*
D21*
X516890Y718460D02*
D03*
Y736960D02*
D03*
X171450Y795380D02*
D03*
Y776880D02*
D03*
X232410Y795380D02*
D03*
Y776880D02*
D03*
X187960Y89810D02*
D03*
Y108310D02*
D03*
X142240Y89810D02*
D03*
Y108310D02*
D03*
D22*
X161330Y186695D02*
D03*
X166330D02*
D03*
Y171445D02*
D03*
X161330D02*
D03*
D23*
X171455Y186570D02*
D03*
Y181570D02*
D03*
Y176570D02*
D03*
Y171570D02*
D03*
X156205D02*
D03*
Y176570D02*
D03*
Y181570D02*
D03*
Y186570D02*
D03*
M02*
