G04*
G04 #@! TF.GenerationSoftware,Altium Limited,Altium Designer,22.10.1 (41)*
G04*
G04 Layer_Physical_Order=1*
G04 Layer_Color=255*
%FSLAX44Y44*%
%MOMM*%
G71*
G04*
G04 #@! TF.SameCoordinates,F5FADBD9-E43F-4EF7-845D-54409DE5C24F*
G04*
G04*
G04 #@! TF.FilePolarity,Positive*
G04*
G01*
G75*
%ADD10C,0.2540*%
%ADD15R,2.3000X1.0000*%
%ADD16R,1.5000X1.5500*%
%ADD17R,0.5750X0.3500*%
%ADD18R,0.3500X0.5750*%
G04:AMPARAMS|DCode=19|XSize=1.8741mm|YSize=0.5421mm|CornerRadius=0.2711mm|HoleSize=0mm|Usage=FLASHONLY|Rotation=0.000|XOffset=0mm|YOffset=0mm|HoleType=Round|Shape=RoundedRectangle|*
%AMROUNDEDRECTD19*
21,1,1.8741,0.0000,0,0,0.0*
21,1,1.3319,0.5421,0,0,0.0*
1,1,0.5421,0.6660,0.0000*
1,1,0.5421,-0.6660,0.0000*
1,1,0.5421,-0.6660,0.0000*
1,1,0.5421,0.6660,0.0000*
%
%ADD19ROUNDEDRECTD19*%
%ADD20R,1.8741X0.5421*%
%ADD21R,1.5500X1.5000*%
%ADD22R,0.3500X0.3750*%
%ADD23R,0.3750X0.3500*%
%ADD34C,0.4064*%
%ADD35C,0.2340*%
%ADD36C,0.8128*%
%ADD37C,2.0320*%
%ADD38R,1.7000X1.7000*%
%ADD39C,1.7000*%
%ADD40R,1.2430X1.2430*%
%ADD41C,1.2430*%
%ADD42C,1.2700*%
%ADD43C,2.5400*%
G36*
X677884Y712497D02*
X677026Y712327D01*
X675514Y711316D01*
X664999Y700802D01*
X664110Y701040D01*
X661770D01*
X659509Y700434D01*
X657481Y699264D01*
X655826Y697609D01*
X654656Y695581D01*
X654050Y693320D01*
Y690980D01*
X654656Y688719D01*
X655556Y687160D01*
X654944Y685890D01*
X644103D01*
X640135Y689858D01*
X638623Y690869D01*
X636839Y691224D01*
X602536D01*
X600752Y690869D01*
X599240Y689858D01*
X573397Y664015D01*
X572670Y664210D01*
X572159D01*
X571673Y665383D01*
X620057Y713767D01*
X677759D01*
X677884Y712497D01*
D02*
G37*
G36*
X828040Y836031D02*
Y693968D01*
X826770Y692926D01*
X825091Y693260D01*
X822089D01*
X819145Y692674D01*
X816371Y691525D01*
X813875Y689858D01*
X811752Y687735D01*
X810571Y685967D01*
X809301Y686352D01*
Y740410D01*
X809301Y740410D01*
X809074Y742134D01*
X808409Y743740D01*
X807350Y745120D01*
X807350Y745120D01*
X780680Y771790D01*
X779301Y772849D01*
X777694Y773514D01*
X775970Y773741D01*
X775970Y773741D01*
X445382D01*
X445180Y774230D01*
X444121Y775609D01*
X444121Y775609D01*
X425080Y794650D01*
X423700Y795709D01*
X422094Y796374D01*
X420370Y796601D01*
X420370Y796601D01*
X346710D01*
X344986Y796374D01*
X343380Y795709D01*
X342000Y794650D01*
X342000Y794650D01*
X301743Y754393D01*
X300237D01*
X273040Y781590D01*
X271660Y782649D01*
X270054Y783314D01*
X268330Y783541D01*
X268330Y783541D01*
X242700D01*
Y786920D01*
X222120D01*
Y783541D01*
X181740D01*
Y786920D01*
X161160D01*
Y779919D01*
X160850Y779878D01*
X159243Y779213D01*
X157864Y778154D01*
X157864Y778154D01*
X146420Y766710D01*
X145361Y765331D01*
X144696Y763724D01*
X144469Y762000D01*
X144469Y762000D01*
Y751852D01*
X144351Y751784D01*
X142296Y749729D01*
X140842Y747211D01*
X140090Y744403D01*
Y741497D01*
X140842Y738689D01*
X142296Y736171D01*
X144351Y734116D01*
X146869Y732662D01*
X149677Y731910D01*
X152583D01*
X155391Y732662D01*
X157909Y734116D01*
X159964Y736171D01*
X161418Y738689D01*
X162170Y741497D01*
Y744403D01*
X161418Y747211D01*
X159964Y749729D01*
X157909Y751784D01*
X157791Y751852D01*
Y759241D01*
X165333Y766783D01*
X168014D01*
X168014Y766783D01*
X168447Y766840D01*
X181740D01*
Y770219D01*
X222120D01*
Y766840D01*
X242700D01*
Y770219D01*
X265571D01*
X282772Y753018D01*
X281992Y752001D01*
X279851Y753238D01*
X277043Y753990D01*
X274137D01*
X271329Y753238D01*
X268811Y751784D01*
X266756Y749729D01*
X265302Y747211D01*
X264550Y744403D01*
Y741497D01*
X265302Y738689D01*
X266756Y736171D01*
X268811Y734116D01*
X269717Y733593D01*
Y730732D01*
X269717Y730732D01*
X269944Y729008D01*
X270610Y727401D01*
X271668Y726021D01*
X278500Y719190D01*
X278500Y719190D01*
X279879Y718131D01*
X281486Y717466D01*
X283210Y717239D01*
X350993D01*
X362882Y705350D01*
X362882Y705350D01*
X364250Y704300D01*
Y693290D01*
X384330D01*
Y713870D01*
X382581D01*
Y721751D01*
X387082Y726253D01*
X388710Y726084D01*
X389304Y725194D01*
X391041Y724034D01*
X393090Y723626D01*
X406409D01*
X408458Y724034D01*
X410195Y725194D01*
X411355Y726931D01*
X411763Y728980D01*
X411355Y731029D01*
X410195Y732766D01*
X408458Y733926D01*
X406409Y734333D01*
X402589D01*
X402337Y735603D01*
X403080Y735911D01*
X403621Y736327D01*
X406409D01*
X408458Y736734D01*
X410195Y737895D01*
X411355Y739631D01*
X411763Y741680D01*
X411355Y743729D01*
X410195Y745465D01*
X408458Y746626D01*
X406409Y747033D01*
X403621D01*
X403080Y747449D01*
X402337Y747757D01*
X402589Y749026D01*
X406409D01*
X408458Y749434D01*
X410195Y750594D01*
X411355Y752331D01*
X411763Y754380D01*
X411464Y755880D01*
X412635Y756505D01*
X416249Y752891D01*
Y718820D01*
X416249Y718820D01*
X416476Y717096D01*
X417141Y715490D01*
X418200Y714110D01*
X455030Y677280D01*
X455030Y677280D01*
X456409Y676221D01*
X458016Y675556D01*
X459740Y675329D01*
X459740Y675329D01*
X551180D01*
X551180Y675329D01*
X552904Y675556D01*
X554510Y676221D01*
X555890Y677280D01*
X616169Y737559D01*
X693890D01*
X694835Y736775D01*
X694835Y736289D01*
Y721188D01*
X685135D01*
X684406Y721333D01*
X618490D01*
X617042Y721045D01*
X615815Y720225D01*
X549944Y654354D01*
X549535D01*
X549534Y654354D01*
X548087Y654066D01*
X546860Y653246D01*
X386237Y492623D01*
X385417Y491395D01*
X385129Y489948D01*
Y410861D01*
X373970Y399703D01*
X372700Y400229D01*
Y413940D01*
X344620D01*
Y398860D01*
X370584D01*
X371214Y397590D01*
X370775Y397013D01*
X362490D01*
X362124Y396940D01*
X344620D01*
Y393020D01*
X296124D01*
X294677Y392732D01*
X293450Y391912D01*
X215970Y314432D01*
X214700Y314958D01*
Y328940D01*
X186620D01*
Y313860D01*
X213602D01*
X214128Y312590D01*
X214035Y312497D01*
X213215Y311270D01*
X212927Y309823D01*
Y278024D01*
X207936Y273033D01*
X202787D01*
X201340Y272745D01*
X200113Y271925D01*
X192905Y264717D01*
X192085Y263490D01*
X191797Y262043D01*
Y245407D01*
X172496Y226106D01*
X171323Y226592D01*
Y247080D01*
X171850D01*
Y249830D01*
X179600D01*
Y258410D01*
X168770D01*
Y257910D01*
X156350D01*
Y264830D01*
Y273410D01*
X152744D01*
X152719Y273427D01*
X150935Y273782D01*
X136671D01*
X121502Y288951D01*
Y314299D01*
X131471Y324268D01*
X159009D01*
Y320855D01*
X154462Y316308D01*
X153451Y314795D01*
X153096Y313011D01*
Y297201D01*
X153451Y295417D01*
X154462Y293904D01*
X162898Y285468D01*
Y270745D01*
X163253Y268961D01*
X163270Y268936D01*
Y265330D01*
X168770D01*
Y264830D01*
X179600D01*
Y273410D01*
X172222D01*
Y287399D01*
X171867Y289183D01*
X170856Y290695D01*
X162420Y299132D01*
Y311080D01*
X166967Y315628D01*
X167977Y317140D01*
X168332Y318924D01*
Y326549D01*
X167977Y328333D01*
X167793Y328610D01*
X167857Y328930D01*
Y469739D01*
X186620D01*
Y466860D01*
X214700D01*
Y469739D01*
X266120D01*
X267904Y470093D01*
X269416Y471104D01*
X297936Y499624D01*
X297936Y499624D01*
X308572Y510260D01*
X308788Y510135D01*
X312018Y509270D01*
X315362D01*
X318592Y510135D01*
X321488Y511808D01*
X323853Y514172D01*
X325524Y517068D01*
X326390Y520298D01*
Y523642D01*
X325524Y526872D01*
X323853Y529768D01*
X321488Y532132D01*
X318592Y533805D01*
X315362Y534670D01*
X312018D01*
X308788Y533805D01*
X305892Y532132D01*
X303528Y529768D01*
X301856Y526872D01*
X301625Y526012D01*
X300355D01*
X300124Y526872D01*
X298452Y529768D01*
X296088Y532132D01*
X293192Y533805D01*
X289962Y534670D01*
X286618D01*
X283388Y533805D01*
X280492Y532132D01*
X278127Y529768D01*
X276455Y526872D01*
X276225Y526012D01*
X274955D01*
X274725Y526872D01*
X273053Y529768D01*
X270688Y532132D01*
X267792Y533805D01*
X264562Y534670D01*
X261218D01*
X257988Y533805D01*
X255092Y532132D01*
X252728Y529768D01*
X251056Y526872D01*
X250825Y526012D01*
X249555D01*
X249324Y526872D01*
X247652Y529768D01*
X245288Y532132D01*
X242392Y533805D01*
X239162Y534670D01*
X235818D01*
X232588Y533805D01*
X229692Y532132D01*
X227327Y529768D01*
X225655Y526872D01*
X225425Y526012D01*
X224155D01*
X223925Y526872D01*
X222253Y529768D01*
X219888Y532132D01*
X216992Y533805D01*
X213762Y534670D01*
X213360D01*
Y521970D01*
Y509270D01*
X213762D01*
X216992Y510135D01*
X219888Y511808D01*
X222253Y514172D01*
X223925Y517068D01*
X224155Y517928D01*
X225425D01*
X225655Y517068D01*
X227327Y514172D01*
X229692Y511808D01*
X232588Y510135D01*
X235818Y509270D01*
X239162D01*
X242392Y510135D01*
X245288Y511808D01*
X247652Y514172D01*
X249324Y517068D01*
X249555Y517928D01*
X250825D01*
X251056Y517068D01*
X252728Y514172D01*
X255092Y511808D01*
X257988Y510135D01*
X261218Y509270D01*
X264562D01*
X267792Y510135D01*
X270688Y511808D01*
X273053Y514172D01*
X274725Y517068D01*
X274955Y517928D01*
X276225D01*
X276455Y517068D01*
X278127Y514172D01*
X280492Y511808D01*
X283388Y510135D01*
X283628Y510071D01*
Y509270D01*
X283983Y507486D01*
X284994Y505974D01*
X288048Y502920D01*
X264189Y479062D01*
X214700D01*
Y481940D01*
X186620D01*
Y479062D01*
X147291D01*
X100978Y525374D01*
Y551050D01*
X101840D01*
Y571630D01*
X96462D01*
Y606930D01*
X104380D01*
Y627510D01*
X96462D01*
Y662810D01*
X103110D01*
Y683390D01*
X98677D01*
Y702954D01*
X111151Y715428D01*
X153670D01*
X155454Y715783D01*
X156966Y716794D01*
X172715Y732543D01*
X175077Y731910D01*
X177983D01*
X180791Y732662D01*
X183309Y734116D01*
X185364Y736171D01*
X186818Y738689D01*
X187570Y741497D01*
Y744403D01*
X186818Y747211D01*
X185364Y749729D01*
X183309Y751784D01*
X180791Y753238D01*
X177983Y753990D01*
X175077D01*
X172269Y753238D01*
X169751Y751784D01*
X167696Y749729D01*
X166242Y747211D01*
X165490Y744403D01*
Y741497D01*
X166123Y739135D01*
X151739Y724752D01*
X109220D01*
X107436Y724397D01*
X105924Y723386D01*
X90719Y708182D01*
X89709Y706669D01*
X89354Y704885D01*
Y683390D01*
X83030D01*
Y662810D01*
X87138D01*
Y627510D01*
X84300D01*
Y606930D01*
X87138D01*
Y571630D01*
X81760D01*
Y551050D01*
X91655D01*
Y523443D01*
X92010Y521660D01*
X93020Y520147D01*
X142064Y471104D01*
X143576Y470093D01*
X145360Y469739D01*
X158533D01*
Y333592D01*
X129540D01*
X127756Y333237D01*
X126244Y332226D01*
X113544Y319526D01*
X112533Y318014D01*
X112178Y316230D01*
Y291681D01*
X101840D01*
Y297310D01*
X81760D01*
Y276730D01*
X87138D01*
Y229365D01*
X81760D01*
Y208785D01*
X83862D01*
X84083Y207515D01*
X50044Y173476D01*
X49033Y171964D01*
X48678Y170180D01*
Y130810D01*
X49033Y129026D01*
X50044Y127514D01*
X72544Y105014D01*
X74056Y104003D01*
X75840Y103648D01*
X131950D01*
Y98270D01*
X152530D01*
Y103648D01*
X177670D01*
Y98270D01*
X198250D01*
Y118350D01*
X177670D01*
Y112972D01*
X152530D01*
Y118350D01*
X149442D01*
Y135229D01*
X167126Y152914D01*
X168137Y154426D01*
X168322Y155358D01*
X292100D01*
X293884Y155713D01*
X295396Y156724D01*
X363976Y225304D01*
X364987Y226816D01*
X365342Y228600D01*
Y278290D01*
X545360Y458308D01*
X668730D01*
X669256Y457038D01*
X668526Y456309D01*
X667356Y454281D01*
X666750Y452020D01*
Y449680D01*
X667235Y447868D01*
X657763Y438395D01*
X656590Y438881D01*
Y439320D01*
X655984Y441581D01*
X654814Y443609D01*
X653159Y445264D01*
X651131Y446434D01*
X648870Y447040D01*
X646530D01*
X644269Y446434D01*
X642241Y445264D01*
X640586Y443609D01*
X639416Y441581D01*
X638810Y439320D01*
Y438392D01*
X518674Y318256D01*
X517663Y316744D01*
X517308Y314960D01*
Y253199D01*
X517068Y253134D01*
X514172Y251462D01*
X511808Y249098D01*
X510135Y246202D01*
X509905Y245342D01*
X508635D01*
X508405Y246202D01*
X506732Y249098D01*
X504368Y251462D01*
X501472Y253134D01*
X498242Y254000D01*
X497840D01*
Y241300D01*
Y228600D01*
X498242D01*
X501472Y229466D01*
X504368Y231138D01*
X506732Y233502D01*
X508405Y236398D01*
X508635Y237258D01*
X509905D01*
X510135Y236398D01*
X511808Y233502D01*
X514172Y231138D01*
X517068Y229466D01*
X520298Y228600D01*
X523642D01*
X526872Y229466D01*
X529768Y231138D01*
X532132Y233502D01*
X533805Y236398D01*
X534035Y237258D01*
X535305D01*
X535536Y236398D01*
X537207Y233502D01*
X539572Y231138D01*
X542468Y229466D01*
X545698Y228600D01*
X549042D01*
X552272Y229466D01*
X555168Y231138D01*
X557533Y233502D01*
X559204Y236398D01*
X559435Y237258D01*
X560705D01*
X560936Y236398D01*
X562607Y233502D01*
X564972Y231138D01*
X567868Y229466D01*
X571098Y228600D01*
X571500D01*
Y241300D01*
Y254000D01*
X571098D01*
X567868Y253134D01*
X564972Y251462D01*
X562607Y249098D01*
X560936Y246202D01*
X560705Y245342D01*
X559435D01*
X559204Y246202D01*
X557533Y249098D01*
X555168Y251462D01*
X552272Y253134D01*
X552032Y253199D01*
Y319479D01*
X674513Y441960D01*
X676810D01*
X679071Y442566D01*
X681099Y443736D01*
X682754Y445391D01*
X683924Y447419D01*
X684530Y449680D01*
Y452020D01*
X683924Y454281D01*
X682754Y456309D01*
X682024Y457038D01*
X682550Y458308D01*
X761420D01*
X763204Y458663D01*
X764716Y459674D01*
X796805Y491763D01*
X797978Y491277D01*
Y417221D01*
X626719Y245962D01*
X610069D01*
X610005Y246202D01*
X608332Y249098D01*
X605968Y251462D01*
X603072Y253134D01*
X599842Y254000D01*
X596498D01*
X593268Y253134D01*
X590372Y251462D01*
X588008Y249098D01*
X586335Y246202D01*
X586105Y245342D01*
X584835D01*
X584604Y246202D01*
X582933Y249098D01*
X580568Y251462D01*
X577672Y253134D01*
X574442Y254000D01*
X574040D01*
Y241300D01*
Y228600D01*
X574442D01*
X577672Y229466D01*
X580568Y231138D01*
X582933Y233502D01*
X584604Y236398D01*
X584835Y237258D01*
X586105D01*
X586335Y236398D01*
X588008Y233502D01*
X590372Y231138D01*
X593268Y229466D01*
X596498Y228600D01*
X599842D01*
X603072Y229466D01*
X605968Y231138D01*
X608332Y233502D01*
X610005Y236398D01*
X610069Y236638D01*
X628650D01*
X630434Y236993D01*
X631946Y238004D01*
X805936Y411994D01*
X806947Y413506D01*
X807302Y415290D01*
Y555280D01*
X808572Y555405D01*
X808936Y553575D01*
X810085Y550801D01*
X811752Y548305D01*
X813875Y546182D01*
X816371Y544515D01*
X819145Y543366D01*
X822089Y542780D01*
X825091D01*
X826770Y543114D01*
X828040Y542072D01*
Y27059D01*
X826867Y26573D01*
X825500Y27940D01*
X16510D01*
Y831850D01*
X19050Y834390D01*
X827141Y836927D01*
X828040Y836031D01*
D02*
G37*
G36*
X433083Y767807D02*
X433642Y766456D01*
X434370Y765508D01*
X434465Y765031D01*
X435625Y763295D01*
X437362Y762134D01*
X437839Y762039D01*
X438787Y761311D01*
X439315Y761093D01*
X439390Y759830D01*
X439321Y759716D01*
X437362Y759326D01*
X435625Y758166D01*
X434465Y756429D01*
X434058Y754380D01*
X434465Y752331D01*
X435625Y750594D01*
X437362Y749434D01*
X439411Y749026D01*
X452730D01*
X454779Y749434D01*
X456367Y750495D01*
X553381D01*
X559270Y744606D01*
X558800Y742850D01*
Y740510D01*
X559406Y738249D01*
X560576Y736221D01*
X562231Y734566D01*
X564259Y733396D01*
X566520Y732790D01*
X568860D01*
X571121Y733396D01*
X573149Y734566D01*
X574804Y736221D01*
X575974Y738249D01*
X576580Y740510D01*
Y742850D01*
X575974Y745111D01*
X574804Y747139D01*
X573149Y748794D01*
X571121Y749964D01*
X568860Y750570D01*
X566520D01*
X564764Y750100D01*
X557737Y757127D01*
X556477Y757969D01*
X554990Y758265D01*
X456367D01*
X455044Y759149D01*
X455299Y760419D01*
X773211D01*
X795979Y737651D01*
Y686019D01*
X786314Y676354D01*
X784743Y676775D01*
X782437D01*
X780211Y676178D01*
X778214Y675026D01*
X776584Y673396D01*
X775432Y671399D01*
X774835Y669173D01*
Y666867D01*
X775432Y664641D01*
X776584Y662644D01*
X776929Y662300D01*
Y653740D01*
X776584Y653396D01*
X775432Y651399D01*
X774835Y649173D01*
Y646867D01*
X775432Y644641D01*
X776584Y642644D01*
X776929Y642300D01*
Y633740D01*
X776584Y633396D01*
X775432Y631399D01*
X774835Y629173D01*
Y626867D01*
X775432Y624641D01*
X775976Y623699D01*
X775242Y622429D01*
X771938D01*
X771204Y623699D01*
X771748Y624641D01*
X772345Y626867D01*
Y629173D01*
X771748Y631399D01*
X770596Y633396D01*
X768966Y635026D01*
X766969Y636178D01*
X764743Y636775D01*
X762437D01*
X760211Y636178D01*
X759269Y635634D01*
X757999Y636368D01*
Y638273D01*
X757684Y639854D01*
X758142Y640373D01*
X758706Y640730D01*
X760211Y639862D01*
X762437Y639265D01*
X764743D01*
X766969Y639862D01*
X768966Y641014D01*
X770596Y642644D01*
X771748Y644641D01*
X772345Y646867D01*
Y649173D01*
X771748Y651399D01*
X770596Y653396D01*
X768966Y655026D01*
X766969Y656178D01*
X764743Y656775D01*
X762437D01*
X760211Y656178D01*
X758214Y655026D01*
X756584Y653396D01*
X755432Y651399D01*
X754835Y649173D01*
Y646867D01*
X755432Y644641D01*
X755533Y644466D01*
X754516Y643686D01*
X752132Y646071D01*
X752345Y646867D01*
Y649173D01*
X751748Y651399D01*
X750596Y653396D01*
X748966Y655026D01*
X746969Y656178D01*
X744743Y656775D01*
X742437D01*
X740211Y656178D01*
X740036Y656077D01*
X739256Y657094D01*
X741641Y659478D01*
X742437Y659265D01*
X744743D01*
X746969Y659862D01*
X748966Y661014D01*
X750596Y662644D01*
X751748Y664641D01*
X752345Y666867D01*
Y669173D01*
X751748Y671399D01*
X750596Y673396D01*
X748966Y675026D01*
X746969Y676178D01*
X744743Y676775D01*
X742437D01*
X740211Y676178D01*
X738214Y675026D01*
X736584Y673396D01*
X735432Y671399D01*
X734835Y669173D01*
Y666867D01*
X735048Y666071D01*
X732664Y663686D01*
X731647Y664466D01*
X731748Y664641D01*
X732345Y666867D01*
Y669173D01*
X731748Y671399D01*
X730596Y673396D01*
X728966Y675026D01*
X726969Y676178D01*
X724743Y676775D01*
X722437D01*
X720211Y676178D01*
X720036Y676077D01*
X719256Y677094D01*
X721641Y679478D01*
X722437Y679265D01*
X724743D01*
X726969Y679862D01*
X728966Y681014D01*
X730596Y682644D01*
X731748Y684641D01*
X732345Y686867D01*
Y689173D01*
X731748Y691399D01*
X730596Y693396D01*
X728966Y695026D01*
X726969Y696178D01*
X724743Y696775D01*
X722437D01*
X720211Y696178D01*
X718214Y695026D01*
X716584Y693396D01*
X715432Y691399D01*
X714835Y689173D01*
Y686867D01*
X715049Y686071D01*
X712664Y683686D01*
X711647Y684466D01*
X711748Y684641D01*
X712345Y686867D01*
Y689173D01*
X711748Y691399D01*
X710596Y693396D01*
X708966Y695026D01*
X706969Y696178D01*
X704743Y696775D01*
X702437D01*
X700211Y696178D01*
X698214Y695026D01*
X696584Y693396D01*
X696172Y692682D01*
X683267D01*
X681483Y692327D01*
X679971Y691316D01*
X674544Y685890D01*
X670936D01*
X670324Y687160D01*
X671224Y688719D01*
X671830Y690980D01*
Y693320D01*
X671592Y694209D01*
X680741Y703358D01*
X696172D01*
X696584Y702644D01*
X698214Y701014D01*
X700211Y699862D01*
X702437Y699265D01*
X704743D01*
X706969Y699862D01*
X708966Y701014D01*
X710596Y702644D01*
X711748Y704641D01*
X712345Y706867D01*
Y709173D01*
X711748Y711399D01*
X711198Y712352D01*
X711931Y713622D01*
X715249D01*
X715982Y712352D01*
X715432Y711399D01*
X714835Y709173D01*
Y706867D01*
X715432Y704641D01*
X716584Y702644D01*
X718214Y701014D01*
X720211Y699862D01*
X722437Y699265D01*
X724743D01*
X726969Y699862D01*
X728966Y701014D01*
X730596Y702644D01*
X731748Y704641D01*
X732345Y706867D01*
Y709173D01*
X731748Y711399D01*
X731198Y712352D01*
X731931Y713622D01*
X735249D01*
X735982Y712352D01*
X735432Y711399D01*
X734835Y709173D01*
Y706867D01*
X735432Y704641D01*
X736584Y702644D01*
X738214Y701014D01*
X740211Y699862D01*
X742437Y699265D01*
X744743D01*
X746969Y699862D01*
X748966Y701014D01*
X750596Y702644D01*
X751748Y704641D01*
X752345Y706867D01*
Y709173D01*
X751748Y711399D01*
X751198Y712352D01*
X751931Y713622D01*
X752975D01*
X754423Y713910D01*
X755650Y714730D01*
X760661Y719741D01*
X762437Y719265D01*
X764743D01*
X766969Y719862D01*
X768966Y721014D01*
X770596Y722644D01*
X771748Y724641D01*
X772345Y726867D01*
Y729173D01*
X771748Y731399D01*
X770596Y733396D01*
X768966Y735026D01*
X766969Y736178D01*
X766556Y736289D01*
X766724Y737559D01*
X769401D01*
X775479Y731481D01*
X775432Y731399D01*
X774835Y729173D01*
Y726867D01*
X775432Y724641D01*
X776584Y722644D01*
X776929Y722300D01*
Y713740D01*
X776584Y713396D01*
X775432Y711399D01*
X774835Y709173D01*
Y706867D01*
X775432Y704641D01*
X776584Y702644D01*
X776929Y702300D01*
Y693740D01*
X776584Y693396D01*
X775432Y691399D01*
X774835Y689173D01*
Y686867D01*
X775432Y684641D01*
X776584Y682644D01*
X778214Y681014D01*
X780211Y679862D01*
X782437Y679265D01*
X784743D01*
X786969Y679862D01*
X788966Y681014D01*
X790596Y682644D01*
X791748Y684641D01*
X792345Y686867D01*
Y689173D01*
X791748Y691399D01*
X790596Y693396D01*
X790251Y693740D01*
Y702300D01*
X790596Y702644D01*
X791748Y704641D01*
X792345Y706867D01*
Y709173D01*
X791748Y711399D01*
X790596Y713396D01*
X790251Y713740D01*
Y722300D01*
X790596Y722644D01*
X791748Y724641D01*
X792345Y726867D01*
Y729173D01*
X791748Y731399D01*
X790596Y733396D01*
X789284Y734708D01*
X789201Y735337D01*
X788536Y736944D01*
X787477Y738323D01*
X787477Y738323D01*
X776870Y748930D01*
X775490Y749989D01*
X773884Y750654D01*
X772160Y750881D01*
X772160Y750881D01*
X613410D01*
X613410Y750881D01*
X611686Y750654D01*
X610079Y749989D01*
X608700Y748930D01*
X608700Y748930D01*
X548421Y688651D01*
X462499D01*
X429571Y721579D01*
Y755650D01*
X429571Y755650D01*
X429344Y757374D01*
X428679Y758980D01*
X427620Y760360D01*
X427620Y760360D01*
X416190Y771790D01*
X414810Y772849D01*
X413204Y773514D01*
X411480Y773741D01*
X411480Y773741D01*
X399749D01*
X398025Y773514D01*
X396419Y772849D01*
X395744Y772331D01*
X387839D01*
Y761829D01*
X395744D01*
X396419Y761311D01*
X397162Y761003D01*
X396909Y759734D01*
X393090D01*
X391041Y759326D01*
X389304Y758166D01*
X388144Y756429D01*
X387736Y754380D01*
X388144Y752331D01*
X389304Y750594D01*
X391041Y749434D01*
X391199Y749403D01*
X391346Y748200D01*
X391301Y748087D01*
X389759Y747449D01*
X388380Y746390D01*
X388380Y746390D01*
X371210Y729220D01*
X370151Y727841D01*
X369486Y726234D01*
X369259Y724510D01*
X369259Y724510D01*
Y719473D01*
X368086Y718987D01*
X358462Y728610D01*
X357083Y729669D01*
X355476Y730334D01*
X353752Y730561D01*
X353752Y730561D01*
X285969D01*
X283039Y733491D01*
Y734787D01*
X284424Y736171D01*
X285878Y738689D01*
X286630Y741497D01*
Y744403D01*
X285878Y747211D01*
X284641Y749352D01*
X285658Y750132D01*
X290254Y745536D01*
X289950Y744403D01*
Y741497D01*
X290702Y738689D01*
X292156Y736171D01*
X294211Y734116D01*
X296729Y732662D01*
X299536Y731910D01*
X302443D01*
X305251Y732662D01*
X307769Y734116D01*
X309824Y736171D01*
X311278Y738689D01*
X312030Y741497D01*
Y744403D01*
X311726Y745536D01*
X314177Y747987D01*
X315350Y747501D01*
Y744220D01*
X325120D01*
Y753990D01*
X321839D01*
X321353Y755163D01*
X349469Y783279D01*
X417611D01*
X433083Y767807D01*
D02*
G37*
G36*
X696512Y682769D02*
X696584Y682644D01*
X696744Y682485D01*
X696841Y682365D01*
X696762Y681569D01*
X652700Y637507D01*
X651690Y635995D01*
X651335Y634211D01*
Y630817D01*
X650913Y630704D01*
X648885Y629533D01*
X647230Y627878D01*
X646060Y625851D01*
X645454Y623590D01*
Y621249D01*
X646060Y618988D01*
X646969Y617414D01*
X646367Y616144D01*
X639029D01*
X610945Y644229D01*
Y667617D01*
X612519Y668526D01*
X614174Y670181D01*
X615344Y672209D01*
X615950Y674470D01*
Y676810D01*
X615344Y679071D01*
X614444Y680630D01*
X615056Y681900D01*
X634908D01*
X638876Y677932D01*
X640389Y676921D01*
X642172Y676566D01*
X676475D01*
X678259Y676921D01*
X679771Y677932D01*
X685198Y683359D01*
X696032D01*
X696512Y682769D01*
D02*
G37*
G36*
X715943Y673468D02*
X716300Y672904D01*
X715432Y671399D01*
X714835Y669173D01*
Y666867D01*
X715432Y664641D01*
X716584Y662644D01*
X718214Y661014D01*
X720211Y659862D01*
X722437Y659265D01*
X724743D01*
X726969Y659862D01*
X728474Y660730D01*
X729038Y660373D01*
X729496Y659854D01*
X729181Y658273D01*
Y656368D01*
X727911Y655634D01*
X726969Y656178D01*
X724743Y656775D01*
X722437D01*
X720211Y656178D01*
X718214Y655026D01*
X716584Y653396D01*
X715432Y651399D01*
X714835Y649173D01*
Y646867D01*
X715432Y644641D01*
X716584Y642644D01*
X718214Y641014D01*
X720211Y639862D01*
X722437Y639265D01*
X724743D01*
X726969Y639862D01*
X727911Y640406D01*
X729181Y639672D01*
Y636368D01*
X727911Y635634D01*
X726969Y636178D01*
X724743Y636775D01*
X722437D01*
X720211Y636178D01*
X718214Y635026D01*
X716584Y633396D01*
X715432Y631399D01*
X714835Y629173D01*
Y626867D01*
X715432Y624641D01*
X716584Y622644D01*
X718214Y621014D01*
X720211Y619862D01*
X722437Y619265D01*
X724743D01*
X726969Y619862D01*
X727911Y620406D01*
X729181Y619672D01*
Y616368D01*
X727911Y615634D01*
X726969Y616178D01*
X724743Y616775D01*
X722437D01*
X720211Y616178D01*
X718214Y615026D01*
X717181Y613992D01*
X715618Y614076D01*
X715579Y614103D01*
X715322Y614489D01*
X710059Y619752D01*
X709673Y620009D01*
X709646Y620048D01*
X709562Y621611D01*
X710596Y622644D01*
X711748Y624641D01*
X712345Y626867D01*
Y629173D01*
X711748Y631399D01*
X710596Y633396D01*
X708966Y635026D01*
X706969Y636178D01*
X704743Y636775D01*
X702437D01*
X700211Y636178D01*
X698214Y635026D01*
X696584Y633396D01*
X695432Y631399D01*
X694835Y629173D01*
Y626867D01*
X695432Y624641D01*
X696584Y622644D01*
X697618Y621611D01*
X697534Y620048D01*
X697507Y620009D01*
X697122Y619752D01*
X696188Y618819D01*
X667426D01*
X665940Y618523D01*
X664679Y617681D01*
X663479Y616480D01*
X662573Y616590D01*
X661962Y617834D01*
X662628Y618988D01*
X663234Y621249D01*
Y623590D01*
X662628Y625851D01*
X661458Y627878D01*
X660658Y628678D01*
Y632280D01*
X694024Y665646D01*
X695250Y665317D01*
X695432Y664641D01*
X696584Y662644D01*
X698214Y661014D01*
X700211Y659862D01*
X702437Y659265D01*
X704743D01*
X706969Y659862D01*
X708966Y661014D01*
X710596Y662644D01*
X711748Y664641D01*
X712345Y666867D01*
Y669173D01*
X711748Y671399D01*
X711204Y672342D01*
X711938Y673612D01*
X713843D01*
X715424Y673926D01*
X715943Y673468D01*
D02*
G37*
G36*
X598310Y673947D02*
X598776Y672209D01*
X599946Y670181D01*
X601601Y668526D01*
X603175Y667617D01*
Y642620D01*
X603471Y641133D01*
X604313Y639873D01*
X631934Y612253D01*
X631448Y611079D01*
X517052D01*
X516566Y612253D01*
X551101Y646788D01*
X551511D01*
X552958Y647076D01*
X554186Y647896D01*
X561437Y655147D01*
X562610Y654661D01*
Y654150D01*
X563216Y651889D01*
X564386Y649861D01*
X566041Y648206D01*
X568069Y647036D01*
X570330Y646430D01*
X572670D01*
X574931Y647036D01*
X576959Y648206D01*
X578614Y649861D01*
X579784Y651889D01*
X580390Y654150D01*
Y656490D01*
X580108Y657542D01*
X596979Y674413D01*
X598310Y673947D01*
D02*
G37*
G36*
X750490Y620743D02*
X756762Y614471D01*
X756843Y613654D01*
X756584Y613396D01*
X755432Y611399D01*
X754835Y609173D01*
Y606867D01*
X755432Y604641D01*
X756584Y602644D01*
X758214Y601014D01*
X760211Y599862D01*
X762437Y599265D01*
X764743D01*
X766969Y599862D01*
X768966Y601014D01*
X770596Y602644D01*
X771748Y604641D01*
X772345Y606867D01*
Y609173D01*
X771748Y611399D01*
X771398Y612006D01*
X772033Y613106D01*
X775147D01*
X775782Y612006D01*
X775432Y611399D01*
X774835Y609173D01*
Y606867D01*
X775432Y604641D01*
X776584Y602644D01*
X778214Y601014D01*
X778928Y600602D01*
Y595438D01*
X778214Y595026D01*
X776584Y593396D01*
X775432Y591399D01*
X774835Y589173D01*
Y586867D01*
X775432Y584641D01*
X776584Y582644D01*
X778214Y581014D01*
X778928Y580602D01*
Y575438D01*
X778214Y575026D01*
X776584Y573396D01*
X775432Y571399D01*
X774835Y569173D01*
Y566867D01*
X775432Y564641D01*
X776584Y562644D01*
X778214Y561014D01*
X780211Y559862D01*
X782437Y559265D01*
X784743D01*
X786969Y559862D01*
X788026Y560472D01*
X791374Y557123D01*
Y554413D01*
X790104Y553887D01*
X788966Y555026D01*
X786969Y556178D01*
X784860Y556744D01*
Y548020D01*
Y539296D01*
X786969Y539862D01*
X788966Y541014D01*
X790104Y542153D01*
X791374Y541627D01*
Y534413D01*
X790104Y533887D01*
X788966Y535026D01*
X786969Y536178D01*
X784860Y536744D01*
Y528020D01*
Y519296D01*
X786969Y519862D01*
X788966Y521014D01*
X790104Y522153D01*
X791374Y521627D01*
Y514413D01*
X790104Y513887D01*
X788966Y515026D01*
X786969Y516178D01*
X784860Y516744D01*
Y508020D01*
Y499296D01*
X786969Y499862D01*
X788966Y501014D01*
X790104Y502153D01*
X791374Y501627D01*
Y499517D01*
X759489Y467632D01*
X602832D01*
Y508801D01*
X603072Y508866D01*
X605968Y510537D01*
X608332Y512902D01*
X610005Y515798D01*
X610870Y519028D01*
Y522372D01*
X610005Y525602D01*
X608332Y528498D01*
X605968Y530863D01*
X603072Y532534D01*
X599842Y533400D01*
X596498D01*
X593268Y532534D01*
X590372Y530863D01*
X588008Y528498D01*
X586335Y525602D01*
X586105Y524742D01*
X584835D01*
X584604Y525602D01*
X582933Y528498D01*
X580568Y530863D01*
X577672Y532534D01*
X574442Y533400D01*
X571098D01*
X567868Y532534D01*
X564972Y530863D01*
X562607Y528498D01*
X560936Y525602D01*
X560705Y524742D01*
X559435D01*
X559204Y525602D01*
X557533Y528498D01*
X555168Y530863D01*
X552272Y532534D01*
X549042Y533400D01*
X545698D01*
X542468Y532534D01*
X539572Y530863D01*
X537207Y528498D01*
X535536Y525602D01*
X535305Y524742D01*
X534035D01*
X533805Y525602D01*
X532132Y528498D01*
X529768Y530863D01*
X526872Y532534D01*
X523642Y533400D01*
X520298D01*
X517068Y532534D01*
X514172Y530863D01*
X511808Y528498D01*
X510135Y525602D01*
X509905Y524742D01*
X508635D01*
X508405Y525602D01*
X506732Y528498D01*
X504368Y530863D01*
X501472Y532534D01*
X498242Y533400D01*
X497840D01*
Y520700D01*
Y508000D01*
X498242D01*
X501472Y508866D01*
X504368Y510537D01*
X506732Y512902D01*
X508405Y515798D01*
X508635Y516658D01*
X509905D01*
X510135Y515798D01*
X511808Y512902D01*
X514172Y510537D01*
X517068Y508866D01*
X520298Y508000D01*
X523642D01*
X526872Y508866D01*
X529768Y510537D01*
X532132Y512902D01*
X533805Y515798D01*
X534035Y516658D01*
X535305D01*
X535536Y515798D01*
X537207Y512902D01*
X539572Y510537D01*
X542468Y508866D01*
X545698Y508000D01*
X549042D01*
X552272Y508866D01*
X555168Y510537D01*
X557533Y512902D01*
X559204Y515798D01*
X559435Y516658D01*
X560705D01*
X560936Y515798D01*
X562607Y512902D01*
X564972Y510537D01*
X567868Y508866D01*
X568108Y508801D01*
Y467632D01*
X543429D01*
X541646Y467277D01*
X540133Y466266D01*
X420986Y347119D01*
X419813Y347605D01*
Y506136D01*
X481409Y567733D01*
X482740Y567267D01*
X483206Y565529D01*
X484376Y563501D01*
X486031Y561846D01*
X488059Y560676D01*
X490320Y560070D01*
X492660D01*
X494921Y560676D01*
X496949Y561846D01*
X498604Y563501D01*
X499064Y564298D01*
X585470D01*
X587254Y564653D01*
X588766Y565664D01*
X594067Y570964D01*
X594476Y571576D01*
X598209Y575310D01*
X599340D01*
X601601Y575916D01*
X603629Y577086D01*
X605284Y578741D01*
X606454Y580769D01*
X607060Y583030D01*
Y585370D01*
X606454Y587631D01*
X605284Y589659D01*
X603629Y591314D01*
X601601Y592484D01*
X599340Y593090D01*
X597000D01*
X594739Y592484D01*
X592711Y591314D01*
X591056Y589659D01*
X589886Y587631D01*
X589280Y585370D01*
Y583030D01*
X589886Y580769D01*
X590104Y580390D01*
X587474Y577760D01*
X587065Y577147D01*
X583539Y573622D01*
X499064D01*
X498604Y574419D01*
X496949Y576074D01*
X494921Y577244D01*
X493183Y577710D01*
X492717Y579041D01*
X515433Y601756D01*
X664812D01*
X665787Y600486D01*
X665480Y599340D01*
Y597000D01*
X666086Y594739D01*
X667256Y592711D01*
X668438Y591529D01*
Y509224D01*
X667641Y508764D01*
X665986Y507109D01*
X664816Y505081D01*
X664210Y502820D01*
Y500480D01*
X664816Y498219D01*
X665986Y496191D01*
X667641Y494536D01*
X669669Y493366D01*
X671930Y492760D01*
X674270D01*
X676531Y493366D01*
X678559Y494536D01*
X680214Y496191D01*
X681384Y498219D01*
X681990Y500480D01*
Y502820D01*
X681384Y505081D01*
X680214Y507109D01*
X678559Y508764D01*
X677762Y509224D01*
Y589875D01*
X677801Y589886D01*
X679829Y591056D01*
X681484Y592711D01*
X682654Y594739D01*
X683260Y597000D01*
Y599340D01*
X682654Y601601D01*
X681754Y603160D01*
X682366Y604430D01*
X686803D01*
X696256Y594977D01*
X696569Y594768D01*
X696693Y593504D01*
X696584Y593396D01*
X695432Y591399D01*
X694835Y589173D01*
Y586867D01*
X695432Y584641D01*
X696584Y582644D01*
X698214Y581014D01*
X700211Y579862D01*
X702437Y579265D01*
X704743D01*
X706969Y579862D01*
X708966Y581014D01*
X710596Y582644D01*
X711748Y584641D01*
X712345Y586867D01*
Y589173D01*
X711748Y591399D01*
X711204Y592341D01*
X711938Y593611D01*
X715242D01*
X715976Y592341D01*
X715432Y591399D01*
X714835Y589173D01*
Y586867D01*
X715432Y584641D01*
X716584Y582644D01*
X718214Y581014D01*
X720211Y579862D01*
X722437Y579265D01*
X724743D01*
X726969Y579862D01*
X728966Y581014D01*
X730596Y582644D01*
X731748Y584641D01*
X732345Y586867D01*
Y589173D01*
X731748Y591399D01*
X730596Y593396D01*
X730487Y593504D01*
X730611Y594768D01*
X730924Y594977D01*
X737139Y601193D01*
X737956Y601273D01*
X738214Y601014D01*
X740211Y599862D01*
X742437Y599265D01*
X744743D01*
X746969Y599862D01*
X748966Y601014D01*
X750596Y602644D01*
X751748Y604641D01*
X752345Y606867D01*
Y609173D01*
X751748Y611399D01*
X750596Y613396D01*
X748966Y615026D01*
X746969Y616178D01*
X744743Y616775D01*
X742437D01*
X740211Y616178D01*
X739604Y615828D01*
X738505Y616463D01*
Y619577D01*
X739604Y620212D01*
X740211Y619862D01*
X742437Y619265D01*
X744743D01*
X746969Y619862D01*
X748966Y621014D01*
X750490Y620743D01*
D02*
G37*
G36*
X808086Y677977D02*
X808350Y677772D01*
Y676519D01*
X808936Y673575D01*
X810085Y670801D01*
X811752Y668305D01*
X813875Y666182D01*
X816371Y664514D01*
X819145Y663366D01*
X822089Y662780D01*
X825091D01*
X826770Y663114D01*
X828040Y662072D01*
Y573968D01*
X826770Y572926D01*
X825091Y573260D01*
X822089D01*
X819145Y572674D01*
X816371Y571525D01*
X813875Y569858D01*
X811752Y567735D01*
X810085Y565239D01*
X808936Y562465D01*
X808572Y560635D01*
X807302Y560760D01*
Y602754D01*
X806947Y604538D01*
X805936Y606051D01*
X790923Y621063D01*
X790611Y621272D01*
X790487Y622536D01*
X790596Y622644D01*
X791748Y624641D01*
X792345Y626867D01*
Y629173D01*
X791748Y631399D01*
X790596Y633396D01*
X790251Y633740D01*
Y642300D01*
X790596Y642644D01*
X791748Y644641D01*
X792345Y646867D01*
Y649173D01*
X791748Y651399D01*
X790596Y653396D01*
X790251Y653740D01*
Y662300D01*
X790596Y662644D01*
X790621Y662688D01*
X791554Y663074D01*
X792933Y664133D01*
X807080Y678280D01*
X808086Y677977D01*
D02*
G37*
G36*
X797978Y600824D02*
Y565363D01*
X796805Y564877D01*
X793267Y568415D01*
X792345Y569031D01*
Y569173D01*
X791748Y571399D01*
X790596Y573396D01*
X788966Y575026D01*
X788252Y575438D01*
Y580602D01*
X788966Y581014D01*
X790596Y582644D01*
X791748Y584641D01*
X792345Y586867D01*
Y589173D01*
X791748Y591399D01*
X790596Y593396D01*
X788966Y595026D01*
X788252Y595438D01*
Y600602D01*
X788966Y601014D01*
X790596Y602644D01*
X791748Y604641D01*
X791930Y605317D01*
X793156Y605646D01*
X797978Y600824D01*
D02*
G37*
G36*
X586335Y515798D02*
X588008Y512902D01*
X590372Y510537D01*
X593268Y508866D01*
X593508Y508801D01*
Y467632D01*
X577432D01*
Y508801D01*
X577672Y508866D01*
X580568Y510537D01*
X582933Y512902D01*
X584604Y515798D01*
X584835Y516658D01*
X586105D01*
X586335Y515798D01*
D02*
G37*
G36*
X410490Y504517D02*
Y345962D01*
X318808Y254280D01*
X318592Y254405D01*
X315362Y255270D01*
X312018D01*
X308788Y254405D01*
X305892Y252733D01*
X303528Y250368D01*
X301856Y247472D01*
X301625Y246612D01*
X300355D01*
X300124Y247472D01*
X298452Y250368D01*
X296088Y252733D01*
X293192Y254405D01*
X289962Y255270D01*
X289560D01*
Y242570D01*
Y229870D01*
X289962D01*
X293192Y230735D01*
X296088Y232407D01*
X298452Y234772D01*
X300124Y237668D01*
X300355Y238528D01*
X301625D01*
X301856Y237668D01*
X303528Y234772D01*
X305892Y232407D01*
X308788Y230735D01*
X312018Y229870D01*
X315362D01*
X318592Y230735D01*
X321488Y232407D01*
X323853Y234772D01*
X325524Y237668D01*
X326390Y240898D01*
Y244242D01*
X325524Y247472D01*
X325400Y247688D01*
X354845Y277133D01*
X356018Y276647D01*
Y230531D01*
X290169Y164682D01*
X168492D01*
Y167030D01*
X170620D01*
Y167280D01*
X175870D01*
Y172280D01*
Y182280D01*
Y190860D01*
X170620D01*
Y191110D01*
X170113D01*
Y213023D01*
X198120Y241031D01*
X198735Y240966D01*
X199451Y240670D01*
X200256Y237668D01*
X201928Y234772D01*
X204292Y232407D01*
X207188Y230735D01*
X210418Y229870D01*
X210820D01*
Y242570D01*
Y255270D01*
X210418D01*
X207188Y254405D01*
X204292Y252733D01*
X201928Y250368D01*
X200633Y248125D01*
X199363Y248466D01*
Y260476D01*
X204354Y265467D01*
X209503D01*
X210950Y265755D01*
X212177Y266575D01*
X219385Y273783D01*
X220205Y275010D01*
X220493Y276458D01*
Y308256D01*
X297691Y385454D01*
X344620D01*
Y381860D01*
X372700D01*
Y389447D01*
X372847D01*
X374295Y389735D01*
X375522Y390555D01*
X391586Y406620D01*
X391586Y406620D01*
X392406Y407847D01*
X392694Y409295D01*
Y488381D01*
X409316Y505003D01*
X410490Y504517D01*
D02*
G37*
G36*
X644269Y429866D02*
X646530Y429260D01*
X646969D01*
X647455Y428087D01*
X544074Y324706D01*
X543063Y323194D01*
X542708Y321410D01*
Y253199D01*
X542468Y253134D01*
X539572Y251462D01*
X537207Y249098D01*
X535536Y246202D01*
X535305Y245342D01*
X534035D01*
X533805Y246202D01*
X532132Y249098D01*
X529768Y251462D01*
X526872Y253134D01*
X526632Y253199D01*
Y313029D01*
X643761Y430159D01*
X644269Y429866D01*
D02*
G37*
G36*
X131444Y265824D02*
X132956Y264813D01*
X133252Y264754D01*
X134740Y264459D01*
X145520D01*
Y259830D01*
Y254830D01*
Y249830D01*
X153270D01*
Y247080D01*
X158675D01*
Y233755D01*
X152802D01*
X151894Y235329D01*
X150239Y236984D01*
X148211Y238154D01*
X145950Y238760D01*
X143610D01*
X141349Y238154D01*
X139321Y236984D01*
X137666Y235329D01*
X136496Y233301D01*
X135890Y231040D01*
Y228700D01*
X136496Y226439D01*
X137666Y224411D01*
X139321Y222756D01*
X141349Y221586D01*
X143610Y220980D01*
X145950D01*
X148211Y221586D01*
X150239Y222756D01*
X151894Y224411D01*
X152802Y225985D01*
X158675D01*
Y223454D01*
X153458Y218237D01*
X152616Y216977D01*
X152320Y215490D01*
Y190860D01*
X151790D01*
Y182280D01*
Y177280D01*
X160620D01*
Y182280D01*
X167040D01*
Y177280D01*
Y175860D01*
X165095D01*
X163830Y176112D01*
X162565Y175860D01*
X157040D01*
Y175860D01*
X151790D01*
Y172649D01*
X141776Y162635D01*
X124460D01*
X122973Y162339D01*
X121713Y161497D01*
X115231Y155015D01*
X101840D01*
Y161420D01*
X81760D01*
Y140840D01*
X101840D01*
Y147245D01*
X116840D01*
X118327Y147541D01*
X119587Y148383D01*
X126069Y154865D01*
X143385D01*
X144872Y155161D01*
X146132Y156003D01*
X157159Y167030D01*
X159168D01*
Y160020D01*
Y158141D01*
X141484Y140456D01*
X140473Y138944D01*
X140414Y138648D01*
X140118Y137160D01*
Y118350D01*
X131950D01*
Y112972D01*
X77771D01*
X58002Y132741D01*
Y168249D01*
X92196Y202444D01*
X93207Y203956D01*
X93266Y204252D01*
X93562Y205740D01*
Y208785D01*
X101840D01*
Y229365D01*
X96462D01*
Y276730D01*
X101840D01*
Y282358D01*
X114909D01*
X131444Y265824D01*
D02*
G37*
%LPC*%
G36*
X212970Y753990D02*
X203200D01*
Y744220D01*
X212970D01*
Y753990D01*
D02*
G37*
G36*
X200660D02*
X190890D01*
Y744220D01*
X200660D01*
Y753990D01*
D02*
G37*
G36*
X212970Y741680D02*
X203200D01*
Y731910D01*
X212970D01*
Y741680D01*
D02*
G37*
G36*
X200660D02*
X190890D01*
Y731910D01*
X200660D01*
Y741680D01*
D02*
G37*
G36*
X210820Y534670D02*
X210418D01*
X207188Y533805D01*
X204292Y532132D01*
X201928Y529768D01*
X200256Y526872D01*
X199390Y523642D01*
Y523240D01*
X210820D01*
Y534670D01*
D02*
G37*
G36*
Y520700D02*
X199390D01*
Y520298D01*
X200256Y517068D01*
X201928Y514172D01*
X204292Y511808D01*
X207188Y510135D01*
X210418Y509270D01*
X210820D01*
Y520700D01*
D02*
G37*
G36*
X372700Y481940D02*
X344620D01*
Y466860D01*
X372700D01*
Y481940D01*
D02*
G37*
G36*
X214700Y464940D02*
X186620D01*
Y449860D01*
X214700D01*
Y464940D01*
D02*
G37*
G36*
X372700Y447940D02*
X344620D01*
Y432860D01*
X372700D01*
Y447940D01*
D02*
G37*
G36*
Y430940D02*
X344620D01*
Y415860D01*
X372700D01*
Y430940D01*
D02*
G37*
G36*
X214700D02*
X186620D01*
Y415860D01*
X214700D01*
Y430940D01*
D02*
G37*
G36*
Y413940D02*
X186620D01*
Y398860D01*
X214700D01*
Y413940D01*
D02*
G37*
G36*
Y396940D02*
X186620D01*
Y381860D01*
X214700D01*
Y396940D01*
D02*
G37*
G36*
Y379940D02*
X186620D01*
Y364860D01*
X214700D01*
Y379940D01*
D02*
G37*
G36*
Y362940D02*
X186620D01*
Y347860D01*
X214700D01*
Y362940D01*
D02*
G37*
G36*
Y345940D02*
X186620D01*
Y330860D01*
X214700D01*
Y345940D01*
D02*
G37*
G36*
X495300Y254000D02*
X494898D01*
X491668Y253134D01*
X488772Y251462D01*
X486408Y249098D01*
X484735Y246202D01*
X483870Y242972D01*
Y242570D01*
X495300D01*
Y254000D01*
D02*
G37*
G36*
Y240030D02*
X483870D01*
Y239628D01*
X484735Y236398D01*
X486408Y233502D01*
X488772Y231138D01*
X491668Y229466D01*
X494898Y228600D01*
X495300D01*
Y240030D01*
D02*
G37*
G36*
X39370Y226033D02*
Y218440D01*
X46963D01*
X46384Y220601D01*
X45214Y222629D01*
X43559Y224284D01*
X41531Y225454D01*
X39370Y226033D01*
D02*
G37*
G36*
X36830D02*
X34669Y225454D01*
X32641Y224284D01*
X30986Y222629D01*
X29816Y220601D01*
X29237Y218440D01*
X36830D01*
Y226033D01*
D02*
G37*
G36*
X46963Y215900D02*
X39370D01*
Y208307D01*
X41531Y208886D01*
X43559Y210056D01*
X45214Y211711D01*
X46384Y213739D01*
X46963Y215900D01*
D02*
G37*
G36*
X36830D02*
X29237D01*
X29816Y213739D01*
X30986Y211711D01*
X32641Y210056D01*
X34669Y208886D01*
X36830Y208307D01*
Y215900D01*
D02*
G37*
G36*
X337430Y753990D02*
X327660D01*
Y744220D01*
X337430D01*
Y753990D01*
D02*
G37*
G36*
Y741680D02*
X327660D01*
Y731910D01*
X337430D01*
Y741680D01*
D02*
G37*
G36*
X325120D02*
X315350D01*
Y731910D01*
X325120D01*
Y741680D01*
D02*
G37*
G36*
X452730Y747033D02*
X439411D01*
X437362Y746626D01*
X435625Y745465D01*
X434465Y743729D01*
X434058Y741680D01*
X434465Y739631D01*
X435625Y737895D01*
X437362Y736734D01*
X439411Y736327D01*
X452730D01*
X454779Y736734D01*
X456367Y737795D01*
X506600D01*
Y726920D01*
X527180D01*
Y747000D01*
X506600D01*
Y745565D01*
X456367D01*
X454779Y746626D01*
X452730Y747033D01*
D02*
G37*
G36*
X764743Y716775D02*
X762437D01*
X760211Y716178D01*
X758214Y715026D01*
X756584Y713396D01*
X755432Y711399D01*
X754835Y709173D01*
Y706867D01*
X755432Y704641D01*
X756584Y702644D01*
X758214Y701014D01*
X760211Y699862D01*
X762437Y699265D01*
X764743D01*
X766969Y699862D01*
X768966Y701014D01*
X770596Y702644D01*
X771748Y704641D01*
X772345Y706867D01*
Y709173D01*
X771748Y711399D01*
X770596Y713396D01*
X768966Y715026D01*
X766969Y716178D01*
X764743Y716775D01*
D02*
G37*
G36*
Y696775D02*
X762437D01*
X760211Y696178D01*
X758214Y695026D01*
X756584Y693396D01*
X755432Y691399D01*
X754835Y689173D01*
Y686867D01*
X755432Y684641D01*
X756584Y682644D01*
X758214Y681014D01*
X760211Y679862D01*
X762437Y679265D01*
X764743D01*
X766969Y679862D01*
X768966Y681014D01*
X770596Y682644D01*
X771748Y684641D01*
X772345Y686867D01*
Y689173D01*
X771748Y691399D01*
X770596Y693396D01*
X768966Y695026D01*
X766969Y696178D01*
X764743Y696775D01*
D02*
G37*
G36*
X744743D02*
X742437D01*
X740211Y696178D01*
X738214Y695026D01*
X736584Y693396D01*
X735432Y691399D01*
X734835Y689173D01*
Y686867D01*
X735432Y684641D01*
X736584Y682644D01*
X738214Y681014D01*
X740211Y679862D01*
X742437Y679265D01*
X744743D01*
X746969Y679862D01*
X748966Y681014D01*
X750596Y682644D01*
X751748Y684641D01*
X752345Y686867D01*
Y689173D01*
X751748Y691399D01*
X750596Y693396D01*
X748966Y695026D01*
X746969Y696178D01*
X744743Y696775D01*
D02*
G37*
G36*
X764743Y676775D02*
X762437D01*
X760211Y676178D01*
X758214Y675026D01*
X756584Y673396D01*
X755432Y671399D01*
X754835Y669173D01*
Y666867D01*
X755432Y664641D01*
X756584Y662644D01*
X758214Y661014D01*
X760211Y659862D01*
X762437Y659265D01*
X764743D01*
X766969Y659862D01*
X768966Y661014D01*
X770596Y662644D01*
X771748Y664641D01*
X772345Y666867D01*
Y669173D01*
X771748Y671399D01*
X770596Y673396D01*
X768966Y675026D01*
X766969Y676178D01*
X764743Y676775D01*
D02*
G37*
G36*
X704743Y656775D02*
X702437D01*
X700211Y656178D01*
X698214Y655026D01*
X696584Y653396D01*
X695432Y651399D01*
X694835Y649173D01*
Y646867D01*
X695432Y644641D01*
X696584Y642644D01*
X698214Y641014D01*
X700211Y639862D01*
X702437Y639265D01*
X704743D01*
X706969Y639862D01*
X708966Y641014D01*
X710596Y642644D01*
X711748Y644641D01*
X712345Y646867D01*
Y649173D01*
X711748Y651399D01*
X710596Y653396D01*
X708966Y655026D01*
X706969Y656178D01*
X704743Y656775D01*
D02*
G37*
G36*
X764743Y596775D02*
X762437D01*
X760211Y596178D01*
X758214Y595026D01*
X756584Y593396D01*
X755432Y591399D01*
X754835Y589173D01*
Y586867D01*
X755432Y584641D01*
X756584Y582644D01*
X758214Y581014D01*
X760211Y579862D01*
X762437Y579265D01*
X764743D01*
X766969Y579862D01*
X768966Y581014D01*
X770596Y582644D01*
X771748Y584641D01*
X772345Y586867D01*
Y589173D01*
X771748Y591399D01*
X770596Y593396D01*
X768966Y595026D01*
X766969Y596178D01*
X764743Y596775D01*
D02*
G37*
G36*
X744743D02*
X742437D01*
X740211Y596178D01*
X738214Y595026D01*
X736584Y593396D01*
X735432Y591399D01*
X734835Y589173D01*
Y586867D01*
X735432Y584641D01*
X736584Y582644D01*
X738214Y581014D01*
X740211Y579862D01*
X742437Y579265D01*
X744743D01*
X746969Y579862D01*
X748966Y581014D01*
X750596Y582644D01*
X751748Y584641D01*
X752345Y586867D01*
Y589173D01*
X751748Y591399D01*
X750596Y593396D01*
X748966Y595026D01*
X746969Y596178D01*
X744743Y596775D01*
D02*
G37*
G36*
X764743Y576775D02*
X762437D01*
X760211Y576178D01*
X758214Y575026D01*
X756584Y573396D01*
X755432Y571399D01*
X754835Y569173D01*
Y566867D01*
X755432Y564641D01*
X756584Y562644D01*
X758214Y561014D01*
X760211Y559862D01*
X762437Y559265D01*
X764743D01*
X766969Y559862D01*
X768966Y561014D01*
X770596Y562644D01*
X771748Y564641D01*
X772345Y566867D01*
Y569173D01*
X771748Y571399D01*
X770596Y573396D01*
X768966Y575026D01*
X766969Y576178D01*
X764743Y576775D01*
D02*
G37*
G36*
X744743D02*
X742437D01*
X740211Y576178D01*
X738214Y575026D01*
X736584Y573396D01*
X735432Y571399D01*
X734835Y569173D01*
Y566867D01*
X735432Y564641D01*
X736584Y562644D01*
X738214Y561014D01*
X740211Y559862D01*
X742437Y559265D01*
X744743D01*
X746969Y559862D01*
X748966Y561014D01*
X750596Y562644D01*
X751748Y564641D01*
X752345Y566867D01*
Y569173D01*
X751748Y571399D01*
X750596Y573396D01*
X748966Y575026D01*
X746969Y576178D01*
X744743Y576775D01*
D02*
G37*
G36*
X724743D02*
X722437D01*
X720211Y576178D01*
X718214Y575026D01*
X716584Y573396D01*
X715432Y571399D01*
X714835Y569173D01*
Y566867D01*
X715432Y564641D01*
X716584Y562644D01*
X718214Y561014D01*
X720211Y559862D01*
X722437Y559265D01*
X724743D01*
X726969Y559862D01*
X728966Y561014D01*
X730596Y562644D01*
X731748Y564641D01*
X732345Y566867D01*
Y569173D01*
X731748Y571399D01*
X730596Y573396D01*
X728966Y575026D01*
X726969Y576178D01*
X724743Y576775D01*
D02*
G37*
G36*
X704743D02*
X702437D01*
X700211Y576178D01*
X698214Y575026D01*
X696584Y573396D01*
X695432Y571399D01*
X694835Y569173D01*
Y566867D01*
X695432Y564641D01*
X696584Y562644D01*
X698214Y561014D01*
X700211Y559862D01*
X702437Y559265D01*
X704743D01*
X706969Y559862D01*
X708966Y561014D01*
X710596Y562644D01*
X711748Y564641D01*
X712345Y566867D01*
Y569173D01*
X711748Y571399D01*
X710596Y573396D01*
X708966Y575026D01*
X706969Y576178D01*
X704743Y576775D01*
D02*
G37*
G36*
X782320Y556744D02*
X780211Y556178D01*
X778214Y555026D01*
X776584Y553396D01*
X775432Y551399D01*
X774866Y549290D01*
X782320D01*
Y556744D01*
D02*
G37*
G36*
Y546750D02*
X774866D01*
X775432Y544641D01*
X776584Y542644D01*
X778214Y541014D01*
X780211Y539862D01*
X782320Y539296D01*
Y546750D01*
D02*
G37*
G36*
X764743Y556775D02*
X762437D01*
X760211Y556178D01*
X758214Y555026D01*
X756584Y553396D01*
X755432Y551399D01*
X754835Y549173D01*
Y546867D01*
X755432Y544641D01*
X756584Y542644D01*
X758214Y541014D01*
X760211Y539862D01*
X762437Y539265D01*
X764743D01*
X766969Y539862D01*
X768966Y541014D01*
X770596Y542644D01*
X771748Y544641D01*
X772345Y546867D01*
Y549173D01*
X771748Y551399D01*
X770596Y553396D01*
X768966Y555026D01*
X766969Y556178D01*
X764743Y556775D01*
D02*
G37*
G36*
X744743D02*
X742437D01*
X740211Y556178D01*
X738214Y555026D01*
X736584Y553396D01*
X735432Y551399D01*
X734835Y549173D01*
Y546867D01*
X735432Y544641D01*
X736584Y542644D01*
X738214Y541014D01*
X740211Y539862D01*
X742437Y539265D01*
X744743D01*
X746969Y539862D01*
X748966Y541014D01*
X750596Y542644D01*
X751748Y544641D01*
X752345Y546867D01*
Y549173D01*
X751748Y551399D01*
X750596Y553396D01*
X748966Y555026D01*
X746969Y556178D01*
X744743Y556775D01*
D02*
G37*
G36*
X724743D02*
X722437D01*
X720211Y556178D01*
X718214Y555026D01*
X716584Y553396D01*
X715432Y551399D01*
X714835Y549173D01*
Y546867D01*
X715432Y544641D01*
X716584Y542644D01*
X718214Y541014D01*
X720211Y539862D01*
X722437Y539265D01*
X724743D01*
X726969Y539862D01*
X728966Y541014D01*
X730596Y542644D01*
X731748Y544641D01*
X732345Y546867D01*
Y549173D01*
X731748Y551399D01*
X730596Y553396D01*
X728966Y555026D01*
X726969Y556178D01*
X724743Y556775D01*
D02*
G37*
G36*
X704743D02*
X702437D01*
X700211Y556178D01*
X698214Y555026D01*
X696584Y553396D01*
X695432Y551399D01*
X694835Y549173D01*
Y546867D01*
X695432Y544641D01*
X696584Y542644D01*
X698214Y541014D01*
X700211Y539862D01*
X702437Y539265D01*
X704743D01*
X706969Y539862D01*
X708966Y541014D01*
X710596Y542644D01*
X711748Y544641D01*
X712345Y546867D01*
Y549173D01*
X711748Y551399D01*
X710596Y553396D01*
X708966Y555026D01*
X706969Y556178D01*
X704743Y556775D01*
D02*
G37*
G36*
X782320Y536744D02*
X780211Y536178D01*
X778214Y535026D01*
X776584Y533396D01*
X775432Y531399D01*
X774866Y529290D01*
X782320D01*
Y536744D01*
D02*
G37*
G36*
X495300Y533400D02*
X494898D01*
X491668Y532534D01*
X488772Y530863D01*
X486408Y528498D01*
X484735Y525602D01*
X483870Y522372D01*
Y521970D01*
X495300D01*
Y533400D01*
D02*
G37*
G36*
X782320Y526750D02*
X774866D01*
X775432Y524641D01*
X776584Y522644D01*
X778214Y521014D01*
X780211Y519862D01*
X782320Y519296D01*
Y526750D01*
D02*
G37*
G36*
X764743Y536775D02*
X762437D01*
X760211Y536178D01*
X758214Y535026D01*
X756584Y533396D01*
X755432Y531399D01*
X754835Y529173D01*
Y526867D01*
X755432Y524641D01*
X756584Y522644D01*
X758214Y521014D01*
X760211Y519862D01*
X762437Y519265D01*
X764743D01*
X766969Y519862D01*
X768966Y521014D01*
X770596Y522644D01*
X771748Y524641D01*
X772345Y526867D01*
Y529173D01*
X771748Y531399D01*
X770596Y533396D01*
X768966Y535026D01*
X766969Y536178D01*
X764743Y536775D01*
D02*
G37*
G36*
X744743D02*
X742437D01*
X740211Y536178D01*
X738214Y535026D01*
X736584Y533396D01*
X735432Y531399D01*
X734835Y529173D01*
Y526867D01*
X735432Y524641D01*
X736584Y522644D01*
X738214Y521014D01*
X740211Y519862D01*
X742437Y519265D01*
X744743D01*
X746969Y519862D01*
X748966Y521014D01*
X750596Y522644D01*
X751748Y524641D01*
X752345Y526867D01*
Y529173D01*
X751748Y531399D01*
X750596Y533396D01*
X748966Y535026D01*
X746969Y536178D01*
X744743Y536775D01*
D02*
G37*
G36*
X724743D02*
X722437D01*
X720211Y536178D01*
X718214Y535026D01*
X716584Y533396D01*
X715432Y531399D01*
X714835Y529173D01*
Y526867D01*
X715432Y524641D01*
X716584Y522644D01*
X718214Y521014D01*
X720211Y519862D01*
X722437Y519265D01*
X724743D01*
X726969Y519862D01*
X728966Y521014D01*
X730596Y522644D01*
X731748Y524641D01*
X732345Y526867D01*
Y529173D01*
X731748Y531399D01*
X730596Y533396D01*
X728966Y535026D01*
X726969Y536178D01*
X724743Y536775D01*
D02*
G37*
G36*
X704743D02*
X702437D01*
X700211Y536178D01*
X698214Y535026D01*
X696584Y533396D01*
X695432Y531399D01*
X694835Y529173D01*
Y526867D01*
X695432Y524641D01*
X696584Y522644D01*
X698214Y521014D01*
X700211Y519862D01*
X702437Y519265D01*
X704743D01*
X706969Y519862D01*
X708966Y521014D01*
X710596Y522644D01*
X711748Y524641D01*
X712345Y526867D01*
Y529173D01*
X711748Y531399D01*
X710596Y533396D01*
X708966Y535026D01*
X706969Y536178D01*
X704743Y536775D01*
D02*
G37*
G36*
X782320Y516744D02*
X780211Y516178D01*
X778214Y515026D01*
X776584Y513396D01*
X775432Y511399D01*
X774866Y509290D01*
X782320D01*
Y516744D01*
D02*
G37*
G36*
X495300Y519430D02*
X483870D01*
Y519028D01*
X484735Y515798D01*
X486408Y512902D01*
X488772Y510537D01*
X491668Y508866D01*
X494898Y508000D01*
X495300D01*
Y519430D01*
D02*
G37*
G36*
X782320Y506750D02*
X774866D01*
X775432Y504641D01*
X776584Y502644D01*
X778214Y501014D01*
X780211Y499862D01*
X782320Y499296D01*
Y506750D01*
D02*
G37*
G36*
X764743Y516775D02*
X762437D01*
X760211Y516178D01*
X758214Y515026D01*
X756584Y513396D01*
X755432Y511399D01*
X754835Y509173D01*
Y506867D01*
X755432Y504641D01*
X756584Y502644D01*
X758214Y501014D01*
X760211Y499862D01*
X762437Y499265D01*
X764743D01*
X766969Y499862D01*
X768966Y501014D01*
X770596Y502644D01*
X771748Y504641D01*
X772345Y506867D01*
Y509173D01*
X771748Y511399D01*
X770596Y513396D01*
X768966Y515026D01*
X766969Y516178D01*
X764743Y516775D01*
D02*
G37*
G36*
X744743D02*
X742437D01*
X740211Y516178D01*
X738214Y515026D01*
X736584Y513396D01*
X735432Y511399D01*
X734835Y509173D01*
Y506867D01*
X735432Y504641D01*
X736584Y502644D01*
X738214Y501014D01*
X740211Y499862D01*
X742437Y499265D01*
X744743D01*
X746969Y499862D01*
X748966Y501014D01*
X750596Y502644D01*
X751748Y504641D01*
X752345Y506867D01*
Y509173D01*
X751748Y511399D01*
X750596Y513396D01*
X748966Y515026D01*
X746969Y516178D01*
X744743Y516775D01*
D02*
G37*
G36*
X724743D02*
X722437D01*
X720211Y516178D01*
X718214Y515026D01*
X716584Y513396D01*
X715432Y511399D01*
X714835Y509173D01*
Y506867D01*
X715432Y504641D01*
X716584Y502644D01*
X718214Y501014D01*
X720211Y499862D01*
X722437Y499265D01*
X724743D01*
X726969Y499862D01*
X728966Y501014D01*
X730596Y502644D01*
X731748Y504641D01*
X732345Y506867D01*
Y509173D01*
X731748Y511399D01*
X730596Y513396D01*
X728966Y515026D01*
X726969Y516178D01*
X724743Y516775D01*
D02*
G37*
G36*
X704743D02*
X702437D01*
X700211Y516178D01*
X698214Y515026D01*
X696584Y513396D01*
X695432Y511399D01*
X694835Y509173D01*
Y506867D01*
X695432Y504641D01*
X696584Y502644D01*
X698214Y501014D01*
X700211Y499862D01*
X702437Y499265D01*
X704743D01*
X706969Y499862D01*
X708966Y501014D01*
X710596Y502644D01*
X711748Y504641D01*
X712345Y506867D01*
Y509173D01*
X711748Y511399D01*
X710596Y513396D01*
X708966Y515026D01*
X706969Y516178D01*
X704743Y516775D01*
D02*
G37*
G36*
X392330Y381000D02*
X389990D01*
X387729Y380394D01*
X385701Y379224D01*
X384046Y377569D01*
X383138Y375995D01*
X372700D01*
Y379940D01*
X344620D01*
Y364860D01*
X372700D01*
Y368225D01*
X383138D01*
X384046Y366651D01*
X385701Y364996D01*
X387729Y363826D01*
X389990Y363220D01*
X392330D01*
X394591Y363826D01*
X396619Y364996D01*
X398274Y366651D01*
X399444Y368679D01*
X400050Y370940D01*
Y373280D01*
X399444Y375541D01*
X398274Y377569D01*
X396619Y379224D01*
X394591Y380394D01*
X392330Y381000D01*
D02*
G37*
G36*
X372700Y362940D02*
X344620D01*
Y347860D01*
X372700D01*
Y362940D01*
D02*
G37*
G36*
Y328940D02*
X344620D01*
Y313860D01*
X372700D01*
Y328940D01*
D02*
G37*
G36*
X287020Y255270D02*
X286618D01*
X283388Y254405D01*
X280492Y252733D01*
X278127Y250368D01*
X276455Y247472D01*
X276225Y246612D01*
X274955D01*
X274725Y247472D01*
X273053Y250368D01*
X270688Y252733D01*
X267792Y254405D01*
X264562Y255270D01*
X261218D01*
X257988Y254405D01*
X255092Y252733D01*
X252728Y250368D01*
X251056Y247472D01*
X250825Y246612D01*
X249555D01*
X249324Y247472D01*
X247652Y250368D01*
X245288Y252733D01*
X242392Y254405D01*
X239162Y255270D01*
X235818D01*
X232588Y254405D01*
X229692Y252733D01*
X227327Y250368D01*
X225655Y247472D01*
X225425Y246612D01*
X224155D01*
X223925Y247472D01*
X222253Y250368D01*
X219888Y252733D01*
X216992Y254405D01*
X213762Y255270D01*
X213360D01*
Y242570D01*
Y229870D01*
X213762D01*
X216992Y230735D01*
X219888Y232407D01*
X222253Y234772D01*
X223925Y237668D01*
X224155Y238528D01*
X225425D01*
X225655Y237668D01*
X227327Y234772D01*
X229692Y232407D01*
X232588Y230735D01*
X232828Y230671D01*
Y208280D01*
X233183Y206496D01*
X234194Y204984D01*
X261858Y177319D01*
X261620Y176430D01*
Y174090D01*
X262226Y171829D01*
X263396Y169801D01*
X265051Y168146D01*
X267079Y166976D01*
X269340Y166370D01*
X271680D01*
X273941Y166976D01*
X275969Y168146D01*
X277624Y169801D01*
X278794Y171829D01*
X279400Y174090D01*
Y176430D01*
X278794Y178691D01*
X277624Y180719D01*
X275969Y182374D01*
X273941Y183544D01*
X271680Y184150D01*
X269340D01*
X268451Y183912D01*
X242152Y210211D01*
Y230671D01*
X242392Y230735D01*
X245288Y232407D01*
X247652Y234772D01*
X249324Y237668D01*
X249555Y238528D01*
X250825D01*
X251056Y237668D01*
X252728Y234772D01*
X255092Y232407D01*
X257988Y230735D01*
X258228Y230671D01*
Y222250D01*
X258583Y220466D01*
X259594Y218954D01*
X277098Y201449D01*
X276860Y200560D01*
Y198220D01*
X277466Y195959D01*
X278636Y193931D01*
X280291Y192276D01*
X282319Y191106D01*
X284580Y190500D01*
X286920D01*
X289181Y191106D01*
X291209Y192276D01*
X292864Y193931D01*
X294034Y195959D01*
X294640Y198220D01*
Y200560D01*
X294034Y202821D01*
X292864Y204849D01*
X291209Y206504D01*
X289181Y207674D01*
X286920Y208280D01*
X284580D01*
X283691Y208042D01*
X267552Y224181D01*
Y230671D01*
X267792Y230735D01*
X270688Y232407D01*
X273053Y234772D01*
X274725Y237668D01*
X274955Y238528D01*
X276225D01*
X276455Y237668D01*
X278127Y234772D01*
X280492Y232407D01*
X283388Y230735D01*
X286618Y229870D01*
X287020D01*
Y242570D01*
Y255270D01*
D02*
G37*
G36*
X113030Y193013D02*
Y185420D01*
X120623D01*
X120044Y187581D01*
X118874Y189609D01*
X117219Y191264D01*
X115191Y192434D01*
X113030Y193013D01*
D02*
G37*
G36*
X110490D02*
X108329Y192434D01*
X106301Y191264D01*
X104646Y189609D01*
X103476Y187581D01*
X102897Y185420D01*
X110490D01*
Y193013D01*
D02*
G37*
G36*
X120623Y182880D02*
X113030D01*
Y175287D01*
X115191Y175866D01*
X117219Y177036D01*
X118874Y178691D01*
X120044Y180719D01*
X120623Y182880D01*
D02*
G37*
G36*
X110490D02*
X102897D01*
X103476Y180719D01*
X104646Y178691D01*
X106301Y177036D01*
X108329Y175866D01*
X110490Y175287D01*
Y182880D01*
D02*
G37*
%LPD*%
D10*
X607060Y642620D02*
X637420Y612260D01*
X664752D01*
X667426Y614934D01*
X697797D01*
X699868Y617005D01*
X712575Y609508D02*
X714063Y608020D01*
X707312Y617005D02*
X712575Y611742D01*
Y609508D02*
Y611742D01*
X714063Y608020D02*
X723590D01*
X607060Y642620D02*
Y675640D01*
X358950Y372110D02*
X391160D01*
X358660Y372400D02*
X358950Y372110D01*
X699868Y617005D02*
X707312D01*
X446071Y754380D02*
X554990D01*
X567690Y741680D01*
X116840Y151130D02*
X124460Y158750D01*
X143385D02*
X156205Y171570D01*
X124460Y158750D02*
X143385D01*
X446071Y741680D02*
X515980D01*
X144780Y229870D02*
X162560D01*
Y252495D01*
Y221845D02*
Y229870D01*
X156205Y215490D02*
X162560Y221845D01*
X156205Y186570D02*
Y215490D01*
X91800Y151130D02*
X116840D01*
X515980Y741680D02*
X516890Y740770D01*
D15*
X358660Y321400D02*
D03*
Y440400D02*
D03*
Y423400D02*
D03*
Y474400D02*
D03*
Y389400D02*
D03*
Y372400D02*
D03*
Y355400D02*
D03*
Y338400D02*
D03*
Y406400D02*
D03*
Y457400D02*
D03*
X200660Y321400D02*
D03*
Y440400D02*
D03*
Y423400D02*
D03*
Y474400D02*
D03*
Y389400D02*
D03*
Y372400D02*
D03*
Y355400D02*
D03*
Y338400D02*
D03*
Y406400D02*
D03*
Y457400D02*
D03*
D16*
X374290Y703580D02*
D03*
X392790D02*
D03*
X73300Y561340D02*
D03*
X91800D02*
D03*
X75840Y617220D02*
D03*
X94340D02*
D03*
X74570Y673100D02*
D03*
X93070D02*
D03*
X73300Y219075D02*
D03*
X91800D02*
D03*
X73300Y287020D02*
D03*
X91800D02*
D03*
X91800Y151130D02*
D03*
X73300D02*
D03*
D17*
X174185Y254120D02*
D03*
Y259120D02*
D03*
Y264120D02*
D03*
Y269120D02*
D03*
X150935D02*
D03*
Y264120D02*
D03*
Y259120D02*
D03*
Y254120D02*
D03*
D18*
X167560Y270745D02*
D03*
X162560D02*
D03*
X157560D02*
D03*
Y252495D02*
D03*
X162560D02*
D03*
X167560D02*
D03*
D19*
X446071Y767080D02*
D03*
Y754380D02*
D03*
Y741680D02*
D03*
Y728980D02*
D03*
X399749D02*
D03*
Y741680D02*
D03*
Y754380D02*
D03*
D20*
Y767080D02*
D03*
D21*
X516890Y718460D02*
D03*
Y736960D02*
D03*
X171450Y795380D02*
D03*
Y776880D02*
D03*
X232410Y795380D02*
D03*
Y776880D02*
D03*
X187960Y89810D02*
D03*
Y108310D02*
D03*
X142240Y89810D02*
D03*
Y108310D02*
D03*
D22*
X161330Y186695D02*
D03*
X166330D02*
D03*
Y171445D02*
D03*
X161330D02*
D03*
D23*
X171455Y186570D02*
D03*
Y181570D02*
D03*
Y176570D02*
D03*
Y171570D02*
D03*
X156205D02*
D03*
Y176570D02*
D03*
Y181570D02*
D03*
Y186570D02*
D03*
D34*
X547370Y321410D02*
X675640Y449680D01*
Y450850D01*
X547370Y241300D02*
Y321410D01*
X733843Y658273D02*
X743590Y668020D01*
X733843Y604489D02*
Y658273D01*
X699553Y598273D02*
X727627D01*
X688734Y609092D02*
X699553Y598273D01*
X669846Y609092D02*
X688734D01*
X667172Y606418D02*
X669846Y609092D01*
X513502Y606418D02*
X667172D01*
X415151Y508067D02*
X513502Y606418D01*
X415151Y344031D02*
Y508067D01*
X313690Y242570D02*
X415151Y344031D01*
X360680Y280221D02*
X543429Y462970D01*
X727627Y598273D02*
X733843Y604489D01*
X543429Y462970D02*
X572770D01*
X360680Y228600D02*
Y280221D01*
X753337Y624489D02*
Y638273D01*
Y624489D02*
X760059Y617767D01*
X787627D01*
X743590Y648020D02*
X753337Y638273D01*
X491490Y568960D02*
X585470D01*
X598170Y581863D02*
Y584200D01*
X585470Y568960D02*
X590770Y574260D01*
Y574463D01*
X598170Y581863D01*
X655996Y624072D02*
Y634211D01*
X700059Y678273D01*
X673100Y501650D02*
Y596900D01*
X654344Y622420D02*
X655996Y624072D01*
X673100Y596900D02*
X674370Y598170D01*
X572770Y462970D02*
Y520700D01*
X292100Y160020D02*
X360680Y228600D01*
X796036Y497586D02*
Y559054D01*
X761420Y462970D02*
X796036Y497586D01*
X787627Y617767D02*
X802640Y602754D01*
X628650Y241300D02*
X802640Y415290D01*
Y602754D01*
X789971Y565119D02*
X796036Y559054D01*
X598170Y241300D02*
X628650D01*
X521970Y314960D02*
X645160Y438150D01*
X521970Y241300D02*
Y314960D01*
X75840Y108310D02*
X144780D01*
X164410Y474400D02*
X200660D01*
X266120D01*
X294640Y502920D01*
X161290Y328930D02*
X163671Y326549D01*
Y318924D02*
Y326549D01*
X157758Y313011D02*
X163671Y318924D01*
X157758Y297201D02*
Y313011D01*
Y297201D02*
X167560Y287399D01*
Y270745D02*
Y287399D01*
X91800Y561340D02*
Y617220D01*
Y671830D01*
X237490Y208280D02*
Y242570D01*
X294640Y502920D02*
X313690Y521970D01*
X288290Y509270D02*
Y521970D01*
X262890Y222250D02*
Y242570D01*
Y222250D02*
X285750Y199390D01*
X288290Y509270D02*
X294640Y502920D01*
X237490Y208280D02*
X270510Y175260D01*
X700059Y678273D02*
X713843D01*
X723590Y688020D01*
X645160Y438150D02*
X647700D01*
X571500Y655320D02*
Y655526D01*
X602536Y686562D02*
X636839D01*
X571500Y655526D02*
X602536Y686562D01*
X636839D02*
X642172Y681228D01*
X676475D01*
X683267Y688020D02*
X703590D01*
X676475Y681228D02*
X683267Y688020D01*
X598170Y462970D02*
X761420D01*
X572770D02*
X598170D01*
Y520700D01*
X678810Y708020D02*
X703590D01*
X662940Y692150D02*
X678810Y708020D01*
X163830Y160020D02*
X292100D01*
X53340Y170180D02*
X88900Y205740D01*
X53340Y130810D02*
X75840Y108310D01*
X53340Y130810D02*
Y170180D01*
X163195Y328930D02*
Y473185D01*
X145360Y474400D02*
X164410D01*
X96316Y523443D02*
X145360Y474400D01*
X163195Y473185D02*
X164410Y474400D01*
X96316Y523443D02*
Y556824D01*
X94015Y704885D02*
X109220Y720090D01*
X94015Y674045D02*
Y704885D01*
X109220Y720090D02*
X153670D01*
X91800Y561340D02*
X96316Y556824D01*
X153670Y720090D02*
X176530Y742950D01*
X91800Y671830D02*
X94015Y674045D01*
X129540Y328930D02*
X161290D01*
X116840Y287020D02*
Y316230D01*
X129540Y328930D01*
X163830Y160020D02*
Y171450D01*
Y156210D02*
Y160020D01*
X144780Y137160D02*
X163830Y156210D01*
X783590Y568020D02*
X785854D01*
X788755Y565119D01*
X789971D01*
X783590Y588020D02*
Y608020D01*
Y568020D02*
Y588020D01*
X116840Y287020D02*
X134740Y269120D01*
X150935D01*
X88900Y216175D02*
X91800Y219075D01*
X88900Y205740D02*
Y216175D01*
X144780Y108310D02*
Y137160D01*
Y108310D02*
X187960D01*
X91800Y219075D02*
Y287020D01*
X116840D01*
D35*
X358497Y389237D02*
X362490Y393230D01*
X372847D02*
X388911Y409295D01*
X388911D02*
Y489948D01*
X362490Y393230D02*
X372847D01*
X549534Y650571D02*
X551511D01*
X388911Y489948D02*
X549534Y650571D01*
X166330Y218572D02*
X167705Y219948D01*
X752975Y717405D02*
X763590Y728020D01*
X618490Y717550D02*
X684406D01*
X684530Y717405D02*
X752975D01*
X296124Y389237D02*
X358497D01*
X216710Y309823D02*
X296124Y389237D01*
X388911Y409295D02*
X388911D01*
X216710Y276458D02*
Y309823D01*
X209503Y269250D02*
X216710Y276458D01*
X202787Y269250D02*
X209503D01*
X195580Y262043D02*
X202787Y269250D01*
X195580Y243840D02*
Y262043D01*
X166330Y214590D02*
X195580Y243840D01*
X551511Y650571D02*
X618490Y717550D01*
X166330Y186695D02*
Y214590D01*
Y218338D01*
X167540Y220113D02*
Y252475D01*
X167560Y252495D01*
D36*
X783590Y668020D02*
X784413Y668843D01*
X788223D01*
X783590Y648020D02*
Y668020D01*
X775970Y767080D02*
X802640Y740410D01*
X788223Y668843D02*
X802640Y683260D01*
Y740410D01*
X442118Y767080D02*
X775970D01*
X613410Y744220D02*
X772160D01*
X551180Y681990D02*
X613410Y744220D01*
X772160D02*
X782767Y733613D01*
X372802Y704850D02*
X373504D01*
X375920Y707266D01*
Y724510D02*
X393090Y741680D01*
X375920Y707266D02*
Y724510D01*
X276378Y730732D02*
Y742161D01*
X283210Y723900D02*
X353752D01*
X275590Y742950D02*
X276378Y742161D01*
Y730732D02*
X283210Y723900D01*
X439411Y769787D02*
X442118Y767080D01*
X420370Y789940D02*
X439411Y770899D01*
Y769787D02*
Y770899D01*
X346710Y789940D02*
X420370D01*
X300990Y744220D02*
X346710Y789940D01*
X368060Y710060D02*
X372802Y705318D01*
X353752Y723900D02*
X367592Y710060D01*
X372802Y704850D02*
Y705318D01*
X367592Y710060D02*
X368060D01*
X168014Y773444D02*
X171450Y776880D01*
X151130Y742950D02*
Y762000D01*
X162574Y773444D01*
X168014D01*
X171450Y776880D02*
X232410D01*
X268330D01*
X300990Y744220D01*
X393090Y741680D02*
X399749D01*
X782767Y728843D02*
Y733613D01*
X783590Y708020D02*
Y728020D01*
Y688020D02*
Y708020D01*
X782767Y728843D02*
X783590Y728020D01*
X422910Y718820D02*
X459740Y681990D01*
X411480Y767080D02*
X422910Y755650D01*
Y718820D02*
Y755650D01*
X399749Y767080D02*
X411480D01*
X459740Y681990D02*
X551180D01*
X783590Y628020D02*
Y648020D01*
D37*
X496570Y241300D02*
D03*
X521970D02*
D03*
X547370D02*
D03*
X572770D02*
D03*
X598170D02*
D03*
X496570Y520700D02*
D03*
X521970D02*
D03*
X547370D02*
D03*
X572770D02*
D03*
X598170D02*
D03*
X212090Y242570D02*
D03*
X237490D02*
D03*
X262890D02*
D03*
X288290D02*
D03*
X313690D02*
D03*
X212090Y521970D02*
D03*
X237490D02*
D03*
X262890D02*
D03*
X288290D02*
D03*
X313690D02*
D03*
D38*
X326390Y742950D02*
D03*
X201930D02*
D03*
D39*
X300990D02*
D03*
X275590D02*
D03*
X151130D02*
D03*
X176530D02*
D03*
D40*
X703590Y728020D02*
D03*
D41*
Y708020D02*
D03*
Y688020D02*
D03*
Y668020D02*
D03*
Y648020D02*
D03*
Y628020D02*
D03*
Y608020D02*
D03*
Y588020D02*
D03*
Y568020D02*
D03*
Y548020D02*
D03*
Y528020D02*
D03*
Y508020D02*
D03*
X723590Y728020D02*
D03*
Y708020D02*
D03*
Y688020D02*
D03*
Y668020D02*
D03*
Y648020D02*
D03*
Y628020D02*
D03*
Y608020D02*
D03*
Y588020D02*
D03*
Y568020D02*
D03*
Y548020D02*
D03*
Y528020D02*
D03*
Y508020D02*
D03*
X743590Y728020D02*
D03*
Y708020D02*
D03*
Y688020D02*
D03*
Y668020D02*
D03*
Y648020D02*
D03*
Y628020D02*
D03*
Y608020D02*
D03*
Y588020D02*
D03*
Y568020D02*
D03*
Y548020D02*
D03*
Y528020D02*
D03*
Y508020D02*
D03*
X763590Y728020D02*
D03*
Y708020D02*
D03*
Y688020D02*
D03*
Y668020D02*
D03*
Y648020D02*
D03*
Y628020D02*
D03*
Y608020D02*
D03*
Y588020D02*
D03*
Y568020D02*
D03*
Y548020D02*
D03*
Y528020D02*
D03*
Y508020D02*
D03*
X783590Y728020D02*
D03*
Y708020D02*
D03*
Y688020D02*
D03*
Y668020D02*
D03*
Y648020D02*
D03*
Y628020D02*
D03*
Y608020D02*
D03*
Y588020D02*
D03*
Y568020D02*
D03*
Y548020D02*
D03*
Y528020D02*
D03*
Y508020D02*
D03*
D42*
X111760Y184150D02*
D03*
X38100Y217170D02*
D03*
X675640Y450850D02*
D03*
X491490Y568960D02*
D03*
X654344Y622420D02*
D03*
X674370Y598170D02*
D03*
X598170Y584200D02*
D03*
X285750Y199390D02*
D03*
X270510Y175260D02*
D03*
X673100Y501650D02*
D03*
X647700Y438150D02*
D03*
X571500Y655320D02*
D03*
X662940Y692150D02*
D03*
X391160Y372110D02*
D03*
X607060Y675640D02*
D03*
X567690Y741680D02*
D03*
X144780Y229870D02*
D03*
D43*
X823590Y678020D02*
D03*
Y558020D02*
D03*
M02*
