G04*
G04 #@! TF.GenerationSoftware,Altium Limited,Altium Designer,22.10.1 (41)*
G04*
G04 Layer_Color=32768*
%FSLAX44Y44*%
%MOMM*%
G71*
G04*
G04 #@! TF.SameCoordinates,F5FADBD9-E43F-4EF7-845D-54409DE5C24F*
G04*
G04*
G04 #@! TF.FilePolarity,Positive*
G04*
G01*
G75*
%ADD12C,0.1000*%
%ADD14C,0.2000*%
%ADD45C,0.0500*%
D12*
X300990Y737950D02*
Y747950D01*
X295990Y742950D02*
X305990D01*
X378540Y703580D02*
X388540D01*
X383540Y698580D02*
Y708580D01*
X694090Y498620D02*
Y737420D01*
X918590D01*
Y498620D02*
Y737420D01*
X694090Y498620D02*
X918590D01*
X82550Y556340D02*
Y566340D01*
X77550Y561340D02*
X87550D01*
X85090Y612220D02*
Y622220D01*
X80090Y617220D02*
X90090D01*
X511890Y727710D02*
X521890D01*
X516890Y722710D02*
Y732710D01*
X171530Y742950D02*
X181530D01*
X176530Y737950D02*
Y747950D01*
X83820Y668100D02*
Y678100D01*
X78820Y673100D02*
X88820D01*
X166450Y786130D02*
X176450D01*
X171450Y781130D02*
Y791130D01*
X227410Y786130D02*
X237410D01*
X232410Y781130D02*
Y791130D01*
X82550Y214075D02*
Y224075D01*
X77550Y219075D02*
X87550D01*
X82550Y282020D02*
Y292020D01*
X77550Y287020D02*
X87550D01*
X182960Y99060D02*
X192960D01*
X187960Y94060D02*
Y104060D01*
X137240Y99060D02*
X147240D01*
X142240Y94060D02*
Y104060D01*
X82550Y146130D02*
Y156130D01*
X77550Y151130D02*
X87550D01*
D14*
X142060Y243620D02*
X183060D01*
X142060D02*
Y279620D01*
X183060D01*
Y243620D02*
Y279620D01*
X389379Y722530D02*
Y773530D01*
Y722530D02*
X456441D01*
Y773530D01*
X389379D02*
X456441D01*
X148080Y163320D02*
Y194820D01*
Y163320D02*
X179580D01*
Y194820D01*
X148080D02*
X179580D01*
D45*
X362040Y690580D02*
Y716580D01*
X405040Y690580D02*
Y716580D01*
X362040D02*
X405040D01*
X362040Y690580D02*
X405040D01*
X61050Y574340D02*
X104050D01*
X61050Y548340D02*
X104050D01*
X61050D02*
Y574340D01*
X104050Y548340D02*
Y574340D01*
X63590Y630220D02*
X106590D01*
X63590Y604220D02*
X106590D01*
X63590D02*
Y630220D01*
X106590Y604220D02*
Y630220D01*
X503890Y706210D02*
Y749210D01*
X529890Y706210D02*
Y749210D01*
X503890Y706210D02*
X529890D01*
X503890Y749210D02*
X529890D01*
X62320Y686100D02*
X105320D01*
X62320Y660100D02*
X105320D01*
X62320D02*
Y686100D01*
X105320Y660100D02*
Y686100D01*
X184450Y764630D02*
Y807630D01*
X158450Y764630D02*
Y807630D01*
X184450D01*
X158450Y764630D02*
X184450D01*
X245410D02*
Y807630D01*
X219410Y764630D02*
Y807630D01*
X245410D01*
X219410Y764630D02*
X245410D01*
X61050Y232075D02*
X104050D01*
X61050Y206075D02*
X104050D01*
X61050D02*
Y232075D01*
X104050Y206075D02*
Y232075D01*
X61050Y300020D02*
X104050D01*
X61050Y274020D02*
X104050D01*
X61050D02*
Y300020D01*
X104050Y274020D02*
Y300020D01*
X174960Y77560D02*
Y120560D01*
X200960Y77560D02*
Y120560D01*
X174960Y77560D02*
X200960D01*
X174960Y120560D02*
X200960D01*
X129240Y77560D02*
Y120560D01*
X155240Y77560D02*
Y120560D01*
X129240Y77560D02*
X155240D01*
X129240Y120560D02*
X155240D01*
X61050Y138130D02*
X104050D01*
X61050Y164130D02*
X104050D01*
Y138130D02*
Y164130D01*
X61050Y138130D02*
Y164130D01*
M02*
