M48
;Layer_Color=9474304
;FILE_FORMAT=2:4
METRIC,LZ
;TYPE=PLATED
T1F00S00C0.2540
T2F00S00C0.3810
T3F00S00C0.9000
T4F00S00C1.0200
T5F00S00C1.1000
T6F00S00C1.1100
T7F00S00C1.2700
T8F00S00C3.0000
%
T01
X2794Y1778
X28194Y24384
T02
X40894Y18288
X42164Y17526
T03
X08696Y04809
X11196
X13696
X16196
X22412
X24912
X27412
X29912
X35854Y04826
X38354
X38414Y39133
X3169
X2919
X2669
X2419
X17232Y39116
X14732
X12232
X09732
X03048Y19558
Y17058
Y14558
Y12058
X40854Y04826
X43354
X43414Y39133
X45914
X40914
X53146
X55646
X58146
X60646
T04
X1524Y3302
X1778
T05
X037446Y275536
Y300936
Y326336
T06
X09398Y13462
X11938
X14478
X17018
X19558
X22098
X24638
X27178
X29718
X32258
X34798
X37338
X25908Y16512
X23368
X20828
X18288
X15748
X11938Y26162
Y28702
X09398
X14478
X17018
X19558
X22098
X24638
X27178
X29718
X32258
X34798
X37338
X39878
X42418
X44958
X47498
X50038
X52578
X55118
Y26162
Y23622
Y21082
Y18542
Y16002
Y13462
X57658
X60198
X62738
X65278
X67818
Y28702
X65278
X62738
X60198
X57658
X52578Y13462
X50038
X47498
X44958
X42418
X39878
T07
X52832Y0508
X55372
X57912
X60452
X62992
Y3302
X60452
X57912
X55372
X52832
T08
X0381Y0381
Y381
X6731
Y0381
M30
