M48
;Layer_Color=9474304
;FILE_FORMAT=2:4
METRIC,LZ
;TYPE=PLATED
T1F00S00C0.9000
T2F00S00C1.0200
T3F00S00C1.1000
T4F00S00C1.1100
T5F00S00C3.0000
%
T01
X11724Y37338
X14224
X16724
X19224
X25186
X27686
X30186
X32686
X38648
X41148
X43648
X46148
X5213Y37355
X5463
X5713
X5963
X56308Y10414
X53808
X51308
X48808
T02
X1397Y0655
Y0909
T03
X0381Y2179
Y2433
Y2687
T04
X0889Y1544
X1143
X1397
X1651
X1905
X2159
X2413
X2667
X2921
X3175
X3429
X3683
X3937
Y3068
X3683
X3429
X3175
X2921
X2667
X2413
X2159
X1905
X1651
X1397
X1143
X0889
X1143Y2814
X1524Y1849
X1778
X2032
X2286
X254
X4191Y1544
X4445
X4699
X4953
X5207
X5461
X5715
X5969
X6223
X6477
X6731
Y3068
X6477
X6223
X5969
X5715
X5461
X5207
X4953
X4699
X4445
X4191
X5461Y2814
Y256
Y2306
Y2052
Y1798
T05
X0508Y0508
Y3683
X6604
Y0508
M30
