G04*
G04 #@! TF.GenerationSoftware,Altium Limited,Altium Designer,23.3.1 (30)*
G04*
G04 Layer_Color=16711935*
%FSLAX44Y44*%
%MOMM*%
G71*
G04*
G04 #@! TF.SameCoordinates,7DDBB174-5A1B-4199-9A96-CB190E09B0CA*
G04*
G04*
G04 #@! TF.FilePolarity,Positive*
G04*
G01*
G75*
%ADD14C,0.2540*%
%ADD64C,0.1778*%
%ADD65C,0.1500*%
D14*
X850000D01*
X0Y850000D02*
X850000D01*
Y0D02*
Y850000D01*
X0Y0D02*
Y850000D01*
D64*
X509270Y397507D02*
Y389043D01*
X507577Y387350D01*
X504192D01*
X502499Y389043D01*
Y397507D01*
X492342D02*
X495728Y395814D01*
X499113Y392428D01*
Y389043D01*
X497421Y387350D01*
X494035D01*
X492342Y389043D01*
Y390736D01*
X494035Y392428D01*
X499113D01*
X563883Y219710D02*
X572347D01*
X574040Y218017D01*
Y214632D01*
X572347Y212939D01*
X563883D01*
Y202782D02*
Y209553D01*
X568962D01*
X567269Y206168D01*
Y204475D01*
X568962Y202782D01*
X572347D01*
X574040Y204475D01*
Y207861D01*
X572347Y209553D01*
D65*
X310390Y426137D02*
Y419473D01*
X309057Y418140D01*
X306391D01*
X305058Y419473D01*
Y426137D01*
X302393Y418140D02*
X299727D01*
X301060D01*
Y426137D01*
X302393Y424804D01*
M02*
