G04*
G04 #@! TF.GenerationSoftware,Altium Limited,Altium Designer,22.10.1 (41)*
G04*
G04 Layer_Physical_Order=2*
G04 Layer_Color=16711680*
%FSLAX44Y44*%
%MOMM*%
G71*
G04*
G04 #@! TF.SameCoordinates,893357DB-CB06-46F0-9665-1AF58A0A3231*
G04*
G04*
G04 #@! TF.FilePolarity,Positive*
G04*
G01*
G75*
%ADD29R,1.5700X1.5700*%
%ADD30C,1.5700*%
%ADD35C,0.3048*%
%ADD36C,0.2032*%
%ADD37C,1.6650*%
%ADD38R,1.2430X1.2430*%
%ADD39C,1.2430*%
%ADD40C,0.6858*%
%ADD41C,0.7620*%
%ADD42C,0.4064*%
%ADD43C,2.5400*%
%ADD44C,0.3048*%
G04:AMPARAMS|DCode=45|XSize=0.6mm|YSize=1.65mm|CornerRadius=0.051mm|HoleSize=0mm|Usage=FLASHONLY|Rotation=180.000|XOffset=0mm|YOffset=0mm|HoleType=Round|Shape=RoundedRectangle|*
%AMROUNDEDRECTD45*
21,1,0.6000,1.5480,0,0,180.0*
21,1,0.4980,1.6500,0,0,180.0*
1,1,0.1020,-0.2490,0.7740*
1,1,0.1020,0.2490,0.7740*
1,1,0.1020,0.2490,-0.7740*
1,1,0.1020,-0.2490,-0.7740*
%
%ADD45ROUNDEDRECTD45*%
%ADD46R,0.4800X0.4000*%
G04:AMPARAMS|DCode=47|XSize=0.65mm|YSize=1.65mm|CornerRadius=0.0488mm|HoleSize=0mm|Usage=FLASHONLY|Rotation=90.000|XOffset=0mm|YOffset=0mm|HoleType=Round|Shape=RoundedRectangle|*
%AMROUNDEDRECTD47*
21,1,0.6500,1.5525,0,0,90.0*
21,1,0.5525,1.6500,0,0,90.0*
1,1,0.0975,0.7763,0.2763*
1,1,0.0975,0.7763,-0.2763*
1,1,0.0975,-0.7763,-0.2763*
1,1,0.0975,-0.7763,0.2763*
%
%ADD47ROUNDEDRECTD47*%
%ADD48R,1.0000X1.3500*%
%ADD49R,1.1500X1.3500*%
%ADD50R,1.7000X1.1000*%
%ADD51R,1.2000X2.0000*%
%ADD52R,1.3500X1.0000*%
G36*
X846115Y3884D02*
X3884D01*
Y222080D01*
X5155Y222607D01*
X37427Y190334D01*
X38435Y189661D01*
X39624Y189424D01*
X57541D01*
X57902Y188333D01*
X57909Y188154D01*
X56507Y186752D01*
X55558Y185108D01*
X52714D01*
X51525Y184871D01*
X50517Y184198D01*
X46571Y180252D01*
X45897Y179243D01*
X45660Y178054D01*
Y59182D01*
X45897Y57993D01*
X46571Y56985D01*
X54699Y48857D01*
X55707Y48183D01*
X56896Y47946D01*
X749554D01*
X750743Y48183D01*
X751751Y48857D01*
X824886Y121991D01*
X825508Y121632D01*
X828013Y120961D01*
X830607D01*
X833112Y121632D01*
X835357Y122929D01*
X837191Y124763D01*
X838488Y127008D01*
X839159Y129513D01*
Y132107D01*
X838488Y134612D01*
X837191Y136857D01*
X835357Y138691D01*
X833112Y139988D01*
X832418Y140174D01*
Y150876D01*
X832181Y152065D01*
X831507Y153074D01*
X757488Y227093D01*
Y245308D01*
X758758Y245834D01*
X759763Y244829D01*
X762008Y243532D01*
X764513Y242861D01*
X767107D01*
X769612Y243532D01*
X771857Y244829D01*
X773691Y246663D01*
X774988Y248909D01*
X775659Y251413D01*
Y254007D01*
X774988Y256512D01*
X773691Y258758D01*
X771857Y260591D01*
X769612Y261888D01*
X767107Y262559D01*
X764513D01*
X762008Y261888D01*
X759763Y260591D01*
X758758Y259587D01*
X757488Y260096D01*
X757251Y261285D01*
X756578Y262293D01*
X752514Y266357D01*
X751505Y267031D01*
X750316Y267268D01*
X700295D01*
X691448Y276115D01*
Y280788D01*
X692718Y280955D01*
X693132Y279408D01*
X694429Y277163D01*
X696263Y275329D01*
X698508Y274032D01*
X701013Y273361D01*
X703607D01*
X706112Y274032D01*
X708357Y275329D01*
X710191Y277163D01*
X711488Y279408D01*
X712159Y281913D01*
Y284507D01*
X711488Y287012D01*
X710191Y289257D01*
X708357Y291091D01*
X706112Y292388D01*
X703607Y293059D01*
X701013D01*
X698508Y292388D01*
X697422Y291761D01*
X654392Y334791D01*
X653551Y335352D01*
X652560Y335549D01*
X652371D01*
X651899Y336689D01*
X650506Y338082D01*
X648685Y338836D01*
X646715D01*
X644894Y338082D01*
X643501Y336689D01*
X642747Y334868D01*
Y332898D01*
X643208Y331784D01*
X642405Y330514D01*
X627143D01*
X617638Y340019D01*
Y344006D01*
X622054D01*
Y367054D01*
X607006D01*
Y344006D01*
X611422D01*
Y338732D01*
X611659Y337543D01*
X612333Y336534D01*
X623658Y325209D01*
X624667Y324535D01*
X625856Y324298D01*
X633680D01*
Y323058D01*
X633464Y322969D01*
X632071Y321576D01*
X631317Y319755D01*
Y317785D01*
X632071Y315964D01*
X633464Y314571D01*
X635285Y313817D01*
X637255D01*
X639076Y314571D01*
X640469Y315964D01*
X641223Y317785D01*
Y319755D01*
X640469Y321576D01*
X639076Y322969D01*
X638860Y323058D01*
Y324298D01*
X648953D01*
X679123Y294128D01*
X678465Y292990D01*
X678207Y293059D01*
X675613D01*
X673108Y292388D01*
X670863Y291091D01*
X669029Y289257D01*
X667732Y287012D01*
X667061Y284507D01*
Y281913D01*
X667442Y280491D01*
X659994Y275969D01*
X659204Y276975D01*
X659391Y277163D01*
X660688Y279408D01*
X661359Y281913D01*
Y284507D01*
X660688Y287012D01*
X659391Y289257D01*
X657557Y291091D01*
X655312Y292388D01*
X652807Y293059D01*
X650213D01*
X647708Y292388D01*
X645463Y291091D01*
X643629Y289257D01*
X642332Y287012D01*
X641661Y284507D01*
Y281913D01*
X642332Y279408D01*
X643629Y277163D01*
X645463Y275329D01*
X647708Y274032D01*
X650213Y273361D01*
X652807D01*
X653602Y273574D01*
X654106Y272394D01*
X643633Y266036D01*
X642335Y266573D01*
X640365D01*
X638544Y265819D01*
X637151Y264426D01*
X636397Y262605D01*
Y260635D01*
X637151Y258814D01*
X638544Y257421D01*
X640365Y256667D01*
X642335D01*
X644156Y257421D01*
X645549Y258814D01*
X646303Y260635D01*
Y261597D01*
X670128Y276063D01*
X670863Y275329D01*
X673108Y274032D01*
X675613Y273361D01*
X678207D01*
X680712Y274032D01*
X682957Y275329D01*
X683962Y276334D01*
X685232Y275808D01*
Y274828D01*
X685469Y273639D01*
X686143Y272631D01*
X696811Y261963D01*
X697819Y261289D01*
X699008Y261052D01*
X707627D01*
X708154Y259782D01*
X707129Y258758D01*
X705832Y256512D01*
X705161Y254007D01*
Y251413D01*
X705832Y248909D01*
X707129Y246663D01*
X708132Y245660D01*
X707813Y244314D01*
X707738Y244257D01*
X706845Y244435D01*
X697059D01*
X696533Y245705D01*
X697491Y246663D01*
X698788Y248909D01*
X699459Y251413D01*
Y251694D01*
X689610D01*
X679761D01*
Y251413D01*
X680432Y248909D01*
X681729Y246663D01*
X682687Y245705D01*
X682161Y244435D01*
X671659D01*
X671133Y245705D01*
X672091Y246663D01*
X673388Y248909D01*
X674059Y251413D01*
Y251694D01*
X664210D01*
X654361D01*
Y251413D01*
X655032Y248909D01*
X656329Y246663D01*
X657287Y245705D01*
X656761Y244435D01*
X648895D01*
X635257Y258072D01*
X634417Y258634D01*
X633426Y258831D01*
X630792D01*
X630324Y260101D01*
X631386Y261163D01*
X632140Y262984D01*
Y264954D01*
X631386Y266775D01*
X629993Y268168D01*
X628172Y268922D01*
X626202D01*
X624599Y268258D01*
X616518Y276339D01*
Y277586D01*
X617788Y277927D01*
X618229Y277163D01*
X620063Y275329D01*
X622308Y274032D01*
X624813Y273361D01*
X627407D01*
X629912Y274032D01*
X632157Y275329D01*
X633991Y277163D01*
X635288Y279408D01*
X635959Y281913D01*
Y284507D01*
X635288Y287012D01*
X633991Y289257D01*
X632157Y291091D01*
X629912Y292388D01*
X627407Y293059D01*
X624813D01*
X622308Y292388D01*
X620063Y291091D01*
X618229Y289257D01*
X617788Y288493D01*
X616518Y288834D01*
Y298363D01*
X617609Y299454D01*
X618363Y301275D01*
Y303245D01*
X617609Y305066D01*
X616216Y306459D01*
X614395Y307213D01*
X612425D01*
X610604Y306459D01*
X609211Y305066D01*
X608457Y303245D01*
Y301275D01*
X609211Y299454D01*
X610302Y298363D01*
Y288834D01*
X609032Y288493D01*
X608591Y289257D01*
X606757Y291091D01*
X604512Y292388D01*
X602007Y293059D01*
X599413D01*
X596908Y292388D01*
X594663Y291091D01*
X592829Y289257D01*
X591532Y287012D01*
X590861Y284507D01*
Y281913D01*
X591532Y279408D01*
X592829Y277163D01*
X594663Y275329D01*
X596104Y274497D01*
X595764Y273227D01*
X580257D01*
X579916Y274497D01*
X581357Y275329D01*
X583191Y277163D01*
X584488Y279408D01*
X585159Y281913D01*
Y284507D01*
X584488Y287012D01*
X583191Y289257D01*
X581357Y291091D01*
X579112Y292388D01*
X576607Y293059D01*
X574013D01*
X571508Y292388D01*
X569263Y291091D01*
X567429Y289257D01*
X566132Y287012D01*
X565461Y284507D01*
Y281913D01*
X566132Y279408D01*
X567429Y277163D01*
X569263Y275329D01*
X570704Y274497D01*
X570364Y273227D01*
X566898D01*
X566809Y273443D01*
X565416Y274836D01*
X563595Y275590D01*
X563114D01*
X562588Y276860D01*
X562606Y276878D01*
X563168Y277719D01*
X563365Y278710D01*
Y287710D01*
X563168Y288701D01*
X562606Y289542D01*
X537933Y314215D01*
X537092Y314777D01*
X536101Y314974D01*
X497678D01*
X473763Y338889D01*
X472923Y339451D01*
X471932Y339648D01*
X455547D01*
X454556Y339451D01*
X453716Y338889D01*
X452188Y337362D01*
X440398D01*
X428457Y349303D01*
X427616Y349865D01*
X426625Y350062D01*
X368013D01*
X359838Y358237D01*
X360240Y359630D01*
X361670Y360222D01*
X363170Y361722D01*
X363982Y363683D01*
Y365683D01*
X370857Y372558D01*
X443366D01*
X443852Y371385D01*
X443788Y371321D01*
X442976Y369361D01*
Y367239D01*
X443788Y365279D01*
X445289Y363778D01*
X447249Y362966D01*
X449371D01*
X451331Y363778D01*
X452746Y365192D01*
X454606D01*
Y352369D01*
X454119Y352044D01*
X452075D01*
X450115Y351232D01*
X448614Y349731D01*
X447802Y347771D01*
Y345649D01*
X448614Y343689D01*
X450115Y342188D01*
X452075Y341376D01*
X454197D01*
X456157Y342188D01*
X457658Y343689D01*
X458470Y345649D01*
Y346650D01*
X461130D01*
X462319Y346887D01*
X463327Y347561D01*
X464001Y348569D01*
X464238Y349758D01*
Y349866D01*
X467654D01*
Y365192D01*
X469392D01*
X469606Y365017D01*
Y349866D01*
X482654D01*
Y355032D01*
X490166D01*
Y349866D01*
X503214D01*
Y366170D01*
X504190Y366729D01*
X505166Y366170D01*
X505166Y365700D01*
Y359156D01*
X511690D01*
X518214D01*
Y365700D01*
X518214Y366414D01*
X519254Y366970D01*
X526034D01*
X527223Y367207D01*
X528232Y367881D01*
X537481Y377130D01*
X578866D01*
X580055Y377367D01*
X581063Y378041D01*
X588236Y385213D01*
X589506Y384687D01*
Y373506D01*
X609554D01*
Y386020D01*
X697467D01*
X711454Y372033D01*
Y370033D01*
X712162Y368324D01*
X711625Y367054D01*
X707006D01*
Y344006D01*
X722054D01*
Y367054D01*
X721951D01*
X721414Y368324D01*
X722122Y370033D01*
Y372155D01*
X721310Y374115D01*
X719809Y375616D01*
X717849Y376428D01*
X715849D01*
X700952Y391325D01*
X699943Y391999D01*
X698754Y392236D01*
X587756D01*
X586567Y391999D01*
X585559Y391325D01*
X577579Y383346D01*
X536194D01*
X535005Y383109D01*
X533997Y382435D01*
X524747Y373186D01*
X501262D01*
X500073Y372949D01*
X499064Y372276D01*
X494492Y367704D01*
X493819Y366695D01*
X493763Y366414D01*
X490166D01*
Y361248D01*
X482654D01*
Y366414D01*
X473560D01*
X473074Y367587D01*
X478328Y372841D01*
X479001Y373849D01*
X479030Y373996D01*
X482654D01*
Y379162D01*
X486923D01*
X487188Y377949D01*
X487189Y377892D01*
X485698Y376401D01*
X484886Y374441D01*
Y372319D01*
X485698Y370359D01*
X487198Y368858D01*
X489159Y368046D01*
X491281D01*
X493242Y368858D01*
X494742Y370359D01*
X495554Y372319D01*
Y373719D01*
X500157Y378322D01*
X500440Y378746D01*
X502784D01*
Y385794D01*
X494936D01*
Y385378D01*
X482654D01*
Y390544D01*
X469606D01*
Y373996D01*
X469606D01*
X469925Y373227D01*
X468105Y371408D01*
X461855D01*
X461730Y372678D01*
X462319Y372795D01*
X463327Y373469D01*
X463680Y373996D01*
X467654D01*
Y390544D01*
X454606D01*
Y378774D01*
X369570D01*
X368381Y378537D01*
X367373Y377864D01*
X359587Y370078D01*
X357587D01*
X355626Y369266D01*
X354126Y367766D01*
X353534Y366336D01*
X352141Y365934D01*
X345661Y372414D01*
Y400109D01*
X345463Y401100D01*
X344902Y401940D01*
X332703Y414139D01*
Y418052D01*
X333097Y418532D01*
X347763D01*
X348611Y417262D01*
X348234Y416351D01*
Y414229D01*
X349046Y412268D01*
X350546Y410768D01*
X352507Y409956D01*
X354629D01*
X356590Y410768D01*
X358090Y412268D01*
X358902Y414229D01*
Y416229D01*
X385523Y442850D01*
X386696Y442364D01*
Y434046D01*
X403244D01*
Y437462D01*
X432054D01*
Y437089D01*
X432866Y435129D01*
X434366Y433628D01*
X436327Y432816D01*
X438449D01*
X440410Y433628D01*
X441910Y435129D01*
X442722Y437089D01*
Y439211D01*
X442218Y440428D01*
X442780Y441041D01*
X443210Y441350D01*
X444276Y441138D01*
X454509D01*
X455670Y439977D01*
X455184Y438804D01*
X454606D01*
Y422256D01*
X467654D01*
Y438804D01*
X464238D01*
Y438912D01*
X464001Y440101D01*
X463327Y441110D01*
X459224Y445213D01*
X459710Y446386D01*
X467654D01*
Y461458D01*
X469606D01*
Y446386D01*
X482654D01*
Y451552D01*
X491436D01*
Y446386D01*
X501131D01*
X501517Y445116D01*
X500842Y444665D01*
X495762Y439585D01*
X495089Y438577D01*
X494852Y437388D01*
Y433638D01*
X482654D01*
Y438804D01*
X469606D01*
Y422256D01*
X482654D01*
Y427422D01*
X494732D01*
Y426076D01*
X493318Y424661D01*
X492506Y422701D01*
Y420579D01*
X493318Y418619D01*
X494818Y417118D01*
X496779Y416306D01*
X498901D01*
X500862Y417118D01*
X502362Y418619D01*
X503174Y420579D01*
Y422701D01*
X502362Y424661D01*
X500948Y426076D01*
Y428276D01*
X502784D01*
Y435324D01*
X502087D01*
X501561Y436594D01*
X504327Y439360D01*
X541257D01*
X551777Y428840D01*
X552785Y428167D01*
X553974Y427930D01*
X588392D01*
X589506Y427554D01*
X589506Y426660D01*
Y413506D01*
X609554D01*
X609554Y427554D01*
X610668Y427930D01*
X611079D01*
X612268Y428167D01*
X613276Y428840D01*
X614777Y430341D01*
X616100Y429868D01*
X616762Y428270D01*
X618262Y426770D01*
X620223Y425958D01*
X622223D01*
X629246Y418935D01*
X630255Y418261D01*
X631444Y418024D01*
X650884D01*
X652299Y416610D01*
X654259Y415798D01*
X656381D01*
X658342Y416610D01*
X659842Y418111D01*
X660654Y420071D01*
Y422193D01*
X659842Y424154D01*
X658342Y425654D01*
X656381Y426466D01*
X654259D01*
X652299Y425654D01*
X650884Y424240D01*
X632731D01*
X626618Y430353D01*
Y432353D01*
X626463Y432727D01*
X627260Y434121D01*
X627713Y434184D01*
X632040Y429856D01*
X633049Y429183D01*
X634238Y428946D01*
X690880D01*
X692069Y429183D01*
X693077Y429856D01*
X697395Y434174D01*
X698069Y435183D01*
X698306Y436372D01*
Y445770D01*
X698069Y446959D01*
X697395Y447967D01*
X686219Y459143D01*
X685211Y459817D01*
X684022Y460054D01*
X638166D01*
X636752Y461468D01*
X634791Y462280D01*
X632669D01*
X630709Y461468D01*
X629208Y459967D01*
X628396Y458007D01*
Y455885D01*
X629208Y453924D01*
X629526Y453607D01*
X629039Y452434D01*
X610031D01*
X609554Y453506D01*
Y467554D01*
X589506D01*
Y463638D01*
X576569D01*
X573786Y466421D01*
Y468421D01*
X573198Y469840D01*
X573904Y471110D01*
X583167D01*
X584543Y469734D01*
X585551Y469061D01*
X586740Y468824D01*
X666378D01*
X667793Y467410D01*
X669753Y466598D01*
X671875D01*
X673836Y467410D01*
X675336Y468910D01*
X676148Y470871D01*
Y472993D01*
X675336Y474953D01*
X673836Y476454D01*
X671875Y477266D01*
X669753D01*
X667793Y476454D01*
X666378Y475040D01*
X609554D01*
Y477422D01*
X612140D01*
X613329Y477659D01*
X613511Y477780D01*
X613619Y477736D01*
X615741D01*
X617701Y478548D01*
X619202Y480048D01*
X620014Y482009D01*
Y484131D01*
X619202Y486091D01*
X617701Y487592D01*
X615741Y488404D01*
X613619D01*
X611659Y487592D01*
X610824Y486757D01*
X609554Y487283D01*
Y487554D01*
X589506D01*
Y483638D01*
X563935D01*
X546265Y501307D01*
X545257Y501981D01*
X544068Y502218D01*
X523605D01*
X522966Y503174D01*
X519430D01*
Y505206D01*
X522858D01*
X522673Y505654D01*
X523384Y506924D01*
X596274D01*
X597688Y505510D01*
X599649Y504698D01*
X601771D01*
X603731Y505510D01*
X605232Y507010D01*
X605736Y508228D01*
X607006Y507975D01*
Y506546D01*
X613514D01*
Y517054D01*
X607006D01*
Y512089D01*
X605736Y511836D01*
X605232Y513054D01*
X603731Y514554D01*
X601771Y515366D01*
X599649D01*
X597688Y514554D01*
X596274Y513140D01*
X481338D01*
X480148Y512903D01*
X479140Y512229D01*
X478213Y511302D01*
X476205D01*
X474244Y510490D01*
X472830Y509076D01*
X425568D01*
X424154Y510490D01*
X422193Y511302D01*
X420071D01*
X418111Y510490D01*
X416610Y508989D01*
X415798Y507029D01*
Y504907D01*
X416386Y503488D01*
X415680Y502218D01*
X408449D01*
X404280Y506387D01*
X403271Y507061D01*
X402082Y507298D01*
X193040D01*
X192916Y507273D01*
X192290Y508443D01*
X204741Y520894D01*
X630056D01*
X631470Y519480D01*
X633431Y518668D01*
X635553D01*
X637514Y519480D01*
X639014Y520980D01*
X639826Y522941D01*
Y525063D01*
X639014Y527024D01*
X638696Y527341D01*
X639183Y528514D01*
X664972D01*
X666161Y528751D01*
X667169Y529425D01*
X690537Y552793D01*
X691211Y553801D01*
X691448Y554990D01*
Y571618D01*
X692718Y571785D01*
X693132Y570238D01*
X694429Y567993D01*
X696263Y566159D01*
X698508Y564862D01*
X701013Y564191D01*
X703607D01*
X706112Y564862D01*
X708357Y566159D01*
X710191Y567993D01*
X711488Y570238D01*
X712159Y572743D01*
Y575337D01*
X711488Y577842D01*
X710191Y580087D01*
X708357Y581921D01*
X706112Y583218D01*
X703607Y583889D01*
X701013D01*
X698508Y583218D01*
X696263Y581921D01*
X694429Y580087D01*
X693132Y577842D01*
X692718Y576295D01*
X691448Y576462D01*
Y581152D01*
X691211Y582341D01*
X690537Y583349D01*
X685203Y588684D01*
X684195Y589357D01*
X683006Y589594D01*
X663956D01*
X662767Y589357D01*
X661758Y588684D01*
X655934Y582859D01*
X655312Y583218D01*
X652807Y583889D01*
X650213D01*
X647708Y583218D01*
X645463Y581921D01*
X643629Y580087D01*
X642332Y577842D01*
X641661Y575337D01*
Y572743D01*
X642332Y570238D01*
X643629Y567993D01*
X644634Y566988D01*
X644108Y565718D01*
X633512D01*
X632986Y566988D01*
X633991Y567993D01*
X635288Y570238D01*
X635959Y572743D01*
Y575337D01*
X635288Y577842D01*
X633991Y580087D01*
X632157Y581921D01*
X629912Y583218D01*
X627407Y583889D01*
X624813D01*
X622308Y583218D01*
X620063Y581921D01*
X618229Y580087D01*
X616932Y577842D01*
X616261Y575337D01*
Y572743D01*
X616932Y570238D01*
X618229Y567993D01*
X619234Y566988D01*
X618708Y565718D01*
X608112D01*
X607586Y566988D01*
X608591Y567993D01*
X609888Y570238D01*
X610559Y572743D01*
Y575337D01*
X609888Y577842D01*
X609529Y578464D01*
X652797Y621732D01*
X692946D01*
X693132Y621038D01*
X694429Y618793D01*
X696263Y616959D01*
X698508Y615662D01*
X701013Y614991D01*
X703607D01*
X706112Y615662D01*
X708357Y616959D01*
X710191Y618793D01*
X711488Y621038D01*
X712159Y623543D01*
Y626137D01*
X711488Y628642D01*
X710191Y630887D01*
X709186Y631892D01*
X709712Y633162D01*
X714993D01*
X761940Y586215D01*
Y580862D01*
X760670Y580408D01*
X759157Y581921D01*
X756912Y583218D01*
X754407Y583889D01*
X751813D01*
X749308Y583218D01*
X747063Y581921D01*
X745229Y580087D01*
X743932Y577842D01*
X743261Y575337D01*
Y572743D01*
X743932Y570238D01*
X745229Y567993D01*
X747063Y566159D01*
X749308Y564862D01*
X751813Y564191D01*
X754407D01*
X756912Y564862D01*
X759157Y566159D01*
X760670Y567672D01*
X761940Y567218D01*
Y517054D01*
X747006D01*
Y494006D01*
X761940D01*
Y367054D01*
X747006D01*
Y344006D01*
X761940D01*
Y296672D01*
X762177Y295483D01*
X762850Y294475D01*
X769691Y287634D01*
X769332Y287012D01*
X768661Y284507D01*
Y281913D01*
X769332Y279408D01*
X770629Y277163D01*
X772463Y275329D01*
X774708Y274032D01*
X777213Y273361D01*
X779807D01*
X782312Y274032D01*
X784557Y275329D01*
X786391Y277163D01*
X787688Y279408D01*
X788359Y281913D01*
Y284507D01*
X787688Y287012D01*
X786391Y289257D01*
X784557Y291091D01*
X782312Y292388D01*
X779807Y293059D01*
X777213D01*
X774708Y292388D01*
X774086Y292029D01*
X768156Y297959D01*
Y348025D01*
X769426Y348873D01*
X769626Y348790D01*
X839530D01*
X840696Y349273D01*
X841180Y350440D01*
Y510530D01*
X840696Y511696D01*
X839530Y512180D01*
X769626D01*
X769426Y512097D01*
X768156Y512945D01*
Y569215D01*
X768366Y569371D01*
X770032Y569027D01*
X770629Y567993D01*
X772463Y566159D01*
X774708Y564862D01*
X777213Y564191D01*
X779807D01*
X782312Y564862D01*
X784557Y566159D01*
X786391Y567993D01*
X787688Y570238D01*
X788359Y572743D01*
Y575337D01*
X787688Y577842D01*
X786391Y580087D01*
X784557Y581921D01*
X782312Y583218D01*
X779807Y583889D01*
X777213D01*
X774708Y583218D01*
X772463Y581921D01*
X770629Y580087D01*
X770032Y579053D01*
X768366Y578709D01*
X768156Y578866D01*
Y587502D01*
X767919Y588691D01*
X767245Y589700D01*
X718477Y638467D01*
X717469Y639141D01*
X716280Y639378D01*
X704732D01*
X704565Y640648D01*
X706112Y641062D01*
X708357Y642359D01*
X710191Y644193D01*
X711488Y646438D01*
X712159Y648943D01*
Y649224D01*
X692461D01*
Y648943D01*
X693132Y646438D01*
X694429Y644193D01*
X696263Y642359D01*
X698508Y641062D01*
X700055Y640648D01*
X699888Y639378D01*
X640588D01*
X639399Y639141D01*
X638391Y638467D01*
X628088Y628165D01*
X611750D01*
X611224Y629435D01*
X692167Y710378D01*
X696246D01*
X696587Y709108D01*
X696263Y708921D01*
X694429Y707087D01*
X693132Y704842D01*
X692461Y702337D01*
Y699743D01*
X693132Y697238D01*
X694429Y694993D01*
X696263Y693159D01*
X698508Y691862D01*
X701013Y691191D01*
X703607D01*
X706112Y691862D01*
X708357Y693159D01*
X710191Y694993D01*
X711488Y697238D01*
X712159Y699743D01*
Y702337D01*
X711488Y704842D01*
X710191Y707087D01*
X708357Y708921D01*
X708033Y709108D01*
X708374Y710378D01*
X790956D01*
X792145Y710615D01*
X793154Y711289D01*
X799486Y717621D01*
X800108Y717262D01*
X802613Y716591D01*
X805207D01*
X807712Y717262D01*
X809957Y718559D01*
X811791Y720393D01*
X813088Y722638D01*
X813759Y725143D01*
Y727737D01*
X813088Y730242D01*
X811791Y732487D01*
X809957Y734321D01*
X807712Y735618D01*
X805207Y736289D01*
X802613D01*
X800108Y735618D01*
X797863Y734321D01*
X796029Y732487D01*
X794732Y730242D01*
X794061Y727737D01*
Y725143D01*
X794732Y722638D01*
X795091Y722016D01*
X789669Y716594D01*
X783694D01*
X783353Y717864D01*
X784557Y718559D01*
X786391Y720393D01*
X787688Y722638D01*
X788359Y725143D01*
Y727737D01*
X787688Y730242D01*
X786391Y732487D01*
X784557Y734321D01*
X782312Y735618D01*
X779807Y736289D01*
X777213D01*
X774708Y735618D01*
X772463Y734321D01*
X770629Y732487D01*
X769332Y730242D01*
X768661Y727737D01*
Y725143D01*
X769332Y722638D01*
X770629Y720393D01*
X772463Y718559D01*
X773667Y717864D01*
X773326Y716594D01*
X758294D01*
X757953Y717864D01*
X759157Y718559D01*
X760991Y720393D01*
X762288Y722638D01*
X762959Y725143D01*
Y727737D01*
X762288Y730242D01*
X760991Y732487D01*
X759157Y734321D01*
X756912Y735618D01*
X754407Y736289D01*
X751813D01*
X749308Y735618D01*
X748686Y735259D01*
X734734Y749212D01*
X733725Y749885D01*
X732536Y750122D01*
X274983D01*
X274457Y751392D01*
X287037Y763972D01*
X380516D01*
Y757706D01*
X399264D01*
Y776454D01*
X380516D01*
Y770188D01*
X285750D01*
X284561Y769951D01*
X283552Y769277D01*
X249534Y735259D01*
X248912Y735618D01*
X246407Y736289D01*
X243813D01*
X241308Y735618D01*
X239063Y734321D01*
X237229Y732487D01*
X235932Y730242D01*
X235261Y727737D01*
Y725143D01*
X235932Y722638D01*
X237229Y720393D01*
X239063Y718559D01*
X241308Y717262D01*
X241907Y717102D01*
X241740Y715832D01*
X164964D01*
X163549Y717246D01*
X161589Y718058D01*
X159467D01*
X157507Y717246D01*
X156006Y715745D01*
X155194Y713785D01*
Y711663D01*
X156006Y709703D01*
X157507Y708202D01*
X159467Y707390D01*
X161589D01*
X163549Y708202D01*
X164964Y709616D01*
X251968D01*
X253157Y709853D01*
X254165Y710527D01*
X259245Y715607D01*
X259919Y716615D01*
X260156Y717804D01*
Y721615D01*
X260366Y721771D01*
X262032Y721427D01*
X262629Y720393D01*
X264463Y718559D01*
X266708Y717262D01*
X269213Y716591D01*
X269494D01*
Y726440D01*
Y736289D01*
X269213D01*
X268955Y736220D01*
X268297Y737358D01*
X274845Y743906D01*
X316212D01*
X316698Y742733D01*
X307682Y733717D01*
X307009Y732709D01*
X306772Y731520D01*
Y728862D01*
X305502Y728695D01*
X305088Y730242D01*
X303791Y732487D01*
X301957Y734321D01*
X299712Y735618D01*
X297207Y736289D01*
X294613D01*
X292108Y735618D01*
X289863Y734321D01*
X288029Y732487D01*
X286732Y730242D01*
X286061Y727737D01*
Y725143D01*
X286732Y722638D01*
X288029Y720393D01*
X289863Y718559D01*
X292108Y717262D01*
X294613Y716591D01*
X297207D01*
X299712Y717262D01*
X301957Y718559D01*
X303791Y720393D01*
X305088Y722638D01*
X305502Y724185D01*
X306772Y724018D01*
Y718837D01*
X279891Y691956D01*
X276880D01*
X276657Y692787D01*
X276624Y693226D01*
X278391Y694993D01*
X279688Y697238D01*
X280359Y699743D01*
Y702337D01*
X279688Y704842D01*
X278391Y707087D01*
X276557Y708921D01*
X274312Y710218D01*
X271807Y710889D01*
X269213D01*
X266708Y710218D01*
X264463Y708921D01*
X262629Y707087D01*
X261332Y704842D01*
X260661Y702337D01*
Y699743D01*
X261332Y697238D01*
X262629Y694993D01*
X264396Y693226D01*
X264363Y692787D01*
X264140Y691956D01*
X69342D01*
X68153Y691719D01*
X67144Y691046D01*
X37356Y661257D01*
X36682Y660249D01*
X36446Y659059D01*
Y658061D01*
X9829Y631444D01*
X7829D01*
X5868Y630632D01*
X5155Y629918D01*
X3884Y630444D01*
Y846115D01*
X846115D01*
Y3884D01*
D02*
G37*
G36*
X404779Y738104D02*
X401934Y735259D01*
X401312Y735618D01*
X398807Y736289D01*
X396213D01*
X393708Y735618D01*
X391463Y734321D01*
X389629Y732487D01*
X388332Y730242D01*
X387661Y727737D01*
Y725143D01*
X388332Y722638D01*
X389629Y720393D01*
X390577Y719445D01*
X390051Y718175D01*
X379569D01*
X379043Y719445D01*
X379991Y720393D01*
X381288Y722638D01*
X381959Y725143D01*
Y727737D01*
X381288Y730242D01*
X379991Y732487D01*
X378157Y734321D01*
X375912Y735618D01*
X373407Y736289D01*
X370813D01*
X368308Y735618D01*
X366063Y734321D01*
X364229Y732487D01*
X362932Y730242D01*
X362261Y727737D01*
Y725143D01*
X362932Y722638D01*
X364229Y720393D01*
X365177Y719445D01*
X364651Y718175D01*
X354169D01*
X353643Y719445D01*
X354591Y720393D01*
X355888Y722638D01*
X356559Y725143D01*
Y727737D01*
X355888Y730242D01*
X354591Y732487D01*
X352757Y734321D01*
X350512Y735618D01*
X348007Y736289D01*
X345413D01*
X342908Y735618D01*
X340663Y734321D01*
X338829Y732487D01*
X337532Y730242D01*
X336861Y727737D01*
Y725143D01*
X337532Y722638D01*
X338829Y720393D01*
X339777Y719445D01*
X339251Y718175D01*
X328769D01*
X328243Y719445D01*
X329191Y720393D01*
X330488Y722638D01*
X331159Y725143D01*
Y727737D01*
X330488Y730242D01*
X329191Y732487D01*
X327357Y734321D01*
X325112Y735618D01*
X322607Y736289D01*
X320840D01*
X320314Y737559D01*
X322032Y739277D01*
X404293D01*
X404779Y738104D01*
D02*
G37*
G36*
X744291Y730864D02*
X743932Y730242D01*
X743261Y727737D01*
Y725143D01*
X743932Y722638D01*
X745229Y720393D01*
X747063Y718559D01*
X748267Y717864D01*
X747926Y716594D01*
X732894D01*
X732553Y717864D01*
X733757Y718559D01*
X735591Y720393D01*
X736888Y722638D01*
X737559Y725143D01*
Y727737D01*
X736888Y730242D01*
X735591Y732487D01*
X733757Y734321D01*
X731512Y735618D01*
X729007Y736289D01*
X726413D01*
X723908Y735618D01*
X723286Y735259D01*
X718477Y740068D01*
X717469Y740741D01*
X716280Y740978D01*
X593344D01*
X592155Y740741D01*
X591147Y740068D01*
X585812Y734734D01*
X585139Y733725D01*
X584902Y732536D01*
Y732064D01*
X583632Y731723D01*
X583191Y732487D01*
X581357Y734321D01*
X579112Y735618D01*
X576607Y736289D01*
X574013D01*
X571508Y735618D01*
X569263Y734321D01*
X567429Y732487D01*
X566132Y730242D01*
X565461Y727737D01*
Y725143D01*
X566132Y722638D01*
X567429Y720393D01*
X569263Y718559D01*
X571508Y717262D01*
X574013Y716591D01*
X576607D01*
X579112Y717262D01*
X581357Y718559D01*
X583191Y720393D01*
X583632Y721157D01*
X584902Y720816D01*
Y719091D01*
X515349Y649538D01*
X167504D01*
X166089Y650952D01*
X164129Y651764D01*
X163788D01*
X163302Y652937D01*
X184140Y673775D01*
X525127D01*
X526541Y672361D01*
X528502Y671549D01*
X530624D01*
X532584Y672361D01*
X534085Y673861D01*
X534897Y675822D01*
Y677944D01*
X534085Y679904D01*
X532584Y681404D01*
X530624Y682217D01*
X528502D01*
X526541Y681404D01*
X525127Y679990D01*
X457534D01*
X457409Y681260D01*
X458135Y681405D01*
X459143Y682078D01*
X494686Y717621D01*
X495308Y717262D01*
X497813Y716591D01*
X500407D01*
X502912Y717262D01*
X505157Y718559D01*
X506991Y720393D01*
X508288Y722638D01*
X508702Y724185D01*
X509972Y724018D01*
Y692014D01*
X508558Y690600D01*
X507746Y688639D01*
Y686517D01*
X508558Y684557D01*
X510059Y683056D01*
X512019Y682244D01*
X514141D01*
X516101Y683056D01*
X517602Y684557D01*
X518414Y686517D01*
Y688639D01*
X517602Y690600D01*
X516188Y692014D01*
Y719038D01*
X517458Y719564D01*
X518463Y718559D01*
X520708Y717262D01*
X523213Y716591D01*
X525807D01*
X528312Y717262D01*
X530557Y718559D01*
X532391Y720393D01*
X533688Y722638D01*
X534359Y725143D01*
Y727737D01*
X533688Y730242D01*
X532391Y732487D01*
X530557Y734321D01*
X528312Y735618D01*
X525807Y736289D01*
X523213D01*
X520708Y735618D01*
X518463Y734321D01*
X516922Y732781D01*
X515775Y732719D01*
X515361Y732831D01*
X515277Y732955D01*
X510129Y738104D01*
X510615Y739277D01*
X532678D01*
X541091Y730864D01*
X540732Y730242D01*
X540061Y727737D01*
Y725143D01*
X540732Y722638D01*
X542029Y720393D01*
X543863Y718559D01*
X546108Y717262D01*
X548613Y716591D01*
X551207D01*
X553712Y717262D01*
X555957Y718559D01*
X557791Y720393D01*
X559088Y722638D01*
X559759Y725143D01*
Y727737D01*
X559088Y730242D01*
X557791Y732487D01*
X555957Y734321D01*
X553712Y735618D01*
X551207Y736289D01*
X548613D01*
X546108Y735618D01*
X545486Y735259D01*
X538012Y742733D01*
X538498Y743906D01*
X731249D01*
X744291Y730864D01*
D02*
G37*
G36*
X695434Y733492D02*
X694429Y732487D01*
X693132Y730242D01*
X692461Y727737D01*
Y725143D01*
X693132Y722638D01*
X694429Y720393D01*
X696263Y718559D01*
X697467Y717864D01*
X697126Y716594D01*
X690880D01*
X689691Y716357D01*
X688682Y715684D01*
X607297Y634298D01*
X226568D01*
X225379Y634061D01*
X224370Y633387D01*
X210909Y619925D01*
X210235Y618917D01*
X209998Y617728D01*
Y600219D01*
X163087Y553308D01*
X122631D01*
X121441Y553071D01*
X120433Y552398D01*
X109563Y541527D01*
X108889Y540519D01*
X108652Y539329D01*
Y453661D01*
X99999Y445008D01*
X97999D01*
X96039Y444196D01*
X94538Y442696D01*
X93726Y440735D01*
Y438613D01*
X94538Y436652D01*
X96039Y435152D01*
X97999Y434340D01*
X100121D01*
X102081Y435152D01*
X102948Y434241D01*
X99745Y431038D01*
X97745D01*
X95785Y430226D01*
X94284Y428726D01*
X93472Y426765D01*
Y424643D01*
X94284Y422682D01*
X95785Y421182D01*
X97466Y420486D01*
X97213Y419216D01*
X92004D01*
X90815Y418979D01*
X89806Y418305D01*
X74002Y402501D01*
X73329Y401493D01*
X73092Y400304D01*
Y396634D01*
X72874Y395454D01*
X58918D01*
X58432Y396627D01*
X65697Y403893D01*
X66371Y404901D01*
X66608Y406091D01*
Y538971D01*
X128541Y600904D01*
X186572D01*
X187987Y599490D01*
X189947Y598678D01*
X192069D01*
X194030Y599490D01*
X195530Y600990D01*
X196342Y602951D01*
Y605073D01*
X195530Y607034D01*
X194030Y608534D01*
X192069Y609346D01*
X189947D01*
X187987Y608534D01*
X186572Y607120D01*
X127254D01*
X126065Y606883D01*
X125056Y606209D01*
X61302Y542455D01*
X60629Y541447D01*
X60392Y540258D01*
Y407378D01*
X50405Y397390D01*
X49731Y396382D01*
X49494Y395192D01*
Y338998D01*
X49731Y337809D01*
X50405Y336800D01*
X57424Y329781D01*
X57765Y329553D01*
X57863Y328824D01*
X57793Y328038D01*
X56507Y326752D01*
X55488Y324987D01*
X54961Y323019D01*
Y323016D01*
X62700D01*
X70439D01*
Y323019D01*
X69911Y324987D01*
X68893Y326752D01*
X68044Y327600D01*
X68570Y328870D01*
X71434D01*
X75452Y324852D01*
X74961Y323019D01*
Y320981D01*
X75488Y319013D01*
X76507Y317248D01*
X77948Y315807D01*
X79713Y314788D01*
X81681Y314261D01*
X83719D01*
X85687Y314788D01*
X87452Y315807D01*
X88332Y316688D01*
X89602Y316162D01*
Y311990D01*
X89839Y310800D01*
X90513Y309792D01*
X95452Y304853D01*
X94961Y303019D01*
Y300981D01*
X95488Y299013D01*
X96507Y297248D01*
X97948Y295807D01*
X99713Y294788D01*
X101681Y294261D01*
X103719D01*
X105687Y294788D01*
X107452Y295807D01*
X108893Y297248D01*
X108906Y297272D01*
X110176Y296931D01*
Y287068D01*
X108906Y286728D01*
X108893Y286752D01*
X107452Y288193D01*
X105687Y289212D01*
X103719Y289739D01*
X101681D01*
X99713Y289212D01*
X97948Y288193D01*
X96507Y286752D01*
X95488Y284987D01*
X94961Y283019D01*
Y280981D01*
X95488Y279013D01*
X96507Y277248D01*
X97948Y275807D01*
X99713Y274788D01*
X101681Y274261D01*
X103719D01*
X105687Y274788D01*
X107452Y275807D01*
X108893Y277248D01*
X108906Y277272D01*
X110176Y276931D01*
Y271416D01*
X110413Y270226D01*
X111087Y269218D01*
X115452Y264853D01*
X114961Y263019D01*
Y260981D01*
X115488Y259013D01*
X116507Y257248D01*
X117948Y255807D01*
X119713Y254788D01*
X121681Y254261D01*
X123719D01*
X125687Y254788D01*
X127452Y255807D01*
X128892Y257248D01*
X129911Y259013D01*
X130439Y260981D01*
Y263019D01*
X129911Y264987D01*
X128892Y266752D01*
X127452Y268193D01*
X125687Y269212D01*
X123719Y269739D01*
X121681D01*
X119847Y269248D01*
X116392Y272703D01*
Y275567D01*
X117662Y276093D01*
X117948Y275807D01*
X119713Y274788D01*
X121681Y274261D01*
X123719D01*
X125553Y274752D01*
X130468Y269837D01*
X131476Y269163D01*
X132666Y268926D01*
X136886D01*
X137412Y267656D01*
X136508Y266752D01*
X135489Y264987D01*
X134961Y263019D01*
Y260981D01*
X135489Y259013D01*
X136508Y257248D01*
X137918Y255838D01*
X137913Y255696D01*
X137555Y254568D01*
X132160D01*
X130970Y254331D01*
X129962Y253657D01*
X125553Y249248D01*
X123719Y249739D01*
X121681D01*
X119713Y249212D01*
X117948Y248193D01*
X116507Y246752D01*
X115488Y244987D01*
X114961Y243019D01*
Y240981D01*
X115488Y239013D01*
X116507Y237248D01*
X116967Y236788D01*
X116441Y235518D01*
X108958D01*
X108432Y236788D01*
X108893Y237248D01*
X109911Y239013D01*
X110439Y240981D01*
Y243019D01*
X109911Y244987D01*
X108893Y246752D01*
X107452Y248193D01*
X105687Y249212D01*
X103719Y249739D01*
X101681D01*
X99713Y249212D01*
X97948Y248193D01*
X96507Y246752D01*
X95488Y244987D01*
X94961Y243019D01*
Y240981D01*
X95488Y239013D01*
X96507Y237248D01*
X96967Y236788D01*
X96441Y235518D01*
X88958D01*
X88432Y236788D01*
X88893Y237248D01*
X89911Y239013D01*
X90439Y240981D01*
Y243019D01*
X89911Y244987D01*
X88893Y246752D01*
X87452Y248193D01*
X87175Y248352D01*
X87516Y249622D01*
X93430D01*
X94619Y249859D01*
X95627Y250532D01*
X99847Y254752D01*
X101681Y254261D01*
X103719D01*
X105687Y254788D01*
X107452Y255807D01*
X108893Y257248D01*
X109911Y259013D01*
X110439Y260981D01*
Y263019D01*
X109911Y264987D01*
X108893Y266752D01*
X107452Y268193D01*
X105687Y269212D01*
X103719Y269739D01*
X101681D01*
X99713Y269212D01*
X97948Y268193D01*
X96507Y266752D01*
X95488Y264987D01*
X94961Y263019D01*
Y260981D01*
X95452Y259147D01*
X92143Y255838D01*
X89142D01*
X88656Y257011D01*
X88893Y257248D01*
X89911Y259013D01*
X90439Y260981D01*
Y263019D01*
X89911Y264987D01*
X88893Y266752D01*
X87452Y268193D01*
X85687Y269212D01*
X83719Y269739D01*
X81681D01*
X79713Y269212D01*
X77948Y268193D01*
X76507Y266752D01*
X75488Y264987D01*
X74961Y263019D01*
Y260981D01*
X75488Y259013D01*
X76507Y257248D01*
X76744Y257011D01*
X76258Y255838D01*
X69142D01*
X68656Y257011D01*
X68893Y257248D01*
X69911Y259013D01*
X70439Y260981D01*
Y263019D01*
X69911Y264987D01*
X68893Y266752D01*
X67452Y268193D01*
X65687Y269212D01*
X63719Y269739D01*
X61681D01*
X59713Y269212D01*
X57948Y268193D01*
X56507Y266752D01*
X55488Y264987D01*
X54961Y263019D01*
Y260981D01*
X55007Y260810D01*
X53868Y260153D01*
X36584Y277436D01*
X36055Y278645D01*
X38404Y281507D01*
X40149Y284772D01*
X41224Y288315D01*
X41587Y292000D01*
X41224Y295685D01*
X40149Y299228D01*
X38404Y302493D01*
X36055Y305355D01*
X33193Y307704D01*
X29928Y309449D01*
X26385Y310524D01*
X25913Y310570D01*
X24735Y310793D01*
X24698Y310808D01*
Y527541D01*
X114063Y616906D01*
X192278D01*
X193467Y617143D01*
X194475Y617817D01*
X212361Y635702D01*
X589280D01*
X590469Y635939D01*
X591478Y636613D01*
X672486Y717621D01*
X673108Y717262D01*
X675613Y716591D01*
X678207D01*
X680712Y717262D01*
X682957Y718559D01*
X684791Y720393D01*
X686088Y722638D01*
X686759Y725143D01*
Y727737D01*
X686088Y730242D01*
X684791Y732487D01*
X683786Y733492D01*
X684312Y734762D01*
X694908D01*
X695434Y733492D01*
D02*
G37*
G36*
X670034D02*
X669029Y732487D01*
X667732Y730242D01*
X667061Y727737D01*
Y725143D01*
X667732Y722638D01*
X668091Y722016D01*
X587993Y641918D01*
X211074D01*
X209885Y641681D01*
X208876Y641008D01*
X190991Y623122D01*
X114455D01*
X113929Y624392D01*
X124985Y635448D01*
X151774D01*
X153188Y634034D01*
X155149Y633222D01*
X157271D01*
X159232Y634034D01*
X160732Y635535D01*
X161544Y637495D01*
Y639617D01*
X161396Y639975D01*
X161621Y640388D01*
X162306Y641096D01*
X164129D01*
X166089Y641908D01*
X167504Y643322D01*
X516636D01*
X517825Y643559D01*
X518834Y644232D01*
X590207Y715607D01*
X590881Y716615D01*
X591118Y717804D01*
Y720816D01*
X592388Y721157D01*
X592829Y720393D01*
X594663Y718559D01*
X596908Y717262D01*
X599413Y716591D01*
X599694D01*
Y726440D01*
X600710D01*
Y727456D01*
X610559D01*
Y727737D01*
X609888Y730242D01*
X608591Y732487D01*
X607586Y733492D01*
X608112Y734762D01*
X618708D01*
X619234Y733492D01*
X618229Y732487D01*
X616932Y730242D01*
X616261Y727737D01*
Y725143D01*
X616932Y722638D01*
X618229Y720393D01*
X620063Y718559D01*
X622308Y717262D01*
X624813Y716591D01*
X627407D01*
X629912Y717262D01*
X632157Y718559D01*
X633991Y720393D01*
X635288Y722638D01*
X635959Y725143D01*
Y727737D01*
X635288Y730242D01*
X633991Y732487D01*
X632986Y733492D01*
X633512Y734762D01*
X644108D01*
X644634Y733492D01*
X643629Y732487D01*
X642332Y730242D01*
X641661Y727737D01*
Y725143D01*
X642332Y722638D01*
X643629Y720393D01*
X645463Y718559D01*
X647708Y717262D01*
X650213Y716591D01*
X652807D01*
X655312Y717262D01*
X657557Y718559D01*
X659391Y720393D01*
X660688Y722638D01*
X661359Y725143D01*
Y727737D01*
X660688Y730242D01*
X659391Y732487D01*
X658386Y733492D01*
X658912Y734762D01*
X669508D01*
X670034Y733492D01*
D02*
G37*
G36*
X492177Y733435D02*
X491229Y732487D01*
X489932Y730242D01*
X489261Y727737D01*
Y725143D01*
X489932Y722638D01*
X490291Y722016D01*
X455659Y687384D01*
X352416D01*
X351002Y688798D01*
X349041Y689610D01*
X346919D01*
X344958Y688798D01*
X343458Y687298D01*
X342646Y685337D01*
Y683215D01*
X343458Y681255D01*
X343549Y681164D01*
X343063Y679990D01*
X182853D01*
X181663Y679754D01*
X180655Y679080D01*
X154012Y652438D01*
X153339Y651429D01*
X153102Y650240D01*
Y642992D01*
X151774Y641664D01*
X123698D01*
X122509Y641427D01*
X121501Y640753D01*
X5155Y524408D01*
X3884Y524934D01*
Y621776D01*
X5155Y622302D01*
X5868Y621588D01*
X7829Y620776D01*
X9951D01*
X11911Y621588D01*
X13412Y623088D01*
X14224Y625049D01*
Y627049D01*
X41751Y654576D01*
X42425Y655584D01*
X42661Y656773D01*
Y657772D01*
X70629Y685740D01*
X281178D01*
X282367Y685977D01*
X283375Y686650D01*
X312078Y715352D01*
X312751Y716361D01*
X312988Y717550D01*
Y719038D01*
X314258Y719564D01*
X315263Y718559D01*
X317508Y717262D01*
X319003Y716862D01*
X319382Y715445D01*
X298119Y694182D01*
X296119D01*
X294158Y693370D01*
X292658Y691870D01*
X291846Y689909D01*
Y687787D01*
X292658Y685826D01*
X294158Y684326D01*
X296119Y683514D01*
X298241D01*
X300201Y684326D01*
X301702Y685826D01*
X302514Y687787D01*
Y689787D01*
X324686Y711959D01*
X436937D01*
X438126Y712196D01*
X439134Y712869D01*
X443886Y717621D01*
X444508Y717262D01*
X447013Y716591D01*
X449607D01*
X452112Y717262D01*
X454357Y718559D01*
X456191Y720393D01*
X457488Y722638D01*
X458159Y725143D01*
Y727737D01*
X457488Y730242D01*
X456191Y732487D01*
X455243Y733435D01*
X455769Y734705D01*
X466251D01*
X466777Y733435D01*
X465829Y732487D01*
X464532Y730242D01*
X463861Y727737D01*
Y725143D01*
X464532Y722638D01*
X465829Y720393D01*
X467663Y718559D01*
X469908Y717262D01*
X472413Y716591D01*
X475007D01*
X477512Y717262D01*
X479757Y718559D01*
X481591Y720393D01*
X482888Y722638D01*
X483559Y725143D01*
Y727737D01*
X482888Y730242D01*
X481591Y732487D01*
X480643Y733435D01*
X481169Y734705D01*
X491651D01*
X492177Y733435D01*
D02*
G37*
G36*
X695434Y631892D02*
X694429Y630887D01*
X693132Y628642D01*
X692946Y627948D01*
X651510D01*
X650321Y627711D01*
X649313Y627038D01*
X605134Y582859D01*
X604512Y583218D01*
X602007Y583889D01*
X599413D01*
X596908Y583218D01*
X594663Y581921D01*
X592829Y580087D01*
X591532Y577842D01*
X590861Y575337D01*
Y572743D01*
X591532Y570238D01*
X592829Y567993D01*
X593834Y566988D01*
X593308Y565718D01*
X582712D01*
X582186Y566988D01*
X583191Y567993D01*
X584488Y570238D01*
X585159Y572743D01*
Y575337D01*
X584488Y577842D01*
X583191Y580087D01*
X581357Y581921D01*
X579112Y583218D01*
X576607Y583889D01*
X574013D01*
X571508Y583218D01*
X569263Y581921D01*
X567429Y580087D01*
X567188Y579670D01*
X565711Y579652D01*
X524587Y620776D01*
X525073Y621949D01*
X629375D01*
X630564Y622186D01*
X631572Y622859D01*
X641875Y633162D01*
X694908D01*
X695434Y631892D01*
D02*
G37*
G36*
X251201Y620776D02*
X239771Y609346D01*
X237771D01*
X235811Y608534D01*
X234310Y607034D01*
X233498Y605073D01*
Y602951D01*
X234310Y600990D01*
X235811Y599490D01*
X237771Y598678D01*
X239893D01*
X241854Y599490D01*
X243354Y600990D01*
X244166Y602951D01*
Y604951D01*
X256592Y617377D01*
X519196D01*
X551561Y585012D01*
X550888Y583889D01*
X548613D01*
X546108Y583218D01*
X545486Y582859D01*
X533058Y595288D01*
X532049Y595961D01*
X530860Y596198D01*
X417593D01*
X417066Y597468D01*
X418091Y598492D01*
X419388Y600738D01*
X420059Y603243D01*
Y603524D01*
X400361D01*
Y603243D01*
X401032Y600738D01*
X402329Y598492D01*
X403354Y597468D01*
X402827Y596198D01*
X392193D01*
X391666Y597468D01*
X392691Y598492D01*
X393988Y600738D01*
X394659Y603243D01*
Y603524D01*
X374961D01*
Y603243D01*
X375632Y600738D01*
X376929Y598492D01*
X377953Y597468D01*
X377427Y596198D01*
X366793D01*
X366267Y597468D01*
X367291Y598492D01*
X368588Y600738D01*
X369259Y603243D01*
Y605836D01*
X368588Y608341D01*
X367291Y610587D01*
X365457Y612421D01*
X363212Y613718D01*
X360707Y614389D01*
X358113D01*
X355608Y613718D01*
X353363Y612421D01*
X351529Y610587D01*
X350232Y608341D01*
X349561Y605836D01*
Y603243D01*
X350232Y600738D01*
X351529Y598492D01*
X352553Y597468D01*
X352027Y596198D01*
X341393D01*
X340867Y597468D01*
X341891Y598492D01*
X343188Y600738D01*
X343859Y603243D01*
Y605836D01*
X343188Y608341D01*
X341891Y610587D01*
X340057Y612421D01*
X337812Y613718D01*
X335307Y614389D01*
X332713D01*
X330208Y613718D01*
X327963Y612421D01*
X326129Y610587D01*
X324832Y608341D01*
X324161Y605836D01*
Y603243D01*
X324832Y600738D01*
X326129Y598492D01*
X327154Y597468D01*
X326627Y596198D01*
X315993D01*
X315466Y597468D01*
X316491Y598492D01*
X317788Y600738D01*
X318459Y603243D01*
Y605836D01*
X317788Y608341D01*
X316491Y610587D01*
X314657Y612421D01*
X312412Y613718D01*
X309907Y614389D01*
X307313D01*
X304808Y613718D01*
X302563Y612421D01*
X300729Y610587D01*
X299432Y608341D01*
X298761Y605836D01*
Y603243D01*
X299432Y600738D01*
X300729Y598492D01*
X301754Y597468D01*
X301227Y596198D01*
X296475D01*
X295286Y595961D01*
X294277Y595288D01*
X282339Y583349D01*
X281666Y582341D01*
X281429Y581152D01*
Y576250D01*
X280159Y576082D01*
X279688Y577842D01*
X278391Y580087D01*
X276557Y581921D01*
X274312Y583218D01*
X271807Y583889D01*
X269213D01*
X266708Y583218D01*
X264463Y581921D01*
X262629Y580087D01*
X261332Y577842D01*
X260661Y575337D01*
Y572743D01*
X261332Y570238D01*
X261691Y569616D01*
X257793Y565718D01*
X252512D01*
X251986Y566988D01*
X252991Y567993D01*
X254288Y570238D01*
X254959Y572743D01*
Y573024D01*
X235261D01*
Y572743D01*
X235932Y570238D01*
X237229Y567993D01*
X237599Y567622D01*
X237152Y566273D01*
X236534Y566183D01*
X229044Y573673D01*
Y610475D01*
X240518Y621949D01*
X250715D01*
X251201Y620776D01*
D02*
G37*
G36*
X541091Y578464D02*
X540732Y577842D01*
X540061Y575337D01*
Y572743D01*
X540732Y570238D01*
X542029Y567993D01*
X543863Y566159D01*
X546108Y564862D01*
X548613Y564191D01*
X551207D01*
X553712Y564862D01*
X555957Y566159D01*
X557791Y567993D01*
X559088Y570238D01*
X559502Y571785D01*
X560772Y571618D01*
Y567690D01*
X561009Y566501D01*
X561683Y565493D01*
X566763Y560412D01*
X567771Y559739D01*
X568960Y559502D01*
X665480D01*
X666669Y559739D01*
X667678Y560412D01*
X672486Y565221D01*
X673108Y564862D01*
X675613Y564191D01*
X678207D01*
X680712Y564862D01*
X682957Y566159D01*
X683962Y567164D01*
X685232Y566638D01*
Y556277D01*
X663685Y534730D01*
X267325D01*
X267057Y535122D01*
X266837Y536000D01*
X286734Y555897D01*
X287408Y556906D01*
X287645Y558095D01*
Y566581D01*
X288915Y567107D01*
X289863Y566159D01*
X292108Y564862D01*
X294613Y564191D01*
X297207D01*
X299712Y564862D01*
X300334Y565221D01*
X317585Y547970D01*
X318593Y547296D01*
X319782Y547060D01*
X328053D01*
X328539Y545886D01*
X328218Y545565D01*
X327406Y543605D01*
Y541483D01*
X328218Y539523D01*
X329719Y538022D01*
X331679Y537210D01*
X333801D01*
X335761Y538022D01*
X337176Y539436D01*
X417966D01*
X419380Y538022D01*
X421341Y537210D01*
X423463D01*
X425424Y538022D01*
X426924Y539523D01*
X427736Y541483D01*
Y543605D01*
X426924Y545565D01*
X426603Y545886D01*
X427089Y547060D01*
X647783D01*
Y546988D01*
X648595Y545028D01*
X650095Y543527D01*
X652056Y542715D01*
X654178D01*
X656138Y543527D01*
X657639Y545028D01*
X658451Y546988D01*
Y549110D01*
X657639Y551071D01*
X656138Y552571D01*
X654178Y553383D01*
X652056D01*
X651537Y553168D01*
X650998Y553275D01*
X561970D01*
X561410Y554545D01*
X562102Y556215D01*
Y558337D01*
X561290Y560298D01*
X559790Y561798D01*
X557829Y562610D01*
X555707D01*
X553746Y561798D01*
X552332Y560384D01*
X491761D01*
X482529Y569616D01*
X482888Y570238D01*
X483559Y572743D01*
Y575337D01*
X482888Y577842D01*
X481591Y580087D01*
X479757Y581921D01*
X477512Y583218D01*
X475007Y583889D01*
X472413D01*
X469908Y583218D01*
X467663Y581921D01*
X465829Y580087D01*
X464532Y577842D01*
X463861Y575337D01*
Y572743D01*
X464532Y570238D01*
X465829Y567993D01*
X467663Y566159D01*
X469908Y564862D01*
X472413Y564191D01*
X475007D01*
X477512Y564862D01*
X478134Y565221D01*
X488276Y555079D01*
X489075Y554545D01*
X488980Y553588D01*
X488863Y553275D01*
X321070D01*
X316113Y558232D01*
X316639Y559502D01*
X386080D01*
X387269Y559739D01*
X388278Y560412D01*
X393086Y565221D01*
X393708Y564862D01*
X396213Y564191D01*
X398807D01*
X401312Y564862D01*
X403557Y566159D01*
X405391Y567993D01*
X406688Y570238D01*
X407359Y572743D01*
Y575337D01*
X406688Y577842D01*
X405391Y580087D01*
X403557Y581921D01*
X401312Y583218D01*
X398807Y583889D01*
X396213D01*
X393708Y583218D01*
X391463Y581921D01*
X389629Y580087D01*
X388332Y577842D01*
X387661Y575337D01*
Y572743D01*
X388332Y570238D01*
X388691Y569616D01*
X384793Y565718D01*
X379512D01*
X378986Y566988D01*
X379991Y567993D01*
X381288Y570238D01*
X381959Y572743D01*
Y575337D01*
X381288Y577842D01*
X379991Y580087D01*
X378157Y581921D01*
X375912Y583218D01*
X373407Y583889D01*
X370813D01*
X368308Y583218D01*
X366063Y581921D01*
X364229Y580087D01*
X362932Y577842D01*
X362261Y575337D01*
Y572743D01*
X362932Y570238D01*
X364229Y567993D01*
X365234Y566988D01*
X364708Y565718D01*
X354112D01*
X353586Y566988D01*
X354591Y567993D01*
X355888Y570238D01*
X356559Y572743D01*
Y575337D01*
X355888Y577842D01*
X354591Y580087D01*
X352757Y581921D01*
X350512Y583218D01*
X348007Y583889D01*
X345413D01*
X342908Y583218D01*
X340663Y581921D01*
X338829Y580087D01*
X337532Y577842D01*
X336861Y575337D01*
Y572743D01*
X337532Y570238D01*
X338829Y567993D01*
X339834Y566988D01*
X339308Y565718D01*
X328712D01*
X328186Y566988D01*
X329191Y567993D01*
X330488Y570238D01*
X331159Y572743D01*
Y575337D01*
X330488Y577842D01*
X329191Y580087D01*
X327357Y581921D01*
X325112Y583218D01*
X322607Y583889D01*
X320013D01*
X317508Y583218D01*
X315263Y581921D01*
X314876Y581535D01*
X313509Y581964D01*
X313456Y582264D01*
X314402Y583210D01*
X315214Y585171D01*
Y587293D01*
X314626Y588712D01*
X315333Y589982D01*
X529573D01*
X541091Y578464D01*
D02*
G37*
G36*
X236591Y626812D02*
X223739Y613960D01*
X223065Y612951D01*
X222828Y611762D01*
Y572386D01*
X223065Y571197D01*
X223739Y570188D01*
X233514Y560412D01*
X234523Y559739D01*
X235712Y559502D01*
X259080D01*
X260269Y559739D01*
X261278Y560412D01*
X266086Y565221D01*
X266708Y564862D01*
X269213Y564191D01*
X271807D01*
X274312Y564862D01*
X276557Y566159D01*
X278391Y567993D01*
X279688Y570238D01*
X280159Y571998D01*
X281429Y571830D01*
Y559382D01*
X263127Y541080D01*
X133242D01*
X130806Y543517D01*
Y544403D01*
X130218Y545822D01*
X130924Y547093D01*
X164374D01*
X165564Y547329D01*
X166572Y548003D01*
X215303Y596735D01*
X215977Y597743D01*
X216214Y598932D01*
Y616441D01*
X227855Y628082D01*
X236065D01*
X236591Y626812D01*
D02*
G37*
G36*
X506316Y486820D02*
X506316Y486350D01*
Y479806D01*
X512840D01*
X519364D01*
Y485619D01*
X520634Y486145D01*
X536862Y469917D01*
X537870Y469244D01*
X539059Y469007D01*
X550926D01*
X552115Y469244D01*
X553124Y469917D01*
X554316Y471110D01*
X562999D01*
X563706Y469840D01*
X563118Y468421D01*
Y466299D01*
X563930Y464338D01*
X565430Y462838D01*
X567391Y462026D01*
X569391D01*
X573085Y458332D01*
X574093Y457659D01*
X575282Y457422D01*
X589506D01*
Y453506D01*
X589029Y452434D01*
X573931D01*
X559602Y466763D01*
X558593Y467437D01*
X557404Y467674D01*
X545259D01*
X544069Y467437D01*
X543061Y466763D01*
X542955Y466658D01*
X535296D01*
X533881Y468072D01*
X531921Y468884D01*
X529799D01*
X527839Y468072D01*
X527332Y467566D01*
X506008D01*
X504819Y467329D01*
X503810Y466656D01*
X500089Y462934D01*
X491436D01*
Y457768D01*
X482654D01*
Y462934D01*
X475846D01*
X475360Y464107D01*
X478208Y466955D01*
X478881Y467963D01*
X479118Y469152D01*
Y470516D01*
X482534D01*
Y475682D01*
X491316D01*
Y470516D01*
X504364D01*
Y486820D01*
X505340Y487379D01*
X506316Y486820D01*
D02*
G37*
G36*
X553972Y484811D02*
X553486Y483638D01*
X546916D01*
X545129Y484378D01*
X543007D01*
X541046Y483566D01*
X539546Y482066D01*
X538734Y480105D01*
Y478631D01*
X537464Y478105D01*
X522644Y492925D01*
X521635Y493599D01*
X520446Y493836D01*
X479058D01*
X477869Y493599D01*
X476861Y492925D01*
X473813Y489878D01*
X473139Y488869D01*
X472902Y487680D01*
Y487064D01*
X469486D01*
Y470516D01*
X471183D01*
X471709Y469246D01*
X470137Y467674D01*
X423689D01*
X414274Y477089D01*
Y479089D01*
X413462Y481049D01*
X411962Y482550D01*
X410001Y483362D01*
X407879D01*
X405919Y482550D01*
X404418Y481049D01*
X403606Y479089D01*
Y476967D01*
X404418Y475006D01*
X405919Y473506D01*
X407879Y472694D01*
X409879D01*
X420205Y462369D01*
X421213Y461695D01*
X422402Y461458D01*
X454606D01*
Y454620D01*
X412922D01*
X412154Y455388D01*
X411146Y456062D01*
X409957Y456298D01*
X382324D01*
X381135Y456062D01*
X380127Y455388D01*
X361188Y436449D01*
X359918Y436975D01*
Y438195D01*
X359106Y440155D01*
X357606Y441656D01*
X355645Y442468D01*
X353645D01*
X340526Y455588D01*
X339517Y456261D01*
X338328Y456498D01*
X332635D01*
X332547Y456937D01*
X332103Y457603D01*
X331437Y458047D01*
X330652Y458203D01*
X315127D01*
X314343Y458047D01*
X313677Y457603D01*
X313233Y456937D01*
X313076Y456152D01*
Y450628D01*
X313233Y449843D01*
X313677Y449177D01*
X314343Y448733D01*
X315127Y448577D01*
X330652D01*
X331437Y448733D01*
X332103Y449177D01*
X332547Y449843D01*
X332635Y450282D01*
X337041D01*
X340507Y446816D01*
X340265Y446159D01*
X339884Y445643D01*
X338105D01*
X336284Y444889D01*
X334891Y443496D01*
X334802Y443280D01*
X332703D01*
Y443452D01*
X332547Y444237D01*
X332103Y444903D01*
X331437Y445347D01*
X330652Y445503D01*
X315127D01*
X314343Y445347D01*
X313677Y444903D01*
X313233Y444237D01*
X313076Y443452D01*
Y437928D01*
X313233Y437143D01*
X313677Y436477D01*
X314343Y436033D01*
X315127Y435877D01*
X330652D01*
X331437Y436033D01*
X332103Y436477D01*
X332547Y437143D01*
X332703Y437928D01*
Y438100D01*
X334802D01*
X334891Y437884D01*
X336284Y436491D01*
X338105Y435737D01*
X340075D01*
X341896Y436491D01*
X343289Y437884D01*
X344043Y439705D01*
Y441484D01*
X344559Y441865D01*
X345216Y442107D01*
X349250Y438073D01*
Y436073D01*
X350062Y434113D01*
X351562Y432612D01*
X353523Y431800D01*
X354743D01*
X355269Y430530D01*
X349487Y424748D01*
X333097D01*
X332703Y425228D01*
Y430752D01*
X332547Y431537D01*
X332103Y432203D01*
X331437Y432647D01*
X330652Y432803D01*
X315127D01*
X314343Y432647D01*
X313677Y432203D01*
X312699Y432106D01*
X308670Y436135D01*
Y445008D01*
X308433Y446197D01*
X307759Y447206D01*
X286677Y468288D01*
X285669Y468961D01*
X284480Y469198D01*
X276135D01*
X276047Y469637D01*
X275603Y470303D01*
X274937Y470747D01*
X274153Y470903D01*
X273988D01*
Y478136D01*
X284364D01*
Y486410D01*
Y494684D01*
X263606D01*
Y478136D01*
X267773D01*
Y471867D01*
X266809Y470903D01*
X258628D01*
X257843Y470747D01*
X257177Y470303D01*
X256733Y469637D01*
X256645Y469198D01*
X241383D01*
Y469354D01*
X240571Y471315D01*
X239070Y472815D01*
X237110Y473627D01*
X234988D01*
X233027Y472815D01*
X231527Y471315D01*
X230715Y469354D01*
Y467232D01*
X231527Y465272D01*
X233027Y463771D01*
X234988Y462959D01*
X237110D01*
X237518Y463128D01*
X238252Y462982D01*
X256645D01*
X256733Y462543D01*
X257177Y461877D01*
X257843Y461433D01*
X258628Y461277D01*
X274153D01*
X274937Y461433D01*
X275603Y461877D01*
X276047Y462543D01*
X276135Y462982D01*
X283193D01*
X302454Y443721D01*
Y434848D01*
X302691Y433659D01*
X303365Y432650D01*
X309997Y426018D01*
X309777Y425140D01*
X309510Y424748D01*
X276597D01*
X276203Y425228D01*
Y430752D01*
X276047Y431537D01*
X275603Y432203D01*
X274937Y432647D01*
X274153Y432803D01*
X258628D01*
X257843Y432647D01*
X257177Y432203D01*
X256733Y431537D01*
X256577Y430752D01*
Y430580D01*
X208811D01*
X208669Y430923D01*
X207276Y432316D01*
X205455Y433070D01*
X203485D01*
X201664Y432316D01*
X200271Y430923D01*
X199517Y429102D01*
Y427132D01*
X199979Y426018D01*
X199175Y424748D01*
X172720D01*
X171531Y424511D01*
X170522Y423838D01*
X134035Y387350D01*
X132035D01*
X130075Y386538D01*
X128574Y385037D01*
X127762Y383077D01*
Y380955D01*
X128574Y378994D01*
X130075Y377494D01*
X132035Y376682D01*
X134157D01*
X136117Y377494D01*
X137618Y378994D01*
X138430Y380955D01*
Y382955D01*
X174007Y418532D01*
X201715D01*
X202519Y417262D01*
X202057Y416148D01*
Y414178D01*
X202811Y412357D01*
X204204Y410964D01*
X206025Y410210D01*
X207995D01*
X208301Y410337D01*
X217879Y400759D01*
X218719Y400197D01*
X219710Y400000D01*
X256577D01*
Y399827D01*
X256733Y399043D01*
X257177Y398377D01*
X257246Y398332D01*
X256860Y397062D01*
X173990D01*
X172801Y396825D01*
X171793Y396152D01*
X159435Y383794D01*
X157435D01*
X155475Y382982D01*
X153974Y381482D01*
X153162Y379521D01*
Y377399D01*
X153310Y377042D01*
X153085Y376628D01*
X152400Y375920D01*
X150577D01*
X148617Y375108D01*
X147116Y373607D01*
X146304Y371647D01*
Y369525D01*
X147116Y367565D01*
X148617Y366064D01*
X150577Y365252D01*
X152699D01*
X154660Y366064D01*
X156074Y367478D01*
X264160D01*
X264263Y367499D01*
X264368Y367485D01*
X264855Y367617D01*
X265349Y367715D01*
X265437Y367774D01*
X265539Y367801D01*
X265938Y368108D01*
X266357Y368388D01*
X266416Y368476D01*
X266500Y368541D01*
X266751Y368978D01*
X267031Y369397D01*
X267052Y369500D01*
X267104Y369592D01*
X268045Y372377D01*
X274153D01*
X274937Y372533D01*
X275603Y372977D01*
X276047Y373643D01*
X276203Y374427D01*
Y379953D01*
X276597Y380432D01*
X299466D01*
X300655Y380669D01*
X301663Y381343D01*
X307103Y386782D01*
X313145D01*
X313233Y386343D01*
X313677Y385677D01*
X314343Y385233D01*
X315127Y385077D01*
X330652D01*
X331437Y385233D01*
X332103Y385677D01*
X332547Y386343D01*
X332703Y387127D01*
Y392653D01*
X332547Y393437D01*
X332103Y394103D01*
X331437Y394547D01*
X330652Y394703D01*
X315127D01*
X314343Y394547D01*
X313677Y394103D01*
X313233Y393437D01*
X313145Y392998D01*
X305816D01*
X304627Y392761D01*
X303619Y392088D01*
X298179Y386648D01*
X276597D01*
X276203Y387127D01*
Y392653D01*
X276047Y393437D01*
X275603Y394103D01*
X274937Y394547D01*
X274153Y394703D01*
X260948D01*
X259499Y396152D01*
X258968Y396507D01*
X259353Y397777D01*
X274153D01*
X274937Y397933D01*
X275603Y398377D01*
X276047Y399043D01*
X276203Y399827D01*
Y404791D01*
X277474Y405317D01*
X278588Y404202D01*
X279597Y403529D01*
X280786Y403292D01*
X303005D01*
X305905Y400392D01*
X306913Y399719D01*
X308102Y399482D01*
X313145D01*
X313233Y399043D01*
X313677Y398377D01*
X314343Y397933D01*
X315127Y397777D01*
X330652D01*
X331437Y397933D01*
X332103Y398377D01*
X332547Y399043D01*
X332703Y399827D01*
Y405018D01*
X333530Y405500D01*
X333944Y405574D01*
X340481Y399036D01*
Y371341D01*
X340678Y370350D01*
X341240Y369510D01*
X363060Y347689D01*
X362574Y346516D01*
X276369D01*
X268389Y354496D01*
X267381Y355169D01*
X266192Y355406D01*
X153255D01*
X150628Y358032D01*
X149620Y358706D01*
X148431Y358942D01*
X143939D01*
X142290Y360592D01*
X141281Y361265D01*
X140092Y361502D01*
X117720D01*
X116306Y362916D01*
X114345Y363728D01*
X112471D01*
X111713Y364348D01*
X111380Y364753D01*
X111395Y364827D01*
Y400878D01*
X206519Y496002D01*
X371314D01*
X374975Y492341D01*
X375983Y491667D01*
X377173Y491430D01*
X453881D01*
X456977Y488334D01*
X456451Y487064D01*
X454486D01*
Y470516D01*
X467534D01*
Y487064D01*
X464118D01*
Y488696D01*
X463881Y489885D01*
X463208Y490894D01*
X459272Y494829D01*
X459758Y496002D01*
X542781D01*
X553972Y484811D01*
D02*
G37*
G36*
X570447Y447128D02*
X571455Y446455D01*
X572644Y446218D01*
X589506D01*
Y434146D01*
X555261D01*
X544742Y444665D01*
X543733Y445339D01*
X542544Y445576D01*
X520419D01*
X519484Y446386D01*
Y453644D01*
X512960D01*
Y455676D01*
X519484D01*
Y461350D01*
X525998D01*
X526338Y460528D01*
X527839Y459028D01*
X529799Y458216D01*
X531921D01*
X533881Y459028D01*
X535296Y460442D01*
X544243D01*
X545432Y460679D01*
X546440Y461353D01*
X546546Y461458D01*
X556117D01*
X570447Y447128D01*
D02*
G37*
G36*
X201636Y499909D02*
X138139Y436412D01*
X136966Y436898D01*
Y446413D01*
X138236Y447120D01*
X139655Y446532D01*
X141777D01*
X143737Y447344D01*
X145238Y448844D01*
X146050Y450805D01*
Y452805D01*
X194327Y501082D01*
X201150D01*
X201636Y499909D01*
D02*
G37*
G36*
X120362Y541740D02*
X120949Y540321D01*
X122450Y538820D01*
X124410Y538008D01*
X126532D01*
X127234Y538299D01*
X129758Y535774D01*
X130766Y535101D01*
X131955Y534864D01*
X188352D01*
X188620Y534472D01*
X188840Y533594D01*
X120225Y464980D01*
X119552Y463972D01*
X119315Y462782D01*
Y450608D01*
X104493Y435786D01*
X103582Y436653D01*
X104394Y438613D01*
Y440613D01*
X113958Y450177D01*
X114631Y451185D01*
X114868Y452374D01*
Y538042D01*
X118964Y542139D01*
X120362Y541740D01*
D02*
G37*
G36*
X683006Y441883D02*
Y439883D01*
X683818Y437923D01*
X685309Y436432D01*
X685308Y436375D01*
X685043Y435162D01*
X635525D01*
X630340Y440348D01*
X629331Y441021D01*
X628142Y441258D01*
X618191D01*
X617001Y441021D01*
X615993Y440348D01*
X610824Y435178D01*
X609554Y435704D01*
Y446218D01*
X678671D01*
X683006Y441883D01*
D02*
G37*
G36*
X629099Y527244D02*
X629009Y527110D01*
X203454D01*
X202265Y526873D01*
X201257Y526199D01*
X145394Y470337D01*
X144860Y470231D01*
X143852Y469557D01*
X131660Y457365D01*
X130987Y456357D01*
X130750Y455168D01*
Y436389D01*
X113577Y419216D01*
X100399D01*
X100146Y420486D01*
X101827Y421182D01*
X103328Y422682D01*
X104140Y424643D01*
Y426643D01*
X124620Y447123D01*
X125294Y448132D01*
X125531Y449321D01*
Y461495D01*
X192550Y528514D01*
X628420D01*
X629099Y527244D01*
D02*
G37*
G36*
X302811Y417566D02*
X302832Y417262D01*
X301498Y415929D01*
X300757Y414139D01*
X305697D01*
Y412107D01*
X300757D01*
X301307Y410778D01*
X300648Y409508D01*
X282073D01*
X280495Y411086D01*
X279487Y411759D01*
X278298Y411996D01*
X276640D01*
X276203Y412528D01*
Y414274D01*
X266390D01*
Y416306D01*
X276203D01*
Y418052D01*
X276597Y418532D01*
X302494D01*
X302811Y417566D01*
D02*
G37*
G36*
X225124Y417262D02*
X224536Y415843D01*
Y413721D01*
X225348Y411760D01*
X226849Y410260D01*
X228809Y409448D01*
X230875D01*
X233633Y406690D01*
X233993Y406450D01*
X233608Y405180D01*
X220783D01*
X211911Y414052D01*
X211963Y414178D01*
Y416148D01*
X211502Y417262D01*
X212305Y418532D01*
X224417D01*
X225124Y417262D01*
D02*
G37*
G36*
X256577Y390284D02*
Y387127D01*
X256183Y386648D01*
X225670D01*
X224256Y388062D01*
X222295Y388874D01*
X220173D01*
X218213Y388062D01*
X216712Y386562D01*
X215900Y384601D01*
Y382479D01*
X216712Y380518D01*
X218213Y379018D01*
X220173Y378206D01*
X222295D01*
X224256Y379018D01*
X225670Y380432D01*
X256183D01*
X256577Y379953D01*
Y374427D01*
X255975Y373694D01*
X163069D01*
X162543Y374964D01*
X163018Y375438D01*
X163830Y377399D01*
Y379399D01*
X175277Y390846D01*
X256015D01*
X256577Y390284D01*
D02*
G37*
G36*
X92851Y412075D02*
X93645Y410672D01*
X93472Y410255D01*
Y408133D01*
X94284Y406172D01*
X95785Y404672D01*
X97745Y403860D01*
X99745D01*
X99762Y403843D01*
Y376445D01*
X80502Y357185D01*
X79829Y356177D01*
X79592Y354988D01*
Y349142D01*
X77948Y348193D01*
X77687Y347932D01*
X76514Y348418D01*
Y373871D01*
X78397Y375755D01*
X79071Y376763D01*
X79308Y377952D01*
Y381406D01*
X80578Y381747D01*
X81399Y380324D01*
X83144Y378579D01*
X85282Y377345D01*
X87666Y376706D01*
X90134D01*
X92518Y377345D01*
X94656Y378579D01*
X96401Y380324D01*
X97635Y382462D01*
X98274Y384846D01*
Y387314D01*
X97635Y389698D01*
X96401Y391836D01*
X94656Y393581D01*
X92518Y394815D01*
X90134Y395454D01*
X87666D01*
X85282Y394815D01*
X83144Y393581D01*
X81399Y391836D01*
X80578Y390413D01*
X79308Y390754D01*
Y399017D01*
X92429Y412138D01*
X92851Y412075D01*
D02*
G37*
G36*
X70354Y375436D02*
X70298Y375158D01*
Y346857D01*
X69028Y346517D01*
X68893Y346752D01*
X67452Y348193D01*
X65687Y349211D01*
X63719Y349739D01*
X63716D01*
Y342000D01*
X61684D01*
Y349739D01*
X61681D01*
X59713Y349211D01*
X57948Y348193D01*
X56980Y347224D01*
X55710Y347750D01*
Y376706D01*
X69363D01*
X70354Y375436D01*
D02*
G37*
G36*
X272741Y341354D02*
X272646Y340763D01*
X272284Y340084D01*
X173326D01*
X165394Y348017D01*
X165880Y349190D01*
X264905D01*
X272741Y341354D01*
D02*
G37*
G36*
X368063Y327600D02*
X367588Y327126D01*
X366776Y325165D01*
Y325108D01*
X149842D01*
X148893Y326752D01*
X148044Y327600D01*
X148570Y328870D01*
X367537D01*
X368063Y327600D01*
D02*
G37*
G36*
X394512Y307213D02*
X393986Y305943D01*
X392715D01*
X390894Y305189D01*
X389501Y303796D01*
X388747Y301975D01*
Y300005D01*
X389501Y298184D01*
X390894Y296791D01*
X392715Y296037D01*
X394685D01*
X394901Y296126D01*
X396795Y294232D01*
X396309Y293059D01*
X396213D01*
X393708Y292388D01*
X391463Y291091D01*
X389629Y289257D01*
X388332Y287012D01*
X387661Y284507D01*
Y281913D01*
X388332Y279408D01*
X388691Y278786D01*
X384793Y274888D01*
X379512D01*
X378986Y276158D01*
X379991Y277163D01*
X381288Y279408D01*
X381959Y281913D01*
Y284507D01*
X381288Y287012D01*
X379991Y289257D01*
X378157Y291091D01*
X375912Y292388D01*
X373407Y293059D01*
X370813D01*
X368308Y292388D01*
X367686Y292029D01*
X345606Y314109D01*
X344597Y314783D01*
X343408Y315020D01*
X148461D01*
X147935Y316290D01*
X148893Y317248D01*
X149842Y318892D01*
X370006D01*
X370511Y318993D01*
X371049Y318770D01*
X373171D01*
X375131Y319582D01*
X376632Y321082D01*
X377281Y322648D01*
X378617Y323108D01*
X394512Y307213D01*
D02*
G37*
G36*
X18482Y527149D02*
Y309433D01*
X18719Y308244D01*
X18719Y308244D01*
X18719Y308244D01*
X18989Y307839D01*
X19392Y307236D01*
X19457Y307171D01*
X19077Y305755D01*
X17210Y305255D01*
X13966Y303382D01*
X11318Y300734D01*
X11193Y300516D01*
X9966Y300845D01*
Y520429D01*
X17212Y527675D01*
X18482Y527149D01*
D02*
G37*
G36*
X137290Y307534D02*
X136508Y306752D01*
X135489Y304987D01*
X134961Y303019D01*
Y300981D01*
X135489Y299013D01*
X136508Y297248D01*
X137948Y295807D01*
X139713Y294788D01*
X141681Y294261D01*
X143719D01*
X145687Y294788D01*
X147452Y295807D01*
X148893Y297248D01*
X149842Y298892D01*
X225033D01*
X236291Y287634D01*
X235932Y287012D01*
X235261Y284507D01*
Y281913D01*
X235932Y279408D01*
X237229Y277163D01*
X238996Y275396D01*
X238963Y274957D01*
X238740Y274126D01*
X200483D01*
X190411Y284197D01*
X189403Y284871D01*
X188214Y285108D01*
X149842D01*
X148893Y286752D01*
X147452Y288193D01*
X145687Y289212D01*
X143719Y289739D01*
X141681D01*
X139713Y289212D01*
X137948Y288193D01*
X136508Y286752D01*
X135489Y284987D01*
X134961Y283019D01*
Y280981D01*
X135489Y279013D01*
X136508Y277248D01*
X137344Y276412D01*
X136818Y275142D01*
X133953D01*
X129947Y279147D01*
X130439Y280981D01*
Y283019D01*
X129911Y284987D01*
X128892Y286752D01*
X127452Y288193D01*
X125687Y289212D01*
X123719Y289739D01*
X121681D01*
X119713Y289212D01*
X117948Y288193D01*
X117662Y287906D01*
X116392Y288433D01*
Y295567D01*
X117662Y296093D01*
X117948Y295807D01*
X119713Y294788D01*
X121681Y294261D01*
X123719D01*
X125687Y294788D01*
X127452Y295807D01*
X128892Y297248D01*
X129911Y299013D01*
X130439Y300981D01*
Y303019D01*
X129947Y304853D01*
X133899Y308804D01*
X136764D01*
X137290Y307534D01*
D02*
G37*
G36*
X435444Y328511D02*
X436453Y327837D01*
X437642Y327600D01*
X462416D01*
X463830Y326186D01*
X465791Y325374D01*
X467913D01*
X469874Y326186D01*
X471374Y327687D01*
X472186Y329647D01*
Y331345D01*
X473383Y331944D01*
X494775Y310553D01*
X495615Y309992D01*
X496606Y309795D01*
X535028D01*
X550494Y294329D01*
X549968Y293059D01*
X548613D01*
X546108Y292388D01*
X543863Y291091D01*
X542029Y289257D01*
X541588Y288493D01*
X540318Y288834D01*
Y289814D01*
X540081Y291003D01*
X539408Y292012D01*
X525494Y305925D01*
X524486Y306598D01*
X523297Y306835D01*
X449990D01*
X417794Y339030D01*
X417889Y339622D01*
X418251Y340300D01*
X423655D01*
X435444Y328511D01*
D02*
G37*
G36*
X446505Y301530D02*
X447513Y300856D01*
X448703Y300619D01*
X512651D01*
X513242Y299349D01*
X512572Y297733D01*
Y295733D01*
X510939Y294100D01*
X510266Y293092D01*
X510029Y291903D01*
Y285420D01*
X508759Y285252D01*
X508288Y287012D01*
X506991Y289257D01*
X505157Y291091D01*
X502912Y292388D01*
X500407Y293059D01*
X497813D01*
X495308Y292388D01*
X493063Y291091D01*
X491229Y289257D01*
X489932Y287012D01*
X489261Y284507D01*
Y281913D01*
X489932Y279408D01*
X491229Y277163D01*
X493063Y275329D01*
X495308Y274032D01*
X497813Y273361D01*
X500407D01*
X502912Y274032D01*
X505157Y275329D01*
X506991Y277163D01*
X508288Y279408D01*
X508759Y281168D01*
X510029Y281000D01*
Y275664D01*
X500049Y265684D01*
X498049D01*
X496088Y264872D01*
X494588Y263372D01*
X493776Y261411D01*
Y259289D01*
X494364Y257870D01*
X493657Y256600D01*
X482092D01*
X480903Y256363D01*
X479895Y255690D01*
X465289Y241084D01*
X464616Y240076D01*
X464379Y238887D01*
Y235165D01*
X463109Y234362D01*
X461995Y234823D01*
X460025D01*
X458204Y234069D01*
X456811Y232676D01*
X456057Y230855D01*
Y230047D01*
X431372D01*
X431283Y230263D01*
X429889Y231656D01*
X428799Y232108D01*
X428478Y233583D01*
X469286Y274391D01*
X469908Y274032D01*
X472413Y273361D01*
X475007D01*
X477512Y274032D01*
X479757Y275329D01*
X481591Y277163D01*
X482888Y279408D01*
X483559Y281913D01*
Y284507D01*
X482888Y287012D01*
X481591Y289257D01*
X479757Y291091D01*
X477512Y292388D01*
X475007Y293059D01*
X472413D01*
X469908Y292388D01*
X467663Y291091D01*
X465829Y289257D01*
X464532Y287012D01*
X463861Y284507D01*
Y281913D01*
X464532Y279408D01*
X464891Y278786D01*
X421623Y235518D01*
X381474D01*
X381288Y236212D01*
X379991Y238457D01*
X378157Y240291D01*
X375912Y241588D01*
X374365Y242002D01*
X374532Y243272D01*
X411480D01*
X412669Y243509D01*
X413677Y244182D01*
X443886Y274391D01*
X444508Y274032D01*
X447013Y273361D01*
X449607D01*
X452112Y274032D01*
X454357Y275329D01*
X456191Y277163D01*
X457488Y279408D01*
X458159Y281913D01*
Y284507D01*
X457488Y287012D01*
X456191Y289257D01*
X454357Y291091D01*
X452112Y292388D01*
X449607Y293059D01*
X447013D01*
X444508Y292388D01*
X442263Y291091D01*
X440429Y289257D01*
X439132Y287012D01*
X438461Y284507D01*
Y281913D01*
X439132Y279408D01*
X439491Y278786D01*
X425226Y264521D01*
X424053Y265007D01*
Y265145D01*
X423299Y266966D01*
X421906Y268359D01*
X420085Y269113D01*
X418115D01*
X417001Y268652D01*
X412510Y273143D01*
Y278759D01*
X413661Y279361D01*
X413780Y279326D01*
X415029Y277163D01*
X416863Y275329D01*
X419108Y274032D01*
X421613Y273361D01*
X424207D01*
X426712Y274032D01*
X428957Y275329D01*
X430791Y277163D01*
X432088Y279408D01*
X432759Y281913D01*
Y284507D01*
X432088Y287012D01*
X430791Y289257D01*
X428957Y291091D01*
X426712Y292388D01*
X424207Y293059D01*
X421613D01*
X419108Y292388D01*
X418486Y292029D01*
X377819Y332696D01*
X378305Y333869D01*
X414166D01*
X446505Y301530D01*
D02*
G37*
G36*
X534102Y277586D02*
Y268486D01*
X534339Y267296D01*
X535013Y266288D01*
X545931Y255370D01*
X545405Y254100D01*
X542750D01*
X541759Y253903D01*
X540919Y253341D01*
X538111Y250534D01*
X534720D01*
X533926Y250376D01*
X533254Y249926D01*
X532804Y249254D01*
X532646Y248460D01*
Y234569D01*
X530860Y232782D01*
X529074Y234569D01*
Y248460D01*
X528916Y249254D01*
X528466Y249926D01*
X527794Y250376D01*
X527000Y250534D01*
X522020D01*
X521226Y250376D01*
X520554Y249926D01*
X520104Y249254D01*
X519946Y248460D01*
Y232980D01*
X520104Y232186D01*
X520554Y231514D01*
X521226Y231064D01*
X522020Y230906D01*
X525411D01*
X526521Y229797D01*
X525907Y228315D01*
Y226345D01*
X526661Y224524D01*
X528054Y223131D01*
X529875Y222377D01*
X531358D01*
X531912Y221135D01*
X526854Y216077D01*
X489790D01*
X489141Y217347D01*
X489712Y218725D01*
Y220695D01*
X488958Y222516D01*
X487565Y223909D01*
X485744Y224663D01*
X483774D01*
X483558Y224574D01*
X478840Y229292D01*
Y231932D01*
X479056Y232021D01*
X480449Y233414D01*
X481203Y235235D01*
Y237205D01*
X480449Y239026D01*
X479056Y240419D01*
X477235Y241173D01*
X475964D01*
X475438Y242443D01*
X483379Y250384D01*
X501951D01*
X503140Y250621D01*
X504148Y251295D01*
X519906Y267053D01*
X520580Y268061D01*
X520816Y269250D01*
Y272787D01*
X521934Y273704D01*
X523213Y273361D01*
X525807D01*
X528312Y274032D01*
X530557Y275329D01*
X532391Y277163D01*
X532832Y277927D01*
X534102Y277586D01*
D02*
G37*
G36*
X407331Y277982D02*
Y272070D01*
X407528Y271079D01*
X408089Y270238D01*
X414147Y264181D01*
Y263175D01*
X414901Y261354D01*
X416294Y259961D01*
X418115Y259207D01*
X418253D01*
X418739Y258034D01*
X410193Y249488D01*
X379512D01*
X378986Y250758D01*
X379991Y251763D01*
X381288Y254008D01*
X381959Y256513D01*
Y259107D01*
X381288Y261612D01*
X379991Y263857D01*
X378157Y265691D01*
X375912Y266988D01*
X374365Y267402D01*
X374532Y268672D01*
X386080D01*
X387269Y268909D01*
X388278Y269583D01*
X393086Y274391D01*
X393708Y274032D01*
X396213Y273361D01*
X398807D01*
X401312Y274032D01*
X403557Y275329D01*
X405391Y277163D01*
X406060Y278322D01*
X407331Y277982D01*
D02*
G37*
G36*
X363291Y287634D02*
X362932Y287012D01*
X362261Y284507D01*
Y281913D01*
X362932Y279408D01*
X364229Y277163D01*
X365342Y276049D01*
X364924Y274671D01*
X364825Y274651D01*
X363816Y273978D01*
X359393Y269554D01*
X262908D01*
X262422Y270727D01*
X266086Y274391D01*
X266708Y274032D01*
X269213Y273361D01*
X271807D01*
X274312Y274032D01*
X276557Y275329D01*
X278391Y277163D01*
X279688Y279408D01*
X280359Y281913D01*
Y284507D01*
X279688Y287012D01*
X278391Y289257D01*
X276557Y291091D01*
X274312Y292388D01*
X271807Y293059D01*
X269213D01*
X266708Y292388D01*
X264463Y291091D01*
X262629Y289257D01*
X261332Y287012D01*
X260661Y284507D01*
Y281913D01*
X261332Y279408D01*
X261691Y278786D01*
X257031Y274126D01*
X251480D01*
X251257Y274957D01*
X251224Y275396D01*
X252991Y277163D01*
X254288Y279408D01*
X254959Y281913D01*
Y284507D01*
X254288Y287012D01*
X252991Y289257D01*
X251157Y291091D01*
X248912Y292388D01*
X246407Y293059D01*
X243813D01*
X241308Y292388D01*
X240686Y292029D01*
X228518Y304197D01*
X227509Y304871D01*
X226320Y305108D01*
X149842D01*
X148893Y306752D01*
X148111Y307534D01*
X148637Y308804D01*
X342121D01*
X363291Y287634D01*
D02*
G37*
G36*
X195092Y270727D02*
X194606Y269554D01*
X179595D01*
X174918Y274231D01*
X173909Y274905D01*
X172720Y275142D01*
X148583D01*
X148057Y276412D01*
X148893Y277248D01*
X149842Y278892D01*
X186927D01*
X195092Y270727D01*
D02*
G37*
G36*
X364229Y263857D02*
X362932Y261612D01*
X362261Y259107D01*
Y256513D01*
X362932Y254008D01*
X364229Y251763D01*
X365234Y250758D01*
X364708Y249488D01*
X230141D01*
X225972Y253657D01*
X224963Y254331D01*
X223774Y254568D01*
X147845D01*
X147487Y255696D01*
X147483Y255838D01*
X148893Y257248D01*
X149842Y258892D01*
X172577D01*
X174587Y256882D01*
X175595Y256209D01*
X176784Y255972D01*
X240674D01*
X242089Y254558D01*
X244049Y253746D01*
X246171D01*
X248132Y254558D01*
X249632Y256059D01*
X250444Y258019D01*
Y260141D01*
X249632Y262101D01*
X249568Y262165D01*
X250054Y263338D01*
X360680D01*
X361869Y263575D01*
X362878Y264249D01*
X363293Y264664D01*
X364229Y263857D01*
D02*
G37*
G36*
X212707Y247082D02*
X211355Y246522D01*
X209940Y245108D01*
X149842D01*
X148893Y246752D01*
X148563Y247082D01*
X149089Y248352D01*
X212455D01*
X212707Y247082D01*
D02*
G37*
G36*
X733553Y259782D02*
X732529Y258758D01*
X731232Y256512D01*
X730561Y254007D01*
Y251413D01*
X731232Y248909D01*
X732529Y246663D01*
X734363Y244829D01*
X736608Y243532D01*
X739113Y242861D01*
X741707D01*
X744212Y243532D01*
X746457Y244829D01*
X748291Y246663D01*
X749588Y248909D01*
X750002Y250455D01*
X751272Y250288D01*
Y225806D01*
X751509Y224617D01*
X752182Y223608D01*
X810764Y165027D01*
X809957Y164091D01*
X807712Y165388D01*
X805207Y166059D01*
X802613D01*
X800108Y165388D01*
X797863Y164091D01*
X796029Y162257D01*
X794732Y160012D01*
X794061Y157507D01*
Y154913D01*
X794732Y152408D01*
X796029Y150163D01*
X797863Y148329D01*
X800108Y147032D01*
X802613Y146361D01*
X805207D01*
X807712Y147032D01*
X809957Y148329D01*
X811791Y150163D01*
X813088Y152408D01*
X813759Y154913D01*
Y157507D01*
X813088Y160012D01*
X811791Y162257D01*
X812727Y163064D01*
X826202Y149589D01*
Y140174D01*
X825508Y139988D01*
X823263Y138691D01*
X821429Y136857D01*
X820132Y134612D01*
X819461Y132107D01*
Y129513D01*
X820132Y127008D01*
X820491Y126386D01*
X748267Y54162D01*
X58183D01*
X51876Y60469D01*
Y66022D01*
X53049Y66508D01*
X62826Y56730D01*
X63835Y56057D01*
X65024Y55820D01*
X715518D01*
X716707Y56057D01*
X717716Y56730D01*
X764871Y103886D01*
X766871D01*
X768831Y104698D01*
X770332Y106199D01*
X771144Y108159D01*
Y110281D01*
X770332Y112241D01*
X768831Y113742D01*
X766871Y114554D01*
X764749D01*
X762788Y113742D01*
X761288Y112241D01*
X760476Y110281D01*
Y108281D01*
X714231Y62036D01*
X66311D01*
X56448Y71899D01*
Y115512D01*
X57718Y116038D01*
X57948Y115808D01*
X59713Y114789D01*
X61681Y114261D01*
X63719D01*
X65687Y114789D01*
X67452Y115808D01*
X68893Y117248D01*
X69911Y119013D01*
X70439Y120981D01*
Y123019D01*
X69911Y124987D01*
X68893Y126752D01*
X67452Y128193D01*
X65687Y129212D01*
X63719Y129739D01*
X61681D01*
X59713Y129212D01*
X57948Y128193D01*
X57718Y127963D01*
X56448Y128489D01*
Y135512D01*
X57718Y136038D01*
X57948Y135808D01*
X59713Y134789D01*
X61681Y134261D01*
X63719D01*
X65687Y134789D01*
X67452Y135808D01*
X68893Y137248D01*
X69112Y137629D01*
X70451Y137408D01*
X70535Y136987D01*
X71209Y135978D01*
X77681Y129506D01*
X77873Y128563D01*
X77636Y127881D01*
X76507Y126752D01*
X75488Y124987D01*
X74961Y123019D01*
Y120981D01*
X75488Y119013D01*
X76507Y117248D01*
X77948Y115808D01*
X79592Y114858D01*
Y94592D01*
X79829Y93403D01*
X80502Y92395D01*
X108293Y64605D01*
X109301Y63931D01*
X110490Y63694D01*
X562102D01*
X563291Y63931D01*
X564300Y64605D01*
X621686Y121991D01*
X622308Y121632D01*
X624813Y120961D01*
X627407D01*
X629912Y121632D01*
X630534Y121991D01*
X635342Y117183D01*
X636351Y116509D01*
X637540Y116272D01*
X658368D01*
X659557Y116509D01*
X660565Y117183D01*
X665137Y121755D01*
X665811Y122763D01*
X666048Y123952D01*
Y128388D01*
X667318Y128555D01*
X667732Y127008D01*
X669029Y124763D01*
X670863Y122929D01*
X673108Y121632D01*
X675613Y120961D01*
X678207D01*
X680712Y121632D01*
X682957Y122929D01*
X684791Y124763D01*
X686088Y127008D01*
X686759Y129513D01*
Y132107D01*
X686088Y134612D01*
X684791Y136857D01*
X682957Y138691D01*
X680712Y139988D01*
X678207Y140659D01*
X675613D01*
X673108Y139988D01*
X670863Y138691D01*
X669029Y136857D01*
X667732Y134612D01*
X667318Y133065D01*
X666048Y133232D01*
Y149098D01*
X665811Y150287D01*
X665137Y151295D01*
X632059Y184374D01*
X632480Y185749D01*
X633812Y186301D01*
X635205Y187694D01*
X635946Y189484D01*
X631006D01*
Y190500D01*
X629990D01*
Y195440D01*
X628200Y194699D01*
X626807Y193306D01*
X626255Y191974D01*
X624880Y191553D01*
X620151Y196282D01*
X620371Y197160D01*
X620639Y197552D01*
X656573D01*
X718891Y135234D01*
X718532Y134612D01*
X717861Y132107D01*
Y129513D01*
X718532Y127008D01*
X719829Y124763D01*
X721663Y122929D01*
X723908Y121632D01*
X726413Y120961D01*
X729007D01*
X731512Y121632D01*
X733757Y122929D01*
X735591Y124763D01*
X736888Y127008D01*
X737559Y129513D01*
Y132107D01*
X736888Y134612D01*
X735591Y136857D01*
X733757Y138691D01*
X731512Y139988D01*
X729007Y140659D01*
X726413D01*
X723908Y139988D01*
X723286Y139629D01*
X660058Y202857D01*
X658991Y203924D01*
X659710Y205001D01*
X660685Y204597D01*
X662655D01*
X664476Y205351D01*
X665869Y206744D01*
X666623Y208565D01*
Y210535D01*
X666219Y211510D01*
X667296Y212229D01*
X744291Y135234D01*
X743932Y134612D01*
X743261Y132107D01*
Y129513D01*
X743932Y127008D01*
X745229Y124763D01*
X747063Y122929D01*
X749308Y121632D01*
X751813Y120961D01*
X754407D01*
X756912Y121632D01*
X759157Y122929D01*
X760991Y124763D01*
X762288Y127008D01*
X762959Y129513D01*
Y132107D01*
X762288Y134612D01*
X760991Y136857D01*
X759157Y138691D01*
X756912Y139988D01*
X754407Y140659D01*
X751813D01*
X749308Y139988D01*
X748686Y139629D01*
X650233Y238082D01*
X650719Y239255D01*
X705772D01*
X710146Y234881D01*
X710057Y234665D01*
Y232695D01*
X710811Y230874D01*
X712204Y229481D01*
X714025Y228727D01*
X715995D01*
X717816Y229481D01*
X719209Y230874D01*
X719963Y232695D01*
Y234665D01*
X719209Y236486D01*
X717816Y237879D01*
X715995Y238633D01*
X714025D01*
X713809Y238544D01*
X709027Y243325D01*
X709807Y244341D01*
X711208Y243532D01*
X713713Y242861D01*
X716307D01*
X718812Y243532D01*
X721057Y244829D01*
X722891Y246663D01*
X724188Y248909D01*
X724859Y251413D01*
Y254007D01*
X724188Y256512D01*
X722891Y258758D01*
X721867Y259782D01*
X722393Y261052D01*
X733027D01*
X733553Y259782D01*
D02*
G37*
G36*
X226656Y244182D02*
X227665Y243509D01*
X228854Y243272D01*
X369688D01*
X369855Y242002D01*
X368308Y241588D01*
X366063Y240291D01*
X364229Y238457D01*
X362932Y236212D01*
X362746Y235518D01*
X215983D01*
X215731Y236788D01*
X217397Y237478D01*
X218898Y238979D01*
X219710Y240939D01*
Y243061D01*
X218898Y245021D01*
X217397Y246522D01*
X216045Y247082D01*
X216297Y248352D01*
X222487D01*
X226656Y244182D01*
D02*
G37*
G36*
X211355Y237478D02*
X213021Y236788D01*
X212769Y235518D01*
X148959D01*
X148433Y236788D01*
X148893Y237248D01*
X149842Y238892D01*
X209940D01*
X211355Y237478D01*
D02*
G37*
G36*
X600317Y257760D02*
X599694Y256255D01*
Y254637D01*
X598879Y253822D01*
X598317Y252981D01*
X598120Y251990D01*
Y250514D01*
X597426Y250376D01*
X596754Y249926D01*
X596304Y249254D01*
X596146Y248460D01*
Y234569D01*
X594159Y232581D01*
X592869Y232620D01*
X592574Y232980D01*
Y248265D01*
X592963Y249205D01*
Y251175D01*
X592209Y252996D01*
X590816Y254389D01*
X588995Y255143D01*
X587025D01*
X585204Y254389D01*
X583811Y252996D01*
X583057Y251175D01*
Y249205D01*
X583446Y248265D01*
Y232980D01*
X583068Y232520D01*
X580252D01*
X579874Y232980D01*
Y245725D01*
X580263Y246665D01*
Y248635D01*
X579509Y250456D01*
X578116Y251849D01*
X576295Y252603D01*
X574701D01*
X574087Y253735D01*
X574079Y253776D01*
X579333Y259030D01*
X599743D01*
X600317Y257760D01*
D02*
G37*
G36*
X615754Y251804D02*
X615228Y250534D01*
X614426D01*
Y241736D01*
X617974D01*
Y247788D01*
X619244Y248314D01*
X656806Y210751D01*
X656717Y210535D01*
Y208565D01*
X657121Y207590D01*
X656044Y206871D01*
X653708Y209207D01*
X652699Y209881D01*
X651510Y210118D01*
X633374D01*
X633121Y211388D01*
X633211Y211425D01*
X634604Y212818D01*
X635345Y214608D01*
X625465D01*
X626206Y212818D01*
X627599Y211425D01*
X627689Y211388D01*
X627436Y210118D01*
X529742D01*
X529357Y211388D01*
X529758Y211656D01*
X549009Y230906D01*
X552400D01*
X553194Y231064D01*
X554429Y230695D01*
X554559Y230565D01*
X557025Y228099D01*
X557866Y227537D01*
X558857Y227340D01*
X595170D01*
X596161Y227537D01*
X597001Y228099D01*
X599809Y230906D01*
X603200D01*
X603994Y231064D01*
X604666Y231514D01*
X605116Y232186D01*
X605274Y232980D01*
Y248460D01*
X605157Y249047D01*
X605396Y249687D01*
X605868Y250415D01*
X607453Y251071D01*
X608846Y252464D01*
X609600Y254285D01*
Y256161D01*
X609851Y256378D01*
X610743Y256815D01*
X615754Y251804D01*
D02*
G37*
G36*
X422131Y228442D02*
Y226472D01*
X422592Y225358D01*
X421789Y224088D01*
X379512D01*
X378986Y225358D01*
X379991Y226363D01*
X381288Y228608D01*
X381474Y229302D01*
X421556D01*
X422131Y228442D01*
D02*
G37*
G36*
X362932Y228608D02*
X364229Y226363D01*
X365234Y225358D01*
X364708Y224088D01*
X262462D01*
X258517Y228032D01*
X259043Y229302D01*
X362746D01*
X362932Y228608D01*
D02*
G37*
G36*
X208651Y228032D02*
X196325Y215706D01*
X149147D01*
X148621Y216976D01*
X148893Y217248D01*
X149912Y219013D01*
X150439Y220981D01*
Y223019D01*
X149912Y224987D01*
X148893Y226752D01*
X147613Y228032D01*
X147731Y228693D01*
X148070Y229302D01*
X208125D01*
X208651Y228032D01*
D02*
G37*
G36*
X244050Y221996D02*
X243332Y220263D01*
Y218263D01*
X236203Y211134D01*
X202202D01*
X201716Y212307D01*
X212675Y223266D01*
X243527D01*
X244050Y221996D01*
D02*
G37*
G36*
X472051Y233414D02*
X473444Y232021D01*
X473660Y231932D01*
Y228219D01*
X473857Y227228D01*
X474419Y226388D01*
X479895Y220911D01*
X479806Y220695D01*
Y218725D01*
X480377Y217347D01*
X479728Y216077D01*
X460218D01*
X460129Y216293D01*
X458736Y217686D01*
X456915Y218440D01*
X454945D01*
X453124Y217686D01*
X451731Y216293D01*
X450977Y214472D01*
Y212502D01*
X451438Y211388D01*
X450635Y210118D01*
X400676D01*
X399262Y211532D01*
X397301Y212344D01*
X395179D01*
X393218Y211532D01*
X391718Y210032D01*
X390906Y208071D01*
Y205949D01*
X391283Y205038D01*
X390435Y203768D01*
X382752D01*
X381770Y205007D01*
X381959Y205713D01*
Y205994D01*
X372110D01*
X362261D01*
Y205713D01*
X362932Y203208D01*
X364229Y200963D01*
X366063Y199129D01*
X368308Y197832D01*
X369855Y197418D01*
X369688Y196148D01*
X277075D01*
X276271Y197418D01*
X276733Y198532D01*
Y200502D01*
X276681Y200628D01*
X279203Y203150D01*
X350136D01*
X350225Y202934D01*
X351618Y201541D01*
X353439Y200787D01*
X355409D01*
X357230Y201541D01*
X358623Y202934D01*
X359377Y204755D01*
Y206725D01*
X358623Y208546D01*
X357230Y209939D01*
X355409Y210693D01*
X353439D01*
X351618Y209939D01*
X350225Y208546D01*
X350136Y208330D01*
X278130D01*
X277139Y208133D01*
X276299Y207571D01*
X273071Y204343D01*
X272765Y204470D01*
X270795D01*
X268974Y203716D01*
X267581Y202323D01*
X266827Y200502D01*
Y198532D01*
X267288Y197418D01*
X266485Y196148D01*
X254652D01*
X254400Y197418D01*
X254989Y197662D01*
X256490Y199163D01*
X257302Y201123D01*
Y203245D01*
X256490Y205205D01*
X254989Y206706D01*
X253029Y207518D01*
X250907D01*
X248946Y206706D01*
X247532Y205292D01*
X240947D01*
X240421Y206562D01*
X247727Y213868D01*
X249727D01*
X251688Y214680D01*
X253188Y216180D01*
X254000Y218141D01*
Y220263D01*
X253552Y221343D01*
X254264Y222674D01*
X254979Y222781D01*
X258977Y218783D01*
X259985Y218109D01*
X261175Y217872D01*
X369688D01*
X369855Y216602D01*
X368308Y216188D01*
X366063Y214891D01*
X364229Y213057D01*
X362932Y210812D01*
X362261Y208307D01*
Y208026D01*
X372110D01*
X381959D01*
Y208307D01*
X381288Y210812D01*
X379991Y213057D01*
X378157Y214891D01*
X375912Y216188D01*
X374365Y216602D01*
X374532Y217872D01*
X449580D01*
X450769Y218109D01*
X451777Y218783D01*
X453280Y220285D01*
X463693D01*
X464882Y220522D01*
X465890Y221196D01*
X469684Y224990D01*
X470358Y225998D01*
X470595Y227187D01*
Y233612D01*
X471865Y233864D01*
X472051Y233414D01*
D02*
G37*
G36*
X164622Y208317D02*
X145553Y189248D01*
X143719Y189739D01*
X141681D01*
X139713Y189212D01*
X137948Y188193D01*
X136508Y186752D01*
X135489Y184987D01*
X134961Y183019D01*
Y180981D01*
X135489Y179013D01*
X136508Y177248D01*
X137948Y175807D01*
X139713Y174789D01*
X141681Y174261D01*
X143719D01*
X145687Y174789D01*
X147452Y175807D01*
X148893Y177248D01*
X149912Y179013D01*
X150439Y180981D01*
Y183019D01*
X149948Y184853D01*
X170013Y204918D01*
X179427D01*
X179953Y203648D01*
X145553Y169248D01*
X143719Y169739D01*
X141681D01*
X139713Y169212D01*
X137948Y168193D01*
X136508Y166752D01*
X135489Y164987D01*
X134961Y163019D01*
Y160981D01*
X135489Y159013D01*
X136508Y157248D01*
X136724Y157032D01*
X136198Y155762D01*
X129202D01*
X128676Y157032D01*
X128892Y157248D01*
X129911Y159013D01*
X130439Y160981D01*
Y163019D01*
X129911Y164987D01*
X128892Y166752D01*
X127452Y168193D01*
X125687Y169212D01*
X123719Y169739D01*
X121681D01*
X119713Y169212D01*
X117948Y168193D01*
X116507Y166752D01*
X115488Y164987D01*
X114961Y163019D01*
Y160981D01*
X115488Y159013D01*
X116507Y157248D01*
X116724Y157032D01*
X116198Y155762D01*
X113333D01*
X109948Y159148D01*
X110439Y160981D01*
Y163019D01*
X109911Y164987D01*
X108893Y166752D01*
X107452Y168193D01*
X105687Y169212D01*
X103719Y169739D01*
X101681D01*
X99713Y169212D01*
X97948Y168193D01*
X97596Y167841D01*
X96326Y168367D01*
Y175634D01*
X97596Y176160D01*
X97948Y175807D01*
X99713Y174789D01*
X101681Y174261D01*
X103719D01*
X105687Y174789D01*
X107452Y175807D01*
X108893Y177248D01*
X109911Y179013D01*
X110439Y180981D01*
Y183019D01*
X109911Y184987D01*
X108893Y186752D01*
X107452Y188193D01*
X105687Y189212D01*
X103719Y189739D01*
X101681D01*
X99713Y189212D01*
X97948Y188193D01*
X97596Y187841D01*
X96326Y188367D01*
Y191231D01*
X99847Y194753D01*
X101681Y194261D01*
X103719D01*
X105687Y194788D01*
X107452Y195807D01*
X108893Y197248D01*
X109911Y199013D01*
X110439Y200981D01*
Y203019D01*
X109911Y204987D01*
X108893Y206752D01*
X107452Y208193D01*
X107404Y208220D01*
X107745Y209490D01*
X117655D01*
X117995Y208220D01*
X117948Y208193D01*
X116507Y206752D01*
X115488Y204987D01*
X114961Y203019D01*
Y200981D01*
X115488Y199013D01*
X116507Y197248D01*
X117948Y195807D01*
X119713Y194788D01*
X121681Y194261D01*
X123719D01*
X125687Y194788D01*
X127452Y195807D01*
X128892Y197248D01*
X129911Y199013D01*
X130439Y200981D01*
Y203019D01*
X129911Y204987D01*
X128892Y206752D01*
X127452Y208193D01*
X127404Y208220D01*
X127744Y209490D01*
X137656D01*
X137996Y208220D01*
X137948Y208193D01*
X136508Y206752D01*
X135489Y204987D01*
X134961Y203019D01*
Y200981D01*
X135489Y199013D01*
X136508Y197248D01*
X137948Y195807D01*
X139713Y194788D01*
X141681Y194261D01*
X143719D01*
X145687Y194788D01*
X147452Y195807D01*
X148893Y197248D01*
X149912Y199013D01*
X150439Y200981D01*
Y203019D01*
X149912Y204987D01*
X148893Y206752D01*
X147452Y208193D01*
X147405Y208220D01*
X147745Y209490D01*
X164136D01*
X164622Y208317D01*
D02*
G37*
G36*
X11318Y283266D02*
X13966Y280618D01*
X17210Y278745D01*
X20827Y277776D01*
X24573D01*
X28190Y278745D01*
X28265Y278789D01*
X28714Y278606D01*
X29448Y278005D01*
X29448Y277070D01*
X29684Y275881D01*
X30358Y274873D01*
X54699Y250532D01*
X55707Y249859D01*
X56896Y249622D01*
X57884D01*
X58224Y248352D01*
X57948Y248193D01*
X56507Y246752D01*
X55488Y244987D01*
X54961Y243019D01*
Y240981D01*
X55488Y239013D01*
X56507Y237248D01*
X57948Y235807D01*
X59713Y234788D01*
X61681Y234261D01*
X63719D01*
X65553Y234752D01*
X70092Y230212D01*
X71101Y229539D01*
X72290Y229302D01*
X77330D01*
X77669Y228693D01*
X77787Y228032D01*
X76507Y226752D01*
X75488Y224987D01*
X74961Y223019D01*
Y220981D01*
X75488Y219013D01*
X76507Y217248D01*
X77948Y215807D01*
X79713Y214788D01*
X81681Y214261D01*
X83719D01*
X85553Y214752D01*
X89904Y210401D01*
X90913Y209727D01*
X92102Y209490D01*
X97655D01*
X97996Y208220D01*
X97948Y208193D01*
X96507Y206752D01*
X95488Y204987D01*
X94961Y203019D01*
Y200981D01*
X95452Y199147D01*
X91020Y194716D01*
X90347Y193708D01*
X90110Y192518D01*
Y187183D01*
X89080Y186818D01*
X88840Y186804D01*
X87452Y188193D01*
X85687Y189212D01*
X83719Y189739D01*
X81681D01*
X79713Y189212D01*
X77948Y188193D01*
X76507Y186752D01*
X75488Y184987D01*
X74961Y183019D01*
Y180981D01*
X75452Y179147D01*
X71371Y175066D01*
X68506D01*
X67980Y176336D01*
X68893Y177248D01*
X69911Y179013D01*
X70439Y180981D01*
Y183019D01*
X69911Y184987D01*
X68893Y186752D01*
X67490Y188154D01*
X67498Y188333D01*
X67859Y189424D01*
X73232D01*
X74421Y189661D01*
X75429Y190334D01*
X79847Y194753D01*
X81681Y194261D01*
X83719D01*
X85687Y194788D01*
X87452Y195807D01*
X88893Y197248D01*
X89911Y199013D01*
X90439Y200981D01*
Y203019D01*
X89911Y204987D01*
X88893Y206752D01*
X87452Y208193D01*
X85687Y209212D01*
X83719Y209739D01*
X81681D01*
X79713Y209212D01*
X77948Y208193D01*
X76507Y206752D01*
X75488Y204987D01*
X74961Y203019D01*
Y200981D01*
X75452Y199147D01*
X71944Y195640D01*
X69080D01*
X68554Y196910D01*
X68893Y197248D01*
X69911Y199013D01*
X70439Y200981D01*
Y203019D01*
X69911Y204987D01*
X69566Y205585D01*
X69761Y206049D01*
X70357Y206756D01*
X72181D01*
X74142Y207568D01*
X75642Y209069D01*
X76454Y211029D01*
Y213151D01*
X75642Y215112D01*
X74142Y216612D01*
X72181Y217424D01*
X70461D01*
X69757Y218340D01*
X69672Y218597D01*
X69911Y219013D01*
X70439Y220981D01*
Y223019D01*
X69911Y224987D01*
X68893Y226752D01*
X67452Y228193D01*
X65687Y229212D01*
X63719Y229739D01*
X61681D01*
X59713Y229212D01*
X57948Y228193D01*
X56507Y226752D01*
X55488Y224987D01*
X54961Y223019D01*
Y220981D01*
X55488Y219013D01*
X56507Y217248D01*
X57288Y216468D01*
X56762Y215198D01*
X50546D01*
X49357Y214961D01*
X48348Y214287D01*
X47421Y213360D01*
X45421D01*
X43460Y212548D01*
X41960Y211047D01*
X41148Y209087D01*
Y206965D01*
X41960Y205005D01*
X43460Y203504D01*
X45421Y202692D01*
X47543D01*
X49503Y203504D01*
X51004Y205005D01*
X51816Y206965D01*
Y208965D01*
X51833Y208982D01*
X56941D01*
X57467Y207712D01*
X56507Y206752D01*
X55488Y204987D01*
X54961Y203019D01*
Y200981D01*
X55488Y199013D01*
X56507Y197248D01*
X56846Y196910D01*
X56320Y195640D01*
X40911D01*
X9966Y226585D01*
Y283155D01*
X11193Y283484D01*
X11318Y283266D01*
D02*
G37*
G36*
X440333Y197160D02*
X440553Y196282D01*
X435279Y191008D01*
X433279D01*
X431319Y190196D01*
X429818Y188696D01*
X429226Y187266D01*
X427833Y186864D01*
X426175Y188521D01*
X425335Y189083D01*
X424344Y189280D01*
X391586D01*
X391549Y189369D01*
X390156Y190762D01*
X388335Y191516D01*
X386365D01*
X384544Y190762D01*
X383151Y189369D01*
X382397Y187548D01*
Y185976D01*
X381127Y185690D01*
X379991Y187657D01*
X378157Y189491D01*
X377339Y189964D01*
X377130Y191551D01*
X383131Y197552D01*
X440065D01*
X440333Y197160D01*
D02*
G37*
G36*
X365234Y188662D02*
X364229Y187657D01*
X362932Y185412D01*
X362261Y182907D01*
Y180313D01*
X362932Y177808D01*
X364229Y175563D01*
X366063Y173729D01*
X368308Y172432D01*
X369855Y172018D01*
X369688Y170748D01*
X260285D01*
X260141Y171958D01*
X262101Y172770D01*
X263602Y174270D01*
X264414Y176231D01*
Y178353D01*
X263602Y180313D01*
X263284Y180631D01*
X263771Y181804D01*
X341908D01*
X342188Y181129D01*
X343689Y179628D01*
X345649Y178816D01*
X347771D01*
X349731Y179628D01*
X351232Y181129D01*
X352044Y183089D01*
Y185211D01*
X351232Y187171D01*
X349741Y188662D01*
X349742Y188719D01*
X350007Y189932D01*
X364708D01*
X365234Y188662D01*
D02*
G37*
G36*
X604060Y179158D02*
X603434Y177987D01*
X603200Y178034D01*
X599809D01*
X597001Y180841D01*
X596161Y181403D01*
X595170Y181600D01*
X534570D01*
X534044Y182870D01*
X535059Y183884D01*
X535148Y184100D01*
X599117D01*
X604060Y179158D01*
D02*
G37*
G36*
X249216Y190842D02*
X250224Y190169D01*
X251413Y189932D01*
X342750D01*
X343275Y188662D01*
X342817Y188118D01*
X342677Y188020D01*
X201676D01*
X200487Y187783D01*
X199478Y187110D01*
X189153Y176784D01*
X187153D01*
X187015Y176727D01*
X186295Y177803D01*
X202996Y194504D01*
X245554D01*
X249216Y190842D01*
D02*
G37*
G36*
X89080Y177182D02*
X90110Y176817D01*
Y167183D01*
X89080Y166818D01*
X88840Y166804D01*
X87452Y168193D01*
X85687Y169212D01*
X83719Y169739D01*
X81681D01*
X79713Y169212D01*
X77948Y168193D01*
X76507Y166752D01*
X75488Y164987D01*
X74961Y163019D01*
Y160981D01*
X75488Y159013D01*
X76507Y157248D01*
X77715Y156040D01*
X77750Y155540D01*
X77697Y155067D01*
X77532Y154581D01*
X76796Y154089D01*
X71209Y148502D01*
X70535Y147493D01*
X70380Y146716D01*
X69076Y146434D01*
X68893Y146752D01*
X67452Y148193D01*
X65687Y149212D01*
X63719Y149739D01*
X61681D01*
X59713Y149212D01*
X57948Y148193D01*
X57718Y147963D01*
X56448Y148489D01*
Y155512D01*
X57718Y156038D01*
X57948Y155807D01*
X59713Y154789D01*
X61681Y154261D01*
X63719D01*
X65687Y154789D01*
X67452Y155807D01*
X68893Y157248D01*
X69911Y159013D01*
X70439Y160981D01*
Y163019D01*
X69911Y164987D01*
X68893Y166752D01*
X68064Y167580D01*
X68590Y168850D01*
X72658D01*
X73847Y169087D01*
X74855Y169760D01*
X79847Y174753D01*
X81681Y174261D01*
X83719D01*
X85687Y174789D01*
X87452Y175807D01*
X88840Y177196D01*
X89080Y177182D01*
D02*
G37*
G36*
X659832Y147811D02*
Y138212D01*
X658562Y137686D01*
X657557Y138691D01*
X655312Y139988D01*
X652807Y140659D01*
X650213D01*
X647708Y139988D01*
X647086Y139629D01*
X642278Y144438D01*
X641269Y145111D01*
X640080Y145348D01*
X624516D01*
X623990Y146618D01*
X627449Y150076D01*
X627665Y149987D01*
X629635D01*
X631456Y150741D01*
X632849Y152134D01*
X633603Y153955D01*
Y155925D01*
X632849Y157746D01*
X631456Y159139D01*
X630014Y159736D01*
X629549Y161066D01*
X631259Y162776D01*
X631475Y162687D01*
X633445D01*
X635266Y163441D01*
X636659Y164834D01*
X637413Y166655D01*
Y168434D01*
X637929Y168815D01*
X638586Y169057D01*
X659832Y147811D01*
D02*
G37*
G36*
X383151Y183757D02*
X384544Y182364D01*
X386365Y181610D01*
X388335D01*
X389141Y181944D01*
X389798Y181356D01*
X397128D01*
X396715Y182354D01*
X396239Y182830D01*
X396765Y184100D01*
X423271D01*
X452382Y154990D01*
X452332Y154556D01*
X451945Y153720D01*
X443708D01*
X443619Y153936D01*
X442226Y155329D01*
X440405Y156083D01*
X438435D01*
X436614Y155329D01*
X435221Y153936D01*
X434467Y152115D01*
Y150145D01*
X435221Y148324D01*
X436614Y146931D01*
X437371Y146618D01*
X437118Y145348D01*
X374532D01*
X374365Y146618D01*
X375912Y147032D01*
X378157Y148329D01*
X379991Y150163D01*
X381288Y152408D01*
X381959Y154913D01*
Y157507D01*
X381288Y160012D01*
X379991Y162257D01*
X378986Y163262D01*
X379512Y164532D01*
X401964D01*
X403378Y163118D01*
X405339Y162306D01*
X407461D01*
X409422Y163118D01*
X410922Y164618D01*
X411734Y166579D01*
Y168701D01*
X410922Y170662D01*
X409422Y172162D01*
X407461Y172974D01*
X405339D01*
X403378Y172162D01*
X401964Y170748D01*
X374532D01*
X374365Y172018D01*
X375912Y172432D01*
X378157Y173729D01*
X379991Y175563D01*
X381288Y177808D01*
X381959Y180313D01*
Y182907D01*
X381648Y184067D01*
X382853Y184477D01*
X383151Y183757D01*
D02*
G37*
G36*
X527098Y189932D02*
X526661Y189496D01*
X525907Y187675D01*
Y185705D01*
X526661Y183884D01*
X527676Y182870D01*
X527150Y181600D01*
X520757D01*
X519766Y181403D01*
X518925Y180841D01*
X497392Y159308D01*
X482961D01*
X482315Y160274D01*
X475265D01*
X474619Y159308D01*
X455388D01*
X443023Y171674D01*
X443403Y173089D01*
X444639Y173601D01*
X446032Y174994D01*
X446773Y176784D01*
X441833D01*
Y177800D01*
X440817D01*
Y182740D01*
X440160Y182468D01*
X439188Y183440D01*
X439674Y184613D01*
Y186613D01*
X444263Y191202D01*
X526572D01*
X527098Y189932D01*
D02*
G37*
G36*
X633877Y173766D02*
X633635Y173109D01*
X633254Y172593D01*
X631475D01*
X629654Y171839D01*
X628261Y170446D01*
X627507Y168625D01*
Y166655D01*
X627596Y166439D01*
X614623Y153466D01*
X601177D01*
X597360Y157282D01*
X597986Y158453D01*
X598220Y158406D01*
X603200D01*
X603994Y158564D01*
X604666Y159014D01*
X605116Y159686D01*
X605274Y160480D01*
Y175960D01*
X605227Y176194D01*
X606398Y176820D01*
X608846Y174371D01*
Y160480D01*
X609004Y159686D01*
X609454Y159014D01*
X610126Y158564D01*
X610920Y158406D01*
X615900D01*
X616694Y158564D01*
X617366Y159014D01*
X617816Y159686D01*
X617974Y160480D01*
Y175960D01*
X617816Y176754D01*
X617366Y177426D01*
X616694Y177876D01*
X615900Y178034D01*
X612509D01*
X602021Y188521D01*
X601181Y189083D01*
X600190Y189280D01*
X535629D01*
X535165Y189932D01*
X535775Y191202D01*
X616441D01*
X633877Y173766D01*
D02*
G37*
G36*
X583446Y175960D02*
Y160480D01*
X583604Y159686D01*
X584054Y159014D01*
X584726Y158564D01*
X585520Y158406D01*
X588911D01*
X596234Y151083D01*
X595748Y149910D01*
X579333D01*
X571960Y157282D01*
X572586Y158453D01*
X572820Y158406D01*
X577800D01*
X578594Y158564D01*
X579266Y159014D01*
X579716Y159686D01*
X579874Y160480D01*
Y175960D01*
X580252Y176420D01*
X583068D01*
X583446Y175960D01*
D02*
G37*
G36*
X365234Y163262D02*
X364229Y162257D01*
X362932Y160012D01*
X362261Y157507D01*
Y154913D01*
X362932Y152408D01*
X364229Y150163D01*
X366063Y148329D01*
X368308Y147032D01*
X369855Y146618D01*
X369688Y145348D01*
X344905D01*
X344520Y146618D01*
X344731Y146759D01*
X354309Y156337D01*
X354615Y156210D01*
X356585D01*
X358406Y156964D01*
X359799Y158357D01*
X360553Y160178D01*
Y162148D01*
X360092Y163262D01*
X360895Y164532D01*
X364708D01*
X365234Y163262D01*
D02*
G37*
G36*
X197605Y197903D02*
X155464Y155762D01*
X149202D01*
X148676Y157032D01*
X148893Y157248D01*
X149912Y159013D01*
X150439Y160981D01*
Y163019D01*
X149948Y164853D01*
X184171Y199076D01*
X197119D01*
X197605Y197903D01*
D02*
G37*
G36*
X351109Y163262D02*
X350647Y162148D01*
Y160178D01*
X350699Y160052D01*
X341827Y151180D01*
X308465D01*
X307764Y152450D01*
X308356Y153879D01*
Y156001D01*
X307544Y157962D01*
X306043Y159462D01*
X304083Y160274D01*
X302083D01*
X299095Y163262D01*
X299315Y164140D01*
X299583Y164532D01*
X350305D01*
X351109Y163262D01*
D02*
G37*
G36*
X297688Y155879D02*
Y153879D01*
X298280Y152450D01*
X297579Y151180D01*
X271041D01*
X270899Y151523D01*
X269506Y152916D01*
X267685Y153670D01*
X265715D01*
X263894Y152916D01*
X262501Y151523D01*
X261747Y149702D01*
Y147732D01*
X262208Y146618D01*
X261405Y145348D01*
X215663D01*
X214474Y145111D01*
X213466Y144438D01*
X184873Y115845D01*
X150439D01*
Y118892D01*
X183722D01*
X184911Y119129D01*
X185920Y119803D01*
X224299Y158182D01*
X295385D01*
X297688Y155879D01*
D02*
G37*
G36*
X558046Y175960D02*
Y160480D01*
X558204Y159686D01*
X558654Y159014D01*
X559326Y158564D01*
X560120Y158406D01*
X563511D01*
X575300Y146618D01*
X574774Y145348D01*
X441722D01*
X441469Y146618D01*
X442226Y146931D01*
X443619Y148324D01*
X443708Y148540D01*
X538070D01*
X539061Y148737D01*
X539901Y149299D01*
X549009Y158406D01*
X552400D01*
X553194Y158564D01*
X553866Y159014D01*
X554316Y159686D01*
X554474Y160480D01*
Y175960D01*
X554852Y176420D01*
X557668D01*
X558046Y175960D01*
D02*
G37*
G36*
X182937Y172649D02*
X182880Y172511D01*
Y170389D01*
X183692Y168428D01*
X185193Y166928D01*
X187153Y166116D01*
X188881D01*
X189500Y164939D01*
X169669Y145108D01*
X149842D01*
X148893Y146752D01*
X147452Y148193D01*
X147308Y148276D01*
X147648Y149546D01*
X156751D01*
X157940Y149783D01*
X158948Y150456D01*
X181861Y173369D01*
X182937Y172649D01*
D02*
G37*
G36*
X256059Y172770D02*
X258019Y171958D01*
X257875Y170748D01*
X220795D01*
X219606Y170511D01*
X218598Y169837D01*
X184456Y135696D01*
X149136D01*
X148610Y136966D01*
X148893Y137248D01*
X149842Y138892D01*
X170956D01*
X172146Y139129D01*
X173154Y139803D01*
X207535Y174184D01*
X254644D01*
X256059Y172770D01*
D02*
G37*
G36*
X97147Y156609D02*
X97948Y155807D01*
X99713Y154789D01*
X101681Y154261D01*
X103719D01*
X105553Y154753D01*
X109848Y150456D01*
X110857Y149783D01*
X112046Y149546D01*
X117752D01*
X118092Y148276D01*
X117948Y148193D01*
X116507Y146752D01*
X115488Y144987D01*
X114961Y143019D01*
Y140981D01*
X115488Y139013D01*
X116507Y137248D01*
X116790Y136966D01*
X116264Y135696D01*
X113399D01*
X109948Y139148D01*
X110439Y140981D01*
Y143019D01*
X109911Y144987D01*
X108893Y146752D01*
X107452Y148193D01*
X105687Y149212D01*
X103719Y149739D01*
X101681D01*
X99713Y149212D01*
X97948Y148193D01*
X96507Y146752D01*
X95488Y144987D01*
X94961Y143019D01*
Y140981D01*
X95488Y139013D01*
X96507Y137248D01*
X97552Y136204D01*
X97026Y134934D01*
X94161D01*
X89948Y139148D01*
X90439Y140981D01*
Y143019D01*
X89911Y144987D01*
X88893Y146752D01*
X87900Y147745D01*
X87872Y148115D01*
X88065Y149140D01*
X88129Y149238D01*
X88812Y149694D01*
X95415Y156299D01*
X95548Y156497D01*
X96688Y156711D01*
X97147Y156609D01*
D02*
G37*
G36*
X619234Y137862D02*
X618229Y136857D01*
X616932Y134612D01*
X616261Y132107D01*
Y129513D01*
X616932Y127008D01*
X617291Y126386D01*
X560815Y69910D01*
X111777D01*
X90561Y91126D01*
X91087Y92396D01*
X362204D01*
X363393Y92633D01*
X364402Y93307D01*
X393086Y121991D01*
X393708Y121632D01*
X396213Y120961D01*
X398807D01*
X401312Y121632D01*
X403557Y122929D01*
X405391Y124763D01*
X406688Y127008D01*
X407359Y129513D01*
Y132107D01*
X406688Y134612D01*
X405391Y136857D01*
X404386Y137862D01*
X404912Y139132D01*
X415508D01*
X416034Y137862D01*
X415029Y136857D01*
X413732Y134612D01*
X413061Y132107D01*
Y129513D01*
X413732Y127008D01*
X415029Y124763D01*
X416863Y122929D01*
X419108Y121632D01*
X421613Y120961D01*
X424207D01*
X426712Y121632D01*
X428957Y122929D01*
X430791Y124763D01*
X432088Y127008D01*
X432759Y129513D01*
Y132107D01*
X432088Y134612D01*
X430791Y136857D01*
X429786Y137862D01*
X430312Y139132D01*
X440908D01*
X441434Y137862D01*
X440429Y136857D01*
X439132Y134612D01*
X438461Y132107D01*
Y129513D01*
X439132Y127008D01*
X439491Y126386D01*
X412927Y99822D01*
X410927D01*
X408966Y99010D01*
X407466Y97509D01*
X406654Y95549D01*
Y93427D01*
X407466Y91467D01*
X408966Y89966D01*
X410927Y89154D01*
X413049D01*
X415009Y89966D01*
X416510Y91467D01*
X417322Y93427D01*
Y95427D01*
X443886Y121991D01*
X444508Y121632D01*
X447013Y120961D01*
X449607D01*
X452112Y121632D01*
X454357Y122929D01*
X456191Y124763D01*
X457488Y127008D01*
X458159Y129513D01*
Y132107D01*
X457488Y134612D01*
X456191Y136857D01*
X455186Y137862D01*
X455712Y139132D01*
X466308D01*
X466834Y137862D01*
X465829Y136857D01*
X464532Y134612D01*
X463861Y132107D01*
Y131826D01*
X473710D01*
X483559D01*
Y132107D01*
X482888Y134612D01*
X481591Y136857D01*
X480586Y137862D01*
X481112Y139132D01*
X491708D01*
X492234Y137862D01*
X491229Y136857D01*
X489932Y134612D01*
X489261Y132107D01*
Y129513D01*
X489932Y127008D01*
X491229Y124763D01*
X493063Y122929D01*
X495308Y121632D01*
X497813Y120961D01*
X500407D01*
X502912Y121632D01*
X505157Y122929D01*
X506991Y124763D01*
X508288Y127008D01*
X508959Y129513D01*
Y132107D01*
X508288Y134612D01*
X506991Y136857D01*
X505986Y137862D01*
X506512Y139132D01*
X517108D01*
X517634Y137862D01*
X516629Y136857D01*
X515332Y134612D01*
X514661Y132107D01*
Y129513D01*
X515332Y127008D01*
X516629Y124763D01*
X518463Y122929D01*
X520708Y121632D01*
X523213Y120961D01*
X525807D01*
X528312Y121632D01*
X530557Y122929D01*
X532391Y124763D01*
X533688Y127008D01*
X534359Y129513D01*
Y132107D01*
X533688Y134612D01*
X532391Y136857D01*
X531386Y137862D01*
X531912Y139132D01*
X542508D01*
X543034Y137862D01*
X542029Y136857D01*
X540732Y134612D01*
X540061Y132107D01*
Y129513D01*
X540732Y127008D01*
X542029Y124763D01*
X543863Y122929D01*
X546108Y121632D01*
X548613Y120961D01*
X551207D01*
X553712Y121632D01*
X555957Y122929D01*
X557791Y124763D01*
X559088Y127008D01*
X559759Y129513D01*
Y132107D01*
X559088Y134612D01*
X557791Y136857D01*
X556786Y137862D01*
X557312Y139132D01*
X567908D01*
X568434Y137862D01*
X567429Y136857D01*
X566132Y134612D01*
X565461Y132107D01*
Y129513D01*
X566132Y127008D01*
X567429Y124763D01*
X569263Y122929D01*
X571508Y121632D01*
X574013Y120961D01*
X576607D01*
X579112Y121632D01*
X581357Y122929D01*
X583191Y124763D01*
X584488Y127008D01*
X585159Y129513D01*
Y132107D01*
X584488Y134612D01*
X583191Y136857D01*
X582186Y137862D01*
X582712Y139132D01*
X593308D01*
X593834Y137862D01*
X592829Y136857D01*
X591532Y134612D01*
X590861Y132107D01*
Y129513D01*
X591532Y127008D01*
X592829Y124763D01*
X594663Y122929D01*
X596908Y121632D01*
X599413Y120961D01*
X602007D01*
X604512Y121632D01*
X606757Y122929D01*
X608591Y124763D01*
X609888Y127008D01*
X610559Y129513D01*
Y132107D01*
X609888Y134612D01*
X608591Y136857D01*
X607586Y137862D01*
X608112Y139132D01*
X618708D01*
X619234Y137862D01*
D02*
G37*
G36*
X390634D02*
X389629Y136857D01*
X388332Y134612D01*
X387661Y132107D01*
Y129513D01*
X388332Y127008D01*
X388691Y126386D01*
X360917Y98612D01*
X345821D01*
X345436Y99882D01*
X345859Y100164D01*
X367686Y121991D01*
X368308Y121632D01*
X370813Y120961D01*
X373407D01*
X375912Y121632D01*
X378157Y122929D01*
X379991Y124763D01*
X381288Y127008D01*
X381959Y129513D01*
Y132107D01*
X381288Y134612D01*
X379991Y136857D01*
X378986Y137862D01*
X379512Y139132D01*
X390108D01*
X390634Y137862D01*
D02*
G37*
G36*
X365234D02*
X364229Y136857D01*
X362932Y134612D01*
X362261Y132107D01*
Y129513D01*
X362932Y127008D01*
X363291Y126386D01*
X342375Y105470D01*
X99686D01*
X98272Y106884D01*
X96311Y107696D01*
X94189D01*
X93672Y107482D01*
X92279Y108277D01*
X92194Y108881D01*
X94399Y111087D01*
X95073Y112095D01*
X95310Y113284D01*
Y116782D01*
X96252Y117149D01*
X96580Y117176D01*
X97948Y115808D01*
X99713Y114789D01*
X101681Y114261D01*
X103719D01*
X105687Y114789D01*
X107452Y115808D01*
X107933Y116289D01*
X108007Y116313D01*
X109499Y116058D01*
X109766Y115659D01*
X114885Y110539D01*
X115893Y109866D01*
X117082Y109629D01*
X186160D01*
X187349Y109866D01*
X188358Y110539D01*
X216950Y139132D01*
X237708D01*
X238234Y137862D01*
X237229Y136857D01*
X235932Y134612D01*
X235261Y132107D01*
Y129513D01*
X235932Y127008D01*
X237229Y124763D01*
X239063Y122929D01*
X241308Y121632D01*
X243813Y120961D01*
X246407D01*
X248912Y121632D01*
X251157Y122929D01*
X252991Y124763D01*
X254288Y127008D01*
X254959Y129513D01*
Y132107D01*
X254288Y134612D01*
X252991Y136857D01*
X251986Y137862D01*
X252512Y139132D01*
X263108D01*
X263634Y137862D01*
X262629Y136857D01*
X261332Y134612D01*
X260661Y132107D01*
Y129513D01*
X261332Y127008D01*
X262629Y124763D01*
X264463Y122929D01*
X266708Y121632D01*
X269213Y120961D01*
X271807D01*
X274312Y121632D01*
X276557Y122929D01*
X278391Y124763D01*
X279688Y127008D01*
X280359Y129513D01*
Y132107D01*
X279688Y134612D01*
X278391Y136857D01*
X277386Y137862D01*
X277912Y139132D01*
X288508D01*
X289034Y137862D01*
X288029Y136857D01*
X286732Y134612D01*
X286061Y132107D01*
Y129513D01*
X286732Y127008D01*
X288029Y124763D01*
X289863Y122929D01*
X292108Y121632D01*
X294613Y120961D01*
X297207D01*
X299712Y121632D01*
X301957Y122929D01*
X303791Y124763D01*
X305088Y127008D01*
X305759Y129513D01*
Y132107D01*
X305088Y134612D01*
X303791Y136857D01*
X302786Y137862D01*
X303312Y139132D01*
X313908D01*
X314434Y137862D01*
X313429Y136857D01*
X312132Y134612D01*
X311461Y132107D01*
Y129513D01*
X312132Y127008D01*
X313429Y124763D01*
X315263Y122929D01*
X317508Y121632D01*
X320013Y120961D01*
X322607D01*
X325112Y121632D01*
X327357Y122929D01*
X329191Y124763D01*
X330488Y127008D01*
X331159Y129513D01*
Y132107D01*
X330488Y134612D01*
X329191Y136857D01*
X328186Y137862D01*
X328712Y139132D01*
X339308D01*
X339834Y137862D01*
X338829Y136857D01*
X337532Y134612D01*
X336861Y132107D01*
Y129513D01*
X337532Y127008D01*
X338829Y124763D01*
X340663Y122929D01*
X342908Y121632D01*
X345413Y120961D01*
X348007D01*
X350512Y121632D01*
X352757Y122929D01*
X354591Y124763D01*
X355888Y127008D01*
X356559Y129513D01*
Y132107D01*
X355888Y134612D01*
X354591Y136857D01*
X353586Y137862D01*
X354112Y139132D01*
X364708D01*
X365234Y137862D01*
D02*
G37*
%LPC*%
G36*
X501614Y776454D02*
X501396D01*
Y768096D01*
X509754D01*
Y768314D01*
X509115Y770698D01*
X507881Y772836D01*
X506136Y774581D01*
X503998Y775815D01*
X501614Y776454D01*
D02*
G37*
G36*
X499364D02*
X499146D01*
X496762Y775815D01*
X494624Y774581D01*
X492879Y772836D01*
X491645Y770698D01*
X491006Y768314D01*
Y768096D01*
X499364D01*
Y776454D01*
D02*
G37*
G36*
X416524D02*
X416306D01*
Y768096D01*
X424664D01*
Y768314D01*
X424025Y770698D01*
X422791Y772836D01*
X421046Y774581D01*
X418908Y775815D01*
X416524Y776454D01*
D02*
G37*
G36*
X414274D02*
X414056D01*
X411672Y775815D01*
X409534Y774581D01*
X407789Y772836D01*
X406555Y770698D01*
X405916Y768314D01*
Y768096D01*
X414274D01*
Y776454D01*
D02*
G37*
G36*
X509754Y766064D02*
X501396D01*
Y757706D01*
X501614D01*
X503998Y758345D01*
X506136Y759579D01*
X507881Y761324D01*
X509115Y763462D01*
X509754Y765846D01*
Y766064D01*
D02*
G37*
G36*
X499364D02*
X491006D01*
Y765846D01*
X491645Y763462D01*
X492879Y761324D01*
X494624Y759579D01*
X496762Y758345D01*
X499146Y757706D01*
X499364D01*
Y766064D01*
D02*
G37*
G36*
X484354Y776454D02*
X465606D01*
Y757706D01*
X484354D01*
Y776454D01*
D02*
G37*
G36*
X424664Y766064D02*
X416306D01*
Y757706D01*
X416524D01*
X418908Y758345D01*
X421046Y759579D01*
X422791Y761324D01*
X424025Y763462D01*
X424664Y765846D01*
Y766064D01*
D02*
G37*
G36*
X414274D02*
X405916D01*
Y765846D01*
X406555Y763462D01*
X407789Y761324D01*
X409534Y759579D01*
X411672Y758345D01*
X414056Y757706D01*
X414274D01*
Y766064D01*
D02*
G37*
G36*
X271807Y736289D02*
X271526D01*
Y727456D01*
X280359D01*
Y727737D01*
X279688Y730242D01*
X278391Y732487D01*
X276557Y734321D01*
X274312Y735618D01*
X271807Y736289D01*
D02*
G37*
G36*
X830607D02*
X828013D01*
X825508Y735618D01*
X823263Y734321D01*
X821429Y732487D01*
X820132Y730242D01*
X819461Y727737D01*
Y725143D01*
X820132Y722638D01*
X821429Y720393D01*
X823263Y718559D01*
X825508Y717262D01*
X828013Y716591D01*
X830607D01*
X833112Y717262D01*
X835357Y718559D01*
X837191Y720393D01*
X838488Y722638D01*
X839159Y725143D01*
Y727737D01*
X838488Y730242D01*
X837191Y732487D01*
X835357Y734321D01*
X833112Y735618D01*
X830607Y736289D01*
D02*
G37*
G36*
X280359Y725424D02*
X271526D01*
Y716591D01*
X271807D01*
X274312Y717262D01*
X276557Y718559D01*
X278391Y720393D01*
X279688Y722638D01*
X280359Y725143D01*
Y725424D01*
D02*
G37*
G36*
X703607Y685489D02*
X701013D01*
X698508Y684818D01*
X696263Y683521D01*
X694429Y681687D01*
X693132Y679442D01*
X692461Y676937D01*
Y674343D01*
X693132Y671838D01*
X694429Y669593D01*
X696263Y667759D01*
X698508Y666462D01*
X701013Y665791D01*
X703607D01*
X706112Y666462D01*
X708357Y667759D01*
X710191Y669593D01*
X711488Y671838D01*
X712159Y674343D01*
Y676937D01*
X711488Y679442D01*
X710191Y681687D01*
X708357Y683521D01*
X706112Y684818D01*
X703607Y685489D01*
D02*
G37*
G36*
Y660089D02*
X703326D01*
Y651256D01*
X712159D01*
Y651537D01*
X711488Y654042D01*
X710191Y656287D01*
X708357Y658121D01*
X706112Y659418D01*
X703607Y660089D01*
D02*
G37*
G36*
X701294D02*
X701013D01*
X698508Y659418D01*
X696263Y658121D01*
X694429Y656287D01*
X693132Y654042D01*
X692461Y651537D01*
Y651256D01*
X701294D01*
Y660089D01*
D02*
G37*
G36*
X703607Y609289D02*
X701013D01*
X698508Y608618D01*
X696263Y607321D01*
X694429Y605487D01*
X693132Y603242D01*
X692461Y600737D01*
Y598143D01*
X693132Y595638D01*
X694429Y593393D01*
X696263Y591559D01*
X698508Y590262D01*
X701013Y589591D01*
X703607D01*
X706112Y590262D01*
X708357Y591559D01*
X710191Y593393D01*
X711488Y595638D01*
X712159Y598143D01*
Y600737D01*
X711488Y603242D01*
X710191Y605487D01*
X708357Y607321D01*
X706112Y608618D01*
X703607Y609289D01*
D02*
G37*
G36*
X830607Y583889D02*
X828013D01*
X825508Y583218D01*
X823263Y581921D01*
X821429Y580087D01*
X820132Y577842D01*
X819461Y575337D01*
Y572743D01*
X820132Y570238D01*
X821429Y567993D01*
X823263Y566159D01*
X825508Y564862D01*
X828013Y564191D01*
X830607D01*
X833112Y564862D01*
X835357Y566159D01*
X837191Y567993D01*
X838488Y570238D01*
X839159Y572743D01*
Y575337D01*
X838488Y577842D01*
X837191Y580087D01*
X835357Y581921D01*
X833112Y583218D01*
X830607Y583889D01*
D02*
G37*
G36*
X805207D02*
X802613D01*
X800108Y583218D01*
X797863Y581921D01*
X796029Y580087D01*
X794732Y577842D01*
X794061Y575337D01*
Y572743D01*
X794732Y570238D01*
X796029Y567993D01*
X797863Y566159D01*
X800108Y564862D01*
X802613Y564191D01*
X805207D01*
X807712Y564862D01*
X809957Y566159D01*
X811791Y567993D01*
X813088Y570238D01*
X813759Y572743D01*
Y575337D01*
X813088Y577842D01*
X811791Y580087D01*
X809957Y581921D01*
X807712Y583218D01*
X805207Y583889D01*
D02*
G37*
G36*
X729007D02*
X726413D01*
X723908Y583218D01*
X721663Y581921D01*
X719829Y580087D01*
X718532Y577842D01*
X717861Y575337D01*
Y572743D01*
X718532Y570238D01*
X719829Y567993D01*
X721663Y566159D01*
X723908Y564862D01*
X726413Y564191D01*
X729007D01*
X731512Y564862D01*
X733757Y566159D01*
X735591Y567993D01*
X736888Y570238D01*
X737559Y572743D01*
Y575337D01*
X736888Y577842D01*
X735591Y580087D01*
X733757Y581921D01*
X731512Y583218D01*
X729007Y583889D01*
D02*
G37*
G36*
X622054Y517054D02*
X615546D01*
Y506546D01*
X622054D01*
Y517054D01*
D02*
G37*
G36*
X742054D02*
X727006D01*
Y494006D01*
X742054D01*
Y517054D01*
D02*
G37*
G36*
X722054D02*
X707006D01*
Y494006D01*
X722054D01*
Y517054D01*
D02*
G37*
G36*
X702054D02*
X687006D01*
Y494006D01*
X702054D01*
Y517054D01*
D02*
G37*
G36*
X682054D02*
X667006D01*
Y494006D01*
X682054D01*
Y517054D01*
D02*
G37*
G36*
X662054D02*
X647006D01*
Y494006D01*
X662054D01*
Y517054D01*
D02*
G37*
G36*
X642054D02*
X627006D01*
Y494006D01*
X642054D01*
Y517054D01*
D02*
G37*
G36*
X622054Y504514D02*
X615546D01*
Y494006D01*
X622054D01*
Y504514D01*
D02*
G37*
G36*
X613514D02*
X607006D01*
Y494006D01*
X613514D01*
Y504514D01*
D02*
G37*
G36*
X515984Y435324D02*
X513076D01*
Y432816D01*
X515984D01*
Y435324D01*
D02*
G37*
G36*
X511044D02*
X508136D01*
Y432816D01*
X511044D01*
Y435324D01*
D02*
G37*
G36*
X525526Y433958D02*
Y431546D01*
X527938D01*
X527525Y432544D01*
X526524Y433545D01*
X525526Y433958D01*
D02*
G37*
G36*
X523494D02*
X522496Y433545D01*
X521495Y432544D01*
X521082Y431546D01*
X523494D01*
Y433958D01*
D02*
G37*
G36*
X515984Y430784D02*
X513076D01*
Y428276D01*
X515984D01*
Y430784D01*
D02*
G37*
G36*
X511044D02*
X508136D01*
Y428276D01*
X511044D01*
Y430784D01*
D02*
G37*
G36*
X527938Y429514D02*
X525526D01*
Y427102D01*
X526524Y427515D01*
X527525Y428516D01*
X527938Y429514D01*
D02*
G37*
G36*
X523494D02*
X521082D01*
X521495Y428516D01*
X522496Y427515D01*
X523494Y427102D01*
Y429514D01*
D02*
G37*
G36*
X517254Y409924D02*
X514346D01*
Y407416D01*
X517254D01*
Y409924D01*
D02*
G37*
G36*
X512314D02*
X509406D01*
Y407416D01*
X512314D01*
Y409924D01*
D02*
G37*
G36*
X525526Y408558D02*
Y406146D01*
X527938D01*
X527525Y407144D01*
X526524Y408145D01*
X525526Y408558D01*
D02*
G37*
G36*
X523494D02*
X522496Y408145D01*
X521495Y407144D01*
X521082Y406146D01*
X523494D01*
Y408558D01*
D02*
G37*
G36*
X609554Y407554D02*
X589506D01*
Y403638D01*
X579746D01*
X578331Y405052D01*
X576371Y405864D01*
X574249D01*
X572289Y405052D01*
X570788Y403551D01*
X569976Y401591D01*
Y399469D01*
X570788Y397509D01*
X572289Y396008D01*
X574249Y395196D01*
X576371D01*
X578331Y396008D01*
X579746Y397422D01*
X589506D01*
Y393506D01*
X609554D01*
Y407554D01*
D02*
G37*
G36*
X517254Y405384D02*
X514346D01*
Y402876D01*
X517254D01*
Y405384D01*
D02*
G37*
G36*
X512314D02*
X509406D01*
Y402876D01*
X512314D01*
Y405384D01*
D02*
G37*
G36*
X477311Y420624D02*
X475189D01*
X473228Y419812D01*
X471728Y418312D01*
X470916Y416351D01*
Y414674D01*
X469606D01*
Y398126D01*
X482654D01*
Y403292D01*
X496206D01*
Y402876D01*
X504054D01*
Y409924D01*
X496206D01*
Y409508D01*
X482654D01*
Y414674D01*
X481584D01*
Y416351D01*
X480772Y418312D01*
X479272Y419812D01*
X477311Y420624D01*
D02*
G37*
G36*
X527938Y404114D02*
X525526D01*
Y401702D01*
X526524Y402115D01*
X527525Y403116D01*
X527938Y404114D01*
D02*
G37*
G36*
X523494D02*
X521082D01*
X521495Y403116D01*
X522496Y402115D01*
X523494Y401702D01*
Y404114D01*
D02*
G37*
G36*
X403244Y432094D02*
X386696D01*
Y419046D01*
X391862D01*
Y412684D01*
X386696D01*
Y399636D01*
X403244D01*
Y412684D01*
X398078D01*
Y419046D01*
X403244D01*
Y422462D01*
X412632D01*
X413725Y421369D01*
X413624Y419953D01*
X413284Y419812D01*
X411784Y418312D01*
X410972Y416351D01*
Y414229D01*
X411784Y412268D01*
X413284Y410768D01*
X415245Y409956D01*
X417367D01*
X419328Y410768D01*
X420742Y412182D01*
X454606D01*
Y398126D01*
X467654D01*
Y414674D01*
X464238D01*
Y415290D01*
X464001Y416479D01*
X463327Y417487D01*
X462319Y418161D01*
X461130Y418398D01*
X420742D01*
X419649Y419491D01*
X419749Y420907D01*
X420089Y421048D01*
X421590Y422548D01*
X422402Y424509D01*
Y426631D01*
X421590Y428591D01*
X420089Y430092D01*
X418129Y430904D01*
X416007D01*
X414047Y430092D01*
X412632Y428678D01*
X403244D01*
Y432094D01*
D02*
G37*
G36*
Y397684D02*
X386696D01*
Y384636D01*
X403244D01*
Y388052D01*
X416188D01*
X417603Y386638D01*
X419563Y385826D01*
X421685D01*
X423646Y386638D01*
X425146Y388139D01*
X425958Y390099D01*
Y392221D01*
X425146Y394182D01*
X423646Y395682D01*
X421685Y396494D01*
X419563D01*
X417603Y395682D01*
X416188Y394268D01*
X403244D01*
Y397684D01*
D02*
G37*
G36*
X515984Y385794D02*
X513076D01*
Y383286D01*
X515984D01*
Y385794D01*
D02*
G37*
G36*
X526288Y385698D02*
Y383286D01*
X528700D01*
X528287Y384284D01*
X527286Y385285D01*
X526288Y385698D01*
D02*
G37*
G36*
X524256D02*
X523258Y385285D01*
X522257Y384284D01*
X521844Y383286D01*
X524256D01*
Y385698D01*
D02*
G37*
G36*
X511044Y385794D02*
X508136D01*
Y383286D01*
X511044D01*
Y385794D01*
D02*
G37*
G36*
X528700Y381254D02*
X526288D01*
Y378842D01*
X527286Y379255D01*
X528287Y380256D01*
X528700Y381254D01*
D02*
G37*
G36*
X524256D02*
X521844D01*
X522257Y380256D01*
X523258Y379255D01*
X524256Y378842D01*
Y381254D01*
D02*
G37*
G36*
X515984D02*
X513076D01*
Y378746D01*
X515984D01*
Y381254D01*
D02*
G37*
G36*
X511044D02*
X508136D01*
Y378746D01*
X511044D01*
Y381254D01*
D02*
G37*
G36*
X524256Y361568D02*
Y359156D01*
X526668D01*
X526255Y360154D01*
X525254Y361155D01*
X524256Y361568D01*
D02*
G37*
G36*
X522224D02*
X521226Y361155D01*
X520225Y360154D01*
X519812Y359156D01*
X522224D01*
Y361568D01*
D02*
G37*
G36*
X526668Y357124D02*
X524256D01*
Y354712D01*
X525254Y355125D01*
X526255Y356126D01*
X526668Y357124D01*
D02*
G37*
G36*
X522224D02*
X519812D01*
X520225Y356126D01*
X521226Y355125D01*
X522224Y354712D01*
Y357124D01*
D02*
G37*
G36*
X518214D02*
X512706D01*
Y349866D01*
X518214D01*
Y357124D01*
D02*
G37*
G36*
X510674D02*
X505166D01*
Y349866D01*
X510674D01*
Y357124D01*
D02*
G37*
G36*
X742054Y367054D02*
X727006D01*
Y344006D01*
X742054D01*
Y367054D01*
D02*
G37*
G36*
X702054D02*
X687006D01*
Y344006D01*
X702054D01*
Y367054D01*
D02*
G37*
G36*
X682054D02*
X667006D01*
Y344006D01*
X682054D01*
Y367054D01*
D02*
G37*
G36*
X662054D02*
X647006D01*
Y344006D01*
X662054D01*
Y367054D01*
D02*
G37*
G36*
X642054D02*
X627006D01*
Y344006D01*
X642054D01*
Y367054D01*
D02*
G37*
G36*
X830607Y293059D02*
X830326D01*
Y284226D01*
X839159D01*
Y284507D01*
X838488Y287012D01*
X837191Y289257D01*
X835357Y291091D01*
X833112Y292388D01*
X830607Y293059D01*
D02*
G37*
G36*
X828294D02*
X828013D01*
X825508Y292388D01*
X823263Y291091D01*
X821429Y289257D01*
X820132Y287012D01*
X819461Y284507D01*
Y284226D01*
X828294D01*
Y293059D01*
D02*
G37*
G36*
X839159Y282194D02*
X830326D01*
Y273361D01*
X830607D01*
X833112Y274032D01*
X835357Y275329D01*
X837191Y277163D01*
X838488Y279408D01*
X839159Y281913D01*
Y282194D01*
D02*
G37*
G36*
X828294D02*
X819461D01*
Y281913D01*
X820132Y279408D01*
X821429Y277163D01*
X823263Y275329D01*
X825508Y274032D01*
X828013Y273361D01*
X828294D01*
Y282194D01*
D02*
G37*
G36*
X805207Y293059D02*
X802613D01*
X800108Y292388D01*
X797863Y291091D01*
X796029Y289257D01*
X794732Y287012D01*
X794061Y284507D01*
Y281913D01*
X794732Y279408D01*
X796029Y277163D01*
X797863Y275329D01*
X800108Y274032D01*
X802613Y273361D01*
X805207D01*
X807712Y274032D01*
X809957Y275329D01*
X811791Y277163D01*
X813088Y279408D01*
X813759Y281913D01*
Y284507D01*
X813088Y287012D01*
X811791Y289257D01*
X809957Y291091D01*
X807712Y292388D01*
X805207Y293059D01*
D02*
G37*
G36*
X754407D02*
X751813D01*
X749308Y292388D01*
X747063Y291091D01*
X745229Y289257D01*
X743932Y287012D01*
X743261Y284507D01*
Y281913D01*
X743932Y279408D01*
X745229Y277163D01*
X747063Y275329D01*
X749308Y274032D01*
X751813Y273361D01*
X754407D01*
X756912Y274032D01*
X759157Y275329D01*
X760991Y277163D01*
X762288Y279408D01*
X762959Y281913D01*
Y284507D01*
X762288Y287012D01*
X760991Y289257D01*
X759157Y291091D01*
X756912Y292388D01*
X754407Y293059D01*
D02*
G37*
G36*
X729007D02*
X726413D01*
X723908Y292388D01*
X721663Y291091D01*
X719829Y289257D01*
X718532Y287012D01*
X717861Y284507D01*
Y281913D01*
X718532Y279408D01*
X719829Y277163D01*
X721663Y275329D01*
X723908Y274032D01*
X726413Y273361D01*
X729007D01*
X731512Y274032D01*
X733757Y275329D01*
X735591Y277163D01*
X736888Y279408D01*
X737559Y281913D01*
Y284507D01*
X736888Y287012D01*
X735591Y289257D01*
X733757Y291091D01*
X731512Y292388D01*
X729007Y293059D01*
D02*
G37*
G36*
X690907Y262559D02*
X690626D01*
Y253726D01*
X699459D01*
Y254007D01*
X698788Y256512D01*
X697491Y258758D01*
X695657Y260591D01*
X693412Y261888D01*
X690907Y262559D01*
D02*
G37*
G36*
X665507D02*
X665226D01*
Y253726D01*
X674059D01*
Y254007D01*
X673388Y256512D01*
X672091Y258758D01*
X670257Y260591D01*
X668012Y261888D01*
X665507Y262559D01*
D02*
G37*
G36*
X688594D02*
X688313D01*
X685808Y261888D01*
X683563Y260591D01*
X681729Y258758D01*
X680432Y256512D01*
X679761Y254007D01*
Y253726D01*
X688594D01*
Y262559D01*
D02*
G37*
G36*
X663194D02*
X662913D01*
X660408Y261888D01*
X658163Y260591D01*
X656329Y258758D01*
X655032Y256512D01*
X654361Y254007D01*
Y253726D01*
X663194D01*
Y262559D01*
D02*
G37*
G36*
X24573Y186224D02*
X20827D01*
X17210Y185255D01*
X13966Y183382D01*
X11318Y180734D01*
X9445Y177490D01*
X8476Y173873D01*
Y170128D01*
X9445Y166510D01*
X11318Y163266D01*
X13966Y160618D01*
X17210Y158745D01*
X20827Y157776D01*
X24573D01*
X28190Y158745D01*
X31434Y160618D01*
X34082Y163266D01*
X35955Y166510D01*
X36924Y170128D01*
Y173873D01*
X35955Y177490D01*
X34082Y180734D01*
X31434Y183382D01*
X28190Y185255D01*
X24573Y186224D01*
D02*
G37*
G36*
X192909Y595412D02*
Y593000D01*
X195322D01*
X194908Y593998D01*
X193908Y594999D01*
X192909Y595412D01*
D02*
G37*
G36*
X190877D02*
X189879Y594999D01*
X188879Y593998D01*
X188465Y593000D01*
X190877D01*
Y595412D01*
D02*
G37*
G36*
X195322Y590968D02*
X192909D01*
Y588556D01*
X193908Y588969D01*
X194908Y589970D01*
X195322Y590968D01*
D02*
G37*
G36*
X190877D02*
X188465D01*
X188879Y589970D01*
X189879Y588969D01*
X190877Y588556D01*
Y590968D01*
D02*
G37*
G36*
X133219Y570012D02*
Y567600D01*
X135632D01*
X135218Y568598D01*
X134218Y569599D01*
X133219Y570012D01*
D02*
G37*
G36*
X131187D02*
X130189Y569599D01*
X129189Y568598D01*
X128775Y567600D01*
X131187D01*
Y570012D01*
D02*
G37*
G36*
X135632Y565568D02*
X133219D01*
Y563156D01*
X134218Y563569D01*
X135218Y564570D01*
X135632Y565568D01*
D02*
G37*
G36*
X131187D02*
X128775D01*
X129189Y564570D01*
X130189Y563569D01*
X131187Y563156D01*
Y565568D01*
D02*
G37*
G36*
X54356Y515238D02*
Y512826D01*
X56768D01*
X56355Y513824D01*
X55354Y514825D01*
X54356Y515238D01*
D02*
G37*
G36*
X52324D02*
X51326Y514825D01*
X50325Y513824D01*
X49912Y512826D01*
X52324D01*
Y515238D01*
D02*
G37*
G36*
X56768Y510794D02*
X54356D01*
Y508382D01*
X55354Y508795D01*
X56355Y509796D01*
X56768Y510794D01*
D02*
G37*
G36*
X52324D02*
X49912D01*
X50325Y509796D01*
X51326Y508795D01*
X52324Y508382D01*
Y510794D01*
D02*
G37*
G36*
X104009Y497622D02*
Y495210D01*
X106421D01*
X106008Y496208D01*
X105008Y497209D01*
X104009Y497622D01*
D02*
G37*
G36*
X101977D02*
X100979Y497209D01*
X99979Y496208D01*
X99565Y495210D01*
X101977D01*
Y497622D01*
D02*
G37*
G36*
X106421Y493178D02*
X104009D01*
Y490766D01*
X105008Y491180D01*
X106008Y492180D01*
X106421Y493178D01*
D02*
G37*
G36*
X101977D02*
X99565D01*
X99979Y492180D01*
X100979Y491180D01*
X101977Y490766D01*
Y493178D01*
D02*
G37*
G36*
X70439Y320984D02*
X63716D01*
Y314261D01*
X63719D01*
X65687Y314788D01*
X67452Y315807D01*
X68893Y317248D01*
X69911Y319013D01*
X70439Y320981D01*
Y320984D01*
D02*
G37*
G36*
X61684D02*
X54961D01*
Y320981D01*
X55488Y319013D01*
X56507Y317248D01*
X57948Y315807D01*
X59713Y314788D01*
X61681Y314261D01*
X61684D01*
Y320984D01*
D02*
G37*
G36*
X63719Y309739D02*
X63716D01*
Y303016D01*
X70439D01*
Y303019D01*
X69911Y304987D01*
X68893Y306752D01*
X67452Y308193D01*
X65687Y309212D01*
X63719Y309739D01*
D02*
G37*
G36*
X61684D02*
X61681D01*
X59713Y309212D01*
X57948Y308193D01*
X56507Y306752D01*
X55488Y304987D01*
X54961Y303019D01*
Y303016D01*
X61684D01*
Y309739D01*
D02*
G37*
G36*
X83719D02*
X81681D01*
X79713Y309212D01*
X77948Y308193D01*
X76507Y306752D01*
X75488Y304987D01*
X74961Y303019D01*
Y300981D01*
X75452Y299147D01*
X71513Y295208D01*
X68648D01*
X68122Y296478D01*
X68893Y297248D01*
X69911Y299013D01*
X70439Y300981D01*
Y300984D01*
X62700D01*
X54961D01*
Y300981D01*
X55488Y299013D01*
X56507Y297248D01*
X57277Y296478D01*
X56751Y295208D01*
X52776D01*
X51687Y296297D01*
X49726Y297109D01*
X47604D01*
X45644Y296297D01*
X44143Y294797D01*
X43331Y292836D01*
Y290714D01*
X44143Y288754D01*
X45644Y287253D01*
X47604Y286441D01*
X49726D01*
X51687Y287253D01*
X53187Y288754D01*
X53286Y288992D01*
X56952D01*
X57478Y287722D01*
X56507Y286752D01*
X55488Y284987D01*
X54961Y283019D01*
Y280981D01*
X55488Y279013D01*
X56507Y277248D01*
X57948Y275807D01*
X59713Y274788D01*
X61681Y274261D01*
X63719D01*
X65687Y274788D01*
X67452Y275807D01*
X68893Y277248D01*
X69911Y279013D01*
X70439Y280981D01*
Y283019D01*
X69911Y284987D01*
X68893Y286752D01*
X67922Y287722D01*
X68448Y288992D01*
X72800D01*
X73989Y289229D01*
X74997Y289902D01*
X79847Y294752D01*
X81681Y294261D01*
X83719D01*
X85687Y294788D01*
X87452Y295807D01*
X88893Y297248D01*
X89911Y299013D01*
X90439Y300981D01*
Y303019D01*
X89911Y304987D01*
X88893Y306752D01*
X87452Y308193D01*
X85687Y309212D01*
X83719Y309739D01*
D02*
G37*
G36*
Y289739D02*
X81681D01*
X79713Y289212D01*
X77948Y288193D01*
X76507Y286752D01*
X75488Y284987D01*
X74961Y283019D01*
Y280981D01*
X75488Y279013D01*
X76507Y277248D01*
X77948Y275807D01*
X79713Y274788D01*
X81681Y274261D01*
X83719D01*
X85687Y274788D01*
X87452Y275807D01*
X88893Y277248D01*
X89911Y279013D01*
X90439Y280981D01*
Y283019D01*
X89911Y284987D01*
X88893Y286752D01*
X87452Y288193D01*
X85687Y289212D01*
X83719Y289739D01*
D02*
G37*
G36*
X610559Y725424D02*
X601726D01*
Y716591D01*
X602007D01*
X604512Y717262D01*
X606757Y718559D01*
X608591Y720393D01*
X609888Y722638D01*
X610559Y725143D01*
Y725424D01*
D02*
G37*
G36*
X411507Y614389D02*
X411226D01*
Y605556D01*
X420059D01*
Y605836D01*
X419388Y608341D01*
X418091Y610587D01*
X416257Y612421D01*
X414012Y613718D01*
X411507Y614389D01*
D02*
G37*
G36*
X409194D02*
X408913D01*
X406408Y613718D01*
X404163Y612421D01*
X402329Y610587D01*
X401032Y608341D01*
X400361Y605836D01*
Y605556D01*
X409194D01*
Y614389D01*
D02*
G37*
G36*
X386107D02*
X385826D01*
Y605556D01*
X394659D01*
Y605836D01*
X393988Y608341D01*
X392691Y610587D01*
X390857Y612421D01*
X388612Y613718D01*
X386107Y614389D01*
D02*
G37*
G36*
X383794D02*
X383513D01*
X381008Y613718D01*
X378763Y612421D01*
X376929Y610587D01*
X375632Y608341D01*
X374961Y605836D01*
Y605556D01*
X383794D01*
Y614389D01*
D02*
G37*
G36*
X246407Y583889D02*
X246126D01*
Y575056D01*
X254959D01*
Y575337D01*
X254288Y577842D01*
X252991Y580087D01*
X251157Y581921D01*
X248912Y583218D01*
X246407Y583889D01*
D02*
G37*
G36*
X244094D02*
X243813D01*
X241308Y583218D01*
X239063Y581921D01*
X237229Y580087D01*
X235932Y577842D01*
X235261Y575337D01*
Y575056D01*
X244094D01*
Y583889D01*
D02*
G37*
G36*
X525807D02*
X523213D01*
X520708Y583218D01*
X518463Y581921D01*
X516629Y580087D01*
X515332Y577842D01*
X514661Y575337D01*
Y572743D01*
X515332Y570238D01*
X516629Y567993D01*
X518463Y566159D01*
X520708Y564862D01*
X523213Y564191D01*
X525807D01*
X528312Y564862D01*
X530557Y566159D01*
X532391Y567993D01*
X533688Y570238D01*
X534359Y572743D01*
Y575337D01*
X533688Y577842D01*
X532391Y580087D01*
X530557Y581921D01*
X528312Y583218D01*
X525807Y583889D01*
D02*
G37*
G36*
X500407D02*
X497813D01*
X495308Y583218D01*
X493063Y581921D01*
X491229Y580087D01*
X489932Y577842D01*
X489261Y575337D01*
Y572743D01*
X489932Y570238D01*
X491229Y567993D01*
X493063Y566159D01*
X495308Y564862D01*
X497813Y564191D01*
X500407D01*
X502912Y564862D01*
X505157Y566159D01*
X506991Y567993D01*
X508288Y570238D01*
X508959Y572743D01*
Y575337D01*
X508288Y577842D01*
X506991Y580087D01*
X505157Y581921D01*
X502912Y583218D01*
X500407Y583889D01*
D02*
G37*
G36*
X449607D02*
X447013D01*
X444508Y583218D01*
X442263Y581921D01*
X440429Y580087D01*
X439132Y577842D01*
X438461Y575337D01*
Y572743D01*
X439132Y570238D01*
X440429Y567993D01*
X442263Y566159D01*
X444508Y564862D01*
X447013Y564191D01*
X449607D01*
X452112Y564862D01*
X454357Y566159D01*
X456191Y567993D01*
X457488Y570238D01*
X458159Y572743D01*
Y575337D01*
X457488Y577842D01*
X456191Y580087D01*
X454357Y581921D01*
X452112Y583218D01*
X449607Y583889D01*
D02*
G37*
G36*
X424207D02*
X421613D01*
X419108Y583218D01*
X416863Y581921D01*
X415029Y580087D01*
X413732Y577842D01*
X413061Y575337D01*
Y572743D01*
X413732Y570238D01*
X415029Y567993D01*
X416863Y566159D01*
X419108Y564862D01*
X421613Y564191D01*
X424207D01*
X426712Y564862D01*
X428957Y566159D01*
X430791Y567993D01*
X432088Y570238D01*
X432759Y572743D01*
Y575337D01*
X432088Y577842D01*
X430791Y580087D01*
X428957Y581921D01*
X426712Y583218D01*
X424207Y583889D01*
D02*
G37*
G36*
X525526Y478408D02*
Y475996D01*
X527938D01*
X527525Y476994D01*
X526524Y477995D01*
X525526Y478408D01*
D02*
G37*
G36*
X523494D02*
X522496Y477995D01*
X521495Y476994D01*
X521082Y475996D01*
X523494D01*
Y478408D01*
D02*
G37*
G36*
X527938Y473964D02*
X525526D01*
Y471552D01*
X526524Y471965D01*
X527525Y472966D01*
X527938Y473964D01*
D02*
G37*
G36*
X523494D02*
X521082D01*
X521495Y472966D01*
X522496Y471965D01*
X523494Y471552D01*
Y473964D01*
D02*
G37*
G36*
X519364Y477774D02*
X513856D01*
Y470516D01*
X519364D01*
Y477774D01*
D02*
G37*
G36*
X511824D02*
X506316D01*
Y470516D01*
X511824D01*
Y477774D01*
D02*
G37*
G36*
X292654Y494684D02*
X286396D01*
Y487426D01*
X292654D01*
Y494684D01*
D02*
G37*
G36*
X233426Y488568D02*
Y486156D01*
X235838D01*
X235425Y487154D01*
X234424Y488155D01*
X233426Y488568D01*
D02*
G37*
G36*
X231394D02*
X230396Y488155D01*
X229395Y487154D01*
X228982Y486156D01*
X231394D01*
Y488568D01*
D02*
G37*
G36*
X235838Y484124D02*
X233426D01*
Y481712D01*
X234424Y482125D01*
X235425Y483126D01*
X235838Y484124D01*
D02*
G37*
G36*
X231394D02*
X228982D01*
X229395Y483126D01*
X230396Y482125D01*
X231394Y481712D01*
Y484124D01*
D02*
G37*
G36*
X292654Y485394D02*
X286396D01*
Y478136D01*
X292654D01*
Y485394D01*
D02*
G37*
G36*
X339135Y471424D02*
X337013D01*
X335052Y470612D01*
X333879Y469438D01*
X332548Y469632D01*
X332547Y469637D01*
X332103Y470303D01*
X331437Y470747D01*
X330652Y470903D01*
X315127D01*
X314343Y470747D01*
X313677Y470303D01*
X313233Y469637D01*
X313076Y468853D01*
Y463327D01*
X313233Y462543D01*
X313677Y461877D01*
X314343Y461433D01*
X315127Y461277D01*
X330652D01*
X331437Y461433D01*
X332103Y461877D01*
X332547Y462543D01*
X332548Y462548D01*
X333879Y462742D01*
X335052Y461568D01*
X337013Y460756D01*
X339135D01*
X341096Y461568D01*
X342596Y463069D01*
X343408Y465029D01*
Y467151D01*
X342596Y469112D01*
X341096Y470612D01*
X339135Y471424D01*
D02*
G37*
G36*
X399765Y468503D02*
X397795D01*
X395974Y467749D01*
X394581Y466356D01*
X394492Y466140D01*
X360680D01*
X359689Y465943D01*
X358849Y465381D01*
X354261Y460794D01*
X354045Y460883D01*
X352075D01*
X350254Y460129D01*
X348861Y458736D01*
X348107Y456915D01*
Y454945D01*
X348861Y453124D01*
X350254Y451731D01*
X352075Y450977D01*
X354045D01*
X355866Y451731D01*
X357259Y453124D01*
X358013Y454945D01*
Y456915D01*
X357924Y457131D01*
X361753Y460960D01*
X394492D01*
X394581Y460744D01*
X395974Y459351D01*
X397795Y458597D01*
X399765D01*
X401586Y459351D01*
X402979Y460744D01*
X403733Y462565D01*
Y464535D01*
X402979Y466356D01*
X401586Y467749D01*
X399765Y468503D01*
D02*
G37*
G36*
X227076Y451738D02*
Y449326D01*
X229488D01*
X229075Y450324D01*
X228074Y451325D01*
X227076Y451738D01*
D02*
G37*
G36*
X225044D02*
X224046Y451325D01*
X223045Y450324D01*
X222632Y449326D01*
X225044D01*
Y451738D01*
D02*
G37*
G36*
X239059Y458724D02*
X236937D01*
X234977Y457912D01*
X233476Y456412D01*
X232664Y454451D01*
Y452329D01*
X233476Y450368D01*
X234977Y448868D01*
X236937Y448056D01*
X239059D01*
X241019Y448868D01*
X242434Y450282D01*
X256645D01*
X256733Y449843D01*
X257177Y449177D01*
X257843Y448733D01*
X258628Y448577D01*
X274153D01*
X274937Y448733D01*
X275603Y449177D01*
X276047Y449843D01*
X276203Y450628D01*
Y456152D01*
X276047Y456937D01*
X275603Y457603D01*
X274937Y458047D01*
X274153Y458203D01*
X258628D01*
X257843Y458047D01*
X257177Y457603D01*
X256733Y456937D01*
X256645Y456498D01*
X242434D01*
X241019Y457912D01*
X239059Y458724D01*
D02*
G37*
G36*
X229488Y447294D02*
X222632D01*
X223045Y446296D01*
X224046Y445295D01*
X224595Y445068D01*
X224343Y443798D01*
X219828D01*
X218414Y445212D01*
X216453Y446024D01*
X214331D01*
X212370Y445212D01*
X210870Y443712D01*
X210058Y441751D01*
Y439629D01*
X210870Y437668D01*
X212370Y436168D01*
X214331Y435356D01*
X216453D01*
X218414Y436168D01*
X219828Y437582D01*
X256645D01*
X256733Y437143D01*
X257177Y436477D01*
X257843Y436033D01*
X258628Y435877D01*
X274153D01*
X274937Y436033D01*
X275603Y436477D01*
X276047Y437143D01*
X276203Y437928D01*
Y443452D01*
X276047Y444237D01*
X275603Y444903D01*
X274937Y445347D01*
X274153Y445503D01*
X258628D01*
X257843Y445347D01*
X257177Y444903D01*
X256733Y444237D01*
X256645Y443798D01*
X227777D01*
X227525Y445068D01*
X228074Y445295D01*
X229075Y446296D01*
X229488Y447294D01*
D02*
G37*
G36*
X330652Y382003D02*
X323906D01*
Y378206D01*
X332703D01*
Y379953D01*
X332547Y380737D01*
X332103Y381403D01*
X331437Y381847D01*
X330652Y382003D01*
D02*
G37*
G36*
X321874D02*
X315127D01*
X314343Y381847D01*
X313677Y381403D01*
X313233Y380737D01*
X313076Y379953D01*
Y378206D01*
X321874D01*
Y382003D01*
D02*
G37*
G36*
X332703Y376174D02*
X323906D01*
Y372377D01*
X330652D01*
X331437Y372533D01*
X332103Y372977D01*
X332547Y373643D01*
X332703Y374427D01*
Y376174D01*
D02*
G37*
G36*
X321874D02*
X313076D01*
Y374427D01*
X313233Y373643D01*
X313677Y372977D01*
X314343Y372533D01*
X315127Y372377D01*
X321874D01*
Y376174D01*
D02*
G37*
G36*
X252476Y365378D02*
Y362966D01*
X254888D01*
X254475Y363964D01*
X253474Y364965D01*
X252476Y365378D01*
D02*
G37*
G36*
X250444D02*
X249446Y364965D01*
X248445Y363964D01*
X248032Y362966D01*
X250444D01*
Y365378D01*
D02*
G37*
G36*
X280416Y365620D02*
Y361696D01*
X284340D01*
X283599Y363486D01*
X282206Y364879D01*
X280416Y365620D01*
D02*
G37*
G36*
X278384D02*
X276594Y364879D01*
X275201Y363486D01*
X274460Y361696D01*
X278384D01*
Y365620D01*
D02*
G37*
G36*
X254888Y360934D02*
X252476D01*
Y358522D01*
X253474Y358935D01*
X254475Y359936D01*
X254888Y360934D01*
D02*
G37*
G36*
X250444D02*
X248032D01*
X248445Y359936D01*
X249446Y358935D01*
X250444Y358522D01*
Y360934D01*
D02*
G37*
G36*
X284340Y359664D02*
X280416D01*
Y355740D01*
X282206Y356481D01*
X283599Y357874D01*
X284340Y359664D01*
D02*
G37*
G36*
X278384D02*
X274460D01*
X275201Y357874D01*
X276594Y356481D01*
X278384Y355740D01*
Y359664D01*
D02*
G37*
G36*
X525526Y458088D02*
Y455676D01*
X527938D01*
X527525Y456674D01*
X526524Y457675D01*
X525526Y458088D01*
D02*
G37*
G36*
X523494D02*
X522496Y457675D01*
X521495Y456674D01*
X521082Y455676D01*
X523494D01*
Y458088D01*
D02*
G37*
G36*
X527938Y453644D02*
X525526D01*
Y451232D01*
X526524Y451645D01*
X527525Y452646D01*
X527938Y453644D01*
D02*
G37*
G36*
X523494D02*
X521082D01*
X521495Y452646D01*
X522496Y451645D01*
X523494Y451232D01*
Y453644D01*
D02*
G37*
G36*
X348007Y293059D02*
X345413D01*
X342908Y292388D01*
X340663Y291091D01*
X338829Y289257D01*
X337532Y287012D01*
X336861Y284507D01*
Y281913D01*
X337532Y279408D01*
X338829Y277163D01*
X340663Y275329D01*
X342908Y274032D01*
X345413Y273361D01*
X348007D01*
X350512Y274032D01*
X352757Y275329D01*
X354591Y277163D01*
X355888Y279408D01*
X356559Y281913D01*
Y284507D01*
X355888Y287012D01*
X354591Y289257D01*
X352757Y291091D01*
X350512Y292388D01*
X348007Y293059D01*
D02*
G37*
G36*
X322607D02*
X320013D01*
X317508Y292388D01*
X315263Y291091D01*
X313429Y289257D01*
X312132Y287012D01*
X311461Y284507D01*
Y281913D01*
X312132Y279408D01*
X313429Y277163D01*
X315263Y275329D01*
X317508Y274032D01*
X320013Y273361D01*
X322607D01*
X325112Y274032D01*
X327357Y275329D01*
X329191Y277163D01*
X330488Y279408D01*
X331159Y281913D01*
Y284507D01*
X330488Y287012D01*
X329191Y289257D01*
X327357Y291091D01*
X325112Y292388D01*
X322607Y293059D01*
D02*
G37*
G36*
X297207D02*
X294613D01*
X292108Y292388D01*
X289863Y291091D01*
X288029Y289257D01*
X286732Y287012D01*
X286061Y284507D01*
Y281913D01*
X286732Y279408D01*
X288029Y277163D01*
X289863Y275329D01*
X292108Y274032D01*
X294613Y273361D01*
X297207D01*
X299712Y274032D01*
X301957Y275329D01*
X303791Y277163D01*
X305088Y279408D01*
X305759Y281913D01*
Y284507D01*
X305088Y287012D01*
X303791Y289257D01*
X301957Y291091D01*
X299712Y292388D01*
X297207Y293059D01*
D02*
G37*
G36*
X669005Y234823D02*
X667035D01*
X665214Y234069D01*
X663821Y232676D01*
X663067Y230855D01*
Y228885D01*
X663821Y227064D01*
X665214Y225671D01*
X667035Y224917D01*
X669005D01*
X669221Y225006D01*
X673809Y220419D01*
X674649Y219857D01*
X675640Y219660D01*
X710722D01*
X710811Y219444D01*
X712204Y218051D01*
X714025Y217297D01*
X715995D01*
X717816Y218051D01*
X719209Y219444D01*
X719963Y221265D01*
Y223235D01*
X719209Y225056D01*
X717816Y226449D01*
X715995Y227203D01*
X714025D01*
X712204Y226449D01*
X710811Y225056D01*
X710722Y224840D01*
X676713D01*
X672884Y228669D01*
X672973Y228885D01*
Y230855D01*
X672219Y232676D01*
X670826Y234069D01*
X669005Y234823D01*
D02*
G37*
G36*
X632022Y195440D02*
Y191516D01*
X635946D01*
X635205Y193306D01*
X633812Y194699D01*
X632022Y195440D01*
D02*
G37*
G36*
X659003Y190360D02*
Y186436D01*
X662927D01*
X662186Y188226D01*
X660793Y189619D01*
X659003Y190360D01*
D02*
G37*
G36*
X656971D02*
X655181Y189619D01*
X653788Y188226D01*
X653047Y186436D01*
X656971D01*
Y190360D01*
D02*
G37*
G36*
X662927Y184404D02*
X659003D01*
Y180480D01*
X660793Y181221D01*
X662186Y182614D01*
X662927Y184404D01*
D02*
G37*
G36*
X656971D02*
X653047D01*
X653788Y182614D01*
X655181Y181221D01*
X656971Y180480D01*
Y184404D01*
D02*
G37*
G36*
X805207Y140659D02*
X804926D01*
Y131826D01*
X813759D01*
Y132107D01*
X813088Y134612D01*
X811791Y136857D01*
X809957Y138691D01*
X807712Y139988D01*
X805207Y140659D01*
D02*
G37*
G36*
X802894D02*
X802613D01*
X800108Y139988D01*
X797863Y138691D01*
X796029Y136857D01*
X794732Y134612D01*
X794061Y132107D01*
Y131826D01*
X802894D01*
Y140659D01*
D02*
G37*
G36*
X813759Y129794D02*
X804926D01*
Y120961D01*
X805207D01*
X807712Y121632D01*
X809957Y122929D01*
X811791Y124763D01*
X813088Y127008D01*
X813759Y129513D01*
Y129794D01*
D02*
G37*
G36*
X802894D02*
X794061D01*
Y129513D01*
X794732Y127008D01*
X796029Y124763D01*
X797863Y122929D01*
X800108Y121632D01*
X802613Y120961D01*
X802894D01*
Y129794D01*
D02*
G37*
G36*
X779807Y140659D02*
X777213D01*
X774708Y139988D01*
X772463Y138691D01*
X770629Y136857D01*
X769332Y134612D01*
X768661Y132107D01*
Y129513D01*
X769332Y127008D01*
X770629Y124763D01*
X772463Y122929D01*
X774708Y121632D01*
X777213Y120961D01*
X779807D01*
X782312Y121632D01*
X784557Y122929D01*
X786391Y124763D01*
X787688Y127008D01*
X788359Y129513D01*
Y132107D01*
X787688Y134612D01*
X786391Y136857D01*
X784557Y138691D01*
X782312Y139988D01*
X779807Y140659D01*
D02*
G37*
G36*
X703607D02*
X701013D01*
X698508Y139988D01*
X696263Y138691D01*
X694429Y136857D01*
X693132Y134612D01*
X692461Y132107D01*
Y129513D01*
X693132Y127008D01*
X694429Y124763D01*
X696263Y122929D01*
X698508Y121632D01*
X701013Y120961D01*
X703607D01*
X706112Y121632D01*
X708357Y122929D01*
X710191Y124763D01*
X711488Y127008D01*
X712159Y129513D01*
Y132107D01*
X711488Y134612D01*
X710191Y136857D01*
X708357Y138691D01*
X706112Y139988D01*
X703607Y140659D01*
D02*
G37*
G36*
X612394Y250534D02*
X610920D01*
X610126Y250376D01*
X609454Y249926D01*
X609004Y249254D01*
X608846Y248460D01*
Y241736D01*
X612394D01*
Y250534D01*
D02*
G37*
G36*
X617974Y239704D02*
X614426D01*
Y230906D01*
X615900D01*
X616694Y231064D01*
X617366Y231514D01*
X617816Y232186D01*
X617974Y232980D01*
Y239704D01*
D02*
G37*
G36*
X612394D02*
X608846D01*
Y232980D01*
X609004Y232186D01*
X609454Y231514D01*
X610126Y231064D01*
X610920Y230906D01*
X612394D01*
Y239704D01*
D02*
G37*
G36*
X572516Y222110D02*
Y218186D01*
X576440D01*
X575699Y219976D01*
X574306Y221369D01*
X572516Y222110D01*
D02*
G37*
G36*
X570484D02*
X568694Y221369D01*
X567301Y219976D01*
X566560Y218186D01*
X570484D01*
Y222110D01*
D02*
G37*
G36*
X631421Y220564D02*
Y216640D01*
X635345D01*
X634604Y218429D01*
X633211Y219823D01*
X631421Y220564D01*
D02*
G37*
G36*
X629389D02*
X627599Y219823D01*
X626206Y218429D01*
X625465Y216640D01*
X629389D01*
Y220564D01*
D02*
G37*
G36*
X576440Y216154D02*
X572516D01*
Y212230D01*
X574306Y212971D01*
X575699Y214364D01*
X576440Y216154D01*
D02*
G37*
G36*
X570484D02*
X566560D01*
X567301Y214364D01*
X568694Y212971D01*
X570484Y212230D01*
Y216154D01*
D02*
G37*
G36*
X123719Y189739D02*
X121681D01*
X119713Y189212D01*
X117948Y188193D01*
X116507Y186752D01*
X115488Y184987D01*
X114961Y183019D01*
Y180981D01*
X115488Y179013D01*
X116507Y177248D01*
X117948Y175807D01*
X119713Y174789D01*
X121681Y174261D01*
X123719D01*
X125687Y174789D01*
X127452Y175807D01*
X128892Y177248D01*
X129911Y179013D01*
X130439Y180981D01*
Y183019D01*
X129911Y184987D01*
X128892Y186752D01*
X127452Y188193D01*
X125687Y189212D01*
X123719Y189739D01*
D02*
G37*
G36*
X397128Y179324D02*
X394716D01*
Y176912D01*
X395714Y177325D01*
X396715Y178326D01*
X397128Y179324D01*
D02*
G37*
G36*
X392684D02*
X390272D01*
X390685Y178326D01*
X391686Y177325D01*
X392684Y176912D01*
Y179324D01*
D02*
G37*
G36*
X431546Y172580D02*
Y168656D01*
X435470D01*
X434729Y170446D01*
X433336Y171839D01*
X431546Y172580D01*
D02*
G37*
G36*
X429514D02*
X427724Y171839D01*
X426331Y170446D01*
X425590Y168656D01*
X429514D01*
Y172580D01*
D02*
G37*
G36*
X435470Y166624D02*
X431546D01*
Y162700D01*
X433336Y163441D01*
X434729Y164834D01*
X435470Y166624D01*
D02*
G37*
G36*
X429514D02*
X425590D01*
X426331Y164834D01*
X427724Y163441D01*
X429514Y162700D01*
Y166624D01*
D02*
G37*
G36*
X442849Y182740D02*
Y178816D01*
X446773D01*
X446032Y180606D01*
X444639Y181999D01*
X442849Y182740D01*
D02*
G37*
G36*
X479775Y182753D02*
X477805D01*
X475984Y181999D01*
X474591Y180606D01*
X473837Y178785D01*
Y176815D01*
X474591Y174994D01*
X475984Y173601D01*
X477805Y172847D01*
X479775D01*
X481596Y173601D01*
X482989Y174994D01*
X483078Y175210D01*
X494227D01*
X495516Y173921D01*
X495427Y173705D01*
Y171735D01*
X496181Y169914D01*
X497574Y168521D01*
X499395Y167767D01*
X501365D01*
X503186Y168521D01*
X504579Y169914D01*
X505333Y171735D01*
Y173705D01*
X504579Y175526D01*
X503186Y176919D01*
X501365Y177673D01*
X499395D01*
X499179Y177584D01*
X497131Y179631D01*
X496291Y180193D01*
X495300Y180390D01*
X483078D01*
X482989Y180606D01*
X481596Y181999D01*
X479775Y182753D01*
D02*
G37*
G36*
X479806Y164718D02*
Y162306D01*
X482218D01*
X481805Y163304D01*
X480804Y164305D01*
X479806Y164718D01*
D02*
G37*
G36*
X477774D02*
X476776Y164305D01*
X475775Y163304D01*
X475362Y162306D01*
X477774D01*
Y164718D01*
D02*
G37*
G36*
X483559Y129794D02*
X474726D01*
Y120961D01*
X475007D01*
X477512Y121632D01*
X479757Y122929D01*
X481591Y124763D01*
X482888Y127008D01*
X483559Y129513D01*
Y129794D01*
D02*
G37*
G36*
X472694D02*
X463861D01*
Y129513D01*
X464532Y127008D01*
X465829Y124763D01*
X467663Y122929D01*
X469908Y121632D01*
X472413Y120961D01*
X472694D01*
Y129794D01*
D02*
G37*
%LPD*%
D29*
X63500Y386080D02*
D03*
X474980Y767080D02*
D03*
X389890D02*
D03*
D30*
X88900Y386080D02*
D03*
X500380Y767080D02*
D03*
X415290D02*
D03*
D35*
X33481Y280521D02*
G03*
X23286Y307737I-10781J11479D01*
G01*
X33450Y280490D02*
G03*
X33448Y280488I2154J-2157D01*
G01*
X638048Y327406D02*
X650240D01*
X625856D02*
X638048D01*
X613410Y275052D02*
X626110Y262352D01*
Y262892D02*
X627187Y263969D01*
X626110Y262352D02*
Y262892D01*
X613410Y275052D02*
Y302260D01*
X644216Y239704D02*
X753110Y130810D01*
X637263Y239704D02*
X644216D01*
X567706Y266573D02*
X587557D01*
X588446Y265684D01*
X611283D02*
X637263Y239704D01*
X588446Y265684D02*
X611283D01*
X617728Y194310D02*
X662940Y149098D01*
X442976Y194310D02*
X617728D01*
X434340Y185674D02*
X442976Y194310D01*
X374224Y193040D02*
X381844Y200660D01*
X246842Y197612D02*
X251413Y193040D01*
X657860Y200660D02*
X727710Y130810D01*
X251413Y193040D02*
X374224D01*
X156751Y152654D02*
X201709Y197612D01*
X651510Y207010D02*
X657860Y200660D01*
X201709Y197612D02*
X246842D01*
X381844Y200660D02*
X657860D01*
X467487Y238887D02*
X482092Y253492D01*
X467487Y227187D02*
Y238887D01*
X463693Y223393D02*
X467487Y227187D01*
X451993Y223393D02*
X463693D01*
X449580Y220980D02*
X451993Y223393D01*
X482092Y253492D02*
X501951D01*
X261175Y220980D02*
X449580D01*
X517709Y274624D02*
X524510Y281425D01*
Y283210D01*
X501951Y253492D02*
X517709Y269250D01*
Y274624D01*
X235830Y408888D02*
X278298D01*
X229870Y414782D02*
X229936D01*
X235830Y408888D01*
X220795Y167640D02*
X406400D01*
X185743Y132588D02*
X220795Y167640D01*
X296672Y161290D02*
X303022Y154940D01*
X223012Y161290D02*
X296672D01*
X183722Y122000D02*
X223012Y161290D01*
X549156Y256540D02*
X557673D01*
X537210Y268486D02*
X549156Y256540D01*
X557673D02*
X567706Y266573D01*
X537210Y268486D02*
Y289814D01*
X65024Y58928D02*
X715518D01*
X411480Y246380D02*
X448310Y283210D01*
X228854Y246380D02*
X411480D01*
X132160Y251460D02*
X223774D01*
X186160Y112737D02*
X215663Y142240D01*
X82700Y222000D02*
X92102Y212598D01*
X122700Y282000D02*
X132666Y272034D01*
X343662Y102362D02*
X372110Y130810D01*
X95250Y102362D02*
X343662D01*
X614530Y338732D02*
Y355530D01*
X117094Y331978D02*
X374142D01*
X614530Y338732D02*
X625856Y327406D01*
X113284Y328168D02*
X117094Y331978D01*
X52714Y182000D02*
X62700D01*
X113284Y271416D02*
Y328168D01*
X48768Y59182D02*
Y178054D01*
X688340Y274828D02*
Y289306D01*
X48768Y59182D02*
X56896Y51054D01*
X637540Y119380D02*
X658368D01*
X765048Y296672D02*
X778510Y283210D01*
X658368Y119380D02*
X662940Y123952D01*
X765048Y296672D02*
Y587502D01*
X662940Y123952D02*
Y149098D01*
X716280Y636270D02*
X765048Y587502D01*
X640588Y636270D02*
X716280D01*
X343408Y311912D02*
X372110Y283210D01*
X132612Y311912D02*
X343408D01*
X122700Y302000D02*
X132612Y311912D01*
X122700Y242000D02*
X132160Y251460D01*
X225936Y572386D02*
Y611762D01*
Y572386D02*
X235712Y562610D01*
X360680Y266446D02*
X366014Y271780D01*
X178308Y266446D02*
X360680D01*
X523297Y303727D02*
X537210Y289814D01*
X448703Y303727D02*
X523297D01*
X415453Y336977D02*
X448703Y303727D01*
X111963Y351263D02*
X146537D01*
X225936Y611762D02*
X239231Y625057D01*
X411988Y94488D02*
X448310Y130810D01*
X172039Y336977D02*
X415453D01*
X48768Y178054D02*
X52714Y182000D01*
X650240Y327406D02*
X688340Y289306D01*
X113284Y271416D02*
X122700Y262000D01*
X102700Y342000D02*
X111963Y351263D01*
X161290Y347726D02*
X172039Y336977D01*
X829310Y130810D02*
Y150876D01*
X750316Y264160D02*
X754380Y260096D01*
X146537Y351263D02*
X150074Y347726D01*
X259080Y562610D02*
X270510Y574040D01*
X699008Y264160D02*
X750316D01*
X117082Y112737D02*
X186160D01*
X132666Y272034D02*
X172720D01*
X150074Y347726D02*
X161290D01*
X374142Y331978D02*
X422910Y283210D01*
X754380Y225806D02*
Y260096D01*
Y225806D02*
X829310Y150876D01*
X142700Y282000D02*
X188214D01*
X56896Y51054D02*
X749554D01*
X255781Y226373D02*
X261175Y220980D01*
X86614Y151892D02*
X93218Y158496D01*
X629375Y625057D02*
X640588Y636270D01*
X93218Y192518D02*
X102700Y202000D01*
X362204Y95504D02*
X397510Y130810D01*
X88392Y97536D02*
Y109474D01*
X366014Y271780D02*
X386080D01*
X88392Y97536D02*
X90424Y95504D01*
X142700Y302000D02*
X226320D01*
X386080Y271780D02*
X397510Y283210D01*
X90424Y95504D02*
X362204D01*
X226320Y302000D02*
X245110Y283210D01*
X72290Y232410D02*
X372110D01*
X239231Y625057D02*
X629375D01*
X93218Y158496D02*
Y192518D01*
X111963Y117856D02*
X117082Y112737D01*
X172720Y272034D02*
X178308Y266446D01*
X223774Y251460D02*
X228854Y246380D01*
X62700Y242000D02*
X72290Y232410D01*
X110490Y66802D02*
X562102D01*
X199196Y271018D02*
X258318D01*
X640080Y142240D02*
X651510Y130810D01*
X197612Y212598D02*
X211387Y226373D01*
X73406Y146304D02*
X78994Y151892D01*
X82700Y94592D02*
Y122000D01*
X73406Y138176D02*
X80264Y131318D01*
X82700Y142000D02*
X92874Y131826D01*
X88392Y109474D02*
X92202Y113284D01*
X105974Y131826D02*
X111963Y125837D01*
X422910Y232410D02*
X473710Y283210D01*
X626110Y130810D02*
X637540Y119380D01*
X86482Y131318D02*
X92202Y125598D01*
X372110Y232410D02*
X422910D01*
X111963Y117856D02*
Y125837D01*
X80264Y131318D02*
X86482D01*
X562102Y66802D02*
X626110Y130810D01*
X188214Y282000D02*
X199196Y271018D01*
X749554Y51054D02*
X829310Y130810D01*
X211387Y226373D02*
X255781D01*
X78994Y151892D02*
X86614D01*
X82700Y94592D02*
X110490Y66802D01*
X235712Y562610D02*
X259080D01*
X688340Y274828D02*
X699008Y264160D01*
X258318Y271018D02*
X270510Y283210D01*
X215663Y142240D02*
X640080D01*
X92102Y212598D02*
X197612D01*
X73406Y138176D02*
Y146304D01*
X92874Y131826D02*
X105974D01*
X92202Y113284D02*
Y125598D01*
X201676Y184912D02*
X345948D01*
X396240Y207010D02*
X651510D01*
X345948Y184912D02*
X346710Y184150D01*
X497840Y430410D02*
X497960Y430530D01*
X497840Y421640D02*
Y430410D01*
X309626Y568198D02*
Y585978D01*
X309880Y586232D01*
X284537Y581152D02*
X296475Y593090D01*
X530860D02*
X549910Y574040D01*
X296475Y593090D02*
X530860D01*
X309626Y568198D02*
X315214Y562610D01*
X476250Y406520D02*
Y415290D01*
X476130Y406400D02*
X476250Y406520D01*
X490220Y373380D02*
X490820D01*
X497960Y380520D01*
Y382270D01*
X496690Y365506D02*
X501262Y370078D01*
X526034D01*
X496690Y358140D02*
Y365506D01*
X715518Y58928D02*
X765810Y109220D01*
X8890Y626110D02*
X39553Y656773D01*
Y659059D01*
X69342Y688848D01*
X477273Y505968D02*
X481338Y510032D01*
X600710D01*
X421132Y505968D02*
X477273D01*
X545259Y464566D02*
X557404D01*
X544243Y463550D02*
X545259Y464566D01*
X528715Y464458D02*
X529623Y463550D01*
X506008Y464458D02*
X528715D01*
X497960Y454660D02*
Y456410D01*
X529623Y463550D02*
X544243D01*
X497960Y456410D02*
X506008Y464458D01*
X108287Y402165D02*
X205232Y499110D01*
X372601D02*
X377173Y494538D01*
X205232Y499110D02*
X372601D01*
X377173Y494538D02*
X455168D01*
X193040Y504190D02*
X402082D01*
X140716Y451866D02*
X193040Y504190D01*
X402082D02*
X407162Y499110D01*
X278298Y408888D02*
X280786Y406400D01*
X304292D01*
X308102Y402590D01*
X125471Y543342D02*
X126585D01*
X131955Y537972D02*
X264414D01*
X122631Y550200D02*
X164374D01*
X126585Y543342D02*
X131955Y537972D01*
X164374Y550200D02*
X213106Y598932D01*
X111760Y452374D02*
Y539329D01*
X122631Y550200D01*
X264414Y537972D02*
X284537Y558095D01*
X213106Y598932D02*
Y617728D01*
X148431Y355835D02*
X151968Y352298D01*
X140092Y358394D02*
X142651Y355835D01*
X151968Y352298D02*
X266192D01*
X275082Y343408D01*
X142651Y355835D02*
X148431D01*
X113284Y358394D02*
X140092D01*
X99060Y439674D02*
X111760Y452374D01*
X52602Y338998D02*
Y395192D01*
Y338998D02*
X59622Y331978D01*
X72722D01*
X52602Y395192D02*
X63500Y406091D01*
Y540258D02*
X127254Y604012D01*
X63500Y406091D02*
Y540258D01*
X48990Y292100D02*
X72800D01*
X48665Y291775D02*
X48990Y292100D01*
X32556Y277070D02*
X56896Y252730D01*
X21590Y528828D02*
X112776Y620014D01*
X21590Y309433D02*
Y528828D01*
X22483Y308540D02*
X23286Y307737D01*
X32555Y278333D02*
X32556Y279595D01*
X21590Y309433D02*
X22483Y308540D01*
X33450Y280490D02*
X33481Y280521D01*
X32555Y278333D02*
X32556Y277070D01*
Y279595D02*
X33448Y280488D01*
X562648Y480530D02*
X599530D01*
X545554D02*
X562648D01*
X411634Y451512D02*
X461130D01*
X116569Y337919D02*
Y342000D01*
X369570Y375666D02*
X461130D01*
X600710Y574040D02*
X651510Y624840D01*
X702310D01*
X270880Y470580D02*
Y486410D01*
X266390Y466090D02*
X270880Y470580D01*
X568452Y467360D02*
X575282Y460530D01*
X599530D01*
X284537Y558095D02*
Y581152D01*
X575310Y400530D02*
X599530D01*
X156210Y638556D02*
Y650240D01*
X182853Y676883D01*
X529563D01*
X123698Y638556D02*
X156210D01*
X6858Y521716D02*
X123698Y638556D01*
X6858Y225298D02*
Y521716D01*
Y225298D02*
X39624Y192532D01*
X73232D01*
X82700Y202000D01*
X448310Y368300D02*
X469392D01*
X476130Y375038D01*
Y382270D01*
X497960Y430530D02*
Y437388D01*
X503040Y442468D01*
X542544D01*
X553974Y431038D01*
X611079D01*
X618191Y438150D01*
X628142D01*
X634238Y432054D01*
X690880D01*
X695198Y436372D01*
Y445770D01*
X684022Y456946D02*
X695198Y445770D01*
X633730Y456946D02*
X684022D01*
X394970Y391160D02*
X420624D01*
X332740Y542544D02*
X422402D01*
X297180Y688848D02*
X323399Y715067D01*
X436937D01*
X448310Y726440D01*
X621284Y431292D02*
X631444Y421132D01*
X655320D01*
X434968Y440570D02*
X437388Y438150D01*
X394970Y440570D02*
X434968D01*
X586740Y471932D02*
X670814D01*
X584454Y474218D02*
X586740Y471932D01*
X553029Y474218D02*
X584454D01*
X550926Y472115D02*
X553029Y474218D01*
X539059Y472115D02*
X550926D01*
X520446Y490728D02*
X539059Y472115D01*
X479058Y490728D02*
X520446D01*
X476010Y487680D02*
X479058Y490728D01*
X476010Y478790D02*
Y487680D01*
Y469152D02*
Y478790D01*
X471424Y464566D02*
X476010Y469152D01*
X422402Y464566D02*
X471424D01*
X408940Y478028D02*
X422402Y464566D01*
X102700Y162000D02*
X112046Y152654D01*
X156751D01*
X69342Y688848D02*
X281178D01*
X309880Y717550D01*
Y731520D01*
X320745Y742385D01*
X533965D01*
X549910Y726440D01*
X456946Y684276D02*
X499110Y726440D01*
X347980Y684276D02*
X456946D01*
X188214Y171450D02*
X201676Y184912D01*
X50546Y212090D02*
X71120D01*
X46482Y208026D02*
X50546Y212090D01*
X650998Y550168D02*
X653117Y548049D01*
X319782Y550168D02*
X650998D01*
X295910Y574040D02*
X319782Y550168D01*
X651510Y574040D02*
X663956Y586486D01*
X683006D01*
X688340Y581152D01*
Y554990D02*
Y581152D01*
X664972Y531622D02*
X688340Y554990D01*
X191262Y531622D02*
X664972D01*
X122423Y462782D02*
X191262Y531622D01*
X122423Y449321D02*
Y462782D01*
X98806Y425704D02*
X122423Y449321D01*
X72800Y292100D02*
X82700Y302000D01*
X72722Y331978D02*
X82700Y322000D01*
X127254Y604012D02*
X191008D01*
X238832D02*
X255305Y620485D01*
X520483D01*
X563880Y577088D01*
Y567690D02*
Y577088D01*
Y567690D02*
X568960Y562610D01*
X665480D01*
X676910Y574040D01*
X93430Y252730D02*
X102700Y262000D01*
X56896Y252730D02*
X93430D01*
X112776Y620014D02*
X192278D01*
X211074Y638810D01*
X589280D01*
X676910Y726440D01*
X698754Y389128D02*
X716788Y371094D01*
X587756Y389128D02*
X698754D01*
X578866Y380238D02*
X587756Y389128D01*
X536194Y380238D02*
X578866D01*
X526034Y370078D02*
X536194Y380238D01*
X203454Y524002D02*
X634492D01*
X146812Y467360D02*
X203454Y524002D01*
X146049Y467360D02*
X146812D01*
X133858Y455168D02*
X146049Y467360D01*
X133858Y435102D02*
Y455168D01*
X114864Y416108D02*
X133858Y435102D01*
X92004Y416108D02*
X114864D01*
X76200Y400304D02*
X92004Y416108D01*
X76200Y377952D02*
Y400304D01*
X73406Y375158D02*
X76200Y377952D01*
X73406Y338193D02*
Y375158D01*
Y338193D02*
X79621Y331978D01*
X85852D01*
X92710Y325120D01*
Y311990D02*
Y325120D01*
Y311990D02*
X102700Y302000D01*
X322890Y453390D02*
X338328D01*
X354584Y437134D01*
X142700Y122000D02*
X183722D01*
X305816Y389890D02*
X322890D01*
X299466Y383540D02*
X305816Y389890D01*
X221234Y383540D02*
X299466D01*
X237490Y208026D02*
X248666Y219202D01*
X168726Y208026D02*
X237490D01*
X142700Y182000D02*
X168726Y208026D01*
X151638Y370586D02*
X264160D01*
X266390Y377190D01*
X461130Y430530D02*
Y438912D01*
X455796Y444246D02*
X461130Y438912D01*
X444276Y444246D02*
X455796D01*
X443342Y445180D02*
X444276Y444246D01*
X409022Y445180D02*
X443342D01*
X405584Y448618D02*
X409022Y445180D01*
X386896Y448618D02*
X405584D01*
X353568Y415290D02*
X386896Y448618D01*
X116569Y342000D02*
X122700D01*
X111387Y332736D02*
X116569Y337919D01*
X98810Y332736D02*
X111387D01*
X93218Y338328D02*
X98810Y332736D01*
X93218Y338328D02*
Y349758D01*
X108287Y364827D01*
Y402165D01*
X455168Y494538D02*
X461010Y488696D01*
Y478790D02*
Y488696D01*
X461130Y375666D02*
Y382270D01*
X358648Y364744D02*
X369570Y375666D01*
X461130Y406400D02*
Y415290D01*
X416306D02*
X461130D01*
X112112Y132588D02*
X185743D01*
X102700Y142000D02*
X112112Y132588D01*
X275082Y343408D02*
X424942D01*
X437642Y330708D01*
X466852D01*
X453136Y346710D02*
X456184Y349758D01*
X461130D01*
Y358140D01*
X386080Y562610D02*
X397510Y574040D01*
X315214Y562610D02*
X386080D01*
X133096Y382016D02*
X172720Y421640D01*
X350774D01*
X382324Y453190D01*
X409957D01*
X411634Y451512D01*
X461130D02*
Y454660D01*
X544068Y499110D02*
X562648Y480530D01*
X407162Y499110D02*
X544068D01*
X499110Y260350D02*
X513137Y274377D01*
Y291903D01*
X517906Y296672D01*
X544068Y479044D02*
X545554Y480530D01*
X599530D02*
X612140D01*
X614680Y483070D01*
X557404Y464566D02*
X572644Y449326D01*
X679958D01*
X688340Y440944D01*
X513080Y687578D02*
Y730758D01*
X506025Y737813D02*
X513080Y730758D01*
X408883Y737813D02*
X506025D01*
X397510Y726440D02*
X408883Y737813D01*
X476010Y478790D02*
X497840D01*
X473710Y574040D02*
X490474Y557276D01*
X556768D01*
X142700Y142000D02*
X170956D01*
X206248Y177292D01*
X259080D01*
X322890Y466090D02*
X338074D01*
X394970Y425570D02*
X417068D01*
X72658Y171958D02*
X82700Y182000D01*
X58674Y171958D02*
X72658D01*
X53340Y166624D02*
X58674Y171958D01*
X53340Y70612D02*
Y166624D01*
Y70612D02*
X65024Y58928D01*
X82700Y342000D02*
Y354988D01*
X102870Y375158D01*
Y405130D01*
X98806Y409194D02*
X102870Y405130D01*
X213106Y617728D02*
X226568Y631190D01*
X608584D01*
X690880Y713486D01*
X790956D01*
X803910Y726440D01*
X236049Y468293D02*
X238252Y466090D01*
X266390D01*
X142700Y322000D02*
X370006D01*
X372110Y324104D01*
X142700Y162000D02*
X182884Y202184D01*
X251968D01*
X308102Y402590D02*
X322890D01*
X158496Y378460D02*
X173990Y393954D01*
X257302D01*
X261366Y389890D01*
X266390D01*
X237998Y453390D02*
X266390D01*
X176784Y259080D02*
X245110D01*
X173864Y262000D02*
X176784Y259080D01*
X142700Y262000D02*
X173864D01*
X142700Y242000D02*
X214376D01*
X215392Y440690D02*
X266390D01*
X163068Y646430D02*
X516636D01*
X588010Y717804D01*
Y732536D01*
X593344Y737870D01*
X716280D01*
X727710Y726440D01*
X732536Y747014D02*
X753110Y726440D01*
X273558Y747014D02*
X732536D01*
X257048Y730504D02*
X273558Y747014D01*
X257048Y717804D02*
Y730504D01*
X251968Y712724D02*
X257048Y717804D01*
X160528Y712724D02*
X251968D01*
X285750Y767080D02*
X389890D01*
X245110Y726440D02*
X285750Y767080D01*
X312420Y427990D02*
X322890D01*
X305562Y434848D02*
X312420Y427990D01*
X305562Y434848D02*
Y445008D01*
X284480Y466090D02*
X305562Y445008D01*
X266390Y466090D02*
X284480D01*
X394970Y406160D02*
Y425570D01*
X476130Y382270D02*
X497960D01*
X476130Y406400D02*
X497960D01*
X476130Y430530D02*
X497960D01*
X476130Y454660D02*
X497960D01*
X476130Y358140D02*
X496690D01*
D36*
X251460Y361950D02*
X252010D01*
X253280Y360680D02*
X279400D01*
X252010Y361950D02*
X253280Y360680D01*
X304391Y413123D02*
X305697D01*
X302224Y415290D02*
X304391Y413123D01*
X266390Y415290D02*
X302224D01*
X664210Y252710D02*
X689610D01*
X613410Y235470D02*
X622111Y226769D01*
Y223918D02*
Y226769D01*
X613410Y235470D02*
Y240720D01*
X622111Y223918D02*
X630405Y215624D01*
X631006Y190500D02*
X631190D01*
X636270Y185420D01*
X657987D01*
X571500Y217170D02*
X595110D01*
X613410Y235470D01*
X462280Y177800D02*
X478790Y161290D01*
X441833Y177800D02*
X462280D01*
X417830Y180340D02*
X430530Y167640D01*
X393700Y180340D02*
X417830D01*
X636270Y318770D02*
Y325628D01*
X638048Y327406D01*
X612078Y270637D02*
X626474Y256241D01*
X562610Y270637D02*
X612078D01*
X603990Y255270D02*
X604647D01*
X600710Y251990D02*
X603990Y255270D01*
X600710Y240720D02*
Y251990D01*
X633426Y256241D02*
X647822Y241845D01*
X626474Y256241D02*
X633426D01*
X647822Y241845D02*
X706845D01*
X537210Y240720D02*
Y245970D01*
X542750Y251510D01*
X553663D01*
X556260Y248913D01*
Y232527D02*
Y248913D01*
Y232527D02*
X558857Y229930D01*
X595170D01*
X600710Y235470D02*
Y240720D01*
X595170Y229930D02*
X600710Y235470D01*
X524510D02*
Y240720D01*
Y235470D02*
X529937Y230043D01*
Y228253D02*
Y230043D01*
Y228253D02*
X530860Y227330D01*
X531783Y228253D02*
Y230043D01*
X537210Y235470D02*
Y240720D01*
X531783Y230043D02*
X537210Y235470D01*
X530860Y227330D02*
X531783Y228253D01*
X530860Y186690D02*
X600190D01*
X613410Y168220D02*
Y173470D01*
X600190Y186690D02*
X613410Y173470D01*
X476250Y228219D02*
Y236220D01*
Y228219D02*
X484759Y219710D01*
X478790Y177800D02*
X495300D01*
X500380Y172720D01*
X509270Y157480D02*
X513286Y161496D01*
X524510Y163480D02*
Y168220D01*
X522526Y161496D02*
X524510Y163480D01*
X513286Y161496D02*
X522526D01*
X207010Y415163D02*
X207137D01*
X219710Y402590D01*
X266390D01*
X271907Y199517D02*
X278130Y205740D01*
X271780Y199517D02*
X271907D01*
X278130Y205740D02*
X354424D01*
X387350Y186563D02*
X387477Y186690D01*
X424344D01*
X454316Y156718D01*
X498465D01*
X520757Y179010D01*
X595170D02*
X600710Y173470D01*
Y168220D02*
Y173470D01*
X520757Y179010D02*
X595170D01*
X538070Y151130D02*
X549910Y162970D01*
X439420Y151130D02*
X538070D01*
X549910Y162970D02*
Y168220D01*
X355473Y161163D02*
X355600D01*
X342900Y148590D02*
X355473Y161163D01*
X266827Y148590D02*
X342900D01*
X266700Y148717D02*
X266827Y148590D01*
X204470Y428117D02*
X204597Y427990D01*
X266390D01*
X588010Y240720D02*
Y250190D01*
X562610Y245970D02*
X578260Y261620D01*
X609600D02*
X661670Y209550D01*
X578260Y261620D02*
X609600D01*
X553720Y264160D02*
Y271655D01*
X560775Y278710D01*
Y287710D01*
X536101Y312384D02*
X560775Y287710D01*
X496606Y312384D02*
X536101D01*
X471932Y337058D02*
X496606Y312384D01*
X453261Y334772D02*
X455547Y337058D01*
X471932D01*
X439325Y334772D02*
X453261D01*
X426625Y347472D02*
X439325Y334772D01*
X366940Y347472D02*
X426625D01*
X327890Y415290D02*
X343071Y400109D01*
X322890Y415290D02*
X327890D01*
X343071Y371341D02*
Y400109D01*
Y371341D02*
X366940Y347472D01*
X549910Y235470D02*
Y240720D01*
X527927Y213487D02*
X549910Y235470D01*
X455930Y213487D02*
X527927D01*
X459820Y227457D02*
X461010Y228647D01*
X427084Y227457D02*
X459820D01*
X461010Y228647D02*
Y229870D01*
X417830Y264160D02*
X419100D01*
X409920Y272070D02*
X417830Y264160D01*
X402010Y294075D02*
X409920Y286165D01*
Y272070D02*
Y286165D01*
X393700Y300990D02*
X400615Y294075D01*
X402010D01*
X360680Y463550D02*
X398780D01*
X353060Y455930D02*
X360680Y463550D01*
X322890Y440690D02*
X339090D01*
X562610Y240720D02*
Y245970D01*
X575310Y240720D02*
Y247650D01*
X668020Y229870D02*
X675640Y222250D01*
X715010D01*
X706845Y241845D02*
X715010Y233680D01*
X600104Y150876D02*
X615696D01*
X588010Y162970D02*
Y168220D01*
Y162970D02*
X600104Y150876D01*
X615696D02*
X632460Y167640D01*
X578260Y147320D02*
X621030D01*
X628650Y154940D01*
X562610Y162970D02*
X578260Y147320D01*
X647700Y333883D02*
X648623Y332960D01*
X652560D01*
X702310Y283210D01*
X562610Y162970D02*
Y168220D01*
X641350Y261620D02*
X676910Y283210D01*
D37*
X778510D02*
D03*
X753110D02*
D03*
X727710D02*
D03*
X702310D02*
D03*
X676910D02*
D03*
X651510D02*
D03*
X626110D02*
D03*
X600710D02*
D03*
X575310D02*
D03*
X549910D02*
D03*
X524510D02*
D03*
X499110D02*
D03*
Y130810D02*
D03*
X524510D02*
D03*
X549910D02*
D03*
X575310D02*
D03*
X600710D02*
D03*
X626110D02*
D03*
X651510D02*
D03*
X676910D02*
D03*
X702310D02*
D03*
X727710D02*
D03*
X753110D02*
D03*
X448310Y283210D02*
D03*
X422910D02*
D03*
X397510D02*
D03*
X372110D02*
D03*
X346710D02*
D03*
X321310D02*
D03*
X295910D02*
D03*
X270510D02*
D03*
X245110D02*
D03*
Y130810D02*
D03*
X270510D02*
D03*
X295910D02*
D03*
X321310D02*
D03*
X346710D02*
D03*
X372110D02*
D03*
X397510D02*
D03*
X422910D02*
D03*
X448310D02*
D03*
X473710Y283210D02*
D03*
X372110Y257810D02*
D03*
Y232410D02*
D03*
Y207010D02*
D03*
Y181610D02*
D03*
Y156210D02*
D03*
X664210Y252710D02*
D03*
X689610D02*
D03*
X715010D02*
D03*
X740410D02*
D03*
X765810D02*
D03*
X778510Y130810D02*
D03*
X829310D02*
D03*
X803910Y283210D02*
D03*
Y156210D02*
D03*
X473710Y130810D02*
D03*
X803910D02*
D03*
X829310Y283210D02*
D03*
X295910Y574040D02*
D03*
X321310D02*
D03*
X346710D02*
D03*
X372110D02*
D03*
X397510D02*
D03*
X422910D02*
D03*
X448310D02*
D03*
X473710D02*
D03*
X499110D02*
D03*
X524510D02*
D03*
X549910D02*
D03*
X575310D02*
D03*
Y726440D02*
D03*
X549910D02*
D03*
X524510D02*
D03*
X499110D02*
D03*
X473710D02*
D03*
X448310D02*
D03*
X422910D02*
D03*
X397510D02*
D03*
X372110D02*
D03*
X346710D02*
D03*
X321310D02*
D03*
X626110Y574040D02*
D03*
X651510D02*
D03*
X676910D02*
D03*
X702310D02*
D03*
X727710D02*
D03*
X753110D02*
D03*
X778510D02*
D03*
X803910D02*
D03*
X829310D02*
D03*
Y726440D02*
D03*
X803910D02*
D03*
X778510D02*
D03*
X753110D02*
D03*
X727710D02*
D03*
X702310D02*
D03*
X676910D02*
D03*
X651510D02*
D03*
X626110D02*
D03*
X600710Y574040D02*
D03*
X702310Y599440D02*
D03*
Y624840D02*
D03*
Y650240D02*
D03*
Y675640D02*
D03*
Y701040D02*
D03*
X410210Y604540D02*
D03*
X384810D02*
D03*
X359410D02*
D03*
X334010D02*
D03*
X308610D02*
D03*
X295910Y726440D02*
D03*
X245110D02*
D03*
X270510Y574040D02*
D03*
Y701040D02*
D03*
X600710Y726440D02*
D03*
X270510D02*
D03*
X245110Y574040D02*
D03*
D38*
X142700Y122000D02*
D03*
D39*
Y142000D02*
D03*
Y162000D02*
D03*
Y182000D02*
D03*
Y202000D02*
D03*
Y222000D02*
D03*
Y242000D02*
D03*
Y262000D02*
D03*
Y282000D02*
D03*
Y302000D02*
D03*
Y322000D02*
D03*
Y342000D02*
D03*
X122700Y122000D02*
D03*
Y142000D02*
D03*
Y162000D02*
D03*
Y182000D02*
D03*
Y202000D02*
D03*
Y222000D02*
D03*
Y242000D02*
D03*
Y262000D02*
D03*
Y282000D02*
D03*
Y302000D02*
D03*
Y322000D02*
D03*
Y342000D02*
D03*
X102700Y122000D02*
D03*
Y142000D02*
D03*
Y162000D02*
D03*
Y182000D02*
D03*
Y202000D02*
D03*
Y222000D02*
D03*
Y242000D02*
D03*
Y262000D02*
D03*
Y282000D02*
D03*
Y302000D02*
D03*
Y322000D02*
D03*
Y342000D02*
D03*
X82700Y122000D02*
D03*
Y142000D02*
D03*
Y162000D02*
D03*
Y182000D02*
D03*
Y202000D02*
D03*
Y222000D02*
D03*
Y242000D02*
D03*
Y262000D02*
D03*
Y282000D02*
D03*
Y302000D02*
D03*
Y322000D02*
D03*
Y342000D02*
D03*
X62700Y122000D02*
D03*
Y142000D02*
D03*
Y162000D02*
D03*
Y182000D02*
D03*
Y202000D02*
D03*
Y222000D02*
D03*
Y242000D02*
D03*
Y262000D02*
D03*
Y282000D02*
D03*
Y302000D02*
D03*
Y322000D02*
D03*
Y342000D02*
D03*
D40*
X279400Y360680D02*
D03*
X305697Y413123D02*
D03*
X630405Y215624D02*
D03*
X631006Y190500D02*
D03*
X657987Y185420D02*
D03*
X571500Y217170D02*
D03*
X441833Y177800D02*
D03*
X430530Y167640D02*
D03*
X636270Y318770D02*
D03*
X627187Y263969D02*
D03*
X613410Y302260D02*
D03*
X604647Y255270D02*
D03*
X530860Y227330D02*
D03*
Y186690D02*
D03*
X537210Y158750D02*
D03*
X476250Y236220D02*
D03*
X484759Y219710D02*
D03*
X478790Y177800D02*
D03*
X500380Y172720D02*
D03*
X509270Y157480D02*
D03*
X207010Y415163D02*
D03*
X271780Y199517D02*
D03*
X354424Y205740D02*
D03*
X387350Y186563D02*
D03*
X439420Y151130D02*
D03*
X355600Y161163D02*
D03*
X266700Y148717D02*
D03*
X204470Y428117D02*
D03*
X588010Y250190D02*
D03*
X553720Y264160D02*
D03*
X455930Y213487D02*
D03*
X461010Y229870D02*
D03*
X427084Y227457D02*
D03*
X419100Y264160D02*
D03*
X393700Y300990D02*
D03*
X398780Y463550D02*
D03*
X353060Y455930D02*
D03*
X339090Y440690D02*
D03*
X575310Y247650D02*
D03*
X661670Y209550D02*
D03*
X668020Y229870D02*
D03*
X715010Y222250D02*
D03*
X562610Y270637D02*
D03*
X715010Y233680D02*
D03*
X632460Y167640D02*
D03*
X647700Y333883D02*
D03*
X628650Y154940D02*
D03*
X641350Y261620D02*
D03*
D41*
X229870Y414782D02*
D03*
X406400Y167640D02*
D03*
X396240Y207010D02*
D03*
X346710Y184150D02*
D03*
X434340Y185674D02*
D03*
X497840Y421640D02*
D03*
X309880Y586232D02*
D03*
X476250Y415290D02*
D03*
X490220Y373380D02*
D03*
X765810Y109220D02*
D03*
X8890Y626110D02*
D03*
X530860Y463550D02*
D03*
X125471Y543342D02*
D03*
X48665Y291775D02*
D03*
X568452Y467360D02*
D03*
X575310Y400530D02*
D03*
X156210Y638556D02*
D03*
X529563Y676883D02*
D03*
X448310Y368300D02*
D03*
X633730Y456946D02*
D03*
X420624Y391160D02*
D03*
X422402Y542544D02*
D03*
X332740D02*
D03*
X297180Y688848D02*
D03*
X621284Y431292D02*
D03*
X655320Y421132D02*
D03*
X437388Y438150D02*
D03*
X670814Y471932D02*
D03*
X408940Y478028D02*
D03*
X95250Y102362D02*
D03*
X347980Y684276D02*
D03*
X188214Y171450D02*
D03*
X71120Y212090D02*
D03*
X46482Y208026D02*
D03*
X411988Y94488D02*
D03*
X653117Y548049D02*
D03*
X98806Y425704D02*
D03*
X191008Y604012D02*
D03*
X238832D02*
D03*
X716788Y371094D02*
D03*
X634492Y524002D02*
D03*
X354584Y437134D02*
D03*
X303022Y154940D02*
D03*
X221234Y383540D02*
D03*
X248666Y219202D02*
D03*
X151638Y370586D02*
D03*
X353568Y415290D02*
D03*
X358648Y364744D02*
D03*
X416306Y415290D02*
D03*
X113284Y358394D02*
D03*
X466852Y330708D02*
D03*
X453136Y346710D02*
D03*
X477266Y505968D02*
D03*
X600710Y510032D02*
D03*
X133096Y382016D02*
D03*
X140716Y451866D02*
D03*
X499110Y260350D02*
D03*
X517906Y296672D02*
D03*
X544068Y479044D02*
D03*
X614680Y483070D02*
D03*
X688340Y440944D02*
D03*
X513080Y687578D02*
D03*
X556768Y557276D02*
D03*
X259080Y177292D02*
D03*
X338074Y466090D02*
D03*
X421132Y505968D02*
D03*
X417068Y425570D02*
D03*
X98806Y409194D02*
D03*
X99060Y439674D02*
D03*
X236049Y468293D02*
D03*
X372110Y324104D02*
D03*
X251968Y202184D02*
D03*
X158496Y378460D02*
D03*
X237998Y453390D02*
D03*
X245110Y259080D02*
D03*
X214376Y242000D02*
D03*
X215392Y440690D02*
D03*
X163068Y646430D02*
D03*
X160528Y712724D02*
D03*
D42*
X519430Y504190D02*
D03*
X524510Y430530D02*
D03*
Y454660D02*
D03*
Y474980D02*
D03*
Y405130D02*
D03*
X525272Y382270D02*
D03*
X523240Y358140D02*
D03*
X393700Y180340D02*
D03*
X478790Y161290D02*
D03*
X251460Y361950D02*
D03*
X226060Y448310D02*
D03*
X232410Y485140D02*
D03*
X191893Y591984D02*
D03*
X132203Y566584D02*
D03*
X102993Y494194D02*
D03*
X53340Y511810D02*
D03*
D43*
X22700Y172000D02*
D03*
Y292000D02*
D03*
D44*
X22483Y308540D02*
D03*
X32555Y278333D02*
D03*
D45*
X524510Y240720D02*
D03*
X537210D02*
D03*
X549910D02*
D03*
X562610D02*
D03*
X575310D02*
D03*
X588010D02*
D03*
X600710D02*
D03*
X613410D02*
D03*
X524510Y168220D02*
D03*
X537210D02*
D03*
X549910D02*
D03*
X562610D02*
D03*
X575310D02*
D03*
X588010D02*
D03*
X600710D02*
D03*
X613410D02*
D03*
D46*
X512060Y431800D02*
D03*
X498860D02*
D03*
X512060Y382270D02*
D03*
X498860D02*
D03*
X513330Y406400D02*
D03*
X500130D02*
D03*
D47*
X322890Y466090D02*
D03*
Y453390D02*
D03*
Y440690D02*
D03*
Y427990D02*
D03*
Y415290D02*
D03*
Y402590D02*
D03*
Y389890D02*
D03*
Y377190D02*
D03*
X266390Y466090D02*
D03*
Y453390D02*
D03*
Y440690D02*
D03*
Y427990D02*
D03*
Y415290D02*
D03*
Y402590D02*
D03*
Y389890D02*
D03*
Y377190D02*
D03*
D48*
X476010Y478790D02*
D03*
X461010D02*
D03*
X497840D02*
D03*
X512840D02*
D03*
X497960Y454660D02*
D03*
X512960D02*
D03*
X461130D02*
D03*
X476130D02*
D03*
X461130Y430530D02*
D03*
X476130D02*
D03*
X461130Y406400D02*
D03*
X476130D02*
D03*
X461130Y382270D02*
D03*
X476130D02*
D03*
X496690Y358140D02*
D03*
X511690D02*
D03*
X461130D02*
D03*
X476130D02*
D03*
D49*
X285380Y486410D02*
D03*
X270880D02*
D03*
D50*
X599530Y480530D02*
D03*
Y460530D02*
D03*
Y440530D02*
D03*
Y420530D02*
D03*
Y400530D02*
D03*
Y380530D02*
D03*
D51*
X754530Y505530D02*
D03*
X734530D02*
D03*
X714530D02*
D03*
X694530D02*
D03*
X674530D02*
D03*
X654530D02*
D03*
X634530D02*
D03*
X614530D02*
D03*
Y355530D02*
D03*
X634530D02*
D03*
X654530D02*
D03*
X674530D02*
D03*
X694530D02*
D03*
X714530D02*
D03*
X734530D02*
D03*
X754530D02*
D03*
D52*
X394970Y406160D02*
D03*
Y391160D02*
D03*
Y425570D02*
D03*
Y440570D02*
D03*
M02*
