G04*
G04 #@! TF.GenerationSoftware,Altium Limited,Altium Designer,22.10.1 (41)*
G04*
G04 Layer_Color=255*
%FSLAX44Y44*%
%MOMM*%
G71*
G04*
G04 #@! TF.SameCoordinates,A19658FD-F5F6-4820-ADF5-99B624B81DD5*
G04*
G04*
G04 #@! TF.FilePolarity,Positive*
G04*
G01*
G75*
%ADD15R,5.5000X2.0000*%
%ADD16R,1.2500X1.4500*%
%ADD17R,0.8065X1.3082*%
%ADD18R,1.4500X1.2500*%
%ADD19R,1.2500X1.1000*%
%ADD20R,0.6080X2.2044*%
G04:AMPARAMS|DCode=21|XSize=2.2044mm|YSize=0.608mm|CornerRadius=0.304mm|HoleSize=0mm|Usage=FLASHONLY|Rotation=270.000|XOffset=0mm|YOffset=0mm|HoleType=Round|Shape=RoundedRectangle|*
%AMROUNDEDRECTD21*
21,1,2.2044,0.0000,0,0,270.0*
21,1,1.5965,0.6080,0,0,270.0*
1,1,0.6080,0.0000,-0.7982*
1,1,0.6080,0.0000,0.7982*
1,1,0.6080,0.0000,0.7982*
1,1,0.6080,0.0000,-0.7982*
%
%ADD21ROUNDEDRECTD21*%
G04:AMPARAMS|DCode=22|XSize=1.9mm|YSize=0.6mm|CornerRadius=0.3mm|HoleSize=0mm|Usage=FLASHONLY|Rotation=270.000|XOffset=0mm|YOffset=0mm|HoleType=Round|Shape=RoundedRectangle|*
%AMROUNDEDRECTD22*
21,1,1.9000,0.0000,0,0,270.0*
21,1,1.3000,0.6000,0,0,270.0*
1,1,0.6000,0.0000,-0.6500*
1,1,0.6000,0.0000,0.6500*
1,1,0.6000,0.0000,0.6500*
1,1,0.6000,0.0000,-0.6500*
%
%ADD22ROUNDEDRECTD22*%
%ADD29R,1.5700X1.5700*%
%ADD30C,1.5700*%
%ADD35C,1.6650*%
%ADD36R,1.2430X1.2430*%
%ADD37C,1.2430*%
D15*
X74420Y756920D02*
D03*
X169420D02*
D03*
D16*
X59050Y482600D02*
D03*
X42550D02*
D03*
Y457200D02*
D03*
X59050D02*
D03*
D17*
X71120Y426720D02*
D03*
X54103D02*
D03*
X37211Y533400D02*
D03*
X54229D02*
D03*
X143891Y548640D02*
D03*
X160909D02*
D03*
D18*
X127000Y521330D02*
D03*
Y504830D02*
D03*
X152400Y521330D02*
D03*
Y504830D02*
D03*
X213360Y723270D02*
D03*
Y739770D02*
D03*
X20320Y723270D02*
D03*
Y739770D02*
D03*
D19*
X79690Y533400D02*
D03*
X103190D02*
D03*
D20*
X156210Y472549D02*
D03*
D21*
X143510D02*
D03*
X130810D02*
D03*
X118110D02*
D03*
Y421531D02*
D03*
X130810D02*
D03*
X143510D02*
D03*
X156210D02*
D03*
D22*
X172720Y682000D02*
D03*
X160020D02*
D03*
X147320D02*
D03*
X134620D02*
D03*
X121920D02*
D03*
X109220D02*
D03*
X96520D02*
D03*
X83820D02*
D03*
X71120D02*
D03*
Y588000D02*
D03*
X83820D02*
D03*
X96520D02*
D03*
X109220D02*
D03*
X121920D02*
D03*
X134620D02*
D03*
X147320D02*
D03*
X160020D02*
D03*
X172720D02*
D03*
D29*
X63500Y386080D02*
D03*
X474980Y767080D02*
D03*
X389890D02*
D03*
D30*
X88900Y386080D02*
D03*
X500380Y767080D02*
D03*
X415290D02*
D03*
D35*
X829310Y283210D02*
D03*
X803910Y130810D02*
D03*
X473710D02*
D03*
X803910Y156210D02*
D03*
Y283210D02*
D03*
X829310Y130810D02*
D03*
X778510D02*
D03*
X765810Y252710D02*
D03*
X740410D02*
D03*
X715010D02*
D03*
X689610D02*
D03*
X664210D02*
D03*
X372110Y156210D02*
D03*
Y181610D02*
D03*
Y207010D02*
D03*
Y232410D02*
D03*
Y257810D02*
D03*
X473710Y283210D02*
D03*
X448310Y130810D02*
D03*
X422910D02*
D03*
X397510D02*
D03*
X372110D02*
D03*
X346710D02*
D03*
X321310D02*
D03*
X295910D02*
D03*
X270510D02*
D03*
X245110D02*
D03*
Y283210D02*
D03*
X270510D02*
D03*
X295910D02*
D03*
X321310D02*
D03*
X346710D02*
D03*
X372110D02*
D03*
X397510D02*
D03*
X422910D02*
D03*
X448310D02*
D03*
X753110Y130810D02*
D03*
X727710D02*
D03*
X702310D02*
D03*
X676910D02*
D03*
X651510D02*
D03*
X626110D02*
D03*
X600710D02*
D03*
X575310D02*
D03*
X549910D02*
D03*
X524510D02*
D03*
X499110D02*
D03*
Y283210D02*
D03*
X524510D02*
D03*
X549910D02*
D03*
X575310D02*
D03*
X600710D02*
D03*
X626110D02*
D03*
X651510D02*
D03*
X676910D02*
D03*
X702310D02*
D03*
X727710D02*
D03*
X753110D02*
D03*
X778510D02*
D03*
X295910Y574040D02*
D03*
X321310D02*
D03*
X346710D02*
D03*
X372110D02*
D03*
X397510D02*
D03*
X422910D02*
D03*
X448310D02*
D03*
X473710D02*
D03*
X499110D02*
D03*
X524510D02*
D03*
X549910D02*
D03*
X575310D02*
D03*
Y726440D02*
D03*
X549910D02*
D03*
X524510D02*
D03*
X499110D02*
D03*
X473710D02*
D03*
X448310D02*
D03*
X422910D02*
D03*
X397510D02*
D03*
X372110D02*
D03*
X346710D02*
D03*
X321310D02*
D03*
X626110Y574040D02*
D03*
X651510D02*
D03*
X676910D02*
D03*
X702310D02*
D03*
X727710D02*
D03*
X753110D02*
D03*
X778510D02*
D03*
X803910D02*
D03*
X829310D02*
D03*
Y726440D02*
D03*
X803910D02*
D03*
X778510D02*
D03*
X753110D02*
D03*
X727710D02*
D03*
X702310D02*
D03*
X676910D02*
D03*
X651510D02*
D03*
X626110D02*
D03*
X600710Y574040D02*
D03*
X702310Y599440D02*
D03*
Y624840D02*
D03*
Y650240D02*
D03*
Y675640D02*
D03*
Y701040D02*
D03*
X410210Y604540D02*
D03*
X384810D02*
D03*
X359410D02*
D03*
X334010D02*
D03*
X308610D02*
D03*
X295910Y726440D02*
D03*
X245110D02*
D03*
X270510Y574040D02*
D03*
Y701040D02*
D03*
X600710Y726440D02*
D03*
X270510D02*
D03*
X245110Y574040D02*
D03*
D36*
X142700Y122000D02*
D03*
D37*
Y142000D02*
D03*
Y162000D02*
D03*
Y182000D02*
D03*
Y202000D02*
D03*
Y222000D02*
D03*
Y242000D02*
D03*
Y262000D02*
D03*
Y282000D02*
D03*
Y302000D02*
D03*
Y322000D02*
D03*
Y342000D02*
D03*
X122700Y122000D02*
D03*
Y142000D02*
D03*
Y162000D02*
D03*
Y182000D02*
D03*
Y202000D02*
D03*
Y222000D02*
D03*
Y242000D02*
D03*
Y262000D02*
D03*
Y282000D02*
D03*
Y302000D02*
D03*
Y322000D02*
D03*
Y342000D02*
D03*
X102700Y122000D02*
D03*
Y142000D02*
D03*
Y162000D02*
D03*
Y182000D02*
D03*
Y202000D02*
D03*
Y222000D02*
D03*
Y242000D02*
D03*
Y262000D02*
D03*
Y282000D02*
D03*
Y302000D02*
D03*
Y322000D02*
D03*
Y342000D02*
D03*
X82700Y122000D02*
D03*
Y142000D02*
D03*
Y162000D02*
D03*
Y182000D02*
D03*
Y202000D02*
D03*
Y222000D02*
D03*
Y242000D02*
D03*
Y262000D02*
D03*
Y282000D02*
D03*
Y302000D02*
D03*
Y322000D02*
D03*
Y342000D02*
D03*
X62700Y122000D02*
D03*
Y142000D02*
D03*
Y162000D02*
D03*
Y182000D02*
D03*
Y202000D02*
D03*
Y222000D02*
D03*
Y242000D02*
D03*
Y262000D02*
D03*
Y282000D02*
D03*
Y302000D02*
D03*
Y322000D02*
D03*
Y342000D02*
D03*
M02*
