G04*
G04 #@! TF.GenerationSoftware,Altium Limited,Altium Designer,22.10.1 (41)*
G04*
G04 Layer_Color=16711935*
%FSLAX44Y44*%
%MOMM*%
G71*
G04*
G04 #@! TF.SameCoordinates,A19658FD-F5F6-4820-ADF5-99B624B81DD5*
G04*
G04*
G04 #@! TF.FilePolarity,Positive*
G04*
G01*
G75*
%ADD10C,0.2000*%
G36*
X62612Y420320D02*
X59637D01*
X59561Y420327D01*
X59484D01*
X59394Y420334D01*
X59290Y420341D01*
X59082Y420361D01*
X58867Y420396D01*
X58659Y420438D01*
X58569Y420465D01*
X58479Y420493D01*
X58472D01*
X58458Y420500D01*
X58437Y420514D01*
X58403Y420528D01*
X58319Y420569D01*
X58222Y420632D01*
X58104Y420715D01*
X57986Y420826D01*
X57869Y420951D01*
X57765Y421103D01*
Y421110D01*
X57751Y421124D01*
X57737Y421145D01*
X57723Y421180D01*
X57702Y421221D01*
X57681Y421270D01*
X57654Y421325D01*
X57626Y421388D01*
X57577Y421533D01*
X57536Y421693D01*
X57508Y421873D01*
X57494Y422067D01*
Y422074D01*
Y422095D01*
Y422137D01*
X57501Y422178D01*
X57508Y422241D01*
X57515Y422310D01*
X57529Y422386D01*
X57550Y422469D01*
X57605Y422650D01*
X57640Y422747D01*
X57681Y422844D01*
X57730Y422941D01*
X57792Y423038D01*
X57862Y423128D01*
X57938Y423218D01*
X57945Y423225D01*
X57959Y423239D01*
X57986Y423260D01*
X58021Y423295D01*
X58070Y423329D01*
X58125Y423371D01*
X58194Y423419D01*
X58278Y423468D01*
X58368Y423517D01*
X58465Y423565D01*
X58576Y423614D01*
X58701Y423662D01*
X58833Y423704D01*
X58978Y423745D01*
X59138Y423780D01*
X59304Y423808D01*
X59297D01*
X59290Y423815D01*
X59248Y423835D01*
X59186Y423870D01*
X59110Y423912D01*
X59027Y423960D01*
X58943Y424009D01*
X58860Y424071D01*
X58791Y424127D01*
X58784Y424134D01*
X58777Y424141D01*
X58756Y424161D01*
X58728Y424189D01*
X58694Y424224D01*
X58652Y424265D01*
X58562Y424362D01*
X58458Y424487D01*
X58340Y424633D01*
X58215Y424799D01*
X58091Y424980D01*
X56981Y426720D01*
X58042D01*
X58888Y425389D01*
X58895Y425382D01*
X58902Y425361D01*
X58923Y425333D01*
X58950Y425292D01*
X58978Y425243D01*
X59020Y425188D01*
X59103Y425063D01*
X59200Y424917D01*
X59297Y424772D01*
X59401Y424633D01*
X59498Y424508D01*
Y424501D01*
X59512Y424494D01*
X59540Y424459D01*
X59581Y424404D01*
X59644Y424342D01*
X59706Y424272D01*
X59783Y424203D01*
X59859Y424134D01*
X59928Y424085D01*
X59935Y424078D01*
X59963Y424064D01*
X59997Y424044D01*
X60046Y424016D01*
X60108Y423988D01*
X60171Y423960D01*
X60240Y423932D01*
X60316Y423912D01*
X60323D01*
X60344Y423905D01*
X60379Y423898D01*
X60427Y423891D01*
X60497D01*
X60580Y423884D01*
X60677Y423877D01*
X61766D01*
Y426720D01*
X62612D01*
Y420320D01*
D02*
G37*
G36*
X50567Y426713D02*
Y426685D01*
Y426644D01*
X50560Y426588D01*
X50553Y426512D01*
X50546Y426429D01*
X50539Y426325D01*
X50525Y426214D01*
X50511Y426082D01*
X50491Y425950D01*
X50470Y425798D01*
X50442Y425638D01*
X50407Y425465D01*
X50373Y425285D01*
X50324Y425098D01*
X50276Y424903D01*
X50269Y424889D01*
X50262Y424855D01*
X50248Y424799D01*
X50220Y424723D01*
X50192Y424626D01*
X50158Y424508D01*
X50116Y424383D01*
X50068Y424245D01*
X50012Y424092D01*
X49950Y423926D01*
X49887Y423752D01*
X49811Y423579D01*
X49652Y423211D01*
X49464Y422837D01*
X49458Y422823D01*
X49437Y422795D01*
X49409Y422740D01*
X49374Y422671D01*
X49319Y422587D01*
X49263Y422490D01*
X49194Y422379D01*
X49125Y422254D01*
X49041Y422130D01*
X48951Y421991D01*
X48757Y421714D01*
X48549Y421429D01*
X48438Y421291D01*
X48327Y421159D01*
X51461D01*
Y420403D01*
X47322D01*
Y421020D01*
X47329Y421027D01*
X47350Y421048D01*
X47384Y421090D01*
X47426Y421138D01*
X47481Y421207D01*
X47551Y421284D01*
X47620Y421374D01*
X47703Y421478D01*
X47793Y421596D01*
X47890Y421727D01*
X47994Y421873D01*
X48098Y422026D01*
X48202Y422185D01*
X48313Y422365D01*
X48431Y422553D01*
X48542Y422747D01*
X48549Y422761D01*
X48570Y422795D01*
X48598Y422851D01*
X48639Y422934D01*
X48688Y423031D01*
X48750Y423149D01*
X48813Y423281D01*
X48882Y423426D01*
X48951Y423586D01*
X49028Y423759D01*
X49104Y423946D01*
X49180Y424134D01*
X49256Y424335D01*
X49333Y424543D01*
X49464Y424966D01*
Y424973D01*
X49471Y425000D01*
X49485Y425049D01*
X49499Y425104D01*
X49520Y425181D01*
X49541Y425271D01*
X49568Y425375D01*
X49589Y425486D01*
X49617Y425611D01*
X49638Y425749D01*
X49665Y425895D01*
X49686Y426048D01*
X49714Y426207D01*
X49735Y426373D01*
X49763Y426720D01*
X50567D01*
Y426713D01*
D02*
G37*
G36*
X54311Y421721D02*
X54325Y421734D01*
X54360Y421769D01*
X54422Y421818D01*
X54513Y421887D01*
X54616Y421970D01*
X54748Y422060D01*
X54894Y422157D01*
X55060Y422261D01*
X55067D01*
X55081Y422275D01*
X55102Y422289D01*
X55137Y422303D01*
X55178Y422331D01*
X55227Y422351D01*
X55338Y422414D01*
X55462Y422476D01*
X55601Y422546D01*
X55747Y422608D01*
X55886Y422664D01*
Y421908D01*
X55879Y421901D01*
X55858Y421894D01*
X55823Y421873D01*
X55774Y421852D01*
X55719Y421824D01*
X55650Y421783D01*
X55573Y421741D01*
X55497Y421700D01*
X55317Y421589D01*
X55123Y421457D01*
X54922Y421318D01*
X54734Y421159D01*
X54727Y421152D01*
X54714Y421138D01*
X54686Y421117D01*
X54651Y421083D01*
X54616Y421041D01*
X54568Y420999D01*
X54464Y420882D01*
X54346Y420757D01*
X54228Y420611D01*
X54124Y420458D01*
X54034Y420299D01*
X53528D01*
Y426720D01*
X54311D01*
Y421721D01*
D02*
G37*
G36*
X58930Y539918D02*
X58985D01*
X59047Y539904D01*
X59124Y539897D01*
X59200Y539883D01*
X59380Y539842D01*
X59567Y539779D01*
X59665Y539745D01*
X59769Y539696D01*
X59866Y539648D01*
X59963Y539585D01*
X59970Y539578D01*
X59984Y539571D01*
X60011Y539551D01*
X60046Y539523D01*
X60094Y539488D01*
X60143Y539446D01*
X60198Y539398D01*
X60254Y539342D01*
X60316Y539280D01*
X60386Y539204D01*
X60448Y539128D01*
X60518Y539044D01*
X60580Y538947D01*
X60642Y538850D01*
X60698Y538739D01*
X60753Y538628D01*
Y538621D01*
X60767Y538601D01*
X60781Y538566D01*
X60795Y538510D01*
X60816Y538448D01*
X60836Y538372D01*
X60864Y538282D01*
X60892Y538171D01*
X60913Y538053D01*
X60940Y537921D01*
X60961Y537768D01*
X60982Y537609D01*
X60996Y537436D01*
X61010Y537248D01*
X61024Y537047D01*
Y536832D01*
Y536818D01*
Y536777D01*
Y536714D01*
X61017Y536631D01*
Y536527D01*
X61010Y536402D01*
X61003Y536271D01*
X60989Y536125D01*
X60975Y535973D01*
X60961Y535813D01*
X60913Y535487D01*
X60843Y535168D01*
X60802Y535023D01*
X60753Y534877D01*
Y534870D01*
X60739Y534842D01*
X60725Y534808D01*
X60705Y534759D01*
X60677Y534697D01*
X60642Y534627D01*
X60601Y534551D01*
X60559Y534468D01*
X60448Y534294D01*
X60309Y534107D01*
X60150Y533934D01*
X60060Y533851D01*
X59963Y533774D01*
X59956Y533767D01*
X59942Y533760D01*
X59907Y533740D01*
X59873Y533719D01*
X59817Y533691D01*
X59762Y533656D01*
X59692Y533622D01*
X59609Y533587D01*
X59526Y533552D01*
X59429Y533518D01*
X59332Y533490D01*
X59221Y533455D01*
X58985Y533414D01*
X58860Y533407D01*
X58728Y533400D01*
X58659D01*
X58604Y533407D01*
X58541Y533414D01*
X58465Y533421D01*
X58382Y533434D01*
X58292Y533455D01*
X58097Y533504D01*
X58000Y533539D01*
X57896Y533573D01*
X57792Y533622D01*
X57688Y533677D01*
X57591Y533740D01*
X57501Y533816D01*
X57494Y533823D01*
X57480Y533837D01*
X57460Y533857D01*
X57425Y533892D01*
X57390Y533934D01*
X57348Y533989D01*
X57300Y534052D01*
X57251Y534121D01*
X57203Y534197D01*
X57154Y534287D01*
X57113Y534384D01*
X57064Y534488D01*
X57023Y534599D01*
X56988Y534717D01*
X56960Y534849D01*
X56939Y534988D01*
X57695Y535050D01*
Y535043D01*
X57702Y535029D01*
Y535002D01*
X57716Y534960D01*
X57723Y534919D01*
X57737Y534870D01*
X57772Y534752D01*
X57820Y534627D01*
X57882Y534502D01*
X57966Y534384D01*
X58007Y534329D01*
X58056Y534281D01*
X58070Y534274D01*
X58104Y534246D01*
X58167Y534204D01*
X58243Y534163D01*
X58347Y534121D01*
X58465Y534079D01*
X58597Y534052D01*
X58749Y534045D01*
X58812D01*
X58881Y534052D01*
X58964Y534066D01*
X59061Y534086D01*
X59165Y534114D01*
X59276Y534149D01*
X59380Y534204D01*
X59394Y534211D01*
X59429Y534232D01*
X59477Y534274D01*
X59540Y534322D01*
X59609Y534384D01*
X59685Y534461D01*
X59762Y534551D01*
X59831Y534648D01*
X59838Y534662D01*
X59859Y534697D01*
X59893Y534759D01*
X59935Y534849D01*
X59977Y534953D01*
X60025Y535078D01*
X60074Y535230D01*
X60122Y535397D01*
Y535404D01*
X60129Y535418D01*
X60136Y535446D01*
X60143Y535480D01*
X60150Y535522D01*
X60157Y535570D01*
X60171Y535633D01*
X60185Y535695D01*
X60205Y535841D01*
X60219Y536000D01*
X60233Y536174D01*
X60240Y536354D01*
Y536368D01*
Y536395D01*
Y536444D01*
Y536506D01*
X60226Y536499D01*
X60219Y536479D01*
X60198Y536451D01*
X60143Y536382D01*
X60074Y536298D01*
X59977Y536201D01*
X59866Y536097D01*
X59741Y536000D01*
X59595Y535903D01*
X59588D01*
X59574Y535896D01*
X59554Y535882D01*
X59526Y535868D01*
X59484Y535848D01*
X59443Y535834D01*
X59332Y535792D01*
X59200Y535744D01*
X59047Y535709D01*
X58881Y535681D01*
X58708Y535674D01*
X58673D01*
X58631Y535681D01*
X58576D01*
X58506Y535695D01*
X58430Y535702D01*
X58340Y535723D01*
X58243Y535744D01*
X58139Y535778D01*
X58035Y535813D01*
X57924Y535862D01*
X57813Y535917D01*
X57695Y535979D01*
X57584Y536056D01*
X57473Y536146D01*
X57369Y536243D01*
X57362Y536250D01*
X57348Y536271D01*
X57321Y536305D01*
X57286Y536347D01*
X57245Y536402D01*
X57196Y536472D01*
X57147Y536555D01*
X57099Y536652D01*
X57043Y536749D01*
X56995Y536867D01*
X56946Y536992D01*
X56905Y537123D01*
X56870Y537269D01*
X56842Y537429D01*
X56828Y537588D01*
X56821Y537761D01*
Y537775D01*
Y537803D01*
X56828Y537859D01*
Y537921D01*
X56842Y538004D01*
X56849Y538101D01*
X56870Y538205D01*
X56891Y538323D01*
X56926Y538441D01*
X56960Y538573D01*
X57009Y538704D01*
X57064Y538829D01*
X57127Y538961D01*
X57203Y539093D01*
X57293Y539211D01*
X57390Y539329D01*
X57397Y539336D01*
X57418Y539356D01*
X57453Y539384D01*
X57494Y539419D01*
X57550Y539467D01*
X57619Y539516D01*
X57695Y539571D01*
X57785Y539627D01*
X57882Y539682D01*
X57993Y539738D01*
X58111Y539786D01*
X58236Y539835D01*
X58375Y539869D01*
X58520Y539897D01*
X58666Y539918D01*
X58825Y539925D01*
X58888D01*
X58930Y539918D01*
D02*
G37*
G36*
X54804Y533504D02*
X54020D01*
Y538503D01*
X54006Y538490D01*
X53972Y538455D01*
X53909Y538406D01*
X53819Y538337D01*
X53715Y538254D01*
X53583Y538164D01*
X53438Y538067D01*
X53271Y537963D01*
X53264D01*
X53250Y537949D01*
X53230Y537935D01*
X53195Y537921D01*
X53153Y537893D01*
X53105Y537872D01*
X52994Y537810D01*
X52869Y537748D01*
X52730Y537678D01*
X52585Y537616D01*
X52446Y537560D01*
Y538316D01*
X52453Y538323D01*
X52474Y538330D01*
X52509Y538351D01*
X52557Y538372D01*
X52613Y538399D01*
X52682Y538441D01*
X52758Y538483D01*
X52834Y538524D01*
X53015Y538635D01*
X53209Y538767D01*
X53410Y538906D01*
X53597Y539065D01*
X53604Y539072D01*
X53618Y539086D01*
X53646Y539107D01*
X53680Y539141D01*
X53715Y539183D01*
X53763Y539225D01*
X53868Y539342D01*
X53985Y539467D01*
X54103Y539613D01*
X54207Y539766D01*
X54297Y539925D01*
X54804D01*
Y533504D01*
D02*
G37*
G36*
X48771Y539897D02*
X48847D01*
X48937Y539890D01*
X49041Y539883D01*
X49249Y539863D01*
X49464Y539828D01*
X49672Y539786D01*
X49763Y539758D01*
X49853Y539731D01*
X49860D01*
X49873Y539724D01*
X49894Y539710D01*
X49929Y539696D01*
X50012Y539655D01*
X50109Y539592D01*
X50227Y539509D01*
X50345Y539398D01*
X50463Y539273D01*
X50567Y539121D01*
Y539114D01*
X50581Y539100D01*
X50595Y539079D01*
X50609Y539044D01*
X50629Y539003D01*
X50650Y538954D01*
X50678Y538899D01*
X50706Y538836D01*
X50754Y538691D01*
X50796Y538531D01*
X50823Y538351D01*
X50837Y538157D01*
Y538150D01*
Y538129D01*
Y538087D01*
X50830Y538046D01*
X50823Y537983D01*
X50816Y537914D01*
X50803Y537838D01*
X50782Y537755D01*
X50726Y537574D01*
X50692Y537477D01*
X50650Y537380D01*
X50602Y537283D01*
X50539Y537186D01*
X50470Y537096D01*
X50394Y537006D01*
X50387Y536999D01*
X50373Y536985D01*
X50345Y536964D01*
X50310Y536929D01*
X50262Y536895D01*
X50206Y536853D01*
X50137Y536805D01*
X50054Y536756D01*
X49964Y536707D01*
X49866Y536659D01*
X49756Y536610D01*
X49631Y536562D01*
X49499Y536520D01*
X49353Y536479D01*
X49194Y536444D01*
X49028Y536416D01*
X49034D01*
X49041Y536409D01*
X49083Y536389D01*
X49145Y536354D01*
X49222Y536312D01*
X49305Y536264D01*
X49388Y536215D01*
X49471Y536153D01*
X49541Y536097D01*
X49548Y536090D01*
X49555Y536083D01*
X49575Y536063D01*
X49603Y536035D01*
X49638Y536000D01*
X49679Y535959D01*
X49769Y535862D01*
X49873Y535737D01*
X49991Y535591D01*
X50116Y535425D01*
X50241Y535244D01*
X51350Y533504D01*
X50290D01*
X49443Y534835D01*
X49437Y534842D01*
X49430Y534863D01*
X49409Y534891D01*
X49381Y534932D01*
X49353Y534981D01*
X49312Y535036D01*
X49229Y535161D01*
X49131Y535307D01*
X49034Y535452D01*
X48930Y535591D01*
X48833Y535716D01*
Y535723D01*
X48819Y535730D01*
X48792Y535764D01*
X48750Y535820D01*
X48688Y535882D01*
X48625Y535952D01*
X48549Y536021D01*
X48473Y536090D01*
X48403Y536139D01*
X48397Y536146D01*
X48369Y536160D01*
X48334Y536180D01*
X48285Y536208D01*
X48223Y536236D01*
X48161Y536264D01*
X48091Y536291D01*
X48015Y536312D01*
X48008D01*
X47987Y536319D01*
X47953Y536326D01*
X47904Y536333D01*
X47835D01*
X47752Y536340D01*
X47655Y536347D01*
X46566D01*
Y533504D01*
X45720D01*
Y539904D01*
X48695D01*
X48771Y539897D01*
D02*
G37*
G36*
X93895Y537911D02*
X93978D01*
X94061Y537904D01*
X94248Y537897D01*
X94436Y537876D01*
X94623Y537855D01*
X94706Y537835D01*
X94782Y537821D01*
X94789D01*
X94810Y537814D01*
X94838Y537807D01*
X94872Y537793D01*
X94921Y537779D01*
X94976Y537765D01*
X95108Y537717D01*
X95254Y537654D01*
X95406Y537578D01*
X95566Y537481D01*
X95718Y537363D01*
X95725Y537356D01*
X95739Y537342D01*
X95767Y537322D01*
X95802Y537287D01*
X95843Y537245D01*
X95892Y537190D01*
X95947Y537134D01*
X96003Y537065D01*
X96065Y536989D01*
X96128Y536905D01*
X96190Y536815D01*
X96252Y536718D01*
X96370Y536503D01*
X96474Y536268D01*
Y536260D01*
X96488Y536240D01*
X96495Y536198D01*
X96516Y536150D01*
X96537Y536087D01*
X96557Y536011D01*
X96578Y535928D01*
X96606Y535831D01*
X96627Y535720D01*
X96648Y535602D01*
X96668Y535477D01*
X96689Y535345D01*
X96710Y535206D01*
X96717Y535061D01*
X96731Y534749D01*
Y534742D01*
Y534714D01*
Y534680D01*
Y534624D01*
X96724Y534562D01*
Y534485D01*
X96717Y534402D01*
X96710Y534312D01*
X96689Y534111D01*
X96655Y533896D01*
X96613Y533674D01*
X96557Y533452D01*
Y533445D01*
X96551Y533424D01*
X96537Y533397D01*
X96530Y533362D01*
X96509Y533313D01*
X96488Y533258D01*
X96440Y533126D01*
X96377Y532981D01*
X96301Y532821D01*
X96218Y532669D01*
X96121Y532523D01*
Y532516D01*
X96107Y532509D01*
X96093Y532488D01*
X96072Y532461D01*
X96024Y532398D01*
X95947Y532315D01*
X95864Y532218D01*
X95767Y532121D01*
X95656Y532031D01*
X95538Y531940D01*
X95531D01*
X95524Y531934D01*
X95483Y531906D01*
X95413Y531871D01*
X95323Y531823D01*
X95212Y531774D01*
X95080Y531719D01*
X94928Y531670D01*
X94768Y531622D01*
X94761D01*
X94748Y531615D01*
X94727D01*
X94692Y531608D01*
X94650Y531601D01*
X94595Y531587D01*
X94540Y531580D01*
X94477Y531573D01*
X94325Y531552D01*
X94151Y531531D01*
X93957Y531525D01*
X93749Y531518D01*
X91440D01*
Y537918D01*
X93825D01*
X93895Y537911D01*
D02*
G37*
G36*
X79722Y388223D02*
Y388216D01*
Y388188D01*
Y388146D01*
Y388091D01*
X79715Y388021D01*
Y387945D01*
X79709Y387855D01*
X79695Y387765D01*
X79674Y387564D01*
X79639Y387356D01*
X79591Y387155D01*
X79556Y387065D01*
X79521Y386974D01*
Y386968D01*
X79514Y386954D01*
X79501Y386933D01*
X79487Y386905D01*
X79438Y386822D01*
X79369Y386725D01*
X79286Y386621D01*
X79182Y386510D01*
X79050Y386406D01*
X78904Y386309D01*
X78897D01*
X78883Y386302D01*
X78863Y386288D01*
X78828Y386274D01*
X78793Y386253D01*
X78745Y386239D01*
X78689Y386219D01*
X78627Y386198D01*
X78481Y386149D01*
X78315Y386115D01*
X78128Y386087D01*
X77920Y386080D01*
X77836D01*
X77781Y386087D01*
X77712Y386094D01*
X77628Y386108D01*
X77538Y386121D01*
X77441Y386142D01*
X77337Y386163D01*
X77233Y386198D01*
X77122Y386232D01*
X77018Y386281D01*
X76907Y386336D01*
X76810Y386399D01*
X76713Y386475D01*
X76623Y386558D01*
X76616Y386565D01*
X76602Y386579D01*
X76581Y386607D01*
X76554Y386648D01*
X76519Y386697D01*
X76484Y386759D01*
X76443Y386836D01*
X76401Y386919D01*
X76366Y387016D01*
X76325Y387120D01*
X76290Y387238D01*
X76255Y387370D01*
X76234Y387508D01*
X76214Y387661D01*
X76200Y387820D01*
Y387994D01*
X76963Y388105D01*
Y388098D01*
Y388070D01*
X76970Y388035D01*
Y387987D01*
X76976Y387924D01*
X76983Y387855D01*
X77004Y387702D01*
X77039Y387536D01*
X77087Y387370D01*
X77115Y387293D01*
X77150Y387217D01*
X77192Y387155D01*
X77233Y387099D01*
X77247Y387085D01*
X77282Y387058D01*
X77337Y387016D01*
X77413Y386968D01*
X77510Y386919D01*
X77628Y386877D01*
X77760Y386850D01*
X77913Y386836D01*
X77968D01*
X78024Y386843D01*
X78100Y386856D01*
X78190Y386870D01*
X78280Y386898D01*
X78370Y386933D01*
X78460Y386981D01*
X78474Y386988D01*
X78502Y387009D01*
X78537Y387044D01*
X78592Y387085D01*
X78641Y387141D01*
X78696Y387210D01*
X78745Y387286D01*
X78786Y387377D01*
X78793Y387390D01*
X78800Y387425D01*
X78814Y387487D01*
X78835Y387571D01*
X78849Y387682D01*
X78863Y387820D01*
X78870Y387980D01*
X78877Y388077D01*
Y388174D01*
Y392584D01*
X79722D01*
Y388223D01*
D02*
G37*
G36*
X83058Y392598D02*
X83134Y392591D01*
X83224Y392577D01*
X83328Y392563D01*
X83432Y392542D01*
X83550Y392515D01*
X83668Y392480D01*
X83793Y392439D01*
X83911Y392390D01*
X84036Y392328D01*
X84153Y392258D01*
X84264Y392182D01*
X84368Y392092D01*
X84375Y392085D01*
X84389Y392071D01*
X84417Y392036D01*
X84452Y392002D01*
X84493Y391953D01*
X84542Y391891D01*
X84590Y391821D01*
X84639Y391738D01*
X84687Y391655D01*
X84736Y391558D01*
X84784Y391454D01*
X84826Y391343D01*
X84861Y391218D01*
X84888Y391093D01*
X84902Y390961D01*
X84909Y390823D01*
Y390816D01*
Y390809D01*
Y390788D01*
Y390760D01*
X84902Y390684D01*
X84888Y390587D01*
X84868Y390469D01*
X84840Y390344D01*
X84805Y390206D01*
X84750Y390067D01*
Y390060D01*
X84743Y390053D01*
X84736Y390032D01*
X84722Y390005D01*
X84680Y389928D01*
X84625Y389831D01*
X84549Y389713D01*
X84459Y389582D01*
X84354Y389443D01*
X84223Y389290D01*
X84216Y389283D01*
X84209Y389270D01*
X84181Y389249D01*
X84153Y389214D01*
X84112Y389173D01*
X84063Y389124D01*
X84008Y389062D01*
X83938Y388999D01*
X83855Y388923D01*
X83765Y388840D01*
X83668Y388743D01*
X83557Y388646D01*
X83439Y388535D01*
X83307Y388424D01*
X83162Y388299D01*
X83009Y388167D01*
X83002Y388160D01*
X82982Y388139D01*
X82940Y388112D01*
X82898Y388070D01*
X82836Y388021D01*
X82774Y387966D01*
X82628Y387841D01*
X82475Y387709D01*
X82330Y387571D01*
X82260Y387508D01*
X82198Y387453D01*
X82142Y387397D01*
X82101Y387356D01*
X82094Y387349D01*
X82066Y387321D01*
X82031Y387280D01*
X81983Y387224D01*
X81927Y387162D01*
X81872Y387092D01*
X81761Y386940D01*
X84916D01*
Y386184D01*
X80679D01*
Y386198D01*
Y386232D01*
Y386288D01*
X80686Y386357D01*
X80693Y386441D01*
X80714Y386531D01*
X80735Y386628D01*
X80770Y386725D01*
Y386732D01*
X80776Y386746D01*
X80783Y386766D01*
X80797Y386801D01*
X80818Y386836D01*
X80839Y386884D01*
X80894Y386995D01*
X80964Y387127D01*
X81054Y387273D01*
X81158Y387425D01*
X81283Y387578D01*
X81290Y387585D01*
X81297Y387598D01*
X81317Y387619D01*
X81352Y387654D01*
X81387Y387689D01*
X81435Y387737D01*
X81484Y387793D01*
X81546Y387855D01*
X81615Y387924D01*
X81692Y387994D01*
X81775Y388077D01*
X81872Y388160D01*
X81969Y388250D01*
X82080Y388340D01*
X82191Y388438D01*
X82316Y388541D01*
X82330Y388548D01*
X82364Y388583D01*
X82413Y388625D01*
X82482Y388687D01*
X82565Y388756D01*
X82662Y388840D01*
X82774Y388930D01*
X82884Y389034D01*
X83120Y389249D01*
X83349Y389478D01*
X83460Y389589D01*
X83564Y389700D01*
X83654Y389804D01*
X83730Y389901D01*
X83737Y389908D01*
X83744Y389921D01*
X83765Y389949D01*
X83786Y389984D01*
X83821Y390032D01*
X83848Y390081D01*
X83918Y390206D01*
X83987Y390351D01*
X84049Y390511D01*
X84091Y390677D01*
X84098Y390760D01*
X84105Y390844D01*
Y390851D01*
Y390864D01*
Y390892D01*
X84098Y390920D01*
Y390961D01*
X84084Y391010D01*
X84063Y391114D01*
X84022Y391239D01*
X83959Y391371D01*
X83925Y391440D01*
X83876Y391502D01*
X83827Y391565D01*
X83765Y391627D01*
X83758Y391634D01*
X83751Y391641D01*
X83730Y391655D01*
X83703Y391676D01*
X83668Y391703D01*
X83626Y391731D01*
X83529Y391794D01*
X83398Y391849D01*
X83252Y391905D01*
X83079Y391939D01*
X82982Y391953D01*
X82829D01*
X82787Y391946D01*
X82739D01*
X82683Y391932D01*
X82558Y391912D01*
X82413Y391870D01*
X82260Y391808D01*
X82184Y391766D01*
X82108Y391724D01*
X82038Y391669D01*
X81969Y391606D01*
X81962Y391600D01*
X81955Y391593D01*
X81941Y391572D01*
X81914Y391544D01*
X81893Y391509D01*
X81865Y391468D01*
X81830Y391419D01*
X81803Y391364D01*
X81768Y391301D01*
X81740Y391232D01*
X81685Y391066D01*
X81643Y390885D01*
X81636Y390781D01*
X81629Y390670D01*
X80825Y390754D01*
Y390767D01*
X80832Y390795D01*
X80839Y390837D01*
X80846Y390899D01*
X80860Y390975D01*
X80880Y391066D01*
X80901Y391163D01*
X80936Y391267D01*
X80971Y391371D01*
X81012Y391488D01*
X81068Y391600D01*
X81123Y391710D01*
X81193Y391828D01*
X81269Y391932D01*
X81352Y392036D01*
X81449Y392127D01*
X81456Y392133D01*
X81477Y392147D01*
X81504Y392168D01*
X81546Y392203D01*
X81602Y392237D01*
X81671Y392279D01*
X81747Y392321D01*
X81837Y392369D01*
X81934Y392411D01*
X82045Y392452D01*
X82163Y392494D01*
X82295Y392529D01*
X82434Y392563D01*
X82579Y392584D01*
X82739Y392598D01*
X82905Y392605D01*
X82995D01*
X83058Y392598D01*
D02*
G37*
G36*
X143671Y446194D02*
X139975D01*
X139968D01*
X139941D01*
X139899D01*
X139837D01*
X139767Y446187D01*
X139691D01*
X139601Y446180D01*
X139511Y446173D01*
X139310Y446159D01*
X139108Y446132D01*
X138914Y446090D01*
X138824Y446069D01*
X138748Y446042D01*
X138741D01*
X138734Y446035D01*
X138713Y446028D01*
X138685Y446014D01*
X138609Y445972D01*
X138526Y445917D01*
X138422Y445847D01*
X138325Y445757D01*
X138228Y445646D01*
X138138Y445515D01*
Y445508D01*
X138131Y445494D01*
X138117Y445473D01*
X138103Y445445D01*
X138089Y445410D01*
X138075Y445362D01*
X138054Y445313D01*
X138034Y445258D01*
X137999Y445119D01*
X137964Y444960D01*
X137936Y444780D01*
X137930Y444585D01*
Y444495D01*
X137936Y444433D01*
X137943Y444356D01*
X137950Y444266D01*
X137964Y444169D01*
X137985Y444065D01*
X138034Y443850D01*
X138068Y443739D01*
X138110Y443628D01*
X138158Y443524D01*
X138214Y443427D01*
X138276Y443337D01*
X138353Y443254D01*
X138359Y443247D01*
X138373Y443233D01*
X138401Y443219D01*
X138436Y443192D01*
X138484Y443164D01*
X138547Y443129D01*
X138623Y443088D01*
X138713Y443053D01*
X138817Y443018D01*
X138935Y442977D01*
X139067Y442942D01*
X139212Y442914D01*
X139379Y442887D01*
X139559Y442866D01*
X139760Y442859D01*
X139975Y442852D01*
X143671D01*
Y442006D01*
X139975D01*
X139961D01*
X139934D01*
X139885D01*
X139816D01*
X139733Y442013D01*
X139642Y442020D01*
X139538Y442027D01*
X139420Y442034D01*
X139178Y442061D01*
X138921Y442096D01*
X138672Y442151D01*
X138554Y442186D01*
X138443Y442228D01*
X138436D01*
X138415Y442235D01*
X138387Y442248D01*
X138346Y442269D01*
X138297Y442297D01*
X138242Y442325D01*
X138117Y442408D01*
X138041Y442457D01*
X137971Y442512D01*
X137888Y442581D01*
X137812Y442651D01*
X137735Y442734D01*
X137659Y442817D01*
X137590Y442914D01*
X137521Y443018D01*
X137514Y443025D01*
X137507Y443046D01*
X137486Y443074D01*
X137465Y443122D01*
X137437Y443178D01*
X137409Y443247D01*
X137375Y443323D01*
X137347Y443420D01*
X137312Y443517D01*
X137278Y443628D01*
X137250Y443753D01*
X137222Y443885D01*
X137201Y444031D01*
X137181Y444183D01*
X137174Y444343D01*
X137167Y444509D01*
Y444599D01*
X137174Y444662D01*
Y444738D01*
X137181Y444821D01*
X137194Y444925D01*
X137208Y445029D01*
X137243Y445265D01*
X137299Y445515D01*
X137375Y445757D01*
X137416Y445875D01*
X137472Y445986D01*
X137479Y445993D01*
X137486Y446014D01*
X137507Y446042D01*
X137527Y446076D01*
X137562Y446125D01*
X137604Y446180D01*
X137645Y446236D01*
X137701Y446298D01*
X137826Y446437D01*
X137978Y446569D01*
X138158Y446693D01*
X138262Y446749D01*
X138366Y446797D01*
X138373D01*
X138394Y446804D01*
X138429Y446818D01*
X138477Y446832D01*
X138533Y446853D01*
X138609Y446874D01*
X138692Y446894D01*
X138789Y446915D01*
X138900Y446943D01*
X139018Y446964D01*
X139150Y446985D01*
X139296Y446998D01*
X139448Y447019D01*
X139615Y447026D01*
X139788Y447040D01*
X139975D01*
X143671D01*
Y446194D01*
D02*
G37*
G36*
X139067Y440127D02*
X139060D01*
X139039Y440120D01*
X139004Y440113D01*
X138956Y440099D01*
X138900Y440085D01*
X138838Y440071D01*
X138692Y440023D01*
X138533Y439960D01*
X138373Y439884D01*
X138228Y439787D01*
X138165Y439731D01*
X138103Y439676D01*
Y439669D01*
X138089Y439662D01*
X138075Y439641D01*
X138054Y439621D01*
X138013Y439551D01*
X137957Y439454D01*
X137902Y439336D01*
X137860Y439204D01*
X137826Y439045D01*
X137812Y438879D01*
Y438823D01*
X137819Y438781D01*
X137826Y438740D01*
X137832Y438677D01*
X137860Y438553D01*
X137902Y438400D01*
X137971Y438241D01*
X138020Y438164D01*
X138068Y438088D01*
X138124Y438012D01*
X138193Y437935D01*
X138200Y437929D01*
X138214Y437922D01*
X138235Y437901D01*
X138262Y437873D01*
X138297Y437845D01*
X138346Y437818D01*
X138394Y437783D01*
X138457Y437741D01*
X138595Y437672D01*
X138755Y437617D01*
X138942Y437568D01*
X139039Y437561D01*
X139143Y437554D01*
X139150D01*
X139164D01*
X139199D01*
X139233Y437561D01*
X139282Y437568D01*
X139330Y437575D01*
X139455Y437596D01*
X139601Y437644D01*
X139746Y437707D01*
X139823Y437748D01*
X139892Y437797D01*
X139961Y437852D01*
X140031Y437915D01*
X140038Y437922D01*
X140044Y437929D01*
X140065Y437949D01*
X140086Y437977D01*
X140114Y438012D01*
X140142Y438053D01*
X140211Y438157D01*
X140273Y438289D01*
X140329Y438442D01*
X140370Y438615D01*
X140377Y438712D01*
X140384Y438809D01*
Y438851D01*
X140377Y438899D01*
Y438962D01*
X140364Y439045D01*
X140350Y439135D01*
X140329Y439246D01*
X140301Y439364D01*
X140988Y439281D01*
Y439267D01*
X140981Y439232D01*
X140974Y439191D01*
Y439100D01*
X140981Y439066D01*
Y439017D01*
X140988Y438969D01*
X141008Y438851D01*
X141036Y438712D01*
X141085Y438559D01*
X141147Y438400D01*
X141237Y438247D01*
Y438241D01*
X141251Y438227D01*
X141265Y438213D01*
X141286Y438185D01*
X141348Y438116D01*
X141438Y438040D01*
X141549Y437970D01*
X141688Y437901D01*
X141764Y437873D01*
X141854Y437859D01*
X141945Y437845D01*
X142042Y437838D01*
X142049D01*
X142062D01*
X142083D01*
X142118Y437845D01*
X142194Y437852D01*
X142298Y437873D01*
X142409Y437908D01*
X142527Y437963D01*
X142652Y438040D01*
X142707Y438081D01*
X142763Y438137D01*
X142777Y438150D01*
X142804Y438192D01*
X142853Y438254D01*
X142908Y438338D01*
X142957Y438449D01*
X143005Y438580D01*
X143033Y438726D01*
X143047Y438892D01*
Y438934D01*
X143040Y438969D01*
Y439010D01*
X143033Y439052D01*
X143012Y439163D01*
X142978Y439281D01*
X142922Y439412D01*
X142853Y439537D01*
X142756Y439662D01*
X142742Y439676D01*
X142700Y439711D01*
X142638Y439766D01*
X142541Y439822D01*
X142423Y439891D01*
X142270Y439953D01*
X142097Y440009D01*
X141896Y440050D01*
X142035Y440834D01*
X142042D01*
X142069Y440827D01*
X142111Y440820D01*
X142166Y440806D01*
X142229Y440785D01*
X142305Y440765D01*
X142388Y440737D01*
X142478Y440702D01*
X142680Y440612D01*
X142777Y440564D01*
X142881Y440501D01*
X142978Y440432D01*
X143075Y440355D01*
X143172Y440272D01*
X143255Y440182D01*
X143262Y440175D01*
X143276Y440161D01*
X143297Y440127D01*
X143324Y440092D01*
X143359Y440037D01*
X143394Y439981D01*
X143435Y439912D01*
X143477Y439828D01*
X143512Y439745D01*
X143553Y439648D01*
X143588Y439544D01*
X143623Y439433D01*
X143650Y439308D01*
X143671Y439184D01*
X143685Y439052D01*
X143692Y438913D01*
Y438823D01*
X143685Y438774D01*
X143678Y438726D01*
X143664Y438594D01*
X143636Y438449D01*
X143595Y438282D01*
X143539Y438116D01*
X143463Y437949D01*
Y437942D01*
X143456Y437929D01*
X143442Y437908D01*
X143421Y437873D01*
X143373Y437797D01*
X143304Y437700D01*
X143213Y437589D01*
X143109Y437478D01*
X142992Y437367D01*
X142853Y437270D01*
X142846D01*
X142839Y437263D01*
X142811Y437249D01*
X142783Y437235D01*
X142749Y437214D01*
X142707Y437193D01*
X142603Y437152D01*
X142478Y437110D01*
X142340Y437069D01*
X142187Y437041D01*
X142028Y437034D01*
X142021D01*
X142007D01*
X141986D01*
X141958D01*
X141875Y437048D01*
X141778Y437062D01*
X141660Y437090D01*
X141535Y437131D01*
X141404Y437187D01*
X141272Y437263D01*
X141265D01*
X141258Y437270D01*
X141216Y437304D01*
X141154Y437353D01*
X141078Y437429D01*
X140988Y437519D01*
X140897Y437637D01*
X140814Y437769D01*
X140731Y437922D01*
Y437915D01*
X140724Y437894D01*
X140717Y437866D01*
X140703Y437825D01*
X140689Y437783D01*
X140669Y437727D01*
X140613Y437596D01*
X140537Y437457D01*
X140447Y437311D01*
X140329Y437166D01*
X140183Y437041D01*
X140176Y437034D01*
X140162Y437027D01*
X140142Y437013D01*
X140107Y436992D01*
X140072Y436965D01*
X140024Y436937D01*
X139968Y436909D01*
X139899Y436881D01*
X139830Y436854D01*
X139753Y436826D01*
X139580Y436771D01*
X139379Y436736D01*
X139268Y436722D01*
X139157D01*
X139150D01*
X139122D01*
X139074Y436729D01*
X139018D01*
X138942Y436743D01*
X138859Y436757D01*
X138769Y436771D01*
X138665Y436798D01*
X138554Y436833D01*
X138443Y436875D01*
X138325Y436923D01*
X138207Y436986D01*
X138082Y437055D01*
X137964Y437138D01*
X137846Y437228D01*
X137735Y437339D01*
X137729Y437346D01*
X137708Y437367D01*
X137680Y437402D01*
X137645Y437450D01*
X137604Y437506D01*
X137555Y437582D01*
X137500Y437665D01*
X137451Y437762D01*
X137396Y437866D01*
X137340Y437984D01*
X137292Y438109D01*
X137250Y438247D01*
X137215Y438393D01*
X137188Y438546D01*
X137167Y438705D01*
X137160Y438879D01*
Y438913D01*
X137167Y438962D01*
Y439017D01*
X137174Y439094D01*
X137188Y439177D01*
X137201Y439267D01*
X137222Y439371D01*
X137250Y439482D01*
X137285Y439593D01*
X137319Y439711D01*
X137368Y439828D01*
X137430Y439946D01*
X137493Y440057D01*
X137569Y440175D01*
X137659Y440279D01*
X137666Y440286D01*
X137680Y440300D01*
X137708Y440328D01*
X137749Y440369D01*
X137798Y440411D01*
X137860Y440460D01*
X137930Y440508D01*
X138013Y440564D01*
X138096Y440619D01*
X138200Y440675D01*
X138304Y440730D01*
X138422Y440779D01*
X138547Y440820D01*
X138679Y440862D01*
X138817Y440889D01*
X138963Y440910D01*
X139067Y440127D01*
D02*
G37*
G36*
X161484Y548744D02*
X160700D01*
Y553743D01*
X160686Y553730D01*
X160652Y553695D01*
X160589Y553646D01*
X160499Y553577D01*
X160395Y553494D01*
X160263Y553404D01*
X160118Y553307D01*
X159951Y553203D01*
X159944D01*
X159930Y553189D01*
X159910Y553175D01*
X159875Y553161D01*
X159833Y553133D01*
X159785Y553112D01*
X159674Y553050D01*
X159549Y552988D01*
X159410Y552918D01*
X159265Y552856D01*
X159126Y552800D01*
Y553556D01*
X159133Y553563D01*
X159154Y553570D01*
X159188Y553591D01*
X159237Y553612D01*
X159292Y553639D01*
X159362Y553681D01*
X159438Y553723D01*
X159514Y553764D01*
X159695Y553875D01*
X159889Y554007D01*
X160090Y554146D01*
X160277Y554305D01*
X160284Y554312D01*
X160298Y554326D01*
X160326Y554347D01*
X160360Y554381D01*
X160395Y554423D01*
X160443Y554465D01*
X160548Y554582D01*
X160665Y554707D01*
X160783Y554853D01*
X160887Y555005D01*
X160977Y555165D01*
X161484D01*
Y548744D01*
D02*
G37*
G36*
X155451Y555137D02*
X155527D01*
X155617Y555130D01*
X155721Y555123D01*
X155929Y555103D01*
X156144Y555068D01*
X156352Y555026D01*
X156442Y554999D01*
X156533Y554971D01*
X156540D01*
X156553Y554964D01*
X156574Y554950D01*
X156609Y554936D01*
X156692Y554894D01*
X156789Y554832D01*
X156907Y554749D01*
X157025Y554638D01*
X157143Y554513D01*
X157247Y554361D01*
Y554354D01*
X157261Y554340D01*
X157275Y554319D01*
X157289Y554284D01*
X157309Y554243D01*
X157330Y554194D01*
X157358Y554139D01*
X157386Y554076D01*
X157434Y553931D01*
X157476Y553771D01*
X157503Y553591D01*
X157517Y553397D01*
Y553390D01*
Y553369D01*
Y553327D01*
X157510Y553286D01*
X157503Y553223D01*
X157497Y553154D01*
X157483Y553078D01*
X157462Y552995D01*
X157406Y552814D01*
X157372Y552717D01*
X157330Y552620D01*
X157282Y552523D01*
X157219Y552426D01*
X157150Y552336D01*
X157073Y552246D01*
X157067Y552239D01*
X157053Y552225D01*
X157025Y552204D01*
X156990Y552169D01*
X156942Y552135D01*
X156886Y552093D01*
X156817Y552045D01*
X156734Y551996D01*
X156644Y551948D01*
X156546Y551899D01*
X156436Y551850D01*
X156311Y551802D01*
X156179Y551760D01*
X156033Y551719D01*
X155874Y551684D01*
X155708Y551656D01*
X155714D01*
X155721Y551649D01*
X155763Y551628D01*
X155825Y551594D01*
X155902Y551552D01*
X155985Y551504D01*
X156068Y551455D01*
X156151Y551393D01*
X156221Y551337D01*
X156228Y551330D01*
X156235Y551323D01*
X156255Y551303D01*
X156283Y551275D01*
X156318Y551240D01*
X156359Y551199D01*
X156449Y551101D01*
X156553Y550977D01*
X156671Y550831D01*
X156796Y550665D01*
X156921Y550484D01*
X158030Y548744D01*
X156969D01*
X156124Y550075D01*
X156117Y550082D01*
X156110Y550103D01*
X156089Y550131D01*
X156061Y550172D01*
X156033Y550221D01*
X155992Y550276D01*
X155909Y550401D01*
X155812Y550547D01*
X155714Y550692D01*
X155610Y550831D01*
X155513Y550956D01*
Y550963D01*
X155499Y550970D01*
X155472Y551004D01*
X155430Y551060D01*
X155368Y551122D01*
X155305Y551192D01*
X155229Y551261D01*
X155153Y551330D01*
X155083Y551379D01*
X155077Y551386D01*
X155049Y551400D01*
X155014Y551421D01*
X154965Y551448D01*
X154903Y551476D01*
X154841Y551504D01*
X154771Y551531D01*
X154695Y551552D01*
X154688D01*
X154667Y551559D01*
X154633Y551566D01*
X154584Y551573D01*
X154515D01*
X154432Y551580D01*
X154334Y551587D01*
X153246D01*
Y548744D01*
X152400D01*
Y555144D01*
X155375D01*
X155451Y555137D01*
D02*
G37*
G36*
X165714Y555158D02*
X165783Y555151D01*
X165866Y555137D01*
X165956Y555123D01*
X166060Y555103D01*
X166164Y555075D01*
X166275Y555047D01*
X166386Y555005D01*
X166497Y554957D01*
X166615Y554902D01*
X166719Y554832D01*
X166830Y554763D01*
X166927Y554673D01*
X166934Y554666D01*
X166948Y554652D01*
X166976Y554624D01*
X167010Y554589D01*
X167045Y554541D01*
X167087Y554485D01*
X167135Y554416D01*
X167184Y554347D01*
X167232Y554263D01*
X167281Y554173D01*
X167322Y554076D01*
X167357Y553972D01*
X167392Y553861D01*
X167419Y553743D01*
X167433Y553619D01*
X167440Y553494D01*
Y553487D01*
Y553473D01*
Y553452D01*
Y553418D01*
X167433Y553383D01*
X167426Y553334D01*
X167412Y553230D01*
X167385Y553112D01*
X167343Y552981D01*
X167281Y552849D01*
X167204Y552717D01*
Y552710D01*
X167190Y552703D01*
X167163Y552662D01*
X167107Y552606D01*
X167031Y552530D01*
X166927Y552454D01*
X166809Y552364D01*
X166663Y552287D01*
X166497Y552211D01*
X166504D01*
X166525Y552204D01*
X166553Y552190D01*
X166594Y552176D01*
X166643Y552155D01*
X166698Y552128D01*
X166830Y552058D01*
X166976Y551975D01*
X167121Y551864D01*
X167267Y551740D01*
X167392Y551587D01*
X167398Y551580D01*
X167405Y551566D01*
X167419Y551545D01*
X167440Y551511D01*
X167461Y551469D01*
X167489Y551421D01*
X167516Y551365D01*
X167551Y551303D01*
X167607Y551157D01*
X167655Y550984D01*
X167690Y550789D01*
X167704Y550686D01*
Y550574D01*
Y550568D01*
Y550540D01*
X167697Y550498D01*
Y550436D01*
X167683Y550367D01*
X167676Y550283D01*
X167655Y550193D01*
X167634Y550096D01*
X167600Y549985D01*
X167565Y549874D01*
X167516Y549763D01*
X167461Y549645D01*
X167392Y549528D01*
X167315Y549417D01*
X167225Y549299D01*
X167121Y549195D01*
X167114Y549188D01*
X167093Y549174D01*
X167059Y549146D01*
X167017Y549111D01*
X166955Y549063D01*
X166885Y549021D01*
X166802Y548966D01*
X166712Y548917D01*
X166608Y548869D01*
X166490Y548813D01*
X166365Y548772D01*
X166234Y548730D01*
X166088Y548688D01*
X165935Y548661D01*
X165769Y548647D01*
X165596Y548640D01*
X165554D01*
X165506Y548647D01*
X165436D01*
X165360Y548654D01*
X165263Y548668D01*
X165159Y548688D01*
X165048Y548709D01*
X164930Y548737D01*
X164805Y548779D01*
X164680Y548820D01*
X164549Y548876D01*
X164424Y548938D01*
X164299Y549014D01*
X164174Y549098D01*
X164063Y549195D01*
X164056Y549202D01*
X164035Y549222D01*
X164008Y549250D01*
X163973Y549299D01*
X163931Y549354D01*
X163883Y549417D01*
X163827Y549493D01*
X163779Y549583D01*
X163723Y549680D01*
X163668Y549784D01*
X163619Y549902D01*
X163578Y550020D01*
X163543Y550151D01*
X163515Y550297D01*
X163495Y550443D01*
X163488Y550595D01*
Y550602D01*
Y550623D01*
Y550658D01*
X163495Y550699D01*
Y550755D01*
X163501Y550817D01*
X163515Y550887D01*
X163529Y550963D01*
X163564Y551122D01*
X163619Y551296D01*
X163696Y551469D01*
X163744Y551552D01*
X163800Y551635D01*
X163807Y551642D01*
X163814Y551656D01*
X163834Y551677D01*
X163862Y551705D01*
X163890Y551740D01*
X163931Y551774D01*
X163980Y551823D01*
X164035Y551864D01*
X164160Y551961D01*
X164313Y552058D01*
X164493Y552142D01*
X164701Y552211D01*
X164694D01*
X164680Y552218D01*
X164653Y552232D01*
X164625Y552246D01*
X164583Y552259D01*
X164535Y552287D01*
X164431Y552343D01*
X164313Y552412D01*
X164195Y552502D01*
X164077Y552599D01*
X163980Y552717D01*
Y552724D01*
X163973Y552731D01*
X163959Y552752D01*
X163945Y552780D01*
X163904Y552849D01*
X163862Y552939D01*
X163820Y553057D01*
X163779Y553196D01*
X163751Y553348D01*
X163744Y553515D01*
Y553521D01*
Y553542D01*
X163751Y553584D01*
Y553633D01*
X163758Y553688D01*
X163772Y553757D01*
X163786Y553834D01*
X163807Y553924D01*
X163834Y554014D01*
X163869Y554104D01*
X163904Y554201D01*
X163952Y554305D01*
X164015Y554402D01*
X164077Y554499D01*
X164153Y554596D01*
X164244Y554687D01*
X164250Y554693D01*
X164264Y554707D01*
X164292Y554728D01*
X164334Y554763D01*
X164382Y554797D01*
X164445Y554839D01*
X164514Y554881D01*
X164597Y554929D01*
X164687Y554971D01*
X164791Y555012D01*
X164895Y555054D01*
X165013Y555089D01*
X165145Y555123D01*
X165277Y555144D01*
X165422Y555158D01*
X165575Y555165D01*
X165658D01*
X165714Y555158D01*
D02*
G37*
G36*
X128424Y634154D02*
X124728D01*
X124721D01*
X124694D01*
X124652D01*
X124590D01*
X124520Y634147D01*
X124444D01*
X124354Y634140D01*
X124264Y634133D01*
X124062Y634119D01*
X123861Y634092D01*
X123667Y634050D01*
X123577Y634029D01*
X123501Y634002D01*
X123494D01*
X123487Y633995D01*
X123466Y633988D01*
X123439Y633974D01*
X123362Y633932D01*
X123279Y633877D01*
X123175Y633807D01*
X123078Y633717D01*
X122981Y633606D01*
X122891Y633475D01*
Y633468D01*
X122884Y633454D01*
X122870Y633433D01*
X122856Y633405D01*
X122842Y633371D01*
X122828Y633322D01*
X122808Y633274D01*
X122787Y633218D01*
X122752Y633079D01*
X122717Y632920D01*
X122690Y632740D01*
X122683Y632545D01*
Y632455D01*
X122690Y632393D01*
X122697Y632317D01*
X122703Y632226D01*
X122717Y632129D01*
X122738Y632025D01*
X122787Y631810D01*
X122821Y631699D01*
X122863Y631589D01*
X122912Y631484D01*
X122967Y631387D01*
X123029Y631297D01*
X123106Y631214D01*
X123113Y631207D01*
X123126Y631193D01*
X123154Y631179D01*
X123189Y631152D01*
X123237Y631124D01*
X123300Y631089D01*
X123376Y631048D01*
X123466Y631013D01*
X123570Y630978D01*
X123688Y630937D01*
X123820Y630902D01*
X123966Y630874D01*
X124132Y630846D01*
X124312Y630826D01*
X124513Y630819D01*
X124728Y630812D01*
X128424D01*
Y629966D01*
X124728D01*
X124714D01*
X124687D01*
X124638D01*
X124569D01*
X124486Y629973D01*
X124395Y629980D01*
X124291Y629987D01*
X124173Y629994D01*
X123931Y630021D01*
X123674Y630056D01*
X123425Y630112D01*
X123307Y630146D01*
X123196Y630188D01*
X123189D01*
X123168Y630195D01*
X123140Y630209D01*
X123099Y630229D01*
X123050Y630257D01*
X122995Y630285D01*
X122870Y630368D01*
X122794Y630417D01*
X122724Y630472D01*
X122641Y630541D01*
X122565Y630611D01*
X122488Y630694D01*
X122412Y630777D01*
X122343Y630874D01*
X122274Y630978D01*
X122267Y630985D01*
X122260Y631006D01*
X122239Y631034D01*
X122218Y631082D01*
X122190Y631138D01*
X122163Y631207D01*
X122128Y631283D01*
X122100Y631381D01*
X122065Y631478D01*
X122031Y631589D01*
X122003Y631713D01*
X121975Y631845D01*
X121954Y631991D01*
X121934Y632143D01*
X121927Y632303D01*
X121920Y632469D01*
Y632559D01*
X121927Y632622D01*
Y632698D01*
X121934Y632781D01*
X121948Y632885D01*
X121961Y632989D01*
X121996Y633225D01*
X122052Y633475D01*
X122128Y633717D01*
X122170Y633835D01*
X122225Y633946D01*
X122232Y633953D01*
X122239Y633974D01*
X122260Y634002D01*
X122281Y634036D01*
X122315Y634085D01*
X122357Y634140D01*
X122398Y634196D01*
X122454Y634258D01*
X122579Y634397D01*
X122731Y634529D01*
X122912Y634653D01*
X123015Y634709D01*
X123119Y634757D01*
X123126D01*
X123147Y634764D01*
X123182Y634778D01*
X123230Y634792D01*
X123286Y634813D01*
X123362Y634834D01*
X123445Y634855D01*
X123542Y634875D01*
X123653Y634903D01*
X123771Y634924D01*
X123903Y634945D01*
X124049Y634958D01*
X124201Y634979D01*
X124368Y634986D01*
X124541Y635000D01*
X124728D01*
X128424D01*
Y634154D01*
D02*
G37*
G36*
Y626214D02*
Y625570D01*
X124277D01*
Y624703D01*
X123556D01*
Y625570D01*
X122024D01*
Y626353D01*
X123556D01*
Y629141D01*
X124277D01*
X128424Y626214D01*
D02*
G37*
G36*
X491202Y769222D02*
Y769216D01*
Y769188D01*
Y769146D01*
Y769091D01*
X491195Y769021D01*
Y768945D01*
X491189Y768855D01*
X491175Y768765D01*
X491154Y768564D01*
X491119Y768356D01*
X491071Y768155D01*
X491036Y768064D01*
X491001Y767974D01*
Y767968D01*
X490994Y767954D01*
X490981Y767933D01*
X490967Y767905D01*
X490918Y767822D01*
X490849Y767725D01*
X490766Y767621D01*
X490662Y767510D01*
X490530Y767406D01*
X490384Y767309D01*
X490377D01*
X490363Y767302D01*
X490343Y767288D01*
X490308Y767274D01*
X490273Y767253D01*
X490225Y767239D01*
X490169Y767219D01*
X490107Y767198D01*
X489961Y767149D01*
X489795Y767114D01*
X489608Y767087D01*
X489400Y767080D01*
X489316D01*
X489261Y767087D01*
X489192Y767094D01*
X489108Y767108D01*
X489018Y767122D01*
X488921Y767142D01*
X488817Y767163D01*
X488713Y767198D01*
X488602Y767232D01*
X488498Y767281D01*
X488387Y767336D01*
X488290Y767399D01*
X488193Y767475D01*
X488103Y767558D01*
X488096Y767565D01*
X488082Y767579D01*
X488061Y767607D01*
X488033Y767648D01*
X487999Y767697D01*
X487964Y767759D01*
X487923Y767836D01*
X487881Y767919D01*
X487846Y768016D01*
X487805Y768120D01*
X487770Y768238D01*
X487735Y768370D01*
X487715Y768508D01*
X487694Y768661D01*
X487680Y768820D01*
Y768994D01*
X488443Y769105D01*
Y769098D01*
Y769070D01*
X488450Y769035D01*
Y768987D01*
X488456Y768924D01*
X488463Y768855D01*
X488484Y768702D01*
X488519Y768536D01*
X488568Y768370D01*
X488595Y768293D01*
X488630Y768217D01*
X488671Y768155D01*
X488713Y768099D01*
X488727Y768085D01*
X488762Y768058D01*
X488817Y768016D01*
X488893Y767968D01*
X488990Y767919D01*
X489108Y767877D01*
X489240Y767850D01*
X489393Y767836D01*
X489448D01*
X489504Y767843D01*
X489580Y767857D01*
X489670Y767870D01*
X489760Y767898D01*
X489850Y767933D01*
X489940Y767981D01*
X489954Y767988D01*
X489982Y768009D01*
X490017Y768044D01*
X490072Y768085D01*
X490121Y768141D01*
X490176Y768210D01*
X490225Y768286D01*
X490266Y768377D01*
X490273Y768390D01*
X490280Y768425D01*
X490294Y768487D01*
X490315Y768571D01*
X490329Y768682D01*
X490343Y768820D01*
X490350Y768980D01*
X490356Y769077D01*
Y769174D01*
Y773584D01*
X491202D01*
Y769222D01*
D02*
G37*
G36*
X495571Y769437D02*
X496438D01*
Y768716D01*
X495571D01*
Y767184D01*
X494787D01*
Y768716D01*
X492000D01*
Y769437D01*
X494926Y773584D01*
X495571D01*
Y769437D01*
D02*
G37*
G36*
X409316Y773605D02*
X409365Y773598D01*
X409496Y773584D01*
X409642Y773556D01*
X409808Y773515D01*
X409975Y773459D01*
X410141Y773383D01*
X410148D01*
X410162Y773376D01*
X410183Y773362D01*
X410218Y773342D01*
X410294Y773293D01*
X410391Y773224D01*
X410502Y773133D01*
X410613Y773029D01*
X410724Y772912D01*
X410821Y772773D01*
Y772766D01*
X410828Y772759D01*
X410842Y772731D01*
X410855Y772703D01*
X410876Y772669D01*
X410897Y772627D01*
X410939Y772523D01*
X410980Y772398D01*
X411022Y772260D01*
X411050Y772107D01*
X411057Y771948D01*
Y771941D01*
Y771927D01*
Y771906D01*
Y771878D01*
X411043Y771795D01*
X411029Y771698D01*
X411001Y771580D01*
X410960Y771455D01*
X410904Y771324D01*
X410828Y771192D01*
Y771185D01*
X410821Y771178D01*
X410786Y771136D01*
X410738Y771074D01*
X410661Y770998D01*
X410571Y770908D01*
X410453Y770817D01*
X410322Y770734D01*
X410169Y770651D01*
X410176D01*
X410197Y770644D01*
X410224Y770637D01*
X410266Y770623D01*
X410308Y770609D01*
X410363Y770589D01*
X410495Y770533D01*
X410634Y770457D01*
X410779Y770367D01*
X410925Y770249D01*
X411050Y770103D01*
X411057Y770096D01*
X411063Y770082D01*
X411077Y770062D01*
X411098Y770027D01*
X411126Y769992D01*
X411154Y769944D01*
X411181Y769888D01*
X411209Y769819D01*
X411237Y769750D01*
X411265Y769673D01*
X411320Y769500D01*
X411355Y769299D01*
X411369Y769188D01*
Y769077D01*
Y769070D01*
Y769042D01*
X411362Y768994D01*
Y768938D01*
X411348Y768862D01*
X411334Y768779D01*
X411320Y768689D01*
X411292Y768585D01*
X411258Y768474D01*
X411216Y768363D01*
X411167Y768245D01*
X411105Y768127D01*
X411036Y768002D01*
X410952Y767884D01*
X410862Y767766D01*
X410751Y767655D01*
X410745Y767648D01*
X410724Y767628D01*
X410689Y767600D01*
X410640Y767565D01*
X410585Y767524D01*
X410509Y767475D01*
X410425Y767420D01*
X410328Y767371D01*
X410224Y767316D01*
X410107Y767260D01*
X409982Y767212D01*
X409843Y767170D01*
X409697Y767135D01*
X409545Y767108D01*
X409385Y767087D01*
X409212Y767080D01*
X409177D01*
X409129Y767087D01*
X409073D01*
X408997Y767094D01*
X408914Y767108D01*
X408824Y767122D01*
X408720Y767142D01*
X408609Y767170D01*
X408498Y767205D01*
X408380Y767239D01*
X408262Y767288D01*
X408144Y767350D01*
X408033Y767413D01*
X407915Y767489D01*
X407811Y767579D01*
X407804Y767586D01*
X407790Y767600D01*
X407763Y767628D01*
X407721Y767669D01*
X407680Y767718D01*
X407631Y767780D01*
X407583Y767850D01*
X407527Y767933D01*
X407472Y768016D01*
X407416Y768120D01*
X407361Y768224D01*
X407312Y768342D01*
X407271Y768467D01*
X407229Y768598D01*
X407201Y768737D01*
X407180Y768883D01*
X407964Y768987D01*
Y768980D01*
X407971Y768959D01*
X407978Y768924D01*
X407992Y768876D01*
X408005Y768820D01*
X408019Y768758D01*
X408068Y768612D01*
X408130Y768453D01*
X408207Y768293D01*
X408304Y768148D01*
X408359Y768085D01*
X408415Y768023D01*
X408422D01*
X408428Y768009D01*
X408449Y767995D01*
X408470Y767974D01*
X408539Y767933D01*
X408637Y767877D01*
X408754Y767822D01*
X408886Y767780D01*
X409046Y767746D01*
X409212Y767732D01*
X409268D01*
X409309Y767739D01*
X409351Y767746D01*
X409413Y767753D01*
X409538Y767780D01*
X409691Y767822D01*
X409850Y767891D01*
X409926Y767940D01*
X410003Y767988D01*
X410079Y768044D01*
X410155Y768113D01*
X410162Y768120D01*
X410169Y768134D01*
X410190Y768155D01*
X410218Y768182D01*
X410245Y768217D01*
X410273Y768266D01*
X410308Y768314D01*
X410349Y768377D01*
X410419Y768515D01*
X410474Y768675D01*
X410523Y768862D01*
X410530Y768959D01*
X410536Y769063D01*
Y769070D01*
Y769084D01*
Y769118D01*
X410530Y769153D01*
X410523Y769202D01*
X410516Y769250D01*
X410495Y769375D01*
X410446Y769521D01*
X410384Y769666D01*
X410342Y769743D01*
X410294Y769812D01*
X410238Y769881D01*
X410176Y769951D01*
X410169Y769958D01*
X410162Y769965D01*
X410141Y769985D01*
X410113Y770006D01*
X410079Y770034D01*
X410037Y770062D01*
X409933Y770131D01*
X409801Y770193D01*
X409649Y770249D01*
X409476Y770290D01*
X409379Y770297D01*
X409281Y770304D01*
X409240D01*
X409191Y770297D01*
X409129D01*
X409046Y770284D01*
X408955Y770270D01*
X408844Y770249D01*
X408727Y770221D01*
X408810Y770908D01*
X408824D01*
X408858Y770901D01*
X408900Y770894D01*
X408990D01*
X409025Y770901D01*
X409073D01*
X409122Y770908D01*
X409240Y770928D01*
X409379Y770956D01*
X409531Y771005D01*
X409691Y771067D01*
X409843Y771157D01*
X409850D01*
X409864Y771171D01*
X409878Y771185D01*
X409906Y771206D01*
X409975Y771268D01*
X410051Y771358D01*
X410120Y771469D01*
X410190Y771608D01*
X410218Y771684D01*
X410231Y771774D01*
X410245Y771864D01*
X410252Y771962D01*
Y771969D01*
Y771982D01*
Y772003D01*
X410245Y772038D01*
X410238Y772114D01*
X410218Y772218D01*
X410183Y772329D01*
X410127Y772447D01*
X410051Y772572D01*
X410009Y772627D01*
X409954Y772683D01*
X409940Y772697D01*
X409898Y772724D01*
X409836Y772773D01*
X409753Y772828D01*
X409642Y772877D01*
X409510Y772925D01*
X409365Y772953D01*
X409198Y772967D01*
X409157D01*
X409122Y772960D01*
X409080D01*
X409039Y772953D01*
X408928Y772932D01*
X408810Y772898D01*
X408678Y772842D01*
X408553Y772773D01*
X408428Y772676D01*
X408415Y772662D01*
X408380Y772620D01*
X408325Y772558D01*
X408269Y772461D01*
X408200Y772343D01*
X408137Y772190D01*
X408082Y772017D01*
X408040Y771816D01*
X407257Y771955D01*
Y771962D01*
X407263Y771989D01*
X407271Y772031D01*
X407284Y772086D01*
X407305Y772149D01*
X407326Y772225D01*
X407354Y772308D01*
X407388Y772398D01*
X407478Y772599D01*
X407527Y772697D01*
X407589Y772801D01*
X407659Y772898D01*
X407735Y772995D01*
X407818Y773092D01*
X407908Y773175D01*
X407915Y773182D01*
X407929Y773196D01*
X407964Y773217D01*
X407999Y773244D01*
X408054Y773279D01*
X408110Y773314D01*
X408179Y773355D01*
X408262Y773397D01*
X408345Y773432D01*
X408442Y773473D01*
X408546Y773508D01*
X408657Y773542D01*
X408782Y773570D01*
X408907Y773591D01*
X409039Y773605D01*
X409177Y773612D01*
X409268D01*
X409316Y773605D01*
D02*
G37*
G36*
X406112Y769230D02*
Y769222D01*
Y769195D01*
Y769153D01*
Y769098D01*
X406105Y769028D01*
Y768952D01*
X406099Y768862D01*
X406085Y768772D01*
X406064Y768571D01*
X406029Y768363D01*
X405981Y768162D01*
X405946Y768072D01*
X405911Y767981D01*
Y767974D01*
X405904Y767961D01*
X405891Y767940D01*
X405877Y767912D01*
X405828Y767829D01*
X405759Y767732D01*
X405676Y767628D01*
X405572Y767517D01*
X405440Y767413D01*
X405294Y767316D01*
X405287D01*
X405273Y767309D01*
X405253Y767295D01*
X405218Y767281D01*
X405183Y767260D01*
X405135Y767246D01*
X405079Y767225D01*
X405017Y767205D01*
X404871Y767156D01*
X404705Y767122D01*
X404518Y767094D01*
X404310Y767087D01*
X404226D01*
X404171Y767094D01*
X404101Y767101D01*
X404018Y767114D01*
X403928Y767128D01*
X403831Y767149D01*
X403727Y767170D01*
X403623Y767205D01*
X403512Y767239D01*
X403408Y767288D01*
X403297Y767343D01*
X403200Y767406D01*
X403103Y767482D01*
X403013Y767565D01*
X403006Y767572D01*
X402992Y767586D01*
X402971Y767614D01*
X402943Y767655D01*
X402909Y767704D01*
X402874Y767766D01*
X402833Y767843D01*
X402791Y767926D01*
X402756Y768023D01*
X402715Y768127D01*
X402680Y768245D01*
X402645Y768377D01*
X402625Y768515D01*
X402604Y768668D01*
X402590Y768827D01*
Y769001D01*
X403353Y769112D01*
Y769105D01*
Y769077D01*
X403360Y769042D01*
Y768994D01*
X403367Y768931D01*
X403373Y768862D01*
X403394Y768709D01*
X403429Y768543D01*
X403478Y768377D01*
X403505Y768300D01*
X403540Y768224D01*
X403582Y768162D01*
X403623Y768106D01*
X403637Y768092D01*
X403672Y768064D01*
X403727Y768023D01*
X403803Y767974D01*
X403900Y767926D01*
X404018Y767884D01*
X404150Y767857D01*
X404303Y767843D01*
X404358D01*
X404414Y767850D01*
X404490Y767863D01*
X404580Y767877D01*
X404670Y767905D01*
X404760Y767940D01*
X404850Y767988D01*
X404864Y767995D01*
X404892Y768016D01*
X404927Y768051D01*
X404982Y768092D01*
X405031Y768148D01*
X405086Y768217D01*
X405135Y768293D01*
X405176Y768383D01*
X405183Y768397D01*
X405190Y768432D01*
X405204Y768494D01*
X405225Y768578D01*
X405239Y768689D01*
X405253Y768827D01*
X405260Y768987D01*
X405266Y769084D01*
Y769181D01*
Y773591D01*
X406112D01*
Y769230D01*
D02*
G37*
%LPC*%
G36*
X61766Y423142D02*
X59852D01*
X59803Y423135D01*
X59748D01*
X59616Y423128D01*
X59470Y423114D01*
X59318Y423093D01*
X59172Y423066D01*
X59040Y423024D01*
X59034D01*
X59027Y423017D01*
X58985Y423003D01*
X58930Y422976D01*
X58853Y422934D01*
X58777Y422878D01*
X58694Y422816D01*
X58611Y422733D01*
X58541Y422643D01*
X58534Y422629D01*
X58513Y422594D01*
X58486Y422546D01*
X58451Y422469D01*
X58423Y422386D01*
X58396Y422289D01*
X58375Y422178D01*
X58368Y422067D01*
Y422060D01*
Y422046D01*
Y422026D01*
X58375Y421991D01*
Y421956D01*
X58382Y421908D01*
X58410Y421804D01*
X58451Y421686D01*
X58507Y421561D01*
X58590Y421443D01*
X58645Y421381D01*
X58701Y421325D01*
X58708Y421318D01*
X58715Y421311D01*
X58735Y421297D01*
X58763Y421277D01*
X58798Y421256D01*
X58846Y421228D01*
X58895Y421200D01*
X58957Y421173D01*
X59027Y421145D01*
X59103Y421124D01*
X59186Y421096D01*
X59276Y421076D01*
X59380Y421055D01*
X59491Y421041D01*
X59609Y421027D01*
X61766D01*
Y423142D01*
D02*
G37*
G36*
X58923Y539273D02*
X58874D01*
X58832Y539266D01*
X58791Y539259D01*
X58735Y539252D01*
X58611Y539218D01*
X58465Y539169D01*
X58389Y539134D01*
X58312Y539093D01*
X58236Y539044D01*
X58160Y538982D01*
X58084Y538919D01*
X58007Y538843D01*
X58000Y538836D01*
X57993Y538822D01*
X57973Y538802D01*
X57945Y538767D01*
X57917Y538725D01*
X57889Y538670D01*
X57855Y538614D01*
X57820Y538545D01*
X57778Y538469D01*
X57744Y538386D01*
X57716Y538295D01*
X57688Y538191D01*
X57640Y537976D01*
X57633Y537859D01*
X57626Y537734D01*
Y537727D01*
Y537706D01*
Y537678D01*
X57633Y537630D01*
X57640Y537581D01*
X57647Y537519D01*
X57674Y537380D01*
X57716Y537221D01*
X57778Y537061D01*
X57820Y536978D01*
X57869Y536895D01*
X57924Y536818D01*
X57986Y536742D01*
X57993Y536735D01*
X58000Y536728D01*
X58021Y536707D01*
X58056Y536687D01*
X58091Y536659D01*
X58132Y536624D01*
X58181Y536590D01*
X58236Y536555D01*
X58375Y536486D01*
X58527Y536423D01*
X58708Y536382D01*
X58805Y536375D01*
X58902Y536368D01*
X58957D01*
X58992Y536375D01*
X59040Y536382D01*
X59089Y536389D01*
X59214Y536416D01*
X59359Y536458D01*
X59505Y536527D01*
X59581Y536569D01*
X59658Y536617D01*
X59727Y536680D01*
X59796Y536742D01*
X59803Y536749D01*
X59810Y536763D01*
X59831Y536784D01*
X59852Y536811D01*
X59879Y536853D01*
X59907Y536902D01*
X59942Y536957D01*
X59977Y537020D01*
X60004Y537089D01*
X60039Y537172D01*
X60067Y537255D01*
X60094Y537352D01*
X60115Y537456D01*
X60136Y537560D01*
X60143Y537678D01*
X60150Y537803D01*
Y537810D01*
Y537831D01*
Y537865D01*
X60143Y537914D01*
X60136Y537970D01*
X60129Y538039D01*
X60122Y538108D01*
X60108Y538191D01*
X60060Y538358D01*
X59997Y538538D01*
X59956Y538628D01*
X59907Y538712D01*
X59852Y538795D01*
X59789Y538871D01*
X59782Y538878D01*
X59776Y538892D01*
X59755Y538906D01*
X59727Y538933D01*
X59692Y538961D01*
X59651Y538996D01*
X59547Y539072D01*
X59422Y539148D01*
X59269Y539211D01*
X59193Y539239D01*
X59103Y539259D01*
X59013Y539266D01*
X58923Y539273D01*
D02*
G37*
G36*
X48722Y539197D02*
X46566D01*
Y537082D01*
X48480D01*
X48528Y537089D01*
X48584D01*
X48715Y537096D01*
X48861Y537110D01*
X49014Y537131D01*
X49159Y537158D01*
X49291Y537200D01*
X49298D01*
X49305Y537207D01*
X49346Y537221D01*
X49402Y537248D01*
X49478Y537290D01*
X49555Y537345D01*
X49638Y537408D01*
X49721Y537491D01*
X49790Y537581D01*
X49797Y537595D01*
X49818Y537630D01*
X49846Y537678D01*
X49880Y537755D01*
X49908Y537838D01*
X49936Y537935D01*
X49957Y538046D01*
X49964Y538157D01*
Y538164D01*
Y538177D01*
Y538198D01*
X49957Y538233D01*
Y538268D01*
X49950Y538316D01*
X49922Y538420D01*
X49880Y538538D01*
X49825Y538663D01*
X49742Y538781D01*
X49686Y538843D01*
X49631Y538899D01*
X49624Y538906D01*
X49617Y538913D01*
X49596Y538926D01*
X49568Y538947D01*
X49534Y538968D01*
X49485Y538996D01*
X49437Y539024D01*
X49374Y539051D01*
X49305Y539079D01*
X49229Y539100D01*
X49145Y539128D01*
X49055Y539148D01*
X48951Y539169D01*
X48840Y539183D01*
X48722Y539197D01*
D02*
G37*
G36*
X93763Y537162D02*
X92286D01*
Y532273D01*
X93756D01*
X93812Y532280D01*
X93874D01*
X94013Y532287D01*
X94172Y532301D01*
X94339Y532322D01*
X94498Y532350D01*
X94644Y532384D01*
X94650D01*
X94657Y532391D01*
X94678Y532398D01*
X94706Y532405D01*
X94768Y532433D01*
X94852Y532467D01*
X94942Y532516D01*
X95039Y532572D01*
X95136Y532641D01*
X95219Y532717D01*
X95226Y532724D01*
X95233Y532731D01*
X95268Y532773D01*
X95323Y532842D01*
X95393Y532932D01*
X95462Y533050D01*
X95538Y533189D01*
X95614Y533348D01*
X95684Y533529D01*
Y533535D01*
X95691Y533549D01*
X95698Y533577D01*
X95711Y533619D01*
X95725Y533667D01*
X95739Y533730D01*
X95753Y533799D01*
X95774Y533875D01*
X95788Y533958D01*
X95802Y534055D01*
X95815Y534153D01*
X95829Y534263D01*
X95850Y534499D01*
X95857Y534763D01*
Y534777D01*
Y534804D01*
Y534860D01*
X95850Y534929D01*
Y535012D01*
X95843Y535109D01*
X95829Y535214D01*
X95815Y535331D01*
X95774Y535581D01*
X95718Y535838D01*
X95635Y536080D01*
X95580Y536198D01*
X95524Y536302D01*
X95517Y536309D01*
X95510Y536323D01*
X95490Y536351D01*
X95462Y536392D01*
X95434Y536434D01*
X95393Y536482D01*
X95302Y536593D01*
X95184Y536718D01*
X95046Y536836D01*
X94893Y536947D01*
X94810Y536989D01*
X94720Y537030D01*
X94713D01*
X94706Y537037D01*
X94685Y537044D01*
X94657Y537051D01*
X94616Y537058D01*
X94574Y537072D01*
X94519Y537086D01*
X94456Y537100D01*
X94387Y537107D01*
X94304Y537120D01*
X94214Y537134D01*
X94117Y537141D01*
X94006Y537148D01*
X93888Y537155D01*
X93763Y537162D01*
D02*
G37*
G36*
X155402Y554437D02*
X153246D01*
Y552322D01*
X155160D01*
X155208Y552329D01*
X155264D01*
X155395Y552336D01*
X155541Y552350D01*
X155694Y552370D01*
X155839Y552398D01*
X155971Y552440D01*
X155978D01*
X155985Y552447D01*
X156026Y552461D01*
X156082Y552488D01*
X156158Y552530D01*
X156235Y552585D01*
X156318Y552648D01*
X156401Y552731D01*
X156470Y552821D01*
X156477Y552835D01*
X156498Y552870D01*
X156526Y552918D01*
X156560Y552995D01*
X156588Y553078D01*
X156616Y553175D01*
X156637Y553286D01*
X156644Y553397D01*
Y553404D01*
Y553418D01*
Y553438D01*
X156637Y553473D01*
Y553508D01*
X156630Y553556D01*
X156602Y553660D01*
X156560Y553778D01*
X156505Y553903D01*
X156422Y554021D01*
X156366Y554083D01*
X156311Y554139D01*
X156304Y554146D01*
X156297Y554153D01*
X156276Y554166D01*
X156248Y554187D01*
X156214Y554208D01*
X156165Y554236D01*
X156117Y554263D01*
X156054Y554291D01*
X155985Y554319D01*
X155909Y554340D01*
X155825Y554367D01*
X155735Y554388D01*
X155631Y554409D01*
X155520Y554423D01*
X155402Y554437D01*
D02*
G37*
G36*
X165672Y554520D02*
X165547D01*
X165512Y554513D01*
X165478D01*
X165429Y554506D01*
X165325Y554485D01*
X165207Y554451D01*
X165082Y554395D01*
X164958Y554326D01*
X164840Y554229D01*
X164826Y554215D01*
X164791Y554180D01*
X164750Y554118D01*
X164694Y554035D01*
X164639Y553938D01*
X164597Y553820D01*
X164562Y553688D01*
X164549Y553542D01*
Y553535D01*
Y553521D01*
Y553501D01*
X164555Y553466D01*
Y553424D01*
X164562Y553383D01*
X164583Y553279D01*
X164618Y553161D01*
X164667Y553036D01*
X164736Y552911D01*
X164833Y552800D01*
X164847Y552786D01*
X164888Y552759D01*
X164951Y552710D01*
X165041Y552662D01*
X165145Y552606D01*
X165277Y552558D01*
X165429Y552530D01*
X165596Y552516D01*
X165637D01*
X165672Y552523D01*
X165714D01*
X165755Y552530D01*
X165859Y552551D01*
X165977Y552585D01*
X166102Y552634D01*
X166227Y552703D01*
X166345Y552800D01*
X166358Y552814D01*
X166393Y552849D01*
X166435Y552911D01*
X166490Y552995D01*
X166546Y553092D01*
X166587Y553216D01*
X166622Y553348D01*
X166636Y553494D01*
Y553501D01*
Y553515D01*
Y553535D01*
X166629Y553570D01*
X166622Y553646D01*
X166601Y553750D01*
X166566Y553861D01*
X166511Y553986D01*
X166435Y554104D01*
X166393Y554166D01*
X166338Y554222D01*
Y554229D01*
X166324Y554236D01*
X166282Y554270D01*
X166220Y554319D01*
X166130Y554375D01*
X166026Y554423D01*
X165894Y554472D01*
X165748Y554506D01*
X165672Y554520D01*
D02*
G37*
G36*
X165575Y551871D02*
X165519D01*
X165485Y551864D01*
X165436Y551857D01*
X165381Y551850D01*
X165249Y551823D01*
X165103Y551781D01*
X164951Y551719D01*
X164874Y551677D01*
X164798Y551628D01*
X164722Y551566D01*
X164653Y551504D01*
X164646Y551497D01*
X164639Y551490D01*
X164618Y551469D01*
X164597Y551441D01*
X164569Y551400D01*
X164542Y551358D01*
X164507Y551310D01*
X164472Y551254D01*
X164403Y551122D01*
X164347Y550963D01*
X164306Y550783D01*
X164299Y550692D01*
X164292Y550588D01*
Y550581D01*
Y550574D01*
Y550533D01*
X164299Y550464D01*
X164313Y550380D01*
X164327Y550283D01*
X164354Y550172D01*
X164396Y550054D01*
X164445Y549937D01*
X164452Y549923D01*
X164472Y549888D01*
X164514Y549826D01*
X164562Y549756D01*
X164632Y549680D01*
X164708Y549604D01*
X164805Y549520D01*
X164916Y549451D01*
X164923D01*
X164930Y549444D01*
X164972Y549423D01*
X165034Y549396D01*
X165124Y549368D01*
X165221Y549340D01*
X165339Y549313D01*
X165464Y549292D01*
X165596Y549285D01*
X165651D01*
X165693Y549292D01*
X165741Y549299D01*
X165797Y549306D01*
X165928Y549333D01*
X166074Y549375D01*
X166234Y549437D01*
X166310Y549479D01*
X166386Y549528D01*
X166462Y549583D01*
X166532Y549645D01*
X166539Y549652D01*
X166546Y549659D01*
X166566Y549680D01*
X166587Y549708D01*
X166615Y549749D01*
X166650Y549791D01*
X166684Y549840D01*
X166719Y549895D01*
X166781Y550027D01*
X166844Y550186D01*
X166885Y550360D01*
X166892Y550457D01*
X166899Y550561D01*
Y550568D01*
Y550588D01*
Y550616D01*
X166892Y550658D01*
X166885Y550706D01*
X166879Y550762D01*
X166851Y550894D01*
X166809Y551039D01*
X166740Y551199D01*
X166698Y551275D01*
X166643Y551351D01*
X166587Y551427D01*
X166518Y551497D01*
X166511Y551504D01*
X166504Y551511D01*
X166483Y551531D01*
X166449Y551552D01*
X166414Y551587D01*
X166372Y551615D01*
X166317Y551649D01*
X166261Y551684D01*
X166123Y551753D01*
X165963Y551816D01*
X165776Y551857D01*
X165679Y551864D01*
X165575Y551871D01*
D02*
G37*
G36*
X124277Y628371D02*
Y626353D01*
X127162D01*
X124277Y628371D01*
D02*
G37*
G36*
X494787Y772322D02*
X492770Y769437D01*
X494787D01*
Y772322D01*
D02*
G37*
%LPD*%
D10*
X49070Y418720D02*
X76153D01*
X49070D02*
Y434720D01*
X76153D01*
Y418720D02*
Y434720D01*
X32179Y541400D02*
X59261D01*
Y525400D02*
Y541400D01*
X32179Y525400D02*
X59261D01*
X32179D02*
Y541400D01*
X72440Y541150D02*
X110440D01*
Y525650D02*
Y541150D01*
X72440Y525650D02*
X110440D01*
X72440D02*
Y541150D01*
X47900Y400430D02*
X104500D01*
Y371730D02*
Y400430D01*
X47900Y371730D02*
X104500D01*
X47900D02*
Y400430D01*
X166660Y405509D02*
Y488571D01*
X107660Y405509D02*
X166660D01*
X107660D02*
Y488571D01*
X166660D01*
X138859Y556640D02*
X165941D01*
Y540640D02*
Y556640D01*
X138859Y540640D02*
X165941D01*
X138859D02*
Y556640D01*
X183170Y577500D02*
Y692500D01*
X60670Y577500D02*
X183170D01*
X60670D02*
Y692500D01*
X183170D01*
X459380Y752730D02*
Y781430D01*
Y752730D02*
X515980D01*
Y781430D01*
X459380D02*
X515980D01*
X374290Y752730D02*
Y781430D01*
Y752730D02*
X430890D01*
Y781430D01*
X374290D02*
X430890D01*
M02*
