G04*
G04 #@! TF.GenerationSoftware,Altium Limited,Altium Designer,22.10.1 (41)*
G04*
G04 Layer_Color=8388736*
%FSLAX44Y44*%
%MOMM*%
G71*
G04*
G04 #@! TF.SameCoordinates,15C13A22-FF6B-4AA4-AE0B-FE47445A9F5C*
G04*
G04*
G04 #@! TF.FilePolarity,Negative*
G04*
G01*
G75*
%ADD17R,0.8065X1.3082*%
%ADD19R,1.2500X1.1000*%
%ADD20R,0.6080X2.2044*%
G04:AMPARAMS|DCode=21|XSize=2.2044mm|YSize=0.608mm|CornerRadius=0.304mm|HoleSize=0mm|Usage=FLASHONLY|Rotation=270.000|XOffset=0mm|YOffset=0mm|HoleType=Round|Shape=RoundedRectangle|*
%AMROUNDEDRECTD21*
21,1,2.2044,0.0000,0,0,270.0*
21,1,1.5965,0.6080,0,0,270.0*
1,1,0.6080,0.0000,-0.7982*
1,1,0.6080,0.0000,0.7982*
1,1,0.6080,0.0000,0.7982*
1,1,0.6080,0.0000,-0.7982*
%
%ADD21ROUNDEDRECTD21*%
G04:AMPARAMS|DCode=22|XSize=1.9mm|YSize=0.6mm|CornerRadius=0.3mm|HoleSize=0mm|Usage=FLASHONLY|Rotation=270.000|XOffset=0mm|YOffset=0mm|HoleType=Round|Shape=RoundedRectangle|*
%AMROUNDEDRECTD22*
21,1,1.9000,0.0000,0,0,270.0*
21,1,1.3000,0.6000,0,0,270.0*
1,1,0.6000,0.0000,-0.6500*
1,1,0.6000,0.0000,0.6500*
1,1,0.6000,0.0000,0.6500*
1,1,0.6000,0.0000,-0.6500*
%
%ADD22ROUNDEDRECTD22*%
%ADD23R,5.6500X2.1500*%
%ADD24R,1.4000X1.6000*%
%ADD25R,1.6000X1.4000*%
%ADD26C,1.8150*%
%ADD27R,1.3930X1.3930*%
%ADD28C,1.3930*%
%ADD29R,1.5700X1.5700*%
%ADD30C,1.5700*%
%ADD31C,0.9120*%
%ADD32C,0.5564*%
%ADD33C,2.6900*%
D17*
X71120Y426720D02*
D03*
X54103D02*
D03*
X37211Y533400D02*
D03*
X54229D02*
D03*
X143891Y548640D02*
D03*
X160909D02*
D03*
D19*
X79690Y533400D02*
D03*
X103190D02*
D03*
D20*
X156210Y472549D02*
D03*
D21*
X143510D02*
D03*
X130810D02*
D03*
X118110D02*
D03*
Y421531D02*
D03*
X130810D02*
D03*
X143510D02*
D03*
X156210D02*
D03*
D22*
X172720Y682000D02*
D03*
X160020D02*
D03*
X147320D02*
D03*
X134620D02*
D03*
X121920D02*
D03*
X109220D02*
D03*
X96520D02*
D03*
X83820D02*
D03*
X71120D02*
D03*
Y588000D02*
D03*
X83820D02*
D03*
X96520D02*
D03*
X109220D02*
D03*
X121920D02*
D03*
X134620D02*
D03*
X147320D02*
D03*
X160020D02*
D03*
X172720D02*
D03*
D23*
X74420Y756920D02*
D03*
X169420D02*
D03*
D24*
X59050Y482600D02*
D03*
X42550D02*
D03*
Y457200D02*
D03*
X59050D02*
D03*
D25*
X127000Y521330D02*
D03*
Y504830D02*
D03*
X152400Y521330D02*
D03*
Y504830D02*
D03*
X213360Y723270D02*
D03*
Y739770D02*
D03*
X20320Y723270D02*
D03*
Y739770D02*
D03*
D26*
X829310Y283210D02*
D03*
X803910Y130810D02*
D03*
X473710D02*
D03*
X803910Y156210D02*
D03*
Y283210D02*
D03*
X829310Y130810D02*
D03*
X778510D02*
D03*
X765810Y252710D02*
D03*
X740410D02*
D03*
X715010D02*
D03*
X689610D02*
D03*
X664210D02*
D03*
X372110Y156210D02*
D03*
Y181610D02*
D03*
Y207010D02*
D03*
Y232410D02*
D03*
Y257810D02*
D03*
X473710Y283210D02*
D03*
X448310Y130810D02*
D03*
X422910D02*
D03*
X397510D02*
D03*
X372110D02*
D03*
X346710D02*
D03*
X321310D02*
D03*
X295910D02*
D03*
X270510D02*
D03*
X245110D02*
D03*
Y283210D02*
D03*
X270510D02*
D03*
X295910D02*
D03*
X321310D02*
D03*
X346710D02*
D03*
X372110D02*
D03*
X397510D02*
D03*
X422910D02*
D03*
X448310D02*
D03*
X753110Y130810D02*
D03*
X727710D02*
D03*
X702310D02*
D03*
X676910D02*
D03*
X651510D02*
D03*
X626110D02*
D03*
X600710D02*
D03*
X575310D02*
D03*
X549910D02*
D03*
X524510D02*
D03*
X499110D02*
D03*
Y283210D02*
D03*
X524510D02*
D03*
X549910D02*
D03*
X575310D02*
D03*
X600710D02*
D03*
X626110D02*
D03*
X651510D02*
D03*
X676910D02*
D03*
X702310D02*
D03*
X727710D02*
D03*
X753110D02*
D03*
X778510D02*
D03*
X295910Y574040D02*
D03*
X321310D02*
D03*
X346710D02*
D03*
X372110D02*
D03*
X397510D02*
D03*
X422910D02*
D03*
X448310D02*
D03*
X473710D02*
D03*
X499110D02*
D03*
X524510D02*
D03*
X549910D02*
D03*
X575310D02*
D03*
Y726440D02*
D03*
X549910D02*
D03*
X524510D02*
D03*
X499110D02*
D03*
X473710D02*
D03*
X448310D02*
D03*
X422910D02*
D03*
X397510D02*
D03*
X372110D02*
D03*
X346710D02*
D03*
X321310D02*
D03*
X626110Y574040D02*
D03*
X651510D02*
D03*
X676910D02*
D03*
X702310D02*
D03*
X727710D02*
D03*
X753110D02*
D03*
X778510D02*
D03*
X803910D02*
D03*
X829310D02*
D03*
Y726440D02*
D03*
X803910D02*
D03*
X778510D02*
D03*
X753110D02*
D03*
X727710D02*
D03*
X702310D02*
D03*
X676910D02*
D03*
X651510D02*
D03*
X626110D02*
D03*
X600710Y574040D02*
D03*
X702310Y599440D02*
D03*
Y624840D02*
D03*
Y650240D02*
D03*
Y675640D02*
D03*
Y701040D02*
D03*
X410210Y604540D02*
D03*
X384810D02*
D03*
X359410D02*
D03*
X334010D02*
D03*
X308610D02*
D03*
X295910Y726440D02*
D03*
X245110D02*
D03*
X270510Y574040D02*
D03*
Y701040D02*
D03*
X600710Y726440D02*
D03*
X270510D02*
D03*
X245110Y574040D02*
D03*
D27*
X142700Y122000D02*
D03*
D28*
Y142000D02*
D03*
Y162000D02*
D03*
Y182000D02*
D03*
Y202000D02*
D03*
Y222000D02*
D03*
Y242000D02*
D03*
Y262000D02*
D03*
Y282000D02*
D03*
Y302000D02*
D03*
Y322000D02*
D03*
Y342000D02*
D03*
X122700Y122000D02*
D03*
Y142000D02*
D03*
Y162000D02*
D03*
Y182000D02*
D03*
Y202000D02*
D03*
Y222000D02*
D03*
Y242000D02*
D03*
Y262000D02*
D03*
Y282000D02*
D03*
Y302000D02*
D03*
Y322000D02*
D03*
Y342000D02*
D03*
X102700Y122000D02*
D03*
Y142000D02*
D03*
Y162000D02*
D03*
Y182000D02*
D03*
Y202000D02*
D03*
Y222000D02*
D03*
Y242000D02*
D03*
Y262000D02*
D03*
Y282000D02*
D03*
Y302000D02*
D03*
Y322000D02*
D03*
Y342000D02*
D03*
X82700Y122000D02*
D03*
Y142000D02*
D03*
Y162000D02*
D03*
Y182000D02*
D03*
Y202000D02*
D03*
Y222000D02*
D03*
Y242000D02*
D03*
Y262000D02*
D03*
Y282000D02*
D03*
Y302000D02*
D03*
Y322000D02*
D03*
Y342000D02*
D03*
X62700Y122000D02*
D03*
Y142000D02*
D03*
Y162000D02*
D03*
Y182000D02*
D03*
Y202000D02*
D03*
Y222000D02*
D03*
Y242000D02*
D03*
Y262000D02*
D03*
Y282000D02*
D03*
Y302000D02*
D03*
Y322000D02*
D03*
Y342000D02*
D03*
D29*
X63500Y386080D02*
D03*
X474980Y767080D02*
D03*
X389890D02*
D03*
D30*
X88900Y386080D02*
D03*
X500380Y767080D02*
D03*
X415290D02*
D03*
D31*
X11430Y551180D02*
D03*
X283433Y468809D02*
D03*
X320503Y706628D02*
D03*
X449580Y419100D02*
D03*
X486410Y393700D02*
D03*
X537210Y378587D02*
D03*
Y504952D02*
D03*
X540766Y472948D02*
D03*
X484930Y744220D02*
D03*
X612140Y328930D02*
D03*
X631190Y314960D02*
D03*
X542036Y435610D02*
D03*
X456381Y590550D02*
D03*
X365760Y509016D02*
D03*
X241300Y414020D02*
D03*
X136607Y568960D02*
D03*
X353060Y454660D02*
D03*
X331470Y238760D02*
D03*
X330200Y223520D02*
D03*
X304800Y173990D02*
D03*
X162560Y127000D02*
D03*
X374918Y406160D02*
D03*
X551688Y355530D02*
D03*
X563118Y85090D02*
D03*
X179578Y405130D02*
D03*
X67564Y102108D02*
D03*
X301244Y226060D02*
D03*
X665480Y380746D02*
D03*
X655193Y379222D02*
D03*
X147320Y602742D02*
D03*
X524510Y252222D02*
D03*
X547370Y601980D02*
D03*
X765810Y368503D02*
D03*
X447294Y376428D02*
D03*
X418592Y440570D02*
D03*
X665734Y423164D02*
D03*
X425196Y481838D02*
D03*
X412496Y686054D02*
D03*
X535686Y630174D02*
D03*
X443738Y154051D02*
D03*
X627888Y189738D02*
D03*
X175260Y196596D02*
D03*
X403860Y312420D02*
D03*
X102616Y599694D02*
D03*
X248285Y395732D02*
D03*
X229843Y342392D02*
D03*
X162306Y322072D02*
D03*
X228854Y375158D02*
D03*
X386588Y377698D02*
D03*
X279146Y150876D02*
D03*
X392938Y370840D02*
D03*
X241300Y537464D02*
D03*
X92710Y253238D02*
D03*
X52578Y292100D02*
D03*
X11430Y191008D02*
D03*
X109220Y622046D02*
D03*
X135128Y537464D02*
D03*
X365760Y440690D02*
D03*
X611632Y533146D02*
D03*
X503936Y105156D02*
D03*
X103886Y97790D02*
D03*
X426595D02*
D03*
X410464Y166116D02*
D03*
X425450Y425958D02*
D03*
X440182Y400558D02*
D03*
X487426Y430530D02*
D03*
X160528Y206502D02*
D03*
X179324Y335661D02*
D03*
X228854Y326390D02*
D03*
X564388Y394462D02*
D03*
X535432Y68326D02*
D03*
D32*
X424114Y696302D02*
D03*
X711824Y221488D02*
D03*
X604520Y755650D02*
D03*
X788670Y219710D02*
D03*
X523240Y358140D02*
D03*
Y382270D02*
D03*
X525652Y406400D02*
D03*
X523240Y430530D02*
D03*
X522242Y452661D02*
D03*
X523240Y478790D02*
D03*
X473723Y204729D02*
D03*
X335280Y377190D02*
D03*
X299720Y415290D02*
D03*
X250190D02*
D03*
Y478790D02*
D03*
X106680Y546100D02*
D03*
X139700Y520700D02*
D03*
X143510Y488950D02*
D03*
X20320Y405130D02*
D03*
X35560Y317500D02*
D03*
X83820Y469900D02*
D03*
D33*
X22700Y172000D02*
D03*
Y292000D02*
D03*
M02*
