G04*
G04 #@! TF.GenerationSoftware,Altium Limited,Altium Designer,23.3.1 (30)*
G04*
G04 Layer_Color=255*
%FSLAX44Y44*%
%MOMM*%
G71*
G04*
G04 #@! TF.SameCoordinates,7DDBB174-5A1B-4199-9A96-CB190E09B0CA*
G04*
G04*
G04 #@! TF.FilePolarity,Positive*
G04*
G01*
G75*
%ADD16R,1.3500X1.0000*%
%ADD32R,1.5700X1.5700*%
%ADD33C,1.5700*%
%ADD41C,1.6650*%
%ADD42R,1.2430X1.2430*%
%ADD43C,1.2430*%
G04:AMPARAMS|DCode=49|XSize=0.6mm|YSize=1.65mm|CornerRadius=0.051mm|HoleSize=0mm|Usage=FLASHONLY|Rotation=90.000|XOffset=0mm|YOffset=0mm|HoleType=Round|Shape=RoundedRectangle|*
%AMROUNDEDRECTD49*
21,1,0.6000,1.5480,0,0,90.0*
21,1,0.4980,1.6500,0,0,90.0*
1,1,0.1020,0.7740,0.2490*
1,1,0.1020,0.7740,-0.2490*
1,1,0.1020,-0.7740,-0.2490*
1,1,0.1020,-0.7740,0.2490*
%
%ADD49ROUNDEDRECTD49*%
G04:AMPARAMS|DCode=50|XSize=0.6mm|YSize=1.65mm|CornerRadius=0.051mm|HoleSize=0mm|Usage=FLASHONLY|Rotation=180.000|XOffset=0mm|YOffset=0mm|HoleType=Round|Shape=RoundedRectangle|*
%AMROUNDEDRECTD50*
21,1,0.6000,1.5480,0,0,180.0*
21,1,0.4980,1.6500,0,0,180.0*
1,1,0.1020,-0.2490,0.7740*
1,1,0.1020,0.2490,0.7740*
1,1,0.1020,0.2490,-0.7740*
1,1,0.1020,-0.2490,-0.7740*
%
%ADD50ROUNDEDRECTD50*%
G04:AMPARAMS|DCode=51|XSize=0.65mm|YSize=1.65mm|CornerRadius=0.0488mm|HoleSize=0mm|Usage=FLASHONLY|Rotation=90.000|XOffset=0mm|YOffset=0mm|HoleType=Round|Shape=RoundedRectangle|*
%AMROUNDEDRECTD51*
21,1,0.6500,1.5525,0,0,90.0*
21,1,0.5525,1.6500,0,0,90.0*
1,1,0.0975,0.7763,0.2763*
1,1,0.0975,0.7763,-0.2763*
1,1,0.0975,-0.7763,-0.2763*
1,1,0.0975,-0.7763,0.2763*
%
%ADD51ROUNDEDRECTD51*%
%ADD52R,1.0000X1.3500*%
%ADD53R,1.1500X1.3500*%
%ADD54R,1.7000X1.1000*%
%ADD55R,1.2000X2.0000*%
D16*
X394970Y406160D02*
D03*
Y391160D02*
D03*
Y425570D02*
D03*
Y440570D02*
D03*
D32*
X63500Y386080D02*
D03*
X474980Y767080D02*
D03*
X389890D02*
D03*
D33*
X88900Y386080D02*
D03*
X500380Y767080D02*
D03*
X415290D02*
D03*
D41*
X778510Y283210D02*
D03*
X753110D02*
D03*
X727710D02*
D03*
X702310D02*
D03*
X676910D02*
D03*
X651510D02*
D03*
X626110D02*
D03*
X600710D02*
D03*
X575310D02*
D03*
X549910D02*
D03*
X524510D02*
D03*
X499110D02*
D03*
Y130810D02*
D03*
X524510D02*
D03*
X549910D02*
D03*
X575310D02*
D03*
X600710D02*
D03*
X626110D02*
D03*
X651510D02*
D03*
X676910D02*
D03*
X702310D02*
D03*
X727710D02*
D03*
X753110D02*
D03*
X448310Y283210D02*
D03*
X422910D02*
D03*
X397510D02*
D03*
X372110D02*
D03*
X346710D02*
D03*
X321310D02*
D03*
X295910D02*
D03*
X270510D02*
D03*
X245110D02*
D03*
Y130810D02*
D03*
X270510D02*
D03*
X295910D02*
D03*
X321310D02*
D03*
X346710D02*
D03*
X372110D02*
D03*
X397510D02*
D03*
X422910D02*
D03*
X448310D02*
D03*
X473710Y283210D02*
D03*
X372110Y257810D02*
D03*
Y232410D02*
D03*
Y207010D02*
D03*
Y181610D02*
D03*
Y156210D02*
D03*
X664210Y252710D02*
D03*
X689610D02*
D03*
X715010D02*
D03*
X740410D02*
D03*
X765810D02*
D03*
X778510Y130810D02*
D03*
X829310D02*
D03*
X803910Y283210D02*
D03*
Y156210D02*
D03*
X473710Y130810D02*
D03*
X803910D02*
D03*
X829310Y283210D02*
D03*
X295910Y574040D02*
D03*
X321310D02*
D03*
X346710D02*
D03*
X372110D02*
D03*
X397510D02*
D03*
X422910D02*
D03*
X448310D02*
D03*
X473710D02*
D03*
X499110D02*
D03*
X524510D02*
D03*
X549910D02*
D03*
X575310D02*
D03*
Y726440D02*
D03*
X549910D02*
D03*
X524510D02*
D03*
X499110D02*
D03*
X473710D02*
D03*
X448310D02*
D03*
X422910D02*
D03*
X397510D02*
D03*
X372110D02*
D03*
X346710D02*
D03*
X321310D02*
D03*
X626110Y574040D02*
D03*
X651510D02*
D03*
X676910D02*
D03*
X702310D02*
D03*
X727710D02*
D03*
X753110D02*
D03*
X778510D02*
D03*
X803910D02*
D03*
X829310D02*
D03*
Y726440D02*
D03*
X803910D02*
D03*
X778510D02*
D03*
X753110D02*
D03*
X727710D02*
D03*
X702310D02*
D03*
X676910D02*
D03*
X651510D02*
D03*
X626110D02*
D03*
X600710Y574040D02*
D03*
X702310Y599440D02*
D03*
Y624840D02*
D03*
Y650240D02*
D03*
Y675640D02*
D03*
Y701040D02*
D03*
X410210Y604540D02*
D03*
X384810D02*
D03*
X359410D02*
D03*
X334010D02*
D03*
X308610D02*
D03*
X295910Y726440D02*
D03*
X245110D02*
D03*
X270510Y574040D02*
D03*
Y701040D02*
D03*
X600710Y726440D02*
D03*
X270510D02*
D03*
X245110Y574040D02*
D03*
D42*
X142700Y122000D02*
D03*
D43*
Y142000D02*
D03*
Y162000D02*
D03*
Y182000D02*
D03*
Y202000D02*
D03*
Y222000D02*
D03*
Y242000D02*
D03*
Y262000D02*
D03*
Y282000D02*
D03*
Y302000D02*
D03*
Y322000D02*
D03*
Y342000D02*
D03*
X122700Y122000D02*
D03*
Y142000D02*
D03*
Y162000D02*
D03*
Y182000D02*
D03*
Y202000D02*
D03*
Y222000D02*
D03*
Y242000D02*
D03*
Y262000D02*
D03*
Y282000D02*
D03*
Y302000D02*
D03*
Y322000D02*
D03*
Y342000D02*
D03*
X102700Y122000D02*
D03*
Y142000D02*
D03*
Y162000D02*
D03*
Y182000D02*
D03*
Y202000D02*
D03*
Y222000D02*
D03*
Y242000D02*
D03*
Y262000D02*
D03*
Y282000D02*
D03*
Y302000D02*
D03*
Y322000D02*
D03*
Y342000D02*
D03*
X82700Y122000D02*
D03*
Y142000D02*
D03*
Y162000D02*
D03*
Y182000D02*
D03*
Y202000D02*
D03*
Y222000D02*
D03*
Y242000D02*
D03*
Y262000D02*
D03*
Y282000D02*
D03*
Y302000D02*
D03*
Y322000D02*
D03*
Y342000D02*
D03*
X62700Y122000D02*
D03*
Y142000D02*
D03*
Y162000D02*
D03*
Y182000D02*
D03*
Y202000D02*
D03*
Y222000D02*
D03*
Y242000D02*
D03*
Y262000D02*
D03*
Y282000D02*
D03*
Y302000D02*
D03*
Y322000D02*
D03*
Y342000D02*
D03*
D49*
X530280Y436880D02*
D03*
Y424180D02*
D03*
Y411480D02*
D03*
Y398780D02*
D03*
Y386080D02*
D03*
Y373380D02*
D03*
Y360680D02*
D03*
Y347980D02*
D03*
X457780Y436880D02*
D03*
Y424180D02*
D03*
Y411480D02*
D03*
Y398780D02*
D03*
Y386080D02*
D03*
Y373380D02*
D03*
Y360680D02*
D03*
Y347980D02*
D03*
D50*
X524510Y240720D02*
D03*
X537210D02*
D03*
X549910D02*
D03*
X562610D02*
D03*
X575310D02*
D03*
X588010D02*
D03*
X600710D02*
D03*
X613410D02*
D03*
X524510Y168220D02*
D03*
X537210D02*
D03*
X549910D02*
D03*
X562610D02*
D03*
X575310D02*
D03*
X588010D02*
D03*
X600710D02*
D03*
X613410D02*
D03*
D51*
X322890Y466090D02*
D03*
Y453390D02*
D03*
Y440690D02*
D03*
Y427990D02*
D03*
Y415290D02*
D03*
Y402590D02*
D03*
Y389890D02*
D03*
Y377190D02*
D03*
X266390Y466090D02*
D03*
Y453390D02*
D03*
Y440690D02*
D03*
Y427990D02*
D03*
Y415290D02*
D03*
Y402590D02*
D03*
Y389890D02*
D03*
Y377190D02*
D03*
D52*
X476010Y478790D02*
D03*
X461010D02*
D03*
X497840D02*
D03*
X512840D02*
D03*
X497960Y454660D02*
D03*
X512960D02*
D03*
X461130D02*
D03*
X476130D02*
D03*
D53*
X285380Y486410D02*
D03*
X270880D02*
D03*
D54*
X599530Y480530D02*
D03*
Y460530D02*
D03*
Y440530D02*
D03*
Y420530D02*
D03*
Y400530D02*
D03*
Y380530D02*
D03*
D55*
X754530Y505530D02*
D03*
X734530D02*
D03*
X714530D02*
D03*
X694530D02*
D03*
X674530D02*
D03*
X654530D02*
D03*
X634530D02*
D03*
X614530D02*
D03*
Y355530D02*
D03*
X634530D02*
D03*
X654530D02*
D03*
X674530D02*
D03*
X694530D02*
D03*
X714530D02*
D03*
X734530D02*
D03*
X754530D02*
D03*
M02*
