G04*
G04 #@! TF.GenerationSoftware,Altium Limited,Altium Designer,22.10.1 (41)*
G04*
G04 Layer_Physical_Order=1*
G04 Layer_Color=255*
%FSLAX44Y44*%
%MOMM*%
G71*
G04*
G04 #@! TF.SameCoordinates,A19658FD-F5F6-4820-ADF5-99B624B81DD5*
G04*
G04*
G04 #@! TF.FilePolarity,Positive*
G04*
G01*
G75*
%ADD15R,5.5000X2.0000*%
%ADD16R,1.2500X1.4500*%
%ADD17R,0.8065X1.3082*%
%ADD18R,1.4500X1.2500*%
%ADD19R,1.2500X1.1000*%
%ADD20R,0.6080X2.2044*%
G04:AMPARAMS|DCode=21|XSize=2.2044mm|YSize=0.608mm|CornerRadius=0.304mm|HoleSize=0mm|Usage=FLASHONLY|Rotation=270.000|XOffset=0mm|YOffset=0mm|HoleType=Round|Shape=RoundedRectangle|*
%AMROUNDEDRECTD21*
21,1,2.2044,0.0000,0,0,270.0*
21,1,1.5965,0.6080,0,0,270.0*
1,1,0.6080,0.0000,-0.7982*
1,1,0.6080,0.0000,0.7982*
1,1,0.6080,0.0000,0.7982*
1,1,0.6080,0.0000,-0.7982*
%
%ADD21ROUNDEDRECTD21*%
G04:AMPARAMS|DCode=22|XSize=1.9mm|YSize=0.6mm|CornerRadius=0.3mm|HoleSize=0mm|Usage=FLASHONLY|Rotation=270.000|XOffset=0mm|YOffset=0mm|HoleType=Round|Shape=RoundedRectangle|*
%AMROUNDEDRECTD22*
21,1,1.9000,0.0000,0,0,270.0*
21,1,1.3000,0.6000,0,0,270.0*
1,1,0.6000,0.0000,-0.6500*
1,1,0.6000,0.0000,0.6500*
1,1,0.6000,0.0000,0.6500*
1,1,0.6000,0.0000,-0.6500*
%
%ADD22ROUNDEDRECTD22*%
%ADD29R,1.5700X1.5700*%
%ADD30C,1.5700*%
%ADD34C,0.3048*%
%ADD35C,1.6650*%
%ADD36R,1.2430X1.2430*%
%ADD37C,1.2430*%
%ADD38C,0.7620*%
%ADD39C,0.4064*%
%ADD40C,2.5400*%
G36*
X846115Y3884D02*
X3884D01*
Y259673D01*
X5155Y260198D01*
X50232Y215121D01*
Y213479D01*
X48962Y212772D01*
X47543Y213360D01*
X45421D01*
X43460Y212548D01*
X41960Y211047D01*
X41148Y209087D01*
Y206965D01*
X41960Y205005D01*
X43374Y203590D01*
Y110998D01*
X43611Y109809D01*
X44285Y108800D01*
X60795Y92290D01*
X61803Y91617D01*
X62992Y91380D01*
X407552D01*
X408966Y89966D01*
X410927Y89154D01*
X413049D01*
X415009Y89966D01*
X416510Y91467D01*
X417322Y93427D01*
Y95549D01*
X416510Y97509D01*
X415009Y99010D01*
X413049Y99822D01*
X410927D01*
X408966Y99010D01*
X407552Y97596D01*
X99823D01*
X99297Y98866D01*
X99772Y99340D01*
X100584Y101301D01*
Y103283D01*
X100943Y103571D01*
X101757Y103906D01*
X103467Y102197D01*
X104475Y101523D01*
X105664Y101286D01*
X605536D01*
X606725Y101523D01*
X607733Y102197D01*
X615607Y110070D01*
X616281Y111079D01*
X616518Y112268D01*
Y125186D01*
X617788Y125527D01*
X618229Y124763D01*
X620063Y122929D01*
X622308Y121632D01*
X624813Y120961D01*
X627407D01*
X629912Y121632D01*
X632157Y122929D01*
X633991Y124763D01*
X635288Y127008D01*
X635959Y129513D01*
Y132107D01*
X635288Y134612D01*
X633991Y136857D01*
X632157Y138691D01*
X629912Y139988D01*
X627407Y140659D01*
X624813D01*
X622308Y139988D01*
X620063Y138691D01*
X618229Y136857D01*
X617788Y136093D01*
X616518Y136434D01*
Y277586D01*
X617788Y277927D01*
X618229Y277163D01*
X620063Y275329D01*
X622308Y274032D01*
X624813Y273361D01*
X627407D01*
X629912Y274032D01*
X632157Y275329D01*
X633991Y277163D01*
X635288Y279408D01*
X635959Y281913D01*
Y284507D01*
X635288Y287012D01*
X633991Y289257D01*
X632157Y291091D01*
X629912Y292388D01*
X627407Y293059D01*
X624813D01*
X622308Y292388D01*
X620063Y291091D01*
X618229Y289257D01*
X617788Y288493D01*
X616518Y288834D01*
Y310625D01*
X648373Y342481D01*
X649047Y343489D01*
X649284Y344678D01*
Y418448D01*
X650554Y418700D01*
X650798Y418111D01*
X652299Y416610D01*
X654259Y415798D01*
X656259D01*
X659832Y412225D01*
Y290612D01*
X658562Y290086D01*
X657557Y291091D01*
X655312Y292388D01*
X652807Y293059D01*
X650213D01*
X647708Y292388D01*
X645463Y291091D01*
X643629Y289257D01*
X642332Y287012D01*
X641661Y284507D01*
Y281913D01*
X642332Y279408D01*
X643629Y277163D01*
X645463Y275329D01*
X647708Y274032D01*
X650213Y273361D01*
X652807D01*
X653983Y273676D01*
X655438Y272751D01*
X655479Y272524D01*
X649313Y266357D01*
X648639Y265349D01*
X648402Y264160D01*
Y140174D01*
X647708Y139988D01*
X645463Y138691D01*
X643629Y136857D01*
X642332Y134612D01*
X641661Y132107D01*
Y129513D01*
X642332Y127008D01*
X643629Y124763D01*
X645463Y122929D01*
X647708Y121632D01*
X650213Y120961D01*
X652807D01*
X655312Y121632D01*
X657557Y122929D01*
X659391Y124763D01*
X660688Y127008D01*
X661359Y129513D01*
Y132107D01*
X660688Y134612D01*
X659391Y136857D01*
X657557Y138691D01*
X655312Y139988D01*
X654618Y140174D01*
Y247087D01*
X655888Y247427D01*
X656329Y246663D01*
X658163Y244829D01*
X660408Y243532D01*
X662913Y242861D01*
X663194D01*
Y252710D01*
Y262559D01*
X662913D01*
X660408Y261888D01*
X658163Y260591D01*
X656329Y258758D01*
X655888Y257994D01*
X654618Y258334D01*
Y262873D01*
X665137Y273393D01*
X665811Y274401D01*
X666048Y275590D01*
Y280788D01*
X667318Y280955D01*
X667732Y279408D01*
X669029Y277163D01*
X670863Y275329D01*
X673108Y274032D01*
X675613Y273361D01*
X678207D01*
X680712Y274032D01*
X682957Y275329D01*
X683962Y276334D01*
X685232Y275808D01*
Y273829D01*
X674713Y263309D01*
X674039Y262301D01*
X673802Y261112D01*
Y258334D01*
X672532Y257994D01*
X672091Y258758D01*
X670257Y260591D01*
X668012Y261888D01*
X665507Y262559D01*
X665226D01*
Y252710D01*
Y242861D01*
X665507D01*
X668012Y243532D01*
X670257Y244829D01*
X672091Y246663D01*
X672532Y247427D01*
X673802Y247087D01*
Y140174D01*
X673108Y139988D01*
X670863Y138691D01*
X669029Y136857D01*
X667732Y134612D01*
X667061Y132107D01*
Y129513D01*
X667732Y127008D01*
X669029Y124763D01*
X670863Y122929D01*
X673108Y121632D01*
X675613Y120961D01*
X678207D01*
X680712Y121632D01*
X682957Y122929D01*
X684791Y124763D01*
X686088Y127008D01*
X686759Y129513D01*
Y132107D01*
X686088Y134612D01*
X684791Y136857D01*
X682957Y138691D01*
X680712Y139988D01*
X680018Y140174D01*
Y247087D01*
X681288Y247427D01*
X681729Y246663D01*
X683563Y244829D01*
X685808Y243532D01*
X688313Y242861D01*
X688594D01*
Y252710D01*
Y262559D01*
X688313D01*
X685808Y261888D01*
X683563Y260591D01*
X681729Y258758D01*
X681288Y257994D01*
X680018Y258334D01*
Y259825D01*
X690537Y270345D01*
X691211Y271353D01*
X691448Y272542D01*
Y280788D01*
X692718Y280955D01*
X693132Y279408D01*
X694429Y277163D01*
X696263Y275329D01*
X698508Y274032D01*
X701013Y273361D01*
X703607D01*
X704212Y273523D01*
X704870Y272385D01*
X700113Y267628D01*
X699439Y266619D01*
X699202Y265430D01*
Y258334D01*
X697932Y257994D01*
X697491Y258758D01*
X695657Y260591D01*
X693412Y261888D01*
X690907Y262559D01*
X690626D01*
Y252710D01*
Y242861D01*
X690907D01*
X693412Y243532D01*
X695657Y244829D01*
X697491Y246663D01*
X697932Y247427D01*
X699202Y247087D01*
Y140174D01*
X698508Y139988D01*
X696263Y138691D01*
X694429Y136857D01*
X693132Y134612D01*
X692461Y132107D01*
Y129513D01*
X693132Y127008D01*
X694429Y124763D01*
X696263Y122929D01*
X698508Y121632D01*
X701013Y120961D01*
X703607D01*
X706112Y121632D01*
X708357Y122929D01*
X710191Y124763D01*
X711488Y127008D01*
X712159Y129513D01*
Y132107D01*
X711488Y134612D01*
X710191Y136857D01*
X708357Y138691D01*
X706112Y139988D01*
X705418Y140174D01*
Y247087D01*
X706688Y247427D01*
X707129Y246663D01*
X708963Y244829D01*
X711208Y243532D01*
X713713Y242861D01*
X716307D01*
X718812Y243532D01*
X721057Y244829D01*
X722891Y246663D01*
X724188Y248909D01*
X724859Y251413D01*
Y254007D01*
X724188Y256512D01*
X722891Y258758D01*
X721057Y260591D01*
X718812Y261888D01*
X716307Y262559D01*
X713713D01*
X711208Y261888D01*
X708963Y260591D01*
X707129Y258758D01*
X706688Y257994D01*
X705418Y258334D01*
Y264143D01*
X715938Y274662D01*
X716611Y275671D01*
X716848Y276860D01*
Y280788D01*
X718118Y280955D01*
X718532Y279408D01*
X719829Y277163D01*
X721663Y275329D01*
X723908Y274032D01*
X726413Y273361D01*
X729007D01*
X731512Y274032D01*
X733757Y275329D01*
X735591Y277163D01*
X736888Y279408D01*
X737559Y281913D01*
Y284507D01*
X736888Y287012D01*
X735591Y289257D01*
X733757Y291091D01*
X731512Y292388D01*
X729007Y293059D01*
X726413D01*
X723908Y292388D01*
X721663Y291091D01*
X719829Y289257D01*
X718532Y287012D01*
X718118Y285465D01*
X716848Y285632D01*
Y345186D01*
X716611Y346375D01*
X715938Y347383D01*
X706688Y356633D01*
Y360630D01*
X707080Y360897D01*
X707958Y361117D01*
X717419Y351656D01*
X718427Y350982D01*
X719616Y350746D01*
X731979D01*
X795091Y287634D01*
X794732Y287012D01*
X794061Y284507D01*
Y281913D01*
X794732Y279408D01*
X796029Y277163D01*
X797863Y275329D01*
X800108Y274032D01*
X802613Y273361D01*
X805207D01*
X807712Y274032D01*
X809957Y275329D01*
X810962Y276334D01*
X812232Y275808D01*
Y242587D01*
X763613Y193967D01*
X762939Y192959D01*
X762702Y191770D01*
Y136434D01*
X761432Y136093D01*
X760991Y136857D01*
X759157Y138691D01*
X756912Y139988D01*
X754407Y140659D01*
X751813D01*
X749308Y139988D01*
X747063Y138691D01*
X745229Y136857D01*
X743932Y134612D01*
X743261Y132107D01*
Y129513D01*
X743932Y127008D01*
X745229Y124763D01*
X747063Y122929D01*
X749308Y121632D01*
X751813Y120961D01*
X754407D01*
X756912Y121632D01*
X759157Y122929D01*
X760991Y124763D01*
X761432Y125527D01*
X762702Y125186D01*
Y113656D01*
X761288Y112241D01*
X760476Y110281D01*
Y108159D01*
X761288Y106199D01*
X762788Y104698D01*
X764749Y103886D01*
X766871D01*
X768831Y104698D01*
X770332Y106199D01*
X771144Y108159D01*
Y110281D01*
X770332Y112241D01*
X768918Y113656D01*
Y125186D01*
X770188Y125527D01*
X770629Y124763D01*
X772463Y122929D01*
X774708Y121632D01*
X777213Y120961D01*
X779807D01*
X782312Y121632D01*
X784557Y122929D01*
X786391Y124763D01*
X787688Y127008D01*
X788359Y129513D01*
Y132107D01*
X787688Y134612D01*
X786391Y136857D01*
X784557Y138691D01*
X782312Y139988D01*
X779807Y140659D01*
X777213D01*
X774708Y139988D01*
X772463Y138691D01*
X770629Y136857D01*
X770188Y136093D01*
X768918Y136434D01*
Y190483D01*
X817538Y239102D01*
X818211Y240111D01*
X818448Y241300D01*
Y280788D01*
X819718Y280955D01*
X820132Y279408D01*
X821429Y277163D01*
X823263Y275329D01*
X825508Y274032D01*
X828013Y273361D01*
X828294D01*
Y283210D01*
Y293059D01*
X828013D01*
X825508Y292388D01*
X823263Y291091D01*
X821429Y289257D01*
X820132Y287012D01*
X819718Y285465D01*
X818448Y285632D01*
Y328422D01*
X818211Y329611D01*
X817538Y330620D01*
X806870Y341287D01*
X805861Y341961D01*
X804672Y342198D01*
X764303D01*
X756218Y350283D01*
Y564676D01*
X756912Y564862D01*
X759157Y566159D01*
X760991Y567993D01*
X762288Y570238D01*
X762959Y572743D01*
Y575337D01*
X762288Y577842D01*
X760991Y580087D01*
X759157Y581921D01*
X756912Y583218D01*
X754407Y583889D01*
X751813D01*
X749308Y583218D01*
X747063Y581921D01*
X745229Y580087D01*
X743932Y577842D01*
X743518Y576295D01*
X742248Y576462D01*
Y581152D01*
X742011Y582341D01*
X741338Y583349D01*
X735750Y588937D01*
X734741Y589611D01*
X733552Y589848D01*
X707934D01*
X707593Y591118D01*
X708357Y591559D01*
X710191Y593393D01*
X711488Y595638D01*
X712159Y598143D01*
Y600737D01*
X711488Y603242D01*
X710191Y605487D01*
X708357Y607321D01*
X706112Y608618D01*
X703607Y609289D01*
X701013D01*
X698508Y608618D01*
X696263Y607321D01*
X694429Y605487D01*
X693132Y603242D01*
X692461Y600737D01*
Y598143D01*
X693132Y595638D01*
X694429Y593393D01*
X696263Y591559D01*
X697027Y591118D01*
X696686Y589848D01*
X667529D01*
X654618Y602759D01*
Y717076D01*
X655312Y717262D01*
X657557Y718559D01*
X659391Y720393D01*
X660688Y722638D01*
X661359Y725143D01*
Y727737D01*
X660688Y730242D01*
X659391Y732487D01*
X658386Y733492D01*
X658912Y734762D01*
X669508D01*
X670034Y733492D01*
X669029Y732487D01*
X667732Y730242D01*
X667061Y727737D01*
Y725143D01*
X667732Y722638D01*
X669029Y720393D01*
X670863Y718559D01*
X673108Y717262D01*
X675613Y716591D01*
X678207D01*
X680712Y717262D01*
X682957Y718559D01*
X684791Y720393D01*
X686088Y722638D01*
X686759Y725143D01*
Y727737D01*
X686088Y730242D01*
X684791Y732487D01*
X683786Y733492D01*
X684312Y734762D01*
X694908D01*
X695434Y733492D01*
X694429Y732487D01*
X693132Y730242D01*
X692461Y727737D01*
Y725143D01*
X693132Y722638D01*
X694429Y720393D01*
X696263Y718559D01*
X698508Y717262D01*
X701013Y716591D01*
X703607D01*
X706112Y717262D01*
X708357Y718559D01*
X710191Y720393D01*
X711488Y722638D01*
X712159Y725143D01*
Y727737D01*
X711488Y730242D01*
X710191Y732487D01*
X709186Y733492D01*
X709712Y734762D01*
X714993D01*
X718891Y730864D01*
X718532Y730242D01*
X717861Y727737D01*
Y725143D01*
X718532Y722638D01*
X719829Y720393D01*
X721663Y718559D01*
X723908Y717262D01*
X726413Y716591D01*
X729007D01*
X731512Y717262D01*
X733757Y718559D01*
X735591Y720393D01*
X736888Y722638D01*
X737559Y725143D01*
Y727737D01*
X736888Y730242D01*
X735591Y732487D01*
X733757Y734321D01*
X731512Y735618D01*
X729007Y736289D01*
X726413D01*
X723908Y735618D01*
X723286Y735259D01*
X718477Y740068D01*
X717469Y740741D01*
X716280Y740978D01*
X617728D01*
X616539Y740741D01*
X615531Y740068D01*
X609943Y734480D01*
X609323Y733552D01*
X609216Y733459D01*
X607913Y733166D01*
X606757Y734321D01*
X604512Y735618D01*
X602007Y736289D01*
X601726D01*
Y726440D01*
Y716591D01*
X602007D01*
X604512Y717262D01*
X606757Y718559D01*
X607762Y719564D01*
X609032Y719038D01*
Y707136D01*
X609269Y705947D01*
X609943Y704939D01*
X623002Y691879D01*
Y590124D01*
X623239Y588935D01*
X623913Y587927D01*
X626680Y585159D01*
X626154Y583889D01*
X624813D01*
X622308Y583218D01*
X620063Y581921D01*
X619058Y580916D01*
X617788Y581442D01*
Y687070D01*
X617551Y688259D01*
X616878Y689268D01*
X584129Y722016D01*
X584488Y722638D01*
X585159Y725143D01*
Y727737D01*
X584488Y730242D01*
X583191Y732487D01*
X581357Y734321D01*
X579112Y735618D01*
X576607Y736289D01*
X574013D01*
X571508Y735618D01*
X569263Y734321D01*
X567429Y732487D01*
X566132Y730242D01*
X565718Y728695D01*
X564448Y728862D01*
Y737870D01*
X564211Y739059D01*
X563537Y740068D01*
X545249Y758355D01*
X544241Y759029D01*
X543052Y759266D01*
X507619D01*
X507093Y760536D01*
X507881Y761324D01*
X509115Y763462D01*
X509754Y765846D01*
Y766064D01*
X491006D01*
Y765846D01*
X491645Y763462D01*
X492879Y761324D01*
X493667Y760536D01*
X493141Y759266D01*
X487189D01*
X484354Y762101D01*
Y776454D01*
X465606D01*
Y757706D01*
X479959D01*
X483704Y753960D01*
X484713Y753287D01*
X485902Y753050D01*
X541765D01*
X558232Y736583D01*
Y733842D01*
X556962Y733316D01*
X555957Y734321D01*
X553712Y735618D01*
X551207Y736289D01*
X548613D01*
X546108Y735618D01*
X543863Y734321D01*
X542029Y732487D01*
X540732Y730242D01*
X540318Y728695D01*
X539048Y728862D01*
Y731520D01*
X538811Y732709D01*
X538138Y733717D01*
X531787Y740068D01*
X530779Y740741D01*
X529590Y740978D01*
X434340D01*
X433151Y740741D01*
X432142Y740068D01*
X427334Y735259D01*
X426712Y735618D01*
X424207Y736289D01*
X421613D01*
X419108Y735618D01*
X416863Y734321D01*
X415029Y732487D01*
X413732Y730242D01*
X413061Y727737D01*
Y725143D01*
X413732Y722638D01*
X415029Y720393D01*
X416863Y718559D01*
X419108Y717262D01*
X421613Y716591D01*
X424207D01*
X426712Y717262D01*
X427334Y717621D01*
X433772Y711183D01*
Y576462D01*
X432502Y576295D01*
X432088Y577842D01*
X430791Y580087D01*
X428957Y581921D01*
X426712Y583218D01*
X424207Y583889D01*
X421613D01*
X419108Y583218D01*
X416863Y581921D01*
X415029Y580087D01*
X413732Y577842D01*
X413318Y576295D01*
X412048Y576462D01*
Y585470D01*
X411811Y586659D01*
X411138Y587668D01*
X399348Y599457D01*
Y602118D01*
X400618Y602285D01*
X401032Y600738D01*
X402329Y598492D01*
X404163Y596659D01*
X406408Y595362D01*
X408913Y594691D01*
X409194D01*
Y604540D01*
Y614389D01*
X408913D01*
X406408Y613718D01*
X404163Y612421D01*
X402329Y610587D01*
X401032Y608341D01*
X400618Y606795D01*
X399348Y606962D01*
Y702310D01*
X399111Y703499D01*
X398438Y704508D01*
X380929Y722016D01*
X381288Y722638D01*
X381959Y725143D01*
Y727737D01*
X381288Y730242D01*
X379991Y732487D01*
X378157Y734321D01*
X375912Y735618D01*
X373407Y736289D01*
X370813D01*
X368308Y735618D01*
X366063Y734321D01*
X364229Y732487D01*
X362932Y730242D01*
X362261Y727737D01*
Y725143D01*
X362932Y722638D01*
X364229Y720393D01*
X366063Y718559D01*
X368308Y717262D01*
X370813Y716591D01*
X373407D01*
X375912Y717262D01*
X376534Y717621D01*
X393132Y701023D01*
Y611942D01*
X391862Y611416D01*
X390857Y612421D01*
X388612Y613718D01*
X386107Y614389D01*
X385826D01*
Y604540D01*
Y594691D01*
X386107D01*
X388612Y595362D01*
X390857Y596659D01*
X391926Y597727D01*
X393304Y597309D01*
X393369Y596981D01*
X394043Y595973D01*
X405832Y584183D01*
Y581442D01*
X404562Y580916D01*
X403557Y581921D01*
X401312Y583218D01*
X398807Y583889D01*
X396213D01*
X393708Y583218D01*
X391463Y581921D01*
X389696Y580154D01*
X389257Y580187D01*
X388426Y580410D01*
Y583692D01*
X388189Y584881D01*
X387515Y585890D01*
X377304Y596101D01*
X377341Y596285D01*
X378719Y596703D01*
X378763Y596659D01*
X381008Y595362D01*
X383513Y594691D01*
X383794D01*
Y604540D01*
Y614389D01*
X383513D01*
X381008Y613718D01*
X378763Y612421D01*
X377758Y611416D01*
X376488Y611942D01*
Y699770D01*
X376251Y700959D01*
X375578Y701967D01*
X355529Y722016D01*
X355888Y722638D01*
X356559Y725143D01*
Y727737D01*
X355888Y730242D01*
X354591Y732487D01*
X352757Y734321D01*
X350512Y735618D01*
X348007Y736289D01*
X345413D01*
X342908Y735618D01*
X340663Y734321D01*
X338829Y732487D01*
X337532Y730242D01*
X336861Y727737D01*
Y725143D01*
X337532Y722638D01*
X338829Y720393D01*
X340663Y718559D01*
X342908Y717262D01*
X345413Y716591D01*
X348007D01*
X350512Y717262D01*
X351134Y717621D01*
X370272Y698483D01*
Y606962D01*
X369002Y606795D01*
X368588Y608341D01*
X367291Y610587D01*
X365457Y612421D01*
X363212Y613718D01*
X360707Y614389D01*
X358113D01*
X355608Y613718D01*
X353363Y612421D01*
X352358Y611416D01*
X351088Y611942D01*
Y679840D01*
X352502Y681255D01*
X353314Y683215D01*
Y685337D01*
X352502Y687298D01*
X351002Y688798D01*
X349041Y689610D01*
X346919D01*
X344958Y688798D01*
X343458Y687298D01*
X342646Y685337D01*
Y683215D01*
X343458Y681255D01*
X344872Y679840D01*
Y606962D01*
X343602Y606795D01*
X343188Y608341D01*
X341891Y610587D01*
X340057Y612421D01*
X337812Y613718D01*
X335307Y614389D01*
X332713D01*
X330208Y613718D01*
X327963Y612421D01*
X326129Y610587D01*
X324832Y608341D01*
X324161Y605836D01*
Y603243D01*
X324832Y600738D01*
X326129Y598492D01*
X327963Y596659D01*
X330208Y595362D01*
X332713Y594691D01*
X335307D01*
X337812Y595362D01*
X340057Y596659D01*
X341891Y598492D01*
X343188Y600738D01*
X343602Y602285D01*
X344872Y602118D01*
Y599440D01*
X345109Y598251D01*
X345783Y597243D01*
X357318Y585707D01*
Y577410D01*
X356048Y577243D01*
X355888Y577842D01*
X354591Y580087D01*
X352757Y581921D01*
X350512Y583218D01*
X348007Y583889D01*
X345413D01*
X342908Y583218D01*
X340663Y581921D01*
X338829Y580087D01*
X337532Y577842D01*
X337118Y576295D01*
X335848Y576462D01*
Y585470D01*
X335611Y586659D01*
X334938Y587668D01*
X327318Y595288D01*
X326309Y595961D01*
X325120Y596198D01*
X315993D01*
X315466Y597468D01*
X316491Y598492D01*
X317788Y600738D01*
X318459Y603243D01*
Y605836D01*
X317788Y608341D01*
X316491Y610587D01*
X314657Y612421D01*
X312412Y613718D01*
X309907Y614389D01*
X307313D01*
X304808Y613718D01*
X302563Y612421D01*
X301558Y611416D01*
X300288Y611942D01*
Y684412D01*
X301702Y685826D01*
X302514Y687787D01*
Y689909D01*
X301702Y691870D01*
X300201Y693370D01*
X298241Y694182D01*
X296119D01*
X294158Y693370D01*
X292658Y691870D01*
X291846Y689909D01*
Y687787D01*
X292658Y685826D01*
X294072Y684412D01*
Y597408D01*
X294309Y596219D01*
X294982Y595210D01*
X299300Y590892D01*
X300309Y590219D01*
X301498Y589982D01*
X303108D01*
X303835Y588712D01*
X303755Y588578D01*
X290322D01*
X289133Y588341D01*
X288125Y587668D01*
X280109Y579652D01*
X278632Y579670D01*
X278391Y580087D01*
X276557Y581921D01*
X274312Y583218D01*
X271807Y583889D01*
X269213D01*
X266708Y583218D01*
X264463Y581921D01*
X262629Y580087D01*
X261332Y577842D01*
X260661Y575337D01*
Y572743D01*
X261332Y570238D01*
X262629Y567993D01*
X264463Y566159D01*
X266708Y564862D01*
X269213Y564191D01*
X271807D01*
X274312Y564862D01*
X276557Y566159D01*
X277562Y567164D01*
X278832Y566638D01*
Y553991D01*
X242913Y518072D01*
X242239Y517063D01*
X242002Y515874D01*
Y471177D01*
X240732Y470925D01*
X240571Y471315D01*
X239070Y472815D01*
X237110Y473627D01*
X235110D01*
X166465Y542272D01*
Y556705D01*
X164016D01*
Y561069D01*
X174918Y571970D01*
X175591Y572978D01*
X175828Y574168D01*
Y578135D01*
X175982Y578238D01*
X176982Y579735D01*
X177333Y581500D01*
Y594500D01*
X176982Y596265D01*
X175982Y597761D01*
X175828Y597864D01*
Y615933D01*
X226607Y666712D01*
X226607Y666712D01*
X247307Y687412D01*
X247981Y688421D01*
X248218Y689610D01*
Y717076D01*
X248912Y717262D01*
X251157Y718559D01*
X252991Y720393D01*
X254288Y722638D01*
X254959Y725143D01*
Y727737D01*
X254288Y730242D01*
X252991Y732487D01*
X251157Y734321D01*
X248912Y735618D01*
X246407Y736289D01*
X243813D01*
X241308Y735618D01*
X239063Y734321D01*
X237229Y732487D01*
X235932Y730242D01*
X235261Y727737D01*
Y725143D01*
X235932Y722638D01*
X237229Y720393D01*
X239063Y718559D01*
X241308Y717262D01*
X242002Y717076D01*
Y690897D01*
X224409Y673304D01*
X172885Y724827D01*
X171877Y725501D01*
X170688Y725738D01*
X130048D01*
X128859Y725501D01*
X127851Y724827D01*
X113626Y710603D01*
X112953Y709595D01*
X112716Y708406D01*
Y693132D01*
X111446Y692454D01*
X110985Y692762D01*
X109220Y693113D01*
X107455Y692762D01*
X105958Y691762D01*
X104958Y690265D01*
X104607Y688500D01*
Y675500D01*
X104958Y673735D01*
X105958Y672239D01*
X107455Y671239D01*
X109220Y670888D01*
X110708Y671183D01*
X111675Y670716D01*
X112056Y670426D01*
X112139Y669746D01*
X35014Y592621D01*
X34340Y591613D01*
X34104Y590424D01*
Y541465D01*
X31655D01*
Y525335D01*
X34104D01*
Y510545D01*
X34340Y509355D01*
X35014Y508347D01*
X39442Y503919D01*
Y491374D01*
X34776D01*
Y473826D01*
X39442D01*
Y465974D01*
X34776D01*
Y448426D01*
X35340D01*
Y301008D01*
X34376Y300749D01*
X34070Y300745D01*
X31434Y303382D01*
X28190Y305255D01*
X24573Y306224D01*
X20827D01*
X17210Y305255D01*
X13966Y303382D01*
X11318Y300734D01*
X11193Y300516D01*
X9966Y300845D01*
Y441578D01*
X11087Y442700D01*
X11761Y443708D01*
X11998Y444897D01*
Y621674D01*
X13412Y623088D01*
X14224Y625049D01*
Y627171D01*
X13412Y629132D01*
X11911Y630632D01*
X9951Y631444D01*
X7829D01*
X5868Y630632D01*
X5155Y629918D01*
X3884Y630444D01*
Y846115D01*
X846115D01*
Y3884D01*
D02*
G37*
G36*
X532832Y719038D02*
Y686054D01*
X533069Y684865D01*
X533742Y683857D01*
X584902Y632697D01*
Y579664D01*
X583632Y579323D01*
X583191Y580087D01*
X581357Y581921D01*
X579112Y583218D01*
X576607Y583889D01*
X574013D01*
X571508Y583218D01*
X570886Y582859D01*
X568512Y585233D01*
Y641041D01*
X568275Y642230D01*
X567602Y643239D01*
X534897Y675944D01*
Y677944D01*
X534085Y679904D01*
X532584Y681404D01*
X530624Y682217D01*
X528502D01*
X526541Y681404D01*
X525041Y679904D01*
X524229Y677944D01*
Y675822D01*
X525041Y673861D01*
X526541Y672361D01*
X528502Y671549D01*
X530502D01*
X562296Y639754D01*
Y593108D01*
X561123Y592622D01*
X558204Y595541D01*
X557195Y596215D01*
X556006Y596452D01*
X545338D01*
X544149Y596215D01*
X543140Y595541D01*
X535013Y587413D01*
X534339Y586405D01*
X534102Y585216D01*
Y579664D01*
X532832Y579323D01*
X532391Y580087D01*
X530557Y581921D01*
X528312Y583218D01*
X525807Y583889D01*
X523213D01*
X520708Y583218D01*
X518463Y581921D01*
X517458Y580916D01*
X516188Y581442D01*
Y683142D01*
X517602Y684557D01*
X518414Y686517D01*
Y688639D01*
X517602Y690600D01*
X516101Y692100D01*
X514141Y692912D01*
X512019D01*
X510059Y692100D01*
X508558Y690600D01*
X507746Y688639D01*
Y686517D01*
X508558Y684557D01*
X509972Y683142D01*
Y576462D01*
X508702Y576295D01*
X508288Y577842D01*
X506991Y580087D01*
X505157Y581921D01*
X502912Y583218D01*
X500407Y583889D01*
X497813D01*
X495308Y583218D01*
X493063Y581921D01*
X492058Y580916D01*
X490788Y581442D01*
Y688323D01*
X520086Y717621D01*
X520708Y717262D01*
X523213Y716591D01*
X525807D01*
X528312Y717262D01*
X530557Y718559D01*
X531562Y719564D01*
X532832Y719038D01*
D02*
G37*
G36*
X517634Y733492D02*
X516629Y732487D01*
X515332Y730242D01*
X514661Y727737D01*
Y725143D01*
X515332Y722638D01*
X515691Y722016D01*
X485482Y691807D01*
X484809Y690799D01*
X484572Y689610D01*
Y576462D01*
X483302Y576295D01*
X482888Y577842D01*
X481591Y580087D01*
X479757Y581921D01*
X477512Y583218D01*
X475007Y583889D01*
X472413D01*
X469908Y583218D01*
X467663Y581921D01*
X465829Y580087D01*
X464532Y577842D01*
X464118Y576295D01*
X462848Y576462D01*
Y711183D01*
X469286Y717621D01*
X469908Y717262D01*
X472413Y716591D01*
X475007D01*
X477512Y717262D01*
X479757Y718559D01*
X481591Y720393D01*
X482888Y722638D01*
X483559Y725143D01*
Y727737D01*
X482888Y730242D01*
X481591Y732487D01*
X480586Y733492D01*
X481112Y734762D01*
X491708D01*
X492234Y733492D01*
X491229Y732487D01*
X489932Y730242D01*
X489261Y727737D01*
Y725143D01*
X489932Y722638D01*
X491229Y720393D01*
X493063Y718559D01*
X495308Y717262D01*
X497813Y716591D01*
X500407D01*
X502912Y717262D01*
X505157Y718559D01*
X506991Y720393D01*
X508288Y722638D01*
X508959Y725143D01*
Y727737D01*
X508288Y730242D01*
X506991Y732487D01*
X505986Y733492D01*
X506512Y734762D01*
X517108D01*
X517634Y733492D01*
D02*
G37*
G36*
X466834D02*
X465829Y732487D01*
X464532Y730242D01*
X463861Y727737D01*
Y725143D01*
X464532Y722638D01*
X464891Y722016D01*
X457542Y714668D01*
X456869Y713659D01*
X456632Y712470D01*
Y581442D01*
X455362Y580916D01*
X454357Y581921D01*
X452112Y583218D01*
X449607Y583889D01*
X447013D01*
X444508Y583218D01*
X442263Y581921D01*
X441258Y580916D01*
X439988Y581442D01*
Y712470D01*
X439751Y713659D01*
X439077Y714668D01*
X431729Y722016D01*
X432088Y722638D01*
X432759Y725143D01*
Y727737D01*
X432088Y730242D01*
X431729Y730864D01*
X435627Y734762D01*
X440908D01*
X441434Y733492D01*
X440429Y732487D01*
X439132Y730242D01*
X438461Y727737D01*
Y725143D01*
X439132Y722638D01*
X440429Y720393D01*
X442263Y718559D01*
X444508Y717262D01*
X447013Y716591D01*
X449607D01*
X452112Y717262D01*
X454357Y718559D01*
X456191Y720393D01*
X457488Y722638D01*
X458159Y725143D01*
Y727737D01*
X457488Y730242D01*
X456191Y732487D01*
X455186Y733492D01*
X455712Y734762D01*
X466308D01*
X466834Y733492D01*
D02*
G37*
G36*
X220014Y668909D02*
X170522Y619417D01*
X170494Y619374D01*
X169224Y619760D01*
Y625331D01*
X174918Y631025D01*
X175591Y632033D01*
X175828Y633222D01*
Y672136D01*
X175982Y672239D01*
X176982Y673735D01*
X177333Y675500D01*
Y688500D01*
X176982Y690265D01*
X175982Y691762D01*
X174485Y692762D01*
X172720Y693113D01*
X170955Y692762D01*
X169458Y691762D01*
X168458Y690265D01*
X168107Y688500D01*
Y675500D01*
X168458Y673735D01*
X169458Y672239D01*
X169612Y672136D01*
Y647635D01*
X168402Y647491D01*
X167590Y649452D01*
X166089Y650952D01*
X164129Y651764D01*
X162147D01*
X161859Y652123D01*
X161524Y652937D01*
X162218Y653631D01*
X162891Y654639D01*
X163128Y655828D01*
Y672136D01*
X163282Y672239D01*
X164282Y673735D01*
X164633Y675500D01*
Y688500D01*
X164282Y690265D01*
X163282Y691762D01*
X161785Y692762D01*
X160020Y693113D01*
X158255Y692762D01*
X156758Y691762D01*
X155758Y690265D01*
X155407Y688500D01*
Y675500D01*
X155758Y673735D01*
X156758Y672239D01*
X156912Y672136D01*
Y657115D01*
X113626Y613829D01*
X112953Y612821D01*
X112716Y611632D01*
Y599132D01*
X111446Y598453D01*
X110985Y598761D01*
X109220Y599112D01*
X107455Y598761D01*
X105958Y597761D01*
X104958Y596265D01*
X104607Y594500D01*
Y581500D01*
X104958Y579735D01*
X105958Y578238D01*
X106112Y578135D01*
Y568215D01*
X91529Y553632D01*
X90855Y552623D01*
X90618Y551434D01*
Y463296D01*
X90855Y462107D01*
X91529Y461099D01*
X101596Y451031D01*
X101110Y449858D01*
X66824D01*
Y456184D01*
X60066D01*
Y448426D01*
X61626D01*
X62112Y447253D01*
X51905Y437047D01*
X51232Y436038D01*
X50995Y434849D01*
Y434785D01*
X48547D01*
Y418655D01*
X57880D01*
X58406Y417385D01*
X45939Y404918D01*
X45842Y404772D01*
X45708Y404659D01*
X45508Y404272D01*
X45266Y403910D01*
X45231Y403738D01*
X45151Y403582D01*
X43492Y397832D01*
X42799Y397448D01*
X41556Y398090D01*
Y448426D01*
X50324D01*
Y448426D01*
X51276D01*
Y448426D01*
X58034D01*
Y457200D01*
Y465974D01*
X51276D01*
Y465974D01*
X50324D01*
Y465974D01*
X45658D01*
Y473826D01*
X50006D01*
X50324Y473826D01*
X51276D01*
X51594Y473826D01*
X58034D01*
Y482600D01*
Y491374D01*
X51594D01*
X51276Y491374D01*
X50324D01*
X50006Y491374D01*
X45658D01*
Y505206D01*
X45421Y506395D01*
X44748Y507403D01*
X40319Y511832D01*
Y525335D01*
X42768D01*
Y541465D01*
X40319D01*
Y589136D01*
X118021Y666839D01*
X118695Y667847D01*
X118932Y669036D01*
Y670578D01*
X119976Y671255D01*
X120202Y671229D01*
X121920Y670888D01*
X123685Y671239D01*
X125182Y672239D01*
X126181Y673735D01*
X126533Y675500D01*
Y688500D01*
X126181Y690265D01*
X125182Y691762D01*
X123685Y692762D01*
X121920Y693113D01*
X120202Y692771D01*
X119976Y692745D01*
X118932Y693423D01*
Y707119D01*
X131335Y719522D01*
X169401D01*
X220014Y668909D01*
D02*
G37*
G36*
X644634Y733492D02*
X643629Y732487D01*
X642332Y730242D01*
X641661Y727737D01*
Y725143D01*
X642332Y722638D01*
X643629Y720393D01*
X645463Y718559D01*
X647708Y717262D01*
X648402Y717076D01*
Y601824D01*
X647521Y601325D01*
X647165Y601265D01*
X640648Y607782D01*
Y715010D01*
X640411Y716199D01*
X639738Y717207D01*
X634929Y722016D01*
X635288Y722638D01*
X635959Y725143D01*
Y727737D01*
X635288Y730242D01*
X633991Y732487D01*
X632986Y733492D01*
X633512Y734762D01*
X644108D01*
X644634Y733492D01*
D02*
G37*
G36*
X151495Y641112D02*
X150876Y639617D01*
Y637617D01*
X132423Y619164D01*
X131749Y618155D01*
X131512Y616966D01*
Y597864D01*
X131358Y597761D01*
X130358Y596265D01*
X130007Y594500D01*
Y581500D01*
X130358Y579735D01*
X131358Y578238D01*
X132855Y577238D01*
X134620Y576887D01*
X136385Y577238D01*
X137882Y578238D01*
X138882Y579735D01*
X139233Y581500D01*
Y594500D01*
X138882Y596265D01*
X137882Y597761D01*
X137728Y597864D01*
Y615679D01*
X154942Y632893D01*
X155686Y632793D01*
X156140Y631451D01*
X145122Y620434D01*
X144449Y619425D01*
X144212Y618236D01*
Y597864D01*
X144058Y597761D01*
X143059Y596265D01*
X142707Y594500D01*
Y581500D01*
X143059Y579735D01*
X144058Y578238D01*
X145555Y577238D01*
X147320Y576887D01*
X149085Y577238D01*
X150582Y578238D01*
X151581Y579735D01*
X151933Y581500D01*
Y594500D01*
X151581Y596265D01*
X150582Y597761D01*
X150428Y597864D01*
Y616949D01*
X162586Y629107D01*
X163572Y628297D01*
X163245Y627807D01*
X163008Y626618D01*
Y599422D01*
X161964Y598745D01*
X161738Y598771D01*
X160020Y599112D01*
X158255Y598761D01*
X156758Y597761D01*
X155758Y596265D01*
X155407Y594500D01*
Y581500D01*
X155543Y580816D01*
X141694Y566967D01*
X141020Y565959D01*
X140784Y564770D01*
Y556705D01*
X138335D01*
Y540575D01*
X149292D01*
Y539496D01*
X149529Y538307D01*
X150203Y537299D01*
X157224Y530277D01*
X156738Y529104D01*
X153416D01*
Y521330D01*
X152400D01*
Y520314D01*
X143626D01*
Y513556D01*
X143626D01*
Y512604D01*
X143626D01*
Y507938D01*
X135774D01*
Y512286D01*
X135774Y512604D01*
Y513556D01*
X135774Y513874D01*
Y520314D01*
X118226D01*
Y513874D01*
X118226Y513556D01*
Y512604D01*
X118226Y512286D01*
Y503374D01*
X116956Y502695D01*
X116954Y502696D01*
Y553143D01*
X117542Y553591D01*
X118812Y552962D01*
Y547414D01*
X119049Y546224D01*
X119722Y545216D01*
X120254Y544685D01*
X120138Y544403D01*
Y542281D01*
X120949Y540321D01*
X122450Y538820D01*
X124410Y538008D01*
X126532D01*
X128493Y538820D01*
X129993Y540321D01*
X130806Y542281D01*
Y544403D01*
X129993Y546364D01*
X128493Y547864D01*
X126532Y548676D01*
X125052D01*
X125028Y548701D01*
Y578135D01*
X125182Y578238D01*
X126181Y579735D01*
X126533Y581500D01*
Y594500D01*
X126181Y596265D01*
X125182Y597761D01*
X123685Y598761D01*
X121920Y599112D01*
X120202Y598771D01*
X119976Y598745D01*
X118932Y599422D01*
Y610345D01*
X150419Y641832D01*
X151495Y641112D01*
D02*
G37*
G36*
X616932Y722638D02*
X618229Y720393D01*
X620063Y718559D01*
X622308Y717262D01*
X624813Y716591D01*
X627407D01*
X629912Y717262D01*
X630534Y717621D01*
X634432Y713723D01*
Y606495D01*
X634669Y605306D01*
X635342Y604298D01*
X655033Y584607D01*
X654375Y583469D01*
X652807Y583889D01*
X650213D01*
X647708Y583218D01*
X645463Y581921D01*
X643629Y580087D01*
X642332Y577842D01*
X641861Y576082D01*
X640591Y576250D01*
Y578751D01*
X640354Y579940D01*
X639681Y580949D01*
X629218Y591412D01*
Y693166D01*
X628981Y694355D01*
X628307Y695363D01*
X615248Y708423D01*
Y724018D01*
X616518Y724185D01*
X616932Y722638D01*
D02*
G37*
G36*
X329632Y584183D02*
Y581442D01*
X328362Y580916D01*
X327357Y581921D01*
X325112Y583218D01*
X322607Y583889D01*
X320013D01*
X317508Y583218D01*
X315263Y581921D01*
X313429Y580087D01*
X312132Y577842D01*
X311461Y575337D01*
Y572743D01*
X312132Y570238D01*
X312491Y569616D01*
X249391Y506516D01*
X248218Y507002D01*
Y514587D01*
X284137Y550507D01*
X284811Y551515D01*
X285048Y552704D01*
Y571618D01*
X286318Y571785D01*
X286732Y570238D01*
X288029Y567993D01*
X289863Y566159D01*
X292108Y564862D01*
X294613Y564191D01*
X297207D01*
X299712Y564862D01*
X301957Y566159D01*
X303791Y567993D01*
X305088Y570238D01*
X305759Y572743D01*
Y575337D01*
X305088Y577842D01*
X303791Y580087D01*
X302786Y581092D01*
X303312Y582362D01*
X306206D01*
X306859Y581710D01*
X308819Y580898D01*
X310941D01*
X312901Y581710D01*
X314402Y583210D01*
X315214Y585171D01*
Y587293D01*
X314626Y588712D01*
X315333Y589982D01*
X323833D01*
X329632Y584183D01*
D02*
G37*
G36*
X540732Y722638D02*
X542029Y720393D01*
X543863Y718559D01*
X546108Y717262D01*
X548613Y716591D01*
X551207D01*
X553712Y717262D01*
X555957Y718559D01*
X556962Y719564D01*
X558232Y719038D01*
Y693928D01*
X558469Y692739D01*
X559142Y691730D01*
X597602Y653271D01*
Y583404D01*
X596908Y583218D01*
X594663Y581921D01*
X592829Y580087D01*
X592388Y579323D01*
X591118Y579664D01*
Y633984D01*
X590881Y635173D01*
X590207Y636181D01*
X539048Y687341D01*
Y724018D01*
X540318Y724185D01*
X540732Y722638D01*
D02*
G37*
G36*
X370272Y602118D02*
Y595630D01*
X370509Y594441D01*
X371183Y593433D01*
X382210Y582405D01*
Y578784D01*
X380940Y578443D01*
X379991Y580087D01*
X378157Y581921D01*
X375912Y583218D01*
X373407Y583889D01*
X370813D01*
X368308Y583218D01*
X366063Y581921D01*
X364804Y580662D01*
X363534Y581188D01*
Y586994D01*
X363297Y588183D01*
X362623Y589192D01*
X358394Y593421D01*
X358920Y594691D01*
X360707D01*
X363212Y595362D01*
X365457Y596659D01*
X367291Y598492D01*
X368588Y600738D01*
X369002Y602285D01*
X370272Y602118D01*
D02*
G37*
G36*
X566132Y722638D02*
X567429Y720393D01*
X569263Y718559D01*
X571508Y717262D01*
X574013Y716591D01*
X576607D01*
X579112Y717262D01*
X579734Y717621D01*
X611572Y685783D01*
Y576462D01*
X610302Y576295D01*
X609888Y577842D01*
X608591Y580087D01*
X606757Y581921D01*
X604512Y583218D01*
X603818Y583404D01*
Y654558D01*
X603581Y655747D01*
X602907Y656756D01*
X564448Y695215D01*
Y724018D01*
X565718Y724185D01*
X566132Y722638D01*
D02*
G37*
G36*
X736032Y566638D02*
Y394733D01*
X717727Y376428D01*
X715727D01*
X714308Y375840D01*
X713038Y376547D01*
Y491236D01*
X712801Y492425D01*
X712128Y493433D01*
X658451Y547110D01*
Y549110D01*
X657639Y551071D01*
X656138Y552571D01*
X654205Y553372D01*
X654177Y553384D01*
X653533Y554653D01*
X653756Y554987D01*
X711765D01*
X712954Y555224D01*
X713962Y555897D01*
X723286Y565221D01*
X723908Y564862D01*
X726413Y564191D01*
X729007D01*
X731512Y564862D01*
X733757Y566159D01*
X734762Y567164D01*
X736032Y566638D01*
D02*
G37*
G36*
X722427Y582362D02*
X721663Y581921D01*
X719829Y580087D01*
X718532Y577842D01*
X717861Y575337D01*
Y572743D01*
X718532Y570238D01*
X718891Y569616D01*
X710478Y561203D01*
X662958D01*
X662472Y562376D01*
X665081Y564985D01*
X665754Y565993D01*
X665991Y567182D01*
Y571830D01*
X667261Y571998D01*
X667732Y570238D01*
X669029Y567993D01*
X670863Y566159D01*
X673108Y564862D01*
X675613Y564191D01*
X678207D01*
X680712Y564862D01*
X682957Y566159D01*
X684791Y567993D01*
X686088Y570238D01*
X686759Y572743D01*
Y575337D01*
X686088Y577842D01*
X684791Y580087D01*
X682957Y581921D01*
X682193Y582362D01*
X682534Y583632D01*
X696686D01*
X697027Y582362D01*
X696263Y581921D01*
X694429Y580087D01*
X693132Y577842D01*
X692461Y575337D01*
Y572743D01*
X693132Y570238D01*
X694429Y567993D01*
X696263Y566159D01*
X698508Y564862D01*
X701013Y564191D01*
X703607D01*
X706112Y564862D01*
X708357Y566159D01*
X710191Y567993D01*
X711488Y570238D01*
X712159Y572743D01*
Y575337D01*
X711488Y577842D01*
X710191Y580087D01*
X708357Y581921D01*
X707593Y582362D01*
X707934Y583632D01*
X722086D01*
X722427Y582362D01*
D02*
G37*
G36*
X563206Y581749D02*
X566491Y578464D01*
X566132Y577842D01*
X565461Y575337D01*
Y572743D01*
X566132Y570238D01*
X567429Y567993D01*
X569263Y566159D01*
X571508Y564862D01*
X572202Y564676D01*
Y557658D01*
X570932Y557272D01*
X570649Y557696D01*
X558729Y569616D01*
X559088Y570238D01*
X559759Y572743D01*
Y575337D01*
X559088Y577842D01*
X557791Y580087D01*
X555957Y581921D01*
X553712Y583218D01*
X551207Y583889D01*
X548613D01*
X546108Y583218D01*
X543863Y581921D01*
X542029Y580087D01*
X541588Y579323D01*
X540318Y579664D01*
Y583929D01*
X546625Y590236D01*
X554719D01*
X563206Y581749D01*
D02*
G37*
G36*
X337532Y570238D02*
X338829Y567993D01*
X340663Y566159D01*
X342908Y564862D01*
X343602Y564676D01*
Y469765D01*
X343556Y469734D01*
X342332Y469375D01*
X341096Y470612D01*
X339135Y471424D01*
X337013D01*
X335052Y470612D01*
X333552Y469112D01*
X332740Y467151D01*
Y465151D01*
X256882Y389294D01*
X256209Y388285D01*
X255972Y387096D01*
Y363667D01*
X254702Y363415D01*
X254475Y363964D01*
X253474Y364965D01*
X252476Y365378D01*
Y361950D01*
Y358522D01*
X253474Y358935D01*
X254475Y359936D01*
X254702Y360485D01*
X255972Y360233D01*
Y285632D01*
X254702Y285465D01*
X254288Y287012D01*
X252991Y289257D01*
X251157Y291091D01*
X248912Y292388D01*
X248218Y292574D01*
Y358367D01*
X249446Y358935D01*
X250444Y358522D01*
Y361950D01*
Y365378D01*
X249446Y364965D01*
X248218Y365533D01*
Y449817D01*
X251880Y453479D01*
X252553Y454487D01*
X252790Y455676D01*
Y501125D01*
X316886Y565221D01*
X317508Y564862D01*
X320013Y564191D01*
X322607D01*
X325112Y564862D01*
X327357Y566159D01*
X328362Y567164D01*
X329632Y566638D01*
Y546980D01*
X328218Y545565D01*
X327406Y543605D01*
Y541483D01*
X328218Y539523D01*
X329719Y538022D01*
X331679Y537210D01*
X333801D01*
X335761Y538022D01*
X337262Y539523D01*
X338074Y541483D01*
Y543605D01*
X337262Y545565D01*
X335848Y546980D01*
Y571618D01*
X337118Y571785D01*
X337532Y570238D01*
D02*
G37*
G36*
X647463Y558386D02*
X643979Y554902D01*
X643305Y553893D01*
X643068Y552704D01*
Y345965D01*
X637857Y340754D01*
X636687Y341380D01*
X636838Y342138D01*
Y452510D01*
X638252Y453924D01*
X639064Y455885D01*
Y458007D01*
X638252Y459967D01*
X636752Y461468D01*
X634791Y462280D01*
X632669D01*
X630709Y461468D01*
X630234Y460993D01*
X628964Y461519D01*
Y520327D01*
X629010Y520358D01*
X630234Y520717D01*
X631470Y519480D01*
X633431Y518668D01*
X635553D01*
X637514Y519480D01*
X639014Y520980D01*
X639826Y522941D01*
Y525063D01*
X639014Y527024D01*
X637600Y528438D01*
Y553816D01*
X643342Y559559D01*
X646977D01*
X647463Y558386D01*
D02*
G37*
G36*
X357318Y570670D02*
Y516501D01*
X356048Y515794D01*
X354629Y516382D01*
X352507D01*
X351088Y515794D01*
X349818Y516501D01*
Y564676D01*
X350512Y564862D01*
X352757Y566159D01*
X354591Y567993D01*
X355888Y570238D01*
X356048Y570837D01*
X357318Y570670D01*
D02*
G37*
G36*
X611572Y571618D02*
Y487506D01*
X610158Y486091D01*
X609346Y484131D01*
Y482009D01*
X610158Y480048D01*
X611659Y478548D01*
X613619Y477736D01*
X615741D01*
X617701Y478548D01*
X619202Y480048D01*
X620014Y482009D01*
Y484131D01*
X619202Y486091D01*
X617788Y487506D01*
Y566638D01*
X619058Y567164D01*
X620063Y566159D01*
X622308Y564862D01*
X624813Y564191D01*
X627407D01*
X629912Y564862D01*
X632157Y566159D01*
X632240Y566242D01*
X633619Y565824D01*
X633684Y565492D01*
X623658Y555466D01*
X622985Y554458D01*
X622748Y553269D01*
Y447548D01*
X622985Y446359D01*
X623658Y445350D01*
X625034Y443975D01*
Y436744D01*
X623764Y436038D01*
X622345Y436626D01*
X620345D01*
X591118Y465853D01*
Y568416D01*
X592388Y568757D01*
X592829Y567993D01*
X594663Y566159D01*
X596908Y564862D01*
X597602Y564676D01*
Y514468D01*
X596188Y513054D01*
X595376Y511093D01*
Y508971D01*
X596188Y507010D01*
X597688Y505510D01*
X599649Y504698D01*
X601771D01*
X603731Y505510D01*
X605232Y507010D01*
X606044Y508971D01*
Y511093D01*
X605232Y513054D01*
X603818Y514468D01*
Y564676D01*
X604512Y564862D01*
X606757Y566159D01*
X608591Y567993D01*
X609888Y570238D01*
X610302Y571785D01*
X611572Y571618D01*
D02*
G37*
G36*
X484572D02*
Y504687D01*
X483443Y504206D01*
X482600Y504921D01*
Y507029D01*
X481788Y508989D01*
X480288Y510490D01*
X478327Y511302D01*
X477481D01*
X476818Y512111D01*
Y564676D01*
X477512Y564862D01*
X479757Y566159D01*
X481591Y567993D01*
X482888Y570238D01*
X483302Y571785D01*
X484572Y571618D01*
D02*
G37*
G36*
X143626Y497056D02*
X159141D01*
X159667Y495786D01*
X154012Y490131D01*
X153339Y489123D01*
X153102Y487934D01*
Y486826D01*
X151832Y486300D01*
X149271Y488862D01*
X148263Y489535D01*
X147074Y489772D01*
X137922D01*
X136733Y489535D01*
X135724Y488862D01*
X134851Y487988D01*
X133376Y488309D01*
X133007Y488862D01*
X130108Y491761D01*
Y497056D01*
X135774D01*
Y501722D01*
X143626D01*
Y497056D01*
D02*
G37*
G36*
X542029Y567993D02*
X543863Y566159D01*
X546108Y564862D01*
X546802Y564676D01*
Y484828D01*
X545746Y484122D01*
X545129Y484378D01*
X543007D01*
X541588Y483790D01*
X540318Y484496D01*
Y568416D01*
X541588Y568757D01*
X542029Y567993D01*
D02*
G37*
G36*
X366063Y566159D02*
X368308Y564862D01*
X369002Y564676D01*
Y447036D01*
X367732Y446651D01*
X367704Y446694D01*
X363534Y450864D01*
Y566892D01*
X364804Y567418D01*
X366063Y566159D01*
D02*
G37*
G36*
X5782Y621270D02*
Y446589D01*
X5155Y446104D01*
X3884Y446696D01*
Y621162D01*
X5155Y621755D01*
X5782Y621270D01*
D02*
G37*
G36*
X652056Y542715D02*
X654056D01*
X706822Y489949D01*
Y442077D01*
X706430Y441809D01*
X705552Y441589D01*
X676148Y470993D01*
Y472993D01*
X675336Y474953D01*
X673836Y476454D01*
X671875Y477266D01*
X669753D01*
X667793Y476454D01*
X666292Y474953D01*
X665480Y472993D01*
Y470871D01*
X666292Y468910D01*
X667793Y467410D01*
X669753Y466598D01*
X671753D01*
X691616Y446735D01*
X690896Y445659D01*
X689401Y446278D01*
X687279D01*
X685319Y445466D01*
X683818Y443965D01*
X683006Y442005D01*
Y439883D01*
X683818Y437923D01*
X685232Y436508D01*
Y290612D01*
X683962Y290086D01*
X682957Y291091D01*
X680712Y292388D01*
X678207Y293059D01*
X675613D01*
X673108Y292388D01*
X670863Y291091D01*
X669029Y289257D01*
X667732Y287012D01*
X667318Y285465D01*
X666048Y285632D01*
Y413512D01*
X665811Y414701D01*
X665137Y415709D01*
X660654Y420193D01*
Y422193D01*
X659842Y424154D01*
X658342Y425654D01*
X656381Y426466D01*
X654259D01*
X652299Y425654D01*
X650798Y424154D01*
X650554Y423564D01*
X649284Y423816D01*
Y542679D01*
X650554Y543337D01*
X652056Y542715D01*
D02*
G37*
G36*
X413732Y570238D02*
X415029Y567993D01*
X416863Y566159D01*
X419108Y564862D01*
X421613Y564191D01*
X424207D01*
X426712Y564862D01*
X428957Y566159D01*
X430791Y567993D01*
X432088Y570238D01*
X432502Y571785D01*
X433772Y571618D01*
Y442078D01*
X432866Y441171D01*
X432368Y439968D01*
X431098Y440221D01*
Y536956D01*
X430861Y538145D01*
X430187Y539154D01*
X427736Y541605D01*
Y543605D01*
X426924Y545565D01*
X425424Y547066D01*
X423463Y547878D01*
X421341D01*
X419380Y547066D01*
X417880Y545565D01*
X417068Y543605D01*
Y541483D01*
X417880Y539523D01*
X419380Y538022D01*
X421341Y537210D01*
X423341D01*
X424882Y535669D01*
Y511421D01*
X423612Y510714D01*
X422193Y511302D01*
X420071D01*
X418111Y510490D01*
X416610Y508989D01*
X415798Y507029D01*
Y505029D01*
X414870Y504101D01*
X414197Y503093D01*
X413960Y501904D01*
Y482908D01*
X412695Y482336D01*
X412048Y482838D01*
Y571618D01*
X413318Y571785D01*
X413732Y570238D01*
D02*
G37*
G36*
X350460Y461137D02*
Y456963D01*
X339521Y446024D01*
X337521D01*
X335560Y445212D01*
X334060Y443712D01*
X333248Y441751D01*
Y439629D01*
X334060Y437668D01*
X335560Y436168D01*
X337521Y435356D01*
X339643D01*
X341604Y436168D01*
X343104Y437668D01*
X343916Y439629D01*
Y441629D01*
X355765Y453479D01*
X356048Y453902D01*
X357318Y453517D01*
Y449576D01*
X357555Y448387D01*
X358228Y447379D01*
X362398Y443209D01*
Y435374D01*
X361225Y434888D01*
X359918Y436195D01*
Y438195D01*
X359106Y440155D01*
X357606Y441656D01*
X355645Y442468D01*
X353523D01*
X351562Y441656D01*
X350062Y440155D01*
X349250Y438195D01*
Y436073D01*
X350062Y434113D01*
X351562Y432612D01*
X353523Y431800D01*
X355523D01*
X357318Y430005D01*
Y420742D01*
X356048Y420036D01*
X354629Y420624D01*
X352507D01*
X350546Y419812D01*
X349046Y418312D01*
X348234Y416351D01*
Y414351D01*
X279743Y345859D01*
X279069Y344851D01*
X278832Y343662D01*
Y290612D01*
X277562Y290086D01*
X276557Y291091D01*
X274312Y292388D01*
X273618Y292574D01*
Y385809D01*
X348908Y461099D01*
X349190Y461522D01*
X350460Y461137D01*
D02*
G37*
G36*
X137695Y447344D02*
X139655Y446532D01*
X141655D01*
X146498Y441689D01*
Y434466D01*
X145452Y433813D01*
X145228Y433825D01*
X143510Y434167D01*
X142548Y433975D01*
X131827Y441460D01*
X131518Y441596D01*
X131237Y441783D01*
X130968Y441837D01*
X130716Y441947D01*
X130379Y441954D01*
X130048Y442020D01*
X129779Y441966D01*
X129504Y441972D01*
X129190Y441849D01*
X128859Y441783D01*
X128630Y441631D01*
X128375Y441531D01*
X128131Y441297D01*
X127851Y441110D01*
X122008Y435267D01*
X121335Y434259D01*
X119944Y433777D01*
X119891Y433813D01*
X118110Y434167D01*
X116329Y433813D01*
X115325Y433142D01*
X114055Y433771D01*
Y439435D01*
X113818Y440624D01*
X113145Y441632D01*
X107192Y447585D01*
X107678Y448758D01*
X136280D01*
X137695Y447344D01*
D02*
G37*
G36*
X442263Y566159D02*
X444508Y564862D01*
X445202Y564676D01*
Y372736D01*
X443788Y371321D01*
X442976Y369361D01*
Y367239D01*
X443788Y365279D01*
X445289Y363778D01*
X447249Y362966D01*
X449371D01*
X449381Y362970D01*
X450100Y361893D01*
X444081Y355874D01*
X443407Y354865D01*
X443170Y353676D01*
Y339852D01*
X443407Y338663D01*
X444081Y337654D01*
X456632Y325103D01*
Y290612D01*
X455362Y290086D01*
X454357Y291091D01*
X452112Y292388D01*
X449607Y293059D01*
X447013D01*
X444508Y292388D01*
X442263Y291091D01*
X440429Y289257D01*
X439132Y287012D01*
X438718Y285465D01*
X437448Y285632D01*
Y369062D01*
Y377444D01*
X437211Y378633D01*
X436538Y379641D01*
X431098Y385081D01*
Y436079D01*
X432368Y436332D01*
X432866Y435129D01*
X434366Y433628D01*
X436327Y432816D01*
X438449D01*
X440410Y433628D01*
X441910Y435129D01*
X442722Y437089D01*
Y439211D01*
X441910Y441171D01*
X440410Y442672D01*
X439988Y442847D01*
Y566638D01*
X441258Y567164D01*
X442263Y566159D01*
D02*
G37*
G36*
X509972Y571618D02*
Y567182D01*
X510209Y565993D01*
X510882Y564985D01*
X527752Y548115D01*
Y478563D01*
X526524Y477995D01*
X525526Y478408D01*
Y474980D01*
Y471552D01*
X526524Y471965D01*
X527752Y471397D01*
Y467986D01*
X526338Y466572D01*
X525526Y464611D01*
Y462489D01*
X526338Y460528D01*
X527839Y459028D01*
X529799Y458216D01*
X531921D01*
X533340Y458804D01*
X534610Y458097D01*
Y431864D01*
X491304Y388558D01*
X490318Y389367D01*
X490551Y389717D01*
X490788Y390906D01*
Y566638D01*
X492058Y567164D01*
X493063Y566159D01*
X495308Y564862D01*
X497813Y564191D01*
X500407D01*
X501178Y564398D01*
X502352Y563448D01*
Y429316D01*
X499685Y426649D01*
X498901Y426974D01*
X496779D01*
X494818Y426162D01*
X493318Y424661D01*
X492506Y422701D01*
Y420579D01*
X493318Y418619D01*
X494818Y417118D01*
X496779Y416306D01*
X498901D01*
X500862Y417118D01*
X502362Y418619D01*
X503174Y420579D01*
Y421348D01*
X507658Y425832D01*
X508331Y426840D01*
X508568Y428029D01*
Y565453D01*
X508331Y566643D01*
X507658Y567651D01*
X507110Y568198D01*
X508288Y570238D01*
X508702Y571785D01*
X509972Y571618D01*
D02*
G37*
G36*
X476205Y500634D02*
X478035D01*
X480000Y498669D01*
Y420742D01*
X478730Y420036D01*
X477311Y420624D01*
X475481D01*
X473516Y422589D01*
Y500516D01*
X474786Y501222D01*
X476205Y500634D01*
D02*
G37*
G36*
X112716Y564388D02*
Y558178D01*
X111649Y557111D01*
X110976Y556103D01*
X110739Y554914D01*
Y540424D01*
X104206D01*
Y533400D01*
Y526376D01*
X110739D01*
Y500173D01*
X110976Y498983D01*
X111649Y497975D01*
X115002Y494622D01*
Y483943D01*
X114820Y483821D01*
X113811Y482312D01*
X113457Y480531D01*
Y464566D01*
X113811Y462786D01*
X114820Y461276D01*
X116329Y460267D01*
X118110Y459913D01*
X119891Y460267D01*
X121400Y461276D01*
X122409Y462786D01*
X122763Y464566D01*
Y480531D01*
X122409Y482312D01*
X121400Y483821D01*
X121218Y483943D01*
Y495910D01*
X121185Y496074D01*
X121991Y497056D01*
X123892D01*
Y490474D01*
X124129Y489285D01*
X124803Y488276D01*
X127702Y485377D01*
Y483943D01*
X127520Y483821D01*
X126511Y482312D01*
X126157Y480531D01*
Y464566D01*
X126511Y462786D01*
X127520Y461276D01*
X129029Y460267D01*
X130810Y459913D01*
X132591Y460267D01*
X134100Y461276D01*
X135109Y462786D01*
X135463Y464566D01*
Y469558D01*
X136063Y469678D01*
X137072Y470351D01*
X137587Y471122D01*
X138770Y470946D01*
X138857Y470911D01*
Y464566D01*
X139211Y462786D01*
X140220Y461276D01*
X141729Y460267D01*
X142494Y460115D01*
Y472549D01*
X144526D01*
Y460115D01*
X145291Y460267D01*
X145744Y460570D01*
X147014Y459891D01*
Y457446D01*
X147250Y456257D01*
X147924Y455249D01*
X150203Y452971D01*
X151211Y452297D01*
X152400Y452060D01*
X160020D01*
X161209Y452297D01*
X162218Y452971D01*
X170345Y461099D01*
X171019Y462107D01*
X171256Y463296D01*
Y527032D01*
X172429Y527518D01*
X230715Y469232D01*
Y467232D01*
X231527Y465272D01*
X232173Y464626D01*
X231647Y463356D01*
X225044D01*
X223855Y463119D01*
X222847Y462445D01*
X150203Y389801D01*
X140503Y380102D01*
X139829Y379094D01*
X139593Y377904D01*
Y349142D01*
X137948Y348193D01*
X137474Y347718D01*
X136204Y348244D01*
Y377580D01*
X137618Y378994D01*
X138430Y380955D01*
Y383077D01*
X137618Y385037D01*
X136117Y386538D01*
X134157Y387350D01*
X133191D01*
X132665Y388620D01*
X151804Y407758D01*
X152477Y408767D01*
X152523Y408996D01*
X153934Y409581D01*
X154429Y409250D01*
X156210Y408896D01*
X157991Y409250D01*
X159500Y410259D01*
X160509Y411768D01*
X160863Y413549D01*
Y429514D01*
X160509Y431294D01*
X159500Y432804D01*
X157991Y433813D01*
X156210Y434167D01*
X154429Y433813D01*
X153984Y433515D01*
X152714Y434194D01*
Y442976D01*
X152477Y444165D01*
X151804Y445173D01*
X146050Y450927D01*
Y452927D01*
X145238Y454888D01*
X143737Y456388D01*
X141777Y457200D01*
X139655D01*
X137695Y456388D01*
X136280Y454974D01*
X106443D01*
X96834Y464583D01*
Y526376D01*
X102174D01*
Y533400D01*
Y540424D01*
X96834D01*
Y550147D01*
X111418Y564730D01*
X111446Y564774D01*
X112716Y564388D01*
D02*
G37*
G36*
X233252Y455870D02*
X232664Y454451D01*
Y452329D01*
X233476Y450368D01*
X234890Y448954D01*
Y406264D01*
X233620Y405558D01*
X232201Y406146D01*
X230079D01*
X228118Y405334D01*
X226618Y403834D01*
X225806Y401873D01*
Y399751D01*
X226098Y399045D01*
X226057Y398837D01*
Y388056D01*
X224787Y387530D01*
X224256Y388062D01*
X222295Y388874D01*
X220173D01*
X218754Y388286D01*
X217484Y388993D01*
Y435783D01*
X218414Y436168D01*
X219914Y437668D01*
X220726Y439629D01*
Y441751D01*
X219914Y443712D01*
X218414Y445212D01*
X216848Y445861D01*
X216388Y447197D01*
X226331Y457140D01*
X232546D01*
X233252Y455870D01*
D02*
G37*
G36*
X424882Y500516D02*
Y396105D01*
X423709Y395618D01*
X423646Y395682D01*
X421685Y396494D01*
X419563D01*
X417603Y395682D01*
X416102Y394182D01*
X415858Y393592D01*
X414588Y393844D01*
Y409177D01*
X415367Y409956D01*
X417367D01*
X419328Y410768D01*
X420828Y412268D01*
X421640Y414229D01*
Y416351D01*
X420828Y418312D01*
X419649Y419491D01*
X419749Y420907D01*
X420089Y421048D01*
X421590Y422548D01*
X422402Y424509D01*
Y426631D01*
X421590Y428591D01*
X420176Y430006D01*
Y500617D01*
X420193Y500634D01*
X422193D01*
X423612Y501222D01*
X424882Y500516D01*
D02*
G37*
G36*
X584902Y568416D02*
Y464566D01*
X585139Y463377D01*
X585812Y462369D01*
X615950Y432231D01*
Y430231D01*
X616762Y428270D01*
X618262Y426770D01*
X620223Y425958D01*
X622345D01*
X623764Y426546D01*
X625034Y425840D01*
Y362729D01*
X554334Y292029D01*
X553712Y292388D01*
X551207Y293059D01*
X549243D01*
X548717Y294329D01*
X558965Y304578D01*
X559639Y305586D01*
X559876Y306775D01*
Y552840D01*
X561290Y554254D01*
X561939Y555820D01*
X563275Y556280D01*
X565344Y554211D01*
Y471796D01*
X563930Y470382D01*
X563118Y468421D01*
Y466299D01*
X563930Y464338D01*
X565430Y462838D01*
X567391Y462026D01*
X569513D01*
X570932Y462614D01*
X572202Y461908D01*
Y404966D01*
X570788Y403551D01*
X569976Y401591D01*
Y399469D01*
X570788Y397509D01*
X572289Y396008D01*
X574249Y395196D01*
X576371D01*
X578331Y396008D01*
X579832Y397509D01*
X580644Y399469D01*
Y401591D01*
X579832Y403551D01*
X578418Y404966D01*
Y564676D01*
X579112Y564862D01*
X581357Y566159D01*
X583191Y567993D01*
X583632Y568757D01*
X584902Y568416D01*
D02*
G37*
G36*
X93472Y426643D02*
Y424643D01*
X94284Y422682D01*
X95785Y421182D01*
X97745Y420370D01*
X99867D01*
X101827Y421182D01*
X102094Y421449D01*
X103267Y420963D01*
Y418050D01*
X99745Y414528D01*
X97745D01*
X95785Y413716D01*
X94284Y412215D01*
X93472Y410255D01*
Y408133D01*
X94284Y406172D01*
X95785Y404672D01*
X97745Y403860D01*
X99867D01*
X100929Y404300D01*
X101648Y403223D01*
X92976Y394551D01*
X92518Y394815D01*
X90134Y395454D01*
X87666D01*
X85282Y394815D01*
X83144Y393581D01*
X81399Y391836D01*
X80165Y389698D01*
X79526Y387314D01*
Y386486D01*
X78362Y385977D01*
X77530Y386639D01*
Y406146D01*
X77293Y407335D01*
X76620Y408344D01*
X74228Y410735D01*
Y418655D01*
X76677D01*
Y433264D01*
X86851D01*
X93472Y426643D01*
D02*
G37*
G36*
X362398Y405747D02*
Y370196D01*
X361128Y369490D01*
X359709Y370078D01*
X357587D01*
X355626Y369266D01*
X354126Y367766D01*
X353314Y365805D01*
Y364821D01*
X333083Y344590D01*
X332409Y343581D01*
X332172Y342392D01*
Y285632D01*
X330902Y285465D01*
X330488Y287012D01*
X329191Y289257D01*
X327357Y291091D01*
X325112Y292388D01*
X322607Y293059D01*
X320013D01*
X317508Y292388D01*
X315263Y291091D01*
X313429Y289257D01*
X312132Y287012D01*
X311718Y285465D01*
X310448Y285632D01*
Y355456D01*
X361225Y406233D01*
X362398Y405747D01*
D02*
G37*
G36*
X456632Y566638D02*
Y368425D01*
X454717Y366510D01*
X453640Y367229D01*
X453644Y367239D01*
Y369361D01*
X452832Y371321D01*
X451418Y372736D01*
Y564676D01*
X452112Y564862D01*
X454357Y566159D01*
X455362Y567164D01*
X456632Y566638D01*
D02*
G37*
G36*
X743932Y570238D02*
X745229Y567993D01*
X747063Y566159D01*
X749308Y564862D01*
X750002Y564676D01*
Y348996D01*
X750239Y347807D01*
X750912Y346799D01*
X760818Y336893D01*
X761827Y336219D01*
X763016Y335982D01*
X803385D01*
X812232Y327135D01*
Y290612D01*
X810962Y290086D01*
X809957Y291091D01*
X807712Y292388D01*
X805207Y293059D01*
X802613D01*
X800108Y292388D01*
X799486Y292029D01*
X735464Y356051D01*
X734456Y356725D01*
X733267Y356961D01*
X720904D01*
X713367Y364498D01*
X713470Y365527D01*
X714640Y366210D01*
X715727Y365760D01*
X717849D01*
X719809Y366572D01*
X721310Y368073D01*
X722122Y370033D01*
Y372033D01*
X741338Y391249D01*
X742011Y392257D01*
X742248Y393446D01*
Y571618D01*
X743518Y571785D01*
X743932Y570238D01*
D02*
G37*
G36*
X138857Y428973D02*
Y413549D01*
X139211Y411768D01*
X140220Y410259D01*
X141729Y409250D01*
X142546Y409087D01*
X142964Y407709D01*
X90005Y354749D01*
X89331Y353741D01*
X89094Y352552D01*
Y348346D01*
X87824Y347820D01*
X87452Y348193D01*
X85687Y349211D01*
X83719Y349739D01*
X81681D01*
X79713Y349211D01*
X77948Y348193D01*
X77687Y347932D01*
X76514Y348418D01*
Y367012D01*
X77687Y367498D01*
X80125Y365060D01*
X81133Y364386D01*
X82322Y364150D01*
X92310D01*
X93499Y364386D01*
X94507Y365060D01*
X133007Y403560D01*
X133681Y404569D01*
X133918Y405758D01*
Y410137D01*
X134100Y410259D01*
X135109Y411768D01*
X135463Y413549D01*
Y429514D01*
X135399Y429837D01*
X136545Y430586D01*
X138857Y428973D01*
D02*
G37*
G36*
X127762Y381921D02*
Y380955D01*
X128574Y378994D01*
X129988Y377580D01*
Y347390D01*
X129428Y347064D01*
X128718Y346926D01*
X127452Y348193D01*
X125687Y349211D01*
X123719Y349739D01*
X121681D01*
X119713Y349211D01*
X117948Y348193D01*
X117662Y347906D01*
X116392Y348432D01*
Y353958D01*
X117806Y355373D01*
X118618Y357333D01*
Y359455D01*
X117806Y361415D01*
X116306Y362916D01*
X114345Y363728D01*
X112223D01*
X110262Y362916D01*
X108762Y361415D01*
X107950Y359455D01*
Y357333D01*
X108762Y355373D01*
X110176Y353958D01*
Y347068D01*
X108906Y346728D01*
X108893Y346752D01*
X107452Y348193D01*
X105687Y349211D01*
X103719Y349739D01*
X101681D01*
X99713Y349211D01*
X97948Y348193D01*
X96580Y346824D01*
X96252Y346851D01*
X95310Y347218D01*
Y351265D01*
X126492Y382447D01*
X127762Y381921D01*
D02*
G37*
G36*
X54126Y390188D02*
Y376706D01*
X68479D01*
X70298Y374887D01*
Y346857D01*
X69028Y346517D01*
X68893Y346752D01*
X67452Y348193D01*
X65687Y349211D01*
X63719Y349739D01*
X63716D01*
Y342000D01*
Y334261D01*
X63719D01*
X65687Y334788D01*
X67452Y335807D01*
X68893Y337248D01*
X69028Y337483D01*
X70298Y337143D01*
Y326857D01*
X69028Y326517D01*
X68893Y326752D01*
X67452Y328193D01*
X65687Y329212D01*
X63719Y329739D01*
X63716D01*
Y322000D01*
Y314261D01*
X63719D01*
X65687Y314788D01*
X67452Y315807D01*
X68893Y317248D01*
X69028Y317483D01*
X70298Y317143D01*
Y306857D01*
X69028Y306517D01*
X68893Y306752D01*
X67452Y308193D01*
X65687Y309212D01*
X63719Y309739D01*
X63716D01*
Y302000D01*
X62700D01*
Y300984D01*
X54236D01*
X53788Y300746D01*
X52638Y301896D01*
Y390722D01*
X52856Y390867D01*
X54126Y390188D01*
D02*
G37*
G36*
X464532Y570238D02*
X465829Y567993D01*
X467663Y566159D01*
X469908Y564862D01*
X470602Y564676D01*
Y513398D01*
X468210Y511006D01*
X467537Y509998D01*
X467300Y508809D01*
Y421302D01*
X467537Y420113D01*
X468210Y419104D01*
X470930Y416385D01*
X470916Y416351D01*
Y414229D01*
X471728Y412268D01*
X473228Y410768D01*
X474648Y410180D01*
X475046Y408783D01*
X471512Y405249D01*
X470839Y404241D01*
X470602Y403051D01*
Y336161D01*
X469332Y335454D01*
X468401Y335840D01*
X458470Y345771D01*
Y347771D01*
X457658Y349731D01*
X456157Y351232D01*
X454197Y352044D01*
X452075D01*
X451640Y351864D01*
X450246Y352661D01*
X450174Y353177D01*
X461937Y364941D01*
X462611Y365949D01*
X462848Y367138D01*
Y571618D01*
X464118Y571785D01*
X464532Y570238D01*
D02*
G37*
G36*
X382210Y569296D02*
Y287954D01*
X380940Y287614D01*
X379991Y289257D01*
X378157Y291091D01*
X375912Y292388D01*
X373407Y293059D01*
X370813D01*
X368308Y292388D01*
X366063Y291091D01*
X364804Y289832D01*
X363534Y290358D01*
Y351519D01*
X367704Y355689D01*
X367732Y355732D01*
X369002Y355346D01*
Y328540D01*
X367588Y327126D01*
X366776Y325165D01*
Y323043D01*
X367588Y321082D01*
X369089Y319582D01*
X371049Y318770D01*
X373171D01*
X375131Y319582D01*
X376632Y321082D01*
X377444Y323043D01*
Y325165D01*
X376632Y327126D01*
X375218Y328540D01*
Y564676D01*
X375912Y564862D01*
X378157Y566159D01*
X379991Y567993D01*
X380940Y569636D01*
X382210Y569296D01*
D02*
G37*
G36*
X540568Y427934D02*
X540960Y427666D01*
Y324121D01*
X518845Y302006D01*
X516845D01*
X514884Y301194D01*
X514821Y301130D01*
X513648Y301616D01*
Y353060D01*
X513411Y354249D01*
X512738Y355257D01*
X495554Y372441D01*
Y374441D01*
X494742Y376401D01*
X493242Y377902D01*
X491822Y378490D01*
X491424Y379887D01*
X539690Y428154D01*
X540568Y427934D01*
D02*
G37*
G36*
X234890Y395359D02*
Y300188D01*
X233446Y298744D01*
X232273Y299230D01*
Y395508D01*
X233620Y396066D01*
X234890Y395359D01*
D02*
G37*
G36*
X130242Y297046D02*
Y286954D01*
X128972Y286614D01*
X128892Y286752D01*
X127452Y288193D01*
X125687Y289212D01*
X123719Y289739D01*
X121681D01*
X119713Y289212D01*
X117948Y288193D01*
X116507Y286752D01*
X115488Y284987D01*
X114961Y283019D01*
Y280981D01*
X115488Y279013D01*
X116507Y277248D01*
X117948Y275807D01*
X119713Y274788D01*
X121681Y274261D01*
X123719D01*
X125687Y274788D01*
X127452Y275807D01*
X128892Y277248D01*
X128972Y277386D01*
X130242Y277046D01*
Y266954D01*
X128972Y266614D01*
X128892Y266752D01*
X127452Y268193D01*
X125687Y269212D01*
X123719Y269739D01*
X121681D01*
X119713Y269212D01*
X117948Y268193D01*
X116507Y266752D01*
X115488Y264987D01*
X114961Y263019D01*
Y260981D01*
X115488Y259013D01*
X116507Y257248D01*
X117948Y255807D01*
X119713Y254788D01*
X121681Y254261D01*
X123719D01*
X125687Y254788D01*
X127452Y255807D01*
X128892Y257248D01*
X128972Y257386D01*
X130242Y257046D01*
Y246954D01*
X128972Y246614D01*
X128892Y246752D01*
X127452Y248193D01*
X125687Y249212D01*
X123719Y249739D01*
X121681D01*
X119713Y249212D01*
X117948Y248193D01*
X116507Y246752D01*
X115488Y244987D01*
X114961Y243019D01*
Y240981D01*
X115488Y239013D01*
X116507Y237248D01*
X117948Y235807D01*
X119713Y234788D01*
X121681Y234261D01*
X123719D01*
X125687Y234788D01*
X127452Y235807D01*
X128892Y237248D01*
X128972Y237386D01*
X130242Y237046D01*
Y231902D01*
X130479Y230713D01*
X131152Y229704D01*
X133544Y227313D01*
Y222000D01*
X133781Y220811D01*
X134454Y219803D01*
X135456Y219133D01*
X135489Y219013D01*
X136508Y217248D01*
X136875Y216880D01*
X136902Y216572D01*
X136606Y215354D01*
X135978Y214934D01*
X131152Y210108D01*
X130479Y209100D01*
X130242Y207911D01*
Y206954D01*
X128972Y206614D01*
X128892Y206752D01*
X127452Y208193D01*
X125687Y209212D01*
X123719Y209739D01*
X121681D01*
X119713Y209212D01*
X117948Y208193D01*
X116507Y206752D01*
X116392Y206552D01*
X115122Y206893D01*
Y212686D01*
X114885Y213875D01*
X114212Y214883D01*
X109948Y219147D01*
X110439Y220981D01*
Y223019D01*
X109911Y224987D01*
X108893Y226752D01*
X107452Y228193D01*
X105687Y229212D01*
X103719Y229739D01*
X101681D01*
X99713Y229212D01*
X97948Y228193D01*
X97342Y227587D01*
X96072Y228113D01*
Y230977D01*
X99847Y234752D01*
X101681Y234261D01*
X103719D01*
X105687Y234788D01*
X107452Y235807D01*
X108893Y237248D01*
X109911Y239013D01*
X110439Y240981D01*
Y243019D01*
X109911Y244987D01*
X108893Y246752D01*
X107452Y248193D01*
X105687Y249212D01*
X103719Y249739D01*
X101681D01*
X99713Y249212D01*
X97948Y248193D01*
X96507Y246752D01*
X95488Y244987D01*
X94961Y243019D01*
Y240981D01*
X95452Y239147D01*
X90766Y234462D01*
X90093Y233454D01*
X89856Y232264D01*
Y227491D01*
X88586Y227058D01*
X87452Y228193D01*
X85687Y229212D01*
X83719Y229739D01*
X81681D01*
X79713Y229212D01*
X77948Y228193D01*
X76507Y226752D01*
X75488Y224987D01*
X74961Y223019D01*
Y220981D01*
X75488Y219013D01*
X76507Y217248D01*
X77288Y216468D01*
X76761Y215198D01*
X75556D01*
X74142Y216612D01*
X72181Y217424D01*
X70461D01*
X69757Y218340D01*
X69672Y218597D01*
X69911Y219013D01*
X70439Y220981D01*
Y223019D01*
X69911Y224987D01*
X68893Y226752D01*
X67452Y228193D01*
X65687Y229212D01*
X63719Y229739D01*
X61681D01*
X59847Y229248D01*
X31048Y258047D01*
Y273840D01*
X31901Y274694D01*
X35761Y278400D01*
X35766Y278408D01*
X36055Y278645D01*
X38404Y281507D01*
X40149Y284772D01*
X41224Y288315D01*
X41587Y292000D01*
X41556D01*
Y294039D01*
X42547Y294437D01*
X42826Y294457D01*
X43658Y293625D01*
X43331Y292836D01*
Y290714D01*
X44143Y288754D01*
X45644Y287253D01*
X47604Y286441D01*
X49726D01*
X51687Y287253D01*
X53187Y288754D01*
X53775Y290173D01*
X55172Y290572D01*
X56678Y289066D01*
X56886Y288927D01*
X57073Y287318D01*
X56507Y286752D01*
X55488Y284987D01*
X54961Y283019D01*
Y280981D01*
X55488Y279013D01*
X56507Y277248D01*
X57948Y275807D01*
X59592Y274858D01*
Y269142D01*
X57948Y268193D01*
X56507Y266752D01*
X55488Y264987D01*
X54961Y263019D01*
Y260981D01*
X55488Y259013D01*
X56507Y257248D01*
X57948Y255807D01*
X59592Y254858D01*
Y249142D01*
X57948Y248193D01*
X56507Y246752D01*
X55488Y244987D01*
X54961Y243019D01*
Y240981D01*
X55488Y239013D01*
X56507Y237248D01*
X57948Y235807D01*
X59713Y234788D01*
X61681Y234261D01*
X63719D01*
X65687Y234788D01*
X67452Y235807D01*
X68893Y237248D01*
X69911Y239013D01*
X70439Y240981D01*
Y243019D01*
X69911Y244987D01*
X68893Y246752D01*
X67452Y248193D01*
X65808Y249142D01*
Y254858D01*
X67452Y255807D01*
X68893Y257248D01*
X69911Y259013D01*
X70439Y260981D01*
Y263019D01*
X69911Y264987D01*
X68893Y266752D01*
X67452Y268193D01*
X65808Y269142D01*
Y274858D01*
X67452Y275807D01*
X68266Y276622D01*
X69536Y276096D01*
Y272056D01*
X69773Y270867D01*
X70447Y269858D01*
X75452Y264853D01*
X74961Y263019D01*
Y260981D01*
X75488Y259013D01*
X76507Y257248D01*
X77948Y255807D01*
X79713Y254788D01*
X81681Y254261D01*
X83719D01*
X85687Y254788D01*
X87452Y255807D01*
X87824Y256180D01*
X89094Y255654D01*
Y252789D01*
X85553Y249248D01*
X83719Y249739D01*
X81681D01*
X79713Y249212D01*
X77948Y248193D01*
X76507Y246752D01*
X75488Y244987D01*
X74961Y243019D01*
Y240981D01*
X75488Y239013D01*
X76507Y237248D01*
X77948Y235807D01*
X79713Y234788D01*
X81681Y234261D01*
X83719D01*
X85687Y234788D01*
X87452Y235807D01*
X88893Y237248D01*
X89911Y239013D01*
X90439Y240981D01*
Y243019D01*
X89948Y244853D01*
X94399Y249305D01*
X95073Y250313D01*
X95310Y251502D01*
Y256782D01*
X96252Y257149D01*
X96580Y257176D01*
X97948Y255807D01*
X99713Y254788D01*
X101681Y254261D01*
X103719D01*
X105687Y254788D01*
X107452Y255807D01*
X108893Y257248D01*
X109911Y259013D01*
X110439Y260981D01*
Y263019D01*
X109911Y264987D01*
X108893Y266752D01*
X107452Y268193D01*
X105687Y269212D01*
X103719Y269739D01*
X101681D01*
X99713Y269212D01*
X97948Y268193D01*
X96580Y266824D01*
X96252Y266851D01*
X95310Y267218D01*
Y276782D01*
X96252Y277149D01*
X96580Y277175D01*
X97948Y275807D01*
X99713Y274788D01*
X101681Y274261D01*
X103719D01*
X105687Y274788D01*
X107452Y275807D01*
X108893Y277248D01*
X109911Y279013D01*
X110439Y280981D01*
Y283019D01*
X109948Y284853D01*
X115482Y290387D01*
X116155Y291395D01*
X116392Y292584D01*
Y295567D01*
X117662Y296093D01*
X117948Y295807D01*
X119713Y294788D01*
X121681Y294261D01*
X123719D01*
X125687Y294788D01*
X127452Y295807D01*
X128892Y297248D01*
X128972Y297386D01*
X130242Y297046D01*
D02*
G37*
G36*
X547818Y320675D02*
Y310913D01*
X528934Y292029D01*
X528312Y292388D01*
X525807Y293059D01*
X523496D01*
X522890Y293751D01*
X522667Y294227D01*
X523240Y295611D01*
Y297611D01*
X546265Y320636D01*
X546548Y321060D01*
X547818Y320675D01*
D02*
G37*
G36*
X337550Y460327D02*
X338005Y458985D01*
X268312Y389294D01*
X267639Y388285D01*
X267402Y387096D01*
Y292574D01*
X266708Y292388D01*
X264463Y291091D01*
X263458Y290086D01*
X262188Y290612D01*
Y385809D01*
X336806Y460427D01*
X337550Y460327D01*
D02*
G37*
G36*
X700472Y437879D02*
Y355346D01*
X700709Y354157D01*
X701383Y353148D01*
X710632Y343899D01*
Y290612D01*
X709362Y290086D01*
X708357Y291091D01*
X706112Y292388D01*
X703607Y293059D01*
X701013D01*
X698508Y292388D01*
X696263Y291091D01*
X694429Y289257D01*
X693132Y287012D01*
X692718Y285465D01*
X691448Y285632D01*
Y436508D01*
X692862Y437923D01*
X693674Y439883D01*
Y442005D01*
X693055Y443500D01*
X694131Y444220D01*
X700472Y437879D01*
D02*
G37*
G36*
X489159Y368046D02*
X491159D01*
X507432Y351773D01*
Y290612D01*
X506162Y290086D01*
X505157Y291091D01*
X502912Y292388D01*
X502218Y292574D01*
Y346710D01*
X501981Y347899D01*
X501307Y348908D01*
X486216Y363999D01*
Y368181D01*
X487486Y368739D01*
X489159Y368046D01*
D02*
G37*
G36*
X354861Y409192D02*
X354985Y408783D01*
X305142Y358941D01*
X304469Y357932D01*
X304232Y356743D01*
Y290612D01*
X302962Y290086D01*
X301957Y291091D01*
X299712Y292388D01*
X297207Y293059D01*
X294613D01*
X292108Y292388D01*
X289863Y291091D01*
X288029Y289257D01*
X286732Y287012D01*
X286318Y285465D01*
X285048Y285632D01*
Y342375D01*
X352629Y409956D01*
X354362D01*
X354861Y409192D01*
D02*
G37*
G36*
X416102Y388139D02*
X417603Y386638D01*
X419563Y385826D01*
X421563D01*
X424882Y382507D01*
Y369062D01*
X425119Y367873D01*
X425793Y366865D01*
X426801Y366191D01*
X427990Y365954D01*
X431232D01*
Y290612D01*
X429962Y290086D01*
X428957Y291091D01*
X426712Y292388D01*
X424207Y293059D01*
X421613D01*
X419108Y292388D01*
X416863Y291091D01*
X415858Y290086D01*
X414588Y290612D01*
Y388476D01*
X415858Y388728D01*
X416102Y388139D01*
D02*
G37*
G36*
X496002Y345423D02*
Y292574D01*
X495308Y292388D01*
X493063Y291091D01*
X491229Y289257D01*
X491042Y288933D01*
X489772Y289274D01*
Y349857D01*
X491042Y350383D01*
X496002Y345423D01*
D02*
G37*
G36*
X610453Y312670D02*
X610302Y311912D01*
Y288834D01*
X609032Y288493D01*
X608591Y289257D01*
X606757Y291091D01*
X604512Y292388D01*
X602007Y293059D01*
X599413D01*
X596908Y292388D01*
X594663Y291091D01*
X593658Y290086D01*
X592388Y290612D01*
Y296401D01*
X609283Y313296D01*
X610453Y312670D01*
D02*
G37*
G36*
X483556Y349487D02*
Y288394D01*
X482286Y288053D01*
X481591Y289257D01*
X479757Y291091D01*
X477512Y292388D01*
X476818Y292574D01*
Y354566D01*
X477991Y355052D01*
X483556Y349487D01*
D02*
G37*
G36*
X357587Y359410D02*
X359709D01*
X360083Y359565D01*
X361477Y358768D01*
X361540Y358315D01*
X358228Y355004D01*
X357555Y353995D01*
X357318Y352806D01*
Y286580D01*
X356048Y286413D01*
X355888Y287012D01*
X354591Y289257D01*
X352757Y291091D01*
X350512Y292388D01*
X348007Y293059D01*
X345413D01*
X342908Y292388D01*
X340663Y291091D01*
X339658Y290086D01*
X338388Y290612D01*
Y341105D01*
X356955Y359672D01*
X357587Y359410D01*
D02*
G37*
G36*
X391463Y566159D02*
X393708Y564862D01*
X396213Y564191D01*
X398807D01*
X401312Y564862D01*
X403557Y566159D01*
X404562Y567164D01*
X405832Y566638D01*
Y482464D01*
X404418Y481049D01*
X403606Y479089D01*
Y476967D01*
X404418Y475006D01*
X405919Y473506D01*
X407879Y472694D01*
X410001D01*
X411962Y473506D01*
X412690Y474235D01*
X413960Y473709D01*
Y430006D01*
X412546Y428591D01*
X411734Y426631D01*
Y424509D01*
X412546Y422548D01*
X413725Y421369D01*
X413624Y419953D01*
X413284Y419812D01*
X411784Y418312D01*
X410972Y416351D01*
Y414351D01*
X409282Y412662D01*
X408609Y411653D01*
X408372Y410464D01*
Y285632D01*
X407102Y285465D01*
X406688Y287012D01*
X405391Y289257D01*
X403557Y291091D01*
X401312Y292388D01*
X398807Y293059D01*
X396213D01*
X393708Y292388D01*
X391463Y291091D01*
X389696Y289324D01*
X389257Y289357D01*
X388426Y289580D01*
Y567670D01*
X389257Y567893D01*
X389696Y567926D01*
X391463Y566159D01*
D02*
G37*
G36*
X465791Y325374D02*
X467913D01*
X469332Y325962D01*
X470602Y325256D01*
Y292574D01*
X469908Y292388D01*
X467663Y291091D01*
X465829Y289257D01*
X464532Y287012D01*
X464118Y285465D01*
X462848Y285632D01*
Y325373D01*
X463200Y325664D01*
X464118Y326067D01*
X465791Y325374D01*
D02*
G37*
G36*
X630622Y357731D02*
Y343425D01*
X587082Y299886D01*
X586409Y298877D01*
X586172Y297688D01*
Y285632D01*
X584902Y285465D01*
X584488Y287012D01*
X583191Y289257D01*
X581357Y291091D01*
X579112Y292388D01*
X576607Y293059D01*
X574013D01*
X571508Y292388D01*
X569263Y291091D01*
X567429Y289257D01*
X566132Y287012D01*
X565461Y284507D01*
Y281913D01*
X566132Y279408D01*
X567429Y277163D01*
X569263Y275329D01*
X571508Y274032D01*
X574013Y273361D01*
X576607D01*
X579112Y274032D01*
X581357Y275329D01*
X583191Y277163D01*
X584488Y279408D01*
X584902Y280955D01*
X586172Y280788D01*
Y142240D01*
X586409Y141051D01*
X587082Y140042D01*
X591891Y135234D01*
X591532Y134612D01*
X590861Y132107D01*
Y129513D01*
X591532Y127008D01*
X592829Y124763D01*
X594663Y122929D01*
X596908Y121632D01*
X599413Y120961D01*
X602007D01*
X604512Y121632D01*
X606757Y122929D01*
X608591Y124763D01*
X609032Y125527D01*
X610302Y125186D01*
Y113555D01*
X604249Y107502D01*
X324259D01*
X323733Y108772D01*
X337477Y122516D01*
X338151Y123525D01*
X338171Y123624D01*
X339549Y124042D01*
X340663Y122929D01*
X342908Y121632D01*
X345413Y120961D01*
X348007D01*
X350512Y121632D01*
X352757Y122929D01*
X354591Y124763D01*
X355888Y127008D01*
X356559Y129513D01*
Y132107D01*
X355888Y134612D01*
X354591Y136857D01*
X352757Y138691D01*
X350512Y139988D01*
X348007Y140659D01*
X345413D01*
X342908Y139988D01*
X340663Y138691D01*
X339658Y137686D01*
X338388Y138212D01*
Y275808D01*
X339658Y276334D01*
X340663Y275329D01*
X342908Y274032D01*
X345413Y273361D01*
X348007D01*
X350512Y274032D01*
X352757Y275329D01*
X354591Y277163D01*
X355888Y279408D01*
X356048Y280007D01*
X357318Y279840D01*
Y193311D01*
X356450Y192443D01*
X353133D01*
X351943Y192206D01*
X350935Y191533D01*
X348560Y189157D01*
X347771Y189484D01*
X345649D01*
X343689Y188672D01*
X342188Y187171D01*
X341376Y185211D01*
Y183089D01*
X342188Y181129D01*
X343689Y179628D01*
X345649Y178816D01*
X347771D01*
X349731Y179628D01*
X351232Y181129D01*
X352044Y183089D01*
Y183852D01*
X354420Y186228D01*
X357318D01*
Y146304D01*
X357555Y145115D01*
X358228Y144107D01*
X362349Y139986D01*
X363358Y139312D01*
X364547Y139075D01*
X364651D01*
X365177Y137805D01*
X364229Y136857D01*
X362932Y134612D01*
X362261Y132107D01*
Y129513D01*
X362932Y127008D01*
X364229Y124763D01*
X366063Y122929D01*
X368308Y121632D01*
X370813Y120961D01*
X373407D01*
X375912Y121632D01*
X378157Y122929D01*
X379991Y124763D01*
X381288Y127008D01*
X381959Y129513D01*
Y132107D01*
X381288Y134612D01*
X379991Y136857D01*
X379043Y137805D01*
X379569Y139075D01*
X390051D01*
X390577Y137805D01*
X389629Y136857D01*
X388332Y134612D01*
X387661Y132107D01*
Y129513D01*
X388332Y127008D01*
X389629Y124763D01*
X391463Y122929D01*
X393708Y121632D01*
X396213Y120961D01*
X398807D01*
X401312Y121632D01*
X401934Y121991D01*
X406743Y117183D01*
X407751Y116509D01*
X408940Y116272D01*
X455168D01*
X456357Y116509D01*
X457365Y117183D01*
X461937Y121755D01*
X462611Y122763D01*
X462848Y123952D01*
Y128388D01*
X464118Y128555D01*
X464532Y127008D01*
X465829Y124763D01*
X467663Y122929D01*
X469908Y121632D01*
X472413Y120961D01*
X472694D01*
Y130810D01*
Y140659D01*
X472413D01*
X469908Y139988D01*
X467663Y138691D01*
X465829Y136857D01*
X464532Y134612D01*
X464118Y133065D01*
X462848Y133232D01*
Y202167D01*
X488862Y228181D01*
X489535Y229189D01*
X489772Y230378D01*
Y277146D01*
X491042Y277487D01*
X491229Y277163D01*
X493063Y275329D01*
X495308Y274032D01*
X497813Y273361D01*
X500407D01*
X502912Y274032D01*
X505157Y275329D01*
X506162Y276334D01*
X507432Y275808D01*
Y170180D01*
X507669Y168991D01*
X508343Y167983D01*
X541091Y135234D01*
X540732Y134612D01*
X540061Y132107D01*
Y129513D01*
X540732Y127008D01*
X542029Y124763D01*
X543863Y122929D01*
X546108Y121632D01*
X548613Y120961D01*
X551207D01*
X553712Y121632D01*
X555957Y122929D01*
X557791Y124763D01*
X559088Y127008D01*
X559759Y129513D01*
Y132107D01*
X559088Y134612D01*
X557791Y136857D01*
X555957Y138691D01*
X553712Y139988D01*
X551207Y140659D01*
X548613D01*
X546108Y139988D01*
X545486Y139629D01*
X513648Y171467D01*
Y280788D01*
X514918Y280955D01*
X515332Y279408D01*
X516629Y277163D01*
X518463Y275329D01*
X520708Y274032D01*
X523213Y273361D01*
X525807D01*
X528312Y274032D01*
X530557Y275329D01*
X532391Y277163D01*
X533688Y279408D01*
X534159Y281168D01*
X535429Y281000D01*
Y167583D01*
X535666Y166394D01*
X536339Y165386D01*
X566491Y135234D01*
X566132Y134612D01*
X565461Y132107D01*
Y129513D01*
X566132Y127008D01*
X567429Y124763D01*
X569263Y122929D01*
X571508Y121632D01*
X574013Y120961D01*
X576607D01*
X579112Y121632D01*
X581357Y122929D01*
X583191Y124763D01*
X584488Y127008D01*
X585159Y129513D01*
Y132107D01*
X584488Y134612D01*
X583191Y136857D01*
X581357Y138691D01*
X579112Y139988D01*
X576607Y140659D01*
X574013D01*
X571508Y139988D01*
X570886Y139629D01*
X541645Y168870D01*
Y275751D01*
X542915Y276277D01*
X543863Y275329D01*
X546108Y274032D01*
X548613Y273361D01*
X551207D01*
X553712Y274032D01*
X555957Y275329D01*
X557791Y277163D01*
X559088Y279408D01*
X559759Y281913D01*
Y284507D01*
X559088Y287012D01*
X558729Y287634D01*
X629352Y358257D01*
X630622Y357731D01*
D02*
G37*
G36*
X610302Y277586D02*
Y136434D01*
X609032Y136093D01*
X608591Y136857D01*
X606757Y138691D01*
X604512Y139988D01*
X602007Y140659D01*
X599413D01*
X596908Y139988D01*
X596286Y139629D01*
X592388Y143527D01*
Y275808D01*
X593658Y276334D01*
X594663Y275329D01*
X596908Y274032D01*
X599413Y273361D01*
X602007D01*
X604512Y274032D01*
X606757Y275329D01*
X608591Y277163D01*
X609032Y277927D01*
X610302Y277586D01*
D02*
G37*
G36*
X408372Y280788D02*
Y182897D01*
X398449Y172974D01*
X396449D01*
X394488Y172162D01*
X392988Y170662D01*
X392176Y168701D01*
Y166579D01*
X392988Y164618D01*
X394488Y163118D01*
X396449Y162306D01*
X398571D01*
X400532Y163118D01*
X402032Y164618D01*
X402844Y166579D01*
Y168579D01*
X413677Y179412D01*
X414351Y180421D01*
X414588Y181610D01*
Y275808D01*
X415858Y276334D01*
X416863Y275329D01*
X419108Y274032D01*
X421613Y273361D01*
X424207D01*
X426712Y274032D01*
X428957Y275329D01*
X429962Y276334D01*
X431232Y275808D01*
Y190110D01*
X429818Y188696D01*
X429006Y186735D01*
Y184613D01*
X429818Y182652D01*
X431319Y181152D01*
X433279Y180340D01*
X435401D01*
X437361Y181152D01*
X438862Y182652D01*
X439674Y184613D01*
Y186735D01*
X438862Y188696D01*
X437448Y190110D01*
Y280788D01*
X438718Y280955D01*
X439132Y279408D01*
X440429Y277163D01*
X442263Y275329D01*
X444508Y274032D01*
X447013Y273361D01*
X449607D01*
X452112Y274032D01*
X454357Y275329D01*
X455362Y276334D01*
X456632Y275808D01*
Y274591D01*
X446113Y264072D01*
X445439Y263063D01*
X445202Y261874D01*
Y140174D01*
X444508Y139988D01*
X442263Y138691D01*
X440429Y136857D01*
X439132Y134612D01*
X438461Y132107D01*
Y129513D01*
X439132Y127008D01*
X440429Y124763D01*
X441434Y123758D01*
X440908Y122488D01*
X430312D01*
X429786Y123758D01*
X430791Y124763D01*
X432088Y127008D01*
X432759Y129513D01*
Y132107D01*
X432088Y134612D01*
X430791Y136857D01*
X428957Y138691D01*
X426712Y139988D01*
X424207Y140659D01*
X421613D01*
X419108Y139988D01*
X418486Y139629D01*
X413734Y144381D01*
X412726Y145054D01*
X411537Y145291D01*
X374320D01*
X374152Y146561D01*
X375912Y147032D01*
X378157Y148329D01*
X379991Y150163D01*
X381288Y152408D01*
X381959Y154913D01*
Y157507D01*
X381288Y160012D01*
X379991Y162257D01*
X378157Y164091D01*
X375912Y165388D01*
X373407Y166059D01*
X370813D01*
X368308Y165388D01*
X366063Y164091D01*
X364804Y162832D01*
X363534Y163358D01*
Y174462D01*
X364804Y174988D01*
X366063Y173729D01*
X368308Y172432D01*
X370813Y171761D01*
X373407D01*
X375912Y172432D01*
X378157Y173729D01*
X379991Y175563D01*
X381288Y177808D01*
X381959Y180313D01*
Y182907D01*
X381288Y185412D01*
X379991Y187657D01*
X378157Y189491D01*
X375912Y190788D01*
X373407Y191459D01*
X370813D01*
X368308Y190788D01*
X366063Y189491D01*
X364804Y188232D01*
X363534Y188758D01*
Y199862D01*
X364804Y200388D01*
X366063Y199129D01*
X368308Y197832D01*
X370813Y197161D01*
X371094D01*
Y207010D01*
X372110D01*
D01*
X371094D01*
Y216859D01*
X370813D01*
X368308Y216188D01*
X366063Y214891D01*
X364804Y213632D01*
X363534Y214158D01*
Y225262D01*
X364804Y225788D01*
X366063Y224529D01*
X368308Y223232D01*
X370813Y222561D01*
X373407D01*
X375912Y223232D01*
X378157Y224529D01*
X379991Y226363D01*
X380940Y228006D01*
X382210Y227666D01*
Y217932D01*
X382447Y216743D01*
X383120Y215735D01*
X390906Y207949D01*
Y205949D01*
X391718Y203988D01*
X393218Y202488D01*
X395179Y201676D01*
X397301D01*
X399262Y202488D01*
X400762Y203988D01*
X401574Y205949D01*
Y208071D01*
X400762Y210032D01*
X399262Y211532D01*
X397301Y212344D01*
X395301D01*
X388426Y219219D01*
Y276840D01*
X389257Y277063D01*
X389696Y277096D01*
X391463Y275329D01*
X393708Y274032D01*
X396213Y273361D01*
X398807D01*
X401312Y274032D01*
X403557Y275329D01*
X405391Y277163D01*
X406688Y279408D01*
X407102Y280955D01*
X408372Y280788D01*
D02*
G37*
G36*
X382210Y278466D02*
Y262554D01*
X380940Y262213D01*
X379991Y263857D01*
X378157Y265691D01*
X375912Y266988D01*
X373407Y267659D01*
X370813D01*
X368308Y266988D01*
X366063Y265691D01*
X364804Y264432D01*
X363534Y264958D01*
Y276062D01*
X364804Y276588D01*
X366063Y275329D01*
X368308Y274032D01*
X370813Y273361D01*
X373407D01*
X375912Y274032D01*
X378157Y275329D01*
X379991Y277163D01*
X380940Y278806D01*
X382210Y278466D01*
D02*
G37*
G36*
X255972Y280788D02*
Y234193D01*
X254799Y233707D01*
X232273Y256233D01*
Y265863D01*
X233446Y266349D01*
X239776Y260019D01*
Y258019D01*
X240588Y256059D01*
X242089Y254558D01*
X244049Y253746D01*
X246171D01*
X248132Y254558D01*
X249632Y256059D01*
X250444Y258019D01*
Y260141D01*
X249632Y262101D01*
X248132Y263602D01*
X246171Y264414D01*
X244171D01*
X236845Y271740D01*
Y275751D01*
X238115Y276277D01*
X239063Y275329D01*
X241308Y274032D01*
X243813Y273361D01*
X246407D01*
X248912Y274032D01*
X251157Y275329D01*
X252991Y277163D01*
X254288Y279408D01*
X254702Y280955D01*
X255972Y280788D01*
D02*
G37*
G36*
X382210Y253066D02*
Y237154D01*
X380940Y236814D01*
X379991Y238457D01*
X378157Y240291D01*
X375912Y241588D01*
X373407Y242259D01*
X370813D01*
X368308Y241588D01*
X366063Y240291D01*
X364804Y239032D01*
X363534Y239558D01*
Y250662D01*
X364804Y251188D01*
X366063Y249929D01*
X368308Y248632D01*
X370813Y247961D01*
X373407D01*
X375912Y248632D01*
X378157Y249929D01*
X379991Y251763D01*
X380940Y253407D01*
X382210Y253066D01*
D02*
G37*
G36*
X226057Y378024D02*
Y254946D01*
X226294Y253757D01*
X226967Y252748D01*
X252673Y227043D01*
Y224397D01*
X251403Y223842D01*
X249727Y224536D01*
X247727D01*
X224342Y247921D01*
Y378360D01*
X224787Y378678D01*
X226057Y378024D01*
D02*
G37*
G36*
X11318Y283266D02*
X13966Y280618D01*
X17210Y278745D01*
X20827Y277776D01*
X24517D01*
X24673Y277621D01*
X25295Y276655D01*
X25069Y276317D01*
X24832Y275127D01*
Y256760D01*
X25069Y255571D01*
X25742Y254562D01*
X26635Y253670D01*
X26635Y253670D01*
X55452Y224853D01*
X54961Y223019D01*
Y220981D01*
X54962Y220977D01*
X53823Y220320D01*
X9966Y264177D01*
Y283155D01*
X11193Y283484D01*
X11318Y283266D01*
D02*
G37*
G36*
X97948Y215807D02*
X99713Y214788D01*
X101681Y214261D01*
X103719D01*
X105553Y214752D01*
X108906Y211399D01*
Y208534D01*
X107636Y208008D01*
X107452Y208193D01*
X105687Y209212D01*
X103719Y209739D01*
X101681D01*
X99713Y209212D01*
X97948Y208193D01*
X96507Y206752D01*
X95488Y204987D01*
X94961Y203019D01*
Y200981D01*
X95488Y199013D01*
X96507Y197248D01*
X97948Y195807D01*
X99713Y194788D01*
X101681Y194261D01*
X103719D01*
X105687Y194788D01*
X107452Y195807D01*
X107636Y195992D01*
X108906Y195466D01*
Y188534D01*
X107636Y188008D01*
X107452Y188193D01*
X105687Y189212D01*
X103719Y189739D01*
X101681D01*
X99713Y189212D01*
X97948Y188193D01*
X96507Y186752D01*
X95488Y184987D01*
X94961Y183019D01*
Y180981D01*
X95452Y179147D01*
X91370Y175066D01*
X88506D01*
X87980Y176336D01*
X88893Y177248D01*
X89911Y179013D01*
X90439Y180981D01*
Y183019D01*
X89911Y184987D01*
X88893Y186752D01*
X87452Y188193D01*
X85687Y189212D01*
X83719Y189739D01*
X81681D01*
X79713Y189212D01*
X77948Y188193D01*
X76507Y186752D01*
X75488Y184987D01*
X74961Y183019D01*
Y180981D01*
X75488Y179013D01*
X76507Y177248D01*
X77420Y176336D01*
X76894Y175066D01*
X68506D01*
X67980Y176336D01*
X68893Y177248D01*
X69911Y179013D01*
X70439Y180981D01*
Y183019D01*
X69911Y184987D01*
X68893Y186752D01*
X67452Y188193D01*
X65808Y189142D01*
Y194858D01*
X67452Y195807D01*
X68893Y197248D01*
X69911Y199013D01*
X70439Y200981D01*
Y203019D01*
X69911Y204987D01*
X69566Y205585D01*
X69761Y206049D01*
X70357Y206756D01*
X72181D01*
X74142Y207568D01*
X75556Y208982D01*
X76941D01*
X77467Y207712D01*
X76507Y206752D01*
X75488Y204987D01*
X74961Y203019D01*
Y200981D01*
X75488Y199013D01*
X76507Y197248D01*
X77948Y195807D01*
X79713Y194788D01*
X81681Y194261D01*
X83719D01*
X85687Y194788D01*
X87452Y195807D01*
X88893Y197248D01*
X89911Y199013D01*
X90439Y200981D01*
Y203019D01*
X89911Y204987D01*
X88893Y206752D01*
X87932Y207712D01*
X88458Y208982D01*
X89662D01*
X90851Y209219D01*
X91860Y209893D01*
X95162Y213195D01*
X95835Y214203D01*
X96072Y215392D01*
Y215888D01*
X97342Y216414D01*
X97948Y215807D01*
D02*
G37*
G36*
X116507Y197248D02*
X117948Y195807D01*
X119713Y194788D01*
X121681Y194261D01*
X123719D01*
X125687Y194788D01*
X127452Y195807D01*
X128892Y197248D01*
X128972Y197386D01*
X129666Y197371D01*
X130288Y197126D01*
X130479Y196169D01*
X131152Y195161D01*
X135978Y190334D01*
X136987Y189661D01*
X137704Y189518D01*
X137948Y188193D01*
X136508Y186752D01*
X135489Y184987D01*
X134961Y183019D01*
Y180981D01*
X135489Y179013D01*
X136508Y177248D01*
X137928Y175828D01*
X137926Y175733D01*
X137573Y174558D01*
X127827D01*
X127474Y175733D01*
X127472Y175828D01*
X128892Y177248D01*
X129911Y179013D01*
X130439Y180981D01*
Y183019D01*
X129911Y184987D01*
X128892Y186752D01*
X127452Y188193D01*
X125687Y189212D01*
X123719Y189739D01*
X121681D01*
X119713Y189212D01*
X117948Y188193D01*
X116507Y186752D01*
X116392Y186552D01*
X115122Y186893D01*
Y197108D01*
X116392Y197448D01*
X116507Y197248D01*
D02*
G37*
G36*
X236291Y135234D02*
X235932Y134612D01*
X235261Y132107D01*
Y129513D01*
X235932Y127008D01*
X237229Y124763D01*
X238234Y123758D01*
X237708Y122488D01*
X183405D01*
X171616Y134277D01*
X170607Y134951D01*
X169418Y135188D01*
X148628D01*
X148102Y136458D01*
X148893Y137248D01*
X149912Y139013D01*
X150439Y140981D01*
Y143019D01*
X149912Y144987D01*
X148893Y146752D01*
X147452Y148193D01*
X145687Y149212D01*
X143719Y149739D01*
X141681D01*
X139713Y149212D01*
X137948Y148193D01*
X136508Y146752D01*
X135489Y144987D01*
X134961Y143019D01*
Y140981D01*
X135489Y139013D01*
X136508Y137248D01*
X137298Y136458D01*
X136772Y135188D01*
X133907D01*
X129947Y139148D01*
X130439Y140981D01*
Y143019D01*
X129911Y144987D01*
X128892Y146752D01*
X127452Y148193D01*
X125687Y149212D01*
X123719Y149739D01*
X121681D01*
X119713Y149212D01*
X117948Y148193D01*
X116507Y146752D01*
X115488Y144987D01*
X114961Y143019D01*
Y140981D01*
X115488Y139013D01*
X116507Y137248D01*
X117948Y135808D01*
X119713Y134789D01*
X121681Y134261D01*
X123719D01*
X125553Y134753D01*
X130422Y129882D01*
X131431Y129209D01*
X132620Y128972D01*
X134961D01*
Y114261D01*
X134961D01*
X134724Y113090D01*
X124253D01*
X124086Y114360D01*
X125687Y114789D01*
X127452Y115808D01*
X128892Y117248D01*
X129911Y119013D01*
X130439Y120981D01*
Y123019D01*
X129911Y124987D01*
X128892Y126752D01*
X127452Y128193D01*
X125687Y129212D01*
X123719Y129739D01*
X121681D01*
X119713Y129212D01*
X117948Y128193D01*
X116507Y126752D01*
X115488Y124987D01*
X114961Y123019D01*
Y120981D01*
X115488Y119013D01*
X116507Y117248D01*
X117948Y115808D01*
X119713Y114789D01*
X121313Y114360D01*
X121146Y113090D01*
X116005D01*
X109948Y119148D01*
X110439Y120981D01*
Y123019D01*
X109911Y124987D01*
X108893Y126752D01*
X107452Y128193D01*
X105687Y129212D01*
X103719Y129739D01*
X101681D01*
X99713Y129212D01*
X97948Y128193D01*
X96834Y127079D01*
X95564Y127541D01*
Y136460D01*
X96834Y136922D01*
X97948Y135808D01*
X99713Y134789D01*
X101681Y134261D01*
X103719D01*
X105687Y134789D01*
X107452Y135808D01*
X108893Y137248D01*
X109911Y139013D01*
X110439Y140981D01*
Y143019D01*
X109911Y144987D01*
X108893Y146752D01*
X107452Y148193D01*
X105687Y149212D01*
X103719Y149739D01*
X101681D01*
X99713Y149212D01*
X97948Y148193D01*
X96834Y147079D01*
X95564Y147541D01*
Y152244D01*
X95327Y153433D01*
X94654Y154442D01*
X89948Y159148D01*
X90439Y160981D01*
Y163019D01*
X89911Y164987D01*
X88893Y166752D01*
X88064Y167580D01*
X88590Y168850D01*
X92658D01*
X93847Y169087D01*
X94855Y169760D01*
X99847Y174753D01*
X101681Y174261D01*
X103719D01*
X105687Y174789D01*
X107452Y175807D01*
X107831Y176187D01*
X108297Y176157D01*
X109303Y175863D01*
X109817Y175095D01*
X115659Y169252D01*
X116589Y168631D01*
X116677Y168532D01*
X116977Y167222D01*
X116507Y166752D01*
X115488Y164987D01*
X114961Y163019D01*
Y160981D01*
X115488Y159013D01*
X116507Y157248D01*
X117948Y155807D01*
X119713Y154789D01*
X121681Y154261D01*
X123719D01*
X125687Y154789D01*
X127452Y155807D01*
X128892Y157248D01*
X129911Y159013D01*
X130439Y160981D01*
Y163019D01*
X129911Y164987D01*
X128892Y166752D01*
X128572Y167072D01*
X129098Y168342D01*
X136302D01*
X136828Y167072D01*
X136508Y166752D01*
X135489Y164987D01*
X134961Y163019D01*
Y160981D01*
X135489Y159013D01*
X136508Y157248D01*
X137948Y155807D01*
X139713Y154789D01*
X141681Y154261D01*
X143719D01*
X145687Y154789D01*
X147452Y155807D01*
X148893Y157248D01*
X149912Y159013D01*
X150439Y160981D01*
Y163019D01*
X149912Y164987D01*
X148893Y166752D01*
X148573Y167072D01*
X149099Y168342D01*
X183778D01*
X185193Y166928D01*
X187153Y166116D01*
X189275D01*
X191236Y166928D01*
X192736Y168428D01*
X193548Y170389D01*
Y172511D01*
X192736Y174471D01*
X191236Y175972D01*
X189275Y176784D01*
X187153D01*
X185193Y175972D01*
X183778Y174558D01*
X147828D01*
X147475Y175733D01*
X147472Y175828D01*
X148893Y177248D01*
X149912Y179013D01*
X150439Y180981D01*
Y183019D01*
X149912Y184987D01*
X148893Y186752D01*
X147491Y188154D01*
X147498Y188333D01*
X147859Y189424D01*
X182101D01*
X236291Y135234D01*
D02*
G37*
G36*
X312132Y279408D02*
X313429Y277163D01*
X315263Y275329D01*
X317508Y274032D01*
X320013Y273361D01*
X322607D01*
X325112Y274032D01*
X327357Y275329D01*
X329191Y277163D01*
X330488Y279408D01*
X330902Y280955D01*
X332172Y280788D01*
Y133232D01*
X330902Y133065D01*
X330488Y134612D01*
X329191Y136857D01*
X327357Y138691D01*
X325112Y139988D01*
X322607Y140659D01*
X320013D01*
X317508Y139988D01*
X315263Y138691D01*
X313429Y136857D01*
X312132Y134612D01*
X311461Y132107D01*
Y129513D01*
X312132Y127008D01*
X313429Y124763D01*
X315263Y122929D01*
X317508Y121632D01*
X320013Y120961D01*
X322607D01*
X325112Y121632D01*
X327357Y122929D01*
X328164Y121993D01*
X319261Y113090D01*
X150677D01*
X150439Y114261D01*
X150439D01*
Y128972D01*
X168131D01*
X179921Y117183D01*
X180929Y116509D01*
X182118Y116272D01*
X276352D01*
X277541Y116509D01*
X278549Y117183D01*
X284137Y122771D01*
X284811Y123779D01*
X285048Y124968D01*
Y128388D01*
X286318Y128555D01*
X286732Y127008D01*
X288029Y124763D01*
X289863Y122929D01*
X292108Y121632D01*
X294613Y120961D01*
X297207D01*
X299712Y121632D01*
X301957Y122929D01*
X303791Y124763D01*
X305088Y127008D01*
X305759Y129513D01*
Y132107D01*
X305088Y134612D01*
X303791Y136857D01*
X301957Y138691D01*
X299712Y139988D01*
X297207Y140659D01*
X294613D01*
X292108Y139988D01*
X289863Y138691D01*
X288029Y136857D01*
X286732Y134612D01*
X286318Y133065D01*
X285048Y133232D01*
Y280788D01*
X286318Y280955D01*
X286732Y279408D01*
X288029Y277163D01*
X289863Y275329D01*
X292108Y274032D01*
X294613Y273361D01*
X297207D01*
X299712Y274032D01*
X301957Y275329D01*
X302962Y276334D01*
X304232Y275808D01*
Y160545D01*
X303961Y160274D01*
X301961D01*
X300000Y159462D01*
X298500Y157962D01*
X297688Y156001D01*
Y153879D01*
X298500Y151918D01*
X300000Y150418D01*
X301961Y149606D01*
X304083D01*
X306043Y150418D01*
X307544Y151918D01*
X308356Y153879D01*
Y155879D01*
X309538Y157060D01*
X310211Y158069D01*
X310448Y159258D01*
Y280788D01*
X311718Y280955D01*
X312132Y279408D01*
D02*
G37*
G36*
X51143Y172554D02*
X53937Y169760D01*
X54945Y169087D01*
X56134Y168850D01*
X56809D01*
X57335Y167580D01*
X56507Y166752D01*
X55488Y164987D01*
X54961Y163019D01*
Y160981D01*
X55488Y159013D01*
X56507Y157248D01*
X57948Y155807D01*
X59713Y154789D01*
X61681Y154261D01*
X63719D01*
X65687Y154789D01*
X67452Y155807D01*
X68893Y157248D01*
X69028Y157483D01*
X70298Y157143D01*
Y146858D01*
X69028Y146517D01*
X68893Y146752D01*
X67452Y148193D01*
X65687Y149212D01*
X63719Y149739D01*
X61681D01*
X59713Y149212D01*
X57948Y148193D01*
X56507Y146752D01*
X55488Y144987D01*
X54961Y143019D01*
Y140981D01*
X55488Y139013D01*
X56507Y137248D01*
X57948Y135808D01*
X59713Y134789D01*
X61681Y134261D01*
X63719D01*
X65687Y134789D01*
X67452Y135808D01*
X68893Y137248D01*
X69028Y137483D01*
X70298Y137143D01*
Y126858D01*
X69028Y126517D01*
X68893Y126752D01*
X67452Y128193D01*
X65687Y129212D01*
X63719Y129739D01*
X61681D01*
X59713Y129212D01*
X57948Y128193D01*
X56507Y126752D01*
X55488Y124987D01*
X54961Y123019D01*
Y120981D01*
X55488Y119013D01*
X56507Y117248D01*
X57948Y115808D01*
X59713Y114789D01*
X61681Y114261D01*
X63719D01*
X65687Y114789D01*
X67452Y115808D01*
X68893Y117248D01*
X69065Y117547D01*
X70404Y117326D01*
X70535Y116667D01*
X71209Y115659D01*
X86702Y100164D01*
X87711Y99491D01*
X88900Y99254D01*
X89989D01*
X90253Y98866D01*
X89580Y97596D01*
X64279D01*
X49590Y112285D01*
Y172593D01*
X50860Y172978D01*
X51143Y172554D01*
D02*
G37*
G36*
X464532Y279408D02*
X465829Y277163D01*
X467663Y275329D01*
X469908Y274032D01*
X472413Y273361D01*
X475007D01*
X477512Y274032D01*
X479757Y275329D01*
X481591Y277163D01*
X482286Y278367D01*
X483556Y278026D01*
Y231665D01*
X457542Y205651D01*
X456869Y204643D01*
X456632Y203454D01*
Y138212D01*
X455362Y137686D01*
X454357Y138691D01*
X452112Y139988D01*
X451418Y140174D01*
Y260587D01*
X461937Y271106D01*
X462611Y272115D01*
X462848Y273304D01*
Y280788D01*
X464118Y280955D01*
X464532Y279408D01*
D02*
G37*
G36*
X210221Y439234D02*
X210870Y437668D01*
X211268Y437270D01*
Y246436D01*
X209854Y245021D01*
X209042Y243061D01*
Y240939D01*
X209854Y238979D01*
X211355Y237478D01*
X213315Y236666D01*
X215437D01*
X217397Y237478D01*
X218898Y238979D01*
X219710Y240939D01*
Y241967D01*
X220980Y242493D01*
X243332Y220141D01*
Y218141D01*
X244144Y216180D01*
X245644Y214680D01*
X247605Y213868D01*
X249727D01*
X251403Y214562D01*
X252673Y214007D01*
Y207518D01*
X250907D01*
X248946Y206706D01*
X247446Y205205D01*
X246634Y203245D01*
Y201123D01*
X247446Y199163D01*
X248946Y197662D01*
X250907Y196850D01*
X253029D01*
X254989Y197662D01*
X255975Y198648D01*
X257245Y198122D01*
Y182306D01*
X256059Y181814D01*
X254558Y180313D01*
X253746Y178353D01*
Y176231D01*
X254558Y174270D01*
X256059Y172770D01*
X258019Y171958D01*
X260141D01*
X262101Y172770D01*
X263602Y174270D01*
X264414Y176231D01*
Y178353D01*
X263602Y180313D01*
X263461Y180455D01*
Y230945D01*
X263224Y232135D01*
X262551Y233143D01*
X262188Y233506D01*
Y275808D01*
X263458Y276334D01*
X264463Y275329D01*
X266708Y274032D01*
X269213Y273361D01*
X271807D01*
X274312Y274032D01*
X276557Y275329D01*
X277562Y276334D01*
X278832Y275808D01*
Y138212D01*
X277562Y137686D01*
X276557Y138691D01*
X274312Y139988D01*
X271807Y140659D01*
X269213D01*
X266708Y139988D01*
X266086Y139629D01*
X188528Y217187D01*
Y373888D01*
X188291Y375077D01*
X187617Y376086D01*
X173902Y389801D01*
X172893Y390475D01*
X171704Y390712D01*
X161562D01*
X161076Y391885D01*
X208885Y439694D01*
X210221Y439234D01*
D02*
G37*
G36*
X182312Y372601D02*
Y215900D01*
X182549Y214711D01*
X183223Y213703D01*
X261691Y135234D01*
X261332Y134612D01*
X260661Y132107D01*
Y129513D01*
X261332Y127008D01*
X262629Y124763D01*
X263634Y123758D01*
X263108Y122488D01*
X252512D01*
X251986Y123758D01*
X252991Y124763D01*
X254288Y127008D01*
X254959Y129513D01*
Y132107D01*
X254288Y134612D01*
X252991Y136857D01*
X251157Y138691D01*
X248912Y139988D01*
X246407Y140659D01*
X243813D01*
X241308Y139988D01*
X240686Y139629D01*
X185585Y194729D01*
X184577Y195403D01*
X183388Y195640D01*
X149080D01*
X148554Y196910D01*
X148893Y197248D01*
X149912Y199013D01*
X150439Y200981D01*
Y203019D01*
X150233Y203787D01*
X151208Y205057D01*
X153924D01*
X155113Y205294D01*
X156122Y205967D01*
X160693Y210539D01*
X161367Y211547D01*
X161604Y212737D01*
Y374024D01*
X163018Y375438D01*
X163830Y377399D01*
Y379521D01*
X163018Y381482D01*
X161518Y382982D01*
X160928Y383226D01*
X161180Y384496D01*
X170417D01*
X182312Y372601D01*
D02*
G37*
%LPC*%
G36*
X501614Y776454D02*
X501396D01*
Y768096D01*
X509754D01*
Y768314D01*
X509115Y770698D01*
X507881Y772836D01*
X506136Y774581D01*
X503998Y775815D01*
X501614Y776454D01*
D02*
G37*
G36*
X499364D02*
X499146D01*
X496762Y775815D01*
X494624Y774581D01*
X492879Y772836D01*
X491645Y770698D01*
X491006Y768314D01*
Y768096D01*
X499364D01*
Y776454D01*
D02*
G37*
G36*
X416524D02*
X416306D01*
Y768096D01*
X424664D01*
Y768314D01*
X424025Y770698D01*
X422791Y772836D01*
X421046Y774581D01*
X418908Y775815D01*
X416524Y776454D01*
D02*
G37*
G36*
X414274D02*
X414056D01*
X411672Y775815D01*
X409534Y774581D01*
X407789Y772836D01*
X406555Y770698D01*
X405916Y768314D01*
Y768096D01*
X414274D01*
Y776454D01*
D02*
G37*
G36*
X424664Y766064D02*
X416306D01*
Y757706D01*
X416524D01*
X418908Y758345D01*
X421046Y759579D01*
X422791Y761324D01*
X424025Y763462D01*
X424664Y765846D01*
Y766064D01*
D02*
G37*
G36*
X414274D02*
X405916D01*
Y765846D01*
X406555Y763462D01*
X407789Y761324D01*
X409534Y759579D01*
X411672Y758345D01*
X414056Y757706D01*
X414274D01*
Y766064D01*
D02*
G37*
G36*
X399264Y776454D02*
X380516D01*
Y757706D01*
X399264D01*
Y776454D01*
D02*
G37*
G36*
X599694Y736289D02*
X599413D01*
X596908Y735618D01*
X594663Y734321D01*
X592829Y732487D01*
X591532Y730242D01*
X590861Y727737D01*
Y727456D01*
X599694D01*
Y736289D01*
D02*
G37*
G36*
X271807D02*
X271526D01*
Y727456D01*
X280359D01*
Y727737D01*
X279688Y730242D01*
X278391Y732487D01*
X276557Y734321D01*
X274312Y735618D01*
X271807Y736289D01*
D02*
G37*
G36*
X269494D02*
X269213D01*
X266708Y735618D01*
X264463Y734321D01*
X262629Y732487D01*
X261332Y730242D01*
X260661Y727737D01*
Y727456D01*
X269494D01*
Y736289D01*
D02*
G37*
G36*
X198444Y768444D02*
X140396D01*
Y760028D01*
X125222D01*
X124033Y759791D01*
X123025Y759118D01*
X94323Y730415D01*
X93649Y729407D01*
X93412Y728218D01*
Y691865D01*
X93258Y691762D01*
X92259Y690265D01*
X91907Y688500D01*
Y675500D01*
X92259Y673735D01*
X93258Y672239D01*
X94755Y671239D01*
X96520Y670888D01*
X98285Y671239D01*
X99782Y672239D01*
X100781Y673735D01*
X101133Y675500D01*
Y688500D01*
X100781Y690265D01*
X99782Y691762D01*
X99628Y691865D01*
Y726931D01*
X126509Y753812D01*
X140396D01*
Y745396D01*
X198444D01*
Y753812D01*
X202929D01*
X208024Y748717D01*
X207538Y747544D01*
X204586D01*
Y732314D01*
X204586Y731996D01*
Y731044D01*
X204586Y730726D01*
Y724286D01*
X222134D01*
Y730726D01*
X222134Y731044D01*
Y731996D01*
X222134Y732314D01*
Y747544D01*
X216468D01*
Y747776D01*
X216231Y748965D01*
X215557Y749974D01*
X206413Y759118D01*
X205405Y759791D01*
X204216Y760028D01*
X198444D01*
Y768444D01*
D02*
G37*
G36*
X830607Y736289D02*
X828013D01*
X825508Y735618D01*
X823263Y734321D01*
X821429Y732487D01*
X820132Y730242D01*
X819461Y727737D01*
Y725143D01*
X820132Y722638D01*
X821429Y720393D01*
X823263Y718559D01*
X825508Y717262D01*
X828013Y716591D01*
X830607D01*
X833112Y717262D01*
X835357Y718559D01*
X837191Y720393D01*
X838488Y722638D01*
X839159Y725143D01*
Y727737D01*
X838488Y730242D01*
X837191Y732487D01*
X835357Y734321D01*
X833112Y735618D01*
X830607Y736289D01*
D02*
G37*
G36*
X805207D02*
X802613D01*
X800108Y735618D01*
X797863Y734321D01*
X796029Y732487D01*
X794732Y730242D01*
X794061Y727737D01*
Y725143D01*
X794732Y722638D01*
X796029Y720393D01*
X797863Y718559D01*
X800108Y717262D01*
X802613Y716591D01*
X805207D01*
X807712Y717262D01*
X809957Y718559D01*
X811791Y720393D01*
X813088Y722638D01*
X813759Y725143D01*
Y727737D01*
X813088Y730242D01*
X811791Y732487D01*
X809957Y734321D01*
X807712Y735618D01*
X805207Y736289D01*
D02*
G37*
G36*
X779807D02*
X777213D01*
X774708Y735618D01*
X772463Y734321D01*
X770629Y732487D01*
X769332Y730242D01*
X768661Y727737D01*
Y725143D01*
X769332Y722638D01*
X770629Y720393D01*
X772463Y718559D01*
X774708Y717262D01*
X777213Y716591D01*
X779807D01*
X782312Y717262D01*
X784557Y718559D01*
X786391Y720393D01*
X787688Y722638D01*
X788359Y725143D01*
Y727737D01*
X787688Y730242D01*
X786391Y732487D01*
X784557Y734321D01*
X782312Y735618D01*
X779807Y736289D01*
D02*
G37*
G36*
X754407D02*
X751813D01*
X749308Y735618D01*
X747063Y734321D01*
X745229Y732487D01*
X743932Y730242D01*
X743261Y727737D01*
Y725143D01*
X743932Y722638D01*
X745229Y720393D01*
X747063Y718559D01*
X749308Y717262D01*
X751813Y716591D01*
X754407D01*
X756912Y717262D01*
X759157Y718559D01*
X760991Y720393D01*
X762288Y722638D01*
X762959Y725143D01*
Y727737D01*
X762288Y730242D01*
X760991Y732487D01*
X759157Y734321D01*
X756912Y735618D01*
X754407Y736289D01*
D02*
G37*
G36*
X599694Y725424D02*
X590861D01*
Y725143D01*
X591532Y722638D01*
X592829Y720393D01*
X594663Y718559D01*
X596908Y717262D01*
X599413Y716591D01*
X599694D01*
Y725424D01*
D02*
G37*
G36*
X398807Y736289D02*
X396213D01*
X393708Y735618D01*
X391463Y734321D01*
X389629Y732487D01*
X388332Y730242D01*
X387661Y727737D01*
Y725143D01*
X388332Y722638D01*
X389629Y720393D01*
X391463Y718559D01*
X393708Y717262D01*
X396213Y716591D01*
X398807D01*
X401312Y717262D01*
X403557Y718559D01*
X405391Y720393D01*
X406688Y722638D01*
X407359Y725143D01*
Y727737D01*
X406688Y730242D01*
X405391Y732487D01*
X403557Y734321D01*
X401312Y735618D01*
X398807Y736289D01*
D02*
G37*
G36*
X322607D02*
X320013D01*
X317508Y735618D01*
X315263Y734321D01*
X313429Y732487D01*
X312132Y730242D01*
X311461Y727737D01*
Y725143D01*
X312132Y722638D01*
X313429Y720393D01*
X315263Y718559D01*
X317508Y717262D01*
X320013Y716591D01*
X322607D01*
X325112Y717262D01*
X327357Y718559D01*
X329191Y720393D01*
X330488Y722638D01*
X331159Y725143D01*
Y727737D01*
X330488Y730242D01*
X329191Y732487D01*
X327357Y734321D01*
X325112Y735618D01*
X322607Y736289D01*
D02*
G37*
G36*
X297207D02*
X294613D01*
X292108Y735618D01*
X289863Y734321D01*
X288029Y732487D01*
X286732Y730242D01*
X286061Y727737D01*
Y725143D01*
X286732Y722638D01*
X288029Y720393D01*
X289863Y718559D01*
X292108Y717262D01*
X294613Y716591D01*
X297207D01*
X299712Y717262D01*
X301957Y718559D01*
X303791Y720393D01*
X305088Y722638D01*
X305759Y725143D01*
Y727737D01*
X305088Y730242D01*
X303791Y732487D01*
X301957Y734321D01*
X299712Y735618D01*
X297207Y736289D01*
D02*
G37*
G36*
X280359Y725424D02*
X271526D01*
Y716591D01*
X271807D01*
X274312Y717262D01*
X276557Y718559D01*
X278391Y720393D01*
X279688Y722638D01*
X280359Y725143D01*
Y725424D01*
D02*
G37*
G36*
X269494D02*
X260661D01*
Y725143D01*
X261332Y722638D01*
X262629Y720393D01*
X264463Y718559D01*
X266708Y717262D01*
X269213Y716591D01*
X269494D01*
Y725424D01*
D02*
G37*
G36*
X222134Y722254D02*
X214376D01*
Y715496D01*
X222134D01*
Y722254D01*
D02*
G37*
G36*
X212344D02*
X204586D01*
Y715496D01*
X212344D01*
Y722254D01*
D02*
G37*
G36*
X29094D02*
X21336D01*
Y715496D01*
X29094D01*
Y722254D01*
D02*
G37*
G36*
X19304D02*
X11546D01*
Y715496D01*
X19304D01*
Y722254D01*
D02*
G37*
G36*
X703607Y710889D02*
X701013D01*
X698508Y710218D01*
X696263Y708921D01*
X694429Y707087D01*
X693132Y704842D01*
X692461Y702337D01*
Y699743D01*
X693132Y697238D01*
X694429Y694993D01*
X696263Y693159D01*
X698508Y691862D01*
X701013Y691191D01*
X703607D01*
X706112Y691862D01*
X708357Y693159D01*
X710191Y694993D01*
X711488Y697238D01*
X712159Y699743D01*
Y702337D01*
X711488Y704842D01*
X710191Y707087D01*
X708357Y708921D01*
X706112Y710218D01*
X703607Y710889D01*
D02*
G37*
G36*
X271807D02*
X269213D01*
X266708Y710218D01*
X264463Y708921D01*
X262629Y707087D01*
X261332Y704842D01*
X260661Y702337D01*
Y699743D01*
X261332Y697238D01*
X262629Y694993D01*
X264463Y693159D01*
X266708Y691862D01*
X269213Y691191D01*
X271807D01*
X274312Y691862D01*
X276557Y693159D01*
X278391Y694993D01*
X279688Y697238D01*
X280359Y699743D01*
Y702337D01*
X279688Y704842D01*
X278391Y707087D01*
X276557Y708921D01*
X274312Y710218D01*
X271807Y710889D01*
D02*
G37*
G36*
X72136Y692911D02*
Y683016D01*
X75733D01*
Y688500D01*
X75381Y690265D01*
X74382Y691762D01*
X72885Y692762D01*
X72136Y692911D01*
D02*
G37*
G36*
X70104D02*
X69355Y692762D01*
X67858Y691762D01*
X66859Y690265D01*
X66507Y688500D01*
Y683016D01*
X70104D01*
Y692911D01*
D02*
G37*
G36*
X75733Y680984D02*
X72136D01*
Y671090D01*
X72885Y671239D01*
X74382Y672239D01*
X75381Y673735D01*
X75733Y675500D01*
Y680984D01*
D02*
G37*
G36*
X70104D02*
X66507D01*
Y675500D01*
X66859Y673735D01*
X67858Y672239D01*
X69355Y671239D01*
X70104Y671090D01*
Y680984D01*
D02*
G37*
G36*
X103444Y768444D02*
X45396D01*
Y760028D01*
X29464D01*
X28275Y759791D01*
X27266Y759118D01*
X18123Y749974D01*
X17449Y748965D01*
X17212Y747776D01*
Y747544D01*
X11546D01*
Y732314D01*
X11546Y731996D01*
Y731044D01*
X11546Y730726D01*
Y724286D01*
X29094D01*
Y730726D01*
X29094Y731044D01*
Y731996D01*
X29094Y732314D01*
Y747544D01*
X26142D01*
X25656Y748717D01*
X30751Y753812D01*
X45396D01*
Y745396D01*
X71312D01*
Y724156D01*
X71549Y722967D01*
X72222Y721959D01*
X80712Y713469D01*
Y691865D01*
X80558Y691762D01*
X79559Y690265D01*
X79207Y688500D01*
Y675500D01*
X79559Y673735D01*
X80558Y672239D01*
X82055Y671239D01*
X83820Y670888D01*
X85585Y671239D01*
X87082Y672239D01*
X88082Y673735D01*
X88433Y675500D01*
Y688500D01*
X88082Y690265D01*
X87082Y691762D01*
X86928Y691865D01*
Y714756D01*
X86691Y715945D01*
X86018Y716954D01*
X77528Y725443D01*
Y745396D01*
X103444D01*
Y768444D01*
D02*
G37*
G36*
X703607Y685489D02*
X701013D01*
X698508Y684818D01*
X696263Y683521D01*
X694429Y681687D01*
X693132Y679442D01*
X692461Y676937D01*
Y674343D01*
X693132Y671838D01*
X694429Y669593D01*
X696263Y667759D01*
X698508Y666462D01*
X701013Y665791D01*
X703607D01*
X706112Y666462D01*
X708357Y667759D01*
X710191Y669593D01*
X711488Y671838D01*
X712159Y674343D01*
Y676937D01*
X711488Y679442D01*
X710191Y681687D01*
X708357Y683521D01*
X706112Y684818D01*
X703607Y685489D01*
D02*
G37*
G36*
Y660089D02*
X703326D01*
Y651256D01*
X712159D01*
Y651537D01*
X711488Y654042D01*
X710191Y656287D01*
X708357Y658121D01*
X706112Y659418D01*
X703607Y660089D01*
D02*
G37*
G36*
X701294D02*
X701013D01*
X698508Y659418D01*
X696263Y658121D01*
X694429Y656287D01*
X693132Y654042D01*
X692461Y651537D01*
Y651256D01*
X701294D01*
Y660089D01*
D02*
G37*
G36*
X712159Y649224D02*
X703326D01*
Y640391D01*
X703607D01*
X706112Y641062D01*
X708357Y642359D01*
X710191Y644193D01*
X711488Y646438D01*
X712159Y648943D01*
Y649224D01*
D02*
G37*
G36*
X701294D02*
X692461D01*
Y648943D01*
X693132Y646438D01*
X694429Y644193D01*
X696263Y642359D01*
X698508Y641062D01*
X701013Y640391D01*
X701294D01*
Y649224D01*
D02*
G37*
G36*
X703607Y634689D02*
X701013D01*
X698508Y634018D01*
X696263Y632721D01*
X694429Y630887D01*
X693132Y628642D01*
X692461Y626137D01*
Y623543D01*
X693132Y621038D01*
X694429Y618793D01*
X696263Y616959D01*
X698508Y615662D01*
X701013Y614991D01*
X703607D01*
X706112Y615662D01*
X708357Y616959D01*
X710191Y618793D01*
X711488Y621038D01*
X712159Y623543D01*
Y626137D01*
X711488Y628642D01*
X710191Y630887D01*
X708357Y632721D01*
X706112Y634018D01*
X703607Y634689D01*
D02*
G37*
G36*
X239893Y609346D02*
X237771D01*
X235811Y608534D01*
X234396Y607120D01*
X195444D01*
X194030Y608534D01*
X192069Y609346D01*
X189947D01*
X187987Y608534D01*
X186486Y607034D01*
X185674Y605073D01*
Y602951D01*
X186486Y600990D01*
X187987Y599490D01*
X189947Y598678D01*
X192069D01*
X194030Y599490D01*
X195444Y600904D01*
X234396D01*
X235811Y599490D01*
X237771Y598678D01*
X239893D01*
X241854Y599490D01*
X243354Y600990D01*
X244166Y602951D01*
Y605073D01*
X243354Y607034D01*
X241854Y608534D01*
X239893Y609346D01*
D02*
G37*
G36*
X411507Y614389D02*
X411226D01*
Y605556D01*
X420059D01*
Y605836D01*
X419388Y608341D01*
X418091Y610587D01*
X416257Y612421D01*
X414012Y613718D01*
X411507Y614389D01*
D02*
G37*
G36*
X420059Y603524D02*
X411226D01*
Y594691D01*
X411507D01*
X414012Y595362D01*
X416257Y596659D01*
X418091Y598492D01*
X419388Y600738D01*
X420059Y603243D01*
Y603524D01*
D02*
G37*
G36*
X192909Y595412D02*
Y593000D01*
X195322D01*
X194908Y593998D01*
X193908Y594999D01*
X192909Y595412D01*
D02*
G37*
G36*
X190877D02*
X189879Y594999D01*
X188879Y593998D01*
X188465Y593000D01*
X190877D01*
Y595412D01*
D02*
G37*
G36*
X195322Y590968D02*
X192909D01*
Y588556D01*
X193908Y588969D01*
X194908Y589970D01*
X195322Y590968D01*
D02*
G37*
G36*
X190877D02*
X188465D01*
X188879Y589970D01*
X189879Y588969D01*
X190877Y588556D01*
Y590968D01*
D02*
G37*
G36*
X246407Y583889D02*
X246126D01*
Y575056D01*
X254959D01*
Y575337D01*
X254288Y577842D01*
X252991Y580087D01*
X251157Y581921D01*
X248912Y583218D01*
X246407Y583889D01*
D02*
G37*
G36*
X244094D02*
X243813D01*
X241308Y583218D01*
X239063Y581921D01*
X237229Y580087D01*
X235932Y577842D01*
X235261Y575337D01*
Y575056D01*
X244094D01*
Y583889D01*
D02*
G37*
G36*
X830607D02*
X828013D01*
X825508Y583218D01*
X823263Y581921D01*
X821429Y580087D01*
X820132Y577842D01*
X819461Y575337D01*
Y572743D01*
X820132Y570238D01*
X821429Y567993D01*
X823263Y566159D01*
X825508Y564862D01*
X828013Y564191D01*
X830607D01*
X833112Y564862D01*
X835357Y566159D01*
X837191Y567993D01*
X838488Y570238D01*
X839159Y572743D01*
Y575337D01*
X838488Y577842D01*
X837191Y580087D01*
X835357Y581921D01*
X833112Y583218D01*
X830607Y583889D01*
D02*
G37*
G36*
X805207D02*
X802613D01*
X800108Y583218D01*
X797863Y581921D01*
X796029Y580087D01*
X794732Y577842D01*
X794061Y575337D01*
Y572743D01*
X794732Y570238D01*
X796029Y567993D01*
X797863Y566159D01*
X800108Y564862D01*
X802613Y564191D01*
X805207D01*
X807712Y564862D01*
X809957Y566159D01*
X811791Y567993D01*
X813088Y570238D01*
X813759Y572743D01*
Y575337D01*
X813088Y577842D01*
X811791Y580087D01*
X809957Y581921D01*
X807712Y583218D01*
X805207Y583889D01*
D02*
G37*
G36*
X779807D02*
X777213D01*
X774708Y583218D01*
X772463Y581921D01*
X770629Y580087D01*
X769332Y577842D01*
X768661Y575337D01*
Y572743D01*
X769332Y570238D01*
X770629Y567993D01*
X772463Y566159D01*
X774708Y564862D01*
X777213Y564191D01*
X779807D01*
X782312Y564862D01*
X784557Y566159D01*
X786391Y567993D01*
X787688Y570238D01*
X788359Y572743D01*
Y575337D01*
X787688Y577842D01*
X786391Y580087D01*
X784557Y581921D01*
X782312Y583218D01*
X779807Y583889D01*
D02*
G37*
G36*
X254959Y573024D02*
X246126D01*
Y564191D01*
X246407D01*
X248912Y564862D01*
X251157Y566159D01*
X252991Y567993D01*
X254288Y570238D01*
X254959Y572743D01*
Y573024D01*
D02*
G37*
G36*
X244094D02*
X235261D01*
Y572743D01*
X235932Y570238D01*
X237229Y567993D01*
X239063Y566159D01*
X241308Y564862D01*
X243813Y564191D01*
X244094D01*
Y573024D01*
D02*
G37*
G36*
X233426Y488568D02*
Y486156D01*
X235838D01*
X235425Y487154D01*
X234424Y488155D01*
X233426Y488568D01*
D02*
G37*
G36*
X231394D02*
X230396Y488155D01*
X229395Y487154D01*
X228982Y486156D01*
X231394D01*
Y488568D01*
D02*
G37*
G36*
X235838Y484124D02*
X233426D01*
Y481712D01*
X234424Y482125D01*
X235425Y483126D01*
X235838Y484124D01*
D02*
G37*
G36*
X231394D02*
X228982D01*
X229395Y483126D01*
X230396Y482125D01*
X231394Y481712D01*
Y484124D01*
D02*
G37*
G36*
X839530Y512180D02*
X769626D01*
X768459Y511696D01*
X767976Y510530D01*
Y350440D01*
X768459Y349273D01*
X769626Y348790D01*
X839530D01*
X840696Y349273D01*
X841180Y350440D01*
Y510530D01*
X840696Y511696D01*
X839530Y512180D01*
D02*
G37*
G36*
X830607Y293059D02*
X830326D01*
Y284226D01*
X839159D01*
Y284507D01*
X838488Y287012D01*
X837191Y289257D01*
X835357Y291091D01*
X833112Y292388D01*
X830607Y293059D01*
D02*
G37*
G36*
X839159Y282194D02*
X830326D01*
Y273361D01*
X830607D01*
X833112Y274032D01*
X835357Y275329D01*
X837191Y277163D01*
X838488Y279408D01*
X839159Y281913D01*
Y282194D01*
D02*
G37*
G36*
X779807Y293059D02*
X777213D01*
X774708Y292388D01*
X772463Y291091D01*
X770629Y289257D01*
X769332Y287012D01*
X768661Y284507D01*
Y281913D01*
X769332Y279408D01*
X770629Y277163D01*
X772463Y275329D01*
X774708Y274032D01*
X777213Y273361D01*
X779807D01*
X782312Y274032D01*
X784557Y275329D01*
X786391Y277163D01*
X787688Y279408D01*
X788359Y281913D01*
Y284507D01*
X787688Y287012D01*
X786391Y289257D01*
X784557Y291091D01*
X782312Y292388D01*
X779807Y293059D01*
D02*
G37*
G36*
X754407D02*
X751813D01*
X749308Y292388D01*
X747063Y291091D01*
X745229Y289257D01*
X743932Y287012D01*
X743261Y284507D01*
Y281913D01*
X743932Y279408D01*
X745229Y277163D01*
X747063Y275329D01*
X749308Y274032D01*
X751813Y273361D01*
X754407D01*
X756912Y274032D01*
X759157Y275329D01*
X760991Y277163D01*
X762288Y279408D01*
X762959Y281913D01*
Y284507D01*
X762288Y287012D01*
X760991Y289257D01*
X759157Y291091D01*
X756912Y292388D01*
X754407Y293059D01*
D02*
G37*
G36*
X767107Y262559D02*
X764513D01*
X762008Y261888D01*
X759763Y260591D01*
X757929Y258758D01*
X756632Y256512D01*
X755961Y254007D01*
Y251413D01*
X756632Y248909D01*
X757929Y246663D01*
X759763Y244829D01*
X762008Y243532D01*
X764513Y242861D01*
X767107D01*
X769612Y243532D01*
X771857Y244829D01*
X773691Y246663D01*
X774988Y248909D01*
X775659Y251413D01*
Y254007D01*
X774988Y256512D01*
X773691Y258758D01*
X771857Y260591D01*
X769612Y261888D01*
X767107Y262559D01*
D02*
G37*
G36*
X741707D02*
X739113D01*
X736608Y261888D01*
X734363Y260591D01*
X732529Y258758D01*
X731232Y256512D01*
X730561Y254007D01*
Y251413D01*
X731232Y248909D01*
X732529Y246663D01*
X734363Y244829D01*
X736608Y243532D01*
X739113Y242861D01*
X741707D01*
X744212Y243532D01*
X746457Y244829D01*
X748291Y246663D01*
X749588Y248909D01*
X750259Y251413D01*
Y254007D01*
X749588Y256512D01*
X748291Y258758D01*
X746457Y260591D01*
X744212Y261888D01*
X741707Y262559D01*
D02*
G37*
G36*
X24573Y186224D02*
X20827D01*
X17210Y185255D01*
X13966Y183382D01*
X11318Y180734D01*
X9445Y177490D01*
X8476Y173873D01*
Y170128D01*
X9445Y166510D01*
X11318Y163266D01*
X13966Y160618D01*
X17210Y158745D01*
X20827Y157776D01*
X24573D01*
X28190Y158745D01*
X31434Y160618D01*
X34082Y163266D01*
X35955Y166510D01*
X36924Y170128D01*
Y173873D01*
X35955Y177490D01*
X34082Y180734D01*
X31434Y183382D01*
X28190Y185255D01*
X24573Y186224D01*
D02*
G37*
G36*
X805207Y166059D02*
X802613D01*
X800108Y165388D01*
X797863Y164091D01*
X796029Y162257D01*
X794732Y160012D01*
X794061Y157507D01*
Y154913D01*
X794732Y152408D01*
X796029Y150163D01*
X797863Y148329D01*
X800108Y147032D01*
X802613Y146361D01*
X805207D01*
X807712Y147032D01*
X809957Y148329D01*
X811791Y150163D01*
X813088Y152408D01*
X813759Y154913D01*
Y157507D01*
X813088Y160012D01*
X811791Y162257D01*
X809957Y164091D01*
X807712Y165388D01*
X805207Y166059D01*
D02*
G37*
G36*
Y140659D02*
X804926D01*
Y131826D01*
X813759D01*
Y132107D01*
X813088Y134612D01*
X811791Y136857D01*
X809957Y138691D01*
X807712Y139988D01*
X805207Y140659D01*
D02*
G37*
G36*
X802894D02*
X802613D01*
X800108Y139988D01*
X797863Y138691D01*
X796029Y136857D01*
X794732Y134612D01*
X794061Y132107D01*
Y131826D01*
X802894D01*
Y140659D01*
D02*
G37*
G36*
X830607D02*
X828013D01*
X825508Y139988D01*
X823263Y138691D01*
X821429Y136857D01*
X820132Y134612D01*
X819461Y132107D01*
Y129513D01*
X820132Y127008D01*
X821429Y124763D01*
X823263Y122929D01*
X825508Y121632D01*
X828013Y120961D01*
X830607D01*
X833112Y121632D01*
X835357Y122929D01*
X837191Y124763D01*
X838488Y127008D01*
X839159Y129513D01*
Y132107D01*
X838488Y134612D01*
X837191Y136857D01*
X835357Y138691D01*
X833112Y139988D01*
X830607Y140659D01*
D02*
G37*
G36*
X813759Y129794D02*
X804926D01*
Y120961D01*
X805207D01*
X807712Y121632D01*
X809957Y122929D01*
X811791Y124763D01*
X813088Y127008D01*
X813759Y129513D01*
Y129794D01*
D02*
G37*
G36*
X802894D02*
X794061D01*
Y129513D01*
X794732Y127008D01*
X796029Y124763D01*
X797863Y122929D01*
X800108Y121632D01*
X802613Y120961D01*
X802894D01*
Y129794D01*
D02*
G37*
G36*
X729007Y140659D02*
X726413D01*
X723908Y139988D01*
X721663Y138691D01*
X719829Y136857D01*
X718532Y134612D01*
X717861Y132107D01*
Y129513D01*
X718532Y127008D01*
X719829Y124763D01*
X721663Y122929D01*
X723908Y121632D01*
X726413Y120961D01*
X729007D01*
X731512Y121632D01*
X733757Y122929D01*
X735591Y124763D01*
X736888Y127008D01*
X737559Y129513D01*
Y132107D01*
X736888Y134612D01*
X735591Y136857D01*
X733757Y138691D01*
X731512Y139988D01*
X729007Y140659D01*
D02*
G37*
G36*
X161589Y718058D02*
X159467D01*
X157507Y717246D01*
X156006Y715745D01*
X155194Y713785D01*
Y711785D01*
X138776Y695367D01*
X138102Y694359D01*
X137889Y693285D01*
X137157Y692741D01*
X136746Y692521D01*
X136385Y692762D01*
X134620Y693113D01*
X132855Y692762D01*
X131358Y691762D01*
X130358Y690265D01*
X130007Y688500D01*
Y675500D01*
X130358Y673735D01*
X131358Y672239D01*
X132855Y671239D01*
X134620Y670888D01*
X136385Y671239D01*
X136746Y671480D01*
X137866Y670881D01*
Y656769D01*
X94323Y613226D01*
X93649Y612217D01*
X93412Y611028D01*
Y597864D01*
X93258Y597761D01*
X92259Y596265D01*
X91907Y594500D01*
Y581500D01*
X92259Y579735D01*
X93258Y578238D01*
X94755Y577238D01*
X96520Y576887D01*
X98285Y577238D01*
X99782Y578238D01*
X100781Y579735D01*
X101133Y581500D01*
Y594500D01*
X100781Y596265D01*
X99782Y597761D01*
X99628Y597864D01*
Y609741D01*
X143171Y653284D01*
X143845Y654292D01*
X144081Y655481D01*
Y670876D01*
X145201Y671475D01*
X145555Y671239D01*
X147320Y670888D01*
X149085Y671239D01*
X150582Y672239D01*
X151581Y673735D01*
X151933Y675500D01*
Y688500D01*
X151581Y690265D01*
X150582Y691762D01*
X149085Y692762D01*
X147320Y693113D01*
X147055Y693060D01*
X146430Y694230D01*
X159589Y707390D01*
X161589D01*
X163549Y708202D01*
X165050Y709703D01*
X165862Y711663D01*
Y713785D01*
X165050Y715745D01*
X163549Y717246D01*
X161589Y718058D01*
D02*
G37*
G36*
X83820Y599112D02*
X82055Y598761D01*
X80558Y597761D01*
X79559Y596265D01*
X79207Y594500D01*
Y581500D01*
X79559Y579735D01*
X80558Y578238D01*
X82055Y577238D01*
X83820Y576887D01*
X85585Y577238D01*
X87082Y578238D01*
X88082Y579735D01*
X88433Y581500D01*
Y594500D01*
X88082Y596265D01*
X87082Y597761D01*
X85585Y598761D01*
X83820Y599112D01*
D02*
G37*
G36*
X71120D02*
X69355Y598761D01*
X67858Y597761D01*
X66859Y596265D01*
X66507Y594500D01*
Y581500D01*
X66859Y579735D01*
X67858Y578238D01*
X69355Y577238D01*
X71120Y576887D01*
X72885Y577238D01*
X74382Y578238D01*
X75381Y579735D01*
X75733Y581500D01*
Y594500D01*
X75381Y596265D01*
X74382Y597761D01*
X72885Y598761D01*
X71120Y599112D01*
D02*
G37*
G36*
X59785Y541465D02*
X48672D01*
Y525335D01*
X59785D01*
Y530292D01*
X71916D01*
Y526376D01*
X87464D01*
Y540424D01*
X71916D01*
Y536508D01*
X59785D01*
Y541465D01*
D02*
G37*
G36*
X54356Y515238D02*
Y512826D01*
X56768D01*
X56355Y513824D01*
X55354Y514825D01*
X54356Y515238D01*
D02*
G37*
G36*
X52324D02*
X51326Y514825D01*
X50325Y513824D01*
X49912Y512826D01*
X52324D01*
Y515238D01*
D02*
G37*
G36*
X56768Y510794D02*
X54356D01*
Y508382D01*
X55354Y508795D01*
X56355Y509796D01*
X56768Y510794D01*
D02*
G37*
G36*
X52324D02*
X49912D01*
X50325Y509796D01*
X51326Y508795D01*
X52324Y508382D01*
Y510794D01*
D02*
G37*
G36*
X60066Y491374D02*
Y483616D01*
X66824D01*
Y491374D01*
X60066D01*
D02*
G37*
G36*
X66824Y481584D02*
X60066D01*
Y473826D01*
X66824D01*
Y481584D01*
D02*
G37*
G36*
Y465974D02*
X60066D01*
Y458216D01*
X66824D01*
Y465974D01*
D02*
G37*
G36*
X133219Y570012D02*
Y567600D01*
X135632D01*
X135218Y568598D01*
X134218Y569599D01*
X133219Y570012D01*
D02*
G37*
G36*
X131187D02*
X130189Y569599D01*
X129189Y568598D01*
X128775Y567600D01*
X131187D01*
Y570012D01*
D02*
G37*
G36*
X135632Y565568D02*
X133219D01*
Y563156D01*
X134218Y563569D01*
X135218Y564570D01*
X135632Y565568D01*
D02*
G37*
G36*
X131187D02*
X128775D01*
X129189Y564570D01*
X130189Y563569D01*
X131187Y563156D01*
Y565568D01*
D02*
G37*
G36*
X151384Y529104D02*
X143626D01*
Y522346D01*
X151384D01*
Y529104D01*
D02*
G37*
G36*
X135774D02*
X128016D01*
Y522346D01*
X135774D01*
Y529104D01*
D02*
G37*
G36*
X125984D02*
X118226D01*
Y522346D01*
X125984D01*
Y529104D01*
D02*
G37*
G36*
X520446Y507618D02*
Y505206D01*
X522858D01*
X522445Y506204D01*
X521444Y507205D01*
X520446Y507618D01*
D02*
G37*
G36*
X518414D02*
X517416Y507205D01*
X516415Y506204D01*
X516002Y505206D01*
X518414D01*
Y507618D01*
D02*
G37*
G36*
X522858Y503174D02*
X520446D01*
Y500762D01*
X521444Y501175D01*
X522445Y502176D01*
X522858Y503174D01*
D02*
G37*
G36*
X518414D02*
X516002D01*
X516415Y502176D01*
X517416Y501175D01*
X518414Y500762D01*
Y503174D01*
D02*
G37*
G36*
X523494Y478408D02*
X522496Y477995D01*
X521495Y476994D01*
X521082Y475996D01*
X523494D01*
Y478408D01*
D02*
G37*
G36*
Y473964D02*
X521082D01*
X521495Y472966D01*
X522496Y471965D01*
X523494Y471552D01*
Y473964D01*
D02*
G37*
G36*
X525526Y458088D02*
Y455676D01*
X527938D01*
X527525Y456674D01*
X526524Y457675D01*
X525526Y458088D01*
D02*
G37*
G36*
X523494D02*
X522496Y457675D01*
X521495Y456674D01*
X521082Y455676D01*
X523494D01*
Y458088D01*
D02*
G37*
G36*
X527938Y453644D02*
X525526D01*
Y451232D01*
X526524Y451645D01*
X527525Y452646D01*
X527938Y453644D01*
D02*
G37*
G36*
X523494D02*
X521082D01*
X521495Y452646D01*
X522496Y451645D01*
X523494Y451232D01*
Y453644D01*
D02*
G37*
G36*
X525526Y433958D02*
Y431546D01*
X527938D01*
X527525Y432544D01*
X526524Y433545D01*
X525526Y433958D01*
D02*
G37*
G36*
X523494D02*
X522496Y433545D01*
X521495Y432544D01*
X521082Y431546D01*
X523494D01*
Y433958D01*
D02*
G37*
G36*
X527938Y429514D02*
X525526D01*
Y427102D01*
X526524Y427515D01*
X527525Y428516D01*
X527938Y429514D01*
D02*
G37*
G36*
X523494D02*
X521082D01*
X521495Y428516D01*
X522496Y427515D01*
X523494Y427102D01*
Y429514D01*
D02*
G37*
G36*
X104009Y497622D02*
Y495210D01*
X106421D01*
X106008Y496208D01*
X105008Y497209D01*
X104009Y497622D01*
D02*
G37*
G36*
X101977D02*
X100979Y497209D01*
X99979Y496208D01*
X99565Y495210D01*
X101977D01*
Y497622D01*
D02*
G37*
G36*
X106421Y493178D02*
X104009D01*
Y490766D01*
X105008Y491180D01*
X106008Y492180D01*
X106421Y493178D01*
D02*
G37*
G36*
X101977D02*
X99565D01*
X99979Y492180D01*
X100979Y491180D01*
X101977Y490766D01*
Y493178D01*
D02*
G37*
G36*
X227076Y451738D02*
Y449326D01*
X229488D01*
X229075Y450324D01*
X228074Y451325D01*
X227076Y451738D01*
D02*
G37*
G36*
X225044D02*
X224046Y451325D01*
X223045Y450324D01*
X222632Y449326D01*
X225044D01*
Y451738D01*
D02*
G37*
G36*
X229488Y447294D02*
X227076D01*
Y444882D01*
X228074Y445295D01*
X229075Y446296D01*
X229488Y447294D01*
D02*
G37*
G36*
X225044D02*
X222632D01*
X223045Y446296D01*
X224046Y445295D01*
X225044Y444882D01*
Y447294D01*
D02*
G37*
G36*
X225806Y416178D02*
Y413766D01*
X228218D01*
X227805Y414764D01*
X226804Y415765D01*
X225806Y416178D01*
D02*
G37*
G36*
X223774D02*
X222776Y415765D01*
X221775Y414764D01*
X221362Y413766D01*
X223774D01*
Y416178D01*
D02*
G37*
G36*
X228218Y411734D02*
X225806D01*
Y409322D01*
X226804Y409735D01*
X227805Y410736D01*
X228218Y411734D01*
D02*
G37*
G36*
X223774D02*
X221362D01*
X221775Y410736D01*
X222776Y409735D01*
X223774Y409322D01*
Y411734D01*
D02*
G37*
G36*
X61684Y349739D02*
X61681D01*
X59713Y349211D01*
X57948Y348193D01*
X56507Y346752D01*
X55488Y344987D01*
X54961Y343019D01*
Y343016D01*
X61684D01*
Y349739D01*
D02*
G37*
G36*
Y340984D02*
X54961D01*
Y340981D01*
X55488Y339013D01*
X56507Y337248D01*
X57948Y335807D01*
X59713Y334788D01*
X61681Y334261D01*
X61684D01*
Y340984D01*
D02*
G37*
G36*
Y329739D02*
X61681D01*
X59713Y329212D01*
X57948Y328193D01*
X56507Y326752D01*
X55488Y324987D01*
X54961Y323019D01*
Y323016D01*
X61684D01*
Y329739D01*
D02*
G37*
G36*
Y320984D02*
X54961D01*
Y320981D01*
X55488Y319013D01*
X56507Y317248D01*
X57948Y315807D01*
X59713Y314788D01*
X61681Y314261D01*
X61684D01*
Y320984D01*
D02*
G37*
G36*
Y309739D02*
X61681D01*
X59713Y309212D01*
X57948Y308193D01*
X56507Y306752D01*
X55488Y304987D01*
X54961Y303019D01*
Y303016D01*
X61684D01*
Y309739D01*
D02*
G37*
G36*
X525526Y408558D02*
Y406146D01*
X527938D01*
X527525Y407144D01*
X526524Y408145D01*
X525526Y408558D01*
D02*
G37*
G36*
X523494D02*
X522496Y408145D01*
X521495Y407144D01*
X521082Y406146D01*
X523494D01*
Y408558D01*
D02*
G37*
G36*
X527938Y404114D02*
X525526D01*
Y401702D01*
X526524Y402115D01*
X527525Y403116D01*
X527938Y404114D01*
D02*
G37*
G36*
X523494D02*
X521082D01*
X521495Y403116D01*
X522496Y402115D01*
X523494Y401702D01*
Y404114D01*
D02*
G37*
G36*
X526288Y385698D02*
Y383286D01*
X528700D01*
X528287Y384284D01*
X527286Y385285D01*
X526288Y385698D01*
D02*
G37*
G36*
X524256D02*
X523258Y385285D01*
X522257Y384284D01*
X521844Y383286D01*
X524256D01*
Y385698D01*
D02*
G37*
G36*
X528700Y381254D02*
X526288D01*
Y378842D01*
X527286Y379255D01*
X528287Y380256D01*
X528700Y381254D01*
D02*
G37*
G36*
X524256D02*
X521844D01*
X522257Y380256D01*
X523258Y379255D01*
X524256Y378842D01*
Y381254D01*
D02*
G37*
G36*
Y361568D02*
Y359156D01*
X526668D01*
X526255Y360154D01*
X525254Y361155D01*
X524256Y361568D01*
D02*
G37*
G36*
X522224D02*
X521226Y361155D01*
X520225Y360154D01*
X519812Y359156D01*
X522224D01*
Y361568D01*
D02*
G37*
G36*
X526668Y357124D02*
X524256D01*
Y354712D01*
X525254Y355125D01*
X526255Y356126D01*
X526668Y357124D01*
D02*
G37*
G36*
X522224D02*
X519812D01*
X520225Y356126D01*
X521226Y355125D01*
X522224Y354712D01*
Y357124D01*
D02*
G37*
G36*
X123719Y229739D02*
X121681D01*
X119713Y229212D01*
X117948Y228193D01*
X116507Y226752D01*
X115488Y224987D01*
X114961Y223019D01*
Y220981D01*
X115488Y219013D01*
X116507Y217248D01*
X117948Y215807D01*
X119713Y214788D01*
X121681Y214261D01*
X123719D01*
X125687Y214788D01*
X127452Y215807D01*
X128892Y217248D01*
X129911Y219013D01*
X130439Y220981D01*
Y223019D01*
X129911Y224987D01*
X128892Y226752D01*
X127452Y228193D01*
X125687Y229212D01*
X123719Y229739D01*
D02*
G37*
G36*
X479806Y164718D02*
Y162306D01*
X482218D01*
X481805Y163304D01*
X480804Y164305D01*
X479806Y164718D01*
D02*
G37*
G36*
X477774D02*
X476776Y164305D01*
X475775Y163304D01*
X475362Y162306D01*
X477774D01*
Y164718D01*
D02*
G37*
G36*
X482218Y160274D02*
X479806D01*
Y157862D01*
X480804Y158275D01*
X481805Y159276D01*
X482218Y160274D01*
D02*
G37*
G36*
X477774D02*
X475362D01*
X475775Y159276D01*
X476776Y158275D01*
X477774Y157862D01*
Y160274D01*
D02*
G37*
G36*
X475007Y140659D02*
X474726D01*
Y131826D01*
X483559D01*
Y132107D01*
X482888Y134612D01*
X481591Y136857D01*
X479757Y138691D01*
X477512Y139988D01*
X475007Y140659D01*
D02*
G37*
G36*
X525807D02*
X523213D01*
X520708Y139988D01*
X518463Y138691D01*
X516629Y136857D01*
X515332Y134612D01*
X514661Y132107D01*
Y129513D01*
X515332Y127008D01*
X516629Y124763D01*
X518463Y122929D01*
X520708Y121632D01*
X523213Y120961D01*
X525807D01*
X528312Y121632D01*
X530557Y122929D01*
X532391Y124763D01*
X533688Y127008D01*
X534359Y129513D01*
Y132107D01*
X533688Y134612D01*
X532391Y136857D01*
X530557Y138691D01*
X528312Y139988D01*
X525807Y140659D01*
D02*
G37*
G36*
X500171Y265684D02*
X498049D01*
X496088Y264872D01*
X494588Y263372D01*
X493776Y261411D01*
Y259289D01*
X494588Y257328D01*
X496002Y255914D01*
Y140174D01*
X495308Y139988D01*
X493063Y138691D01*
X491229Y136857D01*
X489932Y134612D01*
X489261Y132107D01*
Y129513D01*
X489932Y127008D01*
X491229Y124763D01*
X493063Y122929D01*
X495308Y121632D01*
X497813Y120961D01*
X500407D01*
X502912Y121632D01*
X505157Y122929D01*
X506991Y124763D01*
X508288Y127008D01*
X508959Y129513D01*
Y132107D01*
X508288Y134612D01*
X506991Y136857D01*
X505157Y138691D01*
X502912Y139988D01*
X502218Y140174D01*
Y255914D01*
X503632Y257328D01*
X504444Y259289D01*
Y261411D01*
X503632Y263372D01*
X502132Y264872D01*
X500171Y265684D01*
D02*
G37*
G36*
X483559Y129794D02*
X474726D01*
Y120961D01*
X475007D01*
X477512Y121632D01*
X479757Y122929D01*
X481591Y124763D01*
X482888Y127008D01*
X483559Y129513D01*
Y129794D01*
D02*
G37*
G36*
X373407Y216859D02*
X373126D01*
Y208026D01*
X381959D01*
Y208307D01*
X381288Y210812D01*
X379991Y213057D01*
X378157Y214891D01*
X375912Y216188D01*
X373407Y216859D01*
D02*
G37*
G36*
X381959Y205994D02*
X373126D01*
Y197161D01*
X373407D01*
X375912Y197832D01*
X378157Y199129D01*
X379991Y200963D01*
X381288Y203208D01*
X381959Y205713D01*
Y205994D01*
D02*
G37*
G36*
X394716Y183768D02*
Y181356D01*
X397128D01*
X396715Y182354D01*
X395714Y183355D01*
X394716Y183768D01*
D02*
G37*
G36*
X392684D02*
X391686Y183355D01*
X390685Y182354D01*
X390272Y181356D01*
X392684D01*
Y183768D01*
D02*
G37*
G36*
X397128Y179324D02*
X394716D01*
Y176912D01*
X395714Y177325D01*
X396715Y178326D01*
X397128Y179324D01*
D02*
G37*
G36*
X392684D02*
X390272D01*
X390685Y178326D01*
X391686Y177325D01*
X392684Y176912D01*
Y179324D01*
D02*
G37*
G36*
X103719Y169739D02*
X101681D01*
X99713Y169212D01*
X97948Y168193D01*
X96507Y166752D01*
X95488Y164987D01*
X94961Y163019D01*
Y160981D01*
X95488Y159013D01*
X96507Y157248D01*
X97948Y155807D01*
X99713Y154789D01*
X101681Y154261D01*
X103719D01*
X105687Y154789D01*
X107452Y155807D01*
X108893Y157248D01*
X109911Y159013D01*
X110439Y160981D01*
Y163019D01*
X109911Y164987D01*
X108893Y166752D01*
X107452Y168193D01*
X105687Y169212D01*
X103719Y169739D01*
D02*
G37*
%LPD*%
D15*
X74420Y756920D02*
D03*
X169420D02*
D03*
D16*
X59050Y482600D02*
D03*
X42550D02*
D03*
Y457200D02*
D03*
X59050D02*
D03*
D17*
X71120Y426720D02*
D03*
X54103D02*
D03*
X37211Y533400D02*
D03*
X54229D02*
D03*
X143891Y548640D02*
D03*
X160909D02*
D03*
D18*
X127000Y521330D02*
D03*
Y504830D02*
D03*
X152400Y521330D02*
D03*
Y504830D02*
D03*
X213360Y723270D02*
D03*
Y739770D02*
D03*
X20320Y723270D02*
D03*
Y739770D02*
D03*
D19*
X79690Y533400D02*
D03*
X103190D02*
D03*
D20*
X156210Y472549D02*
D03*
D21*
X143510D02*
D03*
X130810D02*
D03*
X118110D02*
D03*
Y421531D02*
D03*
X130810D02*
D03*
X143510D02*
D03*
X156210D02*
D03*
D22*
X172720Y682000D02*
D03*
X160020D02*
D03*
X147320D02*
D03*
X134620D02*
D03*
X121920D02*
D03*
X109220D02*
D03*
X96520D02*
D03*
X83820D02*
D03*
X71120D02*
D03*
Y588000D02*
D03*
X83820D02*
D03*
X96520D02*
D03*
X109220D02*
D03*
X121920D02*
D03*
X134620D02*
D03*
X147320D02*
D03*
X160020D02*
D03*
X172720D02*
D03*
D29*
X63500Y386080D02*
D03*
X474980Y767080D02*
D03*
X389890D02*
D03*
D30*
X88900Y386080D02*
D03*
X500380Y767080D02*
D03*
X415290D02*
D03*
D34*
X33608Y280642D02*
G03*
X38448Y292000I-10908J11358D01*
G01*
X505460Y428029D02*
Y565453D01*
X497840Y421640D02*
X499071D01*
X505460Y428029D01*
X309118Y585470D02*
X309880Y586232D01*
X290322Y585470D02*
X309118D01*
X483108Y412449D02*
Y499956D01*
X476250Y415290D02*
Y415460D01*
X470408Y421302D02*
Y508809D01*
X477266Y505798D02*
Y505968D01*
X470408Y421302D02*
X476250Y415460D01*
X487680Y390906D02*
Y689610D01*
X478536Y381762D02*
X487680Y390906D01*
X473710Y403051D02*
X483108Y412449D01*
X473710Y512111D02*
Y574040D01*
X470408Y508809D02*
X473710Y512111D01*
Y283210D02*
Y403051D01*
X477266Y505798D02*
X483108Y499956D01*
X487680Y689610D02*
X524510Y726440D01*
X490220Y373380D02*
X510540Y353060D01*
X483108Y362712D02*
Y375967D01*
X537718Y430577D02*
Y475695D01*
X483108Y375967D02*
X537718Y430577D01*
X510540Y170180D02*
Y353060D01*
X483108Y362712D02*
X499110Y346710D01*
X765810Y109220D02*
Y191770D01*
X815340Y241300D01*
X346710Y184150D02*
X347947D01*
X353133Y189335D01*
X357737D01*
X360426Y192024D01*
X8890Y444897D02*
Y626110D01*
X6858Y442865D02*
X8890Y444897D01*
X6858Y262890D02*
Y442865D01*
X537210Y476203D02*
X537718Y475695D01*
X537210Y585216D02*
X545338Y593344D01*
X513080Y567182D02*
X530860Y549402D01*
X537210Y476203D02*
Y585216D01*
X530860Y463550D02*
Y549402D01*
X499110Y571804D02*
Y574040D01*
Y571804D02*
X505460Y565453D01*
X353568Y455676D02*
Y511048D01*
X125471Y543342D02*
Y543862D01*
X121920Y547414D02*
Y588000D01*
Y547414D02*
X125471Y543862D01*
X115824Y556891D02*
Y611632D01*
X113847Y554914D02*
X115824Y556891D01*
X113847Y500173D02*
Y554914D01*
Y500173D02*
X118110Y495910D01*
Y472549D02*
Y495910D01*
X163576Y495300D02*
Y528320D01*
X152400Y539496D02*
X163576Y528320D01*
X152400Y539496D02*
Y561848D01*
X46228Y396102D02*
X46446Y396857D01*
X45672Y395546D02*
X46228Y396102D01*
X46446Y396857D02*
X48137Y402721D01*
X48665Y291775D02*
Y293013D01*
X44958Y296720D02*
X48665Y293013D01*
X44958Y394832D02*
X45672Y395546D01*
X49530Y300609D02*
Y392938D01*
Y300609D02*
X58876Y291263D01*
X49530Y392938D02*
X71120Y414528D01*
X44958Y296720D02*
Y394832D01*
X42550Y457200D02*
Y505206D01*
X38448Y292000D02*
Y451474D01*
X27940Y275127D02*
X29726Y276913D01*
X38448Y451474D02*
X42550Y457200D01*
X48137Y402721D02*
X64008Y418592D01*
X29726Y276913D02*
X33608Y280642D01*
X27940Y256760D02*
Y275127D01*
X58876Y291263D02*
X66537D01*
X27940Y256760D02*
X28833Y255867D01*
X62700Y222000D01*
X224409Y668909D02*
X245110Y689610D01*
X172720Y617220D02*
X224409Y668909D01*
X160909Y543433D02*
Y548640D01*
Y537845D02*
Y543433D01*
X134874Y472549D02*
Y483616D01*
X556006Y593344D02*
X565404Y583946D01*
X434340Y369062D02*
Y377444D01*
X427990Y383794D02*
Y536956D01*
Y369062D02*
Y383794D01*
X434340Y377444D01*
X420624Y391160D02*
X427990Y383794D01*
X73406Y171958D02*
X92658D01*
X56134D02*
X73406D01*
X360426Y192024D02*
Y352806D01*
Y146304D02*
Y192024D01*
X142700Y208165D02*
X153924D01*
X136652Y222000D02*
Y228600D01*
X122700Y328930D02*
X127762D01*
X73406Y376174D02*
X82322Y367258D01*
X152400Y387604D02*
X225044Y460248D01*
X142700Y377904D02*
X152400Y387604D01*
X172720Y588000D02*
Y617220D01*
X170688Y722630D02*
X224409Y668909D01*
X130048Y722630D02*
X170688D01*
X115824Y708406D02*
X130048Y722630D01*
X115824Y669036D02*
Y708406D01*
X37211Y590424D02*
X115824Y669036D01*
X37211Y533400D02*
Y590424D01*
X130810Y472549D02*
X134874D01*
Y483616D02*
X137922Y486664D01*
X147074D01*
X150122Y483616D01*
Y457446D02*
Y483616D01*
Y457446D02*
X152400Y455168D01*
X160020D01*
X168148Y463296D01*
Y530606D01*
X160909Y537845D02*
X168148Y530606D01*
X338582Y440690D02*
X353568Y455676D01*
X549910Y283210D02*
X628142Y361442D01*
Y445262D01*
X625856Y447548D02*
X628142Y445262D01*
X625856Y447548D02*
Y553269D01*
X637483Y564896D01*
Y578751D01*
X626110Y590124D02*
X637483Y578751D01*
X626110Y590124D02*
Y693166D01*
X612140Y707136D02*
X626110Y693166D01*
X612140Y707136D02*
Y732282D01*
X617728Y737870D01*
X716280D01*
X727710Y726440D01*
X549910Y574040D02*
X568452Y555498D01*
Y467360D02*
Y555498D01*
X499110Y283210D02*
Y346710D01*
X545338Y593344D02*
X556006D01*
X575310Y400530D02*
Y574040D01*
X529563Y676883D02*
X565404Y641041D01*
Y583946D02*
Y641041D01*
Y583946D02*
X575310Y574040D01*
X134620Y588000D02*
Y616966D01*
X156210Y638556D01*
X510540Y170180D02*
X549910Y130810D01*
X448310Y368300D02*
Y574040D01*
X633730Y342138D02*
Y456946D01*
X589280Y297688D02*
X633730Y342138D01*
X589280Y142240D02*
Y297688D01*
Y142240D02*
X600710Y130810D01*
X434340Y185674D02*
Y369062D01*
X427990D02*
X434340D01*
X422402Y542544D02*
X427990Y536956D01*
X332740Y542544D02*
Y585470D01*
X325120Y593090D02*
X332740Y585470D01*
X301498Y593090D02*
X325120D01*
X297180Y597408D02*
X301498Y593090D01*
X297180Y597408D02*
Y688848D01*
X422910Y726440D02*
X434340Y737870D01*
X529590D01*
X535940Y731520D01*
Y686054D02*
Y731520D01*
Y686054D02*
X588010Y633984D01*
Y464566D02*
Y633984D01*
Y464566D02*
X621284Y431292D01*
X655320Y421132D02*
X662940Y413512D01*
Y275590D02*
Y413512D01*
X651510Y264160D02*
X662940Y275590D01*
X651510Y130810D02*
Y264160D01*
X422910Y726440D02*
X436880Y712470D01*
Y438658D02*
Y712470D01*
Y438658D02*
X437388Y438150D01*
X702310Y130810D02*
Y265430D01*
X713740Y276860D01*
Y345186D01*
X703580Y355346D02*
X713740Y345186D01*
X703580Y355346D02*
Y439166D01*
X670814Y471932D02*
X703580Y439166D01*
X408940Y478028D02*
Y585470D01*
X396240Y598170D02*
X408940Y585470D01*
X396240Y598170D02*
Y702310D01*
X372110Y726440D02*
X396240Y702310D01*
X346710Y726440D02*
X373380Y699770D01*
Y595630D02*
Y699770D01*
Y595630D02*
X385318Y583692D01*
Y217932D02*
Y583692D01*
Y217932D02*
X396240Y207010D01*
X92658Y171958D02*
X102700Y182000D01*
X53340Y174752D02*
X56134Y171958D01*
X53340Y174752D02*
Y216408D01*
X6858Y262890D02*
X53340Y216408D01*
X88900Y102362D02*
X95250D01*
X73406Y117856D02*
X88900Y102362D01*
X73406Y117856D02*
Y171958D01*
X360426Y449576D02*
Y586994D01*
Y449576D02*
X365506Y444496D01*
Y357886D02*
Y444496D01*
X360426Y146304D02*
X364547Y142183D01*
X411537D01*
X422910Y130810D01*
X347980Y599440D02*
Y684276D01*
Y599440D02*
X360426Y586994D01*
Y352806D02*
X365506Y357886D01*
X117856Y171450D02*
X188214D01*
X112014Y177292D02*
X117856Y171450D01*
X112014Y177292D02*
Y212686D01*
X102700Y222000D02*
X112014Y212686D01*
X92964Y232264D02*
X102700Y242000D01*
X92964Y215392D02*
Y232264D01*
X89662Y212090D02*
X92964Y215392D01*
X71120Y212090D02*
X89662D01*
X46482Y110998D02*
Y208026D01*
Y110998D02*
X62992Y94488D01*
X411988D01*
X733267Y353853D02*
X803910Y283210D01*
X719616Y353853D02*
X733267D01*
X709930Y363540D02*
X719616Y353853D01*
X709930Y363540D02*
Y491236D01*
X653117Y548049D02*
X709930Y491236D01*
X88138Y436372D02*
X98806Y425704D01*
X64008Y436372D02*
X88138D01*
X64008Y418592D02*
Y436372D01*
X191008Y604012D02*
X238832D01*
X651510Y601472D02*
Y726440D01*
Y601472D02*
X666242Y586740D01*
X733552D01*
X739140Y581152D01*
Y393446D02*
Y581152D01*
X716788Y371094D02*
X739140Y393446D01*
X626110Y726440D02*
X637540Y715010D01*
Y606495D02*
Y715010D01*
Y606495D02*
X662883Y581152D01*
Y567182D02*
Y581152D01*
X658368Y562667D02*
X662883Y567182D01*
X642055Y562667D02*
X658368D01*
X634492Y555104D02*
X642055Y562667D01*
X634492Y524002D02*
Y555104D01*
X88900Y386080D02*
X110947Y408127D01*
Y439435D01*
X103632Y446750D02*
X110947Y439435D01*
X66004Y446750D02*
X103632D01*
X54103Y434849D02*
X66004Y446750D01*
X54103Y426720D02*
Y434849D01*
X354584Y437134D02*
X360426Y431292D01*
Y409829D02*
Y431292D01*
X307340Y356743D02*
X360426Y409829D01*
X307340Y159258D02*
Y356743D01*
X303022Y154940D02*
X307340Y159258D01*
X221234Y246634D02*
Y383540D01*
Y246634D02*
X248666Y219202D01*
X136652Y222000D02*
X142700D01*
X133350Y231902D02*
X136652Y228600D01*
X133350Y231902D02*
Y325882D01*
X138938Y331470D01*
X146304D01*
X152146Y337312D01*
Y370078D01*
X151638Y370586D02*
X152146Y370078D01*
X281940Y343662D02*
X353568Y415290D01*
X281940Y124968D02*
Y343662D01*
X276352Y119380D02*
X281940Y124968D01*
X182118Y119380D02*
X276352D01*
X169418Y132080D02*
X182118Y119380D01*
X132620Y132080D02*
X169418D01*
X122700Y142000D02*
X132620Y132080D01*
X357632Y364744D02*
X358648D01*
X335280Y342392D02*
X357632Y364744D01*
X335280Y124714D02*
Y342392D01*
X320548Y109982D02*
X335280Y124714D01*
X114718Y109982D02*
X320548D01*
X102700Y122000D02*
X114718Y109982D01*
X411480Y410464D02*
X416306Y415290D01*
X411480Y181610D02*
Y410464D01*
X397510Y167640D02*
X411480Y181610D01*
X102700Y282000D02*
X113284Y292584D01*
Y358394D01*
X466852Y330708D02*
Y332994D01*
X453136Y346710D02*
X466852Y332994D01*
X71120Y409448D02*
Y414528D01*
Y409448D02*
X74422Y406146D01*
Y385145D02*
Y406146D01*
Y385145D02*
X84385Y375182D01*
X93472D01*
X124206Y405916D01*
Y433070D01*
X130048Y438912D01*
X143510Y429514D01*
Y421531D02*
Y429514D01*
X72644Y272056D02*
X82700Y262000D01*
X72644Y272056D02*
Y285156D01*
X66537Y291263D02*
X72644Y285156D01*
X71120Y414528D02*
Y426720D01*
X130810Y405758D02*
Y421531D01*
X92310Y367258D02*
X130810Y405758D01*
X82322Y367258D02*
X92310D01*
X142700Y322000D02*
X151964Y312736D01*
Y215392D02*
Y312736D01*
X149308Y212737D02*
X151964Y215392D01*
X138176Y212737D02*
X149308D01*
X133350Y207911D02*
X138176Y212737D01*
X133350Y197358D02*
Y207911D01*
Y197358D02*
X138176Y192532D01*
X183388D01*
X245110Y130810D01*
X281940Y577088D02*
X290322Y585470D01*
X281940Y552704D02*
Y577088D01*
X245110Y515874D02*
X281940Y552704D01*
X245110Y466344D02*
Y515874D01*
X239014Y460248D02*
X245110Y466344D01*
X225044Y460248D02*
X239014D01*
X142700Y342000D02*
Y377904D01*
X185420Y215900D02*
X270510Y130810D01*
X185420Y215900D02*
Y373888D01*
X171704Y387604D02*
X185420Y373888D01*
X152400Y387604D02*
X171704D01*
X600710Y510032D02*
Y574040D01*
X122700Y322000D02*
Y328930D01*
X127762D02*
X133096Y334264D01*
Y382016D01*
X105156Y451866D02*
X140716D01*
X93726Y463296D02*
Y551434D01*
X109220Y566928D01*
Y588000D01*
X499110Y130810D02*
Y260350D01*
X517906Y296672D02*
X544068Y322834D01*
Y479044D01*
X524510Y283210D02*
X550926Y309626D01*
Y481838D01*
X549910Y482854D02*
X550926Y481838D01*
X549910Y482854D02*
Y574040D01*
X474980Y767080D02*
X485902Y756158D01*
X543052D01*
X561340Y737870D01*
Y693928D02*
Y737870D01*
Y693928D02*
X600710Y654558D01*
Y574040D02*
Y654558D01*
X711765Y558095D02*
X727710Y574040D01*
X651567Y558095D02*
X711765D01*
X646176Y552704D02*
X651567Y558095D01*
X646176Y344678D02*
Y552704D01*
X613410Y311912D02*
X646176Y344678D01*
X613410Y112268D02*
Y311912D01*
X605536Y104394D02*
X613410Y112268D01*
X105664Y104394D02*
X605536D01*
X92456Y117602D02*
X105664Y104394D01*
X92456Y117602D02*
Y152244D01*
X82700Y162000D02*
X92456Y152244D01*
X614680Y483070D02*
Y687070D01*
X575310Y726440D02*
X614680Y687070D01*
X688340Y272542D02*
Y440944D01*
X676910Y261112D02*
X688340Y272542D01*
X676910Y130810D02*
Y261112D01*
X448310Y130810D02*
Y261874D01*
X459740Y273304D01*
Y326390D01*
X446278Y339852D02*
X459740Y326390D01*
X446278Y339852D02*
Y353676D01*
X459740Y367138D01*
Y712470D01*
X473710Y726440D01*
X513080Y567182D02*
Y687578D01*
X82700Y242000D02*
X92202Y251502D01*
Y352552D01*
X149606Y409956D01*
Y442976D01*
X140716Y451866D02*
X149606Y442976D01*
X93726Y463296D02*
X105156Y451866D01*
X270510Y283210D02*
Y387096D01*
X346710Y463296D01*
Y574040D01*
X73406Y291294D02*
X82700Y282000D01*
X73406Y291294D02*
Y376174D01*
X63500Y386080D02*
X73406Y376174D01*
X556768Y306775D02*
Y557276D01*
X538537Y288544D02*
X556768Y306775D01*
X538537Y167583D02*
Y288544D01*
Y167583D02*
X575310Y130810D01*
X259080Y177292D02*
X260353Y178565D01*
Y230945D01*
X259080Y232218D02*
X260353Y230945D01*
X259080Y232218D02*
Y387096D01*
X338074Y466090D01*
X417068Y501904D02*
X421132Y505968D01*
X417068Y425570D02*
Y501904D01*
X478536Y358902D02*
Y381762D01*
Y358902D02*
X486664Y350774D01*
Y230378D02*
Y350774D01*
X459740Y203454D02*
X486664Y230378D01*
X459740Y123952D02*
Y203454D01*
X455168Y119380D02*
X459740Y123952D01*
X408940Y119380D02*
X455168D01*
X397510Y130810D02*
X408940Y119380D01*
X815340Y241300D02*
Y328422D01*
X804672Y339090D02*
X815340Y328422D01*
X763016Y339090D02*
X804672D01*
X753110Y348996D02*
X763016Y339090D01*
X753110Y348996D02*
Y574040D01*
X98806Y409194D02*
X106375Y416763D01*
Y432359D01*
X99060Y439674D02*
X106375Y432359D01*
X249682Y502412D02*
X321310Y574040D01*
X249682Y455676D02*
Y502412D01*
X245110Y451104D02*
X249682Y455676D01*
X245110Y283210D02*
Y451104D01*
X160909Y543433D02*
X236049Y468293D01*
X372110Y324104D02*
Y574040D01*
X251968Y202184D02*
X255781Y205997D01*
Y228330D01*
X229165Y254946D02*
X255781Y228330D01*
X229165Y254946D02*
Y398837D01*
X231140Y400812D01*
X142700Y202000D02*
Y208165D01*
X153924D02*
X158496Y212737D01*
Y378460D01*
X237998Y298901D02*
Y453390D01*
X233737Y294640D02*
X237998Y298901D01*
X233737Y270453D02*
Y294640D01*
Y270453D02*
X245110Y259080D01*
X214376Y242000D02*
Y439674D01*
X215392Y440690D01*
X115824Y611632D02*
X160020Y655828D01*
Y682000D01*
X143891Y548640D02*
Y564770D01*
X160020Y580898D01*
Y588000D01*
X172720Y633222D02*
Y682000D01*
X166116Y626618D02*
X172720Y633222D01*
X166116Y575564D02*
Y626618D01*
X152400Y561848D02*
X166116Y575564D01*
X156210Y487934D02*
X163576Y495300D01*
X156210Y472549D02*
Y487934D01*
X147320Y588000D02*
Y618236D01*
X163068Y633984D01*
Y646430D01*
X140974Y693170D02*
X160528Y712724D01*
X140974Y655481D02*
Y693170D01*
X96520Y611028D02*
X140974Y655481D01*
X96520Y588000D02*
Y611028D01*
X127000Y504830D02*
X152400D01*
X96520Y682000D02*
Y728218D01*
X125222Y756920D01*
X169420D01*
X245110Y689610D02*
Y726440D01*
X169420Y756920D02*
X204216D01*
X213360Y747776D01*
Y739770D02*
Y747776D01*
X29464Y756920D02*
X74420D01*
X20320Y747776D02*
X29464Y756920D01*
X20320Y739770D02*
Y747776D01*
X172720Y574168D02*
Y588000D01*
X160909Y562356D02*
X172720Y574168D01*
X160909Y548640D02*
Y562356D01*
X62700Y262000D02*
Y282000D01*
Y242000D02*
Y262000D01*
Y202000D02*
Y222000D01*
Y182000D02*
Y202000D01*
X37211Y510545D02*
Y533400D01*
Y510545D02*
X42550Y505206D01*
X127000Y490474D02*
Y504830D01*
Y490474D02*
X130810Y486664D01*
Y472549D02*
Y486664D01*
X54229Y533400D02*
X79690D01*
X74420Y724156D02*
Y756920D01*
Y724156D02*
X83820Y714756D01*
Y682000D02*
Y714756D01*
D35*
X829310Y283210D02*
D03*
X803910Y130810D02*
D03*
X473710D02*
D03*
X803910Y156210D02*
D03*
Y283210D02*
D03*
X829310Y130810D02*
D03*
X778510D02*
D03*
X765810Y252710D02*
D03*
X740410D02*
D03*
X715010D02*
D03*
X689610D02*
D03*
X664210D02*
D03*
X372110Y156210D02*
D03*
Y181610D02*
D03*
Y207010D02*
D03*
Y232410D02*
D03*
Y257810D02*
D03*
X473710Y283210D02*
D03*
X448310Y130810D02*
D03*
X422910D02*
D03*
X397510D02*
D03*
X372110D02*
D03*
X346710D02*
D03*
X321310D02*
D03*
X295910D02*
D03*
X270510D02*
D03*
X245110D02*
D03*
Y283210D02*
D03*
X270510D02*
D03*
X295910D02*
D03*
X321310D02*
D03*
X346710D02*
D03*
X372110D02*
D03*
X397510D02*
D03*
X422910D02*
D03*
X448310D02*
D03*
X753110Y130810D02*
D03*
X727710D02*
D03*
X702310D02*
D03*
X676910D02*
D03*
X651510D02*
D03*
X626110D02*
D03*
X600710D02*
D03*
X575310D02*
D03*
X549910D02*
D03*
X524510D02*
D03*
X499110D02*
D03*
Y283210D02*
D03*
X524510D02*
D03*
X549910D02*
D03*
X575310D02*
D03*
X600710D02*
D03*
X626110D02*
D03*
X651510D02*
D03*
X676910D02*
D03*
X702310D02*
D03*
X727710D02*
D03*
X753110D02*
D03*
X778510D02*
D03*
X295910Y574040D02*
D03*
X321310D02*
D03*
X346710D02*
D03*
X372110D02*
D03*
X397510D02*
D03*
X422910D02*
D03*
X448310D02*
D03*
X473710D02*
D03*
X499110D02*
D03*
X524510D02*
D03*
X549910D02*
D03*
X575310D02*
D03*
Y726440D02*
D03*
X549910D02*
D03*
X524510D02*
D03*
X499110D02*
D03*
X473710D02*
D03*
X448310D02*
D03*
X422910D02*
D03*
X397510D02*
D03*
X372110D02*
D03*
X346710D02*
D03*
X321310D02*
D03*
X626110Y574040D02*
D03*
X651510D02*
D03*
X676910D02*
D03*
X702310D02*
D03*
X727710D02*
D03*
X753110D02*
D03*
X778510D02*
D03*
X803910D02*
D03*
X829310D02*
D03*
Y726440D02*
D03*
X803910D02*
D03*
X778510D02*
D03*
X753110D02*
D03*
X727710D02*
D03*
X702310D02*
D03*
X676910D02*
D03*
X651510D02*
D03*
X626110D02*
D03*
X600710Y574040D02*
D03*
X702310Y599440D02*
D03*
Y624840D02*
D03*
Y650240D02*
D03*
Y675640D02*
D03*
Y701040D02*
D03*
X410210Y604540D02*
D03*
X384810D02*
D03*
X359410D02*
D03*
X334010D02*
D03*
X308610D02*
D03*
X295910Y726440D02*
D03*
X245110D02*
D03*
X270510Y574040D02*
D03*
Y701040D02*
D03*
X600710Y726440D02*
D03*
X270510D02*
D03*
X245110Y574040D02*
D03*
D36*
X142700Y122000D02*
D03*
D37*
Y142000D02*
D03*
Y162000D02*
D03*
Y182000D02*
D03*
Y202000D02*
D03*
Y222000D02*
D03*
Y242000D02*
D03*
Y262000D02*
D03*
Y282000D02*
D03*
Y302000D02*
D03*
Y322000D02*
D03*
Y342000D02*
D03*
X122700Y122000D02*
D03*
Y142000D02*
D03*
Y162000D02*
D03*
Y182000D02*
D03*
Y202000D02*
D03*
Y222000D02*
D03*
Y242000D02*
D03*
Y262000D02*
D03*
Y282000D02*
D03*
Y302000D02*
D03*
Y322000D02*
D03*
Y342000D02*
D03*
X102700Y122000D02*
D03*
Y142000D02*
D03*
Y162000D02*
D03*
Y182000D02*
D03*
Y202000D02*
D03*
Y222000D02*
D03*
Y242000D02*
D03*
Y262000D02*
D03*
Y282000D02*
D03*
Y302000D02*
D03*
Y322000D02*
D03*
Y342000D02*
D03*
X82700Y122000D02*
D03*
Y142000D02*
D03*
Y162000D02*
D03*
Y182000D02*
D03*
Y202000D02*
D03*
Y222000D02*
D03*
Y242000D02*
D03*
Y262000D02*
D03*
Y282000D02*
D03*
Y302000D02*
D03*
Y322000D02*
D03*
Y342000D02*
D03*
X62700Y122000D02*
D03*
Y142000D02*
D03*
Y162000D02*
D03*
Y182000D02*
D03*
Y202000D02*
D03*
Y222000D02*
D03*
Y242000D02*
D03*
Y262000D02*
D03*
Y282000D02*
D03*
Y302000D02*
D03*
Y322000D02*
D03*
Y342000D02*
D03*
D38*
X497840Y421640D02*
D03*
X309880Y586232D02*
D03*
X476250Y415290D02*
D03*
X490220Y373380D02*
D03*
X765810Y109220D02*
D03*
X346710Y184150D02*
D03*
X8890Y626110D02*
D03*
X530860Y463550D02*
D03*
X353568Y511048D02*
D03*
X125471Y543342D02*
D03*
X48665Y291775D02*
D03*
X338582Y440690D02*
D03*
X568452Y467360D02*
D03*
X575310Y400530D02*
D03*
X156210Y638556D02*
D03*
X529563Y676883D02*
D03*
X448310Y368300D02*
D03*
X633730Y456946D02*
D03*
X420624Y391160D02*
D03*
X434340Y185674D02*
D03*
X422402Y542544D02*
D03*
X332740D02*
D03*
X297180Y688848D02*
D03*
X621284Y431292D02*
D03*
X655320Y421132D02*
D03*
X437388Y438150D02*
D03*
X670814Y471932D02*
D03*
X408940Y478028D02*
D03*
X396240Y207010D02*
D03*
X95250Y102362D02*
D03*
X347980Y684276D02*
D03*
X188214Y171450D02*
D03*
X71120Y212090D02*
D03*
X46482Y208026D02*
D03*
X411988Y94488D02*
D03*
X653117Y548049D02*
D03*
X98806Y425704D02*
D03*
X191008Y604012D02*
D03*
X238832D02*
D03*
X716788Y371094D02*
D03*
X634492Y524002D02*
D03*
X354584Y437134D02*
D03*
X303022Y154940D02*
D03*
X221234Y383540D02*
D03*
X248666Y219202D02*
D03*
X151638Y370586D02*
D03*
X353568Y415290D02*
D03*
X358648Y364744D02*
D03*
X416306Y415290D02*
D03*
X397510Y167640D02*
D03*
X113284Y358394D02*
D03*
X466852Y330708D02*
D03*
X453136Y346710D02*
D03*
X477266Y505968D02*
D03*
X600710Y510032D02*
D03*
X133096Y382016D02*
D03*
X140716Y451866D02*
D03*
X499110Y260350D02*
D03*
X517906Y296672D02*
D03*
X544068Y479044D02*
D03*
X614680Y483070D02*
D03*
X688340Y440944D02*
D03*
X513080Y687578D02*
D03*
X556768Y557276D02*
D03*
X259080Y177292D02*
D03*
X338074Y466090D02*
D03*
X421132Y505968D02*
D03*
X417068Y425570D02*
D03*
X98806Y409194D02*
D03*
X99060Y439674D02*
D03*
X236049Y468293D02*
D03*
X372110Y324104D02*
D03*
X251968Y202184D02*
D03*
X231140Y400812D02*
D03*
X158496Y378460D02*
D03*
X237998Y453390D02*
D03*
X245110Y259080D02*
D03*
X214376Y242000D02*
D03*
X215392Y440690D02*
D03*
X163068Y646430D02*
D03*
X160528Y712724D02*
D03*
D39*
X519430Y504190D02*
D03*
X524510Y430530D02*
D03*
Y454660D02*
D03*
Y474980D02*
D03*
Y405130D02*
D03*
X525272Y382270D02*
D03*
X523240Y358140D02*
D03*
X393700Y180340D02*
D03*
X478790Y161290D02*
D03*
X251460Y361950D02*
D03*
X224790Y412750D02*
D03*
X226060Y448310D02*
D03*
X232410Y485140D02*
D03*
X191893Y591984D02*
D03*
X132203Y566584D02*
D03*
X102993Y494194D02*
D03*
X53340Y511810D02*
D03*
D40*
X22700Y172000D02*
D03*
Y292000D02*
D03*
M02*
