G04*
G04 #@! TF.GenerationSoftware,Altium Limited,Altium Designer,22.10.1 (41)*
G04*
G04 Layer_Physical_Order=1*
G04 Layer_Color=255*
%FSLAX44Y44*%
%MOMM*%
G71*
G04*
G04 #@! TF.SameCoordinates,15C13A22-FF6B-4AA4-AE0B-FE47445A9F5C*
G04*
G04*
G04 #@! TF.FilePolarity,Positive*
G04*
G01*
G75*
%ADD15R,5.5000X2.0000*%
%ADD16R,1.2500X1.4500*%
%ADD17R,0.8065X1.3082*%
%ADD18R,1.4500X1.2500*%
%ADD19R,1.2500X1.1000*%
%ADD20R,0.6080X2.2044*%
G04:AMPARAMS|DCode=21|XSize=2.2044mm|YSize=0.608mm|CornerRadius=0.304mm|HoleSize=0mm|Usage=FLASHONLY|Rotation=270.000|XOffset=0mm|YOffset=0mm|HoleType=Round|Shape=RoundedRectangle|*
%AMROUNDEDRECTD21*
21,1,2.2044,0.0000,0,0,270.0*
21,1,1.5965,0.6080,0,0,270.0*
1,1,0.6080,0.0000,-0.7982*
1,1,0.6080,0.0000,0.7982*
1,1,0.6080,0.0000,0.7982*
1,1,0.6080,0.0000,-0.7982*
%
%ADD21ROUNDEDRECTD21*%
G04:AMPARAMS|DCode=22|XSize=1.9mm|YSize=0.6mm|CornerRadius=0.3mm|HoleSize=0mm|Usage=FLASHONLY|Rotation=270.000|XOffset=0mm|YOffset=0mm|HoleType=Round|Shape=RoundedRectangle|*
%AMROUNDEDRECTD22*
21,1,1.9000,0.0000,0,0,270.0*
21,1,1.3000,0.6000,0,0,270.0*
1,1,0.6000,0.0000,-0.6500*
1,1,0.6000,0.0000,0.6500*
1,1,0.6000,0.0000,0.6500*
1,1,0.6000,0.0000,-0.6500*
%
%ADD22ROUNDEDRECTD22*%
%ADD29R,1.5700X1.5700*%
%ADD30C,1.5700*%
%ADD34C,0.2032*%
%ADD35C,1.6650*%
%ADD36R,1.2430X1.2430*%
%ADD37C,1.2430*%
%ADD38C,0.7620*%
%ADD39C,0.4064*%
%ADD40C,2.5400*%
G36*
X846115Y3884D02*
X3884D01*
Y194476D01*
X4109Y194647D01*
X5629Y194659D01*
X6718Y193570D01*
X6096Y192069D01*
Y189947D01*
X6908Y187987D01*
X8408Y186486D01*
X10369Y185674D01*
X12491D01*
X14452Y186486D01*
X15952Y187987D01*
X16764Y189947D01*
Y192069D01*
X15952Y194030D01*
X14452Y195530D01*
X12491Y196342D01*
X11271D01*
X10050Y197563D01*
Y283009D01*
X10999Y283264D01*
X11320Y283264D01*
X13966Y280618D01*
X17210Y278745D01*
X20827Y277776D01*
X24573D01*
X28190Y278745D01*
X31434Y280618D01*
X34082Y283266D01*
X35955Y286510D01*
X36924Y290127D01*
Y293873D01*
X35955Y297490D01*
X34082Y300734D01*
X31434Y303382D01*
X28190Y305255D01*
X24573Y306224D01*
X20827D01*
X17210Y305255D01*
X13966Y303382D01*
X11320Y300735D01*
X10999Y300736D01*
X10050Y300991D01*
Y544625D01*
X11271Y545846D01*
X12491D01*
X14452Y546658D01*
X15952Y548158D01*
X16764Y550119D01*
Y552241D01*
X15952Y554202D01*
X14452Y555702D01*
X12491Y556514D01*
X10369D01*
X8408Y555702D01*
X6908Y554202D01*
X6096Y552241D01*
Y550119D01*
X6718Y548618D01*
X5629Y547529D01*
X4109Y547541D01*
X3884Y547712D01*
Y846115D01*
X846115D01*
Y3884D01*
D02*
G37*
%LPC*%
G36*
X416524Y776454D02*
X416306D01*
Y768096D01*
X424664D01*
Y768314D01*
X424025Y770698D01*
X422791Y772836D01*
X421046Y774581D01*
X418908Y775815D01*
X416524Y776454D01*
D02*
G37*
G36*
X414274D02*
X414056D01*
X411672Y775815D01*
X409534Y774581D01*
X407789Y772836D01*
X406555Y770698D01*
X405916Y768314D01*
Y768096D01*
X414274D01*
Y776454D01*
D02*
G37*
G36*
X424664Y766064D02*
X416306D01*
Y757706D01*
X416524D01*
X418908Y758345D01*
X421046Y759579D01*
X422791Y761324D01*
X424025Y763462D01*
X424664Y765846D01*
Y766064D01*
D02*
G37*
G36*
X414274D02*
X405916D01*
Y765846D01*
X406555Y763462D01*
X407789Y761324D01*
X409534Y759579D01*
X411672Y758345D01*
X414056Y757706D01*
X414274D01*
Y766064D01*
D02*
G37*
G36*
X399264Y776454D02*
X380516D01*
Y757706D01*
X399264D01*
Y776454D01*
D02*
G37*
G36*
X271807Y736289D02*
X271526D01*
Y727456D01*
X280359D01*
Y727737D01*
X279688Y730242D01*
X278391Y732487D01*
X276557Y734321D01*
X274312Y735618D01*
X271807Y736289D01*
D02*
G37*
G36*
X269494D02*
X269213D01*
X266708Y735618D01*
X264463Y734321D01*
X262629Y732487D01*
X261332Y730242D01*
X260661Y727737D01*
Y727456D01*
X269494D01*
Y736289D01*
D02*
G37*
G36*
X198444Y768444D02*
X140396D01*
Y749087D01*
X94689Y703379D01*
X94127Y702539D01*
X93930Y701548D01*
Y692211D01*
X93258Y691762D01*
X92259Y690265D01*
X91907Y688500D01*
Y675500D01*
X92259Y673735D01*
X93258Y672239D01*
X94755Y671239D01*
X96520Y670888D01*
X98285Y671239D01*
X99782Y672239D01*
X100781Y673735D01*
X101133Y675500D01*
Y688500D01*
X100781Y690265D01*
X99782Y691762D01*
X99110Y692211D01*
Y700475D01*
X144031Y745396D01*
X198444D01*
Y754330D01*
X208477D01*
X210770Y752037D01*
Y747544D01*
X204586D01*
Y732314D01*
X204586Y731996D01*
Y731044D01*
X204586Y730726D01*
Y724286D01*
X222134D01*
Y730726D01*
X222134Y731044D01*
Y731996D01*
X222134Y732314D01*
Y747544D01*
X215950D01*
Y753110D01*
X215753Y754101D01*
X215191Y754941D01*
X211381Y758751D01*
X210541Y759313D01*
X209550Y759510D01*
X198444D01*
Y768444D01*
D02*
G37*
G36*
X830607Y736289D02*
X828013D01*
X825508Y735618D01*
X823263Y734321D01*
X821429Y732487D01*
X820132Y730242D01*
X819461Y727737D01*
Y725143D01*
X820132Y722638D01*
X821429Y720393D01*
X823263Y718559D01*
X825508Y717262D01*
X828013Y716591D01*
X830607D01*
X833112Y717262D01*
X835357Y718559D01*
X837191Y720393D01*
X838488Y722638D01*
X839159Y725143D01*
Y727737D01*
X838488Y730242D01*
X837191Y732487D01*
X835357Y734321D01*
X833112Y735618D01*
X830607Y736289D01*
D02*
G37*
G36*
X805207D02*
X802613D01*
X800108Y735618D01*
X797863Y734321D01*
X796029Y732487D01*
X794732Y730242D01*
X794061Y727737D01*
Y725143D01*
X794732Y722638D01*
X796029Y720393D01*
X797863Y718559D01*
X800108Y717262D01*
X802613Y716591D01*
X805207D01*
X807712Y717262D01*
X809957Y718559D01*
X811791Y720393D01*
X813088Y722638D01*
X813759Y725143D01*
Y727737D01*
X813088Y730242D01*
X811791Y732487D01*
X809957Y734321D01*
X807712Y735618D01*
X805207Y736289D01*
D02*
G37*
G36*
X779807D02*
X777213D01*
X774708Y735618D01*
X772463Y734321D01*
X770629Y732487D01*
X769332Y730242D01*
X768661Y727737D01*
Y725143D01*
X769332Y722638D01*
X770629Y720393D01*
X772463Y718559D01*
X774708Y717262D01*
X777213Y716591D01*
X779807D01*
X782312Y717262D01*
X784557Y718559D01*
X786391Y720393D01*
X787688Y722638D01*
X788359Y725143D01*
Y727737D01*
X787688Y730242D01*
X786391Y732487D01*
X784557Y734321D01*
X782312Y735618D01*
X779807Y736289D01*
D02*
G37*
G36*
X754407D02*
X751813D01*
X749308Y735618D01*
X747063Y734321D01*
X745229Y732487D01*
X743932Y730242D01*
X743261Y727737D01*
Y725143D01*
X743932Y722638D01*
X745229Y720393D01*
X747063Y718559D01*
X749308Y717262D01*
X751813Y716591D01*
X754407D01*
X756912Y717262D01*
X759157Y718559D01*
X760991Y720393D01*
X762288Y722638D01*
X762959Y725143D01*
Y727737D01*
X762288Y730242D01*
X760991Y732487D01*
X759157Y734321D01*
X756912Y735618D01*
X754407Y736289D01*
D02*
G37*
G36*
X710438Y780084D02*
X454025D01*
X453034Y779887D01*
X452194Y779325D01*
X446479Y773610D01*
X445917Y772770D01*
X445720Y771779D01*
Y735943D01*
X444508Y735618D01*
X442263Y734321D01*
X440429Y732487D01*
X439132Y730242D01*
X438461Y727737D01*
Y725143D01*
X439132Y722638D01*
X439759Y721552D01*
X435614Y717406D01*
X435052Y716566D01*
X434855Y715575D01*
Y643617D01*
X433682Y643131D01*
X355261Y721552D01*
X355888Y722638D01*
X356559Y725143D01*
Y727737D01*
X355888Y730242D01*
X354591Y732487D01*
X353576Y733502D01*
X354102Y734772D01*
X364718D01*
X365244Y733502D01*
X364229Y732487D01*
X362932Y730242D01*
X362261Y727737D01*
Y725143D01*
X362932Y722638D01*
X364229Y720393D01*
X366063Y718559D01*
X368308Y717262D01*
X370813Y716591D01*
X373407D01*
X375912Y717262D01*
X376998Y717889D01*
X407341Y687547D01*
X407162Y687115D01*
Y684993D01*
X407974Y683033D01*
X409474Y681532D01*
X411435Y680720D01*
X413557D01*
X415518Y681532D01*
X417018Y683033D01*
X417830Y684993D01*
Y687115D01*
X417018Y689075D01*
X415518Y690576D01*
X413557Y691388D01*
X411435D01*
X411003Y691209D01*
X380661Y721552D01*
X381288Y722638D01*
X381959Y725143D01*
Y727737D01*
X381288Y730242D01*
X379991Y732487D01*
X378976Y733502D01*
X379502Y734772D01*
X385515D01*
X388960Y731328D01*
X388332Y730242D01*
X387661Y727737D01*
Y725143D01*
X388332Y722638D01*
X389629Y720393D01*
X391463Y718559D01*
X393708Y717262D01*
X396213Y716591D01*
X398807D01*
X401312Y717262D01*
X403557Y718559D01*
X405391Y720393D01*
X406688Y722638D01*
X407359Y725143D01*
Y727737D01*
X406688Y730242D01*
X405391Y732487D01*
X403557Y734321D01*
X401312Y735618D01*
X398807Y736289D01*
X396213D01*
X393708Y735618D01*
X392622Y734990D01*
X388419Y739193D01*
X387579Y739755D01*
X386588Y739952D01*
X339725D01*
X338734Y739755D01*
X337894Y739193D01*
X336498Y737798D01*
X335161Y738256D01*
X335073Y738954D01*
X337496Y741376D01*
X404311D01*
X414360Y731328D01*
X413732Y730242D01*
X413061Y727737D01*
Y725143D01*
X413732Y722638D01*
X415029Y720393D01*
X416863Y718559D01*
X419108Y717262D01*
X421613Y716591D01*
X424207D01*
X426712Y717262D01*
X428957Y718559D01*
X430791Y720393D01*
X432088Y722638D01*
X432759Y725143D01*
Y727737D01*
X432088Y730242D01*
X430791Y732487D01*
X428957Y734321D01*
X426712Y735618D01*
X424207Y736289D01*
X421613D01*
X419108Y735618D01*
X418022Y734990D01*
X407215Y745797D01*
X406375Y746359D01*
X405384Y746556D01*
X336423D01*
X335432Y746359D01*
X334592Y745797D01*
X330401Y741606D01*
X329839Y740766D01*
X329642Y739775D01*
Y733832D01*
X328372Y733306D01*
X327357Y734321D01*
X325112Y735618D01*
X322607Y736289D01*
X320013D01*
X317508Y735618D01*
X315263Y734321D01*
X313429Y732487D01*
X312132Y730242D01*
X311461Y727737D01*
Y725143D01*
X312132Y722638D01*
X313429Y720393D01*
X315263Y718559D01*
X317508Y717262D01*
X320013Y716591D01*
X322607D01*
X325112Y717262D01*
X327357Y718559D01*
X328372Y719574D01*
X329642Y719048D01*
Y717982D01*
X329839Y716991D01*
X330401Y716151D01*
X396755Y649796D01*
Y615677D01*
X395582Y615191D01*
X385117Y625655D01*
X384277Y626217D01*
X383286Y626414D01*
X254000D01*
X253009Y626217D01*
X252169Y625655D01*
X189691Y563178D01*
X188518Y563664D01*
Y576754D01*
X314733Y702969D01*
X316618D01*
X317481Y702106D01*
X319442Y701294D01*
X321564D01*
X323524Y702106D01*
X325025Y703606D01*
X325837Y705567D01*
Y707689D01*
X325025Y709650D01*
X323524Y711150D01*
X321564Y711962D01*
X319442D01*
X317481Y711150D01*
X315981Y709650D01*
X315359Y708149D01*
X313660D01*
X312669Y707951D01*
X311829Y707390D01*
X184097Y579658D01*
X183535Y578817D01*
X183338Y577826D01*
Y435600D01*
X182068Y435475D01*
X181971Y435966D01*
X181409Y436806D01*
X178234Y439981D01*
X177394Y440543D01*
X176403Y440740D01*
X152711D01*
X138236Y455215D01*
X138722Y456388D01*
X161925D01*
X162916Y456585D01*
X163756Y457147D01*
X167693Y461084D01*
X168255Y461924D01*
X168452Y462915D01*
Y535304D01*
X168255Y536296D01*
X167693Y537136D01*
X165427Y539402D01*
X165913Y540575D01*
X166465D01*
Y556705D01*
X163498D01*
Y561283D01*
X174551Y572336D01*
X175113Y573176D01*
X175310Y574168D01*
Y577789D01*
X175982Y578238D01*
X176982Y579735D01*
X177333Y581500D01*
Y594500D01*
X176982Y596265D01*
X175982Y597761D01*
X175310Y598210D01*
Y615385D01*
X180139Y620215D01*
X246941Y687017D01*
X247503Y687857D01*
X247700Y688848D01*
Y716937D01*
X248912Y717262D01*
X251157Y718559D01*
X252991Y720393D01*
X254288Y722638D01*
X254959Y725143D01*
Y727737D01*
X254288Y730242D01*
X252991Y732487D01*
X251157Y734321D01*
X248912Y735618D01*
X246407Y736289D01*
X243813D01*
X241308Y735618D01*
X239063Y734321D01*
X237229Y732487D01*
X235932Y730242D01*
X235261Y727737D01*
Y725143D01*
X235932Y722638D01*
X237229Y720393D01*
X239063Y718559D01*
X241308Y717262D01*
X242520Y716937D01*
Y689921D01*
X182071Y629472D01*
X180898Y629958D01*
Y699135D01*
X180701Y700126D01*
X180139Y700966D01*
X176456Y704649D01*
X175616Y705211D01*
X174625Y705408D01*
X132588D01*
X131597Y705211D01*
X130757Y704649D01*
X126439Y700331D01*
X125877Y699491D01*
X125680Y698500D01*
Y692956D01*
X124410Y692277D01*
X123685Y692762D01*
X121920Y693113D01*
X120155Y692762D01*
X118658Y691762D01*
X117659Y690265D01*
X117307Y688500D01*
Y675500D01*
X117659Y673735D01*
X118658Y672239D01*
X120155Y671239D01*
X121920Y670888D01*
X123685Y671239D01*
X123827Y671334D01*
X125137Y670699D01*
X125227Y669910D01*
X35380Y580063D01*
X34819Y579223D01*
X34622Y578232D01*
Y541465D01*
X31655D01*
Y525335D01*
X34622D01*
Y510545D01*
X34819Y509553D01*
X35380Y508713D01*
X39960Y504133D01*
Y491374D01*
X34776D01*
Y473826D01*
X39960D01*
Y465974D01*
X34776D01*
Y448426D01*
X39960D01*
Y319488D01*
X38690Y319235D01*
X38575Y319514D01*
X37574Y320515D01*
X36576Y320928D01*
Y317500D01*
Y314072D01*
X37574Y314485D01*
X38575Y315486D01*
X38690Y315765D01*
X39960Y315512D01*
Y302979D01*
X39413Y302432D01*
X38852Y301591D01*
X38655Y300600D01*
Y243455D01*
X38852Y242464D01*
X39413Y241624D01*
X55694Y225343D01*
X55488Y224987D01*
X54961Y223019D01*
Y220981D01*
X55488Y219013D01*
X56507Y217248D01*
X57948Y215807D01*
X59713Y214788D01*
X60110Y214682D01*
Y209318D01*
X59713Y209212D01*
X57948Y208193D01*
X56507Y206752D01*
X55488Y204987D01*
X54961Y203019D01*
Y200981D01*
X55488Y199013D01*
X56507Y197248D01*
X57948Y195807D01*
X59713Y194788D01*
X60110Y194682D01*
Y189318D01*
X59713Y189212D01*
X57948Y188193D01*
X56507Y186752D01*
X55488Y184987D01*
X54961Y183019D01*
Y180981D01*
X55488Y179013D01*
X55694Y178657D01*
X52017Y174979D01*
X51455Y174139D01*
X51258Y173148D01*
Y115824D01*
X51455Y114833D01*
X52017Y113993D01*
X62409Y103601D01*
X62230Y103169D01*
Y101047D01*
X63042Y99087D01*
X64542Y97586D01*
X66503Y96774D01*
X68625D01*
X70054Y97366D01*
X71324Y96665D01*
Y85725D01*
X71521Y84734D01*
X72083Y83894D01*
X76782Y79195D01*
X77622Y78633D01*
X78613Y78436D01*
X364490D01*
X365481Y78633D01*
X366321Y79195D01*
X387911Y100785D01*
X388473Y101625D01*
X388670Y102616D01*
Y124012D01*
X389940Y124452D01*
X391463Y122929D01*
X393708Y121632D01*
X394920Y121307D01*
Y117348D01*
X395117Y116357D01*
X395679Y115517D01*
X421587Y89609D01*
X422427Y89047D01*
X423418Y88850D01*
X478870D01*
X479861Y89047D01*
X480701Y89609D01*
X486406Y95314D01*
X486968Y96154D01*
X487165Y97145D01*
Y116605D01*
X488338Y117091D01*
X498781Y106649D01*
X498602Y106217D01*
Y104095D01*
X499414Y102135D01*
X500914Y100634D01*
X502875Y99822D01*
X504997D01*
X506958Y100634D01*
X508458Y102135D01*
X509270Y104095D01*
Y106217D01*
X508458Y108177D01*
X506958Y109678D01*
X504997Y110490D01*
X502875D01*
X502443Y110311D01*
X490835Y121920D01*
Y123361D01*
X492105Y123887D01*
X493063Y122929D01*
X495308Y121632D01*
X497813Y120961D01*
X500407D01*
X502912Y121632D01*
X503998Y122260D01*
X524333Y101924D01*
Y51308D01*
X524530Y50317D01*
X525092Y49477D01*
X528394Y46175D01*
X529234Y45613D01*
X530225Y45416D01*
X722376D01*
X723367Y45613D01*
X724207Y46175D01*
X767641Y89609D01*
X768203Y90449D01*
X768400Y91440D01*
Y126083D01*
X769670Y126424D01*
X770629Y124763D01*
X772463Y122929D01*
X774708Y121632D01*
X777213Y120961D01*
X779807D01*
X782312Y121632D01*
X784557Y122929D01*
X786391Y124763D01*
X787688Y127008D01*
X788359Y129513D01*
Y132107D01*
X787688Y134612D01*
X786391Y136857D01*
X784557Y138691D01*
X782312Y139988D01*
X779807Y140659D01*
X777213D01*
X774708Y139988D01*
X772463Y138691D01*
X770629Y136857D01*
X769670Y135196D01*
X768400Y135537D01*
Y170885D01*
X778563Y181049D01*
X779125Y181889D01*
X779322Y182880D01*
Y267970D01*
X779125Y268961D01*
X778563Y269801D01*
X775991Y272374D01*
X776648Y273512D01*
X777213Y273361D01*
X779807D01*
X782312Y274032D01*
X784557Y275329D01*
X786391Y277163D01*
X787688Y279408D01*
X788359Y281913D01*
Y284507D01*
X787688Y287012D01*
X786391Y289257D01*
X784557Y291091D01*
X782312Y292388D01*
X779807Y293059D01*
X777213D01*
X774708Y292388D01*
X772463Y291091D01*
X770629Y289257D01*
X769670Y287596D01*
X768400Y287937D01*
Y347924D01*
X769626Y348790D01*
X839530D01*
X840696Y349273D01*
X841180Y350440D01*
Y510530D01*
X840696Y511696D01*
X839530Y512180D01*
X769626D01*
X768459Y511696D01*
X767976Y510530D01*
Y374522D01*
X766920Y373817D01*
X766871Y373837D01*
X764749D01*
X762788Y373025D01*
X761288Y371525D01*
X760476Y369564D01*
Y367442D01*
X761288Y365482D01*
X762788Y363981D01*
X763220Y363802D01*
Y287937D01*
X761950Y287596D01*
X760991Y289257D01*
X759157Y291091D01*
X756912Y292388D01*
X754407Y293059D01*
X751813D01*
X749308Y292388D01*
X747063Y291091D01*
X745229Y289257D01*
X743932Y287012D01*
X743261Y284507D01*
Y281913D01*
X743932Y279408D01*
X745229Y277163D01*
X747063Y275329D01*
X749308Y274032D01*
X750520Y273708D01*
Y257437D01*
X749250Y257097D01*
X748291Y258758D01*
X746457Y260591D01*
X744212Y261888D01*
X741707Y262559D01*
X739113D01*
X736608Y261888D01*
X734363Y260591D01*
X733348Y259576D01*
X732078Y260103D01*
Y266897D01*
X740463Y275283D01*
X741025Y276123D01*
X741222Y277114D01*
Y749300D01*
X741025Y750291D01*
X740463Y751131D01*
X712269Y779325D01*
X711429Y779887D01*
X710438Y780084D01*
D02*
G37*
G36*
X297207Y736289D02*
X294613D01*
X292108Y735618D01*
X289863Y734321D01*
X288029Y732487D01*
X286732Y730242D01*
X286061Y727737D01*
Y725143D01*
X286732Y722638D01*
X288029Y720393D01*
X289863Y718559D01*
X292108Y717262D01*
X294613Y716591D01*
X297207D01*
X299712Y717262D01*
X301957Y718559D01*
X303791Y720393D01*
X305088Y722638D01*
X305759Y725143D01*
Y727737D01*
X305088Y730242D01*
X303791Y732487D01*
X301957Y734321D01*
X299712Y735618D01*
X297207Y736289D01*
D02*
G37*
G36*
X280359Y725424D02*
X271526D01*
Y716591D01*
X271807D01*
X274312Y717262D01*
X276557Y718559D01*
X278391Y720393D01*
X279688Y722638D01*
X280359Y725143D01*
Y725424D01*
D02*
G37*
G36*
X269494D02*
X260661D01*
Y725143D01*
X261332Y722638D01*
X262629Y720393D01*
X264463Y718559D01*
X266708Y717262D01*
X269213Y716591D01*
X269494D01*
Y725424D01*
D02*
G37*
G36*
X222134Y722254D02*
X214376D01*
Y715496D01*
X222134D01*
Y722254D01*
D02*
G37*
G36*
X212344D02*
X204586D01*
Y715496D01*
X212344D01*
Y722254D01*
D02*
G37*
G36*
X29094D02*
X21336D01*
Y715496D01*
X29094D01*
Y722254D01*
D02*
G37*
G36*
X19304D02*
X11546D01*
Y715496D01*
X19304D01*
Y722254D01*
D02*
G37*
G36*
X425130Y699730D02*
Y697318D01*
X427542D01*
X427128Y698316D01*
X426128Y699317D01*
X425130Y699730D01*
D02*
G37*
G36*
X423098D02*
X422099Y699317D01*
X421099Y698316D01*
X420686Y697318D01*
X423098D01*
Y699730D01*
D02*
G37*
G36*
X427542Y695286D02*
X425130D01*
Y692874D01*
X426128Y693288D01*
X427128Y694288D01*
X427542Y695286D01*
D02*
G37*
G36*
X423098D02*
X420686D01*
X421099Y694288D01*
X422099Y693288D01*
X423098Y692874D01*
Y695286D01*
D02*
G37*
G36*
X271807Y710889D02*
X269213D01*
X266708Y710218D01*
X264463Y708921D01*
X262629Y707087D01*
X261332Y704842D01*
X260661Y702337D01*
Y699743D01*
X261332Y697238D01*
X262629Y694993D01*
X264463Y693159D01*
X266708Y691862D01*
X269213Y691191D01*
X271807D01*
X274312Y691862D01*
X276557Y693159D01*
X278391Y694993D01*
X279688Y697238D01*
X280359Y699743D01*
Y702337D01*
X279688Y704842D01*
X278391Y707087D01*
X276557Y708921D01*
X274312Y710218D01*
X271807Y710889D01*
D02*
G37*
G36*
X72136Y692911D02*
Y683016D01*
X75733D01*
Y688500D01*
X75381Y690265D01*
X74382Y691762D01*
X72885Y692762D01*
X72136Y692911D01*
D02*
G37*
G36*
X70104D02*
X69355Y692762D01*
X67858Y691762D01*
X66859Y690265D01*
X66507Y688500D01*
Y683016D01*
X70104D01*
Y692911D01*
D02*
G37*
G36*
X75733Y680984D02*
X72136D01*
Y671090D01*
X72885Y671239D01*
X74382Y672239D01*
X75381Y673735D01*
X75733Y675500D01*
Y680984D01*
D02*
G37*
G36*
X70104D02*
X66507D01*
Y675500D01*
X66859Y673735D01*
X67858Y672239D01*
X69355Y671239D01*
X70104Y671090D01*
Y680984D01*
D02*
G37*
G36*
X109220Y693113D02*
X107455Y692762D01*
X105958Y691762D01*
X104958Y690265D01*
X104607Y688500D01*
Y675500D01*
X104958Y673735D01*
X105958Y672239D01*
X107455Y671239D01*
X109220Y670888D01*
X110985Y671239D01*
X112482Y672239D01*
X113482Y673735D01*
X113833Y675500D01*
Y688500D01*
X113482Y690265D01*
X112482Y691762D01*
X110985Y692762D01*
X109220Y693113D01*
D02*
G37*
G36*
X103444Y768444D02*
X45396D01*
Y759510D01*
X24765D01*
X23774Y759313D01*
X22934Y758751D01*
X18489Y754306D01*
X17927Y753466D01*
X17730Y752475D01*
Y747544D01*
X11546D01*
Y732314D01*
X11546Y731996D01*
Y731044D01*
X11546Y730726D01*
Y724286D01*
X29094D01*
Y730726D01*
X29094Y731044D01*
Y731996D01*
X29094Y732314D01*
Y747544D01*
X22910D01*
Y751402D01*
X25838Y754330D01*
X45396D01*
Y745396D01*
X71830D01*
Y724156D01*
X72027Y723165D01*
X72589Y722325D01*
X81230Y713683D01*
Y692211D01*
X80558Y691762D01*
X79559Y690265D01*
X79207Y688500D01*
Y675500D01*
X79559Y673735D01*
X80558Y672239D01*
X82055Y671239D01*
X83820Y670888D01*
X85585Y671239D01*
X87082Y672239D01*
X88082Y673735D01*
X88433Y675500D01*
Y688500D01*
X88082Y690265D01*
X87082Y691762D01*
X86410Y692211D01*
Y714756D01*
X86213Y715747D01*
X85651Y716587D01*
X77010Y725229D01*
Y745396D01*
X103444D01*
Y768444D01*
D02*
G37*
G36*
X830607Y583889D02*
X828013D01*
X825508Y583218D01*
X823263Y581921D01*
X821429Y580087D01*
X820132Y577842D01*
X819461Y575337D01*
Y572743D01*
X820132Y570238D01*
X821429Y567993D01*
X823263Y566159D01*
X825508Y564862D01*
X828013Y564191D01*
X830607D01*
X833112Y564862D01*
X835357Y566159D01*
X837191Y567993D01*
X838488Y570238D01*
X839159Y572743D01*
Y575337D01*
X838488Y577842D01*
X837191Y580087D01*
X835357Y581921D01*
X833112Y583218D01*
X830607Y583889D01*
D02*
G37*
G36*
X805207D02*
X802613D01*
X800108Y583218D01*
X797863Y581921D01*
X796029Y580087D01*
X794732Y577842D01*
X794061Y575337D01*
Y572743D01*
X794732Y570238D01*
X796029Y567993D01*
X797863Y566159D01*
X800108Y564862D01*
X802613Y564191D01*
X805207D01*
X807712Y564862D01*
X809957Y566159D01*
X811791Y567993D01*
X813088Y570238D01*
X813759Y572743D01*
Y575337D01*
X813088Y577842D01*
X811791Y580087D01*
X809957Y581921D01*
X807712Y583218D01*
X805207Y583889D01*
D02*
G37*
G36*
X779807D02*
X777213D01*
X774708Y583218D01*
X772463Y581921D01*
X770629Y580087D01*
X769332Y577842D01*
X768661Y575337D01*
Y572743D01*
X769332Y570238D01*
X770629Y567993D01*
X772463Y566159D01*
X774708Y564862D01*
X777213Y564191D01*
X779807D01*
X782312Y564862D01*
X784557Y566159D01*
X786391Y567993D01*
X787688Y570238D01*
X788359Y572743D01*
Y575337D01*
X787688Y577842D01*
X786391Y580087D01*
X784557Y581921D01*
X782312Y583218D01*
X779807Y583889D01*
D02*
G37*
G36*
X754407D02*
X751813D01*
X749308Y583218D01*
X747063Y581921D01*
X745229Y580087D01*
X743932Y577842D01*
X743261Y575337D01*
Y572743D01*
X743932Y570238D01*
X745229Y567993D01*
X747063Y566159D01*
X749308Y564862D01*
X751813Y564191D01*
X754407D01*
X756912Y564862D01*
X759157Y566159D01*
X760991Y567993D01*
X762288Y570238D01*
X762959Y572743D01*
Y575337D01*
X762288Y577842D01*
X760991Y580087D01*
X759157Y581921D01*
X756912Y583218D01*
X754407Y583889D01*
D02*
G37*
G36*
X21336Y408558D02*
Y406146D01*
X23748D01*
X23335Y407144D01*
X22334Y408145D01*
X21336Y408558D01*
D02*
G37*
G36*
X19304D02*
X18306Y408145D01*
X17305Y407144D01*
X16892Y406146D01*
X19304D01*
Y408558D01*
D02*
G37*
G36*
X23748Y404114D02*
X21336D01*
Y401702D01*
X22334Y402115D01*
X23335Y403116D01*
X23748Y404114D01*
D02*
G37*
G36*
X19304D02*
X16892D01*
X17305Y403116D01*
X18306Y402115D01*
X19304Y401702D01*
Y404114D01*
D02*
G37*
G36*
X34544Y320928D02*
X33546Y320515D01*
X32545Y319514D01*
X32132Y318516D01*
X34544D01*
Y320928D01*
D02*
G37*
G36*
Y316484D02*
X32132D01*
X32545Y315486D01*
X33546Y314485D01*
X34544Y314072D01*
Y316484D01*
D02*
G37*
G36*
X830607Y293059D02*
X830326D01*
Y284226D01*
X839159D01*
Y284507D01*
X838488Y287012D01*
X837191Y289257D01*
X835357Y291091D01*
X833112Y292388D01*
X830607Y293059D01*
D02*
G37*
G36*
X828294D02*
X828013D01*
X825508Y292388D01*
X823263Y291091D01*
X821429Y289257D01*
X820132Y287012D01*
X819461Y284507D01*
Y284226D01*
X828294D01*
Y293059D01*
D02*
G37*
G36*
X839159Y282194D02*
X830326D01*
Y273361D01*
X830607D01*
X833112Y274032D01*
X835357Y275329D01*
X837191Y277163D01*
X838488Y279408D01*
X839159Y281913D01*
Y282194D01*
D02*
G37*
G36*
X828294D02*
X819461D01*
Y281913D01*
X820132Y279408D01*
X821429Y277163D01*
X823263Y275329D01*
X825508Y274032D01*
X828013Y273361D01*
X828294D01*
Y282194D01*
D02*
G37*
G36*
X805207Y293059D02*
X802613D01*
X800108Y292388D01*
X797863Y291091D01*
X796029Y289257D01*
X794732Y287012D01*
X794061Y284507D01*
Y281913D01*
X794732Y279408D01*
X796029Y277163D01*
X797863Y275329D01*
X800108Y274032D01*
X802613Y273361D01*
X805207D01*
X807712Y274032D01*
X809957Y275329D01*
X811791Y277163D01*
X813088Y279408D01*
X813759Y281913D01*
Y284507D01*
X813088Y287012D01*
X811791Y289257D01*
X809957Y291091D01*
X807712Y292388D01*
X805207Y293059D01*
D02*
G37*
G36*
X789686Y223138D02*
Y220726D01*
X792098D01*
X791685Y221724D01*
X790684Y222725D01*
X789686Y223138D01*
D02*
G37*
G36*
X787654D02*
X786656Y222725D01*
X785655Y221724D01*
X785242Y220726D01*
X787654D01*
Y223138D01*
D02*
G37*
G36*
X792098Y218694D02*
X789686D01*
Y216282D01*
X790684Y216695D01*
X791685Y217696D01*
X792098Y218694D01*
D02*
G37*
G36*
X787654D02*
X785242D01*
X785655Y217696D01*
X786656Y216695D01*
X787654Y216282D01*
Y218694D01*
D02*
G37*
G36*
X24573Y186224D02*
X20827D01*
X17210Y185255D01*
X13966Y183382D01*
X11318Y180734D01*
X9445Y177490D01*
X8476Y173873D01*
Y170128D01*
X9445Y166510D01*
X11318Y163266D01*
X13966Y160618D01*
X17210Y158745D01*
X20827Y157776D01*
X24573D01*
X28190Y158745D01*
X31434Y160618D01*
X34082Y163266D01*
X35955Y166510D01*
X36924Y170128D01*
Y173873D01*
X35955Y177490D01*
X34082Y180734D01*
X31434Y183382D01*
X28190Y185255D01*
X24573Y186224D01*
D02*
G37*
G36*
X805207Y166059D02*
X802613D01*
X800108Y165388D01*
X797863Y164091D01*
X796029Y162257D01*
X794732Y160012D01*
X794061Y157507D01*
Y154913D01*
X794732Y152408D01*
X796029Y150163D01*
X797863Y148329D01*
X800108Y147032D01*
X802613Y146361D01*
X805207D01*
X807712Y147032D01*
X809957Y148329D01*
X811791Y150163D01*
X813088Y152408D01*
X813759Y154913D01*
Y157507D01*
X813088Y160012D01*
X811791Y162257D01*
X809957Y164091D01*
X807712Y165388D01*
X805207Y166059D01*
D02*
G37*
G36*
Y140659D02*
X804926D01*
Y131826D01*
X813759D01*
Y132107D01*
X813088Y134612D01*
X811791Y136857D01*
X809957Y138691D01*
X807712Y139988D01*
X805207Y140659D01*
D02*
G37*
G36*
X802894D02*
X802613D01*
X800108Y139988D01*
X797863Y138691D01*
X796029Y136857D01*
X794732Y134612D01*
X794061Y132107D01*
Y131826D01*
X802894D01*
Y140659D01*
D02*
G37*
G36*
X830607D02*
X828013D01*
X825508Y139988D01*
X823263Y138691D01*
X821429Y136857D01*
X820132Y134612D01*
X819461Y132107D01*
Y129513D01*
X820132Y127008D01*
X821429Y124763D01*
X823263Y122929D01*
X825508Y121632D01*
X828013Y120961D01*
X830607D01*
X833112Y121632D01*
X835357Y122929D01*
X837191Y124763D01*
X838488Y127008D01*
X839159Y129513D01*
Y132107D01*
X838488Y134612D01*
X837191Y136857D01*
X835357Y138691D01*
X833112Y139988D01*
X830607Y140659D01*
D02*
G37*
G36*
X813759Y129794D02*
X804926D01*
Y120961D01*
X805207D01*
X807712Y121632D01*
X809957Y122929D01*
X811791Y124763D01*
X813088Y127008D01*
X813759Y129513D01*
Y129794D01*
D02*
G37*
G36*
X802894D02*
X794061D01*
Y129513D01*
X794732Y127008D01*
X796029Y124763D01*
X797863Y122929D01*
X800108Y121632D01*
X802613Y120961D01*
X802894D01*
Y129794D01*
D02*
G37*
%LPD*%
G36*
X736042Y748227D02*
Y733832D01*
X734772Y733306D01*
X733757Y734321D01*
X731512Y735618D01*
X729007Y736289D01*
X726413D01*
X723908Y735618D01*
X721663Y734321D01*
X719829Y732487D01*
X718532Y730242D01*
X717861Y727737D01*
Y725143D01*
X718532Y722638D01*
X719159Y721552D01*
X713179Y715571D01*
X712617Y714731D01*
X712420Y713740D01*
Y705767D01*
X711150Y705426D01*
X710191Y707087D01*
X708357Y708921D01*
X706112Y710218D01*
X703607Y710889D01*
X701013D01*
X698508Y710218D01*
X696263Y708921D01*
X694429Y707087D01*
X693132Y704842D01*
X692461Y702337D01*
Y699743D01*
X693132Y697238D01*
X694429Y694993D01*
X696263Y693159D01*
X698508Y691862D01*
X701013Y691191D01*
X703607D01*
X706112Y691862D01*
X708357Y693159D01*
X710191Y694993D01*
X711150Y696654D01*
X712420Y696313D01*
Y680367D01*
X711150Y680026D01*
X710191Y681687D01*
X708357Y683521D01*
X706112Y684818D01*
X703607Y685489D01*
X701013D01*
X698508Y684818D01*
X696263Y683521D01*
X694429Y681687D01*
X693132Y679442D01*
X692461Y676937D01*
Y674343D01*
X693132Y671838D01*
X694429Y669593D01*
X696263Y667759D01*
X698508Y666462D01*
X701013Y665791D01*
X703607D01*
X706112Y666462D01*
X708357Y667759D01*
X710191Y669593D01*
X711150Y671254D01*
X712420Y670913D01*
Y654967D01*
X711150Y654626D01*
X710191Y656287D01*
X708357Y658121D01*
X706112Y659418D01*
X703607Y660089D01*
X703326D01*
Y650240D01*
Y640391D01*
X703607D01*
X706112Y641062D01*
X708357Y642359D01*
X710191Y644193D01*
X711150Y645854D01*
X712420Y645513D01*
Y629567D01*
X711150Y629226D01*
X710191Y630887D01*
X708357Y632721D01*
X706112Y634018D01*
X703607Y634689D01*
X701013D01*
X698508Y634018D01*
X696263Y632721D01*
X694429Y630887D01*
X693132Y628642D01*
X692461Y626137D01*
Y623543D01*
X693132Y621038D01*
X694429Y618793D01*
X696263Y616959D01*
X698508Y615662D01*
X701013Y614991D01*
X703607D01*
X706112Y615662D01*
X708357Y616959D01*
X710191Y618793D01*
X711150Y620454D01*
X712420Y620113D01*
Y604167D01*
X711150Y603826D01*
X710191Y605487D01*
X708357Y607321D01*
X706112Y608618D01*
X703607Y609289D01*
X701013D01*
X698508Y608618D01*
X696263Y607321D01*
X694429Y605487D01*
X693132Y603242D01*
X692461Y600737D01*
Y598143D01*
X693132Y595638D01*
X694429Y593393D01*
X696263Y591559D01*
X698508Y590262D01*
X701013Y589591D01*
X703607D01*
X706112Y590262D01*
X708357Y591559D01*
X710191Y593393D01*
X711150Y595054D01*
X712420Y594713D01*
Y578767D01*
X711150Y578426D01*
X710191Y580087D01*
X708357Y581921D01*
X706112Y583218D01*
X703607Y583889D01*
X701013D01*
X698508Y583218D01*
X696263Y581921D01*
X694429Y580087D01*
X693132Y577842D01*
X692461Y575337D01*
Y572743D01*
X693132Y570238D01*
X694429Y567993D01*
X696263Y566159D01*
X698508Y564862D01*
X701013Y564191D01*
X703607D01*
X706112Y564862D01*
X708357Y566159D01*
X710191Y567993D01*
X711150Y569654D01*
X712420Y569313D01*
Y485359D01*
X628724Y401662D01*
X628162Y400822D01*
X627965Y399831D01*
Y320614D01*
X627938Y320596D01*
X626668Y321275D01*
Y406597D01*
X664263Y444193D01*
X664825Y445033D01*
X665022Y446024D01*
Y733425D01*
X664825Y734416D01*
X664263Y735256D01*
X636958Y762561D01*
X636118Y763123D01*
X635127Y763320D01*
X584200D01*
X583209Y763123D01*
X582369Y762561D01*
X554798Y734990D01*
X553712Y735618D01*
X551207Y736289D01*
X548613D01*
X546108Y735618D01*
X543863Y734321D01*
X542029Y732487D01*
X541070Y730826D01*
X539800Y731167D01*
Y735584D01*
X539603Y736575D01*
X539041Y737415D01*
X537263Y739193D01*
X536423Y739755D01*
X535432Y739952D01*
X517525D01*
X516534Y739755D01*
X515694Y739193D01*
X511757Y735256D01*
X511195Y734416D01*
X510998Y733425D01*
Y724211D01*
X509667Y722880D01*
X508529Y723537D01*
X508959Y725143D01*
Y727737D01*
X508288Y730242D01*
X506991Y732487D01*
X505157Y734321D01*
X502912Y735618D01*
X500407Y736289D01*
X497813D01*
X495308Y735618D01*
X494970Y735422D01*
X493870Y736057D01*
Y750780D01*
X493673Y751771D01*
X493111Y752611D01*
X484354Y761368D01*
Y774904D01*
X493151D01*
X493677Y773634D01*
X492879Y772836D01*
X491645Y770698D01*
X491006Y768314D01*
Y768096D01*
X509754D01*
Y768314D01*
X509115Y770698D01*
X507881Y772836D01*
X507083Y773634D01*
X507609Y774904D01*
X709365D01*
X736042Y748227D01*
D02*
G37*
G36*
X655244Y736951D02*
X654586Y735812D01*
X652807Y736289D01*
X650213D01*
X647708Y735618D01*
X645463Y734321D01*
X643629Y732487D01*
X642332Y730242D01*
X641661Y727737D01*
Y725143D01*
X642332Y722638D01*
X642960Y721552D01*
X637741Y716333D01*
X637179Y715493D01*
X636982Y714502D01*
Y576425D01*
X635712Y576258D01*
X635288Y577842D01*
X633991Y580087D01*
X632157Y581921D01*
X629912Y583218D01*
X627407Y583889D01*
X624813D01*
X622308Y583218D01*
X620063Y581921D01*
X618229Y580087D01*
X616932Y577842D01*
X616261Y575337D01*
Y572743D01*
X616932Y570238D01*
X618229Y567993D01*
X620063Y566159D01*
X622308Y564862D01*
X624813Y564191D01*
X627407D01*
X629912Y564862D01*
X632157Y566159D01*
X633991Y567993D01*
X635288Y570238D01*
X635712Y571822D01*
X636982Y571655D01*
Y444303D01*
X609039Y416359D01*
X608477Y415519D01*
X608380Y415028D01*
X607110Y415153D01*
Y439674D01*
X606913Y440665D01*
X606351Y441505D01*
X573077Y474779D01*
X572237Y475341D01*
X571246Y475538D01*
X545467D01*
X545288Y475970D01*
X543787Y477470D01*
X543356Y477649D01*
Y498455D01*
X545391Y500490D01*
X545953Y501331D01*
X546150Y502322D01*
Y528411D01*
X545953Y529402D01*
X545391Y530242D01*
X541521Y534112D01*
Y566704D01*
X542791Y567230D01*
X543863Y566159D01*
X546108Y564862D01*
X548613Y564191D01*
X551207D01*
X553712Y564862D01*
X555957Y566159D01*
X557791Y567993D01*
X559088Y570238D01*
X559759Y572743D01*
Y575337D01*
X559088Y577842D01*
X557791Y580087D01*
X555957Y581921D01*
X553712Y583218D01*
X551207Y583889D01*
X548613D01*
X546108Y583218D01*
X543863Y581921D01*
X542791Y580849D01*
X541521Y581376D01*
Y588461D01*
X541324Y589452D01*
X540762Y590292D01*
X538276Y592779D01*
Y625473D01*
X538708Y625652D01*
X540208Y627152D01*
X541020Y629113D01*
Y631235D01*
X540601Y632246D01*
X541678Y632966D01*
X572720Y601923D01*
Y583543D01*
X571508Y583218D01*
X570422Y582590D01*
X552525Y600487D01*
X552704Y600919D01*
Y603041D01*
X551892Y605001D01*
X550392Y606502D01*
X548431Y607314D01*
X546309D01*
X544348Y606502D01*
X542848Y605001D01*
X542036Y603041D01*
Y600919D01*
X542848Y598959D01*
X544348Y597458D01*
X546309Y596646D01*
X548431D01*
X548863Y596825D01*
X566759Y578928D01*
X566132Y577842D01*
X565461Y575337D01*
Y572743D01*
X566132Y570238D01*
X567429Y567993D01*
X569263Y566159D01*
X571508Y564862D01*
X574013Y564191D01*
X576607D01*
X579112Y564862D01*
X581357Y566159D01*
X583191Y567993D01*
X584488Y570238D01*
X585159Y572743D01*
Y575337D01*
X584488Y577842D01*
X583191Y580087D01*
X581357Y581921D01*
X579112Y583218D01*
X577900Y583543D01*
Y601180D01*
X579073Y601666D01*
X596405Y584335D01*
X596159Y582785D01*
X594663Y581921D01*
X592829Y580087D01*
X591532Y577842D01*
X590861Y575337D01*
Y572743D01*
X591532Y570238D01*
X592829Y567993D01*
X594663Y566159D01*
X596908Y564862D01*
X599413Y564191D01*
X602007D01*
X604512Y564862D01*
X606757Y566159D01*
X607772Y567174D01*
X609042Y566648D01*
Y537847D01*
X608610Y537668D01*
X607110Y536167D01*
X606298Y534207D01*
Y532085D01*
X607110Y530125D01*
X608610Y528624D01*
X610571Y527812D01*
X612693D01*
X614654Y528624D01*
X616154Y530125D01*
X616966Y532085D01*
Y534207D01*
X616154Y536167D01*
X614654Y537668D01*
X614222Y537847D01*
Y690118D01*
X614025Y691109D01*
X613463Y691949D01*
X583861Y721552D01*
X584488Y722638D01*
X585159Y725143D01*
Y727737D01*
X584488Y730242D01*
X583191Y732487D01*
X581357Y734321D01*
X579112Y735618D01*
X576607Y736289D01*
X574013D01*
X571508Y735618D01*
X569263Y734321D01*
X567429Y732487D01*
X566132Y730242D01*
X565461Y727737D01*
Y725143D01*
X566132Y722638D01*
X567429Y720393D01*
X569263Y718559D01*
X571508Y717262D01*
X574013Y716591D01*
X576607D01*
X579112Y717262D01*
X580198Y717889D01*
X609042Y689045D01*
Y581432D01*
X607772Y580906D01*
X606757Y581921D01*
X604512Y583218D01*
X603300Y583543D01*
Y583692D01*
X603103Y584683D01*
X602541Y585523D01*
X539800Y648265D01*
Y721713D01*
X541070Y722054D01*
X542029Y720393D01*
X543863Y718559D01*
X546108Y717262D01*
X548613Y716591D01*
X551207D01*
X553712Y717262D01*
X555957Y718559D01*
X557791Y720393D01*
X559088Y722638D01*
X559759Y725143D01*
Y727737D01*
X559088Y730242D01*
X558461Y731328D01*
X585273Y758140D01*
X600328D01*
X601176Y756870D01*
X601092Y756666D01*
X607948D01*
X607864Y756870D01*
X608712Y758140D01*
X634054D01*
X655244Y736951D01*
D02*
G37*
G36*
X465606Y757706D02*
X480691D01*
X487784Y750613D01*
X487727Y750210D01*
X486332Y749413D01*
X485991Y749554D01*
X483869D01*
X481909Y748742D01*
X480408Y747242D01*
X479596Y745281D01*
Y743159D01*
X480408Y741199D01*
X481909Y739698D01*
X481985Y739666D01*
Y733889D01*
X480715Y733363D01*
X479757Y734321D01*
X477512Y735618D01*
X475007Y736289D01*
X472413D01*
X469908Y735618D01*
X467663Y734321D01*
X465829Y732487D01*
X464532Y730242D01*
X463861Y727737D01*
Y725143D01*
X464532Y722638D01*
X465159Y721552D01*
X460900Y717292D01*
X460339Y716452D01*
X460141Y715461D01*
Y595993D01*
X458871Y595292D01*
X457442Y595884D01*
X455320D01*
X453360Y595072D01*
X451859Y593572D01*
X451047Y591611D01*
Y589489D01*
X451859Y587528D01*
X453360Y586028D01*
X453791Y585849D01*
Y583518D01*
X452691Y582883D01*
X452112Y583218D01*
X449607Y583889D01*
X447013D01*
X444508Y583218D01*
X442263Y581921D01*
X441305Y580963D01*
X440035Y581489D01*
Y714502D01*
X443422Y717889D01*
X444508Y717262D01*
X447013Y716591D01*
X449607D01*
X452112Y717262D01*
X454357Y718559D01*
X456191Y720393D01*
X457488Y722638D01*
X458159Y725143D01*
Y727737D01*
X457488Y730242D01*
X456191Y732487D01*
X454357Y734321D01*
X452112Y735618D01*
X450900Y735943D01*
Y770706D01*
X455098Y774904D01*
X465606D01*
Y757706D01*
D02*
G37*
G36*
X736042Y719048D02*
Y581432D01*
X734772Y580906D01*
X733757Y581921D01*
X731512Y583218D01*
X729007Y583889D01*
X726413D01*
X723908Y583218D01*
X721663Y581921D01*
X719829Y580087D01*
X718870Y578426D01*
X717600Y578767D01*
Y712667D01*
X722822Y717889D01*
X723908Y717262D01*
X726413Y716591D01*
X729007D01*
X731512Y717262D01*
X733757Y718559D01*
X734772Y719574D01*
X736042Y719048D01*
D02*
G37*
G36*
X659842D02*
Y581432D01*
X658572Y580906D01*
X657557Y581921D01*
X655312Y583218D01*
X652807Y583889D01*
X650213D01*
X647708Y583218D01*
X645463Y581921D01*
X643629Y580087D01*
X643432Y579746D01*
X642162Y580086D01*
Y713429D01*
X646622Y717889D01*
X647708Y717262D01*
X650213Y716591D01*
X652807D01*
X655312Y717262D01*
X657557Y718559D01*
X658572Y719574D01*
X659842Y719048D01*
D02*
G37*
G36*
X534620Y721713D02*
Y647192D01*
X534817Y646201D01*
X535379Y645361D01*
X540452Y640287D01*
X539966Y639114D01*
X529590D01*
X528599Y638917D01*
X527759Y638355D01*
X527505Y638101D01*
X526943Y637261D01*
X526746Y636270D01*
Y586740D01*
X526943Y585749D01*
X527505Y584909D01*
X527723Y584690D01*
X527066Y583552D01*
X525807Y583889D01*
X523213D01*
X520708Y583218D01*
X518463Y581921D01*
X517448Y580906D01*
X516178Y581432D01*
Y714445D01*
X519622Y717889D01*
X520708Y717262D01*
X523213Y716591D01*
X525807D01*
X528312Y717262D01*
X530557Y718559D01*
X532391Y720393D01*
X533350Y722054D01*
X534620Y721713D01*
D02*
G37*
G36*
X481985Y718991D02*
Y581489D01*
X480715Y580963D01*
X479757Y581921D01*
X477512Y583218D01*
X475007Y583889D01*
X472413D01*
X469908Y583218D01*
X467663Y581921D01*
X466591Y580849D01*
X465321Y581376D01*
Y714388D01*
X468822Y717889D01*
X469908Y717262D01*
X472413Y716591D01*
X475007D01*
X477512Y717262D01*
X479757Y718559D01*
X480715Y719517D01*
X481985Y718991D01*
D02*
G37*
G36*
X431242Y638245D02*
Y581432D01*
X429972Y580906D01*
X428957Y581921D01*
X426712Y583218D01*
X424207Y583889D01*
X421613D01*
X419108Y583218D01*
X416863Y581921D01*
X415848Y580906D01*
X414578Y581432D01*
Y586683D01*
X422963Y595069D01*
X423525Y595909D01*
X423722Y596900D01*
Y634111D01*
X423525Y635102D01*
X422963Y635942D01*
X342976Y715929D01*
X343634Y717068D01*
X345413Y716591D01*
X348007D01*
X350512Y717262D01*
X351598Y717889D01*
X431242Y638245D01*
D02*
G37*
G36*
X175718Y698062D02*
Y693446D01*
X174676Y692735D01*
X174448Y692769D01*
X172720Y693113D01*
X170955Y692762D01*
X169458Y691762D01*
X168458Y690265D01*
X168107Y688500D01*
Y675500D01*
X168458Y673735D01*
X169458Y672239D01*
X170130Y671790D01*
Y643439D01*
X163777Y637085D01*
X163215Y636245D01*
X163018Y635254D01*
Y599446D01*
X161976Y598734D01*
X161748Y598769D01*
X160020Y599112D01*
X158255Y598761D01*
X156758Y597761D01*
X155758Y596265D01*
X155407Y594500D01*
Y581500D01*
X155758Y579735D01*
X156550Y578550D01*
X142060Y564061D01*
X141499Y563221D01*
X141302Y562229D01*
Y556705D01*
X138335D01*
Y543284D01*
X137065Y542435D01*
X136189Y542798D01*
X134067D01*
X133635Y542619D01*
X124510Y551745D01*
Y577789D01*
X125182Y578238D01*
X126181Y579735D01*
X126533Y581500D01*
Y594500D01*
X126181Y596265D01*
X125182Y597761D01*
X123685Y598761D01*
X121920Y599112D01*
X120192Y598769D01*
X119964Y598734D01*
X118922Y599446D01*
Y614115D01*
X161851Y657045D01*
X162413Y657885D01*
X162610Y658876D01*
Y671790D01*
X163282Y672239D01*
X164282Y673735D01*
X164633Y675500D01*
Y688500D01*
X164282Y690265D01*
X163282Y691762D01*
X161785Y692762D01*
X160020Y693113D01*
X158255Y692762D01*
X156758Y691762D01*
X155758Y690265D01*
X155407Y688500D01*
Y675500D01*
X155758Y673735D01*
X156758Y672239D01*
X157430Y671790D01*
Y659949D01*
X114501Y617019D01*
X113939Y616179D01*
X113742Y615188D01*
Y598868D01*
X112472Y598257D01*
X111810Y598730D01*
Y617345D01*
X112241Y617524D01*
X113742Y619025D01*
X114554Y620985D01*
Y623107D01*
X113742Y625067D01*
X112241Y626568D01*
X110281Y627380D01*
X108159D01*
X106199Y626568D01*
X104698Y625067D01*
X103886Y623107D01*
Y620985D01*
X104698Y619025D01*
X106199Y617524D01*
X106630Y617345D01*
Y604883D01*
X105360Y604331D01*
X103677Y605028D01*
X101555D01*
X99594Y604216D01*
X98094Y602715D01*
X97834Y602087D01*
X96412Y602028D01*
X95972Y601921D01*
X95529Y601833D01*
X95483Y601802D01*
X95430Y601789D01*
X95065Y601522D01*
X94689Y601271D01*
X94658Y601226D01*
X94614Y601193D01*
X94379Y600807D01*
X94127Y600431D01*
X94117Y600377D01*
X94088Y600331D01*
X94018Y599883D01*
X93930Y599440D01*
Y598210D01*
X93258Y597761D01*
X92259Y596265D01*
X91907Y594500D01*
Y581500D01*
X92259Y579735D01*
X93258Y578238D01*
X94755Y577238D01*
X96520Y576887D01*
X98285Y577238D01*
X99782Y578238D01*
X100781Y579735D01*
X101133Y581500D01*
Y593187D01*
X101555Y594360D01*
X102301Y594360D01*
X103677D01*
X104607Y593371D01*
Y581500D01*
X104958Y579735D01*
X105958Y578238D01*
X106630Y577789D01*
Y574859D01*
X92403Y560631D01*
X91841Y559791D01*
X91644Y558800D01*
Y471227D01*
X88143Y467725D01*
X87066Y468445D01*
X87248Y468884D01*
X84836D01*
Y466472D01*
X85275Y466654D01*
X85995Y465577D01*
X67330Y446912D01*
X55702D01*
X54711Y446715D01*
X53871Y446153D01*
X46410Y438692D01*
X45140Y439218D01*
Y448426D01*
X50006D01*
X50324Y448426D01*
X51276D01*
X51594Y448426D01*
X58034D01*
Y457200D01*
Y465974D01*
X51594D01*
X51276Y465974D01*
X50324D01*
X50006Y465974D01*
X45140D01*
Y473826D01*
X50006D01*
X50324Y473826D01*
X51276D01*
X51594Y473826D01*
X58034D01*
Y482600D01*
Y491374D01*
X51594D01*
X51276Y491374D01*
X50324D01*
X50006Y491374D01*
X45140D01*
Y505206D01*
X44943Y506197D01*
X44381Y507037D01*
X39801Y511617D01*
Y525335D01*
X42768D01*
Y541465D01*
X39801D01*
Y577159D01*
X130101Y667459D01*
X130663Y668299D01*
X130860Y669290D01*
Y671044D01*
X132130Y671723D01*
X132855Y671239D01*
X134620Y670888D01*
X136385Y671239D01*
X137882Y672239D01*
X138882Y673735D01*
X139233Y675500D01*
Y688500D01*
X138882Y690265D01*
X137882Y691762D01*
X136385Y692762D01*
X134620Y693113D01*
X132855Y692762D01*
X132130Y692277D01*
X130860Y692956D01*
Y697427D01*
X133661Y700228D01*
X173552D01*
X175718Y698062D01*
D02*
G37*
G36*
X388343Y615104D02*
X387686Y613966D01*
X386107Y614389D01*
X385826D01*
Y604540D01*
Y594691D01*
X386107D01*
X388612Y595362D01*
X390857Y596659D01*
X391929Y597730D01*
X393199Y597204D01*
Y590119D01*
X393396Y589128D01*
X393958Y588288D01*
X394920Y587325D01*
Y583543D01*
X393708Y583218D01*
X391463Y581921D01*
X389629Y580087D01*
X388332Y577842D01*
X387661Y575337D01*
Y572743D01*
X388332Y570238D01*
X389629Y567993D01*
X391463Y566159D01*
X393708Y564862D01*
X394920Y564538D01*
Y562001D01*
X395117Y561010D01*
X395679Y560170D01*
X409398Y546450D01*
Y316084D01*
X409311Y316029D01*
X408128Y315695D01*
X406881Y316942D01*
X406450Y317121D01*
Y479896D01*
X406253Y480887D01*
X405691Y481727D01*
X360222Y527197D01*
Y582384D01*
X361395Y582870D01*
X363424Y580841D01*
Y580136D01*
X363621Y579145D01*
X363655Y579094D01*
X362932Y577842D01*
X362261Y575337D01*
Y572743D01*
X362932Y570238D01*
X364229Y567993D01*
X366063Y566159D01*
X368308Y564862D01*
X370813Y564191D01*
X373407D01*
X375912Y564862D01*
X378157Y566159D01*
X379991Y567993D01*
X381288Y570238D01*
X381959Y572743D01*
Y575337D01*
X381288Y577842D01*
X379991Y580087D01*
X378157Y581921D01*
X375912Y583218D01*
X373407Y583889D01*
X370813D01*
X368308Y583218D01*
X368228Y583172D01*
X367845Y583745D01*
X358170Y593421D01*
X358696Y594691D01*
X360707D01*
X363212Y595362D01*
X365457Y596659D01*
X367291Y598492D01*
X368588Y600738D01*
X369259Y603243D01*
Y605836D01*
X368588Y608341D01*
X367291Y610587D01*
X365457Y612421D01*
X363212Y613718D01*
X360707Y614389D01*
X358113D01*
X355608Y613718D01*
X353363Y612421D01*
X352405Y611463D01*
X351135Y611989D01*
Y612775D01*
X350938Y613766D01*
X350376Y614606D01*
X346693Y618289D01*
X345853Y618851D01*
X344862Y619048D01*
X258064D01*
X257073Y618851D01*
X256233Y618289D01*
X224991Y587047D01*
X224429Y586207D01*
X224232Y585216D01*
Y421982D01*
X193247Y390997D01*
X192074Y391483D01*
Y558235D01*
X255073Y621234D01*
X382213D01*
X388343Y615104D01*
D02*
G37*
G36*
X418542Y633038D02*
Y611932D01*
X417272Y611406D01*
X416257Y612421D01*
X414012Y613718D01*
X411507Y614389D01*
X411226D01*
Y604540D01*
X409194D01*
Y614389D01*
X408913D01*
X406408Y613718D01*
X404163Y612421D01*
X403205Y611463D01*
X401935Y611989D01*
Y647987D01*
X403108Y648473D01*
X418542Y633038D01*
D02*
G37*
G36*
X174882Y640382D02*
X175718Y639995D01*
Y623119D01*
X170889Y618289D01*
X170327Y617449D01*
X170130Y616458D01*
Y598730D01*
X169468Y598257D01*
X168198Y598868D01*
Y634181D01*
X174448Y640432D01*
X174882Y640382D01*
D02*
G37*
G36*
X345955Y611702D02*
Y599383D01*
X346152Y598392D01*
X346714Y597552D01*
X352041Y592224D01*
X351555Y591051D01*
X310331D01*
X309340Y590854D01*
X308500Y590292D01*
X300798Y582590D01*
X299712Y583218D01*
X297207Y583889D01*
X294613D01*
X292108Y583218D01*
X289863Y581921D01*
X288029Y580087D01*
X286732Y577842D01*
X286061Y575337D01*
Y572743D01*
X286732Y570238D01*
X288029Y567993D01*
X289044Y566978D01*
X288518Y565708D01*
X282505D01*
X279060Y569152D01*
X279688Y570238D01*
X280359Y572743D01*
Y575337D01*
X279688Y577842D01*
X278391Y580087D01*
X276557Y581921D01*
X274312Y583218D01*
X271807Y583889D01*
X269213D01*
X266708Y583218D01*
X264463Y581921D01*
X262629Y580087D01*
X261332Y577842D01*
X260661Y575337D01*
Y572743D01*
X261332Y570238D01*
X262629Y567993D01*
X264463Y566159D01*
X266708Y564862D01*
X269213Y564191D01*
X271807D01*
X274312Y564862D01*
X275398Y565490D01*
X279601Y561287D01*
X280441Y560725D01*
X281432Y560528D01*
X301625D01*
X302517Y560706D01*
X302592Y560649D01*
X302902Y559294D01*
X256741Y513133D01*
X256179Y512293D01*
X255982Y511302D01*
Y405478D01*
X254712Y404606D01*
X254381Y404672D01*
X219007D01*
X218016Y404475D01*
X217176Y403913D01*
X162005Y348743D01*
X160832Y349229D01*
Y351257D01*
X228653Y419078D01*
X229215Y419918D01*
X229412Y420910D01*
Y584143D01*
X259137Y613868D01*
X302529D01*
X302870Y612598D01*
X302563Y612421D01*
X300729Y610587D01*
X299432Y608341D01*
X298761Y605836D01*
Y603243D01*
X299432Y600738D01*
X300729Y598492D01*
X302563Y596659D01*
X304808Y595362D01*
X307313Y594691D01*
X309907D01*
X312412Y595362D01*
X314657Y596659D01*
X316491Y598492D01*
X317788Y600738D01*
X318459Y603243D01*
Y605836D01*
X317788Y608341D01*
X316491Y610587D01*
X314657Y612421D01*
X314350Y612598D01*
X314691Y613868D01*
X327929D01*
X328270Y612598D01*
X327963Y612421D01*
X326129Y610587D01*
X324832Y608341D01*
X324161Y605836D01*
Y603243D01*
X324832Y600738D01*
X326129Y598492D01*
X327963Y596659D01*
X330208Y595362D01*
X332713Y594691D01*
X335307D01*
X337812Y595362D01*
X340057Y596659D01*
X341891Y598492D01*
X343188Y600738D01*
X343859Y603243D01*
Y605836D01*
X343188Y608341D01*
X341891Y610587D01*
X340057Y612421D01*
X339750Y612598D01*
X340091Y613868D01*
X343789D01*
X345955Y611702D01*
D02*
G37*
G36*
X355042Y583127D02*
Y581432D01*
X353772Y580906D01*
X352757Y581921D01*
X350512Y583218D01*
X348007Y583889D01*
X345413D01*
X342908Y583218D01*
X340663Y581921D01*
X338829Y580087D01*
X337532Y577842D01*
X336861Y575337D01*
Y572743D01*
X337532Y570238D01*
X338829Y567993D01*
X340663Y566159D01*
X342908Y564862D01*
X344120Y564538D01*
Y360483D01*
X275398Y291761D01*
X274312Y292388D01*
X271807Y293059D01*
X269213D01*
X266708Y292388D01*
X264463Y291091D01*
X263448Y290076D01*
X262178Y290602D01*
Y352495D01*
X292153Y382471D01*
X292715Y383311D01*
X292912Y384302D01*
Y525342D01*
X334063Y566494D01*
X334625Y567334D01*
X334822Y568325D01*
Y581025D01*
X334625Y582016D01*
X334063Y582856D01*
X332221Y584698D01*
X332707Y585871D01*
X352298D01*
X355042Y583127D01*
D02*
G37*
G36*
X431242Y566648D02*
Y484498D01*
X429972Y484245D01*
X429718Y484860D01*
X428218Y486360D01*
X427786Y486539D01*
Y553847D01*
X427589Y554838D01*
X427027Y555678D01*
X419176Y563529D01*
X419834Y564668D01*
X421613Y564191D01*
X424207D01*
X426712Y564862D01*
X428957Y566159D01*
X429972Y567174D01*
X431242Y566648D01*
D02*
G37*
G36*
X129973Y538957D02*
X129794Y538525D01*
Y536403D01*
X130606Y534442D01*
X132107Y532942D01*
X134067Y532130D01*
X136189D01*
X138149Y532942D01*
X139650Y534442D01*
X140462Y536403D01*
Y538525D01*
X140139Y539305D01*
X140988Y540575D01*
X149448D01*
X149448Y540575D01*
Y540575D01*
X150569Y540205D01*
X159716Y531057D01*
Y529104D01*
X153416D01*
Y521330D01*
X151384D01*
Y529104D01*
X143626D01*
Y523580D01*
X142356Y523073D01*
X141714Y523715D01*
X140716Y524128D01*
Y520700D01*
X138684D01*
Y524128D01*
X137686Y523715D01*
X137044Y523073D01*
X135774Y523580D01*
Y529104D01*
X128016D01*
Y521330D01*
X125984D01*
Y529104D01*
X118922D01*
Y548301D01*
X119758Y548688D01*
X120192Y548738D01*
X129973Y538957D01*
D02*
G37*
G36*
X536341Y564801D02*
Y533040D01*
X536539Y532049D01*
X537100Y531208D01*
X540970Y527338D01*
Y510395D01*
X539700Y509694D01*
X538271Y510286D01*
X536149D01*
X534720Y509694D01*
X533450Y510395D01*
Y563569D01*
X535168Y565288D01*
X536341Y564801D01*
D02*
G37*
G36*
X442263Y566159D02*
X443434Y565482D01*
Y494604D01*
X441399Y492568D01*
X441305Y492427D01*
X440035Y492813D01*
Y566591D01*
X441305Y567117D01*
X442263Y566159D01*
D02*
G37*
G36*
X431242Y479178D02*
Y429231D01*
X429972Y428979D01*
X429972Y428979D01*
X428471Y430480D01*
X426511Y431292D01*
X424389D01*
X422429Y430480D01*
X420928Y428979D01*
X420116Y427019D01*
Y424897D01*
X420928Y422937D01*
X422429Y421436D01*
X422860Y421257D01*
Y297250D01*
X423057Y296259D01*
X423619Y295419D01*
X424892Y294145D01*
X424389Y293273D01*
X424183Y293059D01*
X421613D01*
X419108Y292388D01*
X416863Y291091D01*
X415848Y290076D01*
X414578Y290602D01*
Y435382D01*
X415848Y435933D01*
X417531Y435236D01*
X419653D01*
X421614Y436048D01*
X423114Y437549D01*
X423926Y439509D01*
Y441631D01*
X423114Y443592D01*
X421614Y445092D01*
X421182Y445271D01*
Y476650D01*
X422452Y477201D01*
X424135Y476504D01*
X426257D01*
X428218Y477316D01*
X429718Y478816D01*
X429972Y479431D01*
X431242Y479178D01*
D02*
G37*
G36*
X317508Y564862D02*
X320013Y564191D01*
X322607D01*
X322735Y564225D01*
X323370Y563125D01*
X288491Y528246D01*
X287929Y527406D01*
X287732Y526415D01*
Y473712D01*
X286559Y473226D01*
X286454Y473331D01*
X284494Y474143D01*
X282372D01*
X280411Y473331D01*
X278911Y471830D01*
X278099Y469870D01*
Y467748D01*
X278911Y465787D01*
X280411Y464287D01*
X280843Y464108D01*
Y399059D01*
X262432Y380648D01*
X261162Y381174D01*
Y510229D01*
X316422Y565490D01*
X317508Y564862D01*
D02*
G37*
G36*
X601930Y438601D02*
Y314960D01*
X602127Y313969D01*
X602689Y313129D01*
X609042Y306775D01*
Y290602D01*
X607772Y290076D01*
X606757Y291091D01*
X604512Y292388D01*
X602007Y293059D01*
X599413D01*
X596908Y292388D01*
X594663Y291091D01*
X593648Y290076D01*
X592378Y290602D01*
Y432054D01*
X592181Y433045D01*
X591619Y433885D01*
X585269Y440235D01*
X584429Y440797D01*
X583438Y440994D01*
X564255D01*
X563264Y440797D01*
X562424Y440235D01*
X560388Y438200D01*
X546737D01*
X546558Y438632D01*
X545057Y440132D01*
X543097Y440944D01*
X540975D01*
X539015Y440132D01*
X538276Y439393D01*
X537006Y439919D01*
Y467505D01*
X538276Y468206D01*
X539705Y467614D01*
X541827D01*
X543787Y468426D01*
X545288Y469926D01*
X545467Y470358D01*
X570173D01*
X601930Y438601D01*
D02*
G37*
G36*
X143626Y497056D02*
X159716D01*
Y493071D01*
X154379Y487733D01*
X153817Y486893D01*
X153620Y485902D01*
Y485095D01*
X151646D01*
Y461568D01*
X148464D01*
X147798Y462612D01*
X147819Y462838D01*
X148163Y464566D01*
Y471533D01*
X143510D01*
X138857D01*
Y464566D01*
X139200Y462838D01*
X139222Y462612D01*
X138556Y461568D01*
X135764D01*
X135098Y462612D01*
X135119Y462838D01*
X135463Y464566D01*
Y480531D01*
X135109Y482312D01*
X134100Y483821D01*
X133400Y484290D01*
Y486664D01*
X133203Y487655D01*
X132641Y488495D01*
X129590Y491547D01*
Y497056D01*
X135774D01*
Y502240D01*
X143626D01*
Y497056D01*
D02*
G37*
G36*
X405842Y566648D02*
Y565150D01*
X406039Y564159D01*
X406601Y563319D01*
X416002Y553917D01*
Y446525D01*
X415848Y446423D01*
X414578Y447109D01*
Y547523D01*
X414381Y548514D01*
X413819Y549354D01*
X400100Y563074D01*
Y564538D01*
X401312Y564862D01*
X403557Y566159D01*
X404572Y567174D01*
X405842Y566648D01*
D02*
G37*
G36*
X113742Y577132D02*
Y486410D01*
X113939Y485419D01*
X114501Y484579D01*
X114859Y484221D01*
X114820Y483821D01*
X113811Y482312D01*
X113457Y480531D01*
Y464566D01*
X113811Y462786D01*
X114820Y461276D01*
X116329Y460267D01*
X118110Y459913D01*
X119891Y460267D01*
X121400Y461276D01*
X122409Y462786D01*
X122763Y464566D01*
Y480531D01*
X122409Y482312D01*
X121400Y483821D01*
X120700Y484290D01*
Y484632D01*
X120503Y485623D01*
X119941Y486463D01*
X118922Y487483D01*
Y497056D01*
X124410D01*
Y490474D01*
X124607Y489483D01*
X125169Y488643D01*
X128220Y485591D01*
Y484290D01*
X127520Y483821D01*
X126511Y482312D01*
X126157Y480531D01*
Y464566D01*
X126511Y462786D01*
X127520Y461276D01*
X128220Y460808D01*
Y458978D01*
X128417Y457987D01*
X128979Y457147D01*
X142942Y443183D01*
X142456Y442010D01*
X71548D01*
X71022Y443280D01*
X96065Y468323D01*
X96627Y469163D01*
X96824Y470154D01*
Y526376D01*
X102174D01*
Y533400D01*
Y540424D01*
X96824D01*
Y557727D01*
X111051Y571955D01*
X111613Y572795D01*
X111810Y573786D01*
Y577270D01*
X112472Y577743D01*
X113742Y577132D01*
D02*
G37*
G36*
X493063Y566159D02*
X495308Y564862D01*
X496520Y564538D01*
Y437699D01*
X494227Y435406D01*
X489712D01*
X489632Y435390D01*
X488487Y435864D01*
X486365D01*
X484404Y435052D01*
X482904Y433551D01*
X482092Y431591D01*
Y429469D01*
X482904Y427509D01*
X484404Y426008D01*
X486365Y425196D01*
X488487D01*
X490448Y426008D01*
X491948Y427509D01*
X492760Y429469D01*
Y430226D01*
X495300D01*
X496291Y430423D01*
X496435Y430520D01*
X497245Y429533D01*
X478229Y410517D01*
X477667Y409677D01*
X477570Y409186D01*
X476300Y409311D01*
Y473907D01*
X490019Y487627D01*
X490581Y488467D01*
X490778Y489458D01*
Y496824D01*
Y566648D01*
X492048Y567174D01*
X493063Y566159D01*
D02*
G37*
G36*
X509868Y715650D02*
X510998Y715090D01*
Y443287D01*
X502393Y434681D01*
X501406Y435491D01*
X501503Y435635D01*
X501700Y436626D01*
Y564538D01*
X502912Y564862D01*
X505157Y566159D01*
X506991Y567993D01*
X508288Y570238D01*
X508959Y572743D01*
Y575337D01*
X508288Y577842D01*
X506991Y580087D01*
X505157Y581921D01*
X502912Y583218D01*
X500407Y583889D01*
X497813D01*
X495308Y583218D01*
X493063Y581921D01*
X492048Y580906D01*
X490778Y581432D01*
Y696665D01*
X509773Y715661D01*
X509868Y715650D01*
D02*
G37*
G36*
X587198Y430981D02*
Y409740D01*
X586025Y409254D01*
X579681Y415597D01*
X578841Y416159D01*
X577850Y416356D01*
X550983D01*
X537211Y430127D01*
X537323Y431060D01*
X538565Y431538D01*
X539015Y431088D01*
X540975Y430276D01*
X543097D01*
X545057Y431088D01*
X546558Y432589D01*
X546737Y433020D01*
X561461D01*
X562452Y433217D01*
X563292Y433779D01*
X565328Y435814D01*
X582365D01*
X587198Y430981D01*
D02*
G37*
G36*
X719829Y567993D02*
X721663Y566159D01*
X723908Y564862D01*
X726413Y564191D01*
X729007D01*
X731512Y564862D01*
X733757Y566159D01*
X734772Y567174D01*
X736042Y566648D01*
Y290602D01*
X734772Y290076D01*
X733757Y291091D01*
X731512Y292388D01*
X730300Y292712D01*
Y318516D01*
X730103Y319507D01*
X729541Y320347D01*
X670635Y379253D01*
X670814Y379685D01*
Y381807D01*
X670002Y383768D01*
X668502Y385268D01*
X666541Y386080D01*
X664419D01*
X662458Y385268D01*
X660958Y383768D01*
X660656Y383038D01*
X659175Y382783D01*
X658214Y383744D01*
X656254Y384556D01*
X654132D01*
X652703Y383964D01*
X651433Y384664D01*
Y405200D01*
X664241Y418009D01*
X664673Y417830D01*
X666795D01*
X668755Y418642D01*
X670256Y420143D01*
X671068Y422103D01*
Y424225D01*
X670256Y426185D01*
X668755Y427686D01*
X666795Y428498D01*
X664680D01*
X664658Y428520D01*
X663966Y429580D01*
X716841Y482455D01*
X717403Y483295D01*
X717600Y484286D01*
Y569313D01*
X718870Y569654D01*
X719829Y567993D01*
D02*
G37*
G36*
X518463Y566159D02*
X520708Y564862D01*
X523213Y564191D01*
X525807D01*
X527000Y564511D01*
X528270Y563536D01*
Y410470D01*
X527000Y409691D01*
X526668Y409828D01*
Y406400D01*
Y402972D01*
X527000Y403109D01*
X528270Y402330D01*
Y316033D01*
X508201Y295963D01*
X503998Y291761D01*
X502912Y292388D01*
X500407Y293059D01*
X497813D01*
X495308Y292388D01*
X493063Y291091D01*
X491949Y289978D01*
X491485Y290007D01*
X490477Y290301D01*
X490076Y290901D01*
X489000Y291977D01*
Y388999D01*
X489431Y389178D01*
X490932Y390678D01*
X491744Y392639D01*
Y394761D01*
X490932Y396721D01*
X489431Y398222D01*
X487471Y399034D01*
X485349D01*
X483920Y398442D01*
X482650Y399142D01*
Y407613D01*
X515419Y440383D01*
X515981Y441223D01*
X516178Y442214D01*
Y566648D01*
X517448Y567174D01*
X518463Y566159D01*
D02*
G37*
G36*
X176988Y433902D02*
Y409831D01*
X176556Y409652D01*
X175056Y408152D01*
X174244Y406191D01*
Y404069D01*
X175056Y402108D01*
X176556Y400608D01*
X178517Y399796D01*
X180639D01*
X182068Y400388D01*
X182096Y400376D01*
X182803Y399318D01*
X138627Y355142D01*
X97028D01*
X96037Y354945D01*
X95197Y354383D01*
X91895Y351081D01*
X91333Y350241D01*
X91136Y349250D01*
Y345618D01*
X89986Y345028D01*
X89866Y345065D01*
X88893Y346752D01*
X87452Y348193D01*
X85687Y349211D01*
X83719Y349739D01*
X81681D01*
X79713Y349211D01*
X77948Y348193D01*
X77774Y348018D01*
X76504Y348544D01*
Y403352D01*
X76671Y403556D01*
X140081D01*
X141072Y403753D01*
X141912Y404315D01*
X145238Y407641D01*
X145672Y407591D01*
X146508Y407204D01*
Y400361D01*
X134817Y388670D01*
X97911D01*
X97635Y389698D01*
X96401Y391836D01*
X94656Y393581D01*
X92518Y394815D01*
X90134Y395454D01*
X87666D01*
X85282Y394815D01*
X83144Y393581D01*
X81399Y391836D01*
X80165Y389698D01*
X79526Y387314D01*
Y384846D01*
X80165Y382462D01*
X81399Y380324D01*
X83144Y378579D01*
X85282Y377345D01*
X87666Y376706D01*
X90134D01*
X92518Y377345D01*
X94656Y378579D01*
X96401Y380324D01*
X97635Y382462D01*
X97911Y383490D01*
X135890D01*
X136881Y383687D01*
X137721Y384249D01*
X150929Y397457D01*
X151491Y398297D01*
X151688Y399288D01*
Y409816D01*
X152724Y410188D01*
X152958Y410233D01*
X154429Y409250D01*
X156210Y408896D01*
X157991Y409250D01*
X159500Y410259D01*
X160509Y411768D01*
X160863Y413549D01*
Y429514D01*
X160509Y431294D01*
X159500Y432804D01*
X157991Y433813D01*
X156210Y434167D01*
X154429Y433813D01*
X152958Y432829D01*
X152724Y432874D01*
X151688Y433246D01*
Y434975D01*
X152866Y435560D01*
X175330D01*
X176988Y433902D01*
D02*
G37*
G36*
X114285Y432004D02*
X113811Y431294D01*
X113457Y429514D01*
Y413549D01*
X113811Y411768D01*
X114820Y410259D01*
X115198Y410006D01*
X114813Y408736D01*
X75622D01*
X73710Y410648D01*
Y418655D01*
X76677D01*
Y433274D01*
X113606D01*
X114285Y432004D01*
D02*
G37*
G36*
X355042Y566648D02*
Y526124D01*
X355239Y525133D01*
X355801Y524293D01*
X364570Y515523D01*
X364168Y514130D01*
X362738Y513538D01*
X361238Y512038D01*
X360426Y510077D01*
Y507955D01*
X361238Y505994D01*
X362738Y504494D01*
X363170Y504315D01*
Y445391D01*
X362738Y445212D01*
X361238Y443712D01*
X360426Y441751D01*
Y439629D01*
X361238Y437668D01*
X362738Y436168D01*
X364699Y435356D01*
X366821D01*
X368782Y436168D01*
X370282Y437668D01*
X371094Y439629D01*
Y441751D01*
X370282Y443712D01*
X368782Y445212D01*
X368350Y445391D01*
Y504315D01*
X368782Y504494D01*
X370282Y505994D01*
X370874Y507424D01*
X372267Y507826D01*
X401270Y478824D01*
Y317121D01*
X400839Y316942D01*
X399338Y315441D01*
X398526Y313481D01*
Y311359D01*
X399338Y309398D01*
X400839Y307898D01*
X402799Y307086D01*
X404921D01*
X406881Y307898D01*
X408128Y309145D01*
X409311Y308811D01*
X409398Y308755D01*
Y298488D01*
X408225Y298002D01*
X395528Y310699D01*
Y366139D01*
X395960Y366318D01*
X397460Y367818D01*
X398272Y369779D01*
Y371901D01*
X397460Y373862D01*
X395960Y375362D01*
X393999Y376174D01*
X393095D01*
X391922Y376637D01*
Y378759D01*
X391110Y380719D01*
X389609Y382220D01*
X387649Y383032D01*
X385527D01*
X383567Y382220D01*
X382066Y380719D01*
X381254Y378759D01*
Y376637D01*
X382066Y374677D01*
X383567Y373176D01*
X383998Y372997D01*
Y232254D01*
X383069Y231503D01*
X381959Y231980D01*
Y233707D01*
X381288Y236212D01*
X379991Y238457D01*
X378157Y240291D01*
X375912Y241588D01*
X373407Y242259D01*
X370813D01*
X368308Y241588D01*
X367222Y240961D01*
X363778Y244405D01*
Y250418D01*
X365048Y250944D01*
X366063Y249929D01*
X368308Y248632D01*
X370813Y247961D01*
X373407D01*
X375912Y248632D01*
X378157Y249929D01*
X379991Y251763D01*
X381288Y254008D01*
X381959Y256513D01*
Y259107D01*
X381288Y261612D01*
X379991Y263857D01*
X378157Y265691D01*
X375912Y266988D01*
X373407Y267659D01*
X370813D01*
X368308Y266988D01*
X366063Y265691D01*
X365048Y264676D01*
X363778Y265202D01*
Y275818D01*
X365048Y276344D01*
X366063Y275329D01*
X368308Y274032D01*
X370813Y273361D01*
X373407D01*
X375912Y274032D01*
X378157Y275329D01*
X379991Y277163D01*
X381288Y279408D01*
X381959Y281913D01*
Y284507D01*
X381288Y287012D01*
X379991Y289257D01*
X378157Y291091D01*
X375912Y292388D01*
X373407Y293059D01*
X370813D01*
X368308Y292388D01*
X366063Y291091D01*
X365048Y290076D01*
X363778Y290602D01*
Y391357D01*
X373425Y401005D01*
X373857Y400826D01*
X375979D01*
X377940Y401638D01*
X379440Y403139D01*
X380252Y405099D01*
Y407221D01*
X379440Y409182D01*
X377940Y410682D01*
X375979Y411494D01*
X373857D01*
X371897Y410682D01*
X370396Y409182D01*
X369584Y407221D01*
Y405099D01*
X369763Y404668D01*
X359357Y394261D01*
X358795Y393421D01*
X358598Y392430D01*
Y381546D01*
X357425Y381060D01*
X355650Y382835D01*
Y449959D01*
X356082Y450138D01*
X357582Y451638D01*
X358394Y453599D01*
Y455721D01*
X357582Y457682D01*
X356082Y459182D01*
X354121Y459994D01*
X351999D01*
X350570Y459402D01*
X349300Y460103D01*
Y564538D01*
X350512Y564862D01*
X352757Y566159D01*
X353772Y567174D01*
X355042Y566648D01*
D02*
G37*
G36*
X252045Y390289D02*
Y388042D01*
X243279Y379275D01*
X242717Y378435D01*
X242520Y377444D01*
Y306883D01*
X231849Y296212D01*
X231287Y295371D01*
X231090Y294380D01*
Y142240D01*
X231287Y141249D01*
X231849Y140409D01*
X236560Y135698D01*
X235932Y134612D01*
X235261Y132107D01*
Y129513D01*
X235932Y127008D01*
X237229Y124763D01*
X238244Y123748D01*
X237718Y122478D01*
X179725D01*
X158371Y143832D01*
X157531Y144393D01*
X156540Y144590D01*
X150018D01*
X149912Y144987D01*
X148893Y146752D01*
X147452Y148193D01*
X145687Y149212D01*
X143719Y149739D01*
X141681D01*
X139713Y149212D01*
X137948Y148193D01*
X136508Y146752D01*
X135489Y144987D01*
X134961Y143019D01*
Y140981D01*
X135489Y139013D01*
X136508Y137248D01*
X137948Y135808D01*
X139713Y134789D01*
X141681Y134261D01*
X143719D01*
X145687Y134789D01*
X147452Y135808D01*
X148893Y137248D01*
X149912Y139013D01*
X150018Y139410D01*
X155467D01*
X161370Y133507D01*
X160968Y132114D01*
X159538Y131522D01*
X158038Y130021D01*
X157226Y128061D01*
Y125939D01*
X157405Y125507D01*
X156488Y124590D01*
X150439D01*
Y129739D01*
X136448D01*
Y130842D01*
X136251Y131833D01*
X135689Y132673D01*
X129706Y138657D01*
X129911Y139013D01*
X130439Y140981D01*
Y143019D01*
X129911Y144987D01*
X128892Y146752D01*
X127452Y148193D01*
X125687Y149212D01*
X123719Y149739D01*
X121681D01*
X119713Y149212D01*
X117948Y148193D01*
X117381Y147627D01*
X116111Y148153D01*
Y151178D01*
X115914Y152169D01*
X115353Y153010D01*
X109706Y158657D01*
X109911Y159013D01*
X110439Y160981D01*
Y163019D01*
X109911Y164987D01*
X108893Y166752D01*
X107452Y168193D01*
X105687Y169212D01*
X103719Y169739D01*
X101681D01*
X99713Y169212D01*
X97948Y168193D01*
X97586Y167831D01*
X96316Y168357D01*
Y175644D01*
X97586Y176170D01*
X97948Y175807D01*
X99713Y174789D01*
X101681Y174261D01*
X103719D01*
X105687Y174789D01*
X107452Y175807D01*
X108454Y176810D01*
X109824Y176431D01*
X109875Y176174D01*
X110437Y175334D01*
X115644Y170127D01*
X116484Y169565D01*
X117452Y169373D01*
X117509Y169284D01*
X117806Y168545D01*
X117853Y168098D01*
X116507Y166752D01*
X115488Y164987D01*
X114961Y163019D01*
Y160981D01*
X115488Y159013D01*
X116507Y157248D01*
X117948Y155807D01*
X119713Y154789D01*
X121681Y154261D01*
X123719D01*
X125687Y154789D01*
X127452Y155807D01*
X128892Y157248D01*
X129911Y159013D01*
X130439Y160981D01*
Y163019D01*
X129911Y164987D01*
X128892Y166752D01*
X127546Y168098D01*
X127590Y168516D01*
X127956Y169368D01*
X137444D01*
X137810Y168516D01*
X137854Y168098D01*
X136508Y166752D01*
X135489Y164987D01*
X134961Y163019D01*
Y160981D01*
X135489Y159013D01*
X136508Y157248D01*
X137948Y155807D01*
X139713Y154789D01*
X141681Y154261D01*
X143719D01*
X145687Y154789D01*
X147452Y155807D01*
X148893Y157248D01*
X149912Y159013D01*
X150018Y159410D01*
X184150D01*
X185141Y159608D01*
X185981Y160169D01*
X190553Y164741D01*
X191115Y165581D01*
X191312Y166572D01*
Y263341D01*
X240337Y312367D01*
X240899Y313207D01*
X241096Y314198D01*
Y384880D01*
X246792Y390577D01*
X247224Y390398D01*
X249346D01*
X250775Y390990D01*
X252045Y390289D01*
D02*
G37*
G36*
X59660Y418655D02*
X60910Y418608D01*
Y395454D01*
X54126D01*
Y380368D01*
X51358Y377600D01*
X50088Y378126D01*
Y418655D01*
X59660D01*
Y418655D01*
D02*
G37*
G36*
X460141Y563786D02*
Y560692D01*
X457401Y557951D01*
X456839Y557111D01*
X456642Y556120D01*
Y290602D01*
X455372Y290076D01*
X454357Y291091D01*
X452112Y292388D01*
X449607Y293059D01*
X447013D01*
X444508Y292388D01*
X442263Y291091D01*
X441191Y290019D01*
X439921Y290546D01*
Y294132D01*
X439724Y295123D01*
X439162Y295963D01*
X436422Y298704D01*
Y395116D01*
X437692Y395816D01*
X439121Y395224D01*
X441243D01*
X443204Y396036D01*
X443434Y396267D01*
X444704Y395741D01*
Y381129D01*
X444272Y380950D01*
X442772Y379450D01*
X441960Y377489D01*
Y375367D01*
X442772Y373406D01*
X444272Y371906D01*
X446233Y371094D01*
X448355D01*
X450316Y371906D01*
X451816Y373406D01*
X452628Y375367D01*
Y377489D01*
X451816Y379450D01*
X450316Y380950D01*
X449884Y381129D01*
Y412406D01*
X449866Y412496D01*
X450641Y413766D01*
X452602Y414578D01*
X454102Y416078D01*
X454914Y418039D01*
Y420161D01*
X454102Y422122D01*
X452602Y423622D01*
X452170Y423801D01*
Y557473D01*
X458968Y564272D01*
X460141Y563786D01*
D02*
G37*
G36*
X243543Y398222D02*
X242951Y396793D01*
Y394671D01*
X243130Y394239D01*
X236675Y387784D01*
X236113Y386944D01*
X235916Y385953D01*
Y344986D01*
X234646Y344733D01*
X234364Y345414D01*
X232864Y346914D01*
X230904Y347726D01*
X228782D01*
X226821Y346914D01*
X225321Y345414D01*
X224509Y343453D01*
Y341331D01*
X224687Y340899D01*
X183184Y299396D01*
X181914Y299922D01*
Y330960D01*
X182346Y331139D01*
X183846Y332640D01*
X184658Y334600D01*
Y336722D01*
X183846Y338683D01*
X182346Y340183D01*
X180385Y340995D01*
X178263D01*
X176834Y340403D01*
X175564Y341104D01*
Y347161D01*
X200971Y372568D01*
X224153D01*
X224332Y372136D01*
X225833Y370636D01*
X227793Y369824D01*
X229915D01*
X231875Y370636D01*
X233376Y372136D01*
X234188Y374097D01*
Y376219D01*
X233376Y378180D01*
X231875Y379680D01*
X229915Y380492D01*
X227793D01*
X225833Y379680D01*
X224332Y378180D01*
X224153Y377748D01*
X200131D01*
X199746Y378307D01*
X199564Y378976D01*
X220080Y399492D01*
X242843D01*
X243543Y398222D01*
D02*
G37*
G36*
X287732Y462860D02*
Y385375D01*
X259795Y357438D01*
X258622Y357924D01*
Y369513D01*
X285264Y396156D01*
X285825Y396996D01*
X286022Y397987D01*
Y463269D01*
X286462Y463552D01*
X287732Y462860D01*
D02*
G37*
G36*
X186894Y394424D02*
Y389856D01*
X146044Y349006D01*
X145687Y349211D01*
X143719Y349739D01*
X142286D01*
X142184Y349872D01*
X141819Y351009D01*
X185721Y394910D01*
X186894Y394424D01*
D02*
G37*
G36*
X71324Y344622D02*
X70054Y344454D01*
X69911Y344987D01*
X68893Y346752D01*
X67452Y348193D01*
X65687Y349211D01*
X63719Y349739D01*
X63716D01*
Y342000D01*
X61684D01*
Y349739D01*
X61681D01*
X59713Y349211D01*
X57948Y348193D01*
X56507Y346752D01*
X56438Y346632D01*
X55168Y346972D01*
Y374085D01*
X57789Y376706D01*
X71324D01*
Y344622D01*
D02*
G37*
G36*
X235916Y339798D02*
Y315271D01*
X186891Y266245D01*
X186329Y265405D01*
X186132Y264414D01*
Y167645D01*
X183077Y164590D01*
X150018D01*
X149912Y164987D01*
X148893Y166752D01*
X147547Y168098D01*
X147591Y168516D01*
X147956Y169368D01*
X150622D01*
X151613Y169565D01*
X152453Y170127D01*
X173767Y191441D01*
X174199Y191262D01*
X176321D01*
X178281Y192074D01*
X179782Y193575D01*
X180594Y195535D01*
Y197657D01*
X179782Y199618D01*
X178281Y201118D01*
X176321Y201930D01*
X174242D01*
X174128Y202051D01*
X173552Y203037D01*
X175059Y204544D01*
X175621Y205384D01*
X175818Y206375D01*
Y269691D01*
X227361Y321235D01*
X227793Y321056D01*
X229915D01*
X231875Y321868D01*
X233376Y323368D01*
X234188Y325329D01*
Y327451D01*
X233376Y329412D01*
X231875Y330912D01*
X229915Y331724D01*
X227793D01*
X225833Y330912D01*
X224332Y329412D01*
X223520Y327451D01*
Y325329D01*
X223699Y324897D01*
X171397Y272595D01*
X170835Y271755D01*
X170638Y270764D01*
Y207448D01*
X166250Y203060D01*
X165174Y203779D01*
X165862Y205441D01*
Y207563D01*
X165050Y209524D01*
X163549Y211024D01*
X161589Y211836D01*
X159467D01*
X157507Y211024D01*
X156006Y209524D01*
X155194Y207563D01*
Y205441D01*
X155373Y205009D01*
X151709Y201346D01*
X150439Y201872D01*
Y203019D01*
X149912Y204987D01*
X149706Y205343D01*
X159565Y215203D01*
X160127Y216043D01*
X160324Y217034D01*
Y269211D01*
X228350Y337237D01*
X228782Y337058D01*
X230904D01*
X232864Y337870D01*
X234364Y339370D01*
X234646Y340051D01*
X235916Y339798D01*
D02*
G37*
G36*
X155652Y349630D02*
Y338614D01*
X146044Y329006D01*
X145687Y329212D01*
X143719Y329739D01*
X141681D01*
X139713Y329212D01*
X137948Y328193D01*
X136508Y326752D01*
X135489Y324987D01*
X134961Y323019D01*
Y320981D01*
X135489Y319013D01*
X136508Y317248D01*
X137948Y315807D01*
X138010Y315772D01*
X137831Y314718D01*
X137702Y314483D01*
X136804Y314305D01*
X135964Y313743D01*
X132027Y309806D01*
X131465Y308966D01*
X131268Y307975D01*
Y304830D01*
X129998Y304663D01*
X129911Y304987D01*
X128892Y306752D01*
X127452Y308193D01*
X125687Y309212D01*
X123719Y309739D01*
X121681D01*
X119713Y309212D01*
X117948Y308193D01*
X116636Y306880D01*
X116087Y306959D01*
X115366Y307315D01*
Y316685D01*
X116087Y317041D01*
X116636Y317119D01*
X117948Y315807D01*
X119713Y314788D01*
X121681Y314261D01*
X123719D01*
X125687Y314788D01*
X127452Y315807D01*
X128892Y317248D01*
X129911Y319013D01*
X130439Y320981D01*
Y323019D01*
X129911Y324987D01*
X128892Y326752D01*
X127452Y328193D01*
X125687Y329212D01*
X123719Y329739D01*
X121681D01*
X119713Y329212D01*
X117948Y328193D01*
X116636Y326880D01*
X116087Y326959D01*
X115366Y327315D01*
Y331924D01*
X115169Y332915D01*
X114607Y333755D01*
X109706Y338656D01*
X109911Y339013D01*
X110439Y340981D01*
Y343019D01*
X109911Y344987D01*
X108893Y346752D01*
X107452Y348193D01*
X106586Y348692D01*
X106926Y349962D01*
X118473D01*
X118813Y348692D01*
X117948Y348193D01*
X116507Y346752D01*
X115488Y344987D01*
X114961Y343019D01*
Y340981D01*
X115488Y339013D01*
X116507Y337248D01*
X117948Y335807D01*
X119713Y334788D01*
X121681Y334261D01*
X123719D01*
X125687Y334788D01*
X127452Y335807D01*
X128892Y337248D01*
X129911Y339013D01*
X130439Y340981D01*
Y343019D01*
X129911Y344987D01*
X128892Y346752D01*
X127452Y348193D01*
X126586Y348692D01*
X126926Y349962D01*
X138474D01*
X138814Y348692D01*
X137948Y348193D01*
X136508Y346752D01*
X135489Y344987D01*
X134961Y343019D01*
Y340981D01*
X135489Y339013D01*
X136508Y337248D01*
X137948Y335807D01*
X139713Y334788D01*
X141681Y334261D01*
X143719D01*
X145687Y334788D01*
X147452Y335807D01*
X148893Y337248D01*
X149912Y339013D01*
X150439Y340981D01*
Y343019D01*
X149912Y344987D01*
X149706Y345343D01*
X154479Y350116D01*
X155652Y349630D01*
D02*
G37*
G36*
X643629Y567993D02*
X645463Y566159D01*
X647708Y564862D01*
X650213Y564191D01*
X652807D01*
X655312Y564862D01*
X657557Y566159D01*
X658572Y567174D01*
X659842Y566648D01*
Y447097D01*
X622247Y409501D01*
X621685Y408661D01*
X621488Y407670D01*
Y307086D01*
X621685Y306095D01*
X622247Y305255D01*
X634442Y293059D01*
Y290602D01*
X633172Y290076D01*
X632157Y291091D01*
X629912Y292388D01*
X627407Y293059D01*
X624813D01*
X622308Y292388D01*
X620063Y291091D01*
X618229Y289257D01*
X616932Y287012D01*
X616261Y284507D01*
Y281913D01*
X616932Y279408D01*
X618229Y277163D01*
X620063Y275329D01*
X622308Y274032D01*
X624813Y273361D01*
X627407D01*
X629912Y274032D01*
X632157Y275329D01*
X633172Y276344D01*
X634442Y275818D01*
Y199955D01*
X629381Y194893D01*
X628949Y195072D01*
X626827D01*
X624866Y194260D01*
X623366Y192759D01*
X622554Y190799D01*
Y188677D01*
X623366Y186716D01*
X624866Y185216D01*
X626827Y184404D01*
X628949D01*
X630910Y185216D01*
X632410Y186716D01*
X633222Y188677D01*
Y190799D01*
X633043Y191231D01*
X636825Y195012D01*
X637998Y194526D01*
Y167132D01*
X638195Y166141D01*
X638757Y165301D01*
X668360Y135698D01*
X667732Y134612D01*
X667061Y132107D01*
Y129513D01*
X667732Y127008D01*
X669029Y124763D01*
X669987Y123805D01*
X669461Y122535D01*
X658959D01*
X658433Y123805D01*
X659391Y124763D01*
X660688Y127008D01*
X661359Y129513D01*
Y132107D01*
X660688Y134612D01*
X659391Y136857D01*
X657557Y138691D01*
X655312Y139988D01*
X652807Y140659D01*
X650213D01*
X647708Y139988D01*
X645463Y138691D01*
X643629Y136857D01*
X642332Y134612D01*
X641661Y132107D01*
Y129513D01*
X642332Y127008D01*
X643629Y124763D01*
X644587Y123805D01*
X644061Y122535D01*
X638048D01*
X634660Y125922D01*
X635288Y127008D01*
X635959Y129513D01*
Y132107D01*
X635288Y134612D01*
X633991Y136857D01*
X632157Y138691D01*
X629912Y139988D01*
X627407Y140659D01*
X624813D01*
X622308Y139988D01*
X620063Y138691D01*
X618229Y136857D01*
X616932Y134612D01*
X616261Y132107D01*
Y129513D01*
X616932Y127008D01*
X618229Y124763D01*
X620063Y122929D01*
X622308Y121632D01*
X624813Y120961D01*
X627407D01*
X629912Y121632D01*
X630998Y122260D01*
X633106Y120152D01*
X632620Y118979D01*
X620141D01*
X614222Y124898D01*
Y307848D01*
X614025Y308839D01*
X613463Y309679D01*
X607110Y316033D01*
Y324621D01*
X608380Y325147D01*
X609118Y324408D01*
X611079Y323596D01*
X613201D01*
X615162Y324408D01*
X616662Y325909D01*
X617474Y327869D01*
Y329991D01*
X616662Y331951D01*
X615162Y333452D01*
X614730Y333631D01*
Y377438D01*
X614533Y378429D01*
X613971Y379269D01*
X613460Y379781D01*
Y413455D01*
X641403Y441399D01*
X641965Y442239D01*
X642162Y443230D01*
Y567994D01*
X643432Y568334D01*
X643629Y567993D01*
D02*
G37*
G36*
X169825Y348386D02*
X170384Y348001D01*
Y299825D01*
X151709Y281150D01*
X150439Y281675D01*
Y283019D01*
X149912Y284987D01*
X148893Y286752D01*
X147452Y288193D01*
X145687Y289212D01*
X143719Y289739D01*
X141681D01*
X139713Y289212D01*
X137948Y288193D01*
X137718Y287962D01*
X136448Y288488D01*
Y295512D01*
X137718Y296038D01*
X137948Y295807D01*
X139713Y294788D01*
X141681Y294261D01*
X143719D01*
X145687Y294788D01*
X147452Y295807D01*
X148893Y297248D01*
X149912Y299013D01*
X150439Y300981D01*
Y303019D01*
X149912Y304987D01*
X148893Y306752D01*
X147592Y308052D01*
X147685Y308643D01*
X148036Y309322D01*
X152146D01*
X153137Y309519D01*
X153977Y310081D01*
X160813Y316917D01*
X161245Y316738D01*
X163367D01*
X165327Y317550D01*
X166828Y319051D01*
X167640Y321011D01*
Y323133D01*
X166828Y325093D01*
X165327Y326594D01*
X163367Y327406D01*
X161245D01*
X159284Y326594D01*
X157784Y325093D01*
X156972Y323133D01*
Y321011D01*
X157151Y320579D01*
X151073Y314502D01*
X147731D01*
X147391Y315772D01*
X147452Y315807D01*
X148893Y317248D01*
X149912Y319013D01*
X150439Y320981D01*
Y323019D01*
X149912Y324987D01*
X149706Y325343D01*
X160073Y335710D01*
X160635Y336551D01*
X160832Y337542D01*
Y340244D01*
X169156Y348568D01*
X169825Y348386D01*
D02*
G37*
G36*
X91136Y318382D02*
Y310974D01*
X91333Y309983D01*
X91895Y309142D01*
X95694Y305343D01*
X95488Y304987D01*
X94961Y303019D01*
Y300981D01*
X95488Y299013D01*
X96507Y297248D01*
X97948Y295807D01*
X99713Y294788D01*
X101681Y294261D01*
X103719D01*
X105687Y294788D01*
X107452Y295807D01*
X108893Y297248D01*
X108916Y297289D01*
X110186Y296949D01*
Y287051D01*
X108916Y286711D01*
X108893Y286752D01*
X107452Y288193D01*
X105687Y289212D01*
X103719Y289739D01*
X101681D01*
X99713Y289212D01*
X97948Y288193D01*
X96507Y286752D01*
X95488Y284987D01*
X94961Y283019D01*
Y280981D01*
X95488Y279013D01*
X95694Y278657D01*
X90879Y273841D01*
X90317Y273001D01*
X90120Y272010D01*
Y267166D01*
X89046Y266803D01*
X88850Y266794D01*
X87452Y268193D01*
X85687Y269212D01*
X83719Y269739D01*
X81681D01*
X79713Y269212D01*
X79356Y269006D01*
X76504Y271859D01*
Y275455D01*
X77774Y275981D01*
X77948Y275807D01*
X79713Y274788D01*
X81681Y274261D01*
X83719D01*
X85687Y274788D01*
X87452Y275807D01*
X88893Y277248D01*
X89911Y279013D01*
X90439Y280981D01*
Y283019D01*
X89911Y284987D01*
X88893Y286752D01*
X87452Y288193D01*
X85687Y289212D01*
X83719Y289739D01*
X81681D01*
X79713Y289212D01*
X77948Y288193D01*
X77774Y288018D01*
X76504Y288545D01*
Y295455D01*
X77774Y295981D01*
X77948Y295807D01*
X79713Y294788D01*
X81681Y294261D01*
X83719D01*
X85687Y294788D01*
X87452Y295807D01*
X88893Y297248D01*
X89911Y299013D01*
X90439Y300981D01*
Y303019D01*
X89911Y304987D01*
X88893Y306752D01*
X87452Y308193D01*
X85687Y309212D01*
X83719Y309739D01*
X81681D01*
X79713Y309212D01*
X77948Y308193D01*
X77774Y308018D01*
X76504Y308545D01*
Y315455D01*
X77774Y315981D01*
X77948Y315807D01*
X79713Y314788D01*
X81681Y314261D01*
X83719D01*
X85687Y314788D01*
X87452Y315807D01*
X88893Y317248D01*
X89866Y318934D01*
X89986Y318972D01*
X91136Y318382D01*
D02*
G37*
G36*
X660378Y424240D02*
X660400Y424217D01*
Y422103D01*
X660579Y421671D01*
X647012Y408104D01*
X646450Y407264D01*
X646253Y406273D01*
Y303460D01*
X638810Y296017D01*
X626668Y308159D01*
Y310143D01*
X627938Y310669D01*
X628168Y310438D01*
X630129Y309626D01*
X632251D01*
X634212Y310438D01*
X635712Y311938D01*
X636524Y313899D01*
Y316021D01*
X635712Y317981D01*
X634212Y319482D01*
X633145Y319924D01*
Y398758D01*
X659318Y424932D01*
X660378Y424240D01*
D02*
G37*
G36*
X431242Y422685D02*
Y297631D01*
X431420Y296739D01*
X431363Y296665D01*
X430008Y296354D01*
X428040Y298323D01*
Y421257D01*
X428471Y421436D01*
X429972Y422937D01*
X429972Y422937D01*
X431242Y422685D01*
D02*
G37*
G36*
X535807Y373326D02*
X535887Y372924D01*
X536398Y372158D01*
Y293281D01*
X535225Y292795D01*
X532056Y295963D01*
X531216Y296525D01*
X530225Y296722D01*
X517944D01*
X517458Y297895D01*
X532691Y313129D01*
X533253Y313969D01*
X533450Y314960D01*
Y373144D01*
X534679Y373823D01*
X535807Y373326D01*
D02*
G37*
G36*
X485598Y564026D02*
Y496824D01*
Y490531D01*
X471879Y476811D01*
X471317Y475971D01*
X471120Y474980D01*
Y292712D01*
X469908Y292388D01*
X467663Y291091D01*
X466648Y290076D01*
X465378Y290602D01*
Y545465D01*
X484425Y564512D01*
X485598Y564026D01*
D02*
G37*
G36*
X350667Y380771D02*
X351229Y379931D01*
X355042Y376117D01*
Y290602D01*
X353772Y290076D01*
X352757Y291091D01*
X350512Y292388D01*
X348007Y293059D01*
X345413D01*
X342908Y292388D01*
X340663Y291091D01*
X338829Y289257D01*
X337532Y287012D01*
X336861Y284507D01*
Y281913D01*
X337532Y279408D01*
X338829Y277163D01*
X340663Y275329D01*
X342908Y274032D01*
X345413Y273361D01*
X348007D01*
X350512Y274032D01*
X352757Y275329D01*
X353772Y276344D01*
X355042Y275818D01*
Y265995D01*
X332963Y243915D01*
X332531Y244094D01*
X330409D01*
X328448Y243282D01*
X326948Y241782D01*
X326136Y239821D01*
Y237699D01*
X326948Y235739D01*
X328448Y234238D01*
X329676Y233730D01*
X329423Y232460D01*
X326390D01*
X325399Y232263D01*
X324559Y231701D01*
X259795Y166938D01*
X258622Y167424D01*
Y263360D01*
X259795Y263846D01*
X296089Y227553D01*
X295910Y227121D01*
Y224999D01*
X296722Y223039D01*
X298223Y221538D01*
X300183Y220726D01*
X302305D01*
X304265Y221538D01*
X305766Y223039D01*
X306578Y224999D01*
Y227121D01*
X305766Y229081D01*
X304265Y230582D01*
X302305Y231394D01*
X300183D01*
X299751Y231215D01*
X262178Y268789D01*
Y275818D01*
X263448Y276344D01*
X264463Y275329D01*
X266708Y274032D01*
X269213Y273361D01*
X271807D01*
X274312Y274032D01*
X276557Y275329D01*
X278391Y277163D01*
X279688Y279408D01*
X280359Y281913D01*
Y284507D01*
X279688Y287012D01*
X279060Y288098D01*
X348541Y357579D01*
X349103Y358419D01*
X349300Y359410D01*
Y381137D01*
X350570Y381262D01*
X350667Y380771D01*
D02*
G37*
G36*
X253442Y369650D02*
Y290602D01*
X252172Y290076D01*
X251157Y291091D01*
X248912Y292388D01*
X247700Y292712D01*
Y298007D01*
X250497Y300804D01*
X251059Y301644D01*
X251256Y302635D01*
Y369259D01*
X252172Y370176D01*
X253442Y369650D01*
D02*
G37*
G36*
X548079Y411935D02*
X548919Y411373D01*
X549910Y411176D01*
X576777D01*
X583642Y404311D01*
Y290602D01*
X582372Y290076D01*
X581357Y291091D01*
X579112Y292388D01*
X576607Y293059D01*
X574013D01*
X571508Y292388D01*
X569263Y291091D01*
X568248Y290076D01*
X566978Y290602D01*
Y389761D01*
X567410Y389940D01*
X568910Y391441D01*
X569722Y393401D01*
Y395523D01*
X568910Y397483D01*
X567410Y398984D01*
X565449Y399796D01*
X563327D01*
X561367Y398984D01*
X559866Y397483D01*
X559054Y395523D01*
Y393401D01*
X559866Y391441D01*
X561367Y389940D01*
X561798Y389761D01*
Y298488D01*
X560625Y298002D01*
X554278Y304349D01*
Y350829D01*
X554710Y351008D01*
X556210Y352508D01*
X557022Y354469D01*
Y356591D01*
X556210Y358551D01*
X554710Y360052D01*
X552749Y360864D01*
X550627D01*
X548666Y360052D01*
X547166Y358551D01*
X546354Y356591D01*
Y354469D01*
X547166Y352508D01*
X548666Y351008D01*
X549098Y350829D01*
Y303276D01*
X549295Y302285D01*
X549857Y301445D01*
X558242Y293059D01*
Y290602D01*
X556972Y290076D01*
X555957Y291091D01*
X553712Y292388D01*
X551207Y293059D01*
X548613D01*
X546108Y292388D01*
X543863Y291091D01*
X542848Y290076D01*
X541578Y290602D01*
Y373206D01*
X541381Y374197D01*
X540973Y374807D01*
X541732Y375565D01*
X542544Y377526D01*
Y379648D01*
X541732Y381609D01*
X540232Y383109D01*
X538271Y383921D01*
X536149D01*
X534720Y383329D01*
X533450Y384030D01*
Y424904D01*
X534623Y425390D01*
X548079Y411935D01*
D02*
G37*
G36*
X662458Y376224D02*
X664419Y375412D01*
X666541D01*
X666973Y375591D01*
X725120Y317443D01*
Y292712D01*
X723908Y292388D01*
X721663Y291091D01*
X719829Y289257D01*
X718532Y287012D01*
X717861Y284507D01*
Y281913D01*
X718532Y279408D01*
X719829Y277163D01*
X721663Y275329D01*
X723908Y274032D01*
X726413Y273361D01*
X729007D01*
X729572Y273512D01*
X730229Y272374D01*
X727657Y269801D01*
X727095Y268961D01*
X726898Y267970D01*
Y257049D01*
X726902Y257031D01*
Y252211D01*
X726902Y252209D01*
Y251496D01*
X726905Y251485D01*
Y248991D01*
X726874Y248781D01*
X720402Y227263D01*
X716175Y223036D01*
X714929Y223283D01*
X714838Y223502D01*
X713838Y224503D01*
X712840Y224916D01*
Y221488D01*
X711824D01*
Y220472D01*
X708396D01*
X708809Y219474D01*
X709724Y218559D01*
X709917Y218219D01*
X710085Y217190D01*
X690880Y200503D01*
X690824Y200431D01*
X690747Y200380D01*
X689557Y199189D01*
X688995Y198349D01*
X688798Y197358D01*
X688798Y196516D01*
Y128327D01*
X687374Y126903D01*
X686236Y127560D01*
X686759Y129513D01*
Y132107D01*
X686088Y134612D01*
X684791Y136857D01*
X682957Y138691D01*
X680712Y139988D01*
X678207Y140659D01*
X675613D01*
X673108Y139988D01*
X672022Y139361D01*
X643178Y168205D01*
Y275818D01*
X644448Y276344D01*
X645463Y275329D01*
X647708Y274032D01*
X650213Y273361D01*
X652807D01*
X655312Y274032D01*
X657557Y275329D01*
X659391Y277163D01*
X660688Y279408D01*
X661359Y281913D01*
Y284507D01*
X660688Y287012D01*
X659391Y289257D01*
X657557Y291091D01*
X655312Y292388D01*
X652807Y293059D01*
X650213D01*
X647708Y292388D01*
X645463Y291091D01*
X644448Y290076D01*
X643178Y290602D01*
Y293059D01*
X650674Y300556D01*
X651236Y301396D01*
X651433Y302387D01*
Y304302D01*
X652703Y304427D01*
X652800Y303936D01*
X653362Y303096D01*
X668360Y288098D01*
X667732Y287012D01*
X667061Y284507D01*
Y281913D01*
X667732Y279408D01*
X669029Y277163D01*
X670863Y275329D01*
X673108Y274032D01*
X675613Y273361D01*
X678207D01*
X680712Y274032D01*
X682957Y275329D01*
X684791Y277163D01*
X686088Y279408D01*
X686759Y281913D01*
Y284507D01*
X686088Y287012D01*
X684791Y289257D01*
X682957Y291091D01*
X680712Y292388D01*
X678207Y293059D01*
X675613D01*
X673108Y292388D01*
X672022Y291761D01*
X657783Y306000D01*
Y374521D01*
X658214Y374700D01*
X659715Y376200D01*
X660017Y376930D01*
X661497Y377185D01*
X662458Y376224D01*
D02*
G37*
G36*
X517644Y290272D02*
X516629Y289257D01*
X515332Y287012D01*
X514661Y284507D01*
Y281913D01*
X515332Y279408D01*
X516629Y277163D01*
X518463Y275329D01*
X520708Y274032D01*
X521920Y273708D01*
Y256923D01*
X521488Y256744D01*
X519988Y255243D01*
X519176Y253283D01*
Y251161D01*
X519988Y249200D01*
X521488Y247700D01*
X523449Y246888D01*
X525571D01*
X527532Y247700D01*
X529032Y249200D01*
X529844Y251161D01*
Y253283D01*
X529032Y255243D01*
X527532Y256744D01*
X527100Y256923D01*
Y273708D01*
X528312Y274032D01*
X530557Y275329D01*
X531572Y276344D01*
X532842Y275818D01*
Y138202D01*
X531572Y137676D01*
X530557Y138691D01*
X528312Y139988D01*
X525807Y140659D01*
X523213D01*
X520708Y139988D01*
X518463Y138691D01*
X516629Y136857D01*
X515332Y134612D01*
X514661Y132107D01*
Y129513D01*
X515332Y127008D01*
X516629Y124763D01*
X518463Y122929D01*
X520708Y121632D01*
X523213Y120961D01*
X525807D01*
X528312Y121632D01*
X530557Y122929D01*
X531572Y123944D01*
X532842Y123418D01*
Y73027D01*
X532411Y72848D01*
X530910Y71347D01*
X530783Y71040D01*
X529513Y71293D01*
Y102997D01*
X529316Y103988D01*
X528754Y104828D01*
X507660Y125922D01*
X508288Y127008D01*
X508959Y129513D01*
Y132107D01*
X508288Y134612D01*
X506991Y136857D01*
X505157Y138691D01*
X502912Y139988D01*
X500407Y140659D01*
X497813D01*
X495308Y139988D01*
X493063Y138691D01*
X492105Y137733D01*
X490835Y138259D01*
Y275761D01*
X492105Y276287D01*
X493063Y275329D01*
X495308Y274032D01*
X497813Y273361D01*
X500407D01*
X502912Y274032D01*
X505157Y275329D01*
X506991Y277163D01*
X508288Y279408D01*
X508959Y281913D01*
Y284507D01*
X508288Y287012D01*
X507660Y288098D01*
X511105Y291542D01*
X517118D01*
X517644Y290272D01*
D02*
G37*
G36*
X763281Y278588D02*
X763417Y277901D01*
X763979Y277061D01*
X774142Y266897D01*
Y260103D01*
X772872Y259576D01*
X771857Y260591D01*
X769612Y261888D01*
X767107Y262559D01*
X764513D01*
X762008Y261888D01*
X759763Y260591D01*
X757929Y258758D01*
X756970Y257097D01*
X755700Y257437D01*
Y273708D01*
X756912Y274032D01*
X759157Y275329D01*
X760991Y277163D01*
X761967Y278852D01*
X762407Y278866D01*
X763281Y278588D01*
D02*
G37*
G36*
X131268Y259170D02*
Y250842D01*
X131465Y249851D01*
X132027Y249011D01*
X135694Y245343D01*
X135489Y244987D01*
X134961Y243019D01*
Y240981D01*
X135489Y239013D01*
X136508Y237248D01*
X137948Y235807D01*
X139713Y234788D01*
X141681Y234261D01*
X143719D01*
X145687Y234788D01*
X147452Y235807D01*
X148794Y237149D01*
X149229Y237102D01*
X150064Y236737D01*
Y233027D01*
X146044Y229006D01*
X145687Y229212D01*
X143719Y229739D01*
X141681D01*
X139713Y229212D01*
X137948Y228193D01*
X136508Y226752D01*
X135489Y224987D01*
X134961Y223019D01*
Y220981D01*
X135489Y219013D01*
X136508Y217248D01*
X137948Y215807D01*
X139713Y214788D01*
X141681Y214261D01*
X143719D01*
X145687Y214788D01*
X147452Y215807D01*
X148893Y217248D01*
X149912Y219013D01*
X150439Y220981D01*
Y223019D01*
X149912Y224987D01*
X149706Y225343D01*
X153874Y229512D01*
X155144Y228986D01*
Y218107D01*
X146044Y209006D01*
X145687Y209212D01*
X143719Y209739D01*
X141681D01*
X139713Y209212D01*
X137948Y208193D01*
X136508Y206752D01*
X135489Y204987D01*
X134961Y203019D01*
Y200981D01*
X135489Y199013D01*
X136508Y197248D01*
X137872Y195884D01*
X137843Y195541D01*
X137476Y194614D01*
X127924D01*
X127557Y195541D01*
X127528Y195884D01*
X128892Y197248D01*
X129911Y199013D01*
X130439Y200981D01*
Y203019D01*
X129911Y204987D01*
X128892Y206752D01*
X127452Y208193D01*
X125687Y209212D01*
X123719Y209739D01*
X121681D01*
X119713Y209212D01*
X117948Y208193D01*
X116636Y206881D01*
X116087Y206959D01*
X115366Y207315D01*
Y216685D01*
X116087Y217041D01*
X116636Y217120D01*
X117948Y215807D01*
X119713Y214788D01*
X121681Y214261D01*
X123719D01*
X125687Y214788D01*
X127452Y215807D01*
X128892Y217248D01*
X129911Y219013D01*
X130439Y220981D01*
Y223019D01*
X129911Y224987D01*
X128892Y226752D01*
X127452Y228193D01*
X125687Y229212D01*
X123719Y229739D01*
X121681D01*
X119713Y229212D01*
X117948Y228193D01*
X116636Y226881D01*
X116087Y226959D01*
X115366Y227315D01*
Y236685D01*
X116087Y237041D01*
X116636Y237119D01*
X117948Y235807D01*
X119713Y234788D01*
X121681Y234261D01*
X123719D01*
X125687Y234788D01*
X127452Y235807D01*
X128892Y237248D01*
X129911Y239013D01*
X130439Y240981D01*
Y243019D01*
X129911Y244987D01*
X128892Y246752D01*
X127452Y248193D01*
X125687Y249212D01*
X123719Y249739D01*
X121681D01*
X119713Y249212D01*
X117948Y248193D01*
X116636Y246881D01*
X116087Y246959D01*
X115366Y247315D01*
Y256685D01*
X116087Y257041D01*
X116636Y257119D01*
X117948Y255807D01*
X119713Y254788D01*
X121681Y254261D01*
X123719D01*
X125687Y254788D01*
X127452Y255807D01*
X128892Y257248D01*
X129911Y259013D01*
X129998Y259337D01*
X131268Y259170D01*
D02*
G37*
G36*
X71324Y279378D02*
Y270786D01*
X71521Y269795D01*
X72083Y268955D01*
X75694Y265343D01*
X75488Y264987D01*
X74961Y263019D01*
Y260981D01*
X75488Y259013D01*
X76507Y257248D01*
X77948Y255807D01*
X79713Y254788D01*
X81681Y254261D01*
X83719D01*
X85687Y254788D01*
X86367Y255181D01*
X87376Y254299D01*
Y252177D01*
X88188Y250217D01*
X89689Y248716D01*
X91649Y247904D01*
X93771D01*
X95731Y248716D01*
X97232Y250217D01*
X98044Y252177D01*
Y254299D01*
X99060Y255165D01*
X99713Y254788D01*
X101681Y254261D01*
X103719D01*
X105687Y254788D01*
X107452Y255807D01*
X108893Y257248D01*
X108916Y257289D01*
X110186Y256949D01*
Y247051D01*
X108916Y246711D01*
X108893Y246752D01*
X107452Y248193D01*
X105687Y249212D01*
X103719Y249739D01*
X101681D01*
X99713Y249212D01*
X97948Y248193D01*
X96507Y246752D01*
X95488Y244987D01*
X94961Y243019D01*
Y240981D01*
X95488Y239013D01*
X95694Y238657D01*
X92799Y235762D01*
X89202D01*
X88676Y237032D01*
X88893Y237248D01*
X89911Y239013D01*
X90439Y240981D01*
Y243019D01*
X89911Y244987D01*
X88893Y246752D01*
X87452Y248193D01*
X85687Y249212D01*
X83719Y249739D01*
X81681D01*
X79713Y249212D01*
X77948Y248193D01*
X76507Y246752D01*
X75488Y244987D01*
X75336Y244418D01*
X75209Y244393D01*
X74369Y243831D01*
X71709Y241171D01*
X70439Y241698D01*
Y243019D01*
X69911Y244987D01*
X68893Y246752D01*
X67452Y248193D01*
X65687Y249212D01*
X65290Y249318D01*
Y254682D01*
X65687Y254788D01*
X67452Y255807D01*
X68893Y257248D01*
X69911Y259013D01*
X70439Y260981D01*
Y263019D01*
X69911Y264987D01*
X68893Y266752D01*
X67452Y268193D01*
X65687Y269212D01*
X65290Y269318D01*
Y274682D01*
X65687Y274788D01*
X67452Y275807D01*
X68893Y277248D01*
X69911Y279013D01*
X70054Y279545D01*
X71324Y279378D01*
D02*
G37*
G36*
X750520Y247984D02*
Y192081D01*
X714957Y156517D01*
X714395Y155677D01*
X714198Y154686D01*
Y115373D01*
X712540Y113715D01*
X690673D01*
X690147Y114985D01*
X697422Y122260D01*
X698508Y121632D01*
X701013Y120961D01*
X703607D01*
X706112Y121632D01*
X708357Y122929D01*
X710191Y124763D01*
X711488Y127008D01*
X712159Y129513D01*
Y132107D01*
X711488Y134612D01*
X710191Y136857D01*
X708357Y138691D01*
X706112Y139988D01*
X703607Y140659D01*
X701013D01*
X698508Y139988D01*
X696263Y138691D01*
X695248Y137676D01*
X693978Y138202D01*
Y196285D01*
X694346Y196653D01*
X715416Y214961D01*
X715472Y215034D01*
X715549Y215085D01*
X724525Y224061D01*
X724598Y224171D01*
X724700Y224254D01*
X724877Y224588D01*
X725087Y224902D01*
X725112Y225030D01*
X725174Y225147D01*
X731450Y246012D01*
X731680Y246151D01*
X732869Y246322D01*
X734363Y244829D01*
X736608Y243532D01*
X739113Y242861D01*
X741707D01*
X744212Y243532D01*
X746457Y244829D01*
X748291Y246663D01*
X749250Y248324D01*
X750520Y247984D01*
D02*
G37*
G36*
X49556Y287578D02*
X51517Y286766D01*
X53639D01*
X55599Y287578D01*
X56507Y286752D01*
X55488Y284987D01*
X54961Y283019D01*
Y280981D01*
X55488Y279013D01*
X56507Y277248D01*
X57948Y275807D01*
X59713Y274788D01*
X60110Y274682D01*
Y269318D01*
X59713Y269212D01*
X57948Y268193D01*
X56507Y266752D01*
X55488Y264987D01*
X54961Y263019D01*
Y260981D01*
X55488Y259013D01*
X56507Y257248D01*
X57948Y255807D01*
X59713Y254788D01*
X60110Y254682D01*
Y249318D01*
X59713Y249212D01*
X57948Y248193D01*
X56507Y246752D01*
X55488Y244987D01*
X54961Y243019D01*
Y241582D01*
X53691Y241056D01*
X47390Y247356D01*
Y287948D01*
X48660Y288474D01*
X49556Y287578D01*
D02*
G37*
G36*
X358598Y260566D02*
Y243332D01*
X358795Y242341D01*
X359357Y241501D01*
X363559Y237298D01*
X362932Y236212D01*
X362261Y233707D01*
Y231113D01*
X362932Y228608D01*
X364229Y226363D01*
X365187Y225405D01*
X364661Y224135D01*
X356967D01*
X349400Y231701D01*
X348560Y232263D01*
X347569Y232460D01*
X333517D01*
X333264Y233730D01*
X334492Y234238D01*
X335992Y235739D01*
X336804Y237699D01*
Y239821D01*
X336625Y240253D01*
X357425Y261052D01*
X358598Y260566D01*
D02*
G37*
G36*
X391463Y275329D02*
X393708Y274032D01*
X396213Y273361D01*
X398807D01*
X401312Y274032D01*
X403557Y275329D01*
X404572Y276344D01*
X405842Y275818D01*
Y185150D01*
X393913Y173221D01*
X379445D01*
X378919Y174491D01*
X379991Y175563D01*
X381288Y177808D01*
X381959Y180313D01*
Y182907D01*
X381288Y185412D01*
X379991Y187657D01*
X378157Y189491D01*
X375912Y190788D01*
X373407Y191459D01*
X370813D01*
X368308Y190788D01*
X366063Y189491D01*
X364229Y187657D01*
X362932Y185412D01*
X362261Y182907D01*
Y180313D01*
X362932Y177808D01*
X364229Y175563D01*
X365300Y174491D01*
X364775Y173221D01*
X346943D01*
X345952Y173024D01*
X345112Y172462D01*
X342880Y170230D01*
X310243D01*
X309542Y171500D01*
X310134Y172929D01*
Y175051D01*
X309955Y175483D01*
X332031Y197559D01*
X332593Y198399D01*
X332790Y199390D01*
Y218819D01*
X333222Y218998D01*
X334722Y220499D01*
X335534Y222459D01*
Y224581D01*
X334942Y226010D01*
X335643Y227280D01*
X346496D01*
X354063Y219714D01*
X354903Y219152D01*
X355894Y218955D01*
X377073D01*
X378064Y219152D01*
X378904Y219714D01*
X388419Y229229D01*
X388981Y230069D01*
X389178Y231060D01*
Y275818D01*
X390448Y276344D01*
X391463Y275329D01*
D02*
G37*
G36*
X324866Y222887D02*
Y222459D01*
X325678Y220499D01*
X327178Y218998D01*
X327610Y218819D01*
Y200463D01*
X306293Y179145D01*
X305861Y179324D01*
X303739D01*
X301779Y178512D01*
X300278Y177012D01*
X299466Y175051D01*
Y172929D01*
X300058Y171500D01*
X299357Y170230D01*
X295910D01*
X294919Y170033D01*
X294079Y169471D01*
X280639Y156031D01*
X280207Y156210D01*
X278085D01*
X276124Y155398D01*
X274624Y153897D01*
X273812Y151937D01*
Y149815D01*
X274624Y147854D01*
X276124Y146354D01*
X278085Y145542D01*
X279783D01*
X280382Y144345D01*
X275398Y139361D01*
X274312Y139988D01*
X271807Y140659D01*
X269213D01*
X266708Y139988D01*
X264463Y138691D01*
X263448Y137676D01*
X262178Y138202D01*
Y161995D01*
X323596Y223414D01*
X324866Y222887D01*
D02*
G37*
G36*
X416863Y275329D02*
X419108Y274032D01*
X421613Y273361D01*
X424207D01*
X426712Y274032D01*
X428957Y275329D01*
X429915Y276287D01*
X431185Y275761D01*
Y190500D01*
X411957Y171271D01*
X411525Y171450D01*
X409403D01*
X408126Y170921D01*
X407407Y171998D01*
X413819Y178410D01*
X414381Y179250D01*
X414578Y180241D01*
Y275818D01*
X415848Y276344D01*
X416863Y275329D01*
D02*
G37*
G36*
X405659Y168454D02*
X405130Y167177D01*
Y165055D01*
X405942Y163095D01*
X407443Y161594D01*
X409403Y160782D01*
X411356D01*
X411698Y160334D01*
X411978Y159609D01*
X403746Y151377D01*
X382159D01*
X381534Y152117D01*
X381425Y152299D01*
X381340Y152603D01*
X381959Y154913D01*
Y157507D01*
X381288Y160012D01*
X379991Y162257D01*
X379033Y163215D01*
X379559Y164485D01*
X398822D01*
X399813Y164683D01*
X400653Y165244D01*
X404582Y169173D01*
X405659Y168454D01*
D02*
G37*
G36*
X442263Y275329D02*
X444508Y274032D01*
X447013Y273361D01*
X449607D01*
X452112Y274032D01*
X454357Y275329D01*
X455372Y276344D01*
X456642Y275818D01*
Y142805D01*
X453198Y139361D01*
X452112Y139988D01*
X449607Y140659D01*
X447013D01*
X444508Y139988D01*
X443422Y139361D01*
X439276Y143506D01*
X438436Y144068D01*
X437445Y144265D01*
X389128D01*
X388137Y144068D01*
X387297Y143506D01*
X384249Y140458D01*
X383687Y139618D01*
X383490Y138627D01*
Y103689D01*
X363417Y83616D01*
X79686D01*
X76504Y86798D01*
Y115456D01*
X77774Y115982D01*
X77948Y115808D01*
X79713Y114789D01*
X81681Y114261D01*
X83719D01*
X85687Y114789D01*
X87452Y115808D01*
X88893Y117248D01*
X89866Y118935D01*
X89986Y118972D01*
X91136Y118382D01*
Y107950D01*
X91333Y106959D01*
X91895Y106119D01*
X98731Y99283D01*
X98552Y98851D01*
Y96729D01*
X99364Y94768D01*
X100864Y93268D01*
X102825Y92456D01*
X104947D01*
X106908Y93268D01*
X108408Y94768D01*
X109220Y96729D01*
Y98851D01*
X108408Y100812D01*
X106908Y102312D01*
X104947Y103124D01*
X102825D01*
X102393Y102945D01*
X96316Y109023D01*
Y115644D01*
X97586Y116170D01*
X97948Y115808D01*
X99713Y114789D01*
X101681Y114261D01*
X103719D01*
X105687Y114789D01*
X107452Y115808D01*
X108893Y117248D01*
X109662Y118581D01*
X110932Y118241D01*
Y111125D01*
X111129Y110134D01*
X111691Y109294D01*
X114866Y106119D01*
X115706Y105557D01*
X116697Y105360D01*
X281813D01*
X282804Y105557D01*
X283644Y106119D01*
X286819Y109294D01*
X287381Y110134D01*
X287578Y111125D01*
Y123418D01*
X288848Y123944D01*
X289863Y122929D01*
X292108Y121632D01*
X294613Y120961D01*
X297207D01*
X299712Y121632D01*
X301957Y122929D01*
X303791Y124763D01*
X305088Y127008D01*
X305759Y129513D01*
Y132107D01*
X305088Y134612D01*
X303791Y136857D01*
X301957Y138691D01*
X300296Y139650D01*
X300637Y140920D01*
X316583D01*
X316924Y139650D01*
X315263Y138691D01*
X313429Y136857D01*
X312132Y134612D01*
X311461Y132107D01*
Y129513D01*
X312132Y127008D01*
X313429Y124763D01*
X315263Y122929D01*
X317508Y121632D01*
X320013Y120961D01*
X322607D01*
X325112Y121632D01*
X327357Y122929D01*
X329191Y124763D01*
X330488Y127008D01*
X331159Y129513D01*
Y132107D01*
X330488Y134612D01*
X329191Y136857D01*
X327357Y138691D01*
X325696Y139650D01*
X326037Y140920D01*
X341983D01*
X342324Y139650D01*
X340663Y138691D01*
X338829Y136857D01*
X337532Y134612D01*
X336861Y132107D01*
Y129513D01*
X337532Y127008D01*
X338829Y124763D01*
X340663Y122929D01*
X342908Y121632D01*
X345413Y120961D01*
X348007D01*
X350512Y121632D01*
X352757Y122929D01*
X354591Y124763D01*
X355888Y127008D01*
X356559Y129513D01*
Y132107D01*
X355888Y134612D01*
X354591Y136857D01*
X352757Y138691D01*
X351096Y139650D01*
X351437Y140920D01*
X367383D01*
X367724Y139650D01*
X366063Y138691D01*
X364229Y136857D01*
X362932Y134612D01*
X362261Y132107D01*
Y129513D01*
X362932Y127008D01*
X364229Y124763D01*
X366063Y122929D01*
X368308Y121632D01*
X370813Y120961D01*
X373407D01*
X375912Y121632D01*
X378157Y122929D01*
X379991Y124763D01*
X381288Y127008D01*
X381959Y129513D01*
Y132107D01*
X381288Y134612D01*
X379991Y136857D01*
X378157Y138691D01*
X376459Y139672D01*
X376443Y140048D01*
X376726Y140984D01*
X377398Y141117D01*
X378238Y141679D01*
X382757Y146197D01*
X404819D01*
X405810Y146395D01*
X406650Y146956D01*
X433568Y173874D01*
X434741Y173388D01*
Y160458D01*
X434939Y159467D01*
X435500Y158627D01*
X438583Y155544D01*
X438404Y155112D01*
Y152990D01*
X439216Y151030D01*
X440717Y149529D01*
X442677Y148717D01*
X444799D01*
X446759Y149529D01*
X448260Y151030D01*
X449072Y152990D01*
Y155112D01*
X448260Y157072D01*
X446759Y158573D01*
X444799Y159385D01*
X442677D01*
X442245Y159206D01*
X439921Y161531D01*
Y181299D01*
Y275875D01*
X441191Y276401D01*
X442263Y275329D01*
D02*
G37*
G36*
X365187Y163215D02*
X364229Y162257D01*
X362932Y160012D01*
X362261Y157507D01*
Y154913D01*
X362932Y152408D01*
X364229Y150163D01*
X366063Y148329D01*
X367724Y147370D01*
X367383Y146100D01*
X291122D01*
X290636Y147273D01*
X304857Y161494D01*
X350087D01*
X351078Y161691D01*
X351918Y162253D01*
X354151Y164485D01*
X364661D01*
X365187Y163215D01*
D02*
G37*
G36*
X467663Y275329D02*
X469908Y274032D01*
X472413Y273361D01*
X475007D01*
X477512Y274032D01*
X479757Y275329D01*
X480715Y276287D01*
X481985Y275761D01*
Y138259D01*
X480715Y137733D01*
X479757Y138691D01*
X477512Y139988D01*
X475007Y140659D01*
X474726D01*
Y130810D01*
Y120961D01*
X475007D01*
X477512Y121632D01*
X479757Y122929D01*
X480715Y123887D01*
X481985Y123361D01*
Y98218D01*
X477797Y94030D01*
X432038D01*
X431338Y95300D01*
X431930Y96729D01*
Y98851D01*
X431118Y100812D01*
X429617Y102312D01*
X429185Y102491D01*
Y119213D01*
X430359Y119699D01*
X432001Y118057D01*
X432841Y117495D01*
X433832Y117298D01*
X455295D01*
X456286Y117495D01*
X457126Y118057D01*
X464168Y125099D01*
X465674Y125030D01*
X465829Y124763D01*
X467663Y122929D01*
X469908Y121632D01*
X472413Y120961D01*
X472694D01*
Y130810D01*
Y140659D01*
X472413D01*
X469908Y139988D01*
X467663Y138691D01*
X466648Y137676D01*
X465378Y138202D01*
Y275818D01*
X466648Y276344D01*
X467663Y275329D01*
D02*
G37*
G36*
X594663D02*
X596908Y274032D01*
X599413Y273361D01*
X602007D01*
X604512Y274032D01*
X606757Y275329D01*
X607772Y276344D01*
X609042Y275818D01*
Y138202D01*
X607772Y137676D01*
X606757Y138691D01*
X604512Y139988D01*
X602007Y140659D01*
X599413D01*
X596908Y139988D01*
X595822Y139361D01*
X592378Y142805D01*
Y275818D01*
X593648Y276344D01*
X594663Y275329D01*
D02*
G37*
G36*
X569263D02*
X571508Y274032D01*
X574013Y273361D01*
X576607D01*
X579112Y274032D01*
X581357Y275329D01*
X582372Y276344D01*
X583642Y275818D01*
Y138202D01*
X582372Y137676D01*
X581357Y138691D01*
X579112Y139988D01*
X576607Y140659D01*
X574013D01*
X571508Y139988D01*
X570422Y139361D01*
X566978Y142805D01*
Y275818D01*
X568248Y276344D01*
X569263Y275329D01*
D02*
G37*
G36*
X543863D02*
X546108Y274032D01*
X548613Y273361D01*
X551207D01*
X553712Y274032D01*
X555957Y275329D01*
X556972Y276344D01*
X558242Y275818D01*
Y138202D01*
X556972Y137676D01*
X555957Y138691D01*
X553712Y139988D01*
X551207Y140659D01*
X548613D01*
X546108Y139988D01*
X545022Y139361D01*
X541578Y142805D01*
Y275818D01*
X542848Y276344D01*
X543863Y275329D01*
D02*
G37*
G36*
X239063D02*
X241308Y274032D01*
X243813Y273361D01*
X246407D01*
X248912Y274032D01*
X251157Y275329D01*
X252172Y276344D01*
X253442Y275818D01*
Y138202D01*
X252172Y137676D01*
X251157Y138691D01*
X248912Y139988D01*
X246407Y140659D01*
X243813D01*
X241308Y139988D01*
X240222Y139361D01*
X236270Y143313D01*
Y276412D01*
X237540Y276852D01*
X239063Y275329D01*
D02*
G37*
G36*
X757929Y246663D02*
X759763Y244829D01*
X762008Y243532D01*
X764513Y242861D01*
X767107D01*
X769612Y243532D01*
X771857Y244829D01*
X772872Y245844D01*
X774142Y245318D01*
Y183953D01*
X763979Y173789D01*
X763417Y172949D01*
X763220Y171958D01*
Y135537D01*
X761950Y135196D01*
X760991Y136857D01*
X759157Y138691D01*
X756912Y139988D01*
X754407Y140659D01*
X751813D01*
X749308Y139988D01*
X747063Y138691D01*
X745229Y136857D01*
X743932Y134612D01*
X743261Y132107D01*
Y129513D01*
X743932Y127008D01*
X745229Y124763D01*
X747063Y122929D01*
X749308Y121632D01*
X751813Y120961D01*
X754407D01*
X756912Y121632D01*
X759157Y122929D01*
X760991Y124763D01*
X761950Y126424D01*
X763220Y126083D01*
Y92513D01*
X721303Y50596D01*
X531298D01*
X529513Y52381D01*
Y65359D01*
X530783Y65612D01*
X530910Y65304D01*
X532411Y63804D01*
X534371Y62992D01*
X536493D01*
X538453Y63804D01*
X539954Y65304D01*
X540766Y67265D01*
Y69387D01*
X539954Y71347D01*
X538453Y72848D01*
X538022Y73027D01*
Y137376D01*
X539195Y137862D01*
X541359Y135698D01*
X540732Y134612D01*
X540061Y132107D01*
Y129513D01*
X540732Y127008D01*
X542029Y124763D01*
X543863Y122929D01*
X546108Y121632D01*
X548613Y120961D01*
X551207D01*
X553712Y121632D01*
X555957Y122929D01*
X556972Y123944D01*
X558242Y123418D01*
Y87376D01*
X558258Y87296D01*
X557784Y86151D01*
Y84029D01*
X558596Y82069D01*
X560097Y80568D01*
X562057Y79756D01*
X564179D01*
X566139Y80568D01*
X567640Y82069D01*
X568452Y84029D01*
Y86151D01*
X567640Y88111D01*
X566139Y89612D01*
X564179Y90424D01*
X563422D01*
Y137376D01*
X564595Y137862D01*
X566759Y135698D01*
X566132Y134612D01*
X565461Y132107D01*
Y129513D01*
X566132Y127008D01*
X567429Y124763D01*
X569263Y122929D01*
X571508Y121632D01*
X574013Y120961D01*
X576607D01*
X579112Y121632D01*
X581357Y122929D01*
X582372Y123944D01*
X583642Y123418D01*
Y114300D01*
X583839Y113309D01*
X584401Y112469D01*
X587576Y109294D01*
X588416Y108732D01*
X589407Y108535D01*
X713613D01*
X714604Y108732D01*
X715444Y109294D01*
X718619Y112469D01*
X719181Y113309D01*
X719378Y114300D01*
Y123418D01*
X720648Y123944D01*
X721663Y122929D01*
X723908Y121632D01*
X726413Y120961D01*
X729007D01*
X731512Y121632D01*
X733757Y122929D01*
X735591Y124763D01*
X736888Y127008D01*
X737559Y129513D01*
Y132107D01*
X736888Y134612D01*
X735591Y136857D01*
X733757Y138691D01*
X731512Y139988D01*
X729007Y140659D01*
X726413D01*
X723908Y139988D01*
X721663Y138691D01*
X720648Y137676D01*
X719378Y138202D01*
Y153613D01*
X754941Y189177D01*
X755503Y190017D01*
X755700Y191008D01*
Y247984D01*
X756970Y248324D01*
X757929Y246663D01*
D02*
G37*
G36*
X176821Y118057D02*
X177661Y117495D01*
X178652Y117298D01*
X249714D01*
X250380Y116028D01*
X250098Y115620D01*
X150439D01*
Y119410D01*
X157560D01*
X158551Y119608D01*
X159391Y120169D01*
X161067Y121845D01*
X161499Y121666D01*
X163621D01*
X165581Y122478D01*
X167082Y123979D01*
X167674Y125408D01*
X169067Y125810D01*
X176821Y118057D01*
D02*
G37*
G36*
X282398Y137376D02*
Y112198D01*
X280740Y110540D01*
X254936D01*
X254410Y111810D01*
X261419Y118819D01*
X261981Y119659D01*
X262178Y120650D01*
Y123418D01*
X263448Y123944D01*
X264463Y122929D01*
X266708Y121632D01*
X269213Y120961D01*
X271807D01*
X274312Y121632D01*
X276557Y122929D01*
X278391Y124763D01*
X279688Y127008D01*
X280359Y129513D01*
Y132107D01*
X279688Y134612D01*
X279060Y135698D01*
X281225Y137862D01*
X282398Y137376D01*
D02*
G37*
G36*
X592160Y135698D02*
X591532Y134612D01*
X590861Y132107D01*
Y129513D01*
X591532Y127008D01*
X592829Y124763D01*
X594663Y122929D01*
X596908Y121632D01*
X599413Y120961D01*
X602007D01*
X604512Y121632D01*
X606757Y122929D01*
X607772Y123944D01*
X608240Y123900D01*
X609110Y123485D01*
X609239Y122834D01*
X609801Y121994D01*
X616810Y114985D01*
X616284Y113715D01*
X590480D01*
X588822Y115373D01*
Y137376D01*
X589995Y137862D01*
X592160Y135698D01*
D02*
G37*
G36*
X415987Y137815D02*
X415029Y136857D01*
X413732Y134612D01*
X413061Y132107D01*
Y129513D01*
X413732Y127008D01*
X415029Y124763D01*
X416863Y122929D01*
X419108Y121632D01*
X421613Y120961D01*
X424006D01*
Y102491D01*
X423574Y102312D01*
X422074Y100812D01*
X421321Y98995D01*
X420088Y98432D01*
X400100Y118421D01*
Y121307D01*
X401312Y121632D01*
X403557Y122929D01*
X405391Y124763D01*
X406688Y127008D01*
X407359Y129513D01*
Y132107D01*
X406688Y134612D01*
X405391Y136857D01*
X404433Y137815D01*
X404959Y139085D01*
X415461D01*
X415987Y137815D01*
D02*
G37*
%LPC*%
G36*
X509754Y766064D02*
X501396D01*
Y757706D01*
X501614D01*
X503998Y758345D01*
X506136Y759579D01*
X507881Y761324D01*
X509115Y763462D01*
X509754Y765846D01*
Y766064D01*
D02*
G37*
G36*
X499364D02*
X491006D01*
Y765846D01*
X491645Y763462D01*
X492879Y761324D01*
X494624Y759579D01*
X496762Y758345D01*
X499146Y757706D01*
X499364D01*
Y766064D01*
D02*
G37*
G36*
X703607Y736289D02*
X701013D01*
X698508Y735618D01*
X696263Y734321D01*
X694429Y732487D01*
X693132Y730242D01*
X692461Y727737D01*
Y725143D01*
X693132Y722638D01*
X694429Y720393D01*
X696263Y718559D01*
X698508Y717262D01*
X701013Y716591D01*
X703607D01*
X706112Y717262D01*
X708357Y718559D01*
X710191Y720393D01*
X711488Y722638D01*
X712159Y725143D01*
Y727737D01*
X711488Y730242D01*
X710191Y732487D01*
X708357Y734321D01*
X706112Y735618D01*
X703607Y736289D01*
D02*
G37*
G36*
X678207D02*
X675613D01*
X673108Y735618D01*
X670863Y734321D01*
X669029Y732487D01*
X667732Y730242D01*
X667061Y727737D01*
Y725143D01*
X667732Y722638D01*
X669029Y720393D01*
X670863Y718559D01*
X673108Y717262D01*
X675613Y716591D01*
X678207D01*
X680712Y717262D01*
X682957Y718559D01*
X684791Y720393D01*
X686088Y722638D01*
X686759Y725143D01*
Y727737D01*
X686088Y730242D01*
X684791Y732487D01*
X682957Y734321D01*
X680712Y735618D01*
X678207Y736289D01*
D02*
G37*
G36*
X701294Y660089D02*
X701013D01*
X698508Y659418D01*
X696263Y658121D01*
X694429Y656287D01*
X693132Y654042D01*
X692461Y651537D01*
Y651256D01*
X701294D01*
Y660089D01*
D02*
G37*
G36*
Y649224D02*
X692461D01*
Y648943D01*
X693132Y646438D01*
X694429Y644193D01*
X696263Y642359D01*
X698508Y641062D01*
X701013Y640391D01*
X701294D01*
Y649224D01*
D02*
G37*
G36*
X678207Y583889D02*
X675613D01*
X673108Y583218D01*
X670863Y581921D01*
X669029Y580087D01*
X667732Y577842D01*
X667061Y575337D01*
Y572743D01*
X667732Y570238D01*
X669029Y567993D01*
X670863Y566159D01*
X673108Y564862D01*
X675613Y564191D01*
X678207D01*
X680712Y564862D01*
X682957Y566159D01*
X684791Y567993D01*
X686088Y570238D01*
X686759Y572743D01*
Y575337D01*
X686088Y577842D01*
X684791Y580087D01*
X682957Y581921D01*
X680712Y583218D01*
X678207Y583889D01*
D02*
G37*
G36*
X607948Y754634D02*
X605536D01*
Y752222D01*
X606534Y752635D01*
X607535Y753636D01*
X607948Y754634D01*
D02*
G37*
G36*
X603504D02*
X601092D01*
X601505Y753636D01*
X602506Y752635D01*
X603504Y752222D01*
Y754634D01*
D02*
G37*
G36*
X602007Y736289D02*
X601726D01*
Y727456D01*
X610559D01*
Y727737D01*
X609888Y730242D01*
X608591Y732487D01*
X606757Y734321D01*
X604512Y735618D01*
X602007Y736289D01*
D02*
G37*
G36*
X599694D02*
X599413D01*
X596908Y735618D01*
X594663Y734321D01*
X592829Y732487D01*
X591532Y730242D01*
X590861Y727737D01*
Y727456D01*
X599694D01*
Y736289D01*
D02*
G37*
G36*
X627407D02*
X624813D01*
X622308Y735618D01*
X620063Y734321D01*
X618229Y732487D01*
X616932Y730242D01*
X616261Y727737D01*
Y725143D01*
X616932Y722638D01*
X618229Y720393D01*
X620063Y718559D01*
X622308Y717262D01*
X624813Y716591D01*
X627407D01*
X629912Y717262D01*
X632157Y718559D01*
X633991Y720393D01*
X635288Y722638D01*
X635959Y725143D01*
Y727737D01*
X635288Y730242D01*
X633991Y732487D01*
X632157Y734321D01*
X629912Y735618D01*
X627407Y736289D01*
D02*
G37*
G36*
X610559Y725424D02*
X601726D01*
Y716591D01*
X602007D01*
X604512Y717262D01*
X606757Y718559D01*
X608591Y720393D01*
X609888Y722638D01*
X610559Y725143D01*
Y725424D01*
D02*
G37*
G36*
X599694D02*
X590861D01*
Y725143D01*
X591532Y722638D01*
X592829Y720393D01*
X594663Y718559D01*
X596908Y717262D01*
X599413Y716591D01*
X599694D01*
Y725424D01*
D02*
G37*
G36*
X147320Y693113D02*
X145555Y692762D01*
X144058Y691762D01*
X143059Y690265D01*
X142707Y688500D01*
Y675500D01*
X143059Y673735D01*
X144058Y672239D01*
X145555Y671239D01*
X147320Y670888D01*
X149085Y671239D01*
X150582Y672239D01*
X151581Y673735D01*
X151933Y675500D01*
Y688500D01*
X151581Y690265D01*
X150582Y691762D01*
X149085Y692762D01*
X147320Y693113D01*
D02*
G37*
G36*
X148381Y608076D02*
X146259D01*
X144298Y607264D01*
X142798Y605764D01*
X141986Y603803D01*
Y601681D01*
X142798Y599720D01*
X143562Y598957D01*
X144043Y597798D01*
X143674Y597186D01*
X143059Y596265D01*
X142707Y594500D01*
Y581500D01*
X143059Y579735D01*
X144058Y578238D01*
X145555Y577238D01*
X147320Y576887D01*
X149085Y577238D01*
X150582Y578238D01*
X151581Y579735D01*
X151933Y581500D01*
Y594500D01*
X151581Y596265D01*
X150966Y597186D01*
X150597Y597798D01*
X151078Y598957D01*
X151842Y599720D01*
X152654Y601681D01*
Y603803D01*
X151842Y605764D01*
X150342Y607264D01*
X148381Y608076D01*
D02*
G37*
G36*
X83820Y599112D02*
X82055Y598761D01*
X80558Y597761D01*
X79559Y596265D01*
X79207Y594500D01*
Y581500D01*
X79559Y579735D01*
X80558Y578238D01*
X82055Y577238D01*
X83820Y576887D01*
X85585Y577238D01*
X87082Y578238D01*
X88082Y579735D01*
X88433Y581500D01*
Y594500D01*
X88082Y596265D01*
X87082Y597761D01*
X85585Y598761D01*
X83820Y599112D01*
D02*
G37*
G36*
X71120D02*
X69355Y598761D01*
X67858Y597761D01*
X66859Y596265D01*
X66507Y594500D01*
Y581500D01*
X66859Y579735D01*
X67858Y578238D01*
X69355Y577238D01*
X71120Y576887D01*
X72885Y577238D01*
X74382Y578238D01*
X75381Y579735D01*
X75733Y581500D01*
Y594500D01*
X75381Y596265D01*
X74382Y597761D01*
X72885Y598761D01*
X71120Y599112D01*
D02*
G37*
G36*
X134620D02*
X132855Y598761D01*
X131358Y597761D01*
X130358Y596265D01*
X130007Y594500D01*
Y581500D01*
X130358Y579735D01*
X131358Y578238D01*
X132030Y577789D01*
Y572459D01*
X132119Y572015D01*
X132085Y571982D01*
X131273Y570021D01*
Y567899D01*
X132085Y565938D01*
X133586Y564438D01*
X135546Y563626D01*
X137668D01*
X139628Y564438D01*
X141129Y565938D01*
X141941Y567899D01*
Y570021D01*
X141129Y571982D01*
X139628Y573482D01*
X137668Y574294D01*
X137210D01*
Y577789D01*
X137882Y578238D01*
X138882Y579735D01*
X139233Y581500D01*
Y594500D01*
X138882Y596265D01*
X137882Y597761D01*
X136385Y598761D01*
X134620Y599112D01*
D02*
G37*
G36*
X59785Y541465D02*
X48672D01*
Y525335D01*
X59785D01*
Y530810D01*
X71916D01*
Y526376D01*
X87464D01*
Y540424D01*
X71916D01*
Y535990D01*
X59785D01*
Y541465D01*
D02*
G37*
G36*
X60066Y491374D02*
Y483616D01*
X66824D01*
Y491374D01*
X60066D01*
D02*
G37*
G36*
X66824Y481584D02*
X60066D01*
Y473826D01*
X66824D01*
Y481584D01*
D02*
G37*
G36*
X84836Y473328D02*
Y470916D01*
X87248D01*
X86835Y471914D01*
X85834Y472915D01*
X84836Y473328D01*
D02*
G37*
G36*
X82804D02*
X81806Y472915D01*
X80805Y471914D01*
X80392Y470916D01*
X82804D01*
Y473328D01*
D02*
G37*
G36*
Y468884D02*
X80392D01*
X80805Y467886D01*
X81806Y466885D01*
X82804Y466472D01*
Y468884D01*
D02*
G37*
G36*
X60066Y465974D02*
Y458216D01*
X66824D01*
Y465974D01*
X60066D01*
D02*
G37*
G36*
X66824Y456184D02*
X60066D01*
Y448426D01*
X66824D01*
Y456184D01*
D02*
G37*
G36*
X383794Y614389D02*
X383513D01*
X381008Y613718D01*
X378763Y612421D01*
X376929Y610587D01*
X375632Y608341D01*
X374961Y605836D01*
Y605556D01*
X383794D01*
Y614389D01*
D02*
G37*
G36*
Y603524D02*
X374961D01*
Y603243D01*
X375632Y600738D01*
X376929Y598492D01*
X378763Y596659D01*
X381008Y595362D01*
X383513Y594691D01*
X383794D01*
Y603524D01*
D02*
G37*
G36*
X246407Y583889D02*
X246126D01*
Y575056D01*
X254959D01*
Y575337D01*
X254288Y577842D01*
X252991Y580087D01*
X251157Y581921D01*
X248912Y583218D01*
X246407Y583889D01*
D02*
G37*
G36*
X244094D02*
X243813D01*
X241308Y583218D01*
X239063Y581921D01*
X237229Y580087D01*
X235932Y577842D01*
X235261Y575337D01*
Y575056D01*
X244094D01*
Y583889D01*
D02*
G37*
G36*
X254959Y573024D02*
X246126D01*
Y564191D01*
X246407D01*
X248912Y564862D01*
X251157Y566159D01*
X252991Y567993D01*
X254288Y570238D01*
X254959Y572743D01*
Y573024D01*
D02*
G37*
G36*
X244094D02*
X235261D01*
Y572743D01*
X235932Y570238D01*
X237229Y567993D01*
X239063Y566159D01*
X241308Y564862D01*
X243813Y564191D01*
X244094D01*
Y573024D01*
D02*
G37*
G36*
X251206Y482218D02*
Y479806D01*
X253618D01*
X253205Y480804D01*
X252204Y481805D01*
X251206Y482218D01*
D02*
G37*
G36*
X249174D02*
X248176Y481805D01*
X247175Y480804D01*
X246762Y479806D01*
X249174D01*
Y482218D01*
D02*
G37*
G36*
X253618Y477774D02*
X251206D01*
Y475362D01*
X252204Y475775D01*
X253205Y476776D01*
X253618Y477774D01*
D02*
G37*
G36*
X249174D02*
X246762D01*
X247175Y476776D01*
X248176Y475775D01*
X249174Y475362D01*
Y477774D01*
D02*
G37*
G36*
X251206Y418718D02*
Y416306D01*
X253618D01*
X253205Y417304D01*
X252204Y418305D01*
X251206Y418718D01*
D02*
G37*
G36*
X253618Y414274D02*
X251206D01*
Y411862D01*
X252204Y412275D01*
X253205Y413276D01*
X253618Y414274D01*
D02*
G37*
G36*
X242361Y542798D02*
X240239D01*
X238279Y541986D01*
X236778Y540485D01*
X235966Y538525D01*
Y536403D01*
X236778Y534442D01*
X238279Y532942D01*
X238710Y532763D01*
Y418721D01*
X238279Y418542D01*
X236778Y417042D01*
X235966Y415081D01*
Y412959D01*
X236778Y410998D01*
X238279Y409498D01*
X240239Y408686D01*
X242361D01*
X244321Y409498D01*
X245822Y410998D01*
X246359Y412296D01*
X247807Y412644D01*
X248176Y412275D01*
X249174Y411862D01*
Y415290D01*
Y418718D01*
X248176Y418305D01*
X247175Y417304D01*
X247132Y417198D01*
X246353Y417105D01*
X245730Y417133D01*
X244321Y418542D01*
X243890Y418721D01*
Y532763D01*
X244321Y532942D01*
X245822Y534442D01*
X246634Y536403D01*
Y538525D01*
X245822Y540485D01*
X244321Y541986D01*
X242361Y542798D01*
D02*
G37*
G36*
X300736Y418718D02*
Y416306D01*
X303148D01*
X302735Y417304D01*
X301734Y418305D01*
X300736Y418718D01*
D02*
G37*
G36*
X298704D02*
X297706Y418305D01*
X296705Y417304D01*
X296292Y416306D01*
X298704D01*
Y418718D01*
D02*
G37*
G36*
X303148Y414274D02*
X300736D01*
Y411862D01*
X301734Y412275D01*
X302735Y413276D01*
X303148Y414274D01*
D02*
G37*
G36*
X298704D02*
X296292D01*
X296705Y413276D01*
X297706Y412275D01*
X298704Y411862D01*
Y414274D01*
D02*
G37*
G36*
X336296Y380618D02*
Y378206D01*
X338708D01*
X338295Y379204D01*
X337294Y380205D01*
X336296Y380618D01*
D02*
G37*
G36*
X334264D02*
X333266Y380205D01*
X332265Y379204D01*
X331852Y378206D01*
X334264D01*
Y380618D01*
D02*
G37*
G36*
X338708Y376174D02*
X336296D01*
Y373762D01*
X337294Y374175D01*
X338295Y375176D01*
X338708Y376174D01*
D02*
G37*
G36*
X334264D02*
X331852D01*
X332265Y375176D01*
X333266Y374175D01*
X334264Y373762D01*
Y376174D01*
D02*
G37*
G36*
X144526Y492378D02*
Y489966D01*
X146938D01*
X146525Y490964D01*
X145524Y491965D01*
X144526Y492378D01*
D02*
G37*
G36*
X142494D02*
X141496Y491965D01*
X140495Y490964D01*
X140082Y489966D01*
X142494D01*
Y492378D01*
D02*
G37*
G36*
X146938Y487934D02*
X140082D01*
X140495Y486936D01*
X141406Y486025D01*
X141462Y485818D01*
X141467Y485576D01*
X141391Y484604D01*
X140220Y483821D01*
X139211Y482312D01*
X138857Y480531D01*
Y473565D01*
X143510D01*
X148163D01*
Y480531D01*
X147809Y482312D01*
X146800Y483821D01*
X145629Y484604D01*
X145553Y485576D01*
X145558Y485818D01*
X145614Y486025D01*
X146525Y486936D01*
X146938Y487934D01*
D02*
G37*
G36*
X107696Y549528D02*
Y547116D01*
X110108D01*
X109695Y548114D01*
X108694Y549115D01*
X107696Y549528D01*
D02*
G37*
G36*
X105664D02*
X104666Y549115D01*
X103665Y548114D01*
X103252Y547116D01*
X105664D01*
Y549528D01*
D02*
G37*
G36*
X110108Y545084D02*
X107696D01*
Y542672D01*
X108694Y543085D01*
X109695Y544086D01*
X110108Y545084D01*
D02*
G37*
G36*
X105664D02*
X103252D01*
X103665Y544086D01*
X104666Y543085D01*
X105664Y542672D01*
Y545084D01*
D02*
G37*
G36*
X110964Y540424D02*
X104206D01*
Y534416D01*
X110964D01*
Y540424D01*
D02*
G37*
G36*
Y532384D02*
X104206D01*
Y526376D01*
X110964D01*
Y532384D01*
D02*
G37*
G36*
X524256Y482218D02*
Y479806D01*
X526668D01*
X526255Y480804D01*
X525254Y481805D01*
X524256Y482218D01*
D02*
G37*
G36*
X522224D02*
X521226Y481805D01*
X520225Y480804D01*
X519812Y479806D01*
X522224D01*
Y482218D01*
D02*
G37*
G36*
X526668Y477774D02*
X524256D01*
Y475362D01*
X525254Y475775D01*
X526255Y476776D01*
X526668Y477774D01*
D02*
G37*
G36*
X522224D02*
X519812D01*
X520225Y476776D01*
X521226Y475775D01*
X522224Y475362D01*
Y477774D01*
D02*
G37*
G36*
X523258Y456090D02*
Y453677D01*
X525670D01*
X525256Y454676D01*
X524256Y455676D01*
X523258Y456090D01*
D02*
G37*
G36*
X521226D02*
X520227Y455676D01*
X519227Y454676D01*
X518814Y453677D01*
X521226D01*
Y456090D01*
D02*
G37*
G36*
X525670Y451645D02*
X523258D01*
Y449233D01*
X524256Y449647D01*
X525256Y450647D01*
X525670Y451645D01*
D02*
G37*
G36*
X521226D02*
X518814D01*
X519227Y450647D01*
X520227Y449647D01*
X521226Y449233D01*
Y451645D01*
D02*
G37*
G36*
X524256Y433958D02*
Y431546D01*
X526668D01*
X526255Y432544D01*
X525254Y433545D01*
X524256Y433958D01*
D02*
G37*
G36*
X522224D02*
X521226Y433545D01*
X520225Y432544D01*
X519812Y431546D01*
X522224D01*
Y433958D01*
D02*
G37*
G36*
X526668Y429514D02*
X524256D01*
Y427102D01*
X525254Y427515D01*
X526255Y428516D01*
X526668Y429514D01*
D02*
G37*
G36*
X522224D02*
X519812D01*
X520225Y428516D01*
X521226Y427515D01*
X522224Y427102D01*
Y429514D01*
D02*
G37*
G36*
X524636Y409828D02*
X523638Y409415D01*
X522637Y408414D01*
X522224Y407416D01*
X524636D01*
Y409828D01*
D02*
G37*
G36*
Y405384D02*
X522224D01*
X522637Y404386D01*
X523638Y403385D01*
X524636Y402972D01*
Y405384D01*
D02*
G37*
G36*
X524256Y385698D02*
Y383286D01*
X526668D01*
X526255Y384284D01*
X525254Y385285D01*
X524256Y385698D01*
D02*
G37*
G36*
X522224D02*
X521226Y385285D01*
X520225Y384284D01*
X519812Y383286D01*
X522224D01*
Y385698D01*
D02*
G37*
G36*
X526668Y381254D02*
X524256D01*
Y378842D01*
X525254Y379255D01*
X526255Y380256D01*
X526668Y381254D01*
D02*
G37*
G36*
X522224D02*
X519812D01*
X520225Y380256D01*
X521226Y379255D01*
X522224Y378842D01*
Y381254D01*
D02*
G37*
G36*
X524256Y361568D02*
Y359156D01*
X526668D01*
X526255Y360154D01*
X525254Y361155D01*
X524256Y361568D01*
D02*
G37*
G36*
X522224D02*
X521226Y361155D01*
X520225Y360154D01*
X519812Y359156D01*
X522224D01*
Y361568D01*
D02*
G37*
G36*
X526668Y357124D02*
X524256D01*
Y354712D01*
X525254Y355125D01*
X526255Y356126D01*
X526668Y357124D01*
D02*
G37*
G36*
X522224D02*
X519812D01*
X520225Y356126D01*
X521226Y355125D01*
X522224Y354712D01*
Y357124D01*
D02*
G37*
G36*
X322607Y293059D02*
X320013D01*
X317508Y292388D01*
X315263Y291091D01*
X313429Y289257D01*
X312132Y287012D01*
X311461Y284507D01*
Y281913D01*
X312132Y279408D01*
X313429Y277163D01*
X315263Y275329D01*
X317508Y274032D01*
X320013Y273361D01*
X322607D01*
X325112Y274032D01*
X327357Y275329D01*
X329191Y277163D01*
X330488Y279408D01*
X331159Y281913D01*
Y284507D01*
X330488Y287012D01*
X329191Y289257D01*
X327357Y291091D01*
X325112Y292388D01*
X322607Y293059D01*
D02*
G37*
G36*
X297207D02*
X294613D01*
X292108Y292388D01*
X289863Y291091D01*
X288029Y289257D01*
X286732Y287012D01*
X286061Y284507D01*
Y281913D01*
X286732Y279408D01*
X288029Y277163D01*
X289863Y275329D01*
X292108Y274032D01*
X294613Y273361D01*
X297207D01*
X299712Y274032D01*
X301957Y275329D01*
X303791Y277163D01*
X305088Y279408D01*
X305759Y281913D01*
Y284507D01*
X305088Y287012D01*
X303791Y289257D01*
X301957Y291091D01*
X299712Y292388D01*
X297207Y293059D01*
D02*
G37*
G36*
X703607D02*
X701013D01*
X698508Y292388D01*
X696263Y291091D01*
X694429Y289257D01*
X693132Y287012D01*
X692461Y284507D01*
Y281913D01*
X693132Y279408D01*
X694429Y277163D01*
X696263Y275329D01*
X698508Y274032D01*
X701013Y273361D01*
X703607D01*
X706112Y274032D01*
X708357Y275329D01*
X710191Y277163D01*
X711488Y279408D01*
X712159Y281913D01*
Y284507D01*
X711488Y287012D01*
X710191Y289257D01*
X708357Y291091D01*
X706112Y292388D01*
X703607Y293059D01*
D02*
G37*
G36*
X690907Y262559D02*
X690626D01*
Y253726D01*
X699459D01*
Y254007D01*
X698788Y256512D01*
X697491Y258758D01*
X695657Y260591D01*
X693412Y261888D01*
X690907Y262559D01*
D02*
G37*
G36*
X665507D02*
X665226D01*
Y253726D01*
X674059D01*
Y254007D01*
X673388Y256512D01*
X672091Y258758D01*
X670257Y260591D01*
X668012Y261888D01*
X665507Y262559D01*
D02*
G37*
G36*
X688594D02*
X688313D01*
X685808Y261888D01*
X683563Y260591D01*
X681729Y258758D01*
X680432Y256512D01*
X679761Y254007D01*
Y253726D01*
X688594D01*
Y262559D01*
D02*
G37*
G36*
X663194D02*
X662913D01*
X660408Y261888D01*
X658163Y260591D01*
X656329Y258758D01*
X655032Y256512D01*
X654361Y254007D01*
Y253726D01*
X663194D01*
Y262559D01*
D02*
G37*
G36*
X716307D02*
X713713D01*
X711208Y261888D01*
X708963Y260591D01*
X707129Y258758D01*
X705832Y256512D01*
X705161Y254007D01*
Y251413D01*
X705832Y248909D01*
X707129Y246663D01*
X708963Y244829D01*
X711208Y243532D01*
X713713Y242861D01*
X716307D01*
X718812Y243532D01*
X721057Y244829D01*
X722891Y246663D01*
X724188Y248909D01*
X724859Y251413D01*
Y254007D01*
X724188Y256512D01*
X722891Y258758D01*
X721057Y260591D01*
X718812Y261888D01*
X716307Y262559D01*
D02*
G37*
G36*
X699459Y251694D02*
X690626D01*
Y242861D01*
X690907D01*
X693412Y243532D01*
X695657Y244829D01*
X697491Y246663D01*
X698788Y248909D01*
X699459Y251413D01*
Y251694D01*
D02*
G37*
G36*
X688594D02*
X679761D01*
Y251413D01*
X680432Y248909D01*
X681729Y246663D01*
X683563Y244829D01*
X685808Y243532D01*
X688313Y242861D01*
X688594D01*
Y251694D01*
D02*
G37*
G36*
X674059D02*
X665226D01*
Y242861D01*
X665507D01*
X668012Y243532D01*
X670257Y244829D01*
X672091Y246663D01*
X673388Y248909D01*
X674059Y251413D01*
Y251694D01*
D02*
G37*
G36*
X663194D02*
X654361D01*
Y251413D01*
X655032Y248909D01*
X656329Y246663D01*
X658163Y244829D01*
X660408Y243532D01*
X662913Y242861D01*
X663194D01*
Y251694D01*
D02*
G37*
G36*
X710808Y224916D02*
X709809Y224503D01*
X708809Y223502D01*
X708396Y222504D01*
X710808D01*
Y224916D01*
D02*
G37*
G36*
X373407Y216859D02*
X373126D01*
Y208026D01*
X381959D01*
Y208307D01*
X381288Y210812D01*
X379991Y213057D01*
X378157Y214891D01*
X375912Y216188D01*
X373407Y216859D01*
D02*
G37*
G36*
X371094D02*
X370813D01*
X368308Y216188D01*
X366063Y214891D01*
X364229Y213057D01*
X362932Y210812D01*
X362261Y208307D01*
Y208026D01*
X371094D01*
Y216859D01*
D02*
G37*
G36*
X381959Y205994D02*
X373126D01*
Y197161D01*
X373407D01*
X375912Y197832D01*
X378157Y199129D01*
X379991Y200963D01*
X381288Y203208D01*
X381959Y205713D01*
Y205994D01*
D02*
G37*
G36*
X371094D02*
X362261D01*
Y205713D01*
X362932Y203208D01*
X364229Y200963D01*
X366063Y199129D01*
X368308Y197832D01*
X370813Y197161D01*
X371094D01*
Y205994D01*
D02*
G37*
G36*
X474739Y208157D02*
Y205745D01*
X477151D01*
X476738Y206743D01*
X475737Y207743D01*
X474739Y208157D01*
D02*
G37*
G36*
X472707D02*
X471709Y207743D01*
X470708Y206743D01*
X470295Y205745D01*
X472707D01*
Y208157D01*
D02*
G37*
G36*
X477151Y203713D02*
X474739D01*
Y201301D01*
X475737Y201714D01*
X476738Y202714D01*
X477151Y203713D01*
D02*
G37*
G36*
X472707D02*
X470295D01*
X470708Y202714D01*
X471709Y201714D01*
X472707Y201301D01*
Y203713D01*
D02*
G37*
%LPD*%
D15*
X74420Y756920D02*
D03*
X169420D02*
D03*
D16*
X59050Y482600D02*
D03*
X42550D02*
D03*
Y457200D02*
D03*
X59050D02*
D03*
D17*
X71120Y426720D02*
D03*
X54103D02*
D03*
X37211Y533400D02*
D03*
X54229D02*
D03*
X143891Y548640D02*
D03*
X160909D02*
D03*
D18*
X127000Y521330D02*
D03*
Y504830D02*
D03*
X152400Y521330D02*
D03*
Y504830D02*
D03*
X213360Y723270D02*
D03*
Y739770D02*
D03*
X20320Y723270D02*
D03*
Y739770D02*
D03*
D19*
X79690Y533400D02*
D03*
X103190D02*
D03*
D20*
X156210Y472549D02*
D03*
D21*
X143510D02*
D03*
X130810D02*
D03*
X118110D02*
D03*
Y421531D02*
D03*
X130810D02*
D03*
X143510D02*
D03*
X156210D02*
D03*
D22*
X172720Y682000D02*
D03*
X160020D02*
D03*
X147320D02*
D03*
X134620D02*
D03*
X121920D02*
D03*
X109220D02*
D03*
X96520D02*
D03*
X83820D02*
D03*
X71120D02*
D03*
Y588000D02*
D03*
X83820D02*
D03*
X96520D02*
D03*
X109220D02*
D03*
X121920D02*
D03*
X134620D02*
D03*
X147320D02*
D03*
X160020D02*
D03*
X172720D02*
D03*
D29*
X63500Y386080D02*
D03*
X474980Y767080D02*
D03*
X389890D02*
D03*
D30*
X88900Y386080D02*
D03*
X500380Y767080D02*
D03*
X415290D02*
D03*
D34*
X11430Y549668D02*
Y551180D01*
X7460Y545698D02*
X11430Y549668D01*
X7460Y196490D02*
Y545698D01*
X11430Y191008D02*
Y192520D01*
X7460Y196490D02*
X11430Y192520D01*
X283433Y397987D02*
Y468809D01*
X256032Y370586D02*
X283433Y397987D01*
X185928Y577826D02*
X313660Y705559D01*
X319434D01*
X320503Y706628D01*
X185928Y398780D02*
Y577826D01*
X447294Y376428D02*
Y412406D01*
X443230Y416470D02*
X447294Y412406D01*
X449580Y558546D02*
X459175Y568141D01*
X443230Y490737D02*
X446024Y493531D01*
X443230Y416470D02*
Y490737D01*
X449580Y419100D02*
Y558546D01*
X446024Y571754D02*
X448310Y574040D01*
X446024Y493531D02*
Y571754D01*
X480060Y408686D02*
X513588Y442214D01*
X480060Y292225D02*
Y408686D01*
X423418Y91440D02*
X478870D01*
X480060Y292225D02*
X484575Y287710D01*
X488245Y120847D02*
Y289069D01*
X478870Y91440D02*
X484575Y97145D01*
Y287710D01*
X486410Y290904D02*
X488245Y289069D01*
X486410Y290904D02*
Y393700D01*
X488245Y120847D02*
X503936Y105156D01*
X540766Y499528D02*
X543560Y502322D01*
X537210Y378587D02*
X538279Y377518D01*
X543560Y502322D02*
Y528411D01*
X540766Y473202D02*
Y499528D01*
X534416Y475578D02*
X537210Y478372D01*
X534416Y429260D02*
Y475578D01*
X538931Y533040D02*
X543560Y528411D01*
X510032Y294132D02*
X530860Y314960D01*
X537210Y478372D02*
Y504952D01*
X530860Y314960D02*
Y564642D01*
X538279Y373915D02*
X538988Y373206D01*
X540512Y472948D02*
X540766Y473202D01*
X530860Y564642D02*
X535375Y569157D01*
X534416Y429260D02*
X549910Y413766D01*
X538279Y373915D02*
Y377518D01*
X538988Y141732D02*
Y373206D01*
X729408Y248216D02*
X729494Y248802D01*
Y251494D01*
X722694Y225893D02*
X729408Y248216D01*
X729492Y251496D02*
X729494Y251494D01*
X729492Y252211D02*
X729492Y252211D01*
X729492Y252211D02*
Y257046D01*
X729488Y257049D02*
Y267970D01*
Y257049D02*
X729492Y257046D01*
X729492Y251496D02*
Y252211D01*
X713717Y216916D02*
X722694Y225893D01*
X691388Y196516D02*
X691388Y197358D01*
X692578Y198548D01*
X713717Y216916D01*
X691388Y127254D02*
Y196516D01*
X488188Y697738D02*
Y730883D01*
X484575Y568325D02*
Y743865D01*
X491280Y733976D02*
Y750780D01*
X488188Y730883D02*
X491280Y733976D01*
X484575Y743865D02*
X484930Y744220D01*
X474980Y767080D02*
X491280Y750780D01*
X635127Y760730D02*
X662432Y733425D01*
X584200Y760730D02*
X635127D01*
X549910Y726440D02*
X584200Y760730D01*
X612140Y328930D02*
Y377438D01*
X630555Y315595D02*
X631190Y314960D01*
X630555Y315595D02*
Y399831D01*
X624078Y307086D02*
Y407670D01*
X630555Y399831D02*
X715010Y484286D01*
X624078Y307086D02*
X637032Y294132D01*
X624078Y407670D02*
X662432Y446024D01*
X610870Y378708D02*
X612140Y377438D01*
X610870Y378708D02*
Y414528D01*
X604520Y314960D02*
Y439674D01*
Y314960D02*
X611632Y307848D01*
X571246Y472948D02*
X604520Y439674D01*
X610870Y414528D02*
X639572Y443230D01*
X542036Y435610D02*
X561461D01*
X564255Y438404D01*
X583438D01*
X538931Y533040D02*
Y588461D01*
X459175Y568141D02*
Y578540D01*
X456381Y581334D02*
X459175Y578540D01*
X456381Y581334D02*
Y590550D01*
X462788Y546538D02*
X484575Y568325D01*
X462731Y715461D02*
X473710Y726440D01*
X462731Y559619D02*
Y715461D01*
X403860Y312420D02*
Y479896D01*
X365760Y440690D02*
Y509016D01*
X357632Y526124D02*
Y584200D01*
Y526124D02*
X403860Y479896D01*
X241300Y414020D02*
Y537464D01*
X134620Y572459D02*
Y588000D01*
Y572459D02*
X136607Y570472D01*
Y568960D02*
Y570472D01*
X353060Y381762D02*
Y454660D01*
Y381762D02*
X357632Y377190D01*
X346710Y359410D02*
Y574040D01*
X270510Y283210D02*
X346710Y359410D01*
X331470Y238760D02*
X357632Y264922D01*
Y377190D01*
X361188Y243332D02*
Y392430D01*
X374918Y406160D01*
X330200Y199390D02*
Y223520D01*
X377073Y221545D02*
X386588Y231060D01*
X347569Y229870D02*
X355894Y221545D01*
X377073D01*
X304800Y173990D02*
X330200Y199390D01*
X326390Y229870D02*
X347569D01*
X259588Y163068D02*
X326390Y229870D01*
X386588Y231060D02*
Y377698D01*
X346943Y170631D02*
X394986D01*
X303784Y164084D02*
X350087D01*
X394986Y170631D02*
X408432Y184077D01*
X398822Y167075D02*
X411988Y180241D01*
X270510Y130810D02*
X303784Y164084D01*
X279146Y150876D02*
X295910Y167640D01*
X353078Y167075D02*
X398822D01*
X350087Y164084D02*
X353078Y167075D01*
X295910Y167640D02*
X343952D01*
X346943Y170631D01*
X259588Y120650D02*
Y163068D01*
X157560Y122000D02*
X162560Y127000D01*
X142700Y142000D02*
X156540D01*
X178652Y119888D02*
X252095D01*
X142700Y122000D02*
X157560D01*
X156540Y142000D02*
X178652Y119888D01*
X488188Y489458D02*
Y496824D01*
X473710Y283210D02*
Y474980D01*
X178308Y622046D02*
X245110Y688848D01*
X172720Y616458D02*
X178308Y622046D01*
X437331Y160458D02*
Y181299D01*
X426595Y127125D02*
X433832Y119888D01*
X71120Y409575D02*
Y426720D01*
Y406146D02*
Y409575D01*
X158242Y341317D02*
Y352329D01*
X361188Y243332D02*
X372110Y232410D01*
X551688Y303276D02*
Y355530D01*
Y303276D02*
X560832Y294132D01*
Y87376D02*
Y294132D01*
Y87376D02*
X563118Y85090D01*
X130810Y458978D02*
Y472549D01*
Y458978D02*
X161925D01*
X165862Y462915D01*
Y535304D01*
X160909Y540258D02*
X165862Y535304D01*
X160909Y540258D02*
Y548640D01*
X179578Y405130D02*
Y434975D01*
X176403Y438150D02*
X179578Y434975D01*
X151638Y438150D02*
X176403D01*
X130810Y458978D02*
X151638Y438150D01*
X53848Y115824D02*
X67564Y102108D01*
X53848Y115824D02*
Y173148D01*
X62700Y182000D01*
X259588Y267716D02*
X301244Y226060D01*
X259588Y267716D02*
Y353568D01*
X290322Y384302D01*
Y526415D01*
X332232Y568325D01*
Y581025D01*
X328352Y584905D02*
X332232Y581025D01*
X314268Y584905D02*
X328352D01*
X310388Y581025D02*
X314268Y584905D01*
X310388Y571881D02*
Y581025D01*
X301625Y563118D02*
X310388Y571881D01*
X281432Y563118D02*
X301625D01*
X270510Y574040D02*
X281432Y563118D01*
X665480Y380746D02*
X727710Y318516D01*
Y283210D02*
Y318516D01*
X655193Y304927D02*
X676910Y283210D01*
X655193Y304927D02*
Y379222D01*
X147320Y588000D02*
Y602742D01*
X715010Y713740D02*
X727710Y726440D01*
X715010Y484286D02*
Y713740D01*
X524510Y252222D02*
Y283210D01*
X535375Y569157D02*
Y580701D01*
X529336Y586740D02*
X535375Y580701D01*
X529336Y586740D02*
Y636270D01*
X529590Y636524D01*
X541782D01*
X575310Y602996D01*
Y574040D02*
Y602996D01*
X547370Y601980D02*
X575310Y574040D01*
X499110Y130810D02*
X526923Y102997D01*
Y51308D02*
Y102997D01*
Y51308D02*
X530225Y48006D01*
X722376D01*
X765810Y91440D01*
Y171958D01*
X776732Y182880D01*
Y267970D01*
X765810Y278892D02*
X776732Y267970D01*
X765810Y278892D02*
Y368503D01*
X405384Y743966D02*
X422910Y726440D01*
X336423Y743966D02*
X405384D01*
X332232Y739775D02*
X336423Y743966D01*
X332232Y717982D02*
Y739775D01*
Y717982D02*
X399345Y650869D01*
Y593598D02*
Y650869D01*
Y593598D02*
X408432Y584511D01*
Y565150D02*
Y584511D01*
Y565150D02*
X418592Y554990D01*
Y440570D02*
Y554990D01*
X640588Y167132D02*
X676910Y130810D01*
X640588Y167132D02*
Y294132D01*
X648843Y302387D01*
Y406273D01*
X665734Y423164D01*
X425196Y481838D02*
Y553847D01*
X411988Y567055D02*
X425196Y553847D01*
X411988Y567055D02*
Y587756D01*
X421132Y596900D01*
Y634111D01*
X335788Y719455D02*
X421132Y634111D01*
X335788Y719455D02*
Y733425D01*
X339725Y737362D01*
X386588D01*
X397510Y726440D01*
X372110D02*
X412496Y686054D01*
X535686Y591706D02*
Y630174D01*
Y591706D02*
X538931Y588461D01*
X346710Y726440D02*
X433832Y639318D01*
Y297631D02*
Y639318D01*
Y297631D02*
X437331Y294132D01*
Y160458D02*
X443738Y154051D01*
X662432Y446024D02*
Y733425D01*
X637032Y198882D02*
Y294132D01*
X627888Y189738D02*
X637032Y198882D01*
X102700Y195707D02*
Y202000D01*
Y195707D02*
X112268Y186139D01*
Y177165D02*
Y186139D01*
Y177165D02*
X117475Y171958D01*
X150622D01*
X175260Y196596D01*
X433832Y119888D02*
X455295D01*
X462788Y127381D01*
Y546538D01*
X353371Y588461D02*
X357632Y584200D01*
X310331Y588461D02*
X353371D01*
X295910Y574040D02*
X310331Y588461D01*
X96520Y588000D02*
Y599440D01*
X102616Y599694D01*
X639572Y443230D02*
Y714502D01*
X651510Y726440D01*
X93726Y310974D02*
X102700Y302000D01*
X93726Y310974D02*
Y349250D01*
X97028Y352552D01*
X139700D01*
X185928Y398780D01*
X142700Y162000D02*
X184150D01*
X188722Y166572D01*
Y264414D01*
X238506Y314198D01*
Y385953D01*
X248285Y395732D01*
X142700Y202000D02*
X157734Y217034D01*
Y270283D01*
X229843Y342392D01*
X152146Y311912D02*
X162306Y322072D01*
X137795Y311912D02*
X152146D01*
X133858Y307975D02*
X137795Y311912D01*
X133858Y250842D02*
Y307975D01*
Y250842D02*
X142700Y242000D01*
Y262000D02*
Y268478D01*
X172974Y298752D01*
Y348234D01*
X199898Y375158D01*
X228854D01*
X122700Y142000D02*
X133858Y130842D01*
Y113284D02*
Y130842D01*
Y113284D02*
X134112Y113030D01*
X251968D01*
X259588Y120650D01*
X408432Y184077D02*
Y294132D01*
X392938Y309626D02*
X408432Y294132D01*
X392938Y309626D02*
Y370840D01*
X92710Y253238D02*
Y272010D01*
X102700Y282000D01*
X52578Y292100D02*
Y375158D01*
X63500Y386080D01*
X411988Y180241D02*
Y547523D01*
X397510Y562001D02*
X411988Y547523D01*
X397510Y562001D02*
Y574040D01*
Y588398D01*
X395789Y590119D02*
X397510Y588398D01*
X395789Y590119D02*
Y611321D01*
X383286Y623824D02*
X395789Y611321D01*
X254000Y623824D02*
X383286D01*
X189484Y559308D02*
X254000Y623824D01*
X189484Y388784D02*
Y559308D01*
X142700Y342000D02*
X189484Y388784D01*
X109220Y588000D02*
Y622046D01*
X121920Y550672D02*
Y588000D01*
Y550672D02*
X135128Y537464D01*
X37211Y533400D02*
Y578232D01*
X128270Y669290D01*
Y698500D01*
X132588Y702818D01*
X174625D01*
X178308Y699135D01*
Y622046D02*
Y699135D01*
X172720Y588000D02*
Y616458D01*
X245110Y688848D02*
Y726440D01*
X366014Y580136D02*
X372110Y574040D01*
X366014Y580136D02*
Y581914D01*
X348545Y599383D02*
X366014Y581914D01*
X348545Y599383D02*
Y612775D01*
X344862Y616458D02*
X348545Y612775D01*
X258064Y616458D02*
X344862D01*
X226822Y585216D02*
X258064Y616458D01*
X226822Y420910D02*
Y585216D01*
X158242Y352329D02*
X226822Y420910D01*
X142700Y322000D02*
X158242Y337542D01*
X88900Y386080D02*
X135890D01*
X149098Y399288D01*
Y434975D01*
X144653Y439420D02*
X149098Y434975D01*
X61723Y439420D02*
X144653D01*
X54103Y431800D02*
X61723Y439420D01*
X54103Y426720D02*
Y431800D01*
X540512Y472948D02*
X571246D01*
X611632Y123825D02*
Y307848D01*
Y123825D02*
X619068Y116389D01*
X687889D01*
X702310Y130810D01*
X473710Y474980D02*
X488188Y489458D01*
X448310Y726440D02*
Y771779D01*
X454025Y777494D01*
X710438D01*
X738632Y749300D01*
Y277114D02*
Y749300D01*
X729488Y267970D02*
X738632Y277114D01*
X684079Y119945D02*
X691388Y127254D01*
X636975Y119945D02*
X684079D01*
X626110Y130810D02*
X636975Y119945D01*
X538988Y141732D02*
X549910Y130810D01*
X589788Y141732D02*
X600710Y130810D01*
X589788Y141732D02*
Y432054D01*
X583438Y438404D02*
X589788Y432054D01*
X549910Y413766D02*
X577850D01*
X586232Y405384D01*
Y114300D02*
Y405384D01*
Y114300D02*
X589407Y111125D01*
X713613D01*
X716788Y114300D01*
Y154686D01*
X753110Y191008D01*
Y283210D01*
X160020Y578358D02*
Y588000D01*
X143891Y562229D02*
X160020Y578358D01*
X143891Y548640D02*
Y562229D01*
X172720Y642366D02*
Y682000D01*
X165608Y635254D02*
X172720Y642366D01*
X165608Y574802D02*
Y635254D01*
X152400Y561594D02*
X165608Y574802D01*
X152400Y542036D02*
Y561594D01*
Y542036D02*
X162306Y532130D01*
Y491998D02*
Y532130D01*
X156210Y485902D02*
X162306Y491998D01*
X156210Y472549D02*
Y485902D01*
X575310Y726440D02*
X611632Y690118D01*
Y533146D02*
Y690118D01*
X513588Y715518D02*
X524510Y726440D01*
X513588Y442214D02*
Y715518D01*
X397510Y117348D02*
X423418Y91440D01*
X397510Y117348D02*
Y130810D01*
X256032Y123825D02*
Y370586D01*
X252095Y119888D02*
X256032Y123825D01*
X96393Y222000D02*
X102700D01*
X93726Y219333D02*
X96393Y222000D01*
X93726Y107950D02*
Y219333D01*
Y107950D02*
X103886Y97790D01*
X426595D02*
Y127125D01*
X422910Y130810D02*
X426595Y127125D01*
X102700Y162000D02*
X113522Y151178D01*
Y111125D02*
Y151178D01*
Y111125D02*
X116697Y107950D01*
X281813D01*
X284988Y111125D01*
Y139700D01*
X288798Y143510D01*
X376407D01*
X381684Y148787D01*
X404819D01*
X437331Y181299D01*
Y294132D01*
X410464Y166116D02*
X433775Y189427D01*
Y288925D01*
X425450Y297250D02*
X433775Y288925D01*
X425450Y297250D02*
Y425958D01*
X437445Y715575D02*
X448310Y726440D01*
X437445Y403295D02*
Y715575D01*
Y403295D02*
X440182Y400558D01*
X487426Y430530D02*
X489712Y432816D01*
X495300D01*
X499110Y436626D01*
Y574040D01*
X102700Y342000D02*
X112776Y331924D01*
Y196723D02*
Y331924D01*
Y196723D02*
X117475Y192024D01*
X146050D01*
X160528Y206502D01*
X600710Y574040D02*
Y583692D01*
X537210Y647192D02*
X600710Y583692D01*
X537210Y647192D02*
Y735584D01*
X535432Y737362D02*
X537210Y735584D01*
X517525Y737362D02*
X535432D01*
X513588Y733425D02*
X517525Y737362D01*
X513588Y723138D02*
Y733425D01*
X488188Y697738D02*
X513588Y723138D01*
X488188Y496824D02*
Y697738D01*
X233680Y142240D02*
X245110Y130810D01*
X233680Y142240D02*
Y294380D01*
X245110Y305810D01*
Y377444D01*
X254635Y386969D01*
Y401828D01*
X254381Y402082D02*
X254635Y401828D01*
X219007Y402082D02*
X254381D01*
X158242Y341317D02*
X219007Y402082D01*
X158242Y337542D02*
Y341317D01*
X179324Y298318D02*
Y335661D01*
X152654Y271648D02*
X179324Y298318D01*
X152654Y231954D02*
Y271648D01*
X142700Y222000D02*
X152654Y231954D01*
X173228Y270764D02*
X228854Y326390D01*
X173228Y206375D02*
Y270764D01*
X159016Y192163D02*
X173228Y206375D01*
X152863Y192163D02*
X159016D01*
X142700Y182000D02*
X152863Y192163D01*
X245110Y283210D02*
Y299079D01*
X248666Y302635D01*
Y370332D01*
X258572Y380238D01*
Y511302D01*
X321310Y574040D01*
X564388Y141732D02*
X575310Y130810D01*
X564388Y141732D02*
Y394462D01*
X535432Y68326D02*
Y288925D01*
X530225Y294132D02*
X535432Y288925D01*
X510032Y294132D02*
X530225D01*
X499110Y283210D02*
X510032Y294132D01*
X109220Y573786D02*
Y588000D01*
X94234Y558800D02*
X109220Y573786D01*
X94234Y470154D02*
Y558800D01*
X68402Y444322D02*
X94234Y470154D01*
X55702Y444322D02*
X68402D01*
X47498Y436118D02*
X55702Y444322D01*
X47498Y301047D02*
Y436118D01*
X44801Y298350D02*
X47498Y301047D01*
X44801Y246283D02*
Y298350D01*
Y246283D02*
X57912Y233172D01*
X67372D01*
X76200Y242000D01*
X82700D01*
X130810Y421531D02*
Y435610D01*
X130556Y435864D02*
X130810Y435610D01*
X63754Y435864D02*
X130556D01*
X63500Y435610D02*
X63754Y435864D01*
X63500Y386080D02*
Y435610D01*
X437445Y141675D02*
X448310Y130810D01*
X389128Y141675D02*
X437445D01*
X386080Y138627D02*
X389128Y141675D01*
X386080Y102616D02*
Y138627D01*
X364490Y81026D02*
X386080Y102616D01*
X78613Y81026D02*
X364490D01*
X73914Y85725D02*
X78613Y81026D01*
X73914Y85725D02*
Y228600D01*
X78486Y233172D01*
X93872D01*
X102700Y242000D01*
X42550Y301906D02*
Y457200D01*
X41245Y300600D02*
X42550Y301906D01*
X41245Y243455D02*
Y300600D01*
Y243455D02*
X62700Y222000D01*
X73914Y270786D02*
X82700Y262000D01*
X73914Y270786D02*
Y403352D01*
X71120Y406146D02*
X73914Y403352D01*
X172720Y574168D02*
Y588000D01*
X160909Y562356D02*
X172720Y574168D01*
X160909Y548640D02*
Y562356D01*
X448310Y130810D02*
X459232Y141732D01*
Y556120D01*
X462731Y559619D01*
X96520Y682000D02*
Y701548D01*
X151892Y756920D01*
X169420D01*
X71120Y409575D02*
X74549Y406146D01*
X140081D01*
X143510Y409575D01*
Y421531D01*
X169420Y756920D02*
X209550D01*
X213360Y753110D01*
Y739770D02*
Y753110D01*
X24765Y756920D02*
X74420D01*
X20320Y752475D02*
X24765Y756920D01*
X20320Y739770D02*
Y752475D01*
X160020Y658876D02*
Y682000D01*
X116332Y615188D02*
X160020Y658876D01*
X116332Y486410D02*
Y615188D01*
Y486410D02*
X118110Y484632D01*
Y472549D02*
Y484632D01*
X62700Y262000D02*
Y282000D01*
Y242000D02*
Y262000D01*
Y202000D02*
Y222000D01*
Y182000D02*
Y202000D01*
X37211Y510545D02*
Y533400D01*
Y510545D02*
X42550Y505206D01*
Y482600D02*
Y505206D01*
Y457200D02*
Y482600D01*
X127000Y490474D02*
Y504830D01*
Y490474D02*
X130810Y486664D01*
Y472549D02*
Y486664D01*
X127000Y504830D02*
X152400D01*
X54229Y533400D02*
X79690D01*
X74420Y724156D02*
Y756920D01*
Y724156D02*
X83820Y714756D01*
Y682000D02*
Y714756D01*
D35*
X829310Y283210D02*
D03*
X803910Y130810D02*
D03*
X473710D02*
D03*
X803910Y156210D02*
D03*
Y283210D02*
D03*
X829310Y130810D02*
D03*
X778510D02*
D03*
X765810Y252710D02*
D03*
X740410D02*
D03*
X715010D02*
D03*
X689610D02*
D03*
X664210D02*
D03*
X372110Y156210D02*
D03*
Y181610D02*
D03*
Y207010D02*
D03*
Y232410D02*
D03*
Y257810D02*
D03*
X473710Y283210D02*
D03*
X448310Y130810D02*
D03*
X422910D02*
D03*
X397510D02*
D03*
X372110D02*
D03*
X346710D02*
D03*
X321310D02*
D03*
X295910D02*
D03*
X270510D02*
D03*
X245110D02*
D03*
Y283210D02*
D03*
X270510D02*
D03*
X295910D02*
D03*
X321310D02*
D03*
X346710D02*
D03*
X372110D02*
D03*
X397510D02*
D03*
X422910D02*
D03*
X448310D02*
D03*
X753110Y130810D02*
D03*
X727710D02*
D03*
X702310D02*
D03*
X676910D02*
D03*
X651510D02*
D03*
X626110D02*
D03*
X600710D02*
D03*
X575310D02*
D03*
X549910D02*
D03*
X524510D02*
D03*
X499110D02*
D03*
Y283210D02*
D03*
X524510D02*
D03*
X549910D02*
D03*
X575310D02*
D03*
X600710D02*
D03*
X626110D02*
D03*
X651510D02*
D03*
X676910D02*
D03*
X702310D02*
D03*
X727710D02*
D03*
X753110D02*
D03*
X778510D02*
D03*
X295910Y574040D02*
D03*
X321310D02*
D03*
X346710D02*
D03*
X372110D02*
D03*
X397510D02*
D03*
X422910D02*
D03*
X448310D02*
D03*
X473710D02*
D03*
X499110D02*
D03*
X524510D02*
D03*
X549910D02*
D03*
X575310D02*
D03*
Y726440D02*
D03*
X549910D02*
D03*
X524510D02*
D03*
X499110D02*
D03*
X473710D02*
D03*
X448310D02*
D03*
X422910D02*
D03*
X397510D02*
D03*
X372110D02*
D03*
X346710D02*
D03*
X321310D02*
D03*
X626110Y574040D02*
D03*
X651510D02*
D03*
X676910D02*
D03*
X702310D02*
D03*
X727710D02*
D03*
X753110D02*
D03*
X778510D02*
D03*
X803910D02*
D03*
X829310D02*
D03*
Y726440D02*
D03*
X803910D02*
D03*
X778510D02*
D03*
X753110D02*
D03*
X727710D02*
D03*
X702310D02*
D03*
X676910D02*
D03*
X651510D02*
D03*
X626110D02*
D03*
X600710Y574040D02*
D03*
X702310Y599440D02*
D03*
Y624840D02*
D03*
Y650240D02*
D03*
Y675640D02*
D03*
Y701040D02*
D03*
X410210Y604540D02*
D03*
X384810D02*
D03*
X359410D02*
D03*
X334010D02*
D03*
X308610D02*
D03*
X295910Y726440D02*
D03*
X245110D02*
D03*
X270510Y574040D02*
D03*
Y701040D02*
D03*
X600710Y726440D02*
D03*
X270510D02*
D03*
X245110Y574040D02*
D03*
D36*
X142700Y122000D02*
D03*
D37*
Y142000D02*
D03*
Y162000D02*
D03*
Y182000D02*
D03*
Y202000D02*
D03*
Y222000D02*
D03*
Y242000D02*
D03*
Y262000D02*
D03*
Y282000D02*
D03*
Y302000D02*
D03*
Y322000D02*
D03*
Y342000D02*
D03*
X122700Y122000D02*
D03*
Y142000D02*
D03*
Y162000D02*
D03*
Y182000D02*
D03*
Y202000D02*
D03*
Y222000D02*
D03*
Y242000D02*
D03*
Y262000D02*
D03*
Y282000D02*
D03*
Y302000D02*
D03*
Y322000D02*
D03*
Y342000D02*
D03*
X102700Y122000D02*
D03*
Y142000D02*
D03*
Y162000D02*
D03*
Y182000D02*
D03*
Y202000D02*
D03*
Y222000D02*
D03*
Y242000D02*
D03*
Y262000D02*
D03*
Y282000D02*
D03*
Y302000D02*
D03*
Y322000D02*
D03*
Y342000D02*
D03*
X82700Y122000D02*
D03*
Y142000D02*
D03*
Y162000D02*
D03*
Y182000D02*
D03*
Y202000D02*
D03*
Y222000D02*
D03*
Y242000D02*
D03*
Y262000D02*
D03*
Y282000D02*
D03*
Y302000D02*
D03*
Y322000D02*
D03*
Y342000D02*
D03*
X62700Y122000D02*
D03*
Y142000D02*
D03*
Y162000D02*
D03*
Y182000D02*
D03*
Y202000D02*
D03*
Y222000D02*
D03*
Y242000D02*
D03*
Y262000D02*
D03*
Y282000D02*
D03*
Y302000D02*
D03*
Y322000D02*
D03*
Y342000D02*
D03*
D38*
X11430Y551180D02*
D03*
X283433Y468809D02*
D03*
X320503Y706628D02*
D03*
X449580Y419100D02*
D03*
X486410Y393700D02*
D03*
X537210Y378587D02*
D03*
Y504952D02*
D03*
X540766Y472948D02*
D03*
X484930Y744220D02*
D03*
X612140Y328930D02*
D03*
X631190Y314960D02*
D03*
X542036Y435610D02*
D03*
X456381Y590550D02*
D03*
X365760Y509016D02*
D03*
X241300Y414020D02*
D03*
X136607Y568960D02*
D03*
X353060Y454660D02*
D03*
X331470Y238760D02*
D03*
X330200Y223520D02*
D03*
X304800Y173990D02*
D03*
X162560Y127000D02*
D03*
X374918Y406160D02*
D03*
X551688Y355530D02*
D03*
X563118Y85090D02*
D03*
X179578Y405130D02*
D03*
X67564Y102108D02*
D03*
X301244Y226060D02*
D03*
X665480Y380746D02*
D03*
X655193Y379222D02*
D03*
X147320Y602742D02*
D03*
X524510Y252222D02*
D03*
X547370Y601980D02*
D03*
X765810Y368503D02*
D03*
X447294Y376428D02*
D03*
X418592Y440570D02*
D03*
X665734Y423164D02*
D03*
X425196Y481838D02*
D03*
X412496Y686054D02*
D03*
X535686Y630174D02*
D03*
X443738Y154051D02*
D03*
X627888Y189738D02*
D03*
X175260Y196596D02*
D03*
X403860Y312420D02*
D03*
X102616Y599694D02*
D03*
X248285Y395732D02*
D03*
X229843Y342392D02*
D03*
X162306Y322072D02*
D03*
X228854Y375158D02*
D03*
X386588Y377698D02*
D03*
X279146Y150876D02*
D03*
X392938Y370840D02*
D03*
X241300Y537464D02*
D03*
X92710Y253238D02*
D03*
X52578Y292100D02*
D03*
X11430Y191008D02*
D03*
X109220Y622046D02*
D03*
X135128Y537464D02*
D03*
X365760Y440690D02*
D03*
X611632Y533146D02*
D03*
X503936Y105156D02*
D03*
X103886Y97790D02*
D03*
X426595D02*
D03*
X410464Y166116D02*
D03*
X425450Y425958D02*
D03*
X440182Y400558D02*
D03*
X487426Y430530D02*
D03*
X160528Y206502D02*
D03*
X179324Y335661D02*
D03*
X228854Y326390D02*
D03*
X564388Y394462D02*
D03*
X535432Y68326D02*
D03*
D39*
X424114Y696302D02*
D03*
X711824Y221488D02*
D03*
X604520Y755650D02*
D03*
X788670Y219710D02*
D03*
X523240Y358140D02*
D03*
Y382270D02*
D03*
X525652Y406400D02*
D03*
X523240Y430530D02*
D03*
X522242Y452661D02*
D03*
X523240Y478790D02*
D03*
X473723Y204729D02*
D03*
X335280Y377190D02*
D03*
X299720Y415290D02*
D03*
X250190D02*
D03*
Y478790D02*
D03*
X106680Y546100D02*
D03*
X139700Y520700D02*
D03*
X143510Y488950D02*
D03*
X20320Y405130D02*
D03*
X35560Y317500D02*
D03*
X83820Y469900D02*
D03*
D40*
X22700Y172000D02*
D03*
Y292000D02*
D03*
M02*
