G04*
G04 #@! TF.GenerationSoftware,Altium Limited,Altium Designer,23.3.1 (30)*
G04*
G04 Layer_Color=32768*
%FSLAX44Y44*%
%MOMM*%
G71*
G04*
G04 #@! TF.SameCoordinates,7DDBB174-5A1B-4199-9A96-CB190E09B0CA*
G04*
G04*
G04 #@! TF.FilePolarity,Positive*
G04*
G01*
G75*
%ADD11C,0.1000*%
%ADD66C,0.0500*%
D11*
X770890Y621110D02*
Y631110D01*
X765890Y626110D02*
X775890D01*
X489030Y392430D02*
X499030D01*
X494030Y387430D02*
Y397430D01*
X568960Y199470D02*
Y209470D01*
X563960Y204470D02*
X573960D01*
X232410Y295910D02*
X842010D01*
X232410Y118110D02*
Y295910D01*
Y118110D02*
X842010D01*
Y295910D01*
X289640Y421640D02*
X299640D01*
X294640Y416640D02*
Y426640D01*
X463510Y478790D02*
X473510D01*
X468510Y473790D02*
Y483790D01*
X278130Y481410D02*
Y491410D01*
X273130Y486410D02*
X283130D01*
X232410Y561340D02*
X842010D01*
Y739140D01*
X232410D02*
X842010D01*
X232410Y561340D02*
Y739140D01*
X45800Y482600D02*
X55800D01*
X50800Y477600D02*
Y487600D01*
X152200Y112600D02*
Y351400D01*
X-72300Y112600D02*
X152200D01*
X-72300D02*
Y351400D01*
X152200D01*
X127000Y508080D02*
Y518080D01*
X122000Y513080D02*
X132000D01*
X152400Y508080D02*
Y518080D01*
X147400Y513080D02*
X157400D01*
X50800Y452200D02*
Y462200D01*
X45800Y457200D02*
X55800D01*
X505340Y473790D02*
Y483790D01*
X500340Y478790D02*
X510340D01*
X505460Y449660D02*
Y459660D01*
X500460Y454660D02*
X510460D01*
X468630Y449660D02*
Y459660D01*
X463630Y454660D02*
X473630D01*
X389970Y398660D02*
X399970D01*
X394970Y393660D02*
Y403660D01*
X389970Y433070D02*
X399970D01*
X394970Y428070D02*
Y438070D01*
X208360Y731520D02*
X218360D01*
X213360Y726520D02*
Y736520D01*
X15320Y731520D02*
X25320D01*
X20320Y726520D02*
Y736520D01*
D66*
X762390Y639610D02*
X779390D01*
X762390Y612610D02*
X779390D01*
Y639610D01*
X762390Y612610D02*
Y639610D01*
X541030Y337430D02*
Y447430D01*
X447030Y337430D02*
Y447430D01*
X541030D01*
X447030Y337430D02*
X541030D01*
X513960Y251470D02*
X623960D01*
X513960Y157470D02*
X623960D01*
X513960D02*
Y251470D01*
X623960Y157470D02*
Y251470D01*
X336140Y366640D02*
Y476640D01*
X253140Y366640D02*
Y476640D01*
X336140D01*
X253140Y366640D02*
X336140D01*
X482010Y470290D02*
Y487290D01*
X455010Y470290D02*
Y487290D01*
X482010D01*
X455010Y470290D02*
X482010D01*
X264130Y494910D02*
X292130D01*
X264130Y477910D02*
X292130D01*
Y494910D01*
X264130Y477910D02*
Y494910D01*
X62420Y783420D02*
X181420D01*
Y769420D02*
Y783420D01*
Y769420D02*
X199420D01*
Y744420D02*
Y769420D01*
X181420Y744420D02*
X199420D01*
X181420Y730420D02*
Y744420D01*
X62420Y730420D02*
X181420D01*
X62420D02*
Y744420D01*
X44420D02*
X62420D01*
X44420D02*
Y769420D01*
X62420D01*
Y783420D01*
X67800Y472600D02*
Y492600D01*
X33800Y472600D02*
Y492600D01*
Y472600D02*
X67800D01*
X33800Y492600D02*
X67800D01*
X588280Y343030D02*
X842030D01*
Y518030D01*
X588280D02*
X842030D01*
X588280Y343030D02*
Y518030D01*
X117000Y530080D02*
X137000D01*
X117000Y496080D02*
X137000D01*
Y530080D01*
X117000Y496080D02*
Y530080D01*
X142400D02*
X162400D01*
X142400Y496080D02*
X162400D01*
Y530080D01*
X142400Y496080D02*
Y530080D01*
X33800Y467200D02*
X67800D01*
X33800Y447200D02*
X67800D01*
X33800D02*
Y467200D01*
X67800Y447200D02*
Y467200D01*
X491840Y470290D02*
X518840D01*
X491840Y487290D02*
X518840D01*
X491840Y470290D02*
Y487290D01*
X518840Y470290D02*
Y487290D01*
X491960Y446160D02*
X518960D01*
X491960Y463160D02*
X518960D01*
X491960Y446160D02*
Y463160D01*
X518960Y446160D02*
Y463160D01*
X455130Y446160D02*
X482130D01*
X455130Y463160D02*
X482130D01*
X455130Y446160D02*
Y463160D01*
X482130Y446160D02*
Y463160D01*
X386470Y385160D02*
Y412160D01*
X403470Y385160D02*
Y412160D01*
X386470D02*
X403470D01*
X386470Y385160D02*
X403470D01*
Y419570D02*
Y446570D01*
X386470Y419570D02*
Y446570D01*
Y419570D02*
X403470D01*
X386470Y446570D02*
X403470D01*
X203360Y714520D02*
Y748520D01*
X223360Y714520D02*
Y748520D01*
X203360Y714520D02*
X223360D01*
X203360Y748520D02*
X223360D01*
X10320Y714520D02*
Y748520D01*
X30320Y714520D02*
Y748520D01*
X10320Y714520D02*
X30320D01*
X10320Y748520D02*
X30320D01*
M02*
