G04*
G04 #@! TF.GenerationSoftware,Altium Limited,Altium Designer,23.3.1 (30)*
G04*
G04 Layer_Color=8388736*
%FSLAX44Y44*%
%MOMM*%
G71*
G04*
G04 #@! TF.SameCoordinates,7DDBB174-5A1B-4199-9A96-CB190E09B0CA*
G04*
G04*
G04 #@! TF.FilePolarity,Negative*
G04*
G01*
G75*
%ADD15R,1.4500X0.9500*%
%ADD19R,0.8065X1.3082*%
%ADD21R,1.2500X1.1000*%
%ADD22R,0.6080X2.2044*%
G04:AMPARAMS|DCode=23|XSize=2.2044mm|YSize=0.608mm|CornerRadius=0.304mm|HoleSize=0mm|Usage=FLASHONLY|Rotation=270.000|XOffset=0mm|YOffset=0mm|HoleType=Round|Shape=RoundedRectangle|*
%AMROUNDEDRECTD23*
21,1,2.2044,0.0000,0,0,270.0*
21,1,1.5965,0.6080,0,0,270.0*
1,1,0.6080,0.0000,-0.7982*
1,1,0.6080,0.0000,0.7982*
1,1,0.6080,0.0000,0.7982*
1,1,0.6080,0.0000,-0.7982*
%
%ADD23ROUNDEDRECTD23*%
G04:AMPARAMS|DCode=24|XSize=1.9mm|YSize=0.6mm|CornerRadius=0.3mm|HoleSize=0mm|Usage=FLASHONLY|Rotation=270.000|XOffset=0mm|YOffset=0mm|HoleType=Round|Shape=RoundedRectangle|*
%AMROUNDEDRECTD24*
21,1,1.9000,0.0000,0,0,270.0*
21,1,1.3000,0.6000,0,0,270.0*
1,1,0.6000,0.0000,-0.6500*
1,1,0.6000,0.0000,0.6500*
1,1,0.6000,0.0000,0.6500*
1,1,0.6000,0.0000,-0.6500*
%
%ADD24ROUNDEDRECTD24*%
%ADD25R,1.5000X1.1500*%
%ADD26R,5.6500X2.1500*%
%ADD27R,1.4000X1.6000*%
%ADD28R,1.6000X1.4000*%
%ADD29C,1.8150*%
%ADD30R,1.3930X1.3930*%
%ADD31C,1.3930*%
%ADD32R,1.5700X1.5700*%
%ADD33C,1.5700*%
%ADD34C,0.8358*%
%ADD35C,0.9120*%
%ADD36C,0.5564*%
%ADD37C,2.6900*%
D15*
X770890Y662080D02*
D03*
Y681580D02*
D03*
D19*
X71120Y426720D02*
D03*
X54103D02*
D03*
X37211Y533400D02*
D03*
X54229D02*
D03*
X143891Y548640D02*
D03*
X160909D02*
D03*
D21*
X79690Y533400D02*
D03*
X103190D02*
D03*
D22*
X156210Y472549D02*
D03*
D23*
X143510D02*
D03*
X130810D02*
D03*
X118110D02*
D03*
Y421531D02*
D03*
X130810D02*
D03*
X143510D02*
D03*
X156210D02*
D03*
D24*
X172720Y682000D02*
D03*
X160020D02*
D03*
X147320D02*
D03*
X134620D02*
D03*
X121920D02*
D03*
X109220D02*
D03*
X96520D02*
D03*
X83820D02*
D03*
X71120D02*
D03*
Y588000D02*
D03*
X83820D02*
D03*
X96520D02*
D03*
X109220D02*
D03*
X121920D02*
D03*
X134620D02*
D03*
X147320D02*
D03*
X160020D02*
D03*
X172720D02*
D03*
D25*
X770890Y633610D02*
D03*
Y618610D02*
D03*
D26*
X74420Y756920D02*
D03*
X169420D02*
D03*
D27*
X59050Y482600D02*
D03*
X42550D02*
D03*
Y457200D02*
D03*
X59050D02*
D03*
D28*
X127000Y521330D02*
D03*
Y504830D02*
D03*
X152400Y521330D02*
D03*
Y504830D02*
D03*
X213360Y723270D02*
D03*
Y739770D02*
D03*
X20320Y723270D02*
D03*
Y739770D02*
D03*
D29*
X778510Y283210D02*
D03*
X753110D02*
D03*
X727710D02*
D03*
X702310D02*
D03*
X676910D02*
D03*
X651510D02*
D03*
X626110D02*
D03*
X600710D02*
D03*
X575310D02*
D03*
X549910D02*
D03*
X524510D02*
D03*
X499110D02*
D03*
Y130810D02*
D03*
X524510D02*
D03*
X549910D02*
D03*
X575310D02*
D03*
X600710D02*
D03*
X626110D02*
D03*
X651510D02*
D03*
X676910D02*
D03*
X702310D02*
D03*
X727710D02*
D03*
X753110D02*
D03*
X448310Y283210D02*
D03*
X422910D02*
D03*
X397510D02*
D03*
X372110D02*
D03*
X346710D02*
D03*
X321310D02*
D03*
X295910D02*
D03*
X270510D02*
D03*
X245110D02*
D03*
Y130810D02*
D03*
X270510D02*
D03*
X295910D02*
D03*
X321310D02*
D03*
X346710D02*
D03*
X372110D02*
D03*
X397510D02*
D03*
X422910D02*
D03*
X448310D02*
D03*
X473710Y283210D02*
D03*
X372110Y257810D02*
D03*
Y232410D02*
D03*
Y207010D02*
D03*
Y181610D02*
D03*
Y156210D02*
D03*
X664210Y252710D02*
D03*
X689610D02*
D03*
X715010D02*
D03*
X740410D02*
D03*
X765810D02*
D03*
X778510Y130810D02*
D03*
X829310D02*
D03*
X803910Y283210D02*
D03*
Y156210D02*
D03*
X473710Y130810D02*
D03*
X803910D02*
D03*
X829310Y283210D02*
D03*
X295910Y574040D02*
D03*
X321310D02*
D03*
X346710D02*
D03*
X372110D02*
D03*
X397510D02*
D03*
X422910D02*
D03*
X448310D02*
D03*
X473710D02*
D03*
X499110D02*
D03*
X524510D02*
D03*
X549910D02*
D03*
X575310D02*
D03*
Y726440D02*
D03*
X549910D02*
D03*
X524510D02*
D03*
X499110D02*
D03*
X473710D02*
D03*
X448310D02*
D03*
X422910D02*
D03*
X397510D02*
D03*
X372110D02*
D03*
X346710D02*
D03*
X321310D02*
D03*
X626110Y574040D02*
D03*
X651510D02*
D03*
X676910D02*
D03*
X702310D02*
D03*
X727710D02*
D03*
X753110D02*
D03*
X778510D02*
D03*
X803910D02*
D03*
X829310D02*
D03*
Y726440D02*
D03*
X803910D02*
D03*
X778510D02*
D03*
X753110D02*
D03*
X727710D02*
D03*
X702310D02*
D03*
X676910D02*
D03*
X651510D02*
D03*
X626110D02*
D03*
X600710Y574040D02*
D03*
X702310Y599440D02*
D03*
Y624840D02*
D03*
Y650240D02*
D03*
Y675640D02*
D03*
Y701040D02*
D03*
X410210Y604540D02*
D03*
X384810D02*
D03*
X359410D02*
D03*
X334010D02*
D03*
X308610D02*
D03*
X295910Y726440D02*
D03*
X245110D02*
D03*
X270510Y574040D02*
D03*
Y701040D02*
D03*
X600710Y726440D02*
D03*
X270510D02*
D03*
X245110Y574040D02*
D03*
D30*
X142700Y122000D02*
D03*
D31*
Y142000D02*
D03*
Y162000D02*
D03*
Y182000D02*
D03*
Y202000D02*
D03*
Y222000D02*
D03*
Y242000D02*
D03*
Y262000D02*
D03*
Y282000D02*
D03*
Y302000D02*
D03*
Y322000D02*
D03*
Y342000D02*
D03*
X122700Y122000D02*
D03*
Y142000D02*
D03*
Y162000D02*
D03*
Y182000D02*
D03*
Y202000D02*
D03*
Y222000D02*
D03*
Y242000D02*
D03*
Y262000D02*
D03*
Y282000D02*
D03*
Y302000D02*
D03*
Y322000D02*
D03*
Y342000D02*
D03*
X102700Y122000D02*
D03*
Y142000D02*
D03*
Y162000D02*
D03*
Y182000D02*
D03*
Y202000D02*
D03*
Y222000D02*
D03*
Y242000D02*
D03*
Y262000D02*
D03*
Y282000D02*
D03*
Y302000D02*
D03*
Y322000D02*
D03*
Y342000D02*
D03*
X82700Y122000D02*
D03*
Y142000D02*
D03*
Y162000D02*
D03*
Y182000D02*
D03*
Y202000D02*
D03*
Y222000D02*
D03*
Y242000D02*
D03*
Y262000D02*
D03*
Y282000D02*
D03*
Y302000D02*
D03*
Y322000D02*
D03*
Y342000D02*
D03*
X62700Y122000D02*
D03*
Y142000D02*
D03*
Y162000D02*
D03*
Y182000D02*
D03*
Y202000D02*
D03*
Y222000D02*
D03*
Y242000D02*
D03*
Y262000D02*
D03*
Y282000D02*
D03*
Y302000D02*
D03*
Y322000D02*
D03*
Y342000D02*
D03*
D32*
X63500Y386080D02*
D03*
X474980Y767080D02*
D03*
X389890D02*
D03*
D33*
X88900Y386080D02*
D03*
X500380Y767080D02*
D03*
X415290D02*
D03*
D34*
X770890Y694690D02*
D03*
X669290Y546100D02*
D03*
X560070Y541020D02*
D03*
X559865Y416765D02*
D03*
X414020Y408940D02*
D03*
X408940Y151130D02*
D03*
X433805Y106145D02*
D03*
X430530Y87503D02*
D03*
X81280Y73660D02*
D03*
X494030Y387350D02*
D03*
X500380Y400050D02*
D03*
Y431800D02*
D03*
X474980Y433070D02*
D03*
X563372Y378460D02*
D03*
X567690Y340360D02*
D03*
X589591Y304437D02*
D03*
X557403Y392430D02*
D03*
X632609Y746611D02*
D03*
X604520Y774700D02*
D03*
X41008Y676008D02*
D03*
X28067Y514350D02*
D03*
X520700Y370656D02*
D03*
Y327660D02*
D03*
X450850D02*
D03*
X435610Y367030D02*
D03*
X356870Y375471D02*
D03*
X328930Y303530D02*
D03*
X322580Y260477D02*
D03*
Y165100D02*
D03*
X346710Y410210D02*
D03*
X356870Y367030D02*
D03*
X331470Y110871D02*
D03*
X279400Y360680D02*
D03*
X305697Y413123D02*
D03*
X630405Y215624D02*
D03*
X631006Y190500D02*
D03*
X657987Y185420D02*
D03*
X571500Y217170D02*
D03*
X441833Y177800D02*
D03*
X430530Y167640D02*
D03*
X636270Y318770D02*
D03*
X627187Y263969D02*
D03*
X613410Y302260D02*
D03*
X604647Y255270D02*
D03*
X530860Y227330D02*
D03*
Y186690D02*
D03*
X537210Y158750D02*
D03*
X476250Y236220D02*
D03*
X484759Y219710D02*
D03*
X478790Y177800D02*
D03*
X500380Y172720D02*
D03*
X509270Y157480D02*
D03*
X207010Y415163D02*
D03*
X271780Y199517D02*
D03*
X354424Y205740D02*
D03*
X387350Y186563D02*
D03*
X355600Y161163D02*
D03*
X266700Y148717D02*
D03*
X204470Y428117D02*
D03*
X588010Y250190D02*
D03*
X553720Y264160D02*
D03*
X455930Y213487D02*
D03*
X461010Y229870D02*
D03*
X427084Y227457D02*
D03*
X419100Y264160D02*
D03*
X393700Y300990D02*
D03*
X398780Y463550D02*
D03*
X353060Y455930D02*
D03*
X339090Y440690D02*
D03*
X575310Y247650D02*
D03*
X661670Y209550D02*
D03*
X668020Y229870D02*
D03*
X715010Y222250D02*
D03*
X562610Y270637D02*
D03*
X715010Y233680D02*
D03*
X632460Y167640D02*
D03*
X647700Y333883D02*
D03*
X628650Y154940D02*
D03*
X641350Y261620D02*
D03*
D35*
X435610Y394970D02*
D03*
X436880Y443230D02*
D03*
X229870Y414782D02*
D03*
X396240Y207010D02*
D03*
X346710Y184150D02*
D03*
X434340Y185674D02*
D03*
X309880Y586232D02*
D03*
X490220Y373380D02*
D03*
X765810Y109220D02*
D03*
X8890Y626110D02*
D03*
X530860Y463550D02*
D03*
X125471Y543342D02*
D03*
X48665Y291775D02*
D03*
X568452Y467360D02*
D03*
X575310Y400530D02*
D03*
X156210Y638556D02*
D03*
X529563Y676883D02*
D03*
X420624Y391160D02*
D03*
X422402Y542544D02*
D03*
X332740D02*
D03*
X297180Y688848D02*
D03*
X621284Y431292D02*
D03*
X655320Y421132D02*
D03*
X670814Y471932D02*
D03*
X408940Y478028D02*
D03*
X95250Y102362D02*
D03*
X347980Y684276D02*
D03*
X188214Y171450D02*
D03*
X71120Y212090D02*
D03*
X46482Y208026D02*
D03*
X411988Y94488D02*
D03*
X653117Y548049D02*
D03*
X98806Y425704D02*
D03*
X191008Y604012D02*
D03*
X238832D02*
D03*
X634492Y524002D02*
D03*
X354584Y437134D02*
D03*
X303022Y154940D02*
D03*
X221234Y383540D02*
D03*
X248666Y219202D02*
D03*
X151638Y370586D02*
D03*
X477266Y505968D02*
D03*
X600710Y510032D02*
D03*
X133096Y382016D02*
D03*
X140716Y451866D02*
D03*
X499110Y260350D02*
D03*
X517906Y296672D02*
D03*
X544068Y479044D02*
D03*
X614680Y483070D02*
D03*
X688340Y440944D02*
D03*
X513080Y687578D02*
D03*
X259080Y177292D02*
D03*
X338074Y466090D02*
D03*
X421132Y505968D02*
D03*
X417068Y425570D02*
D03*
X98806Y409194D02*
D03*
X99060Y439674D02*
D03*
X236049Y468293D02*
D03*
X372110Y324104D02*
D03*
X251968Y202184D02*
D03*
X158496Y378460D02*
D03*
X237998Y453390D02*
D03*
X245110Y259080D02*
D03*
X214376Y242000D02*
D03*
X215392Y440690D02*
D03*
X163068Y646430D02*
D03*
X160528Y712724D02*
D03*
D36*
X519430Y504190D02*
D03*
X524510Y454660D02*
D03*
Y474980D02*
D03*
X393700Y180340D02*
D03*
X478790Y161290D02*
D03*
X251460Y361950D02*
D03*
X226060Y448310D02*
D03*
X232410Y485140D02*
D03*
X191893Y591984D02*
D03*
X132203Y566584D02*
D03*
X102993Y494194D02*
D03*
X53340Y511810D02*
D03*
D37*
X22700Y172000D02*
D03*
Y292000D02*
D03*
M02*
