G04*
G04 #@! TF.GenerationSoftware,Altium Limited,Altium Designer,22.10.1 (41)*
G04*
G04 Layer_Color=8388736*
%FSLAX44Y44*%
%MOMM*%
G71*
G04*
G04 #@! TF.SameCoordinates,A19658FD-F5F6-4820-ADF5-99B624B81DD5*
G04*
G04*
G04 #@! TF.FilePolarity,Negative*
G04*
G01*
G75*
%ADD17R,0.8065X1.3082*%
%ADD19R,1.2500X1.1000*%
%ADD20R,0.6080X2.2044*%
G04:AMPARAMS|DCode=21|XSize=2.2044mm|YSize=0.608mm|CornerRadius=0.304mm|HoleSize=0mm|Usage=FLASHONLY|Rotation=270.000|XOffset=0mm|YOffset=0mm|HoleType=Round|Shape=RoundedRectangle|*
%AMROUNDEDRECTD21*
21,1,2.2044,0.0000,0,0,270.0*
21,1,1.5965,0.6080,0,0,270.0*
1,1,0.6080,0.0000,-0.7982*
1,1,0.6080,0.0000,0.7982*
1,1,0.6080,0.0000,0.7982*
1,1,0.6080,0.0000,-0.7982*
%
%ADD21ROUNDEDRECTD21*%
G04:AMPARAMS|DCode=22|XSize=1.9mm|YSize=0.6mm|CornerRadius=0.3mm|HoleSize=0mm|Usage=FLASHONLY|Rotation=270.000|XOffset=0mm|YOffset=0mm|HoleType=Round|Shape=RoundedRectangle|*
%AMROUNDEDRECTD22*
21,1,1.9000,0.0000,0,0,270.0*
21,1,1.3000,0.6000,0,0,270.0*
1,1,0.6000,0.0000,-0.6500*
1,1,0.6000,0.0000,0.6500*
1,1,0.6000,0.0000,0.6500*
1,1,0.6000,0.0000,-0.6500*
%
%ADD22ROUNDEDRECTD22*%
%ADD23R,5.6500X2.1500*%
%ADD24R,1.4000X1.6000*%
%ADD25R,1.6000X1.4000*%
%ADD26C,1.8150*%
%ADD27R,1.3930X1.3930*%
%ADD28C,1.3930*%
%ADD29R,1.5700X1.5700*%
%ADD30C,1.5700*%
%ADD31C,0.9120*%
%ADD32C,0.5564*%
%ADD33C,2.6900*%
D17*
X71120Y426720D02*
D03*
X54103D02*
D03*
X37211Y533400D02*
D03*
X54229D02*
D03*
X143891Y548640D02*
D03*
X160909D02*
D03*
D19*
X79690Y533400D02*
D03*
X103190D02*
D03*
D20*
X156210Y472549D02*
D03*
D21*
X143510D02*
D03*
X130810D02*
D03*
X118110D02*
D03*
Y421531D02*
D03*
X130810D02*
D03*
X143510D02*
D03*
X156210D02*
D03*
D22*
X172720Y682000D02*
D03*
X160020D02*
D03*
X147320D02*
D03*
X134620D02*
D03*
X121920D02*
D03*
X109220D02*
D03*
X96520D02*
D03*
X83820D02*
D03*
X71120D02*
D03*
Y588000D02*
D03*
X83820D02*
D03*
X96520D02*
D03*
X109220D02*
D03*
X121920D02*
D03*
X134620D02*
D03*
X147320D02*
D03*
X160020D02*
D03*
X172720D02*
D03*
D23*
X74420Y756920D02*
D03*
X169420D02*
D03*
D24*
X59050Y482600D02*
D03*
X42550D02*
D03*
Y457200D02*
D03*
X59050D02*
D03*
D25*
X127000Y521330D02*
D03*
Y504830D02*
D03*
X152400Y521330D02*
D03*
Y504830D02*
D03*
X213360Y723270D02*
D03*
Y739770D02*
D03*
X20320Y723270D02*
D03*
Y739770D02*
D03*
D26*
X829310Y283210D02*
D03*
X803910Y130810D02*
D03*
X473710D02*
D03*
X803910Y156210D02*
D03*
Y283210D02*
D03*
X829310Y130810D02*
D03*
X778510D02*
D03*
X765810Y252710D02*
D03*
X740410D02*
D03*
X715010D02*
D03*
X689610D02*
D03*
X664210D02*
D03*
X372110Y156210D02*
D03*
Y181610D02*
D03*
Y207010D02*
D03*
Y232410D02*
D03*
Y257810D02*
D03*
X473710Y283210D02*
D03*
X448310Y130810D02*
D03*
X422910D02*
D03*
X397510D02*
D03*
X372110D02*
D03*
X346710D02*
D03*
X321310D02*
D03*
X295910D02*
D03*
X270510D02*
D03*
X245110D02*
D03*
Y283210D02*
D03*
X270510D02*
D03*
X295910D02*
D03*
X321310D02*
D03*
X346710D02*
D03*
X372110D02*
D03*
X397510D02*
D03*
X422910D02*
D03*
X448310D02*
D03*
X753110Y130810D02*
D03*
X727710D02*
D03*
X702310D02*
D03*
X676910D02*
D03*
X651510D02*
D03*
X626110D02*
D03*
X600710D02*
D03*
X575310D02*
D03*
X549910D02*
D03*
X524510D02*
D03*
X499110D02*
D03*
Y283210D02*
D03*
X524510D02*
D03*
X549910D02*
D03*
X575310D02*
D03*
X600710D02*
D03*
X626110D02*
D03*
X651510D02*
D03*
X676910D02*
D03*
X702310D02*
D03*
X727710D02*
D03*
X753110D02*
D03*
X778510D02*
D03*
X295910Y574040D02*
D03*
X321310D02*
D03*
X346710D02*
D03*
X372110D02*
D03*
X397510D02*
D03*
X422910D02*
D03*
X448310D02*
D03*
X473710D02*
D03*
X499110D02*
D03*
X524510D02*
D03*
X549910D02*
D03*
X575310D02*
D03*
Y726440D02*
D03*
X549910D02*
D03*
X524510D02*
D03*
X499110D02*
D03*
X473710D02*
D03*
X448310D02*
D03*
X422910D02*
D03*
X397510D02*
D03*
X372110D02*
D03*
X346710D02*
D03*
X321310D02*
D03*
X626110Y574040D02*
D03*
X651510D02*
D03*
X676910D02*
D03*
X702310D02*
D03*
X727710D02*
D03*
X753110D02*
D03*
X778510D02*
D03*
X803910D02*
D03*
X829310D02*
D03*
Y726440D02*
D03*
X803910D02*
D03*
X778510D02*
D03*
X753110D02*
D03*
X727710D02*
D03*
X702310D02*
D03*
X676910D02*
D03*
X651510D02*
D03*
X626110D02*
D03*
X600710Y574040D02*
D03*
X702310Y599440D02*
D03*
Y624840D02*
D03*
Y650240D02*
D03*
Y675640D02*
D03*
Y701040D02*
D03*
X410210Y604540D02*
D03*
X384810D02*
D03*
X359410D02*
D03*
X334010D02*
D03*
X308610D02*
D03*
X295910Y726440D02*
D03*
X245110D02*
D03*
X270510Y574040D02*
D03*
Y701040D02*
D03*
X600710Y726440D02*
D03*
X270510D02*
D03*
X245110Y574040D02*
D03*
D27*
X142700Y122000D02*
D03*
D28*
Y142000D02*
D03*
Y162000D02*
D03*
Y182000D02*
D03*
Y202000D02*
D03*
Y222000D02*
D03*
Y242000D02*
D03*
Y262000D02*
D03*
Y282000D02*
D03*
Y302000D02*
D03*
Y322000D02*
D03*
Y342000D02*
D03*
X122700Y122000D02*
D03*
Y142000D02*
D03*
Y162000D02*
D03*
Y182000D02*
D03*
Y202000D02*
D03*
Y222000D02*
D03*
Y242000D02*
D03*
Y262000D02*
D03*
Y282000D02*
D03*
Y302000D02*
D03*
Y322000D02*
D03*
Y342000D02*
D03*
X102700Y122000D02*
D03*
Y142000D02*
D03*
Y162000D02*
D03*
Y182000D02*
D03*
Y202000D02*
D03*
Y222000D02*
D03*
Y242000D02*
D03*
Y262000D02*
D03*
Y282000D02*
D03*
Y302000D02*
D03*
Y322000D02*
D03*
Y342000D02*
D03*
X82700Y122000D02*
D03*
Y142000D02*
D03*
Y162000D02*
D03*
Y182000D02*
D03*
Y202000D02*
D03*
Y222000D02*
D03*
Y242000D02*
D03*
Y262000D02*
D03*
Y282000D02*
D03*
Y302000D02*
D03*
Y322000D02*
D03*
Y342000D02*
D03*
X62700Y122000D02*
D03*
Y142000D02*
D03*
Y162000D02*
D03*
Y182000D02*
D03*
Y202000D02*
D03*
Y222000D02*
D03*
Y242000D02*
D03*
Y262000D02*
D03*
Y282000D02*
D03*
Y302000D02*
D03*
Y322000D02*
D03*
Y342000D02*
D03*
D29*
X63500Y386080D02*
D03*
X474980Y767080D02*
D03*
X389890D02*
D03*
D30*
X88900Y386080D02*
D03*
X500380Y767080D02*
D03*
X415290D02*
D03*
D31*
X497840Y421640D02*
D03*
X309880Y586232D02*
D03*
X476250Y415290D02*
D03*
X490220Y373380D02*
D03*
X765810Y109220D02*
D03*
X346710Y184150D02*
D03*
X8890Y626110D02*
D03*
X530860Y463550D02*
D03*
X353568Y511048D02*
D03*
X125471Y543342D02*
D03*
X48665Y291775D02*
D03*
X338582Y440690D02*
D03*
X568452Y467360D02*
D03*
X575310Y400530D02*
D03*
X156210Y638556D02*
D03*
X529563Y676883D02*
D03*
X448310Y368300D02*
D03*
X633730Y456946D02*
D03*
X420624Y391160D02*
D03*
X434340Y185674D02*
D03*
X422402Y542544D02*
D03*
X332740D02*
D03*
X297180Y688848D02*
D03*
X621284Y431292D02*
D03*
X655320Y421132D02*
D03*
X437388Y438150D02*
D03*
X670814Y471932D02*
D03*
X408940Y478028D02*
D03*
X396240Y207010D02*
D03*
X95250Y102362D02*
D03*
X347980Y684276D02*
D03*
X188214Y171450D02*
D03*
X71120Y212090D02*
D03*
X46482Y208026D02*
D03*
X411988Y94488D02*
D03*
X653117Y548049D02*
D03*
X98806Y425704D02*
D03*
X191008Y604012D02*
D03*
X238832D02*
D03*
X716788Y371094D02*
D03*
X634492Y524002D02*
D03*
X354584Y437134D02*
D03*
X303022Y154940D02*
D03*
X221234Y383540D02*
D03*
X248666Y219202D02*
D03*
X151638Y370586D02*
D03*
X353568Y415290D02*
D03*
X358648Y364744D02*
D03*
X416306Y415290D02*
D03*
X397510Y167640D02*
D03*
X113284Y358394D02*
D03*
X466852Y330708D02*
D03*
X453136Y346710D02*
D03*
X477266Y505968D02*
D03*
X600710Y510032D02*
D03*
X133096Y382016D02*
D03*
X140716Y451866D02*
D03*
X499110Y260350D02*
D03*
X517906Y296672D02*
D03*
X544068Y479044D02*
D03*
X614680Y483070D02*
D03*
X688340Y440944D02*
D03*
X513080Y687578D02*
D03*
X556768Y557276D02*
D03*
X259080Y177292D02*
D03*
X338074Y466090D02*
D03*
X421132Y505968D02*
D03*
X417068Y425570D02*
D03*
X98806Y409194D02*
D03*
X99060Y439674D02*
D03*
X236049Y468293D02*
D03*
X372110Y324104D02*
D03*
X251968Y202184D02*
D03*
X231140Y400812D02*
D03*
X158496Y378460D02*
D03*
X237998Y453390D02*
D03*
X245110Y259080D02*
D03*
X214376Y242000D02*
D03*
X215392Y440690D02*
D03*
X163068Y646430D02*
D03*
X160528Y712724D02*
D03*
D32*
X519430Y504190D02*
D03*
X524510Y430530D02*
D03*
Y454660D02*
D03*
Y474980D02*
D03*
Y405130D02*
D03*
X525272Y382270D02*
D03*
X523240Y358140D02*
D03*
X393700Y180340D02*
D03*
X478790Y161290D02*
D03*
X251460Y361950D02*
D03*
X224790Y412750D02*
D03*
X226060Y448310D02*
D03*
X232410Y485140D02*
D03*
X191893Y591984D02*
D03*
X132203Y566584D02*
D03*
X102993Y494194D02*
D03*
X53340Y511810D02*
D03*
D33*
X22700Y172000D02*
D03*
Y292000D02*
D03*
M02*
