G04*
G04 #@! TF.GenerationSoftware,Altium Limited,Altium Designer,22.10.1 (41)*
G04*
G04 Layer_Physical_Order=2*
G04 Layer_Color=16711680*
%FSLAX44Y44*%
%MOMM*%
G71*
G04*
G04 #@! TF.SameCoordinates,15C13A22-FF6B-4AA4-AE0B-FE47445A9F5C*
G04*
G04*
G04 #@! TF.FilePolarity,Positive*
G04*
G01*
G75*
%ADD29R,1.5700X1.5700*%
%ADD30C,1.5700*%
%ADD34C,0.2032*%
%ADD35C,1.6650*%
%ADD36R,1.2430X1.2430*%
%ADD37C,1.2430*%
%ADD38C,0.7620*%
%ADD39C,0.4064*%
%ADD40C,2.5400*%
G04:AMPARAMS|DCode=41|XSize=0.65mm|YSize=1.65mm|CornerRadius=0.0488mm|HoleSize=0mm|Usage=FLASHONLY|Rotation=90.000|XOffset=0mm|YOffset=0mm|HoleType=Round|Shape=RoundedRectangle|*
%AMROUNDEDRECTD41*
21,1,0.6500,1.5525,0,0,90.0*
21,1,0.5525,1.6500,0,0,90.0*
1,1,0.0975,0.7763,0.2763*
1,1,0.0975,0.7763,-0.2763*
1,1,0.0975,-0.7763,-0.2763*
1,1,0.0975,-0.7763,0.2763*
%
%ADD41ROUNDEDRECTD41*%
%ADD42R,1.0000X1.3500*%
%ADD43R,1.1500X1.3500*%
%ADD44R,1.7000X1.1000*%
%ADD45R,1.2000X2.0000*%
%ADD46R,1.3500X1.0000*%
G36*
X480188Y746710D02*
X479596Y745281D01*
Y743159D01*
X480408Y741199D01*
X479859Y739952D01*
X314452D01*
X313461Y739755D01*
X312621Y739193D01*
X311155Y737728D01*
X309818Y738186D01*
X309730Y738884D01*
X318827Y747980D01*
X479488D01*
X480188Y746710D01*
D02*
G37*
G36*
X709266Y741222D02*
X708740Y739952D01*
X666369D01*
X665378Y739755D01*
X664538Y739193D01*
X660601Y735256D01*
X660039Y734416D01*
X659910Y733765D01*
X659040Y733350D01*
X658572Y733306D01*
X657557Y734321D01*
X655312Y735618D01*
X652807Y736289D01*
X650213D01*
X647708Y735618D01*
X645463Y734321D01*
X643629Y732487D01*
X642332Y730242D01*
X641661Y727737D01*
Y725143D01*
X642332Y722638D01*
X643629Y720393D01*
X645463Y718559D01*
X647708Y717262D01*
X650213Y716591D01*
X652807D01*
X652935Y716625D01*
X653570Y715526D01*
X643706Y705662D01*
X610654D01*
X610168Y706835D01*
X621222Y717889D01*
X622308Y717262D01*
X624813Y716591D01*
X627407D01*
X629912Y717262D01*
X632157Y718559D01*
X633991Y720393D01*
X635288Y722638D01*
X635959Y725143D01*
Y727737D01*
X635288Y730242D01*
X633991Y732487D01*
X632157Y734321D01*
X629912Y735618D01*
X627407Y736289D01*
X624813D01*
X622308Y735618D01*
X620063Y734321D01*
X618229Y732487D01*
X616932Y730242D01*
X616261Y727737D01*
Y725143D01*
X616932Y722638D01*
X617560Y721552D01*
X605225Y709218D01*
X325204D01*
X325025Y709650D01*
X323524Y711150D01*
X321564Y711962D01*
X319442D01*
X317481Y711150D01*
X315981Y709650D01*
X315169Y707689D01*
Y705567D01*
X315981Y703606D01*
X317481Y702106D01*
X319442Y701294D01*
X321564D01*
X323524Y702106D01*
X325025Y703606D01*
X325204Y704038D01*
X342100D01*
X342586Y702865D01*
X314305Y674583D01*
X313035Y675109D01*
Y718991D01*
X314305Y719517D01*
X315263Y718559D01*
X317508Y717262D01*
X320013Y716591D01*
X322607D01*
X325112Y717262D01*
X327357Y718559D01*
X329191Y720393D01*
X330488Y722638D01*
X331159Y725143D01*
Y727737D01*
X330488Y730242D01*
X329191Y732487D01*
X328176Y733502D01*
X328702Y734772D01*
X339318D01*
X339844Y733502D01*
X338829Y732487D01*
X337532Y730242D01*
X336861Y727737D01*
Y725143D01*
X337532Y722638D01*
X338829Y720393D01*
X340663Y718559D01*
X342908Y717262D01*
X345413Y716591D01*
X348007D01*
X350512Y717262D01*
X352757Y718559D01*
X354591Y720393D01*
X355888Y722638D01*
X356559Y725143D01*
Y727737D01*
X355888Y730242D01*
X354591Y732487D01*
X353576Y733502D01*
X354102Y734772D01*
X364718D01*
X365244Y733502D01*
X364229Y732487D01*
X362932Y730242D01*
X362261Y727737D01*
Y725143D01*
X362932Y722638D01*
X364229Y720393D01*
X366063Y718559D01*
X368308Y717262D01*
X370813Y716591D01*
X373407D01*
X375912Y717262D01*
X378157Y718559D01*
X379991Y720393D01*
X381288Y722638D01*
X381959Y725143D01*
Y727737D01*
X381288Y730242D01*
X379991Y732487D01*
X378976Y733502D01*
X379502Y734772D01*
X390118D01*
X390644Y733502D01*
X389629Y732487D01*
X388332Y730242D01*
X387661Y727737D01*
Y725143D01*
X388332Y722638D01*
X389629Y720393D01*
X391463Y718559D01*
X393708Y717262D01*
X396213Y716591D01*
X398807D01*
X401312Y717262D01*
X403557Y718559D01*
X405391Y720393D01*
X406688Y722638D01*
X407359Y725143D01*
Y727737D01*
X406688Y730242D01*
X405391Y732487D01*
X404376Y733502D01*
X404902Y734772D01*
X415518D01*
X416044Y733502D01*
X415029Y732487D01*
X413732Y730242D01*
X413061Y727737D01*
Y725143D01*
X413732Y722638D01*
X415029Y720393D01*
X416863Y718559D01*
X419108Y717262D01*
X421613Y716591D01*
X424207D01*
X426712Y717262D01*
X428957Y718559D01*
X430791Y720393D01*
X432088Y722638D01*
X432759Y725143D01*
Y727737D01*
X432088Y730242D01*
X430791Y732487D01*
X429776Y733502D01*
X430302Y734772D01*
X440918D01*
X441444Y733502D01*
X440429Y732487D01*
X439132Y730242D01*
X438461Y727737D01*
Y725143D01*
X439132Y722638D01*
X440429Y720393D01*
X442263Y718559D01*
X444508Y717262D01*
X447013Y716591D01*
X449607D01*
X452112Y717262D01*
X454357Y718559D01*
X456191Y720393D01*
X457488Y722638D01*
X458159Y725143D01*
Y727737D01*
X457488Y730242D01*
X456191Y732487D01*
X455176Y733502D01*
X455702Y734772D01*
X466318D01*
X466844Y733502D01*
X465829Y732487D01*
X464532Y730242D01*
X463861Y727737D01*
Y725143D01*
X464532Y722638D01*
X465829Y720393D01*
X467663Y718559D01*
X469908Y717262D01*
X472413Y716591D01*
X475007D01*
X477512Y717262D01*
X479757Y718559D01*
X481591Y720393D01*
X482888Y722638D01*
X483559Y725143D01*
Y727737D01*
X483082Y729516D01*
X484221Y730174D01*
X485655Y728739D01*
Y719455D01*
X485852Y718464D01*
X486414Y717624D01*
X490294Y713744D01*
X491134Y713182D01*
X492125Y712985D01*
X564445D01*
X565436Y713182D01*
X566276Y713744D01*
X570422Y717889D01*
X571508Y717262D01*
X574013Y716591D01*
X576607D01*
X579112Y717262D01*
X581357Y718559D01*
X583191Y720393D01*
X584488Y722638D01*
X585159Y725143D01*
Y727737D01*
X584488Y730242D01*
X583191Y732487D01*
X581357Y734321D01*
X579112Y735618D01*
X576607Y736289D01*
X574013D01*
X571508Y735618D01*
X569263Y734321D01*
X567429Y732487D01*
X566132Y730242D01*
X565461Y727737D01*
Y725143D01*
X566132Y722638D01*
X566759Y721552D01*
X563372Y718165D01*
X557359D01*
X556833Y719435D01*
X557791Y720393D01*
X559088Y722638D01*
X559759Y725143D01*
Y727737D01*
X559088Y730242D01*
X557791Y732487D01*
X555957Y734321D01*
X553712Y735618D01*
X551207Y736289D01*
X548613D01*
X546108Y735618D01*
X543863Y734321D01*
X542029Y732487D01*
X540732Y730242D01*
X540061Y727737D01*
Y725143D01*
X540732Y722638D01*
X542029Y720393D01*
X542987Y719435D01*
X542461Y718165D01*
X531959D01*
X531433Y719435D01*
X532391Y720393D01*
X533688Y722638D01*
X534359Y725143D01*
Y727737D01*
X533688Y730242D01*
X532391Y732487D01*
X530557Y734321D01*
X528312Y735618D01*
X525807Y736289D01*
X523213D01*
X520708Y735618D01*
X518463Y734321D01*
X516629Y732487D01*
X515332Y730242D01*
X514661Y727737D01*
Y725143D01*
X515332Y722638D01*
X516629Y720393D01*
X517587Y719435D01*
X517061Y718165D01*
X506559D01*
X506033Y719435D01*
X506991Y720393D01*
X508288Y722638D01*
X508959Y725143D01*
Y727737D01*
X508288Y730242D01*
X506991Y732487D01*
X505157Y734321D01*
X502912Y735618D01*
X500407Y736289D01*
X497813D01*
X495308Y735618D01*
X493739Y734712D01*
X488589Y739861D01*
Y740336D01*
X489452Y741199D01*
X490264Y743159D01*
Y745281D01*
X489672Y746710D01*
X490373Y747980D01*
X702507D01*
X709266Y741222D01*
D02*
G37*
G36*
X846115Y3884D02*
X3884D01*
Y240785D01*
X5155Y241054D01*
X5535Y240485D01*
X35761Y210259D01*
X36601Y209697D01*
X37592Y209500D01*
X57673D01*
X58013Y208230D01*
X57948Y208193D01*
X56507Y206752D01*
X55488Y204987D01*
X54961Y203019D01*
Y200981D01*
X55488Y199013D01*
X56507Y197248D01*
X57948Y195807D01*
X58536Y195468D01*
X58932Y193773D01*
X58815Y193598D01*
X16131D01*
X15952Y194030D01*
X14452Y195530D01*
X12491Y196342D01*
X10369D01*
X8408Y195530D01*
X6908Y194030D01*
X6096Y192069D01*
Y189947D01*
X6908Y187987D01*
X8408Y186486D01*
X10369Y185674D01*
X12491D01*
X14452Y186486D01*
X15952Y187987D01*
X16131Y188418D01*
X56377D01*
X56903Y187148D01*
X56507Y186752D01*
X55488Y184987D01*
X54961Y183019D01*
Y180981D01*
X55488Y179013D01*
X56507Y177248D01*
X57938Y175818D01*
X57937Y175769D01*
X57590Y174548D01*
X57150D01*
X56159Y174351D01*
X55319Y173789D01*
X52017Y170487D01*
X51455Y169647D01*
X51258Y168656D01*
Y96535D01*
X51455Y95544D01*
X52017Y94704D01*
X80225Y66495D01*
X81066Y65933D01*
X82057Y65736D01*
X530731D01*
X530910Y65304D01*
X532411Y63804D01*
X534371Y62992D01*
X536493D01*
X538453Y63804D01*
X539954Y65304D01*
X540766Y67265D01*
Y69387D01*
X539954Y71347D01*
X538453Y72848D01*
X536493Y73660D01*
X534371D01*
X532411Y72848D01*
X530910Y71347D01*
X530731Y70916D01*
X83130D01*
X56438Y97607D01*
Y115522D01*
X57708Y116048D01*
X57948Y115808D01*
X59713Y114789D01*
X61681Y114261D01*
X63719D01*
X65687Y114789D01*
X67452Y115808D01*
X68893Y117248D01*
X69911Y119013D01*
X70054Y119546D01*
X71324Y119379D01*
Y111647D01*
X71521Y110656D01*
X72083Y109816D01*
X79590Y102309D01*
X80430Y101747D01*
X81421Y101550D01*
X98443D01*
X99144Y100280D01*
X98552Y98851D01*
Y96729D01*
X99144Y95300D01*
X98443Y94030D01*
X79305D01*
X72719Y100615D01*
X72898Y101047D01*
Y103169D01*
X72086Y105129D01*
X70585Y106630D01*
X68625Y107442D01*
X66503D01*
X64542Y106630D01*
X63042Y105129D01*
X62230Y103169D01*
Y101047D01*
X63042Y99087D01*
X64542Y97586D01*
X66503Y96774D01*
X68625D01*
X69057Y96953D01*
X76401Y89609D01*
X77241Y89047D01*
X78232Y88850D01*
X557676D01*
X558376Y87580D01*
X557784Y86151D01*
Y84029D01*
X558596Y82069D01*
X560097Y80568D01*
X562057Y79756D01*
X564179D01*
X566139Y80568D01*
X567640Y82069D01*
X568452Y84029D01*
Y86151D01*
X568273Y86583D01*
X570541Y88850D01*
X789940D01*
X790931Y89047D01*
X791771Y89609D01*
X824422Y122260D01*
X825508Y121632D01*
X828013Y120961D01*
X830607D01*
X833112Y121632D01*
X835357Y122929D01*
X837191Y124763D01*
X838488Y127008D01*
X839159Y129513D01*
Y132107D01*
X838488Y134612D01*
X837191Y136857D01*
X835357Y138691D01*
X833112Y139988D01*
X830607Y140659D01*
X828013D01*
X825508Y139988D01*
X823263Y138691D01*
X821429Y136857D01*
X820132Y134612D01*
X819461Y132107D01*
Y129513D01*
X820132Y127008D01*
X820760Y125922D01*
X788867Y94030D01*
X757212D01*
X756726Y95203D01*
X767641Y106119D01*
X768203Y106959D01*
X768400Y107950D01*
Y126083D01*
X769670Y126424D01*
X770629Y124763D01*
X772463Y122929D01*
X774708Y121632D01*
X777213Y120961D01*
X779807D01*
X782312Y121632D01*
X784557Y122929D01*
X786391Y124763D01*
X787688Y127008D01*
X788359Y129513D01*
Y132107D01*
X787688Y134612D01*
X786391Y136857D01*
X784557Y138691D01*
X782312Y139988D01*
X779807Y140659D01*
X777213D01*
X774708Y139988D01*
X772463Y138691D01*
X770629Y136857D01*
X769670Y135196D01*
X768400Y135537D01*
Y137103D01*
X801931Y170635D01*
X802493Y171475D01*
X802690Y172466D01*
Y261620D01*
X802493Y262611D01*
X801931Y263451D01*
X787060Y278322D01*
X787688Y279408D01*
X788359Y281913D01*
Y284507D01*
X787688Y287012D01*
X786391Y289257D01*
X784557Y291091D01*
X783996Y291415D01*
X784336Y292685D01*
X790772D01*
X795359Y288098D01*
X794732Y287012D01*
X794061Y284507D01*
Y281913D01*
X794732Y279408D01*
X796029Y277163D01*
X797863Y275329D01*
X800108Y274032D01*
X802613Y273361D01*
X805207D01*
X807712Y274032D01*
X809957Y275329D01*
X811791Y277163D01*
X813088Y279408D01*
X813759Y281913D01*
Y284507D01*
X813088Y287012D01*
X811791Y289257D01*
X809957Y291091D01*
X807712Y292388D01*
X805207Y293059D01*
X802613D01*
X800108Y292388D01*
X799022Y291761D01*
X793676Y297106D01*
X792836Y297668D01*
X791845Y297865D01*
X645325D01*
X644839Y299038D01*
X667819Y322019D01*
X668381Y322859D01*
X668578Y323850D01*
Y344006D01*
X682054D01*
Y367054D01*
X670200D01*
X669674Y368324D01*
X673915Y372565D01*
X674477Y373405D01*
X674674Y374396D01*
Y454318D01*
X675847Y454804D01*
X760655Y369996D01*
X760476Y369564D01*
Y367442D01*
X760217Y367054D01*
X747006D01*
Y344006D01*
X762054D01*
Y363057D01*
X763324Y363759D01*
X764749Y363169D01*
X766871D01*
X766920Y363190D01*
X767976Y362484D01*
Y350440D01*
X768459Y349273D01*
X769626Y348790D01*
X839530D01*
X840696Y349273D01*
X841180Y350440D01*
Y510530D01*
X840696Y511696D01*
X839530Y512180D01*
X769626D01*
X768459Y511696D01*
X767976Y510530D01*
Y374522D01*
X766920Y373817D01*
X766871Y373837D01*
X764749D01*
X764317Y373658D01*
X655614Y482361D01*
X654774Y482923D01*
X653783Y483120D01*
X626712D01*
X625840Y484390D01*
X625906Y484721D01*
Y493596D01*
X627006Y494006D01*
X627176Y494006D01*
X642054D01*
Y517054D01*
X627176D01*
X627006Y517054D01*
X625906Y517464D01*
Y521462D01*
X625709Y522453D01*
X625147Y523293D01*
X616787Y531653D01*
X616966Y532085D01*
Y534207D01*
X616154Y536167D01*
X614654Y537668D01*
X612693Y538480D01*
X610571D01*
X608610Y537668D01*
X607110Y536167D01*
X606298Y534207D01*
Y532085D01*
X607110Y530125D01*
X608610Y528624D01*
X610571Y527812D01*
X612693D01*
X613125Y527991D01*
X620726Y520389D01*
Y517054D01*
X615546D01*
Y505530D01*
Y494006D01*
X620726D01*
Y485794D01*
X618052Y483120D01*
X609554D01*
Y487554D01*
X589506D01*
Y473506D01*
X609554D01*
Y477940D01*
X652711D01*
X666358Y464293D01*
X665872Y463120D01*
X609554D01*
Y467554D01*
X589506D01*
Y463120D01*
X556698D01*
X552500Y467318D01*
Y564538D01*
X553712Y564862D01*
X555957Y566159D01*
X556972Y567174D01*
X558242Y566648D01*
Y555498D01*
X558439Y554507D01*
X559001Y553667D01*
X563319Y549349D01*
X564159Y548787D01*
X565150Y548590D01*
X654050D01*
X655041Y548787D01*
X655881Y549349D01*
X672022Y565490D01*
X673108Y564862D01*
X675613Y564191D01*
X678207D01*
X680712Y564862D01*
X682957Y566159D01*
X684791Y567993D01*
X686088Y570238D01*
X686759Y572743D01*
Y575337D01*
X686088Y577842D01*
X684791Y580087D01*
X682957Y581921D01*
X681296Y582880D01*
X681637Y584150D01*
X697583D01*
X697924Y582880D01*
X696263Y581921D01*
X694429Y580087D01*
X693132Y577842D01*
X692461Y575337D01*
Y572743D01*
X693132Y570238D01*
X694429Y567993D01*
X696263Y566159D01*
X698508Y564862D01*
X701013Y564191D01*
X703607D01*
X706112Y564862D01*
X708357Y566159D01*
X710191Y567993D01*
X711488Y570238D01*
X712159Y572743D01*
Y575337D01*
X711488Y577842D01*
X710191Y580087D01*
X708357Y581921D01*
X706696Y582880D01*
X707037Y584150D01*
X711200D01*
X712191Y584347D01*
X713031Y584909D01*
X716841Y588719D01*
X717403Y589559D01*
X717600Y590550D01*
Y636467D01*
X799022Y717889D01*
X800108Y717262D01*
X802613Y716591D01*
X805207D01*
X807712Y717262D01*
X809957Y718559D01*
X811791Y720393D01*
X813088Y722638D01*
X813759Y725143D01*
Y727737D01*
X813088Y730242D01*
X811791Y732487D01*
X809957Y734321D01*
X807712Y735618D01*
X805207Y736289D01*
X802613D01*
X800108Y735618D01*
X797863Y734321D01*
X796029Y732487D01*
X794732Y730242D01*
X794061Y727737D01*
Y725143D01*
X794732Y722638D01*
X795359Y721552D01*
X713179Y639371D01*
X712617Y638531D01*
X712420Y637540D01*
Y629567D01*
X711150Y629226D01*
X710191Y630887D01*
X708357Y632721D01*
X706112Y634018D01*
X703607Y634689D01*
X701013D01*
X698508Y634018D01*
X696263Y632721D01*
X694429Y630887D01*
X693132Y628642D01*
X692807Y627430D01*
X651510D01*
X650519Y627233D01*
X649679Y626671D01*
X605598Y582590D01*
X604512Y583218D01*
X602007Y583889D01*
X599413D01*
X596908Y583218D01*
X594663Y581921D01*
X592829Y580087D01*
X591532Y577842D01*
X590861Y575337D01*
Y572743D01*
X591532Y570238D01*
X592829Y567993D01*
X593844Y566978D01*
X593318Y565708D01*
X591623D01*
X588822Y568509D01*
Y584327D01*
X588625Y585318D01*
X588063Y586158D01*
X580316Y593905D01*
X579476Y594467D01*
X578485Y594664D01*
X574840D01*
X574354Y595837D01*
X678741Y700225D01*
X679303Y701065D01*
X679500Y702056D01*
Y716937D01*
X680712Y717262D01*
X682957Y718559D01*
X684791Y720393D01*
X686088Y722638D01*
X686759Y725143D01*
Y727737D01*
X686088Y730242D01*
X684791Y732487D01*
X683776Y733502D01*
X684302Y734772D01*
X694918D01*
X695444Y733502D01*
X694429Y732487D01*
X693132Y730242D01*
X692461Y727737D01*
Y725143D01*
X693132Y722638D01*
X694429Y720393D01*
X696263Y718559D01*
X698508Y717262D01*
X701013Y716591D01*
X703607D01*
X706112Y717262D01*
X708357Y718559D01*
X709372Y719574D01*
X710642Y719048D01*
Y717550D01*
X710839Y716559D01*
X711401Y715719D01*
X715211Y711909D01*
X716051Y711347D01*
X717042Y711150D01*
X740410D01*
X741401Y711347D01*
X742241Y711909D01*
X748222Y717889D01*
X749308Y717262D01*
X751813Y716591D01*
X754407D01*
X756912Y717262D01*
X759157Y718559D01*
X760991Y720393D01*
X762288Y722638D01*
X762959Y725143D01*
Y727737D01*
X762288Y730242D01*
X760991Y732487D01*
X759157Y734321D01*
X756912Y735618D01*
X754407Y736289D01*
X751813D01*
X749308Y735618D01*
X747063Y734321D01*
X745229Y732487D01*
X743932Y730242D01*
X743261Y727737D01*
Y725143D01*
X743932Y722638D01*
X744559Y721552D01*
X739337Y716330D01*
X732437D01*
X732096Y717600D01*
X733757Y718559D01*
X735591Y720393D01*
X736888Y722638D01*
X737559Y725143D01*
Y727737D01*
X736888Y730242D01*
X735591Y732487D01*
X733757Y734321D01*
X731512Y735618D01*
X729007Y736289D01*
X726413D01*
X723908Y735618D01*
X722822Y734990D01*
X705411Y752401D01*
X704571Y752963D01*
X703580Y753160D01*
X608712D01*
X607864Y754430D01*
X607948Y754634D01*
X601092D01*
X601176Y754430D01*
X600328Y753160D01*
X317754D01*
X316763Y752963D01*
X315923Y752401D01*
X305058Y741536D01*
X304496Y740696D01*
X304299Y739705D01*
Y733775D01*
X303029Y733250D01*
X301957Y734321D01*
X299712Y735618D01*
X297207Y736289D01*
X294613D01*
X292108Y735618D01*
X289863Y734321D01*
X288029Y732487D01*
X286732Y730242D01*
X286061Y727737D01*
Y725143D01*
X286732Y722638D01*
X288029Y720393D01*
X289863Y718559D01*
X292108Y717262D01*
X294613Y716591D01*
X297207D01*
X299712Y717262D01*
X301957Y718559D01*
X302217Y718818D01*
X303595Y718400D01*
X303677Y717988D01*
X191021Y605332D01*
X152021D01*
X151842Y605764D01*
X150342Y607264D01*
X148381Y608076D01*
X146259D01*
X144298Y607264D01*
X142798Y605764D01*
X141986Y603803D01*
Y601681D01*
X142798Y599720D01*
X144298Y598220D01*
X146259Y597408D01*
X148381D01*
X150342Y598220D01*
X151842Y599720D01*
X152021Y600152D01*
X192094D01*
X193085Y600349D01*
X193925Y600911D01*
X306682Y713667D01*
X307855Y713181D01*
Y674738D01*
X226765Y593648D01*
X141281D01*
X114375Y620553D01*
X114554Y620985D01*
Y623107D01*
X113742Y625067D01*
X112241Y626568D01*
X110281Y627380D01*
X108159D01*
X106199Y626568D01*
X104698Y625067D01*
X103886Y623107D01*
Y620985D01*
X104698Y619025D01*
X106199Y617524D01*
X108159Y616712D01*
X110281D01*
X110713Y616891D01*
X138377Y589227D01*
X139217Y588665D01*
X140208Y588468D01*
X225330D01*
X225996Y587198D01*
X225714Y586790D01*
X119183D01*
X107771Y598201D01*
X107950Y598633D01*
Y600755D01*
X107138Y602715D01*
X105638Y604216D01*
X103677Y605028D01*
X101555D01*
X99594Y604216D01*
X98094Y602715D01*
X97282Y600755D01*
Y598633D01*
X98094Y596673D01*
X99594Y595172D01*
X101555Y594360D01*
X103677D01*
X104109Y594539D01*
X114240Y584407D01*
X113754Y583234D01*
X41402D01*
X40411Y583037D01*
X39571Y582475D01*
X17207Y560112D01*
X16921Y560055D01*
X16081Y559494D01*
X12923Y556335D01*
X12491Y556514D01*
X10369D01*
X8408Y555702D01*
X6908Y554202D01*
X6096Y552241D01*
Y550119D01*
X6908Y548158D01*
X8408Y546658D01*
X10369Y545846D01*
X12491D01*
X14452Y546658D01*
X15952Y548158D01*
X16764Y550119D01*
Y552241D01*
X16585Y552673D01*
X19125Y555213D01*
X19411Y555270D01*
X20252Y555831D01*
X42475Y578054D01*
X229870D01*
X230861Y578251D01*
X231701Y578813D01*
X235261Y582372D01*
X237718D01*
X238244Y581102D01*
X237229Y580087D01*
X235932Y577842D01*
X235261Y575337D01*
Y575056D01*
X245110D01*
Y573024D01*
X235261D01*
Y572743D01*
X235932Y570238D01*
X237229Y567993D01*
X238244Y566978D01*
X237718Y565708D01*
X143522D01*
X141762Y567467D01*
X141941Y567899D01*
Y570021D01*
X141129Y571982D01*
X139628Y573482D01*
X137668Y574294D01*
X135546D01*
X133586Y573482D01*
X132085Y571982D01*
X131273Y570021D01*
Y567899D01*
X132085Y565938D01*
X133586Y564438D01*
X135546Y563626D01*
X137668D01*
X138100Y563805D01*
X140618Y561287D01*
X141458Y560725D01*
X142449Y560528D01*
X268186D01*
X268672Y559355D01*
X247807Y538490D01*
X246462Y538941D01*
X245822Y540485D01*
X244321Y541986D01*
X242361Y542798D01*
X240239D01*
X238279Y541986D01*
X236778Y540485D01*
X235966Y538525D01*
Y536403D01*
X236313Y535565D01*
X117865Y417118D01*
X44450D01*
X43459Y416921D01*
X42619Y416359D01*
X27379Y401119D01*
X27120Y400731D01*
X26849Y400352D01*
X26840Y400313D01*
X26817Y400279D01*
X26726Y399822D01*
X26621Y399367D01*
X24335Y324640D01*
X24342Y324600D01*
X24334Y324561D01*
Y310910D01*
X24341Y310875D01*
X24335Y310841D01*
X24439Y310381D01*
X24531Y309918D01*
X24551Y309889D01*
X24559Y309855D01*
X25794Y307083D01*
X24969Y306118D01*
X24573Y306224D01*
X20827D01*
X17210Y305255D01*
X13966Y303382D01*
X11318Y300734D01*
X11183Y300499D01*
X9956Y300828D01*
Y408629D01*
X133635Y532309D01*
X134067Y532130D01*
X136189D01*
X138149Y532942D01*
X139650Y534442D01*
X140462Y536403D01*
Y538525D01*
X139650Y540485D01*
X138149Y541986D01*
X136189Y542798D01*
X134067D01*
X132107Y541986D01*
X130606Y540485D01*
X129794Y538525D01*
Y536403D01*
X129973Y535971D01*
X5535Y411533D01*
X5155Y410964D01*
X3884Y411233D01*
Y846115D01*
X846115D01*
Y3884D01*
D02*
G37*
G36*
X670044Y733502D02*
X669029Y732487D01*
X667732Y730242D01*
X667061Y727737D01*
Y725143D01*
X667732Y722638D01*
X669029Y720393D01*
X670863Y718559D01*
X673108Y717262D01*
X674320Y716937D01*
Y703129D01*
X569411Y598220D01*
X552812D01*
X552112Y599490D01*
X552704Y600919D01*
Y603041D01*
X551892Y605001D01*
X550392Y606502D01*
X548431Y607314D01*
X546309D01*
X544348Y606502D01*
X542848Y605001D01*
X542669Y604570D01*
X495300D01*
X494309Y604373D01*
X493469Y603811D01*
X482801Y593143D01*
X482239Y592303D01*
X482042Y591312D01*
Y581432D01*
X480772Y580906D01*
X479757Y581921D01*
X477512Y583218D01*
X475007Y583889D01*
X472413D01*
X469908Y583218D01*
X468562Y582441D01*
X461656Y589347D01*
X461715Y589489D01*
Y591611D01*
X460903Y593572D01*
X459403Y595072D01*
X457442Y595884D01*
X455320D01*
X453360Y595072D01*
X451859Y593572D01*
X451047Y591611D01*
Y589489D01*
X451859Y587528D01*
X453360Y586028D01*
X455320Y585216D01*
X457442D01*
X458163Y585515D01*
X465010Y578669D01*
X464532Y577842D01*
X463861Y575337D01*
Y572743D01*
X464532Y570238D01*
X465829Y567993D01*
X466844Y566978D01*
X466318Y565708D01*
X455702D01*
X455176Y566978D01*
X456191Y567993D01*
X457488Y570238D01*
X458159Y572743D01*
Y575337D01*
X457488Y577842D01*
X456191Y580087D01*
X454357Y581921D01*
X452112Y583218D01*
X449607Y583889D01*
X447013D01*
X444508Y583218D01*
X442263Y581921D01*
X440429Y580087D01*
X439132Y577842D01*
X438461Y575337D01*
Y572743D01*
X439132Y570238D01*
X440429Y567993D01*
X441444Y566978D01*
X440918Y565708D01*
X430302D01*
X429776Y566978D01*
X430791Y567993D01*
X432088Y570238D01*
X432759Y572743D01*
Y575337D01*
X432088Y577842D01*
X430791Y580087D01*
X428957Y581921D01*
X426712Y583218D01*
X424207Y583889D01*
X421613D01*
X419108Y583218D01*
X416863Y581921D01*
X415029Y580087D01*
X413732Y577842D01*
X413061Y575337D01*
Y572743D01*
X413732Y570238D01*
X415029Y567993D01*
X416044Y566978D01*
X415518Y565708D01*
X404902D01*
X404376Y566978D01*
X405391Y567993D01*
X406688Y570238D01*
X407359Y572743D01*
Y575337D01*
X406688Y577842D01*
X405391Y580087D01*
X403557Y581921D01*
X401312Y583218D01*
X398807Y583889D01*
X396213D01*
X393708Y583218D01*
X391463Y581921D01*
X389629Y580087D01*
X388332Y577842D01*
X387661Y575337D01*
Y572743D01*
X388332Y570238D01*
X389629Y567993D01*
X390644Y566978D01*
X390118Y565708D01*
X379502D01*
X378976Y566978D01*
X379991Y567993D01*
X381288Y570238D01*
X381959Y572743D01*
Y575337D01*
X381288Y577842D01*
X379991Y580087D01*
X378157Y581921D01*
X375912Y583218D01*
X373407Y583889D01*
X370813D01*
X368308Y583218D01*
X366063Y581921D01*
X364229Y580087D01*
X362932Y577842D01*
X362261Y575337D01*
Y572743D01*
X362932Y570238D01*
X364229Y567993D01*
X365244Y566978D01*
X364718Y565708D01*
X354102D01*
X353576Y566978D01*
X354591Y567993D01*
X355888Y570238D01*
X356559Y572743D01*
Y575337D01*
X355888Y577842D01*
X354591Y580087D01*
X352757Y581921D01*
X350512Y583218D01*
X348007Y583889D01*
X345413D01*
X342908Y583218D01*
X340663Y581921D01*
X338829Y580087D01*
X337532Y577842D01*
X336861Y575337D01*
Y572743D01*
X337532Y570238D01*
X338829Y567993D01*
X339844Y566978D01*
X339318Y565708D01*
X328702D01*
X328176Y566978D01*
X329191Y567993D01*
X330488Y570238D01*
X331159Y572743D01*
Y575337D01*
X330488Y577842D01*
X329191Y580087D01*
X327357Y581921D01*
X325112Y583218D01*
X322607Y583889D01*
X320013D01*
X317508Y583218D01*
X315263Y581921D01*
X313429Y580087D01*
X312132Y577842D01*
X311461Y575337D01*
Y572743D01*
X312132Y570238D01*
X313429Y567993D01*
X314444Y566978D01*
X313918Y565708D01*
X303302D01*
X302776Y566978D01*
X303791Y567993D01*
X305088Y570238D01*
X305759Y572743D01*
Y575337D01*
X305088Y577842D01*
X303791Y580087D01*
X301957Y581921D01*
X299712Y583218D01*
X297207Y583889D01*
X294613D01*
X292108Y583218D01*
X291022Y582590D01*
X286819Y586793D01*
X285979Y587355D01*
X284988Y587552D01*
X236258D01*
X235772Y588725D01*
X347529Y700482D01*
X421605D01*
X421938Y699696D01*
X421995Y699212D01*
X421099Y698316D01*
X420686Y697318D01*
X427542D01*
X427128Y698316D01*
X426232Y699212D01*
X426289Y699696D01*
X426622Y700482D01*
X644779D01*
X645770Y700679D01*
X646610Y701241D01*
X664263Y718894D01*
X664825Y719734D01*
X665022Y720725D01*
Y732352D01*
X667442Y734772D01*
X669518D01*
X670044Y733502D01*
D02*
G37*
G36*
X693132Y621038D02*
X694429Y618793D01*
X696263Y616959D01*
X698508Y615662D01*
X701013Y614991D01*
X703607D01*
X706112Y615662D01*
X708357Y616959D01*
X710191Y618793D01*
X711150Y620454D01*
X712420Y620113D01*
Y604167D01*
X711150Y603826D01*
X710191Y605487D01*
X708357Y607321D01*
X706112Y608618D01*
X703607Y609289D01*
X701013D01*
X698508Y608618D01*
X696263Y607321D01*
X694429Y605487D01*
X693132Y603242D01*
X692461Y600737D01*
Y598143D01*
X693132Y595638D01*
X694429Y593393D01*
X696263Y591559D01*
X697924Y590600D01*
X697583Y589330D01*
X666750D01*
X665759Y589133D01*
X664919Y588571D01*
X660601Y584253D01*
X660039Y583413D01*
X659842Y582422D01*
Y581432D01*
X658572Y580906D01*
X657557Y581921D01*
X655312Y583218D01*
X652807Y583889D01*
X650213D01*
X647708Y583218D01*
X645463Y581921D01*
X643629Y580087D01*
X642332Y577842D01*
X641661Y575337D01*
Y572743D01*
X642332Y570238D01*
X642960Y569152D01*
X639515Y565708D01*
X633502D01*
X632976Y566978D01*
X633991Y567993D01*
X635288Y570238D01*
X635959Y572743D01*
Y575337D01*
X635288Y577842D01*
X633991Y580087D01*
X632157Y581921D01*
X629912Y583218D01*
X627407Y583889D01*
X624813D01*
X622308Y583218D01*
X620063Y581921D01*
X618229Y580087D01*
X616932Y577842D01*
X616261Y575337D01*
Y572743D01*
X616932Y570238D01*
X618229Y567993D01*
X619244Y566978D01*
X618718Y565708D01*
X608102D01*
X607576Y566978D01*
X608591Y567993D01*
X609888Y570238D01*
X610559Y572743D01*
Y575337D01*
X609888Y577842D01*
X609260Y578928D01*
X652583Y622250D01*
X692807D01*
X693132Y621038D01*
D02*
G37*
G36*
X534620Y569313D02*
Y528123D01*
X532962Y526465D01*
X272623D01*
X272097Y527735D01*
X275173Y530810D01*
X510413D01*
X511404Y531007D01*
X512244Y531569D01*
X515419Y534744D01*
X515981Y535584D01*
X516178Y536575D01*
Y566648D01*
X517448Y567174D01*
X518463Y566159D01*
X520708Y564862D01*
X523213Y564191D01*
X525807D01*
X528312Y564862D01*
X530557Y566159D01*
X532391Y567993D01*
X533350Y569654D01*
X534620Y569313D01*
D02*
G37*
G36*
X566494Y557731D02*
X567334Y557169D01*
X568325Y556972D01*
X653669D01*
X654561Y557150D01*
X654636Y557093D01*
X654946Y555738D01*
X652977Y553770D01*
X566223D01*
X563422Y556571D01*
Y559143D01*
X564595Y559629D01*
X566494Y557731D01*
D02*
G37*
G36*
X446122Y503224D02*
X446072Y502790D01*
X445685Y501954D01*
X374656D01*
X372112Y504497D01*
X371272Y505059D01*
X371571Y506270D01*
X371666Y506426D01*
X442919D01*
X446122Y503224D01*
D02*
G37*
G36*
X542029Y567993D02*
X543863Y566159D01*
X546108Y564862D01*
X547320Y564538D01*
Y474129D01*
X546100Y474009D01*
X545288Y475970D01*
X543787Y477470D01*
X541827Y478282D01*
X539705D01*
X537744Y477470D01*
X536244Y475970D01*
X535432Y474009D01*
Y471982D01*
X519364D01*
Y475841D01*
X520634Y476367D01*
X521226Y475775D01*
X522224Y475362D01*
Y478790D01*
Y482218D01*
X521226Y481805D01*
X520634Y481213D01*
X519364Y481739D01*
Y487064D01*
X513856D01*
Y478790D01*
X512840D01*
Y477774D01*
X506316D01*
Y471982D01*
X504364D01*
Y487064D01*
X491316D01*
Y481380D01*
X482534D01*
Y487064D01*
X469486D01*
Y472090D01*
X467534D01*
Y487064D01*
X463600D01*
Y495554D01*
X463403Y496545D01*
X462841Y497385D01*
X459134Y501092D01*
X459184Y501526D01*
X459571Y502362D01*
X532509D01*
X532688Y501931D01*
X534188Y500430D01*
X536149Y499618D01*
X538271D01*
X540232Y500430D01*
X541732Y501931D01*
X542544Y503891D01*
Y506013D01*
X541732Y507974D01*
X540232Y509474D01*
X538271Y510286D01*
X536149D01*
X534188Y509474D01*
X532688Y507974D01*
X532509Y507542D01*
X449129D01*
X445823Y510847D01*
X444983Y511409D01*
X443992Y511606D01*
X370461D01*
X370282Y512038D01*
X368782Y513538D01*
X366821Y514350D01*
X364699D01*
X362738Y513538D01*
X361238Y512038D01*
X360426Y510077D01*
Y507955D01*
X361018Y506526D01*
X360317Y505256D01*
X258202D01*
X257716Y506429D01*
X272572Y521285D01*
X534035D01*
X535026Y521482D01*
X535866Y522044D01*
X539041Y525219D01*
X539603Y526059D01*
X539800Y527050D01*
Y569313D01*
X541070Y569654D01*
X542029Y567993D01*
D02*
G37*
G36*
X491316Y470516D02*
X495250D01*
Y469646D01*
X495447Y468655D01*
X496009Y467815D01*
X496263Y467561D01*
X496365Y467493D01*
X496576Y465908D01*
X496129Y465461D01*
X495567Y464621D01*
X495370Y463630D01*
Y462934D01*
X491436D01*
Y457250D01*
X482654D01*
Y462934D01*
X478720D01*
Y463550D01*
X478523Y464541D01*
X477961Y465381D01*
X474000Y469343D01*
X474486Y470516D01*
X482534D01*
Y476200D01*
X491316D01*
Y470516D01*
D02*
G37*
G36*
X256577Y463327D02*
X256733Y462543D01*
X257177Y461877D01*
X257843Y461433D01*
X258628Y461277D01*
X274153D01*
X274937Y461433D01*
X275603Y461877D01*
X276988Y461665D01*
X277572Y461080D01*
Y440458D01*
X277474Y440392D01*
X276203Y441071D01*
Y443452D01*
X276047Y444237D01*
X275603Y444903D01*
X274937Y445347D01*
X274153Y445503D01*
X258628D01*
X257843Y445347D01*
X257177Y444903D01*
X256733Y444237D01*
X256577Y443452D01*
Y443280D01*
X243332D01*
X242341Y443083D01*
X241501Y442521D01*
X233119Y434139D01*
X232714Y433533D01*
X231559Y433698D01*
X231444Y433744D01*
Y436696D01*
X245548Y450800D01*
X256577D01*
Y450628D01*
X256733Y449843D01*
X257177Y449177D01*
X257843Y448733D01*
X258628Y448577D01*
X274153D01*
X274937Y448733D01*
X275603Y449177D01*
X276047Y449843D01*
X276203Y450628D01*
Y456152D01*
X276047Y456937D01*
X275603Y457603D01*
X274937Y458047D01*
X274153Y458203D01*
X258628D01*
X257843Y458047D01*
X257177Y457603D01*
X256733Y456937D01*
X256577Y456152D01*
Y455980D01*
X244475D01*
X243484Y455783D01*
X242644Y455221D01*
X227023Y439600D01*
X226461Y438760D01*
X226264Y437769D01*
Y379859D01*
X225833Y379680D01*
X224332Y378180D01*
X223520Y376219D01*
Y374097D01*
X224332Y372136D01*
X225833Y370636D01*
X225855Y370627D01*
X225603Y369357D01*
X190745D01*
X189754Y369160D01*
X188914Y368598D01*
X161594Y341278D01*
X160324Y341804D01*
Y394659D01*
X173586Y407922D01*
X174663Y407202D01*
X174244Y406191D01*
Y404069D01*
X175056Y402108D01*
X176556Y400608D01*
X178517Y399796D01*
X180639D01*
X182600Y400608D01*
X184100Y402108D01*
X184912Y404069D01*
Y406191D01*
X184733Y406623D01*
X241611Y463500D01*
X256577D01*
Y463327D01*
D02*
G37*
G36*
X458420Y494481D02*
Y487064D01*
X454486D01*
Y472090D01*
X438607D01*
X430351Y480345D01*
X430530Y480777D01*
Y482899D01*
X429718Y484860D01*
X428218Y486360D01*
X426257Y487172D01*
X424135D01*
X422174Y486360D01*
X420674Y484860D01*
X419862Y482899D01*
Y480777D01*
X420674Y478816D01*
X422174Y477316D01*
X424135Y476504D01*
X426257D01*
X426689Y476683D01*
X435703Y467668D01*
X436543Y467107D01*
X437534Y466910D01*
X469108D01*
X471910Y464107D01*
X471424Y462934D01*
X469606D01*
Y446386D01*
X482654D01*
Y452070D01*
X491436D01*
Y446386D01*
X504484D01*
Y462230D01*
X506436D01*
Y455676D01*
X512960D01*
Y454660D01*
X513976D01*
Y446386D01*
X519484D01*
Y448731D01*
X520754Y449429D01*
X521226Y449233D01*
Y452661D01*
Y456090D01*
X520754Y455894D01*
X519484Y456592D01*
Y462230D01*
X540709D01*
X552397Y450543D01*
X553237Y449981D01*
X554228Y449784D01*
X635451D01*
X660579Y424657D01*
X660400Y424225D01*
Y422103D01*
X661212Y420143D01*
X662712Y418642D01*
X664673Y417830D01*
X666795D01*
X668224Y418422D01*
X669494Y417721D01*
Y385934D01*
X668224Y385383D01*
X666541Y386080D01*
X664419D01*
X662458Y385268D01*
X660958Y383768D01*
X660656Y383038D01*
X659175Y382783D01*
X658214Y383744D01*
X657783Y383923D01*
Y388747D01*
X657586Y389738D01*
X657024Y390578D01*
X633645Y413958D01*
X632804Y414519D01*
X631813Y414716D01*
X609554D01*
Y427554D01*
X589506D01*
Y416822D01*
X588333Y416336D01*
X560878Y443791D01*
X560037Y444353D01*
X559046Y444550D01*
X448621D01*
X443229Y449941D01*
X442389Y450503D01*
X441398Y450700D01*
X364200D01*
X363209Y450503D01*
X362369Y449941D01*
X360787Y448360D01*
X355107D01*
X354854Y449630D01*
X356082Y450138D01*
X357582Y451638D01*
X358394Y453599D01*
Y455721D01*
X357582Y457682D01*
X356082Y459182D01*
X354121Y459994D01*
X351999D01*
X350038Y459182D01*
X348538Y457682D01*
X348096Y456615D01*
X332611D01*
X332547Y456937D01*
X332103Y457603D01*
X331437Y458047D01*
X330652Y458203D01*
X315127D01*
X314343Y458047D01*
X313677Y457603D01*
X313233Y456937D01*
X313076Y456152D01*
Y450628D01*
X313134Y450340D01*
X312445Y449240D01*
X312222Y449070D01*
X301446D01*
X300455Y448873D01*
X299615Y448311D01*
X281883Y430580D01*
X277834D01*
X277449Y431850D01*
X277675Y432001D01*
X281993Y436319D01*
X282555Y437159D01*
X282752Y438150D01*
Y462153D01*
X282741Y462205D01*
X283745Y463475D01*
X284494D01*
X286044Y464117D01*
X286673Y463697D01*
X287664Y463500D01*
X313076D01*
Y463327D01*
X313233Y462543D01*
X313677Y461877D01*
X314343Y461433D01*
X315127Y461277D01*
X330652D01*
X331437Y461433D01*
X332103Y461877D01*
X332547Y462543D01*
X332703Y463327D01*
Y468853D01*
X332547Y469637D01*
X332103Y470303D01*
X331437Y470747D01*
X330652Y470903D01*
X315127D01*
X314343Y470747D01*
X313677Y470303D01*
X313233Y469637D01*
X313076Y468853D01*
Y468680D01*
X288767D01*
Y469870D01*
X287955Y471830D01*
X286454Y473331D01*
X284494Y474143D01*
X282372D01*
X280411Y473331D01*
X278911Y471830D01*
X278099Y469870D01*
Y469857D01*
X276960Y469104D01*
X276073Y469506D01*
X276047Y469637D01*
X275603Y470303D01*
X274937Y470747D01*
X274153Y470903D01*
X273470D01*
Y478136D01*
X284364D01*
Y486410D01*
Y494684D01*
X263606D01*
Y478136D01*
X268291D01*
Y471653D01*
X267541Y470903D01*
X258628D01*
X257843Y470747D01*
X257177Y470303D01*
X256733Y469637D01*
X256577Y468853D01*
Y468680D01*
X240538D01*
X239547Y468483D01*
X238707Y467921D01*
X181071Y410285D01*
X180639Y410464D01*
X178517D01*
X177506Y410045D01*
X176786Y411122D01*
X245461Y479796D01*
X245678Y479741D01*
X246634Y479174D01*
Y478083D01*
X247175Y476776D01*
X248176Y475775D01*
X249174Y475362D01*
Y478790D01*
X250190D01*
Y479806D01*
X253618D01*
X253205Y480804D01*
X252204Y481805D01*
X250897Y482346D01*
X249806D01*
X249239Y483302D01*
X249184Y483519D01*
X262185Y496520D01*
X367735D01*
X411427Y452829D01*
X412267Y452267D01*
X413258Y452070D01*
X454606D01*
Y446386D01*
X467654D01*
Y462934D01*
X454606D01*
Y457250D01*
X414331D01*
X375980Y495601D01*
X376466Y496774D01*
X456127D01*
X458420Y494481D01*
D02*
G37*
G36*
X585278Y412066D02*
X585051Y410497D01*
X584909Y410402D01*
X584655Y410148D01*
X584093Y409308D01*
X583896Y408317D01*
Y381819D01*
X573983Y371906D01*
X532344D01*
X531818Y373176D01*
X533448Y374806D01*
X534188Y374065D01*
X536149Y373253D01*
X538271D01*
X540232Y374065D01*
X541732Y375565D01*
X542544Y377526D01*
Y379648D01*
X541732Y381609D01*
X540232Y383109D01*
X538271Y383921D01*
X536149D01*
X534188Y383109D01*
X532688Y381609D01*
X532371Y380843D01*
X531736Y380418D01*
X528196Y376879D01*
X527832D01*
X526841Y376682D01*
X526001Y376120D01*
X525342Y375462D01*
X519484D01*
Y379201D01*
X520754Y379727D01*
X521226Y379255D01*
X522224Y378842D01*
Y382270D01*
Y385698D01*
X521226Y385285D01*
X520754Y384813D01*
X519484Y385339D01*
Y390544D01*
X513976D01*
Y382270D01*
X512960D01*
Y381254D01*
X506436D01*
Y375462D01*
X504484D01*
Y390544D01*
X492251D01*
X491395Y391797D01*
X491744Y392639D01*
Y394761D01*
X490932Y396721D01*
X489431Y398222D01*
X487471Y399034D01*
X485349D01*
X483924Y398444D01*
X482708Y399117D01*
X482654Y399188D01*
Y403810D01*
X491436D01*
Y398126D01*
X495375D01*
X495567Y397161D01*
X496129Y396321D01*
X499819Y392631D01*
X500659Y392069D01*
X501650Y391872D01*
X559687D01*
X559866Y391441D01*
X561367Y389940D01*
X563327Y389128D01*
X565449D01*
X567410Y389940D01*
X568910Y391441D01*
X569722Y393401D01*
Y395523D01*
X568910Y397483D01*
X567410Y398984D01*
X565449Y399796D01*
X563327D01*
X561367Y398984D01*
X559866Y397483D01*
X559687Y397052D01*
X519957D01*
X519484Y398126D01*
X519484Y398322D01*
Y405384D01*
X512960D01*
Y407416D01*
X519484D01*
Y413970D01*
X519484Y414674D01*
X520520Y415240D01*
X522986D01*
X523977Y415437D01*
X524817Y415999D01*
X539645Y430827D01*
X540975Y430276D01*
X543097D01*
X545057Y431088D01*
X546558Y432589D01*
X547370Y434549D01*
Y436671D01*
X546778Y438100D01*
X547478Y439370D01*
X557974D01*
X585278Y412066D01*
D02*
G37*
G36*
X669494Y456127D02*
Y428606D01*
X668224Y427906D01*
X666795Y428498D01*
X664673D01*
X664241Y428319D01*
X638355Y454205D01*
X637515Y454767D01*
X636524Y454964D01*
X609554D01*
Y457940D01*
X667681D01*
X669494Y456127D01*
D02*
G37*
G36*
X537294Y438100D02*
X536702Y436671D01*
Y435209D01*
X521913Y420420D01*
X500550D01*
Y422256D01*
X504484D01*
Y438577D01*
X505460Y439137D01*
X506436Y438577D01*
X506436Y438100D01*
Y431546D01*
X512960D01*
Y430530D01*
X513976D01*
Y422256D01*
X519484D01*
Y427461D01*
X520754Y427987D01*
X521226Y427515D01*
X522224Y427102D01*
Y430530D01*
Y433958D01*
X521226Y433545D01*
X520754Y433073D01*
X519484Y433599D01*
X519484Y438804D01*
X520520Y439370D01*
X536594D01*
X537294Y438100D01*
D02*
G37*
G36*
X445717Y440129D02*
X446557Y439567D01*
X447548Y439370D01*
X453570D01*
X454606Y438804D01*
Y433120D01*
X450850D01*
X449859Y432923D01*
X449019Y432361D01*
X441399Y424741D01*
X440837Y423901D01*
X440640Y422910D01*
Y409420D01*
X440837Y408429D01*
X441399Y407589D01*
X442059Y406929D01*
X441340Y405852D01*
X441243Y405892D01*
X439121D01*
X437160Y405080D01*
X435660Y403579D01*
X434848Y401619D01*
Y399497D01*
X435027Y399065D01*
X429711Y393750D01*
X403244D01*
Y397684D01*
X386696D01*
Y384636D01*
X403244D01*
Y388570D01*
X430784D01*
X431775Y388767D01*
X432615Y389329D01*
X438689Y395403D01*
X439121Y395224D01*
X441243D01*
X441690Y395409D01*
X443086Y394613D01*
X443159Y394097D01*
X429349Y380288D01*
X391289D01*
X391110Y380719D01*
X389609Y382220D01*
X387649Y383032D01*
X385527D01*
X383567Y382220D01*
X382066Y380719D01*
X381254Y378759D01*
Y376637D01*
X382066Y374677D01*
X383567Y373176D01*
X385527Y372364D01*
X386431D01*
X387604Y371901D01*
Y369779D01*
X388416Y367818D01*
X389916Y366318D01*
X390531Y366064D01*
X390278Y364794D01*
X372548D01*
X370890Y366452D01*
Y396621D01*
X370693Y397612D01*
X370131Y398452D01*
X351462Y417121D01*
X350622Y417683D01*
X349631Y417880D01*
X332703D01*
Y418052D01*
X332547Y418837D01*
X332103Y419503D01*
X331437Y419947D01*
X330652Y420103D01*
X315127D01*
X314343Y419947D01*
X313677Y419503D01*
X313233Y418837D01*
X313076Y418052D01*
Y412528D01*
X312133Y411276D01*
X302394D01*
X302381Y411295D01*
X302005Y412546D01*
X302735Y413276D01*
X303148Y414274D01*
X296292D01*
X296705Y413276D01*
X297435Y412546D01*
X297059Y411295D01*
X297046Y411276D01*
X277147D01*
X276203Y412528D01*
Y414274D01*
X266390D01*
X256577D01*
Y412528D01*
X255634Y411276D01*
X252864D01*
X252851Y411295D01*
X252475Y412546D01*
X253205Y413276D01*
X253618Y414274D01*
X250190D01*
Y415290D01*
X249174D01*
Y418718D01*
X248176Y418305D01*
X247175Y417304D01*
X247132Y417198D01*
X246353Y417105D01*
X245730Y417133D01*
X244321Y418542D01*
X242361Y419354D01*
X240239D01*
X238810Y418762D01*
X237540Y419463D01*
Y431235D01*
X244405Y438100D01*
X255376D01*
X255621Y437649D01*
X254935Y436254D01*
X254787Y436225D01*
X253947Y435663D01*
X253693Y435409D01*
X253131Y434569D01*
X252934Y433578D01*
Y422148D01*
X253131Y421157D01*
X253693Y420317D01*
X253947Y420063D01*
X254787Y419501D01*
X255635Y419333D01*
X255810Y419254D01*
X256577Y418052D01*
Y416306D01*
X266390D01*
X276203D01*
Y418052D01*
X277147Y419304D01*
X292100D01*
X293091Y419501D01*
X293931Y420063D01*
X299269Y425400D01*
X313076D01*
Y425228D01*
X313233Y424443D01*
X313677Y423777D01*
X314343Y423333D01*
X315127Y423177D01*
X330652D01*
X331437Y423333D01*
X332103Y423777D01*
X332547Y424443D01*
X332703Y425228D01*
Y430752D01*
X332547Y431537D01*
X332103Y432203D01*
X331437Y432647D01*
X330652Y432803D01*
X315127D01*
X314343Y432647D01*
X313677Y432203D01*
X313233Y431537D01*
X313076Y430752D01*
Y430580D01*
X298196D01*
X297205Y430383D01*
X296365Y429821D01*
X291027Y424484D01*
X284392D01*
X284346Y424599D01*
X284181Y425754D01*
X284787Y426159D01*
X302519Y443890D01*
X312717D01*
X313076Y443452D01*
Y437928D01*
X313233Y437143D01*
X313677Y436477D01*
X314343Y436033D01*
X315127Y435877D01*
X330652D01*
X331437Y436033D01*
X332103Y436477D01*
X332547Y437143D01*
X332703Y437928D01*
Y438100D01*
X361059D01*
X361238Y437668D01*
X362738Y436168D01*
X364699Y435356D01*
X366821D01*
X368782Y436168D01*
X370282Y437668D01*
X371094Y439629D01*
Y441751D01*
X370282Y443712D01*
X369743Y444250D01*
X370269Y445520D01*
X386696D01*
Y434046D01*
X403244D01*
Y437980D01*
X409765D01*
X420295Y427451D01*
X420116Y427019D01*
Y424897D01*
X420928Y422937D01*
X422429Y421436D01*
X424389Y420624D01*
X426511D01*
X428471Y421436D01*
X429972Y422937D01*
X430784Y424897D01*
Y427019D01*
X429972Y428979D01*
X428471Y430480D01*
X426511Y431292D01*
X424389D01*
X423957Y431113D01*
X420589Y434481D01*
X420837Y435727D01*
X421614Y436048D01*
X423114Y437549D01*
X423926Y439509D01*
Y441631D01*
X423114Y443592D01*
X422455Y444250D01*
X422981Y445520D01*
X440325D01*
X445717Y440129D01*
D02*
G37*
G36*
X484404Y426008D02*
X486365Y425196D01*
X488487D01*
X490166Y425891D01*
X491436Y425337D01*
Y422256D01*
X495370D01*
Y419020D01*
X495567Y418029D01*
X496129Y417189D01*
X497319Y415999D01*
X497401Y415944D01*
X497016Y414674D01*
X491436D01*
Y408990D01*
X482654D01*
Y414674D01*
X478720D01*
Y415925D01*
X478523Y416916D01*
X477961Y417756D01*
X474732Y420986D01*
X474906Y421770D01*
X475216Y422256D01*
X482654D01*
Y425962D01*
X483924Y426488D01*
X484404Y426008D01*
D02*
G37*
G36*
X310776Y405981D02*
X310941Y404826D01*
X310335Y404421D01*
X304235Y398322D01*
X277093D01*
X276884Y398466D01*
X276157Y399592D01*
X276203Y399827D01*
Y405353D01*
X276814Y406096D01*
X310730D01*
X310776Y405981D01*
D02*
G37*
G36*
X472394Y415811D02*
X471923Y414674D01*
X469606D01*
Y398126D01*
X469606D01*
X469292Y397413D01*
X468628D01*
X467654Y398553D01*
Y414674D01*
X454606D01*
Y398126D01*
X454606Y398126D01*
X454606D01*
X454004Y397119D01*
X450348Y393462D01*
X449658Y393657D01*
X449122Y394032D01*
Y406118D01*
X448925Y407109D01*
X448363Y407949D01*
X445820Y410493D01*
Y413657D01*
X447090Y414358D01*
X448519Y413766D01*
X450641D01*
X452602Y414578D01*
X454102Y416078D01*
X454386Y416764D01*
X471609D01*
X472394Y415811D01*
D02*
G37*
G36*
X349073Y388182D02*
Y361950D01*
X349270Y360959D01*
X349832Y360119D01*
X353642Y356309D01*
X354482Y355747D01*
X355473Y355550D01*
X454606D01*
Y349866D01*
X467654D01*
Y365851D01*
X468630Y366411D01*
X469606Y365851D01*
Y349866D01*
X482654D01*
Y355550D01*
X490166D01*
Y349866D01*
X494100D01*
Y346964D01*
X494297Y345973D01*
X494859Y345133D01*
X512893Y327099D01*
X513733Y326537D01*
X514724Y326340D01*
X607439D01*
X607618Y325909D01*
X609118Y324408D01*
X610548Y323816D01*
X610950Y322423D01*
X609633Y321106D01*
X534416D01*
X533425Y320909D01*
X532585Y320347D01*
X503998Y291761D01*
X502912Y292388D01*
X500407Y293059D01*
X497813D01*
X495308Y292388D01*
X493063Y291091D01*
X491991Y290019D01*
X490721Y290546D01*
Y297631D01*
X490524Y298622D01*
X489962Y299462D01*
X475173Y314251D01*
X474333Y314813D01*
X473342Y315010D01*
X408561D01*
X408382Y315441D01*
X406881Y316942D01*
X404921Y317754D01*
X402799D01*
X400839Y316942D01*
X399338Y315441D01*
X398526Y313481D01*
Y311359D01*
X399338Y309398D01*
X400839Y307898D01*
X402799Y307086D01*
X404921D01*
X406881Y307898D01*
X408382Y309398D01*
X408561Y309830D01*
X472270D01*
X477849Y304251D01*
X477008Y303329D01*
X476168Y303891D01*
X475177Y304088D01*
X397567D01*
X383085Y318569D01*
X382245Y319131D01*
X381254Y319328D01*
X177984D01*
X175564Y321748D01*
Y330219D01*
X176834Y330919D01*
X178263Y330327D01*
X180385D01*
X182346Y331139D01*
X183846Y332640D01*
X184025Y333071D01*
X235812D01*
X236803Y333268D01*
X237643Y333830D01*
X268023Y364210D01*
X268585Y365050D01*
X268782Y366041D01*
Y372377D01*
X274153D01*
X274937Y372533D01*
X275603Y372977D01*
X276047Y373643D01*
X276203Y374427D01*
Y379953D01*
X276047Y380737D01*
X275603Y381403D01*
X274937Y381847D01*
X274153Y382003D01*
X258628D01*
X257606Y383095D01*
Y383985D01*
X258628Y385077D01*
X274153D01*
X274937Y385233D01*
X275603Y385677D01*
X276047Y386343D01*
X276203Y387127D01*
Y392653D01*
X276605Y393142D01*
X305308D01*
X306299Y393339D01*
X307139Y393901D01*
X312006Y398767D01*
X312206Y398812D01*
X313571Y398536D01*
X313677Y398377D01*
X314343Y397933D01*
X315127Y397777D01*
X330652D01*
X331437Y397933D01*
X332103Y398377D01*
X332547Y399043D01*
X332703Y399827D01*
Y402893D01*
X333877Y403379D01*
X349073Y388182D01*
D02*
G37*
G36*
X277816Y555799D02*
X72083Y350065D01*
X71521Y349225D01*
X71324Y348234D01*
Y344622D01*
X70054Y344454D01*
X69911Y344987D01*
X68893Y346752D01*
X67452Y348193D01*
X65687Y349211D01*
X63719Y349739D01*
X62589D01*
X62063Y351009D01*
X80317Y369263D01*
X80879Y370103D01*
X81076Y371094D01*
Y378851D01*
X82346Y379377D01*
X83144Y378579D01*
X85282Y377345D01*
X87666Y376706D01*
X90134D01*
X92518Y377345D01*
X94656Y378579D01*
X96401Y380324D01*
X97635Y382462D01*
X98274Y384846D01*
Y387314D01*
X97635Y389698D01*
X96401Y391836D01*
X95222Y393015D01*
X95748Y394285D01*
X109855D01*
X110846Y394482D01*
X111686Y395044D01*
X273615Y556972D01*
X277330D01*
X277816Y555799D01*
D02*
G37*
G36*
X622504Y395802D02*
Y368138D01*
X622054Y367054D01*
X621234Y367054D01*
X607006D01*
Y358120D01*
X556389D01*
X556210Y358551D01*
X554710Y360052D01*
X552749Y360864D01*
X550627D01*
X548666Y360052D01*
X547166Y358551D01*
X546354Y356591D01*
Y354469D01*
X547166Y352508D01*
X548666Y351008D01*
X550627Y350196D01*
X552749D01*
X554710Y351008D01*
X556210Y352508D01*
X556389Y352940D01*
X607006D01*
Y344006D01*
X621234D01*
X622054Y344006D01*
X622504Y342922D01*
Y333977D01*
X618647Y330120D01*
X617254Y330522D01*
X616662Y331951D01*
X615162Y333452D01*
X613201Y334264D01*
X611079D01*
X609118Y333452D01*
X607618Y331951D01*
X607439Y331520D01*
X515797D01*
X499280Y348037D01*
Y349866D01*
X503214D01*
Y365851D01*
X504190Y366411D01*
X505166Y365851D01*
Y359156D01*
X511690D01*
X518214D01*
X518214Y366414D01*
X519355Y366726D01*
X575056D01*
X576047Y366923D01*
X576887Y367485D01*
X588236Y378834D01*
X588581Y378802D01*
X589506Y378408D01*
Y373506D01*
X609554D01*
Y387554D01*
X590346D01*
X589506Y387554D01*
X589076Y388646D01*
Y392414D01*
X589506Y393506D01*
X609554D01*
Y397940D01*
X620366D01*
X622504Y395802D01*
D02*
G37*
G36*
X441960Y375953D02*
Y375367D01*
X442772Y373406D01*
X443146Y373032D01*
X443087Y372491D01*
X442805Y371578D01*
X442161Y371147D01*
X435807Y364794D01*
X395598D01*
X395345Y366064D01*
X395960Y366318D01*
X397460Y367818D01*
X398270Y369774D01*
X432912D01*
X433903Y369971D01*
X434743Y370533D01*
X440690Y376479D01*
X441960Y375953D01*
D02*
G37*
G36*
X365710Y395548D02*
Y365379D01*
X365907Y364388D01*
X366469Y363548D01*
X368113Y361903D01*
X367627Y360730D01*
X356546D01*
X354253Y363023D01*
Y389255D01*
X354056Y390246D01*
X353494Y391086D01*
X334063Y410517D01*
X333223Y411079D01*
X333109Y412396D01*
X333249Y412700D01*
X348558D01*
X365710Y395548D01*
D02*
G37*
G36*
X510998Y556857D02*
Y537648D01*
X509340Y535990D01*
X274100D01*
X273109Y535793D01*
X272269Y535231D01*
X86043Y349006D01*
X85687Y349211D01*
X83719Y349739D01*
X81681D01*
X80583Y349445D01*
X79926Y350583D01*
X282759Y553416D01*
X504825D01*
X505816Y553613D01*
X506656Y554175D01*
X509825Y557343D01*
X510998Y556857D01*
D02*
G37*
G36*
X243763Y392710D02*
X245264Y391210D01*
X247224Y390398D01*
X249346D01*
X251306Y391210D01*
X251843Y391747D01*
X252888Y391023D01*
X252623Y390627D01*
X252618Y390598D01*
X252602Y390573D01*
X252519Y390103D01*
X252426Y389636D01*
Y368638D01*
X231335Y347547D01*
X230904Y347726D01*
X229233D01*
X228653Y348943D01*
X241099Y361389D01*
X241661Y362229D01*
X241858Y363220D01*
Y393992D01*
X243128Y394244D01*
X243763Y392710D01*
D02*
G37*
G36*
X236678Y366348D02*
Y364293D01*
X217113Y344728D01*
X174164D01*
X173638Y345998D01*
X191818Y364177D01*
X231775D01*
X232766Y364374D01*
X233606Y364936D01*
X235505Y366834D01*
X236678Y366348D01*
D02*
G37*
G36*
X263602Y367114D02*
X235655Y339167D01*
X234578Y339886D01*
X235177Y341331D01*
Y343453D01*
X234998Y343885D01*
X256847Y365734D01*
X257409Y366574D01*
X257606Y367565D01*
Y371285D01*
X258628Y372377D01*
X263602D01*
Y367114D01*
D02*
G37*
G36*
X155253Y396281D02*
X155144Y395732D01*
Y337623D01*
X152080Y334559D01*
X147768Y334523D01*
X147423Y335790D01*
X147452Y335807D01*
X148893Y337248D01*
X149912Y339013D01*
X150439Y340981D01*
Y343019D01*
X149912Y344987D01*
X148893Y346752D01*
X147452Y348193D01*
X145687Y349211D01*
X143719Y349739D01*
X141681D01*
X139713Y349211D01*
X137948Y348193D01*
X136508Y346752D01*
X135489Y344987D01*
X134961Y343019D01*
Y340981D01*
X135489Y339013D01*
X136508Y337248D01*
X137948Y335807D01*
X138112Y335712D01*
X137777Y334440D01*
X127474Y334354D01*
X127129Y335621D01*
X127452Y335807D01*
X128892Y337248D01*
X129911Y339013D01*
X130439Y340981D01*
Y343019D01*
X129911Y344987D01*
X128892Y346752D01*
X127452Y348193D01*
X125687Y349211D01*
X125289Y349318D01*
Y368113D01*
X154083Y396907D01*
X155253Y396281D01*
D02*
G37*
G36*
X120110Y367164D02*
Y349318D01*
X119713Y349211D01*
X117948Y348193D01*
X116507Y346752D01*
X115488Y344987D01*
X114961Y343019D01*
Y340981D01*
X115488Y339013D01*
X116507Y337248D01*
X117948Y335807D01*
X119713Y334788D01*
X120223Y334651D01*
X120411Y334332D01*
X120646Y333223D01*
X120582Y333126D01*
X120307Y332715D01*
X120305Y332704D01*
X120299Y332695D01*
X120207Y332210D01*
X120110Y331724D01*
Y329318D01*
X119713Y329212D01*
X117948Y328193D01*
X116507Y326752D01*
X115488Y324987D01*
X114961Y323019D01*
Y320981D01*
X115488Y319013D01*
X116507Y317248D01*
X116713Y317042D01*
X116187Y315772D01*
X109212D01*
X108686Y317042D01*
X108893Y317248D01*
X109911Y319013D01*
X110439Y320981D01*
Y323019D01*
X109911Y324987D01*
X108893Y326752D01*
X107452Y328193D01*
X105687Y329212D01*
X103719Y329739D01*
X101681D01*
X99713Y329212D01*
X97948Y328193D01*
X96507Y326752D01*
X95488Y324987D01*
X94961Y323019D01*
Y320981D01*
X95488Y319013D01*
X96507Y317248D01*
X97036Y316720D01*
X97054Y316667D01*
X96805Y315154D01*
X96594Y315013D01*
X91895Y310314D01*
X91333Y309474D01*
X91136Y308483D01*
Y305618D01*
X89986Y305028D01*
X89866Y305065D01*
X88893Y306752D01*
X87452Y308193D01*
X85687Y309212D01*
X83719Y309739D01*
X81681D01*
X79713Y309212D01*
X79356Y309006D01*
X76504Y311859D01*
Y315455D01*
X77774Y315981D01*
X77948Y315807D01*
X79713Y314788D01*
X81681Y314261D01*
X83719D01*
X85687Y314788D01*
X87452Y315807D01*
X88893Y317248D01*
X89911Y319013D01*
X90439Y320981D01*
Y323019D01*
X89911Y324987D01*
X89706Y325343D01*
X94763Y330401D01*
X95325Y331241D01*
X95522Y332232D01*
Y336561D01*
X96792Y336963D01*
X97948Y335807D01*
X99713Y334788D01*
X101681Y334261D01*
X103719D01*
X105687Y334788D01*
X107452Y335807D01*
X108893Y337248D01*
X109911Y339013D01*
X110439Y340981D01*
Y343019D01*
X109911Y344987D01*
X108893Y346752D01*
X107452Y348193D01*
X105687Y349211D01*
X103719Y349739D01*
X102821D01*
X102295Y351009D01*
X118937Y367650D01*
X120110Y367164D01*
D02*
G37*
G36*
X120269Y410951D02*
X108782Y399465D01*
X81661D01*
X80670Y399268D01*
X79830Y398706D01*
X76655Y395531D01*
X76093Y394691D01*
X75896Y393700D01*
Y372167D01*
X30772Y327043D01*
X29606Y327546D01*
X31767Y398183D01*
X45523Y411938D01*
X118938D01*
X119589Y412068D01*
X120269Y410951D01*
D02*
G37*
G36*
X54961Y342110D02*
Y340981D01*
X55488Y339013D01*
X56507Y337248D01*
X57948Y335807D01*
X59713Y334788D01*
X61681Y334261D01*
X61684D01*
Y342000D01*
X63716D01*
Y334261D01*
X63719D01*
X65687Y334788D01*
X67452Y335807D01*
X68893Y337248D01*
X69911Y339013D01*
X70054Y339545D01*
X71324Y339378D01*
Y324622D01*
X70054Y324454D01*
X69911Y324987D01*
X68893Y326752D01*
X67452Y328193D01*
X65687Y329212D01*
X63719Y329739D01*
X63716D01*
Y322000D01*
Y314261D01*
X63719D01*
X65687Y314788D01*
X67452Y315807D01*
X68893Y317248D01*
X69911Y319013D01*
X70054Y319545D01*
X71324Y319378D01*
Y310786D01*
X71521Y309795D01*
X72083Y308955D01*
X75694Y305343D01*
X75488Y304987D01*
X74961Y303019D01*
Y300981D01*
X75488Y299013D01*
X76507Y297248D01*
X77948Y295807D01*
X79713Y294788D01*
X81681Y294261D01*
X83719D01*
X85687Y294788D01*
X87452Y295807D01*
X88893Y297248D01*
X89866Y298934D01*
X89986Y298972D01*
X91136Y298382D01*
Y285618D01*
X89986Y285028D01*
X89866Y285065D01*
X88893Y286752D01*
X87452Y288193D01*
X85687Y289212D01*
X83719Y289739D01*
X81681D01*
X79713Y289212D01*
X79356Y289006D01*
X74431Y293931D01*
X73591Y294493D01*
X72600Y294690D01*
X68056D01*
X67712Y295326D01*
X67604Y295960D01*
X68893Y297248D01*
X69911Y299013D01*
X70439Y300981D01*
Y300984D01*
X62700D01*
X54961D01*
Y300981D01*
X55488Y299013D01*
X56304Y297600D01*
X56161Y297402D01*
X55340Y296729D01*
X53639Y297434D01*
X51517D01*
X49556Y296622D01*
X48056Y295121D01*
X47244Y293161D01*
Y291039D01*
X47843Y289594D01*
X46766Y288875D01*
X44141Y291500D01*
X44224Y292346D01*
X43727Y297388D01*
X42257Y302236D01*
X39869Y306704D01*
X36655Y310620D01*
X33695Y313049D01*
X34356Y314150D01*
X34544Y314072D01*
Y317500D01*
Y321355D01*
X33859Y322019D01*
X33792Y322737D01*
X53691Y342636D01*
X54961Y342110D01*
D02*
G37*
G36*
X641935Y388448D02*
Y375998D01*
X642132Y375007D01*
X642694Y374167D01*
X645869Y370992D01*
X646709Y370431D01*
X647700Y370233D01*
X660478D01*
X661469Y370431D01*
X662309Y370992D01*
X666863Y375545D01*
X667105Y375646D01*
X668634Y374904D01*
X668699Y374673D01*
X664157Y370131D01*
X663595Y369291D01*
X663398Y368300D01*
Y324923D01*
X639515Y301040D01*
X592963D01*
X591972Y300843D01*
X591132Y300281D01*
X587957Y297106D01*
X587395Y296266D01*
X587198Y295275D01*
Y277298D01*
X584835Y274935D01*
X582759D01*
X582233Y276205D01*
X583191Y277163D01*
X584488Y279408D01*
X585159Y281913D01*
Y284507D01*
X584488Y287012D01*
X583191Y289257D01*
X581357Y291091D01*
X579112Y292388D01*
X576607Y293059D01*
X574013D01*
X571508Y292388D01*
X569263Y291091D01*
X567429Y289257D01*
X566132Y287012D01*
X565461Y284507D01*
Y281913D01*
X566132Y279408D01*
X567429Y277163D01*
X568387Y276205D01*
X567861Y274935D01*
X557359D01*
X556833Y276205D01*
X557791Y277163D01*
X559088Y279408D01*
X559759Y281913D01*
Y284507D01*
X559088Y287012D01*
X558461Y288098D01*
X582733Y312370D01*
X626489D01*
X626668Y311938D01*
X628168Y310438D01*
X630129Y309626D01*
X632251D01*
X634212Y310438D01*
X635712Y311938D01*
X636524Y313899D01*
Y316021D01*
X635712Y317981D01*
X634212Y319482D01*
X632251Y320294D01*
X630129D01*
X628168Y319482D01*
X626668Y317981D01*
X626489Y317550D01*
X615062D01*
X614576Y318723D01*
X626925Y331073D01*
X627487Y331913D01*
X627684Y332904D01*
Y344006D01*
X642054D01*
Y367054D01*
X627684D01*
Y396875D01*
X627487Y397866D01*
X626925Y398706D01*
X623270Y402361D01*
X622430Y402923D01*
X621439Y403120D01*
X609554D01*
Y405981D01*
X624402D01*
X641935Y388448D01*
D02*
G37*
G36*
X140126Y309322D02*
X139713Y309212D01*
X137948Y308193D01*
X136508Y306752D01*
X135489Y304987D01*
X134961Y303019D01*
Y300981D01*
X135489Y299013D01*
X136508Y297248D01*
X137948Y295807D01*
X139004Y295198D01*
X138664Y293928D01*
X132038D01*
X131047Y293731D01*
X130207Y293169D01*
X126043Y289006D01*
X125687Y289212D01*
X123719Y289739D01*
X121681D01*
X119713Y289212D01*
X117948Y288193D01*
X117708Y287952D01*
X116534Y288438D01*
Y292172D01*
X119356Y294994D01*
X119713Y294788D01*
X121681Y294261D01*
X123719D01*
X125687Y294788D01*
X127452Y295807D01*
X128892Y297248D01*
X129911Y299013D01*
X130439Y300981D01*
Y303019D01*
X129911Y304987D01*
X128892Y306752D01*
X127452Y308193D01*
X125687Y309212D01*
X125274Y309322D01*
X125441Y310592D01*
X139959D01*
X140126Y309322D01*
D02*
G37*
G36*
X120126D02*
X119713Y309212D01*
X117948Y308193D01*
X116507Y306752D01*
X115488Y304987D01*
X114961Y303019D01*
Y300981D01*
X115488Y299013D01*
X115694Y298657D01*
X112113Y295076D01*
X111552Y294236D01*
X111355Y293244D01*
Y284508D01*
X110085Y284341D01*
X109911Y284987D01*
X108893Y286752D01*
X107452Y288193D01*
X105687Y289212D01*
X103719Y289739D01*
X101681D01*
X99713Y289212D01*
X97948Y288193D01*
X97586Y287831D01*
X96316Y288356D01*
Y295643D01*
X97586Y296169D01*
X97948Y295807D01*
X99713Y294788D01*
X101681Y294261D01*
X103719D01*
X105687Y294788D01*
X107452Y295807D01*
X108893Y297248D01*
X109911Y299013D01*
X110439Y300981D01*
Y303019D01*
X109911Y304987D01*
X108893Y306752D01*
X107452Y308193D01*
X105687Y309212D01*
X105274Y309322D01*
X105441Y310592D01*
X119959D01*
X120126Y309322D01*
D02*
G37*
G36*
X577790Y314753D02*
X554798Y291761D01*
X553712Y292388D01*
X551207Y293059D01*
X548613D01*
X546108Y292388D01*
X543863Y291091D01*
X542029Y289257D01*
X540732Y287012D01*
X540061Y284507D01*
Y281913D01*
X540732Y279408D01*
X542029Y277163D01*
X542987Y276205D01*
X542461Y274935D01*
X536448D01*
X533060Y278322D01*
X533688Y279408D01*
X534359Y281913D01*
Y284507D01*
X533688Y287012D01*
X532391Y289257D01*
X530557Y291091D01*
X528312Y292388D01*
X525807Y293059D01*
X523213D01*
X520708Y292388D01*
X518463Y291091D01*
X516629Y289257D01*
X515332Y287012D01*
X514661Y284507D01*
Y281913D01*
X515332Y279408D01*
X516629Y277163D01*
X518463Y275329D01*
X520708Y274032D01*
X523213Y273361D01*
X525807D01*
X528312Y274032D01*
X529398Y274660D01*
X531506Y272552D01*
X531020Y271379D01*
X493465D01*
X490721Y274123D01*
Y275875D01*
X491991Y276401D01*
X493063Y275329D01*
X495308Y274032D01*
X497813Y273361D01*
X500407D01*
X502912Y274032D01*
X505157Y275329D01*
X506991Y277163D01*
X508288Y279408D01*
X508959Y281913D01*
Y284507D01*
X508288Y287012D01*
X507660Y288098D01*
X535489Y315926D01*
X577304D01*
X577790Y314753D01*
D02*
G37*
G36*
X389110Y295313D02*
X389950Y294752D01*
X390942Y294555D01*
X407903D01*
X414360Y288098D01*
X413732Y287012D01*
X413061Y284507D01*
Y281913D01*
X413732Y279408D01*
X415029Y277163D01*
X416863Y275329D01*
X419108Y274032D01*
X421613Y273361D01*
X424207D01*
X426712Y274032D01*
X428957Y275329D01*
X430791Y277163D01*
X432088Y279408D01*
X432759Y281913D01*
Y284507D01*
X432088Y287012D01*
X430791Y289257D01*
X428957Y291091D01*
X426712Y292388D01*
X424207Y293059D01*
X421613D01*
X419108Y292388D01*
X418022Y291761D01*
X412048Y297735D01*
X412534Y298908D01*
X474104D01*
X481273Y291739D01*
X481212Y291432D01*
X479834Y291014D01*
X479757Y291091D01*
X477512Y292388D01*
X475007Y293059D01*
X472413D01*
X469908Y292388D01*
X467663Y291091D01*
X465829Y289257D01*
X464532Y287012D01*
X463861Y284507D01*
Y281913D01*
X464532Y279408D01*
X465159Y278322D01*
X421837Y235000D01*
X381613D01*
X381288Y236212D01*
X379991Y238457D01*
X378157Y240291D01*
X375912Y241588D01*
X373407Y242259D01*
X370813D01*
X368308Y241588D01*
X366063Y240291D01*
X364229Y238457D01*
X362932Y236212D01*
X362607Y235000D01*
X347873D01*
X339691Y243182D01*
X340177Y244355D01*
X412045D01*
X413036Y244552D01*
X413876Y245114D01*
X443422Y274660D01*
X444508Y274032D01*
X447013Y273361D01*
X449607D01*
X452112Y274032D01*
X454357Y275329D01*
X456191Y277163D01*
X457488Y279408D01*
X458159Y281913D01*
Y284507D01*
X457488Y287012D01*
X456191Y289257D01*
X454357Y291091D01*
X452112Y292388D01*
X449607Y293059D01*
X447013D01*
X444508Y292388D01*
X442263Y291091D01*
X440429Y289257D01*
X439132Y287012D01*
X438461Y284507D01*
Y281913D01*
X439132Y279408D01*
X439759Y278322D01*
X410972Y249535D01*
X379559D01*
X379033Y250805D01*
X379991Y251763D01*
X381288Y254008D01*
X381959Y256513D01*
Y259107D01*
X381288Y261612D01*
X379991Y263857D01*
X378157Y265691D01*
X375912Y266988D01*
X373407Y267659D01*
X370813D01*
X368308Y266988D01*
X366063Y265691D01*
X364229Y263857D01*
X362932Y261612D01*
X362261Y259107D01*
Y256513D01*
X362932Y254008D01*
X364229Y251763D01*
X365187Y250805D01*
X364661Y249535D01*
X338367D01*
X337404Y250497D01*
X336564Y251059D01*
X335573Y251256D01*
X211385D01*
X207571Y255069D01*
X206731Y255631D01*
X205740Y255828D01*
X149132D01*
X148646Y257001D01*
X148893Y257248D01*
X149912Y259013D01*
X150439Y260981D01*
Y263019D01*
X149912Y264987D01*
X148893Y266752D01*
X148644Y267001D01*
X149130Y268174D01*
X191459D01*
X198067Y261567D01*
X198907Y261005D01*
X199898Y260808D01*
X352298D01*
X353289Y261005D01*
X354129Y261567D01*
X367222Y274660D01*
X368308Y274032D01*
X370813Y273361D01*
X373407D01*
X375912Y274032D01*
X378157Y275329D01*
X379991Y277163D01*
X381288Y279408D01*
X381959Y281913D01*
Y284507D01*
X381288Y287012D01*
X379991Y289257D01*
X378976Y290272D01*
X379443Y291399D01*
X380676Y291521D01*
X384555Y287642D01*
X384763Y283092D01*
X384870Y282658D01*
X384957Y282219D01*
X384991Y282169D01*
X385005Y282111D01*
X385270Y281751D01*
X385519Y281379D01*
X385569Y281345D01*
X385604Y281297D01*
X385987Y281066D01*
X386359Y280817D01*
X386418Y280806D01*
X386469Y280775D01*
X386912Y280707D01*
X387350Y280620D01*
X388008D01*
X388332Y279408D01*
X389629Y277163D01*
X391463Y275329D01*
X393708Y274032D01*
X396213Y273361D01*
X398807D01*
X401312Y274032D01*
X403557Y275329D01*
X405391Y277163D01*
X406688Y279408D01*
X407359Y281913D01*
Y284507D01*
X406688Y287012D01*
X405391Y289257D01*
X403557Y291091D01*
X401312Y292388D01*
X398807Y293059D01*
X396213D01*
X393708Y292388D01*
X391463Y291091D01*
X390616Y290245D01*
X390471Y290198D01*
X389828Y290210D01*
X389024Y290449D01*
X388927Y290594D01*
X383558Y295963D01*
X382718Y296525D01*
X381727Y296722D01*
X260350D01*
X259359Y296525D01*
X258519Y295963D01*
X254144Y291588D01*
X253582Y290748D01*
X253535Y290510D01*
X252157Y290092D01*
X251157Y291091D01*
X248912Y292388D01*
X246407Y293059D01*
X243813D01*
X241308Y292388D01*
X240222Y291761D01*
X228151Y303831D01*
X227311Y304393D01*
X226320Y304590D01*
X150018D01*
X149912Y304987D01*
X148893Y306752D01*
X147452Y308193D01*
X145687Y309212D01*
X145274Y309322D01*
X145441Y310592D01*
X373831D01*
X389110Y295313D01*
D02*
G37*
G36*
X236560Y288098D02*
X235932Y287012D01*
X235261Y284507D01*
Y281913D01*
X235932Y279408D01*
X237229Y277163D01*
X238187Y276205D01*
X237661Y274935D01*
X207010D01*
X188775Y293169D01*
X187935Y293731D01*
X186944Y293928D01*
X146737D01*
X146397Y295198D01*
X147452Y295807D01*
X148893Y297248D01*
X149912Y299013D01*
X150018Y299410D01*
X225247D01*
X236560Y288098D01*
D02*
G37*
G36*
X797510Y260547D02*
Y173539D01*
X763979Y140007D01*
X763417Y139167D01*
X763220Y138176D01*
Y135537D01*
X761950Y135196D01*
X760991Y136857D01*
X759157Y138691D01*
X756912Y139988D01*
X754407Y140659D01*
X751813D01*
X749308Y139988D01*
X748222Y139361D01*
X689663Y197919D01*
X688823Y198481D01*
X687832Y198678D01*
X379502D01*
X378976Y199948D01*
X379991Y200963D01*
X381288Y203208D01*
X381959Y205713D01*
Y205994D01*
X372110D01*
X362261D01*
Y205713D01*
X362932Y203208D01*
X364229Y200963D01*
X365244Y199948D01*
X364718Y198678D01*
X344735D01*
X335079Y208333D01*
X334239Y208895D01*
X333248Y209092D01*
X165816D01*
X165383Y209754D01*
X166033Y211024D01*
X334303D01*
X335294Y211221D01*
X336134Y211783D01*
X339751Y215399D01*
X364775D01*
X365300Y214129D01*
X364229Y213057D01*
X362932Y210812D01*
X362261Y208307D01*
Y208026D01*
X372110D01*
X381959D01*
Y208307D01*
X381288Y210812D01*
X379991Y213057D01*
X378919Y214129D01*
X379445Y215399D01*
X490277D01*
X491268Y215596D01*
X492108Y216158D01*
X523017Y247067D01*
X523449Y246888D01*
X525571D01*
X527532Y247700D01*
X529032Y249200D01*
X529844Y251161D01*
Y253283D01*
X529252Y254712D01*
X529953Y255982D01*
X553663D01*
X591767Y217879D01*
X592607Y217317D01*
X593598Y217120D01*
X703580D01*
X704571Y217317D01*
X705411Y217879D01*
X707473Y219940D01*
X708718Y219693D01*
X708809Y219474D01*
X709809Y218473D01*
X710808Y218060D01*
Y221488D01*
X711824D01*
Y222504D01*
X715252D01*
X714838Y223502D01*
X713838Y224503D01*
X713619Y224593D01*
X713371Y225839D01*
X731319Y243787D01*
X731881Y244627D01*
X732028Y245368D01*
X732708Y245730D01*
X733348Y245844D01*
X734363Y244829D01*
X736608Y243532D01*
X739113Y242861D01*
X741707D01*
X744212Y243532D01*
X746457Y244829D01*
X748291Y246663D01*
X749588Y248909D01*
X750259Y251413D01*
Y254007D01*
X749588Y256512D01*
X748291Y258758D01*
X746495Y260554D01*
X746505Y260816D01*
X746776Y261824D01*
X759358D01*
X759727Y260700D01*
X759734Y260562D01*
X757929Y258758D01*
X756632Y256512D01*
X755961Y254007D01*
Y251413D01*
X756632Y248909D01*
X757929Y246663D01*
X759763Y244829D01*
X762008Y243532D01*
X764513Y242861D01*
X767107D01*
X769612Y243532D01*
X771857Y244829D01*
X773691Y246663D01*
X774988Y248909D01*
X775659Y251413D01*
Y254007D01*
X774988Y256512D01*
X773691Y258758D01*
X771857Y260591D01*
X769612Y261888D01*
X767107Y262559D01*
X764513D01*
X762880Y262122D01*
X762223Y263260D01*
X773622Y274660D01*
X774708Y274032D01*
X777213Y273361D01*
X779807D01*
X782312Y274032D01*
X783398Y274660D01*
X797510Y260547D01*
D02*
G37*
G36*
X773024Y291415D02*
X772463Y291091D01*
X770629Y289257D01*
X769332Y287012D01*
X768661Y284507D01*
Y281913D01*
X769332Y279408D01*
X769959Y278322D01*
X758641Y267004D01*
X733425D01*
X732434Y266807D01*
X731594Y266245D01*
X727657Y262308D01*
X727095Y261468D01*
X726898Y260477D01*
Y246691D01*
X702507Y222300D01*
X594671D01*
X556670Y260300D01*
X556720Y260734D01*
X557107Y261570D01*
X657460D01*
X657871Y260300D01*
X656329Y258758D01*
X655032Y256512D01*
X654361Y254007D01*
Y253726D01*
X664210D01*
X674059D01*
Y254007D01*
X673388Y256512D01*
X672091Y258758D01*
X670548Y260300D01*
X670960Y261570D01*
X682835D01*
X682880Y261509D01*
X683279Y260308D01*
X681729Y258758D01*
X680432Y256512D01*
X679761Y254007D01*
Y253726D01*
X688594D01*
Y262559D01*
X688313D01*
X686680Y262122D01*
X686023Y263260D01*
X697422Y274660D01*
X698508Y274032D01*
X701013Y273361D01*
X703607D01*
X706112Y274032D01*
X708357Y275329D01*
X710191Y277163D01*
X711488Y279408D01*
X712159Y281913D01*
Y284507D01*
X711488Y287012D01*
X710191Y289257D01*
X708357Y291091D01*
X707796Y291415D01*
X708136Y292685D01*
X721884D01*
X722224Y291415D01*
X721663Y291091D01*
X719829Y289257D01*
X718532Y287012D01*
X717861Y284507D01*
Y281913D01*
X718532Y279408D01*
X719829Y277163D01*
X721663Y275329D01*
X723908Y274032D01*
X726413Y273361D01*
X729007D01*
X731512Y274032D01*
X733757Y275329D01*
X735591Y277163D01*
X736888Y279408D01*
X737559Y281913D01*
Y284507D01*
X736888Y287012D01*
X735591Y289257D01*
X733757Y291091D01*
X733196Y291415D01*
X733536Y292685D01*
X747284D01*
X747624Y291415D01*
X747063Y291091D01*
X745229Y289257D01*
X743932Y287012D01*
X743261Y284507D01*
Y281913D01*
X743932Y279408D01*
X745229Y277163D01*
X747063Y275329D01*
X749308Y274032D01*
X751813Y273361D01*
X754407D01*
X756912Y274032D01*
X759157Y275329D01*
X760991Y277163D01*
X762288Y279408D01*
X762959Y281913D01*
Y284507D01*
X762288Y287012D01*
X760991Y289257D01*
X759157Y291091D01*
X758596Y291415D01*
X758936Y292685D01*
X772684D01*
X773024Y291415D01*
D02*
G37*
G36*
X696824D02*
X696263Y291091D01*
X694429Y289257D01*
X693132Y287012D01*
X692461Y284507D01*
Y281913D01*
X693132Y279408D01*
X693760Y278322D01*
X682187Y266750D01*
X636444D01*
X635918Y268020D01*
X642292Y274394D01*
X642854Y275234D01*
X643004Y275991D01*
X643646Y276340D01*
X644321Y276471D01*
X645463Y275329D01*
X647708Y274032D01*
X650213Y273361D01*
X652807D01*
X655312Y274032D01*
X657557Y275329D01*
X659391Y277163D01*
X660688Y279408D01*
X661359Y281913D01*
Y284507D01*
X660688Y287012D01*
X659391Y289257D01*
X657557Y291091D01*
X656996Y291415D01*
X657336Y292685D01*
X671084D01*
X671424Y291415D01*
X670863Y291091D01*
X669029Y289257D01*
X667732Y287012D01*
X667061Y284507D01*
Y281913D01*
X667732Y279408D01*
X669029Y277163D01*
X670863Y275329D01*
X673108Y274032D01*
X675613Y273361D01*
X678207D01*
X680712Y274032D01*
X682957Y275329D01*
X684791Y277163D01*
X686088Y279408D01*
X686759Y281913D01*
Y284507D01*
X686088Y287012D01*
X684791Y289257D01*
X682957Y291091D01*
X682396Y291415D01*
X682736Y292685D01*
X696484D01*
X696824Y291415D01*
D02*
G37*
G36*
X639385Y294687D02*
X638630Y293931D01*
X638068Y293091D01*
X637871Y292100D01*
Y277298D01*
X631952Y271379D01*
X590263D01*
X589777Y272552D01*
X591619Y274394D01*
X592181Y275234D01*
X592310Y275885D01*
X593180Y276300D01*
X593648Y276344D01*
X594663Y275329D01*
X596908Y274032D01*
X599413Y273361D01*
X602007D01*
X604512Y274032D01*
X606757Y275329D01*
X608591Y277163D01*
X609888Y279408D01*
X610559Y281913D01*
Y284507D01*
X609888Y287012D01*
X608591Y289257D01*
X606757Y291091D01*
X604512Y292388D01*
X602007Y293059D01*
X599413D01*
X596908Y292388D01*
X594663Y291091D01*
X593648Y290076D01*
X592378Y290602D01*
Y294202D01*
X594036Y295860D01*
X638899D01*
X639385Y294687D01*
D02*
G37*
G36*
X481985Y275761D02*
Y268535D01*
X482183Y267544D01*
X482744Y266704D01*
X487119Y262329D01*
X487959Y261767D01*
X488950Y261570D01*
X509439D01*
X509826Y260734D01*
X509876Y260300D01*
X473710Y224135D01*
X379559D01*
X379033Y225405D01*
X379991Y226363D01*
X381288Y228608D01*
X381613Y229820D01*
X422910D01*
X423901Y230017D01*
X424741Y230579D01*
X468822Y274660D01*
X469908Y274032D01*
X472413Y273361D01*
X475007D01*
X477512Y274032D01*
X479757Y275329D01*
X480715Y276287D01*
X481985Y275761D01*
D02*
G37*
G36*
X365244Y290272D02*
X364229Y289257D01*
X362932Y287012D01*
X362261Y284507D01*
Y281913D01*
X362932Y279408D01*
X363559Y278322D01*
X351225Y265988D01*
X258683D01*
X258616Y266073D01*
X258220Y267258D01*
X265622Y274660D01*
X266708Y274032D01*
X269213Y273361D01*
X271807D01*
X274312Y274032D01*
X276557Y275329D01*
X278391Y277163D01*
X279688Y279408D01*
X280359Y281913D01*
Y284507D01*
X279688Y287012D01*
X278391Y289257D01*
X277376Y290272D01*
X277902Y291542D01*
X288518D01*
X289044Y290272D01*
X288029Y289257D01*
X286732Y287012D01*
X286061Y284507D01*
Y281913D01*
X286732Y279408D01*
X288029Y277163D01*
X289863Y275329D01*
X292108Y274032D01*
X294613Y273361D01*
X297207D01*
X299712Y274032D01*
X301957Y275329D01*
X303791Y277163D01*
X305088Y279408D01*
X305759Y281913D01*
Y284507D01*
X305088Y287012D01*
X303791Y289257D01*
X302776Y290272D01*
X303302Y291542D01*
X313918D01*
X314444Y290272D01*
X313429Y289257D01*
X312132Y287012D01*
X311461Y284507D01*
Y281913D01*
X312132Y279408D01*
X313429Y277163D01*
X315263Y275329D01*
X317508Y274032D01*
X320013Y273361D01*
X322607D01*
X325112Y274032D01*
X327357Y275329D01*
X329191Y277163D01*
X330488Y279408D01*
X331159Y281913D01*
Y284507D01*
X330488Y287012D01*
X329191Y289257D01*
X328176Y290272D01*
X328702Y291542D01*
X339318D01*
X339844Y290272D01*
X338829Y289257D01*
X337532Y287012D01*
X336861Y284507D01*
Y281913D01*
X337532Y279408D01*
X338829Y277163D01*
X340663Y275329D01*
X342908Y274032D01*
X345413Y273361D01*
X348007D01*
X350512Y274032D01*
X352757Y275329D01*
X354591Y277163D01*
X355888Y279408D01*
X356559Y281913D01*
Y284507D01*
X355888Y287012D01*
X354591Y289257D01*
X353576Y290272D01*
X354102Y291542D01*
X364718D01*
X365244Y290272D01*
D02*
G37*
G36*
X192182Y274624D02*
X191656Y273354D01*
X145240D01*
X145073Y274624D01*
X145687Y274788D01*
X147452Y275807D01*
X148893Y277248D01*
X149912Y279013D01*
X150018Y279410D01*
X187395D01*
X192182Y274624D01*
D02*
G37*
G36*
X58397Y269918D02*
X58440Y268985D01*
X58288Y268389D01*
X57948Y268193D01*
X56507Y266752D01*
X55488Y264987D01*
X54961Y263019D01*
Y260981D01*
X55488Y259013D01*
X56507Y257248D01*
X56754Y257001D01*
X56268Y255828D01*
X54921D01*
X33332Y277417D01*
X34418Y278502D01*
X35331Y279365D01*
X35333Y279367D01*
X36109Y280312D01*
X37555Y282074D01*
X39206Y285163D01*
X39766Y287009D01*
X40998Y287318D01*
X58397Y269918D01*
D02*
G37*
G36*
X136757Y267001D02*
X136508Y266752D01*
X135489Y264987D01*
X134961Y263019D01*
Y260981D01*
X135489Y259013D01*
X136508Y257248D01*
X136755Y257001D01*
X136269Y255828D01*
X133938D01*
X132947Y255631D01*
X132107Y255069D01*
X126043Y249006D01*
X125687Y249212D01*
X123719Y249739D01*
X121681D01*
X119713Y249212D01*
X117948Y248193D01*
X116507Y246752D01*
X115488Y244987D01*
X114961Y243019D01*
Y240981D01*
X115488Y239013D01*
X116507Y237248D01*
X116747Y237008D01*
X116261Y235835D01*
X109138D01*
X108652Y237008D01*
X108893Y237248D01*
X109911Y239013D01*
X110439Y240981D01*
Y243019D01*
X109911Y244987D01*
X108893Y246752D01*
X107452Y248193D01*
X105687Y249212D01*
X103719Y249739D01*
X101681D01*
X99713Y249212D01*
X97948Y248193D01*
X96507Y246752D01*
X95488Y244987D01*
X94961Y243019D01*
Y240981D01*
X95488Y239013D01*
X96507Y237248D01*
X96747Y237008D01*
X96261Y235835D01*
X89139D01*
X88653Y237008D01*
X88893Y237248D01*
X89911Y239013D01*
X90439Y240981D01*
Y243019D01*
X89911Y244987D01*
X88893Y246752D01*
X87452Y248193D01*
X85687Y249212D01*
X85065Y249378D01*
X85232Y250648D01*
X88009D01*
X88188Y250217D01*
X89689Y248716D01*
X91649Y247904D01*
X93771D01*
X95731Y248716D01*
X97232Y250217D01*
X98044Y252177D01*
Y254299D01*
X99060Y255165D01*
X99713Y254788D01*
X101681Y254261D01*
X103719D01*
X105687Y254788D01*
X107452Y255807D01*
X108893Y257248D01*
X109911Y259013D01*
X110064Y259581D01*
X110447Y259780D01*
X111482Y259967D01*
X111670Y259854D01*
X112039Y259607D01*
X112102Y259595D01*
X112157Y259562D01*
X112595Y259497D01*
X113030Y259410D01*
X115382D01*
X115488Y259013D01*
X116507Y257248D01*
X117948Y255807D01*
X119713Y254788D01*
X121681Y254261D01*
X123719D01*
X125687Y254788D01*
X127452Y255807D01*
X128892Y257248D01*
X129911Y259013D01*
X130439Y260981D01*
Y263019D01*
X129911Y264987D01*
X128892Y266752D01*
X128644Y267001D01*
X129129Y268174D01*
X136271D01*
X136757Y267001D01*
D02*
G37*
G36*
X208294Y247022D02*
X208286Y246941D01*
X197179Y235835D01*
X149139D01*
X148653Y237008D01*
X148893Y237248D01*
X149912Y239013D01*
X150439Y240981D01*
Y243019D01*
X149912Y244987D01*
X148893Y246752D01*
X147452Y248193D01*
X145687Y249212D01*
X145066Y249378D01*
X145233Y250648D01*
X204667D01*
X208294Y247022D01*
D02*
G37*
G36*
X344969Y230579D02*
X345809Y230017D01*
X346800Y229820D01*
X362607D01*
X362932Y228608D01*
X364229Y226363D01*
X365187Y225405D01*
X364661Y224135D01*
X337205D01*
X336804Y224055D01*
X335751Y224491D01*
X335395Y224917D01*
X334722Y226542D01*
X333222Y228042D01*
X332790Y228221D01*
Y233533D01*
X334492Y234238D01*
X335992Y235739D01*
X336584Y237168D01*
X337977Y237570D01*
X344969Y230579D01*
D02*
G37*
G36*
X519768Y254712D02*
X519176Y253283D01*
Y251161D01*
X519355Y250729D01*
X489204Y220579D01*
X479138D01*
X478652Y221752D01*
X512883Y255982D01*
X519067D01*
X519768Y254712D01*
D02*
G37*
G36*
X326728Y241250D02*
X326136Y239821D01*
Y237699D01*
X326948Y235739D01*
X327610Y235076D01*
Y228221D01*
X327178Y228042D01*
X325678Y226542D01*
X324866Y224581D01*
Y222459D01*
X325458Y221030D01*
X324757Y219760D01*
X311207D01*
X306399Y224567D01*
X306578Y224999D01*
Y227121D01*
X305766Y229081D01*
X304265Y230582D01*
X302305Y231394D01*
X300183D01*
X298223Y230582D01*
X296722Y229081D01*
X295910Y227121D01*
Y224999D01*
X296722Y223039D01*
X298223Y221538D01*
X300183Y220726D01*
X302305D01*
X302737Y220905D01*
X306264Y217377D01*
X305778Y216204D01*
X152146D01*
X151155Y216007D01*
X150690Y215696D01*
X149137D01*
X148610Y216966D01*
X148893Y217248D01*
X149912Y219013D01*
X150439Y220981D01*
Y223019D01*
X149912Y224987D01*
X148893Y226752D01*
X147452Y228193D01*
X145687Y229212D01*
X145040Y229385D01*
X145207Y230655D01*
X198252D01*
X199243Y230852D01*
X200083Y231414D01*
X211190Y242520D01*
X326027D01*
X326728Y241250D01*
D02*
G37*
G36*
X11318Y283266D02*
X13966Y280618D01*
X17210Y278745D01*
X20827Y277776D01*
X24573D01*
X26665Y278337D01*
X27129Y278128D01*
X27890Y277350D01*
Y276606D01*
X28087Y275615D01*
X28649Y274775D01*
X28649Y274775D01*
X29244Y274180D01*
X52017Y251407D01*
X52857Y250845D01*
X53848Y250648D01*
X60167D01*
X60335Y249378D01*
X59713Y249212D01*
X57948Y248193D01*
X56507Y246752D01*
X55488Y244987D01*
X54961Y243019D01*
Y240981D01*
X55488Y239013D01*
X56507Y237248D01*
X57948Y235807D01*
X59713Y234788D01*
X61681Y234261D01*
X63719D01*
X65687Y234788D01*
X66043Y234994D01*
X69624Y231414D01*
X70464Y230852D01*
X71455Y230655D01*
X80193D01*
X80361Y229385D01*
X79713Y229212D01*
X77948Y228193D01*
X76507Y226752D01*
X75488Y224987D01*
X74961Y223019D01*
Y220981D01*
X75488Y219013D01*
X75694Y218657D01*
X71717Y214680D01*
X68039D01*
X67689Y215351D01*
X67594Y215950D01*
X68893Y217248D01*
X69911Y219013D01*
X70439Y220981D01*
Y223019D01*
X69911Y224987D01*
X68893Y226752D01*
X67452Y228193D01*
X65687Y229212D01*
X63719Y229739D01*
X61681D01*
X59713Y229212D01*
X57948Y228193D01*
X56507Y226752D01*
X55488Y224987D01*
X54961Y223019D01*
Y220981D01*
X55488Y219013D01*
X56507Y217248D01*
X57806Y215950D01*
X57711Y215351D01*
X57361Y214680D01*
X38665D01*
X9956Y243389D01*
Y283172D01*
X11183Y283501D01*
X11318Y283266D01*
D02*
G37*
G36*
X89763Y211275D02*
X90603Y210713D01*
X91594Y210516D01*
X99674D01*
X99842Y209246D01*
X99713Y209212D01*
X97948Y208193D01*
X96507Y206752D01*
X95488Y204987D01*
X94961Y203019D01*
Y200981D01*
X95488Y199013D01*
X96507Y197248D01*
X97948Y195807D01*
X99713Y194788D01*
X101681Y194261D01*
X103719D01*
X105687Y194788D01*
X107452Y195807D01*
X108893Y197248D01*
X109911Y199013D01*
X110439Y200981D01*
Y203019D01*
X109911Y204987D01*
X108893Y206752D01*
X107452Y208193D01*
X105687Y209212D01*
X105558Y209246D01*
X105725Y210516D01*
X119674D01*
X119841Y209246D01*
X119713Y209212D01*
X117948Y208193D01*
X116507Y206752D01*
X115488Y204987D01*
X114961Y203019D01*
Y200981D01*
X115488Y199013D01*
X116507Y197248D01*
X117948Y195807D01*
X118536Y195468D01*
X118932Y193773D01*
X118815Y193598D01*
X111708D01*
X110717Y193401D01*
X109876Y192839D01*
X106043Y189006D01*
X105687Y189212D01*
X103719Y189739D01*
X101681D01*
X99713Y189212D01*
X97948Y188193D01*
X96507Y186752D01*
X96137Y186111D01*
X94446Y185676D01*
X94284Y185773D01*
Y193006D01*
X94087Y193997D01*
X93525Y194837D01*
X89706Y198657D01*
X89911Y199013D01*
X90439Y200981D01*
Y203019D01*
X89911Y204987D01*
X88893Y206752D01*
X87452Y208193D01*
X85687Y209212D01*
X83719Y209739D01*
X81681D01*
X79713Y209212D01*
X77948Y208193D01*
X76507Y206752D01*
X75488Y204987D01*
X74961Y203019D01*
Y200981D01*
X75488Y199013D01*
X76507Y197248D01*
X77948Y195807D01*
X79713Y194788D01*
X81681Y194261D01*
X83719D01*
X85687Y194788D01*
X86043Y194994D01*
X89104Y191933D01*
Y188336D01*
X87834Y187810D01*
X87452Y188193D01*
X85687Y189212D01*
X83719Y189739D01*
X81681D01*
X79713Y189212D01*
X79356Y189006D01*
X75523Y192839D01*
X74683Y193401D01*
X73692Y193598D01*
X66585D01*
X66468Y193773D01*
X66864Y195468D01*
X67452Y195807D01*
X68893Y197248D01*
X69911Y199013D01*
X70439Y200981D01*
Y203019D01*
X69911Y204987D01*
X68893Y206752D01*
X67452Y208193D01*
X67387Y208230D01*
X67727Y209500D01*
X72790D01*
X73781Y209697D01*
X74621Y210259D01*
X79356Y214994D01*
X79713Y214788D01*
X81681Y214261D01*
X83719D01*
X85687Y214788D01*
X86043Y214994D01*
X89763Y211275D01*
D02*
G37*
G36*
X116903Y187148D02*
X116507Y186752D01*
X115488Y184987D01*
X114961Y183019D01*
Y180981D01*
X115488Y179013D01*
X116507Y177248D01*
X116833Y176923D01*
X116846Y176574D01*
X116546Y175413D01*
X116042Y175076D01*
X109675Y168709D01*
X109297Y168144D01*
X108228Y167845D01*
X107811Y167833D01*
X107452Y168193D01*
X105687Y169212D01*
X103719Y169739D01*
X101681D01*
X99713Y169212D01*
X97948Y168193D01*
X96507Y166752D01*
X95488Y164987D01*
X94961Y163019D01*
Y160981D01*
X95488Y159013D01*
X96507Y157248D01*
X96734Y157022D01*
X96208Y155752D01*
X93862D01*
X92871Y155555D01*
X92030Y154993D01*
X86043Y149006D01*
X85687Y149212D01*
X83719Y149739D01*
X81681D01*
X79713Y149212D01*
X77948Y148193D01*
X77774Y148019D01*
X76504Y148545D01*
Y152142D01*
X79356Y154994D01*
X79713Y154789D01*
X81681Y154261D01*
X83719D01*
X85687Y154789D01*
X87452Y155807D01*
X88893Y157248D01*
X89911Y159013D01*
X90439Y160981D01*
Y163019D01*
X89911Y164987D01*
X88893Y166752D01*
X87452Y168193D01*
X87156Y168363D01*
X87089Y168623D01*
X87201Y169804D01*
X87683Y170127D01*
X93525Y175969D01*
X94087Y176809D01*
X94284Y177800D01*
Y178227D01*
X94446Y178325D01*
X96137Y177889D01*
X96507Y177248D01*
X97948Y175807D01*
X99713Y174789D01*
X101681Y174261D01*
X103719D01*
X105687Y174789D01*
X107452Y175807D01*
X108893Y177248D01*
X109911Y179013D01*
X110439Y180981D01*
Y183019D01*
X109911Y184987D01*
X109706Y185344D01*
X112780Y188418D01*
X116377D01*
X116903Y187148D01*
D02*
G37*
G36*
X77809Y168516D02*
X77853Y168098D01*
X76507Y166752D01*
X75488Y164987D01*
X74961Y163019D01*
Y160981D01*
X75488Y159013D01*
X75694Y158657D01*
X72083Y155046D01*
X71521Y154205D01*
X71324Y153214D01*
Y144622D01*
X70054Y144455D01*
X69911Y144987D01*
X68893Y146752D01*
X67452Y148193D01*
X65687Y149212D01*
X63719Y149739D01*
X61681D01*
X59713Y149212D01*
X57948Y148193D01*
X57708Y147953D01*
X56438Y148479D01*
Y155522D01*
X57708Y156048D01*
X57948Y155807D01*
X59713Y154789D01*
X61681Y154261D01*
X63719D01*
X65687Y154789D01*
X67452Y155807D01*
X68893Y157248D01*
X69911Y159013D01*
X70439Y160981D01*
Y163019D01*
X69911Y164987D01*
X68893Y166752D01*
X67546Y168098D01*
X67590Y168516D01*
X67956Y169368D01*
X77444D01*
X77809Y168516D01*
D02*
G37*
G36*
X300058Y176480D02*
X299466Y175051D01*
Y172929D01*
X300278Y170968D01*
X301778Y169469D01*
X301791Y168203D01*
X285653Y152066D01*
X284260Y152468D01*
X283668Y153897D01*
X282167Y155398D01*
X280207Y156210D01*
X278085D01*
X276124Y155398D01*
X274624Y153897D01*
X274445Y153466D01*
X145657D01*
X145490Y154736D01*
X145687Y154789D01*
X147452Y155807D01*
X148893Y157248D01*
X149912Y159013D01*
X150439Y160981D01*
Y163019D01*
X149912Y164987D01*
X148893Y166752D01*
X147452Y168193D01*
X145687Y169212D01*
X145040Y169385D01*
X145207Y170655D01*
X209104D01*
X210095Y170853D01*
X210935Y171414D01*
X217272Y177750D01*
X299357D01*
X300058Y176480D01*
D02*
G37*
G36*
X100050Y149302D02*
X99713Y149212D01*
X97948Y148193D01*
X96507Y146752D01*
X95488Y144987D01*
X94961Y143019D01*
Y140981D01*
X95488Y139013D01*
X96507Y137248D01*
X97948Y135808D01*
X99713Y134789D01*
X100156Y134670D01*
X99989Y133400D01*
X91510D01*
X90519Y133203D01*
X89678Y132641D01*
X86043Y129006D01*
X85687Y129212D01*
X83719Y129739D01*
X81681D01*
X79713Y129212D01*
X77948Y128193D01*
X77774Y128019D01*
X76504Y128545D01*
Y135456D01*
X77774Y135982D01*
X77948Y135808D01*
X79713Y134789D01*
X81681Y134261D01*
X83719D01*
X85687Y134789D01*
X87452Y135808D01*
X88893Y137248D01*
X89911Y139013D01*
X90439Y140981D01*
Y143019D01*
X89911Y144987D01*
X89706Y145344D01*
X94934Y150572D01*
X99883D01*
X100050Y149302D01*
D02*
G37*
G36*
X274624Y147854D02*
X276124Y146354D01*
X276523Y146189D01*
X276946Y144639D01*
X276665Y144265D01*
X177235D01*
X176244Y144068D01*
X175404Y143506D01*
X164053Y132155D01*
X163621Y132334D01*
X161499D01*
X159538Y131522D01*
X158038Y130021D01*
X157488Y128693D01*
X156053Y128332D01*
X151744Y132641D01*
X150904Y133203D01*
X149913Y133400D01*
X145411D01*
X145244Y134670D01*
X145687Y134789D01*
X147452Y135808D01*
X148893Y137248D01*
X149912Y139013D01*
X150439Y140981D01*
Y143019D01*
X149912Y144987D01*
X148893Y146752D01*
X148629Y147016D01*
X149155Y148286D01*
X274445D01*
X274624Y147854D01*
D02*
G37*
G36*
X344625Y165301D02*
X345465Y164739D01*
X346456Y164542D01*
X364718D01*
X365244Y163272D01*
X364229Y162257D01*
X362932Y160012D01*
X362261Y157507D01*
Y154913D01*
X362932Y152408D01*
X364229Y150163D01*
X366063Y148329D01*
X368308Y147032D01*
X370813Y146361D01*
X373407D01*
X375912Y147032D01*
X378157Y148329D01*
X379991Y150163D01*
X381288Y152408D01*
X381959Y154913D01*
Y157507D01*
X381288Y160012D01*
X379991Y162257D01*
X378976Y163272D01*
X379502Y164542D01*
X380816D01*
X394920Y150438D01*
Y140312D01*
X393708Y139988D01*
X391463Y138691D01*
X389629Y136857D01*
X388332Y134612D01*
X387661Y132107D01*
Y129513D01*
X388332Y127008D01*
X389629Y124763D01*
X390587Y123805D01*
X390061Y122535D01*
X379559D01*
X379033Y123805D01*
X379991Y124763D01*
X381288Y127008D01*
X381959Y129513D01*
Y132107D01*
X381288Y134612D01*
X379991Y136857D01*
X378157Y138691D01*
X375912Y139988D01*
X373407Y140659D01*
X370813D01*
X368308Y139988D01*
X367222Y139361D01*
X314523Y192059D01*
X313683Y192621D01*
X313103Y192736D01*
X313228Y194006D01*
X315919D01*
X344625Y165301D01*
D02*
G37*
G36*
X166984Y188397D02*
X167824Y187836D01*
X168815Y187638D01*
X311619D01*
X363559Y135698D01*
X362932Y134612D01*
X362261Y132107D01*
Y129513D01*
X362932Y127008D01*
X364229Y124763D01*
X365187Y123805D01*
X364661Y122535D01*
X354159D01*
X353633Y123805D01*
X354591Y124763D01*
X355888Y127008D01*
X356559Y129513D01*
Y132107D01*
X355888Y134612D01*
X354591Y136857D01*
X352757Y138691D01*
X350512Y139988D01*
X348007Y140659D01*
X345413D01*
X342908Y139988D01*
X340663Y138691D01*
X338829Y136857D01*
X337532Y134612D01*
X336861Y132107D01*
Y129513D01*
X337532Y127008D01*
X338829Y124763D01*
X339787Y123805D01*
X339261Y122535D01*
X328759D01*
X328233Y123805D01*
X329191Y124763D01*
X330488Y127008D01*
X331159Y129513D01*
Y132107D01*
X330488Y134612D01*
X329191Y136857D01*
X327357Y138691D01*
X325112Y139988D01*
X322607Y140659D01*
X320013D01*
X317508Y139988D01*
X315263Y138691D01*
X314305Y137733D01*
X313035Y138259D01*
Y147832D01*
X313543Y148592D01*
X313740Y149583D01*
Y176620D01*
X313543Y177611D01*
X312981Y178451D01*
X309261Y182171D01*
X308421Y182733D01*
X307430Y182930D01*
X216199D01*
X215208Y182733D01*
X214368Y182171D01*
X208032Y175835D01*
X149139D01*
X148653Y177008D01*
X148893Y177248D01*
X149912Y179013D01*
X150439Y180981D01*
Y183019D01*
X149912Y184987D01*
X148893Y186752D01*
X148497Y187148D01*
X149023Y188418D01*
X166963D01*
X166984Y188397D01*
D02*
G37*
G36*
X328623Y190701D02*
X329463Y190139D01*
X330454Y189942D01*
X364718D01*
X365244Y188672D01*
X364229Y187657D01*
X362932Y185412D01*
X362261Y182907D01*
Y180313D01*
X362932Y177808D01*
X364229Y175563D01*
X366063Y173729D01*
X368308Y172432D01*
X370813Y171761D01*
X373407D01*
X375912Y172432D01*
X378157Y173729D01*
X379991Y175563D01*
X381288Y177808D01*
X381959Y180313D01*
Y182907D01*
X381288Y185412D01*
X379991Y187657D01*
X378976Y188672D01*
X379502Y189942D01*
X622554D01*
Y188677D01*
X623366Y186716D01*
X624866Y185216D01*
X626827Y184404D01*
X628949D01*
X630910Y185216D01*
X632410Y186716D01*
X633222Y188677D01*
Y190799D01*
X632630Y192228D01*
X633330Y193498D01*
X686759D01*
X744559Y135698D01*
X743932Y134612D01*
X743261Y132107D01*
Y129513D01*
X743932Y127008D01*
X745229Y124763D01*
X747063Y122929D01*
X749308Y121632D01*
X751813Y120961D01*
X754407D01*
X756912Y121632D01*
X759157Y122929D01*
X760991Y124763D01*
X761950Y126424D01*
X763220Y126083D01*
Y109023D01*
X752418Y98221D01*
X490828D01*
X483078Y105971D01*
X482472Y106376D01*
X482637Y107531D01*
X482683Y107646D01*
X497783D01*
X498781Y106649D01*
X498602Y106217D01*
Y104095D01*
X499414Y102135D01*
X500914Y100634D01*
X502875Y99822D01*
X504997D01*
X506958Y100634D01*
X508458Y102135D01*
X509270Y104095D01*
Y106217D01*
X508458Y108177D01*
X506958Y109678D01*
X504997Y110490D01*
X502875D01*
X502443Y110311D01*
X500687Y112067D01*
X500754Y113550D01*
X500957Y113799D01*
X611689D01*
X612680Y113996D01*
X613520Y114558D01*
X621222Y122260D01*
X622308Y121632D01*
X624813Y120961D01*
X627407D01*
X629912Y121632D01*
X632157Y122929D01*
X633991Y124763D01*
X635288Y127008D01*
X635959Y129513D01*
Y132107D01*
X635288Y134612D01*
X633991Y136857D01*
X632976Y137872D01*
X633502Y139142D01*
X639515D01*
X642960Y135698D01*
X642332Y134612D01*
X641661Y132107D01*
Y129513D01*
X642332Y127008D01*
X643629Y124763D01*
X645463Y122929D01*
X647708Y121632D01*
X650213Y120961D01*
X652807D01*
X655312Y121632D01*
X657557Y122929D01*
X659391Y124763D01*
X660688Y127008D01*
X661359Y129513D01*
Y132107D01*
X660688Y134612D01*
X659391Y136857D01*
X657557Y138691D01*
X655312Y139988D01*
X652807Y140659D01*
X650213D01*
X647708Y139988D01*
X646622Y139361D01*
X642419Y143563D01*
X641579Y144125D01*
X640588Y144322D01*
X435921D01*
X415619Y164623D01*
X415798Y165055D01*
Y167177D01*
X414986Y169137D01*
X413485Y170638D01*
X411525Y171450D01*
X409403D01*
X407443Y170638D01*
X405942Y169137D01*
X405130Y167177D01*
Y165055D01*
X405942Y163095D01*
X407443Y161594D01*
X409403Y160782D01*
X411525D01*
X411957Y160961D01*
X427422Y145495D01*
X426936Y144322D01*
X412750D01*
X411759Y144125D01*
X410919Y143563D01*
X407363Y140007D01*
X406801Y139167D01*
X406604Y138176D01*
Y137183D01*
X405687Y136937D01*
X405334Y136914D01*
X403557Y138691D01*
X401312Y139988D01*
X400100Y140312D01*
Y151511D01*
X399903Y152502D01*
X399341Y153342D01*
X383720Y168963D01*
X382880Y169525D01*
X381889Y169722D01*
X347529D01*
X318823Y198427D01*
X317983Y198989D01*
X317492Y199086D01*
X317617Y200356D01*
X318967D01*
X328623Y190701D01*
D02*
G37*
G36*
X619244Y137872D02*
X618229Y136857D01*
X616932Y134612D01*
X616261Y132107D01*
Y129513D01*
X616932Y127008D01*
X617560Y125922D01*
X610616Y118979D01*
X409669D01*
X409184Y120152D01*
X411025Y121994D01*
X411587Y122834D01*
X411784Y123825D01*
Y137103D01*
X413823Y139142D01*
X415518D01*
X416044Y137872D01*
X415029Y136857D01*
X413732Y134612D01*
X413061Y132107D01*
Y129513D01*
X413732Y127008D01*
X415029Y124763D01*
X416863Y122929D01*
X419108Y121632D01*
X421613Y120961D01*
X424207D01*
X426712Y121632D01*
X428957Y122929D01*
X430791Y124763D01*
X432088Y127008D01*
X432759Y129513D01*
Y132107D01*
X432088Y134612D01*
X430791Y136857D01*
X429776Y137872D01*
X430302Y139142D01*
X440918D01*
X441444Y137872D01*
X440429Y136857D01*
X439132Y134612D01*
X438461Y132107D01*
Y129513D01*
X439132Y127008D01*
X440429Y124763D01*
X442263Y122929D01*
X444508Y121632D01*
X447013Y120961D01*
X449607D01*
X452112Y121632D01*
X454357Y122929D01*
X456191Y124763D01*
X457488Y127008D01*
X458159Y129513D01*
Y132107D01*
X457488Y134612D01*
X456191Y136857D01*
X455176Y137872D01*
X455702Y139142D01*
X466318D01*
X466844Y137872D01*
X465829Y136857D01*
X464532Y134612D01*
X463861Y132107D01*
Y131826D01*
X473710D01*
X483559D01*
Y132107D01*
X482888Y134612D01*
X481591Y136857D01*
X480576Y137872D01*
X481102Y139142D01*
X491718D01*
X492244Y137872D01*
X491229Y136857D01*
X489932Y134612D01*
X489261Y132107D01*
Y129513D01*
X489932Y127008D01*
X491229Y124763D01*
X493063Y122929D01*
X495308Y121632D01*
X497813Y120961D01*
X500407D01*
X502912Y121632D01*
X505157Y122929D01*
X506991Y124763D01*
X508288Y127008D01*
X508959Y129513D01*
Y132107D01*
X508288Y134612D01*
X506991Y136857D01*
X505976Y137872D01*
X506502Y139142D01*
X517118D01*
X517644Y137872D01*
X516629Y136857D01*
X515332Y134612D01*
X514661Y132107D01*
Y129513D01*
X515332Y127008D01*
X516629Y124763D01*
X518463Y122929D01*
X520708Y121632D01*
X523213Y120961D01*
X525807D01*
X528312Y121632D01*
X530557Y122929D01*
X532391Y124763D01*
X533688Y127008D01*
X534359Y129513D01*
Y132107D01*
X533688Y134612D01*
X532391Y136857D01*
X531376Y137872D01*
X531902Y139142D01*
X542518D01*
X543044Y137872D01*
X542029Y136857D01*
X540732Y134612D01*
X540061Y132107D01*
Y129513D01*
X540732Y127008D01*
X542029Y124763D01*
X543863Y122929D01*
X546108Y121632D01*
X548613Y120961D01*
X551207D01*
X553712Y121632D01*
X555957Y122929D01*
X557791Y124763D01*
X559088Y127008D01*
X559759Y129513D01*
Y132107D01*
X559088Y134612D01*
X557791Y136857D01*
X556776Y137872D01*
X557302Y139142D01*
X567918D01*
X568444Y137872D01*
X567429Y136857D01*
X566132Y134612D01*
X565461Y132107D01*
Y129513D01*
X566132Y127008D01*
X567429Y124763D01*
X569263Y122929D01*
X571508Y121632D01*
X574013Y120961D01*
X576607D01*
X579112Y121632D01*
X581357Y122929D01*
X583191Y124763D01*
X584488Y127008D01*
X585159Y129513D01*
Y132107D01*
X584488Y134612D01*
X583191Y136857D01*
X582176Y137872D01*
X582702Y139142D01*
X593318D01*
X593844Y137872D01*
X592829Y136857D01*
X591532Y134612D01*
X590861Y132107D01*
Y129513D01*
X591532Y127008D01*
X592829Y124763D01*
X594663Y122929D01*
X596908Y121632D01*
X599413Y120961D01*
X602007D01*
X604512Y121632D01*
X606757Y122929D01*
X608591Y124763D01*
X609888Y127008D01*
X610559Y129513D01*
Y132107D01*
X609888Y134612D01*
X608591Y136857D01*
X607576Y137872D01*
X608102Y139142D01*
X618718D01*
X619244Y137872D01*
D02*
G37*
G36*
X308560Y167436D02*
Y150629D01*
X308052Y149869D01*
X307855Y148878D01*
Y121840D01*
X308052Y120849D01*
X308454Y120249D01*
X308044Y118979D01*
X165264D01*
X163750Y120493D01*
X164152Y121886D01*
X165581Y122478D01*
X167082Y123979D01*
X167894Y125939D01*
Y128061D01*
X167715Y128493D01*
X178308Y139085D01*
X237661D01*
X238187Y137815D01*
X237229Y136857D01*
X235932Y134612D01*
X235261Y132107D01*
Y129513D01*
X235932Y127008D01*
X237229Y124763D01*
X239063Y122929D01*
X241308Y121632D01*
X243813Y120961D01*
X246407D01*
X248912Y121632D01*
X251157Y122929D01*
X252991Y124763D01*
X254288Y127008D01*
X254959Y129513D01*
Y132107D01*
X254288Y134612D01*
X252991Y136857D01*
X252033Y137815D01*
X252559Y139085D01*
X263061D01*
X263587Y137815D01*
X262629Y136857D01*
X261332Y134612D01*
X260661Y132107D01*
Y129513D01*
X261332Y127008D01*
X262629Y124763D01*
X264463Y122929D01*
X266708Y121632D01*
X269213Y120961D01*
X271807D01*
X274312Y121632D01*
X276557Y122929D01*
X278391Y124763D01*
X279688Y127008D01*
X280359Y129513D01*
Y132107D01*
X279688Y134612D01*
X278391Y136857D01*
X277433Y137815D01*
X277959Y139085D01*
X278925D01*
X279916Y139282D01*
X280756Y139844D01*
X306213Y165301D01*
X306775Y166141D01*
X306972Y167132D01*
Y167973D01*
X307290Y168161D01*
X308560Y167436D01*
D02*
G37*
G36*
X134961Y114261D02*
X150439D01*
Y124962D01*
X151613Y125448D01*
X152802Y124258D01*
X153090Y123827D01*
X162360Y114558D01*
X162293Y113075D01*
X162090Y112826D01*
X115537D01*
X109706Y118657D01*
X109911Y119013D01*
X110439Y120981D01*
Y123019D01*
X109911Y124987D01*
X108893Y126752D01*
X108694Y126950D01*
X109221Y128220D01*
X116179D01*
X116705Y126950D01*
X116507Y126752D01*
X115488Y124987D01*
X114961Y123019D01*
Y120981D01*
X115488Y119013D01*
X116507Y117248D01*
X117948Y115808D01*
X119713Y114789D01*
X121681Y114261D01*
X123719D01*
X125687Y114789D01*
X127452Y115808D01*
X128892Y117248D01*
X129911Y119013D01*
X130439Y120981D01*
Y123019D01*
X129911Y124987D01*
X128892Y126752D01*
X128694Y126950D01*
X129221Y128220D01*
X134961D01*
Y114261D01*
D02*
G37*
G36*
X96705Y126950D02*
X96507Y126752D01*
X95488Y124987D01*
X94961Y123019D01*
Y120981D01*
X95488Y119013D01*
X96507Y117248D01*
X97948Y115808D01*
X99713Y114789D01*
X101681Y114261D01*
X103719D01*
X105687Y114789D01*
X106043Y114994D01*
X112633Y108405D01*
X113239Y108000D01*
X113074Y106845D01*
X113028Y106730D01*
X82493D01*
X76504Y112719D01*
Y115456D01*
X77774Y115982D01*
X77948Y115808D01*
X79713Y114789D01*
X81681Y114261D01*
X83719D01*
X85687Y114789D01*
X87452Y115808D01*
X88893Y117248D01*
X89911Y119013D01*
X90439Y120981D01*
Y123019D01*
X89911Y124987D01*
X89706Y125344D01*
X92582Y128220D01*
X96179D01*
X96705Y126950D01*
D02*
G37*
G36*
X486521Y95203D02*
X486035Y94030D01*
X432038D01*
X431338Y95300D01*
X431930Y96729D01*
Y98851D01*
X431338Y100280D01*
X432038Y101550D01*
X480174D01*
X486521Y95203D01*
D02*
G37*
%LPC*%
G36*
X602007Y736289D02*
X601726D01*
Y727456D01*
X610559D01*
Y727737D01*
X609888Y730242D01*
X608591Y732487D01*
X606757Y734321D01*
X604512Y735618D01*
X602007Y736289D01*
D02*
G37*
G36*
X599694D02*
X599413D01*
X596908Y735618D01*
X594663Y734321D01*
X592829Y732487D01*
X591532Y730242D01*
X590861Y727737D01*
Y727456D01*
X599694D01*
Y736289D01*
D02*
G37*
G36*
X610559Y725424D02*
X601726D01*
Y716591D01*
X602007D01*
X604512Y717262D01*
X606757Y718559D01*
X608591Y720393D01*
X609888Y722638D01*
X610559Y725143D01*
Y725424D01*
D02*
G37*
G36*
X599694D02*
X590861D01*
Y725143D01*
X591532Y722638D01*
X592829Y720393D01*
X594663Y718559D01*
X596908Y717262D01*
X599413Y716591D01*
X599694D01*
Y725424D01*
D02*
G37*
G36*
X501614Y776454D02*
X501396D01*
Y768096D01*
X509754D01*
Y768314D01*
X509115Y770698D01*
X507881Y772836D01*
X506136Y774581D01*
X503998Y775815D01*
X501614Y776454D01*
D02*
G37*
G36*
X499364D02*
X499146D01*
X496762Y775815D01*
X494624Y774581D01*
X492879Y772836D01*
X491645Y770698D01*
X491006Y768314D01*
Y768096D01*
X499364D01*
Y776454D01*
D02*
G37*
G36*
X416524D02*
X416306D01*
Y768096D01*
X424664D01*
Y768314D01*
X424025Y770698D01*
X422791Y772836D01*
X421046Y774581D01*
X418908Y775815D01*
X416524Y776454D01*
D02*
G37*
G36*
X414274D02*
X414056D01*
X411672Y775815D01*
X409534Y774581D01*
X407789Y772836D01*
X406555Y770698D01*
X405916Y768314D01*
Y768096D01*
X414274D01*
Y776454D01*
D02*
G37*
G36*
X509754Y766064D02*
X501396D01*
Y757706D01*
X501614D01*
X503998Y758345D01*
X506136Y759579D01*
X507881Y761324D01*
X509115Y763462D01*
X509754Y765846D01*
Y766064D01*
D02*
G37*
G36*
X499364D02*
X491006D01*
Y765846D01*
X491645Y763462D01*
X492879Y761324D01*
X494624Y759579D01*
X496762Y758345D01*
X499146Y757706D01*
X499364D01*
Y766064D01*
D02*
G37*
G36*
X484354Y776454D02*
X465606D01*
Y757706D01*
X484354D01*
Y776454D01*
D02*
G37*
G36*
X424664Y766064D02*
X416306D01*
Y757706D01*
X416524D01*
X418908Y758345D01*
X421046Y759579D01*
X422791Y761324D01*
X424025Y763462D01*
X424664Y765846D01*
Y766064D01*
D02*
G37*
G36*
X414274D02*
X405916D01*
Y765846D01*
X406555Y763462D01*
X407789Y761324D01*
X409534Y759579D01*
X411672Y758345D01*
X414056Y757706D01*
X414274D01*
Y766064D01*
D02*
G37*
G36*
X399264Y776454D02*
X380516D01*
Y769670D01*
X285750D01*
X284759Y769473D01*
X283919Y768911D01*
X249998Y734990D01*
X248912Y735618D01*
X246407Y736289D01*
X243813D01*
X241308Y735618D01*
X239063Y734321D01*
X237229Y732487D01*
X235932Y730242D01*
X235261Y727737D01*
Y725143D01*
X235932Y722638D01*
X237229Y720393D01*
X239063Y718559D01*
X241308Y717262D01*
X243813Y716591D01*
X246407D01*
X248912Y717262D01*
X251157Y718559D01*
X252991Y720393D01*
X254288Y722638D01*
X254959Y725143D01*
Y727737D01*
X254288Y730242D01*
X253661Y731328D01*
X286823Y764490D01*
X380516D01*
Y757706D01*
X399264D01*
Y776454D01*
D02*
G37*
G36*
X605536Y759078D02*
Y756666D01*
X607948D01*
X607535Y757664D01*
X606534Y758665D01*
X605536Y759078D01*
D02*
G37*
G36*
X603504D02*
X602506Y758665D01*
X601505Y757664D01*
X601092Y756666D01*
X603504D01*
Y759078D01*
D02*
G37*
G36*
X271807Y736289D02*
X271526D01*
Y727456D01*
X280359D01*
Y727737D01*
X279688Y730242D01*
X278391Y732487D01*
X276557Y734321D01*
X274312Y735618D01*
X271807Y736289D01*
D02*
G37*
G36*
X269494D02*
X269213D01*
X266708Y735618D01*
X264463Y734321D01*
X262629Y732487D01*
X261332Y730242D01*
X260661Y727737D01*
Y727456D01*
X269494D01*
Y736289D01*
D02*
G37*
G36*
X830607D02*
X828013D01*
X825508Y735618D01*
X823263Y734321D01*
X821429Y732487D01*
X820132Y730242D01*
X819461Y727737D01*
Y725143D01*
X820132Y722638D01*
X821429Y720393D01*
X823263Y718559D01*
X825508Y717262D01*
X828013Y716591D01*
X830607D01*
X833112Y717262D01*
X835357Y718559D01*
X837191Y720393D01*
X838488Y722638D01*
X839159Y725143D01*
Y727737D01*
X838488Y730242D01*
X837191Y732487D01*
X835357Y734321D01*
X833112Y735618D01*
X830607Y736289D01*
D02*
G37*
G36*
X779807D02*
X777213D01*
X774708Y735618D01*
X772463Y734321D01*
X770629Y732487D01*
X769332Y730242D01*
X768661Y727737D01*
Y725143D01*
X769332Y722638D01*
X770629Y720393D01*
X772463Y718559D01*
X774708Y717262D01*
X777213Y716591D01*
X779807D01*
X782312Y717262D01*
X784557Y718559D01*
X786391Y720393D01*
X787688Y722638D01*
X788359Y725143D01*
Y727737D01*
X787688Y730242D01*
X786391Y732487D01*
X784557Y734321D01*
X782312Y735618D01*
X779807Y736289D01*
D02*
G37*
G36*
X280359Y725424D02*
X271526D01*
Y716591D01*
X271807D01*
X274312Y717262D01*
X276557Y718559D01*
X278391Y720393D01*
X279688Y722638D01*
X280359Y725143D01*
Y725424D01*
D02*
G37*
G36*
X269494D02*
X260661D01*
Y725143D01*
X261332Y722638D01*
X262629Y720393D01*
X264463Y718559D01*
X266708Y717262D01*
X269213Y716591D01*
X269494D01*
Y725424D01*
D02*
G37*
G36*
X703607Y710889D02*
X701013D01*
X698508Y710218D01*
X696263Y708921D01*
X694429Y707087D01*
X693132Y704842D01*
X692461Y702337D01*
Y699743D01*
X693132Y697238D01*
X694429Y694993D01*
X696263Y693159D01*
X698508Y691862D01*
X701013Y691191D01*
X703607D01*
X706112Y691862D01*
X708357Y693159D01*
X710191Y694993D01*
X711488Y697238D01*
X712159Y699743D01*
Y702337D01*
X711488Y704842D01*
X710191Y707087D01*
X708357Y708921D01*
X706112Y710218D01*
X703607Y710889D01*
D02*
G37*
G36*
X271807D02*
X269213D01*
X266708Y710218D01*
X264463Y708921D01*
X262629Y707087D01*
X261332Y704842D01*
X260661Y702337D01*
Y699743D01*
X261332Y697238D01*
X262629Y694993D01*
X264463Y693159D01*
X266708Y691862D01*
X269213Y691191D01*
X271807D01*
X274312Y691862D01*
X276557Y693159D01*
X278391Y694993D01*
X279688Y697238D01*
X280359Y699743D01*
Y702337D01*
X279688Y704842D01*
X278391Y707087D01*
X276557Y708921D01*
X274312Y710218D01*
X271807Y710889D01*
D02*
G37*
G36*
X703607Y685489D02*
X701013D01*
X698508Y684818D01*
X696263Y683521D01*
X694429Y681687D01*
X693132Y679442D01*
X692461Y676937D01*
Y674343D01*
X693132Y671838D01*
X694429Y669593D01*
X696263Y667759D01*
X698508Y666462D01*
X701013Y665791D01*
X703607D01*
X706112Y666462D01*
X708357Y667759D01*
X710191Y669593D01*
X711488Y671838D01*
X712159Y674343D01*
Y676937D01*
X711488Y679442D01*
X710191Y681687D01*
X708357Y683521D01*
X706112Y684818D01*
X703607Y685489D01*
D02*
G37*
G36*
Y660089D02*
X703326D01*
Y651256D01*
X712159D01*
Y651537D01*
X711488Y654042D01*
X710191Y656287D01*
X708357Y658121D01*
X706112Y659418D01*
X703607Y660089D01*
D02*
G37*
G36*
X701294D02*
X701013D01*
X698508Y659418D01*
X696263Y658121D01*
X694429Y656287D01*
X693132Y654042D01*
X692461Y651537D01*
Y651256D01*
X701294D01*
Y660089D01*
D02*
G37*
G36*
X712159Y649224D02*
X703326D01*
Y640391D01*
X703607D01*
X706112Y641062D01*
X708357Y642359D01*
X710191Y644193D01*
X711488Y646438D01*
X712159Y648943D01*
Y649224D01*
D02*
G37*
G36*
X701294D02*
X692461D01*
Y648943D01*
X693132Y646438D01*
X694429Y644193D01*
X696263Y642359D01*
X698508Y641062D01*
X701013Y640391D01*
X701294D01*
Y649224D01*
D02*
G37*
G36*
X830607Y583889D02*
X828013D01*
X825508Y583218D01*
X823263Y581921D01*
X821429Y580087D01*
X820132Y577842D01*
X819461Y575337D01*
Y572743D01*
X820132Y570238D01*
X821429Y567993D01*
X823263Y566159D01*
X825508Y564862D01*
X828013Y564191D01*
X830607D01*
X833112Y564862D01*
X835357Y566159D01*
X837191Y567993D01*
X838488Y570238D01*
X839159Y572743D01*
Y575337D01*
X838488Y577842D01*
X837191Y580087D01*
X835357Y581921D01*
X833112Y583218D01*
X830607Y583889D01*
D02*
G37*
G36*
X805207D02*
X802613D01*
X800108Y583218D01*
X797863Y581921D01*
X796029Y580087D01*
X794732Y577842D01*
X794061Y575337D01*
Y572743D01*
X794732Y570238D01*
X796029Y567993D01*
X797863Y566159D01*
X800108Y564862D01*
X802613Y564191D01*
X805207D01*
X807712Y564862D01*
X809957Y566159D01*
X811791Y567993D01*
X813088Y570238D01*
X813759Y572743D01*
Y575337D01*
X813088Y577842D01*
X811791Y580087D01*
X809957Y581921D01*
X807712Y583218D01*
X805207Y583889D01*
D02*
G37*
G36*
X779807D02*
X777213D01*
X774708Y583218D01*
X772463Y581921D01*
X770629Y580087D01*
X769332Y577842D01*
X768661Y575337D01*
Y572743D01*
X769332Y570238D01*
X770629Y567993D01*
X772463Y566159D01*
X774708Y564862D01*
X777213Y564191D01*
X779807D01*
X782312Y564862D01*
X784557Y566159D01*
X786391Y567993D01*
X787688Y570238D01*
X788359Y572743D01*
Y575337D01*
X787688Y577842D01*
X786391Y580087D01*
X784557Y581921D01*
X782312Y583218D01*
X779807Y583889D01*
D02*
G37*
G36*
X754407D02*
X751813D01*
X749308Y583218D01*
X747063Y581921D01*
X745229Y580087D01*
X743932Y577842D01*
X743261Y575337D01*
Y572743D01*
X743932Y570238D01*
X745229Y567993D01*
X747063Y566159D01*
X749308Y564862D01*
X751813Y564191D01*
X754407D01*
X756912Y564862D01*
X759157Y566159D01*
X760991Y567993D01*
X762288Y570238D01*
X762959Y572743D01*
Y575337D01*
X762288Y577842D01*
X760991Y580087D01*
X759157Y581921D01*
X756912Y583218D01*
X754407Y583889D01*
D02*
G37*
G36*
X729007D02*
X726413D01*
X723908Y583218D01*
X721663Y581921D01*
X719829Y580087D01*
X718532Y577842D01*
X717861Y575337D01*
Y572743D01*
X718532Y570238D01*
X719829Y567993D01*
X721663Y566159D01*
X723908Y564862D01*
X726413Y564191D01*
X729007D01*
X731512Y564862D01*
X733757Y566159D01*
X735591Y567993D01*
X736888Y570238D01*
X737559Y572743D01*
Y575337D01*
X736888Y577842D01*
X735591Y580087D01*
X733757Y581921D01*
X731512Y583218D01*
X729007Y583889D01*
D02*
G37*
G36*
X107696Y549528D02*
Y547116D01*
X110108D01*
X109695Y548114D01*
X108694Y549115D01*
X107696Y549528D01*
D02*
G37*
G36*
X105664D02*
X104666Y549115D01*
X103665Y548114D01*
X103252Y547116D01*
X105664D01*
Y549528D01*
D02*
G37*
G36*
X110108Y545084D02*
X107696D01*
Y542672D01*
X108694Y543085D01*
X109695Y544086D01*
X110108Y545084D01*
D02*
G37*
G36*
X105664D02*
X103252D01*
X103665Y544086D01*
X104666Y543085D01*
X105664Y542672D01*
Y545084D01*
D02*
G37*
G36*
X140716Y524128D02*
Y521716D01*
X143128D01*
X142715Y522714D01*
X141714Y523715D01*
X140716Y524128D01*
D02*
G37*
G36*
X138684D02*
X137686Y523715D01*
X136685Y522714D01*
X136272Y521716D01*
X138684D01*
Y524128D01*
D02*
G37*
G36*
X143128Y519684D02*
X140716D01*
Y517272D01*
X141714Y517685D01*
X142715Y518686D01*
X143128Y519684D01*
D02*
G37*
G36*
X138684D02*
X136272D01*
X136685Y518686D01*
X137686Y517685D01*
X138684Y517272D01*
Y519684D01*
D02*
G37*
G36*
X613514Y517054D02*
X607006D01*
Y506546D01*
X613514D01*
Y517054D01*
D02*
G37*
G36*
X762054D02*
X747006D01*
Y494006D01*
X762054D01*
Y517054D01*
D02*
G37*
G36*
X742054D02*
X727006D01*
Y494006D01*
X742054D01*
Y517054D01*
D02*
G37*
G36*
X722054D02*
X707006D01*
Y494006D01*
X722054D01*
Y517054D01*
D02*
G37*
G36*
X702054D02*
X687006D01*
Y494006D01*
X702054D01*
Y517054D01*
D02*
G37*
G36*
X682054D02*
X667006D01*
Y494006D01*
X682054D01*
Y517054D01*
D02*
G37*
G36*
X662054D02*
X647006D01*
Y494006D01*
X662054D01*
Y517054D01*
D02*
G37*
G36*
X613514Y504514D02*
X607006D01*
Y494006D01*
X613514D01*
Y504514D01*
D02*
G37*
G36*
X144526Y492378D02*
Y489966D01*
X146938D01*
X146525Y490964D01*
X145524Y491965D01*
X144526Y492378D01*
D02*
G37*
G36*
X142494D02*
X141496Y491965D01*
X140495Y490964D01*
X140082Y489966D01*
X142494D01*
Y492378D01*
D02*
G37*
G36*
X146938Y487934D02*
X144526D01*
Y485522D01*
X145524Y485935D01*
X146525Y486936D01*
X146938Y487934D01*
D02*
G37*
G36*
X142494D02*
X140082D01*
X140495Y486936D01*
X141496Y485935D01*
X142494Y485522D01*
Y487934D01*
D02*
G37*
G36*
X84836Y473328D02*
Y470916D01*
X87248D01*
X86835Y471914D01*
X85834Y472915D01*
X84836Y473328D01*
D02*
G37*
G36*
X82804D02*
X81806Y472915D01*
X80805Y471914D01*
X80392Y470916D01*
X82804D01*
Y473328D01*
D02*
G37*
G36*
X87248Y468884D02*
X84836D01*
Y466472D01*
X85834Y466885D01*
X86835Y467886D01*
X87248Y468884D01*
D02*
G37*
G36*
X82804D02*
X80392D01*
X80805Y467886D01*
X81806Y466885D01*
X82804Y466472D01*
Y468884D01*
D02*
G37*
G36*
X21336Y408558D02*
Y406146D01*
X23748D01*
X23335Y407144D01*
X22334Y408145D01*
X21336Y408558D01*
D02*
G37*
G36*
X19304D02*
X18306Y408145D01*
X17305Y407144D01*
X16892Y406146D01*
X19304D01*
Y408558D01*
D02*
G37*
G36*
X23748Y404114D02*
X21336D01*
Y401702D01*
X22334Y402115D01*
X23335Y403116D01*
X23748Y404114D01*
D02*
G37*
G36*
X19304D02*
X16892D01*
X17305Y403116D01*
X18306Y402115D01*
X19304Y401702D01*
Y404114D01*
D02*
G37*
G36*
X742054Y367054D02*
X727006D01*
Y344006D01*
X742054D01*
Y367054D01*
D02*
G37*
G36*
X722054D02*
X707006D01*
Y344006D01*
X722054D01*
Y367054D01*
D02*
G37*
G36*
X702054D02*
X687006D01*
Y344006D01*
X702054D01*
Y367054D01*
D02*
G37*
G36*
X830607Y293059D02*
X830326D01*
Y284226D01*
X839159D01*
Y284507D01*
X838488Y287012D01*
X837191Y289257D01*
X835357Y291091D01*
X833112Y292388D01*
X830607Y293059D01*
D02*
G37*
G36*
X828294D02*
X828013D01*
X825508Y292388D01*
X823263Y291091D01*
X821429Y289257D01*
X820132Y287012D01*
X819461Y284507D01*
Y284226D01*
X828294D01*
Y293059D01*
D02*
G37*
G36*
X839159Y282194D02*
X830326D01*
Y273361D01*
X830607D01*
X833112Y274032D01*
X835357Y275329D01*
X837191Y277163D01*
X838488Y279408D01*
X839159Y281913D01*
Y282194D01*
D02*
G37*
G36*
X828294D02*
X819461D01*
Y281913D01*
X820132Y279408D01*
X821429Y277163D01*
X823263Y275329D01*
X825508Y274032D01*
X828013Y273361D01*
X828294D01*
Y282194D01*
D02*
G37*
G36*
X24573Y186224D02*
X20827D01*
X17210Y185255D01*
X13966Y183382D01*
X11318Y180734D01*
X9445Y177490D01*
X8476Y173873D01*
Y170128D01*
X9445Y166510D01*
X11318Y163266D01*
X13966Y160618D01*
X17210Y158745D01*
X20827Y157776D01*
X24573D01*
X28190Y158745D01*
X31434Y160618D01*
X34082Y163266D01*
X35955Y166510D01*
X36924Y170128D01*
Y173873D01*
X35955Y177490D01*
X34082Y180734D01*
X31434Y183382D01*
X28190Y185255D01*
X24573Y186224D01*
D02*
G37*
G36*
X805207Y166059D02*
X802613D01*
X800108Y165388D01*
X797863Y164091D01*
X796029Y162257D01*
X794732Y160012D01*
X794061Y157507D01*
Y154913D01*
X794732Y152408D01*
X796029Y150163D01*
X797863Y148329D01*
X800108Y147032D01*
X802613Y146361D01*
X805207D01*
X807712Y147032D01*
X809957Y148329D01*
X811791Y150163D01*
X813088Y152408D01*
X813759Y154913D01*
Y157507D01*
X813088Y160012D01*
X811791Y162257D01*
X809957Y164091D01*
X807712Y165388D01*
X805207Y166059D01*
D02*
G37*
G36*
Y140659D02*
X804926D01*
Y131826D01*
X813759D01*
Y132107D01*
X813088Y134612D01*
X811791Y136857D01*
X809957Y138691D01*
X807712Y139988D01*
X805207Y140659D01*
D02*
G37*
G36*
X802894D02*
X802613D01*
X800108Y139988D01*
X797863Y138691D01*
X796029Y136857D01*
X794732Y134612D01*
X794061Y132107D01*
Y131826D01*
X802894D01*
Y140659D01*
D02*
G37*
G36*
X813759Y129794D02*
X804926D01*
Y120961D01*
X805207D01*
X807712Y121632D01*
X809957Y122929D01*
X811791Y124763D01*
X813088Y127008D01*
X813759Y129513D01*
Y129794D01*
D02*
G37*
G36*
X802894D02*
X794061D01*
Y129513D01*
X794732Y127008D01*
X796029Y124763D01*
X797863Y122929D01*
X800108Y121632D01*
X802613Y120961D01*
X802894D01*
Y129794D01*
D02*
G37*
G36*
X427542Y695286D02*
X425130D01*
Y692874D01*
X426128Y693288D01*
X427128Y694288D01*
X427542Y695286D01*
D02*
G37*
G36*
X423098D02*
X420686D01*
X421099Y694288D01*
X422099Y693288D01*
X423098Y692874D01*
Y695286D01*
D02*
G37*
G36*
X413557Y691388D02*
X411435D01*
X409474Y690576D01*
X407974Y689075D01*
X407162Y687115D01*
Y684993D01*
X407974Y683033D01*
X409474Y681532D01*
X411435Y680720D01*
X413557D01*
X415518Y681532D01*
X417018Y683033D01*
X417197Y683464D01*
X478733D01*
X530531Y631667D01*
X530352Y631235D01*
Y629113D01*
X531164Y627152D01*
X532664Y625652D01*
X534625Y624840D01*
X536747D01*
X538708Y625652D01*
X540208Y627152D01*
X541020Y629113D01*
Y631235D01*
X540208Y633195D01*
X538708Y634696D01*
X536747Y635508D01*
X534625D01*
X534193Y635329D01*
X481637Y687885D01*
X480797Y688447D01*
X479806Y688644D01*
X417197D01*
X417018Y689075D01*
X415518Y690576D01*
X413557Y691388D01*
D02*
G37*
G36*
X411507Y614389D02*
X411226D01*
Y605556D01*
X420059D01*
Y605836D01*
X419388Y608341D01*
X418091Y610587D01*
X416257Y612421D01*
X414012Y613718D01*
X411507Y614389D01*
D02*
G37*
G36*
X409194D02*
X408913D01*
X406408Y613718D01*
X404163Y612421D01*
X402329Y610587D01*
X401032Y608341D01*
X400361Y605836D01*
Y605556D01*
X409194D01*
Y614389D01*
D02*
G37*
G36*
X386107D02*
X385826D01*
Y605556D01*
X394659D01*
Y605836D01*
X393988Y608341D01*
X392691Y610587D01*
X390857Y612421D01*
X388612Y613718D01*
X386107Y614389D01*
D02*
G37*
G36*
X383794D02*
X383513D01*
X381008Y613718D01*
X378763Y612421D01*
X376929Y610587D01*
X375632Y608341D01*
X374961Y605836D01*
Y605556D01*
X383794D01*
Y614389D01*
D02*
G37*
G36*
X420059Y603524D02*
X411226D01*
Y594691D01*
X411507D01*
X414012Y595362D01*
X416257Y596659D01*
X418091Y598492D01*
X419388Y600738D01*
X420059Y603243D01*
Y603524D01*
D02*
G37*
G36*
X409194D02*
X400361D01*
Y603243D01*
X401032Y600738D01*
X402329Y598492D01*
X404163Y596659D01*
X406408Y595362D01*
X408913Y594691D01*
X409194D01*
Y603524D01*
D02*
G37*
G36*
X394659D02*
X385826D01*
Y594691D01*
X386107D01*
X388612Y595362D01*
X390857Y596659D01*
X392691Y598492D01*
X393988Y600738D01*
X394659Y603243D01*
Y603524D01*
D02*
G37*
G36*
X383794D02*
X374961D01*
Y603243D01*
X375632Y600738D01*
X376929Y598492D01*
X378763Y596659D01*
X381008Y595362D01*
X383513Y594691D01*
X383794D01*
Y603524D01*
D02*
G37*
G36*
X360707Y614389D02*
X358113D01*
X355608Y613718D01*
X353363Y612421D01*
X351529Y610587D01*
X350232Y608341D01*
X349561Y605836D01*
Y603243D01*
X350232Y600738D01*
X351529Y598492D01*
X353363Y596659D01*
X355608Y595362D01*
X358113Y594691D01*
X360707D01*
X363212Y595362D01*
X365457Y596659D01*
X367291Y598492D01*
X368588Y600738D01*
X369259Y603243D01*
Y605836D01*
X368588Y608341D01*
X367291Y610587D01*
X365457Y612421D01*
X363212Y613718D01*
X360707Y614389D01*
D02*
G37*
G36*
X335307D02*
X332713D01*
X330208Y613718D01*
X327963Y612421D01*
X326129Y610587D01*
X324832Y608341D01*
X324161Y605836D01*
Y603243D01*
X324832Y600738D01*
X326129Y598492D01*
X327963Y596659D01*
X330208Y595362D01*
X332713Y594691D01*
X335307D01*
X337812Y595362D01*
X340057Y596659D01*
X341891Y598492D01*
X343188Y600738D01*
X343859Y603243D01*
Y605836D01*
X343188Y608341D01*
X341891Y610587D01*
X340057Y612421D01*
X337812Y613718D01*
X335307Y614389D01*
D02*
G37*
G36*
X309907D02*
X307313D01*
X304808Y613718D01*
X302563Y612421D01*
X300729Y610587D01*
X299432Y608341D01*
X298761Y605836D01*
Y603243D01*
X299432Y600738D01*
X300729Y598492D01*
X302563Y596659D01*
X304808Y595362D01*
X307313Y594691D01*
X309907D01*
X312412Y595362D01*
X314657Y596659D01*
X316491Y598492D01*
X317788Y600738D01*
X318459Y603243D01*
Y605836D01*
X317788Y608341D01*
X316491Y610587D01*
X314657Y612421D01*
X312412Y613718D01*
X309907Y614389D01*
D02*
G37*
G36*
X524256Y482218D02*
Y479806D01*
X526668D01*
X526255Y480804D01*
X525254Y481805D01*
X524256Y482218D01*
D02*
G37*
G36*
X511824Y487064D02*
X506316D01*
Y479806D01*
X511824D01*
Y487064D01*
D02*
G37*
G36*
X526668Y477774D02*
X524256D01*
Y475362D01*
X525254Y475775D01*
X526255Y476776D01*
X526668Y477774D01*
D02*
G37*
G36*
X292654Y494684D02*
X286396D01*
Y487426D01*
X292654D01*
Y494684D01*
D02*
G37*
G36*
Y485394D02*
X286396D01*
Y478136D01*
X292654D01*
Y485394D01*
D02*
G37*
G36*
X253618Y477774D02*
X251206D01*
Y475362D01*
X252204Y475775D01*
X253205Y476776D01*
X253618Y477774D01*
D02*
G37*
G36*
X523258Y456090D02*
Y453677D01*
X525670D01*
X525256Y454676D01*
X524256Y455676D01*
X523258Y456090D01*
D02*
G37*
G36*
X525670Y451645D02*
X523258D01*
Y449233D01*
X524256Y449647D01*
X525256Y450647D01*
X525670Y451645D01*
D02*
G37*
G36*
X511944Y453644D02*
X506436D01*
Y446386D01*
X511944D01*
Y453644D01*
D02*
G37*
G36*
X609554Y447554D02*
X589506D01*
Y433506D01*
X609554D01*
Y447554D01*
D02*
G37*
G36*
X526668Y409828D02*
Y407416D01*
X529080D01*
X528667Y408414D01*
X527667Y409415D01*
X526668Y409828D01*
D02*
G37*
G36*
X524636D02*
X523638Y409415D01*
X522637Y408414D01*
X522224Y407416D01*
X524636D01*
Y409828D01*
D02*
G37*
G36*
X529080Y405384D02*
X526668D01*
Y402972D01*
X527667Y403385D01*
X528667Y404386D01*
X529080Y405384D01*
D02*
G37*
G36*
X524636D02*
X522224D01*
X522637Y404386D01*
X523638Y403385D01*
X524636Y402972D01*
Y405384D01*
D02*
G37*
G36*
X524256Y385698D02*
Y383286D01*
X526668D01*
X526255Y384284D01*
X525254Y385285D01*
X524256Y385698D01*
D02*
G37*
G36*
X511944Y390544D02*
X506436D01*
Y383286D01*
X511944D01*
Y390544D01*
D02*
G37*
G36*
X526668Y381254D02*
X524256D01*
Y378842D01*
X525254Y379255D01*
X526255Y380256D01*
X526668Y381254D01*
D02*
G37*
G36*
X524256Y433958D02*
Y431546D01*
X526668D01*
X526255Y432544D01*
X525254Y433545D01*
X524256Y433958D01*
D02*
G37*
G36*
X526668Y429514D02*
X524256D01*
Y427102D01*
X525254Y427515D01*
X526255Y428516D01*
X526668Y429514D01*
D02*
G37*
G36*
X511944D02*
X506436D01*
Y422256D01*
X511944D01*
Y429514D01*
D02*
G37*
G36*
X300736Y418718D02*
Y416306D01*
X303148D01*
X302735Y417304D01*
X301734Y418305D01*
X300736Y418718D01*
D02*
G37*
G36*
X298704D02*
X297706Y418305D01*
X296705Y417304D01*
X296292Y416306D01*
X298704D01*
Y418718D01*
D02*
G37*
G36*
X251206D02*
Y416306D01*
X253618D01*
X253205Y417304D01*
X252204Y418305D01*
X251206Y418718D01*
D02*
G37*
G36*
X403244Y432094D02*
X386696D01*
Y419046D01*
X394186D01*
Y412684D01*
X386696D01*
Y408750D01*
X379619D01*
X379440Y409182D01*
X377940Y410682D01*
X375979Y411494D01*
X373857D01*
X371897Y410682D01*
X370396Y409182D01*
X369584Y407221D01*
Y405099D01*
X370396Y403139D01*
X371897Y401638D01*
X373857Y400826D01*
X375979D01*
X377940Y401638D01*
X379440Y403139D01*
X379619Y403571D01*
X386696D01*
Y399636D01*
X403244D01*
Y412684D01*
X399366D01*
Y419046D01*
X403244D01*
Y432094D01*
D02*
G37*
G36*
X330652Y394703D02*
X315127D01*
X314343Y394547D01*
X313677Y394103D01*
X313233Y393437D01*
X313076Y392653D01*
Y392480D01*
X310388D01*
X309397Y392283D01*
X308557Y391721D01*
X245815Y328980D01*
X233555D01*
X233376Y329412D01*
X231875Y330912D01*
X229915Y331724D01*
X227793D01*
X225833Y330912D01*
X224332Y329412D01*
X223520Y327451D01*
Y325329D01*
X224332Y323368D01*
X225833Y321868D01*
X227793Y321056D01*
X229915D01*
X231875Y321868D01*
X233376Y323368D01*
X233555Y323800D01*
X246888D01*
X247879Y323997D01*
X248719Y324559D01*
X311461Y387300D01*
X313076D01*
Y387127D01*
X313233Y386343D01*
X313677Y385677D01*
X314343Y385233D01*
X315127Y385077D01*
X330652D01*
X331437Y385233D01*
X332103Y385677D01*
X332547Y386343D01*
X332703Y387127D01*
Y392653D01*
X332547Y393437D01*
X332103Y394103D01*
X331437Y394547D01*
X330652Y394703D01*
D02*
G37*
G36*
X336296Y380618D02*
Y378206D01*
X338708D01*
X338295Y379204D01*
X337294Y380205D01*
X336296Y380618D01*
D02*
G37*
G36*
X321874Y382003D02*
X315127D01*
X314343Y381847D01*
X313677Y381403D01*
X313233Y380737D01*
X313076Y379953D01*
Y378206D01*
X321874D01*
Y382003D01*
D02*
G37*
G36*
X338708Y376174D02*
X336296D01*
Y373762D01*
X337294Y374175D01*
X338295Y375176D01*
X338708Y376174D01*
D02*
G37*
G36*
X330652Y382003D02*
X323906D01*
Y377190D01*
X322890D01*
D01*
X323906D01*
Y372377D01*
X330652D01*
X331437Y372533D01*
X332103Y372977D01*
X332329Y373316D01*
X332724Y373678D01*
X333896Y373914D01*
X334264Y373762D01*
Y377190D01*
Y380618D01*
X333896Y380466D01*
X332724Y380702D01*
X332329Y381064D01*
X332103Y381403D01*
X331437Y381847D01*
X330652Y382003D01*
D02*
G37*
G36*
X321874Y376174D02*
X313076D01*
Y374427D01*
X313233Y373643D01*
X313677Y372977D01*
X314343Y372533D01*
X315127Y372377D01*
X321874D01*
Y376174D01*
D02*
G37*
G36*
X524256Y361568D02*
Y359156D01*
X526668D01*
X526255Y360154D01*
X525254Y361155D01*
X524256Y361568D01*
D02*
G37*
G36*
X522224D02*
X521226Y361155D01*
X520225Y360154D01*
X519812Y359156D01*
X522224D01*
Y361568D01*
D02*
G37*
G36*
X526668Y357124D02*
X524256D01*
Y354712D01*
X525254Y355125D01*
X526255Y356126D01*
X526668Y357124D01*
D02*
G37*
G36*
X522224D02*
X519812D01*
X520225Y356126D01*
X521226Y355125D01*
X522224Y354712D01*
Y357124D01*
D02*
G37*
G36*
X518214D02*
X512706D01*
Y349866D01*
X518214D01*
Y357124D01*
D02*
G37*
G36*
X510674D02*
X505166D01*
Y349866D01*
X510674D01*
Y357124D01*
D02*
G37*
G36*
X72874Y395454D02*
X54126D01*
Y376706D01*
X72874D01*
Y395454D01*
D02*
G37*
G36*
X61684Y329739D02*
X61681D01*
X59713Y329212D01*
X57948Y328193D01*
X56507Y326752D01*
X55488Y324987D01*
X54961Y323019D01*
Y323016D01*
X61684D01*
Y329739D01*
D02*
G37*
G36*
X36576Y320928D02*
Y318516D01*
X38988D01*
X38575Y319514D01*
X37574Y320515D01*
X36576Y320928D01*
D02*
G37*
G36*
X61684Y320984D02*
X54961D01*
Y320981D01*
X55488Y319013D01*
X56507Y317248D01*
X57948Y315807D01*
X59713Y314788D01*
X61681Y314261D01*
X61684D01*
Y320984D01*
D02*
G37*
G36*
X38988Y316484D02*
X36576D01*
Y314072D01*
X37574Y314485D01*
X38575Y315486D01*
X38988Y316484D01*
D02*
G37*
G36*
X63719Y309739D02*
X63716D01*
Y303016D01*
X70439D01*
Y303019D01*
X69911Y304987D01*
X68893Y306752D01*
X67452Y308193D01*
X65687Y309212D01*
X63719Y309739D01*
D02*
G37*
G36*
X61684D02*
X61681D01*
X59713Y309212D01*
X57948Y308193D01*
X56507Y306752D01*
X55488Y304987D01*
X54961Y303019D01*
Y303016D01*
X61684D01*
Y309739D01*
D02*
G37*
G36*
X662054Y367054D02*
X647006D01*
Y344006D01*
X662054D01*
Y367054D01*
D02*
G37*
G36*
X789686Y223138D02*
Y220726D01*
X792098D01*
X791685Y221724D01*
X790684Y222725D01*
X789686Y223138D01*
D02*
G37*
G36*
X787654D02*
X786656Y222725D01*
X785655Y221724D01*
X785242Y220726D01*
X787654D01*
Y223138D01*
D02*
G37*
G36*
X715252Y220472D02*
X712840D01*
Y218060D01*
X713838Y218473D01*
X714838Y219474D01*
X715252Y220472D01*
D02*
G37*
G36*
X792098Y218694D02*
X789686D01*
Y216282D01*
X790684Y216695D01*
X791685Y217696D01*
X792098Y218694D01*
D02*
G37*
G36*
X787654D02*
X785242D01*
X785655Y217696D01*
X786656Y216695D01*
X787654Y216282D01*
Y218694D01*
D02*
G37*
G36*
X474739Y208157D02*
Y205745D01*
X477151D01*
X476738Y206743D01*
X475737Y207743D01*
X474739Y208157D01*
D02*
G37*
G36*
X472707D02*
X471709Y207743D01*
X470708Y206743D01*
X470295Y205745D01*
X472707D01*
Y208157D01*
D02*
G37*
G36*
X477151Y203713D02*
X474739D01*
Y201301D01*
X475737Y201714D01*
X476738Y202714D01*
X477151Y203713D01*
D02*
G37*
G36*
X472707D02*
X470295D01*
X470708Y202714D01*
X471709Y201714D01*
X472707Y201301D01*
Y203713D01*
D02*
G37*
G36*
X690907Y262559D02*
X690626D01*
Y253726D01*
X699459D01*
Y254007D01*
X698788Y256512D01*
X697491Y258758D01*
X695657Y260591D01*
X693412Y261888D01*
X690907Y262559D01*
D02*
G37*
G36*
X716307D02*
X713713D01*
X711208Y261888D01*
X708963Y260591D01*
X707129Y258758D01*
X705832Y256512D01*
X705161Y254007D01*
Y251413D01*
X705832Y248909D01*
X707129Y246663D01*
X708963Y244829D01*
X711208Y243532D01*
X713713Y242861D01*
X716307D01*
X718812Y243532D01*
X721057Y244829D01*
X722891Y246663D01*
X724188Y248909D01*
X724859Y251413D01*
Y254007D01*
X724188Y256512D01*
X722891Y258758D01*
X721057Y260591D01*
X718812Y261888D01*
X716307Y262559D01*
D02*
G37*
G36*
X699459Y251694D02*
X690626D01*
Y242861D01*
X690907D01*
X693412Y243532D01*
X695657Y244829D01*
X697491Y246663D01*
X698788Y248909D01*
X699459Y251413D01*
Y251694D01*
D02*
G37*
G36*
X688594D02*
X679761D01*
Y251413D01*
X680432Y248909D01*
X681729Y246663D01*
X683563Y244829D01*
X685808Y243532D01*
X688313Y242861D01*
X688594D01*
Y251694D01*
D02*
G37*
G36*
X674059D02*
X665226D01*
Y242861D01*
X665507D01*
X668012Y243532D01*
X670257Y244829D01*
X672091Y246663D01*
X673388Y248909D01*
X674059Y251413D01*
Y251694D01*
D02*
G37*
G36*
X663194D02*
X654361D01*
Y251413D01*
X655032Y248909D01*
X656329Y246663D01*
X658163Y244829D01*
X660408Y243532D01*
X662913Y242861D01*
X663194D01*
Y251694D01*
D02*
G37*
G36*
X627407Y293059D02*
X624813D01*
X622308Y292388D01*
X620063Y291091D01*
X618229Y289257D01*
X616932Y287012D01*
X616261Y284507D01*
Y281913D01*
X616932Y279408D01*
X618229Y277163D01*
X620063Y275329D01*
X622308Y274032D01*
X624813Y273361D01*
X627407D01*
X629912Y274032D01*
X632157Y275329D01*
X633991Y277163D01*
X635288Y279408D01*
X635959Y281913D01*
Y284507D01*
X635288Y287012D01*
X633991Y289257D01*
X632157Y291091D01*
X629912Y292388D01*
X627407Y293059D01*
D02*
G37*
G36*
X444799Y159385D02*
X442677D01*
X440717Y158573D01*
X439216Y157072D01*
X438404Y155112D01*
Y152990D01*
X439216Y151030D01*
X440717Y149529D01*
X442677Y148717D01*
X444799D01*
X446759Y149529D01*
X448260Y151030D01*
X448439Y151461D01*
X703396D01*
X719159Y135698D01*
X718532Y134612D01*
X717861Y132107D01*
Y129513D01*
X718532Y127008D01*
X719829Y124763D01*
X721663Y122929D01*
X723908Y121632D01*
X726413Y120961D01*
X729007D01*
X731512Y121632D01*
X733757Y122929D01*
X735591Y124763D01*
X736888Y127008D01*
X737559Y129513D01*
Y132107D01*
X736888Y134612D01*
X735591Y136857D01*
X733757Y138691D01*
X731512Y139988D01*
X729007Y140659D01*
X726413D01*
X723908Y139988D01*
X722822Y139361D01*
X706300Y155882D01*
X705460Y156444D01*
X704469Y156641D01*
X448439D01*
X448260Y157072D01*
X446759Y158573D01*
X444799Y159385D01*
D02*
G37*
G36*
X703607Y140659D02*
X701013D01*
X698508Y139988D01*
X696263Y138691D01*
X694429Y136857D01*
X693132Y134612D01*
X692461Y132107D01*
Y129513D01*
X693132Y127008D01*
X694429Y124763D01*
X696263Y122929D01*
X698508Y121632D01*
X701013Y120961D01*
X703607D01*
X706112Y121632D01*
X708357Y122929D01*
X710191Y124763D01*
X711488Y127008D01*
X712159Y129513D01*
Y132107D01*
X711488Y134612D01*
X710191Y136857D01*
X708357Y138691D01*
X706112Y139988D01*
X703607Y140659D01*
D02*
G37*
G36*
X678207D02*
X675613D01*
X673108Y139988D01*
X670863Y138691D01*
X669029Y136857D01*
X667732Y134612D01*
X667061Y132107D01*
Y129513D01*
X667732Y127008D01*
X669029Y124763D01*
X670863Y122929D01*
X673108Y121632D01*
X675613Y120961D01*
X678207D01*
X680712Y121632D01*
X682957Y122929D01*
X684791Y124763D01*
X686088Y127008D01*
X686759Y129513D01*
Y132107D01*
X686088Y134612D01*
X684791Y136857D01*
X682957Y138691D01*
X680712Y139988D01*
X678207Y140659D01*
D02*
G37*
G36*
X483559Y129794D02*
X474726D01*
Y120961D01*
X475007D01*
X477512Y121632D01*
X479757Y122929D01*
X481591Y124763D01*
X482888Y127008D01*
X483559Y129513D01*
Y129794D01*
D02*
G37*
G36*
X472694D02*
X463861D01*
Y129513D01*
X464532Y127008D01*
X465829Y124763D01*
X467663Y122929D01*
X469908Y121632D01*
X472413Y120961D01*
X472694D01*
Y129794D01*
D02*
G37*
G36*
X297207Y140659D02*
X294613D01*
X292108Y139988D01*
X289863Y138691D01*
X288029Y136857D01*
X286732Y134612D01*
X286061Y132107D01*
Y129513D01*
X286732Y127008D01*
X288029Y124763D01*
X289863Y122929D01*
X292108Y121632D01*
X294613Y120961D01*
X297207D01*
X299712Y121632D01*
X301957Y122929D01*
X303791Y124763D01*
X305088Y127008D01*
X305759Y129513D01*
Y132107D01*
X305088Y134612D01*
X303791Y136857D01*
X301957Y138691D01*
X299712Y139988D01*
X297207Y140659D01*
D02*
G37*
%LPD*%
D29*
X63500Y386080D02*
D03*
X474980Y767080D02*
D03*
X389890D02*
D03*
D30*
X88900Y386080D02*
D03*
X500380Y767080D02*
D03*
X415290D02*
D03*
D34*
X33474Y281222D02*
G03*
X31328Y304563I-10774J10778D01*
G01*
X41485Y290493D02*
G03*
X31373Y311541I-23104J1854D01*
G01*
D02*
G03*
X31215Y311647I-12992J-19195D01*
G01*
X17912Y557663D02*
X18420D01*
X41402Y580644D01*
X11430Y551180D02*
X17912Y557663D01*
X287664Y466090D02*
X322890D01*
X283433Y468809D02*
X284945D01*
X287664Y466090D01*
X276225D02*
X280162Y462153D01*
Y438150D02*
Y462153D01*
X266390Y466090D02*
X276225D01*
X606298Y706628D02*
X626110Y726440D01*
X320503Y706628D02*
X606298D01*
X644779Y703072D02*
X662432Y720725D01*
X346456Y703072D02*
X644779D01*
X227584Y584200D02*
X346456Y703072D01*
X227838Y591058D02*
X310445Y673665D01*
Y733355D01*
X443230Y422910D02*
X450850Y430530D01*
X446532Y393808D02*
Y406118D01*
X449834Y419354D02*
X472701D01*
X443230Y409420D02*
X446532Y406118D01*
X449580Y419100D02*
X449834Y419354D01*
X443230Y409420D02*
Y422910D01*
X430422Y377698D02*
X446532Y393808D01*
X475918Y394462D02*
X476680Y393700D01*
X486410D01*
X463924Y394462D02*
X475918D01*
X461130Y391668D02*
X463924Y394462D01*
X540512Y472948D02*
X540766D01*
X533567Y378587D02*
X537210D01*
X448056Y504952D02*
X537210D01*
X527832Y374289D02*
X529269D01*
X533567Y378587D01*
X729488Y245618D02*
Y260477D01*
X703580Y219710D02*
X729488Y245618D01*
X593598Y219710D02*
X703580D01*
X554736Y258572D02*
X593598Y219710D01*
X485999Y738789D02*
X498348Y726440D01*
X485999Y738789D02*
Y743151D01*
X498348Y726440D02*
X499110D01*
X484930Y744220D02*
X485999Y743151D01*
X314452Y737362D02*
X480695D01*
X310445Y733355D02*
X314452Y737362D01*
X480695D02*
X488245Y729812D01*
X306889Y739705D02*
X317754Y750570D01*
X703580D01*
X727710Y726440D01*
X765810Y138176D02*
X800100Y172466D01*
X778510Y283210D02*
X800100Y261620D01*
Y172466D02*
Y261620D01*
X625094Y332904D02*
Y396875D01*
X496690Y346964D02*
X514724Y328930D01*
X499110Y283210D02*
X534416Y318516D01*
X610706D01*
X581660Y314960D02*
X631190D01*
X514724Y328930D02*
X612140D01*
X549910Y283210D02*
X581660Y314960D01*
X610706Y318516D02*
X625094Y332904D01*
X497960Y419020D02*
Y430530D01*
X499150Y417830D02*
X522986D01*
X497960Y419020D02*
X499150Y417830D01*
X522986D02*
X540766Y435610D01*
X447548Y441960D02*
X559046D01*
X540766Y435610D02*
X542036D01*
X559046Y441960D02*
X588880Y412127D01*
X441398Y448110D02*
X447548Y441960D01*
X541782Y464820D02*
X554228Y452374D01*
X497960Y463630D02*
X499150Y464820D01*
X497960Y454660D02*
Y463630D01*
X499150Y464820D02*
X541782D01*
X498094Y469392D02*
X536956D01*
X540512Y472948D01*
X497840Y469646D02*
Y478790D01*
Y469646D02*
X498094Y469392D01*
X526415Y372872D02*
X527832Y374289D01*
X456381Y590550D02*
X456791D01*
X473301Y574040D01*
X473710D01*
X365760Y509016D02*
X443992D01*
X256180Y502666D02*
X370281D01*
X122700Y369186D02*
X256180Y502666D01*
X373583Y499364D02*
X457200D01*
X157734Y395732D02*
X261112Y499110D01*
X368808D02*
X413258Y454660D01*
X370281Y502666D02*
X373583Y499364D01*
X443992Y509016D02*
X448056Y504952D01*
X261112Y499110D02*
X368808D01*
X457200Y499364D02*
X461010Y495554D01*
X231775Y366767D02*
X235204Y370196D01*
X234950Y432308D02*
X243332Y440690D01*
X246634Y408686D02*
X332232D01*
X234950Y393550D02*
X235204Y393296D01*
X241300Y414020D02*
X246634Y408686D01*
X234950Y393550D02*
Y432308D01*
X235204Y370196D02*
Y393296D01*
X136607Y568960D02*
X142449Y563118D01*
X479425D01*
X29210Y399288D02*
X44450Y414528D01*
X26924Y324561D02*
X29210Y399288D01*
X26924Y324561D02*
Y324561D01*
Y310910D02*
Y324561D01*
Y310910D02*
X28789Y306725D01*
X30480Y278227D02*
X33474Y281222D01*
X28789Y306725D02*
X30127Y305387D01*
X31328Y304563D01*
X30480Y312383D02*
Y323088D01*
X78486Y371094D01*
X30480Y312383D02*
X31215Y311647D01*
X30480Y277786D02*
X30480Y278227D01*
X41485Y290493D02*
X60452Y271526D01*
X30480Y276606D02*
Y277786D01*
Y276606D02*
X31075Y276011D01*
X53848Y253238D01*
X322890Y453390D02*
X323525Y454025D01*
X352425D01*
X353060Y454660D01*
X364200Y448110D02*
X441398D01*
X332616Y445770D02*
X361860D01*
X364200Y448110D01*
X301446Y446480D02*
X331906D01*
X332616Y445770D01*
X282956Y427990D02*
X301446Y446480D01*
X330200Y223520D02*
Y235978D01*
X331470Y237248D01*
Y238760D01*
X334100Y245110D02*
X346800Y232410D01*
X198252Y233245D02*
X210117Y245110D01*
X71455Y233245D02*
X198252D01*
X205740Y253238D02*
X210312Y248666D01*
X412045Y246945D02*
X448310Y283210D01*
X62700Y242000D02*
X71455Y233245D01*
X210117Y245110D02*
X334100D01*
X346800Y232410D02*
X422910D01*
X210312Y248666D02*
X335573D01*
X337294Y246945D01*
X412045D01*
X133938Y253238D02*
X205740D01*
X352298Y263398D02*
X372110Y283210D01*
X192532Y270764D02*
X199898Y263398D01*
X352298D01*
X301244Y226060D02*
X310134Y217170D01*
X152146Y213614D02*
X334303D01*
X332830Y217170D02*
X337205Y221545D01*
X151638Y213106D02*
X152146Y213614D01*
X337205Y221545D02*
X474783D01*
X338678Y217989D02*
X490277D01*
X310134Y217170D02*
X332830D01*
X334303Y213614D02*
X338678Y217989D01*
X474783Y221545D02*
X511810Y258572D01*
X490277Y217989D02*
X524510Y252222D01*
X216199Y180340D02*
X307430D01*
X304382Y173572D02*
X304800Y173990D01*
X278925Y141675D02*
X304382Y167132D01*
X177235Y141675D02*
X278925D01*
X307430Y180340D02*
X311150Y176620D01*
X111506Y166878D02*
X117873Y173245D01*
X209104D02*
X216199Y180340D01*
X117873Y173245D02*
X209104D01*
X311150Y149583D02*
Y176620D01*
X310445Y121840D02*
Y148878D01*
X162560Y127000D02*
X177235Y141675D01*
X310445Y148878D02*
X311150Y149583D01*
X310445Y121840D02*
X312340Y119945D01*
X405314D01*
X304382Y167132D02*
Y173572D01*
X115011Y150876D02*
X279146D01*
X108712Y142000D02*
X115011Y150876D01*
X164191Y116389D02*
X611689D01*
X154921Y125659D02*
X164191Y116389D01*
X149913Y130810D02*
X154921Y125801D01*
X91510Y130810D02*
X149913D01*
X154921Y125659D02*
Y125801D01*
X396776Y406160D02*
Y425570D01*
X569468Y91440D02*
X789940D01*
X78232D02*
X569468D01*
X619125Y480530D02*
X653783D01*
X599530D02*
X619125D01*
X412750Y141732D02*
X434848D01*
X410838Y440570D02*
X418592D01*
X394970D02*
X410838D01*
X156972Y191008D02*
X168035D01*
X111708D02*
X156972D01*
X266192Y366041D02*
Y377190D01*
X374918Y406160D02*
X394970D01*
X551688Y355530D02*
X614530D01*
X563118Y85090D02*
X569468Y91440D01*
X789940D02*
X829310Y130810D01*
X240538Y466090D02*
X266390D01*
X179578Y405130D02*
X240538Y466090D01*
X67564Y102108D02*
X78232Y91440D01*
X759714Y264414D02*
X778510Y283210D01*
X733425Y264414D02*
X759714D01*
X729488Y260477D02*
X733425Y264414D01*
X511810Y258572D02*
X554736D01*
X322890Y415290D02*
X349631D01*
X368300Y396621D01*
Y365379D02*
Y396621D01*
Y365379D02*
X371475Y362204D01*
X436880D01*
X443992Y369316D01*
X575056D01*
X586486Y380746D01*
Y408317D01*
X586740Y408571D01*
X625475D01*
X644525Y389521D01*
Y375998D02*
Y389521D01*
Y375998D02*
X647700Y372823D01*
X660478D01*
X665480Y377825D01*
Y380746D01*
X244475Y402590D02*
X266390D01*
X239268Y397383D02*
X244475Y402590D01*
X239268Y363220D02*
Y397383D01*
X218186Y342138D02*
X239268Y363220D01*
X173228Y342138D02*
X218186D01*
X172974Y341884D02*
X173228Y342138D01*
X172974Y320675D02*
Y341884D01*
Y320675D02*
X176911Y316738D01*
X381254D01*
X396494Y301498D01*
X475177D01*
X484575Y292100D01*
Y268535D02*
Y292100D01*
Y268535D02*
X488950Y264160D01*
X683260D01*
X702310Y283210D01*
X655193Y379222D02*
Y388747D01*
X631813Y412127D02*
X655193Y388747D01*
X588880Y412127D02*
X631813D01*
X266390Y427990D02*
X282956D01*
X306889Y717537D02*
Y739705D01*
X192094Y602742D02*
X306889Y717537D01*
X147320Y602742D02*
X192094D01*
X524510Y283210D02*
X535375Y272345D01*
X585908D01*
X589788Y276225D01*
Y295275D01*
X592963Y298450D01*
X640588D01*
X665988Y323850D01*
Y368300D01*
X672084Y374396D01*
Y457200D01*
X668754Y460530D02*
X672084Y457200D01*
X599530Y460530D02*
X668754D01*
X82700Y222000D02*
X91594Y213106D01*
X151638D01*
X479425Y563118D02*
X484632Y568325D01*
Y591312D01*
X495300Y601980D01*
X547370D01*
X653783Y480530D02*
X765810Y368503D01*
X447294Y376428D02*
X450850Y372872D01*
X475876D01*
X476130Y373126D01*
Y382270D01*
X640588Y141732D02*
X651510Y130810D01*
X409194Y138176D02*
X412750Y141732D01*
X409194Y123825D02*
Y138176D01*
X405314Y119945D02*
X409194Y123825D01*
X111506Y156718D02*
Y166878D01*
X107950Y153162D02*
X111506Y156718D01*
X93862Y153162D02*
X107950D01*
X82700Y142000D02*
X93862Y153162D01*
X636524Y452374D02*
X665734Y423164D01*
X554228Y452374D02*
X636524D01*
X476130Y454660D02*
Y463550D01*
X470180Y469500D02*
X476130Y463550D01*
X437534Y469500D02*
X470180D01*
X425196Y481838D02*
X437534Y469500D01*
X412496Y686054D02*
X479806D01*
X535686Y630174D01*
X443738Y154051D02*
X704469D01*
X727710Y130810D01*
X625094Y192532D02*
X627888Y189738D01*
X330454Y192532D02*
X625094D01*
X320040Y202946D02*
X330454Y192532D01*
X168910Y202946D02*
X320040D01*
X156972Y191008D02*
X168910Y202946D01*
X102700Y182000D02*
X111708Y191008D01*
X175260Y196596D02*
X316992D01*
X346456Y167132D01*
X381889D01*
X397510Y151511D01*
Y130810D02*
Y151511D01*
X791845Y295275D02*
X803910Y283210D01*
X643636Y295275D02*
X791845D01*
X640461Y292100D02*
X643636Y295275D01*
X640461Y276225D02*
Y292100D01*
X633025Y268789D02*
X640461Y276225D01*
X492392Y268789D02*
X633025D01*
X488131Y273050D02*
X492392Y268789D01*
X488131Y273050D02*
Y297631D01*
X473342Y312420D02*
X488131Y297631D01*
X403860Y312420D02*
X473342D01*
X82700Y322000D02*
X92932Y332232D01*
Y345308D01*
X271499Y523875D01*
X534035D01*
X537210Y527050D01*
Y581025D01*
X541147Y584962D01*
X556895D01*
X560832Y581025D01*
Y555498D02*
Y581025D01*
Y555498D02*
X565150Y551180D01*
X654050D01*
X676910Y574040D01*
X715010Y637540D02*
X803910Y726440D01*
X715010Y590550D02*
Y637540D01*
X711200Y586740D02*
X715010Y590550D01*
X666750Y586740D02*
X711200D01*
X662432Y582422D02*
X666750Y586740D01*
X662432Y568325D02*
Y582422D01*
X653669Y559562D02*
X662432Y568325D01*
X568325Y559562D02*
X653669D01*
X564388Y563499D02*
X568325Y559562D01*
X564388Y563499D02*
Y584200D01*
X560070Y588518D02*
X564388Y584200D01*
X521462Y588518D02*
X560070D01*
X513588Y580644D02*
X521462Y588518D01*
X513588Y536575D02*
Y580644D01*
X510413Y533400D02*
X513588Y536575D01*
X274100Y533400D02*
X510413D01*
X82700Y342000D02*
X274100Y533400D01*
X102616Y599694D02*
X118110Y584200D01*
X227584D01*
X662432Y720725D02*
Y733425D01*
X666369Y737362D01*
X709295D01*
X713232Y733425D01*
Y717550D02*
Y733425D01*
Y717550D02*
X717042Y713740D01*
X740410D01*
X753110Y726440D01*
X93174Y271526D02*
X102700Y262000D01*
X60452Y271526D02*
X93174D01*
X78486Y371094D02*
Y393700D01*
X81661Y396875D01*
X109855D01*
X272542Y559562D01*
X482600D01*
X488188Y565150D01*
Y584962D01*
X498856Y595630D01*
X570484D01*
X676910Y702056D01*
Y726440D01*
X496690Y346964D02*
Y358140D01*
X248285Y395732D02*
X305308D01*
X312166Y402590D01*
X322890D01*
X229843Y342392D02*
X255016Y367565D01*
Y389636D01*
X266390Y389890D01*
X243332Y440690D02*
X266390D01*
X190745Y366767D02*
X231775D01*
X162306Y338328D02*
X190745Y366767D01*
X162306Y322072D02*
Y338328D01*
X228854Y375158D02*
Y437769D01*
X244475Y453390D01*
X266390D01*
X386588Y377698D02*
X430422D01*
X450850Y430530D02*
X461130D01*
X122700Y322000D02*
Y331724D01*
X153162Y331978D01*
X157734Y336550D01*
Y395732D01*
X413258Y454660D02*
X461130D01*
X122700Y342000D02*
Y369186D01*
X461010Y478790D02*
Y495554D01*
X102700Y142000D02*
X108712D01*
X392938Y370840D02*
X394462Y372364D01*
X432912D01*
X458058Y397510D01*
X461130Y406400D01*
X355473Y358140D02*
X461130D01*
X351663Y361950D02*
X355473Y358140D01*
X351663Y361950D02*
Y389255D01*
X332232Y408686D02*
X351663Y389255D01*
X241300Y536890D02*
Y537464D01*
X118938Y414528D02*
X241300Y536890D01*
X44450Y414528D02*
X118938D01*
X53848Y253238D02*
X92710D01*
X72600Y292100D02*
X82700Y282000D01*
X52578Y292100D02*
X72600D01*
X122700Y242000D02*
X133938Y253238D01*
X113030Y262000D02*
X122700D01*
X112776Y267208D02*
X113030Y262000D01*
X106739Y273245D02*
X112776Y267208D01*
X98425Y273245D02*
X106739D01*
X93726Y277944D02*
X98425Y273245D01*
X93726Y277944D02*
Y308483D01*
X98425Y313182D01*
X374904D01*
X390942Y297144D01*
X408976D01*
X422910Y283210D01*
X387350D02*
X397510D01*
X387096Y288763D02*
X387350Y283210D01*
X381727Y294132D02*
X387096Y288763D01*
X260350Y294132D02*
X381727D01*
X255975Y289757D02*
X260350Y294132D01*
X255975Y276225D02*
Y289757D01*
X252095Y272345D02*
X255975Y276225D01*
X205937Y272345D02*
X252095D01*
X186944Y291338D02*
X205937Y272345D01*
X132038Y291338D02*
X186944D01*
X122700Y282000D02*
X132038Y291338D01*
X117475Y270764D02*
X192532D01*
X113944Y274295D02*
X117475Y270764D01*
X113944Y274295D02*
Y293244D01*
X122700Y302000D01*
X142700D02*
X226320D01*
X245110Y283210D01*
X73692Y191008D02*
X82700Y182000D01*
X11430Y191008D02*
X73692D01*
X41402Y580644D02*
X229870D01*
X234188Y584962D01*
X284988D01*
X295910Y574040D01*
X564445Y715575D02*
X575310Y726440D01*
X492125Y715575D02*
X564445D01*
X488245Y719455D02*
X492125Y715575D01*
X488245Y719455D02*
Y729812D01*
X140208Y591058D02*
X227838D01*
X109220Y622046D02*
X140208Y591058D01*
X7366Y409702D02*
X135128Y537464D01*
X7366Y242316D02*
Y409702D01*
Y242316D02*
X37592Y212090D01*
X72790D01*
X82700Y222000D01*
X422910Y232410D02*
X473710Y283210D01*
X498214Y372872D02*
X526415D01*
X497960Y373126D02*
X498214Y372872D01*
X497960Y373126D02*
Y382270D01*
X322890Y440690D02*
X365760D01*
X270880Y470580D02*
Y486410D01*
X266390Y466090D02*
X270880Y470580D01*
X611632Y533146D02*
X623316Y521462D01*
Y484721D02*
Y521462D01*
X619125Y480530D02*
X623316Y484721D01*
X102700Y122000D02*
X114464Y110236D01*
X498856D01*
X503936Y105156D01*
X461130Y382270D02*
Y391668D01*
X73914Y153214D02*
X82700Y162000D01*
X73914Y111647D02*
Y153214D01*
Y111647D02*
X81421Y104140D01*
X481247D01*
X489756Y95631D01*
X753491D01*
X765810Y107950D01*
Y138176D01*
X621439Y400530D02*
X625094Y396875D01*
X599530Y400530D02*
X621439D01*
X103886Y97790D02*
X426595D01*
X434848Y141732D02*
X640588D01*
X410464Y166116D02*
X434848Y141732D01*
X410838Y440570D02*
X425450Y425958D01*
X430784Y391160D02*
X440182Y400558D01*
X394970Y391160D02*
X430784D01*
X487426Y430530D02*
X497960D01*
X476130D02*
X487426D01*
X160528Y206502D02*
X333248D01*
X343662Y196088D01*
X687832D01*
X753110Y130810D01*
X266192Y377190D02*
X266390D01*
X235812Y335661D02*
X266192Y366041D01*
X179324Y335661D02*
X235812D01*
X275844Y433832D02*
X280162Y438150D01*
X255778Y433832D02*
X275844D01*
X255524Y433578D02*
X255778Y433832D01*
X255524Y422148D02*
Y433578D01*
Y422148D02*
X255778Y421894D01*
X292100D01*
X298196Y427990D01*
X322890D01*
X310388Y389890D02*
X322890D01*
X246888Y326390D02*
X310388Y389890D01*
X228854Y326390D02*
X246888D01*
X501650Y394462D02*
X564388D01*
X497960Y398152D02*
X501650Y394462D01*
X497960Y398152D02*
Y406400D01*
X82700Y202000D02*
X91694Y193006D01*
Y177800D02*
Y193006D01*
X85852Y171958D02*
X91694Y177800D01*
X57150Y171958D02*
X85852D01*
X53848Y168656D02*
X57150Y171958D01*
X53848Y96535D02*
Y168656D01*
Y96535D02*
X82057Y68326D01*
X535432D01*
X640588Y563118D02*
X651510Y574040D01*
X590550Y563118D02*
X640588D01*
X586232Y567436D02*
X590550Y563118D01*
X586232Y567436D02*
Y584327D01*
X578485Y592074D02*
X586232Y584327D01*
X516890Y592074D02*
X578485D01*
X510032Y585216D02*
X516890Y592074D01*
X510032Y561213D02*
Y585216D01*
X504825Y556006D02*
X510032Y561213D01*
X281686Y556006D02*
X504825D01*
X73914Y348234D02*
X281686Y556006D01*
X73914Y310786D02*
Y348234D01*
Y310786D02*
X82700Y302000D01*
X168035Y191008D02*
X168815Y190228D01*
X312692D01*
X372110Y130810D01*
X256089Y268789D02*
X270510Y283210D01*
X201679Y268789D02*
X256089D01*
X188468Y282000D02*
X201679Y268789D01*
X142700Y282000D02*
X188468D01*
X472701Y419354D02*
X476130Y415925D01*
Y406400D02*
Y415925D01*
X611689Y116389D02*
X626110Y130810D01*
X82700Y122000D02*
X91510Y130810D01*
X651510Y624840D02*
X702310D01*
X600710Y574040D02*
X651510Y624840D01*
X549910Y466245D02*
Y574040D01*
Y466245D02*
X555625Y460530D01*
X599530D01*
X245110Y726440D02*
X285750Y767080D01*
X389890D01*
X394970Y406160D02*
X396776D01*
X394970Y425570D02*
X396776D01*
X476130Y382270D02*
X497960D01*
X476130Y406400D02*
X497960D01*
X476130Y454660D02*
X497960D01*
X476010Y478790D02*
X497840D01*
X476130Y358140D02*
X496690D01*
D35*
X829310Y283210D02*
D03*
X803910Y130810D02*
D03*
X473710D02*
D03*
X803910Y156210D02*
D03*
Y283210D02*
D03*
X829310Y130810D02*
D03*
X778510D02*
D03*
X765810Y252710D02*
D03*
X740410D02*
D03*
X715010D02*
D03*
X689610D02*
D03*
X664210D02*
D03*
X372110Y156210D02*
D03*
Y181610D02*
D03*
Y207010D02*
D03*
Y232410D02*
D03*
Y257810D02*
D03*
X473710Y283210D02*
D03*
X448310Y130810D02*
D03*
X422910D02*
D03*
X397510D02*
D03*
X372110D02*
D03*
X346710D02*
D03*
X321310D02*
D03*
X295910D02*
D03*
X270510D02*
D03*
X245110D02*
D03*
Y283210D02*
D03*
X270510D02*
D03*
X295910D02*
D03*
X321310D02*
D03*
X346710D02*
D03*
X372110D02*
D03*
X397510D02*
D03*
X422910D02*
D03*
X448310D02*
D03*
X753110Y130810D02*
D03*
X727710D02*
D03*
X702310D02*
D03*
X676910D02*
D03*
X651510D02*
D03*
X626110D02*
D03*
X600710D02*
D03*
X575310D02*
D03*
X549910D02*
D03*
X524510D02*
D03*
X499110D02*
D03*
Y283210D02*
D03*
X524510D02*
D03*
X549910D02*
D03*
X575310D02*
D03*
X600710D02*
D03*
X626110D02*
D03*
X651510D02*
D03*
X676910D02*
D03*
X702310D02*
D03*
X727710D02*
D03*
X753110D02*
D03*
X778510D02*
D03*
X295910Y574040D02*
D03*
X321310D02*
D03*
X346710D02*
D03*
X372110D02*
D03*
X397510D02*
D03*
X422910D02*
D03*
X448310D02*
D03*
X473710D02*
D03*
X499110D02*
D03*
X524510D02*
D03*
X549910D02*
D03*
X575310D02*
D03*
Y726440D02*
D03*
X549910D02*
D03*
X524510D02*
D03*
X499110D02*
D03*
X473710D02*
D03*
X448310D02*
D03*
X422910D02*
D03*
X397510D02*
D03*
X372110D02*
D03*
X346710D02*
D03*
X321310D02*
D03*
X626110Y574040D02*
D03*
X651510D02*
D03*
X676910D02*
D03*
X702310D02*
D03*
X727710D02*
D03*
X753110D02*
D03*
X778510D02*
D03*
X803910D02*
D03*
X829310D02*
D03*
Y726440D02*
D03*
X803910D02*
D03*
X778510D02*
D03*
X753110D02*
D03*
X727710D02*
D03*
X702310D02*
D03*
X676910D02*
D03*
X651510D02*
D03*
X626110D02*
D03*
X600710Y574040D02*
D03*
X702310Y599440D02*
D03*
Y624840D02*
D03*
Y650240D02*
D03*
Y675640D02*
D03*
Y701040D02*
D03*
X410210Y604540D02*
D03*
X384810D02*
D03*
X359410D02*
D03*
X334010D02*
D03*
X308610D02*
D03*
X295910Y726440D02*
D03*
X245110D02*
D03*
X270510Y574040D02*
D03*
Y701040D02*
D03*
X600710Y726440D02*
D03*
X270510D02*
D03*
X245110Y574040D02*
D03*
D36*
X142700Y122000D02*
D03*
D37*
Y142000D02*
D03*
Y162000D02*
D03*
Y182000D02*
D03*
Y202000D02*
D03*
Y222000D02*
D03*
Y242000D02*
D03*
Y262000D02*
D03*
Y282000D02*
D03*
Y302000D02*
D03*
Y322000D02*
D03*
Y342000D02*
D03*
X122700Y122000D02*
D03*
Y142000D02*
D03*
Y162000D02*
D03*
Y182000D02*
D03*
Y202000D02*
D03*
Y222000D02*
D03*
Y242000D02*
D03*
Y262000D02*
D03*
Y282000D02*
D03*
Y302000D02*
D03*
Y322000D02*
D03*
Y342000D02*
D03*
X102700Y122000D02*
D03*
Y142000D02*
D03*
Y162000D02*
D03*
Y182000D02*
D03*
Y202000D02*
D03*
Y222000D02*
D03*
Y242000D02*
D03*
Y262000D02*
D03*
Y282000D02*
D03*
Y302000D02*
D03*
Y322000D02*
D03*
Y342000D02*
D03*
X82700Y122000D02*
D03*
Y142000D02*
D03*
Y162000D02*
D03*
Y182000D02*
D03*
Y202000D02*
D03*
Y222000D02*
D03*
Y242000D02*
D03*
Y262000D02*
D03*
Y282000D02*
D03*
Y302000D02*
D03*
Y322000D02*
D03*
Y342000D02*
D03*
X62700Y122000D02*
D03*
Y142000D02*
D03*
Y162000D02*
D03*
Y182000D02*
D03*
Y202000D02*
D03*
Y222000D02*
D03*
Y242000D02*
D03*
Y262000D02*
D03*
Y282000D02*
D03*
Y302000D02*
D03*
Y322000D02*
D03*
Y342000D02*
D03*
D38*
X11430Y551180D02*
D03*
X283433Y468809D02*
D03*
X320503Y706628D02*
D03*
X449580Y419100D02*
D03*
X486410Y393700D02*
D03*
X537210Y378587D02*
D03*
Y504952D02*
D03*
X540766Y472948D02*
D03*
X484930Y744220D02*
D03*
X612140Y328930D02*
D03*
X631190Y314960D02*
D03*
X542036Y435610D02*
D03*
X456381Y590550D02*
D03*
X365760Y509016D02*
D03*
X241300Y414020D02*
D03*
X136607Y568960D02*
D03*
X353060Y454660D02*
D03*
X331470Y238760D02*
D03*
X330200Y223520D02*
D03*
X304800Y173990D02*
D03*
X162560Y127000D02*
D03*
X374918Y406160D02*
D03*
X551688Y355530D02*
D03*
X563118Y85090D02*
D03*
X179578Y405130D02*
D03*
X67564Y102108D02*
D03*
X301244Y226060D02*
D03*
X665480Y380746D02*
D03*
X655193Y379222D02*
D03*
X147320Y602742D02*
D03*
X524510Y252222D02*
D03*
X547370Y601980D02*
D03*
X765810Y368503D02*
D03*
X447294Y376428D02*
D03*
X418592Y440570D02*
D03*
X665734Y423164D02*
D03*
X425196Y481838D02*
D03*
X412496Y686054D02*
D03*
X535686Y630174D02*
D03*
X443738Y154051D02*
D03*
X627888Y189738D02*
D03*
X175260Y196596D02*
D03*
X403860Y312420D02*
D03*
X102616Y599694D02*
D03*
X248285Y395732D02*
D03*
X229843Y342392D02*
D03*
X162306Y322072D02*
D03*
X228854Y375158D02*
D03*
X386588Y377698D02*
D03*
X279146Y150876D02*
D03*
X392938Y370840D02*
D03*
X241300Y537464D02*
D03*
X92710Y253238D02*
D03*
X52578Y292100D02*
D03*
X11430Y191008D02*
D03*
X109220Y622046D02*
D03*
X135128Y537464D02*
D03*
X365760Y440690D02*
D03*
X611632Y533146D02*
D03*
X503936Y105156D02*
D03*
X103886Y97790D02*
D03*
X426595D02*
D03*
X410464Y166116D02*
D03*
X425450Y425958D02*
D03*
X440182Y400558D02*
D03*
X487426Y430530D02*
D03*
X160528Y206502D02*
D03*
X179324Y335661D02*
D03*
X228854Y326390D02*
D03*
X564388Y394462D02*
D03*
X535432Y68326D02*
D03*
D39*
X424114Y696302D02*
D03*
X711824Y221488D02*
D03*
X604520Y755650D02*
D03*
X788670Y219710D02*
D03*
X523240Y358140D02*
D03*
Y382270D02*
D03*
X525652Y406400D02*
D03*
X523240Y430530D02*
D03*
X522242Y452661D02*
D03*
X523240Y478790D02*
D03*
X473723Y204729D02*
D03*
X335280Y377190D02*
D03*
X299720Y415290D02*
D03*
X250190D02*
D03*
Y478790D02*
D03*
X106680Y546100D02*
D03*
X139700Y520700D02*
D03*
X143510Y488950D02*
D03*
X20320Y405130D02*
D03*
X35560Y317500D02*
D03*
X83820Y469900D02*
D03*
D40*
X22700Y172000D02*
D03*
Y292000D02*
D03*
D41*
X322890Y466090D02*
D03*
Y453390D02*
D03*
Y440690D02*
D03*
Y427990D02*
D03*
Y415290D02*
D03*
Y402590D02*
D03*
Y389890D02*
D03*
Y377190D02*
D03*
X266390Y466090D02*
D03*
Y453390D02*
D03*
Y440690D02*
D03*
Y427990D02*
D03*
Y415290D02*
D03*
Y402590D02*
D03*
Y389890D02*
D03*
Y377190D02*
D03*
D42*
X476010Y478790D02*
D03*
X461010D02*
D03*
X497840D02*
D03*
X512840D02*
D03*
X497960Y454660D02*
D03*
X512960D02*
D03*
X461130D02*
D03*
X476130D02*
D03*
X497960Y430530D02*
D03*
X512960D02*
D03*
X461130D02*
D03*
X476130D02*
D03*
X497960Y406400D02*
D03*
X512960D02*
D03*
X461130D02*
D03*
X476130D02*
D03*
X497960Y382270D02*
D03*
X512960D02*
D03*
X461130D02*
D03*
X476130D02*
D03*
X496690Y358140D02*
D03*
X511690D02*
D03*
X461130D02*
D03*
X476130D02*
D03*
D43*
X285380Y486410D02*
D03*
X270880D02*
D03*
D44*
X599530Y480530D02*
D03*
Y460530D02*
D03*
Y440530D02*
D03*
Y420530D02*
D03*
Y400530D02*
D03*
Y380530D02*
D03*
D45*
X754530Y505530D02*
D03*
X734530D02*
D03*
X714530D02*
D03*
X694530D02*
D03*
X674530D02*
D03*
X654530D02*
D03*
X634530D02*
D03*
X614530D02*
D03*
Y355530D02*
D03*
X634530D02*
D03*
X654530D02*
D03*
X674530D02*
D03*
X694530D02*
D03*
X714530D02*
D03*
X734530D02*
D03*
X754530D02*
D03*
D46*
X394970Y406160D02*
D03*
Y391160D02*
D03*
Y425570D02*
D03*
Y440570D02*
D03*
M02*
