M48
;Layer_Color=9474304
;FILE_FORMAT=4:4
METRIC,LZ
;TYPE=PLATED
T1F00S00C0.1500
T2F00S00C0.2000
T3F00S00C0.7250
T4F00S00C1.3000
;TYPE=NON_PLATED
T5F00S00C3.3000
T6F00S00C3.3020
%
T01
X00940013Y00324317
X0097028Y004191
Y0052705
X00870585Y00410845
X0091948Y0077724
X0060833Y0076962
T02
X00052832Y00089916
X00052913Y0013462
X00045462Y0014453
X00045466Y00202692
X00059436Y0023241
X00184912Y00209042
X00222493Y00183388
X00205221Y00166116
X00197612Y00156464
X00177546Y00099568
X00148336Y00105156
X00136398Y00103886
X00119634Y0010287
X00106426Y00099314
X00393192Y00105156
Y0012319
X00392176Y0013589
X00315976Y001905
X00338074Y00303784
X00360902Y00306185
X0034671Y00341376
X00391414Y0027813
X00131826Y00389636
X00458978Y00365506
X00470916Y00367548
X00485902Y00358394
X00498094Y00379984
X00522478Y00389128
X0060452Y00389636
X0060325Y00303784
X00604266Y00283464
X00591312
X00578358
X00578612Y00303784
X00577596Y00316484
X00562864Y00303784
X00557276Y00283464
X00584708Y00243586
X0063119
X00631952Y00226314
X0062738Y00203454
X005715
Y00185166
X00645668Y0024892
X0064135Y00282702
X00654812Y00282956
Y00310896
X00626364Y0031369
Y00281686
X00684784Y00303784
X00699262
X00712724
X00724342Y00310134
X0073914Y00311658
X00756412Y00322326
X00770636Y00316484
X00769874Y00303784
X00764032Y00282702
X00751332Y0028321
X00732282Y00279654
X00740753Y00269435
X00765241Y00261874
X00770382Y00243586
X00758441Y00226314
X00740664
X00725424
X00708152Y00249928
X0069088Y00253238
X00708152Y00282702
X00763016Y00203962
X00789178Y00206502
Y0022479
X0079121Y00136144
X00792632Y00123737
X00762762Y00130302
X00749554Y0013589
X00736092Y0012319
X00749554Y00098806
X00776986Y00098298
X00520192Y0005461
X00464312Y00105918
X00428752Y0012319
X00413652Y00126893
X00405557Y00136571
X0043307Y00225044
X00425196Y00253238
X00441198Y00264414
X00424659Y00286512
X0040513Y00280162
X0044069Y00335788
X00797052Y00307086
X00800486Y00285872
X00800716Y00253238
X00812546Y00246888
X0081661Y00264414
X0081153Y0021336
X0082169Y0019685
X00818388Y0016129
X00817562Y00098806
X0083693Y00105928
X00839978Y00091694
X0096774Y00098806
X01019302Y00098044
X01010666Y0012319
X01069848
Y0009525
X01136396Y00098298
X0114935Y0009779
X01166846Y0009652
X01184529Y00097917
X01178052Y0012319
X01164336
X0114935Y00125222
X01147064Y0015875
X01128268Y00160528
X01114552Y00161798
X01151128Y00183388
X01149858Y00202438
X01177598Y00207511
X01167638Y00244348
X01168273Y00275463
X01176528Y00324866
X01144016Y00316484
X01009396Y0028575
X00936897Y00276606
X00937006Y00197866
X0107188Y00216408
X0118086Y00156732
X01183386Y00064516
X00951738Y00375158
X00900176Y00361442
X00886206Y0036068
X00871728Y00364744
X00857758Y00373634
X00843788Y00377444
X00820674Y00372872
X00819404Y00360934
X00807212Y00372872
X01193038Y00319786
X01194054Y00261671
X0119761Y0022606
X01193292Y0018466
X0119761Y0013716
X01194816Y00105918
X0121031
X01249574Y00098585
X01298448Y0008128
X01332484Y00103886
X01288034Y00194564
Y00255016
X01266446Y00364488
X01239266Y00364744
X0125095Y0037973
X01251966Y00438912
X01259078Y00457708
X01299464Y0045974
X01272286Y00498348
X0112014Y00422148
X0093091Y00399034
X0080518Y00431038
X00867918Y00499872
X00862411Y00534497
X00869442Y00552196
X01129538Y00719582
X0077724Y00719328
X00743458Y00728472
X0074803Y00747776
X00654812Y0064262
X00638048Y00657098
X00619506Y00649478
X0064135Y00624586
X00658858Y00564388
X00628904Y00493014
X0062357Y00481584
X005825
X00574248Y00453136
X00562864Y00429514
X0057023Y00410718
X00614172
X00484581Y0039941
X00445262Y004191
X00433487Y00486918
X0043815Y00499872
X00486156Y00489458
X0051435Y00498602
X00521562Y00479931
X00522732Y0056896
X00411226Y00682752
X00404622Y00786384
X00765556Y00521208
X00782574Y00520192
X00372872Y00512318
X00389636Y0064008
X00143256
X00141986Y0067691
X00132952Y0068972
X00111906Y0072303
X00087122Y00698246
X0006362Y00668394
X00094366Y00648564
X00104648Y00589026
X00098298Y00554736
X00081382Y0056261
X00060198Y00559308
X00043688Y00552196
X00068326Y00519684
X00075438Y0049403
X0008636Y00486918
X0007493Y00397764
T03
X0007494Y0012446
X0009494
X0011494
X0013494
X0015494
Y0014453
X0013494
X0011494
X0009494
X0007494
Y0016459
X0009494
X0011494
X0013494
X0015494
Y0018466
X0013494
X0011494
X0009494
X0007494
Y0020472
X0009494
X0011494
X0013494
X0015494
Y0022479
X0013494
X0011494
X0009494
X0007494
Y0024486
X0009494
X0011494
X0013494
X0015494
Y0026492
X0013494
X0011494
X0009494
X0007494
Y0028499
X0009494
X0011494
X0013494
X0015494
Y0030505
X0013494
X0011494
X0009494
X0007494
Y0032512
X0009494
X0011494
X0013494
X0015494
Y0034519
X0013494
X0011494
X0009494
X0007494
X0045594
X0047594
X0049594
X0051594
X0053594
Y0032512
X0051594
X0049594
X0047594
X0045594
Y0030505
X0047594
X0049594
X0051594
X0053594
Y0028499
X0051594
X0049594
X0047594
X0045594
Y0026492
X0047594
X0049594
X0051594
X0053594
Y0024486
X0051594
X0049594
X0047594
X0045594
Y0022479
X0047594
X0049594
X0051594
X0053594
Y0020472
X0051594
X0049594
X0047594
X0045594
Y0018466
X0047594
X0049594
X0051594
X0053594
Y0016459
X0051594
X0049594
X0047594
X0045594
Y0014453
X0047594
X0049594
X0051594
X0053594
Y0012446
X0051594
X0049594
X0047594
X0045594
X0083694
X0085694
X0087694
X0089694
X0091694
Y0014453
X0089694
X0087694
X0085694
X0083694
Y0016459
X0085694
X0087694
X0089694
X0091694
Y0018466
X0089694
X0087694
X0085694
X0083694
Y0020472
X0085694
X0087694
X0089694
X0091694
Y0022479
X0089694
X0087694
X0085694
X0083694
Y0024486
X0085694
X0087694
X0089694
X0091694
Y0026492
X0089694
X0087694
X0085694
X0083694
Y0028499
X0085694
X0087694
X0089694
X0091694
Y0030505
X0089694
X0087694
X0085694
X0083694
Y0032512
X0085694
X0087694
X0089694
X0091694
Y0034519
X0089694
X0087694
X0085694
X0083694
X0121794
X0123794
X0125794
X0127794
X0129794
Y0032512
X0127794
X0125794
X0123794
X0121794
Y0030505
X0123794
X0125794
X0127794
X0129794
Y0028499
X0127794
X0125794
X0123794
X0121794
Y0026492
X0123794
X0125794
X0127794
X0129794
Y0024486
X0127794
X0125794
X0123794
X0121794
Y0022479
X0123794
X0125794
X0127794
X0129794
Y0020472
X0127794
X0125794
X0123794
X0121794
Y0018466
X0123794
X0125794
X0127794
X0129794
Y0016459
X0127794
X0125794
X0123794
X0121794
Y0014453
X0123794
X0125794
X0127794
X0129794
Y0012446
X0127794
X0125794
X0123794
X0121794
T04
X008025Y0066803
X008325
X008625
X008925
X009225
X009525
X009825
X009675Y0069303
Y0072303
X009375
Y0069303
X009075
X008775
X008475
X008175
Y0072303
X008475
X008775
X009075
X008925Y0074803
X008625
X008325
X008025
X009225
X009525
X009825
X006575
X006275
X005975
X005675
X005375
X005075
X004775
X004475
X004175
X004325Y0072303
Y0069303
X004625
X004925
X005225
X005525
Y0072303
X005225
X004925
X004625
X004475Y0066803
X004775
X005075
X005375
X005675
X005975
X006275
X006575
X006425Y0069303
X006125
X005825
Y0072303
X006125
X006425
X004175Y0066803
T05
X00345Y0081303
X0073
X01055
T06
X000508Y000508
X013462
X000508Y0079756
X013462
M30
