G04*
G04 #@! TF.GenerationSoftware,Altium Limited,Altium Designer,22.10.1 (41)*
G04*
G04 Layer_Color=16711935*
%FSLAX25Y25*%
%MOIN*%
G70*
G04*
G04 #@! TF.SameCoordinates,66C44DD6-0DF7-4D2E-9D42-8CDDC65AF405*
G04*
G04*
G04 #@! TF.FilePolarity,Positive*
G04*
G01*
G75*
%ADD10C,0.00787*%
%ADD12C,0.00500*%
%ADD32C,0.01575*%
D10*
X511394Y42740D02*
G03*
X511394Y42740I-394J0D01*
G01*
X61394D02*
G03*
X61394Y42740I-394J0D01*
G01*
X211394D02*
G03*
X211394Y42740I-394J0D01*
G01*
X361394D02*
G03*
X361394Y42740I-394J0D01*
G01*
D12*
X464937Y45299D02*
Y139602D01*
Y45299D02*
Y139602D01*
Y45299D02*
X535016D01*
Y139602D01*
X464937D02*
X535016D01*
X122047Y306311D02*
Y333870D01*
Y306311D02*
X147638D01*
X403543D01*
X429134D01*
Y333870D01*
X415354D02*
X429134D01*
X135827D02*
X415354D01*
X122047D02*
X135827D01*
Y396862D01*
X415354D01*
Y333870D02*
Y396862D01*
X403543Y253161D02*
Y306311D01*
X147638Y253161D02*
X403543D01*
X147638D02*
Y306311D01*
X14937Y139602D02*
X85016D01*
Y45299D02*
Y139602D01*
X14937Y45299D02*
X85016D01*
X14937D02*
Y139602D01*
Y45299D02*
Y139602D01*
X164937Y45299D02*
Y139602D01*
Y45299D02*
Y139602D01*
Y45299D02*
X235016D01*
Y139602D01*
X164937D02*
X235016D01*
X314937D02*
X385016D01*
Y45299D02*
Y139602D01*
X314937Y45299D02*
X385016D01*
X314937D02*
Y139602D01*
Y45299D02*
Y139602D01*
D32*
X143177Y262216D02*
G03*
X143177Y262216I-787J0D01*
G01*
M02*
