%FSTAX23Y23*%
%MOIN*%
%SFA1B1*%

%IPPOS*%
%ADD11C,0.005000*%
%LNbackplane_drillmap_1-1*%
%LPD*%
G54D11*
X03842Y0245D02*
X03893D01*
X03868Y02424D02*
Y02475D01*
X03724Y0245D02*
X03775D01*
X0375Y02424D02*
Y02475D01*
X03606Y0245D02*
X03657D01*
X03631Y02424D02*
Y02475D01*
X03488Y0245D02*
X03539D01*
X03513Y02424D02*
Y02475D01*
X0337Y0245D02*
X03421D01*
X03395Y02424D02*
Y02475D01*
X03251Y0245D02*
X03303D01*
X03277Y02424D02*
Y02475D01*
X03133Y0245D02*
X03185D01*
X03159Y02424D02*
Y02475D01*
X03783Y02351D02*
X03834D01*
X03809Y02325D02*
Y02377D01*
X03665Y02351D02*
X03716D01*
X0369Y02325D02*
Y02377D01*
X03547Y02351D02*
X03598D01*
X03572Y02325D02*
Y02377D01*
X03429Y02351D02*
X0348D01*
X03454Y02325D02*
Y02377D01*
X03311Y02351D02*
X03362D01*
X03336Y02325D02*
Y02377D01*
X03192Y02351D02*
X03244D01*
X03218Y02325D02*
Y02377D01*
X03783Y02233D02*
X03834D01*
X03809Y02207D02*
Y02259D01*
X03665Y02233D02*
X03716D01*
X0369Y02207D02*
Y02259D01*
X03547Y02233D02*
X03598D01*
X03572Y02207D02*
Y02259D01*
X03429Y02233D02*
X0348D01*
X03454Y02207D02*
Y02259D01*
X03311Y02233D02*
X03362D01*
X03336Y02207D02*
Y02259D01*
X03192Y02233D02*
X03244D01*
X03218Y02207D02*
Y02259D01*
X03842Y02135D02*
X03893D01*
X03868Y02109D02*
Y0216D01*
X03724Y02135D02*
X03775D01*
X0375Y02109D02*
Y0216D01*
X03606Y02135D02*
X03657D01*
X03631Y02109D02*
Y0216D01*
X03488Y02135D02*
X03539D01*
X03513Y02109D02*
Y0216D01*
X0337Y02135D02*
X03421D01*
X03395Y02109D02*
Y0216D01*
X03251Y02135D02*
X03303D01*
X03277Y02109D02*
Y0216D01*
X03133Y02135D02*
X03185D01*
X03159Y02109D02*
Y0216D01*
X02562Y0245D02*
X02614D01*
X02588Y02424D02*
Y02475D01*
X02444Y0245D02*
X02496D01*
X0247Y02424D02*
Y02475D01*
X02326Y0245D02*
X02377D01*
X02352Y02424D02*
Y02475D01*
X02208Y0245D02*
X02259D01*
X02234Y02424D02*
Y02475D01*
X0209Y0245D02*
X02141D01*
X02116Y02424D02*
Y02475D01*
X01972Y0245D02*
X02023D01*
X01998Y02424D02*
Y02475D01*
X01854Y0245D02*
X01905D01*
X01879Y02424D02*
Y02475D01*
X01736Y0245D02*
X01787D01*
X01761Y02424D02*
Y02475D01*
X01618Y0245D02*
X01669D01*
X01643Y02424D02*
Y02475D01*
X02503Y02351D02*
X02555D01*
X02529Y02325D02*
Y02377D01*
X02385Y02351D02*
X02437D01*
X02411Y02325D02*
Y02377D01*
X02267Y02351D02*
X02318D01*
X02293Y02325D02*
Y02377D01*
X02149Y02351D02*
X022D01*
X02175Y02325D02*
Y02377D01*
X02031Y02351D02*
X02082D01*
X02057Y02325D02*
Y02377D01*
X01913Y02351D02*
X01964D01*
X01938Y02325D02*
Y02377D01*
X01795Y02351D02*
X01846D01*
X0182Y02325D02*
Y02377D01*
X01677Y02351D02*
X01728D01*
X01702Y02325D02*
Y02377D01*
X02503Y02233D02*
X02555D01*
X02529Y02207D02*
Y02259D01*
X02385Y02233D02*
X02437D01*
X02411Y02207D02*
Y02259D01*
X02267Y02233D02*
X02318D01*
X02293Y02207D02*
Y02259D01*
X02149Y02233D02*
X022D01*
X02175Y02207D02*
Y02259D01*
X02031Y02233D02*
X02082D01*
X02057Y02207D02*
Y02259D01*
X01913Y02233D02*
X01964D01*
X01938Y02207D02*
Y02259D01*
X01795Y02233D02*
X01846D01*
X0182Y02207D02*
Y02259D01*
X01677Y02233D02*
X01728D01*
X01702Y02207D02*
Y02259D01*
X02562Y02135D02*
X02614D01*
X02588Y02109D02*
Y0216D01*
X02444Y02135D02*
X02496D01*
X0247Y02109D02*
Y0216D01*
X02326Y02135D02*
X02377D01*
X02352Y02109D02*
Y0216D01*
X02208Y02135D02*
X02259D01*
X02234Y02109D02*
Y0216D01*
X0209Y02135D02*
X02141D01*
X02116Y02109D02*
Y0216D01*
X01972Y02135D02*
X02023D01*
X01998Y02109D02*
Y0216D01*
X01854Y02135D02*
X01905D01*
X01879Y02109D02*
Y0216D01*
X01736Y02135D02*
X01787D01*
X01761Y02109D02*
Y0216D01*
X01618Y02135D02*
X01669D01*
X01643Y02109D02*
Y0216D01*
X04088Y02705D02*
X04218D01*
X04153Y0264D02*
Y0277D01*
X01293Y02705D02*
X01423D01*
X01358Y0264D02*
Y0277D01*
X02809Y02705D02*
X02938D01*
X02874Y0264D02*
Y0277D01*
X00035Y029D02*
X00165D01*
X001Y02835D02*
Y02965D01*
X05335Y001D02*
X05465D01*
X054Y00035D02*
Y00165D01*
X05335Y029D02*
X05465D01*
X054Y02835D02*
Y02965D01*
X00035Y001D02*
X00165D01*
X001Y00035D02*
Y00165D01*
X00543Y00545D02*
X00571D01*
X00557Y00531D02*
Y0056D01*
X00543Y00625D02*
X00571D01*
X00557Y0061D02*
Y00639D01*
X00543Y00704D02*
X00571D01*
X00557Y00689D02*
Y00718D01*
X00543Y00782D02*
X00571D01*
X00557Y00768D02*
Y00797D01*
X00543Y00862D02*
X00571D01*
X00557Y00847D02*
Y00876D01*
X00543Y0094D02*
X00571D01*
X00557Y00926D02*
Y00955D01*
X00543Y0102D02*
X00571D01*
X00557Y01005D02*
Y01034D01*
X00543Y01099D02*
X00571D01*
X00557Y01084D02*
Y01113D01*
X00543Y01177D02*
X00571D01*
X00557Y01163D02*
Y01192D01*
X00543Y01257D02*
X00571D01*
X00557Y01242D02*
Y01271D01*
X00543Y01335D02*
X00571D01*
X00557Y01321D02*
Y0135D01*
X00464Y00545D02*
X00493D01*
X00478Y00531D02*
Y0056D01*
X00464Y00625D02*
X00493D01*
X00478Y0061D02*
Y00639D01*
X00464Y00704D02*
X00493D01*
X00478Y00689D02*
Y00718D01*
X00464Y00782D02*
X00493D01*
X00478Y00768D02*
Y00797D01*
X00464Y00862D02*
X00493D01*
X00478Y00847D02*
Y00876D01*
X00464Y0094D02*
X00493D01*
X00478Y00926D02*
Y00955D01*
X00464Y0102D02*
X00493D01*
X00478Y01005D02*
Y01034D01*
X00464Y01099D02*
X00493D01*
X00478Y01084D02*
Y01113D01*
X00464Y01177D02*
X00493D01*
X00478Y01163D02*
Y01192D01*
X00464Y01257D02*
X00493D01*
X00478Y01242D02*
Y01271D01*
X00464Y01335D02*
X00493D01*
X00478Y01321D02*
Y0135D01*
X00464Y01415D02*
X00493D01*
X00478Y014D02*
Y01429D01*
X00385Y00545D02*
X00414D01*
X004Y00531D02*
Y0056D01*
X00385Y00625D02*
X00414D01*
X004Y0061D02*
Y00639D01*
X00385Y00704D02*
X00414D01*
X004Y00689D02*
Y00718D01*
X00385Y00782D02*
X00414D01*
X004Y00768D02*
Y00797D01*
X00385Y00862D02*
X00414D01*
X004Y00847D02*
Y00876D01*
X00385Y0094D02*
X00414D01*
X004Y00926D02*
Y00955D01*
X00385Y0102D02*
X00414D01*
X004Y01005D02*
Y01034D01*
X00385Y01099D02*
X00414D01*
X004Y01084D02*
Y01113D01*
X00385Y01177D02*
X00414D01*
X004Y01163D02*
Y01192D01*
X00385Y01257D02*
X00414D01*
X004Y01242D02*
Y01271D01*
X00385Y01335D02*
X00414D01*
X004Y01321D02*
Y0135D01*
X00385Y01415D02*
X00414D01*
X004Y014D02*
Y01429D01*
X00543Y01415D02*
X00571D01*
X00557Y014D02*
Y01429D01*
X00621Y01415D02*
X0065D01*
X00636Y014D02*
Y01429D01*
X00621Y0094D02*
X0065D01*
X00636Y00926D02*
Y00955D01*
X00621Y00862D02*
X0065D01*
X00636Y00847D02*
Y00876D01*
X00621Y00782D02*
X0065D01*
X00636Y00768D02*
Y00797D01*
X00621Y00704D02*
X0065D01*
X00636Y00689D02*
Y00718D01*
X00621Y00625D02*
X0065D01*
X00636Y0061D02*
Y00639D01*
X00621Y00545D02*
X0065D01*
X00636Y00531D02*
Y0056D01*
X00621Y0102D02*
X0065D01*
X00636Y01005D02*
Y01034D01*
X00621Y01099D02*
X0065D01*
X00636Y01084D02*
Y01113D01*
X00621Y01177D02*
X0065D01*
X00636Y01163D02*
Y01192D01*
X00621Y01257D02*
X0065D01*
X00636Y01242D02*
Y01271D01*
X00621Y01335D02*
X0065D01*
X00636Y01321D02*
Y0135D01*
X007Y01415D02*
X00729D01*
X00714Y014D02*
Y01429D01*
X007Y0094D02*
X00729D01*
X00714Y00926D02*
Y00955D01*
X007Y00862D02*
X00729D01*
X00714Y00847D02*
Y00876D01*
X007Y00782D02*
X00729D01*
X00714Y00768D02*
Y00797D01*
X007Y00704D02*
X00729D01*
X00714Y00689D02*
Y00718D01*
X007Y00625D02*
X00729D01*
X00714Y0061D02*
Y00639D01*
X007Y00545D02*
X00729D01*
X00714Y00531D02*
Y0056D01*
X007Y0102D02*
X00729D01*
X00714Y01005D02*
Y01034D01*
X007Y01099D02*
X00729D01*
X00714Y01084D02*
Y01113D01*
X007Y01177D02*
X00729D01*
X00714Y01163D02*
Y01192D01*
X007Y01257D02*
X00729D01*
X00714Y01242D02*
Y01271D01*
X007Y01335D02*
X00729D01*
X00714Y01321D02*
Y0135D01*
X04885Y01415D02*
X04914D01*
X049Y014D02*
Y01429D01*
X04885Y01335D02*
X04914D01*
X049Y01321D02*
Y0135D01*
X04885Y01257D02*
X04914D01*
X049Y01242D02*
Y01271D01*
X04885Y01177D02*
X04914D01*
X049Y01163D02*
Y01192D01*
X04885Y01099D02*
X04914D01*
X049Y01084D02*
Y01113D01*
X04885Y0102D02*
X04914D01*
X049Y01005D02*
Y01034D01*
X04885Y0094D02*
X04914D01*
X049Y00926D02*
Y00955D01*
X04885Y00862D02*
X04914D01*
X049Y00847D02*
Y00876D01*
X04885Y00782D02*
X04914D01*
X049Y00768D02*
Y00797D01*
X04885Y00704D02*
X04914D01*
X049Y00689D02*
Y00718D01*
X04964Y01415D02*
X04993D01*
X04978Y014D02*
Y01429D01*
X04964Y01335D02*
X04993D01*
X04978Y01321D02*
Y0135D01*
X04964Y01257D02*
X04993D01*
X04978Y01242D02*
Y01271D01*
X04964Y01177D02*
X04993D01*
X04978Y01163D02*
Y01192D01*
X04964Y01099D02*
X04993D01*
X04978Y01084D02*
Y01113D01*
X04964Y0102D02*
X04993D01*
X04978Y01005D02*
Y01034D01*
X04964Y0094D02*
X04993D01*
X04978Y00926D02*
Y00955D01*
X04964Y00862D02*
X04993D01*
X04978Y00847D02*
Y00876D01*
X04964Y00782D02*
X04993D01*
X04978Y00768D02*
Y00797D01*
X04964Y00704D02*
X04993D01*
X04978Y00689D02*
Y00718D01*
X05043Y01415D02*
X05071D01*
X05057Y014D02*
Y01429D01*
X05043Y01335D02*
X05071D01*
X05057Y01321D02*
Y0135D01*
X05043Y01257D02*
X05071D01*
X05057Y01242D02*
Y01271D01*
X05043Y01177D02*
X05071D01*
X05057Y01163D02*
Y01192D01*
X05043Y01099D02*
X05071D01*
X05057Y01084D02*
Y01113D01*
X05043Y0102D02*
X05071D01*
X05057Y01005D02*
Y01034D01*
X05043Y0094D02*
X05071D01*
X05057Y00926D02*
Y00955D01*
X05043Y00862D02*
X05071D01*
X05057Y00847D02*
Y00876D01*
X05043Y00782D02*
X05071D01*
X05057Y00768D02*
Y00797D01*
X05043Y00704D02*
X05071D01*
X05057Y00689D02*
Y00718D01*
X05043Y00625D02*
X05071D01*
X05057Y0061D02*
Y00639D01*
X05121Y01415D02*
X0515D01*
X05136Y014D02*
Y01429D01*
X05121Y01335D02*
X0515D01*
X05136Y01321D02*
Y0135D01*
X05121Y01257D02*
X0515D01*
X05136Y01242D02*
Y01271D01*
X05121Y01177D02*
X0515D01*
X05136Y01163D02*
Y01192D01*
X05121Y01099D02*
X0515D01*
X05136Y01084D02*
Y01113D01*
X05121Y0102D02*
X0515D01*
X05136Y01005D02*
Y01034D01*
X05121Y00704D02*
X0515D01*
X05136Y00689D02*
Y00718D01*
X05121Y00625D02*
X0515D01*
X05136Y0061D02*
Y00639D01*
X05121Y00545D02*
X0515D01*
X05136Y00531D02*
Y0056D01*
X052Y01415D02*
X05229D01*
X05214Y014D02*
Y01429D01*
X052Y01335D02*
X05229D01*
X05214Y01321D02*
Y0135D01*
X052Y01257D02*
X05229D01*
X05214Y01242D02*
Y01271D01*
X052Y01177D02*
X05229D01*
X05214Y01163D02*
Y01192D01*
X052Y01099D02*
X05229D01*
X05214Y01084D02*
Y01113D01*
X052Y0102D02*
X05229D01*
X05214Y01005D02*
Y01034D01*
X052Y0094D02*
X05229D01*
X05214Y00926D02*
Y00955D01*
X052Y00862D02*
X05229D01*
X05214Y00847D02*
Y00876D01*
X052Y00545D02*
X05229D01*
X05214Y00531D02*
Y0056D01*
X052Y00625D02*
X05229D01*
X05214Y0061D02*
Y00639D01*
X052Y00704D02*
X05229D01*
X05214Y00689D02*
Y00718D01*
X052Y00782D02*
X05229D01*
X05214Y00768D02*
Y00797D01*
X05121Y00782D02*
X0515D01*
X05136Y00768D02*
Y00797D01*
X05121Y00862D02*
X0515D01*
X05136Y00847D02*
Y00876D01*
X05121Y0094D02*
X0515D01*
X05136Y00926D02*
Y00955D01*
X05043Y00545D02*
X05071D01*
X05057Y00531D02*
Y0056D01*
X04964Y00545D02*
X04993D01*
X04978Y00531D02*
Y0056D01*
X04964Y00625D02*
X04993D01*
X04978Y0061D02*
Y00639D01*
X04885Y00545D02*
X04914D01*
X049Y00531D02*
Y0056D01*
X04885Y00625D02*
X04914D01*
X049Y0061D02*
Y00639D01*
X01885Y00625D02*
X01914D01*
X019Y0061D02*
Y00639D01*
X01885Y00545D02*
X01914D01*
X019Y00531D02*
Y0056D01*
X01964Y00625D02*
X01993D01*
X01978Y0061D02*
Y00639D01*
X01964Y00545D02*
X01993D01*
X01978Y00531D02*
Y0056D01*
X02043Y00545D02*
X02071D01*
X02057Y00531D02*
Y0056D01*
X02121Y0094D02*
X0215D01*
X02136Y00926D02*
Y00955D01*
X02121Y00862D02*
X0215D01*
X02136Y00847D02*
Y00876D01*
X02121Y00782D02*
X0215D01*
X02136Y00768D02*
Y00797D01*
X022Y00782D02*
X02229D01*
X02214Y00768D02*
Y00797D01*
X022Y00704D02*
X02229D01*
X02214Y00689D02*
Y00718D01*
X022Y00625D02*
X02229D01*
X02214Y0061D02*
Y00639D01*
X022Y00545D02*
X02229D01*
X02214Y00531D02*
Y0056D01*
X022Y00862D02*
X02229D01*
X02214Y00847D02*
Y00876D01*
X022Y0094D02*
X02229D01*
X02214Y00926D02*
Y00955D01*
X022Y0102D02*
X02229D01*
X02214Y01005D02*
Y01034D01*
X022Y01099D02*
X02229D01*
X02214Y01084D02*
Y01113D01*
X022Y01177D02*
X02229D01*
X02214Y01163D02*
Y01192D01*
X022Y01257D02*
X02229D01*
X02214Y01242D02*
Y01271D01*
X022Y01335D02*
X02229D01*
X02214Y01321D02*
Y0135D01*
X022Y01415D02*
X02229D01*
X02214Y014D02*
Y01429D01*
X02121Y00545D02*
X0215D01*
X02136Y00531D02*
Y0056D01*
X02121Y00625D02*
X0215D01*
X02136Y0061D02*
Y00639D01*
X02121Y00704D02*
X0215D01*
X02136Y00689D02*
Y00718D01*
X02121Y0102D02*
X0215D01*
X02136Y01005D02*
Y01034D01*
X02121Y01099D02*
X0215D01*
X02136Y01084D02*
Y01113D01*
X02121Y01177D02*
X0215D01*
X02136Y01163D02*
Y01192D01*
X02121Y01257D02*
X0215D01*
X02136Y01242D02*
Y01271D01*
X02121Y01335D02*
X0215D01*
X02136Y01321D02*
Y0135D01*
X02121Y01415D02*
X0215D01*
X02136Y014D02*
Y01429D01*
X02043Y00625D02*
X02071D01*
X02057Y0061D02*
Y00639D01*
X02043Y00704D02*
X02071D01*
X02057Y00689D02*
Y00718D01*
X02043Y00782D02*
X02071D01*
X02057Y00768D02*
Y00797D01*
X02043Y00862D02*
X02071D01*
X02057Y00847D02*
Y00876D01*
X02043Y0094D02*
X02071D01*
X02057Y00926D02*
Y00955D01*
X02043Y0102D02*
X02071D01*
X02057Y01005D02*
Y01034D01*
X02043Y01099D02*
X02071D01*
X02057Y01084D02*
Y01113D01*
X02043Y01177D02*
X02071D01*
X02057Y01163D02*
Y01192D01*
X02043Y01257D02*
X02071D01*
X02057Y01242D02*
Y01271D01*
X02043Y01335D02*
X02071D01*
X02057Y01321D02*
Y0135D01*
X02043Y01415D02*
X02071D01*
X02057Y014D02*
Y01429D01*
X01964Y00704D02*
X01993D01*
X01978Y00689D02*
Y00718D01*
X01964Y00782D02*
X01993D01*
X01978Y00768D02*
Y00797D01*
X01964Y00862D02*
X01993D01*
X01978Y00847D02*
Y00876D01*
X01964Y0094D02*
X01993D01*
X01978Y00926D02*
Y00955D01*
X01964Y0102D02*
X01993D01*
X01978Y01005D02*
Y01034D01*
X01964Y01099D02*
X01993D01*
X01978Y01084D02*
Y01113D01*
X01964Y01177D02*
X01993D01*
X01978Y01163D02*
Y01192D01*
X01964Y01257D02*
X01993D01*
X01978Y01242D02*
Y01271D01*
X01964Y01335D02*
X01993D01*
X01978Y01321D02*
Y0135D01*
X01964Y01415D02*
X01993D01*
X01978Y014D02*
Y01429D01*
X01885Y00704D02*
X01914D01*
X019Y00689D02*
Y00718D01*
X01885Y00782D02*
X01914D01*
X019Y00768D02*
Y00797D01*
X01885Y00862D02*
X01914D01*
X019Y00847D02*
Y00876D01*
X01885Y0094D02*
X01914D01*
X019Y00926D02*
Y00955D01*
X01885Y0102D02*
X01914D01*
X019Y01005D02*
Y01034D01*
X01885Y01099D02*
X01914D01*
X019Y01084D02*
Y01113D01*
X01885Y01177D02*
X01914D01*
X019Y01163D02*
Y01192D01*
X01885Y01257D02*
X01914D01*
X019Y01242D02*
Y01271D01*
X01885Y01335D02*
X01914D01*
X019Y01321D02*
Y0135D01*
X01885Y01415D02*
X01914D01*
X019Y014D02*
Y01429D01*
X03385Y01415D02*
X03414D01*
X034Y014D02*
Y01429D01*
X03385Y01335D02*
X03414D01*
X034Y01321D02*
Y0135D01*
X03385Y01257D02*
X03414D01*
X034Y01242D02*
Y01271D01*
X03385Y01177D02*
X03414D01*
X034Y01163D02*
Y01192D01*
X03385Y01099D02*
X03414D01*
X034Y01084D02*
Y01113D01*
X03385Y0102D02*
X03414D01*
X034Y01005D02*
Y01034D01*
X03385Y0094D02*
X03414D01*
X034Y00926D02*
Y00955D01*
X03385Y00862D02*
X03414D01*
X034Y00847D02*
Y00876D01*
X03385Y00782D02*
X03414D01*
X034Y00768D02*
Y00797D01*
X03385Y00704D02*
X03414D01*
X034Y00689D02*
Y00718D01*
X03464Y01415D02*
X03493D01*
X03478Y014D02*
Y01429D01*
X03464Y01335D02*
X03493D01*
X03478Y01321D02*
Y0135D01*
X03464Y01257D02*
X03493D01*
X03478Y01242D02*
Y01271D01*
X03464Y01177D02*
X03493D01*
X03478Y01163D02*
Y01192D01*
X03464Y01099D02*
X03493D01*
X03478Y01084D02*
Y01113D01*
X03464Y0102D02*
X03493D01*
X03478Y01005D02*
Y01034D01*
X03464Y0094D02*
X03493D01*
X03478Y00926D02*
Y00955D01*
X03464Y00862D02*
X03493D01*
X03478Y00847D02*
Y00876D01*
X03464Y00782D02*
X03493D01*
X03478Y00768D02*
Y00797D01*
X03464Y00704D02*
X03493D01*
X03478Y00689D02*
Y00718D01*
X03543Y01415D02*
X03571D01*
X03557Y014D02*
Y01429D01*
X03543Y01335D02*
X03571D01*
X03557Y01321D02*
Y0135D01*
X03543Y01257D02*
X03571D01*
X03557Y01242D02*
Y01271D01*
X03543Y01177D02*
X03571D01*
X03557Y01163D02*
Y01192D01*
X03543Y01099D02*
X03571D01*
X03557Y01084D02*
Y01113D01*
X03543Y0102D02*
X03571D01*
X03557Y01005D02*
Y01034D01*
X03543Y0094D02*
X03571D01*
X03557Y00926D02*
Y00955D01*
X03543Y00862D02*
X03571D01*
X03557Y00847D02*
Y00876D01*
X03543Y00782D02*
X03571D01*
X03557Y00768D02*
Y00797D01*
X03543Y00704D02*
X03571D01*
X03557Y00689D02*
Y00718D01*
X03543Y00625D02*
X03571D01*
X03557Y0061D02*
Y00639D01*
X03621Y01415D02*
X0365D01*
X03636Y014D02*
Y01429D01*
X03621Y01335D02*
X0365D01*
X03636Y01321D02*
Y0135D01*
X03621Y01257D02*
X0365D01*
X03636Y01242D02*
Y01271D01*
X03621Y01177D02*
X0365D01*
X03636Y01163D02*
Y01192D01*
X03621Y01099D02*
X0365D01*
X03636Y01084D02*
Y01113D01*
X03621Y0102D02*
X0365D01*
X03636Y01005D02*
Y01034D01*
X03621Y00704D02*
X0365D01*
X03636Y00689D02*
Y00718D01*
X03621Y00625D02*
X0365D01*
X03636Y0061D02*
Y00639D01*
X03621Y00545D02*
X0365D01*
X03636Y00531D02*
Y0056D01*
X037Y01415D02*
X03729D01*
X03714Y014D02*
Y01429D01*
X037Y01335D02*
X03729D01*
X03714Y01321D02*
Y0135D01*
X037Y01257D02*
X03729D01*
X03714Y01242D02*
Y01271D01*
X037Y01177D02*
X03729D01*
X03714Y01163D02*
Y01192D01*
X037Y01099D02*
X03729D01*
X03714Y01084D02*
Y01113D01*
X037Y0102D02*
X03729D01*
X03714Y01005D02*
Y01034D01*
X037Y0094D02*
X03729D01*
X03714Y00926D02*
Y00955D01*
X037Y00862D02*
X03729D01*
X03714Y00847D02*
Y00876D01*
X037Y00545D02*
X03729D01*
X03714Y00531D02*
Y0056D01*
X037Y00625D02*
X03729D01*
X03714Y0061D02*
Y00639D01*
X037Y00704D02*
X03729D01*
X03714Y00689D02*
Y00718D01*
X037Y00782D02*
X03729D01*
X03714Y00768D02*
Y00797D01*
X03621Y00782D02*
X0365D01*
X03636Y00768D02*
Y00797D01*
X03621Y00862D02*
X0365D01*
X03636Y00847D02*
Y00876D01*
X03621Y0094D02*
X0365D01*
X03636Y00926D02*
Y00955D01*
X03543Y00545D02*
X03571D01*
X03557Y00531D02*
Y0056D01*
X03464Y00545D02*
X03493D01*
X03478Y00531D02*
Y0056D01*
X03464Y00625D02*
X03493D01*
X03478Y0061D02*
Y00639D01*
X03385Y00545D02*
X03414D01*
X034Y00531D02*
Y0056D01*
X03385Y00625D02*
X03414D01*
X034Y0061D02*
Y00639D01*
X05086Y027D02*
X05114D01*
X051Y02686D02*
Y02714D01*
X05086Y024D02*
X05114D01*
X051Y02386D02*
Y02414D01*
X04786Y027D02*
X04814D01*
X048Y02686D02*
Y02714D01*
X04786Y021D02*
X04814D01*
X048Y02086D02*
Y02114D01*
X04786Y003D02*
X04814D01*
X048Y00286D02*
Y00314D01*
X04486Y027D02*
X04514D01*
X045Y02686D02*
Y02714D01*
X04486Y018D02*
X04514D01*
X045Y01786D02*
Y01814D01*
X04486Y003D02*
X04514D01*
X045Y00286D02*
Y00314D01*
X04186Y003D02*
X04214D01*
X042Y00286D02*
Y00314D01*
X03886Y027D02*
X03914D01*
X039Y02686D02*
Y02714D01*
X03886Y003D02*
X03914D01*
X039Y00286D02*
Y00314D01*
X03586Y027D02*
X03614D01*
X036Y02686D02*
Y02714D01*
X03286Y027D02*
X03314D01*
X033Y02686D02*
Y02714D01*
X02986Y027D02*
X03014D01*
X03Y02686D02*
Y02714D01*
X02986Y018D02*
X03014D01*
X03Y01786D02*
Y01814D01*
X02686Y027D02*
X02714D01*
X027Y02686D02*
Y02714D01*
X02386Y027D02*
X02414D01*
X024Y02686D02*
Y02714D01*
X02086Y027D02*
X02114D01*
X021Y02686D02*
Y02714D01*
X01786Y027D02*
X01814D01*
X018Y02686D02*
Y02714D01*
X01486Y027D02*
X01514D01*
X015Y02686D02*
Y02714D01*
X01186Y027D02*
X01214D01*
X012Y02686D02*
Y02714D01*
X01186Y024D02*
X01214D01*
X012Y02386D02*
Y02414D01*
X00886Y027D02*
X00914D01*
X009Y02686D02*
Y02714D01*
X00886Y024D02*
X00914D01*
X009Y02386D02*
Y02414D01*
X00886Y021D02*
X00914D01*
X009Y02086D02*
Y02114D01*
X00586Y027D02*
X00614D01*
X006Y02686D02*
Y02714D01*
X00586Y024D02*
X00614D01*
X006Y02386D02*
Y02414D01*
X00586Y018D02*
X00614D01*
X006Y01786D02*
Y01814D01*
X00286Y027D02*
X00314D01*
X003Y02686D02*
Y02714D01*
X00286Y024D02*
X00314D01*
X003Y02386D02*
Y02414D01*
X00286Y021D02*
X00314D01*
X003Y02086D02*
Y02114D01*
X00286Y018D02*
X00314D01*
X003Y01786D02*
Y01814D01*
X00286Y015D02*
X00314D01*
X003Y01486D02*
Y01514D01*
X00286Y012D02*
X00314D01*
X003Y01186D02*
Y01214D01*
X00286Y009D02*
X00314D01*
X003Y00886D02*
Y00914D01*
X00286Y006D02*
X00314D01*
X003Y00586D02*
Y00614D01*
X00286Y003D02*
X00314D01*
X003Y00286D02*
Y00314D01*
X00658Y02003D02*
X00665D01*
X00662Y01999D02*
Y02007D01*
X04936Y0106D02*
X04943D01*
X0494Y01056D02*
Y01063D01*
X03341Y0131D02*
X03348D01*
X03345Y01306D02*
Y01313D01*
X01851Y01055D02*
X01858D01*
X01855Y01051D02*
Y01058D01*
X02016Y00585D02*
X02023D01*
X0202Y00581D02*
Y00588D01*
X02616Y003D02*
X02623D01*
X0262Y00296D02*
Y00303D01*
X01836Y0054D02*
X01843D01*
X0184Y00536D02*
Y00543D01*
X02348Y01784D02*
X02355D01*
X02352Y0178D02*
Y01787D01*
X02246Y0185D02*
X02253D01*
X0225Y01846D02*
Y01853D01*
X03196Y0115D02*
X03203D01*
X032Y01146D02*
Y01153D01*
X02632Y00862D02*
X02639D01*
X02636Y00858D02*
Y00865D01*
X04436Y00579D02*
X04443D01*
X0444Y00575D02*
Y00582D01*
X0177Y00712D02*
X01777D01*
X01774Y00708D02*
Y00715D01*
X02962Y01447D02*
X02969D01*
X02966Y01443D02*
Y0145D01*
X04805Y00671D02*
X04812D01*
X04809Y00667D02*
Y00674D01*
X03774Y0063D02*
X03781D01*
X03778Y00626D02*
Y00633D01*
X03914Y01578D02*
X03921D01*
X03918Y01574D02*
Y01581D01*
X02926Y01628D02*
X02933D01*
X0293Y01624D02*
Y01632D01*
X02901Y00988D02*
X02908D01*
X02905Y00984D02*
Y00991D01*
X03737Y01941D02*
X03744D01*
X03741Y01937D02*
Y01944D01*
X03653Y01942D02*
X0366D01*
X03657Y01938D02*
Y01945D01*
X01814Y00776D02*
X01821D01*
X01818Y00772D02*
Y00779D01*
X02681Y01494D02*
X02688D01*
X02685Y0149D02*
Y01497D01*
X01745Y01521D02*
X01752D01*
X01749Y01517D02*
Y01524D01*
X01662Y00859D02*
X01669D01*
X01665Y00855D02*
Y00863D01*
X05332Y00203D02*
X05339D01*
X05336Y00199D02*
Y00206D01*
X04837Y01993D02*
X04844D01*
X04841Y01989D02*
Y01996D01*
X0177Y01123D02*
X01777D01*
X01774Y01119D02*
Y01126D01*
X00776Y01836D02*
X00783D01*
X0078Y01832D02*
Y01839D01*
X0215Y00314D02*
X02157D01*
X02154Y0031D02*
Y00317D01*
X01047Y00475D02*
X01054D01*
X01051Y00471D02*
Y00478D01*
X02006Y00188D02*
X02013D01*
X0201Y00184D02*
Y00191D01*
X00429Y00441D02*
X00436D01*
X00432Y00437D02*
Y00444D01*
X04724Y00901D02*
X04731D01*
X04728Y00897D02*
Y00904D01*
X03558Y0155D02*
X03566D01*
X03562Y01546D02*
Y01554D01*
X0114Y01708D02*
X01147D01*
X01144Y01704D02*
Y01711D01*
X02244Y01694D02*
X02251D01*
X02248Y0169D02*
Y01697D01*
X02646Y01819D02*
X02653D01*
X0265Y01815D02*
Y01822D01*
X02463Y00816D02*
X0247D01*
X02467Y00812D02*
Y00819D01*
X0319Y00696D02*
X03197D01*
X03194Y00692D02*
Y00699D01*
X01861Y00282D02*
X01868D01*
X01865Y00278D02*
Y00285D01*
X00724Y00282D02*
X00731D01*
X00728Y00278D02*
Y00285D01*
X01334Y00282D02*
X01341D01*
X01338Y00278D02*
Y00285D01*
X02614Y00446D02*
X02621D01*
X02618Y00442D02*
Y00449D01*
X00937Y00448D02*
X00944D01*
X00941Y00444D02*
Y00452D01*
X03805Y01599D02*
X03812D01*
X03809Y01595D02*
Y01602D01*
X03052Y01631D02*
X03059D01*
X03056Y01627D02*
Y01634D01*
X02755Y00935D02*
X02762D01*
X02759Y00931D02*
Y00938D01*
X03805Y01024D02*
X03812D01*
X03809Y0102D02*
Y01027D01*
X04803Y01063D02*
X0481D01*
X04807Y01059D02*
Y01066D01*
X01834Y00607D02*
X01841D01*
X01838Y00603D02*
Y0061D01*
X03443Y00475D02*
X03451D01*
X03447Y00471D02*
Y00478D01*
X0372Y00264D02*
X03727D01*
X03724Y0026D02*
Y00267D01*
X00457Y00188D02*
X00464D01*
X00461Y00184D02*
Y00191D01*
X03285Y00182D02*
X03292D01*
X03289Y00178D02*
Y00185D01*
X00401Y00489D02*
X00408D01*
X00405Y00485D02*
Y00492D01*
X03214Y00546D02*
X03221D01*
X03218Y00542D02*
Y00549D01*
X04061Y0086D02*
X04069D01*
X04065Y00856D02*
Y00864D01*
X05178Y00467D02*
X05185D01*
X05182Y00463D02*
Y0047D01*
X01331Y00853D02*
X01338D01*
X01335Y00849D02*
Y00856D01*
X03696Y00185D02*
X03703D01*
X037Y00181D02*
Y00188D01*
X02258Y00371D02*
X02266D01*
X02262Y00367D02*
Y00375D01*
X00748Y00344D02*
X00755D01*
X00752Y0034D02*
Y00347D01*
X04464Y00988D02*
X04471D01*
X04468Y00984D02*
Y00991D01*
X02621Y01031D02*
X02628D01*
X02625Y01027D02*
Y01035D01*
X02621Y01748D02*
X02628D01*
X02625Y01744D02*
Y01751D01*
X0156Y0102D02*
X01568D01*
X01564Y01016D02*
Y01023D01*
X01717Y01751D02*
X01724D01*
X01721Y01747D02*
Y01754D01*
X03746Y01671D02*
X03753D01*
X0375Y01667D02*
Y01674D01*
X05197Y01991D02*
X05204D01*
X05201Y01987D02*
Y01994D01*
X03622Y01714D02*
X03629D01*
X03626Y0171D02*
Y01717D01*
X02497Y01691D02*
X02504D01*
X02501Y01687D02*
Y01694D01*
X04254Y01108D02*
X04261D01*
X04258Y01104D02*
Y01111D01*
X0173Y02031D02*
X01737D01*
X01734Y02027D02*
Y02034D01*
X02379Y01997D02*
X02386D01*
X02383Y01993D02*
Y02001D01*
X03487Y01939D02*
X03494D01*
X03491Y01935D02*
Y01942D01*
X02379Y01939D02*
X02386D01*
X02383Y01935D02*
Y01942D01*
X03892Y02057D02*
X03899D01*
X03896Y02053D02*
Y0206D01*
X03892Y01178D02*
X03899D01*
X03896Y01174D02*
Y01181D01*
X04536Y01133D02*
X04543D01*
X0454Y01129D02*
Y01136D01*
X01159Y01573D02*
X01166D01*
X01163Y01569D02*
Y01576D01*
X0219Y01625D02*
X02197D01*
X02194Y01621D02*
Y01628D01*
X05244Y01965D02*
X05251D01*
X05248Y01961D02*
Y01968D01*
X04783Y01954D02*
X0479D01*
X04787Y0195D02*
Y01957D01*
X041Y01258D02*
X04107D01*
X04104Y01254D02*
Y01261D01*
X03151Y01334D02*
X03158D01*
X03155Y0133D02*
Y01337D01*
X04338Y01335D02*
X04345D01*
X04341Y01332D02*
Y01339D01*
X0487Y01868D02*
X04877D01*
X04874Y01864D02*
Y01871D01*
X01739Y00887D02*
X01746D01*
X01743Y00883D02*
Y0089D01*
X00897Y00887D02*
X00904D01*
X00901Y00883D02*
Y0089D01*
X03318Y00126D02*
X03325D01*
X03322Y00122D02*
Y00129D01*
X04702Y00624D02*
X04709D01*
X04706Y0062D02*
Y00627D01*
X02041Y00386D02*
X02048D01*
X02045Y00382D02*
Y00389D01*
X00665Y00386D02*
X00673D01*
X00669Y00382D02*
Y00389D01*
X0234Y00457D02*
X02348D01*
X02344Y00453D02*
Y00461D01*
X00833Y00444D02*
X0084D01*
X00837Y0044D02*
Y00447D01*
X03777Y01094D02*
X03784D01*
X03781Y0109D02*
Y01097D01*
X04481Y01094D02*
X04488D01*
X04485Y0109D02*
Y01097D01*
X03776Y01759D02*
X03783D01*
X0378Y01755D02*
Y01762D01*
X02529Y01742D02*
X02537D01*
X02533Y01738D02*
Y01745D01*
X04557Y02315D02*
X04564D01*
X04561Y02311D02*
Y02318D01*
X02258Y01935D02*
X02265D01*
X02262Y01931D02*
Y01939D01*
X03692Y01974D02*
X03699D01*
X03696Y0197D02*
Y01977D01*
X0223Y01976D02*
X02237D01*
X02234Y01972D02*
Y01979D01*
X01739Y01864D02*
X01746D01*
X01743Y0186D02*
Y01867D01*
X04431Y01143D02*
X04438D01*
X04435Y01139D02*
Y01146D01*
X04294Y01887D02*
X04301D01*
X04298Y01883D02*
Y0189D01*
X01374Y01775D02*
X01381D01*
X01378Y01771D02*
Y01778D01*
X04057Y01287D02*
X04064D01*
X04061Y01283D02*
Y0129D01*
X03689Y0158D02*
X03696D01*
X03693Y01576D02*
Y01583D01*
X02725Y01627D02*
X02732D01*
X02729Y01623D02*
Y0163D01*
X02719Y01431D02*
X02726D01*
X02723Y01427D02*
Y01434D01*
X02314Y02007D02*
X02321D01*
X02318Y02003D02*
Y0201D01*
X03517Y00368D02*
X03524D01*
X03521Y00364D02*
Y00371D01*
X04811Y00815D02*
X04818D01*
X04815Y00811D02*
Y00818D01*
X0361Y00248D02*
X03617D01*
X03614Y00244D02*
Y00251D01*
X02231Y00475D02*
X02238D01*
X02235Y00471D02*
Y00478D01*
X02641Y02251D02*
X02648D01*
X02645Y02247D02*
Y02254D01*
X00558Y00092D02*
X00565D01*
X00562Y00088D02*
Y00095D01*
X03878Y00908D02*
X03885D01*
X03882Y00904D02*
Y00911D01*
X02276Y00313D02*
X02283D01*
X0228Y00309D02*
Y00316D01*
X00599Y00216D02*
X00607D01*
X00603Y00212D02*
Y0022D01*
X03542Y01615D02*
X03549D01*
X03546Y01611D02*
Y01618D01*
X02499Y01598D02*
X02506D01*
X02503Y01594D02*
Y01601D01*
X02396Y0165D02*
X02403D01*
X024Y01646D02*
Y01653D01*
X03437Y01659D02*
X03444D01*
X03441Y01655D02*
Y01662D01*
X02091Y01625D02*
X02098D01*
X02095Y01621D02*
Y01628D01*
X01497Y01625D02*
X01504D01*
X01501Y01621D02*
Y01628D01*
X02028Y01529D02*
X02036D01*
X02032Y01525D02*
Y01532D01*
X03488Y01539D02*
X03495D01*
X03492Y01535D02*
Y01542D01*
X02105Y01538D02*
X02112D01*
X02109Y01534D02*
Y01541D01*
X02441Y01482D02*
X02448D01*
X02445Y01478D02*
Y01485D01*
X03324Y00665D02*
X03331D01*
X03328Y00661D02*
Y00668D01*
X03507Y00433D02*
X03515D01*
X03511Y00429D02*
Y00437D01*
X01842Y00824D02*
X01849D01*
X01846Y00821D02*
Y00828D01*
X0479Y02261D02*
X04798D01*
X04794Y02257D02*
Y02265D01*
X01767Y00934D02*
X01774D01*
X01771Y0093D02*
Y00937D01*
X02178Y00391D02*
X02185D01*
X02182Y00387D02*
Y00394D01*
X03968Y00901D02*
X03975D01*
X03972Y00897D02*
Y00904D01*
X02379Y01127D02*
X02386D01*
X02383Y01123D02*
Y0113D01*
X02437Y01127D02*
X02444D01*
X02441Y01123D02*
Y0113D01*
X0259Y01127D02*
X02597D01*
X02594Y01123D02*
Y0113D01*
X02268Y00145D02*
X02275D01*
X02272Y00141D02*
Y00148D01*
X00508Y0005D02*
X00515D01*
X00512Y00046D02*
Y00053D01*
X04693Y01077D02*
X047D01*
X04697Y01073D02*
Y0108D01*
X02566Y01038D02*
X02573D01*
X0257Y01034D02*
Y01041D01*
X04665Y01129D02*
X04673D01*
X04669Y01125D02*
Y01133D01*
X03815Y00071D02*
X03822D01*
X03819Y00067D02*
Y00074D01*
X01726Y00047D02*
X01733D01*
X0173Y00043D02*
Y0005D01*
X0221Y00162D02*
X02217D01*
X02214Y00158D02*
Y00165D01*
X02462Y004D02*
X02469D01*
X02466Y00396D02*
Y00403D01*
X02797Y004D02*
X02804D01*
X02801Y00396D02*
Y00403D01*
X01098Y0179D02*
X01105D01*
X01102Y01786D02*
Y01793D01*
X01924Y01826D02*
X01931D01*
X01928Y01822D02*
Y01829D01*
M02*