%FSTAX23Y23*%
%MOIN*%
%SFA1B1*%

%IPPOS*%
%ADD22C,0.076770*%
%ADD23R,0.076770X0.076770*%
%ADD24C,0.129920*%
%ADD25C,0.130000*%
%ADD26C,0.042320*%
%ADD27R,0.042320X0.042320*%
%LNbackplane_pads_top-1*%
%LPD*%
G54D22*
X03868Y0245D03*
X0375D03*
X03631D03*
X03513D03*
X03395D03*
X03277D03*
X03159D03*
X03809Y02351D03*
X0369D03*
X03572D03*
X03454D03*
X03336D03*
X03218D03*
X03809Y02233D03*
X0369D03*
X03572D03*
X03454D03*
X03336D03*
X03218D03*
X03868Y02135D03*
X0375D03*
X03631D03*
X03513D03*
X03395D03*
X03277D03*
X03159D03*
X02588Y0245D03*
X0247D03*
X02352D03*
X02234D03*
X02116D03*
X01998D03*
X01879D03*
X01761D03*
X01643D03*
X02529Y02351D03*
X02411D03*
X02293D03*
X02175D03*
X02057D03*
X01938D03*
X0182D03*
X01702D03*
X02529Y02233D03*
X02411D03*
X02293D03*
X02175D03*
X02057D03*
X01938D03*
X0182D03*
X01702D03*
X02588Y02135D03*
X0247D03*
X02352D03*
X02234D03*
X02116D03*
X01998D03*
X01879D03*
X01761D03*
G54D23*
X01643Y02135D03*
G54D24*
X04153Y02705D03*
X01358D03*
X02874D03*
G54D25*
X001Y029D03*
X054Y001D03*
Y029D03*
X001Y001D03*
G54D26*
X00557Y00545D03*
Y00625D03*
Y00704D03*
Y00782D03*
Y00862D03*
Y0094D03*
Y0102D03*
Y01099D03*
Y01177D03*
Y01257D03*
Y01335D03*
X00478Y00545D03*
Y00625D03*
Y00704D03*
Y00782D03*
Y00862D03*
Y0094D03*
Y0102D03*
Y01099D03*
Y01177D03*
Y01257D03*
Y01335D03*
Y01415D03*
X004Y00545D03*
Y00625D03*
Y00704D03*
Y00782D03*
Y00862D03*
Y0094D03*
Y0102D03*
Y01099D03*
Y01177D03*
Y01257D03*
Y01335D03*
X00557Y01415D03*
X00636D03*
Y0094D03*
Y00862D03*
Y00782D03*
Y00704D03*
Y00625D03*
Y00545D03*
Y0102D03*
Y01099D03*
Y01177D03*
Y01257D03*
Y01335D03*
X00714Y01415D03*
Y0094D03*
Y00862D03*
Y00782D03*
Y00704D03*
Y00625D03*
Y00545D03*
Y0102D03*
Y01099D03*
Y01177D03*
Y01257D03*
Y01335D03*
X049D03*
Y01257D03*
Y01177D03*
Y01099D03*
Y0102D03*
Y0094D03*
Y00862D03*
Y00782D03*
Y00704D03*
X04978Y01415D03*
Y01335D03*
Y01257D03*
Y01177D03*
Y01099D03*
Y0102D03*
Y0094D03*
Y00862D03*
Y00782D03*
Y00704D03*
X05057Y01415D03*
Y01335D03*
Y01257D03*
Y01177D03*
Y01099D03*
Y0102D03*
Y0094D03*
Y00862D03*
Y00782D03*
Y00704D03*
Y00625D03*
X05136Y01415D03*
Y01335D03*
Y01257D03*
Y01177D03*
Y01099D03*
Y0102D03*
Y00704D03*
Y00625D03*
Y00545D03*
X05214Y01415D03*
Y01335D03*
Y01257D03*
Y01177D03*
Y01099D03*
Y0102D03*
Y0094D03*
Y00862D03*
Y00545D03*
Y00625D03*
Y00704D03*
Y00782D03*
X05136D03*
Y00862D03*
Y0094D03*
X05057Y00545D03*
X04978D03*
Y00625D03*
X049Y00545D03*
Y00625D03*
X019D03*
Y00545D03*
X01978Y00625D03*
Y00545D03*
X02057D03*
X02136Y0094D03*
Y00862D03*
Y00782D03*
X02214D03*
Y00704D03*
Y00625D03*
Y00545D03*
Y00862D03*
Y0094D03*
Y0102D03*
Y01099D03*
Y01177D03*
Y01257D03*
Y01335D03*
Y01415D03*
X02136Y00545D03*
Y00625D03*
Y00704D03*
Y0102D03*
Y01099D03*
Y01177D03*
Y01257D03*
Y01335D03*
Y01415D03*
X02057Y00625D03*
Y00704D03*
Y00782D03*
Y00862D03*
Y0094D03*
Y0102D03*
Y01099D03*
Y01177D03*
Y01257D03*
Y01335D03*
Y01415D03*
X01978Y00704D03*
Y00782D03*
Y00862D03*
Y0094D03*
Y0102D03*
Y01099D03*
Y01177D03*
Y01257D03*
Y01335D03*
Y01415D03*
X019Y00704D03*
Y00782D03*
Y00862D03*
Y0094D03*
Y0102D03*
Y01099D03*
Y01177D03*
Y01257D03*
Y01335D03*
X034D03*
Y01257D03*
Y01177D03*
Y01099D03*
Y0102D03*
Y0094D03*
Y00862D03*
Y00782D03*
Y00704D03*
X03478Y01415D03*
Y01335D03*
Y01257D03*
Y01177D03*
Y01099D03*
Y0102D03*
Y0094D03*
Y00862D03*
Y00782D03*
Y00704D03*
X03557Y01415D03*
Y01335D03*
Y01257D03*
Y01177D03*
Y01099D03*
Y0102D03*
Y0094D03*
Y00862D03*
Y00782D03*
Y00704D03*
Y00625D03*
X03636Y01415D03*
Y01335D03*
Y01257D03*
Y01177D03*
Y01099D03*
Y0102D03*
Y00704D03*
Y00625D03*
Y00545D03*
X03714Y01415D03*
Y01335D03*
Y01257D03*
Y01177D03*
Y01099D03*
Y0102D03*
Y0094D03*
Y00862D03*
Y00545D03*
Y00625D03*
Y00704D03*
Y00782D03*
X03636D03*
Y00862D03*
Y0094D03*
X03557Y00545D03*
X03478D03*
Y00625D03*
X034Y00545D03*
Y00625D03*
G54D27*
X004Y01415D03*
X049D03*
X019D03*
X034D03*
M02*