%FSTAX23Y23*%
%MOIN*%
%SFA1B1*%

%IPPOS*%
%ADD10C,0.007870*%
%ADD11C,0.005000*%
%ADD31C,0.015750*%
%LNbackplane_mechanical_13-1*%
%LPD*%
G54D10*
X00403Y01477D02*
D01*
X00403Y01477*
X00403Y01478*
X00403Y01478*
X00403Y01478*
X00403Y01478*
X00403Y01479*
X00403Y01479*
X00403Y01479*
X00403Y01479*
X00403Y0148*
X00402Y0148*
X00402Y0148*
X00402Y0148*
X00402Y0148*
X00401Y01481*
X00401Y01481*
X00401Y01481*
X00401Y01481*
X004Y01481*
X004Y01481*
X004Y01481*
X004Y01481*
X00399*
X00399Y01481*
X00399Y01481*
X00399Y01481*
X00398Y01481*
X00398Y01481*
X00398Y01481*
X00398Y01481*
X00397Y0148*
X00397Y0148*
X00397Y0148*
X00397Y0148*
X00396Y0148*
X00396Y01479*
X00396Y01479*
X00396Y01479*
X00396Y01479*
X00396Y01478*
X00396Y01478*
X00396Y01478*
X00396Y01478*
X00396Y01477*
X00396Y01477*
X00396Y01477*
X00396Y01477*
X00396Y01476*
X00396Y01476*
X00396Y01476*
X00396Y01475*
X00396Y01475*
X00396Y01475*
X00396Y01475*
X00396Y01475*
X00397Y01474*
X00397Y01474*
X00397Y01474*
X00397Y01474*
X00398Y01474*
X00398Y01474*
X00398Y01473*
X00398Y01473*
X00399Y01473*
X00399Y01473*
X00399Y01473*
X00399Y01473*
X004*
X004Y01473*
X004Y01473*
X004Y01473*
X00401Y01473*
X00401Y01473*
X00401Y01474*
X00401Y01474*
X00402Y01474*
X00402Y01474*
X00402Y01474*
X00402Y01474*
X00403Y01475*
X00403Y01475*
X00403Y01475*
X00403Y01475*
X00403Y01475*
X00403Y01476*
X00403Y01476*
X00403Y01476*
X00403Y01477*
X00403Y01477*
X00403Y01477*
X04903D02*
D01*
X04903Y01477*
X04903Y01478*
X04903Y01478*
X04903Y01478*
X04903Y01478*
X04903Y01479*
X04903Y01479*
X04903Y01479*
X04903Y01479*
X04903Y0148*
X04902Y0148*
X04902Y0148*
X04902Y0148*
X04902Y0148*
X04901Y01481*
X04901Y01481*
X04901Y01481*
X04901Y01481*
X049Y01481*
X049Y01481*
X049Y01481*
X049Y01481*
X04899*
X04899Y01481*
X04899Y01481*
X04899Y01481*
X04898Y01481*
X04898Y01481*
X04898Y01481*
X04898Y01481*
X04897Y0148*
X04897Y0148*
X04897Y0148*
X04897Y0148*
X04896Y0148*
X04896Y01479*
X04896Y01479*
X04896Y01479*
X04896Y01479*
X04896Y01478*
X04896Y01478*
X04896Y01478*
X04896Y01478*
X04896Y01477*
X04896Y01477*
X04896Y01477*
X04896Y01477*
X04896Y01476*
X04896Y01476*
X04896Y01476*
X04896Y01475*
X04896Y01475*
X04896Y01475*
X04896Y01475*
X04896Y01475*
X04897Y01474*
X04897Y01474*
X04897Y01474*
X04897Y01474*
X04898Y01474*
X04898Y01474*
X04898Y01473*
X04898Y01473*
X04899Y01473*
X04899Y01473*
X04899Y01473*
X04899Y01473*
X049*
X049Y01473*
X049Y01473*
X049Y01473*
X04901Y01473*
X04901Y01473*
X04901Y01474*
X04901Y01474*
X04902Y01474*
X04902Y01474*
X04902Y01474*
X04902Y01474*
X04903Y01475*
X04903Y01475*
X04903Y01475*
X04903Y01475*
X04903Y01475*
X04903Y01476*
X04903Y01476*
X04903Y01476*
X04903Y01477*
X04903Y01477*
X04903Y01477*
X01903D02*
D01*
X01903Y01477*
X01903Y01478*
X01903Y01478*
X01903Y01478*
X01903Y01478*
X01903Y01479*
X01903Y01479*
X01903Y01479*
X01903Y01479*
X01903Y0148*
X01902Y0148*
X01902Y0148*
X01902Y0148*
X01902Y0148*
X01901Y01481*
X01901Y01481*
X01901Y01481*
X01901Y01481*
X019Y01481*
X019Y01481*
X019Y01481*
X019Y01481*
X01899*
X01899Y01481*
X01899Y01481*
X01899Y01481*
X01898Y01481*
X01898Y01481*
X01898Y01481*
X01898Y01481*
X01897Y0148*
X01897Y0148*
X01897Y0148*
X01897Y0148*
X01896Y0148*
X01896Y01479*
X01896Y01479*
X01896Y01479*
X01896Y01479*
X01896Y01478*
X01896Y01478*
X01896Y01478*
X01896Y01478*
X01896Y01477*
X01896Y01477*
X01896Y01477*
X01896Y01477*
X01896Y01476*
X01896Y01476*
X01896Y01476*
X01896Y01475*
X01896Y01475*
X01896Y01475*
X01896Y01475*
X01896Y01475*
X01897Y01474*
X01897Y01474*
X01897Y01474*
X01897Y01474*
X01898Y01474*
X01898Y01474*
X01898Y01473*
X01898Y01473*
X01899Y01473*
X01899Y01473*
X01899Y01473*
X01899Y01473*
X019*
X019Y01473*
X019Y01473*
X019Y01473*
X01901Y01473*
X01901Y01473*
X01901Y01474*
X01901Y01474*
X01902Y01474*
X01902Y01474*
X01902Y01474*
X01902Y01474*
X01903Y01475*
X01903Y01475*
X01903Y01475*
X01903Y01475*
X01903Y01475*
X01903Y01476*
X01903Y01476*
X01903Y01476*
X01903Y01477*
X01903Y01477*
X01903Y01477*
X03403D02*
D01*
X03403Y01477*
X03403Y01478*
X03403Y01478*
X03403Y01478*
X03403Y01478*
X03403Y01479*
X03403Y01479*
X03403Y01479*
X03403Y01479*
X03403Y0148*
X03402Y0148*
X03402Y0148*
X03402Y0148*
X03402Y0148*
X03401Y01481*
X03401Y01481*
X03401Y01481*
X03401Y01481*
X034Y01481*
X034Y01481*
X034Y01481*
X034Y01481*
X03399*
X03399Y01481*
X03399Y01481*
X03399Y01481*
X03398Y01481*
X03398Y01481*
X03398Y01481*
X03398Y01481*
X03397Y0148*
X03397Y0148*
X03397Y0148*
X03397Y0148*
X03396Y0148*
X03396Y01479*
X03396Y01479*
X03396Y01479*
X03396Y01479*
X03396Y01478*
X03396Y01478*
X03396Y01478*
X03396Y01478*
X03396Y01477*
X03396Y01477*
X03396Y01477*
X03396Y01477*
X03396Y01476*
X03396Y01476*
X03396Y01476*
X03396Y01475*
X03396Y01475*
X03396Y01475*
X03396Y01475*
X03396Y01475*
X03397Y01474*
X03397Y01474*
X03397Y01474*
X03397Y01474*
X03398Y01474*
X03398Y01474*
X03398Y01473*
X03398Y01473*
X03399Y01473*
X03399Y01473*
X03399Y01473*
X03399Y01473*
X034*
X034Y01473*
X034Y01473*
X034Y01473*
X03401Y01473*
X03401Y01473*
X03401Y01474*
X03401Y01474*
X03402Y01474*
X03402Y01474*
X03402Y01474*
X03402Y01474*
X03403Y01475*
X03403Y01475*
X03403Y01475*
X03403Y01475*
X03403Y01475*
X03403Y01476*
X03403Y01476*
X03403Y01476*
X03403Y01477*
X03403Y01477*
X03403Y01477*
G54D11*
X01476Y02036D02*
Y02568D01*
Y02036D02*
X04035D01*
Y02568*
X04153Y02843D02*
Y03473D01*
X01358D02*
X04153D01*
X01358Y02843D02*
Y03473D01*
X0122Y02843D02*
X01358D01*
X04153*
X04291*
Y02568D02*
Y02843D01*
X04035Y02568D02*
X04291D01*
X01476D02*
X04035D01*
X0122D02*
X01476D01*
X0122D02*
Y02843D01*
X0086Y00508D02*
Y01452D01*
Y00508D02*
Y01452D01*
X00159D02*
X0086D01*
X00159Y00508D02*
Y01452D01*
Y00508D02*
X0086D01*
X04659D02*
X0536D01*
X04659D02*
Y01452D01*
X0536*
Y00508D02*
Y01452D01*
Y00508D02*
Y01452D01*
X0236Y00508D02*
Y01452D01*
Y00508D02*
Y01452D01*
X01659D02*
X0236D01*
X01659Y00508D02*
Y01452D01*
Y00508D02*
X0236D01*
X03159D02*
X0386D01*
X03159D02*
Y01452D01*
X0386*
Y00508D02*
Y01452D01*
Y00508D02*
Y01452D01*
G54D31*
X01431Y02127D02*
D01*
X01431Y02127*
X01431Y02128*
X01431Y02128*
X01431Y02129*
X01431Y02129*
X01431Y0213*
X0143Y0213*
X0143Y02131*
X0143Y02131*
X01429Y02132*
X01429Y02132*
X01429Y02133*
X01428Y02133*
X01428Y02133*
X01427Y02133*
X01427Y02134*
X01426Y02134*
X01426Y02134*
X01425Y02134*
X01425Y02134*
X01424Y02134*
X01424Y02135*
X01423*
X01423Y02134*
X01422Y02134*
X01421Y02134*
X01421Y02134*
X0142Y02134*
X0142Y02134*
X01419Y02133*
X01419Y02133*
X01419Y02133*
X01418Y02133*
X01418Y02132*
X01417Y02132*
X01417Y02131*
X01417Y02131*
X01416Y0213*
X01416Y0213*
X01416Y02129*
X01416Y02129*
X01416Y02128*
X01416Y02128*
X01416Y02127*
X01416Y02127*
X01416Y02126*
X01416Y02126*
X01416Y02125*
X01416Y02125*
X01416Y02124*
X01416Y02123*
X01416Y02123*
X01417Y02122*
X01417Y02122*
X01417Y02122*
X01418Y02121*
X01418Y02121*
X01419Y0212*
X01419Y0212*
X01419Y0212*
X0142Y0212*
X0142Y02119*
X01421Y02119*
X01421Y02119*
X01422Y02119*
X01423Y02119*
X01423Y02119*
X01424*
X01424Y02119*
X01425Y02119*
X01425Y02119*
X01426Y02119*
X01426Y02119*
X01427Y0212*
X01427Y0212*
X01428Y0212*
X01428Y0212*
X01429Y02121*
X01429Y02121*
X01429Y02122*
X0143Y02122*
X0143Y02122*
X0143Y02123*
X01431Y02123*
X01431Y02124*
X01431Y02125*
X01431Y02125*
X01431Y02126*
X01431Y02126*
X01431Y02127*
M02*