%FSTAX23Y23*%
%MOIN*%
%SFA1B1*%

%IPPOS*%
%ADD10C,0.007870*%
%ADD11C,0.005000*%
%ADD12C,0.010000*%
%LNbackplane_legend_top-1*%
%LPD*%
G36*
X01325Y02642D02*
X01317D01*
Y0265*
X01325*
Y02642*
G37*
G36*
X00886Y02621D02*
X00879D01*
Y02628*
X00886*
Y02621*
G37*
G36*
X0095Y02586D02*
X00936D01*
Y02593*
X0095*
Y02586*
G37*
G36*
X00985Y02536D02*
X00978D01*
Y02544*
X00985*
Y02536*
G37*
G36*
X00667Y02346D02*
X0066D01*
Y02353*
X00667*
Y02346*
G37*
G36*
X01056Y02642D02*
X01049D01*
Y02614*
X01056*
Y026*
X01035*
Y02593*
X01042*
Y02544*
X01049*
Y02487*
X01056*
Y02445*
X01063*
Y02381*
X0107*
Y02332*
X01077*
Y02296*
X01056*
Y02289*
X01035*
Y02282*
X01028*
Y02268*
X01035*
Y0224*
X01028*
Y02218*
X01021*
Y02211*
X00985*
Y02183*
X00978*
Y02155*
X00971*
Y02141*
X00964*
Y02084*
X00978*
Y02077*
X00992*
Y0207*
X01014*
Y02056*
X01021*
Y02049*
X01028*
Y02035*
X01035*
Y02021*
X01042*
Y02006*
X01049*
Y01992*
X0112*
Y01971*
X01127*
Y01964*
X01141*
Y01957*
X0119*
Y0195*
X01226*
Y01943*
X01254*
Y01936*
X01289*
Y01929*
X01303*
Y01922*
X01325*
Y01865*
X01296*
Y01879*
X01282*
Y01893*
X01261*
Y019*
X0124*
Y01908*
X0119*
Y01915*
X01183*
Y01922*
X0119*
Y01929*
X01169*
Y01943*
X01134*
Y0195*
X01127*
Y01957*
X01113*
Y01964*
X01105*
Y01971*
X01113*
Y01978*
X01056*
Y0195*
X01049*
Y01929*
X01042*
Y01922*
X01035*
Y01908*
X01028*
Y01893*
X01021*
Y01879*
X01014*
Y01865*
X01007*
Y01858*
X00999*
Y01851*
X00992*
Y01837*
X00985*
Y0183*
X00978*
Y01823*
X00971*
Y01816*
X00964*
Y01809*
X0095*
Y01802*
X00943*
Y01794*
X00929*
Y01787*
X00915*
Y0178*
X00901*
Y01773*
X00858*
Y0178*
X00844*
Y01787*
X00816*
Y0178*
X00809*
Y01759*
X00802*
Y01731*
X00795*
Y01724*
X00816*
Y01731*
X00886*
Y01738*
X00971*
Y01731*
X01056*
Y01724*
X0112*
Y01731*
X01219*
Y01738*
X01325*
Y01703*
X01197*
Y01696*
X00985*
Y01703*
X00908*
Y0171*
X00893*
Y01703*
X00886*
Y0171*
X00879*
Y01703*
X00795*
Y01696*
X00787*
Y0159*
X00759*
Y01604*
X00766*
Y01674*
X00759*
Y01703*
X00752*
Y01717*
X0071*
Y0171*
X00689*
Y01717*
X00667*
Y01724*
X00625*
Y01731*
X00611*
Y01738*
X00554*
Y01745*
X00526*
Y01752*
X00512*
Y01766*
X00505*
Y01787*
X00498*
Y01794*
X00491*
Y01802*
X00455*
Y01794*
X00434*
Y01787*
X0042*
Y0178*
X00356*
Y01773*
X00335*
Y01766*
X00321*
Y01759*
X00307*
Y01766*
X00279*
Y01759*
X00265*
Y0265*
X00745*
Y02642*
X00738*
Y02635*
X00717*
Y02628*
X0071*
Y02621*
X00703*
Y02614*
X00689*
Y02607*
X00681*
Y026*
X00674*
Y02593*
X0066*
Y02586*
X00653*
Y02572*
X00646*
Y02565*
X00632*
Y02558*
X00625*
Y02544*
X00618*
Y02522*
X00611*
Y02494*
X00604*
Y02473*
X00597*
Y02459*
X0059*
Y02423*
X00583*
Y02409*
X0059*
Y02324*
X00604*
Y02268*
X00611*
Y02317*
X00618*
Y02388*
X00632*
Y02395*
X00653*
Y02402*
X00703*
Y02388*
X0071*
Y02381*
X00689*
Y02374*
X00696*
Y02367*
X00667*
Y0236*
X00653*
Y02353*
X00646*
Y02346*
X00639*
Y02339*
X0066*
Y02332*
X00667*
Y02324*
X0066*
Y02317*
X00681*
Y02324*
X00703*
Y02332*
X00717*
Y02346*
X00731*
Y02353*
X00738*
Y0236*
X00731*
Y02367*
X00738*
Y02374*
X00731*
Y02388*
X00724*
Y02395*
X00717*
Y02402*
X0071*
Y02409*
X00724*
Y02402*
X00731*
Y0243*
X0066*
Y02423*
X00646*
Y02416*
X00632*
Y02409*
X00618*
Y02423*
X00625*
Y02445*
X00632*
Y02466*
X00639*
Y0248*
X00646*
Y02487*
X00653*
Y02501*
X0066*
Y02508*
X00667*
Y02522*
X00674*
Y02529*
X00681*
Y02536*
X00689*
Y02544*
X00745*
Y02551*
X00766*
Y02544*
X00787*
Y02551*
X00795*
Y02544*
X00809*
Y02551*
X00823*
Y02565*
X00844*
Y02558*
X00893*
Y02551*
X00908*
Y02544*
X00915*
Y02536*
X00929*
Y02529*
X00936*
Y02522*
X00943*
Y02508*
X0095*
Y02501*
X00957*
Y0248*
X00964*
Y02459*
X00971*
Y02445*
X00978*
Y02416*
X00985*
Y02381*
X00992*
Y02332*
X00999*
Y02303*
X01007*
Y02317*
X01014*
Y02324*
X01021*
Y02339*
X01028*
Y0236*
X01035*
Y0243*
X01028*
Y02445*
X01035*
Y02452*
X01028*
Y02459*
X01021*
Y02487*
X01014*
Y02501*
X01007*
Y02515*
X00999*
Y02522*
X00992*
Y02529*
X00999*
Y02536*
X00992*
Y02551*
X00978*
Y02565*
X00985*
Y02572*
X00971*
Y02586*
X00957*
Y02593*
X0095*
Y026*
X00943*
Y02607*
X00936*
Y02614*
X00922*
Y02621*
X00915*
Y02628*
X00886*
Y02635*
X00879*
Y02642*
X00865*
Y0265*
X01056*
Y02642*
G37*
G36*
X01303Y02303D02*
X01317D01*
Y02296*
X01325*
Y02289*
X01317*
Y02296*
X01303*
Y02303*
X01296*
Y0231*
X01303*
Y02303*
G37*
G36*
X01084Y0219D02*
X01091D01*
Y02176*
X01077*
Y02183*
Y0219*
Y02197*
X01084*
Y0219*
G37*
G36*
X01127Y01908D02*
X01113D01*
Y01915*
X01127*
Y01908*
G37*
G36*
X01056Y019D02*
X01049D01*
Y01908*
X01056*
Y019*
G37*
G36*
X0107Y01886D02*
X01056D01*
Y01893*
X0107*
Y01886*
G37*
G36*
X01042Y01858D02*
X01035D01*
Y01865*
X01042*
Y01858*
G37*
G36*
X00999Y01823D02*
X00992D01*
Y0183*
X00999*
Y01823*
G37*
G36*
X00992Y01809D02*
X00985D01*
Y01816*
X00992*
Y01809*
G37*
G36*
X00533Y0159D02*
X00512D01*
Y01597*
X00533*
Y0159*
G37*
%LNbackplane_legend_top-2*%
%LPC*%
G36*
X00886Y02445D02*
X00851D01*
Y02438*
X00837*
Y0243*
X0083*
Y02423*
X00908*
Y02416*
X00943*
Y02423*
X00929*
Y0243*
X00915*
Y02438*
X00886*
Y02445*
G37*
G36*
X00879Y02388D02*
X00851D01*
Y02367*
X00844*
Y0236*
X00858*
Y02353*
X00865*
Y02346*
X00879*
Y02339*
X00886*
Y02332*
X00901*
Y02339*
Y02346*
X00908*
Y0236*
X00915*
Y02367*
X00922*
Y02353*
X00943*
Y02367*
X00922*
Y02374*
X00893*
Y02381*
X00879*
Y02388*
G37*
G36*
X01028Y02317D02*
X01021D01*
Y0231*
X01028*
Y02317*
G37*
G36*
Y02303D02*
X01021D01*
Y02296*
X01028*
Y02303*
G37*
G36*
X00809Y02268D02*
X00795D01*
Y02261*
X00787*
Y02254*
X00816*
Y02247*
X0083*
Y02261*
X00809*
Y02268*
G37*
G36*
X00752D02*
X00731D01*
Y02261*
X00717*
Y02254*
X00724*
Y0224*
X00731*
Y02226*
X00717*
Y02218*
X0078*
Y02226*
X00787*
Y0224*
X0078*
Y02247*
X00787*
Y02254*
X00773*
Y0224*
X00766*
Y02254*
X00759*
Y02261*
X00752*
Y02268*
G37*
G36*
X00625Y02204D02*
X00611D01*
Y02197*
X00597*
Y0219*
X00604*
Y02183*
X00597*
Y0219*
X0059*
Y02183*
X00597*
Y02176*
X0059*
Y02183*
X00583*
Y02176*
X00575*
Y02169*
X0059*
Y02162*
X00583*
Y02155*
X00575*
Y02169*
X00568*
Y02162*
X00561*
Y02155*
X00554*
Y02148*
X00547*
Y02141*
X0054*
Y02127*
X00533*
Y02105*
X00526*
Y02056*
X00533*
Y02042*
X0054*
Y02028*
X00547*
Y02021*
X00554*
Y02014*
X00568*
Y02006*
X00575*
Y01999*
X0059*
Y01992*
X00604*
Y01985*
X00618*
Y01992*
X00625*
Y02014*
X00632*
Y02028*
X00639*
Y02035*
X00646*
Y02042*
X0066*
Y02063*
X00653*
Y0207*
X00639*
Y02091*
X00632*
Y0212*
X00639*
Y02134*
X00646*
Y02141*
X00639*
Y02162*
X00632*
Y02183*
X00625*
Y02204*
G37*
G36*
X00689Y02211D02*
X00681D01*
Y02204*
X00674*
Y02183*
X00696*
Y02176*
X0071*
Y02183*
X00844*
Y02176*
X00886*
Y02197*
X00872*
Y0219*
X0083*
Y02197*
X00795*
Y02204*
X00773*
Y02197*
X00766*
Y02204*
X00724*
Y02197*
X00696*
Y02204*
X00689*
Y02211*
G37*
G36*
X00795Y02162D02*
X00738D01*
Y02155*
X00717*
Y02148*
X00731*
Y02134*
X00809*
Y02148*
X00816*
Y02155*
X00795*
Y02162*
G37*
G36*
X0066Y02091D02*
X00653D01*
Y02084*
X0066*
Y02091*
G37*
G36*
X00696Y02084D02*
X00689D01*
Y02077*
X00696*
Y02084*
G37*
G36*
X00957Y0212D02*
X00943D01*
Y02112*
X00936*
Y02105*
X00908*
Y02098*
X00893*
Y02091*
X00879*
Y02084*
X00865*
Y02077*
X00844*
Y0207*
X00787*
Y02084*
X00773*
Y02091*
X00759*
Y02077*
X00773*
Y0207*
X00752*
Y02077*
X00717*
Y02063*
X00724*
Y02056*
X00731*
Y02049*
X00745*
Y02035*
X00752*
Y02028*
X00759*
Y02014*
X00752*
Y02006*
X00745*
Y01985*
X00752*
Y01943*
X00738*
Y01964*
X00731*
Y01971*
X00724*
Y01978*
X00717*
Y02006*
X0071*
Y01985*
X00703*
Y02014*
X00696*
Y02042*
X00689*
Y02063*
X00681*
Y02049*
X00674*
Y02042*
X00667*
Y02035*
X00653*
Y02021*
X00639*
Y01971*
X00646*
Y01929*
X00653*
Y01915*
X0066*
Y019*
X00667*
Y01886*
X00674*
Y01872*
X00681*
Y01865*
X00689*
Y01858*
X00703*
Y01851*
X00724*
Y01844*
X00731*
Y01851*
X00724*
Y01858*
X00731*
Y01851*
X00745*
Y01872*
X00752*
Y01886*
X00759*
Y01893*
X00766*
Y01915*
X0078*
Y01908*
X0083*
Y019*
X00837*
Y01893*
X00844*
Y01886*
X00865*
Y01893*
X00872*
Y019*
X00865*
Y01908*
X00858*
Y01915*
X00865*
Y01908*
X00872*
Y019*
X00886*
Y01908*
X00879*
Y01922*
X00872*
Y01929*
X00858*
Y01936*
X00844*
Y01943*
X00837*
Y0195*
X00816*
Y01957*
X00809*
Y01964*
X00816*
Y01971*
X0083*
Y01985*
X00837*
Y02014*
X00844*
Y02021*
X00851*
Y02035*
X00858*
Y02042*
X00872*
Y02049*
X00893*
Y02056*
X00901*
Y02063*
X00908*
Y0207*
X00915*
Y02077*
X00922*
Y02084*
X00929*
Y02091*
X00943*
Y02105*
X0095*
Y02112*
X00957*
Y0212*
G37*
G36*
X00667Y02077D02*
X0066D01*
Y02063*
X00667*
Y02077*
G37*
G36*
X0071D02*
X00703D01*
Y02063*
X0071*
Y02056*
X00717*
Y02063*
X0071*
Y02077*
G37*
G36*
Y02028D02*
X00703D01*
Y02021*
X0071*
Y02028*
G37*
G36*
X00971Y02077D02*
X00964D01*
Y0207*
Y02021*
X00971*
Y01992*
X00978*
Y01999*
X00985*
Y02006*
X00992*
Y02021*
X00999*
Y02035*
X01007*
Y02056*
X00999*
Y02063*
X00985*
Y0207*
X00971*
Y02077*
G37*
G36*
X0095Y01999D02*
X00943D01*
Y01992*
X0095*
Y01999*
G37*
G36*
X00964D02*
X00957D01*
Y01985*
X0095*
Y01978*
X00943*
Y01964*
X00936*
Y01971*
X00929*
Y01964*
X00936*
Y01957*
X00922*
Y01964*
X00915*
Y01957*
X00922*
Y01943*
X00936*
Y0195*
X00943*
Y01957*
X0095*
Y01964*
X00957*
Y01978*
X00964*
Y01985*
X00971*
Y01992*
X00964*
Y01999*
G37*
G36*
X00908Y0195D02*
X00901D01*
Y01943*
X00908*
Y0195*
G37*
G36*
X00922Y01943D02*
X00915D01*
Y01936*
X00922*
Y01943*
G37*
G36*
X00901D02*
X00893D01*
Y01936*
X00901*
Y01929*
Y01922*
X00908*
Y01929*
X00915*
Y01936*
X00901*
Y01943*
G37*
G36*
X00893Y01936D02*
X00886D01*
Y01922*
X00893*
Y01915*
X00901*
Y01922*
X00893*
Y01936*
G37*
G36*
X00618Y01971D02*
X00604D01*
Y01964*
X0059*
Y01957*
X00568*
Y0195*
X00533*
Y01943*
X00512*
Y01936*
X00491*
Y01929*
X00427*
Y01922*
X0042*
Y01915*
X00413*
Y01922*
X00399*
Y01915*
X00392*
Y01908*
X00378*
Y019*
X00363*
Y01893*
X00371*
Y01886*
X00363*
Y01893*
X00349*
Y01886*
X00342*
Y01879*
X00335*
Y01872*
X00328*
Y01865*
X00321*
Y01858*
X00314*
Y01851*
X00307*
Y01844*
X003*
Y0183*
X00293*
Y01823*
X00286*
Y01809*
X00279*
Y01794*
X00307*
Y01787*
X00328*
Y01794*
X00342*
Y01802*
X00356*
Y01809*
X0042*
Y01816*
X00434*
Y01823*
X00469*
Y0183*
X00477*
Y01823*
X00491*
Y01816*
X00498*
Y01802*
X00505*
Y01787*
X00512*
Y0178*
X00519*
Y01773*
X00561*
Y01766*
X00611*
Y01759*
X00625*
Y01816*
X00618*
Y01872*
X00611*
Y01957*
X00618*
Y01971*
G37*
G36*
X00893Y01915D02*
X00886D01*
Y01908*
X00893*
Y01915*
G37*
G36*
X0078Y01908D02*
X00773D01*
Y019*
X0078*
Y01908*
G37*
G36*
X0083Y019D02*
X00823D01*
Y01893*
X0083*
Y019*
G37*
G36*
X00279Y01794D02*
X00272D01*
Y01787*
X00279*
Y01794*
G37*
G36*
X00681Y01851D02*
X00674D01*
Y01844*
X0066*
Y0183*
X00653*
Y01816*
X00646*
Y01802*
X00639*
Y01745*
X00646*
Y01738*
X0071*
Y01745*
X00752*
Y01766*
X00759*
Y0178*
X00752*
Y01802*
X00745*
Y01794*
X00689*
Y01802*
X00681*
Y01851*
G37*
%LNbackplane_legend_top-3*%
%LPD*%
G36*
X00879Y0236D02*
X00865D01*
Y02367*
X00879*
Y0236*
G37*
G36*
X00773Y01964D02*
X00759D01*
Y01971*
X00773*
Y01964*
G37*
G36*
X00837Y01908D02*
X00858D01*
Y01893*
X00844*
Y019*
X00837*
Y01908*
X0083*
Y01915*
X00837*
Y01908*
G37*
G36*
X00992Y02049D02*
X00985D01*
Y02056*
X00992*
Y02049*
G37*
G36*
X00978Y02042D02*
X00971D01*
Y02049*
X00978*
Y02042*
G37*
G36*
X00992Y02035D02*
X00985D01*
Y02042*
X00992*
Y02035*
G37*
G54D10*
X00403Y01477D02*
D01*
X00403Y01477*
X00403Y01478*
X00403Y01478*
X00403Y01478*
X00403Y01478*
X00403Y01479*
X00403Y01479*
X00403Y01479*
X00403Y01479*
X00403Y0148*
X00402Y0148*
X00402Y0148*
X00402Y0148*
X00402Y0148*
X00401Y01481*
X00401Y01481*
X00401Y01481*
X00401Y01481*
X004Y01481*
X004Y01481*
X004Y01481*
X004Y01481*
X00399*
X00399Y01481*
X00399Y01481*
X00399Y01481*
X00398Y01481*
X00398Y01481*
X00398Y01481*
X00398Y01481*
X00397Y0148*
X00397Y0148*
X00397Y0148*
X00397Y0148*
X00396Y0148*
X00396Y01479*
X00396Y01479*
X00396Y01479*
X00396Y01479*
X00396Y01478*
X00396Y01478*
X00396Y01478*
X00396Y01478*
X00396Y01477*
X00396Y01477*
X00396Y01477*
X00396Y01477*
X00396Y01476*
X00396Y01476*
X00396Y01476*
X00396Y01475*
X00396Y01475*
X00396Y01475*
X00396Y01475*
X00396Y01475*
X00397Y01474*
X00397Y01474*
X00397Y01474*
X00397Y01474*
X00398Y01474*
X00398Y01474*
X00398Y01473*
X00398Y01473*
X00399Y01473*
X00399Y01473*
X00399Y01473*
X00399Y01473*
X004*
X004Y01473*
X004Y01473*
X004Y01473*
X00401Y01473*
X00401Y01473*
X00401Y01474*
X00401Y01474*
X00402Y01474*
X00402Y01474*
X00402Y01474*
X00402Y01474*
X00403Y01475*
X00403Y01475*
X00403Y01475*
X00403Y01475*
X00403Y01475*
X00403Y01476*
X00403Y01476*
X00403Y01476*
X00403Y01477*
X00403Y01477*
X00403Y01477*
X04903D02*
D01*
X04903Y01477*
X04903Y01478*
X04903Y01478*
X04903Y01478*
X04903Y01478*
X04903Y01479*
X04903Y01479*
X04903Y01479*
X04903Y01479*
X04903Y0148*
X04902Y0148*
X04902Y0148*
X04902Y0148*
X04902Y0148*
X04901Y01481*
X04901Y01481*
X04901Y01481*
X04901Y01481*
X049Y01481*
X049Y01481*
X049Y01481*
X049Y01481*
X04899*
X04899Y01481*
X04899Y01481*
X04899Y01481*
X04898Y01481*
X04898Y01481*
X04898Y01481*
X04898Y01481*
X04897Y0148*
X04897Y0148*
X04897Y0148*
X04897Y0148*
X04896Y0148*
X04896Y01479*
X04896Y01479*
X04896Y01479*
X04896Y01479*
X04896Y01478*
X04896Y01478*
X04896Y01478*
X04896Y01478*
X04896Y01477*
X04896Y01477*
X04896Y01477*
X04896Y01477*
X04896Y01476*
X04896Y01476*
X04896Y01476*
X04896Y01475*
X04896Y01475*
X04896Y01475*
X04896Y01475*
X04896Y01475*
X04897Y01474*
X04897Y01474*
X04897Y01474*
X04897Y01474*
X04898Y01474*
X04898Y01474*
X04898Y01473*
X04898Y01473*
X04899Y01473*
X04899Y01473*
X04899Y01473*
X04899Y01473*
X049*
X049Y01473*
X049Y01473*
X049Y01473*
X04901Y01473*
X04901Y01473*
X04901Y01474*
X04901Y01474*
X04902Y01474*
X04902Y01474*
X04902Y01474*
X04902Y01474*
X04903Y01475*
X04903Y01475*
X04903Y01475*
X04903Y01475*
X04903Y01475*
X04903Y01476*
X04903Y01476*
X04903Y01476*
X04903Y01477*
X04903Y01477*
X04903Y01477*
X01903D02*
D01*
X01903Y01477*
X01903Y01478*
X01903Y01478*
X01903Y01478*
X01903Y01478*
X01903Y01479*
X01903Y01479*
X01903Y01479*
X01903Y01479*
X01903Y0148*
X01902Y0148*
X01902Y0148*
X01902Y0148*
X01902Y0148*
X01901Y01481*
X01901Y01481*
X01901Y01481*
X01901Y01481*
X019Y01481*
X019Y01481*
X019Y01481*
X019Y01481*
X01899*
X01899Y01481*
X01899Y01481*
X01899Y01481*
X01898Y01481*
X01898Y01481*
X01898Y01481*
X01898Y01481*
X01897Y0148*
X01897Y0148*
X01897Y0148*
X01897Y0148*
X01896Y0148*
X01896Y01479*
X01896Y01479*
X01896Y01479*
X01896Y01479*
X01896Y01478*
X01896Y01478*
X01896Y01478*
X01896Y01478*
X01896Y01477*
X01896Y01477*
X01896Y01477*
X01896Y01477*
X01896Y01476*
X01896Y01476*
X01896Y01476*
X01896Y01475*
X01896Y01475*
X01896Y01475*
X01896Y01475*
X01896Y01475*
X01897Y01474*
X01897Y01474*
X01897Y01474*
X01897Y01474*
X01898Y01474*
X01898Y01474*
X01898Y01473*
X01898Y01473*
X01899Y01473*
X01899Y01473*
X01899Y01473*
X01899Y01473*
X019*
X019Y01473*
X019Y01473*
X019Y01473*
X01901Y01473*
X01901Y01473*
X01901Y01474*
X01901Y01474*
X01902Y01474*
X01902Y01474*
X01902Y01474*
X01902Y01474*
X01903Y01475*
X01903Y01475*
X01903Y01475*
X01903Y01475*
X01903Y01475*
X01903Y01476*
X01903Y01476*
X01903Y01476*
X01903Y01477*
X01903Y01477*
X01903Y01477*
X03403D02*
D01*
X03403Y01477*
X03403Y01478*
X03403Y01478*
X03403Y01478*
X03403Y01478*
X03403Y01479*
X03403Y01479*
X03403Y01479*
X03403Y01479*
X03403Y0148*
X03402Y0148*
X03402Y0148*
X03402Y0148*
X03402Y0148*
X03401Y01481*
X03401Y01481*
X03401Y01481*
X03401Y01481*
X034Y01481*
X034Y01481*
X034Y01481*
X034Y01481*
X03399*
X03399Y01481*
X03399Y01481*
X03399Y01481*
X03398Y01481*
X03398Y01481*
X03398Y01481*
X03398Y01481*
X03397Y0148*
X03397Y0148*
X03397Y0148*
X03397Y0148*
X03396Y0148*
X03396Y01479*
X03396Y01479*
X03396Y01479*
X03396Y01479*
X03396Y01478*
X03396Y01478*
X03396Y01478*
X03396Y01478*
X03396Y01477*
X03396Y01477*
X03396Y01477*
X03396Y01477*
X03396Y01476*
X03396Y01476*
X03396Y01476*
X03396Y01475*
X03396Y01475*
X03396Y01475*
X03396Y01475*
X03396Y01475*
X03397Y01474*
X03397Y01474*
X03397Y01474*
X03397Y01474*
X03398Y01474*
X03398Y01474*
X03398Y01473*
X03398Y01473*
X03399Y01473*
X03399Y01473*
X03399Y01473*
X03399Y01473*
X034*
X034Y01473*
X034Y01473*
X034Y01473*
X03401Y01473*
X03401Y01473*
X03401Y01474*
X03401Y01474*
X03402Y01474*
X03402Y01474*
X03402Y01474*
X03402Y01474*
X03403Y01475*
X03403Y01475*
X03403Y01475*
X03403Y01475*
X03403Y01475*
X03403Y01476*
X03403Y01476*
X03403Y01476*
X03403Y01477*
X03403Y01477*
X03403Y01477*
G54D11*
X0086Y00508D02*
Y01452D01*
X00159Y00508D02*
Y01452D01*
X0086*
X00159Y00508D02*
X0086D01*
X04659D02*
X0536D01*
X04659Y01452D02*
X0536D01*
X04659Y00508D02*
Y01452D01*
X0536Y00508D02*
Y01452D01*
X0236Y00508D02*
Y01452D01*
X01659Y00508D02*
Y01452D01*
X0236*
X01659Y00508D02*
X0236D01*
X03159D02*
X0386D01*
X03159Y01452D02*
X0386D01*
X03159Y00508D02*
Y01452D01*
X0386Y00508D02*
Y01452D01*
G54D12*
X00198Y01574D02*
X00178D01*
X00188*
Y01525*
X00178Y01515*
X00169*
X00159Y01525*
X00218Y01515D02*
X00238D01*
X00228*
Y01574*
X00218Y01564*
X04698Y01574D02*
X04678D01*
X04688*
Y01525*
X04678Y01515*
X04669*
X04659Y01525*
X04748Y01515D02*
Y01574D01*
X04718Y01544*
X04758*
X01698Y01574D02*
X01678D01*
X01688*
Y01525*
X01678Y01515*
X01669*
X01659Y01525*
X01758Y01515D02*
X01718D01*
X01758Y01554*
Y01564*
X01748Y01574*
X01728*
X01718Y01564*
X03198Y01574D02*
X03178D01*
X03188*
Y01525*
X03178Y01515*
X03169*
X03159Y01525*
X03218Y01564D02*
X03228Y01574D01*
X03248*
X03258Y01564*
Y01554*
X03248Y01544*
X03238*
X03248*
X03258Y01534*
Y01525*
X03248Y01515*
X03228*
X03218Y01525*
M02*