M48
;Layer_Color=9474304
;FILE_FORMAT=2:4
METRIC,LZ
;TYPE=PLATED
T1F00S00C0.2540
T2F00S00C0.3810
T3F00S00C0.7250
T4F00S00C1.0200
T5F00S00C1.1100
T6F00S00C2.5400
%
T01
X03556Y3175
X33528Y37719
X52324Y38227
Y35814
X473723Y204729
X711824Y221488
X78867Y21971
X525652Y4064
X52324Y43053
X522242Y452661
X52324Y47879
X424114Y696302
X60452Y75565
X25019Y47879
Y41529
X29972
X14351Y48895
X1397Y5207
X10668Y5461
X08382Y4699
X02032Y40513
T02
X067564Y102108
X103886Y09779
X16256Y127
X160528Y206502
X17526Y196596
X162306Y322072
X179324Y335661
X229843Y342392
X228854Y32639
Y375158
X248285Y395732
X386588Y377698
X392938Y37084
X33147Y23876
X3302Y22352
X301244Y22606
X3048Y17399
X279146Y150876
X09271Y253238
X052578Y2921
X01143Y191008
X410464Y166116
X443738Y154051
X426595Y09779
X503936Y105156
X535432Y068326
X563118Y08509
X627888Y189738
X63119Y31496
X61214Y32893
X551688Y35553
X53721Y378587
X564388Y394462
X48641Y3937
X447294Y376428
X40386Y31242
X52451Y252222
X655193Y379222
X66548Y380746
X76581Y368503
X665734Y423164
X542036Y43561
X540766Y472948
X53721Y504952
X611632Y533146
X54737Y60198
X535686Y630174
X456381Y59055
X412496Y686054
X48493Y74422
X487426Y43053
X44958Y4191
X440182Y400558
X42545Y425958
X418592Y44057
X425196Y481838
X36576Y509016
X35306Y45466
X36576Y44069
X374918Y40616
X2413Y41402
X179578Y40513
X283433Y468809
X2413Y537464
X135128
X136607Y56896
X14732Y602742
X102616Y599694
X10922Y622046
X01143Y55118
X320503Y706628
T03
X0627Y122
X0827
X1027
X1227
Y142
Y162
Y182
Y202
Y222
Y242
Y262
Y282
Y302
Y322
Y342
X1027
Y322
Y302
Y282
Y262
Y242
Y222
Y202
Y182
Y162
Y142
X0827
Y162
Y182
Y202
Y222
Y242
Y262
Y282
Y302
Y322
Y342
X0627
Y322
Y302
Y282
Y262
Y242
Y222
Y202
Y182
Y162
Y142
X1427
Y122
Y162
Y182
Y202
Y222
Y242
Y262
Y282
Y302
Y322
Y342
T04
X0635Y38608
X0889
X41529Y76708
X47498
X50038
X38989
T05
X24511Y13081
X27051
X29591
X32131
X34671
X37211
Y15621
Y18161
Y20701
Y23241
Y25781
Y28321
X34671
X32131
X29591
X27051
X24511
X39751
X42291
X44831
X47371
X49911
X52451
X54991
X57531
X60071
X62611
X65151
X67691
X70231
X72771
X75311
X77851
X76581Y25271
X74041
X71501
X68961
X66421
X67691Y13081
X70231
X72771
X75311
X77851
X65151
X62611
X60071
X57531
X54991
X52451
X49911
X47371
X44831
X42291
X39751
X80391
Y15621
X82931Y13081
Y28321
X80391
Y57404
X82931
Y72644
X80391
X77851
X75311
X72771
X70231
X67691
X65151
X62611
X60071
X57531
X54991
X52451
X49911
X47371
X44831
X42291
X39751
X41021Y60454
X39751Y57404
X42291
X44831
X47371
X49911
X52451
X54991
X57531
X60071
X62611
X65151
X67691
X70231
X72771
X75311
X77851
X70231Y59944
Y62484
Y65024
Y67564
Y70104
X37211Y72644
X34671
X32131
X29591
X27051
X24511
X27051Y70104
Y57404
X29591
X32131
X34671
X37211
X38481Y60454
X35941
X33401
X30861
X24511Y57404
T06
X0227Y172
Y292
M30
