M48
;Layer_Color=9474304
;FILE_FORMAT=2:4
METRIC,LZ
;TYPE=PLATED
T1F00S00C0.2540
T2F00S00C0.3302
T3F00S00C0.3810
T4F00S00C0.7250
T5F00S00C1.0200
T6F00S00C1.1100
T7F00S00C2.5400
%
T01
X3937Y18034
X25146Y36195
X52324Y35814
X525272Y38227
X47879Y16129
X52451Y40513
Y43053
Y45466
Y47498
X51943Y50419
X23241Y48514
X22606Y44831
X102993Y494194
X05334Y51181
X132203Y566584
X191893Y591984
T02
X2667Y148717
X27178Y199517
X354424Y20574
X3556Y161163
X38735Y186563
X3937Y30099
X2794Y36068
X4191Y26416
X427084Y227457
X46101Y22987
X45593Y213487
X484759Y21971
X47625Y23622
X47879Y1778
X50038Y17272
X50927Y15748
X53721Y15875
X53086Y18669
Y22733
X5715Y21717
X57531Y24765
X58801Y25019
X604647Y25527
X627187Y263969
X64135Y26162
X630405Y215624
X631006Y1905
X63246Y16764
X62865Y15494
X657987Y18542
X66167Y20955
X66802Y22987
X71501Y23368
Y22225
X63627Y31877
X6477Y333883
X61341Y30226
X56261Y270637
X55372Y26416
X441833Y1778
X43053Y16764
X43942Y15113
X39878Y46355
X35306Y45593
X33909Y44069
X305697Y413123
X20701Y415163
X20447Y428117
T03
X09525Y102362
X07112Y21209
X046482Y208026
X048665Y291775
X113284Y358394
X133096Y382016
X158496Y37846
X151638Y370586
X221234Y38354
X24511Y25908
X248666Y219202
X251968Y202184
X25908Y177292
X303022Y15494
X34671Y18415
X39624Y20701
X37211Y324104
X358648Y364744
X214376Y242
X188214Y17145
X4064Y16764
X43434Y185674
X411988Y094488
X49911Y26035
X517906Y296672
X466852Y330708
X453136Y34671
X44831Y3683
X49022Y37338
X420624Y39116
X716788Y371094
X76581Y10922
X68834Y440944
X670814Y471932
X63373Y456946
X621284Y431292
X65532Y421132
X57531Y40053
X568452Y46736
X544068Y479044
X53086Y46355
X49784Y42164
X47625Y41529
X416306
X417068Y42557
X437388Y43815
X40894Y478028
X421132Y505968
X422402Y542544
X477266Y505968
X60071Y510032
X61468Y48307
X634492Y524002
X653117Y548049
X556768Y557276
X529563Y676883
X51308Y687578
X34798Y684276
X29718Y688848
X30988Y586232
X33274Y542544
X338074Y46609
X354584Y437134
X353568Y41529
X22987Y414782
X215392Y44069
X237998Y45339
X236049Y468293
X140716Y451866
X09906Y439674
X098806Y425704
Y409194
X125471Y543342
X15621Y638556
X163068Y64643
X160528Y712724
X191008Y604012
X238832
X00889Y62611
T04
X0627Y122
X0827
X1027
X1227
Y142
Y162
Y182
Y202
Y222
Y242
Y262
Y282
Y302
Y322
Y342
X1027
Y322
Y302
Y282
Y262
Y242
Y222
Y202
Y182
Y162
Y142
X0827
Y162
Y182
Y202
Y222
Y242
Y262
Y282
Y302
Y322
Y342
X0627
Y322
Y302
Y282
Y262
Y242
Y222
Y202
Y182
Y162
Y142
X1427
Y122
Y162
Y182
Y202
Y222
Y242
Y262
Y282
Y302
Y322
Y342
T05
X0635Y38608
X0889
X41529Y76708
X47498
X50038
X38989
T06
X24511Y13081
X27051
X29591
X32131
X34671
X37211
Y15621
Y18161
Y20701
Y23241
Y25781
Y28321
X34671
X32131
X29591
X27051
X24511
X39751
X42291
X44831
X47371
X49911
X52451
X54991
X57531
X60071
X62611
X65151
X67691
X70231
X72771
X75311
X77851
X76581Y25271
X74041
X71501
X68961
X66421
X65151Y13081
X62611
X60071
X57531
X54991
X52451
X49911
X47371
X44831
X42291
X39751
X67691
X70231
X72771
X75311
X77851
X80391
X82931
X80391Y15621
Y28321
X82931
Y57404
X80391
Y72644
X82931
X77851
X75311
X72771
X70231
X67691
X65151
X62611
X60071
X57531
X54991
X52451
X49911
X47371
X44831
X42291
X39751
X41021Y60454
X39751Y57404
X42291
X44831
X47371
X49911
X52451
X54991
X57531
X60071
X62611
X65151
X67691
X70231
X72771
X75311
X77851
X70231Y59944
Y62484
Y65024
Y67564
Y70104
X37211Y72644
X34671
X32131
X29591
X27051
X24511
X27051Y70104
Y57404
X29591
X32131
X34671
X37211
X38481Y60454
X35941
X33401
X30861
X24511Y57404
T07
X0227Y172
Y292
M30
