M48
;Layer_Color=9474304
;FILE_FORMAT=2:4
METRIC,LZ
;TYPE=PLATED
T1F00S00C0.7112
T2F00S00C0.8200
T3F00S00C0.9000
T4F00S00C1.0000
T5F00S00C1.1000
T6F00S00C1.8500
%
T01
X117602Y28956
X83566Y25908
X75184Y30734
X72136Y2794
X63754Y2921
X601726Y26924
X778101Y341221
X5588Y02794
X4826Y19558
X40894Y33782
X36068Y3937
X28448Y3556
X254Y48768
X32258Y63246
X38354Y61976
X4191Y70866
X49276Y64262
X44958Y44704
X4953Y39116
X54864Y4191
X5842Y45974
X59944Y35052
X6731Y35814
X70358
X68961Y39497
X6477Y38608
X70358Y50038
X61468Y71628
X99568Y61722
X91186Y53086
X100076Y44958
X11176Y50038
X117602Y53594
X118364Y90424
X59436Y93726
X53594Y94234
X53086Y8636
X63754Y98806
X4826Y97282
X49784Y94488
X48514Y8636
X45974Y86614
X4699Y87884
X46482Y84836
X397889Y885796
X39878Y91186
X35052Y87122
X2921Y87884
X245856Y879364
X24384Y85598
X25908Y83058
X29718Y83312
X32766Y9525
X26924Y96012
X-0889Y87884
X13716Y115316
T02
X43006Y47752
X48006
X4822Y56896
X4322
X4322Y65786
X4822
X106934Y62912
Y57912
X108926Y51054
X103926
X103712Y41656
X108712
T03
X105647Y69636
Y72136
Y74636
X43671Y7497
Y7747
Y7997
T04
X-016514Y501827
Y521827
Y541028
Y561828
Y581027
Y601828
Y621027
Y641827
Y661027
Y681827
Y701827
X339086Y681827
Y661027
Y641827
Y621027
Y601828
Y581027
Y561828
Y541028
Y521827
X364486
Y541028
Y561828
Y581027
Y601828
Y621027
Y641827
Y661027
Y681827
X58674Y6769
Y6969
Y6561
Y6369
Y6161
Y5969
Y5761
Y5569
Y5361
Y5169
Y4969
X94234Y5169
Y5361
Y5569
Y5761
Y5969
Y6161
Y6369
Y6561
Y6769
X96774
Y6561
Y6369
Y6161
Y5969
Y5761
Y5569
Y5361
Y5169
T05
X93218Y84582
X95758
X90678
T06
X103632Y0508
X111882
X127Y24892
Y33142
X73782Y05334
X65532
X41778Y04572
X33528
X21082Y04318
X12832
X-16256Y5525
Y635
X127508Y63622
Y55372
X127Y83952
Y92202
X106548Y108966
X98298
X75306Y109474
X67056
X42286Y110236
X34036
X21458
X13208
X-16764Y89784
Y81534
M30
