M48
;Layer_Color=9474304
;FILE_FORMAT=2:4
METRIC,LZ
;TYPE=PLATED
T1F00S00C0.7112
T2F00S00C1.0000
T3F00S00C1.2954
T4F00S00C4.5000
%
T01
X91168Y22541
X79738Y24446
X76944Y30288
X57005Y23176
X52052Y17334
X48242Y18858
X45194Y16826
X45702Y21779
X39987Y26478
Y2851
X30589Y27113
X30081Y22541
X24874Y15937
X22207Y14413
X26017Y11873
X1446Y10476
X19286Y19112
X20556Y26732
X13698
X44432Y09714
X49512Y11746
X1065Y10476
X09507Y17461
X043Y20509
X07475Y30034
X10523Y41337
T02
X13063Y06539
X2339Y07301
X2589
X2839
X10563Y06539
X08063
T03
X91168Y30288
X75801Y10349
X70721
X23477Y41464
X18397
X67673Y40956
X72753
X91168Y35368
T04
X97Y03
X03
Y47
X97
M30
