M48
;Layer_Color=9474304
;FILE_FORMAT=4:4
METRIC,LZ
;TYPE=PLATED
T1F00S00C0.7112
T2F00S00C0.8200
T3F00S00C0.9000
T4F00S00C1.0000
T5F00S00C1.1000
T6F00S00C1.8500
T7F00S00C3.0000
%
T01
X0117602Y0028956
X0083566Y0025908
X0075184Y0030734
X0072136Y002794
X0063754Y002921
X00601726Y0026924
X00778101Y00341221
X005588Y0002794
X004826Y0019558
X0040894Y0033782
X0036068Y003937
X0028448Y003556
X00254Y0048768
X0032258Y0063246
X0038354Y0061976
X004191Y0070866
X0049276Y0064262
X0044958Y0044704
X004953Y0039116
X0054864Y004191
X005842Y0045974
X0059944Y0035052
X006731Y0035814
X0070358
X0068961Y0039497
X006477Y0038608
X0070358Y0050038
X0061468Y0071628
X0099568Y0061722
X0091186Y0053086
X0100076Y0044958
X011176Y0050038
X0117602Y0053594
X0118364Y0090424
X0059436Y0093726
X0053594Y0094234
X0053086Y008636
X0063754Y0098806
X004826Y0097282
X0049784Y0094488
X0048514Y008636
X0045974Y0086614
X004699Y0087884
X0046482Y0084836
X00397889Y00885796
X0039878Y0091186
X0035052Y0087122
X002921Y0087884
X00245856Y00879364
X0024384Y0085598
X0025908Y0083058
X0029718Y0083312
X0032766Y009525
X0026924Y0096012
X-000889Y0087884
X0013716Y0115316
T02
X0043006Y0047752
X0048006
X004822Y0056896
X004322
X004322Y0065786
X004822
X0106934Y0062912
Y0057912
X0108926Y0051054
X0103926
X0103712Y0041656
X0108712
T03
X0105647Y0069636
Y0072136
Y0074636
X0043671Y007497
Y007747
Y007997
T04
X-00016514Y00501827
Y00521827
Y00541028
Y00561828
Y00581027
Y00601828
Y00621027
Y00641827
Y00661027
Y00681827
Y00701827
X00339086Y00681827
Y00661027
Y00641827
Y00621027
Y00601828
Y00581027
Y00561828
Y00541028
Y00521827
X00364486
Y00541028
Y00561828
Y00581027
Y00601828
Y00621027
Y00641827
Y00661027
Y00681827
X0058674Y006769
Y006969
Y006561
Y006369
Y006161
Y005969
Y005761
Y005569
Y005361
Y005169
Y004969
X0094234Y005169
Y005361
Y005569
Y005761
Y005969
Y006161
Y006369
Y006561
Y006769
X0096774
Y006561
Y006369
Y006161
Y005969
Y005761
Y005569
Y005361
Y005169
T05
X0093218Y0084582
X0095758
X0090678
T06
X0103632Y000508
X0111882
X0127Y0024892
Y0033142
X0073782Y0005334
X0065532
X0041778Y0004572
X0033528
X0021082Y0004318
X0012832
X-0016256Y005525
Y00635
X0127508Y0063622
Y0055372
X0127Y0083952
Y0092202
X0106548Y0108966
X0098298
X0075306Y0109474
X0067056
X0042286Y0110236
X0034036
X0021458
X0013208
X-0016764Y0089784
Y0081534
T07
X0127Y0000762
X-001778
Y01143
X0127
M30
