G04*
G04 #@! TF.GenerationSoftware,Altium Limited,Altium Designer,22.10.1 (41)*
G04*
G04 Layer_Color=32768*
%FSLAX44Y44*%
%MOMM*%
G71*
G04*
G04 #@! TF.SameCoordinates,E145AED0-6931-4EEB-B232-2A21EE6FFB4C*
G04*
G04*
G04 #@! TF.FilePolarity,Positive*
G04*
G01*
G75*
%ADD10C,0.2000*%
%ADD68C,0.0500*%
D10*
X127880Y255240D02*
Y283240D01*
X110880Y255240D02*
X127880D01*
X110880D02*
Y283240D01*
X127880D01*
X130420Y178920D02*
Y206920D01*
X113420Y178920D02*
X130420D01*
X113420D02*
Y206920D01*
X130420D01*
X461400Y250160D02*
Y278160D01*
X478400D01*
Y250160D02*
Y278160D01*
X461400Y250160D02*
X478400D01*
X483480Y176500D02*
Y204500D01*
X466480Y176500D02*
X483480D01*
X466480D02*
Y204500D01*
X483480D01*
X78361Y252847D02*
Y286909D01*
X58799Y252847D02*
X78361D01*
X58799D02*
Y286909D01*
X78361D01*
X80901Y179187D02*
Y213249D01*
X61339Y179187D02*
X80901D01*
X61339D02*
Y213249D01*
X80901D01*
X409319Y246491D02*
Y280553D01*
X428881D01*
Y246491D02*
Y280553D01*
X409319Y246491D02*
X428881D01*
X431421Y176009D02*
Y210071D01*
X411859Y176009D02*
X431421D01*
X411859D02*
Y210071D01*
X431421D01*
X599079Y197740D02*
Y213740D01*
Y197740D02*
X625201D01*
Y213740D01*
X599079D02*
X625201D01*
X565300Y133740D02*
Y150740D01*
X537300D02*
X565300D01*
X537300Y133740D02*
Y150740D01*
Y133740D02*
X565300D01*
X604159Y276480D02*
Y292480D01*
Y276480D02*
X630281D01*
Y292480D01*
X604159D02*
X630281D01*
X552420Y301380D02*
Y318380D01*
Y301380D02*
X580420D01*
Y318380D01*
X552420D02*
X580420D01*
X258072Y197740D02*
Y213740D01*
Y197740D02*
X284193D01*
Y213740D01*
X258072D02*
X284193D01*
X217200Y131200D02*
Y148200D01*
X189200D02*
X217200D01*
X189200Y131200D02*
Y148200D01*
Y131200D02*
X217200D01*
X255532Y279020D02*
Y295020D01*
Y279020D02*
X281653D01*
Y295020D01*
X255532D02*
X281653D01*
X194160Y311540D02*
Y328540D01*
Y311540D02*
X222160D01*
Y328540D01*
X194160D02*
X222160D01*
X917319Y84569D02*
X936881D01*
Y118631D01*
X917319D02*
X936881D01*
X917319Y84569D02*
Y118631D01*
X856220Y81084D02*
X886220D01*
Y122116D01*
X856220D02*
X886220D01*
X856220Y81084D02*
Y122116D01*
X798290Y677880D02*
X857790D01*
X798290Y576880D02*
Y677880D01*
Y576880D02*
X857790D01*
Y677880D01*
X803200Y540720D02*
X862700D01*
X803200Y439720D02*
Y540720D01*
Y439720D02*
X862700D01*
Y540720D01*
X957480Y760190D02*
Y819690D01*
X881480D02*
X957480D01*
X881480Y760190D02*
Y819690D01*
Y760190D02*
X957480D01*
Y833850D02*
Y893350D01*
X881480D02*
X957480D01*
X881480Y833850D02*
Y893350D01*
Y833850D02*
X957480D01*
X625201Y172340D02*
Y188340D01*
X599079D02*
X625201D01*
X599079Y172340D02*
Y188340D01*
Y172340D02*
X625201D01*
X630281Y251080D02*
Y267080D01*
X604159D02*
X630281D01*
X604159Y251080D02*
Y267080D01*
Y251080D02*
X630281D01*
X284841Y174880D02*
Y190880D01*
X258719D02*
X284841D01*
X258719Y174880D02*
Y190880D01*
Y174880D02*
X284841D01*
X282301Y251080D02*
Y267080D01*
X256179D02*
X282301D01*
X256179Y251080D02*
Y267080D01*
Y251080D02*
X282301D01*
X800660Y812900D02*
X860160D01*
X800660Y711900D02*
Y812900D01*
Y711900D02*
X860160D01*
Y812900D01*
X960020Y689070D02*
Y748570D01*
X884020D02*
X960020D01*
X884020Y689070D02*
Y748570D01*
Y689070D02*
X960020D01*
X833360Y406596D02*
X863360D01*
X833360Y365564D02*
Y406596D01*
Y365564D02*
X863360D01*
Y406596D01*
X784230Y399540D02*
X800730D01*
X784230Y367540D02*
Y399540D01*
Y367540D02*
X800730D01*
Y399540D01*
X764919Y112509D02*
X784481D01*
Y146571D01*
X764919D02*
X784481D01*
X764919Y112509D02*
Y146571D01*
X708900Y111564D02*
X738900D01*
Y152596D01*
X708900D02*
X738900D01*
X708900Y111564D02*
Y152596D01*
D68*
X45940Y937260D02*
G03*
X45940Y937260I-18000J0D01*
G01*
X990820Y647700D02*
G03*
X990820Y647700I-18000J0D01*
G01*
X365980Y469900D02*
G03*
X365980Y469900I-18000J0D01*
G01*
X929860Y149860D02*
G03*
X929860Y149860I-18000J0D01*
G01*
M02*
