G04*
G04 #@! TF.GenerationSoftware,Altium Limited,Altium Designer,22.10.1 (41)*
G04*
G04 Layer_Color=65535*
%FSLAX44Y44*%
%MOMM*%
G71*
G04*
G04 #@! TF.SameCoordinates,96092411-4BE1-4E5F-83DD-11E1D8B77A3F*
G04*
G04*
G04 #@! TF.FilePolarity,Positive*
G04*
G01*
G75*
%ADD10C,0.2000*%
%ADD11C,0.1500*%
%ADD12C,0.2500*%
%ADD13C,0.1524*%
%ADD14C,0.2540*%
%ADD15C,0.1270*%
%ADD16C,0.0762*%
D10*
X975000Y213360D02*
G03*
X975000Y213360I-40000J0D01*
G01*
X883280Y254000D02*
G03*
X883280Y254000I-40000J0D01*
G01*
X786760Y272060D02*
G03*
X786760Y272060I-40000J0D01*
G01*
X775180Y566470D02*
G03*
X775180Y566470I-1000J0D01*
G01*
X814460Y683260D02*
G03*
X814460Y683260I-1000J0D01*
G01*
X945880Y269900D02*
G03*
X945880Y269900I-1000J0D01*
G01*
X870820Y332740D02*
G03*
X870820Y332740I-25000J0D01*
G01*
X786760Y373380D02*
G03*
X786760Y373380I-40000J0D01*
G01*
X877850Y213360D02*
X890550D01*
X884200Y207010D02*
Y219710D01*
X786130Y254000D02*
X798830D01*
X792480Y247650D02*
Y260350D01*
X795990Y444900D02*
Y494900D01*
X956610Y546500D02*
Y596500D01*
X664640Y926460D02*
X763640D01*
X664640D02*
Y983960D01*
X763640D01*
Y926460D02*
Y983960D01*
X824789Y821761D02*
Y879261D01*
Y821761D02*
X973789D01*
Y874511D02*
Y879261D01*
Y821761D02*
Y856011D01*
X824789Y879261D02*
X973789D01*
X822120Y740870D02*
Y798370D01*
Y740870D02*
X971120D01*
Y793620D02*
Y798370D01*
Y740870D02*
Y775120D01*
X822120Y798370D02*
X971120D01*
X771350Y989300D02*
X828850D01*
X771350Y890300D02*
Y989300D01*
Y890300D02*
X828850D01*
Y989300D01*
X740410Y322860D02*
X753110D01*
X746760Y316510D02*
Y329210D01*
X489050Y674914D02*
Y676366D01*
X501550Y674914D02*
Y676366D01*
X780650Y767370D02*
Y771870D01*
X794150Y767370D02*
Y771870D01*
X130130Y258240D02*
Y280240D01*
X108630Y258240D02*
Y280240D01*
X132670Y181920D02*
Y203920D01*
X111170Y181920D02*
Y203920D01*
X459150Y253160D02*
Y275160D01*
X480650Y253160D02*
Y275160D01*
X485730Y179500D02*
Y201500D01*
X464230Y179500D02*
Y201500D01*
X57299Y255347D02*
Y284409D01*
X79861Y255347D02*
Y284409D01*
X59839Y181687D02*
Y210749D01*
X82401Y181687D02*
Y210749D01*
X430381Y248991D02*
Y278053D01*
X407819Y248991D02*
Y278053D01*
X410359Y178509D02*
Y207571D01*
X432921Y178509D02*
Y207571D01*
X612140Y198740D02*
Y212740D01*
X540300Y152990D02*
X562300D01*
X540300Y131490D02*
X562300D01*
X555420Y299130D02*
X577420D01*
X555420Y320630D02*
X577420D01*
X271133Y198740D02*
Y212740D01*
X192200Y150450D02*
X214200D01*
X192200Y128950D02*
X214200D01*
X197160Y309290D02*
X219160D01*
X197160Y330790D02*
X219160D01*
X848200Y22220D02*
X955200D01*
X848200Y17220D02*
X955200D01*
X848200Y64220D02*
X955200D01*
Y17220D02*
Y64220D01*
X848200Y17220D02*
Y64220D01*
X895499Y87069D02*
Y116131D01*
X918061Y87069D02*
Y116131D01*
X857220Y92615D02*
Y110584D01*
X885220Y92615D02*
Y110584D01*
X612140Y173340D02*
Y187340D01*
X617220Y252080D02*
Y266080D01*
X271780Y175880D02*
Y189880D01*
X269240Y252080D02*
Y266080D01*
X666720Y839930D02*
Y897430D01*
X567720D02*
X666720D01*
X567720Y839930D02*
Y897430D01*
Y839930D02*
X666720D01*
X753280Y839930D02*
Y897430D01*
X679280D02*
X753280D01*
X679280Y839930D02*
Y897430D01*
Y839930D02*
X753280D01*
X872520Y377095D02*
Y395065D01*
X844520Y377095D02*
Y395065D01*
X810420Y372490D02*
Y394590D01*
X830420Y372490D02*
Y394590D01*
X746760Y417830D02*
Y430530D01*
X740410Y424180D02*
X753110D01*
X712619Y115009D02*
Y144071D01*
X735181Y115009D02*
Y144071D01*
X763240Y125126D02*
Y143095D01*
X791240Y125126D02*
Y143095D01*
D11*
X893240Y469900D02*
G03*
X893240Y469900I-52500J0D01*
G01*
X964360Y571500D02*
G03*
X964360Y571500I-52500J0D01*
G01*
X845692Y293660D02*
Y303657D01*
X840694Y298658D02*
X850691D01*
D12*
X770140Y949460D02*
G03*
X770140Y949460I-1250J0D01*
G01*
X981039Y845261D02*
G03*
X981039Y845261I-1250J0D01*
G01*
X978370Y764370D02*
G03*
X978370Y764370I-1250J0D01*
G01*
X807100Y994550D02*
G03*
X807100Y994550I-1250J0D01*
G01*
X928350Y70720D02*
G03*
X928350Y70720I-1250J0D01*
G01*
X673220Y862930D02*
G03*
X673220Y862930I-1250J0D01*
G01*
X761280Y863430D02*
G03*
X761280Y863430I-1250J0D01*
G01*
D13*
X341630Y556768D02*
G03*
X341630Y556768I-1270J0D01*
G01*
X401574D02*
G03*
X401574Y556768I-61214J0D01*
G01*
X207010D02*
G03*
X207010Y556768I-1270J0D01*
G01*
X266954D02*
G03*
X266954Y556768I-61214J0D01*
G01*
X74930Y558292D02*
G03*
X74930Y558292I-1270J0D01*
G01*
X134874D02*
G03*
X134874Y558292I-61214J0D01*
G01*
X346710Y736092D02*
G03*
X346710Y736092I-1270J0D01*
G01*
X406654D02*
G03*
X406654Y736092I-61214J0D01*
G01*
X214630D02*
G03*
X214630Y736092I-1270J0D01*
G01*
X274574D02*
G03*
X274574Y736092I-61214J0D01*
G01*
X80010Y737108D02*
G03*
X80010Y737108I-1270J0D01*
G01*
X139954D02*
G03*
X139954Y737108I-61214J0D01*
G01*
X334010Y487934D02*
X346710D01*
X340360Y481584D02*
Y494284D01*
X199390Y487934D02*
X212090D01*
X205740Y481584D02*
Y494284D01*
X67310Y489458D02*
X80010D01*
X73660Y483108D02*
Y495808D01*
X339090Y667258D02*
X351790D01*
X345440Y660908D02*
Y673608D01*
X207010Y667258D02*
X219710D01*
X213360Y660908D02*
Y673608D01*
X72390Y668274D02*
X85090D01*
X78740Y661924D02*
Y674624D01*
X176911Y292989D02*
X219329D01*
X176911Y240411D02*
X219329D01*
X524891Y290449D02*
X567309D01*
X524891Y237871D02*
X567309D01*
X527431Y214249D02*
X569849D01*
X527431Y161671D02*
X569849D01*
X179451Y214249D02*
X221869D01*
X179451Y161671D02*
X221869D01*
D14*
X387350Y838200D02*
Y899160D01*
X322580Y838200D02*
Y899160D01*
Y838200D02*
X387350D01*
X322580Y899160D02*
X387350D01*
X463550Y838200D02*
Y899160D01*
X398780Y838200D02*
Y899160D01*
Y838200D02*
X463550D01*
X398780Y899160D02*
X463550D01*
X534670Y838200D02*
Y899160D01*
X469900Y838200D02*
Y899160D01*
Y838200D02*
X534670D01*
X469900Y899160D02*
X534670D01*
X95250Y840740D02*
Y901700D01*
X30480Y840740D02*
Y901700D01*
Y840740D02*
X95250D01*
X30480Y901700D02*
X95250D01*
X171450Y840740D02*
Y901700D01*
X106680Y840740D02*
Y901700D01*
Y840740D02*
X171450D01*
X106680Y901700D02*
X171450D01*
X247650Y840740D02*
Y901700D01*
X182880Y840740D02*
Y901700D01*
Y840740D02*
X247650D01*
X182880Y901700D02*
X247650D01*
X363020Y451380D02*
X690520D01*
X363020Y19580D02*
X690520D01*
Y451380D01*
X363020Y19580D02*
Y451380D01*
X22660Y453920D02*
X350160D01*
X22660Y22120D02*
X350160D01*
Y453920D01*
X22660Y22120D02*
Y453920D01*
X976630Y927100D02*
Y988060D01*
X835660Y927100D02*
Y988060D01*
Y927100D02*
X976630D01*
X835660Y988060D02*
X976630D01*
X191384Y927100D02*
Y988060D01*
X50414Y927100D02*
Y988060D01*
Y927100D02*
X191384D01*
X50414Y988060D02*
X191384D01*
X344170Y927100D02*
Y988060D01*
X203200Y927100D02*
Y988060D01*
Y927100D02*
X344170D01*
X203200Y988060D02*
X344170D01*
X499110Y927100D02*
Y988060D01*
X358140Y927100D02*
Y988060D01*
Y927100D02*
X499110D01*
X358140Y988060D02*
X499110D01*
X656590Y927100D02*
Y988060D01*
X515620Y927100D02*
Y988060D01*
Y927100D02*
X656590D01*
X515620Y988060D02*
X656590D01*
X694690Y19050D02*
X808990D01*
X694690D02*
Y102616D01*
X695198Y102870D02*
X808990D01*
Y19050D02*
Y102870D01*
X889658Y274951D02*
X887119Y277490D01*
X882040D01*
X879501Y274951D01*
Y264794D01*
X882040Y262255D01*
X887119D01*
X889658Y264794D01*
X904893Y262255D02*
X894736D01*
X904893Y272412D01*
Y274951D01*
X902354Y277490D01*
X897275D01*
X894736Y274951D01*
X920128Y277490D02*
X909971D01*
Y269872D01*
X915050Y272412D01*
X917589D01*
X920128Y269872D01*
Y264794D01*
X917589Y262255D01*
X912510D01*
X909971Y264794D01*
X797938Y315591D02*
X795398Y318130D01*
X790320D01*
X787781Y315591D01*
Y305434D01*
X790320Y302895D01*
X795398D01*
X797938Y305434D01*
X813173Y302895D02*
X803016D01*
X813173Y313052D01*
Y315591D01*
X810634Y318130D01*
X805555D01*
X803016Y315591D01*
X825869Y302895D02*
Y318130D01*
X818251Y310513D01*
X828408D01*
X798954Y544699D02*
X796414Y547238D01*
X791336D01*
X788797Y544699D01*
Y534542D01*
X791336Y532003D01*
X796414D01*
X798954Y534542D01*
X814189Y532003D02*
X804032D01*
X814189Y542160D01*
Y544699D01*
X811650Y547238D01*
X806571D01*
X804032Y544699D01*
X819267D02*
X821806Y547238D01*
X826885D01*
X829424Y544699D01*
Y542160D01*
X826885Y539621D01*
X824345D01*
X826885D01*
X829424Y537081D01*
Y534542D01*
X826885Y532003D01*
X821806D01*
X819267Y534542D01*
X967737Y502922D02*
X970276Y500382D01*
X975354D01*
X977893Y502922D01*
Y513078D01*
X975354Y515617D01*
X970276D01*
X967737Y513078D01*
X952502Y515617D02*
X962658D01*
X952502Y505461D01*
Y502922D01*
X955041Y500382D01*
X960119D01*
X962658Y502922D01*
X937267Y515617D02*
X947423D01*
X937267Y505461D01*
Y502922D01*
X939806Y500382D01*
X944884D01*
X947423Y502922D01*
X690019Y903142D02*
Y918377D01*
X697636D01*
X700175Y915838D01*
Y910760D01*
X697636Y908220D01*
X690019D01*
X705254Y900603D02*
X715410D01*
X720489Y903142D02*
X725567D01*
X723028D01*
Y913299D01*
X720489D01*
X733185Y903142D02*
Y913299D01*
X740802D01*
X743341Y910760D01*
Y903142D01*
X791215Y828043D02*
Y843278D01*
X798833D01*
X801372Y840738D01*
Y835660D01*
X798833Y833121D01*
X791215D01*
X796294D02*
X801372Y828043D01*
X806450D02*
X811529D01*
X808990D01*
Y843278D01*
X806450Y840738D01*
X819146Y828043D02*
X824225D01*
X821685D01*
Y843278D01*
X819146Y840738D01*
X798824Y741677D02*
Y726442D01*
X791206D01*
X788667Y728982D01*
Y734060D01*
X791206Y736599D01*
X798824D01*
X793745D02*
X788667Y741677D01*
X783589D02*
X778510D01*
X781050D01*
Y726442D01*
X783589Y728982D01*
X770893D02*
X768354Y726442D01*
X763275D01*
X760736Y728982D01*
Y739138D01*
X763275Y741677D01*
X768354D01*
X770893Y739138D01*
Y728982D01*
X516509Y715892D02*
X531744D01*
Y708275D01*
X529205Y705736D01*
X524127D01*
X521587Y708275D01*
Y715892D01*
Y710814D02*
X516509Y705736D01*
X529205Y698118D02*
X526666D01*
Y700657D01*
Y695579D01*
Y698118D01*
X519048D01*
X516509Y695579D01*
X526666Y687962D02*
X516509D01*
X521587D01*
X524127Y685422D01*
X526666Y682883D01*
Y680344D01*
X516509Y672726D02*
Y667648D01*
Y670187D01*
X526666D01*
Y672726D01*
X516509Y660031D02*
X526666D01*
Y657491D01*
X524127Y654952D01*
X516509D01*
X524127D01*
X526666Y652413D01*
X524127Y649874D01*
X516509D01*
X773557Y448183D02*
Y432948D01*
X765939D01*
X763400Y435487D01*
Y440565D01*
X765939Y443105D01*
X773557D01*
X748165Y435487D02*
X750704Y432948D01*
X755783D01*
X758322Y435487D01*
Y438026D01*
X755783Y440565D01*
X750704D01*
X748165Y443105D01*
Y445644D01*
X750704Y448183D01*
X755783D01*
X758322Y445644D01*
X743087Y448183D02*
X738008D01*
X740548D01*
Y432948D01*
X743087Y435487D01*
X881383Y637538D02*
X878844Y640078D01*
X873766D01*
X871227Y637538D01*
Y634999D01*
X873766Y632460D01*
X878844D01*
X881383Y629921D01*
Y627382D01*
X878844Y624842D01*
X873766D01*
X871227Y627382D01*
X896618Y624842D02*
X886462D01*
X896618Y634999D01*
Y637538D01*
X894079Y640078D01*
X889001D01*
X886462Y637538D01*
X901697D02*
X904236Y640078D01*
X909314D01*
X911853Y637538D01*
Y634999D01*
X909314Y632460D01*
X906775D01*
X909314D01*
X911853Y629921D01*
Y627382D01*
X909314Y624842D01*
X904236D01*
X901697Y627382D01*
X942343Y264158D02*
X939803Y266698D01*
X934725D01*
X932186Y264158D01*
Y261619D01*
X934725Y259080D01*
X939803D01*
X942343Y256541D01*
Y254002D01*
X939803Y251462D01*
X934725D01*
X932186Y254002D01*
X957578Y251462D02*
X947421D01*
X957578Y261619D01*
Y264158D01*
X955038Y266698D01*
X949960D01*
X947421Y264158D01*
X962656Y251462D02*
X967734D01*
X965195D01*
Y266698D01*
X962656Y264158D01*
X906396Y188337D02*
X903857Y190876D01*
X898778D01*
X896239Y188337D01*
Y185798D01*
X898778Y183258D01*
X903857D01*
X906396Y180719D01*
Y178180D01*
X903857Y175641D01*
X898778D01*
X896239Y178180D01*
X919092Y175641D02*
Y190876D01*
X911474Y183258D01*
X921631D01*
X342516Y508377D02*
X339977Y510916D01*
X334898D01*
X332359Y508377D01*
Y505838D01*
X334898Y503298D01*
X339977D01*
X342516Y500759D01*
Y498220D01*
X339977Y495681D01*
X334898D01*
X332359Y498220D01*
X347594Y508377D02*
X350133Y510916D01*
X355212D01*
X357751Y508377D01*
Y505838D01*
X355212Y503298D01*
X352672D01*
X355212D01*
X357751Y500759D01*
Y498220D01*
X355212Y495681D01*
X350133D01*
X347594Y498220D01*
X967356Y686177D02*
X964817Y688716D01*
X959738D01*
X957199Y686177D01*
Y683638D01*
X959738Y681098D01*
X964817D01*
X967356Y678559D01*
Y676020D01*
X964817Y673481D01*
X959738D01*
X957199Y676020D01*
X982591Y673481D02*
X972434D01*
X982591Y683638D01*
Y686177D01*
X980052Y688716D01*
X974973D01*
X972434Y686177D01*
X22476Y975737D02*
X19936Y978276D01*
X14858D01*
X12319Y975737D01*
Y973198D01*
X14858Y970658D01*
X19936D01*
X22476Y968119D01*
Y965580D01*
X19936Y963041D01*
X14858D01*
X12319Y965580D01*
X27554Y963041D02*
X32632D01*
X30093D01*
Y978276D01*
X27554Y975737D01*
X824108Y18415D02*
X836804D01*
X839343Y20954D01*
Y26033D01*
X836804Y28572D01*
X824108D01*
X826647Y33650D02*
X824108Y36189D01*
Y41268D01*
X826647Y43807D01*
X829186D01*
X831725Y41268D01*
X834265Y43807D01*
X836804D01*
X839343Y41268D01*
Y36189D01*
X836804Y33650D01*
X834265D01*
X831725Y36189D01*
X829186Y33650D01*
X826647D01*
X831725Y36189D02*
Y41268D01*
X293997Y198123D02*
Y213358D01*
X301615D01*
X304154Y210818D01*
Y205740D01*
X301615Y203201D01*
X293997D01*
X299075D02*
X304154Y198123D01*
X309232Y213358D02*
X319389D01*
Y210818D01*
X309232Y200662D01*
Y198123D01*
X634357D02*
Y213358D01*
X641975D01*
X644514Y210818D01*
Y205740D01*
X641975Y203201D01*
X634357D01*
X639435D02*
X644514Y198123D01*
X659749Y213358D02*
X649592D01*
Y205740D01*
X654670Y208279D01*
X657210D01*
X659749Y205740D01*
Y200662D01*
X657210Y198123D01*
X652131D01*
X649592Y200662D01*
X27944Y665478D02*
Y650242D01*
X38101D01*
X53336Y665478D02*
X48257Y662938D01*
X43179Y657860D01*
Y652782D01*
X45718Y650242D01*
X50797D01*
X53336Y652782D01*
Y655321D01*
X50797Y657860D01*
X43179D01*
X154944Y665478D02*
Y650242D01*
X165101D01*
X180336Y665478D02*
X170179D01*
Y657860D01*
X175257Y660399D01*
X177797D01*
X180336Y657860D01*
Y652782D01*
X177797Y650242D01*
X172718D01*
X170179Y652782D01*
X284484Y665478D02*
Y650242D01*
X294641D01*
X307337D02*
Y665478D01*
X299719Y657860D01*
X309876D01*
X20324Y491741D02*
Y476507D01*
X30481D01*
X35559Y489202D02*
X38098Y491741D01*
X43177D01*
X45716Y489202D01*
Y486663D01*
X43177Y484124D01*
X40637D01*
X43177D01*
X45716Y481585D01*
Y479046D01*
X43177Y476507D01*
X38098D01*
X35559Y479046D01*
X149864Y488694D02*
Y473459D01*
X160021D01*
X175256D02*
X165099D01*
X175256Y483615D01*
Y486154D01*
X172717Y488694D01*
X167638D01*
X165099Y486154D01*
X289563Y488694D02*
Y473459D01*
X299720D01*
X304798D02*
X309877D01*
X307338D01*
Y488694D01*
X304798Y486154D01*
X937258Y111757D02*
X939798Y114297D01*
Y119375D01*
X937258Y121914D01*
X927102D01*
X924563Y119375D01*
Y114297D01*
X927102Y111757D01*
X924563Y96522D02*
Y106679D01*
X934719Y96522D01*
X937258D01*
X939798Y99062D01*
Y104140D01*
X937258Y106679D01*
X924563Y91444D02*
Y86366D01*
Y88905D01*
X939798D01*
X937258Y91444D01*
X454275Y198250D02*
X456814Y200790D01*
Y205868D01*
X454275Y208407D01*
X444118D01*
X441579Y205868D01*
Y200790D01*
X444118Y198250D01*
X441579Y183015D02*
Y193172D01*
X451736Y183015D01*
X454275D01*
X456814Y185554D01*
Y190633D01*
X454275Y193172D01*
Y177937D02*
X456814Y175398D01*
Y170319D01*
X454275Y167780D01*
X444118D01*
X441579Y170319D01*
Y175398D01*
X444118Y177937D01*
X454275D01*
X386465Y258312D02*
X383926Y255773D01*
Y250694D01*
X386465Y248155D01*
X396622D01*
X399161Y250694D01*
Y255773D01*
X396622Y258312D01*
X399161Y263390D02*
Y268469D01*
Y265929D01*
X383926D01*
X386465Y263390D01*
X396622Y276086D02*
X399161Y278625D01*
Y283704D01*
X396622Y286243D01*
X386465D01*
X383926Y283704D01*
Y278625D01*
X386465Y276086D01*
X389004D01*
X391544Y278625D01*
Y286243D01*
X103755Y201428D02*
X106294Y203967D01*
Y209046D01*
X103755Y211585D01*
X93598D01*
X91059Y209046D01*
Y203967D01*
X93598Y201428D01*
X91059Y196350D02*
Y191271D01*
Y193811D01*
X106294D01*
X103755Y196350D01*
Y183654D02*
X106294Y181115D01*
Y176036D01*
X103755Y173497D01*
X101216D01*
X98677Y176036D01*
X96137Y173497D01*
X93598D01*
X91059Y176036D01*
Y181115D01*
X93598Y183654D01*
X96137D01*
X98677Y181115D01*
X101216Y183654D01*
X103755D01*
X98677Y181115D02*
Y176036D01*
X101215Y275088D02*
X103754Y277627D01*
Y282706D01*
X101215Y285245D01*
X91058D01*
X88519Y282706D01*
Y277627D01*
X91058Y275088D01*
X88519Y270010D02*
Y264931D01*
Y267471D01*
X103754D01*
X101215Y270010D01*
X103754Y257314D02*
Y247157D01*
X101215D01*
X91058Y257314D01*
X88519D01*
X507107Y192916D02*
X509646Y195455D01*
Y200534D01*
X507107Y203073D01*
X496950D01*
X494411Y200534D01*
Y195455D01*
X496950Y192916D01*
X494411Y187838D02*
Y182760D01*
Y185299D01*
X509646D01*
X507107Y187838D01*
X509646Y164985D02*
X507107Y170064D01*
X502029Y175142D01*
X496950D01*
X494411Y172603D01*
Y167525D01*
X496950Y164985D01*
X499489D01*
X502029Y167525D01*
Y175142D01*
X437773Y261744D02*
X435234Y259205D01*
Y254126D01*
X437773Y251587D01*
X447930D01*
X450469Y254126D01*
Y259205D01*
X447930Y261744D01*
X450469Y266822D02*
Y271900D01*
Y269361D01*
X435234D01*
X437773Y266822D01*
X435234Y289675D02*
Y279518D01*
X442851D01*
X440312Y284596D01*
Y287136D01*
X442851Y289675D01*
X447930D01*
X450469Y287136D01*
Y282057D01*
X447930Y279518D01*
X154047Y195336D02*
X156586Y197875D01*
Y202954D01*
X154047Y205493D01*
X143890D01*
X141351Y202954D01*
Y197875D01*
X143890Y195336D01*
X141351Y190258D02*
Y185180D01*
Y187719D01*
X156586D01*
X154047Y190258D01*
X141351Y169944D02*
X156586D01*
X148968Y177562D01*
Y167405D01*
X151507Y271656D02*
X154046Y274195D01*
Y279274D01*
X151507Y281813D01*
X141350D01*
X138811Y279274D01*
Y274195D01*
X141350Y271656D01*
X138811Y266578D02*
Y261500D01*
Y264039D01*
X154046D01*
X151507Y266578D01*
Y253882D02*
X154046Y251343D01*
Y246264D01*
X151507Y243725D01*
X148968D01*
X146428Y246264D01*
Y248804D01*
Y246264D01*
X143889Y243725D01*
X141350D01*
X138811Y246264D01*
Y251343D01*
X141350Y253882D01*
X205744Y352167D02*
X203204Y354706D01*
X198126D01*
X195587Y352167D01*
Y342010D01*
X198126Y339471D01*
X203204D01*
X205744Y342010D01*
X210822Y339471D02*
X215900D01*
X213361D01*
Y354706D01*
X210822Y352167D01*
X233675Y339471D02*
X223518D01*
X233675Y349628D01*
Y352167D01*
X231136Y354706D01*
X226057D01*
X223518Y352167D01*
X205616Y107573D02*
X208155Y105034D01*
X213234D01*
X215773Y107573D01*
Y117730D01*
X213234Y120269D01*
X208155D01*
X205616Y117730D01*
X200538Y120269D02*
X195460D01*
X197999D01*
Y105034D01*
X200538Y107573D01*
X187842Y120269D02*
X182764D01*
X185303D01*
Y105034D01*
X187842Y107573D01*
X564004Y342007D02*
X561465Y344546D01*
X556386D01*
X553847Y342007D01*
Y331850D01*
X556386Y329311D01*
X561465D01*
X564004Y331850D01*
X569082Y329311D02*
X574160D01*
X571621D01*
Y344546D01*
X569082Y342007D01*
X581778D02*
X584317Y344546D01*
X589395D01*
X591935Y342007D01*
Y331850D01*
X589395Y329311D01*
X584317D01*
X581778Y331850D01*
Y342007D01*
X553716Y110113D02*
X556255Y107574D01*
X561334D01*
X563873Y110113D01*
Y120270D01*
X561334Y122809D01*
X556255D01*
X553716Y120270D01*
X548638D02*
X546099Y122809D01*
X541020D01*
X538481Y120270D01*
Y110113D01*
X541020Y107574D01*
X546099D01*
X548638Y110113D01*
Y112652D01*
X546099Y115191D01*
X538481D01*
X833242Y101473D02*
X820546D01*
X818007Y98934D01*
Y93855D01*
X820546Y91316D01*
X833242D01*
Y86238D02*
Y76081D01*
X830703D01*
X820546Y86238D01*
X818007D01*
X370824Y477518D02*
Y464822D01*
X373363Y462282D01*
X378442D01*
X380981Y464822D01*
Y477518D01*
X396216D02*
X391138Y474978D01*
X386059Y469900D01*
Y464822D01*
X388598Y462282D01*
X393677D01*
X396216Y464822D01*
Y467361D01*
X393677Y469900D01*
X386059D01*
X46824Y474977D02*
Y462282D01*
X49363Y459743D01*
X54442D01*
X56981Y462282D01*
Y474977D01*
X72216D02*
X62059D01*
Y467360D01*
X67138Y469899D01*
X69677D01*
X72216Y467360D01*
Y462282D01*
X69677Y459743D01*
X64598D01*
X62059Y462282D01*
X162687Y324226D02*
Y311530D01*
X165226Y308991D01*
X170305D01*
X172844Y311530D01*
Y324226D01*
X185540Y308991D02*
Y324226D01*
X177922Y316609D01*
X188079D01*
X165227Y245486D02*
Y232790D01*
X167766Y230251D01*
X172845D01*
X175384Y232790D01*
Y245486D01*
X180462Y242947D02*
X183001Y245486D01*
X188080D01*
X190619Y242947D01*
Y240408D01*
X188080Y237868D01*
X185540D01*
X188080D01*
X190619Y235329D01*
Y232790D01*
X188080Y230251D01*
X183001D01*
X180462Y232790D01*
X510667Y321686D02*
Y308990D01*
X513206Y306451D01*
X518284D01*
X520824Y308990D01*
Y321686D01*
X536059Y306451D02*
X525902D01*
X536059Y316608D01*
Y319147D01*
X533520Y321686D01*
X528441D01*
X525902Y319147D01*
X513207Y245486D02*
Y232790D01*
X515746Y230251D01*
X520825D01*
X523364Y232790D01*
Y245486D01*
X528442Y230251D02*
X533520D01*
X530981D01*
Y245486D01*
X528442Y242947D01*
X280797Y242443D02*
Y227208D01*
X273179D01*
X270640Y229747D01*
Y234825D01*
X273179Y237365D01*
X280797D01*
X275719D02*
X270640Y242443D01*
X257944D02*
Y227208D01*
X265562Y234825D01*
X255405D01*
X283337Y166243D02*
Y151008D01*
X275720D01*
X273180Y153547D01*
Y158625D01*
X275720Y161165D01*
X283337D01*
X278259D02*
X273180Y166243D01*
X268102Y153547D02*
X265563Y151008D01*
X260484D01*
X257945Y153547D01*
Y156086D01*
X260484Y158625D01*
X263024D01*
X260484D01*
X257945Y161165D01*
Y163704D01*
X260484Y166243D01*
X265563D01*
X268102Y163704D01*
X628777Y242443D02*
Y227208D01*
X621160D01*
X618620Y229747D01*
Y234825D01*
X621160Y237365D01*
X628777D01*
X623699D02*
X618620Y242443D01*
X603385D02*
X613542D01*
X603385Y232286D01*
Y229747D01*
X605924Y227208D01*
X611003D01*
X613542Y229747D01*
X623697Y163703D02*
Y148468D01*
X616079D01*
X613540Y151007D01*
Y156086D01*
X616079Y158625D01*
X623697D01*
X618619D02*
X613540Y163703D01*
X608462D02*
X603384D01*
X605923D01*
Y148468D01*
X608462Y151007D01*
X847107Y900428D02*
X844568Y902967D01*
X839489D01*
X836950Y900428D01*
Y897889D01*
X839489Y895350D01*
X844568D01*
X847107Y892810D01*
Y890271D01*
X844568Y887732D01*
X839489D01*
X836950Y890271D01*
X852185Y885193D02*
X862342D01*
X867420Y902967D02*
Y887732D01*
Y895350D01*
X869959Y897889D01*
X875038D01*
X877577Y895350D01*
Y887732D01*
X885194Y897889D02*
X890273D01*
X892812Y895350D01*
Y887732D01*
X885194D01*
X882655Y890271D01*
X885194Y892810D01*
X892812D01*
X897890Y887732D02*
X902969D01*
X900430D01*
Y902967D01*
X897890D01*
X910586Y887732D02*
X915665D01*
X913126D01*
Y902967D01*
X910586D01*
X923282Y885193D02*
X933439D01*
X938517Y887732D02*
X943596D01*
X941057D01*
Y897889D01*
X938517D01*
X951213Y887732D02*
Y897889D01*
X958831D01*
X961370Y895350D01*
Y887732D01*
X834410Y803742D02*
Y818977D01*
X842028D01*
X844567Y816438D01*
Y811360D01*
X842028Y808820D01*
X834410D01*
X849645Y801203D02*
X859802D01*
X864880Y818977D02*
Y803742D01*
Y811360D01*
X867420Y813899D01*
X872498D01*
X875037Y811360D01*
Y803742D01*
X882654Y813899D02*
X887733D01*
X890272Y811360D01*
Y803742D01*
X882654D01*
X880115Y806281D01*
X882654Y808820D01*
X890272D01*
X895350Y803742D02*
X900429D01*
X897890D01*
Y818977D01*
X895350D01*
X908046Y803742D02*
X913125D01*
X910585D01*
Y818977D01*
X908046D01*
X920742Y801203D02*
X930899D01*
X935977Y803742D02*
X941056D01*
X938516D01*
Y813899D01*
X935977D01*
X948673Y803742D02*
Y813899D01*
X956291D01*
X958830Y811360D01*
Y803742D01*
X570235Y914398D02*
X567696Y916937D01*
X562618D01*
X560079Y914398D01*
Y911859D01*
X562618Y909320D01*
X567696D01*
X570235Y906781D01*
Y904242D01*
X567696Y901702D01*
X562618D01*
X560079Y904242D01*
X577853Y901702D02*
X582931D01*
X585470Y904242D01*
Y909320D01*
X582931Y911859D01*
X577853D01*
X575314Y909320D01*
Y904242D01*
X577853Y901702D01*
X590549D02*
X595627D01*
X593088D01*
Y916937D01*
X590549D01*
X610862Y901702D02*
Y916937D01*
X603245Y909320D01*
X613401D01*
X407675Y916938D02*
X405136Y919477D01*
X400058D01*
X397519Y916938D01*
Y914399D01*
X400058Y911860D01*
X405136D01*
X407675Y909321D01*
Y906782D01*
X405136Y904242D01*
X400058D01*
X397519Y906782D01*
X415293Y904242D02*
X420371D01*
X422910Y906782D01*
Y911860D01*
X420371Y914399D01*
X415293D01*
X412754Y911860D01*
Y906782D01*
X415293Y904242D01*
X427989D02*
X433067D01*
X430528D01*
Y919477D01*
X427989D01*
X440685Y916938D02*
X443224Y919477D01*
X448302D01*
X450841Y916938D01*
Y914399D01*
X448302Y911860D01*
X445763D01*
X448302D01*
X450841Y909321D01*
Y906782D01*
X448302Y904242D01*
X443224D01*
X440685Y906782D01*
X257815Y919478D02*
X255276Y922018D01*
X250198D01*
X247659Y919478D01*
Y916939D01*
X250198Y914400D01*
X255276D01*
X257815Y911861D01*
Y909322D01*
X255276Y906783D01*
X250198D01*
X247659Y909322D01*
X265433Y906783D02*
X270511D01*
X273050Y909322D01*
Y914400D01*
X270511Y916939D01*
X265433D01*
X262894Y914400D01*
Y909322D01*
X265433Y906783D01*
X278129D02*
X283207D01*
X280668D01*
Y922018D01*
X278129D01*
X300981Y906783D02*
X290825D01*
X300981Y916939D01*
Y919478D01*
X298442Y922018D01*
X293364D01*
X290825Y919478D01*
X105414D02*
X102875Y922018D01*
X97797D01*
X95258Y919478D01*
Y916939D01*
X97797Y914400D01*
X102875D01*
X105414Y911861D01*
Y909322D01*
X102875Y906783D01*
X97797D01*
X95258Y909322D01*
X113032Y906783D02*
X118110D01*
X120650Y909322D01*
Y914400D01*
X118110Y916939D01*
X113032D01*
X110493Y914400D01*
Y909322D01*
X113032Y906783D01*
X125728D02*
X130806D01*
X128267D01*
Y922018D01*
X125728D01*
X138424Y906783D02*
X143502D01*
X140963D01*
Y922018D01*
X138424Y919478D01*
X331478Y828038D02*
X328939Y830577D01*
X323860D01*
X321321Y828038D01*
Y825499D01*
X323860Y822960D01*
X328939D01*
X331478Y820421D01*
Y817882D01*
X328939Y815342D01*
X323860D01*
X321321Y817882D01*
X336556Y815342D02*
Y825499D01*
X339095D01*
X341634Y822960D01*
Y815342D01*
Y822960D01*
X344174Y825499D01*
X346713Y822960D01*
Y815342D01*
X354330D02*
X359409D01*
X361948Y817882D01*
Y822960D01*
X359409Y825499D01*
X354330D01*
X351791Y822960D01*
Y817882D01*
X354330Y815342D01*
X369566Y828038D02*
Y825499D01*
X367026D01*
X372105D01*
X369566D01*
Y817882D01*
X372105Y815342D01*
X379722Y828038D02*
X382261Y830577D01*
X387340D01*
X389879Y828038D01*
Y825499D01*
X387340Y822960D01*
X384801D01*
X387340D01*
X389879Y820421D01*
Y817882D01*
X387340Y815342D01*
X382261D01*
X379722Y817882D01*
X407678Y828038D02*
X405139Y830577D01*
X400060D01*
X397521Y828038D01*
Y825499D01*
X400060Y822960D01*
X405139D01*
X407678Y820421D01*
Y817882D01*
X405139Y815342D01*
X400060D01*
X397521Y817882D01*
X412756Y815342D02*
Y825499D01*
X415295D01*
X417835Y822960D01*
Y815342D01*
Y822960D01*
X420374Y825499D01*
X422913Y822960D01*
Y815342D01*
X430530D02*
X435609D01*
X438148Y817882D01*
Y822960D01*
X435609Y825499D01*
X430530D01*
X427991Y822960D01*
Y817882D01*
X430530Y815342D01*
X445765Y828038D02*
Y825499D01*
X443226D01*
X448305D01*
X445765D01*
Y817882D01*
X448305Y815342D01*
X466079D02*
X455922D01*
X466079Y825499D01*
Y828038D01*
X463540Y830577D01*
X458461D01*
X455922Y828038D01*
X546102Y847097D02*
X543563Y844558D01*
Y839480D01*
X546102Y836940D01*
X548641D01*
X551180Y839480D01*
Y844558D01*
X553719Y847097D01*
X556258D01*
X558797Y844558D01*
Y839480D01*
X556258Y836940D01*
X558797Y852175D02*
X548641D01*
Y854715D01*
X551180Y857254D01*
X558797D01*
X551180D01*
X548641Y859793D01*
X551180Y862332D01*
X558797D01*
Y869950D02*
Y875028D01*
X556258Y877567D01*
X551180D01*
X548641Y875028D01*
Y869950D01*
X551180Y867410D01*
X556258D01*
X558797Y869950D01*
X546102Y885185D02*
X548641D01*
Y882645D01*
Y887724D01*
Y885185D01*
X556258D01*
X558797Y887724D01*
Y895341D02*
Y900420D01*
Y897881D01*
X543563D01*
X546102Y895341D01*
X24141Y817883D02*
Y833118D01*
X31759D01*
X34298Y830578D01*
Y825500D01*
X31759Y822961D01*
X24141D01*
X39376Y817883D02*
Y828039D01*
X41915D01*
X44454Y825500D01*
Y817883D01*
Y825500D01*
X46994Y828039D01*
X49533Y825500D01*
Y817883D01*
X57150D02*
X62229D01*
X64768Y820422D01*
Y825500D01*
X62229Y828039D01*
X57150D01*
X54611Y825500D01*
Y820422D01*
X57150Y817883D01*
X72386Y830578D02*
Y828039D01*
X69846D01*
X74925D01*
X72386D01*
Y820422D01*
X74925Y817883D01*
X82542Y830578D02*
X85081Y833118D01*
X90160D01*
X92699Y830578D01*
Y828039D01*
X90160Y825500D01*
X87621D01*
X90160D01*
X92699Y822961D01*
Y820422D01*
X90160Y817883D01*
X85081D01*
X82542Y820422D01*
X106282Y816658D02*
Y831893D01*
X113900D01*
X116439Y829354D01*
Y824275D01*
X113900Y821736D01*
X106282D01*
X121517Y816658D02*
Y826814D01*
X124056D01*
X126596Y824275D01*
Y816658D01*
Y824275D01*
X129135Y826814D01*
X131674Y824275D01*
Y816658D01*
X139291D02*
X144370D01*
X146909Y819197D01*
Y824275D01*
X144370Y826814D01*
X139291D01*
X136752Y824275D01*
Y819197D01*
X139291Y816658D01*
X154527Y829354D02*
Y826814D01*
X151987D01*
X157066D01*
X154527D01*
Y819197D01*
X157066Y816658D01*
X174840D02*
X164683D01*
X174840Y826814D01*
Y829354D01*
X172301Y831893D01*
X167222D01*
X164683Y829354D01*
X685616Y831677D02*
Y821520D01*
X690695Y816442D01*
X695773Y821520D01*
Y831677D01*
X700851Y813903D02*
X711008D01*
X716086Y816442D02*
X723704D01*
X726243Y818981D01*
X723704Y821520D01*
X718626D01*
X716086Y824059D01*
X718626Y826599D01*
X726243D01*
X738939Y816442D02*
X733861D01*
X731321Y818981D01*
Y824059D01*
X733861Y826599D01*
X738939D01*
X741478Y824059D01*
Y821520D01*
X731321D01*
X746557Y816442D02*
Y826599D01*
X754174D01*
X756713Y824059D01*
Y816442D01*
X761792D02*
X769409D01*
X771948Y818981D01*
X769409Y821520D01*
X764331D01*
X761792Y824059D01*
X764331Y826599D01*
X771948D01*
X784644Y816442D02*
X779566D01*
X777027Y818981D01*
Y824059D01*
X779566Y826599D01*
X784644D01*
X787183Y824059D01*
Y821520D01*
X777027D01*
X863616Y922017D02*
Y906782D01*
X871233D01*
X873772Y909321D01*
Y911860D01*
X871233Y914399D01*
X863616D01*
X871233D01*
X873772Y916938D01*
Y919477D01*
X871233Y922017D01*
X863616D01*
X881390Y916938D02*
X886468D01*
X889007Y914399D01*
Y906782D01*
X881390D01*
X878851Y909321D01*
X881390Y911860D01*
X889007D01*
X896625Y919477D02*
Y916938D01*
X894086D01*
X899164D01*
X896625D01*
Y909321D01*
X899164Y906782D01*
X909321Y919477D02*
Y916938D01*
X906782D01*
X911860D01*
X909321D01*
Y909321D01*
X911860Y906782D01*
X927095D02*
X922017D01*
X919477Y909321D01*
Y914399D01*
X922017Y916938D01*
X927095D01*
X929634Y914399D01*
Y911860D01*
X919477D01*
X934713Y916938D02*
Y906782D01*
Y911860D01*
X937252Y914399D01*
X939791Y916938D01*
X942330D01*
X949948D02*
Y909321D01*
X952487Y906782D01*
X960104D01*
Y904242D01*
X957565Y901703D01*
X955026D01*
X960104Y906782D02*
Y916938D01*
X184160Y815342D02*
Y830577D01*
X191778D01*
X194317Y828038D01*
Y822960D01*
X191778Y820421D01*
X184160D01*
X199395Y815342D02*
Y825499D01*
X201935D01*
X204474Y822960D01*
Y815342D01*
Y822960D01*
X207013Y825499D01*
X209552Y822960D01*
Y815342D01*
X217170D02*
X222248D01*
X224787Y817882D01*
Y822960D01*
X222248Y825499D01*
X217170D01*
X214630Y822960D01*
Y817882D01*
X217170Y815342D01*
X232405Y828038D02*
Y825499D01*
X229865D01*
X234944D01*
X232405D01*
Y817882D01*
X234944Y815342D01*
X242561D02*
X247640D01*
X245101D01*
Y830577D01*
X242561Y828038D01*
X778515Y880108D02*
X775976Y882647D01*
X770898D01*
X768359Y880108D01*
Y877569D01*
X770898Y875030D01*
X775976D01*
X778515Y872490D01*
Y869951D01*
X775976Y867412D01*
X770898D01*
X768359Y869951D01*
X783594Y864873D02*
X793750D01*
X798829Y867412D02*
X803907D01*
X801368D01*
Y877569D01*
X798829D01*
X811525Y867412D02*
Y877569D01*
X819142D01*
X821681Y875030D01*
Y867412D01*
X584210Y829308D02*
X581671Y831847D01*
X576592D01*
X574053Y829308D01*
Y826769D01*
X576592Y824230D01*
X581671D01*
X584210Y821690D01*
Y819151D01*
X581671Y816612D01*
X576592D01*
X574053Y819151D01*
X591827Y816612D02*
X596906D01*
X599445Y819151D01*
Y824230D01*
X596906Y826769D01*
X591827D01*
X589288Y824230D01*
Y819151D01*
X591827Y816612D01*
X604523D02*
X609602D01*
X607062D01*
Y831847D01*
X604523D01*
X617219Y814073D02*
X627376D01*
X632454Y816612D02*
X637533D01*
X634993D01*
Y826769D01*
X632454D01*
X645150Y816612D02*
Y826769D01*
X652768D01*
X655307Y824230D01*
Y816612D01*
X774701Y177288D02*
X772162Y179827D01*
X767083D01*
X764544Y177288D01*
Y167132D01*
X767083Y164592D01*
X772162D01*
X774701Y167132D01*
X779779Y177288D02*
X782318Y179827D01*
X787397D01*
X789936Y177288D01*
Y174749D01*
X787397Y172210D01*
X789936Y169671D01*
Y167132D01*
X787397Y164592D01*
X782318D01*
X779779Y167132D01*
Y169671D01*
X782318Y172210D01*
X779779Y174749D01*
Y177288D01*
X782318Y172210D02*
X787397D01*
X723901Y167638D02*
X721362Y170177D01*
X716283D01*
X713744Y167638D01*
Y157482D01*
X716283Y154943D01*
X721362D01*
X723901Y157482D01*
X728979Y170177D02*
X739136D01*
Y167638D01*
X728979Y157482D01*
Y154943D01*
X808351Y418722D02*
X810890Y421261D01*
Y426340D01*
X808351Y428879D01*
X798194D01*
X795655Y426340D01*
Y421261D01*
X798194Y418722D01*
X810890Y403487D02*
X808351Y408566D01*
X803272Y413644D01*
X798194D01*
X795655Y411105D01*
Y406026D01*
X798194Y403487D01*
X800733D01*
X803272Y406026D01*
Y413644D01*
X841887Y99184D02*
X839348Y96644D01*
Y91566D01*
X841887Y89027D01*
X852044D01*
X854583Y91566D01*
Y96644D01*
X852044Y99184D01*
X839348Y114419D02*
Y104262D01*
X846965D01*
X844426Y109340D01*
Y111880D01*
X846965Y114419D01*
X852044D01*
X854583Y111880D01*
Y106801D01*
X852044Y104262D01*
X894711Y394846D02*
X897250Y397385D01*
Y402464D01*
X894711Y405003D01*
X884554D01*
X882015Y402464D01*
Y397385D01*
X884554Y394846D01*
X882015Y382150D02*
X897250D01*
X889632Y389768D01*
Y379611D01*
X851785Y387734D02*
X854324Y390274D01*
Y395352D01*
X851785Y397891D01*
X841628D01*
X839089Y395352D01*
Y390274D01*
X841628Y387734D01*
X851785Y382656D02*
X854324Y380117D01*
Y375038D01*
X851785Y372499D01*
X849246D01*
X846706Y375038D01*
Y377578D01*
Y375038D01*
X844167Y372499D01*
X841628D01*
X839089Y375038D01*
Y380117D01*
X841628Y382656D01*
X881378Y299719D02*
X883917Y302258D01*
Y307337D01*
X881378Y309876D01*
X871222D01*
X868682Y307337D01*
Y302258D01*
X871222Y299719D01*
X868682Y284484D02*
Y294641D01*
X878839Y284484D01*
X881378D01*
X883917Y287023D01*
Y292102D01*
X881378Y294641D01*
X789938Y317780D02*
X792477Y320319D01*
Y325397D01*
X789938Y327937D01*
X779782D01*
X777243Y325397D01*
Y320319D01*
X779782Y317780D01*
X777243Y312701D02*
Y307623D01*
Y310162D01*
X792477D01*
X789938Y312701D01*
D15*
X426280Y826770D02*
X766680D01*
X426280Y458470D02*
Y826770D01*
Y458470D02*
X753980D01*
X766680Y471170D01*
Y826770D01*
X822960Y650260D02*
Y716260D01*
Y650260D02*
X949960D01*
Y716260D01*
X932460D02*
X949960D01*
X932460D02*
Y721260D01*
X920460D02*
X932460D01*
X920460Y716260D02*
Y721260D01*
X852460Y716260D02*
X920460D01*
X852460D02*
Y721260D01*
X840460D02*
X852460D01*
X840460Y716260D02*
Y721260D01*
X822960Y716260D02*
X840460D01*
X911880Y279400D02*
Y296900D01*
X906880D02*
X911880D01*
X906880D02*
Y308900D01*
X911880D01*
Y376900D01*
X906880D02*
X911880D01*
X906880D02*
Y388900D01*
X911880D01*
Y406400D01*
X977880D01*
Y279400D02*
Y406400D01*
X911880Y279400D02*
X977880D01*
D16*
X166942Y300648D02*
X175405Y292184D01*
X166942D02*
X175405Y300648D01*
X166942Y296416D02*
X175405D01*
X171173Y292184D02*
Y300648D01*
X514921Y298108D02*
X523385Y289644D01*
X514921D02*
X523385Y298108D01*
X514921Y293876D02*
X523385D01*
X519154Y289644D02*
Y298108D01*
X517462Y221908D02*
X525925Y213444D01*
X517462D02*
X525925Y221908D01*
X517462Y217676D02*
X525925D01*
X521693Y213444D02*
Y221908D01*
X169482D02*
X177945Y213444D01*
X169482D02*
X177945Y221908D01*
X169482Y217676D02*
X177945D01*
X173713Y213444D02*
Y221908D01*
M02*
