G04*
G04 #@! TF.GenerationSoftware,Altium Limited,Altium Designer,22.10.1 (41)*
G04*
G04 Layer_Color=0*
%FSLAX44Y44*%
%MOMM*%
G71*
G04*
G04 #@! TF.SameCoordinates,E145AED0-6931-4EEB-B232-2A21EE6FFB4C*
G04*
G04*
G04 #@! TF.FilePolarity,Positive*
G04*
G01*
G75*
%ADD70C,0.1000*%
D70*
X119380Y264240D02*
Y274240D01*
X114380Y269240D02*
X124380D01*
X121920Y187920D02*
Y197920D01*
X116920Y192920D02*
X126920D01*
X469900Y259160D02*
Y269160D01*
X464900Y264160D02*
X474900D01*
X474980Y185500D02*
Y195500D01*
X469980Y190500D02*
X479980D01*
X68580Y264878D02*
Y274878D01*
X63580Y269878D02*
X73580D01*
X71120Y191218D02*
Y201218D01*
X66120Y196218D02*
X76120D01*
X419100Y258522D02*
Y268522D01*
X414100Y263522D02*
X424100D01*
X421640Y188040D02*
Y198040D01*
X416640Y193040D02*
X426640D01*
X612140Y200740D02*
Y210740D01*
X607140Y205740D02*
X617140D01*
X551300Y137240D02*
Y147240D01*
X546300Y142240D02*
X556300D01*
X617220Y279480D02*
Y289480D01*
X612220Y284480D02*
X622220D01*
X566420Y304880D02*
Y314880D01*
X561420Y309880D02*
X571420D01*
X271133Y200740D02*
Y210740D01*
X266133Y205740D02*
X276133D01*
X203200Y134700D02*
Y144700D01*
X198200Y139700D02*
X208200D01*
X268593Y282020D02*
Y292020D01*
X263593Y287020D02*
X273593D01*
X208160Y315040D02*
Y325040D01*
X203160Y320040D02*
X213160D01*
X922100Y101600D02*
X932100D01*
X927100Y96600D02*
Y106600D01*
X866220Y101600D02*
X876220D01*
X871220Y96600D02*
Y106600D01*
X823040Y627380D02*
X833040D01*
X828040Y622380D02*
Y632380D01*
X827950Y490220D02*
X837950D01*
X832950Y485220D02*
Y495220D01*
X919480Y784940D02*
Y794940D01*
X914480Y789940D02*
X924480D01*
X919480Y858600D02*
Y868600D01*
X914480Y863600D02*
X924480D01*
X612140Y175340D02*
Y185340D01*
X607140Y180340D02*
X617140D01*
X617220Y254080D02*
Y264080D01*
X612220Y259080D02*
X622220D01*
X271780Y177880D02*
Y187880D01*
X266780Y182880D02*
X276780D01*
X269240Y254080D02*
Y264080D01*
X264240Y259080D02*
X274240D01*
X825410Y762400D02*
X835410D01*
X830410Y757400D02*
Y767400D01*
X922020Y713820D02*
Y723820D01*
X917020Y718820D02*
X927020D01*
X843360Y386080D02*
X853360D01*
X848360Y381080D02*
Y391080D01*
X787480Y383540D02*
X797480D01*
X792480Y378540D02*
Y388540D01*
X769700Y129540D02*
X779700D01*
X774700Y124540D02*
Y134540D01*
X718900Y132080D02*
X728900D01*
X723900Y127080D02*
Y137080D01*
M02*
