G04*
G04 #@! TF.GenerationSoftware,Altium Limited,Altium Designer,22.10.1 (41)*
G04*
G04 Layer_Color=16711935*
%FSLAX44Y44*%
%MOMM*%
G71*
G04*
G04 #@! TF.SameCoordinates,96092411-4BE1-4E5F-83DD-11E1D8B77A3F*
G04*
G04*
G04 #@! TF.FilePolarity,Positive*
G04*
G01*
G75*
%ADD10C,0.2000*%
%ADD14C,0.2540*%
%ADD15C,0.1270*%
%ADD16C,0.0762*%
%ADD86C,0.1000*%
%ADD87C,0.0000*%
%ADD88C,0.0254*%
D10*
X775180Y566470D02*
G03*
X775180Y566470I-1000J0D01*
G01*
X814460Y683260D02*
G03*
X814460Y683260I-1000J0D01*
G01*
X945880Y269900D02*
G03*
X945880Y269900I-1000J0D01*
G01*
D14*
X0Y0D02*
X1000000D01*
X0Y1000000D02*
X1000000D01*
Y0D02*
Y1000000D01*
X0Y0D02*
Y1000000D01*
D15*
X426280Y826770D02*
X766680D01*
X426280Y458470D02*
Y826770D01*
Y458470D02*
X753980D01*
X766680Y471170D01*
Y826770D01*
X822960Y650260D02*
Y716260D01*
Y650260D02*
X949960D01*
Y716260D01*
X932460D02*
X949960D01*
X932460D02*
Y721260D01*
X920460D02*
X932460D01*
X920460Y716260D02*
Y721260D01*
X852460Y716260D02*
X920460D01*
X852460D02*
Y721260D01*
X840460D02*
X852460D01*
X840460Y716260D02*
Y721260D01*
X822960Y716260D02*
X840460D01*
X911880Y279400D02*
Y296900D01*
X906880D02*
X911880D01*
X906880D02*
Y308900D01*
X911880D01*
Y376900D01*
X906880D02*
X911880D01*
X906880D02*
Y388900D01*
X911880D01*
Y406400D01*
X977880D01*
Y279400D02*
Y406400D01*
X911880Y279400D02*
X977880D01*
D16*
X526796Y286297D02*
X535260Y277833D01*
X526796D02*
X535260Y286297D01*
X526796Y282065D02*
X535260D01*
X531028Y277833D02*
Y286297D01*
X529336Y210097D02*
X537800Y201633D01*
X529336D02*
X537800Y210097D01*
X529336Y205865D02*
X537800D01*
X533568Y201633D02*
Y210097D01*
X181356D02*
X189820Y201633D01*
X181356D02*
X189820Y210097D01*
X181356Y205865D02*
X189820D01*
X185588Y201633D02*
Y210097D01*
D86*
X975000Y213360D02*
G03*
X975000Y213360I-40000J0D01*
G01*
X883280Y254000D02*
G03*
X883280Y254000I-40000J0D01*
G01*
X786760Y272060D02*
G03*
X786760Y272060I-40000J0D01*
G01*
X870820Y332740D02*
G03*
X870820Y332740I-25000J0D01*
G01*
X786760Y373380D02*
G03*
X786760Y373380I-40000J0D01*
G01*
X780150Y821390D02*
X794650D01*
X780150Y799390D02*
X794650D01*
Y821390D01*
X780150Y799390D02*
Y821390D01*
X848200Y17220D02*
X955200D01*
X848200Y64220D02*
X955200D01*
Y17220D02*
Y64220D01*
X848200Y17220D02*
Y64220D01*
Y30220D02*
X955200D01*
D87*
X400304Y556768D02*
G03*
X400304Y556768I-59944J0D01*
G01*
X265684D02*
G03*
X265684Y556768I-59944J0D01*
G01*
X133604Y558292D02*
G03*
X133604Y558292I-59944J0D01*
G01*
X405384Y736092D02*
G03*
X405384Y736092I-59944J0D01*
G01*
X273304D02*
G03*
X273304Y736092I-59944J0D01*
G01*
X138684Y737108D02*
G03*
X138684Y737108I-59944J0D01*
G01*
X195072Y291719D02*
G03*
X201168Y291719I3048J0D01*
G01*
X543052Y289179D02*
G03*
X549148Y289179I3048J0D01*
G01*
X545592Y212979D02*
G03*
X551688Y212979I3048J0D01*
G01*
X197612D02*
G03*
X203708Y212979I3048J0D01*
G01*
D88*
X334010Y487934D02*
X346710D01*
X340360Y481584D02*
Y494284D01*
X199390Y487934D02*
X212090D01*
X205740Y481584D02*
Y494284D01*
X67310Y489458D02*
X80010D01*
X73660Y483108D02*
Y495808D01*
X339090Y667258D02*
X351790D01*
X345440Y660908D02*
Y673608D01*
X207010Y667258D02*
X219710D01*
X213360Y660908D02*
Y673608D01*
X72390Y668274D02*
X85090D01*
X78740Y661924D02*
Y674624D01*
X178181Y241681D02*
Y291719D01*
X218059D01*
Y241681D02*
Y291719D01*
X178181Y241681D02*
X218059D01*
Y288290D02*
X229108D01*
Y283210D02*
Y288290D01*
X218059Y283210D02*
X229108D01*
X218059D02*
Y288290D01*
Y275590D02*
X229108D01*
Y270510D02*
Y275590D01*
X218059Y270510D02*
X229108D01*
X218059D02*
Y275590D01*
Y262890D02*
X229108D01*
Y257810D02*
Y262890D01*
X218059Y257810D02*
X229108D01*
X218059D02*
Y262890D01*
Y250190D02*
X229108D01*
Y245110D02*
Y250190D01*
X218059Y245110D02*
X229108D01*
X218059D02*
Y250190D01*
X167132Y245110D02*
X178181D01*
X167132D02*
Y250190D01*
X178181D01*
Y245110D02*
Y250190D01*
X167132Y257810D02*
X178181D01*
X167132D02*
Y262890D01*
X178181D01*
Y257810D02*
Y262890D01*
X167132Y270510D02*
X178181D01*
X167132D02*
Y275590D01*
X178181D01*
Y270510D02*
Y275590D01*
X167132Y283210D02*
X178181D01*
X167132D02*
Y288290D01*
X178181D01*
Y283210D02*
Y288290D01*
X526161Y239141D02*
Y289179D01*
X566039D01*
Y239141D02*
Y289179D01*
X526161Y239141D02*
X566039D01*
Y285750D02*
X577088D01*
Y280670D02*
Y285750D01*
X566039Y280670D02*
X577088D01*
X566039D02*
Y285750D01*
Y273050D02*
X577088D01*
Y267970D02*
Y273050D01*
X566039Y267970D02*
X577088D01*
X566039D02*
Y273050D01*
Y260350D02*
X577088D01*
Y255270D02*
Y260350D01*
X566039Y255270D02*
X577088D01*
X566039D02*
Y260350D01*
Y247650D02*
X577088D01*
Y242570D02*
Y247650D01*
X566039Y242570D02*
X577088D01*
X566039D02*
Y247650D01*
X515112Y242570D02*
X526161D01*
X515112D02*
Y247650D01*
X526161D01*
Y242570D02*
Y247650D01*
X515112Y255270D02*
X526161D01*
X515112D02*
Y260350D01*
X526161D01*
Y255270D02*
Y260350D01*
X515112Y267970D02*
X526161D01*
X515112D02*
Y273050D01*
X526161D01*
Y267970D02*
Y273050D01*
X515112Y280670D02*
X526161D01*
X515112D02*
Y285750D01*
X526161D01*
Y280670D02*
Y285750D01*
X528701Y162941D02*
Y212979D01*
X568579D01*
Y162941D02*
Y212979D01*
X528701Y162941D02*
X568579D01*
Y209550D02*
X579628D01*
Y204470D02*
Y209550D01*
X568579Y204470D02*
X579628D01*
X568579D02*
Y209550D01*
Y196850D02*
X579628D01*
Y191770D02*
Y196850D01*
X568579Y191770D02*
X579628D01*
X568579D02*
Y196850D01*
Y184150D02*
X579628D01*
Y179070D02*
Y184150D01*
X568579Y179070D02*
X579628D01*
X568579D02*
Y184150D01*
Y171450D02*
X579628D01*
Y166370D02*
Y171450D01*
X568579Y166370D02*
X579628D01*
X568579D02*
Y171450D01*
X517652Y166370D02*
X528701D01*
X517652D02*
Y171450D01*
X528701D01*
Y166370D02*
Y171450D01*
X517652Y179070D02*
X528701D01*
X517652D02*
Y184150D01*
X528701D01*
Y179070D02*
Y184150D01*
X517652Y191770D02*
X528701D01*
X517652D02*
Y196850D01*
X528701D01*
Y191770D02*
Y196850D01*
X517652Y204470D02*
X528701D01*
X517652D02*
Y209550D01*
X528701D01*
Y204470D02*
Y209550D01*
X180721Y162941D02*
Y212979D01*
X220599D01*
Y162941D02*
Y212979D01*
X180721Y162941D02*
X220599D01*
Y209550D02*
X231648D01*
Y204470D02*
Y209550D01*
X220599Y204470D02*
X231648D01*
X220599D02*
Y209550D01*
Y196850D02*
X231648D01*
Y191770D02*
Y196850D01*
X220599Y191770D02*
X231648D01*
X220599D02*
Y196850D01*
Y184150D02*
X231648D01*
Y179070D02*
Y184150D01*
X220599Y179070D02*
X231648D01*
X220599D02*
Y184150D01*
Y171450D02*
X231648D01*
Y166370D02*
Y171450D01*
X220599Y166370D02*
X231648D01*
X220599D02*
Y171450D01*
X169672Y166370D02*
X180721D01*
X169672D02*
Y171450D01*
X180721D01*
Y166370D02*
Y171450D01*
X169672Y179070D02*
X180721D01*
X169672D02*
Y184150D01*
X180721D01*
Y179070D02*
Y184150D01*
X169672Y191770D02*
X180721D01*
X169672D02*
Y196850D01*
X180721D01*
Y191770D02*
Y196850D01*
X169672Y204470D02*
X180721D01*
X169672D02*
Y209550D01*
X180721D01*
Y204470D02*
Y209550D01*
M02*
