G04*
G04 #@! TF.GenerationSoftware,Altium Limited,Altium Designer,22.10.1 (41)*
G04*
G04 Layer_Color=16711935*
%FSLAX44Y44*%
%MOMM*%
G71*
G04*
G04 #@! TF.SameCoordinates,E145AED0-6931-4EEB-B232-2A21EE6FFB4C*
G04*
G04*
G04 #@! TF.FilePolarity,Positive*
G04*
G01*
G75*
%ADD10C,0.2000*%
%ADD13C,0.1270*%
%ADD14C,0.2540*%
%ADD15C,0.0762*%
%ADD69C,0.0000*%
%ADD70C,0.1000*%
%ADD71C,0.0254*%
D10*
X775180Y566470D02*
G03*
X775180Y566470I-1000J0D01*
G01*
X933180Y346100D02*
G03*
X933180Y346100I-1000J0D01*
G01*
Y186080D02*
G03*
X933180Y186080I-1000J0D01*
G01*
D13*
X426280Y826770D02*
X766680D01*
X426280Y458470D02*
Y826770D01*
Y458470D02*
X753980D01*
X766680Y471170D01*
Y826770D01*
X899180Y355600D02*
X965180D01*
Y482600D01*
X899180D02*
X965180D01*
X899180Y465100D02*
Y482600D01*
X894180Y465100D02*
X899180D01*
X894180Y453100D02*
Y465100D01*
Y453100D02*
X899180D01*
Y385100D02*
Y453100D01*
X894180Y385100D02*
X899180D01*
X894180Y373100D02*
Y385100D01*
Y373100D02*
X899180D01*
Y355600D02*
Y373100D01*
Y195580D02*
Y213080D01*
X894180D02*
X899180D01*
X894180D02*
Y225080D01*
X899180D01*
Y293080D01*
X894180D02*
X899180D01*
X894180D02*
Y305080D01*
X899180D01*
Y322580D01*
X965180D01*
Y195580D02*
Y322580D01*
X899180Y195580D02*
X965180D01*
D14*
X0Y0D02*
X1000000D01*
X0Y1000000D02*
X1000000D01*
Y0D02*
Y1000000D01*
X0Y0D02*
Y1000000D01*
D15*
X526796Y286297D02*
X535260Y277833D01*
X526796D02*
X535260Y286297D01*
X526796Y282065D02*
X535260D01*
X531028Y277833D02*
Y286297D01*
X529336Y210097D02*
X537800Y201633D01*
X529336D02*
X537800Y210097D01*
X529336Y205865D02*
X537800D01*
X533568Y201633D02*
Y210097D01*
X181356D02*
X189820Y201633D01*
X181356D02*
X189820Y210097D01*
X181356Y205865D02*
X189820D01*
X185588Y201633D02*
Y210097D01*
D69*
X400304Y556768D02*
G03*
X400304Y556768I-59944J0D01*
G01*
X265684D02*
G03*
X265684Y556768I-59944J0D01*
G01*
X133604Y558292D02*
G03*
X133604Y558292I-59944J0D01*
G01*
X405384Y736092D02*
G03*
X405384Y736092I-59944J0D01*
G01*
X273304D02*
G03*
X273304Y736092I-59944J0D01*
G01*
X138684Y737108D02*
G03*
X138684Y737108I-59944J0D01*
G01*
X195072Y291719D02*
G03*
X201168Y291719I3048J0D01*
G01*
X543052Y289179D02*
G03*
X549148Y289179I3048J0D01*
G01*
X545592Y212979D02*
G03*
X551688Y212979I3048J0D01*
G01*
X197612D02*
G03*
X203708Y212979I3048J0D01*
G01*
D70*
X870820Y332740D02*
G03*
X870820Y332740I-25000J0D01*
G01*
X763900Y279400D02*
G03*
X763900Y279400I-40000J0D01*
G01*
X761360Y373380D02*
G03*
X761360Y373380I-40000J0D01*
G01*
X848200Y17220D02*
X955200D01*
X848200Y64220D02*
X955200D01*
Y17220D02*
Y64220D01*
X848200Y17220D02*
Y64220D01*
Y30220D02*
X955200D01*
D71*
X334010Y487934D02*
X346710D01*
X340360Y481584D02*
Y494284D01*
X199390Y487934D02*
X212090D01*
X205740Y481584D02*
Y494284D01*
X67310Y489458D02*
X80010D01*
X73660Y483108D02*
Y495808D01*
X339090Y667258D02*
X351790D01*
X345440Y660908D02*
Y673608D01*
X207010Y667258D02*
X219710D01*
X213360Y660908D02*
Y673608D01*
X72390Y668274D02*
X85090D01*
X78740Y661924D02*
Y674624D01*
X178181Y241681D02*
Y291719D01*
X218059D01*
Y241681D02*
Y291719D01*
X178181Y241681D02*
X218059D01*
Y288290D02*
X229108D01*
Y283210D02*
Y288290D01*
X218059Y283210D02*
X229108D01*
X218059D02*
Y288290D01*
Y275590D02*
X229108D01*
Y270510D02*
Y275590D01*
X218059Y270510D02*
X229108D01*
X218059D02*
Y275590D01*
Y262890D02*
X229108D01*
Y257810D02*
Y262890D01*
X218059Y257810D02*
X229108D01*
X218059D02*
Y262890D01*
Y250190D02*
X229108D01*
Y245110D02*
Y250190D01*
X218059Y245110D02*
X229108D01*
X218059D02*
Y250190D01*
X167132Y245110D02*
X178181D01*
X167132D02*
Y250190D01*
X178181D01*
Y245110D02*
Y250190D01*
X167132Y257810D02*
X178181D01*
X167132D02*
Y262890D01*
X178181D01*
Y257810D02*
Y262890D01*
X167132Y270510D02*
X178181D01*
X167132D02*
Y275590D01*
X178181D01*
Y270510D02*
Y275590D01*
X167132Y283210D02*
X178181D01*
X167132D02*
Y288290D01*
X178181D01*
Y283210D02*
Y288290D01*
X526161Y239141D02*
Y289179D01*
X566039D01*
Y239141D02*
Y289179D01*
X526161Y239141D02*
X566039D01*
Y285750D02*
X577088D01*
Y280670D02*
Y285750D01*
X566039Y280670D02*
X577088D01*
X566039D02*
Y285750D01*
Y273050D02*
X577088D01*
Y267970D02*
Y273050D01*
X566039Y267970D02*
X577088D01*
X566039D02*
Y273050D01*
Y260350D02*
X577088D01*
Y255270D02*
Y260350D01*
X566039Y255270D02*
X577088D01*
X566039D02*
Y260350D01*
Y247650D02*
X577088D01*
Y242570D02*
Y247650D01*
X566039Y242570D02*
X577088D01*
X566039D02*
Y247650D01*
X515112Y242570D02*
X526161D01*
X515112D02*
Y247650D01*
X526161D01*
Y242570D02*
Y247650D01*
X515112Y255270D02*
X526161D01*
X515112D02*
Y260350D01*
X526161D01*
Y255270D02*
Y260350D01*
X515112Y267970D02*
X526161D01*
X515112D02*
Y273050D01*
X526161D01*
Y267970D02*
Y273050D01*
X515112Y280670D02*
X526161D01*
X515112D02*
Y285750D01*
X526161D01*
Y280670D02*
Y285750D01*
X528701Y162941D02*
Y212979D01*
X568579D01*
Y162941D02*
Y212979D01*
X528701Y162941D02*
X568579D01*
Y209550D02*
X579628D01*
Y204470D02*
Y209550D01*
X568579Y204470D02*
X579628D01*
X568579D02*
Y209550D01*
Y196850D02*
X579628D01*
Y191770D02*
Y196850D01*
X568579Y191770D02*
X579628D01*
X568579D02*
Y196850D01*
Y184150D02*
X579628D01*
Y179070D02*
Y184150D01*
X568579Y179070D02*
X579628D01*
X568579D02*
Y184150D01*
Y171450D02*
X579628D01*
Y166370D02*
Y171450D01*
X568579Y166370D02*
X579628D01*
X568579D02*
Y171450D01*
X517652Y166370D02*
X528701D01*
X517652D02*
Y171450D01*
X528701D01*
Y166370D02*
Y171450D01*
X517652Y179070D02*
X528701D01*
X517652D02*
Y184150D01*
X528701D01*
Y179070D02*
Y184150D01*
X517652Y191770D02*
X528701D01*
X517652D02*
Y196850D01*
X528701D01*
Y191770D02*
Y196850D01*
X517652Y204470D02*
X528701D01*
X517652D02*
Y209550D01*
X528701D01*
Y204470D02*
Y209550D01*
X180721Y162941D02*
Y212979D01*
X220599D01*
Y162941D02*
Y212979D01*
X180721Y162941D02*
X220599D01*
Y209550D02*
X231648D01*
Y204470D02*
Y209550D01*
X220599Y204470D02*
X231648D01*
X220599D02*
Y209550D01*
Y196850D02*
X231648D01*
Y191770D02*
Y196850D01*
X220599Y191770D02*
X231648D01*
X220599D02*
Y196850D01*
Y184150D02*
X231648D01*
Y179070D02*
Y184150D01*
X220599Y179070D02*
X231648D01*
X220599D02*
Y184150D01*
Y171450D02*
X231648D01*
Y166370D02*
Y171450D01*
X220599Y166370D02*
X231648D01*
X220599D02*
Y171450D01*
X169672Y166370D02*
X180721D01*
X169672D02*
Y171450D01*
X180721D01*
Y166370D02*
Y171450D01*
X169672Y179070D02*
X180721D01*
X169672D02*
Y184150D01*
X180721D01*
Y179070D02*
Y184150D01*
X169672Y191770D02*
X180721D01*
X169672D02*
Y196850D01*
X180721D01*
Y191770D02*
Y196850D01*
X169672Y204470D02*
X180721D01*
X169672D02*
Y209550D01*
X180721D01*
Y204470D02*
Y209550D01*
M02*
