G04*
G04 #@! TF.GenerationSoftware,Altium Limited,Altium Designer,22.10.1 (41)*
G04*
G04 Layer_Color=65535*
%FSLAX44Y44*%
%MOMM*%
G71*
G04*
G04 #@! TF.SameCoordinates,E145AED0-6931-4EEB-B232-2A21EE6FFB4C*
G04*
G04*
G04 #@! TF.FilePolarity,Positive*
G04*
G01*
G75*
%ADD10C,0.2000*%
%ADD11C,0.1524*%
%ADD12C,0.2500*%
%ADD13C,0.1270*%
%ADD14C,0.2540*%
%ADD15C,0.0762*%
%ADD16C,0.1500*%
D10*
X775180Y566470D02*
G03*
X775180Y566470I-1000J0D01*
G01*
X933180Y346100D02*
G03*
X933180Y346100I-1000J0D01*
G01*
Y186080D02*
G03*
X933180Y186080I-1000J0D01*
G01*
X870820Y332740D02*
G03*
X870820Y332740I-25000J0D01*
G01*
X763900Y279400D02*
G03*
X763900Y279400I-40000J0D01*
G01*
X761360Y373380D02*
G03*
X761360Y373380I-40000J0D01*
G01*
X130130Y258240D02*
Y280240D01*
X108630Y258240D02*
Y280240D01*
X132670Y181920D02*
Y203920D01*
X111170Y181920D02*
Y203920D01*
X459150Y253160D02*
Y275160D01*
X480650Y253160D02*
Y275160D01*
X485730Y179500D02*
Y201500D01*
X464230Y179500D02*
Y201500D01*
X57299Y255347D02*
Y284409D01*
X79861Y255347D02*
Y284409D01*
X59839Y181687D02*
Y210749D01*
X82401Y181687D02*
Y210749D01*
X430381Y248991D02*
Y278053D01*
X407819Y248991D02*
Y278053D01*
X410359Y178509D02*
Y207571D01*
X432921Y178509D02*
Y207571D01*
X612140Y198740D02*
Y212740D01*
X540300Y152990D02*
X562300D01*
X540300Y131490D02*
X562300D01*
X617220Y277480D02*
Y291480D01*
X555420Y299130D02*
X577420D01*
X555420Y320630D02*
X577420D01*
X271133Y198740D02*
Y212740D01*
X192200Y150450D02*
X214200D01*
X192200Y128950D02*
X214200D01*
X268593Y280020D02*
Y294020D01*
X197160Y309290D02*
X219160D01*
X197160Y330790D02*
X219160D01*
X848200Y22220D02*
X955200D01*
X848200Y17220D02*
X955200D01*
X848200Y64220D02*
X955200D01*
Y17220D02*
Y64220D01*
X848200Y17220D02*
Y64220D01*
X915819Y87069D02*
Y116131D01*
X938381Y87069D02*
Y116131D01*
X857220Y92615D02*
Y110584D01*
X885220Y92615D02*
Y110584D01*
X799290Y676880D02*
X856790D01*
X799290Y577880D02*
Y676880D01*
Y577880D02*
X856790D01*
Y676880D01*
X804200Y539720D02*
X861700D01*
X804200Y440720D02*
Y539720D01*
Y440720D02*
X861700D01*
Y539720D01*
X956480Y761190D02*
Y818690D01*
X882480D02*
X956480D01*
X882480Y761190D02*
Y818690D01*
Y761190D02*
X956480D01*
Y834850D02*
Y892350D01*
X882480D02*
X956480D01*
X882480Y834850D02*
Y892350D01*
Y834850D02*
X956480D01*
X612140Y173340D02*
Y187340D01*
X617220Y252080D02*
Y266080D01*
X271780Y175880D02*
Y189880D01*
X269240Y252080D02*
Y266080D01*
X801660Y811900D02*
X859160D01*
X801660Y712900D02*
Y811900D01*
Y712900D02*
X859160D01*
Y811900D01*
X959020Y690070D02*
Y747570D01*
X885020D02*
X959020D01*
X885020Y690070D02*
Y747570D01*
Y690070D02*
X959020D01*
X723900Y323850D02*
Y336550D01*
X717550Y330200D02*
X730250D01*
X862360Y377095D02*
Y395065D01*
X834360Y377095D02*
Y395065D01*
X782480Y372490D02*
Y394590D01*
X802480Y372490D02*
Y394590D01*
X721360Y417830D02*
Y430530D01*
X715010Y424180D02*
X727710D01*
X763419Y115009D02*
Y144071D01*
X785981Y115009D02*
Y144071D01*
X709900Y123096D02*
Y141065D01*
X737900Y123096D02*
Y141065D01*
D11*
X341630Y556768D02*
G03*
X341630Y556768I-1270J0D01*
G01*
X401574D02*
G03*
X401574Y556768I-61214J0D01*
G01*
X207010D02*
G03*
X207010Y556768I-1270J0D01*
G01*
X266954D02*
G03*
X266954Y556768I-61214J0D01*
G01*
X74930Y558292D02*
G03*
X74930Y558292I-1270J0D01*
G01*
X134874D02*
G03*
X134874Y558292I-61214J0D01*
G01*
X346710Y736092D02*
G03*
X346710Y736092I-1270J0D01*
G01*
X406654D02*
G03*
X406654Y736092I-61214J0D01*
G01*
X214630D02*
G03*
X214630Y736092I-1270J0D01*
G01*
X274574D02*
G03*
X274574Y736092I-61214J0D01*
G01*
X80010Y737108D02*
G03*
X80010Y737108I-1270J0D01*
G01*
X139954D02*
G03*
X139954Y737108I-61214J0D01*
G01*
X334010Y487934D02*
X346710D01*
X340360Y481584D02*
Y494284D01*
X199390Y487934D02*
X212090D01*
X205740Y481584D02*
Y494284D01*
X67310Y489458D02*
X80010D01*
X73660Y483108D02*
Y495808D01*
X339090Y667258D02*
X351790D01*
X345440Y660908D02*
Y673608D01*
X207010Y667258D02*
X219710D01*
X213360Y660908D02*
Y673608D01*
X72390Y668274D02*
X85090D01*
X78740Y661924D02*
Y674624D01*
X176911Y292989D02*
X219329D01*
X176911Y240411D02*
X219329D01*
X524891Y290449D02*
X567309D01*
X524891Y237871D02*
X567309D01*
X527431Y214249D02*
X569849D01*
X527431Y161671D02*
X569849D01*
X179451Y214249D02*
X221869D01*
X179451Y161671D02*
X221869D01*
D12*
X928350Y70720D02*
G03*
X928350Y70720I-1250J0D01*
G01*
X835040Y682130D02*
G03*
X835040Y682130I-1250J0D01*
G01*
X839950Y544970D02*
G03*
X839950Y544970I-1250J0D01*
G01*
X964480Y784690D02*
G03*
X964480Y784690I-1250J0D01*
G01*
Y858350D02*
G03*
X964480Y858350I-1250J0D01*
G01*
X837410Y817150D02*
G03*
X837410Y817150I-1250J0D01*
G01*
X967020Y713570D02*
G03*
X967020Y713570I-1250J0D01*
G01*
D13*
X426280Y826770D02*
X766680D01*
X426280Y458470D02*
Y826770D01*
Y458470D02*
X753980D01*
X766680Y471170D01*
Y826770D01*
X899180Y355600D02*
X965180D01*
Y482600D01*
X899180D02*
X965180D01*
X899180Y465100D02*
Y482600D01*
X894180Y465100D02*
X899180D01*
X894180Y453100D02*
Y465100D01*
Y453100D02*
X899180D01*
Y385100D02*
Y453100D01*
X894180Y385100D02*
X899180D01*
X894180Y373100D02*
Y385100D01*
Y373100D02*
X899180D01*
Y355600D02*
Y373100D01*
Y195580D02*
Y213080D01*
X894180D02*
X899180D01*
X894180D02*
Y225080D01*
X899180D01*
Y293080D01*
X894180D02*
X899180D01*
X894180D02*
Y305080D01*
X899180D01*
Y322580D01*
X965180D01*
Y195580D02*
Y322580D01*
X899180Y195580D02*
X965180D01*
D14*
X529590Y833120D02*
Y894080D01*
X388620Y833120D02*
Y894080D01*
Y833120D02*
X529590D01*
X388620Y894080D02*
X529590D01*
X976630Y927100D02*
Y988060D01*
X835660Y927100D02*
Y988060D01*
Y927100D02*
X976630D01*
X835660Y988060D02*
X976630D01*
X379730Y833120D02*
Y894080D01*
X238760Y833120D02*
Y894080D01*
Y833120D02*
X379730D01*
X238760Y894080D02*
X379730D01*
X222250Y833120D02*
Y894080D01*
X81280Y833120D02*
Y894080D01*
Y833120D02*
X222250D01*
X81280Y894080D02*
X222250D01*
X816610Y927100D02*
Y988060D01*
X675640Y927100D02*
Y988060D01*
Y927100D02*
X816610D01*
X675640Y988060D02*
X816610D01*
X694690Y833120D02*
Y894080D01*
X553720Y833120D02*
Y894080D01*
Y833120D02*
X694690D01*
X553720Y894080D02*
X694690D01*
X854710Y833120D02*
Y894080D01*
X713740Y833120D02*
Y894080D01*
Y833120D02*
X854710D01*
X713740Y894080D02*
X854710D01*
X191384Y927100D02*
Y988060D01*
X50414Y927100D02*
Y988060D01*
Y927100D02*
X191384D01*
X50414Y988060D02*
X191384D01*
X344170Y927100D02*
Y988060D01*
X203200Y927100D02*
Y988060D01*
Y927100D02*
X344170D01*
X203200Y988060D02*
X344170D01*
X499110Y927100D02*
Y988060D01*
X358140Y927100D02*
Y988060D01*
Y927100D02*
X499110D01*
X358140Y988060D02*
X499110D01*
X656590Y927100D02*
Y988060D01*
X515620Y927100D02*
Y988060D01*
Y927100D02*
X656590D01*
X515620Y988060D02*
X656590D01*
X21620Y449580D02*
X339120D01*
X21620Y17780D02*
X339120D01*
Y449580D01*
X21620Y17780D02*
Y449580D01*
X358940D02*
X676440D01*
X358940Y17780D02*
X676440D01*
Y449580D01*
X358940Y17780D02*
Y449580D01*
X694690Y19050D02*
X808990D01*
X694690D02*
Y102616D01*
X695198Y102870D02*
X808990D01*
Y19050D02*
Y102870D01*
X773557Y448183D02*
Y432948D01*
X765939D01*
X763400Y435487D01*
Y440565D01*
X765939Y443105D01*
X773557D01*
X748165Y435487D02*
X750704Y432948D01*
X755783D01*
X758322Y435487D01*
Y438026D01*
X755783Y440565D01*
X750704D01*
X748165Y443105D01*
Y445644D01*
X750704Y448183D01*
X755783D01*
X758322Y445644D01*
X743087Y448183D02*
X738008D01*
X740548D01*
Y432948D01*
X743087Y435487D01*
X904110Y505583D02*
X901571Y508122D01*
X896492D01*
X893953Y505583D01*
Y503044D01*
X896492Y500504D01*
X901571D01*
X904110Y497965D01*
Y495426D01*
X901571Y492887D01*
X896492D01*
X893953Y495426D01*
X919345Y492887D02*
X909188D01*
X919345Y503044D01*
Y505583D01*
X916806Y508122D01*
X911727D01*
X909188Y505583D01*
X924423D02*
X926962Y508122D01*
X932041D01*
X934580Y505583D01*
Y503044D01*
X932041Y500504D01*
X929501D01*
X932041D01*
X934580Y497965D01*
Y495426D01*
X932041Y492887D01*
X926962D01*
X924423Y495426D01*
X904110Y345563D02*
X901571Y348102D01*
X896492D01*
X893953Y345563D01*
Y343024D01*
X896492Y340485D01*
X901571D01*
X904110Y337945D01*
Y335406D01*
X901571Y332867D01*
X896492D01*
X893953Y335406D01*
X919345Y332867D02*
X909188D01*
X919345Y343024D01*
Y345563D01*
X916806Y348102D01*
X911727D01*
X909188Y345563D01*
X924423Y332867D02*
X929501D01*
X926962D01*
Y348102D01*
X924423Y345563D01*
X906396Y188337D02*
X903857Y190876D01*
X898778D01*
X896239Y188337D01*
Y185798D01*
X898778Y183258D01*
X903857D01*
X906396Y180719D01*
Y178180D01*
X903857Y175641D01*
X898778D01*
X896239Y178180D01*
X919092Y175641D02*
Y190876D01*
X911474Y183258D01*
X921631D01*
X342516Y508377D02*
X339977Y510916D01*
X334898D01*
X332359Y508377D01*
Y505838D01*
X334898Y503298D01*
X339977D01*
X342516Y500759D01*
Y498220D01*
X339977Y495681D01*
X334898D01*
X332359Y498220D01*
X347594Y508377D02*
X350133Y510916D01*
X355212D01*
X357751Y508377D01*
Y505838D01*
X355212Y503298D01*
X352672D01*
X355212D01*
X357751Y500759D01*
Y498220D01*
X355212Y495681D01*
X350133D01*
X347594Y498220D01*
X967356Y686177D02*
X964817Y688716D01*
X959738D01*
X957199Y686177D01*
Y683638D01*
X959738Y681098D01*
X964817D01*
X967356Y678559D01*
Y676020D01*
X964817Y673481D01*
X959738D01*
X957199Y676020D01*
X982591Y673481D02*
X972434D01*
X982591Y683638D01*
Y686177D01*
X980052Y688716D01*
X974973D01*
X972434Y686177D01*
X22476Y975737D02*
X19936Y978276D01*
X14858D01*
X12319Y975737D01*
Y973198D01*
X14858Y970658D01*
X19936D01*
X22476Y968119D01*
Y965580D01*
X19936Y963041D01*
X14858D01*
X12319Y965580D01*
X27554Y963041D02*
X32632D01*
X30093D01*
Y978276D01*
X27554Y975737D01*
X824108Y18415D02*
X836804D01*
X839343Y20954D01*
Y26033D01*
X836804Y28572D01*
X824108D01*
X826647Y33650D02*
X824108Y36189D01*
Y41268D01*
X826647Y43807D01*
X829186D01*
X831725Y41268D01*
X834265Y43807D01*
X836804D01*
X839343Y41268D01*
Y36189D01*
X836804Y33650D01*
X834265D01*
X831725Y36189D01*
X829186Y33650D01*
X826647D01*
X831725Y36189D02*
Y41268D01*
X257036Y303657D02*
Y318892D01*
X264653D01*
X267193Y316353D01*
Y311275D01*
X264653Y308735D01*
X257036D01*
X262114D02*
X267193Y303657D01*
X272271Y316353D02*
X274810Y318892D01*
X279888D01*
X282428Y316353D01*
Y313814D01*
X279888Y311275D01*
X282428Y308735D01*
Y306196D01*
X279888Y303657D01*
X274810D01*
X272271Y306196D01*
Y308735D01*
X274810Y311275D01*
X272271Y313814D01*
Y316353D01*
X274810Y311275D02*
X279888D01*
X293997Y198123D02*
Y213358D01*
X301615D01*
X304154Y210818D01*
Y205740D01*
X301615Y203201D01*
X293997D01*
X299075D02*
X304154Y198123D01*
X309232Y213358D02*
X319389D01*
Y210818D01*
X309232Y200662D01*
Y198123D01*
X605663Y301117D02*
Y316352D01*
X613280D01*
X615820Y313813D01*
Y308734D01*
X613280Y306195D01*
X605663D01*
X610741D02*
X615820Y301117D01*
X631055Y316352D02*
X625976Y313813D01*
X620898Y308734D01*
Y303656D01*
X623437Y301117D01*
X628516D01*
X631055Y303656D01*
Y306195D01*
X628516Y308734D01*
X620898D01*
X634357Y198123D02*
Y213358D01*
X641975D01*
X644514Y210818D01*
Y205740D01*
X641975Y203201D01*
X634357D01*
X639435D02*
X644514Y198123D01*
X659749Y213358D02*
X649592D01*
Y205740D01*
X654670Y208279D01*
X657210D01*
X659749Y205740D01*
Y200662D01*
X657210Y198123D01*
X652131D01*
X649592Y200662D01*
X27944Y665478D02*
Y650242D01*
X38101D01*
X53336Y665478D02*
X48257Y662938D01*
X43179Y657860D01*
Y652782D01*
X45718Y650242D01*
X50797D01*
X53336Y652782D01*
Y655321D01*
X50797Y657860D01*
X43179D01*
X154944Y665478D02*
Y650242D01*
X165101D01*
X180336Y665478D02*
X170179D01*
Y657860D01*
X175257Y660399D01*
X177797D01*
X180336Y657860D01*
Y652782D01*
X177797Y650242D01*
X172718D01*
X170179Y652782D01*
X284484Y665478D02*
Y650242D01*
X294641D01*
X307337D02*
Y665478D01*
X299719Y657860D01*
X309876D01*
X20324Y491741D02*
Y476507D01*
X30481D01*
X35559Y489202D02*
X38098Y491741D01*
X43177D01*
X45716Y489202D01*
Y486663D01*
X43177Y484124D01*
X40637D01*
X43177D01*
X45716Y481585D01*
Y479046D01*
X43177Y476507D01*
X38098D01*
X35559Y479046D01*
X149864Y488694D02*
Y473459D01*
X160021D01*
X175256D02*
X165099D01*
X175256Y483615D01*
Y486154D01*
X172717Y488694D01*
X167638D01*
X165099Y486154D01*
X289563Y488694D02*
Y473459D01*
X299720D01*
X304798D02*
X309877D01*
X307338D01*
Y488694D01*
X304798Y486154D01*
X894465Y96390D02*
X891926Y93850D01*
Y88772D01*
X894465Y86233D01*
X904622D01*
X907161Y88772D01*
Y93850D01*
X904622Y96390D01*
X907161Y111625D02*
Y101468D01*
X897004Y111625D01*
X894465D01*
X891926Y109086D01*
Y104007D01*
X894465Y101468D01*
X907161Y116703D02*
Y121782D01*
Y119242D01*
X891926D01*
X894465Y116703D01*
X454275Y198250D02*
X456814Y200790D01*
Y205868D01*
X454275Y208407D01*
X444118D01*
X441579Y205868D01*
Y200790D01*
X444118Y198250D01*
X441579Y183015D02*
Y193172D01*
X451736Y183015D01*
X454275D01*
X456814Y185554D01*
Y190633D01*
X454275Y193172D01*
Y177937D02*
X456814Y175398D01*
Y170319D01*
X454275Y167780D01*
X444118D01*
X441579Y170319D01*
Y175398D01*
X444118Y177937D01*
X454275D01*
X386465Y258312D02*
X383926Y255773D01*
Y250694D01*
X386465Y248155D01*
X396622D01*
X399161Y250694D01*
Y255773D01*
X396622Y258312D01*
X399161Y263390D02*
Y268469D01*
Y265929D01*
X383926D01*
X386465Y263390D01*
X396622Y276086D02*
X399161Y278625D01*
Y283704D01*
X396622Y286243D01*
X386465D01*
X383926Y283704D01*
Y278625D01*
X386465Y276086D01*
X389004D01*
X391543Y278625D01*
Y286243D01*
X103755Y201428D02*
X106294Y203967D01*
Y209046D01*
X103755Y211585D01*
X93598D01*
X91059Y209046D01*
Y203967D01*
X93598Y201428D01*
X91059Y196350D02*
Y191271D01*
Y193811D01*
X106294D01*
X103755Y196350D01*
Y183654D02*
X106294Y181115D01*
Y176036D01*
X103755Y173497D01*
X101216D01*
X98677Y176036D01*
X96137Y173497D01*
X93598D01*
X91059Y176036D01*
Y181115D01*
X93598Y183654D01*
X96137D01*
X98677Y181115D01*
X101216Y183654D01*
X103755D01*
X98677Y181115D02*
Y176036D01*
X101215Y275088D02*
X103754Y277627D01*
Y282706D01*
X101215Y285245D01*
X91058D01*
X88519Y282706D01*
Y277627D01*
X91058Y275088D01*
X88519Y270010D02*
Y264931D01*
Y267470D01*
X103754D01*
X101215Y270010D01*
X103754Y257314D02*
Y247157D01*
X101215D01*
X91058Y257314D01*
X88519D01*
X507107Y192916D02*
X509646Y195455D01*
Y200534D01*
X507107Y203073D01*
X496950D01*
X494411Y200534D01*
Y195455D01*
X496950Y192916D01*
X494411Y187838D02*
Y182760D01*
Y185299D01*
X509646D01*
X507107Y187838D01*
X509646Y164985D02*
X507107Y170064D01*
X502029Y175142D01*
X496950D01*
X494411Y172603D01*
Y167525D01*
X496950Y164985D01*
X499489D01*
X502029Y167525D01*
Y175142D01*
X437773Y261744D02*
X435234Y259205D01*
Y254126D01*
X437773Y251587D01*
X447930D01*
X450469Y254126D01*
Y259205D01*
X447930Y261744D01*
X450469Y266822D02*
Y271900D01*
Y269361D01*
X435234D01*
X437773Y266822D01*
X435234Y289675D02*
Y279518D01*
X442851D01*
X440312Y284596D01*
Y287136D01*
X442851Y289675D01*
X447930D01*
X450469Y287136D01*
Y282057D01*
X447930Y279518D01*
X154047Y195336D02*
X156586Y197875D01*
Y202954D01*
X154047Y205493D01*
X143890D01*
X141351Y202954D01*
Y197875D01*
X143890Y195336D01*
X141351Y190258D02*
Y185180D01*
Y187719D01*
X156586D01*
X154047Y190258D01*
X141351Y169944D02*
X156586D01*
X148968Y177562D01*
Y167405D01*
X151507Y271656D02*
X154046Y274195D01*
Y279274D01*
X151507Y281813D01*
X141350D01*
X138811Y279274D01*
Y274195D01*
X141350Y271656D01*
X138811Y266578D02*
Y261500D01*
Y264039D01*
X154046D01*
X151507Y266578D01*
Y253882D02*
X154046Y251343D01*
Y246264D01*
X151507Y243725D01*
X148968D01*
X146428Y246264D01*
Y248804D01*
Y246264D01*
X143889Y243725D01*
X141350D01*
X138811Y246264D01*
Y251343D01*
X141350Y253882D01*
X205744Y352167D02*
X203204Y354706D01*
X198126D01*
X195587Y352167D01*
Y342010D01*
X198126Y339471D01*
X203204D01*
X205744Y342010D01*
X210822Y339471D02*
X215900D01*
X213361D01*
Y354706D01*
X210822Y352167D01*
X233675Y339471D02*
X223518D01*
X233675Y349628D01*
Y352167D01*
X231136Y354706D01*
X226057D01*
X223518Y352167D01*
X205616Y107573D02*
X208155Y105034D01*
X213234D01*
X215773Y107573D01*
Y117730D01*
X213234Y120269D01*
X208155D01*
X205616Y117730D01*
X200538Y120269D02*
X195460D01*
X197999D01*
Y105034D01*
X200538Y107573D01*
X187842Y120269D02*
X182764D01*
X185303D01*
Y105034D01*
X187842Y107573D01*
X564004Y342007D02*
X561465Y344546D01*
X556386D01*
X553847Y342007D01*
Y331850D01*
X556386Y329311D01*
X561465D01*
X564004Y331850D01*
X569082Y329311D02*
X574160D01*
X571621D01*
Y344546D01*
X569082Y342007D01*
X581778D02*
X584317Y344546D01*
X589395D01*
X591935Y342007D01*
Y331850D01*
X589395Y329311D01*
X584317D01*
X581778Y331850D01*
Y342007D01*
X553716Y110113D02*
X556255Y107574D01*
X561334D01*
X563873Y110113D01*
Y120270D01*
X561334Y122809D01*
X556255D01*
X553716Y120270D01*
X548638D02*
X546099Y122809D01*
X541020D01*
X538481Y120270D01*
Y110113D01*
X541020Y107574D01*
X546099D01*
X548638Y110113D01*
Y112652D01*
X546099Y115191D01*
X538481D01*
X833242Y101473D02*
X820546D01*
X818007Y98934D01*
Y93855D01*
X820546Y91316D01*
X833242D01*
Y86238D02*
Y76081D01*
X830703D01*
X820546Y86238D01*
X818007D01*
X379244Y477518D02*
Y464822D01*
X381783Y462282D01*
X386862D01*
X389401Y464822D01*
Y477518D01*
X404636D02*
X399557Y474978D01*
X394479Y469900D01*
Y464822D01*
X397018Y462282D01*
X402097D01*
X404636Y464822D01*
Y467361D01*
X402097Y469900D01*
X394479D01*
X58284Y472438D02*
Y459742D01*
X60823Y457202D01*
X65902D01*
X68441Y459742D01*
Y472438D01*
X83676D02*
X73519D01*
Y464820D01*
X78597Y467359D01*
X81137D01*
X83676Y464820D01*
Y459742D01*
X81137Y457202D01*
X76058D01*
X73519Y459742D01*
X162687Y324226D02*
Y311530D01*
X165226Y308991D01*
X170305D01*
X172844Y311530D01*
Y324226D01*
X185540Y308991D02*
Y324226D01*
X177922Y316609D01*
X188079D01*
X165227Y245486D02*
Y232790D01*
X167766Y230251D01*
X172845D01*
X175384Y232790D01*
Y245486D01*
X180462Y242947D02*
X183001Y245486D01*
X188080D01*
X190619Y242947D01*
Y240408D01*
X188080Y237868D01*
X185540D01*
X188080D01*
X190619Y235329D01*
Y232790D01*
X188080Y230251D01*
X183001D01*
X180462Y232790D01*
X510667Y321686D02*
Y308990D01*
X513206Y306451D01*
X518284D01*
X520824Y308990D01*
Y321686D01*
X536059Y306451D02*
X525902D01*
X536059Y316608D01*
Y319147D01*
X533520Y321686D01*
X528441D01*
X525902Y319147D01*
X513207Y245486D02*
Y232790D01*
X515746Y230251D01*
X520825D01*
X523364Y232790D01*
Y245486D01*
X528442Y230251D02*
X533520D01*
X530981D01*
Y245486D01*
X528442Y242947D01*
X280797Y242443D02*
Y227208D01*
X273179D01*
X270640Y229747D01*
Y234825D01*
X273179Y237365D01*
X280797D01*
X275719D02*
X270640Y242443D01*
X257944D02*
Y227208D01*
X265562Y234825D01*
X255405D01*
X283337Y166243D02*
Y151008D01*
X275720D01*
X273180Y153547D01*
Y158625D01*
X275720Y161165D01*
X283337D01*
X278259D02*
X273180Y166243D01*
X268102Y153547D02*
X265563Y151008D01*
X260484D01*
X257945Y153547D01*
Y156086D01*
X260484Y158625D01*
X263024D01*
X260484D01*
X257945Y161165D01*
Y163704D01*
X260484Y166243D01*
X265563D01*
X268102Y163704D01*
X628777Y242443D02*
Y227208D01*
X621160D01*
X618620Y229747D01*
Y234825D01*
X621160Y237365D01*
X628777D01*
X623699D02*
X618620Y242443D01*
X603385D02*
X613542D01*
X603385Y232286D01*
Y229747D01*
X605924Y227208D01*
X611003D01*
X613542Y229747D01*
X623697Y163703D02*
Y148468D01*
X616079D01*
X613540Y151007D01*
Y156086D01*
X616079Y158625D01*
X623697D01*
X618619D02*
X613540Y163703D01*
X608462D02*
X603384D01*
X605923D01*
Y148468D01*
X608462Y151007D01*
X847087Y551182D02*
X852166D01*
X849626D01*
Y563878D01*
X852166Y566418D01*
X854705D01*
X857244Y563878D01*
X842009Y566418D02*
X836930D01*
X839470D01*
Y551182D01*
X842009Y553722D01*
X829313Y551182D02*
X819156D01*
Y553722D01*
X829313Y563878D01*
Y566418D01*
X854707Y419102D02*
X859786D01*
X857246D01*
Y431798D01*
X859786Y434338D01*
X862325D01*
X864864Y431798D01*
X849629Y434338D02*
X844550D01*
X847090D01*
Y419102D01*
X849629Y421642D01*
X826776Y419102D02*
X831854Y421642D01*
X836933Y426720D01*
Y431798D01*
X834394Y434338D01*
X829315D01*
X826776Y431798D01*
Y429259D01*
X829315Y426720D01*
X836933D01*
X532133Y916937D02*
X527054D01*
X529594D01*
Y904242D01*
X527054Y901702D01*
X524515D01*
X521976Y904242D01*
X537211Y901702D02*
X542290D01*
X539750D01*
Y916937D01*
X537211Y914398D01*
X560064Y916937D02*
X549907D01*
Y909320D01*
X554986Y911859D01*
X557525D01*
X560064Y909320D01*
Y904242D01*
X557525Y901702D01*
X552446D01*
X549907Y904242D01*
X377193Y916937D02*
X372114D01*
X374654D01*
Y904242D01*
X372114Y901702D01*
X369575D01*
X367036Y904242D01*
X382271Y901702D02*
X387350D01*
X384810D01*
Y916937D01*
X382271Y914398D01*
X402585Y901702D02*
Y916937D01*
X394967Y909320D01*
X405124D01*
X224793Y919477D02*
X219715D01*
X222254D01*
Y906782D01*
X219715Y904242D01*
X217175D01*
X214636Y906782D01*
X229871Y904242D02*
X234950D01*
X232410D01*
Y919477D01*
X229871Y916938D01*
X242567D02*
X245106Y919477D01*
X250185D01*
X252724Y916938D01*
Y914399D01*
X250185Y911860D01*
X247645D01*
X250185D01*
X252724Y909321D01*
Y906782D01*
X250185Y904242D01*
X245106D01*
X242567Y906782D01*
X102873Y922018D02*
X97795D01*
X100334D01*
Y909322D01*
X97795Y906783D01*
X95255D01*
X92716Y909322D01*
X107951Y906783D02*
X113030D01*
X110490D01*
Y922018D01*
X107951Y919478D01*
X130804Y906783D02*
X120647D01*
X130804Y916939D01*
Y919478D01*
X128265Y922018D01*
X123186D01*
X120647Y919478D01*
X750572Y822958D02*
X745494D01*
X748033D01*
Y810262D01*
X745494Y807722D01*
X742954D01*
X740415Y810262D01*
X755650Y807722D02*
X760729D01*
X758190D01*
Y822958D01*
X755650Y820418D01*
X768346Y807722D02*
X773425D01*
X770885D01*
Y822958D01*
X768346Y820418D01*
X572773Y825498D02*
X567695D01*
X570234D01*
Y812802D01*
X567695Y810263D01*
X565155D01*
X562616Y812802D01*
X577851Y810263D02*
X582930D01*
X580390D01*
Y825498D01*
X577851Y822958D01*
X590547D02*
X593086Y825498D01*
X598165D01*
X600704Y822958D01*
Y812802D01*
X598165Y810263D01*
X593086D01*
X590547Y812802D01*
Y822958D01*
X693421Y922018D02*
X688343D01*
X690882D01*
Y909322D01*
X688343Y906783D01*
X685803D01*
X683264Y909322D01*
X698499D02*
X701038Y906783D01*
X706117D01*
X708656Y909322D01*
Y919478D01*
X706117Y922018D01*
X701038D01*
X698499Y919478D01*
Y916939D01*
X701038Y914400D01*
X708656D01*
X91441Y820417D02*
X86362D01*
X88902D01*
Y807722D01*
X86362Y805182D01*
X83823D01*
X81284Y807722D01*
X96519Y817878D02*
X99058Y820417D01*
X104137D01*
X106676Y817878D01*
Y815339D01*
X104137Y812800D01*
X106676Y810261D01*
Y807722D01*
X104137Y805182D01*
X99058D01*
X96519Y807722D01*
Y810261D01*
X99058Y812800D01*
X96519Y815339D01*
Y817878D01*
X99058Y812800D02*
X104137D01*
X254001Y820417D02*
X248923D01*
X251462D01*
Y807722D01*
X248923Y805182D01*
X246383D01*
X243844Y807722D01*
X259079Y820417D02*
X269236D01*
Y817878D01*
X259079Y807722D01*
Y805182D01*
X955678Y665104D02*
X960757D01*
X958217D01*
Y677800D01*
X960757Y680339D01*
X963296D01*
X965835Y677800D01*
X940443Y665104D02*
X945522Y667643D01*
X950600Y672721D01*
Y677800D01*
X948061Y680339D01*
X942982D01*
X940443Y677800D01*
Y675261D01*
X942982Y672721D01*
X950600D01*
X858521Y922018D02*
X853443D01*
X855982D01*
Y909322D01*
X853443Y906783D01*
X850903D01*
X848364Y909322D01*
X873756Y922018D02*
X863599D01*
Y914400D01*
X868678Y916939D01*
X871217D01*
X873756Y914400D01*
Y909322D01*
X871217Y906783D01*
X866138D01*
X863599Y909322D01*
X406401Y820417D02*
X401323D01*
X403862D01*
Y807722D01*
X401323Y805182D01*
X398783D01*
X396244Y807722D01*
X419097Y805182D02*
Y820417D01*
X411479Y812800D01*
X421636D01*
X762386Y723516D02*
Y718437D01*
Y720976D01*
X775082D01*
X777621Y718437D01*
Y715898D01*
X775082Y713359D01*
X764925Y728594D02*
X762386Y731133D01*
Y736212D01*
X764925Y738751D01*
X767464D01*
X770004Y736212D01*
Y733672D01*
Y736212D01*
X772543Y738751D01*
X775082D01*
X777621Y736212D01*
Y731133D01*
X775082Y728594D01*
X762386Y797176D02*
Y792097D01*
Y794637D01*
X775082D01*
X777621Y792097D01*
Y789558D01*
X775082Y787019D01*
X777621Y812411D02*
Y802254D01*
X767464Y812411D01*
X764925D01*
X762386Y809872D01*
Y804793D01*
X764925Y802254D01*
X848574Y688110D02*
X853653D01*
X851114D01*
Y700806D01*
X853653Y703345D01*
X856192D01*
X858731Y700806D01*
X843496Y703345D02*
X838418D01*
X840957D01*
Y688110D01*
X843496Y690649D01*
X721361Y175258D02*
X718822Y177798D01*
X713743D01*
X711204Y175258D01*
Y165102D01*
X713743Y162563D01*
X718822D01*
X721361Y165102D01*
X726439Y175258D02*
X728978Y177798D01*
X734057D01*
X736596Y175258D01*
Y172719D01*
X734057Y170180D01*
X736596Y167641D01*
Y165102D01*
X734057Y162563D01*
X728978D01*
X726439Y165102D01*
Y167641D01*
X728978Y170180D01*
X726439Y172719D01*
Y175258D01*
X728978Y170180D02*
X734057D01*
X774701Y167638D02*
X772162Y170177D01*
X767083D01*
X764544Y167638D01*
Y157482D01*
X767083Y154943D01*
X772162D01*
X774701Y157482D01*
X779779Y170177D02*
X789936D01*
Y167638D01*
X779779Y157482D01*
Y154943D01*
X782951Y418722D02*
X785490Y421261D01*
Y426340D01*
X782951Y428879D01*
X772794D01*
X770255Y426340D01*
Y421261D01*
X772794Y418722D01*
X785490Y403487D02*
X782951Y408566D01*
X777872Y413644D01*
X772794D01*
X770255Y411105D01*
Y406026D01*
X772794Y403487D01*
X775333D01*
X777872Y406026D01*
Y413644D01*
X841887Y99184D02*
X839348Y96644D01*
Y91566D01*
X841887Y89027D01*
X852044D01*
X854583Y91566D01*
Y96644D01*
X852044Y99184D01*
X839348Y114419D02*
Y104262D01*
X846965D01*
X844426Y109340D01*
Y111880D01*
X846965Y114419D01*
X852044D01*
X854583Y111880D01*
Y106801D01*
X852044Y104262D01*
X884551Y394846D02*
X887090Y397385D01*
Y402464D01*
X884551Y405003D01*
X874394D01*
X871855Y402464D01*
Y397385D01*
X874394Y394846D01*
X871855Y382150D02*
X887090D01*
X879473Y389768D01*
Y379611D01*
X823845Y387734D02*
X826384Y390274D01*
Y395352D01*
X823845Y397891D01*
X813688D01*
X811149Y395352D01*
Y390274D01*
X813688Y387734D01*
X823845Y382656D02*
X826384Y380117D01*
Y375038D01*
X823845Y372499D01*
X821306D01*
X818766Y375038D01*
Y377578D01*
Y375038D01*
X816227Y372499D01*
X813688D01*
X811149Y375038D01*
Y380117D01*
X813688Y382656D01*
X881378Y299719D02*
X883917Y302258D01*
Y307337D01*
X881378Y309876D01*
X871222D01*
X868682Y307337D01*
Y302258D01*
X871222Y299719D01*
X868682Y284484D02*
Y294641D01*
X878839Y284484D01*
X881378D01*
X883917Y287023D01*
Y292102D01*
X881378Y294641D01*
X767078Y325120D02*
X769617Y327659D01*
Y332738D01*
X767078Y335277D01*
X756922D01*
X754382Y332738D01*
Y327659D01*
X756922Y325120D01*
X754382Y320042D02*
Y314963D01*
Y317502D01*
X769617D01*
X767078Y320042D01*
D15*
X166942Y300648D02*
X175405Y292184D01*
X166942D02*
X175405Y300648D01*
X166942Y296416D02*
X175405D01*
X171173Y292184D02*
Y300648D01*
X514921Y298108D02*
X523385Y289644D01*
X514921D02*
X523385Y298108D01*
X514921Y293876D02*
X523385D01*
X519154Y289644D02*
Y298108D01*
X517462Y221908D02*
X525925Y213444D01*
X517462D02*
X525925Y221908D01*
X517462Y217676D02*
X525925D01*
X521693Y213444D02*
Y221908D01*
X169482D02*
X177945Y213444D01*
X169482D02*
X177945Y221908D01*
X169482Y217676D02*
X177945D01*
X173713Y213444D02*
Y221908D01*
D16*
X845692Y293660D02*
Y303657D01*
X840694Y298658D02*
X850691D01*
M02*
