G04*
G04 #@! TF.GenerationSoftware,Altium Limited,Altium Designer,22.10.1 (41)*
G04*
G04 Layer_Color=255*
%FSLAX44Y44*%
%MOMM*%
G71*
G04*
G04 #@! TF.SameCoordinates,96092411-4BE1-4E5F-83DD-11E1D8B77A3F*
G04*
G04*
G04 #@! TF.FilePolarity,Positive*
G04*
G01*
G75*
%ADD30C,1.3000*%
%ADD31R,1.3000X1.3000*%
%ADD32R,1.4000X1.4000*%
%ADD33C,1.4000*%
%ADD34C,1.1000*%
%ADD35R,1.4000X1.4000*%
%ADD47C,2.1082*%
%ADD50C,1.5500*%
%ADD51R,1.5500X1.5500*%
%ADD66C,5.0800*%
%ADD67C,1.5000*%
%ADD68C,1.5240*%
%ADD69C,2.2050*%
%ADD70C,3.0300*%
%ADD71R,2.2050X2.2050*%
%ADD72C,2.7000*%
%ADD73R,2.7000X2.7000*%
%ADD74R,2.7000X2.7000*%
%ADD75R,1.6000X1.6000*%
%ADD76C,1.6000*%
%ADD77R,1.3000X1.3000*%
%ADD78R,1.7780X1.7780*%
%ADD79C,1.7780*%
D30*
X865740Y469900D02*
D03*
X886860Y571500D02*
D03*
X845820Y342740D02*
D03*
D31*
X815740Y469900D02*
D03*
X936860Y571500D02*
D03*
D32*
X917500Y213360D02*
D03*
X825780Y254000D02*
D03*
X739140Y949960D02*
D03*
X949288Y845261D02*
D03*
X946620Y764370D02*
D03*
X642220Y863430D02*
D03*
D33*
X952500Y213360D02*
D03*
X860780Y254000D02*
D03*
X714140Y949960D02*
D03*
X689140D02*
D03*
X849288Y845261D02*
D03*
X874288D02*
D03*
X899288D02*
D03*
X924288D02*
D03*
X846620Y764370D02*
D03*
X871620D02*
D03*
X896620D02*
D03*
X921620D02*
D03*
X805350Y914800D02*
D03*
Y939800D02*
D03*
X746760Y254560D02*
D03*
X592220Y863430D02*
D03*
X617220D02*
D03*
X746760Y355880D02*
D03*
D34*
X965288Y865261D02*
D03*
X962620Y784370D02*
D03*
D35*
X805350Y964800D02*
D03*
X746760Y289560D02*
D03*
Y390880D02*
D03*
D47*
X340360Y586740D02*
D03*
Y526796D02*
D03*
X205740Y586740D02*
D03*
Y526796D02*
D03*
X73660Y588264D02*
D03*
Y528320D02*
D03*
X345440Y766064D02*
D03*
Y706120D02*
D03*
X213360Y766064D02*
D03*
Y706120D02*
D03*
X78740Y767080D02*
D03*
Y707136D02*
D03*
D50*
X703780Y863430D02*
D03*
D51*
X728780D02*
D03*
D66*
X355600Y868680D02*
D03*
X431800D02*
D03*
X502920D02*
D03*
X63500Y871220D02*
D03*
X139700D02*
D03*
X215900D02*
D03*
X868680Y957580D02*
D03*
X944880D02*
D03*
X83434D02*
D03*
X159634D02*
D03*
X312420D02*
D03*
X236220D02*
D03*
X391160D02*
D03*
X467360D02*
D03*
X624840D02*
D03*
X548640D02*
D03*
D67*
X629920Y398780D02*
D03*
Y424180D02*
D03*
X604520D02*
D03*
X579120Y398780D02*
D03*
X604520D02*
D03*
X452120Y43180D02*
D03*
X477520D02*
D03*
X502920D02*
D03*
X528320D02*
D03*
X553720D02*
D03*
X579120D02*
D03*
X604520D02*
D03*
X629920D02*
D03*
X426720D02*
D03*
X655320D02*
D03*
X401320D02*
D03*
X452120Y424180D02*
D03*
X477520D02*
D03*
X502920D02*
D03*
X528320D02*
D03*
X553720D02*
D03*
X579120D02*
D03*
X426720Y398780D02*
D03*
X452120D02*
D03*
X477520D02*
D03*
X502920D02*
D03*
X528320D02*
D03*
X553720D02*
D03*
X289560Y401320D02*
D03*
Y426720D02*
D03*
X264160D02*
D03*
X238760Y401320D02*
D03*
X264160D02*
D03*
X111760Y45720D02*
D03*
X137160D02*
D03*
X162560D02*
D03*
X187960D02*
D03*
X213360D02*
D03*
X238760D02*
D03*
X264160D02*
D03*
X289560D02*
D03*
X86360D02*
D03*
X314960D02*
D03*
X60960D02*
D03*
X111760Y426720D02*
D03*
X137160D02*
D03*
X162560D02*
D03*
X187960D02*
D03*
X213360D02*
D03*
X238760D02*
D03*
X86360Y401320D02*
D03*
X111760D02*
D03*
X137160D02*
D03*
X162560D02*
D03*
X187960D02*
D03*
X213360D02*
D03*
D68*
X426720Y424180D02*
D03*
X86360Y426720D02*
D03*
D69*
X462280Y604570D02*
D03*
Y642670D02*
D03*
X741680Y718870D02*
D03*
Y642670D02*
D03*
D70*
X462280Y566470D02*
D03*
Y718870D02*
D03*
D71*
X741680Y566470D02*
D03*
D72*
X933460Y683260D02*
D03*
X886460D02*
D03*
X944880Y389900D02*
D03*
Y342900D02*
D03*
D73*
X839460Y683260D02*
D03*
D74*
X944880Y295900D02*
D03*
D75*
X927100Y45720D02*
D03*
D76*
X901700D02*
D03*
X876300D02*
D03*
D77*
X845820Y322740D02*
D03*
D78*
X726440Y40640D02*
D03*
D79*
X751840D02*
D03*
X777240D02*
D03*
M02*
