G04*
G04 #@! TF.GenerationSoftware,Altium Limited,Altium Designer,22.10.1 (41)*
G04*
G04 Layer_Color=16711935*
%FSLAX44Y44*%
%MOMM*%
G71*
G04*
G04 #@! TF.SameCoordinates,E145AED0-6931-4EEB-B232-2A21EE6FFB4C*
G04*
G04*
G04 #@! TF.FilePolarity,Negative*
G04*
G01*
G75*
%ADD24C,2.3550*%
%ADD25C,3.1800*%
%ADD26R,2.3550X2.3550*%
%ADD27C,2.8500*%
%ADD28R,2.8500X2.8500*%
%ADD29C,0.1500*%
%ADD30C,2.1082*%
%ADD31C,5.2070*%
%ADD32R,1.7500X1.7500*%
%ADD33C,1.7500*%
%ADD34C,1.4000*%
%ADD35R,1.4000X1.4000*%
%ADD36C,1.5500*%
%ADD37R,1.5500X1.5500*%
%ADD38C,1.4500*%
%ADD39R,1.4500X1.4500*%
%ADD40R,1.5500X1.5500*%
%ADD41C,1.5500*%
%ADD42C,1.6270*%
%ADD43R,1.9050X1.9050*%
%ADD44C,1.9050*%
%ADD45C,1.4200*%
%ADD46C,0.6580*%
%ADD47C,0.9120*%
D24*
X462280Y604570D02*
D03*
Y642670D02*
D03*
X741680Y718870D02*
D03*
Y642670D02*
D03*
D25*
X462280Y566470D02*
D03*
Y718870D02*
D03*
D26*
X741680Y566470D02*
D03*
D27*
X932180Y466100D02*
D03*
Y419100D02*
D03*
Y306080D02*
D03*
Y259080D02*
D03*
D28*
Y372100D02*
D03*
Y212080D02*
D03*
D29*
X27940Y937260D02*
D03*
X972820Y647700D02*
D03*
X347980Y469900D02*
D03*
X911860Y149860D02*
D03*
D30*
X340360Y586740D02*
D03*
Y526796D02*
D03*
X205740Y586740D02*
D03*
Y526796D02*
D03*
X73660Y588264D02*
D03*
Y528320D02*
D03*
X345440Y766064D02*
D03*
Y706120D02*
D03*
X213360Y766064D02*
D03*
Y706120D02*
D03*
X78740Y767080D02*
D03*
Y707136D02*
D03*
D31*
X497840Y863600D02*
D03*
X421640D02*
D03*
X868680Y957580D02*
D03*
X944880D02*
D03*
X347980Y863600D02*
D03*
X271780D02*
D03*
X114300D02*
D03*
X190500D02*
D03*
X784860Y957580D02*
D03*
X708660D02*
D03*
X586740Y863600D02*
D03*
X662940D02*
D03*
X822960D02*
D03*
X746760D02*
D03*
X83434Y957580D02*
D03*
X159634D02*
D03*
X312420D02*
D03*
X236220D02*
D03*
X391160D02*
D03*
X467360D02*
D03*
X624840D02*
D03*
X548640D02*
D03*
D32*
X927100Y45720D02*
D03*
D33*
X901700D02*
D03*
X876300D02*
D03*
D34*
X833290Y602380D02*
D03*
Y627380D02*
D03*
X838200Y465220D02*
D03*
Y490220D02*
D03*
X835660Y737400D02*
D03*
Y762400D02*
D03*
D35*
X833290Y652380D02*
D03*
X838200Y515220D02*
D03*
X835660Y787400D02*
D03*
D36*
X906980Y784690D02*
D03*
Y858350D02*
D03*
X909520Y713570D02*
D03*
D37*
X931980Y784690D02*
D03*
Y858350D02*
D03*
X934520Y713570D02*
D03*
D38*
X845820Y342740D02*
D03*
D39*
Y322740D02*
D03*
D40*
X723900Y296900D02*
D03*
X721360Y390880D02*
D03*
D41*
X723900Y261900D02*
D03*
X721360Y355880D02*
D03*
D42*
X202420Y398780D02*
D03*
X181620D02*
D03*
X162420D02*
D03*
X141620D02*
D03*
X122420D02*
D03*
X101620D02*
D03*
X221620Y424180D02*
D03*
X202420D02*
D03*
X181620D02*
D03*
X162420D02*
D03*
X141620D02*
D03*
X122420D02*
D03*
X101620D02*
D03*
X81620Y43180D02*
D03*
X281620D02*
D03*
X101620D02*
D03*
X261620D02*
D03*
X242420D02*
D03*
X221620D02*
D03*
X202420D02*
D03*
X181620D02*
D03*
X162420D02*
D03*
X141620D02*
D03*
X122420D02*
D03*
X242420Y398780D02*
D03*
X221620D02*
D03*
X242420Y424180D02*
D03*
X261620D02*
D03*
Y398780D02*
D03*
X539740D02*
D03*
X518940D02*
D03*
X499740D02*
D03*
X478940D02*
D03*
X459740D02*
D03*
X438940D02*
D03*
X558940Y424180D02*
D03*
X539740D02*
D03*
X518940D02*
D03*
X499740D02*
D03*
X478940D02*
D03*
X459740D02*
D03*
X438940D02*
D03*
X418940Y43180D02*
D03*
X618940D02*
D03*
X438940D02*
D03*
X598940D02*
D03*
X579740D02*
D03*
X558940D02*
D03*
X539740D02*
D03*
X518940D02*
D03*
X499740D02*
D03*
X478940D02*
D03*
X459740D02*
D03*
X579740Y398780D02*
D03*
X558940D02*
D03*
X579740Y424180D02*
D03*
X598940D02*
D03*
Y398780D02*
D03*
D43*
X726440Y40640D02*
D03*
D44*
X751840D02*
D03*
X777240D02*
D03*
D45*
X830580Y574040D02*
D03*
X807720Y551180D02*
D03*
X500380Y144780D02*
D03*
X637415Y180340D02*
D03*
X502920Y231140D02*
D03*
X386080Y208280D02*
D03*
X139940Y218440D02*
D03*
X650240Y223520D02*
D03*
X640080Y261112D02*
D03*
X842712Y250200D02*
D03*
X726440Y104140D02*
D03*
X797560Y182880D02*
D03*
X650240Y459740D02*
D03*
X614680Y457200D02*
D03*
X576580Y472440D02*
D03*
X487680Y505460D02*
D03*
X431800Y464820D02*
D03*
X332740Y365760D02*
D03*
X81280Y142240D02*
D03*
X139700Y139700D02*
D03*
X73660Y109220D02*
D03*
X121654Y292100D02*
D03*
X154178Y273050D02*
D03*
X695960Y314960D02*
D03*
X509057Y310817D02*
D03*
D46*
X977900Y152400D02*
D03*
X965200Y127000D02*
D03*
X977900Y101600D02*
D03*
X965200Y76200D02*
D03*
X977900Y50800D02*
D03*
X965200Y25400D02*
D03*
X939800Y127000D02*
D03*
Y76200D02*
D03*
X914400Y127000D02*
D03*
X889000D02*
D03*
X901700Y101600D02*
D03*
X889000Y76200D02*
D03*
X876300Y152400D02*
D03*
X863600Y127000D02*
D03*
X876300Y101600D02*
D03*
X863600Y76200D02*
D03*
X838200Y939800D02*
D03*
X850900Y914400D02*
D03*
X838200Y889000D02*
D03*
X850900Y152400D02*
D03*
X838200Y127000D02*
D03*
X850900Y101600D02*
D03*
X838200Y76200D02*
D03*
X850900Y50800D02*
D03*
X825500Y965200D02*
D03*
X812800Y939800D02*
D03*
X825500Y914400D02*
D03*
Y152400D02*
D03*
X812800Y127000D02*
D03*
Y76200D02*
D03*
X825500Y50800D02*
D03*
X800100Y914400D02*
D03*
X787400Y889000D02*
D03*
X800100Y812800D02*
D03*
X787400Y787400D02*
D03*
X800100Y152400D02*
D03*
Y101600D02*
D03*
X787400Y76200D02*
D03*
X774700Y914400D02*
D03*
X762000Y889000D02*
D03*
Y838200D02*
D03*
X774700Y762000D02*
D03*
X762000Y736600D02*
D03*
Y76200D02*
D03*
X749300Y965200D02*
D03*
X736600Y939800D02*
D03*
X749300Y812800D02*
D03*
Y762000D02*
D03*
X736600Y736600D02*
D03*
Y685800D02*
D03*
X749300Y152400D02*
D03*
Y101600D02*
D03*
X736600Y76200D02*
D03*
X723900Y914400D02*
D03*
X711200Y838200D02*
D03*
X723900Y812800D02*
D03*
X711200Y787400D02*
D03*
X723900Y711200D02*
D03*
X711200Y685800D02*
D03*
X723900Y660400D02*
D03*
X711200Y635000D02*
D03*
Y584200D02*
D03*
Y533400D02*
D03*
Y431800D02*
D03*
Y381000D02*
D03*
Y330200D02*
D03*
Y76200D02*
D03*
X685800Y939800D02*
D03*
X698500Y914400D02*
D03*
X685800Y889000D02*
D03*
X698500Y812800D02*
D03*
X685800Y787400D02*
D03*
X698500Y762000D02*
D03*
Y711200D02*
D03*
X685800Y685800D02*
D03*
X698500Y660400D02*
D03*
X685800Y635000D02*
D03*
X698500Y609600D02*
D03*
X685800Y584200D02*
D03*
X698500Y558800D02*
D03*
X685800Y533400D02*
D03*
X698500Y508000D02*
D03*
X685800Y482600D02*
D03*
X698500Y457200D02*
D03*
X685800Y431800D02*
D03*
Y381000D02*
D03*
Y330200D02*
D03*
X698500Y152400D02*
D03*
X685800Y127000D02*
D03*
X698500Y101600D02*
D03*
X685800Y76200D02*
D03*
X673100Y965200D02*
D03*
X660400Y939800D02*
D03*
X673100Y914400D02*
D03*
X660400Y787400D02*
D03*
X673100Y762000D02*
D03*
Y558800D02*
D03*
Y508000D02*
D03*
Y457200D02*
D03*
Y406400D02*
D03*
X660400Y127000D02*
D03*
X673100Y101600D02*
D03*
X660400Y76200D02*
D03*
X647700Y914400D02*
D03*
Y711200D02*
D03*
X635000Y685800D02*
D03*
X647700Y660400D02*
D03*
X635000Y635000D02*
D03*
X647700Y609600D02*
D03*
X635000Y330200D02*
D03*
X647700Y152400D02*
D03*
X635000Y127000D02*
D03*
X647700Y101600D02*
D03*
X635000Y76200D02*
D03*
X609600Y889000D02*
D03*
Y838200D02*
D03*
Y787400D02*
D03*
X622300Y711200D02*
D03*
X609600Y685800D02*
D03*
X622300Y660400D02*
D03*
X609600Y635000D02*
D03*
X622300Y152400D02*
D03*
X584200Y939800D02*
D03*
X596900Y914400D02*
D03*
X584200Y787400D02*
D03*
X596900Y711200D02*
D03*
X584200Y685800D02*
D03*
X596900Y660400D02*
D03*
X584200Y330200D02*
D03*
X596900Y152400D02*
D03*
Y101600D02*
D03*
X584200Y76200D02*
D03*
X571500Y914400D02*
D03*
X558800Y889000D02*
D03*
X571500Y711200D02*
D03*
X558800Y635000D02*
D03*
X571500Y609600D02*
D03*
X558800Y330200D02*
D03*
X571500Y101600D02*
D03*
X558800Y76200D02*
D03*
X546100Y914400D02*
D03*
X533400Y838200D02*
D03*
Y787400D02*
D03*
Y685800D02*
D03*
Y635000D02*
D03*
X546100Y609600D02*
D03*
X533400Y330200D02*
D03*
X546100Y101600D02*
D03*
X533400Y76200D02*
D03*
X520700Y965200D02*
D03*
X508000Y939800D02*
D03*
Y787400D02*
D03*
X520700Y711200D02*
D03*
X508000Y685800D02*
D03*
X520700Y660400D02*
D03*
X508000Y635000D02*
D03*
X520700Y609600D02*
D03*
X508000Y330200D02*
D03*
Y76200D02*
D03*
X482600Y889000D02*
D03*
Y838200D02*
D03*
X495300Y711200D02*
D03*
X482600Y685800D02*
D03*
X495300Y660400D02*
D03*
X482600Y635000D02*
D03*
X495300Y609600D02*
D03*
X482600Y330200D02*
D03*
X495300Y101600D02*
D03*
X482600Y76200D02*
D03*
Y25400D02*
D03*
X457200Y889000D02*
D03*
Y838200D02*
D03*
Y787400D02*
D03*
Y685800D02*
D03*
X469900Y660400D02*
D03*
X457200Y330200D02*
D03*
X469900Y304800D02*
D03*
Y101600D02*
D03*
X457200Y76200D02*
D03*
Y25400D02*
D03*
X431800Y939800D02*
D03*
Y787400D02*
D03*
X444500Y711200D02*
D03*
X431800Y685800D02*
D03*
X444500Y660400D02*
D03*
X431800Y635000D02*
D03*
X444500Y609600D02*
D03*
X431800Y330200D02*
D03*
X444500Y304800D02*
D03*
Y152400D02*
D03*
X431800Y76200D02*
D03*
Y25400D02*
D03*
X419100Y965200D02*
D03*
X406400Y889000D02*
D03*
Y838200D02*
D03*
Y787400D02*
D03*
Y685800D02*
D03*
X419100Y660400D02*
D03*
Y609600D02*
D03*
X406400Y330200D02*
D03*
X419100Y304800D02*
D03*
X406400Y177800D02*
D03*
X419100Y152400D02*
D03*
X406400Y76200D02*
D03*
Y25400D02*
D03*
X381000Y889000D02*
D03*
Y838200D02*
D03*
Y787400D02*
D03*
Y635000D02*
D03*
X393700Y609600D02*
D03*
Y355600D02*
D03*
X381000Y330200D02*
D03*
X393700Y304800D02*
D03*
X381000Y177800D02*
D03*
X393700Y152400D02*
D03*
X381000Y76200D02*
D03*
X393700Y50800D02*
D03*
X381000Y25400D02*
D03*
X355600Y939800D02*
D03*
Y787400D02*
D03*
X368300Y711200D02*
D03*
X355600Y635000D02*
D03*
X368300Y355600D02*
D03*
X355600Y330200D02*
D03*
Y177800D02*
D03*
X368300Y152400D02*
D03*
X355600Y76200D02*
D03*
X368300Y50800D02*
D03*
X355600Y25400D02*
D03*
X342900Y965200D02*
D03*
X330200Y889000D02*
D03*
Y787400D02*
D03*
Y685800D02*
D03*
X342900Y355600D02*
D03*
X330200Y330200D02*
D03*
Y177800D02*
D03*
X342900Y152400D02*
D03*
X330200Y76200D02*
D03*
X342900Y50800D02*
D03*
X330200Y25400D02*
D03*
X304800Y889000D02*
D03*
X317500Y863600D02*
D03*
X304800Y838200D02*
D03*
Y787400D02*
D03*
X317500Y762000D02*
D03*
Y711200D02*
D03*
X304800Y685800D02*
D03*
X317500Y609600D02*
D03*
X304800Y330200D02*
D03*
Y177800D02*
D03*
X317500Y152400D02*
D03*
X304800Y76200D02*
D03*
X317500Y50800D02*
D03*
X304800Y25400D02*
D03*
X279400Y939800D02*
D03*
X292100Y762000D02*
D03*
Y711200D02*
D03*
Y660400D02*
D03*
Y609600D02*
D03*
X279400Y330200D02*
D03*
X292100Y152400D02*
D03*
X279400Y76200D02*
D03*
X292100Y50800D02*
D03*
X279400Y25400D02*
D03*
X266700Y965200D02*
D03*
X254000Y889000D02*
D03*
Y838200D02*
D03*
Y787400D02*
D03*
Y685800D02*
D03*
X266700Y609600D02*
D03*
Y152400D02*
D03*
X254000Y127000D02*
D03*
Y76200D02*
D03*
Y25400D02*
D03*
X228600Y889000D02*
D03*
X241300Y863600D02*
D03*
X228600Y838200D02*
D03*
X241300Y812800D02*
D03*
Y762000D02*
D03*
X228600Y685800D02*
D03*
X241300Y660400D02*
D03*
Y355600D02*
D03*
X228600Y330200D02*
D03*
X241300Y152400D02*
D03*
X228600Y127000D02*
D03*
Y76200D02*
D03*
Y25400D02*
D03*
X203200Y939800D02*
D03*
X215900Y812800D02*
D03*
X203200Y787400D02*
D03*
Y685800D02*
D03*
X215900Y660400D02*
D03*
Y355600D02*
D03*
X203200Y127000D02*
D03*
Y76200D02*
D03*
Y25400D02*
D03*
X190500Y965200D02*
D03*
X177800Y787400D02*
D03*
Y736600D02*
D03*
X190500Y660400D02*
D03*
Y609600D02*
D03*
Y355600D02*
D03*
X177800Y330200D02*
D03*
Y127000D02*
D03*
Y76200D02*
D03*
Y25400D02*
D03*
X152400Y889000D02*
D03*
Y838200D02*
D03*
X165100Y812800D02*
D03*
X152400Y787400D02*
D03*
Y736600D02*
D03*
X165100Y711200D02*
D03*
X152400Y685800D02*
D03*
X165100Y660400D02*
D03*
Y609600D02*
D03*
Y355600D02*
D03*
X152400Y177800D02*
D03*
X165100Y152400D02*
D03*
X152400Y127000D02*
D03*
Y76200D02*
D03*
Y25400D02*
D03*
X139700Y812800D02*
D03*
X127000Y787400D02*
D03*
Y736600D02*
D03*
X139700Y711200D02*
D03*
X127000Y685800D02*
D03*
X139700Y609600D02*
D03*
X127000Y330200D02*
D03*
Y228600D02*
D03*
X139700Y152400D02*
D03*
X127000Y127000D02*
D03*
Y25400D02*
D03*
X114300Y965200D02*
D03*
Y812800D02*
D03*
X101600Y787400D02*
D03*
Y736600D02*
D03*
X114300Y711200D02*
D03*
X101600Y635000D02*
D03*
X114300Y609600D02*
D03*
X101600Y330200D02*
D03*
Y228600D02*
D03*
Y177800D02*
D03*
X114300Y152400D02*
D03*
X101600Y127000D02*
D03*
Y76200D02*
D03*
Y25400D02*
D03*
X76200Y838200D02*
D03*
X88900Y812800D02*
D03*
X76200Y787400D02*
D03*
Y736600D02*
D03*
Y685800D02*
D03*
X88900Y660400D02*
D03*
X76200Y635000D02*
D03*
X88900Y355600D02*
D03*
X76200Y330200D02*
D03*
X88900Y254000D02*
D03*
X76200Y228600D02*
D03*
Y177800D02*
D03*
X88900Y152400D02*
D03*
X76200Y127000D02*
D03*
Y76200D02*
D03*
Y25400D02*
D03*
X50800Y939800D02*
D03*
X63500Y812800D02*
D03*
Y762000D02*
D03*
Y711200D02*
D03*
Y660400D02*
D03*
Y609600D02*
D03*
Y355600D02*
D03*
Y101600D02*
D03*
X50800Y76200D02*
D03*
X63500Y50800D02*
D03*
X50800Y25400D02*
D03*
X38100Y965200D02*
D03*
Y914400D02*
D03*
X25400Y889000D02*
D03*
X38100Y863600D02*
D03*
X25400Y127000D02*
D03*
X38100Y101600D02*
D03*
X25400Y76200D02*
D03*
X38100Y50800D02*
D03*
X25400Y25400D02*
D03*
D47*
X261620Y238760D02*
D03*
X340614Y261239D02*
D03*
X657860Y336042D02*
D03*
X556514Y240284D02*
D03*
X790448Y53848D02*
D03*
X937768Y26924D02*
D03*
X140970Y358648D02*
D03*
X603873Y224651D02*
D03*
X883412Y228346D02*
D03*
X898652Y235204D02*
D03*
X672592Y350012D02*
D03*
X254000Y332740D02*
D03*
X662432Y374650D02*
D03*
X619760Y342900D02*
D03*
X237744Y273050D02*
D03*
X581406Y522986D02*
D03*
M02*
