G04*
G04 #@! TF.GenerationSoftware,Altium Limited,Altium Designer,22.10.1 (41)*
G04*
G04 Layer_Color=8388736*
%FSLAX44Y44*%
%MOMM*%
G71*
G04*
G04 #@! TF.SameCoordinates,E145AED0-6931-4EEB-B232-2A21EE6FFB4C*
G04*
G04*
G04 #@! TF.FilePolarity,Positive*
G04*
G01*
G75*
%ADD10C,0.2000*%
D10*
X126630Y258240D02*
Y280240D01*
X112130Y258240D02*
X126630D01*
X112130D02*
Y280240D01*
X126630D01*
X129170Y181920D02*
Y203920D01*
X114670Y181920D02*
X129170D01*
X114670D02*
Y203920D01*
X129170D01*
X462650Y253160D02*
Y275160D01*
X477150D01*
Y253160D02*
Y275160D01*
X462650Y253160D02*
X477150D01*
X482230Y179500D02*
Y201500D01*
X467730Y179500D02*
X482230D01*
X467730D02*
Y201500D01*
X482230D01*
X74830Y259878D02*
Y279878D01*
X62330Y259878D02*
X74830D01*
X62330D02*
Y279878D01*
X74830D01*
X77370Y186218D02*
Y206218D01*
X64870Y186218D02*
X77370D01*
X64870D02*
Y206218D01*
X77370D01*
X412850Y253522D02*
Y273522D01*
X425350D01*
Y253522D02*
Y273522D01*
X412850Y253522D02*
X425350D01*
X427890Y183040D02*
Y203040D01*
X415390Y183040D02*
X427890D01*
X415390D02*
Y203040D01*
X427890D01*
X602140Y199490D02*
Y211990D01*
Y199490D02*
X622140D01*
Y211990D01*
X602140D02*
X622140D01*
X562300Y134990D02*
Y149490D01*
X540300D02*
X562300D01*
X540300Y134990D02*
Y149490D01*
Y134990D02*
X562300D01*
X607220Y278230D02*
Y290730D01*
Y278230D02*
X627220D01*
Y290730D01*
X607220D02*
X627220D01*
X555420Y302630D02*
Y317130D01*
Y302630D02*
X577420D01*
Y317130D01*
X555420D02*
X577420D01*
X261133Y199490D02*
Y211990D01*
Y199490D02*
X281133D01*
Y211990D01*
X261133D02*
X281133D01*
X214200Y132450D02*
Y146950D01*
X192200D02*
X214200D01*
X192200Y132450D02*
Y146950D01*
Y132450D02*
X214200D01*
X258593Y280770D02*
Y293270D01*
Y280770D02*
X278593D01*
Y293270D01*
X258593D02*
X278593D01*
X197160Y312790D02*
Y327290D01*
Y312790D02*
X219160D01*
Y327290D01*
X197160D02*
X219160D01*
X920850Y91600D02*
X933350D01*
Y111600D01*
X920850D02*
X933350D01*
X920850Y91600D02*
Y111600D01*
X858720Y85600D02*
X883720D01*
Y117600D01*
X858720D02*
X883720D01*
X858720Y85600D02*
Y117600D01*
X799290Y676880D02*
X856790D01*
X799290Y577880D02*
Y676880D01*
Y577880D02*
X856790D01*
Y676880D01*
X804200Y539720D02*
X861700D01*
X804200Y440720D02*
Y539720D01*
Y440720D02*
X861700D01*
Y539720D01*
X956480Y761190D02*
Y818690D01*
X882480D02*
X956480D01*
X882480Y761190D02*
Y818690D01*
Y761190D02*
X956480D01*
Y834850D02*
Y892350D01*
X882480D02*
X956480D01*
X882480Y834850D02*
Y892350D01*
Y834850D02*
X956480D01*
X622140Y174090D02*
Y186590D01*
X602140D02*
X622140D01*
X602140Y174090D02*
Y186590D01*
Y174090D02*
X622140D01*
X627220Y252830D02*
Y265330D01*
X607220D02*
X627220D01*
X607220Y252830D02*
Y265330D01*
Y252830D02*
X627220D01*
X281780Y176630D02*
Y189130D01*
X261780D02*
X281780D01*
X261780Y176630D02*
Y189130D01*
Y176630D02*
X281780D01*
X279240Y252830D02*
Y265330D01*
X259240D02*
X279240D01*
X259240Y252830D02*
Y265330D01*
Y252830D02*
X279240D01*
X801660Y811900D02*
X859160D01*
X801660Y712900D02*
Y811900D01*
Y712900D02*
X859160D01*
Y811900D01*
X959020Y690070D02*
Y747570D01*
X885020D02*
X959020D01*
X885020Y690070D02*
Y747570D01*
Y690070D02*
X959020D01*
X835860Y402080D02*
X860860D01*
X835860Y370080D02*
Y402080D01*
Y370080D02*
X860860D01*
Y402080D01*
X785230Y394590D02*
X799730D01*
X785230Y372490D02*
Y394590D01*
Y372490D02*
X799730D01*
Y394590D01*
X768450Y119540D02*
X780950D01*
Y139540D01*
X768450D02*
X780950D01*
X768450Y119540D02*
Y139540D01*
X711400Y116080D02*
X736400D01*
Y148080D01*
X711400D02*
X736400D01*
X711400Y116080D02*
Y148080D01*
M02*
