G04*
G04 #@! TF.GenerationSoftware,Altium Limited,Altium Designer,22.10.1 (41)*
G04*
G04 Layer_Color=32768*
%FSLAX44Y44*%
%MOMM*%
G71*
G04*
G04 #@! TF.SameCoordinates,96092411-4BE1-4E5F-83DD-11E1D8B77A3F*
G04*
G04*
G04 #@! TF.FilePolarity,Positive*
G04*
G01*
G75*
%ADD10C,0.2000*%
%ADD85C,0.0500*%
D10*
X787240Y469900D02*
G03*
X894240Y469900I53500J0D01*
G01*
D02*
G03*
X787240Y469900I-53500J0D01*
G01*
X965360Y571500D02*
G03*
X858360Y571500I-53500J0D01*
G01*
D02*
G03*
X965360Y571500I53500J0D01*
G01*
X663640Y925460D02*
X764640D01*
X663640D02*
Y984960D01*
X764640D01*
Y925460D02*
Y984960D01*
X823789Y820761D02*
Y880261D01*
Y820761D02*
X974789D01*
Y880261D01*
X823789D02*
X974789D01*
X821120Y739870D02*
Y799370D01*
Y739870D02*
X972120D01*
Y799370D01*
X821120D02*
X972120D01*
X770350Y990300D02*
X829850D01*
X770350Y889300D02*
Y990300D01*
Y889300D02*
X829850D01*
Y990300D01*
X482759Y697181D02*
X507841D01*
X482759Y654099D02*
Y697181D01*
Y654099D02*
X507841D01*
Y697181D01*
X779650Y788120D02*
X795150D01*
X779650Y751120D02*
Y788120D01*
Y751120D02*
X795150D01*
Y788120D01*
X127880Y255240D02*
Y283240D01*
X110880Y255240D02*
X127880D01*
X110880D02*
Y283240D01*
X127880D01*
X130420Y178920D02*
Y206920D01*
X113420Y178920D02*
X130420D01*
X113420D02*
Y206920D01*
X130420D01*
X461400Y250160D02*
Y278160D01*
X478400D01*
Y250160D02*
Y278160D01*
X461400Y250160D02*
X478400D01*
X483480Y176500D02*
Y204500D01*
X466480Y176500D02*
X483480D01*
X466480D02*
Y204500D01*
X483480D01*
X78361Y252847D02*
Y286909D01*
X58799Y252847D02*
X78361D01*
X58799D02*
Y286909D01*
X78361D01*
X80901Y179187D02*
Y213249D01*
X61339Y179187D02*
X80901D01*
X61339D02*
Y213249D01*
X80901D01*
X409319Y246491D02*
Y280553D01*
X428881D01*
Y246491D02*
Y280553D01*
X409319Y246491D02*
X428881D01*
X431421Y176009D02*
Y210071D01*
X411859Y176009D02*
X431421D01*
X411859D02*
Y210071D01*
X431421D01*
X599079Y197740D02*
Y213740D01*
Y197740D02*
X625201D01*
Y213740D01*
X599079D02*
X625201D01*
X565300Y133740D02*
Y150740D01*
X537300D02*
X565300D01*
X537300Y133740D02*
Y150740D01*
Y133740D02*
X565300D01*
X552420Y301380D02*
Y318380D01*
Y301380D02*
X580420D01*
Y318380D01*
X552420D02*
X580420D01*
X258072Y197740D02*
Y213740D01*
Y197740D02*
X284193D01*
Y213740D01*
X258072D02*
X284193D01*
X217200Y131200D02*
Y148200D01*
X189200D02*
X217200D01*
X189200Y131200D02*
Y148200D01*
Y131200D02*
X217200D01*
X194160Y311540D02*
Y328540D01*
Y311540D02*
X222160D01*
Y328540D01*
X194160D02*
X222160D01*
X896999Y84569D02*
X916561D01*
Y118631D01*
X896999D02*
X916561D01*
X896999Y84569D02*
Y118631D01*
X856220Y81084D02*
X886220D01*
Y122116D01*
X856220D02*
X886220D01*
X856220Y81084D02*
Y122116D01*
X625201Y172340D02*
Y188340D01*
X599079D02*
X625201D01*
X599079Y172340D02*
Y188340D01*
Y172340D02*
X625201D01*
X630281Y251080D02*
Y267080D01*
X604159D02*
X630281D01*
X604159Y251080D02*
Y267080D01*
Y251080D02*
X630281D01*
X284841Y174880D02*
Y190880D01*
X258719D02*
X284841D01*
X258719Y174880D02*
Y190880D01*
Y174880D02*
X284841D01*
X282301Y251080D02*
Y267080D01*
X256179D02*
X282301D01*
X256179Y251080D02*
Y267080D01*
Y251080D02*
X282301D01*
X667720Y838930D02*
Y898430D01*
X566720D02*
X667720D01*
X566720Y838930D02*
Y898430D01*
Y838930D02*
X667720D01*
X754280Y838930D02*
Y898430D01*
X678280D02*
X754280D01*
X678280Y838930D02*
Y898430D01*
Y838930D02*
X754280D01*
X843520Y406596D02*
X873520D01*
X843520Y365564D02*
Y406596D01*
Y365564D02*
X873520D01*
Y406596D01*
X812170Y399540D02*
X828670D01*
X812170Y367540D02*
Y399540D01*
Y367540D02*
X828670D01*
Y399540D01*
X714119Y112509D02*
X733681D01*
Y146571D01*
X714119D02*
X733681D01*
X714119Y112509D02*
Y146571D01*
X762240Y113594D02*
X792240D01*
Y154626D01*
X762240D02*
X792240D01*
X762240Y113594D02*
Y154626D01*
D85*
X45940Y937260D02*
G03*
X45940Y937260I-18000J0D01*
G01*
X990820Y647700D02*
G03*
X990820Y647700I-18000J0D01*
G01*
X365980Y469900D02*
G03*
X365980Y469900I-18000J0D01*
G01*
X929860Y149860D02*
G03*
X929860Y149860I-18000J0D01*
G01*
M02*
