G04*
G04 #@! TF.GenerationSoftware,Altium Limited,Altium Designer,22.10.1 (41)*
G04*
G04 Layer_Color=32896*
%FSLAX44Y44*%
%MOMM*%
G71*
G04*
G04 #@! TF.SameCoordinates,E145AED0-6931-4EEB-B232-2A21EE6FFB4C*
G04*
G04*
G04 #@! TF.FilePolarity,Positive*
G04*
G01*
G75*
%ADD14C,0.2540*%
G36*
X637459Y794494D02*
X667861D01*
Y794004D01*
X674726D01*
Y793514D01*
X681591D01*
Y793023D01*
X684533D01*
Y792533D01*
X686985D01*
Y792042D01*
X689928D01*
Y791552D01*
X691889D01*
Y791062D01*
X694341D01*
Y790572D01*
X695812D01*
Y790081D01*
X696302D01*
Y790572D01*
X696793D01*
Y790081D01*
X699244D01*
Y789591D01*
X700225D01*
Y789100D01*
X701206D01*
Y788610D01*
X702677D01*
Y788120D01*
X704638D01*
Y787629D01*
X705129D01*
Y787139D01*
X706600D01*
Y786649D01*
X707580D01*
Y786158D01*
X710032D01*
Y785668D01*
X710523D01*
Y786158D01*
X711013D01*
Y785668D01*
X711503D01*
Y785178D01*
X712974D01*
Y784687D01*
X713955D01*
Y784197D01*
X714936D01*
Y783706D01*
X716407D01*
Y783216D01*
X717878D01*
Y782726D01*
X718369D01*
Y782235D01*
X719839D01*
Y781745D01*
X721311D01*
Y781255D01*
X722291D01*
Y780764D01*
X723272D01*
Y780274D01*
X723762D01*
Y779783D01*
X725234D01*
Y779293D01*
X726705D01*
Y778803D01*
X727195D01*
Y778312D01*
X728666D01*
Y777822D01*
X729156D01*
Y777332D01*
X730137D01*
Y776841D01*
X731118D01*
Y776351D01*
X731608D01*
Y775861D01*
X732589D01*
Y775370D01*
X734060D01*
Y774880D01*
X734550D01*
Y774389D01*
X736021D01*
Y773899D01*
X736512D01*
Y773409D01*
X737002D01*
Y772918D01*
X738964D01*
Y772428D01*
X739454D01*
Y771938D01*
X740435D01*
Y771447D01*
X741415D01*
Y770957D01*
X741906D01*
Y770467D01*
X742396D01*
Y769976D01*
X743867D01*
Y769486D01*
X744358D01*
Y768996D01*
X744848D01*
Y768505D01*
X745338D01*
Y768015D01*
X746809D01*
Y767524D01*
X747300D01*
Y767034D01*
X747790D01*
Y766544D01*
X749261D01*
Y766053D01*
X749752D01*
Y765563D01*
X750732D01*
Y765073D01*
X751223D01*
Y764092D01*
X752694D01*
Y763602D01*
X753184D01*
Y763111D01*
X753674D01*
Y762621D01*
X754165D01*
Y762131D01*
X754655D01*
Y761640D01*
X755145D01*
Y761150D01*
X756126D01*
Y760659D01*
X756617D01*
Y760169D01*
X757107D01*
Y759679D01*
X758578D01*
Y759188D01*
X759068D01*
Y758698D01*
X760049D01*
Y758208D01*
X760539D01*
Y757717D01*
X761030D01*
Y757227D01*
X761520D01*
Y756737D01*
X762011D01*
Y756246D01*
X762501D01*
Y755756D01*
X762991D01*
Y755266D01*
X763482D01*
Y754285D01*
X764462D01*
Y753794D01*
X764953D01*
Y753304D01*
X765443D01*
Y752814D01*
X765934D01*
Y752323D01*
X766424D01*
Y751833D01*
X766914D01*
Y751343D01*
X767405D01*
Y750852D01*
X768385D01*
Y750362D01*
X768876D01*
Y749872D01*
X769366D01*
Y748891D01*
X769856D01*
Y748400D01*
X770837D01*
Y747910D01*
X771328D01*
Y747420D01*
X771818D01*
Y746439D01*
X772798D01*
Y745949D01*
X773289D01*
Y745458D01*
X773779D01*
Y744968D01*
X774270D01*
Y744477D01*
X774760D01*
Y743497D01*
X775250D01*
Y743006D01*
X775741D01*
Y742516D01*
X776231D01*
Y742026D01*
X776721D01*
Y741535D01*
X777212D01*
Y741045D01*
X777702D01*
Y740555D01*
X778193D01*
Y739574D01*
X778683D01*
Y739083D01*
X779664D01*
Y738593D01*
X780154D01*
Y738103D01*
X780644D01*
Y737122D01*
X781135D01*
Y736632D01*
X781625D01*
Y736141D01*
X782115D01*
Y735651D01*
X782606D01*
Y735161D01*
X783096D01*
Y734180D01*
X783587D01*
Y733690D01*
X784077D01*
Y733199D01*
X784567D01*
Y732709D01*
X785058D01*
Y732218D01*
X785548D01*
Y731238D01*
X786038D01*
Y730747D01*
X786529D01*
Y729767D01*
X787019D01*
Y729276D01*
X787509D01*
Y728296D01*
X788000D01*
Y727805D01*
X788490D01*
Y727315D01*
X788980D01*
Y726824D01*
X789471D01*
Y726334D01*
X789961D01*
Y725844D01*
X790452D01*
Y725353D01*
X790942D01*
Y724373D01*
X791923D01*
Y723392D01*
X792413D01*
Y722411D01*
X792903D01*
Y721921D01*
X793394D01*
Y721431D01*
X793884D01*
Y720940D01*
X794374D01*
Y720450D01*
X793884D01*
Y719959D01*
X794374D01*
Y718979D01*
X794865D01*
Y718488D01*
X795355D01*
Y717508D01*
X795845D01*
Y716527D01*
X796336D01*
Y716037D01*
X796826D01*
Y715056D01*
X797317D01*
Y714075D01*
X797807D01*
Y713585D01*
X798297D01*
Y713094D01*
X798788D01*
Y712604D01*
X798297D01*
Y712114D01*
X798788D01*
Y711623D01*
X799278D01*
Y710643D01*
X799768D01*
Y709662D01*
X800259D01*
Y708191D01*
X800749D01*
Y707700D01*
X801239D01*
Y706229D01*
X801730D01*
Y705739D01*
X802220D01*
Y704758D01*
X802711D01*
Y703777D01*
X803201D01*
Y702797D01*
X803691D01*
Y701326D01*
X804182D01*
Y700345D01*
X804672D01*
Y699364D01*
X805162D01*
Y697893D01*
X805653D01*
Y696422D01*
X806143D01*
Y694951D01*
X806634D01*
Y693480D01*
X807124D01*
Y692009D01*
X807614D01*
Y689557D01*
X808104D01*
Y687596D01*
X808595D01*
Y686124D01*
X809085D01*
Y684163D01*
X809576D01*
Y678279D01*
X809085D01*
Y676808D01*
X808595D01*
Y675337D01*
X808104D01*
Y674356D01*
X807614D01*
Y673375D01*
X807124D01*
Y672885D01*
X806634D01*
Y672394D01*
X806143D01*
Y671904D01*
X805653D01*
Y670923D01*
X804672D01*
Y670433D01*
X804182D01*
Y669943D01*
X803691D01*
Y669452D01*
X802711D01*
Y668962D01*
X802220D01*
Y668472D01*
X801730D01*
Y667981D01*
X800259D01*
Y667491D01*
X799768D01*
Y667001D01*
X799278D01*
Y666510D01*
X798788D01*
Y667001D01*
X798297D01*
Y666510D01*
X797807D01*
Y666020D01*
X797317D01*
Y665529D01*
X795845D01*
Y665039D01*
X794374D01*
Y664549D01*
X793394D01*
Y664058D01*
X791923D01*
Y663568D01*
X790452D01*
Y663078D01*
X788980D01*
Y662587D01*
X787509D01*
Y662097D01*
X786529D01*
Y661607D01*
X785058D01*
Y661116D01*
X783587D01*
Y660626D01*
X782115D01*
Y660135D01*
X780644D01*
Y659645D01*
X778683D01*
Y659155D01*
X777212D01*
Y658664D01*
X775250D01*
Y658174D01*
X773779D01*
Y657684D01*
X773289D01*
Y658174D01*
X772798D01*
Y657684D01*
X771328D01*
Y657193D01*
X769856D01*
Y656703D01*
X768385D01*
Y656212D01*
X766424D01*
Y655722D01*
X764953D01*
Y655232D01*
X762501D01*
Y654741D01*
X760539D01*
Y654251D01*
X759068D01*
Y653761D01*
X757597D01*
Y653270D01*
X757107D01*
Y653761D01*
X756126D01*
Y653270D01*
X754655D01*
Y652780D01*
X752203D01*
Y652290D01*
X750732D01*
Y651799D01*
X748771D01*
Y651309D01*
X746319D01*
Y650818D01*
X744358D01*
Y650328D01*
X742887D01*
Y649838D01*
X740435D01*
Y649348D01*
X737983D01*
Y648857D01*
X737002D01*
Y649348D01*
X736512D01*
Y648857D01*
X736021D01*
Y649348D01*
X735531D01*
Y648857D01*
X733570D01*
Y648367D01*
X731118D01*
Y647876D01*
X728666D01*
Y647386D01*
X725724D01*
Y646896D01*
X723272D01*
Y646405D01*
X720330D01*
Y645915D01*
X716407D01*
Y645425D01*
X712484D01*
Y644934D01*
X710032D01*
Y644444D01*
X709052D01*
Y644934D01*
X708561D01*
Y644444D01*
X703658D01*
Y643953D01*
X700225D01*
Y643463D01*
X694341D01*
Y641992D01*
X694831D01*
Y640031D01*
X695322D01*
Y638559D01*
X695812D01*
Y637088D01*
X696302D01*
Y635127D01*
X696793D01*
Y633656D01*
X697283D01*
Y632675D01*
X697773D01*
Y631204D01*
X698264D01*
Y629243D01*
X698754D01*
Y628262D01*
X699244D01*
Y626791D01*
X699735D01*
Y625810D01*
X700225D01*
Y624339D01*
X700715D01*
Y622868D01*
X701206D01*
Y620416D01*
X701696D01*
Y619926D01*
X702187D01*
Y618455D01*
X702677D01*
Y616984D01*
X703167D01*
Y615513D01*
X703658D01*
Y614041D01*
X704148D01*
Y613061D01*
X704638D01*
Y612570D01*
X705129D01*
Y611099D01*
X705619D01*
Y609138D01*
X706109D01*
Y606686D01*
X706600D01*
Y605705D01*
X707090D01*
Y604234D01*
X707580D01*
Y603254D01*
X708071D01*
Y601292D01*
X708561D01*
Y600802D01*
X709052D01*
Y599331D01*
X710032D01*
Y599821D01*
X710523D01*
Y600311D01*
X711994D01*
Y600802D01*
X712484D01*
Y601292D01*
X712974D01*
Y601782D01*
X713465D01*
Y602273D01*
X713955D01*
Y602763D01*
X714936D01*
Y603254D01*
X715426D01*
Y603744D01*
X716897D01*
Y604234D01*
X717388D01*
Y604725D01*
X717878D01*
Y605215D01*
X718369D01*
Y604725D01*
X718859D01*
Y605215D01*
X719349D01*
Y605705D01*
X720820D01*
Y606196D01*
X721311D01*
Y606686D01*
X722782D01*
Y607176D01*
X723762D01*
Y607667D01*
X725234D01*
Y608157D01*
X725724D01*
Y608647D01*
X727195D01*
Y609138D01*
X730137D01*
Y609628D01*
X731608D01*
Y610119D01*
X733079D01*
Y610609D01*
X734550D01*
Y611099D01*
X736512D01*
Y611590D01*
X738964D01*
Y612080D01*
X742887D01*
Y612570D01*
X753184D01*
Y612080D01*
X757107D01*
Y611590D01*
X761030D01*
Y611099D01*
X764953D01*
Y610609D01*
X767405D01*
Y610119D01*
X769366D01*
Y609628D01*
X771328D01*
Y609138D01*
X772798D01*
Y608647D01*
X774270D01*
Y608157D01*
X775250D01*
Y607667D01*
X776231D01*
Y607176D01*
X777702D01*
Y606686D01*
X778193D01*
Y606196D01*
X779173D01*
Y605705D01*
X779664D01*
Y605215D01*
X780644D01*
Y604725D01*
X781625D01*
Y604234D01*
X782115D01*
Y603744D01*
X782606D01*
Y603254D01*
X784077D01*
Y602763D01*
X784567D01*
Y602273D01*
X785548D01*
Y601782D01*
X786038D01*
Y601292D01*
X786529D01*
Y600802D01*
X787019D01*
Y600311D01*
X788490D01*
Y599821D01*
X788980D01*
Y599331D01*
X789471D01*
Y598350D01*
X789961D01*
Y597859D01*
X790452D01*
Y597369D01*
X790942D01*
Y596879D01*
X791432D01*
Y596389D01*
X792413D01*
Y595898D01*
X792903D01*
Y594917D01*
X793394D01*
Y594427D01*
X793884D01*
Y593937D01*
X794374D01*
Y592466D01*
X794865D01*
Y591975D01*
X795355D01*
Y590994D01*
X795845D01*
Y590504D01*
X796336D01*
Y590014D01*
X796826D01*
Y589523D01*
X797317D01*
Y588052D01*
X797807D01*
Y587562D01*
X798297D01*
Y586581D01*
X798788D01*
Y585110D01*
X799278D01*
Y584129D01*
X799768D01*
Y583639D01*
X800259D01*
Y582658D01*
X800749D01*
Y581678D01*
X801239D01*
Y581187D01*
X801730D01*
Y579716D01*
X802220D01*
Y578245D01*
X802711D01*
Y576284D01*
X803201D01*
Y574813D01*
X803691D01*
Y573341D01*
X804182D01*
Y571870D01*
X804672D01*
Y570399D01*
X805162D01*
Y568928D01*
X805653D01*
Y567948D01*
X806143D01*
Y565496D01*
X806634D01*
Y563044D01*
X807124D01*
Y559121D01*
X807614D01*
Y557650D01*
X807124D01*
Y557160D01*
X807614D01*
Y554217D01*
X808104D01*
Y548823D01*
X808595D01*
Y537545D01*
X809085D01*
Y537055D01*
X808595D01*
Y531661D01*
X808104D01*
Y529209D01*
X807614D01*
Y526267D01*
X807124D01*
Y522834D01*
X806634D01*
Y521363D01*
X806143D01*
Y518911D01*
X805653D01*
Y517931D01*
X805162D01*
Y517440D01*
X804672D01*
Y515969D01*
X804182D01*
Y515479D01*
X803691D01*
Y514498D01*
X803201D01*
Y514008D01*
X802711D01*
Y511556D01*
X802220D01*
Y511066D01*
X801730D01*
Y509594D01*
X801239D01*
Y509104D01*
X800749D01*
Y507633D01*
X800259D01*
Y507143D01*
X799768D01*
Y506652D01*
X799278D01*
Y505672D01*
X798788D01*
Y504691D01*
X798297D01*
Y503710D01*
X797807D01*
Y503220D01*
X797317D01*
Y502729D01*
X796826D01*
Y502239D01*
X796336D01*
Y501749D01*
X795845D01*
Y500278D01*
X795355D01*
Y499787D01*
X794865D01*
Y499297D01*
X794374D01*
Y498807D01*
X793884D01*
Y497336D01*
X793394D01*
Y496845D01*
X792903D01*
Y496355D01*
X792413D01*
Y495864D01*
X791923D01*
Y495374D01*
X791432D01*
Y494884D01*
X790942D01*
Y494393D01*
X790452D01*
Y493903D01*
X789961D01*
Y493413D01*
X789471D01*
Y492432D01*
X788980D01*
Y491941D01*
X788490D01*
Y491451D01*
X788000D01*
Y490961D01*
X787019D01*
Y490471D01*
X786529D01*
Y489980D01*
X786038D01*
Y489490D01*
X785548D01*
Y488999D01*
X785058D01*
Y488509D01*
X784567D01*
Y488019D01*
X784077D01*
Y487528D01*
X783587D01*
Y487038D01*
X783096D01*
Y486548D01*
X782606D01*
Y486057D01*
X782115D01*
Y485567D01*
X781135D01*
Y485076D01*
X780644D01*
Y484586D01*
X780154D01*
Y484096D01*
X779173D01*
Y483605D01*
X778193D01*
Y483115D01*
X777702D01*
Y482625D01*
X776231D01*
Y482134D01*
X775741D01*
Y481644D01*
X774270D01*
Y481154D01*
X773289D01*
Y480663D01*
X771818D01*
Y480173D01*
X770347D01*
Y479683D01*
X768876D01*
Y479192D01*
X767405D01*
Y478702D01*
X765443D01*
Y478211D01*
X763972D01*
Y477721D01*
X761030D01*
Y477231D01*
X756617D01*
Y476740D01*
X756126D01*
Y477231D01*
X755636D01*
Y476740D01*
X739944D01*
Y477231D01*
X739454D01*
Y476740D01*
X738964D01*
Y477231D01*
X733570D01*
Y477721D01*
X730628D01*
Y478211D01*
X728176D01*
Y478702D01*
X726705D01*
Y479192D01*
X725724D01*
Y479683D01*
X724253D01*
Y480173D01*
X722782D01*
Y480663D01*
X721801D01*
Y481154D01*
X720820D01*
Y481644D01*
X719839D01*
Y482134D01*
X718859D01*
Y482625D01*
X717878D01*
Y483115D01*
X717388D01*
Y483605D01*
X716407D01*
Y484096D01*
X715426D01*
Y484586D01*
X713955D01*
Y485076D01*
X713465D01*
Y485567D01*
X712484D01*
Y486057D01*
X711503D01*
Y485567D01*
X711013D01*
Y485076D01*
X710523D01*
Y484586D01*
X710032D01*
Y484096D01*
X710523D01*
Y483605D01*
X710032D01*
Y483115D01*
X709052D01*
Y482134D01*
X708561D01*
Y481644D01*
X707090D01*
Y481154D01*
X706600D01*
Y480663D01*
X706109D01*
Y480173D01*
X705619D01*
Y479683D01*
X705129D01*
Y479192D01*
X704638D01*
Y478702D01*
X704148D01*
Y478211D01*
X703658D01*
Y477721D01*
X703167D01*
Y477231D01*
X701696D01*
Y476740D01*
X701206D01*
Y476250D01*
X700715D01*
Y476740D01*
X700225D01*
Y476250D01*
X699735D01*
Y475760D01*
X699244D01*
Y475269D01*
X697773D01*
Y474779D01*
X697283D01*
Y474288D01*
X696793D01*
Y473798D01*
X695812D01*
Y473308D01*
X695322D01*
Y472817D01*
X694831D01*
Y472327D01*
X694341D01*
Y472817D01*
X693850D01*
Y472327D01*
X693360D01*
Y471837D01*
X691889D01*
Y471346D01*
X690418D01*
Y470856D01*
X689928D01*
Y470366D01*
X688456D01*
Y469875D01*
X686495D01*
Y469385D01*
X686005D01*
Y468895D01*
X685514D01*
Y468404D01*
X683063D01*
Y467914D01*
X681101D01*
Y467424D01*
X677669D01*
Y466933D01*
X676197D01*
Y466443D01*
X674236D01*
Y465952D01*
X671784D01*
Y465462D01*
X669823D01*
Y464972D01*
X665409D01*
Y464481D01*
X661487D01*
Y463991D01*
X658054D01*
Y463501D01*
X655112D01*
Y463991D01*
X654622D01*
Y463501D01*
X650699D01*
Y463010D01*
X646776D01*
Y462520D01*
X643834D01*
Y462029D01*
X631575D01*
Y461539D01*
X617354D01*
Y462029D01*
X609508D01*
Y462520D01*
X600191D01*
Y463010D01*
X590875D01*
Y463501D01*
X585971D01*
Y463991D01*
X584500D01*
Y463501D01*
X583519D01*
Y463991D01*
X580087D01*
Y464481D01*
X578125D01*
Y464972D01*
X576164D01*
Y465462D01*
X573712D01*
Y465952D01*
X573222D01*
Y466443D01*
X571260D01*
Y466933D01*
X569299D01*
Y467424D01*
X567828D01*
Y467914D01*
X564885D01*
Y468404D01*
X563414D01*
Y468895D01*
X561943D01*
Y469385D01*
X560962D01*
Y469875D01*
X559492D01*
Y470366D01*
X559001D01*
Y470856D01*
X558020D01*
Y471346D01*
X556059D01*
Y471837D01*
X555569D01*
Y472327D01*
X554098D01*
Y472817D01*
X552626D01*
Y473308D01*
X551155D01*
Y473798D01*
X550665D01*
Y474288D01*
X550175D01*
Y474779D01*
X548703D01*
Y475269D01*
X547723D01*
Y475760D01*
X546742D01*
Y476250D01*
X545761D01*
Y476740D01*
X545271D01*
Y477231D01*
X544290D01*
Y477721D01*
X543310D01*
Y478211D01*
X542819D01*
Y478702D01*
X542329D01*
Y479192D01*
X541838D01*
Y479683D01*
X540858D01*
Y480173D01*
X540367D01*
Y480663D01*
X539387D01*
Y481154D01*
X538896D01*
Y481644D01*
X537916D01*
Y482134D01*
X537425D01*
Y482625D01*
X536935D01*
Y483115D01*
X535954D01*
Y483605D01*
X535464D01*
Y484096D01*
X534973D01*
Y484586D01*
X534483D01*
Y485076D01*
X533993D01*
Y485567D01*
X533502D01*
Y486057D01*
X533012D01*
Y486548D01*
X532522D01*
Y487038D01*
X532031D01*
Y487528D01*
X531541D01*
Y488509D01*
X531050D01*
Y488999D01*
X530560D01*
Y489490D01*
X530070D01*
Y489980D01*
X529579D01*
Y490961D01*
X529089D01*
Y491451D01*
X528599D01*
Y491941D01*
X528108D01*
Y493413D01*
X527618D01*
Y493903D01*
X527128D01*
Y494393D01*
X526637D01*
Y495374D01*
X526147D01*
Y496355D01*
X525657D01*
Y497826D01*
X525166D01*
Y498807D01*
X524676D01*
Y499787D01*
X524185D01*
Y500768D01*
X523695D01*
Y502239D01*
X523205D01*
Y503220D01*
X522714D01*
Y504201D01*
X522224D01*
Y505672D01*
X521734D01*
Y506652D01*
X521243D01*
Y508614D01*
X520753D01*
Y510575D01*
X520263D01*
Y511066D01*
X520753D01*
Y512046D01*
X520263D01*
Y515479D01*
X519772D01*
Y520382D01*
X519282D01*
Y535584D01*
X519772D01*
Y538526D01*
X520263D01*
Y540978D01*
X520753D01*
Y544901D01*
X521243D01*
Y546372D01*
X521734D01*
Y547352D01*
X522224D01*
Y549804D01*
X522714D01*
Y551275D01*
X523205D01*
Y551766D01*
X523695D01*
Y552746D01*
X524185D01*
Y553727D01*
X522714D01*
Y553237D01*
X521243D01*
Y552746D01*
X520753D01*
Y552256D01*
X519282D01*
Y551766D01*
X517811D01*
Y551275D01*
X516830D01*
Y550785D01*
X515359D01*
Y550294D01*
X513888D01*
Y549804D01*
X513397D01*
Y549314D01*
X511926D01*
Y548823D01*
X509965D01*
Y548333D01*
X508494D01*
Y547843D01*
X507023D01*
Y547352D01*
X506533D01*
Y547843D01*
X506042D01*
Y547352D01*
X505552D01*
Y545391D01*
X505061D01*
Y542939D01*
X504571D01*
Y539997D01*
X504081D01*
Y537055D01*
X503590D01*
Y535584D01*
X503100D01*
Y533132D01*
X502610D01*
Y531661D01*
X502119D01*
Y530680D01*
X501629D01*
Y529209D01*
X501138D01*
Y527738D01*
X500648D01*
Y526267D01*
X500158D01*
Y524796D01*
X499667D01*
Y523815D01*
X499177D01*
Y523325D01*
X498687D01*
Y521854D01*
X498196D01*
Y520382D01*
X497706D01*
Y519892D01*
X497216D01*
Y517440D01*
X496725D01*
Y516460D01*
X496235D01*
Y515969D01*
X495745D01*
Y514498D01*
X495254D01*
Y514008D01*
X494764D01*
Y513517D01*
X494273D01*
Y512046D01*
X493783D01*
Y511556D01*
X493293D01*
Y510085D01*
X492802D01*
Y509594D01*
X492312D01*
Y509104D01*
X491822D01*
Y507633D01*
X491331D01*
Y507143D01*
X490350D01*
Y506162D01*
X489370D01*
Y505181D01*
X488880D01*
Y504691D01*
X488389D01*
Y504201D01*
X487899D01*
Y503710D01*
X487408D01*
Y503220D01*
X486918D01*
Y502729D01*
X486428D01*
Y502239D01*
X485447D01*
Y501258D01*
X484466D01*
Y500278D01*
X483976D01*
Y499787D01*
X483485D01*
Y499297D01*
X482014D01*
Y498807D01*
X481524D01*
Y498316D01*
X481034D01*
Y497826D01*
X480543D01*
Y497336D01*
X480053D01*
Y496845D01*
X478582D01*
Y496355D01*
X478092D01*
Y495864D01*
X477601D01*
Y495374D01*
X476130D01*
Y494884D01*
X475640D01*
Y494393D01*
X475149D01*
Y494884D01*
X474659D01*
Y494393D01*
X473188D01*
Y493903D01*
X472207D01*
Y493413D01*
X469755D01*
Y492922D01*
X464852D01*
Y493413D01*
X458967D01*
Y493903D01*
X455045D01*
Y494393D01*
X452593D01*
Y494884D01*
X450631D01*
Y495374D01*
X449160D01*
Y495864D01*
X447689D01*
Y496355D01*
X447199D01*
Y496845D01*
X445728D01*
Y497336D01*
X445237D01*
Y497826D01*
X444257D01*
Y498316D01*
X443766D01*
Y498807D01*
X442785D01*
Y499297D01*
X442295D01*
Y499787D01*
X440824D01*
Y500278D01*
X440334D01*
Y500768D01*
X439843D01*
Y501258D01*
X439353D01*
Y501749D01*
X438372D01*
Y502239D01*
X437882D01*
Y502729D01*
X437392D01*
Y503220D01*
X436901D01*
Y503710D01*
X435920D01*
Y504201D01*
X435430D01*
Y504691D01*
X434449D01*
Y505181D01*
X433959D01*
Y505672D01*
X433469D01*
Y506652D01*
X432978D01*
Y507143D01*
X432488D01*
Y507633D01*
X431998D01*
Y508124D01*
X431507D01*
Y508614D01*
X431017D01*
Y509104D01*
X430527D01*
Y510085D01*
X430036D01*
Y510575D01*
X429546D01*
Y511066D01*
X429055D01*
Y511556D01*
X428565D01*
Y512046D01*
X428075D01*
Y513027D01*
X427584D01*
Y514498D01*
X427094D01*
Y514989D01*
X426604D01*
Y515479D01*
X426113D01*
Y516460D01*
X425623D01*
Y517440D01*
X425132D01*
Y518421D01*
X424642D01*
Y519892D01*
X424152D01*
Y520873D01*
X423661D01*
Y522834D01*
X423171D01*
Y523815D01*
X422681D01*
Y524305D01*
X422190D01*
Y525776D01*
X421700D01*
Y527248D01*
X421210D01*
Y529209D01*
X420719D01*
Y530680D01*
X420229D01*
Y532641D01*
X419739D01*
Y535093D01*
X419248D01*
Y538036D01*
X418758D01*
Y542449D01*
X418268D01*
Y545881D01*
X417777D01*
Y550294D01*
X417287D01*
Y558631D01*
X417777D01*
Y565005D01*
X418268D01*
Y571380D01*
X418758D01*
Y575303D01*
X419248D01*
Y577264D01*
X419739D01*
Y578245D01*
X420229D01*
Y579716D01*
X420719D01*
Y580206D01*
X421210D01*
Y581678D01*
X421700D01*
Y583149D01*
X422190D01*
Y584620D01*
X422681D01*
Y585601D01*
X423171D01*
Y587072D01*
X423661D01*
Y588543D01*
X424152D01*
Y589033D01*
X424642D01*
Y589523D01*
X425132D01*
Y590994D01*
X425623D01*
Y591485D01*
X426113D01*
Y592466D01*
X426604D01*
Y592956D01*
X427094D01*
Y593937D01*
Y594427D01*
X427584D01*
Y594917D01*
X428075D01*
Y595408D01*
X428565D01*
Y596879D01*
X429055D01*
Y597369D01*
X429546D01*
Y597859D01*
X430036D01*
Y598350D01*
X430527D01*
Y598840D01*
X431017D01*
Y599331D01*
X431507D01*
Y600802D01*
X431998D01*
Y601292D01*
X432488D01*
Y601782D01*
X432978D01*
Y602273D01*
X433469D01*
Y602763D01*
X433959D01*
Y603254D01*
X434449D01*
Y603744D01*
X434940D01*
Y604234D01*
X435430D01*
Y604725D01*
X435920D01*
Y605215D01*
X436411D01*
Y605705D01*
X436901D01*
Y606196D01*
X437392D01*
Y606686D01*
X437882D01*
Y607176D01*
X438372D01*
Y607667D01*
X438863D01*
Y608157D01*
X439353D01*
Y608647D01*
X439843D01*
Y609138D01*
X440334D01*
Y609628D01*
X440824D01*
Y610119D01*
X441314D01*
Y610609D01*
X441805D01*
Y611099D01*
X442295D01*
Y611590D01*
X443766D01*
Y612080D01*
X444257D01*
Y612570D01*
X444747D01*
Y613061D01*
X445237D01*
Y613551D01*
X446708D01*
Y614041D01*
X447199D01*
Y614532D01*
X448670D01*
Y615022D01*
X449651D01*
Y615513D01*
X450141D01*
Y616003D01*
X451612D01*
Y616493D01*
X453083D01*
Y616984D01*
X453573D01*
Y617474D01*
X455045D01*
Y617964D01*
X457006D01*
Y618455D01*
X457496D01*
Y617964D01*
X457987D01*
Y618455D01*
X458477D01*
Y617964D01*
X458967D01*
Y618455D01*
X461419D01*
Y618945D01*
X466323D01*
Y619435D01*
X477111D01*
Y618945D01*
X478582D01*
Y618455D01*
X480053D01*
Y617964D01*
X482014D01*
Y617474D01*
X482505D01*
Y616984D01*
X483976D01*
Y616493D01*
X484466D01*
Y616003D01*
X484957D01*
Y615513D01*
X485447D01*
Y615022D01*
X485937D01*
Y614532D01*
X486428D01*
Y614041D01*
X486918D01*
Y613551D01*
X487408D01*
Y613061D01*
X488389D01*
Y612570D01*
X488880D01*
Y612080D01*
X489370D01*
Y611590D01*
X489860D01*
Y611099D01*
X490350D01*
Y610119D01*
X490841D01*
Y609628D01*
X491331D01*
Y609138D01*
X491822D01*
Y608647D01*
X492802D01*
Y607667D01*
X493293D01*
Y607176D01*
X494273D01*
Y606196D01*
X494764D01*
Y605705D01*
X495254D01*
Y604725D01*
X495745D01*
Y604234D01*
X496235D01*
Y603744D01*
X496725D01*
Y602763D01*
X497216D01*
Y601782D01*
X497706D01*
Y601292D01*
X498196D01*
Y600311D01*
X498687D01*
Y599821D01*
X498196D01*
Y599331D01*
X498687D01*
Y598840D01*
X499177D01*
Y597369D01*
X499667D01*
Y596879D01*
X500158D01*
Y596389D01*
X500648D01*
Y594917D01*
X501138D01*
Y593937D01*
X501629D01*
Y592956D01*
X502119D01*
Y591485D01*
X502610D01*
Y589523D01*
X503100D01*
Y588052D01*
X503590D01*
Y586091D01*
X504081D01*
Y584129D01*
X504571D01*
Y580697D01*
X505061D01*
Y574322D01*
X506533D01*
Y574813D01*
X507023D01*
Y575303D01*
X507513D01*
Y575793D01*
X508984D01*
Y576284D01*
X509475D01*
Y576774D01*
X509965D01*
Y577264D01*
X511436D01*
Y577755D01*
X511926D01*
Y578245D01*
X512417D01*
Y578736D01*
X513888D01*
Y579226D01*
X514869D01*
Y579716D01*
X515359D01*
Y580206D01*
X516830D01*
Y580697D01*
X517320D01*
Y581187D01*
X517811D01*
Y581678D01*
X519282D01*
Y582168D01*
X519772D01*
Y582658D01*
X520263D01*
Y583149D01*
X520753D01*
Y582658D01*
X521243D01*
Y583149D01*
X521734D01*
Y583639D01*
X522224D01*
Y584129D01*
X523695D01*
Y584620D01*
X524185D01*
Y585110D01*
X524676D01*
Y585601D01*
X525166D01*
Y586091D01*
X525657D01*
Y586581D01*
X526147D01*
Y587072D01*
X527128D01*
Y587562D01*
X527618D01*
Y588052D01*
X528108D01*
Y588543D01*
X529579D01*
Y589033D01*
X530070D01*
Y589523D01*
X530560D01*
Y590014D01*
X531050D01*
Y590504D01*
X532522D01*
Y590994D01*
X533012D01*
Y591485D01*
X533502D01*
Y591975D01*
X533993D01*
Y592466D01*
X535464D01*
Y592956D01*
X535954D01*
Y593446D01*
X536445D01*
Y593937D01*
X536935D01*
Y594427D01*
X537425D01*
Y594917D01*
X537916D01*
Y595408D01*
X538406D01*
Y595898D01*
X538896D01*
Y596389D01*
X539387D01*
Y596879D01*
X539877D01*
Y597369D01*
X541348D01*
Y597859D01*
X541838D01*
Y598350D01*
X542329D01*
Y598840D01*
X542819D01*
Y599331D01*
X543310D01*
Y599821D01*
X543800D01*
Y600311D01*
X544290D01*
Y600802D01*
X544781D01*
Y601292D01*
X545271D01*
Y601782D01*
X546742D01*
Y602763D01*
X547232D01*
Y603254D01*
X547723D01*
Y603744D01*
X548213D01*
Y604234D01*
X548703D01*
Y604725D01*
X549194D01*
Y605215D01*
X549684D01*
Y605705D01*
X550665D01*
Y607176D01*
X551155D01*
Y607667D01*
X551646D01*
Y608157D01*
X552136D01*
Y608647D01*
X552626D01*
Y609138D01*
X553117D01*
Y609628D01*
X553607D01*
Y611099D01*
X554098D01*
Y611590D01*
X554588D01*
Y612080D01*
X555078D01*
Y612570D01*
X555569D01*
Y614041D01*
X556059D01*
Y614532D01*
X556549D01*
Y616003D01*
X557040D01*
Y616493D01*
X557530D01*
Y617964D01*
X558020D01*
Y618455D01*
X558511D01*
Y618945D01*
X559001D01*
Y619926D01*
X559492D01*
Y620416D01*
X559982D01*
Y622378D01*
X560472D01*
Y624339D01*
X560962D01*
Y625810D01*
X561453D01*
Y626791D01*
X561943D01*
Y628262D01*
X562434D01*
Y630714D01*
X562924D01*
Y632185D01*
X563414D01*
Y634146D01*
X563905D01*
Y635617D01*
X564395D01*
Y638559D01*
X564885D01*
Y640031D01*
X552136D01*
Y640521D01*
X539387D01*
Y640031D01*
X538406D01*
Y640521D01*
X531050D01*
Y641011D01*
X526637D01*
Y641502D01*
X522224D01*
Y641992D01*
X518792D01*
Y642482D01*
X515849D01*
Y642973D01*
X513397D01*
Y643463D01*
X509475D01*
Y643953D01*
X506042D01*
Y644444D01*
X504571D01*
Y644934D01*
X504081D01*
Y644444D01*
X503100D01*
Y644934D01*
X500648D01*
Y645425D01*
X498687D01*
Y645915D01*
X496235D01*
Y646405D01*
X494273D01*
Y646896D01*
X491822D01*
Y647386D01*
X490350D01*
Y647876D01*
X488389D01*
Y648367D01*
X486918D01*
Y648857D01*
X485447D01*
Y649348D01*
X484957D01*
Y648857D01*
X484466D01*
Y649348D01*
X482014D01*
Y649838D01*
X480053D01*
Y650328D01*
X479072D01*
Y650818D01*
X477111D01*
Y651309D01*
X476130D01*
Y651799D01*
X475640D01*
Y652290D01*
X474169D01*
Y652780D01*
X473188D01*
Y653270D01*
X472207D01*
Y653761D01*
X470246D01*
Y654251D01*
X469265D01*
Y654741D01*
X468775D01*
Y655232D01*
X468284D01*
Y655722D01*
X467794D01*
Y656212D01*
X467304D01*
Y656703D01*
X466323D01*
Y657193D01*
X465832D01*
Y657684D01*
X465342D01*
Y658174D01*
X464852D01*
Y658664D01*
X464361D01*
Y659155D01*
X463871D01*
Y659645D01*
X463381D01*
Y661116D01*
X462890D01*
Y662587D01*
X462400D01*
Y665039D01*
X461910D01*
Y666020D01*
X461419D01*
Y671414D01*
X460929D01*
Y672394D01*
X461419D01*
Y674846D01*
X461910D01*
Y676808D01*
X462400D01*
Y679259D01*
X462890D01*
Y681711D01*
X463381D01*
Y682202D01*
X462890D01*
Y682692D01*
X463381D01*
Y685634D01*
X463871D01*
Y686124D01*
X464361D01*
Y687596D01*
X464852D01*
Y688576D01*
X465342D01*
Y690538D01*
X465832D01*
Y691028D01*
X466323D01*
Y692499D01*
X466813D01*
Y692990D01*
X467304D01*
Y694461D01*
X467794D01*
Y695441D01*
X468284D01*
Y696913D01*
X468775D01*
Y698384D01*
X469265D01*
Y698874D01*
X469755D01*
Y700345D01*
X470246D01*
Y700835D01*
X470736D01*
Y702307D01*
X471227D01*
Y702797D01*
X471717D01*
Y703777D01*
X472207D01*
Y704758D01*
X472697D01*
Y705249D01*
X473188D01*
Y706229D01*
X473678D01*
Y706720D01*
X474169D01*
Y708191D01*
X474659D01*
Y708681D01*
X475149D01*
Y709172D01*
X475640D01*
Y710643D01*
X476130D01*
Y711133D01*
X476620D01*
Y712604D01*
X477111D01*
Y713094D01*
X477601D01*
Y713585D01*
X478092D01*
Y714075D01*
X478582D01*
Y715546D01*
X479072D01*
Y716037D01*
X479563D01*
Y716527D01*
X480053D01*
Y717508D01*
X480543D01*
Y717998D01*
X481034D01*
Y718488D01*
X481524D01*
Y718979D01*
X482014D01*
Y720450D01*
X482505D01*
Y720940D01*
X482995D01*
Y721431D01*
X483485D01*
Y721921D01*
X483976D01*
Y722411D01*
X484466D01*
Y722902D01*
X484957D01*
Y724373D01*
X485447D01*
Y724863D01*
X485937D01*
Y725353D01*
X486428D01*
Y725844D01*
X486918D01*
Y726334D01*
X487408D01*
Y726824D01*
X487899D01*
Y727315D01*
X488389D01*
Y727805D01*
X488880D01*
Y728296D01*
X489370D01*
Y728786D01*
X489860D01*
Y730257D01*
X490350D01*
Y730747D01*
X490841D01*
Y731238D01*
X491331D01*
Y731728D01*
X491822D01*
Y732218D01*
X492312D01*
Y732709D01*
X492802D01*
Y733199D01*
X493293D01*
Y733690D01*
X493783D01*
Y734180D01*
X494273D01*
Y734670D01*
X494764D01*
Y735161D01*
X495254D01*
Y735651D01*
X495745D01*
Y736141D01*
X496235D01*
Y736632D01*
X496725D01*
Y737122D01*
X497216D01*
Y737613D01*
X498196D01*
Y738103D01*
X498687D01*
Y738593D01*
X499177D01*
Y739083D01*
X499667D01*
Y740555D01*
X500158D01*
Y741045D01*
X500648D01*
Y741535D01*
X501138D01*
Y742026D01*
X501629D01*
Y742516D01*
X502119D01*
Y743006D01*
X502610D01*
Y743497D01*
X503100D01*
Y743987D01*
X504081D01*
Y744477D01*
X504571D01*
Y744968D01*
X505061D01*
Y745458D01*
X505552D01*
Y745949D01*
X506533D01*
Y746439D01*
X507023D01*
Y746929D01*
X507513D01*
Y747420D01*
X508004D01*
Y747910D01*
X508494D01*
Y748400D01*
X508984D01*
Y748891D01*
X509475D01*
Y749381D01*
X510946D01*
Y749872D01*
X511436D01*
Y750362D01*
X511926D01*
Y750852D01*
X512417D01*
Y751343D01*
X512907D01*
Y751833D01*
X514378D01*
Y752323D01*
X514869D01*
Y752814D01*
X515359D01*
Y753304D01*
X515849D01*
Y753794D01*
X516830D01*
Y754285D01*
X517320D01*
Y754775D01*
X517811D01*
Y755266D01*
X518301D01*
Y755756D01*
X519282D01*
Y756246D01*
X520263D01*
Y757227D01*
X520753D01*
Y757717D01*
X521243D01*
Y758208D01*
X521734D01*
Y758698D01*
X522714D01*
Y759188D01*
X523695D01*
Y759679D01*
X524185D01*
Y760169D01*
X524676D01*
Y760659D01*
X525166D01*
Y761150D01*
X526637D01*
Y761640D01*
X527128D01*
Y762131D01*
X527618D01*
Y762621D01*
X528108D01*
Y763111D01*
X529579D01*
Y763602D01*
X530070D01*
Y764092D01*
X530560D01*
Y764582D01*
X531050D01*
Y765073D01*
X532522D01*
Y765563D01*
X533012D01*
Y766053D01*
X533502D01*
Y766544D01*
X533993D01*
Y767034D01*
X534973D01*
Y767524D01*
X535464D01*
Y768015D01*
X536445D01*
Y768505D01*
X536935D01*
Y768996D01*
X537425D01*
Y769486D01*
X538896D01*
Y769976D01*
X539387D01*
Y770467D01*
X540858D01*
Y770957D01*
X541348D01*
Y771447D01*
X542819D01*
Y771938D01*
X543310D01*
Y772428D01*
X544781D01*
Y772918D01*
X546252D01*
Y773409D01*
X547232D01*
Y773899D01*
X548213D01*
Y774389D01*
X549684D01*
Y774880D01*
X551646D01*
Y775370D01*
X552136D01*
Y775861D01*
X552626D01*
Y776351D01*
X553607D01*
Y776841D01*
X555078D01*
Y777332D01*
X555569D01*
Y776841D01*
X556059D01*
Y777332D01*
X557530D01*
Y777822D01*
X559001D01*
Y778312D01*
X559982D01*
Y778803D01*
X561453D01*
Y779293D01*
X562924D01*
Y779783D01*
X564395D01*
Y780274D01*
X565376D01*
Y780764D01*
X566847D01*
Y781255D01*
X569299D01*
Y781745D01*
X569789D01*
Y781255D01*
X570279D01*
Y781745D01*
X572241D01*
Y782235D01*
X573712D01*
Y782726D01*
X576164D01*
Y783216D01*
X577145D01*
Y783706D01*
X578615D01*
Y784197D01*
X580087D01*
Y784687D01*
X581558D01*
Y785178D01*
X584010D01*
Y785668D01*
X585481D01*
Y786158D01*
X586461D01*
Y785668D01*
X586952D01*
Y786158D01*
X589403D01*
Y786649D01*
X591365D01*
Y787139D01*
X592836D01*
Y787629D01*
X595288D01*
Y788120D01*
X597249D01*
Y788610D01*
X599701D01*
Y789100D01*
X601662D01*
Y789591D01*
X605095D01*
Y790081D01*
X608037D01*
Y790572D01*
X608528D01*
Y790081D01*
X609018D01*
Y790572D01*
X611960D01*
Y791062D01*
X614412D01*
Y791552D01*
X616864D01*
Y792042D01*
X618825D01*
Y792533D01*
X622258D01*
Y793023D01*
X625200D01*
Y793514D01*
X628142D01*
Y794004D01*
X635007D01*
Y794494D01*
X636478D01*
Y794985D01*
X637459D01*
Y794494D01*
D02*
G37*
G36*
X195204Y338688D02*
X194951D01*
Y336667D01*
X194825D01*
Y336161D01*
X194699D01*
Y335656D01*
X194572D01*
Y333508D01*
X194320D01*
Y331486D01*
X194193D01*
Y330854D01*
X193941D01*
Y328327D01*
X193688D01*
Y326685D01*
X193562D01*
Y325421D01*
X193309D01*
Y324790D01*
X186486D01*
Y324916D01*
X186107D01*
Y325548D01*
X185854D01*
Y326306D01*
X185728D01*
Y326558D01*
X185475D01*
Y327569D01*
X185222D01*
Y327948D01*
X185096D01*
Y328580D01*
X184843D01*
Y329212D01*
X184591D01*
Y329591D01*
X184464D01*
Y330223D01*
X184212D01*
Y331107D01*
X184085D01*
Y331233D01*
X183832D01*
Y332244D01*
X183580D01*
Y332750D01*
X183454D01*
Y333129D01*
X183201D01*
Y334140D01*
X182948D01*
Y334392D01*
X182822D01*
Y334898D01*
Y335024D01*
X182569D01*
Y336035D01*
X182316D01*
Y336288D01*
X182190D01*
Y337046D01*
X181937D01*
Y336414D01*
X181811D01*
Y335782D01*
X181558D01*
Y333129D01*
X181306D01*
Y331865D01*
X181179D01*
Y330602D01*
X180926D01*
Y328201D01*
X180800D01*
Y327948D01*
X180674D01*
Y327317D01*
X180547D01*
Y325295D01*
X180295D01*
Y324916D01*
X180168D01*
Y324790D01*
X178020D01*
Y326558D01*
X178273D01*
Y328833D01*
X178399D01*
Y329465D01*
X178526D01*
Y329591D01*
X178652D01*
Y332118D01*
X178905D01*
Y333508D01*
X179031D01*
Y334645D01*
X179284D01*
Y337298D01*
X179536D01*
Y338309D01*
X179663D01*
Y339952D01*
X179916D01*
Y340331D01*
X186739D01*
Y340205D01*
X187118D01*
Y339320D01*
X187370D01*
Y338941D01*
X187497D01*
Y338436D01*
X187749D01*
Y337677D01*
X187876D01*
Y337425D01*
X188002D01*
Y337298D01*
X188129D01*
Y336414D01*
X188381D01*
Y335782D01*
X188507D01*
Y335656D01*
X188634D01*
Y335403D01*
X188760D01*
Y334771D01*
X189013D01*
Y334140D01*
X189139D01*
Y333760D01*
X189392D01*
Y332750D01*
X189645D01*
Y332497D01*
X189771D01*
Y331865D01*
X190024D01*
Y330854D01*
X190277D01*
Y330602D01*
X190403D01*
Y329844D01*
X190655D01*
Y329212D01*
X190782D01*
Y328959D01*
X191035D01*
Y328201D01*
X191287D01*
Y329212D01*
X191414D01*
Y330475D01*
X191666D01*
Y332876D01*
X191793D01*
Y333129D01*
X191919D01*
Y333760D01*
X192045D01*
Y335656D01*
X192298D01*
Y337677D01*
X192424D01*
Y338309D01*
X192551D01*
Y338562D01*
X192677D01*
Y340205D01*
X192930D01*
Y340331D01*
X195204D01*
Y338688D01*
D02*
G37*
G36*
X112317Y340205D02*
X112444D01*
Y339320D01*
X112317D01*
Y339067D01*
X112191D01*
Y338436D01*
X112065D01*
Y336414D01*
X111812D01*
Y334392D01*
X111685D01*
Y333887D01*
X111559D01*
Y333760D01*
X111433D01*
Y331233D01*
X111180D01*
Y329844D01*
X111054D01*
Y328959D01*
X110801D01*
Y326306D01*
X110548D01*
Y325421D01*
X110422D01*
Y324790D01*
X30694D01*
Y324916D01*
X30568D01*
Y326685D01*
X30694D01*
Y326937D01*
X30820D01*
Y327569D01*
X30947D01*
Y329465D01*
X31199D01*
Y331486D01*
X31326D01*
Y332118D01*
X31578D01*
Y334645D01*
X31831D01*
Y336035D01*
X31957D01*
Y337298D01*
X32210D01*
Y339952D01*
X32463D01*
Y340205D01*
X32589D01*
Y340331D01*
X112317D01*
Y340205D01*
D02*
G37*
G36*
X212894Y338688D02*
X212767D01*
Y338056D01*
X212641D01*
Y337930D01*
X212514D01*
Y337677D01*
X204428D01*
Y337425D01*
X204175D01*
Y337298D01*
X204049D01*
Y337046D01*
X203796D01*
Y335403D01*
X203670D01*
Y334519D01*
X203417D01*
Y333002D01*
Y332876D01*
Y331865D01*
X203164D01*
Y330854D01*
X203038D01*
Y329212D01*
X202785D01*
Y327822D01*
X203038D01*
Y327569D01*
X203417D01*
Y327317D01*
X205944D01*
Y327569D01*
X206323D01*
Y327948D01*
X206702D01*
Y329844D01*
X206955D01*
Y331486D01*
X204301D01*
Y331613D01*
X204175D01*
Y332118D01*
X204301D01*
Y332497D01*
X204428D01*
Y334013D01*
X204681D01*
Y334140D01*
X212767D01*
Y334013D01*
X212894D01*
Y332750D01*
X212767D01*
Y332497D01*
X212641D01*
Y332118D01*
X212514D01*
Y329591D01*
X212262D01*
Y327696D01*
X212135D01*
Y327064D01*
X212009D01*
Y326937D01*
X211883D01*
Y324916D01*
X211630D01*
Y324663D01*
X199753D01*
Y324790D01*
X199500D01*
Y324916D01*
X199247D01*
Y325042D01*
X198616D01*
Y325295D01*
X198237D01*
Y325674D01*
X197858D01*
Y326306D01*
X197605D01*
Y326685D01*
X197479D01*
Y327317D01*
X197226D01*
Y328833D01*
X197479D01*
Y329844D01*
X197605D01*
Y331486D01*
X197858D01*
Y333760D01*
X197984D01*
Y334013D01*
X198110D01*
Y334519D01*
X198237D01*
Y336667D01*
X198489D01*
Y337677D01*
X198868D01*
Y338309D01*
X199121D01*
Y338688D01*
X199247D01*
Y338941D01*
X199500D01*
Y339320D01*
X199879D01*
Y339573D01*
X200132D01*
Y339699D01*
X200258D01*
Y339952D01*
X200890D01*
Y340205D01*
X201522D01*
Y340331D01*
X212894D01*
Y338688D01*
D02*
G37*
G36*
X176378Y340205D02*
X176630D01*
Y340078D01*
Y339952D01*
X176378D01*
Y337677D01*
X176251D01*
Y337425D01*
X176125D01*
Y337046D01*
X175999D01*
Y334519D01*
X175746D01*
Y333129D01*
X175620D01*
Y331865D01*
X175367D01*
Y329338D01*
X175114D01*
Y328327D01*
X174988D01*
Y326685D01*
X174735D01*
Y324790D01*
X174609D01*
Y324663D01*
X169176D01*
Y326937D01*
X169428D01*
Y327696D01*
X169555D01*
Y329465D01*
X169807D01*
Y331865D01*
X169934D01*
Y332118D01*
X170060D01*
Y332497D01*
X170187D01*
Y334771D01*
X170439D01*
Y336793D01*
X170565D01*
Y337677D01*
X170818D01*
Y339952D01*
X171071D01*
Y340205D01*
X173724D01*
Y340331D01*
X176378D01*
Y340205D01*
D02*
G37*
G36*
X166649D02*
X166901D01*
Y339573D01*
X166775D01*
Y339320D01*
X166649D01*
Y338688D01*
X166522D01*
Y337677D01*
X160078D01*
Y337298D01*
X159826D01*
Y337046D01*
X159699D01*
Y335403D01*
X159446D01*
Y333760D01*
X159320D01*
Y332876D01*
X159067D01*
Y329970D01*
X158815D01*
Y329212D01*
X158688D01*
Y327696D01*
X158815D01*
Y327569D01*
X165259D01*
Y327190D01*
X165511D01*
Y326937D01*
X165259D01*
Y324663D01*
X155403D01*
Y324790D01*
X155151D01*
Y325042D01*
X154519D01*
Y325295D01*
X154140D01*
Y325548D01*
X153887D01*
Y325674D01*
X153761D01*
Y325927D01*
X153508D01*
Y326558D01*
X153255D01*
Y330096D01*
X153508D01*
Y332497D01*
X153634D01*
Y332750D01*
X153761D01*
Y333382D01*
X153887D01*
Y335403D01*
X154140D01*
Y337046D01*
X154266D01*
Y337298D01*
X154392D01*
Y337425D01*
X154519D01*
Y338056D01*
X154771D01*
Y338562D01*
X154898D01*
Y338688D01*
X155151D01*
Y339067D01*
X155403D01*
Y339320D01*
X155782D01*
Y339699D01*
X156161D01*
Y339952D01*
X156793D01*
Y340205D01*
X157172D01*
Y340331D01*
X166649D01*
Y340205D01*
D02*
G37*
G36*
X145042Y339952D02*
X145295D01*
Y339573D01*
X145421D01*
Y338688D01*
X145674D01*
Y337425D01*
X145927D01*
Y337298D01*
X146053D01*
Y336035D01*
X146306D01*
Y335150D01*
X146432D01*
Y334771D01*
X146685D01*
Y333760D01*
X146938D01*
Y333129D01*
X147064D01*
Y332497D01*
X147317D01*
Y331233D01*
X147443D01*
Y331107D01*
X147570D01*
Y330854D01*
X147696D01*
Y329844D01*
X147949D01*
Y328833D01*
X148075D01*
Y328580D01*
X148328D01*
Y327317D01*
X148580D01*
Y326558D01*
X148707D01*
Y326053D01*
X148959D01*
Y324663D01*
X143400D01*
Y324916D01*
X143147D01*
Y325295D01*
X143021D01*
Y325927D01*
X142768D01*
Y327190D01*
X142515D01*
Y327569D01*
X142389D01*
Y328327D01*
X142136D01*
Y328833D01*
X135945D01*
Y328580D01*
X135566D01*
Y327948D01*
X135313D01*
Y327569D01*
X135187D01*
Y327317D01*
X134934D01*
Y326685D01*
X134682D01*
Y326558D01*
X134555D01*
Y326306D01*
X134303D01*
Y325674D01*
X133924D01*
Y325042D01*
X133671D01*
Y324790D01*
X133544D01*
Y324663D01*
X131017D01*
Y325295D01*
X131270D01*
Y325674D01*
X131396D01*
Y325927D01*
X131649D01*
Y326306D01*
X131776D01*
Y326558D01*
X131902D01*
Y326685D01*
X132028D01*
Y327190D01*
X132281D01*
Y327569D01*
X132534D01*
Y327696D01*
X132660D01*
Y328201D01*
X132913D01*
Y328580D01*
X133039D01*
Y328833D01*
X133292D01*
Y329338D01*
X133418D01*
Y329465D01*
X133544D01*
Y329591D01*
X133671D01*
Y329970D01*
X133924D01*
Y330475D01*
X134176D01*
Y330602D01*
X134303D01*
Y331107D01*
X134555D01*
Y331486D01*
X134682D01*
Y331739D01*
X134934D01*
Y332244D01*
X135187D01*
Y332497D01*
X135313D01*
Y332876D01*
X135566D01*
Y333382D01*
X135819D01*
Y333508D01*
X135945D01*
Y334013D01*
X136198D01*
Y334392D01*
X136324D01*
Y334519D01*
X136577D01*
Y335150D01*
X136830D01*
Y335403D01*
X136956D01*
Y335782D01*
X137209D01*
Y336288D01*
X137461D01*
Y336414D01*
X137588D01*
Y336793D01*
X137840D01*
Y337298D01*
X137967D01*
Y337425D01*
X138219D01*
Y338056D01*
X138472D01*
Y338309D01*
X138598D01*
Y338562D01*
X138725D01*
Y338688D01*
X138851D01*
Y339194D01*
X139104D01*
Y339320D01*
X139230D01*
Y339699D01*
X139483D01*
Y340205D01*
X145042D01*
Y339952D01*
D02*
G37*
G36*
X126216Y340205D02*
X127100D01*
Y339952D01*
X128111D01*
Y339573D01*
X128364D01*
Y339320D01*
X128617D01*
Y339194D01*
X128743D01*
Y338309D01*
X128996D01*
Y337046D01*
X128743D01*
Y334645D01*
X128617D01*
Y334140D01*
X128490D01*
Y333508D01*
X128364D01*
Y332750D01*
X128111D01*
Y332118D01*
X127732D01*
Y331865D01*
X127479D01*
Y331739D01*
X127353D01*
Y331613D01*
X127100D01*
Y331486D01*
X126090D01*
Y330854D01*
X126469D01*
Y329844D01*
X126721D01*
Y329212D01*
X126848D01*
Y328959D01*
X127100D01*
Y327948D01*
X127353D01*
Y327569D01*
X127479D01*
Y326937D01*
X127732D01*
Y326053D01*
X127858D01*
Y325927D01*
X128111D01*
Y324916D01*
X128364D01*
Y324790D01*
X128111D01*
Y324663D01*
X122299D01*
Y324790D01*
X122173D01*
Y325295D01*
X121920D01*
Y326306D01*
X121794D01*
Y326558D01*
X121667D01*
Y326685D01*
X121541D01*
Y327948D01*
X121288D01*
Y328580D01*
X121162D01*
Y329212D01*
X120909D01*
Y330223D01*
X120656D01*
Y330854D01*
X120530D01*
Y331486D01*
X118888D01*
Y330854D01*
X118635D01*
Y328833D01*
X118509D01*
Y328327D01*
X118382D01*
Y327569D01*
X118256D01*
Y325674D01*
X118003D01*
Y324663D01*
X112444D01*
Y325674D01*
X112696D01*
Y327190D01*
X112823D01*
Y328580D01*
X113075D01*
Y330602D01*
X113202D01*
Y331107D01*
X113328D01*
Y331739D01*
X113454D01*
Y333760D01*
X113707D01*
Y336035D01*
X113834D01*
Y336288D01*
X113960D01*
Y336667D01*
X114086D01*
Y338941D01*
X114339D01*
Y340205D01*
X114465D01*
Y340331D01*
X126216D01*
Y340205D01*
D02*
G37*
G36*
X110043Y323147D02*
X110169D01*
Y321757D01*
X110043D01*
Y321125D01*
X109790D01*
Y318851D01*
X109537D01*
Y318725D01*
X109411D01*
Y318598D01*
X105241D01*
Y317588D01*
X104989D01*
Y316198D01*
X104862D01*
Y314934D01*
X104610D01*
Y314302D01*
X100061D01*
Y314934D01*
X100314D01*
Y316577D01*
X100440D01*
Y317840D01*
X100693D01*
Y318598D01*
X96397D01*
Y318219D01*
X96144D01*
Y315945D01*
X96018D01*
Y315566D01*
X95892D01*
Y315187D01*
X95765D01*
Y314302D01*
X91216D01*
Y315187D01*
X91343D01*
Y315566D01*
X91469D01*
Y315945D01*
X91595D01*
Y318093D01*
X91848D01*
Y318472D01*
X91595D01*
Y318598D01*
X87552D01*
Y318472D01*
X87299D01*
Y315945D01*
X87047D01*
Y314555D01*
X86920D01*
Y314302D01*
X82372D01*
Y314934D01*
X82498D01*
Y316198D01*
X82751D01*
Y318598D01*
X78581D01*
Y317966D01*
X78455D01*
Y316577D01*
X78202D01*
Y314302D01*
X73653D01*
Y316577D01*
X73906D01*
Y318219D01*
X74033D01*
Y318472D01*
X73906D01*
Y318598D01*
X69737D01*
Y317588D01*
X69610D01*
Y317208D01*
X69484D01*
Y316956D01*
X69358D01*
Y314681D01*
X69105D01*
Y314302D01*
X64556D01*
Y314555D01*
X64809D01*
Y316956D01*
X64935D01*
Y317208D01*
X65062D01*
Y317840D01*
X65188D01*
Y318472D01*
X65062D01*
Y318598D01*
X60892D01*
Y317840D01*
X60639D01*
Y316198D01*
X60513D01*
Y314934D01*
X60260D01*
Y314302D01*
X55711D01*
Y315187D01*
X55964D01*
Y316577D01*
X56091D01*
Y317840D01*
X56343D01*
Y318598D01*
X52047D01*
Y318219D01*
X51795D01*
Y315945D01*
X51668D01*
Y315566D01*
X51542D01*
Y315187D01*
X51416D01*
Y314302D01*
X46867D01*
Y315187D01*
X46993D01*
Y315566D01*
X47120D01*
Y315945D01*
X47246D01*
Y318093D01*
X47499D01*
Y318472D01*
X47246D01*
Y318598D01*
X43203D01*
Y318472D01*
X42950D01*
Y315945D01*
X42697D01*
Y314555D01*
X42571D01*
Y314302D01*
X38022D01*
Y314934D01*
X38149D01*
Y316198D01*
X38401D01*
Y318598D01*
X34232D01*
Y317840D01*
X34105D01*
Y316577D01*
X33853D01*
Y314302D01*
X29304D01*
Y316829D01*
X29557D01*
Y318219D01*
X29683D01*
Y318725D01*
X29936D01*
Y318851D01*
X34105D01*
Y319104D01*
X34232D01*
Y320367D01*
X34484D01*
Y322768D01*
X34611D01*
Y323021D01*
X34864D01*
Y323273D01*
X39033D01*
Y323021D01*
X39159D01*
Y322768D01*
X39033D01*
Y320241D01*
X38780D01*
Y318851D01*
X42950D01*
Y319483D01*
X43076D01*
Y319736D01*
X43203D01*
Y320115D01*
X43329D01*
Y322389D01*
X43582D01*
Y323021D01*
X43708D01*
Y323147D01*
Y323273D01*
X47878D01*
Y323021D01*
X48130D01*
Y322389D01*
X47878D01*
Y320115D01*
X47751D01*
Y319862D01*
X47625D01*
Y319356D01*
X47499D01*
Y318851D01*
X51795D01*
Y319483D01*
X52047D01*
Y320746D01*
X52174D01*
Y322010D01*
X52426D01*
Y323273D01*
X56596D01*
Y323147D01*
X56722D01*
Y323021D01*
X56975D01*
Y321757D01*
X56722D01*
Y320494D01*
X56596D01*
Y319230D01*
X56343D01*
Y318851D01*
X60892D01*
Y321125D01*
X61018D01*
Y321378D01*
X61145D01*
Y321757D01*
X61271D01*
Y323147D01*
X61650D01*
Y323273D01*
X65693D01*
Y323147D01*
X65820D01*
Y321757D01*
X65693D01*
Y321504D01*
X65567D01*
Y321125D01*
X65441D01*
Y318851D01*
X69737D01*
Y320746D01*
X69989D01*
Y322389D01*
X70116D01*
Y323021D01*
X70368D01*
Y323273D01*
X74538D01*
Y323021D01*
X74664D01*
Y322136D01*
X74538D01*
Y320873D01*
X74285D01*
Y318851D01*
X78455D01*
Y319104D01*
X78581D01*
Y320367D01*
X78834D01*
Y322768D01*
X78960D01*
Y323021D01*
X79213D01*
Y323273D01*
X83383D01*
Y323021D01*
X83635D01*
Y322768D01*
X83383D01*
Y320241D01*
X83130D01*
Y318851D01*
X87299D01*
Y319483D01*
X87426D01*
Y319736D01*
X87552D01*
Y320115D01*
X87679D01*
Y322389D01*
X87931D01*
Y323021D01*
X88058D01*
Y323273D01*
X92227D01*
Y323021D01*
X92480D01*
Y322389D01*
X92227D01*
Y320115D01*
X92101D01*
Y319862D01*
X91975D01*
Y319356D01*
X91848D01*
Y318851D01*
X96144D01*
Y319104D01*
X96397D01*
Y320746D01*
X96523D01*
Y322010D01*
X96776D01*
Y323273D01*
X101325D01*
Y321757D01*
X101072D01*
Y320367D01*
X100946D01*
Y319230D01*
X100693D01*
Y318851D01*
X105241D01*
Y321125D01*
X105368D01*
Y321378D01*
X105494D01*
Y321757D01*
X105621D01*
Y323021D01*
X105873D01*
Y323147D01*
X106000D01*
Y323273D01*
X110043D01*
Y323147D01*
D02*
G37*
G36*
X211504Y321757D02*
X211251D01*
Y319483D01*
X211124D01*
Y319230D01*
X210998D01*
Y318598D01*
X210872D01*
Y316956D01*
X210619D01*
Y314681D01*
X210493D01*
Y314302D01*
X210240D01*
Y314050D01*
X111180D01*
Y315819D01*
X111433D01*
Y317966D01*
X111559D01*
Y318472D01*
X111685D01*
Y318725D01*
X111812D01*
Y320999D01*
X112065D01*
Y323021D01*
X211504D01*
Y321757D01*
D02*
G37*
%LPC*%
G36*
X661487Y790572D02*
X656583D01*
Y790081D01*
X656093D01*
Y790572D01*
X644324D01*
Y790081D01*
X643343D01*
Y790572D01*
X637949D01*
Y790081D01*
X637459D01*
Y790572D01*
X636968D01*
Y790081D01*
X630103D01*
Y789591D01*
X627161D01*
Y789100D01*
X623729D01*
Y788610D01*
X620787D01*
Y788120D01*
X618335D01*
Y787629D01*
X616373D01*
Y787139D01*
X613922D01*
Y786649D01*
X611960D01*
Y786158D01*
X608037D01*
Y785668D01*
X603624D01*
Y785178D01*
X601172D01*
Y784687D01*
X599211D01*
Y784197D01*
X596759D01*
Y783706D01*
X594798D01*
Y783216D01*
X593326D01*
Y782726D01*
X590875D01*
Y782235D01*
X588913D01*
Y781745D01*
X586461D01*
Y781255D01*
X585971D01*
Y781745D01*
X585481D01*
Y781255D01*
X583519D01*
Y780764D01*
X582048D01*
Y780274D01*
X580087D01*
Y779783D01*
X578615D01*
Y779293D01*
X577145D01*
Y778803D01*
X575673D01*
Y778312D01*
X574202D01*
Y777822D01*
X572731D01*
Y777332D01*
X570770D01*
Y776841D01*
X569299D01*
Y776351D01*
X567828D01*
Y775861D01*
X566357D01*
Y775370D01*
X564885D01*
Y774880D01*
X563905D01*
Y774389D01*
X562434D01*
Y773899D01*
X560962D01*
Y773409D01*
X559492D01*
Y772918D01*
X558020D01*
Y772428D01*
X557040D01*
Y771938D01*
X555569D01*
Y771447D01*
X554098D01*
Y770957D01*
X552626D01*
Y770467D01*
X551646D01*
Y769976D01*
X551155D01*
Y769486D01*
X549684D01*
Y768996D01*
X548213D01*
Y768505D01*
X546742D01*
Y768015D01*
X546252D01*
Y768505D01*
X545761D01*
Y768015D01*
X544290D01*
Y767524D01*
X543800D01*
Y767034D01*
X542819D01*
Y766544D01*
X542329D01*
Y766053D01*
X540858D01*
Y765563D01*
X540367D01*
Y765073D01*
X539387D01*
Y764582D01*
X538896D01*
Y764092D01*
X538406D01*
Y764582D01*
X537916D01*
Y764092D01*
X537425D01*
Y763602D01*
X536935D01*
Y763111D01*
X535464D01*
Y762621D01*
X534973D01*
Y762131D01*
X534483D01*
Y761640D01*
X533993D01*
Y761150D01*
X533012D01*
Y760659D01*
X532522D01*
Y760169D01*
X531541D01*
Y759188D01*
X530070D01*
Y758698D01*
X529579D01*
Y758208D01*
X531050D01*
Y758698D01*
X532031D01*
Y759188D01*
X533012D01*
Y759679D01*
X533993D01*
Y760169D01*
X535464D01*
Y760659D01*
X536445D01*
Y761150D01*
X537425D01*
Y761640D01*
X537916D01*
Y762131D01*
X538896D01*
Y762621D01*
X539877D01*
Y763111D01*
X540858D01*
Y763602D01*
X541838D01*
Y764092D01*
X542819D01*
Y764582D01*
X544290D01*
Y765073D01*
X545271D01*
Y765563D01*
X546252D01*
Y766053D01*
X547232D01*
Y766544D01*
X548213D01*
Y767034D01*
X550175D01*
Y767524D01*
X551155D01*
Y768015D01*
X552626D01*
Y768505D01*
X553117D01*
Y768015D01*
X553607D01*
Y768505D01*
X554588D01*
Y768996D01*
X556059D01*
Y769486D01*
X557040D01*
Y769976D01*
X558511D01*
Y770467D01*
X560472D01*
Y770957D01*
X560962D01*
Y771447D01*
X562434D01*
Y771938D01*
X564395D01*
Y772428D01*
X566847D01*
Y772918D01*
X568318D01*
Y773409D01*
X569789D01*
Y773899D01*
X571750D01*
Y774389D01*
X573222D01*
Y774880D01*
X575673D01*
Y775370D01*
X577635D01*
Y775861D01*
X579106D01*
Y776351D01*
X581067D01*
Y776841D01*
X583519D01*
Y777332D01*
X584500D01*
Y776841D01*
X584990D01*
Y777332D01*
X585971D01*
Y777822D01*
X588913D01*
Y778312D01*
X590384D01*
Y778803D01*
X591855D01*
Y779293D01*
X593817D01*
Y778803D01*
X594307D01*
Y777332D01*
X593817D01*
Y776841D01*
X593326D01*
Y776351D01*
X592836D01*
Y775861D01*
X592346D01*
Y775370D01*
X591855D01*
Y774880D01*
X591365D01*
Y774389D01*
X590875D01*
Y773899D01*
X590384D01*
Y773409D01*
X589894D01*
Y772918D01*
X589403D01*
Y772428D01*
X588913D01*
Y771938D01*
X588423D01*
Y771447D01*
X587932D01*
Y770957D01*
X587442D01*
Y770467D01*
X586952D01*
Y769486D01*
X586461D01*
Y768996D01*
X585971D01*
Y768505D01*
X585481D01*
Y768015D01*
X584990D01*
Y767524D01*
X584500D01*
Y766544D01*
X584010D01*
Y765563D01*
X583519D01*
Y765073D01*
X583029D01*
Y764582D01*
X582538D01*
Y763602D01*
X582048D01*
Y763111D01*
X581558D01*
Y762621D01*
X581067D01*
Y761640D01*
X580577D01*
Y761150D01*
X580087D01*
Y760659D01*
X579596D01*
Y759679D01*
X579106D01*
Y759188D01*
X578615D01*
Y758208D01*
X578125D01*
Y757227D01*
X577635D01*
Y756246D01*
X577145D01*
Y755756D01*
X576654D01*
Y755266D01*
X576164D01*
Y754285D01*
X575673D01*
Y753304D01*
X575183D01*
Y752814D01*
X574693D01*
Y751833D01*
X574202D01*
Y751343D01*
X573712D01*
Y750362D01*
X573222D01*
Y749381D01*
X572731D01*
Y748400D01*
X572241D01*
Y747420D01*
X571750D01*
Y746439D01*
X571260D01*
Y745949D01*
X570770D01*
Y744968D01*
X570279D01*
Y743987D01*
X569789D01*
Y743497D01*
X569299D01*
Y741535D01*
X568808D01*
Y740555D01*
X568318D01*
Y739574D01*
X567828D01*
Y738593D01*
X567337D01*
Y737613D01*
X566847D01*
Y736141D01*
X566357D01*
Y735161D01*
X565866D01*
Y734670D01*
X565376D01*
Y733199D01*
X564885D01*
Y731238D01*
X564395D01*
Y728786D01*
X563905D01*
Y727315D01*
X563414D01*
Y725353D01*
X562924D01*
Y723882D01*
X562434D01*
Y720940D01*
X561943D01*
Y717998D01*
X561453D01*
Y716037D01*
X560962D01*
Y715056D01*
X560472D01*
Y712114D01*
X559001D01*
Y711623D01*
X557530D01*
Y711133D01*
X556059D01*
Y710643D01*
X554588D01*
Y710152D01*
X552136D01*
Y709662D01*
X550665D01*
Y709172D01*
X548703D01*
Y708681D01*
X546742D01*
Y708191D01*
X544781D01*
Y707700D01*
X542329D01*
Y707210D01*
X540858D01*
Y706720D01*
X538406D01*
Y706229D01*
X537916D01*
Y706720D01*
X537425D01*
Y706229D01*
X535464D01*
Y705739D01*
X533993D01*
Y705249D01*
X532031D01*
Y704758D01*
X530560D01*
Y704268D01*
X529089D01*
Y703777D01*
X527618D01*
Y703287D01*
X526147D01*
Y702797D01*
X525166D01*
Y702307D01*
X523695D01*
Y701816D01*
X521243D01*
Y701326D01*
X519772D01*
Y700835D01*
X518301D01*
Y700345D01*
X516830D01*
Y699855D01*
X515849D01*
Y699364D01*
X514869D01*
Y698874D01*
X513397D01*
Y698384D01*
X511926D01*
Y697893D01*
X510946D01*
Y697403D01*
X510455D01*
Y697893D01*
X509965D01*
Y697403D01*
X508984D01*
Y696913D01*
X508004D01*
Y696422D01*
X507023D01*
Y695932D01*
X505552D01*
Y695441D01*
X504571D01*
Y694951D01*
X503590D01*
Y694461D01*
X502610D01*
Y693970D01*
X501138D01*
Y693480D01*
X500648D01*
Y692990D01*
X500158D01*
Y693480D01*
X499667D01*
Y692990D01*
X498687D01*
Y692499D01*
X497706D01*
Y692009D01*
X496725D01*
Y691518D01*
X496235D01*
Y691028D01*
X494764D01*
Y690538D01*
X494273D01*
Y690047D01*
X493293D01*
Y689557D01*
X492312D01*
Y689067D01*
X491331D01*
Y688576D01*
X490841D01*
Y688086D01*
X489370D01*
Y687596D01*
X488880D01*
Y687105D01*
X487899D01*
Y686615D01*
X486918D01*
Y686124D01*
X485937D01*
Y685634D01*
X484957D01*
Y685144D01*
X484466D01*
Y684653D01*
X483485D01*
Y684163D01*
X482505D01*
Y683673D01*
X481524D01*
Y683182D01*
X481034D01*
Y682692D01*
X480053D01*
Y682202D01*
X479072D01*
Y681711D01*
X478092D01*
Y681221D01*
X477601D01*
Y680731D01*
X477111D01*
Y680240D01*
X476130D01*
Y679750D01*
X474659D01*
Y679259D01*
X473678D01*
Y678769D01*
X472697D01*
Y677788D01*
X471227D01*
Y677298D01*
X470736D01*
Y676808D01*
X469265D01*
Y676317D01*
X468775D01*
Y675827D01*
X467794D01*
Y675337D01*
X466813D01*
Y674846D01*
X466323D01*
Y674356D01*
X465832D01*
Y671904D01*
X465342D01*
Y667981D01*
X465832D01*
Y666020D01*
X466323D01*
Y664549D01*
X466813D01*
Y662587D01*
X467304D01*
Y661607D01*
X467794D01*
Y661116D01*
X468775D01*
Y660626D01*
X469265D01*
Y660135D01*
X469755D01*
Y659645D01*
X470246D01*
Y659155D01*
X470736D01*
Y658664D01*
X471227D01*
Y658174D01*
X471717D01*
Y657684D01*
X472207D01*
Y658174D01*
X472697D01*
Y657684D01*
X474169D01*
Y657193D01*
X474659D01*
Y656703D01*
X475640D01*
Y656212D01*
X477111D01*
Y655722D01*
X478092D01*
Y655232D01*
X478582D01*
Y654741D01*
X481034D01*
Y654251D01*
X481524D01*
Y653761D01*
X483976D01*
Y653270D01*
X484957D01*
Y653761D01*
X485447D01*
Y653270D01*
X486918D01*
Y652780D01*
X488880D01*
Y652290D01*
X489860D01*
Y651799D01*
X492312D01*
Y651309D01*
X493783D01*
Y650818D01*
X495745D01*
Y650328D01*
X498196D01*
Y649838D01*
X500158D01*
Y649348D01*
X503100D01*
Y648857D01*
X503590D01*
Y649348D01*
X504081D01*
Y648857D01*
X506533D01*
Y648367D01*
X508004D01*
Y647876D01*
X510946D01*
Y647386D01*
X515359D01*
Y646896D01*
X517320D01*
Y646405D01*
X520753D01*
Y645915D01*
X523695D01*
Y645425D01*
X528599D01*
Y644934D01*
X533012D01*
Y644444D01*
X534483D01*
Y644934D01*
X534973D01*
Y644444D01*
X554098D01*
Y643953D01*
X566847D01*
Y644444D01*
X568318D01*
Y648367D01*
X545271D01*
Y648857D01*
X532522D01*
Y649348D01*
X532031D01*
Y648857D01*
X531050D01*
Y649348D01*
X529579D01*
Y648857D01*
X529089D01*
Y649348D01*
X525166D01*
Y649838D01*
X521734D01*
Y650328D01*
X518792D01*
Y650818D01*
X515849D01*
Y651309D01*
X511926D01*
Y651799D01*
X509965D01*
Y652290D01*
X506533D01*
Y652780D01*
X504571D01*
Y653270D01*
X502610D01*
Y653761D01*
X501629D01*
Y653270D01*
X501138D01*
Y653761D01*
X499667D01*
Y654251D01*
X498196D01*
Y654741D01*
X496725D01*
Y655232D01*
X495254D01*
Y655722D01*
X493783D01*
Y656212D01*
X493293D01*
Y656703D01*
X492802D01*
Y657193D01*
X491822D01*
Y657684D01*
X490841D01*
Y658174D01*
X490350D01*
Y658664D01*
X489860D01*
Y659155D01*
X489370D01*
Y660135D01*
X489860D01*
Y660626D01*
X489370D01*
Y661607D01*
X489860D01*
Y662097D01*
X490350D01*
Y663078D01*
X490841D01*
Y663568D01*
X491822D01*
Y664058D01*
X492312D01*
Y664549D01*
X493293D01*
Y665039D01*
X493783D01*
Y665529D01*
X494764D01*
Y666020D01*
X495254D01*
Y666510D01*
X497216D01*
Y667001D01*
X498687D01*
Y667491D01*
X499177D01*
Y667981D01*
X500158D01*
Y668472D01*
X501629D01*
Y668962D01*
X502610D01*
Y669452D01*
X503590D01*
Y669943D01*
X504571D01*
Y670433D01*
X506042D01*
Y670923D01*
X507023D01*
Y671414D01*
X508494D01*
Y671904D01*
X509475D01*
Y672394D01*
X510946D01*
Y672885D01*
X511926D01*
Y673375D01*
X512417D01*
Y673866D01*
X513397D01*
Y674356D01*
X514869D01*
Y674846D01*
X515849D01*
Y675337D01*
X517811D01*
Y675827D01*
X518792D01*
Y676317D01*
X520263D01*
Y676808D01*
X521734D01*
Y677298D01*
X522714D01*
Y677788D01*
X524676D01*
Y678279D01*
X525657D01*
Y678769D01*
X527618D01*
Y679259D01*
X528599D01*
Y679750D01*
X530070D01*
Y680240D01*
X532031D01*
Y680731D01*
X533993D01*
Y681221D01*
X534973D01*
Y681711D01*
X536445D01*
Y682202D01*
X538406D01*
Y682692D01*
X539387D01*
Y683182D01*
X541348D01*
Y683673D01*
X543800D01*
Y684163D01*
X546252D01*
Y684653D01*
X547723D01*
Y684163D01*
X548213D01*
Y684653D01*
X550175D01*
Y685144D01*
X551646D01*
Y685634D01*
X554588D01*
Y686124D01*
X558020D01*
Y686615D01*
X560472D01*
Y687105D01*
X562924D01*
Y687596D01*
X565376D01*
Y688086D01*
X566847D01*
Y688576D01*
X569789D01*
Y689067D01*
X570279D01*
Y688576D01*
X570770D01*
Y689067D01*
X573712D01*
Y689557D01*
X576654D01*
Y690047D01*
X578615D01*
Y690538D01*
X581558D01*
Y691028D01*
X583029D01*
Y691518D01*
X586461D01*
Y692009D01*
X589894D01*
Y692499D01*
X597740D01*
Y692990D01*
X603624D01*
Y693480D01*
X616864D01*
Y693970D01*
X624710D01*
Y694461D01*
X629613D01*
Y694951D01*
X638930D01*
Y695441D01*
X648737D01*
Y695932D01*
X657073D01*
Y696422D01*
X671294D01*
Y696913D01*
X687476D01*
Y696422D01*
X696793D01*
Y695932D01*
X702677D01*
Y695441D01*
X708561D01*
Y694951D01*
X712484D01*
Y694461D01*
X716897D01*
Y693970D01*
X720330D01*
Y693480D01*
X723272D01*
Y692990D01*
X723762D01*
Y693480D01*
X724253D01*
Y692990D01*
X725724D01*
Y693480D01*
X726214D01*
Y692990D01*
X728666D01*
Y692499D01*
X734550D01*
Y692009D01*
X738473D01*
Y691518D01*
X741415D01*
Y691028D01*
X744848D01*
Y690538D01*
X747790D01*
Y690047D01*
X750242D01*
Y689557D01*
X753674D01*
Y689067D01*
X756617D01*
Y688576D01*
X757107D01*
Y689067D01*
X757597D01*
Y688576D01*
X759068D01*
Y688086D01*
X761520D01*
Y687596D01*
X763482D01*
Y687105D01*
X764953D01*
Y686615D01*
X766914D01*
Y686124D01*
X768385D01*
Y685634D01*
X769856D01*
Y685144D01*
X771328D01*
Y684653D01*
X772798D01*
Y684163D01*
X773289D01*
Y684653D01*
X773779D01*
Y684163D01*
X774760D01*
Y683673D01*
X775741D01*
Y683182D01*
X777212D01*
Y682692D01*
X778193D01*
Y682202D01*
X779173D01*
Y681221D01*
X780154D01*
Y680731D01*
X781135D01*
Y680240D01*
X782606D01*
Y679750D01*
X783096D01*
Y679259D01*
X783587D01*
Y678769D01*
X784077D01*
Y678279D01*
X784567D01*
Y674846D01*
X784077D01*
Y673866D01*
X783587D01*
Y673375D01*
X783096D01*
Y672885D01*
X782606D01*
Y672394D01*
X782115D01*
Y671904D01*
X781135D01*
Y671414D01*
X780644D01*
Y670923D01*
X779664D01*
Y670433D01*
X779173D01*
Y669943D01*
X778193D01*
Y669452D01*
X776721D01*
Y668962D01*
X776231D01*
Y668472D01*
X775250D01*
Y667981D01*
X773779D01*
Y667491D01*
X772798D01*
Y667001D01*
X771328D01*
Y666510D01*
X770837D01*
Y667001D01*
X770347D01*
Y666510D01*
X768876D01*
Y666020D01*
X767895D01*
Y665529D01*
X766914D01*
Y665039D01*
X764953D01*
Y664549D01*
X763482D01*
Y664058D01*
X762501D01*
Y663568D01*
X760049D01*
Y663078D01*
X758088D01*
Y662587D01*
X756126D01*
Y662097D01*
X755636D01*
Y662587D01*
X755145D01*
Y662097D01*
X753184D01*
Y661607D01*
X751223D01*
Y661116D01*
X749261D01*
Y660626D01*
X747300D01*
Y660135D01*
X745338D01*
Y659645D01*
X743377D01*
Y659155D01*
X740435D01*
Y658664D01*
X738473D01*
Y658174D01*
X736021D01*
Y657684D01*
X732099D01*
Y657193D01*
X729647D01*
Y656703D01*
X727685D01*
Y656212D01*
X724253D01*
Y655722D01*
X720820D01*
Y655232D01*
X717388D01*
Y654741D01*
X711503D01*
Y654251D01*
X707580D01*
Y653761D01*
X702187D01*
Y653270D01*
X701696D01*
Y653761D01*
X701206D01*
Y653270D01*
X700225D01*
Y653761D01*
X699735D01*
Y653270D01*
X698754D01*
Y653761D01*
X697773D01*
Y653270D01*
X692379D01*
Y652780D01*
X689928D01*
Y650818D01*
X690418D01*
Y648857D01*
X690908D01*
Y646896D01*
X691889D01*
Y647386D01*
X698264D01*
Y647876D01*
X701696D01*
Y648367D01*
X706600D01*
Y648857D01*
X709052D01*
Y649348D01*
X709542D01*
Y648857D01*
X710032D01*
Y649348D01*
X714446D01*
Y649838D01*
X718369D01*
Y650328D01*
X721801D01*
Y650818D01*
X723762D01*
Y651309D01*
X727195D01*
Y651799D01*
X729156D01*
Y652290D01*
X731608D01*
Y652780D01*
X734060D01*
Y653270D01*
X738473D01*
Y653761D01*
X740925D01*
Y654251D01*
X742396D01*
Y654741D01*
X744848D01*
Y655232D01*
X746809D01*
Y655722D01*
X749261D01*
Y656212D01*
X750242D01*
Y656703D01*
X752694D01*
Y657193D01*
X754165D01*
Y657684D01*
X757107D01*
Y658174D01*
X758578D01*
Y658664D01*
X761030D01*
Y659155D01*
X762991D01*
Y659645D01*
X764462D01*
Y660135D01*
X766914D01*
Y660626D01*
X767895D01*
Y661116D01*
X769366D01*
Y661607D01*
X770837D01*
Y662097D01*
X772308D01*
Y662587D01*
X772798D01*
Y662097D01*
X773289D01*
Y662587D01*
X775250D01*
Y663078D01*
X776721D01*
Y663568D01*
X779173D01*
Y664058D01*
X780644D01*
Y664549D01*
X781625D01*
Y665039D01*
X783096D01*
Y665529D01*
X784567D01*
Y666020D01*
X786038D01*
Y666510D01*
X786529D01*
Y667001D01*
X788490D01*
Y667491D01*
X789961D01*
Y667981D01*
X791432D01*
Y668472D01*
X792903D01*
Y668962D01*
X794374D01*
Y669452D01*
X795355D01*
Y669943D01*
X795845D01*
Y670433D01*
X796336D01*
Y670923D01*
X797807D01*
Y671414D01*
X798297D01*
Y671904D01*
X799768D01*
Y672394D01*
X800259D01*
Y672885D01*
X800749D01*
Y673375D01*
X802220D01*
Y673866D01*
X802711D01*
Y674356D01*
X803201D01*
Y674846D01*
X803691D01*
Y676317D01*
X804182D01*
Y677788D01*
X804672D01*
Y679259D01*
X805162D01*
Y682692D01*
X804672D01*
Y684653D01*
X804182D01*
Y685634D01*
X803691D01*
Y686124D01*
X803201D01*
Y686615D01*
X802711D01*
Y687105D01*
X802220D01*
Y687596D01*
X801239D01*
Y688086D01*
X800749D01*
Y688576D01*
X800259D01*
Y689067D01*
X798788D01*
Y689557D01*
X797807D01*
Y690047D01*
X797317D01*
Y690538D01*
X795845D01*
Y691028D01*
X794865D01*
Y691518D01*
X793884D01*
Y692009D01*
X792903D01*
Y692499D01*
X791923D01*
Y692990D01*
X790942D01*
Y693480D01*
X788980D01*
Y693970D01*
X788490D01*
Y694461D01*
X787509D01*
Y694951D01*
X786038D01*
Y695441D01*
X785058D01*
Y695932D01*
X784567D01*
Y696422D01*
X783587D01*
Y696913D01*
X782606D01*
Y697403D01*
X781135D01*
Y697893D01*
X780644D01*
Y697403D01*
X780154D01*
Y697893D01*
X778683D01*
Y698384D01*
X777702D01*
Y698874D01*
X776721D01*
Y699364D01*
X775741D01*
Y699855D01*
X774760D01*
Y700345D01*
X773289D01*
Y700835D01*
X772308D01*
Y701326D01*
X771328D01*
Y701816D01*
X768876D01*
Y702307D01*
X767405D01*
Y702797D01*
X765934D01*
Y703287D01*
X764462D01*
Y703777D01*
X763482D01*
Y704268D01*
X762011D01*
Y704758D01*
X760049D01*
Y705249D01*
X758578D01*
Y705739D01*
X756617D01*
Y706229D01*
X755145D01*
Y706720D01*
X754655D01*
Y706229D01*
X754165D01*
Y706720D01*
X751713D01*
Y707210D01*
X749752D01*
Y707700D01*
X747790D01*
Y708191D01*
X745829D01*
Y708681D01*
X743377D01*
Y709172D01*
X741415D01*
Y709662D01*
X739454D01*
Y710152D01*
X737002D01*
Y710643D01*
X735531D01*
Y711133D01*
X735041D01*
Y710643D01*
X734060D01*
Y711133D01*
X731118D01*
Y711623D01*
X728666D01*
Y712114D01*
X726214D01*
Y712604D01*
X723762D01*
Y713094D01*
X720820D01*
Y713585D01*
X718859D01*
Y714075D01*
X716897D01*
Y714566D01*
X714446D01*
Y715056D01*
X711013D01*
Y715546D01*
X710032D01*
Y715056D01*
X708561D01*
Y715546D01*
X706600D01*
Y716037D01*
X705619D01*
Y715546D01*
X704148D01*
Y716037D01*
X701206D01*
Y716527D01*
X693850D01*
Y717017D01*
X687966D01*
Y717508D01*
X680120D01*
Y717998D01*
X675217D01*
Y718488D01*
X665409D01*
Y718979D01*
X648737D01*
Y719469D01*
X628142D01*
Y718979D01*
X621767D01*
Y718488D01*
X611960D01*
Y717998D01*
X606566D01*
Y717508D01*
X601172D01*
Y717017D01*
X598230D01*
Y716527D01*
X594307D01*
Y717017D01*
X589403D01*
Y716527D01*
X586952D01*
Y716037D01*
X584990D01*
Y715546D01*
X584010D01*
Y716037D01*
X583519D01*
Y716527D01*
X584010D01*
Y723392D01*
X584500D01*
Y725844D01*
X584990D01*
Y728786D01*
X585481D01*
Y729767D01*
X585971D01*
Y731728D01*
X586461D01*
Y732709D01*
X586952D01*
Y733690D01*
X586461D01*
Y734180D01*
X586952D01*
Y735161D01*
X587442D01*
Y737613D01*
X587932D01*
Y739574D01*
X588423D01*
Y740064D01*
X588913D01*
Y741045D01*
X589403D01*
Y742516D01*
X589894D01*
Y743987D01*
X590384D01*
Y744968D01*
X590875D01*
Y746929D01*
X591365D01*
Y747910D01*
X591855D01*
Y749381D01*
X592346D01*
Y750362D01*
X592836D01*
Y751343D01*
X593326D01*
Y751833D01*
X593817D01*
Y752814D01*
X594307D01*
Y753304D01*
X594798D01*
Y754285D01*
X595288D01*
Y755756D01*
X595778D01*
Y756246D01*
X596269D01*
Y757227D01*
X596759D01*
Y758208D01*
X597249D01*
Y759188D01*
X597740D01*
Y759679D01*
X598230D01*
Y760659D01*
X598720D01*
Y761150D01*
X599211D01*
Y761640D01*
X599701D01*
Y762621D01*
X600191D01*
Y763111D01*
X600682D01*
Y764092D01*
X601172D01*
Y764582D01*
X601662D01*
Y765563D01*
X602153D01*
Y766053D01*
X602643D01*
Y766544D01*
X603134D01*
Y767034D01*
X603624D01*
Y767524D01*
X604114D01*
Y768505D01*
X604605D01*
Y769486D01*
X605095D01*
Y769976D01*
X605585D01*
Y770467D01*
X606076D01*
Y770957D01*
X606566D01*
Y771938D01*
X607057D01*
Y772428D01*
X607547D01*
Y772918D01*
X608037D01*
Y773409D01*
X608528D01*
Y773899D01*
X609018D01*
Y774389D01*
X609999D01*
Y774880D01*
X610489D01*
Y775370D01*
X610979D01*
Y775861D01*
X611960D01*
Y776351D01*
X612450D01*
Y776841D01*
X612941D01*
Y777332D01*
X613431D01*
Y777822D01*
X613922D01*
Y778312D01*
X614412D01*
Y778803D01*
X614902D01*
Y779293D01*
X615883D01*
Y779783D01*
X616373D01*
Y780274D01*
X616864D01*
Y780764D01*
X617354D01*
Y781255D01*
X618335D01*
Y782235D01*
X618825D01*
Y782726D01*
X622748D01*
Y783216D01*
X627161D01*
Y783706D01*
X632555D01*
Y784197D01*
X647757D01*
Y784687D01*
X655602D01*
Y784197D01*
X672274D01*
Y783706D01*
X676688D01*
Y783216D01*
X685024D01*
Y782726D01*
X692870D01*
Y782235D01*
X698264D01*
Y781745D01*
X703167D01*
Y781255D01*
X705619D01*
Y782235D01*
X704638D01*
Y781745D01*
X703658D01*
Y782235D01*
X702677D01*
Y782726D01*
X701696D01*
Y783216D01*
X700225D01*
Y783706D01*
X698754D01*
Y784197D01*
X696793D01*
Y784687D01*
X695812D01*
Y785178D01*
X695322D01*
Y785668D01*
X692870D01*
Y786158D01*
X692379D01*
Y785668D01*
X691399D01*
Y786158D01*
X688947D01*
Y786649D01*
X686985D01*
Y787139D01*
X683553D01*
Y787629D01*
X679630D01*
Y788120D01*
X677178D01*
Y788610D01*
X674726D01*
Y789100D01*
X672765D01*
Y789591D01*
X667371D01*
Y790081D01*
X661487D01*
Y790572D01*
D02*
G37*
G36*
X675217Y781745D02*
X674236D01*
Y781255D01*
X673746D01*
Y781745D01*
X673255D01*
Y781255D01*
X672765D01*
Y781745D01*
X672274D01*
Y781255D01*
X671784D01*
Y781745D01*
X641872D01*
Y781255D01*
X634026D01*
Y781745D01*
X633536D01*
Y781255D01*
X628632D01*
Y780764D01*
X622258D01*
Y780274D01*
X620787D01*
Y779783D01*
X620296D01*
Y779293D01*
X618825D01*
Y778803D01*
X618335D01*
Y778312D01*
X617844D01*
Y777822D01*
X617354D01*
Y777332D01*
X616864D01*
Y776841D01*
X615883D01*
Y776351D01*
X615393D01*
Y775861D01*
X614902D01*
Y775370D01*
X614412D01*
Y774880D01*
X613922D01*
Y774389D01*
X613431D01*
Y773899D01*
X612941D01*
Y773409D01*
X612450D01*
Y772918D01*
X611470D01*
Y772428D01*
X610979D01*
Y771938D01*
X610489D01*
Y771447D01*
X609999D01*
Y770957D01*
X609508D01*
Y770467D01*
X609018D01*
Y769976D01*
X608528D01*
Y769486D01*
X608037D01*
Y768505D01*
X607547D01*
Y768015D01*
X607057D01*
Y767524D01*
X606566D01*
Y766544D01*
X606076D01*
Y766053D01*
X605585D01*
Y765073D01*
X605095D01*
Y764582D01*
X604605D01*
Y764092D01*
X604114D01*
Y763602D01*
X603624D01*
Y763111D01*
X603134D01*
Y762131D01*
X602643D01*
Y761150D01*
X602153D01*
Y760659D01*
X601662D01*
Y760169D01*
X601172D01*
Y759679D01*
X600682D01*
Y758698D01*
X600191D01*
Y757717D01*
X599701D01*
Y757227D01*
X599211D01*
Y756246D01*
X598720D01*
Y755266D01*
X598230D01*
Y754285D01*
X597740D01*
Y753304D01*
X597249D01*
Y752323D01*
X596759D01*
Y751343D01*
X596269D01*
Y750362D01*
X595778D01*
Y749381D01*
X595288D01*
Y748400D01*
X594798D01*
Y747420D01*
X594307D01*
Y746929D01*
X593817D01*
Y745458D01*
X593326D01*
Y744477D01*
X592836D01*
Y743497D01*
X592346D01*
Y741535D01*
X591855D01*
Y740555D01*
X591365D01*
Y738593D01*
X590875D01*
Y736632D01*
X590384D01*
Y735651D01*
X589894D01*
Y733690D01*
X589403D01*
Y733199D01*
X588913D01*
Y732218D01*
X588423D01*
Y729767D01*
X587932D01*
Y727805D01*
X587442D01*
Y726334D01*
X586952D01*
Y722902D01*
X586461D01*
Y722411D01*
X586952D01*
Y721921D01*
X586461D01*
Y718488D01*
X585971D01*
Y717998D01*
X586952D01*
Y718488D01*
X591855D01*
Y718979D01*
X597249D01*
Y719469D01*
X600682D01*
Y719959D01*
X601172D01*
Y719469D01*
X601662D01*
Y719959D01*
X602153D01*
Y719469D01*
X603624D01*
Y719959D01*
X610489D01*
Y720450D01*
X620296D01*
Y720940D01*
X626671D01*
Y721431D01*
X650208D01*
Y720940D01*
X666880D01*
Y720450D01*
X677178D01*
Y719959D01*
X682082D01*
Y719469D01*
X682572D01*
Y719959D01*
X683063D01*
Y719469D01*
X684043D01*
Y719959D01*
X688947D01*
Y719469D01*
X695322D01*
Y718979D01*
X704148D01*
Y718488D01*
X707580D01*
Y717998D01*
X710032D01*
Y717508D01*
X712484D01*
Y717017D01*
X715917D01*
Y716527D01*
X718369D01*
Y716037D01*
X720330D01*
Y715546D01*
X722782D01*
Y715056D01*
X723272D01*
Y715546D01*
X724743D01*
Y715056D01*
X727195D01*
Y714566D01*
X729647D01*
Y714075D01*
X732099D01*
Y713585D01*
X735041D01*
Y713094D01*
X737002D01*
Y712604D01*
X739454D01*
Y712114D01*
X741906D01*
Y711623D01*
X744358D01*
Y711133D01*
X747300D01*
Y710643D01*
X750732D01*
Y710152D01*
X753184D01*
Y709662D01*
X754655D01*
Y709172D01*
X756126D01*
Y708681D01*
X758578D01*
Y708191D01*
X760049D01*
Y707700D01*
X761520D01*
Y707210D01*
X762501D01*
Y706720D01*
X764953D01*
Y706229D01*
X767895D01*
Y705739D01*
X768385D01*
Y705249D01*
X769366D01*
Y704758D01*
X771328D01*
Y704268D01*
X772798D01*
Y703777D01*
X773289D01*
Y703287D01*
X774270D01*
Y702797D01*
X776231D01*
Y702307D01*
X777212D01*
Y701816D01*
X779173D01*
Y701326D01*
X780644D01*
Y700835D01*
X782115D01*
Y700345D01*
X783096D01*
Y699855D01*
X784567D01*
Y699364D01*
X785058D01*
Y698874D01*
X785548D01*
Y698384D01*
X786529D01*
Y697893D01*
X788000D01*
Y697403D01*
X788980D01*
Y696913D01*
X789471D01*
Y696422D01*
X790452D01*
Y695932D01*
X792413D01*
Y695441D01*
X792903D01*
Y694951D01*
X793884D01*
Y694461D01*
X795355D01*
Y693480D01*
X797317D01*
Y692990D01*
X798297D01*
Y692499D01*
X798788D01*
Y692009D01*
X799768D01*
Y691518D01*
X800749D01*
Y691028D01*
X801730D01*
Y690538D01*
X802220D01*
Y690047D01*
X803201D01*
Y691518D01*
X802711D01*
Y692990D01*
X802220D01*
Y694951D01*
X801730D01*
Y696422D01*
X801239D01*
Y697403D01*
X800749D01*
Y698874D01*
X800259D01*
Y699364D01*
X799768D01*
Y700835D01*
X799278D01*
Y701326D01*
X798788D01*
Y702797D01*
X798297D01*
Y704268D01*
X797807D01*
Y704758D01*
X797317D01*
Y706229D01*
X796336D01*
Y707700D01*
X795845D01*
Y709172D01*
X795355D01*
Y709662D01*
X794865D01*
Y710643D01*
X794374D01*
Y712114D01*
X793884D01*
Y713094D01*
X793394D01*
Y714075D01*
X792903D01*
Y714566D01*
X792413D01*
Y715056D01*
X791923D01*
Y716037D01*
X791432D01*
Y716527D01*
X790942D01*
Y717508D01*
X790452D01*
Y717998D01*
X789961D01*
Y719469D01*
X789471D01*
Y719959D01*
X788980D01*
Y720450D01*
X788490D01*
Y721921D01*
X788000D01*
Y722411D01*
X787509D01*
Y722902D01*
X787019D01*
Y723392D01*
X786529D01*
Y723882D01*
X786038D01*
Y724863D01*
X785548D01*
Y725353D01*
X785058D01*
Y725844D01*
X784567D01*
Y726334D01*
X784077D01*
Y726824D01*
X783587D01*
Y727805D01*
X783096D01*
Y728296D01*
X782606D01*
Y729276D01*
X781625D01*
Y730257D01*
X781135D01*
Y730747D01*
X780644D01*
Y731238D01*
X780154D01*
Y731728D01*
X779664D01*
Y732218D01*
X779173D01*
Y733199D01*
X778683D01*
Y734180D01*
X777702D01*
Y734670D01*
X777212D01*
Y735161D01*
X776721D01*
Y735651D01*
X776231D01*
Y736141D01*
X775741D01*
Y736632D01*
X775250D01*
Y737122D01*
X774760D01*
Y737613D01*
X774270D01*
Y738103D01*
X773779D01*
Y738593D01*
X773289D01*
Y739083D01*
X772798D01*
Y739574D01*
X772308D01*
Y740555D01*
X771818D01*
Y741045D01*
X771328D01*
Y742026D01*
X770837D01*
Y742516D01*
X769856D01*
Y743006D01*
X769366D01*
Y743497D01*
X768876D01*
Y743987D01*
X768385D01*
Y744477D01*
X767895D01*
Y744968D01*
X767405D01*
Y745458D01*
X766914D01*
Y745949D01*
X766424D01*
Y746439D01*
X765934D01*
Y746929D01*
X765443D01*
Y747420D01*
X764953D01*
Y747910D01*
X764462D01*
Y748400D01*
X763972D01*
Y748891D01*
X763482D01*
Y749381D01*
X762991D01*
Y749872D01*
X762501D01*
Y750362D01*
X761520D01*
Y750852D01*
X761030D01*
Y751343D01*
X760539D01*
Y751833D01*
X759559D01*
Y752323D01*
X759068D01*
Y752814D01*
X758578D01*
Y753304D01*
X758088D01*
Y753794D01*
X757107D01*
Y754285D01*
X756617D01*
Y754775D01*
X755636D01*
Y755266D01*
X755145D01*
Y755756D01*
X754655D01*
Y756246D01*
X754165D01*
Y756737D01*
X753184D01*
Y757227D01*
X752203D01*
Y757717D01*
X751713D01*
Y758208D01*
X751223D01*
Y758698D01*
X750732D01*
Y759188D01*
X749752D01*
Y759679D01*
X749261D01*
Y760169D01*
X748280D01*
Y760659D01*
X747790D01*
Y761150D01*
X746809D01*
Y761640D01*
X745829D01*
Y762131D01*
X745338D01*
Y762621D01*
X744848D01*
Y763111D01*
X744358D01*
Y763602D01*
X743377D01*
Y764092D01*
X742396D01*
Y764582D01*
X740925D01*
Y765073D01*
X740435D01*
Y765563D01*
X738964D01*
Y766053D01*
X738473D01*
Y766544D01*
X737493D01*
Y767034D01*
X737002D01*
Y767524D01*
X736021D01*
Y768015D01*
X734550D01*
Y768505D01*
X733570D01*
Y768996D01*
X732589D01*
Y769486D01*
X732099D01*
Y769976D01*
X731118D01*
Y770467D01*
X730628D01*
Y770957D01*
X729647D01*
Y771447D01*
X728176D01*
Y771938D01*
X727685D01*
Y772428D01*
X727195D01*
Y772918D01*
X725724D01*
Y773409D01*
X724743D01*
Y773899D01*
X724253D01*
Y774389D01*
X723762D01*
Y774880D01*
X722782D01*
Y775370D01*
X721801D01*
Y775861D01*
X720820D01*
Y776351D01*
X719349D01*
Y776841D01*
X716897D01*
Y777332D01*
X716407D01*
Y776841D01*
X715917D01*
Y777332D01*
X713465D01*
Y777822D01*
X711013D01*
Y778312D01*
X708561D01*
Y778803D01*
X705619D01*
Y779293D01*
X701206D01*
Y779783D01*
X696793D01*
Y780274D01*
X691399D01*
Y780764D01*
X683553D01*
Y781255D01*
X675217D01*
Y781745D01*
D02*
G37*
G36*
X589403Y775861D02*
X587442D01*
Y775370D01*
X586461D01*
Y774880D01*
X584500D01*
Y774389D01*
X582048D01*
Y773899D01*
X580577D01*
Y773409D01*
X578615D01*
Y772918D01*
X576654D01*
Y772428D01*
X575673D01*
Y772918D01*
X575183D01*
Y772428D01*
X573222D01*
Y771938D01*
X571260D01*
Y771447D01*
X569789D01*
Y770957D01*
X568318D01*
Y770467D01*
X566847D01*
Y769976D01*
X565376D01*
Y769486D01*
X563414D01*
Y768996D01*
X562434D01*
Y768505D01*
X561453D01*
Y768015D01*
X558511D01*
Y767524D01*
X557530D01*
Y767034D01*
X556059D01*
Y766544D01*
X555078D01*
Y766053D01*
X553607D01*
Y765563D01*
X552136D01*
Y765073D01*
X551155D01*
Y764582D01*
X550175D01*
Y764092D01*
X549194D01*
Y763602D01*
X548703D01*
Y764092D01*
X548213D01*
Y763602D01*
X547232D01*
Y763111D01*
X546252D01*
Y762621D01*
X544781D01*
Y762131D01*
X543800D01*
Y761640D01*
X542819D01*
Y761150D01*
X541838D01*
Y760659D01*
X541348D01*
Y760169D01*
X540367D01*
Y759679D01*
X539387D01*
Y759188D01*
X537425D01*
Y758698D01*
X536445D01*
Y758208D01*
X535464D01*
Y757717D01*
X534483D01*
Y757227D01*
X533993D01*
Y756737D01*
X533012D01*
Y756246D01*
X532522D01*
Y755756D01*
X532031D01*
Y755266D01*
X530560D01*
Y754775D01*
X529579D01*
Y754285D01*
X528599D01*
Y753794D01*
X528108D01*
Y753304D01*
X527128D01*
Y752814D01*
X526637D01*
Y752323D01*
X525657D01*
Y751833D01*
X524676D01*
Y751343D01*
X523695D01*
Y750852D01*
X522714D01*
Y750362D01*
X521734D01*
Y749872D01*
X521243D01*
Y749381D01*
X520753D01*
Y748891D01*
X519772D01*
Y748400D01*
X518792D01*
Y747910D01*
X518301D01*
Y747420D01*
X517320D01*
Y746929D01*
X516340D01*
Y746439D01*
X515359D01*
Y745949D01*
X514378D01*
Y745458D01*
X513397D01*
Y744968D01*
X512907D01*
Y744477D01*
X512417D01*
Y743987D01*
X511926D01*
Y743497D01*
X510946D01*
Y743006D01*
X510455D01*
Y742516D01*
X509475D01*
Y742026D01*
X508494D01*
Y741535D01*
X508004D01*
Y741045D01*
X507023D01*
Y740555D01*
X506533D01*
Y740064D01*
X506042D01*
Y739574D01*
X505552D01*
Y739083D01*
X505061D01*
Y738593D01*
X504571D01*
Y738103D01*
X503590D01*
Y737122D01*
X503100D01*
Y736632D01*
X502610D01*
Y736141D01*
X502119D01*
Y735651D01*
X501629D01*
Y735161D01*
X501138D01*
Y734670D01*
X500648D01*
Y734180D01*
X500158D01*
Y733690D01*
X499177D01*
Y733199D01*
X498687D01*
Y732709D01*
X498196D01*
Y732218D01*
X497706D01*
Y731728D01*
X497216D01*
Y731238D01*
X496725D01*
Y730747D01*
X496235D01*
Y730257D01*
X495745D01*
Y729767D01*
X495254D01*
Y729276D01*
X494764D01*
Y728786D01*
X494273D01*
Y727315D01*
X493783D01*
Y726824D01*
X493293D01*
Y726334D01*
X492802D01*
Y725844D01*
X492312D01*
Y725353D01*
X491822D01*
Y724863D01*
X491331D01*
Y724373D01*
X490841D01*
Y723882D01*
X490350D01*
Y723392D01*
X489860D01*
Y722902D01*
X489370D01*
Y722411D01*
X488880D01*
Y720940D01*
X488389D01*
Y720450D01*
X487899D01*
Y719959D01*
X487408D01*
Y719469D01*
X486918D01*
Y718979D01*
X486428D01*
Y718488D01*
X485937D01*
Y717508D01*
X485447D01*
Y717017D01*
X484957D01*
Y716527D01*
X484466D01*
Y716037D01*
X483976D01*
Y714566D01*
X483485D01*
Y714075D01*
X482995D01*
Y713585D01*
X482505D01*
Y712114D01*
X482014D01*
Y711623D01*
X481524D01*
Y711133D01*
X481034D01*
Y710643D01*
X480543D01*
Y710152D01*
X481034D01*
Y709662D01*
X480543D01*
Y709172D01*
X480053D01*
Y708681D01*
X479563D01*
Y707210D01*
X479072D01*
Y706720D01*
X478582D01*
Y706229D01*
X478092D01*
Y705249D01*
X477601D01*
Y704758D01*
X477111D01*
Y703287D01*
X476620D01*
Y702797D01*
X476130D01*
Y701326D01*
X475640D01*
Y700835D01*
X475149D01*
Y700345D01*
X474659D01*
Y698874D01*
X474169D01*
Y698384D01*
X473678D01*
Y696913D01*
X473188D01*
Y696422D01*
X472697D01*
Y695441D01*
X472207D01*
Y693970D01*
X471717D01*
Y692499D01*
X471227D01*
Y691028D01*
X470736D01*
Y690538D01*
X470246D01*
Y689067D01*
X469755D01*
Y687596D01*
X469265D01*
Y686124D01*
X468775D01*
Y685144D01*
X468284D01*
Y682692D01*
X467794D01*
Y681221D01*
X467304D01*
Y679750D01*
X466813D01*
Y678279D01*
X467794D01*
Y678769D01*
X468775D01*
Y679259D01*
X469265D01*
Y679750D01*
X470246D01*
Y680240D01*
X471227D01*
Y680731D01*
X472207D01*
Y681221D01*
X473188D01*
Y681711D01*
X474169D01*
Y682202D01*
X475149D01*
Y682692D01*
X476130D01*
Y683182D01*
X476620D01*
Y683673D01*
X477601D01*
Y684163D01*
X478092D01*
Y684653D01*
X479072D01*
Y685144D01*
X480053D01*
Y685634D01*
X481034D01*
Y686124D01*
X481524D01*
Y686615D01*
X482505D01*
Y687105D01*
X483485D01*
Y687596D01*
X483976D01*
Y688086D01*
X484957D01*
Y688576D01*
X485937D01*
Y689067D01*
X487408D01*
Y689557D01*
X487899D01*
Y690047D01*
X489370D01*
Y691028D01*
X490350D01*
Y691518D01*
X491331D01*
Y692009D01*
X492312D01*
Y692499D01*
X493293D01*
Y692990D01*
X493783D01*
Y693480D01*
X494273D01*
Y692990D01*
X494764D01*
Y693480D01*
X495254D01*
Y693970D01*
X496235D01*
Y694461D01*
X497216D01*
Y694951D01*
X498196D01*
Y695441D01*
X499177D01*
Y695932D01*
X500158D01*
Y696422D01*
X501629D01*
Y696913D01*
X502610D01*
Y697403D01*
X503590D01*
Y697893D01*
X505552D01*
Y698384D01*
X506042D01*
Y698874D01*
X507023D01*
Y699364D01*
X508494D01*
Y699855D01*
X509965D01*
Y700345D01*
X510946D01*
Y700835D01*
X512417D01*
Y701326D01*
X513888D01*
Y701816D01*
X514378D01*
Y702307D01*
X514869D01*
Y701816D01*
X515359D01*
Y702307D01*
X516830D01*
Y702797D01*
X518301D01*
Y703287D01*
X519772D01*
Y703777D01*
X521243D01*
Y704268D01*
X522714D01*
Y704758D01*
X524185D01*
Y705249D01*
X525166D01*
Y705739D01*
X526147D01*
Y706229D01*
X528108D01*
Y706720D01*
X528599D01*
Y706229D01*
X529089D01*
Y706720D01*
X530560D01*
Y707210D01*
X532522D01*
Y707700D01*
X533993D01*
Y708191D01*
X535954D01*
Y708681D01*
X537425D01*
Y709172D01*
X539387D01*
Y709662D01*
X541348D01*
Y710152D01*
X543800D01*
Y710643D01*
X545271D01*
Y711133D01*
X545761D01*
Y710643D01*
X546252D01*
Y711133D01*
X546742D01*
Y710643D01*
X547232D01*
Y711133D01*
X549194D01*
Y711623D01*
X550665D01*
Y712114D01*
X553117D01*
Y712604D01*
X555078D01*
Y713094D01*
X557040D01*
Y713585D01*
X559001D01*
Y714075D01*
X559492D01*
Y717998D01*
X559982D01*
Y722902D01*
X560472D01*
Y723882D01*
X559982D01*
Y724863D01*
X560472D01*
Y726824D01*
X560962D01*
Y728296D01*
X561453D01*
Y730747D01*
X561943D01*
Y732218D01*
X562434D01*
Y733199D01*
X562924D01*
Y735161D01*
X563414D01*
Y736632D01*
X563905D01*
Y738103D01*
X564395D01*
Y739083D01*
X564885D01*
Y740555D01*
X565376D01*
Y741045D01*
X565866D01*
Y742516D01*
X566357D01*
Y743497D01*
X566847D01*
Y744477D01*
X567337D01*
Y745458D01*
X567828D01*
Y746439D01*
X568318D01*
Y747420D01*
X568808D01*
Y748400D01*
X569299D01*
Y749381D01*
X569789D01*
Y749872D01*
X570279D01*
Y750852D01*
X570770D01*
Y751833D01*
X571260D01*
Y752814D01*
X571750D01*
Y753794D01*
X572241D01*
Y754775D01*
X572731D01*
Y755756D01*
X573222D01*
Y756246D01*
X573712D01*
Y757227D01*
X574202D01*
Y757717D01*
X574693D01*
Y758698D01*
X575183D01*
Y759188D01*
X575673D01*
Y759679D01*
X576164D01*
Y760169D01*
X576654D01*
Y760659D01*
X577145D01*
Y761150D01*
X577635D01*
Y762131D01*
X578125D01*
Y762621D01*
X578615D01*
Y763602D01*
X579106D01*
Y764092D01*
X579596D01*
Y765073D01*
X580087D01*
Y766053D01*
X580577D01*
Y766544D01*
X581067D01*
Y767034D01*
X581558D01*
Y768015D01*
X582048D01*
Y768505D01*
X582538D01*
Y768996D01*
X583029D01*
Y769486D01*
X583519D01*
Y769976D01*
X584010D01*
Y770467D01*
X584500D01*
Y770957D01*
X584990D01*
Y771447D01*
X585481D01*
Y771938D01*
X585971D01*
Y772428D01*
X586461D01*
Y772918D01*
X586952D01*
Y773409D01*
X587442D01*
Y774389D01*
X587932D01*
Y774880D01*
X588913D01*
Y775370D01*
X589403D01*
Y775861D01*
D02*
G37*
G36*
X529579Y758208D02*
X529089D01*
Y757717D01*
X529579D01*
Y758208D01*
D02*
G37*
G36*
X529089Y757717D02*
X528599D01*
Y757227D01*
X529089D01*
Y757717D01*
D02*
G37*
G36*
X528108Y757227D02*
X527128D01*
Y756737D01*
X528108D01*
Y757227D01*
D02*
G37*
G36*
X527128Y756737D02*
X526637D01*
Y756246D01*
X527128D01*
Y756737D01*
D02*
G37*
G36*
X526637Y756246D02*
X526147D01*
Y755756D01*
X526637D01*
Y756246D01*
D02*
G37*
G36*
X686495Y694461D02*
X672765D01*
Y693970D01*
X658054D01*
Y693480D01*
X641872D01*
Y692990D01*
X631084D01*
Y692499D01*
X624219D01*
Y692009D01*
X617844D01*
Y691518D01*
X616864D01*
Y691028D01*
X617844D01*
Y690047D01*
X618335D01*
Y689557D01*
X618825D01*
Y688576D01*
X616864D01*
Y689067D01*
X616373D01*
Y689557D01*
X615393D01*
Y690047D01*
X614412D01*
Y690538D01*
X613431D01*
Y691028D01*
X612941D01*
Y691518D01*
X611470D01*
Y691028D01*
X605095D01*
Y690538D01*
X600191D01*
Y690047D01*
X594798D01*
Y689557D01*
X589894D01*
Y689067D01*
X584990D01*
Y688576D01*
X584500D01*
Y689067D01*
X583029D01*
Y688576D01*
X580087D01*
Y688086D01*
X578125D01*
Y687596D01*
X576164D01*
Y687105D01*
X579596D01*
Y686615D01*
X581558D01*
Y686124D01*
X582538D01*
Y685634D01*
X584010D01*
Y685144D01*
X585481D01*
Y684163D01*
X582538D01*
Y684653D01*
X582048D01*
Y684163D01*
X581558D01*
Y684653D01*
X580087D01*
Y685144D01*
X578615D01*
Y685634D01*
X575183D01*
Y686124D01*
X567828D01*
Y685634D01*
X565376D01*
Y685144D01*
X562924D01*
Y684653D01*
X560962D01*
Y684163D01*
X560472D01*
Y684653D01*
X559492D01*
Y684163D01*
X557040D01*
Y683673D01*
X554588D01*
Y683182D01*
X552136D01*
Y682692D01*
X550175D01*
Y682202D01*
X547723D01*
Y681711D01*
X546252D01*
Y681221D01*
X544290D01*
Y680731D01*
X542329D01*
Y680240D01*
X540858D01*
Y679750D01*
X538406D01*
Y679259D01*
X536445D01*
Y678769D01*
X534483D01*
Y678279D01*
X533502D01*
Y677788D01*
X531541D01*
Y677298D01*
X529089D01*
Y676808D01*
X528108D01*
Y676317D01*
X526147D01*
Y675827D01*
X525166D01*
Y675337D01*
X524676D01*
Y675827D01*
X524185D01*
Y675337D01*
X523205D01*
Y674846D01*
X521734D01*
Y674356D01*
X520753D01*
Y673866D01*
X519282D01*
Y673375D01*
X517811D01*
Y672885D01*
X516830D01*
Y672394D01*
X515849D01*
Y671904D01*
X514869D01*
Y671414D01*
X513397D01*
Y670923D01*
X511926D01*
Y670433D01*
X510946D01*
Y669943D01*
X509965D01*
Y669452D01*
X508984D01*
Y668962D01*
X508004D01*
Y668472D01*
X507023D01*
Y667981D01*
X506042D01*
Y667491D01*
X505061D01*
Y667001D01*
X503100D01*
Y666510D01*
X501629D01*
Y666020D01*
X500648D01*
Y665529D01*
X500158D01*
Y665039D01*
X499177D01*
Y664549D01*
X498687D01*
Y664058D01*
X497706D01*
Y663568D01*
X497216D01*
Y663078D01*
X496235D01*
Y662587D01*
X495745D01*
Y662097D01*
X494273D01*
Y661607D01*
X493783D01*
Y661116D01*
X493293D01*
Y660626D01*
X492802D01*
Y660135D01*
X492312D01*
Y659645D01*
X492802D01*
Y658664D01*
X493783D01*
Y658174D01*
X495745D01*
Y657684D01*
X496725D01*
Y657193D01*
X498687D01*
Y656703D01*
X500158D01*
Y656212D01*
X501629D01*
Y655722D01*
X503100D01*
Y655232D01*
X505061D01*
Y654741D01*
X507513D01*
Y654251D01*
X510455D01*
Y653761D01*
X511926D01*
Y653270D01*
X512417D01*
Y653761D01*
X513397D01*
Y653270D01*
X516340D01*
Y652780D01*
X522224D01*
Y653270D01*
X522714D01*
Y653761D01*
X523695D01*
Y654251D01*
X524185D01*
Y655232D01*
X525166D01*
Y655722D01*
X525657D01*
Y656212D01*
X526637D01*
Y656703D01*
X527618D01*
Y657193D01*
X528108D01*
Y657684D01*
X530070D01*
Y658174D01*
X531050D01*
Y658664D01*
X531541D01*
Y659155D01*
X533012D01*
Y659645D01*
X533502D01*
Y660135D01*
X534483D01*
Y660626D01*
X535464D01*
Y661116D01*
X536935D01*
Y661607D01*
X537916D01*
Y662097D01*
X540367D01*
Y662587D01*
X540858D01*
Y662097D01*
X541348D01*
Y661116D01*
X540858D01*
Y660626D01*
X538896D01*
Y660135D01*
X537916D01*
Y659645D01*
X536935D01*
Y659155D01*
X535954D01*
Y658664D01*
X534973D01*
Y658174D01*
X533993D01*
Y657684D01*
X532522D01*
Y657193D01*
X531541D01*
Y656703D01*
X530560D01*
Y656212D01*
X529579D01*
Y655722D01*
X529089D01*
Y655232D01*
X528108D01*
Y654741D01*
X527128D01*
Y654251D01*
X526637D01*
Y653761D01*
X525657D01*
Y653270D01*
X525166D01*
Y652780D01*
X524185D01*
Y652290D01*
X526147D01*
Y651799D01*
X529579D01*
Y651309D01*
X534483D01*
Y650818D01*
X545271D01*
Y651799D01*
X545761D01*
Y652290D01*
X546252D01*
Y652780D01*
X546742D01*
Y653270D01*
X547232D01*
Y653761D01*
X547723D01*
Y654251D01*
X548703D01*
Y654741D01*
X549194D01*
Y655232D01*
X550175D01*
Y655722D01*
X550665D01*
Y656212D01*
X551646D01*
Y656703D01*
X552626D01*
Y657193D01*
X554098D01*
Y655722D01*
X553607D01*
Y655232D01*
X552626D01*
Y654741D01*
X551646D01*
Y654251D01*
X551155D01*
Y653761D01*
X550175D01*
Y653270D01*
X549194D01*
Y652780D01*
X548703D01*
Y652290D01*
X548213D01*
Y651799D01*
X547723D01*
Y651309D01*
X547232D01*
Y650328D01*
X568318D01*
Y650818D01*
X568808D01*
Y651309D01*
X569299D01*
Y659645D01*
X568808D01*
Y660626D01*
X568318D01*
Y661607D01*
X567337D01*
Y662097D01*
X565866D01*
Y662587D01*
X563905D01*
Y663078D01*
X561453D01*
Y663568D01*
X559982D01*
Y664058D01*
X559492D01*
Y665529D01*
X559982D01*
Y666020D01*
X562434D01*
Y665529D01*
X564885D01*
Y665039D01*
X566357D01*
Y664549D01*
X567828D01*
Y664058D01*
X568808D01*
Y663568D01*
X569789D01*
Y663078D01*
X570770D01*
Y662097D01*
X571260D01*
Y649838D01*
X570770D01*
Y646896D01*
X570279D01*
Y641502D01*
X569789D01*
Y638559D01*
X569299D01*
Y636108D01*
X568808D01*
Y635127D01*
X569299D01*
Y634637D01*
X568808D01*
Y632675D01*
X568318D01*
Y630714D01*
X567828D01*
Y628752D01*
X567337D01*
Y627281D01*
X566847D01*
Y626301D01*
X566357D01*
Y624339D01*
X565866D01*
Y623358D01*
X565376D01*
Y621397D01*
X564885D01*
Y619926D01*
X564395D01*
Y618455D01*
X563905D01*
Y616493D01*
X563414D01*
Y616003D01*
X562924D01*
Y615022D01*
X562434D01*
Y614041D01*
X561943D01*
Y613061D01*
X561453D01*
Y612570D01*
X560962D01*
Y611590D01*
X560472D01*
Y610119D01*
X559982D01*
Y608647D01*
X559492D01*
Y607667D01*
X559001D01*
Y606686D01*
X558511D01*
Y605705D01*
X558020D01*
Y604725D01*
X557530D01*
Y604234D01*
X557040D01*
Y603254D01*
X556549D01*
Y602273D01*
X556059D01*
Y600802D01*
X555569D01*
Y599821D01*
X555078D01*
Y598840D01*
X554588D01*
Y597859D01*
X554098D01*
Y597369D01*
X553607D01*
Y596389D01*
X553117D01*
Y595408D01*
X552626D01*
Y594917D01*
X552136D01*
Y593937D01*
X551646D01*
Y593446D01*
X551155D01*
Y591975D01*
X550665D01*
Y590994D01*
X550175D01*
Y590014D01*
X549684D01*
Y589523D01*
X549194D01*
Y588543D01*
X548703D01*
Y587562D01*
X548213D01*
Y587072D01*
X547723D01*
Y586091D01*
X547232D01*
Y585110D01*
X546742D01*
Y584620D01*
X546252D01*
Y583639D01*
X545761D01*
Y583149D01*
X545271D01*
Y582168D01*
X544781D01*
Y581678D01*
X544290D01*
Y581187D01*
X543800D01*
Y580206D01*
X543310D01*
Y579226D01*
X542819D01*
Y578736D01*
X542329D01*
Y577264D01*
X541838D01*
Y576774D01*
X541348D01*
Y575793D01*
X540858D01*
Y575303D01*
X540367D01*
Y574813D01*
X539877D01*
Y573832D01*
X539387D01*
Y573341D01*
X538896D01*
Y572361D01*
X538406D01*
Y571380D01*
X537916D01*
Y569909D01*
X537425D01*
Y568928D01*
X536935D01*
Y568438D01*
X536445D01*
Y567457D01*
X535954D01*
Y566967D01*
X535464D01*
Y565986D01*
X534973D01*
Y565005D01*
X534483D01*
Y563534D01*
X533993D01*
Y562553D01*
X533502D01*
Y561082D01*
X533012D01*
Y560102D01*
X532522D01*
Y559121D01*
X532031D01*
Y558140D01*
X531541D01*
Y556669D01*
X531050D01*
Y556179D01*
X530560D01*
Y554708D01*
X530070D01*
Y553237D01*
X529579D01*
Y552256D01*
X529089D01*
Y551766D01*
X529579D01*
Y550785D01*
X529089D01*
Y549804D01*
X528599D01*
Y548823D01*
X528108D01*
Y547352D01*
X527618D01*
Y545881D01*
X527128D01*
Y544410D01*
X526637D01*
Y542449D01*
X526147D01*
Y540487D01*
X525657D01*
Y538036D01*
X525166D01*
Y535093D01*
X524676D01*
Y534603D01*
X525166D01*
Y533622D01*
X524676D01*
Y519402D01*
X525166D01*
Y517931D01*
X524676D01*
Y517440D01*
X525166D01*
Y515969D01*
X526147D01*
Y515479D01*
X526637D01*
Y514989D01*
X527618D01*
Y514498D01*
X528599D01*
Y514008D01*
X529579D01*
Y513517D01*
X531050D01*
Y513027D01*
X532031D01*
Y512537D01*
X533012D01*
Y512046D01*
X533502D01*
Y512537D01*
X534483D01*
Y512046D01*
X535464D01*
Y511556D01*
X536445D01*
Y511066D01*
X537916D01*
Y510575D01*
X539387D01*
Y510085D01*
X540858D01*
Y509594D01*
X542819D01*
Y509104D01*
X543310D01*
Y508614D01*
X545271D01*
Y508124D01*
X547232D01*
Y507633D01*
X547723D01*
Y508124D01*
X548213D01*
Y507633D01*
X549684D01*
Y507143D01*
X551646D01*
Y506652D01*
X554098D01*
Y506162D01*
X556059D01*
Y505672D01*
X558020D01*
Y505181D01*
X559982D01*
Y504691D01*
X561943D01*
Y504201D01*
X563905D01*
Y503710D01*
X566357D01*
Y503220D01*
X567337D01*
Y503710D01*
X567828D01*
Y503220D01*
X570770D01*
Y502729D01*
X574202D01*
Y502239D01*
X576654D01*
Y501749D01*
X579106D01*
Y501258D01*
X582538D01*
Y500768D01*
X587932D01*
Y500278D01*
X594798D01*
Y499787D01*
X620296D01*
Y500278D01*
X629613D01*
Y500768D01*
X636968D01*
Y501258D01*
X642363D01*
Y501749D01*
X646285D01*
Y502239D01*
X649718D01*
Y502729D01*
X653150D01*
Y503220D01*
X656583D01*
Y503710D01*
X657564D01*
Y503220D01*
X658054D01*
Y503710D01*
X661487D01*
Y504201D01*
X663938D01*
Y504691D01*
X665900D01*
Y505181D01*
X669332D01*
Y505672D01*
X671294D01*
Y506162D01*
X674236D01*
Y506652D01*
X676197D01*
Y507143D01*
X677669D01*
Y507633D01*
X679630D01*
Y508124D01*
X680120D01*
Y507633D01*
X680611D01*
Y508124D01*
X682572D01*
Y508614D01*
X684533D01*
Y509104D01*
X686495D01*
Y509594D01*
X687966D01*
Y510085D01*
X689437D01*
Y510575D01*
X691399D01*
Y511066D01*
X693850D01*
Y511556D01*
X694831D01*
Y512537D01*
X694341D01*
Y513517D01*
X693850D01*
Y514498D01*
X693360D01*
Y515969D01*
X692870D01*
Y517440D01*
X692379D01*
Y517931D01*
X692870D01*
Y518421D01*
X692379D01*
Y519402D01*
X691889D01*
Y520873D01*
X691399D01*
Y522834D01*
X690908D01*
Y524796D01*
X690418D01*
Y527738D01*
X689928D01*
Y530190D01*
X689437D01*
Y532641D01*
X688947D01*
Y536074D01*
X688456D01*
Y550785D01*
X688947D01*
Y553237D01*
X689437D01*
Y555198D01*
X689928D01*
Y557650D01*
X690418D01*
Y559611D01*
X690908D01*
Y560592D01*
X688947D01*
Y561082D01*
X687966D01*
Y561573D01*
X686495D01*
Y562063D01*
X685024D01*
Y562553D01*
X684043D01*
Y563044D01*
X683063D01*
Y563534D01*
X682082D01*
Y564025D01*
X681101D01*
Y564515D01*
X680120D01*
Y565005D01*
X679140D01*
Y565496D01*
X677669D01*
Y565986D01*
X676688D01*
Y566476D01*
X676197D01*
Y566967D01*
X675217D01*
Y567457D01*
X674726D01*
Y567948D01*
X674236D01*
Y568438D01*
X673255D01*
Y568928D01*
X672765D01*
Y569419D01*
X671784D01*
Y569909D01*
X670803D01*
Y570399D01*
X669823D01*
Y570890D01*
X669332D01*
Y571380D01*
X668842D01*
Y571870D01*
X667861D01*
Y572361D01*
X667371D01*
Y572851D01*
X666880D01*
Y573832D01*
X667371D01*
Y574322D01*
X669332D01*
Y573832D01*
X670313D01*
Y573341D01*
X670803D01*
Y572851D01*
X671784D01*
Y572361D01*
X672765D01*
Y571870D01*
X673255D01*
Y571380D01*
X673746D01*
Y570890D01*
X674726D01*
Y570399D01*
X675217D01*
Y569909D01*
X676688D01*
Y569419D01*
X677178D01*
Y568928D01*
X678159D01*
Y568438D01*
X678649D01*
Y567948D01*
X679630D01*
Y567457D01*
X680611D01*
Y566967D01*
X681591D01*
Y566476D01*
X682572D01*
Y565986D01*
X683553D01*
Y565496D01*
X684533D01*
Y565005D01*
X685024D01*
Y565496D01*
X685514D01*
Y565005D01*
X686005D01*
Y564515D01*
X687476D01*
Y564025D01*
X688947D01*
Y563534D01*
X689928D01*
Y563044D01*
X690908D01*
Y562553D01*
X691399D01*
Y563044D01*
X691889D01*
Y564515D01*
X692379D01*
Y567457D01*
X692870D01*
Y568928D01*
X693360D01*
Y570890D01*
X693850D01*
Y572361D01*
X694341D01*
Y573341D01*
X694831D01*
Y574322D01*
X695322D01*
Y575303D01*
X695812D01*
Y576284D01*
X696302D01*
Y577264D01*
X696793D01*
Y577755D01*
X697283D01*
Y579226D01*
X697773D01*
Y579716D01*
X698264D01*
Y580697D01*
X698754D01*
Y581678D01*
X699244D01*
Y583149D01*
X698754D01*
Y583639D01*
X698264D01*
Y584129D01*
X697773D01*
Y584620D01*
X697283D01*
Y585110D01*
X696793D01*
Y586091D01*
X696302D01*
Y586581D01*
X695812D01*
Y587072D01*
X695322D01*
Y587562D01*
X694831D01*
Y588052D01*
X694341D01*
Y588543D01*
X693850D01*
Y589033D01*
X693360D01*
Y589523D01*
X692870D01*
Y590504D01*
X692379D01*
Y590994D01*
X691889D01*
Y591485D01*
X691399D01*
Y591975D01*
X690908D01*
Y592466D01*
X690418D01*
Y593446D01*
X689928D01*
Y593937D01*
X689437D01*
Y594427D01*
X688947D01*
Y595408D01*
X688456D01*
Y595898D01*
X687966D01*
Y596879D01*
X687476D01*
Y597369D01*
X686985D01*
Y598350D01*
X686495D01*
Y599331D01*
X686005D01*
Y599821D01*
X685514D01*
Y600802D01*
X685024D01*
Y601782D01*
X684533D01*
Y602763D01*
X684043D01*
Y603744D01*
X683553D01*
Y605215D01*
X683063D01*
Y607176D01*
X682572D01*
Y609138D01*
X682082D01*
Y609628D01*
X681591D01*
Y612080D01*
X681101D01*
Y613551D01*
X682572D01*
Y614041D01*
X683063D01*
Y613551D01*
X683553D01*
Y613061D01*
X684043D01*
Y612080D01*
X683553D01*
Y611590D01*
X684043D01*
Y610119D01*
X684533D01*
Y608647D01*
X685024D01*
Y606686D01*
X685514D01*
Y605705D01*
X686005D01*
Y604725D01*
X686495D01*
Y604234D01*
X686985D01*
Y603254D01*
X687476D01*
Y601782D01*
X687966D01*
Y600802D01*
X688456D01*
Y599821D01*
X688947D01*
Y598840D01*
X689437D01*
Y598350D01*
X689928D01*
Y597369D01*
X690418D01*
Y596879D01*
X690908D01*
Y596389D01*
X691399D01*
Y595408D01*
X691889D01*
Y594917D01*
X692379D01*
Y593937D01*
X692870D01*
Y593446D01*
X693360D01*
Y592956D01*
X693850D01*
Y592466D01*
X694341D01*
Y591975D01*
X694831D01*
Y591485D01*
X695322D01*
Y590504D01*
X696302D01*
Y589523D01*
X697283D01*
Y588543D01*
X697773D01*
Y588052D01*
X698264D01*
Y587562D01*
X698754D01*
Y587072D01*
X699244D01*
Y586581D01*
X699735D01*
Y586091D01*
X700225D01*
Y585601D01*
X701206D01*
Y586581D01*
X701696D01*
Y587562D01*
X702187D01*
Y588543D01*
X702677D01*
Y589033D01*
X703167D01*
Y590014D01*
X703658D01*
Y590504D01*
X704148D01*
Y590994D01*
X704638D01*
Y591485D01*
X705129D01*
Y591975D01*
X705619D01*
Y592956D01*
X706109D01*
Y594427D01*
X705619D01*
Y595898D01*
X705129D01*
Y597369D01*
X704638D01*
Y598350D01*
X704148D01*
Y599821D01*
X703658D01*
Y601292D01*
X703167D01*
Y602763D01*
X702677D01*
Y603744D01*
X702187D01*
Y605215D01*
X701696D01*
Y606686D01*
X701206D01*
Y608157D01*
X700715D01*
Y609138D01*
X700225D01*
Y610609D01*
X699735D01*
Y612080D01*
X699244D01*
Y613551D01*
X698754D01*
Y614532D01*
X698264D01*
Y615513D01*
X697773D01*
Y616984D01*
X697283D01*
Y617964D01*
X696793D01*
Y620416D01*
X696302D01*
Y621397D01*
X695812D01*
Y622868D01*
X695322D01*
Y623849D01*
X694831D01*
Y625320D01*
X694341D01*
Y626791D01*
X693850D01*
Y627772D01*
X693360D01*
Y629243D01*
X692870D01*
Y631204D01*
X692379D01*
Y633166D01*
X691889D01*
Y635127D01*
X691399D01*
Y636108D01*
X690908D01*
Y638069D01*
X690418D01*
Y639540D01*
X689928D01*
Y641011D01*
X689437D01*
Y643463D01*
X688947D01*
Y645915D01*
X688456D01*
Y647876D01*
X687966D01*
Y648367D01*
X688456D01*
Y648857D01*
X687966D01*
Y651799D01*
X687476D01*
Y654251D01*
X686985D01*
Y656703D01*
X686495D01*
Y658174D01*
X686005D01*
Y661116D01*
X685514D01*
Y667491D01*
X685024D01*
Y668472D01*
X685514D01*
Y668962D01*
X686005D01*
Y669452D01*
X686495D01*
Y669943D01*
X686985D01*
Y670433D01*
X687966D01*
Y670923D01*
X688947D01*
Y671414D01*
X689928D01*
Y671904D01*
X690908D01*
Y672394D01*
X691889D01*
Y672885D01*
X692870D01*
Y673375D01*
X693850D01*
Y673866D01*
X695812D01*
Y674356D01*
X697773D01*
Y674846D01*
X698754D01*
Y675337D01*
X700225D01*
Y674846D01*
X700715D01*
Y674356D01*
X701206D01*
Y673375D01*
X700715D01*
Y672885D01*
X700225D01*
Y672394D01*
X698754D01*
Y671904D01*
X696793D01*
Y671414D01*
X694831D01*
Y670923D01*
X693360D01*
Y670433D01*
X692379D01*
Y669943D01*
X691399D01*
Y669452D01*
X690418D01*
Y668962D01*
X689437D01*
Y668472D01*
X688947D01*
Y667981D01*
X687966D01*
Y660626D01*
X688456D01*
Y658174D01*
X688947D01*
Y655722D01*
X689437D01*
Y654741D01*
X690908D01*
Y655232D01*
X696302D01*
Y655722D01*
X701696D01*
Y656212D01*
X706600D01*
Y656703D01*
X710523D01*
Y657193D01*
X716407D01*
Y657684D01*
X719839D01*
Y658174D01*
X721801D01*
Y657684D01*
X722291D01*
Y658174D01*
X721801D01*
Y658664D01*
X721311D01*
Y659155D01*
X720820D01*
Y659645D01*
X719839D01*
Y660135D01*
X719349D01*
Y660626D01*
X718369D01*
Y661116D01*
X717878D01*
Y661607D01*
X717388D01*
Y662097D01*
X716407D01*
Y662587D01*
X715426D01*
Y663078D01*
X714936D01*
Y663568D01*
X713465D01*
Y664058D01*
X712484D01*
Y665529D01*
X714446D01*
Y665039D01*
X715426D01*
Y664549D01*
X716407D01*
Y664058D01*
X717388D01*
Y663568D01*
X717878D01*
Y663078D01*
X718859D01*
Y662587D01*
X719839D01*
Y662097D01*
X720330D01*
Y661607D01*
X721311D01*
Y661116D01*
X721801D01*
Y660626D01*
X722782D01*
Y660135D01*
X723272D01*
Y659645D01*
X723762D01*
Y659155D01*
X724253D01*
Y658664D01*
X724743D01*
Y658174D01*
X726214D01*
Y658664D01*
X728176D01*
Y659155D01*
X730628D01*
Y659645D01*
X732589D01*
Y660135D01*
X735041D01*
Y660626D01*
X737002D01*
Y661116D01*
X739454D01*
Y661607D01*
X742396D01*
Y662097D01*
X744358D01*
Y662587D01*
X744848D01*
Y662097D01*
X745829D01*
Y662587D01*
X747790D01*
Y663078D01*
X749752D01*
Y663568D01*
X751713D01*
Y664058D01*
X753674D01*
Y664549D01*
X755636D01*
Y665039D01*
X757107D01*
Y665529D01*
X759559D01*
Y666020D01*
X761030D01*
Y666510D01*
X760049D01*
Y667001D01*
X759559D01*
Y666510D01*
X759068D01*
Y667001D01*
X757597D01*
Y667491D01*
X756617D01*
Y667981D01*
X755145D01*
Y668472D01*
X754165D01*
Y668962D01*
X753184D01*
Y669452D01*
X751223D01*
Y669943D01*
X749752D01*
Y670433D01*
X748280D01*
Y670923D01*
X745829D01*
Y671414D01*
X745338D01*
Y670923D01*
X744848D01*
Y671414D01*
X742396D01*
Y671904D01*
X739944D01*
Y672394D01*
X737493D01*
Y672885D01*
X735041D01*
Y673375D01*
X732099D01*
Y673866D01*
X729647D01*
Y674356D01*
X726705D01*
Y674846D01*
X720330D01*
Y675827D01*
X728666D01*
Y675337D01*
X729156D01*
Y675827D01*
X730137D01*
Y675337D01*
X733570D01*
Y674846D01*
X736021D01*
Y674356D01*
X738473D01*
Y673866D01*
X740925D01*
Y673375D01*
X743377D01*
Y672885D01*
X745829D01*
Y672394D01*
X747300D01*
Y671904D01*
X749752D01*
Y671414D01*
X751713D01*
Y670923D01*
X754165D01*
Y670433D01*
X755145D01*
Y669943D01*
X756617D01*
Y669452D01*
X758088D01*
Y668962D01*
X758578D01*
Y668472D01*
X760049D01*
Y667981D01*
X761520D01*
Y667491D01*
X763482D01*
Y667001D01*
X765443D01*
Y667491D01*
X766424D01*
Y667981D01*
X767405D01*
Y668472D01*
X768876D01*
Y668962D01*
X770347D01*
Y669452D01*
X771818D01*
Y669943D01*
X772798D01*
Y670433D01*
X773779D01*
Y670923D01*
X775250D01*
Y671414D01*
X776231D01*
Y671904D01*
X777212D01*
Y672394D01*
X778193D01*
Y672885D01*
X779173D01*
Y673375D01*
X779664D01*
Y673866D01*
X780644D01*
Y674356D01*
X781135D01*
Y674846D01*
X781625D01*
Y675827D01*
X782115D01*
Y676808D01*
X781625D01*
Y677298D01*
X781135D01*
Y677788D01*
X780154D01*
Y678279D01*
X779664D01*
Y678769D01*
X778683D01*
Y679259D01*
X777702D01*
Y679750D01*
X776721D01*
Y680240D01*
X775250D01*
Y680731D01*
X773779D01*
Y681221D01*
X772798D01*
Y681711D01*
X772308D01*
Y682202D01*
X770347D01*
Y682692D01*
X768876D01*
Y683182D01*
X766914D01*
Y683673D01*
X765934D01*
Y684163D01*
X763972D01*
Y684653D01*
X763482D01*
Y684163D01*
X762501D01*
Y684653D01*
X760539D01*
Y685144D01*
X759068D01*
Y685634D01*
X756617D01*
Y686124D01*
X754655D01*
Y686615D01*
X753184D01*
Y687105D01*
X750242D01*
Y687596D01*
X747790D01*
Y688086D01*
X744848D01*
Y688576D01*
X741415D01*
Y689067D01*
X734550D01*
Y689557D01*
X731118D01*
Y690047D01*
X727685D01*
Y690538D01*
X725234D01*
Y691028D01*
X721801D01*
Y691518D01*
X718859D01*
Y692009D01*
X715426D01*
Y692499D01*
X711013D01*
Y692990D01*
X705129D01*
Y693480D01*
X704638D01*
Y692990D01*
X703658D01*
Y693480D01*
X692870D01*
Y693970D01*
X691399D01*
Y693480D01*
X689928D01*
Y692990D01*
X687476D01*
Y692499D01*
X686005D01*
Y692009D01*
X684533D01*
Y691518D01*
X684043D01*
Y691028D01*
X683063D01*
Y690538D01*
X682082D01*
Y690047D01*
X681101D01*
Y689557D01*
X680120D01*
Y689067D01*
X679140D01*
Y688576D01*
X678159D01*
Y688086D01*
X677178D01*
Y687596D01*
X676688D01*
Y687105D01*
X676197D01*
Y686615D01*
X675217D01*
Y686124D01*
X674236D01*
Y688086D01*
X675217D01*
Y688576D01*
X675707D01*
Y689067D01*
X676688D01*
Y689557D01*
X677178D01*
Y690047D01*
X678159D01*
Y690538D01*
X679140D01*
Y691028D01*
X679630D01*
Y691518D01*
X680611D01*
Y692009D01*
X681591D01*
Y692499D01*
X682572D01*
Y692990D01*
X683553D01*
Y693480D01*
X684043D01*
Y692990D01*
X684533D01*
Y693480D01*
X686005D01*
Y693970D01*
X686495D01*
Y694461D01*
D02*
G37*
G36*
X736021Y606196D02*
X734550D01*
Y605705D01*
X736021D01*
Y606196D01*
D02*
G37*
G36*
X555078Y605705D02*
X554588D01*
Y604725D01*
X555078D01*
Y605705D01*
D02*
G37*
G36*
X554588Y604234D02*
X554098D01*
Y603744D01*
X554588D01*
Y604234D01*
D02*
G37*
G36*
X469755Y615513D02*
X467794D01*
Y615022D01*
X462890D01*
Y614532D01*
X461419D01*
Y614041D01*
X457987D01*
Y613551D01*
X455535D01*
Y613061D01*
X455045D01*
Y612570D01*
X453573D01*
Y612080D01*
X452102D01*
Y611590D01*
X451612D01*
Y611099D01*
X450141D01*
Y610609D01*
X449160D01*
Y610119D01*
X448180D01*
Y609628D01*
X447199D01*
Y609138D01*
X446708D01*
Y608647D01*
X446218D01*
Y608157D01*
X445728D01*
Y607667D01*
X444257D01*
Y607176D01*
X443766D01*
Y606686D01*
X443276D01*
Y606196D01*
X442785D01*
Y605705D01*
X442295D01*
Y605215D01*
X441805D01*
Y604725D01*
X441314D01*
Y603744D01*
X440824D01*
Y603254D01*
X440334D01*
Y602763D01*
X439843D01*
Y602273D01*
X439353D01*
Y601292D01*
X438863D01*
Y600802D01*
X438372D01*
Y600311D01*
X437882D01*
Y599821D01*
X437392D01*
Y599331D01*
X436901D01*
Y598350D01*
X436411D01*
Y597859D01*
X435920D01*
Y597369D01*
X435430D01*
Y596879D01*
X434940D01*
Y596389D01*
X434449D01*
Y595408D01*
X433959D01*
Y594427D01*
X433469D01*
Y593937D01*
X432978D01*
Y593446D01*
X432488D01*
Y592956D01*
X431998D01*
Y591975D01*
X431507D01*
Y590504D01*
X431017D01*
Y590014D01*
X430527D01*
Y589033D01*
X430036D01*
Y588543D01*
X429546D01*
Y587562D01*
X429055D01*
Y586581D01*
X428565D01*
Y585601D01*
X428075D01*
Y584620D01*
X427584D01*
Y584129D01*
Y583639D01*
Y583149D01*
X427094D01*
Y581187D01*
X426604D01*
Y579716D01*
X426113D01*
Y577755D01*
X425623D01*
Y576284D01*
X425132D01*
Y574813D01*
X424642D01*
Y573341D01*
X424152D01*
Y571870D01*
X423661D01*
Y568438D01*
X423171D01*
Y567948D01*
X423661D01*
Y567457D01*
X423171D01*
Y564515D01*
X422681D01*
Y564025D01*
X423171D01*
Y563534D01*
X422681D01*
Y562063D01*
X423171D01*
Y562553D01*
X423661D01*
Y563044D01*
X425132D01*
Y563534D01*
X427094D01*
Y564025D01*
X429055D01*
Y564515D01*
X430527D01*
Y565005D01*
X431017D01*
Y568438D01*
X431507D01*
Y570890D01*
X431998D01*
Y572361D01*
X432488D01*
Y573341D01*
X432978D01*
Y575303D01*
X433469D01*
Y575793D01*
X433959D01*
Y576774D01*
X434449D01*
Y577264D01*
X434940D01*
Y578245D01*
X435430D01*
Y578736D01*
X435920D01*
Y579716D01*
X436411D01*
Y580697D01*
X436901D01*
Y581187D01*
X437392D01*
Y581678D01*
X437882D01*
Y582168D01*
X438372D01*
Y582658D01*
X438863D01*
Y583149D01*
X439353D01*
Y583639D01*
X439843D01*
Y584129D01*
X440334D01*
Y584620D01*
X441314D01*
Y585110D01*
X441805D01*
Y585601D01*
X442785D01*
Y586091D01*
X443766D01*
Y586581D01*
X444257D01*
Y587072D01*
X446218D01*
Y587562D01*
X449651D01*
Y588052D01*
X450141D01*
Y587562D01*
X451122D01*
Y587072D01*
X451612D01*
Y587562D01*
X452593D01*
Y587072D01*
X453573D01*
Y586581D01*
X454064D01*
Y586091D01*
X454554D01*
Y585601D01*
X455045D01*
Y585110D01*
X455535D01*
Y584620D01*
X456025D01*
Y584129D01*
X456516D01*
Y583639D01*
X457006D01*
Y583149D01*
X457987D01*
Y582658D01*
X458477D01*
Y582168D01*
X458967D01*
Y581678D01*
X459458D01*
Y580697D01*
X459948D01*
Y580206D01*
X460438D01*
Y579226D01*
X460929D01*
Y578736D01*
X461419D01*
Y577264D01*
X461910D01*
Y575793D01*
X462400D01*
Y573832D01*
X462890D01*
Y571380D01*
X463381D01*
Y567948D01*
X472207D01*
Y567457D01*
X478092D01*
Y566967D01*
X479563D01*
Y566476D01*
X481034D01*
Y565986D01*
X483485D01*
Y565496D01*
X485937D01*
Y565005D01*
X486428D01*
Y565496D01*
X487408D01*
Y565005D01*
X490350D01*
Y566967D01*
X490841D01*
Y568438D01*
X490350D01*
Y568928D01*
X490841D01*
Y571870D01*
X490350D01*
Y576774D01*
X489860D01*
Y579226D01*
X489370D01*
Y583639D01*
X488880D01*
Y587562D01*
X488389D01*
Y589033D01*
X487899D01*
Y590994D01*
X487408D01*
Y592956D01*
X486918D01*
Y593937D01*
X486428D01*
Y594917D01*
X485937D01*
Y596389D01*
X485447D01*
Y597369D01*
X484957D01*
Y598350D01*
X484466D01*
Y599331D01*
X483976D01*
Y600311D01*
X483485D01*
Y600802D01*
X482995D01*
Y601292D01*
X482505D01*
Y602273D01*
X482014D01*
Y602763D01*
X481524D01*
Y603744D01*
X481034D01*
Y604725D01*
X480543D01*
Y605215D01*
X480053D01*
Y606196D01*
X479563D01*
Y606686D01*
X479072D01*
Y607176D01*
X478582D01*
Y608157D01*
X478092D01*
Y608647D01*
X477601D01*
Y609138D01*
X477111D01*
Y609628D01*
X476620D01*
Y610119D01*
X476130D01*
Y610609D01*
X475640D01*
Y611099D01*
X475149D01*
Y611590D01*
X474659D01*
Y612080D01*
X474169D01*
Y612570D01*
X473678D01*
Y613061D01*
X473188D01*
Y613551D01*
X472207D01*
Y614041D01*
X471717D01*
Y614532D01*
X470246D01*
Y615022D01*
X469755D01*
Y615513D01*
D02*
G37*
G36*
X477111Y615022D02*
X474659D01*
Y614532D01*
X475149D01*
Y614041D01*
X476130D01*
Y613551D01*
X476620D01*
Y613061D01*
X477111D01*
Y612570D01*
X477601D01*
Y612080D01*
X478092D01*
Y611590D01*
X478582D01*
Y611099D01*
X479072D01*
Y610609D01*
X479563D01*
Y610119D01*
X480053D01*
Y609628D01*
X480543D01*
Y608647D01*
X481034D01*
Y608157D01*
X481524D01*
Y607176D01*
X482014D01*
Y606686D01*
X482505D01*
Y606196D01*
X482995D01*
Y605215D01*
X483485D01*
Y604725D01*
X483976D01*
Y603744D01*
X484957D01*
Y602763D01*
X485447D01*
Y601782D01*
X485937D01*
Y601292D01*
X486428D01*
Y600311D01*
X486918D01*
Y599331D01*
X487408D01*
Y597859D01*
X487899D01*
Y596879D01*
X488389D01*
Y595898D01*
X488880D01*
Y594917D01*
X489370D01*
Y593446D01*
X489860D01*
Y590994D01*
X490350D01*
Y589523D01*
X490841D01*
Y588052D01*
X491331D01*
Y584129D01*
X491822D01*
Y581678D01*
X492312D01*
Y578245D01*
X492802D01*
Y575303D01*
X493293D01*
Y562063D01*
X491331D01*
Y562553D01*
X489860D01*
Y563044D01*
X487899D01*
Y563534D01*
X485447D01*
Y564025D01*
X482995D01*
Y564515D01*
X480543D01*
Y565005D01*
X477111D01*
Y565496D01*
X472697D01*
Y565005D01*
X472207D01*
Y565496D01*
X461910D01*
Y565986D01*
X461419D01*
Y569419D01*
X460929D01*
Y570890D01*
X460438D01*
Y572851D01*
X459948D01*
Y574813D01*
X459458D01*
Y576284D01*
X458967D01*
Y577755D01*
X458477D01*
Y578736D01*
X457987D01*
Y579716D01*
X457496D01*
Y580206D01*
X457006D01*
Y580697D01*
X456516D01*
Y581187D01*
X456025D01*
Y581678D01*
X455045D01*
Y582168D01*
X454554D01*
Y583149D01*
X453573D01*
Y583639D01*
X453083D01*
Y584129D01*
X452593D01*
Y584620D01*
X451612D01*
Y585110D01*
X446708D01*
Y584620D01*
X445728D01*
Y584129D01*
X444747D01*
Y583639D01*
X444257D01*
Y583149D01*
X442785D01*
Y582658D01*
X442295D01*
Y581678D01*
X441805D01*
Y581187D01*
X441314D01*
Y580697D01*
X440824D01*
Y580206D01*
X440334D01*
Y579716D01*
X439843D01*
Y579226D01*
X439353D01*
Y578736D01*
X438863D01*
Y578245D01*
X438372D01*
Y577755D01*
X437882D01*
Y577264D01*
X437392D01*
Y576774D01*
X436901D01*
Y575793D01*
X436411D01*
Y574813D01*
X435920D01*
Y574322D01*
X435430D01*
Y572361D01*
X434940D01*
Y571380D01*
X434449D01*
Y570399D01*
X433959D01*
Y569419D01*
X433469D01*
Y567948D01*
X432978D01*
Y567457D01*
X432488D01*
Y565005D01*
X431998D01*
Y562063D01*
X431507D01*
Y561573D01*
X428075D01*
Y561082D01*
X426113D01*
Y560592D01*
X424642D01*
Y560102D01*
X423661D01*
Y559611D01*
X422681D01*
Y553237D01*
X424642D01*
Y553727D01*
X427584D01*
Y554217D01*
X431998D01*
Y553237D01*
X432488D01*
Y549314D01*
X432978D01*
Y547843D01*
X433469D01*
Y546372D01*
X433959D01*
Y544901D01*
X434449D01*
Y543920D01*
X434940D01*
Y542939D01*
X435430D01*
Y542449D01*
X435920D01*
Y541468D01*
X436411D01*
Y540487D01*
X436901D01*
Y539997D01*
X437392D01*
Y539016D01*
X437882D01*
Y538526D01*
X438372D01*
Y538036D01*
X438863D01*
Y537545D01*
X439353D01*
Y537055D01*
X440334D01*
Y536564D01*
X440824D01*
Y536074D01*
X441805D01*
Y535584D01*
X442295D01*
Y535093D01*
X443766D01*
Y534603D01*
X444747D01*
Y534113D01*
X445237D01*
Y534603D01*
X445728D01*
Y534113D01*
X447689D01*
Y534603D01*
X448180D01*
Y534113D01*
X448670D01*
Y534603D01*
X449651D01*
Y535093D01*
X450631D01*
Y535584D01*
X451612D01*
Y536074D01*
X452102D01*
Y536564D01*
X452593D01*
Y537055D01*
X453083D01*
Y537545D01*
X454064D01*
Y538036D01*
X454554D01*
Y538526D01*
X455045D01*
Y539507D01*
X455535D01*
Y539997D01*
X456025D01*
Y540978D01*
X456516D01*
Y541958D01*
X457006D01*
Y542939D01*
X457496D01*
Y543920D01*
X457987D01*
Y544410D01*
X458477D01*
Y544901D01*
X458967D01*
Y546862D01*
X459458D01*
Y548333D01*
X459948D01*
Y549804D01*
X460438D01*
Y551766D01*
X460929D01*
Y553727D01*
X461419D01*
Y554708D01*
X461910D01*
Y555689D01*
X462400D01*
Y556669D01*
X465342D01*
Y556179D01*
X466323D01*
Y556669D01*
X467304D01*
Y556179D01*
X470246D01*
Y555689D01*
X473188D01*
Y555198D01*
X475640D01*
Y554708D01*
X477601D01*
Y554217D01*
X480053D01*
Y553727D01*
X481524D01*
Y553237D01*
X483485D01*
Y552746D01*
X487408D01*
Y552256D01*
X489860D01*
Y551766D01*
X490350D01*
Y552256D01*
X491331D01*
Y551766D01*
X492312D01*
Y551275D01*
X492802D01*
Y550785D01*
X493293D01*
Y547843D01*
X492802D01*
Y544901D01*
X492312D01*
Y542449D01*
X491822D01*
Y540487D01*
X491331D01*
Y539507D01*
X490841D01*
Y538036D01*
X490350D01*
Y536564D01*
X489860D01*
Y534603D01*
X489370D01*
Y534113D01*
X489860D01*
Y533622D01*
X489370D01*
Y531170D01*
X488880D01*
Y529699D01*
X488389D01*
Y528228D01*
X487899D01*
Y526267D01*
X487408D01*
Y525776D01*
X486918D01*
Y524796D01*
X486428D01*
Y523325D01*
X485937D01*
Y521854D01*
X485447D01*
Y520873D01*
X484957D01*
Y519892D01*
X484466D01*
Y519402D01*
X483976D01*
Y518421D01*
X483485D01*
Y517440D01*
X482995D01*
Y516950D01*
X482505D01*
Y516460D01*
X482014D01*
Y515479D01*
X481524D01*
Y514498D01*
X481034D01*
Y514008D01*
X480543D01*
Y513027D01*
X480053D01*
Y512537D01*
X479072D01*
Y511556D01*
X478582D01*
Y511066D01*
X478092D01*
Y510575D01*
X477601D01*
Y510085D01*
X477111D01*
Y509594D01*
X476620D01*
Y509104D01*
X476130D01*
Y508614D01*
X475640D01*
Y508124D01*
X474659D01*
Y507633D01*
X474169D01*
Y507143D01*
X473678D01*
Y506652D01*
X473188D01*
Y506162D01*
X472697D01*
Y505672D01*
X472207D01*
Y505181D01*
X471227D01*
Y504691D01*
X470736D01*
Y504201D01*
X470246D01*
Y503710D01*
X468775D01*
Y503220D01*
X467304D01*
Y502239D01*
X466813D01*
Y501749D01*
X465832D01*
Y501258D01*
X464852D01*
Y500768D01*
X463381D01*
Y500278D01*
X461910D01*
Y499787D01*
X451612D01*
Y499297D01*
X453573D01*
Y498807D01*
X454064D01*
Y499297D01*
X457006D01*
Y498807D01*
X457496D01*
Y498316D01*
X460438D01*
Y497826D01*
X464361D01*
Y498316D01*
X468775D01*
Y498807D01*
X470246D01*
Y499297D01*
X471717D01*
Y499787D01*
X472697D01*
Y500278D01*
X474169D01*
Y500768D01*
X475149D01*
Y501258D01*
X476620D01*
Y501749D01*
X477601D01*
Y502729D01*
X478582D01*
Y503220D01*
X479072D01*
Y503710D01*
X479563D01*
Y504201D01*
X480543D01*
Y504691D01*
X481034D01*
Y505181D01*
X482014D01*
Y506652D01*
X482505D01*
Y507143D01*
X483485D01*
Y507633D01*
X483976D01*
Y508124D01*
X484957D01*
Y508614D01*
X485447D01*
Y509594D01*
X486428D01*
Y510575D01*
X486918D01*
Y511066D01*
X487408D01*
Y511556D01*
X487899D01*
Y512537D01*
X488389D01*
Y513027D01*
X488880D01*
Y514008D01*
X489370D01*
Y514989D01*
X489860D01*
Y515969D01*
X490350D01*
Y516950D01*
X490841D01*
Y517931D01*
X491331D01*
Y518911D01*
X491822D01*
Y520382D01*
X492312D01*
Y520873D01*
X492802D01*
Y522344D01*
X493293D01*
Y522834D01*
X493783D01*
Y524305D01*
X494273D01*
Y524796D01*
X494764D01*
Y525776D01*
X495254D01*
Y527248D01*
X495745D01*
Y528719D01*
X496235D01*
Y529699D01*
X496725D01*
Y530680D01*
X497216D01*
Y532641D01*
X497706D01*
Y535093D01*
X498196D01*
Y536564D01*
X498687D01*
Y539507D01*
X499177D01*
Y540978D01*
X499667D01*
Y543920D01*
X500158D01*
Y546372D01*
X500648D01*
Y551275D01*
X501138D01*
Y568928D01*
X500648D01*
Y575793D01*
X500158D01*
Y580697D01*
X499667D01*
Y582168D01*
X499177D01*
Y584129D01*
X498687D01*
Y585110D01*
X498196D01*
Y585601D01*
X498687D01*
Y586581D01*
X498196D01*
Y588052D01*
X497706D01*
Y590504D01*
X496725D01*
Y591975D01*
X496235D01*
Y593937D01*
X495745D01*
Y594427D01*
X495254D01*
Y595408D01*
X494764D01*
Y596389D01*
X494273D01*
Y597859D01*
X493783D01*
Y598350D01*
X493293D01*
Y598840D01*
X492802D01*
Y599821D01*
X492312D01*
Y600802D01*
X491331D01*
Y601292D01*
X490841D01*
Y601782D01*
X490350D01*
Y602273D01*
X489860D01*
Y603254D01*
X489370D01*
Y603744D01*
X488880D01*
Y604725D01*
X488389D01*
Y605215D01*
X487899D01*
Y605705D01*
X487408D01*
Y606686D01*
X486918D01*
Y607176D01*
X486428D01*
Y608157D01*
X485937D01*
Y608647D01*
X484957D01*
Y609138D01*
X484466D01*
Y609628D01*
X483976D01*
Y610119D01*
X483485D01*
Y610609D01*
X482995D01*
Y611099D01*
X482505D01*
Y611590D01*
X482014D01*
Y612080D01*
X481524D01*
Y612570D01*
X481034D01*
Y613061D01*
X480543D01*
Y613551D01*
X480053D01*
Y614041D01*
X479563D01*
Y613551D01*
X479072D01*
Y614041D01*
X478582D01*
Y614532D01*
X477111D01*
Y615022D01*
D02*
G37*
G36*
X554098Y603744D02*
X553607D01*
Y603254D01*
X553117D01*
Y602763D01*
X552626D01*
Y602273D01*
X552136D01*
Y601782D01*
X551646D01*
Y601292D01*
X551155D01*
Y600802D01*
X550665D01*
Y600311D01*
X550175D01*
Y599821D01*
X549684D01*
Y599331D01*
X549194D01*
Y598840D01*
X548703D01*
Y598350D01*
X548213D01*
Y597859D01*
X546742D01*
Y597369D01*
X546252D01*
Y596879D01*
X545761D01*
Y596389D01*
X545271D01*
Y595898D01*
X544781D01*
Y595408D01*
X544290D01*
Y594917D01*
X543800D01*
Y594427D01*
X543310D01*
Y593937D01*
X542819D01*
Y593446D01*
X542329D01*
Y592956D01*
X541838D01*
Y592466D01*
X541348D01*
Y591975D01*
X540367D01*
Y591485D01*
X539877D01*
Y590994D01*
X539387D01*
Y590504D01*
X538896D01*
Y590014D01*
X538406D01*
Y589523D01*
X537916D01*
Y589033D01*
X537425D01*
Y588543D01*
X536445D01*
Y588052D01*
X535954D01*
Y587562D01*
X534973D01*
Y587072D01*
X534483D01*
Y586581D01*
X533993D01*
Y586091D01*
X533012D01*
Y585601D01*
X532522D01*
Y585110D01*
X532031D01*
Y584620D01*
X531050D01*
Y584129D01*
X530560D01*
Y583639D01*
X529579D01*
Y583149D01*
X529089D01*
Y582658D01*
X528108D01*
Y582168D01*
X527128D01*
Y581678D01*
X526637D01*
Y581187D01*
X525657D01*
Y580697D01*
X525166D01*
Y580206D01*
X524676D01*
Y579716D01*
X523695D01*
Y579226D01*
X523205D01*
Y578736D01*
X522714D01*
Y578245D01*
X521734D01*
Y577755D01*
X521243D01*
Y577264D01*
X520263D01*
Y576774D01*
X519282D01*
Y576284D01*
X518792D01*
Y575793D01*
X517811D01*
Y575303D01*
X517320D01*
Y574813D01*
X516340D01*
Y574322D01*
X515359D01*
Y573832D01*
X513888D01*
Y573341D01*
X513397D01*
Y572851D01*
X512417D01*
Y572361D01*
X511926D01*
Y571870D01*
X510946D01*
Y571380D01*
X510455D01*
Y570890D01*
X509475D01*
Y570399D01*
X508984D01*
Y569909D01*
X507513D01*
Y569419D01*
X506533D01*
Y568928D01*
X505552D01*
Y568438D01*
X504081D01*
Y552746D01*
X505061D01*
Y553237D01*
X506042D01*
Y553727D01*
X508004D01*
Y554217D01*
X508984D01*
Y554708D01*
X510455D01*
Y555198D01*
X512417D01*
Y555689D01*
X513397D01*
Y556179D01*
X514869D01*
Y556669D01*
X515359D01*
Y556179D01*
X515849D01*
Y556669D01*
X516830D01*
Y557160D01*
X517811D01*
Y557650D01*
X519282D01*
Y558140D01*
X520263D01*
Y558631D01*
X521243D01*
Y559121D01*
X522224D01*
Y559611D01*
X523695D01*
Y560102D01*
X524676D01*
Y560592D01*
X526147D01*
Y561082D01*
X527128D01*
Y561573D01*
X528599D01*
Y562553D01*
X529089D01*
Y563044D01*
X529579D01*
Y564025D01*
X530070D01*
Y564515D01*
X530560D01*
Y565496D01*
X531050D01*
Y566476D01*
X531541D01*
Y566967D01*
X532031D01*
Y567948D01*
X532522D01*
Y568438D01*
X533012D01*
Y568928D01*
X533502D01*
Y569909D01*
X533993D01*
Y570890D01*
X534483D01*
Y571870D01*
X534973D01*
Y572361D01*
X535464D01*
Y573341D01*
X535954D01*
Y573832D01*
X536445D01*
Y574813D01*
X536935D01*
Y575303D01*
X537425D01*
Y575793D01*
X537916D01*
Y576284D01*
X538406D01*
Y577264D01*
X538896D01*
Y577755D01*
X539387D01*
Y578245D01*
X539877D01*
Y579226D01*
X540367D01*
Y580206D01*
X540858D01*
Y580697D01*
X541348D01*
Y581678D01*
X541838D01*
Y582658D01*
X542329D01*
Y583149D01*
X542819D01*
Y584129D01*
X543310D01*
Y584620D01*
X543800D01*
Y586091D01*
X544290D01*
Y586581D01*
X544781D01*
Y587072D01*
X545271D01*
Y588052D01*
X545761D01*
Y588543D01*
X546252D01*
Y589033D01*
X546742D01*
Y590014D01*
X547232D01*
Y590994D01*
X547723D01*
Y591975D01*
X548213D01*
Y592956D01*
X548703D01*
Y593937D01*
X549194D01*
Y594917D01*
X549684D01*
Y595408D01*
X550175D01*
Y596389D01*
X550665D01*
Y597369D01*
X551155D01*
Y598350D01*
X551646D01*
Y598840D01*
X552136D01*
Y599821D01*
X552626D01*
Y600802D01*
X553117D01*
Y601782D01*
X553607D01*
Y602763D01*
X554098D01*
Y603744D01*
D02*
G37*
G36*
X753674Y607667D02*
X750242D01*
Y607176D01*
X746319D01*
Y606686D01*
X744848D01*
Y606196D01*
X743867D01*
Y605705D01*
X741906D01*
Y605215D01*
X739944D01*
Y604725D01*
X738473D01*
Y604234D01*
X737493D01*
Y603744D01*
X736512D01*
Y603254D01*
X735041D01*
Y602763D01*
X734550D01*
Y602273D01*
X733079D01*
Y601782D01*
X732099D01*
Y601292D01*
X731608D01*
Y600802D01*
X730628D01*
Y600311D01*
X729647D01*
Y599821D01*
X729156D01*
Y599331D01*
X728176D01*
Y598350D01*
X727685D01*
Y597859D01*
X726705D01*
Y597369D01*
X725724D01*
Y596879D01*
X725234D01*
Y596389D01*
X724253D01*
Y595898D01*
X723762D01*
Y595408D01*
X723272D01*
Y594917D01*
X722782D01*
Y594427D01*
X722291D01*
Y593937D01*
X721311D01*
Y593446D01*
X720820D01*
Y592956D01*
X720330D01*
Y592466D01*
X719349D01*
Y591975D01*
X718859D01*
Y590994D01*
X718369D01*
Y590504D01*
X717878D01*
Y590014D01*
X717388D01*
Y589523D01*
X716897D01*
Y589033D01*
X716407D01*
Y588543D01*
X715917D01*
Y587562D01*
X715426D01*
Y587072D01*
X714936D01*
Y586581D01*
X714446D01*
Y585601D01*
X713955D01*
Y585110D01*
X712974D01*
Y584620D01*
X712484D01*
Y584129D01*
X711994D01*
Y583149D01*
X711503D01*
Y582658D01*
X711013D01*
Y582168D01*
X710523D01*
Y581187D01*
X710032D01*
Y580206D01*
X709542D01*
Y579716D01*
X709052D01*
Y578736D01*
X708561D01*
Y578245D01*
X708071D01*
Y577264D01*
X707580D01*
Y576774D01*
X707090D01*
Y575793D01*
X706600D01*
Y574813D01*
X706109D01*
Y573832D01*
X705619D01*
Y572361D01*
X705129D01*
Y571380D01*
X704638D01*
Y570399D01*
X704148D01*
Y568438D01*
X703658D01*
Y567457D01*
X703167D01*
Y566476D01*
X702677D01*
Y565496D01*
X702187D01*
Y563534D01*
X701696D01*
Y562063D01*
X701206D01*
Y561573D01*
X701696D01*
Y561082D01*
X701206D01*
Y557160D01*
X700715D01*
Y553237D01*
X700225D01*
Y550294D01*
X699735D01*
Y544901D01*
X702187D01*
Y544410D01*
X704148D01*
Y543920D01*
X708561D01*
Y543429D01*
X711994D01*
Y542939D01*
X712484D01*
Y543429D01*
X716407D01*
Y542939D01*
X739944D01*
Y545881D01*
X740435D01*
Y547843D01*
X740925D01*
Y549314D01*
X741415D01*
Y549804D01*
X740925D01*
Y550294D01*
X741415D01*
Y551766D01*
X741906D01*
Y552746D01*
X742396D01*
Y553727D01*
X742887D01*
Y554708D01*
X743377D01*
Y555689D01*
X743867D01*
Y556669D01*
X744358D01*
Y557650D01*
X744848D01*
Y558140D01*
X745338D01*
Y558631D01*
X745829D01*
Y559611D01*
X746319D01*
Y560102D01*
X746809D01*
Y560592D01*
X747300D01*
Y561082D01*
X747790D01*
Y561573D01*
X748280D01*
Y562063D01*
X748771D01*
Y562553D01*
X749261D01*
Y563044D01*
X749752D01*
Y563534D01*
X750242D01*
Y564025D01*
X750732D01*
Y564515D01*
X751223D01*
Y565005D01*
X751713D01*
Y565496D01*
X752203D01*
Y565986D01*
X752694D01*
Y566476D01*
X753674D01*
Y566967D01*
X754165D01*
Y567457D01*
X754655D01*
Y567948D01*
X755636D01*
Y568438D01*
X757107D01*
Y568928D01*
X758578D01*
Y569419D01*
X760049D01*
Y569909D01*
X761520D01*
Y570399D01*
X762501D01*
Y570890D01*
X763972D01*
Y571380D01*
X765443D01*
Y571870D01*
X767405D01*
Y572361D01*
X772308D01*
Y571870D01*
X774270D01*
Y571380D01*
X775741D01*
Y570890D01*
X777212D01*
Y570399D01*
X778193D01*
Y569909D01*
X779664D01*
Y569419D01*
X780154D01*
Y568928D01*
X781135D01*
Y568438D01*
X781625D01*
Y567948D01*
X782115D01*
Y567457D01*
X782606D01*
Y566967D01*
X783096D01*
Y566476D01*
X783587D01*
Y565986D01*
X784077D01*
Y565496D01*
X784567D01*
Y565005D01*
X785058D01*
Y564025D01*
X785548D01*
Y563534D01*
X786038D01*
Y563044D01*
X786529D01*
Y562063D01*
X787019D01*
Y561082D01*
X787509D01*
Y560592D01*
X788000D01*
Y560102D01*
X788490D01*
Y559611D01*
X788980D01*
Y558140D01*
X789471D01*
Y556669D01*
X789961D01*
Y555689D01*
X790452D01*
Y554708D01*
X790942D01*
Y553727D01*
X791432D01*
Y552256D01*
X792413D01*
Y552746D01*
X793394D01*
Y553237D01*
X794374D01*
Y553727D01*
X795355D01*
Y554217D01*
X796826D01*
Y554708D01*
X797807D01*
Y555198D01*
X798788D01*
Y555689D01*
X799768D01*
Y556179D01*
X800749D01*
Y556669D01*
X802220D01*
Y557160D01*
X802711D01*
Y557650D01*
X803201D01*
Y558631D01*
X802711D01*
Y559121D01*
X803201D01*
Y560102D01*
X802711D01*
Y562553D01*
X802220D01*
Y564515D01*
X801730D01*
Y566476D01*
X801239D01*
Y567948D01*
X800749D01*
Y569419D01*
X800259D01*
Y570399D01*
X799768D01*
Y571870D01*
X799278D01*
Y572851D01*
X798788D01*
Y574813D01*
X798297D01*
Y576774D01*
X797807D01*
Y577264D01*
X797317D01*
Y578736D01*
X796826D01*
Y579226D01*
X796336D01*
Y580206D01*
X795845D01*
Y580697D01*
X795355D01*
Y582168D01*
X794865D01*
Y582658D01*
X794374D01*
Y583639D01*
X793884D01*
Y585110D01*
X793394D01*
Y586091D01*
X792903D01*
Y586581D01*
X792413D01*
Y587072D01*
X791923D01*
Y587562D01*
X791432D01*
Y588543D01*
X790942D01*
Y589523D01*
X790452D01*
Y590014D01*
X789961D01*
Y590504D01*
X789471D01*
Y590994D01*
X788980D01*
Y591975D01*
X788490D01*
Y592956D01*
X788000D01*
Y593446D01*
X787509D01*
Y593937D01*
X787019D01*
Y594427D01*
X786038D01*
Y595408D01*
X785548D01*
Y595898D01*
X784567D01*
Y596389D01*
X784077D01*
Y596879D01*
X783587D01*
Y597369D01*
X782606D01*
Y597859D01*
X782115D01*
Y598350D01*
X781625D01*
Y598840D01*
X781135D01*
Y599331D01*
X780154D01*
Y599821D01*
X779173D01*
Y600311D01*
X778193D01*
Y600802D01*
X777702D01*
Y601292D01*
X776721D01*
Y601782D01*
X775741D01*
Y602273D01*
X774270D01*
Y602763D01*
X773289D01*
Y603254D01*
X772308D01*
Y603744D01*
X771328D01*
Y604234D01*
X769366D01*
Y604725D01*
X767895D01*
Y605215D01*
X765443D01*
Y605705D01*
X763972D01*
Y606196D01*
X762011D01*
Y606686D01*
X756617D01*
Y607176D01*
X753674D01*
Y607667D01*
D02*
G37*
G36*
X804672Y543429D02*
X804182D01*
Y542939D01*
X803201D01*
Y542449D01*
X802220D01*
Y541958D01*
X801239D01*
Y541468D01*
X799768D01*
Y540978D01*
X798788D01*
Y540487D01*
X797807D01*
Y539997D01*
X796826D01*
Y539507D01*
X795845D01*
Y539016D01*
X794374D01*
Y538526D01*
X793884D01*
Y539016D01*
X793394D01*
Y536074D01*
X792903D01*
Y534113D01*
X792413D01*
Y531661D01*
X791923D01*
Y530190D01*
X791432D01*
Y529209D01*
X790942D01*
Y528228D01*
X790452D01*
Y526757D01*
X789961D01*
Y525776D01*
X789471D01*
Y524796D01*
X788980D01*
Y523815D01*
X788490D01*
Y523325D01*
X788000D01*
Y522834D01*
X787509D01*
Y522344D01*
X787019D01*
Y521854D01*
X786529D01*
Y520873D01*
X786038D01*
Y520382D01*
X785548D01*
Y519892D01*
X785058D01*
Y519402D01*
X784567D01*
Y518911D01*
X783587D01*
Y518421D01*
X783096D01*
Y517931D01*
X782606D01*
Y517440D01*
X781625D01*
Y516950D01*
X780644D01*
Y516460D01*
X779664D01*
Y515969D01*
X778683D01*
Y515479D01*
X777702D01*
Y514989D01*
X776721D01*
Y514498D01*
X774760D01*
Y514008D01*
X773289D01*
Y513517D01*
X768876D01*
Y513027D01*
X763482D01*
Y513517D01*
X761030D01*
Y514008D01*
X757597D01*
Y514498D01*
X756617D01*
Y514989D01*
X755145D01*
Y515479D01*
X754165D01*
Y515969D01*
X753184D01*
Y516460D01*
X751713D01*
Y516950D01*
X751223D01*
Y517440D01*
X750242D01*
Y517931D01*
X749752D01*
Y518421D01*
X748771D01*
Y518911D01*
X748280D01*
Y519402D01*
X747790D01*
Y519892D01*
X746809D01*
Y520382D01*
X746319D01*
Y520873D01*
X745829D01*
Y521363D01*
X745338D01*
Y522344D01*
X744848D01*
Y522834D01*
X744358D01*
Y523325D01*
X743867D01*
Y524305D01*
X743377D01*
Y525286D01*
X742887D01*
Y526267D01*
X742396D01*
Y526757D01*
X741906D01*
Y528228D01*
X740925D01*
Y527738D01*
X730137D01*
Y528228D01*
X722291D01*
Y528719D01*
X716897D01*
Y529209D01*
X712484D01*
Y529699D01*
X709542D01*
Y530190D01*
X709052D01*
Y529699D01*
X708561D01*
Y530190D01*
X703658D01*
Y529699D01*
X703167D01*
Y530190D01*
X700715D01*
Y528228D01*
X701206D01*
Y526757D01*
X701696D01*
Y523815D01*
X702187D01*
Y522834D01*
X702677D01*
Y521363D01*
X703167D01*
Y519402D01*
X703658D01*
Y517931D01*
X704148D01*
Y516460D01*
X704638D01*
Y515479D01*
X705129D01*
Y514498D01*
X705619D01*
Y513027D01*
X706109D01*
Y512046D01*
X706600D01*
Y511066D01*
X707090D01*
Y510575D01*
X707580D01*
Y509594D01*
X708071D01*
Y509104D01*
X708561D01*
Y508614D01*
X709052D01*
Y507633D01*
X709542D01*
Y506652D01*
X710032D01*
Y505672D01*
X710523D01*
Y505181D01*
X711013D01*
Y504201D01*
X711503D01*
Y503710D01*
X711994D01*
Y503220D01*
X712484D01*
Y502239D01*
X712974D01*
Y501749D01*
X713465D01*
Y501258D01*
X713955D01*
Y500768D01*
X714446D01*
Y500278D01*
X714936D01*
Y499787D01*
X715426D01*
Y499297D01*
X715917D01*
Y498807D01*
X716407D01*
Y498316D01*
X716897D01*
Y497826D01*
X717388D01*
Y497336D01*
X717878D01*
Y496845D01*
X718369D01*
Y496355D01*
X719349D01*
Y495864D01*
X719839D01*
Y495374D01*
X720330D01*
Y494884D01*
X720820D01*
Y494393D01*
X721801D01*
Y493903D01*
X722291D01*
Y493413D01*
X723272D01*
Y492922D01*
X723762D01*
Y492432D01*
X724253D01*
Y491941D01*
X725724D01*
Y491451D01*
X726214D01*
Y490961D01*
X727685D01*
Y490471D01*
X728666D01*
Y489980D01*
X729156D01*
Y490471D01*
X729647D01*
Y489980D01*
X730628D01*
Y489490D01*
X731608D01*
Y488999D01*
X733570D01*
Y488509D01*
X735531D01*
Y488019D01*
X737002D01*
Y487528D01*
X739454D01*
Y487038D01*
X742396D01*
Y486548D01*
X744848D01*
Y486057D01*
X748771D01*
Y485567D01*
X749261D01*
Y486057D01*
X750242D01*
Y485567D01*
X751223D01*
Y486057D01*
X751713D01*
Y485567D01*
X752694D01*
Y486057D01*
X753674D01*
Y485567D01*
X763482D01*
Y486057D01*
X764953D01*
Y485567D01*
X765443D01*
Y486057D01*
X767405D01*
Y486548D01*
X769856D01*
Y487038D01*
X771818D01*
Y487528D01*
X773289D01*
Y488019D01*
X775250D01*
Y488509D01*
X776231D01*
Y488999D01*
X777212D01*
Y489490D01*
X778683D01*
Y489980D01*
X779664D01*
Y490471D01*
X780154D01*
Y490961D01*
X780644D01*
Y491451D01*
X781625D01*
Y491941D01*
X782606D01*
Y492432D01*
X783096D01*
Y493413D01*
X784077D01*
Y493903D01*
X784567D01*
Y494884D01*
X785548D01*
Y495864D01*
X786529D01*
Y496355D01*
X787019D01*
Y497336D01*
X788000D01*
Y497826D01*
X788490D01*
Y498807D01*
X788980D01*
Y499297D01*
X789471D01*
Y499787D01*
X789961D01*
Y500768D01*
X790452D01*
Y501749D01*
X790942D01*
Y502239D01*
X791432D01*
Y502729D01*
X791923D01*
Y503710D01*
X792413D01*
Y504201D01*
X792903D01*
Y504691D01*
X793394D01*
Y505181D01*
X793884D01*
Y505672D01*
X794374D01*
Y507143D01*
X794865D01*
Y508124D01*
X795355D01*
Y508614D01*
X795845D01*
Y509594D01*
X796336D01*
Y510575D01*
X796826D01*
Y511556D01*
X797317D01*
Y512537D01*
X797807D01*
Y513517D01*
X798297D01*
Y514498D01*
X798788D01*
Y514989D01*
X799278D01*
Y515969D01*
X799768D01*
Y516950D01*
X800259D01*
Y517931D01*
X800749D01*
Y520382D01*
X801239D01*
Y521363D01*
X801730D01*
Y522344D01*
X802220D01*
Y523325D01*
X802711D01*
Y527248D01*
X803201D01*
Y529209D01*
X803691D01*
Y532641D01*
X804182D01*
Y534603D01*
X804672D01*
Y543429D01*
D02*
G37*
G36*
X466323Y554217D02*
X463381D01*
Y551766D01*
X462890D01*
Y551275D01*
X463381D01*
Y550785D01*
X462890D01*
Y548823D01*
X462400D01*
Y547352D01*
X461910D01*
Y545881D01*
X461419D01*
Y544410D01*
X460929D01*
Y543429D01*
X460438D01*
Y542939D01*
X459948D01*
Y542449D01*
X459458D01*
Y540978D01*
X458967D01*
Y539997D01*
X458477D01*
Y539016D01*
X457987D01*
Y538526D01*
X457496D01*
Y537545D01*
X457006D01*
Y537055D01*
X456516D01*
Y536564D01*
X456025D01*
Y536074D01*
X456516D01*
Y535584D01*
X456025D01*
Y535093D01*
X455535D01*
Y534603D01*
X455045D01*
Y534113D01*
X454064D01*
Y533622D01*
X452593D01*
Y533132D01*
X451612D01*
Y532641D01*
X450141D01*
Y532151D01*
X448670D01*
Y531661D01*
X445237D01*
Y532151D01*
X443276D01*
Y532641D01*
X442295D01*
Y533132D01*
X441314D01*
Y533622D01*
X439843D01*
Y534113D01*
X439353D01*
Y534603D01*
X438372D01*
Y535093D01*
X437882D01*
Y535584D01*
X437392D01*
Y536074D01*
X436901D01*
Y536564D01*
X436411D01*
Y537055D01*
X435920D01*
Y537545D01*
X435430D01*
Y538036D01*
X434940D01*
Y539016D01*
X434449D01*
Y539507D01*
X433959D01*
Y540487D01*
X433469D01*
Y540978D01*
X432978D01*
Y542449D01*
X432488D01*
Y543429D01*
X431998D01*
Y544901D01*
X431507D01*
Y546372D01*
X431017D01*
Y547843D01*
X430527D01*
Y549804D01*
X430036D01*
Y551766D01*
X429546D01*
Y552256D01*
X429055D01*
Y551766D01*
X426113D01*
Y551275D01*
X424152D01*
Y550785D01*
X423171D01*
Y550294D01*
X422681D01*
Y542939D01*
X423171D01*
Y539997D01*
X423661D01*
Y536074D01*
X424152D01*
Y535093D01*
X424642D01*
Y533132D01*
X425132D01*
Y531661D01*
X425623D01*
Y530190D01*
X426113D01*
Y528719D01*
X426604D01*
Y527248D01*
X427094D01*
Y525776D01*
X427584D01*
Y524796D01*
X428075D01*
Y524305D01*
X427584D01*
Y523815D01*
X428075D01*
Y522834D01*
X428565D01*
Y521854D01*
X429055D01*
Y521363D01*
X429546D01*
Y520382D01*
X430036D01*
Y519892D01*
X430527D01*
Y518911D01*
X431017D01*
Y517931D01*
X431507D01*
Y516950D01*
X431998D01*
Y515969D01*
X432488D01*
Y514989D01*
X432978D01*
Y514498D01*
X433469D01*
Y513517D01*
X433959D01*
Y513027D01*
X434449D01*
Y512537D01*
X434940D01*
Y512046D01*
X435430D01*
Y511556D01*
X435920D01*
Y510575D01*
X436411D01*
Y510085D01*
X437392D01*
Y509104D01*
X438372D01*
Y508614D01*
X438863D01*
Y508124D01*
X439353D01*
Y507633D01*
X439843D01*
Y507143D01*
X440334D01*
Y506652D01*
X441314D01*
Y506162D01*
X441805D01*
Y505672D01*
X442295D01*
Y505181D01*
X442785D01*
Y504691D01*
X443766D01*
Y504201D01*
X444747D01*
Y503710D01*
X446218D01*
Y503220D01*
X447689D01*
Y502729D01*
X449160D01*
Y502239D01*
X451122D01*
Y501749D01*
X455045D01*
Y502239D01*
X460438D01*
Y502729D01*
X462400D01*
Y503220D01*
X463871D01*
Y503710D01*
X465342D01*
Y504201D01*
X466323D01*
Y504691D01*
X467304D01*
Y505181D01*
X467794D01*
Y505672D01*
X468284D01*
Y506162D01*
X469265D01*
Y506652D01*
X469755D01*
Y507143D01*
X471227D01*
Y507633D01*
X472207D01*
Y508614D01*
X472697D01*
Y509104D01*
X473188D01*
Y509594D01*
X473678D01*
Y510085D01*
X474169D01*
Y510575D01*
X475149D01*
Y511066D01*
X475640D01*
Y512046D01*
X476130D01*
Y512537D01*
X476620D01*
Y513027D01*
X477111D01*
Y513517D01*
X477601D01*
Y514498D01*
X478092D01*
Y514989D01*
X478582D01*
Y515479D01*
X479072D01*
Y516460D01*
X479563D01*
Y517440D01*
X480053D01*
Y518421D01*
X480543D01*
Y518911D01*
X481034D01*
Y519402D01*
X481524D01*
Y520873D01*
X482014D01*
Y521854D01*
X482505D01*
Y522834D01*
X482995D01*
Y523325D01*
X483485D01*
Y524796D01*
X483976D01*
Y525286D01*
X484466D01*
Y527248D01*
X484957D01*
Y527738D01*
X485447D01*
Y528228D01*
X484957D01*
Y528719D01*
X485447D01*
Y529699D01*
Y530190D01*
X485937D01*
Y531661D01*
X486428D01*
Y533622D01*
X486918D01*
Y534603D01*
X487408D01*
Y536074D01*
X487899D01*
Y537545D01*
X488389D01*
Y539507D01*
X488880D01*
Y540978D01*
X489370D01*
Y542449D01*
X489860D01*
Y542939D01*
X489370D01*
Y543920D01*
X489860D01*
Y546372D01*
X490350D01*
Y547352D01*
X489860D01*
Y549314D01*
X489370D01*
Y549804D01*
X487899D01*
Y550294D01*
X483976D01*
Y550785D01*
X483485D01*
Y551275D01*
X479563D01*
Y551766D01*
X476620D01*
Y552256D01*
X473188D01*
Y552746D01*
X471227D01*
Y553237D01*
X469265D01*
Y553727D01*
X466323D01*
Y554217D01*
D02*
G37*
G36*
X734550Y605705D02*
X732099D01*
Y605215D01*
X730628D01*
Y604725D01*
X729156D01*
Y604234D01*
X727195D01*
Y603744D01*
X726214D01*
Y603254D01*
X725234D01*
Y602763D01*
X724253D01*
Y602273D01*
X723272D01*
Y601782D01*
X722291D01*
Y601292D01*
X721311D01*
Y600802D01*
X720330D01*
Y600311D01*
X719839D01*
Y599821D01*
X718859D01*
Y599331D01*
X718369D01*
Y598840D01*
X717878D01*
Y598350D01*
X716897D01*
Y597859D01*
X716407D01*
Y597369D01*
X715917D01*
Y596879D01*
X714936D01*
Y596389D01*
X714446D01*
Y595898D01*
X713465D01*
Y594917D01*
X712974D01*
Y594427D01*
X712484D01*
Y593937D01*
X711994D01*
Y593446D01*
X711503D01*
Y592956D01*
X711013D01*
Y592466D01*
X710523D01*
Y591975D01*
X710032D01*
Y591485D01*
X709542D01*
Y590994D01*
X709052D01*
Y590014D01*
X708561D01*
Y589523D01*
X708071D01*
Y589033D01*
X707580D01*
Y588543D01*
X707090D01*
Y588052D01*
X706600D01*
Y587562D01*
X706109D01*
Y587072D01*
X705619D01*
Y586091D01*
X705129D01*
Y585601D01*
X704638D01*
Y584620D01*
X704148D01*
Y584129D01*
X703658D01*
Y583639D01*
X703167D01*
Y582658D01*
X702677D01*
Y582168D01*
X702187D01*
Y580697D01*
X701696D01*
Y579716D01*
X701206D01*
Y579226D01*
X700715D01*
Y578736D01*
X700225D01*
Y578245D01*
X699735D01*
Y577264D01*
X699244D01*
Y576284D01*
X698754D01*
Y575793D01*
X698264D01*
Y574813D01*
X697773D01*
Y573832D01*
X697283D01*
Y572361D01*
X696793D01*
Y570890D01*
X696302D01*
Y569909D01*
X695812D01*
Y567948D01*
X695322D01*
Y566476D01*
X694831D01*
Y565005D01*
X694341D01*
Y563044D01*
X693850D01*
Y560592D01*
X693360D01*
Y559611D01*
X692870D01*
Y557160D01*
X692379D01*
Y554217D01*
X691889D01*
Y550785D01*
X691399D01*
Y547352D01*
X690908D01*
Y538036D01*
X691399D01*
Y533622D01*
X691889D01*
Y528228D01*
X692379D01*
Y526267D01*
X692870D01*
Y525776D01*
X692379D01*
Y525286D01*
X692870D01*
Y523815D01*
X693360D01*
Y522344D01*
X693850D01*
Y520382D01*
X694341D01*
Y518421D01*
X694831D01*
Y516950D01*
X695322D01*
Y515969D01*
X695812D01*
Y514008D01*
X696302D01*
Y513517D01*
X696793D01*
Y511066D01*
X697283D01*
Y510575D01*
X697773D01*
Y510085D01*
X698264D01*
Y509594D01*
X698754D01*
Y508614D01*
X699244D01*
Y507633D01*
X699735D01*
Y506652D01*
X700225D01*
Y506162D01*
X700715D01*
Y505672D01*
X701206D01*
Y505181D01*
X701696D01*
Y504201D01*
X702187D01*
Y503710D01*
X702677D01*
Y502729D01*
X703167D01*
Y501749D01*
X703658D01*
Y501258D01*
X704148D01*
Y500768D01*
X704638D01*
Y500278D01*
X705129D01*
Y499787D01*
X705619D01*
Y499297D01*
X706109D01*
Y498807D01*
X706600D01*
Y498316D01*
X707090D01*
Y497826D01*
X707580D01*
Y497336D01*
X708071D01*
Y496845D01*
X708561D01*
Y496355D01*
X709052D01*
Y495864D01*
X709542D01*
Y495374D01*
X710032D01*
Y494884D01*
X711013D01*
Y494393D01*
X711503D01*
Y493903D01*
X711994D01*
Y493413D01*
X712484D01*
Y492922D01*
X712974D01*
Y492432D01*
X713465D01*
Y491941D01*
X714446D01*
Y491451D01*
X715426D01*
Y490961D01*
X715917D01*
Y490471D01*
X716897D01*
Y489980D01*
X717878D01*
Y489490D01*
X718369D01*
Y488999D01*
X718859D01*
Y488509D01*
X719839D01*
Y488019D01*
X720820D01*
Y487528D01*
X721801D01*
Y487038D01*
X722782D01*
Y486548D01*
X723762D01*
Y486057D01*
X724253D01*
Y485567D01*
X726214D01*
Y485076D01*
X728176D01*
Y484586D01*
X729647D01*
Y484096D01*
X731608D01*
Y483605D01*
X733079D01*
Y483115D01*
X736021D01*
Y482625D01*
X737493D01*
Y482134D01*
X738964D01*
Y481644D01*
X739944D01*
Y482134D01*
X741906D01*
Y481644D01*
X759559D01*
Y481154D01*
X760539D01*
Y481644D01*
X762011D01*
Y482134D01*
X763482D01*
Y482625D01*
X765934D01*
Y483115D01*
X766914D01*
Y483605D01*
X768385D01*
Y484096D01*
X769856D01*
Y484586D01*
X771328D01*
Y485076D01*
X772308D01*
Y485567D01*
X770837D01*
Y485076D01*
X768876D01*
Y484586D01*
X766914D01*
Y484096D01*
X764953D01*
Y483605D01*
X762991D01*
Y483115D01*
X752694D01*
Y483605D01*
X746809D01*
Y484096D01*
X743377D01*
Y484586D01*
X740435D01*
Y485076D01*
X737983D01*
Y485567D01*
X735531D01*
Y486057D01*
X732589D01*
Y486548D01*
X731608D01*
Y487038D01*
X729647D01*
Y487528D01*
X728666D01*
Y488019D01*
X727685D01*
Y488509D01*
X726214D01*
Y488999D01*
X725724D01*
Y489490D01*
X724253D01*
Y489980D01*
X723272D01*
Y490471D01*
X722291D01*
Y490961D01*
X721311D01*
Y491451D01*
X720330D01*
Y491941D01*
X719839D01*
Y492432D01*
X719349D01*
Y492922D01*
X718859D01*
Y493413D01*
X718369D01*
Y493903D01*
X717878D01*
Y494393D01*
X716897D01*
Y494884D01*
X716407D01*
Y495374D01*
X715917D01*
Y495864D01*
X714936D01*
Y496845D01*
X714446D01*
Y497336D01*
X713955D01*
Y497826D01*
X712974D01*
Y498807D01*
X712484D01*
Y499297D01*
X711994D01*
Y499787D01*
X711503D01*
Y500278D01*
X711013D01*
Y500768D01*
X710523D01*
Y501258D01*
X710032D01*
Y502239D01*
X709542D01*
Y502729D01*
X709052D01*
Y503220D01*
X708561D01*
Y504201D01*
X708071D01*
Y504691D01*
X707580D01*
Y505672D01*
X707090D01*
Y506652D01*
X706600D01*
Y507143D01*
X706109D01*
Y508124D01*
X705619D01*
Y508614D01*
X705129D01*
Y509594D01*
X704638D01*
Y510575D01*
X704148D01*
Y511066D01*
X703658D01*
Y512537D01*
X703167D01*
Y513517D01*
X702677D01*
Y514008D01*
X702187D01*
Y515479D01*
X701696D01*
Y517931D01*
X701206D01*
Y518911D01*
X700715D01*
Y519892D01*
X700225D01*
Y521363D01*
X699735D01*
Y523815D01*
X699244D01*
Y525286D01*
X698754D01*
Y527248D01*
X698264D01*
Y533132D01*
X698754D01*
Y533622D01*
X700225D01*
Y533132D01*
X701696D01*
Y532641D01*
X703658D01*
Y532151D01*
X711013D01*
Y531661D01*
X714446D01*
Y531170D01*
X718369D01*
Y530680D01*
X723272D01*
Y530190D01*
X731608D01*
Y529699D01*
X736512D01*
Y530190D01*
X737002D01*
Y529699D01*
X737493D01*
Y530190D01*
X738473D01*
Y529699D01*
X738964D01*
Y530190D01*
X743377D01*
Y529699D01*
X743867D01*
Y528719D01*
X744358D01*
Y528228D01*
X744848D01*
Y526757D01*
X745338D01*
Y525776D01*
X745829D01*
Y524796D01*
X746319D01*
Y524305D01*
X746809D01*
Y523325D01*
X747300D01*
Y522834D01*
X747790D01*
Y522344D01*
X748280D01*
Y521854D01*
X748771D01*
Y521363D01*
X749752D01*
Y520873D01*
X750242D01*
Y520382D01*
X751223D01*
Y519892D01*
X752203D01*
Y519402D01*
X753184D01*
Y518911D01*
X754165D01*
Y518421D01*
X755145D01*
Y517931D01*
X755636D01*
Y517440D01*
X756617D01*
Y516950D01*
X758088D01*
Y516460D01*
X760539D01*
Y515969D01*
X761520D01*
Y515479D01*
X770837D01*
Y515969D01*
X772308D01*
Y516460D01*
X774270D01*
Y516950D01*
X776231D01*
Y517440D01*
X777212D01*
Y517931D01*
X778193D01*
Y518421D01*
X779173D01*
Y518911D01*
X779664D01*
Y519402D01*
X780644D01*
Y519892D01*
X781625D01*
Y520382D01*
X782115D01*
Y520873D01*
X782606D01*
Y521363D01*
X783587D01*
Y521854D01*
X784077D01*
Y522344D01*
X784567D01*
Y523325D01*
X785058D01*
Y524305D01*
X785548D01*
Y524796D01*
X786038D01*
Y525286D01*
X786529D01*
Y525776D01*
X787019D01*
Y526757D01*
X787509D01*
Y527738D01*
X788000D01*
Y528719D01*
X788490D01*
Y530190D01*
X788980D01*
Y531170D01*
X789471D01*
Y532151D01*
X789961D01*
Y535093D01*
X790452D01*
Y537545D01*
X790942D01*
Y540978D01*
X792903D01*
Y541468D01*
X794865D01*
Y541958D01*
X795355D01*
Y542449D01*
X796336D01*
Y542939D01*
X798297D01*
Y543429D01*
X799768D01*
Y543920D01*
X800749D01*
Y544410D01*
X801730D01*
Y544901D01*
X802711D01*
Y545391D01*
X803691D01*
Y545881D01*
X804182D01*
Y546372D01*
X804672D01*
Y546862D01*
X804182D01*
Y552746D01*
X803691D01*
Y554708D01*
X802711D01*
Y554217D01*
X802220D01*
Y553727D01*
X800749D01*
Y553237D01*
X799768D01*
Y552746D01*
X798788D01*
Y552256D01*
X797317D01*
Y551766D01*
X796336D01*
Y551275D01*
X794865D01*
Y550785D01*
X793394D01*
Y550294D01*
X791923D01*
Y549804D01*
X789961D01*
Y550294D01*
X789471D01*
Y552256D01*
X788980D01*
Y554217D01*
X788490D01*
Y555689D01*
X788000D01*
Y556669D01*
X787509D01*
Y557160D01*
X787019D01*
Y558631D01*
X786529D01*
Y559121D01*
X786038D01*
Y560102D01*
X785548D01*
Y561573D01*
X785058D01*
Y562063D01*
X784567D01*
Y562553D01*
X784077D01*
Y563044D01*
X783587D01*
Y563534D01*
X783096D01*
Y564025D01*
X782115D01*
Y565005D01*
X781625D01*
Y565496D01*
X781135D01*
Y565986D01*
X780644D01*
Y566476D01*
X780154D01*
Y566967D01*
X778683D01*
Y567457D01*
X778193D01*
Y567948D01*
X777212D01*
Y568438D01*
X775741D01*
Y568928D01*
X772308D01*
Y569419D01*
X766914D01*
Y568928D01*
X764953D01*
Y568438D01*
X763482D01*
Y567948D01*
X762501D01*
Y567457D01*
X761030D01*
Y566967D01*
X760049D01*
Y566476D01*
X759068D01*
Y565986D01*
X757597D01*
Y565496D01*
X756617D01*
Y565005D01*
X755636D01*
Y564515D01*
X755145D01*
Y564025D01*
X754655D01*
Y563534D01*
X753674D01*
Y563044D01*
X753184D01*
Y562553D01*
X752694D01*
Y562063D01*
X752203D01*
Y561573D01*
X751223D01*
Y561082D01*
X750732D01*
Y560592D01*
X750242D01*
Y560102D01*
X749752D01*
Y559611D01*
X749261D01*
Y559121D01*
X748771D01*
Y558631D01*
X748280D01*
Y557650D01*
X747790D01*
Y557160D01*
X747300D01*
Y556669D01*
X746809D01*
Y555689D01*
X746319D01*
Y554708D01*
X745829D01*
Y554217D01*
X745338D01*
Y552746D01*
X744848D01*
Y551766D01*
X744358D01*
Y550785D01*
X743867D01*
Y549314D01*
X743377D01*
Y547352D01*
X742887D01*
Y546372D01*
X742396D01*
Y544410D01*
X741906D01*
Y541958D01*
X741415D01*
Y540487D01*
X714936D01*
Y540978D01*
X710032D01*
Y541468D01*
X707090D01*
Y541958D01*
X702677D01*
Y542449D01*
X700225D01*
Y542939D01*
X697283D01*
Y543429D01*
X696793D01*
Y545391D01*
X697283D01*
Y551275D01*
X697773D01*
Y554217D01*
X698264D01*
Y558140D01*
X698754D01*
Y561082D01*
X699244D01*
Y563534D01*
X699735D01*
Y565496D01*
X700225D01*
Y566967D01*
X700715D01*
Y568438D01*
X701206D01*
Y569909D01*
X701696D01*
Y570890D01*
X702187D01*
Y572851D01*
X702677D01*
Y573341D01*
X703167D01*
Y574322D01*
X703658D01*
Y575303D01*
X704148D01*
Y576284D01*
X704638D01*
Y577264D01*
X705129D01*
Y578245D01*
X705619D01*
Y579226D01*
X706109D01*
Y579716D01*
X706600D01*
Y580697D01*
X707090D01*
Y581678D01*
X707580D01*
Y582168D01*
X708071D01*
Y583149D01*
X708561D01*
Y583639D01*
X709052D01*
Y584129D01*
X709542D01*
Y584620D01*
X710032D01*
Y585601D01*
X710523D01*
Y586091D01*
X711013D01*
Y586581D01*
X711503D01*
Y587072D01*
X711994D01*
Y588052D01*
X712484D01*
Y588543D01*
X712974D01*
Y589033D01*
X713465D01*
Y589523D01*
X713955D01*
Y590014D01*
X714446D01*
Y590994D01*
X714936D01*
Y591485D01*
X715426D01*
Y591975D01*
X715917D01*
Y592466D01*
X716407D01*
Y592956D01*
X716897D01*
Y593446D01*
X717388D01*
Y593937D01*
X717878D01*
Y594427D01*
X718369D01*
Y594917D01*
X719349D01*
Y595408D01*
X719839D01*
Y595898D01*
X720330D01*
Y596389D01*
X721311D01*
Y596879D01*
X721801D01*
Y597369D01*
X722291D01*
Y597859D01*
X722782D01*
Y598350D01*
X723272D01*
Y598840D01*
X723762D01*
Y599331D01*
X724253D01*
Y599821D01*
X724743D01*
Y600311D01*
X725724D01*
Y600802D01*
X726214D01*
Y601292D01*
X727195D01*
Y601782D01*
X727685D01*
Y602273D01*
X728666D01*
Y602763D01*
X729156D01*
Y603254D01*
X730137D01*
Y603744D01*
X731118D01*
Y604234D01*
X732099D01*
Y604725D01*
X733079D01*
Y605215D01*
X734550D01*
Y605705D01*
D02*
G37*
G36*
X706600Y495864D02*
X705619D01*
Y495374D01*
X704638D01*
Y494884D01*
X703167D01*
Y494393D01*
X702677D01*
Y494884D01*
X702187D01*
Y494393D01*
X700715D01*
Y493903D01*
X699244D01*
Y493413D01*
X697773D01*
Y492922D01*
X696302D01*
Y492432D01*
X694831D01*
Y491941D01*
X693360D01*
Y491451D01*
X691399D01*
Y490961D01*
X689928D01*
Y490471D01*
X687966D01*
Y489980D01*
X687476D01*
Y490471D01*
X686985D01*
Y489980D01*
X685514D01*
Y489490D01*
X683553D01*
Y488999D01*
X681591D01*
Y488509D01*
X679630D01*
Y488019D01*
X678159D01*
Y487528D01*
X676197D01*
Y487038D01*
X673746D01*
Y486548D01*
X672274D01*
Y486057D01*
X669823D01*
Y485567D01*
X669332D01*
Y486057D01*
X668842D01*
Y485567D01*
X666880D01*
Y485076D01*
X664919D01*
Y484586D01*
X663448D01*
Y484096D01*
X661487D01*
Y483605D01*
X659525D01*
Y483115D01*
X657073D01*
Y482625D01*
X654622D01*
Y482134D01*
X651679D01*
Y481644D01*
X648247D01*
Y481154D01*
X647757D01*
Y481644D01*
X646776D01*
Y481154D01*
X641872D01*
Y480663D01*
X636968D01*
Y480173D01*
X632555D01*
Y479683D01*
X606566D01*
Y480173D01*
X598720D01*
Y480663D01*
X590875D01*
Y481154D01*
X586461D01*
Y481644D01*
X585971D01*
Y481154D01*
X585481D01*
Y481644D01*
X582048D01*
Y482134D01*
X579596D01*
Y482625D01*
X577635D01*
Y483115D01*
X575183D01*
Y483605D01*
X572731D01*
Y484096D01*
X570279D01*
Y484586D01*
X567337D01*
Y485076D01*
X565376D01*
Y485567D01*
X562434D01*
Y486057D01*
X561453D01*
Y485567D01*
X560962D01*
Y486057D01*
X558020D01*
Y486548D01*
X556059D01*
Y487038D01*
X554098D01*
Y487528D01*
X552136D01*
Y488019D01*
X550665D01*
Y488509D01*
X549194D01*
Y488999D01*
X547723D01*
Y489490D01*
X545761D01*
Y489980D01*
X543310D01*
Y490471D01*
X541348D01*
Y490961D01*
X540367D01*
Y491451D01*
X538406D01*
Y491941D01*
X537425D01*
Y492432D01*
X536445D01*
Y492922D01*
X535464D01*
Y493413D01*
X534483D01*
Y493903D01*
X533993D01*
Y492922D01*
X534483D01*
Y492432D01*
X534973D01*
Y491941D01*
X535464D01*
Y490961D01*
X535954D01*
Y490471D01*
X536445D01*
Y489980D01*
X536935D01*
Y489490D01*
X537425D01*
Y488999D01*
X537916D01*
Y488509D01*
X538406D01*
Y488019D01*
X538896D01*
Y487528D01*
X539387D01*
Y487038D01*
X539877D01*
Y486548D01*
X540367D01*
Y486057D01*
X540858D01*
Y485567D01*
X541838D01*
Y485076D01*
X542329D01*
Y484586D01*
X542819D01*
Y484096D01*
X543310D01*
Y483605D01*
X543800D01*
Y483115D01*
X544781D01*
Y482625D01*
X545271D01*
Y482134D01*
X546252D01*
Y481644D01*
X547232D01*
Y481154D01*
X548213D01*
Y480663D01*
X549194D01*
Y480173D01*
X550175D01*
Y479683D01*
X551155D01*
Y479192D01*
X551646D01*
Y478702D01*
X552626D01*
Y478211D01*
X554098D01*
Y477721D01*
X554588D01*
Y477231D01*
X556549D01*
Y476740D01*
X557530D01*
Y476250D01*
X558511D01*
Y475760D01*
X559492D01*
Y475269D01*
X560472D01*
Y474779D01*
X561453D01*
Y474288D01*
X562924D01*
Y473798D01*
X564395D01*
Y473308D01*
X564885D01*
Y472817D01*
X566357D01*
Y472327D01*
X568808D01*
Y471837D01*
X570279D01*
Y471346D01*
X571750D01*
Y470856D01*
X573222D01*
Y470366D01*
X574693D01*
Y469875D01*
X577145D01*
Y469385D01*
X578615D01*
Y468895D01*
X582048D01*
Y468404D01*
X584010D01*
Y467914D01*
X585481D01*
Y468404D01*
X585971D01*
Y467914D01*
X589894D01*
Y467424D01*
X594798D01*
Y466933D01*
X602153D01*
Y466443D01*
X611470D01*
Y465952D01*
X618825D01*
Y465462D01*
X630103D01*
Y465952D01*
X638930D01*
Y466443D01*
X644324D01*
Y466933D01*
X647757D01*
Y467424D01*
X651679D01*
Y467914D01*
X655602D01*
Y468404D01*
X656583D01*
Y467914D01*
X658054D01*
Y468404D01*
X661487D01*
Y468895D01*
X664429D01*
Y469385D01*
X666880D01*
Y469875D01*
X669332D01*
Y470366D01*
X670803D01*
Y470856D01*
X672765D01*
Y471346D01*
X674236D01*
Y471837D01*
X675217D01*
Y472327D01*
X677178D01*
Y472817D01*
X680120D01*
Y473308D01*
X681101D01*
Y473798D01*
X681591D01*
Y474288D01*
X683553D01*
Y474779D01*
X685514D01*
Y475269D01*
X686495D01*
Y475760D01*
X686985D01*
Y476250D01*
X688456D01*
Y476740D01*
X689437D01*
Y477231D01*
X690418D01*
Y477721D01*
X691399D01*
Y478211D01*
X692379D01*
Y478702D01*
X693360D01*
Y479192D01*
X693850D01*
Y479683D01*
X695322D01*
Y480173D01*
X696302D01*
Y480663D01*
X696793D01*
Y481154D01*
X697773D01*
Y481644D01*
X698264D01*
Y482134D01*
X698754D01*
Y482625D01*
X699244D01*
Y483115D01*
X700715D01*
Y483605D01*
X701206D01*
Y484096D01*
X701696D01*
Y484586D01*
X702187D01*
Y485076D01*
X702677D01*
Y485567D01*
X703167D01*
Y486057D01*
X703658D01*
Y486548D01*
X704148D01*
Y487038D01*
X704638D01*
Y487528D01*
X705129D01*
Y488019D01*
X705619D01*
Y488999D01*
X706109D01*
Y489490D01*
X706600D01*
Y489980D01*
X707090D01*
Y490471D01*
X707580D01*
Y490961D01*
X708071D01*
Y491941D01*
X708561D01*
Y492432D01*
X709052D01*
Y493413D01*
X708561D01*
Y493903D01*
X707580D01*
Y494393D01*
X707090D01*
Y495374D01*
X706600D01*
Y495864D01*
D02*
G37*
G36*
X526147Y513027D02*
X525657D01*
Y511556D01*
X526147D01*
Y509594D01*
X526637D01*
Y508124D01*
X527128D01*
Y506652D01*
X527618D01*
Y505181D01*
X528108D01*
Y504201D01*
X528599D01*
Y502729D01*
X529089D01*
Y501258D01*
X529579D01*
Y500278D01*
X530070D01*
Y499297D01*
X530560D01*
Y498807D01*
X531050D01*
Y498316D01*
X532031D01*
Y497826D01*
X532522D01*
Y497336D01*
X533502D01*
Y496845D01*
X534483D01*
Y495864D01*
X535954D01*
Y495374D01*
X536445D01*
Y494884D01*
X538406D01*
Y494393D01*
X539877D01*
Y493903D01*
X541348D01*
Y493413D01*
X542329D01*
Y492922D01*
X544290D01*
Y492432D01*
X545761D01*
Y491941D01*
X547723D01*
Y491451D01*
X548703D01*
Y490961D01*
X550175D01*
Y490471D01*
X552136D01*
Y489980D01*
X552626D01*
Y490471D01*
X553117D01*
Y489980D01*
X555078D01*
Y489490D01*
X557040D01*
Y488999D01*
X559001D01*
Y488509D01*
X561943D01*
Y488019D01*
X564395D01*
Y487528D01*
X566847D01*
Y487038D01*
X568808D01*
Y486548D01*
X571750D01*
Y486057D01*
X574202D01*
Y485567D01*
X574693D01*
Y486057D01*
X575673D01*
Y485567D01*
X578615D01*
Y485076D01*
X581067D01*
Y484586D01*
X583029D01*
Y484096D01*
X585971D01*
Y483605D01*
X588423D01*
Y483115D01*
X592346D01*
Y482625D01*
X600682D01*
Y482134D01*
X608037D01*
Y481644D01*
X631084D01*
Y482134D01*
X635497D01*
Y482625D01*
X640401D01*
Y483115D01*
X644324D01*
Y483605D01*
X647757D01*
Y484096D01*
X650699D01*
Y484586D01*
X653641D01*
Y485076D01*
X656093D01*
Y485567D01*
X658544D01*
Y486057D01*
X659035D01*
Y485567D01*
X659525D01*
Y486057D01*
X661977D01*
Y486548D01*
X663448D01*
Y487038D01*
X665409D01*
Y487528D01*
X666880D01*
Y488019D01*
X669332D01*
Y488509D01*
X671294D01*
Y488999D01*
X672765D01*
Y489490D01*
X675217D01*
Y489980D01*
X677178D01*
Y490471D01*
X680120D01*
Y490961D01*
X682082D01*
Y491451D01*
X683553D01*
Y491941D01*
X685024D01*
Y492432D01*
X686985D01*
Y492922D01*
X688456D01*
Y493413D01*
X689928D01*
Y493903D01*
X692379D01*
Y494393D01*
X693850D01*
Y494884D01*
X694341D01*
Y494393D01*
X694831D01*
Y494884D01*
X696302D01*
Y495374D01*
X697773D01*
Y495864D01*
X699244D01*
Y496355D01*
X700715D01*
Y496845D01*
X702187D01*
Y497336D01*
X703167D01*
Y497826D01*
X703658D01*
Y498807D01*
X703167D01*
Y499297D01*
X702677D01*
Y499787D01*
X702187D01*
Y500278D01*
X701696D01*
Y500768D01*
X701206D01*
Y501749D01*
X700715D01*
Y502239D01*
X700225D01*
Y502729D01*
X699735D01*
Y503220D01*
X699244D01*
Y503710D01*
X698754D01*
Y504691D01*
X698264D01*
Y505181D01*
X697773D01*
Y506162D01*
X697283D01*
Y507143D01*
X696793D01*
Y508124D01*
X696302D01*
Y509104D01*
X694831D01*
Y508614D01*
X692379D01*
Y508124D01*
X689928D01*
Y507633D01*
X687966D01*
Y507143D01*
X686005D01*
Y506652D01*
X684043D01*
Y506162D01*
X682082D01*
Y505672D01*
X680611D01*
Y505181D01*
X678649D01*
Y504691D01*
X677178D01*
Y504201D01*
X675217D01*
Y503710D01*
X672765D01*
Y503220D01*
X671784D01*
Y503710D01*
X670803D01*
Y503220D01*
X667861D01*
Y502729D01*
X665409D01*
Y502239D01*
X662958D01*
Y501749D01*
X660015D01*
Y501258D01*
X657073D01*
Y500768D01*
X654131D01*
Y500278D01*
X651189D01*
Y499787D01*
X647266D01*
Y499297D01*
X643343D01*
Y498807D01*
X642363D01*
Y499297D01*
X641382D01*
Y498807D01*
X640891D01*
Y499297D01*
X639911D01*
Y498807D01*
X639420D01*
Y499297D01*
X638930D01*
Y498807D01*
X631084D01*
Y498316D01*
X621767D01*
Y497826D01*
X593326D01*
Y498316D01*
X586461D01*
Y498807D01*
X581067D01*
Y499297D01*
X580577D01*
Y498807D01*
X579596D01*
Y499297D01*
X578615D01*
Y498807D01*
X578125D01*
Y499297D01*
X575183D01*
Y499787D01*
X573222D01*
Y500278D01*
X569299D01*
Y500768D01*
X567337D01*
Y501258D01*
X564395D01*
Y501749D01*
X562434D01*
Y502239D01*
X560472D01*
Y502729D01*
X558511D01*
Y503220D01*
X556549D01*
Y503710D01*
X556059D01*
Y503220D01*
X555078D01*
Y503710D01*
X553117D01*
Y504201D01*
X550665D01*
Y504691D01*
X548703D01*
Y505181D01*
X547232D01*
Y505672D01*
X545761D01*
Y506162D01*
X543800D01*
Y506652D01*
X541838D01*
Y507143D01*
X541348D01*
Y507633D01*
X539387D01*
Y508124D01*
X538896D01*
Y507633D01*
X538406D01*
Y508124D01*
X536935D01*
Y508614D01*
X534973D01*
Y509104D01*
X534483D01*
Y509594D01*
X533502D01*
Y510085D01*
X532031D01*
Y510575D01*
X531050D01*
Y511066D01*
X529579D01*
Y511556D01*
X528599D01*
Y512046D01*
X527128D01*
Y512537D01*
X526147D01*
Y513027D01*
D02*
G37*
%LPD*%
G36*
X685514Y754775D02*
X687476D01*
Y754285D01*
X689437D01*
Y753794D01*
X690908D01*
Y753304D01*
X692379D01*
Y752814D01*
X693360D01*
Y752323D01*
X694831D01*
Y751833D01*
X696302D01*
Y751343D01*
X697283D01*
Y750852D01*
X698754D01*
Y750362D01*
X700225D01*
Y749872D01*
X702187D01*
Y749381D01*
X703167D01*
Y748891D01*
X704638D01*
Y748400D01*
X706109D01*
Y747420D01*
X707580D01*
Y746929D01*
X708561D01*
Y746439D01*
X710032D01*
Y745949D01*
X711013D01*
Y745458D01*
X711503D01*
Y744968D01*
X711994D01*
Y744477D01*
X712974D01*
Y743497D01*
X713465D01*
Y743006D01*
X713955D01*
Y742516D01*
X714446D01*
Y741045D01*
X714936D01*
Y730257D01*
X714446D01*
Y729767D01*
X714936D01*
Y729276D01*
X714446D01*
Y727805D01*
X713955D01*
Y727315D01*
X712484D01*
Y726824D01*
X708561D01*
Y727315D01*
X707580D01*
Y727805D01*
X706109D01*
Y728296D01*
X705129D01*
Y728786D01*
X703658D01*
Y729276D01*
X702677D01*
Y729767D01*
X701696D01*
Y730257D01*
X700715D01*
Y730747D01*
X699735D01*
Y731238D01*
X698754D01*
Y731728D01*
X697773D01*
Y732218D01*
X696793D01*
Y732709D01*
X695812D01*
Y733199D01*
X694341D01*
Y733690D01*
X693850D01*
Y734180D01*
X692870D01*
Y734670D01*
X692379D01*
Y735161D01*
X691399D01*
Y735651D01*
X690908D01*
Y736141D01*
X690418D01*
Y736632D01*
X689437D01*
Y737122D01*
X688947D01*
Y738103D01*
X688456D01*
Y738593D01*
X687966D01*
Y739083D01*
X687476D01*
Y740064D01*
X686985D01*
Y741045D01*
X686495D01*
Y741535D01*
X686005D01*
Y742026D01*
X685514D01*
Y743006D01*
X685024D01*
Y743987D01*
X684533D01*
Y744968D01*
X684043D01*
Y745949D01*
X683553D01*
Y746929D01*
X683063D01*
Y747910D01*
X682572D01*
Y748891D01*
X682082D01*
Y749872D01*
X681591D01*
Y750852D01*
X681101D01*
Y751833D01*
X680611D01*
Y752814D01*
X680120D01*
Y754775D01*
X680611D01*
Y755266D01*
X681101D01*
Y754775D01*
X681591D01*
Y755266D01*
X685514D01*
Y754775D01*
D02*
G37*
G36*
X631575Y746439D02*
X634517D01*
Y745949D01*
X637949D01*
Y745458D01*
X638440D01*
Y744968D01*
X638930D01*
Y744477D01*
X639420D01*
Y743987D01*
X639911D01*
Y743006D01*
X640401D01*
Y742516D01*
X640891D01*
Y737613D01*
X640401D01*
Y736632D01*
X639911D01*
Y735651D01*
X639420D01*
Y734670D01*
X637459D01*
Y734180D01*
X635497D01*
Y733690D01*
X632555D01*
Y734180D01*
X631084D01*
Y734670D01*
X629613D01*
Y735161D01*
X628632D01*
Y735651D01*
X627652D01*
Y736141D01*
X625690D01*
Y736632D01*
X625200D01*
Y737122D01*
X624219D01*
Y737613D01*
X623238D01*
Y738103D01*
X622748D01*
Y738593D01*
X622258D01*
Y739083D01*
X621767D01*
Y740064D01*
X621277D01*
Y741045D01*
X620787D01*
Y743987D01*
X621277D01*
Y744477D01*
X621767D01*
Y744968D01*
X622258D01*
Y745458D01*
X623238D01*
Y745949D01*
X623729D01*
Y746439D01*
X624710D01*
Y746929D01*
X631575D01*
Y746439D01*
D02*
G37*
%LPC*%
G36*
X685024Y753794D02*
X682082D01*
Y752814D01*
X682572D01*
Y751833D01*
X683063D01*
Y750852D01*
X683553D01*
Y749872D01*
X684043D01*
Y748400D01*
X684533D01*
Y747420D01*
X685024D01*
Y746439D01*
X685514D01*
Y745949D01*
X686005D01*
Y745458D01*
X686495D01*
Y744477D01*
X686985D01*
Y743497D01*
X687476D01*
Y742516D01*
X687966D01*
Y741535D01*
X688456D01*
Y740555D01*
X688947D01*
Y740064D01*
X689437D01*
Y739574D01*
X689928D01*
Y738593D01*
X690418D01*
Y738103D01*
X690908D01*
Y737613D01*
X691399D01*
Y737122D01*
X692379D01*
Y736632D01*
X693360D01*
Y736141D01*
X693850D01*
Y735651D01*
X695322D01*
Y735161D01*
X695812D01*
Y734670D01*
X696793D01*
Y734180D01*
X697773D01*
Y733690D01*
X698754D01*
Y733199D01*
X699244D01*
Y732709D01*
X700715D01*
Y732218D01*
X701696D01*
Y731728D01*
X702677D01*
Y731238D01*
X704148D01*
Y730747D01*
X705129D01*
Y730257D01*
X706109D01*
Y729767D01*
X706600D01*
Y729276D01*
X707580D01*
Y728786D01*
X709052D01*
Y728296D01*
X711503D01*
Y728786D01*
X712974D01*
Y729276D01*
X713465D01*
Y731728D01*
X713955D01*
Y739083D01*
X713465D01*
Y741045D01*
X712484D01*
Y742026D01*
X711994D01*
Y742516D01*
X711503D01*
Y743006D01*
X711013D01*
Y743497D01*
X710523D01*
Y743987D01*
X710032D01*
Y744477D01*
X709052D01*
Y744968D01*
X708561D01*
Y745458D01*
X707090D01*
Y745949D01*
X705619D01*
Y746439D01*
X704638D01*
Y746929D01*
X703658D01*
Y747420D01*
X702187D01*
Y747910D01*
X701206D01*
Y748400D01*
X699735D01*
Y748891D01*
X698264D01*
Y749381D01*
X696793D01*
Y749872D01*
X695812D01*
Y750362D01*
X693850D01*
Y750852D01*
X692379D01*
Y751343D01*
X690908D01*
Y751833D01*
X689437D01*
Y752323D01*
X687966D01*
Y752814D01*
X686495D01*
Y753304D01*
X685024D01*
Y753794D01*
D02*
G37*
G36*
X629613Y745949D02*
X626181D01*
Y745458D01*
X625690D01*
Y744968D01*
X624710D01*
Y744477D01*
X624219D01*
Y743987D01*
X623238D01*
Y743497D01*
X622748D01*
Y743006D01*
X622258D01*
Y741535D01*
X622748D01*
Y741045D01*
X623238D01*
Y740064D01*
X623729D01*
Y739574D01*
X624219D01*
Y739083D01*
X625200D01*
Y738593D01*
X625690D01*
Y738103D01*
X626671D01*
Y737613D01*
X627652D01*
Y737122D01*
X628142D01*
Y737613D01*
X628632D01*
Y737122D01*
X629613D01*
Y736632D01*
X630594D01*
Y736141D01*
X632065D01*
Y735651D01*
X634026D01*
Y735161D01*
X634517D01*
Y735651D01*
X635988D01*
Y736141D01*
X637949D01*
Y736632D01*
X638440D01*
Y737613D01*
X638930D01*
Y738593D01*
X639420D01*
Y739574D01*
X639911D01*
Y740064D01*
X639420D01*
Y742026D01*
X638930D01*
Y742516D01*
X638440D01*
Y743006D01*
X637949D01*
Y743497D01*
X637459D01*
Y743987D01*
X636478D01*
Y744477D01*
X635007D01*
Y744968D01*
X633046D01*
Y745458D01*
X629613D01*
Y745949D01*
D02*
G37*
%LPD*%
G36*
X512907Y729276D02*
Y728296D01*
X513397D01*
Y717508D01*
X512907D01*
Y716527D01*
X512417D01*
Y716037D01*
X511436D01*
Y715546D01*
X510946D01*
Y715056D01*
X509965D01*
Y714566D01*
X509475D01*
Y714075D01*
X508494D01*
Y713585D01*
X508004D01*
Y713094D01*
X507023D01*
Y712114D01*
X506533D01*
Y711623D01*
X505552D01*
Y711133D01*
X505061D01*
Y710643D01*
X504571D01*
Y710152D01*
X503590D01*
Y709662D01*
X503100D01*
Y709172D01*
X502610D01*
Y708681D01*
X502119D01*
Y708191D01*
X501138D01*
Y707700D01*
X500648D01*
Y707210D01*
X499667D01*
Y706720D01*
X499177D01*
Y706229D01*
X498687D01*
Y705739D01*
X498196D01*
Y705249D01*
X497706D01*
Y704758D01*
X496725D01*
Y704268D01*
X496235D01*
Y703777D01*
X495745D01*
Y703287D01*
X495254D01*
Y702797D01*
X494764D01*
Y702307D01*
X493783D01*
Y701816D01*
X490841D01*
Y702307D01*
X489860D01*
Y702797D01*
X488880D01*
Y703287D01*
X488389D01*
Y703777D01*
X487408D01*
Y704268D01*
X486918D01*
Y704758D01*
X486428D01*
Y705249D01*
X485937D01*
Y705739D01*
X485447D01*
Y706720D01*
X484957D01*
Y707210D01*
X485447D01*
Y709662D01*
X485937D01*
Y710152D01*
X486428D01*
Y711133D01*
X486918D01*
Y712114D01*
X487408D01*
Y713094D01*
X487899D01*
Y713585D01*
X488389D01*
Y714566D01*
X488880D01*
Y715546D01*
X489370D01*
Y716527D01*
X489860D01*
Y717508D01*
X490350D01*
Y717998D01*
X490841D01*
Y718979D01*
X491822D01*
Y719959D01*
X492312D01*
Y720940D01*
X492802D01*
Y721921D01*
X493293D01*
Y722411D01*
X493783D01*
Y723392D01*
X494273D01*
Y723882D01*
X494764D01*
Y724373D01*
X495254D01*
Y724863D01*
X495745D01*
Y725844D01*
X496235D01*
Y726334D01*
X496725D01*
Y726824D01*
X498687D01*
Y727315D01*
X500648D01*
Y727805D01*
X502119D01*
Y728296D01*
X504081D01*
Y728786D01*
X505061D01*
Y728296D01*
X505552D01*
Y728786D01*
X507023D01*
Y729276D01*
X509965D01*
Y729767D01*
X512907D01*
Y729276D01*
D02*
G37*
%LPC*%
G36*
X511926Y728296D02*
X508984D01*
Y727805D01*
X507023D01*
Y727315D01*
X505061D01*
Y726824D01*
X503100D01*
Y726334D01*
X502119D01*
Y725844D01*
X500158D01*
Y725353D01*
X497706D01*
Y724863D01*
X497216D01*
Y723882D01*
X496725D01*
Y723392D01*
X496235D01*
Y722902D01*
X495745D01*
Y722411D01*
X495254D01*
Y721921D01*
X494764D01*
Y720940D01*
X494273D01*
Y719959D01*
X493783D01*
Y718979D01*
X493293D01*
Y717998D01*
X492802D01*
Y717508D01*
X492312D01*
Y716527D01*
X491822D01*
Y716037D01*
X491331D01*
Y715056D01*
X490841D01*
Y714566D01*
X490350D01*
Y713585D01*
X489860D01*
Y712604D01*
X489370D01*
Y712114D01*
X488880D01*
Y711133D01*
X488389D01*
Y710152D01*
X487899D01*
Y709172D01*
X487408D01*
Y708191D01*
X486918D01*
Y706720D01*
X487408D01*
Y706229D01*
X487899D01*
Y705739D01*
X488389D01*
Y705249D01*
X489370D01*
Y704758D01*
X489860D01*
Y704268D01*
X490841D01*
Y703777D01*
X491822D01*
Y703287D01*
X492802D01*
Y703777D01*
X493293D01*
Y704268D01*
X494273D01*
Y704758D01*
Y705249D01*
X494764D01*
Y705739D01*
X495745D01*
Y706229D01*
X496235D01*
Y706720D01*
X496725D01*
Y707210D01*
X497706D01*
Y707700D01*
X498196D01*
Y708191D01*
X498687D01*
Y708681D01*
X499177D01*
Y709172D01*
X500158D01*
Y709662D01*
X500648D01*
Y710152D01*
X501138D01*
Y710643D01*
X501629D01*
Y711133D01*
X502610D01*
Y711623D01*
X503100D01*
Y712114D01*
X503590D01*
Y712604D01*
X504571D01*
Y713094D01*
X505061D01*
Y713585D01*
X505552D01*
Y714075D01*
X506042D01*
Y714566D01*
X507023D01*
Y715056D01*
X508004D01*
Y715546D01*
X508494D01*
Y716037D01*
X509475D01*
Y716527D01*
X509965D01*
Y717017D01*
X510455D01*
Y717508D01*
X511436D01*
Y718488D01*
X511926D01*
Y727315D01*
X511436D01*
Y727805D01*
X511926D01*
Y728296D01*
D02*
G37*
%LPD*%
G36*
X608528Y662587D02*
X609018D01*
Y661607D01*
X608528D01*
Y660626D01*
X607057D01*
Y656703D01*
X607547D01*
Y652290D01*
X608037D01*
Y647386D01*
X607547D01*
Y645915D01*
X611470D01*
Y646405D01*
X614412D01*
Y646896D01*
X618825D01*
Y646405D01*
X620787D01*
Y645915D01*
X622258D01*
Y645425D01*
X623238D01*
Y644934D01*
X625200D01*
Y644444D01*
X626181D01*
Y643953D01*
X627161D01*
Y643463D01*
X627652D01*
Y642973D01*
X628142D01*
Y642482D01*
X629123D01*
Y641992D01*
X629613D01*
Y641502D01*
X630103D01*
Y641011D01*
X630594D01*
Y640521D01*
X631575D01*
Y640031D01*
X632065D01*
Y639540D01*
X632555D01*
Y638559D01*
X633046D01*
Y638069D01*
X633536D01*
Y637579D01*
X634026D01*
Y636598D01*
X634517D01*
Y635617D01*
X635007D01*
Y634146D01*
X635497D01*
Y632675D01*
X635988D01*
Y631694D01*
X636478D01*
Y630223D01*
X636968D01*
Y628752D01*
X637459D01*
Y627281D01*
X637949D01*
Y625810D01*
X638440D01*
Y621397D01*
X638930D01*
Y617474D01*
X638440D01*
Y615022D01*
X637949D01*
Y614041D01*
X637459D01*
Y613061D01*
X636968D01*
Y612080D01*
X636478D01*
Y611099D01*
X635988D01*
Y610119D01*
X635497D01*
Y609138D01*
X635007D01*
Y607667D01*
X634517D01*
Y607176D01*
X634026D01*
Y606686D01*
X633536D01*
Y606196D01*
X633046D01*
Y605705D01*
X632065D01*
Y605215D01*
X631575D01*
Y604725D01*
X630594D01*
Y604234D01*
X629613D01*
Y603744D01*
X628632D01*
Y603254D01*
X627652D01*
Y602763D01*
X626181D01*
Y602273D01*
X625200D01*
Y601782D01*
X624219D01*
Y601292D01*
X622748D01*
Y600802D01*
X614412D01*
Y600311D01*
X610489D01*
Y600802D01*
X609018D01*
Y601292D01*
X607547D01*
Y601782D01*
X606566D01*
Y602273D01*
X605585D01*
Y602763D01*
X604605D01*
Y603254D01*
X603624D01*
Y603744D01*
X603134D01*
Y604234D01*
X602643D01*
Y604725D01*
X601662D01*
Y605215D01*
X601172D01*
Y605705D01*
X600191D01*
Y606196D01*
X599701D01*
Y606686D01*
X599211D01*
Y607176D01*
X598720D01*
Y607667D01*
X598230D01*
Y608157D01*
X597740D01*
Y609138D01*
X597249D01*
Y609628D01*
X596759D01*
Y610119D01*
X595778D01*
Y611590D01*
X595288D01*
Y612080D01*
X594798D01*
Y613061D01*
X594307D01*
Y614532D01*
X593817D01*
Y615513D01*
X593326D01*
Y616984D01*
X592836D01*
Y618945D01*
X592346D01*
Y620416D01*
X591855D01*
Y629733D01*
X592346D01*
Y631204D01*
X592836D01*
Y631694D01*
X593326D01*
Y632675D01*
X593817D01*
Y634637D01*
X592346D01*
Y635127D01*
X591365D01*
Y635617D01*
X590384D01*
Y636108D01*
X589894D01*
Y636598D01*
X589403D01*
Y637088D01*
X588913D01*
Y637579D01*
X588423D01*
Y638069D01*
X587932D01*
Y639050D01*
X587442D01*
Y640031D01*
X586952D01*
Y641011D01*
X586461D01*
Y642973D01*
X585971D01*
Y645425D01*
X585481D01*
Y655232D01*
X584500D01*
Y654741D01*
X582538D01*
Y655232D01*
X582048D01*
Y656703D01*
X582538D01*
Y657193D01*
X583029D01*
Y657684D01*
X585481D01*
Y658174D01*
X585971D01*
Y657684D01*
X586952D01*
Y658174D01*
X588913D01*
Y658664D01*
X590875D01*
Y659155D01*
X593326D01*
Y659645D01*
X595288D01*
Y660135D01*
X596759D01*
Y660626D01*
X599211D01*
Y661116D01*
X600682D01*
Y661607D01*
X602153D01*
Y662097D01*
X603624D01*
Y662587D01*
X604114D01*
Y662097D01*
X604605D01*
Y662587D01*
X607057D01*
Y663078D01*
X608528D01*
Y662587D01*
D02*
G37*
G36*
X628632Y664058D02*
X650208D01*
Y663568D01*
X658054D01*
Y663078D01*
X658544D01*
Y661116D01*
X656583D01*
Y661607D01*
X653641D01*
Y661116D01*
X654131D01*
Y658664D01*
X654622D01*
Y655722D01*
X655112D01*
Y647386D01*
X654622D01*
Y644934D01*
X654131D01*
Y643953D01*
X653641D01*
Y642973D01*
X653150D01*
Y641992D01*
X652660D01*
Y641011D01*
X652170D01*
Y640521D01*
X651679D01*
Y640031D01*
X651189D01*
Y639540D01*
X650699D01*
Y639050D01*
X650208D01*
Y638559D01*
X649718D01*
Y638069D01*
X648737D01*
Y637579D01*
X641382D01*
Y638069D01*
X639420D01*
Y638559D01*
X637949D01*
Y639050D01*
X637459D01*
Y639540D01*
X636478D01*
Y640031D01*
X635988D01*
Y640521D01*
X635007D01*
Y641011D01*
X634517D01*
Y641992D01*
X634026D01*
Y642482D01*
X633536D01*
Y643463D01*
X633046D01*
Y644444D01*
X632555D01*
Y644934D01*
X632065D01*
Y645915D01*
X631575D01*
Y646896D01*
X631084D01*
Y648857D01*
X630594D01*
Y651309D01*
X630103D01*
Y661116D01*
X630594D01*
Y661607D01*
X630103D01*
Y662097D01*
X627161D01*
Y662587D01*
X626671D01*
Y663078D01*
X626181D01*
Y663568D01*
X626671D01*
Y664549D01*
X628632D01*
Y664058D01*
D02*
G37*
%LPC*%
G36*
X604605Y659645D02*
X603624D01*
Y659155D01*
X602153D01*
Y658664D01*
X600191D01*
Y658174D01*
X599211D01*
Y652780D01*
X598720D01*
Y652290D01*
X597249D01*
Y652780D01*
X596759D01*
Y653270D01*
X596269D01*
Y656212D01*
X595778D01*
Y657684D01*
X594798D01*
Y657193D01*
X592346D01*
Y656703D01*
X590384D01*
Y656212D01*
X588423D01*
Y655722D01*
X587442D01*
Y646405D01*
X587932D01*
Y644934D01*
X588423D01*
Y642973D01*
X588913D01*
Y641502D01*
X589403D01*
Y641011D01*
X589894D01*
Y640031D01*
X590384D01*
Y639050D01*
X590875D01*
Y638559D01*
X591365D01*
Y638069D01*
X591855D01*
Y637579D01*
X592836D01*
Y637088D01*
X593326D01*
Y637579D01*
X593817D01*
Y637088D01*
X594798D01*
Y636598D01*
X595288D01*
Y637088D01*
X595778D01*
Y638069D01*
X596269D01*
Y638559D01*
X596759D01*
Y639050D01*
X597249D01*
Y640031D01*
X598230D01*
Y640521D01*
X598720D01*
Y641011D01*
X599211D01*
Y641502D01*
X599701D01*
Y641992D01*
X600191D01*
Y642482D01*
X601172D01*
Y642973D01*
X601662D01*
Y643463D01*
X602643D01*
Y643953D01*
X603624D01*
Y644444D01*
X604605D01*
Y646405D01*
X605095D01*
Y648367D01*
X605585D01*
Y650818D01*
X605095D01*
Y654741D01*
Y655232D01*
X604605D01*
Y659645D01*
D02*
G37*
G36*
X617354Y644934D02*
X616864D01*
Y644444D01*
X612941D01*
Y643953D01*
X610979D01*
Y643463D01*
X608037D01*
Y642973D01*
X606566D01*
Y642482D01*
X605585D01*
Y641992D01*
X604605D01*
Y641502D01*
X603624D01*
Y641011D01*
X602643D01*
Y640521D01*
X602153D01*
Y640031D01*
X601662D01*
Y639540D01*
X600682D01*
Y639050D01*
X600191D01*
Y638559D01*
X599701D01*
Y637579D01*
X599211D01*
Y637088D01*
X598720D01*
Y636598D01*
X598230D01*
Y636108D01*
X597740D01*
Y635617D01*
X597249D01*
Y634637D01*
X596759D01*
Y633656D01*
X596269D01*
Y632675D01*
X595778D01*
Y631204D01*
X595288D01*
Y629733D01*
X594798D01*
Y628262D01*
X594307D01*
Y621397D01*
X594798D01*
Y619435D01*
X595288D01*
Y617964D01*
X595778D01*
Y617474D01*
X595288D01*
Y616493D01*
X595778D01*
Y615513D01*
X596269D01*
Y614532D01*
X596759D01*
Y614041D01*
X597249D01*
Y613061D01*
X597740D01*
Y612080D01*
X598230D01*
Y611590D01*
X598720D01*
Y611099D01*
X599211D01*
Y610609D01*
X599701D01*
Y610119D01*
X600191D01*
Y609628D01*
X600682D01*
Y609138D01*
X601172D01*
Y608647D01*
X601662D01*
Y608157D01*
X602153D01*
Y607667D01*
X602643D01*
Y607176D01*
X603134D01*
Y606686D01*
X603624D01*
Y606196D01*
X604114D01*
Y605705D01*
X605095D01*
Y605215D01*
X606076D01*
Y604725D01*
X608528D01*
Y604234D01*
X609999D01*
Y603744D01*
X610979D01*
Y603254D01*
X619806D01*
Y603744D01*
X621767D01*
Y604234D01*
X623238D01*
Y604725D01*
X626181D01*
Y605215D01*
X626671D01*
Y605705D01*
X628142D01*
Y606196D01*
X629123D01*
Y606686D01*
X629613D01*
Y607176D01*
X630103D01*
Y607667D01*
X630594D01*
Y608157D01*
X631575D01*
Y608647D01*
X632065D01*
Y609138D01*
X632555D01*
Y610119D01*
X633046D01*
Y611099D01*
X633536D01*
Y611590D01*
X634026D01*
Y612570D01*
X634517D01*
Y613551D01*
X635007D01*
Y614532D01*
X635497D01*
Y616493D01*
X635988D01*
Y618455D01*
X636478D01*
Y619926D01*
X635988D01*
Y624339D01*
X635497D01*
Y626791D01*
X635007D01*
Y629243D01*
X634517D01*
Y630223D01*
X634026D01*
Y630714D01*
X633536D01*
Y632185D01*
X633046D01*
Y633656D01*
X632555D01*
Y634637D01*
X632065D01*
Y635617D01*
X631575D01*
Y636598D01*
X631084D01*
Y637088D01*
X630594D01*
Y638069D01*
X630103D01*
Y638559D01*
X629613D01*
Y639050D01*
X629123D01*
Y639540D01*
X628142D01*
Y640031D01*
X627652D01*
Y640521D01*
X626671D01*
Y641011D01*
X626181D01*
Y641502D01*
X625200D01*
Y641992D01*
X624219D01*
Y642482D01*
X623238D01*
Y642973D01*
X621767D01*
Y643463D01*
X620787D01*
Y643953D01*
X619806D01*
Y644444D01*
X617354D01*
Y644934D01*
D02*
G37*
%LPD*%
G36*
X607547Y626301D02*
X608528D01*
Y625810D01*
X609018D01*
Y624829D01*
X609508D01*
Y622378D01*
X609018D01*
Y621397D01*
X608037D01*
Y620906D01*
X605585D01*
Y621397D01*
X604605D01*
Y621887D01*
X604114D01*
Y625320D01*
X604605D01*
Y625810D01*
X605095D01*
Y626301D01*
X605585D01*
Y626791D01*
X607547D01*
Y626301D01*
D02*
G37*
%LPC*%
G36*
X648737Y662097D02*
X643834D01*
Y657684D01*
X643343D01*
Y655722D01*
X642853D01*
Y655232D01*
X641382D01*
Y655722D01*
X640891D01*
Y656212D01*
X640401D01*
Y659645D01*
X639911D01*
Y662097D01*
X632555D01*
Y659645D01*
X632065D01*
Y653270D01*
X632555D01*
Y650818D01*
X633046D01*
Y648857D01*
X633536D01*
Y647876D01*
X634026D01*
Y646896D01*
X634517D01*
Y645915D01*
X635007D01*
Y644934D01*
X635497D01*
Y643953D01*
X635988D01*
Y643463D01*
X636478D01*
Y642482D01*
X637459D01*
Y641992D01*
X637949D01*
Y641502D01*
X638440D01*
Y641011D01*
X639420D01*
Y640521D01*
X640401D01*
Y640031D01*
X640891D01*
Y640521D01*
X641382D01*
Y640031D01*
X641872D01*
Y640521D01*
X642363D01*
Y640031D01*
X646776D01*
Y640521D01*
X647266D01*
Y640031D01*
X648247D01*
Y640521D01*
X648737D01*
Y641011D01*
X649228D01*
Y641502D01*
X649718D01*
Y641992D01*
X650208D01*
Y642973D01*
X650699D01*
Y643463D01*
X651189D01*
Y644444D01*
X651679D01*
Y645915D01*
X652170D01*
Y646896D01*
X652660D01*
Y649838D01*
X653150D01*
Y652290D01*
X652660D01*
Y653270D01*
X653150D01*
Y653761D01*
X652660D01*
Y657193D01*
X652170D01*
Y660135D01*
X651679D01*
Y661607D01*
X648737D01*
Y662097D01*
D02*
G37*
%LPD*%
G36*
X449651Y578245D02*
X450141D01*
Y577755D01*
X450631D01*
Y577264D01*
X451122D01*
Y576774D01*
X451612D01*
Y576284D01*
X452102D01*
Y575793D01*
X452593D01*
Y574813D01*
X453083D01*
Y573341D01*
X453573D01*
Y571870D01*
X454064D01*
Y561082D01*
X454554D01*
Y560592D01*
X454064D01*
Y556179D01*
X454554D01*
Y555689D01*
X454064D01*
Y553727D01*
X453573D01*
Y553237D01*
Y552746D01*
Y551766D01*
X453083D01*
Y549804D01*
X452593D01*
Y548333D01*
X452102D01*
Y547352D01*
X451612D01*
Y546372D01*
X451122D01*
Y545391D01*
X450631D01*
Y544901D01*
X450141D01*
Y544410D01*
X449651D01*
Y543920D01*
X449160D01*
Y543429D01*
X448670D01*
Y542939D01*
X446708D01*
Y542449D01*
X443766D01*
Y542939D01*
X443276D01*
Y542449D01*
X442785D01*
Y542939D01*
X442295D01*
Y543429D01*
X441805D01*
Y543920D01*
X441314D01*
Y544410D01*
X440824D01*
Y545391D01*
X440334D01*
Y546372D01*
X439843D01*
Y546862D01*
X439353D01*
Y547843D01*
X438863D01*
Y548823D01*
X438372D01*
Y550785D01*
X437882D01*
Y552256D01*
X437392D01*
Y553727D01*
X436901D01*
Y564025D01*
X437392D01*
Y565496D01*
X437882D01*
Y566967D01*
X438372D01*
Y568928D01*
X438863D01*
Y569419D01*
X439353D01*
Y570399D01*
X439843D01*
Y571380D01*
X440334D01*
Y572851D01*
X440824D01*
Y574322D01*
X441314D01*
Y574813D01*
X441805D01*
Y575793D01*
X442295D01*
Y576284D01*
X442785D01*
Y576774D01*
X443276D01*
Y577264D01*
X443766D01*
Y577755D01*
X444257D01*
Y578245D01*
X445728D01*
Y578736D01*
X449651D01*
Y578245D01*
D02*
G37*
%LPC*%
G36*
X449160Y575793D02*
X447199D01*
Y575303D01*
X446218D01*
Y574813D01*
X445237D01*
Y574322D01*
X444257D01*
Y573832D01*
X443766D01*
Y573341D01*
X443276D01*
Y572361D01*
X442785D01*
Y571380D01*
X442295D01*
Y569909D01*
X441805D01*
Y568928D01*
X441314D01*
Y567948D01*
X440824D01*
Y565986D01*
X440334D01*
Y565005D01*
X439843D01*
Y563044D01*
X439353D01*
Y555689D01*
X439843D01*
Y552746D01*
X440334D01*
Y551275D01*
X440824D01*
Y549804D01*
X441314D01*
Y547843D01*
X441805D01*
Y546862D01*
X442295D01*
Y546372D01*
X442785D01*
Y545881D01*
X443276D01*
Y545391D01*
X443766D01*
Y544901D01*
X446708D01*
Y545391D01*
X447689D01*
Y545881D01*
X448180D01*
Y546372D01*
X448670D01*
Y546862D01*
X449160D01*
Y547843D01*
X449651D01*
Y548823D01*
X450141D01*
Y549314D01*
X449651D01*
Y549804D01*
X450141D01*
Y550785D01*
X450631D01*
Y552746D01*
X451122D01*
Y554708D01*
X451612D01*
Y557160D01*
X452102D01*
Y561082D01*
X452593D01*
Y565496D01*
X452102D01*
Y568928D01*
X451612D01*
Y571380D01*
X451122D01*
Y572851D01*
X450631D01*
Y573832D01*
X450141D01*
Y574322D01*
X449651D01*
Y575303D01*
X449160D01*
Y575793D01*
D02*
G37*
%LPD*%
G36*
X769856Y561573D02*
X772798D01*
Y561082D01*
X774760D01*
Y560592D01*
X775741D01*
Y560102D01*
X776721D01*
Y559611D01*
X777212D01*
Y559121D01*
X777702D01*
Y558631D01*
X778193D01*
Y558140D01*
X778683D01*
Y557650D01*
X779173D01*
Y557160D01*
X779664D01*
Y556669D01*
X780154D01*
Y555689D01*
X780644D01*
Y554708D01*
X781135D01*
Y553727D01*
X781625D01*
Y552746D01*
X782115D01*
Y552256D01*
X782606D01*
Y550294D01*
X783096D01*
Y549314D01*
X783587D01*
Y548823D01*
Y548333D01*
Y546862D01*
X784077D01*
Y546372D01*
X784567D01*
Y543920D01*
X785058D01*
Y537055D01*
X784567D01*
Y534113D01*
X784077D01*
Y532641D01*
X783587D01*
Y531661D01*
X783096D01*
Y531170D01*
X782606D01*
Y530190D01*
X782115D01*
Y529209D01*
X781625D01*
Y528719D01*
X781135D01*
Y527738D01*
X780644D01*
Y527248D01*
X780154D01*
Y526757D01*
X779664D01*
Y526267D01*
X779173D01*
Y525776D01*
X778193D01*
Y524796D01*
X776721D01*
Y523815D01*
X775741D01*
Y523325D01*
X774760D01*
Y522834D01*
X772798D01*
Y522344D01*
X771328D01*
Y521854D01*
X764462D01*
Y522344D01*
X762011D01*
Y522834D01*
X759559D01*
Y523325D01*
X758578D01*
Y523815D01*
X758088D01*
Y524305D01*
X757597D01*
Y524796D01*
X756617D01*
Y525286D01*
X756126D01*
Y525776D01*
X755636D01*
Y526267D01*
X755145D01*
Y526757D01*
X754165D01*
Y527248D01*
X753674D01*
Y527738D01*
X753184D01*
Y528719D01*
X752694D01*
Y529209D01*
X752203D01*
Y530190D01*
X751713D01*
Y530680D01*
X751223D01*
Y531661D01*
X750732D01*
Y533132D01*
X750242D01*
Y535093D01*
X749752D01*
Y538526D01*
X749261D01*
Y541958D01*
X749752D01*
Y545881D01*
X750242D01*
Y547843D01*
X750732D01*
Y548823D01*
X751223D01*
Y550294D01*
X751713D01*
Y551275D01*
X752203D01*
Y552256D01*
X752694D01*
Y553237D01*
X753184D01*
Y553727D01*
X753674D01*
Y554217D01*
X754165D01*
Y554708D01*
X754655D01*
Y555198D01*
X755145D01*
Y555689D01*
X755636D01*
Y556179D01*
X756126D01*
Y556669D01*
X757107D01*
Y557160D01*
X757597D01*
Y557650D01*
X758088D01*
Y558140D01*
X759068D01*
Y558631D01*
X759559D01*
Y559121D01*
X760049D01*
Y559611D01*
X760539D01*
Y560102D01*
X761520D01*
Y560592D01*
X762501D01*
Y561082D01*
X764953D01*
Y561573D01*
X765934D01*
Y562063D01*
X769856D01*
Y561573D01*
D02*
G37*
%LPC*%
G36*
X768385Y560102D02*
X767405D01*
Y559611D01*
X766424D01*
Y559121D01*
X764953D01*
Y558631D01*
X763482D01*
Y558140D01*
X762991D01*
Y557650D01*
X762011D01*
Y557160D01*
X761520D01*
Y556669D01*
X760539D01*
Y556179D01*
X759559D01*
Y555689D01*
X759068D01*
Y555198D01*
X758578D01*
Y554708D01*
X757597D01*
Y554217D01*
X757107D01*
Y553727D01*
X756617D01*
Y553237D01*
X756126D01*
Y552746D01*
X755636D01*
Y552256D01*
X755145D01*
Y551766D01*
X754655D01*
Y550785D01*
X754165D01*
Y550294D01*
X754655D01*
Y549804D01*
X754165D01*
Y549314D01*
X753674D01*
Y547843D01*
X753184D01*
Y546862D01*
X752694D01*
Y545391D01*
X752203D01*
Y543920D01*
X751713D01*
Y540487D01*
X751223D01*
Y539507D01*
X751713D01*
Y537545D01*
X752203D01*
Y535093D01*
X752694D01*
Y534113D01*
X753184D01*
Y533132D01*
X753674D01*
Y532151D01*
X754165D01*
Y530680D01*
X754655D01*
Y530190D01*
X755145D01*
Y529699D01*
X756126D01*
Y529209D01*
X756617D01*
Y528719D01*
X757107D01*
Y528228D01*
X757597D01*
Y527248D01*
X758578D01*
Y526757D01*
X759559D01*
Y526267D01*
X760539D01*
Y525776D01*
X761520D01*
Y525286D01*
X764953D01*
Y524796D01*
X765934D01*
Y524305D01*
X768385D01*
Y524796D01*
X773779D01*
Y525286D01*
X774760D01*
Y525776D01*
X775250D01*
Y526267D01*
X775741D01*
Y526757D01*
X776231D01*
Y527248D01*
X776721D01*
Y527738D01*
X777702D01*
Y528228D01*
X778193D01*
Y529209D01*
X778683D01*
Y529699D01*
X779173D01*
Y530190D01*
X779664D01*
Y530680D01*
X780154D01*
Y531661D01*
X780644D01*
Y532641D01*
X781135D01*
Y533622D01*
X781625D01*
Y535093D01*
X782115D01*
Y543920D01*
X781625D01*
Y545391D01*
X781135D01*
Y548823D01*
X780644D01*
Y550294D01*
X780154D01*
Y551766D01*
X779664D01*
Y552256D01*
X779173D01*
Y553237D01*
X778683D01*
Y554217D01*
X778193D01*
Y555198D01*
X777702D01*
Y555689D01*
X777212D01*
Y556179D01*
X776721D01*
Y556669D01*
X776231D01*
Y557160D01*
X775741D01*
Y557650D01*
X774760D01*
Y558140D01*
X773779D01*
Y558631D01*
X772798D01*
Y559121D01*
X771328D01*
Y559611D01*
X768385D01*
Y560102D01*
D02*
G37*
G36*
X109537Y337046D02*
X107895D01*
Y336667D01*
X107769D01*
Y336414D01*
X107516D01*
Y336035D01*
X107263D01*
Y335782D01*
X107137D01*
Y335403D01*
X106884D01*
Y335024D01*
X106631D01*
Y334771D01*
X106505D01*
Y334645D01*
X106252D01*
Y334140D01*
X106000D01*
Y334013D01*
X105873D01*
Y333760D01*
X105621D01*
Y333129D01*
X104989D01*
Y333760D01*
X104862D01*
Y334013D01*
X104610D01*
Y334771D01*
X104231D01*
Y335403D01*
X103978D01*
Y335782D01*
X103852D01*
Y336035D01*
X103599D01*
Y336667D01*
X103346D01*
Y337046D01*
X99429D01*
Y336414D01*
X99682D01*
Y335782D01*
X99935D01*
Y335656D01*
X100061D01*
Y335024D01*
X100314D01*
Y334771D01*
X100440D01*
Y334392D01*
X100693D01*
Y333760D01*
X100946D01*
Y333508D01*
X101072D01*
Y333129D01*
X101325D01*
Y332497D01*
X101451D01*
Y332371D01*
X101577D01*
Y332118D01*
X101704D01*
Y331739D01*
X101956D01*
Y331107D01*
X102083D01*
Y330602D01*
X101956D01*
Y328580D01*
X101704D01*
Y327317D01*
X104989D01*
Y327569D01*
X105241D01*
Y329970D01*
X105368D01*
Y330475D01*
X105494D01*
Y330602D01*
X105621D01*
Y331233D01*
X105873D01*
Y331739D01*
X106000D01*
Y331865D01*
X106252D01*
Y332244D01*
X106505D01*
Y332497D01*
X106631D01*
Y332750D01*
X106884D01*
Y333129D01*
X107137D01*
Y333382D01*
X107263D01*
Y333760D01*
X107516D01*
Y334140D01*
X107895D01*
Y334519D01*
X108148D01*
Y335024D01*
X108527D01*
Y335403D01*
X108779D01*
Y335782D01*
X108906D01*
Y336035D01*
X109158D01*
Y336414D01*
X109411D01*
Y336667D01*
X109537D01*
Y337046D01*
D02*
G37*
G36*
X107516Y329212D02*
X106631D01*
Y328959D01*
X107516D01*
Y329212D01*
D02*
G37*
G36*
X107895Y328833D02*
X107516D01*
Y328580D01*
X107895D01*
Y328833D01*
D02*
G37*
G36*
X107769Y328327D02*
X107642D01*
Y328201D01*
Y327948D01*
X107769D01*
Y328327D01*
D02*
G37*
G36*
X107137Y328580D02*
X106631D01*
Y328201D01*
X106884D01*
Y327948D01*
X107137D01*
Y328075D01*
Y328580D01*
D02*
G37*
G36*
X106126D02*
X106000D01*
Y327696D01*
X106252D01*
Y328454D01*
X106126D01*
Y328580D01*
D02*
G37*
G36*
X107263Y327569D02*
X106252D01*
Y327317D01*
X107263D01*
Y327569D01*
D02*
G37*
G36*
X94502Y337046D02*
X91216D01*
Y336161D01*
X90964D01*
Y334519D01*
X90837D01*
Y333508D01*
X90585D01*
Y330854D01*
X90332D01*
Y329970D01*
X90206D01*
Y327948D01*
X89953D01*
Y327317D01*
X97660D01*
Y327569D01*
X97787D01*
Y328833D01*
X97660D01*
Y328959D01*
X93491D01*
Y329212D01*
X93617D01*
Y329465D01*
X93743D01*
Y329844D01*
X93870D01*
Y332118D01*
X94122D01*
Y333887D01*
X94249D01*
Y334771D01*
X94502D01*
Y337046D01*
D02*
G37*
G36*
X88563D02*
X80856D01*
Y336919D01*
X80729D01*
Y336667D01*
X80477D01*
Y336414D01*
X80098D01*
Y336035D01*
X79845D01*
Y335403D01*
X79592D01*
Y335150D01*
X79466D01*
Y333129D01*
X79213D01*
Y331233D01*
X79087D01*
Y330602D01*
X78960D01*
Y330475D01*
X78834D01*
Y330223D01*
Y330096D01*
Y328580D01*
X79087D01*
Y328327D01*
X79213D01*
Y327948D01*
X79466D01*
Y327569D01*
X79845D01*
Y327317D01*
X87047D01*
Y327569D01*
X87679D01*
Y327948D01*
X87931D01*
Y328201D01*
X88310D01*
Y328833D01*
X88563D01*
Y329212D01*
X88689D01*
Y329844D01*
X88942D01*
Y332244D01*
X89068D01*
Y332750D01*
X89195D01*
Y333382D01*
X89321D01*
Y336035D01*
X89195D01*
Y336414D01*
X88942D01*
Y336667D01*
X88689D01*
Y336793D01*
X88563D01*
Y337046D01*
D02*
G37*
G36*
X77570D02*
X69105D01*
Y335403D01*
X68979D01*
Y334771D01*
X68726D01*
Y332244D01*
X68473D01*
Y331107D01*
X68347D01*
Y329591D01*
X68094D01*
Y327317D01*
X71379D01*
Y328833D01*
X71632D01*
Y330854D01*
X76560D01*
Y331107D01*
X76939D01*
Y331233D01*
X77191D01*
Y331486D01*
X77570D01*
Y331865D01*
X77823D01*
Y332497D01*
X77950D01*
Y333129D01*
X78202D01*
Y336414D01*
X78076D01*
Y336667D01*
X77823D01*
Y336793D01*
X77570D01*
Y337046D01*
D02*
G37*
G36*
X59249D02*
X55964D01*
Y336414D01*
X55711D01*
Y334392D01*
X55585D01*
Y333887D01*
X55459D01*
Y333508D01*
X55332D01*
Y331233D01*
X55080D01*
Y329212D01*
X54953D01*
Y328580D01*
X54827D01*
Y328327D01*
X54701D01*
Y327317D01*
X62282D01*
Y327822D01*
X62534D01*
Y328833D01*
X62155D01*
Y328959D01*
X58365D01*
Y329844D01*
X58618D01*
Y332244D01*
X58744D01*
Y332750D01*
X58870D01*
Y333382D01*
X58997D01*
Y335403D01*
X59249D01*
Y337046D01*
D02*
G37*
G36*
X50531D02*
X46867D01*
Y336414D01*
X46614D01*
Y336035D01*
X46488D01*
Y335782D01*
X46235D01*
Y335403D01*
X45982D01*
Y335024D01*
X45856D01*
Y334771D01*
X45603D01*
Y334140D01*
X45224D01*
Y333508D01*
X44972D01*
Y333129D01*
X44592D01*
Y332497D01*
X44340D01*
Y332118D01*
X44214D01*
Y331865D01*
X43961D01*
Y331233D01*
X43708D01*
Y331107D01*
X43582D01*
Y330854D01*
X43329D01*
Y330223D01*
X42950D01*
Y329591D01*
X42697D01*
Y329212D01*
X42571D01*
Y328959D01*
X42318D01*
Y328327D01*
X42066D01*
Y328201D01*
X41939D01*
Y327948D01*
X41687D01*
Y327317D01*
X43203D01*
Y327569D01*
X43329D01*
Y327948D01*
X43582D01*
Y328580D01*
X43961D01*
Y329212D01*
X44214D01*
Y329591D01*
X44340D01*
Y329844D01*
X44592D01*
Y329970D01*
X44719D01*
Y330096D01*
X48509D01*
Y329970D01*
X48762D01*
Y329844D01*
X48889D01*
Y329212D01*
X49141D01*
Y327948D01*
X49268D01*
Y327822D01*
X49394D01*
Y327569D01*
X49520D01*
Y327317D01*
X53058D01*
Y327948D01*
X52805D01*
Y328833D01*
X52679D01*
Y329212D01*
X52426D01*
Y330475D01*
X52174D01*
Y330854D01*
X52047D01*
Y331865D01*
X51795D01*
Y332876D01*
X51668D01*
Y333129D01*
X51416D01*
Y334392D01*
X51163D01*
Y335403D01*
X50910D01*
Y335656D01*
X50784D01*
Y336793D01*
X50531D01*
Y337046D01*
D02*
G37*
G36*
X41939D02*
X35116D01*
Y336667D01*
X34864D01*
Y336414D01*
X34484D01*
Y336035D01*
X34232D01*
Y335656D01*
X34105D01*
Y335024D01*
X33853D01*
Y332750D01*
X33726D01*
Y332497D01*
X33600D01*
Y331865D01*
X33474D01*
Y329844D01*
X33221D01*
Y328833D01*
X33474D01*
Y328201D01*
X33600D01*
Y327948D01*
X33853D01*
Y327569D01*
X34484D01*
Y327317D01*
X41055D01*
Y328833D01*
X40928D01*
Y328959D01*
X36759D01*
Y331107D01*
X36885D01*
Y331486D01*
X37011D01*
Y331865D01*
X37138D01*
Y334013D01*
X37390D01*
Y335403D01*
X37769D01*
Y335782D01*
X41939D01*
Y337046D01*
D02*
G37*
%LPD*%
G36*
X85657Y335403D02*
X86036D01*
Y334140D01*
X85910D01*
Y333760D01*
X85783D01*
Y333382D01*
X85657D01*
Y330854D01*
X85404D01*
Y329338D01*
X85278D01*
Y329212D01*
X85025D01*
Y328959D01*
X82372D01*
Y329338D01*
X82119D01*
Y329465D01*
X82372D01*
Y331107D01*
X82498D01*
Y331233D01*
Y332118D01*
X82751D01*
Y334519D01*
X82877D01*
Y334771D01*
X83004D01*
Y335150D01*
X83130D01*
Y335403D01*
X83383D01*
Y335656D01*
X83509D01*
Y335782D01*
X85657D01*
Y335403D01*
D02*
G37*
G36*
X74538Y335656D02*
X74664D01*
Y335403D01*
X74917D01*
Y334140D01*
X74664D01*
Y333129D01*
Y333002D01*
Y332876D01*
X74538D01*
Y332497D01*
X72011D01*
Y334013D01*
X72264D01*
Y335656D01*
X72390D01*
Y335782D01*
X74538D01*
Y335656D01*
D02*
G37*
G36*
X47499Y334392D02*
X47625D01*
Y334140D01*
X47751D01*
Y334013D01*
X47878D01*
Y332876D01*
X48130D01*
Y332244D01*
X48257D01*
Y331739D01*
X48509D01*
Y331613D01*
X48257D01*
Y331486D01*
X45603D01*
Y332118D01*
X45856D01*
Y332371D01*
X45982D01*
Y332497D01*
X46235D01*
Y333129D01*
X46488D01*
Y333255D01*
Y333382D01*
Y333508D01*
X46614D01*
Y333760D01*
X46867D01*
Y334392D01*
X47120D01*
Y334519D01*
X47246D01*
Y334771D01*
X47499D01*
Y334392D01*
D02*
G37*
%LPC*%
G36*
X140115Y336161D02*
X139862D01*
Y335782D01*
X139736D01*
Y335656D01*
X139483D01*
Y335403D01*
Y335277D01*
Y335024D01*
X139230D01*
Y334771D01*
X139104D01*
Y334392D01*
X138851D01*
Y333760D01*
X138598D01*
Y333508D01*
X138472D01*
Y333129D01*
X138219D01*
Y332497D01*
X137840D01*
Y331865D01*
X137588D01*
Y331486D01*
X141505D01*
Y332118D01*
X141378D01*
Y332497D01*
X141125D01*
Y333760D01*
X140873D01*
Y334140D01*
X140746D01*
Y334771D01*
X140494D01*
Y336035D01*
X140115D01*
Y336161D01*
D02*
G37*
G36*
X123183Y337677D02*
X119646D01*
Y336667D01*
X119519D01*
Y336035D01*
X119393D01*
Y335782D01*
X119267D01*
Y335150D01*
Y335024D01*
Y334140D01*
X122931D01*
Y334519D01*
X123183D01*
Y336667D01*
X123310D01*
Y337046D01*
X123436D01*
Y337298D01*
X123183D01*
Y337677D01*
D02*
G37*
G36*
X191287Y321378D02*
X190024D01*
Y321125D01*
X189645D01*
Y320999D01*
X189392D01*
Y319104D01*
X189645D01*
Y318851D01*
X189771D01*
Y318598D01*
X190024D01*
Y318472D01*
X190150D01*
Y318219D01*
X190403D01*
Y317840D01*
X190655D01*
Y317208D01*
X190403D01*
Y316829D01*
X189771D01*
Y316956D01*
X189645D01*
Y317208D01*
X189392D01*
Y317461D01*
X188760D01*
Y316829D01*
X189013D01*
Y316577D01*
X189139D01*
Y316198D01*
X190655D01*
Y316324D01*
X190782D01*
Y316577D01*
X191035D01*
Y316829D01*
X191287D01*
Y318219D01*
X191035D01*
Y318598D01*
X190908D01*
Y318725D01*
X190782D01*
Y318851D01*
X190655D01*
Y319104D01*
X190403D01*
Y319356D01*
X190277D01*
Y319483D01*
X190024D01*
Y320746D01*
X190908D01*
Y320494D01*
X191035D01*
Y320115D01*
X191414D01*
Y320367D01*
X191666D01*
Y320999D01*
X191414D01*
Y321125D01*
X191287D01*
Y321378D01*
D02*
G37*
G36*
X161974D02*
X160710D01*
Y321125D01*
X160331D01*
Y320873D01*
X160078D01*
Y320367D01*
X159952D01*
Y320115D01*
X160078D01*
Y319104D01*
X160331D01*
Y318851D01*
X160584D01*
Y318725D01*
X160710D01*
Y318472D01*
X160963D01*
Y318219D01*
X161089D01*
Y317840D01*
X161342D01*
Y316956D01*
X161089D01*
Y316829D01*
X160331D01*
Y317461D01*
X159446D01*
Y317208D01*
X159699D01*
Y316450D01*
X159952D01*
Y316324D01*
X160078D01*
Y316198D01*
X161342D01*
Y316324D01*
X161468D01*
Y316450D01*
X161595D01*
Y316577D01*
X161721D01*
Y316829D01*
X161974D01*
Y317082D01*
Y317208D01*
Y318219D01*
X161721D01*
Y318598D01*
X161595D01*
Y318851D01*
X161342D01*
Y319104D01*
X161089D01*
Y319230D01*
X160963D01*
Y319483D01*
X160710D01*
Y320746D01*
X161595D01*
Y320494D01*
X161721D01*
Y320115D01*
X161974D01*
Y320241D01*
X162100D01*
Y320367D01*
X162353D01*
Y320999D01*
X162226D01*
Y321125D01*
X161974D01*
Y321378D01*
D02*
G37*
G36*
X119519D02*
X118256D01*
Y321125D01*
X117877D01*
Y320999D01*
X117750D01*
Y320873D01*
X117624D01*
Y320746D01*
Y319104D01*
X118003D01*
Y318725D01*
X118256D01*
Y318472D01*
X118382D01*
Y318219D01*
X118635D01*
Y317840D01*
X118888D01*
Y317208D01*
X118635D01*
Y316829D01*
X118003D01*
Y317208D01*
X117750D01*
Y317461D01*
X116992D01*
Y316956D01*
X117245D01*
Y316577D01*
X117371D01*
Y316324D01*
X117624D01*
Y316198D01*
X119014D01*
Y316450D01*
X119267D01*
Y316829D01*
X119519D01*
Y316956D01*
X119646D01*
Y318093D01*
X119519D01*
Y318219D01*
X119267D01*
Y318725D01*
X119014D01*
Y318851D01*
X118888D01*
Y319104D01*
X118635D01*
Y319483D01*
X118382D01*
Y319736D01*
X118256D01*
Y320494D01*
X118382D01*
Y320746D01*
X119267D01*
Y320115D01*
X119646D01*
Y320367D01*
X119898D01*
Y320999D01*
X119646D01*
Y321125D01*
X119519D01*
Y321378D01*
D02*
G37*
G36*
X133544Y321504D02*
X133418D01*
Y321378D01*
X133292D01*
Y320746D01*
X133039D01*
Y319483D01*
X132913D01*
Y318219D01*
X132660D01*
Y318851D01*
X132407D01*
Y319483D01*
X132281D01*
Y320873D01*
X132028D01*
Y321378D01*
X131902D01*
Y321504D01*
X131396D01*
Y321378D01*
X131270D01*
Y321125D01*
X131017D01*
Y318219D01*
X130765D01*
Y317461D01*
X130638D01*
Y316198D01*
X131270D01*
Y316324D01*
X131396D01*
Y318093D01*
X131649D01*
Y319230D01*
X131776D01*
Y319483D01*
X131902D01*
Y319104D01*
X132028D01*
Y317840D01*
X132281D01*
Y316577D01*
X132407D01*
Y316324D01*
X132534D01*
Y316198D01*
X133292D01*
Y317588D01*
X133418D01*
Y317840D01*
X133544D01*
Y318472D01*
X133671D01*
Y320367D01*
X133924D01*
Y321378D01*
X133544D01*
Y321504D01*
D02*
G37*
G36*
X150476D02*
X150349D01*
Y321378D01*
X149970D01*
Y319862D01*
X149844D01*
Y319483D01*
X149718D01*
Y319230D01*
X149591D01*
Y317208D01*
X149338D01*
Y316956D01*
X149212D01*
Y316829D01*
X148707D01*
Y316956D01*
X148580D01*
Y317208D01*
X148328D01*
Y317461D01*
X148580D01*
Y317966D01*
Y318093D01*
Y319230D01*
X148707D01*
Y320115D01*
X148959D01*
Y321504D01*
X148328D01*
Y320746D01*
X148201D01*
Y320115D01*
X147949D01*
Y317588D01*
X147696D01*
Y316829D01*
X147949D01*
Y316450D01*
X148075D01*
Y316324D01*
X148201D01*
Y316198D01*
X149591D01*
Y316450D01*
X149718D01*
Y316577D01*
X149970D01*
Y316829D01*
X150223D01*
Y318472D01*
X150349D01*
Y318851D01*
X150476D01*
Y319104D01*
X150602D01*
Y321378D01*
X150476D01*
Y321504D01*
D02*
G37*
G36*
X204049D02*
X203796D01*
Y321378D01*
X203164D01*
Y321125D01*
X202785D01*
Y320746D01*
X202659D01*
Y320494D01*
X202533D01*
Y320367D01*
X202406D01*
Y318219D01*
X202153D01*
Y317208D01*
Y317082D01*
Y316577D01*
X202406D01*
Y316324D01*
X202533D01*
Y316198D01*
X204049D01*
Y316577D01*
X204428D01*
Y316956D01*
X204681D01*
Y318851D01*
X204807D01*
Y319483D01*
X205060D01*
Y320746D01*
X204807D01*
Y320999D01*
X204681D01*
Y321125D01*
X204428D01*
Y321378D01*
X204049D01*
Y321504D01*
D02*
G37*
G36*
X197479D02*
X196341D01*
Y321378D01*
X196215D01*
Y321125D01*
X195962D01*
Y319736D01*
X195836D01*
Y318598D01*
X195710D01*
Y318472D01*
X195583D01*
Y316198D01*
X196215D01*
Y317840D01*
X196594D01*
Y318219D01*
X197605D01*
Y318472D01*
X197858D01*
Y318851D01*
X198237D01*
Y320115D01*
X198489D01*
Y320746D01*
X198237D01*
Y321125D01*
X197858D01*
Y321378D01*
X197479D01*
Y321504D01*
D02*
G37*
G36*
X184717D02*
X184591D01*
Y321378D01*
X184212D01*
Y319230D01*
X184085D01*
Y318851D01*
X183959D01*
Y318598D01*
X183832D01*
Y316198D01*
X184464D01*
Y317840D01*
X184591D01*
Y318472D01*
X184843D01*
Y320115D01*
Y320241D01*
Y321378D01*
X184717D01*
Y321504D01*
D02*
G37*
G36*
X178526D02*
X177641D01*
Y321378D01*
X177388D01*
Y320494D01*
X177262D01*
Y319230D01*
X177010D01*
Y316829D01*
X176883D01*
Y316577D01*
X176757D01*
Y316324D01*
X177010D01*
Y316198D01*
X178905D01*
Y316577D01*
X179284D01*
Y317082D01*
X179536D01*
Y317461D01*
X179663D01*
Y318219D01*
X179536D01*
Y318472D01*
X179284D01*
Y319104D01*
X179536D01*
Y319483D01*
X179663D01*
Y320873D01*
X179536D01*
Y321125D01*
X179284D01*
Y321378D01*
X178526D01*
Y321504D01*
D02*
G37*
G36*
X172082D02*
X171829D01*
Y321378D01*
X171197D01*
Y321125D01*
X170818D01*
Y320494D01*
X170565D01*
Y320241D01*
X170439D01*
Y318219D01*
X170187D01*
Y316577D01*
X170439D01*
Y316324D01*
X170565D01*
Y316198D01*
X172082D01*
Y316577D01*
X172461D01*
Y317208D01*
X172714D01*
Y317335D01*
Y318598D01*
X172840D01*
Y319483D01*
X173093D01*
Y320746D01*
X172840D01*
Y320999D01*
X172714D01*
Y321125D01*
X172461D01*
Y321378D01*
X172082D01*
Y321504D01*
D02*
G37*
G36*
X155403D02*
X155151D01*
Y321125D01*
X154898D01*
Y320115D01*
X154771D01*
Y318219D01*
X154519D01*
Y318093D01*
Y317966D01*
Y316198D01*
X155151D01*
Y318093D01*
X155403D01*
Y318851D01*
X155530D01*
Y320746D01*
X155782D01*
Y321378D01*
X155403D01*
Y321504D01*
D02*
G37*
G36*
X142642D02*
X142136D01*
Y321125D01*
X142010D01*
Y320494D01*
X141884D01*
Y320115D01*
X141757D01*
Y317840D01*
X141505D01*
Y316198D01*
X143400D01*
Y316324D01*
X143526D01*
Y316829D01*
X143400D01*
Y316956D01*
X142136D01*
Y317461D01*
X142389D01*
Y319483D01*
X142515D01*
Y320367D01*
X142768D01*
Y321378D01*
X142642D01*
Y321504D01*
D02*
G37*
G36*
X126090D02*
X125205D01*
Y321378D01*
X125079D01*
Y321125D01*
X124826D01*
Y320115D01*
X124573D01*
Y319736D01*
X124447D01*
Y318851D01*
X124194D01*
Y317840D01*
X123942D01*
Y317588D01*
X123815D01*
Y316829D01*
X123563D01*
Y316198D01*
X124194D01*
Y316577D01*
X124447D01*
Y317208D01*
X124573D01*
Y317461D01*
X125458D01*
Y316198D01*
X126342D01*
Y316324D01*
X126469D01*
Y316577D01*
X126216D01*
Y318219D01*
X126090D01*
Y321504D01*
D02*
G37*
%LPD*%
G36*
X204049Y320367D02*
X204301D01*
Y320115D01*
X204175D01*
Y319862D01*
X204049D01*
Y317588D01*
X203796D01*
Y316956D01*
X203670D01*
Y316829D01*
X203038D01*
Y317208D01*
X202785D01*
Y318093D01*
X203038D01*
Y319483D01*
X203164D01*
Y320367D01*
X203417D01*
Y320746D01*
X204049D01*
Y320367D01*
D02*
G37*
G36*
X197479Y320494D02*
X197605D01*
Y319230D01*
X197479D01*
Y319104D01*
X197226D01*
Y318851D01*
X196594D01*
Y319736D01*
Y319862D01*
Y320494D01*
X196847D01*
Y320746D01*
X197479D01*
Y320494D01*
D02*
G37*
G36*
X178652D02*
X178905D01*
Y320241D01*
Y320115D01*
X179031D01*
Y319862D01*
X178905D01*
Y319483D01*
X178652D01*
Y319230D01*
X178526D01*
Y319104D01*
X178020D01*
Y320494D01*
X178273D01*
Y320746D01*
X178652D01*
Y320494D01*
D02*
G37*
G36*
Y317840D02*
X178905D01*
Y317588D01*
X178652D01*
Y317208D01*
X178273D01*
Y316956D01*
X177641D01*
Y317840D01*
Y317966D01*
Y318219D01*
X177768D01*
Y318472D01*
X178652D01*
Y317840D01*
D02*
G37*
G36*
X172082Y320367D02*
X172208D01*
Y319862D01*
X172082D01*
Y317714D01*
Y317588D01*
X171829D01*
Y316956D01*
X171703D01*
Y316829D01*
X171071D01*
Y316956D01*
X170818D01*
Y318093D01*
X171071D01*
Y319483D01*
X171197D01*
Y320367D01*
X171450D01*
Y320746D01*
X172082D01*
Y320367D01*
D02*
G37*
G36*
X125458Y317966D02*
X124826D01*
Y318851D01*
X125079D01*
Y319104D01*
Y319230D01*
X125205D01*
Y320115D01*
X125458D01*
Y317966D01*
D02*
G37*
D14*
X201509Y295967D02*
X208280D01*
Y285810D01*
X201509D01*
X208280Y290888D02*
X204894D01*
X198123Y285810D02*
X194738D01*
X196430D01*
Y295967D01*
X198123D01*
X189659Y285810D02*
X186274D01*
X187967D01*
Y292581D01*
X189659D01*
X181195Y282424D02*
X179503D01*
X177810Y284117D01*
Y292581D01*
X169346D02*
X165960D01*
X164268Y290888D01*
Y285810D01*
X169346D01*
X171039Y287503D01*
X169346Y289195D01*
X164268D01*
X160882Y295967D02*
Y285810D01*
Y290888D01*
X159189Y292581D01*
X155804D01*
X154111Y290888D01*
Y285810D01*
X133797Y294274D02*
X135490Y295967D01*
X138876D01*
X140569Y294274D01*
Y287503D01*
X138876Y285810D01*
X135490D01*
X133797Y287503D01*
Y290888D01*
X137183D01*
X128719Y285810D02*
X125333D01*
X123641Y287503D01*
Y290888D01*
X125333Y292581D01*
X128719D01*
X130412Y290888D01*
Y287503D01*
X128719Y285810D01*
X120255Y292581D02*
Y285810D01*
Y289195D01*
X118562Y290888D01*
X116869Y292581D01*
X115177D01*
X103327Y295967D02*
Y285810D01*
X108406D01*
X110098Y287503D01*
Y290888D01*
X108406Y292581D01*
X103327D01*
X98249Y285810D02*
X94863D01*
X93170Y287503D01*
Y290888D01*
X94863Y292581D01*
X98249D01*
X99942Y290888D01*
Y287503D01*
X98249Y285810D01*
X89785D02*
Y292581D01*
X84706D01*
X83014Y290888D01*
Y285810D01*
X208280Y264140D02*
Y274297D01*
X203202D01*
X201509Y272604D01*
Y269219D01*
X203202Y267526D01*
X208280D01*
X196430Y264140D02*
X193045D01*
X191352Y265833D01*
Y269219D01*
X193045Y270911D01*
X196430D01*
X198123Y269219D01*
Y265833D01*
X196430Y264140D01*
X187967Y270911D02*
Y265833D01*
X186274Y264140D01*
X184581Y265833D01*
X182888Y264140D01*
X181195Y265833D01*
Y270911D01*
X172731Y264140D02*
X176117D01*
X177810Y265833D01*
Y269219D01*
X176117Y270911D01*
X172731D01*
X171039Y269219D01*
Y267526D01*
X177810D01*
X167653Y270911D02*
Y264140D01*
Y267526D01*
X165960Y269219D01*
X164268Y270911D01*
X162575D01*
X145647D02*
X142261D01*
X140569Y269219D01*
Y264140D01*
X145647D01*
X147340Y265833D01*
X145647Y267526D01*
X140569D01*
X137183Y264140D02*
Y270911D01*
X132105D01*
X130412Y269219D01*
Y264140D01*
X120255Y274297D02*
Y264140D01*
X125333D01*
X127026Y265833D01*
Y269219D01*
X125333Y270911D01*
X120255D01*
X208280Y245856D02*
Y256013D01*
X204894Y252627D01*
X201509Y256013D01*
Y245856D01*
X196430D02*
X193045D01*
X191352Y247549D01*
Y250935D01*
X193045Y252627D01*
X196430D01*
X198123Y250935D01*
Y247549D01*
X196430Y245856D01*
X186274Y254320D02*
Y252627D01*
X187967D01*
X184581D01*
X186274D01*
Y247549D01*
X184581Y245856D01*
X177810D02*
X174424D01*
X172731Y247549D01*
Y250935D01*
X174424Y252627D01*
X177810D01*
X179503Y250935D01*
Y247549D01*
X177810Y245856D01*
X169346Y252627D02*
Y245856D01*
Y249242D01*
X167653Y250935D01*
X165960Y252627D01*
X164268D01*
X201509Y234343D02*
X206587D01*
X208280Y232651D01*
Y229265D01*
X206587Y227572D01*
X201509D01*
X196430D02*
X193045D01*
X191352Y229265D01*
Y232651D01*
X193045Y234343D01*
X196430D01*
X198123Y232651D01*
Y229265D01*
X196430Y227572D01*
X187967D02*
Y234343D01*
X182888D01*
X181195Y232651D01*
Y227572D01*
X176117Y236036D02*
Y234343D01*
X177810D01*
X174424D01*
X176117D01*
Y229265D01*
X174424Y227572D01*
X169346Y234343D02*
Y227572D01*
Y230958D01*
X167653Y232651D01*
X165960Y234343D01*
X164268D01*
X157496Y227572D02*
X154111D01*
X152418Y229265D01*
Y232651D01*
X154111Y234343D01*
X157496D01*
X159189Y232651D01*
Y229265D01*
X157496Y227572D01*
X149032D02*
X145647D01*
X147340D01*
Y237729D01*
X149032D01*
X140569Y227572D02*
X137183D01*
X138876D01*
Y237729D01*
X140569D01*
X127026Y227572D02*
X130412D01*
X132105Y229265D01*
Y232651D01*
X130412Y234343D01*
X127026D01*
X125333Y232651D01*
Y230958D01*
X132105D01*
X121948Y234343D02*
Y227572D01*
Y230958D01*
X120255Y232651D01*
X118562Y234343D01*
X116869D01*
X208280Y219445D02*
Y209288D01*
X203202D01*
X201509Y210981D01*
Y212674D01*
Y214366D01*
X203202Y216059D01*
X208280D01*
X196430Y209288D02*
X193045D01*
X191352Y210981D01*
Y214366D01*
X193045Y216059D01*
X196430D01*
X198123Y214366D01*
Y210981D01*
X196430Y209288D01*
X186274Y216059D02*
X182888D01*
X181195Y214366D01*
Y209288D01*
X186274D01*
X187967Y210981D01*
X186274Y212674D01*
X181195D01*
X177810Y216059D02*
Y209288D01*
Y212674D01*
X176117Y214366D01*
X174424Y216059D01*
X172731D01*
X160882Y219445D02*
Y209288D01*
X165960D01*
X167653Y210981D01*
Y214366D01*
X165960Y216059D01*
X160882D01*
X208280Y191004D02*
Y201161D01*
X203202D01*
X201509Y199468D01*
Y196082D01*
X203202Y194390D01*
X208280D01*
X204894D02*
X201509Y191004D01*
X193045D02*
X196430D01*
X198123Y192697D01*
Y196082D01*
X196430Y197775D01*
X193045D01*
X191352Y196082D01*
Y194390D01*
X198123D01*
X187967Y197775D02*
X184581Y191004D01*
X181195Y197775D01*
X167653Y191004D02*
X164268D01*
X165960D01*
Y201161D01*
X167653Y199468D01*
X159189Y191004D02*
Y192697D01*
X157496D01*
Y191004D01*
X159189D01*
X150725Y199468D02*
X149032Y201161D01*
X145647D01*
X143954Y199468D01*
Y192697D01*
X145647Y191004D01*
X149032D01*
X150725Y192697D01*
Y199468D01*
X201509Y172720D02*
X208280D01*
X201509Y179491D01*
Y181184D01*
X203202Y182877D01*
X206587D01*
X208280Y181184D01*
X198123Y172720D02*
X191352Y179491D01*
X181195Y172720D02*
X187967D01*
X181195Y179491D01*
Y181184D01*
X182888Y182877D01*
X186274D01*
X187967Y181184D01*
X177810Y182877D02*
X171039D01*
Y181184D01*
X177810Y174413D01*
Y172720D01*
X167653D02*
X160882Y179491D01*
X150725Y172720D02*
X157496D01*
X150725Y179491D01*
Y181184D01*
X152418Y182877D01*
X155804D01*
X157496Y181184D01*
X147340D02*
X145647Y182877D01*
X142261D01*
X140569Y181184D01*
Y174413D01*
X142261Y172720D01*
X145647D01*
X147340Y174413D01*
Y181184D01*
X130412Y172720D02*
X137183D01*
X130412Y179491D01*
Y181184D01*
X132105Y182877D01*
X135490D01*
X137183Y181184D01*
X127026D02*
X125333Y182877D01*
X121948D01*
X120255Y181184D01*
Y179491D01*
X121948Y177798D01*
X123641D01*
X121948D01*
X120255Y176106D01*
Y174413D01*
X121948Y172720D01*
X125333D01*
X127026Y174413D01*
M02*
