G04*
G04 #@! TF.GenerationSoftware,Altium Limited,Altium Designer,22.10.1 (41)*
G04*
G04 Layer_Color=8421504*
%FSLAX44Y44*%
%MOMM*%
G71*
G04*
G04 #@! TF.SameCoordinates,E145AED0-6931-4EEB-B232-2A21EE6FFB4C*
G04*
G04*
G04 #@! TF.FilePolarity,Positive*
G04*
G01*
G75*
%ADD17R,1.4562X1.2546*%
%ADD18R,1.3500X0.9500*%
%ADD19R,0.7587X1.3082*%
%ADD20R,1.8161X0.5588*%
%ADD21R,0.9500X1.3500*%
%ADD22R,2.7042X0.7531*%
%ADD23R,1.2500X1.0000*%
D17*
X68580Y278136D02*
D03*
Y261620D02*
D03*
X71120Y204476D02*
D03*
Y187960D02*
D03*
X419100Y255264D02*
D03*
Y271780D02*
D03*
X421640Y201298D02*
D03*
Y184782D02*
D03*
X927100Y109858D02*
D03*
Y93342D02*
D03*
X774700Y137798D02*
D03*
Y121282D02*
D03*
D18*
X119380Y276740D02*
D03*
Y261740D02*
D03*
X121920Y200420D02*
D03*
Y185420D02*
D03*
X469900Y256660D02*
D03*
Y271660D02*
D03*
X474980Y198000D02*
D03*
Y183000D02*
D03*
D19*
X608953Y284480D02*
D03*
X262866Y205740D02*
D03*
X260326Y287020D02*
D03*
X620407Y205740D02*
D03*
X603873D02*
D03*
X625487Y284480D02*
D03*
X279400Y205740D02*
D03*
X276860Y287020D02*
D03*
X603873Y180340D02*
D03*
X620407D02*
D03*
X608953Y259080D02*
D03*
X625487D02*
D03*
X263513Y182880D02*
D03*
X280047D02*
D03*
X260973Y259080D02*
D03*
X277507D02*
D03*
D20*
X571563Y283210D02*
D03*
X226124Y207010D02*
D03*
X223584Y285750D02*
D03*
Y273050D02*
D03*
Y260350D02*
D03*
Y247650D02*
D03*
X172656D02*
D03*
Y260350D02*
D03*
Y273050D02*
D03*
Y285750D02*
D03*
X571563Y270510D02*
D03*
Y257810D02*
D03*
Y245110D02*
D03*
X520636D02*
D03*
Y257810D02*
D03*
Y270510D02*
D03*
Y283210D02*
D03*
X574104Y207010D02*
D03*
Y194310D02*
D03*
Y181610D02*
D03*
Y168910D02*
D03*
X523176D02*
D03*
Y181610D02*
D03*
Y194310D02*
D03*
Y207010D02*
D03*
X226124Y194310D02*
D03*
Y181610D02*
D03*
Y168910D02*
D03*
X175196D02*
D03*
Y181610D02*
D03*
Y194310D02*
D03*
Y207010D02*
D03*
D21*
X543800Y142240D02*
D03*
X558800D02*
D03*
X573920Y309880D02*
D03*
X558920D02*
D03*
X195700Y139700D02*
D03*
X210700D02*
D03*
X215660Y320040D02*
D03*
X200660D02*
D03*
D22*
X871220Y117350D02*
D03*
Y85850D02*
D03*
X848360Y370330D02*
D03*
Y401830D02*
D03*
X723900Y147830D02*
D03*
Y116330D02*
D03*
D23*
X792480Y373540D02*
D03*
Y393540D02*
D03*
M02*
