G04*
G04 #@! TF.GenerationSoftware,Altium Limited,Altium Designer,22.10.1 (41)*
G04*
G04 Layer_Color=0*
%FSLAX44Y44*%
%MOMM*%
G71*
G04*
G04 #@! TF.SameCoordinates,96092411-4BE1-4E5F-83DD-11E1D8B77A3F*
G04*
G04*
G04 #@! TF.FilePolarity,Positive*
G04*
G01*
G75*
%ADD86C,0.1000*%
D86*
X840740Y464900D02*
Y474900D01*
X835740Y469900D02*
X845740D01*
X911860Y566500D02*
Y576500D01*
X906860Y571500D02*
X916860D01*
X709140Y955210D02*
X719140D01*
X714140Y950210D02*
Y960210D01*
X899288Y845511D02*
Y855511D01*
X894288Y850511D02*
X904288D01*
X896620Y764620D02*
Y774620D01*
X891620Y769620D02*
X901620D01*
X795100Y939800D02*
X805100D01*
X800100Y934800D02*
Y944800D01*
X490300Y675640D02*
X500300D01*
X495300Y670640D02*
Y680640D01*
X782400Y769620D02*
X792400D01*
X787400Y764620D02*
Y774620D01*
X119380Y264240D02*
Y274240D01*
X114380Y269240D02*
X124380D01*
X121920Y187920D02*
Y197920D01*
X116920Y192920D02*
X126920D01*
X469900Y259160D02*
Y269160D01*
X464900Y264160D02*
X474900D01*
X474980Y185500D02*
Y195500D01*
X469980Y190500D02*
X479980D01*
X68580Y264878D02*
Y274878D01*
X63580Y269878D02*
X73580D01*
X71120Y191218D02*
Y201218D01*
X66120Y196218D02*
X76120D01*
X419100Y258522D02*
Y268522D01*
X414100Y263522D02*
X424100D01*
X421640Y188040D02*
Y198040D01*
X416640Y193040D02*
X426640D01*
X612140Y200740D02*
Y210740D01*
X607140Y205740D02*
X617140D01*
X551300Y137240D02*
Y147240D01*
X546300Y142240D02*
X556300D01*
X566420Y304880D02*
Y314880D01*
X561420Y309880D02*
X571420D01*
X271133Y200740D02*
Y210740D01*
X266133Y205740D02*
X276133D01*
X203200Y134700D02*
Y144700D01*
X198200Y139700D02*
X208200D01*
X208160Y315040D02*
Y325040D01*
X203160Y320040D02*
X213160D01*
X901780Y101600D02*
X911780D01*
X906780Y96600D02*
Y106600D01*
X866220Y101600D02*
X876220D01*
X871220Y96600D02*
Y106600D01*
X612140Y175340D02*
Y185340D01*
X607140Y180340D02*
X617140D01*
X617220Y254080D02*
Y264080D01*
X612220Y259080D02*
X622220D01*
X271780Y177880D02*
Y187880D01*
X266780Y182880D02*
X276780D01*
X269240Y254080D02*
Y264080D01*
X264240Y259080D02*
X274240D01*
X617220Y863680D02*
Y873680D01*
X612220Y868680D02*
X622220D01*
X716280Y863680D02*
Y873680D01*
X711280Y868680D02*
X721280D01*
X853520Y386080D02*
X863520D01*
X858520Y381080D02*
Y391080D01*
X815420Y383540D02*
X825420D01*
X820420Y378540D02*
Y388540D01*
X718900Y129540D02*
X728900D01*
X723900Y124540D02*
Y134540D01*
X772240Y134110D02*
X782240D01*
X777240Y129110D02*
Y139110D01*
M02*
