G04*
G04 #@! TF.GenerationSoftware,Altium Limited,Altium Designer,22.10.1 (41)*
G04*
G04 Layer_Color=16711935*
%FSLAX44Y44*%
%MOMM*%
G71*
G04*
G04 #@! TF.SameCoordinates,96092411-4BE1-4E5F-83DD-11E1D8B77A3F*
G04*
G04*
G04 #@! TF.FilePolarity,Negative*
G04*
G01*
G75*
%ADD28R,1.5500X1.5500*%
%ADD29C,1.5500*%
%ADD30C,1.3000*%
%ADD31R,1.3000X1.3000*%
%ADD32R,1.4000X1.4000*%
%ADD33C,1.4000*%
%ADD34C,1.1000*%
%ADD35R,1.4000X1.4000*%
%ADD36R,1.5500X1.5500*%
%ADD37C,5.2070*%
%ADD38C,1.6270*%
%ADD39C,1.6510*%
%ADD40C,2.3550*%
%ADD41C,3.1800*%
%ADD42R,2.3550X2.3550*%
%ADD43C,2.8500*%
%ADD44R,2.8500X2.8500*%
%ADD45R,2.8500X2.8500*%
%ADD46C,0.1500*%
%ADD47C,2.1082*%
%ADD48R,1.7500X1.7500*%
%ADD49C,1.7500*%
%ADD50C,1.5500*%
%ADD51R,1.5500X1.5500*%
%ADD52C,1.4500*%
%ADD53R,1.4500X1.4500*%
%ADD54R,1.9050X1.9050*%
%ADD55C,1.9050*%
%ADD56C,0.9628*%
%ADD57C,0.5564*%
%ADD58C,2.6900*%
%ADD59C,1.4200*%
D28*
X917500Y213360D02*
D03*
X825780Y254000D02*
D03*
D29*
X952500Y213360D02*
D03*
X860780Y254000D02*
D03*
X746760Y254560D02*
D03*
Y355880D02*
D03*
D30*
X865740Y469900D02*
D03*
X886860Y571500D02*
D03*
D31*
X815740Y469900D02*
D03*
X936860Y571500D02*
D03*
D32*
X739140Y949960D02*
D03*
X949288Y845261D02*
D03*
X946620Y764370D02*
D03*
X642220Y863430D02*
D03*
D33*
X714140Y949960D02*
D03*
X689140D02*
D03*
X849288Y845261D02*
D03*
X874288D02*
D03*
X899288D02*
D03*
X924288D02*
D03*
X846620Y764370D02*
D03*
X871620D02*
D03*
X896620D02*
D03*
X921620D02*
D03*
X805350Y914800D02*
D03*
Y939800D02*
D03*
X592220Y863430D02*
D03*
X617220D02*
D03*
D34*
X965288Y865261D02*
D03*
X962620Y784370D02*
D03*
D35*
X805350Y964800D02*
D03*
D36*
X746760Y289560D02*
D03*
Y390880D02*
D03*
D37*
X355600Y868680D02*
D03*
X431800D02*
D03*
X502920D02*
D03*
X63500Y871220D02*
D03*
X139700D02*
D03*
X215900D02*
D03*
X868680Y957580D02*
D03*
X944880D02*
D03*
X83434D02*
D03*
X159634D02*
D03*
X312420D02*
D03*
X236220D02*
D03*
X391160D02*
D03*
X467360D02*
D03*
X624840D02*
D03*
X548640D02*
D03*
D38*
X629920Y398780D02*
D03*
Y424180D02*
D03*
X604520D02*
D03*
X579120Y398780D02*
D03*
X604520D02*
D03*
X452120Y43180D02*
D03*
X477520D02*
D03*
X502920D02*
D03*
X528320D02*
D03*
X553720D02*
D03*
X579120D02*
D03*
X604520D02*
D03*
X629920D02*
D03*
X426720D02*
D03*
X655320D02*
D03*
X401320D02*
D03*
X452120Y424180D02*
D03*
X477520D02*
D03*
X502920D02*
D03*
X528320D02*
D03*
X553720D02*
D03*
X579120D02*
D03*
X426720Y398780D02*
D03*
X452120D02*
D03*
X477520D02*
D03*
X502920D02*
D03*
X528320D02*
D03*
X553720D02*
D03*
X289560Y401320D02*
D03*
Y426720D02*
D03*
X264160D02*
D03*
X238760Y401320D02*
D03*
X264160D02*
D03*
X111760Y45720D02*
D03*
X137160D02*
D03*
X162560D02*
D03*
X187960D02*
D03*
X213360D02*
D03*
X238760D02*
D03*
X264160D02*
D03*
X289560D02*
D03*
X86360D02*
D03*
X314960D02*
D03*
X60960D02*
D03*
X111760Y426720D02*
D03*
X137160D02*
D03*
X162560D02*
D03*
X187960D02*
D03*
X213360D02*
D03*
X238760D02*
D03*
X86360Y401320D02*
D03*
X111760D02*
D03*
X137160D02*
D03*
X162560D02*
D03*
X187960D02*
D03*
X213360D02*
D03*
D39*
X426720Y424180D02*
D03*
X86360Y426720D02*
D03*
D40*
X462280Y604570D02*
D03*
Y642670D02*
D03*
X741680Y718870D02*
D03*
Y642670D02*
D03*
D41*
X462280Y566470D02*
D03*
Y718870D02*
D03*
D42*
X741680Y566470D02*
D03*
D43*
X933460Y683260D02*
D03*
X886460D02*
D03*
X944880Y389900D02*
D03*
Y342900D02*
D03*
D44*
X839460Y683260D02*
D03*
D45*
X944880Y295900D02*
D03*
D46*
X27940Y937260D02*
D03*
X972820Y647700D02*
D03*
X347980Y469900D02*
D03*
X911860Y149860D02*
D03*
D47*
X340360Y586740D02*
D03*
Y526796D02*
D03*
X205740Y586740D02*
D03*
Y526796D02*
D03*
X73660Y588264D02*
D03*
Y528320D02*
D03*
X345440Y766064D02*
D03*
Y706120D02*
D03*
X213360Y766064D02*
D03*
Y706120D02*
D03*
X78740Y767080D02*
D03*
Y707136D02*
D03*
D48*
X927100Y45720D02*
D03*
D49*
X901700D02*
D03*
X876300D02*
D03*
D50*
X703780Y863430D02*
D03*
D51*
X728780D02*
D03*
D52*
X845820Y342740D02*
D03*
D53*
Y322740D02*
D03*
D54*
X726440Y40640D02*
D03*
D55*
X751840D02*
D03*
X777240D02*
D03*
D56*
X843280Y607060D02*
D03*
X812800Y594360D02*
D03*
X756920Y607060D02*
D03*
X660400Y698500D02*
D03*
X774700Y695960D02*
D03*
X652780Y744220D02*
D03*
X782320Y977900D02*
D03*
X899288Y868551D02*
D03*
X759460Y909320D02*
D03*
X490220Y279654D02*
D03*
X436880Y213360D02*
D03*
X647700Y723900D02*
D03*
X848360Y454660D02*
D03*
X838200Y596900D02*
D03*
X754380Y673100D02*
D03*
X589280Y624840D02*
D03*
X820420Y406400D02*
D03*
X858520D02*
D03*
X541020Y756920D02*
D03*
X502920Y441960D02*
D03*
X238760Y317500D02*
D03*
X208280Y271780D02*
D03*
X175260Y226060D02*
D03*
X342900Y83820D02*
D03*
X307340Y165100D02*
D03*
X142000Y200420D02*
D03*
X406400Y236220D02*
D03*
X132200Y289560D02*
D03*
X644488Y273494D02*
D03*
X641821Y228751D02*
D03*
X627380Y259080D02*
D03*
X622300Y180340D02*
D03*
X601980Y238760D02*
D03*
X588010Y194310D02*
D03*
X637540Y576580D02*
D03*
X820420Y353926D02*
D03*
X665480Y238760D02*
D03*
X896620Y195580D02*
D03*
X421640Y223520D02*
D03*
X251460D02*
D03*
Y271780D02*
D03*
X294640Y162560D02*
D03*
X308196Y88044D02*
D03*
X345440Y50800D02*
D03*
X660400Y774700D02*
D03*
X838200Y220980D02*
D03*
X393700Y878840D02*
D03*
X304800Y370840D02*
D03*
X378460D02*
D03*
X302260Y208280D02*
D03*
X469900Y241300D02*
D03*
X297180Y259080D02*
D03*
Y182880D02*
D03*
D57*
X736600Y937260D02*
D03*
X977900Y152400D02*
D03*
X965200Y127000D02*
D03*
X977900Y101600D02*
D03*
X965200Y76200D02*
D03*
X977900Y50800D02*
D03*
X965200Y25400D02*
D03*
X952500Y152400D02*
D03*
X939800Y127000D02*
D03*
X952500Y101600D02*
D03*
X939800Y76200D02*
D03*
X952500Y50800D02*
D03*
X939800Y25400D02*
D03*
X914400Y127000D02*
D03*
X927100Y101600D02*
D03*
X914400Y76200D02*
D03*
Y25400D02*
D03*
X889000Y127000D02*
D03*
Y76200D02*
D03*
X876300Y152400D02*
D03*
Y101600D02*
D03*
X850900Y152400D02*
D03*
X838200Y127000D02*
D03*
Y76200D02*
D03*
X850900Y50800D02*
D03*
X825500Y914400D02*
D03*
X812800Y889000D02*
D03*
Y127000D02*
D03*
X825500Y101600D02*
D03*
X812800Y76200D02*
D03*
X825500Y50800D02*
D03*
X787400Y889000D02*
D03*
X800100Y101600D02*
D03*
X774700Y965200D02*
D03*
Y863600D02*
D03*
X762000Y787400D02*
D03*
X774700Y762000D02*
D03*
X762000Y76200D02*
D03*
X749300Y965200D02*
D03*
Y812800D02*
D03*
X736600Y787400D02*
D03*
X749300Y762000D02*
D03*
X736600Y736600D02*
D03*
X749300Y101600D02*
D03*
X736600Y76200D02*
D03*
X711200Y838200D02*
D03*
Y76200D02*
D03*
X698500Y914400D02*
D03*
Y101600D02*
D03*
X685800Y76200D02*
D03*
X698500Y50800D02*
D03*
X673100Y965200D02*
D03*
X660400Y787400D02*
D03*
X673100Y152400D02*
D03*
X660400Y127000D02*
D03*
Y76200D02*
D03*
X673100Y50800D02*
D03*
X635000Y889000D02*
D03*
Y838200D02*
D03*
X647700Y762000D02*
D03*
X635000Y736600D02*
D03*
Y127000D02*
D03*
X622300Y914400D02*
D03*
X609600Y889000D02*
D03*
Y838200D02*
D03*
X622300Y609600D02*
D03*
Y101600D02*
D03*
X584200Y939800D02*
D03*
X596900Y914400D02*
D03*
X584200Y889000D02*
D03*
Y635000D02*
D03*
X596900Y609600D02*
D03*
Y152400D02*
D03*
X571500Y914400D02*
D03*
X558800Y685800D02*
D03*
X571500Y660400D02*
D03*
Y355600D02*
D03*
X558800Y330200D02*
D03*
X571500Y152400D02*
D03*
X558800Y127000D02*
D03*
X533400Y736600D02*
D03*
X546100Y711200D02*
D03*
X533400Y685800D02*
D03*
X546100Y660400D02*
D03*
Y355600D02*
D03*
X533400Y330200D02*
D03*
X520700Y609600D02*
D03*
Y355600D02*
D03*
Y304800D02*
D03*
Y152400D02*
D03*
X482600Y838200D02*
D03*
Y736600D02*
D03*
Y685800D02*
D03*
Y635000D02*
D03*
X495300Y609600D02*
D03*
Y355600D02*
D03*
X482600Y330200D02*
D03*
X495300Y304800D02*
D03*
X457200Y889000D02*
D03*
X469900Y863600D02*
D03*
X457200Y838200D02*
D03*
X469900Y812800D02*
D03*
X457200Y685800D02*
D03*
X469900Y660400D02*
D03*
Y355600D02*
D03*
X457200Y330200D02*
D03*
X469900Y304800D02*
D03*
X431800Y939800D02*
D03*
Y838200D02*
D03*
X444500Y812800D02*
D03*
X431800Y787400D02*
D03*
Y736600D02*
D03*
X444500Y711200D02*
D03*
X431800Y685800D02*
D03*
X444500Y660400D02*
D03*
X431800Y635000D02*
D03*
Y330200D02*
D03*
X444500Y304800D02*
D03*
X431800Y279400D02*
D03*
X419100Y812800D02*
D03*
X406400Y787400D02*
D03*
X419100Y711200D02*
D03*
Y609600D02*
D03*
Y355600D02*
D03*
X406400Y330200D02*
D03*
X419100Y304800D02*
D03*
X406400Y279400D02*
D03*
Y177800D02*
D03*
X381000Y889000D02*
D03*
Y787400D02*
D03*
Y736600D02*
D03*
X393700Y355600D02*
D03*
X381000Y330200D02*
D03*
X355600Y838200D02*
D03*
Y736600D02*
D03*
Y177800D02*
D03*
X342900Y965200D02*
D03*
X330200Y889000D02*
D03*
X317500Y914400D02*
D03*
X304800Y889000D02*
D03*
Y330200D02*
D03*
X279400Y939800D02*
D03*
X292100Y914400D02*
D03*
X254000Y787400D02*
D03*
Y736600D02*
D03*
Y635000D02*
D03*
X228600Y787400D02*
D03*
Y736600D02*
D03*
Y635000D02*
D03*
X241300Y609600D02*
D03*
X203200Y939800D02*
D03*
Y838200D02*
D03*
Y736600D02*
D03*
X190500Y965200D02*
D03*
X177800Y889000D02*
D03*
Y838200D02*
D03*
X190500Y762000D02*
D03*
X177800Y736600D02*
D03*
X190500Y711200D02*
D03*
X177800Y635000D02*
D03*
Y330200D02*
D03*
X152400Y685800D02*
D03*
X165100Y660400D02*
D03*
X152400Y635000D02*
D03*
Y330200D02*
D03*
Y177800D02*
D03*
X165100Y101600D02*
D03*
X127000Y939800D02*
D03*
X139700Y914400D02*
D03*
X127000Y838200D02*
D03*
Y787400D02*
D03*
Y736600D02*
D03*
Y685800D02*
D03*
X139700Y660400D02*
D03*
X127000Y330200D02*
D03*
Y228600D02*
D03*
X139700Y152400D02*
D03*
X127000Y127000D02*
D03*
X114300Y965200D02*
D03*
Y914400D02*
D03*
X101600Y889000D02*
D03*
Y838200D02*
D03*
X114300Y812800D02*
D03*
X101600Y787400D02*
D03*
Y736600D02*
D03*
X114300Y711200D02*
D03*
X101600Y685800D02*
D03*
X114300Y609600D02*
D03*
X101600Y330200D02*
D03*
Y228600D02*
D03*
Y177800D02*
D03*
X114300Y152400D02*
D03*
Y101600D02*
D03*
X101600Y76200D02*
D03*
X88900Y914400D02*
D03*
X76200Y838200D02*
D03*
X88900Y812800D02*
D03*
X76200Y787400D02*
D03*
Y736600D02*
D03*
X88900Y355600D02*
D03*
Y254000D02*
D03*
X76200Y228600D02*
D03*
Y177800D02*
D03*
Y127000D02*
D03*
X88900Y101600D02*
D03*
X76200Y76200D02*
D03*
X50800Y939800D02*
D03*
X63500Y914400D02*
D03*
X50800Y635000D02*
D03*
Y584200D02*
D03*
Y533400D02*
D03*
Y482600D02*
D03*
Y431800D02*
D03*
X63500Y355600D02*
D03*
Y152400D02*
D03*
Y101600D02*
D03*
X50800Y25400D02*
D03*
X38100Y965200D02*
D03*
Y914400D02*
D03*
X25400Y889000D02*
D03*
Y838200D02*
D03*
Y787400D02*
D03*
Y736600D02*
D03*
Y685800D02*
D03*
X38100Y660400D02*
D03*
X25400Y635000D02*
D03*
X38100Y609600D02*
D03*
X25400Y584200D02*
D03*
X38100Y558800D02*
D03*
X25400Y533400D02*
D03*
X38100Y508000D02*
D03*
X25400Y482600D02*
D03*
X38100Y457200D02*
D03*
X25400Y431800D02*
D03*
X38100Y406400D02*
D03*
X25400Y381000D02*
D03*
X38100Y355600D02*
D03*
X25400Y330200D02*
D03*
X38100Y304800D02*
D03*
X25400Y279400D02*
D03*
X38100Y254000D02*
D03*
X25400Y228600D02*
D03*
X38100Y203200D02*
D03*
X25400Y177800D02*
D03*
X38100Y152400D02*
D03*
X25400Y127000D02*
D03*
X38100Y101600D02*
D03*
X25400Y76200D02*
D03*
X38100Y50800D02*
D03*
X25400Y25400D02*
D03*
D58*
X959974Y478164D02*
D03*
X927100Y477520D02*
D03*
X926954Y445144D02*
D03*
X805180Y523240D02*
D03*
X530860Y566420D02*
D03*
X167640Y139700D02*
D03*
D59*
X664369Y283223D02*
D03*
M02*
