G04*
G04 #@! TF.GenerationSoftware,Altium Limited,Altium Designer,22.10.1 (41)*
G04*
G04 Layer_Color=32768*
%FSLAX44Y44*%
%MOMM*%
G71*
G04*
G04 #@! TF.SameCoordinates,96092411-4BE1-4E5F-83DD-11E1D8B77A3F*
G04*
G04*
G04 #@! TF.FilePolarity,Positive*
G04*
G01*
G75*
%ADD13C,0.1524*%
%ADD85C,0.0500*%
%ADD86C,0.1000*%
%ADD88C,0.0254*%
G36*
X141224Y762837D02*
Y711379D01*
X104469Y674624D01*
X53011D01*
X16256Y711379D01*
Y762837D01*
X53011Y799592D01*
X104469D01*
X141224Y762837D01*
D02*
G37*
G36*
X407924Y761821D02*
Y710363D01*
X371169Y673608D01*
X319711D01*
X282956Y710363D01*
Y761821D01*
X319711Y798576D01*
X371169D01*
X407924Y761821D01*
D02*
G37*
G36*
X275844D02*
Y710363D01*
X239089Y673608D01*
X187631D01*
X150876Y710363D01*
Y761821D01*
X187631Y798576D01*
X239089D01*
X275844Y761821D01*
D02*
G37*
G36*
X136144Y584021D02*
Y532563D01*
X99389Y495808D01*
X47931D01*
X11176Y532563D01*
Y584021D01*
X47931Y620776D01*
X99389D01*
X136144Y584021D01*
D02*
G37*
G36*
X402844Y582497D02*
Y531039D01*
X366089Y494284D01*
X314631D01*
X277876Y531039D01*
Y582497D01*
X314631Y619252D01*
X366089D01*
X402844Y582497D01*
D02*
G37*
G36*
X268224D02*
Y531039D01*
X231469Y494284D01*
X180011D01*
X143256Y531039D01*
Y582497D01*
X180011Y619252D01*
X231469D01*
X268224Y582497D01*
D02*
G37*
G36*
X220599Y291084D02*
X235204D01*
Y242316D01*
X220599D01*
Y239141D01*
X175641D01*
Y242316D01*
X161036D01*
Y291084D01*
X175641D01*
Y294259D01*
X220599D01*
Y291084D01*
D02*
G37*
G36*
X568579Y288544D02*
X583184D01*
Y239776D01*
X568579D01*
Y236601D01*
X523621D01*
Y239776D01*
X509016D01*
Y288544D01*
X523621D01*
Y291719D01*
X568579D01*
Y288544D01*
D02*
G37*
G36*
X571119Y212344D02*
X585724D01*
Y163576D01*
X571119D01*
Y160401D01*
X526161D01*
Y163576D01*
X511556D01*
Y212344D01*
X526161D01*
Y215519D01*
X571119D01*
Y212344D01*
D02*
G37*
G36*
X223139D02*
X237744D01*
Y163576D01*
X223139D01*
Y160401D01*
X178181D01*
Y163576D01*
X163576D01*
Y212344D01*
X178181D01*
Y215519D01*
X223139D01*
Y212344D01*
D02*
G37*
D13*
X161036Y242316D02*
X175641D01*
Y239141D02*
Y242316D01*
Y239141D02*
X220599D01*
Y242316D01*
X235204D01*
Y291084D01*
X220599D02*
X235204D01*
X220599D02*
Y294259D01*
X175641D02*
X220599D01*
X175641Y291084D02*
Y294259D01*
X161036Y291084D02*
X175641D01*
X161036Y242316D02*
Y291084D01*
X509016Y239776D02*
X523621D01*
Y236601D02*
Y239776D01*
Y236601D02*
X568579D01*
Y239776D01*
X583184D01*
Y288544D01*
X568579D02*
X583184D01*
X568579D02*
Y291719D01*
X523621D02*
X568579D01*
X523621Y288544D02*
Y291719D01*
X509016Y288544D02*
X523621D01*
X509016Y239776D02*
Y288544D01*
X511556Y163576D02*
X526161D01*
Y160401D02*
Y163576D01*
Y160401D02*
X571119D01*
Y163576D01*
X585724D01*
Y212344D01*
X571119D02*
X585724D01*
X571119D02*
Y215519D01*
X526161D02*
X571119D01*
X526161Y212344D02*
Y215519D01*
X511556Y212344D02*
X526161D01*
X511556Y163576D02*
Y212344D01*
X163576Y163576D02*
X178181D01*
Y160401D02*
Y163576D01*
Y160401D02*
X223139D01*
Y163576D01*
X237744D01*
Y212344D01*
X223139D02*
X237744D01*
X223139D02*
Y215519D01*
X178181D02*
X223139D01*
X178181Y212344D02*
Y215519D01*
X163576Y212344D02*
X178181D01*
X163576Y163576D02*
Y212344D01*
D85*
X976000Y213360D02*
G03*
X976000Y213360I-41000J0D01*
G01*
X884280Y254000D02*
G03*
X884280Y254000I-41000J0D01*
G01*
X787760Y272060D02*
G03*
X787760Y272060I-41000J0D01*
G01*
X871820Y332740D02*
G03*
X871820Y332740I-26000J0D01*
G01*
X787760Y373380D02*
G03*
X787760Y373380I-41000J0D01*
G01*
X778900Y823890D02*
X795900D01*
X778900Y796890D02*
X795900D01*
Y823890D01*
X778900Y796890D02*
Y823890D01*
X423780Y455970D02*
X769180D01*
X423780D02*
Y829270D01*
X769180D01*
Y455970D02*
Y829270D01*
X820460Y647760D02*
Y718760D01*
Y647760D02*
X952460D01*
Y718760D01*
X934960D02*
X952460D01*
X934960D02*
Y723760D01*
X837960D02*
X934960D01*
X837960Y718760D02*
Y723760D01*
X820460Y718760D02*
X837960D01*
X909380Y276900D02*
Y294400D01*
X904380D02*
X909380D01*
X904380D02*
Y391400D01*
X909380D01*
Y408900D01*
X980380D01*
Y276900D02*
Y408900D01*
X909380Y276900D02*
X980380D01*
X847200Y16220D02*
Y65220D01*
X956200Y16220D02*
Y65220D01*
X847200D02*
X956200D01*
X847200Y16220D02*
X956200D01*
D86*
X935000Y208360D02*
Y218360D01*
X930000Y213360D02*
X940000D01*
X843280Y249000D02*
Y259000D01*
X838280Y254000D02*
X848280D01*
X746760Y267060D02*
Y277060D01*
X741760Y272060D02*
X751760D01*
X787400Y805390D02*
Y815390D01*
X782400Y810390D02*
X792400D01*
X896700Y45720D02*
X906700D01*
X901700Y40720D02*
Y50720D01*
X845820Y327740D02*
Y337740D01*
X840820Y332740D02*
X850820D01*
X741760Y373380D02*
X751760D01*
X746760Y368380D02*
Y378380D01*
D88*
X277876Y531039D02*
X314631Y494284D01*
X366089D01*
X402844Y531039D01*
Y582497D01*
X366089Y619252D02*
X402844Y582497D01*
X314631Y619252D02*
X366089D01*
X277876Y582497D02*
X314631Y619252D01*
X277876Y531039D02*
Y582497D01*
X143256Y531039D02*
X180011Y494284D01*
X231469D01*
X268224Y531039D01*
Y582497D01*
X231469Y619252D02*
X268224Y582497D01*
X180011Y619252D02*
X231469D01*
X143256Y582497D02*
X180011Y619252D01*
X143256Y531039D02*
Y582497D01*
X11176Y532563D02*
X47931Y495808D01*
X99389D01*
X136144Y532563D01*
Y584021D01*
X99389Y620776D02*
X136144Y584021D01*
X47931Y620776D02*
X99389D01*
X11176Y584021D02*
X47931Y620776D01*
X11176Y532563D02*
Y584021D01*
X282956Y710363D02*
X319711Y673608D01*
X371169D01*
X407924Y710363D01*
Y761821D01*
X371169Y798576D02*
X407924Y761821D01*
X319711Y798576D02*
X371169D01*
X282956Y761821D02*
X319711Y798576D01*
X282956Y710363D02*
Y761821D01*
X150876Y710363D02*
X187631Y673608D01*
X239089D01*
X275844Y710363D01*
Y761821D01*
X239089Y798576D02*
X275844Y761821D01*
X187631Y798576D02*
X239089D01*
X150876Y761821D02*
X187631Y798576D01*
X150876Y710363D02*
Y761821D01*
X16256Y711379D02*
X53011Y674624D01*
X104469D01*
X141224Y711379D01*
Y762837D01*
X104469Y799592D02*
X141224Y762837D01*
X53011Y799592D02*
X104469D01*
X16256Y762837D02*
X53011Y799592D01*
X16256Y711379D02*
Y762837D01*
M02*
