G04*
G04 #@! TF.GenerationSoftware,Altium Limited,Altium Designer,23.0.1 (38)*
G04*
G04 Layer_Color=255*
%FSLAX25Y25*%
%MOIN*%
G70*
G04*
G04 #@! TF.SameCoordinates,88CA1221-A5B3-45BB-8031-3B943D831941*
G04*
G04*
G04 #@! TF.FilePolarity,Positive*
G04*
G01*
G75*
%ADD22C,0.07677*%
%ADD23R,0.07677X0.07677*%
%ADD24C,0.12992*%
%ADD25C,0.13000*%
%ADD26C,0.04232*%
%ADD27R,0.04232X0.04232*%
D22*
X386811Y245000D02*
D03*
X375000D02*
D03*
X363189D02*
D03*
X351378D02*
D03*
X339567D02*
D03*
X327756D02*
D03*
X315945D02*
D03*
X380906Y235157D02*
D03*
X369094D02*
D03*
X357283D02*
D03*
X345472D02*
D03*
X333661D02*
D03*
X321850D02*
D03*
X380906Y223346D02*
D03*
X369094D02*
D03*
X357283D02*
D03*
X345472D02*
D03*
X333661D02*
D03*
X321850D02*
D03*
X386811Y213504D02*
D03*
X375000D02*
D03*
X363189D02*
D03*
X351378D02*
D03*
X339567D02*
D03*
X327756D02*
D03*
X315945D02*
D03*
X258858Y245000D02*
D03*
X247047D02*
D03*
X235236D02*
D03*
X223425D02*
D03*
X211614D02*
D03*
X199803D02*
D03*
X187992D02*
D03*
X176181D02*
D03*
X164370D02*
D03*
X252953Y235157D02*
D03*
X241142D02*
D03*
X229331D02*
D03*
X217520D02*
D03*
X205709D02*
D03*
X193898D02*
D03*
X182087D02*
D03*
X170276D02*
D03*
X252953Y223346D02*
D03*
X241142D02*
D03*
X229331D02*
D03*
X217520D02*
D03*
X205709D02*
D03*
X193898D02*
D03*
X182087D02*
D03*
X170276D02*
D03*
X258858Y213504D02*
D03*
X247047D02*
D03*
X235236D02*
D03*
X223425D02*
D03*
X211614D02*
D03*
X199803D02*
D03*
X187992D02*
D03*
X176181D02*
D03*
D23*
X164370D02*
D03*
D24*
X415354Y270591D02*
D03*
X135827D02*
D03*
X287402D02*
D03*
D25*
X10000Y290000D02*
D03*
X540000Y10000D02*
D03*
Y290000D02*
D03*
X10000Y10000D02*
D03*
D26*
X55748Y54598D02*
D03*
Y62500D02*
D03*
Y70402D02*
D03*
Y78299D02*
D03*
Y86201D02*
D03*
Y94098D02*
D03*
Y102000D02*
D03*
Y109902D02*
D03*
Y117799D02*
D03*
Y125701D02*
D03*
Y133598D02*
D03*
X47874Y54598D02*
D03*
Y62500D02*
D03*
Y70402D02*
D03*
Y78299D02*
D03*
Y86201D02*
D03*
Y94098D02*
D03*
Y102000D02*
D03*
Y109902D02*
D03*
Y117799D02*
D03*
Y125701D02*
D03*
Y133598D02*
D03*
Y141500D02*
D03*
X40000Y54598D02*
D03*
Y62500D02*
D03*
Y70402D02*
D03*
Y78299D02*
D03*
Y86201D02*
D03*
Y94098D02*
D03*
Y102000D02*
D03*
Y109902D02*
D03*
Y117799D02*
D03*
Y125701D02*
D03*
Y133598D02*
D03*
X55748Y141500D02*
D03*
X63622D02*
D03*
Y94098D02*
D03*
Y86201D02*
D03*
Y78299D02*
D03*
Y70402D02*
D03*
Y62500D02*
D03*
Y54598D02*
D03*
Y102000D02*
D03*
Y109902D02*
D03*
Y117799D02*
D03*
Y125701D02*
D03*
Y133598D02*
D03*
X71496Y141500D02*
D03*
Y94098D02*
D03*
Y86201D02*
D03*
Y78299D02*
D03*
Y70402D02*
D03*
Y62500D02*
D03*
Y54598D02*
D03*
Y102000D02*
D03*
Y109902D02*
D03*
Y117799D02*
D03*
Y125701D02*
D03*
Y133598D02*
D03*
X490000D02*
D03*
Y125701D02*
D03*
Y117799D02*
D03*
Y109902D02*
D03*
Y102000D02*
D03*
Y94098D02*
D03*
Y86201D02*
D03*
Y78299D02*
D03*
Y70402D02*
D03*
X497874Y141500D02*
D03*
Y133598D02*
D03*
Y125701D02*
D03*
Y117799D02*
D03*
Y109902D02*
D03*
Y102000D02*
D03*
Y94098D02*
D03*
Y86201D02*
D03*
Y78299D02*
D03*
Y70402D02*
D03*
X505748Y141500D02*
D03*
Y133598D02*
D03*
Y125701D02*
D03*
Y117799D02*
D03*
Y109902D02*
D03*
Y102000D02*
D03*
Y94098D02*
D03*
Y86201D02*
D03*
Y78299D02*
D03*
Y70402D02*
D03*
Y62500D02*
D03*
X513622Y141500D02*
D03*
Y133598D02*
D03*
Y125701D02*
D03*
Y117799D02*
D03*
Y109902D02*
D03*
Y102000D02*
D03*
Y70402D02*
D03*
Y62500D02*
D03*
Y54598D02*
D03*
X521496Y141500D02*
D03*
Y133598D02*
D03*
Y125701D02*
D03*
Y117799D02*
D03*
Y109902D02*
D03*
Y102000D02*
D03*
Y94098D02*
D03*
Y86201D02*
D03*
Y54598D02*
D03*
Y62500D02*
D03*
Y70402D02*
D03*
Y78299D02*
D03*
X513622D02*
D03*
Y86201D02*
D03*
Y94098D02*
D03*
X505748Y54598D02*
D03*
X497874D02*
D03*
Y62500D02*
D03*
X490000Y54598D02*
D03*
Y62500D02*
D03*
X190000D02*
D03*
Y54598D02*
D03*
X197874Y62500D02*
D03*
Y54598D02*
D03*
X205748D02*
D03*
X213622Y94098D02*
D03*
Y86201D02*
D03*
Y78299D02*
D03*
X221496D02*
D03*
Y70402D02*
D03*
Y62500D02*
D03*
Y54598D02*
D03*
Y86201D02*
D03*
Y94098D02*
D03*
Y102000D02*
D03*
Y109902D02*
D03*
Y117799D02*
D03*
Y125701D02*
D03*
Y133598D02*
D03*
Y141500D02*
D03*
X213622Y54598D02*
D03*
Y62500D02*
D03*
Y70402D02*
D03*
Y102000D02*
D03*
Y109902D02*
D03*
Y117799D02*
D03*
Y125701D02*
D03*
Y133598D02*
D03*
Y141500D02*
D03*
X205748Y62500D02*
D03*
Y70402D02*
D03*
Y78299D02*
D03*
Y86201D02*
D03*
Y94098D02*
D03*
Y102000D02*
D03*
Y109902D02*
D03*
Y117799D02*
D03*
Y125701D02*
D03*
Y133598D02*
D03*
Y141500D02*
D03*
X197874Y70402D02*
D03*
Y78299D02*
D03*
Y86201D02*
D03*
Y94098D02*
D03*
Y102000D02*
D03*
Y109902D02*
D03*
Y117799D02*
D03*
Y125701D02*
D03*
Y133598D02*
D03*
Y141500D02*
D03*
X190000Y70402D02*
D03*
Y78299D02*
D03*
Y86201D02*
D03*
Y94098D02*
D03*
Y102000D02*
D03*
Y109902D02*
D03*
Y117799D02*
D03*
Y125701D02*
D03*
Y133598D02*
D03*
X340000D02*
D03*
Y125701D02*
D03*
Y117799D02*
D03*
Y109902D02*
D03*
Y102000D02*
D03*
Y94098D02*
D03*
Y86201D02*
D03*
Y78299D02*
D03*
Y70402D02*
D03*
X347874Y141500D02*
D03*
Y133598D02*
D03*
Y125701D02*
D03*
Y117799D02*
D03*
Y109902D02*
D03*
Y102000D02*
D03*
Y94098D02*
D03*
Y86201D02*
D03*
Y78299D02*
D03*
Y70402D02*
D03*
X355748Y141500D02*
D03*
Y133598D02*
D03*
Y125701D02*
D03*
Y117799D02*
D03*
Y109902D02*
D03*
Y102000D02*
D03*
Y94098D02*
D03*
Y86201D02*
D03*
Y78299D02*
D03*
Y70402D02*
D03*
Y62500D02*
D03*
X363622Y141500D02*
D03*
Y133598D02*
D03*
Y125701D02*
D03*
Y117799D02*
D03*
Y109902D02*
D03*
Y102000D02*
D03*
Y70402D02*
D03*
Y62500D02*
D03*
Y54598D02*
D03*
X371496Y141500D02*
D03*
Y133598D02*
D03*
Y125701D02*
D03*
Y117799D02*
D03*
Y109902D02*
D03*
Y102000D02*
D03*
Y94098D02*
D03*
Y86201D02*
D03*
Y54598D02*
D03*
Y62500D02*
D03*
Y70402D02*
D03*
Y78299D02*
D03*
X363622D02*
D03*
Y86201D02*
D03*
Y94098D02*
D03*
X355748Y54598D02*
D03*
X347874D02*
D03*
Y62500D02*
D03*
X340000Y54598D02*
D03*
Y62500D02*
D03*
D27*
X40000Y141500D02*
D03*
X490000D02*
D03*
X190000D02*
D03*
X340000D02*
D03*
M02*
