G04*
G04 #@! TF.GenerationSoftware,Altium Limited,Altium Designer,23.0.1 (38)*
G04*
G04 Layer_Physical_Order=2*
G04 Layer_Color=16711680*
%FSLAX25Y25*%
%MOIN*%
G70*
G04*
G04 #@! TF.SameCoordinates,88CA1221-A5B3-45BB-8031-3B943D831941*
G04*
G04*
G04 #@! TF.FilePolarity,Positive*
G04*
G01*
G75*
%ADD12C,0.01000*%
%ADD21C,0.00780*%
%ADD22C,0.07677*%
%ADD23R,0.07677X0.07677*%
%ADD24C,0.12992*%
%ADD25C,0.13000*%
%ADD26C,0.04232*%
%ADD27R,0.04232X0.04232*%
%ADD28C,0.05000*%
%ADD29C,0.02756*%
%ADD30C,0.01500*%
G36*
X550000D02*
X0D01*
Y300000D01*
X550000D01*
Y0D01*
D02*
G37*
%LPC*%
G36*
X540689Y297000D02*
X539311D01*
X537958Y296731D01*
X536684Y296203D01*
X535538Y295437D01*
X534563Y294462D01*
X533797Y293316D01*
X533269Y292042D01*
X533000Y290689D01*
Y289311D01*
X533269Y287958D01*
X533797Y286684D01*
X534563Y285538D01*
X535538Y284563D01*
X536684Y283797D01*
X537958Y283269D01*
X539311Y283000D01*
X540689D01*
X542042Y283269D01*
X543316Y283797D01*
X544462Y284563D01*
X545437Y285538D01*
X546203Y286684D01*
X546731Y287958D01*
X547000Y289311D01*
Y290689D01*
X546731Y292042D01*
X546203Y293316D01*
X545437Y294462D01*
X544462Y295437D01*
X543316Y296203D01*
X542042Y296731D01*
X540689Y297000D01*
D02*
G37*
G36*
X216978Y283498D02*
X146000D01*
Y274500D01*
X216978D01*
Y283498D01*
D02*
G37*
G36*
X10689Y297000D02*
X9311D01*
X7958Y296731D01*
X6684Y296203D01*
X5538Y295437D01*
X4563Y294462D01*
X3797Y293316D01*
X3269Y292042D01*
X3000Y290689D01*
Y289311D01*
X3269Y287958D01*
X3797Y286684D01*
X4563Y285538D01*
X5538Y284563D01*
X6684Y283797D01*
X7958Y283269D01*
X9311Y283000D01*
X10689D01*
X12000Y283261D01*
X12148Y283244D01*
X12500Y283009D01*
Y274500D01*
X83478D01*
Y283498D01*
X13769D01*
X13617Y283998D01*
X14462Y284563D01*
X15437Y285538D01*
X16203Y286684D01*
X16731Y287958D01*
X17000Y289311D01*
Y290689D01*
X16731Y292042D01*
X16203Y293316D01*
X15437Y294462D01*
X14462Y295437D01*
X13316Y296203D01*
X12042Y296731D01*
X10689Y297000D01*
D02*
G37*
G36*
X416044Y277587D02*
X414665D01*
X413314Y277318D01*
X412041Y276790D01*
X410895Y276025D01*
X409920Y275050D01*
X409155Y273904D01*
X408627Y272631D01*
X408358Y271280D01*
Y269901D01*
X408627Y268550D01*
X409155Y267277D01*
X409920Y266131D01*
X410895Y265156D01*
X412041Y264391D01*
X413314Y263863D01*
X414665Y263595D01*
X416044D01*
X417395Y263863D01*
X418668Y264391D01*
X419814Y265156D01*
X420789Y266131D01*
X421554Y267277D01*
X422082Y268550D01*
X422351Y269901D01*
Y271280D01*
X422082Y272631D01*
X421554Y273904D01*
X420789Y275050D01*
X419814Y276025D01*
X418668Y276790D01*
X417395Y277318D01*
X416044Y277587D01*
D02*
G37*
G36*
X288091D02*
X286713D01*
X285361Y277318D01*
X284088Y276790D01*
X282942Y276025D01*
X281967Y275050D01*
X281202Y273904D01*
X280674Y272631D01*
X280405Y271280D01*
Y269901D01*
X280674Y268550D01*
X281202Y267277D01*
X281967Y266131D01*
X282942Y265156D01*
X284088Y264391D01*
X285361Y263863D01*
X286713Y263595D01*
X288091D01*
X289442Y263863D01*
X290716Y264391D01*
X291861Y265156D01*
X292836Y266131D01*
X293601Y267277D01*
X294129Y268550D01*
X294398Y269901D01*
Y271280D01*
X294129Y272631D01*
X293601Y273904D01*
X292836Y275050D01*
X291861Y276025D01*
X290716Y276790D01*
X289442Y277318D01*
X288091Y277587D01*
D02*
G37*
G36*
X136516D02*
X135138D01*
X133786Y277318D01*
X132513Y276790D01*
X131367Y276025D01*
X130393Y275050D01*
X129627Y273904D01*
X129100Y272631D01*
X128831Y271280D01*
Y269901D01*
X129100Y268550D01*
X129627Y267277D01*
X130393Y266131D01*
X131367Y265156D01*
X132513Y264391D01*
X133786Y263863D01*
X135138Y263595D01*
X136516D01*
X137867Y263863D01*
X139141Y264391D01*
X140287Y265156D01*
X141261Y266131D01*
X142027Y267277D01*
X142554Y268550D01*
X142823Y269901D01*
Y271280D01*
X142554Y272631D01*
X142027Y273904D01*
X141261Y275050D01*
X140287Y276025D01*
X139141Y276790D01*
X137867Y277318D01*
X136516Y277587D01*
D02*
G37*
G36*
X520000Y252807D02*
X160300D01*
X159953Y252738D01*
X159658Y252542D01*
X159658Y252542D01*
X158658Y251542D01*
X158462Y251247D01*
X158393Y250900D01*
Y240857D01*
X158462Y240510D01*
X158658Y240216D01*
X164358Y234516D01*
X164653Y234319D01*
X165000Y234250D01*
X165000Y234250D01*
X166027D01*
X166233Y233483D01*
X166804Y232493D01*
X167612Y231686D01*
X168601Y231115D01*
X168842Y231050D01*
X168776Y230550D01*
X82942D01*
X82942Y230550D01*
X82595Y230481D01*
X82301Y230284D01*
X82301Y230284D01*
X34758Y182742D01*
X34562Y182447D01*
X34493Y182100D01*
Y77500D01*
X34562Y77153D01*
X34758Y76858D01*
X36533Y75084D01*
X36368Y74541D01*
X36353Y74538D01*
X36058Y74342D01*
X35862Y74047D01*
X35793Y73700D01*
Y39700D01*
X35862Y39353D01*
X36058Y39058D01*
X44354Y30763D01*
X44354Y30763D01*
X44358Y30758D01*
X44358Y30758D01*
X44653Y30562D01*
X45000Y30492D01*
X45000Y30493D01*
X72121D01*
X72220Y29993D01*
X71736Y29792D01*
X71208Y29264D01*
X70922Y28574D01*
Y27826D01*
X71208Y27136D01*
X71736Y26608D01*
X72426Y26322D01*
X73174D01*
X73864Y26608D01*
X74392Y27136D01*
X74457Y27293D01*
X132143D01*
X132208Y27136D01*
X132736Y26608D01*
X133426Y26322D01*
X134174D01*
X134864Y26608D01*
X135392Y27136D01*
X135457Y27293D01*
X184843D01*
X184908Y27136D01*
X185436Y26608D01*
X186126Y26322D01*
X186874D01*
X187564Y26608D01*
X188092Y27136D01*
X188378Y27826D01*
Y28574D01*
X188092Y29264D01*
X187564Y29792D01*
X187080Y29993D01*
X187179Y30493D01*
X213743D01*
X213808Y30336D01*
X214336Y29808D01*
X215026Y29522D01*
X215774D01*
X216464Y29808D01*
X216992Y30336D01*
X217059Y30497D01*
X221837D01*
X222184Y30566D01*
X222479Y30763D01*
X224876Y33161D01*
X226498D01*
X226705Y32661D01*
X226408Y32364D01*
X226122Y31674D01*
Y30926D01*
X226187Y30770D01*
X217977Y22560D01*
X61978D01*
X61914Y22717D01*
X61385Y23245D01*
X60695Y23531D01*
X59948D01*
X59258Y23245D01*
X58729Y22717D01*
X58444Y22026D01*
Y21279D01*
X58729Y20589D01*
X59096Y20223D01*
X58889Y19722D01*
X47756Y19709D01*
X47692Y19864D01*
X47164Y20392D01*
X46474Y20678D01*
X45726D01*
X45036Y20392D01*
X44508Y19864D01*
X44222Y19174D01*
Y18426D01*
X44508Y17736D01*
X45036Y17208D01*
X45726Y16922D01*
X46474D01*
X47164Y17208D01*
X47692Y17736D01*
X47757Y17893D01*
X199343D01*
X199408Y17736D01*
X199737Y17407D01*
X199530Y16907D01*
X51800D01*
X51800Y16907D01*
X51453Y16838D01*
X51158Y16642D01*
X51158Y16642D01*
X47758Y13242D01*
X47562Y12947D01*
X47493Y12600D01*
Y3750D01*
X47562Y3403D01*
X47758Y3108D01*
X49308Y1558D01*
X49603Y1362D01*
X49950Y1293D01*
X173000D01*
X173347Y1362D01*
X173642Y1558D01*
X173838Y1853D01*
X173841Y1868D01*
X174384Y2033D01*
X174734Y1682D01*
X174734Y1682D01*
X175029Y1485D01*
X175376Y1416D01*
X377124D01*
X377471Y1485D01*
X377765Y1682D01*
X381370Y5287D01*
X381526Y5222D01*
X382274D01*
X382964Y5508D01*
X383492Y6036D01*
X383778Y6726D01*
Y7474D01*
X383492Y8164D01*
X383195Y8461D01*
X383402Y8961D01*
X522458D01*
X522805Y9030D01*
X523099Y9226D01*
X526742Y12869D01*
X526938Y13163D01*
X527007Y13510D01*
Y102400D01*
X527248Y102560D01*
X527493Y102621D01*
X532693Y97422D01*
Y21957D01*
X532536Y21892D01*
X532008Y21364D01*
X531722Y20674D01*
Y19926D01*
X532008Y19236D01*
X532536Y18708D01*
X533226Y18422D01*
X533974D01*
X534664Y18708D01*
X535192Y19236D01*
X535478Y19926D01*
Y20674D01*
X535192Y21364D01*
X534664Y21892D01*
X534507Y21957D01*
Y97798D01*
X534438Y98145D01*
X534242Y98439D01*
X523881Y108800D01*
X523934Y108892D01*
X524112Y109557D01*
Y110246D01*
X523934Y110911D01*
X523589Y111508D01*
X523102Y111995D01*
X522506Y112339D01*
X521840Y112518D01*
X521152D01*
X520486Y112339D01*
X519890Y111995D01*
X519403Y111508D01*
X519058Y110911D01*
X518880Y110246D01*
Y109557D01*
X519058Y108892D01*
X519403Y108295D01*
X519890Y107808D01*
X520486Y107464D01*
X521152Y107285D01*
X521840D01*
X522506Y107464D01*
X522598Y107517D01*
X523421Y106693D01*
X523360Y106448D01*
X523200Y106207D01*
X501174D01*
X500827Y106138D01*
X500532Y105942D01*
X500532Y105942D01*
X498976Y104385D01*
X498884Y104438D01*
X498218Y104616D01*
X497530D01*
X496864Y104438D01*
X496268Y104093D01*
X495781Y103606D01*
X495436Y103010D01*
X495407Y102903D01*
X494907Y102969D01*
Y104343D01*
X495064Y104408D01*
X495592Y104936D01*
X495878Y105626D01*
Y106374D01*
X495592Y107064D01*
X495064Y107592D01*
X494374Y107878D01*
X493626D01*
X492936Y107592D01*
X492408Y107064D01*
X492122Y106374D01*
Y105626D01*
X492408Y104936D01*
X492936Y104408D01*
X493093Y104343D01*
Y102498D01*
X492593Y102432D01*
X492438Y103010D01*
X492093Y103606D01*
X491606Y104093D01*
X491274Y104285D01*
Y107617D01*
X491606Y107808D01*
X492093Y108295D01*
X492438Y108892D01*
X492616Y109557D01*
Y110246D01*
X492438Y110911D01*
X492093Y111508D01*
X491606Y111995D01*
X491274Y112187D01*
Y115514D01*
X491606Y115706D01*
X492093Y116193D01*
X492438Y116789D01*
X492616Y117455D01*
Y118144D01*
X492438Y118809D01*
X492093Y119405D01*
X491814Y119685D01*
X492021Y120185D01*
X495853D01*
X496060Y119685D01*
X495781Y119405D01*
X495436Y118809D01*
X495258Y118144D01*
Y117455D01*
X495436Y116789D01*
X495781Y116193D01*
X496268Y115706D01*
X496864Y115361D01*
X497530Y115183D01*
X498218D01*
X498884Y115361D01*
X499480Y115706D01*
X499793Y116018D01*
X500293Y115811D01*
Y114450D01*
X500362Y114102D01*
X500558Y113808D01*
X501758Y112608D01*
X501758Y112608D01*
X503363Y111003D01*
X503310Y110911D01*
X503132Y110246D01*
Y109557D01*
X503310Y108892D01*
X503655Y108295D01*
X504142Y107808D01*
X504738Y107464D01*
X505404Y107285D01*
X506092D01*
X506758Y107464D01*
X507354Y107808D01*
X507841Y108295D01*
X508186Y108892D01*
X508364Y109557D01*
Y110246D01*
X508186Y110911D01*
X507841Y111508D01*
X507354Y111995D01*
X506758Y112339D01*
X506092Y112518D01*
X505404D01*
X504738Y112339D01*
X504646Y112286D01*
X503307Y113626D01*
Y115833D01*
X503807Y116040D01*
X504142Y115706D01*
X504738Y115361D01*
X505404Y115183D01*
X506092D01*
X506758Y115361D01*
X507354Y115706D01*
X507841Y116193D01*
X508186Y116789D01*
X508364Y117455D01*
Y118144D01*
X508186Y118809D01*
X508133Y118901D01*
X509452Y120220D01*
X511636D01*
X511843Y119720D01*
X511529Y119405D01*
X511184Y118809D01*
X511006Y118144D01*
Y117455D01*
X511184Y116789D01*
X511529Y116193D01*
X512016Y115706D01*
X512612Y115361D01*
X513278Y115183D01*
X513966D01*
X514632Y115361D01*
X515228Y115706D01*
X515715Y116193D01*
X516060Y116789D01*
X516238Y117455D01*
Y118144D01*
X516060Y118809D01*
X515715Y119405D01*
X515401Y119720D01*
X515608Y120220D01*
X519510D01*
X519717Y119720D01*
X519403Y119405D01*
X519058Y118809D01*
X518880Y118144D01*
Y117455D01*
X519058Y116789D01*
X519403Y116193D01*
X519688Y115907D01*
X519481Y115407D01*
X518220D01*
X517873Y115338D01*
X517579Y115142D01*
X514723Y112286D01*
X514632Y112339D01*
X513966Y112518D01*
X513278D01*
X512612Y112339D01*
X512016Y111995D01*
X511529Y111508D01*
X511184Y110911D01*
X511006Y110246D01*
Y109557D01*
X511184Y108892D01*
X511529Y108295D01*
X512016Y107808D01*
X512612Y107464D01*
X513278Y107285D01*
X513966D01*
X514632Y107464D01*
X515228Y107808D01*
X515715Y108295D01*
X516060Y108892D01*
X516238Y109557D01*
Y110246D01*
X516060Y110911D01*
X516007Y111003D01*
X518596Y113593D01*
X523100D01*
X523447Y113662D01*
X523742Y113858D01*
X530090Y120206D01*
X530286Y120501D01*
X530356Y120848D01*
X530355Y120848D01*
Y200548D01*
Y242452D01*
X530286Y242799D01*
X530090Y243094D01*
X520642Y252542D01*
X520347Y252738D01*
X520000Y252807D01*
D02*
G37*
G36*
X498218Y112518D02*
X497530D01*
X496864Y112339D01*
X496268Y111995D01*
X495781Y111508D01*
X495436Y110911D01*
X495258Y110246D01*
Y109557D01*
X495436Y108892D01*
X495781Y108295D01*
X496268Y107808D01*
X496864Y107464D01*
X497530Y107285D01*
X498218D01*
X498884Y107464D01*
X499480Y107808D01*
X499967Y108295D01*
X500312Y108892D01*
X500490Y109557D01*
Y110246D01*
X500312Y110911D01*
X499967Y111508D01*
X499480Y111995D01*
X498884Y112339D01*
X498218Y112518D01*
D02*
G37*
G36*
X540689Y17000D02*
X539311D01*
X537958Y16731D01*
X536684Y16203D01*
X535538Y15437D01*
X534563Y14462D01*
X533797Y13316D01*
X533269Y12042D01*
X533000Y10689D01*
Y9311D01*
X533269Y7958D01*
X533797Y6684D01*
X534563Y5538D01*
X535538Y4563D01*
X536684Y3797D01*
X537958Y3269D01*
X539311Y3000D01*
X540689D01*
X542042Y3269D01*
X543316Y3797D01*
X544462Y4563D01*
X545437Y5538D01*
X546203Y6684D01*
X546731Y7958D01*
X547000Y9311D01*
Y10689D01*
X546731Y12042D01*
X546203Y13316D01*
X545437Y14462D01*
X544462Y15437D01*
X543316Y16203D01*
X542042Y16731D01*
X540689Y17000D01*
D02*
G37*
G36*
X10689D02*
X9311D01*
X7958Y16731D01*
X6684Y16203D01*
X5538Y15437D01*
X4563Y14462D01*
X3797Y13316D01*
X3269Y12042D01*
X3000Y10689D01*
Y9311D01*
X3269Y7958D01*
X3797Y6684D01*
X4563Y5538D01*
X5538Y4563D01*
X6684Y3797D01*
X7958Y3269D01*
X9311Y3000D01*
X10689D01*
X12042Y3269D01*
X13316Y3797D01*
X14462Y4563D01*
X15437Y5538D01*
X16203Y6684D01*
X16731Y7958D01*
X17000Y9311D01*
Y10689D01*
X16731Y12042D01*
X16203Y13316D01*
X15437Y14462D01*
X14462Y15437D01*
X13316Y16203D01*
X12042Y16731D01*
X10689Y17000D01*
D02*
G37*
%LPD*%
G36*
X320154Y250493D02*
X318673Y249012D01*
X317812Y249509D01*
X316582Y249839D01*
X316445D01*
Y245000D01*
X315445D01*
Y249839D01*
X315308D01*
X314077Y249509D01*
X312974Y248872D01*
X312073Y247971D01*
X311436Y246868D01*
X311179Y245907D01*
X263624D01*
X263367Y246868D01*
X262730Y247971D01*
X261829Y248872D01*
X260726Y249509D01*
X259495Y249839D01*
X259358D01*
Y245000D01*
X258358D01*
Y249839D01*
X258221D01*
X256991Y249509D01*
X255887Y248872D01*
X254986Y247971D01*
X254349Y246868D01*
X254092Y245907D01*
X251813D01*
X251556Y246868D01*
X250919Y247971D01*
X250018Y248872D01*
X248915Y249509D01*
X247684Y249839D01*
X247547D01*
Y245000D01*
X247047D01*
Y244500D01*
X242209D01*
Y244363D01*
X242538Y243132D01*
X243175Y242029D01*
X243897Y241307D01*
X243690Y240807D01*
X240712D01*
X238882Y242637D01*
X239279Y243325D01*
X239575Y244429D01*
Y245571D01*
X239279Y246675D01*
X238708Y247664D01*
X237900Y248472D01*
X236911Y249043D01*
X235807Y249339D01*
X234665D01*
X233562Y249043D01*
X232572Y248472D01*
X231765Y247664D01*
X231193Y246675D01*
X230898Y245571D01*
Y245281D01*
X228187Y242570D01*
X227787Y242877D01*
X227934Y243132D01*
X228264Y244363D01*
Y244500D01*
X218587D01*
Y244363D01*
X218916Y243132D01*
X219553Y242029D01*
X220275Y241307D01*
X220068Y240807D01*
X217090D01*
X215260Y242637D01*
X215657Y243325D01*
X215953Y244429D01*
Y245571D01*
X215657Y246675D01*
X215086Y247664D01*
X214278Y248472D01*
X213896Y248693D01*
X214030Y249193D01*
X217949D01*
X219413Y247728D01*
X218916Y246868D01*
X218587Y245637D01*
Y245500D01*
X222925D01*
Y249839D01*
X222788D01*
X221558Y249509D01*
X220697Y249012D01*
X219216Y250493D01*
X219423Y250993D01*
X319947D01*
X320154Y250493D01*
D02*
G37*
G36*
X180390D02*
X178910Y249012D01*
X178049Y249509D01*
X176818Y249839D01*
X176681D01*
Y245000D01*
X176181D01*
Y244500D01*
X171343D01*
Y244363D01*
X171672Y243132D01*
X172102Y242389D01*
X171702Y242082D01*
X168709Y245075D01*
Y245571D01*
X168413Y246675D01*
X167842Y247664D01*
X167034Y248472D01*
X166045Y249043D01*
X164941Y249339D01*
X163799D01*
X162695Y249043D01*
X161706Y248472D01*
X160898Y247664D01*
X160707Y247333D01*
X160207Y247467D01*
Y250524D01*
X160676Y250993D01*
X180183D01*
X180390Y250493D01*
D02*
G37*
G36*
X311436Y243132D02*
X312073Y242029D01*
X312795Y241307D01*
X312587Y240807D01*
X262215D01*
X262008Y241307D01*
X262730Y242029D01*
X263367Y243132D01*
X263624Y244093D01*
X311179D01*
X311436Y243132D01*
D02*
G37*
G36*
X171334Y239883D02*
X171075Y239435D01*
X170847Y239496D01*
X169704D01*
X168601Y239200D01*
X167612Y238629D01*
X166804Y237821D01*
X166233Y236832D01*
X166027Y236065D01*
X165376D01*
X160207Y241233D01*
Y242533D01*
X160707Y242667D01*
X160898Y242336D01*
X161706Y241528D01*
X162695Y240957D01*
X163799Y240661D01*
X164941D01*
X166045Y240957D01*
X167034Y241528D01*
X167842Y242336D01*
X168017Y242639D01*
X168512Y242704D01*
X171334Y239883D01*
D02*
G37*
G36*
X528541Y242076D02*
Y203392D01*
X528079Y203201D01*
X496638Y234642D01*
X496343Y234838D01*
X495996Y234907D01*
X458600D01*
X458253Y234838D01*
X457958Y234642D01*
X457958Y234642D01*
X456630Y233313D01*
X456473Y233378D01*
X455726D01*
X455036Y233092D01*
X454508Y232564D01*
X454222Y231873D01*
Y231177D01*
X454068Y231033D01*
X453789Y230865D01*
X453679Y230938D01*
X453332Y231007D01*
X383395D01*
X383261Y231507D01*
X383570Y231686D01*
X384377Y232493D01*
X384948Y233483D01*
X385244Y234586D01*
Y235729D01*
X384948Y236832D01*
X384377Y237821D01*
X383570Y238629D01*
X382580Y239200D01*
X381477Y239496D01*
X380334D01*
X379859Y239369D01*
X379600Y239817D01*
X382236Y242453D01*
X382732Y242388D01*
X382939Y242029D01*
X383840Y241128D01*
X384943Y240491D01*
X386174Y240161D01*
X386311D01*
Y244500D01*
X381717D01*
X378024Y240807D01*
X377415D01*
X377281Y241307D01*
X377664Y241528D01*
X378472Y242336D01*
X379043Y243325D01*
X379339Y244429D01*
Y245571D01*
X379043Y246675D01*
X378472Y247664D01*
X377664Y248472D01*
X376675Y249043D01*
X375571Y249339D01*
X374429D01*
X373325Y249043D01*
X372336Y248472D01*
X371528Y247664D01*
X370957Y246675D01*
X370661Y245571D01*
Y244429D01*
X370957Y243325D01*
X371528Y242336D01*
X372336Y241528D01*
X372719Y241307D01*
X372585Y240807D01*
X368665D01*
X367201Y242271D01*
X367698Y243132D01*
X368028Y244363D01*
Y244500D01*
X363689D01*
Y240161D01*
X363826D01*
X365057Y240491D01*
X365917Y240988D01*
X366869Y240037D01*
X366787Y239412D01*
X366123Y239029D01*
X365223Y238128D01*
X364586Y237025D01*
X364256Y235794D01*
Y235657D01*
X373933D01*
Y235794D01*
X373603Y237025D01*
X372966Y238128D01*
X372564Y238531D01*
X372755Y238993D01*
X377912D01*
X378105Y238493D01*
X377434Y237821D01*
X376863Y236832D01*
X376567Y235729D01*
Y234586D01*
X376863Y233483D01*
X377434Y232493D01*
X378242Y231686D01*
X378550Y231507D01*
X378416Y231007D01*
X372494D01*
X372287Y231507D01*
X372966Y232186D01*
X373603Y233290D01*
X373933Y234520D01*
Y234657D01*
X364256D01*
Y234520D01*
X364586Y233290D01*
X365223Y232186D01*
X365902Y231507D01*
X365694Y231007D01*
X359773D01*
X359639Y231507D01*
X359947Y231686D01*
X360755Y232493D01*
X361326Y233483D01*
X361622Y234586D01*
Y235729D01*
X361326Y236832D01*
X360755Y237821D01*
X359947Y238629D01*
X358958Y239200D01*
X357855Y239496D01*
X356712D01*
X355609Y239200D01*
X354620Y238629D01*
X353812Y237821D01*
X353240Y236832D01*
X352945Y235729D01*
Y234586D01*
X353240Y233483D01*
X353812Y232493D01*
X354620Y231686D01*
X354928Y231507D01*
X354794Y231007D01*
X347962D01*
X347828Y231507D01*
X348136Y231686D01*
X348944Y232493D01*
X349515Y233483D01*
X349811Y234586D01*
Y235729D01*
X349515Y236832D01*
X348944Y237821D01*
X348136Y238629D01*
X347147Y239200D01*
X346044Y239496D01*
X344901D01*
X344608Y239417D01*
X344349Y239866D01*
X347218Y242735D01*
X347714Y242670D01*
X347906Y242336D01*
X348714Y241528D01*
X349703Y240957D01*
X350807Y240661D01*
X351949D01*
X353053Y240957D01*
X354042Y241528D01*
X354850Y242336D01*
X355421Y243325D01*
X355717Y244429D01*
Y245571D01*
X355421Y246675D01*
X354850Y247664D01*
X354042Y248472D01*
X353660Y248693D01*
X353793Y249193D01*
X357713D01*
X359177Y247728D01*
X358680Y246868D01*
X358350Y245637D01*
Y245500D01*
X362689D01*
Y249839D01*
X362552D01*
X361321Y249509D01*
X360460Y249012D01*
X358980Y250493D01*
X359187Y250993D01*
X519624D01*
X528541Y242076D01*
D02*
G37*
G36*
X184323Y242678D02*
X184520Y242336D01*
X185328Y241528D01*
X186318Y240957D01*
X187421Y240661D01*
X188563D01*
X189667Y240957D01*
X190656Y241528D01*
X191464Y242336D01*
X191631Y242625D01*
X192127Y242690D01*
X194925Y239891D01*
X194667Y239443D01*
X194469Y239496D01*
X193326D01*
X192223Y239200D01*
X191234Y238629D01*
X190426Y237821D01*
X189855Y236832D01*
X189559Y235729D01*
Y234586D01*
X189855Y233483D01*
X190426Y232493D01*
X191234Y231686D01*
X192223Y231115D01*
X192464Y231050D01*
X192398Y230550D01*
X187978D01*
X185732Y232795D01*
X186129Y233483D01*
X186425Y234586D01*
Y235729D01*
X186129Y236832D01*
X185558Y237821D01*
X184750Y238629D01*
X183761Y239200D01*
X182658Y239496D01*
X181515D01*
X181203Y239412D01*
X180944Y239860D01*
X183827Y242744D01*
X184323Y242678D01*
D02*
G37*
G36*
X323637Y243608D02*
X323713Y243325D01*
X324284Y242336D01*
X325092Y241528D01*
X326081Y240957D01*
X327185Y240661D01*
X328327D01*
X329431Y240957D01*
X330420Y241528D01*
X331228Y242336D01*
X331408Y242648D01*
X331904Y242713D01*
X334739Y239878D01*
X334480Y239430D01*
X334233Y239496D01*
X333090D01*
X331987Y239200D01*
X330997Y238629D01*
X330190Y237821D01*
X329619Y236832D01*
X329323Y235729D01*
Y234586D01*
X329619Y233483D01*
X330190Y232493D01*
X330997Y231686D01*
X331987Y231115D01*
X333090Y230819D01*
X334233D01*
X335336Y231115D01*
X336325Y231686D01*
X337133Y232493D01*
X337704Y233483D01*
X338000Y234586D01*
Y235729D01*
X337704Y236832D01*
X337133Y237821D01*
X336862Y238093D01*
X337069Y238593D01*
X342065D01*
X342272Y238093D01*
X342001Y237821D01*
X341429Y236832D01*
X341134Y235729D01*
Y234586D01*
X341429Y233483D01*
X342001Y232493D01*
X342808Y231686D01*
X343117Y231507D01*
X342983Y231007D01*
X340415D01*
X340068Y230938D01*
X339773Y230742D01*
X336024Y226992D01*
X335336Y227389D01*
X334233Y227685D01*
X333090D01*
X331987Y227389D01*
X330997Y226818D01*
X330190Y226010D01*
X329619Y225021D01*
X329323Y223918D01*
Y222775D01*
X329619Y221672D01*
X330190Y220683D01*
X330865Y220007D01*
X330677Y219507D01*
X325758D01*
X325411Y219438D01*
X325116Y219242D01*
X325116Y219242D01*
X325082Y219207D01*
X324359D01*
X324225Y219707D01*
X324514Y219875D01*
X325322Y220683D01*
X325893Y221672D01*
X326189Y222775D01*
Y223918D01*
X325893Y225021D01*
X325322Y226010D01*
X324514Y226818D01*
X323525Y227389D01*
X322422Y227685D01*
X321279D01*
X320176Y227389D01*
X319186Y226818D01*
X318379Y226010D01*
X317808Y225021D01*
X317512Y223918D01*
Y222775D01*
X317808Y221672D01*
X318205Y220983D01*
X317805Y220676D01*
X316539Y221942D01*
X316245Y222138D01*
X315898Y222207D01*
X276500D01*
X276153Y222138D01*
X275858Y221942D01*
X260852Y206935D01*
X219466D01*
X215260Y211141D01*
X215657Y211829D01*
X215953Y212933D01*
Y214075D01*
X215882Y214340D01*
X216330Y214598D01*
X218066Y212862D01*
X218066Y212862D01*
X218361Y212666D01*
X218708Y212597D01*
X218708Y212597D01*
X219177D01*
X219382Y211829D01*
X219953Y210840D01*
X220761Y210032D01*
X221751Y209461D01*
X222854Y209165D01*
X223996D01*
X225100Y209461D01*
X226089Y210032D01*
X226897Y210840D01*
X227468Y211829D01*
X227764Y212933D01*
Y214075D01*
X227468Y215179D01*
X226897Y216168D01*
X226089Y216976D01*
X225100Y217547D01*
X223996Y217843D01*
X222854D01*
X221751Y217547D01*
X220761Y216976D01*
X219953Y216168D01*
X219382Y215179D01*
X219306Y214896D01*
X218749Y214746D01*
X214334Y219162D01*
X214039Y219358D01*
X213692Y219427D01*
X208598D01*
X208459Y219704D01*
X208425Y219927D01*
X209180Y220683D01*
X209752Y221672D01*
X210047Y222775D01*
Y223918D01*
X209752Y225021D01*
X209180Y226010D01*
X208373Y226818D01*
X208136Y226955D01*
X208270Y227455D01*
X214959D01*
X215093Y226955D01*
X214856Y226818D01*
X214048Y226010D01*
X213477Y225021D01*
X213181Y223918D01*
Y222775D01*
X213477Y221672D01*
X214048Y220683D01*
X214856Y219875D01*
X215845Y219303D01*
X216948Y219008D01*
X218091D01*
X219194Y219303D01*
X220184Y219875D01*
X220991Y220683D01*
X221563Y221672D01*
X221858Y222775D01*
Y223918D01*
X221563Y225021D01*
X220991Y226010D01*
X220184Y226818D01*
X219947Y226955D01*
X220080Y227455D01*
X226770D01*
X226904Y226955D01*
X226667Y226818D01*
X225859Y226010D01*
X225288Y225021D01*
X224992Y223918D01*
Y222775D01*
X225288Y221672D01*
X225859Y220683D01*
X226667Y219875D01*
X227656Y219303D01*
X228760Y219008D01*
X229902D01*
X231005Y219303D01*
X231995Y219875D01*
X232803Y220683D01*
X233374Y221672D01*
X233669Y222775D01*
Y223918D01*
X233588Y224222D01*
X234036Y224481D01*
X235812Y222705D01*
X235812Y222705D01*
X236106Y222508D01*
X236454Y222439D01*
X236454Y222439D01*
X236893D01*
X237099Y221672D01*
X237670Y220683D01*
X238478Y219875D01*
X239467Y219303D01*
X240571Y219008D01*
X241713D01*
X242816Y219303D01*
X243806Y219875D01*
X244614Y220683D01*
X245185Y221672D01*
X245480Y222775D01*
Y223918D01*
X245185Y225021D01*
X244614Y226010D01*
X243806Y226818D01*
X243504Y226993D01*
X243638Y227493D01*
X247523D01*
X249307Y225709D01*
X248910Y225021D01*
X248614Y223918D01*
Y222775D01*
X248910Y221672D01*
X249481Y220683D01*
X250289Y219875D01*
X251278Y219303D01*
X252382Y219008D01*
X253524D01*
X254627Y219303D01*
X255617Y219875D01*
X256424Y220683D01*
X256996Y221672D01*
X257291Y222775D01*
Y223918D01*
X256996Y225021D01*
X256424Y226010D01*
X255617Y226818D01*
X254627Y227389D01*
X253524Y227685D01*
X252382D01*
X251278Y227389D01*
X250590Y226992D01*
X248650Y228932D01*
X248583Y229246D01*
X248649Y229571D01*
X250224Y231146D01*
X251085Y230649D01*
X252316Y230319D01*
X252453D01*
Y234657D01*
X248114D01*
Y234520D01*
X248444Y233290D01*
X248941Y232429D01*
X247519Y231007D01*
X243631D01*
X243497Y231507D01*
X243806Y231686D01*
X244614Y232493D01*
X245185Y233483D01*
X245480Y234586D01*
Y235729D01*
X245185Y236832D01*
X244614Y237821D01*
X243942Y238493D01*
X244135Y238993D01*
X249292D01*
X249483Y238531D01*
X249081Y238128D01*
X248444Y237025D01*
X248114Y235794D01*
Y235657D01*
X257791D01*
Y235794D01*
X257462Y237025D01*
X256825Y238128D01*
X256324Y238629D01*
X256366Y238724D01*
X256619Y239041D01*
X256864Y238993D01*
X256864Y238993D01*
X317939D01*
X318286Y239062D01*
X318580Y239258D01*
X323080Y243758D01*
X323637Y243608D01*
D02*
G37*
G36*
X231514Y242770D02*
X231765Y242336D01*
X232572Y241528D01*
X233562Y240957D01*
X234665Y240661D01*
X235807D01*
X236911Y240957D01*
X237599Y241354D01*
X239308Y239645D01*
X239200Y239046D01*
X238478Y238629D01*
X237670Y237821D01*
X237099Y236832D01*
X236803Y235729D01*
Y234586D01*
X237099Y233483D01*
X237670Y232493D01*
X238478Y231686D01*
X238787Y231507D01*
X238653Y231007D01*
X238133D01*
X234483Y234657D01*
X224492D01*
Y234520D01*
X224822Y233290D01*
X225459Y232186D01*
X226360Y231286D01*
X226768Y231050D01*
X226634Y230550D01*
X219019D01*
X218953Y231050D01*
X219194Y231115D01*
X220184Y231686D01*
X220991Y232493D01*
X221563Y233483D01*
X221858Y234586D01*
Y235729D01*
X221563Y236832D01*
X220991Y237821D01*
X220320Y238493D01*
X220513Y238993D01*
X225670D01*
X225861Y238531D01*
X225459Y238128D01*
X224822Y237025D01*
X224492Y235794D01*
Y235657D01*
X228831D01*
Y240121D01*
X228669Y240486D01*
X231018Y242835D01*
X231514Y242770D01*
D02*
G37*
G36*
X207937Y242692D02*
X208142Y242336D01*
X208950Y241528D01*
X209940Y240957D01*
X211043Y240661D01*
X212185D01*
X213289Y240957D01*
X213977Y241354D01*
X215686Y239645D01*
X215578Y239046D01*
X214856Y238629D01*
X214048Y237821D01*
X213477Y236832D01*
X213181Y235729D01*
Y234586D01*
X213477Y233483D01*
X214048Y232493D01*
X214856Y231686D01*
X215845Y231115D01*
X216086Y231050D01*
X216020Y230550D01*
X208405D01*
X208271Y231050D01*
X208680Y231286D01*
X209580Y232186D01*
X210217Y233290D01*
X210547Y234520D01*
Y234657D01*
X200870D01*
Y234520D01*
X201200Y233290D01*
X201837Y232186D01*
X202738Y231286D01*
X203146Y231050D01*
X203012Y230550D01*
X195397D01*
X195331Y231050D01*
X195572Y231115D01*
X196562Y231686D01*
X197369Y232493D01*
X197941Y233483D01*
X198236Y234586D01*
Y235729D01*
X197941Y236832D01*
X197369Y237821D01*
X197098Y238093D01*
X197305Y238593D01*
X201648D01*
X201746Y238354D01*
X201816Y238093D01*
X201200Y237025D01*
X200870Y235794D01*
Y235657D01*
X205209D01*
Y240425D01*
X205179Y240496D01*
X207441Y242758D01*
X207937Y242692D01*
D02*
G37*
G36*
X178886Y238093D02*
X178615Y237821D01*
X178044Y236832D01*
X177748Y235729D01*
Y234586D01*
X178044Y233483D01*
X178615Y232493D01*
X179423Y231686D01*
X180412Y231115D01*
X181515Y230819D01*
X182658D01*
X183761Y231115D01*
X184449Y231512D01*
X186229Y229732D01*
X186038Y229270D01*
X177446D01*
X173921Y232795D01*
X174319Y233483D01*
X174614Y234586D01*
Y235729D01*
X174319Y236832D01*
X173747Y237821D01*
X173476Y238093D01*
X173683Y238593D01*
X178679D01*
X178886Y238093D01*
D02*
G37*
G36*
X450168Y227579D02*
X449901Y227079D01*
X390825D01*
X390825Y227079D01*
X390478Y227010D01*
X390183Y226814D01*
X390183Y226814D01*
X385622Y222252D01*
X385173Y222511D01*
X385244Y222775D01*
Y223918D01*
X384948Y225021D01*
X384377Y226010D01*
X383570Y226818D01*
X383094Y227093D01*
X383228Y227593D01*
X450159D01*
X450168Y227579D01*
D02*
G37*
G36*
X361346Y228693D02*
X359646Y226992D01*
X358958Y227389D01*
X357855Y227685D01*
X356712D01*
X355609Y227389D01*
X354620Y226818D01*
X353812Y226010D01*
X353240Y225021D01*
X352945Y223918D01*
Y222775D01*
X353240Y221672D01*
X353812Y220683D01*
X354620Y219875D01*
X354856Y219738D01*
X354722Y219238D01*
X353665D01*
X353512Y219392D01*
X353217Y219588D01*
X352870Y219657D01*
X348626D01*
X348419Y220157D01*
X348944Y220683D01*
X349515Y221672D01*
X349811Y222775D01*
Y223918D01*
X349515Y225021D01*
X348944Y226010D01*
X348136Y226818D01*
X347147Y227389D01*
X346044Y227685D01*
X344901D01*
X343798Y227389D01*
X342808Y226818D01*
X342001Y226010D01*
X341429Y225021D01*
X341134Y223918D01*
Y222775D01*
X341429Y221672D01*
X342001Y220683D01*
X342808Y219875D01*
X343045Y219738D01*
X342912Y219238D01*
X341976D01*
X340572Y220642D01*
X340278Y220838D01*
X339930Y220907D01*
X337840D01*
X337552Y221407D01*
X337704Y221672D01*
X338000Y222775D01*
Y223918D01*
X337704Y225021D01*
X337307Y225709D01*
X340791Y229193D01*
X361139D01*
X361346Y228693D01*
D02*
G37*
G36*
X483193Y225092D02*
Y200957D01*
X483036Y200892D01*
X482707Y200563D01*
X482207Y200770D01*
Y202188D01*
X482207Y202188D01*
X482138Y202535D01*
X481942Y202830D01*
X481942Y202830D01*
X475642Y209130D01*
X475347Y209326D01*
X475000Y209395D01*
X389372D01*
X389238Y209895D01*
X389475Y210032D01*
X390283Y210840D01*
X390854Y211829D01*
X391150Y212933D01*
Y214075D01*
X390854Y215179D01*
X390283Y216168D01*
X389475Y216976D01*
X388486Y217547D01*
X387382Y217843D01*
X386240D01*
X385136Y217547D01*
X384147Y216976D01*
X383339Y216168D01*
X382768Y215179D01*
X382472Y214075D01*
Y212933D01*
X382543Y212668D01*
X382095Y212409D01*
X380359Y214146D01*
X380065Y214342D01*
X379717Y214411D01*
X379248D01*
X379043Y215179D01*
X378472Y216168D01*
X377664Y216976D01*
X376675Y217547D01*
X375571Y217843D01*
X374429D01*
X373325Y217547D01*
X372336Y216976D01*
X371528Y216168D01*
X370957Y215179D01*
X370661Y214075D01*
Y212933D01*
X370957Y211829D01*
X371528Y210840D01*
X372336Y210032D01*
X372573Y209895D01*
X372439Y209395D01*
X365750D01*
X365616Y209895D01*
X365853Y210032D01*
X366661Y210840D01*
X367232Y211829D01*
X367528Y212933D01*
Y214075D01*
X367232Y215179D01*
X366661Y216168D01*
X365853Y216976D01*
X364864Y217547D01*
X363760Y217843D01*
X362618D01*
X361514Y217547D01*
X360525Y216976D01*
X359717Y216168D01*
X359146Y215179D01*
X358850Y214075D01*
Y212933D01*
X358865Y212880D01*
X358416Y212621D01*
X356892Y214146D01*
X356597Y214342D01*
X356250Y214411D01*
X355627D01*
X355421Y215179D01*
X354850Y216168D01*
X354095Y216923D01*
X354128Y217147D01*
X354267Y217423D01*
X359361D01*
X359708Y217492D01*
X360003Y217689D01*
X362607Y220293D01*
X363771D01*
X366375Y217689D01*
X366669Y217492D01*
X367017Y217423D01*
X367017Y217423D01*
X371172D01*
X371519Y217492D01*
X371814Y217689D01*
X374418Y220293D01*
X375582D01*
X378186Y217689D01*
X378481Y217492D01*
X378828Y217423D01*
X378828Y217423D01*
X382983D01*
X383331Y217492D01*
X383625Y217689D01*
X391201Y225265D01*
X477771D01*
X477836Y225108D01*
X478364Y224580D01*
X479054Y224294D01*
X479802D01*
X480492Y224580D01*
X481020Y225108D01*
X481306Y225799D01*
Y226272D01*
X481806Y226479D01*
X483193Y225092D01*
D02*
G37*
G36*
X203282Y226955D02*
X203045Y226818D01*
X202237Y226010D01*
X201666Y225021D01*
X201370Y223918D01*
Y222775D01*
X201666Y221672D01*
X202237Y220683D01*
X202912Y220007D01*
X202724Y219507D01*
X197700D01*
X197353Y219438D01*
X197058Y219242D01*
X192592Y214775D01*
X192109Y214904D01*
X192035Y215179D01*
X191464Y216168D01*
X190656Y216976D01*
X189667Y217547D01*
X188563Y217843D01*
X187421D01*
X186318Y217547D01*
X185328Y216976D01*
X184520Y216168D01*
X183949Y215179D01*
X183654Y214075D01*
Y212933D01*
X183949Y211829D01*
X184480Y210911D01*
X184080Y210604D01*
X183007Y211676D01*
Y214679D01*
X182938Y215026D01*
X182742Y215321D01*
X176207Y221855D01*
Y225416D01*
X176192Y225493D01*
X176541Y225993D01*
X178052D01*
X178366Y225579D01*
X178044Y225021D01*
X177748Y223918D01*
Y222775D01*
X178044Y221672D01*
X178615Y220683D01*
X179423Y219875D01*
X180412Y219303D01*
X181515Y219008D01*
X182658D01*
X183761Y219303D01*
X184750Y219875D01*
X185558Y220683D01*
X186129Y221672D01*
X186425Y222775D01*
Y223918D01*
X186129Y225021D01*
X185558Y226010D01*
X184750Y226818D01*
X184514Y226955D01*
X184648Y227455D01*
X191337D01*
X191471Y226955D01*
X191234Y226818D01*
X190426Y226010D01*
X189855Y225021D01*
X189559Y223918D01*
Y222775D01*
X189855Y221672D01*
X190426Y220683D01*
X191234Y219875D01*
X192223Y219303D01*
X193326Y219008D01*
X194469D01*
X195572Y219303D01*
X196562Y219875D01*
X197369Y220683D01*
X197941Y221672D01*
X198236Y222775D01*
Y223918D01*
X197941Y225021D01*
X197369Y226010D01*
X196562Y226818D01*
X196325Y226955D01*
X196458Y227455D01*
X203148D01*
X203282Y226955D01*
D02*
G37*
G36*
X174527Y221033D02*
X174658Y220837D01*
X177276Y218220D01*
X177017Y217772D01*
X176752Y217843D01*
X175610D01*
X174507Y217547D01*
X173517Y216976D01*
X172710Y216168D01*
X172138Y215179D01*
X171843Y214075D01*
Y212933D01*
X172138Y211829D01*
X172710Y210840D01*
X173517Y210032D01*
X174507Y209461D01*
X175610Y209165D01*
X176752D01*
X177856Y209461D01*
X178544Y209858D01*
X182284Y206117D01*
X182093Y205655D01*
X179246D01*
X178413Y206488D01*
X178119Y206685D01*
X177771Y206754D01*
X174805D01*
X171183Y210376D01*
Y219098D01*
X171950Y219303D01*
X172940Y219875D01*
X173747Y220683D01*
X173966Y221061D01*
X174154Y221088D01*
X174527Y221033D01*
D02*
G37*
G36*
X318023Y217891D02*
X317716Y217491D01*
X317619Y217547D01*
X316516Y217843D01*
X315374D01*
X314270Y217547D01*
X313281Y216976D01*
X312473Y216168D01*
X311902Y215179D01*
X311606Y214075D01*
Y212933D01*
X311902Y211829D01*
X312473Y210840D01*
X313281Y210032D01*
X314270Y209461D01*
X315374Y209165D01*
X316516D01*
X317619Y209461D01*
X318307Y209858D01*
X323209Y204956D01*
X323282Y204907D01*
X323131Y204407D01*
X237623D01*
X237458Y204621D01*
X237703Y205121D01*
X261228D01*
X261575Y205190D01*
X261870Y205386D01*
X276876Y220393D01*
X315522D01*
X318023Y217891D01*
D02*
G37*
G36*
X340341Y218306D02*
X340182Y217942D01*
X340097Y217843D01*
X338996D01*
X337892Y217547D01*
X336903Y216976D01*
X336095Y216168D01*
X335524Y215179D01*
X335228Y214075D01*
Y212933D01*
X335524Y211829D01*
X336095Y210840D01*
X336903Y210032D01*
X337892Y209461D01*
X338996Y209165D01*
X340138D01*
X341242Y209461D01*
X341930Y209858D01*
X343210Y208577D01*
X343019Y208115D01*
X334428D01*
X331402Y211141D01*
X331799Y211829D01*
X332095Y212933D01*
Y214075D01*
X331799Y215179D01*
X331228Y216168D01*
X330420Y216976D01*
X330044Y217193D01*
X330178Y217693D01*
X330938D01*
X330942Y217689D01*
X331236Y217492D01*
X331584Y217423D01*
X335739D01*
X336087Y217492D01*
X336381Y217689D01*
X337785Y219093D01*
X339555D01*
X340341Y218306D01*
D02*
G37*
G36*
X349349Y217343D02*
X348714Y216976D01*
X347906Y216168D01*
X347335Y215179D01*
X347039Y214075D01*
Y212933D01*
X347335Y211829D01*
X347906Y210840D01*
X348714Y210032D01*
X348951Y209895D01*
X348817Y209395D01*
X344959D01*
X343213Y211141D01*
X343610Y211829D01*
X343906Y212933D01*
Y214075D01*
X343610Y215179D01*
X343039Y216168D01*
X342284Y216923D01*
X342317Y217147D01*
X342456Y217423D01*
X347550D01*
X347898Y217492D01*
X348192Y217689D01*
X348346Y217843D01*
X349215D01*
X349349Y217343D01*
D02*
G37*
G36*
X202989Y217689D02*
X203284Y217492D01*
X203631Y217423D01*
X207786D01*
X208134Y217492D01*
X208314Y217613D01*
X209053D01*
X209187Y217113D01*
X208950Y216976D01*
X208142Y216168D01*
X207571Y215179D01*
X207276Y214075D01*
Y212933D01*
X207571Y211829D01*
X207968Y211141D01*
X203934Y207107D01*
X195198D01*
X195124Y207330D01*
X195115Y207607D01*
X195341Y207758D01*
X197441Y209858D01*
X198129Y209461D01*
X199232Y209165D01*
X200374D01*
X201478Y209461D01*
X202467Y210032D01*
X203275Y210840D01*
X203846Y211829D01*
X204142Y212933D01*
Y214075D01*
X203846Y215179D01*
X203275Y216168D01*
X202467Y216976D01*
X202092Y217193D01*
X202226Y217693D01*
X202985D01*
X202989Y217689D01*
D02*
G37*
G36*
X324928Y217236D02*
X325009Y216893D01*
X324284Y216168D01*
X323713Y215179D01*
X323417Y214075D01*
Y212933D01*
X323713Y211829D01*
X324284Y210840D01*
X325092Y210032D01*
X326081Y209461D01*
X327185Y209165D01*
X328327D01*
X329431Y209461D01*
X330118Y209858D01*
X332971Y207005D01*
X332764Y206505D01*
X324227D01*
X319591Y211141D01*
X319988Y211829D01*
X320283Y212933D01*
Y214075D01*
X319988Y215179D01*
X319416Y216168D01*
X318653Y216931D01*
X318661Y216981D01*
X318898Y217393D01*
X324830D01*
X324928Y217236D01*
D02*
G37*
G36*
X209940Y209461D02*
X211043Y209165D01*
X212185D01*
X213289Y209461D01*
X213977Y209858D01*
X217718Y206117D01*
X217526Y205655D01*
X205702D01*
X205511Y206117D01*
X209252Y209858D01*
X209940Y209461D01*
D02*
G37*
G36*
X230505Y202061D02*
X230208Y201764D01*
X230138Y201596D01*
X176178Y201218D01*
X174881D01*
X174674Y201718D01*
X174992Y202036D01*
X175209Y202561D01*
X230298D01*
X230505Y202061D01*
D02*
G37*
G36*
X163927Y228273D02*
X163728Y228074D01*
X163532Y227780D01*
X163463Y227432D01*
Y217843D01*
X160031D01*
Y209165D01*
X168709D01*
Y217843D01*
X165277D01*
Y227057D01*
X165676Y227455D01*
X167715D01*
X167849Y226955D01*
X167612Y226818D01*
X166804Y226010D01*
X166233Y225021D01*
X165937Y223918D01*
Y222775D01*
X166233Y221672D01*
X166804Y220683D01*
X167612Y219875D01*
X168601Y219303D01*
X169368Y219098D01*
Y210000D01*
X169437Y209653D01*
X169634Y209358D01*
X173514Y205478D01*
X173307Y204978D01*
X173026D01*
X172336Y204692D01*
X171808Y204164D01*
X171522Y203474D01*
Y202726D01*
X171808Y202036D01*
X172126Y201718D01*
X171919Y201218D01*
X67857D01*
X67792Y201374D01*
X67264Y201902D01*
X66574Y202188D01*
X65826D01*
X65136Y201902D01*
X64608Y201374D01*
X64322Y200684D01*
Y199937D01*
X64608Y199247D01*
X65136Y198718D01*
X65826Y198432D01*
X66574D01*
X67264Y198718D01*
X67792Y199247D01*
X67857Y199403D01*
X176181D01*
X176184Y199404D01*
X176188Y199403D01*
X222319Y199726D01*
X222420Y199227D01*
X222336Y199192D01*
X221808Y198664D01*
X221743Y198507D01*
X185500D01*
X185153Y198438D01*
X184858Y198242D01*
X174830Y188213D01*
X174674Y188278D01*
X173926D01*
X173236Y187992D01*
X172708Y187464D01*
X172422Y186774D01*
Y186026D01*
X172708Y185336D01*
X173037Y185007D01*
X172830Y184507D01*
X79657D01*
X79592Y184664D01*
X79064Y185192D01*
X78374Y185478D01*
X77626D01*
X76936Y185192D01*
X76408Y184664D01*
X76122Y183974D01*
Y183226D01*
X76408Y182536D01*
X76936Y182008D01*
X77626Y181722D01*
X78374D01*
X79064Y182008D01*
X79592Y182536D01*
X79657Y182693D01*
X111956D01*
X112147Y182231D01*
X110730Y180813D01*
X110574Y180878D01*
X109826D01*
X109136Y180592D01*
X108608Y180064D01*
X108322Y179374D01*
Y178626D01*
X108608Y177936D01*
X109136Y177408D01*
X109826Y177122D01*
X110574D01*
X111264Y177408D01*
X111792Y177936D01*
X112078Y178626D01*
Y179374D01*
X112013Y179530D01*
X113876Y181393D01*
X191027D01*
X191131Y181239D01*
X190866Y180739D01*
X140132D01*
X140132Y180739D01*
X139785Y180670D01*
X139490Y180474D01*
X139490Y180474D01*
X138330Y179313D01*
X138174Y179378D01*
X137426D01*
X136736Y179092D01*
X136208Y178564D01*
X135922Y177874D01*
Y177126D01*
X136208Y176436D01*
X136736Y175908D01*
X137426Y175622D01*
X138174D01*
X138864Y175908D01*
X139392Y176436D01*
X139678Y177126D01*
Y177874D01*
X139613Y178030D01*
X140508Y178925D01*
X220293D01*
X220640Y178994D01*
X220935Y179190D01*
X224866Y183122D01*
X225374D01*
X226064Y183408D01*
X226592Y183936D01*
X226878Y184626D01*
Y185134D01*
X229296Y187552D01*
X231872D01*
X232024Y187052D01*
X231858Y186942D01*
X220924Y176007D01*
X173757D01*
X173692Y176164D01*
X173164Y176692D01*
X172474Y176978D01*
X171726D01*
X171036Y176692D01*
X170508Y176164D01*
X170222Y175474D01*
Y174726D01*
X170508Y174036D01*
X171036Y173508D01*
X171726Y173222D01*
X172474D01*
X173164Y173508D01*
X173692Y174036D01*
X173757Y174193D01*
X221300D01*
X221647Y174262D01*
X221942Y174458D01*
X232876Y185393D01*
X355424D01*
X364647Y176169D01*
X364456Y175707D01*
X264157D01*
X264092Y175864D01*
X263564Y176392D01*
X262874Y176678D01*
X262126D01*
X261436Y176392D01*
X260908Y175864D01*
X260622Y175174D01*
Y174426D01*
X260908Y173736D01*
X261436Y173208D01*
X262126Y172922D01*
X262874D01*
X263564Y173208D01*
X264092Y173736D01*
X264157Y173893D01*
X366924D01*
X373187Y167630D01*
X373122Y167474D01*
Y166726D01*
X373408Y166036D01*
X373705Y165739D01*
X373498Y165239D01*
X372608D01*
X369054Y168794D01*
X368915Y168886D01*
X368779Y168982D01*
X368768Y168985D01*
X368759Y168991D01*
X368595Y169023D01*
X368433Y169059D01*
X363445Y169176D01*
X363351Y169678D01*
X363664Y169808D01*
X364192Y170336D01*
X364478Y171026D01*
Y171774D01*
X364192Y172464D01*
X363664Y172992D01*
X362973Y173278D01*
X362227D01*
X361536Y172992D01*
X361008Y172464D01*
X360943Y172307D01*
X254838D01*
X254631Y172807D01*
X254960Y173136D01*
X255246Y173826D01*
Y174574D01*
X254960Y175264D01*
X254432Y175792D01*
X253742Y176078D01*
X252994D01*
X252304Y175792D01*
X251776Y175264D01*
X251711Y175107D01*
X250000D01*
X250000Y175107D01*
X249653Y175038D01*
X249358Y174842D01*
X249358Y174842D01*
X246658Y172142D01*
X246462Y171847D01*
X246393Y171500D01*
Y167782D01*
X246462Y167435D01*
X246658Y167140D01*
X247429Y166369D01*
X247238Y165907D01*
X241657D01*
X241592Y166064D01*
X241064Y166592D01*
X240373Y166878D01*
X239627D01*
X238936Y166592D01*
X238408Y166064D01*
X238122Y165374D01*
Y164626D01*
X238408Y163936D01*
X238737Y163607D01*
X238530Y163107D01*
X237126D01*
X236144Y164090D01*
Y176758D01*
X236264Y176808D01*
X236792Y177336D01*
X237078Y178026D01*
Y178774D01*
X236792Y179464D01*
X236264Y179992D01*
X235574Y180278D01*
X234826D01*
X234136Y179992D01*
X233816Y179672D01*
X233473Y179730D01*
X233302Y179820D01*
X233284Y180150D01*
X234126Y180993D01*
X263343D01*
X263408Y180836D01*
X263936Y180308D01*
X264627Y180022D01*
X265373D01*
X266064Y180308D01*
X266592Y180836D01*
X266878Y181526D01*
Y182274D01*
X266592Y182964D01*
X266064Y183492D01*
X265373Y183778D01*
X264627D01*
X263936Y183492D01*
X263408Y182964D01*
X263343Y182807D01*
X233750D01*
X233750Y182807D01*
X233403Y182738D01*
X233108Y182542D01*
X233108Y182542D01*
X231638Y181071D01*
X231441Y180777D01*
X231372Y180430D01*
Y164956D01*
X221124Y154707D01*
X212557D01*
X212492Y154864D01*
X211964Y155392D01*
X211274Y155678D01*
X210526D01*
X209836Y155392D01*
X209308Y154864D01*
X209243Y154707D01*
X208221D01*
X206618Y156310D01*
X206324Y156506D01*
X205977Y156575D01*
X197936D01*
X197922Y156573D01*
X197908Y156575D01*
X173348Y155815D01*
X173189Y155778D01*
X173029Y155746D01*
X173017Y155738D01*
X173003Y155735D01*
X172870Y155640D01*
X172734Y155550D01*
X170637Y153453D01*
X48745D01*
X48745Y153453D01*
X48398Y153384D01*
X48103Y153187D01*
X48103Y153187D01*
X42652Y147735D01*
X42455Y147441D01*
X42386Y147094D01*
Y144116D01*
X37384D01*
Y138884D01*
X38726D01*
Y135883D01*
X38394Y135692D01*
X37907Y135205D01*
X37562Y134608D01*
X37384Y133943D01*
Y133254D01*
X37562Y132589D01*
X37907Y131992D01*
X38394Y131505D01*
X38726Y131313D01*
Y127986D01*
X38394Y127794D01*
X37907Y127307D01*
X37562Y126711D01*
X37384Y126045D01*
Y125356D01*
X37562Y124691D01*
X37907Y124094D01*
X38394Y123607D01*
X38990Y123263D01*
X39656Y123085D01*
X40344D01*
X40715Y123184D01*
X43002Y120896D01*
X43416Y120620D01*
X43904Y120523D01*
X46359D01*
X46493Y120023D01*
X46268Y119893D01*
X45781Y119405D01*
X45436Y118809D01*
X45258Y118144D01*
Y117455D01*
X45436Y116789D01*
X45781Y116193D01*
X46268Y115706D01*
X46864Y115361D01*
X47530Y115183D01*
X48218D01*
X48884Y115361D01*
X49480Y115706D01*
X49967Y116193D01*
X50312Y116789D01*
X50490Y117455D01*
Y118144D01*
X50312Y118809D01*
X49967Y119405D01*
X49480Y119893D01*
X49255Y120023D01*
X49389Y120523D01*
X54233D01*
X54367Y120023D01*
X54142Y119893D01*
X53655Y119405D01*
X53310Y118809D01*
X53132Y118144D01*
Y117455D01*
X53310Y116789D01*
X53655Y116193D01*
X54142Y115706D01*
X54738Y115361D01*
X55404Y115183D01*
X56092D01*
X56758Y115361D01*
X57354Y115706D01*
X57841Y116193D01*
X58186Y116789D01*
X58364Y117455D01*
Y118144D01*
X58186Y118809D01*
X57841Y119405D01*
X57354Y119893D01*
X57129Y120023D01*
X57263Y120523D01*
X62107D01*
X62241Y120023D01*
X62016Y119893D01*
X61529Y119405D01*
X61184Y118809D01*
X61006Y118144D01*
Y117455D01*
X61184Y116789D01*
X61529Y116193D01*
X62016Y115706D01*
X62612Y115361D01*
X63187Y115207D01*
X63121Y114707D01*
X59646D01*
X59299Y114638D01*
X59005Y114442D01*
X56849Y112286D01*
X56758Y112339D01*
X56092Y112518D01*
X55404D01*
X54738Y112339D01*
X54142Y111995D01*
X53655Y111508D01*
X53310Y110911D01*
X53132Y110246D01*
Y109557D01*
X53310Y108892D01*
X53655Y108295D01*
X54142Y107808D01*
X54738Y107464D01*
X55404Y107285D01*
X56092D01*
X56758Y107464D01*
X57354Y107808D01*
X57841Y108295D01*
X58186Y108892D01*
X58364Y109557D01*
Y110246D01*
X58186Y110911D01*
X58133Y111003D01*
X60022Y112893D01*
X62745D01*
X62810Y112393D01*
X62612Y112339D01*
X62016Y111995D01*
X61529Y111508D01*
X61184Y110911D01*
X61006Y110246D01*
Y109557D01*
X61184Y108892D01*
X61529Y108295D01*
X62016Y107808D01*
X62612Y107464D01*
X63278Y107285D01*
X63966D01*
X64632Y107464D01*
X64724Y107517D01*
X65543Y106697D01*
X65352Y106235D01*
X52824D01*
X50259Y108800D01*
X50312Y108892D01*
X50490Y109557D01*
Y110246D01*
X50312Y110911D01*
X49967Y111508D01*
X49480Y111995D01*
X48884Y112339D01*
X48218Y112518D01*
X47530D01*
X46864Y112339D01*
X46268Y111995D01*
X45781Y111508D01*
X45436Y110911D01*
X45258Y110246D01*
Y109557D01*
X45436Y108892D01*
X45781Y108295D01*
X46268Y107808D01*
X46864Y107464D01*
X47530Y107285D01*
X48218D01*
X48884Y107464D01*
X48976Y107517D01*
X51806Y104686D01*
X51806Y104686D01*
X52100Y104490D01*
X52448Y104421D01*
X52448Y104421D01*
X53762D01*
X53969Y103921D01*
X53655Y103606D01*
X53310Y103010D01*
X53132Y102344D01*
Y101656D01*
X53310Y100990D01*
X53655Y100394D01*
X54142Y99907D01*
X54203Y99871D01*
X54070Y99371D01*
X49553D01*
X49419Y99871D01*
X49480Y99907D01*
X49967Y100394D01*
X50312Y100990D01*
X50490Y101656D01*
Y102344D01*
X50312Y103010D01*
X49967Y103606D01*
X49480Y104093D01*
X48884Y104438D01*
X48218Y104616D01*
X47530D01*
X46864Y104438D01*
X46268Y104093D01*
X45781Y103606D01*
X45436Y103010D01*
X45258Y102344D01*
Y101656D01*
X45436Y100990D01*
X45781Y100394D01*
X46268Y99907D01*
X46330Y99871D01*
X46196Y99371D01*
X44431D01*
X42517Y101285D01*
X42616Y101656D01*
Y102344D01*
X42438Y103010D01*
X42093Y103606D01*
X41606Y104093D01*
X41274Y104285D01*
Y107617D01*
X41606Y107808D01*
X42093Y108295D01*
X42438Y108892D01*
X42616Y109557D01*
Y110246D01*
X42438Y110911D01*
X42093Y111508D01*
X41606Y111995D01*
X41274Y112187D01*
Y115514D01*
X41606Y115706D01*
X42093Y116193D01*
X42438Y116789D01*
X42616Y117455D01*
Y118144D01*
X42438Y118809D01*
X42093Y119405D01*
X41606Y119893D01*
X41010Y120237D01*
X40344Y120415D01*
X39656D01*
X38990Y120237D01*
X38394Y119893D01*
X37907Y119405D01*
X37562Y118809D01*
X37384Y118144D01*
Y117455D01*
X37562Y116789D01*
X37907Y116193D01*
X38394Y115706D01*
X38726Y115514D01*
Y112187D01*
X38394Y111995D01*
X37907Y111508D01*
X37562Y110911D01*
X37384Y110246D01*
Y109557D01*
X37562Y108892D01*
X37907Y108295D01*
X38394Y107808D01*
X38726Y107617D01*
Y104285D01*
X38394Y104093D01*
X37907Y103606D01*
X37562Y103010D01*
X37384Y102344D01*
Y101656D01*
X37562Y100990D01*
X37907Y100394D01*
X38394Y99907D01*
X38990Y99562D01*
X39656Y99384D01*
X40344D01*
X40715Y99483D01*
X43002Y97195D01*
X43416Y96919D01*
X43904Y96822D01*
X46359D01*
X46493Y96322D01*
X46268Y96192D01*
X45781Y95705D01*
X45436Y95108D01*
X45258Y94443D01*
Y93754D01*
X45436Y93089D01*
X45781Y92492D01*
X46268Y92005D01*
X46864Y91661D01*
X47530Y91482D01*
X48218D01*
X48884Y91661D01*
X49480Y92005D01*
X49967Y92492D01*
X50312Y93089D01*
X50490Y93754D01*
Y94443D01*
X50312Y95108D01*
X49967Y95705D01*
X49480Y96192D01*
X49255Y96322D01*
X49389Y96822D01*
X54233D01*
X54367Y96322D01*
X54142Y96192D01*
X53655Y95705D01*
X53310Y95108D01*
X53132Y94443D01*
Y93754D01*
X53310Y93089D01*
X53655Y92492D01*
X54142Y92005D01*
X54738Y91661D01*
X55404Y91482D01*
X56092D01*
X56758Y91661D01*
X56849Y91714D01*
X59105Y89458D01*
X59399Y89262D01*
X59746Y89193D01*
X62748D01*
X62813Y88693D01*
X62612Y88639D01*
X62016Y88294D01*
X61529Y87807D01*
X61184Y87211D01*
X61006Y86545D01*
Y85856D01*
X61184Y85191D01*
X61529Y84595D01*
X61816Y84307D01*
X61608Y83807D01*
X57762D01*
X57554Y84307D01*
X57841Y84595D01*
X58186Y85191D01*
X58364Y85856D01*
Y86545D01*
X58186Y87211D01*
X57841Y87807D01*
X57354Y88294D01*
X56758Y88639D01*
X56092Y88817D01*
X55404D01*
X54738Y88639D01*
X54142Y88294D01*
X53655Y87807D01*
X53310Y87211D01*
X53132Y86545D01*
Y85856D01*
X53310Y85191D01*
X53655Y84595D01*
X53942Y84307D01*
X53734Y83807D01*
X51551D01*
X50259Y85099D01*
X50312Y85191D01*
X50490Y85856D01*
Y86545D01*
X50312Y87211D01*
X49967Y87807D01*
X49480Y88294D01*
X48884Y88639D01*
X48218Y88817D01*
X47530D01*
X46864Y88639D01*
X46268Y88294D01*
X45781Y87807D01*
X45436Y87211D01*
X45258Y86545D01*
Y85856D01*
X45436Y85191D01*
X45781Y84595D01*
X46268Y84107D01*
X46864Y83763D01*
X47530Y83585D01*
X48218D01*
X48884Y83763D01*
X48976Y83816D01*
X50533Y82258D01*
X50533Y82258D01*
X50827Y82062D01*
X51175Y81993D01*
X51175Y81993D01*
X57505D01*
X57696Y81531D01*
X56849Y80684D01*
X56758Y80737D01*
X56092Y80915D01*
X55404D01*
X54738Y80737D01*
X54142Y80393D01*
X53655Y79905D01*
X53310Y79309D01*
X53132Y78644D01*
Y77955D01*
X53310Y77289D01*
X53655Y76693D01*
X54142Y76206D01*
X54203Y76170D01*
X54070Y75670D01*
X49553D01*
X49419Y76170D01*
X49480Y76206D01*
X49967Y76693D01*
X50312Y77289D01*
X50490Y77955D01*
Y78644D01*
X50312Y79309D01*
X49967Y79905D01*
X49480Y80393D01*
X48884Y80737D01*
X48218Y80915D01*
X47530D01*
X46864Y80737D01*
X46268Y80393D01*
X45781Y79905D01*
X45436Y79309D01*
X45258Y78644D01*
Y77955D01*
X45436Y77289D01*
X45781Y76693D01*
X46268Y76206D01*
X46330Y76170D01*
X46196Y75670D01*
X44431D01*
X42517Y77585D01*
X42616Y77955D01*
Y78644D01*
X42438Y79309D01*
X42093Y79905D01*
X41606Y80393D01*
X41274Y80584D01*
Y83916D01*
X41606Y84107D01*
X42093Y84595D01*
X42438Y85191D01*
X42616Y85856D01*
Y86545D01*
X42438Y87211D01*
X42093Y87807D01*
X41606Y88294D01*
X41274Y88486D01*
Y91813D01*
X41606Y92005D01*
X42093Y92492D01*
X42438Y93089D01*
X42616Y93754D01*
Y94443D01*
X42438Y95108D01*
X42093Y95705D01*
X41606Y96192D01*
X41010Y96536D01*
X40344Y96715D01*
X39656D01*
X38990Y96536D01*
X38394Y96192D01*
X37907Y95705D01*
X37562Y95108D01*
X37384Y94443D01*
Y93754D01*
X37562Y93089D01*
X37907Y92492D01*
X38394Y92005D01*
X38726Y91813D01*
Y88486D01*
X38394Y88294D01*
X37907Y87807D01*
X37562Y87211D01*
X37384Y86545D01*
Y85856D01*
X37562Y85191D01*
X37907Y84595D01*
X38394Y84107D01*
X38726Y83916D01*
Y80584D01*
X38394Y80393D01*
X37907Y79905D01*
X37562Y79309D01*
X37384Y78644D01*
Y77955D01*
X37428Y77790D01*
X37074Y77201D01*
X37000Y77184D01*
X36307Y77876D01*
Y181724D01*
X83318Y228735D01*
X163736D01*
X163927Y228273D01*
D02*
G37*
G36*
X528541Y200172D02*
Y199282D01*
X528079Y199090D01*
X495679Y231490D01*
X495385Y231686D01*
X495038Y231755D01*
X475536D01*
X475536Y231755D01*
X475189Y231686D01*
X474895Y231490D01*
X474895Y231490D01*
X473044Y229639D01*
X457602D01*
X457395Y230139D01*
X457692Y230436D01*
X457978Y231126D01*
Y231873D01*
X457913Y232030D01*
X458976Y233093D01*
X495620D01*
X528541Y200172D01*
D02*
G37*
G36*
X526044Y198559D02*
X525760Y198135D01*
X525174Y198378D01*
X524427D01*
X523736Y198092D01*
X523208Y197564D01*
X522922Y196874D01*
Y196159D01*
X519096D01*
X518905Y196621D01*
X519570Y197287D01*
X519727Y197222D01*
X520473D01*
X521164Y197508D01*
X521692Y198036D01*
X521978Y198726D01*
Y199474D01*
X521692Y200164D01*
X521164Y200692D01*
X520473Y200978D01*
X519727D01*
X519036Y200692D01*
X518508Y200164D01*
X518222Y199474D01*
Y198726D01*
X518287Y198570D01*
X517156Y197439D01*
X485602D01*
X485395Y197939D01*
X485692Y198236D01*
X485978Y198926D01*
Y199674D01*
X485692Y200364D01*
X485164Y200892D01*
X485007Y200957D01*
Y225468D01*
X485007Y225468D01*
X484938Y225815D01*
X484742Y226110D01*
X484742Y226110D01*
X481373Y229479D01*
X481564Y229941D01*
X494662D01*
X526044Y198559D01*
D02*
G37*
G36*
X361579Y193558D02*
X361579Y193558D01*
X361874Y193362D01*
X362221Y193293D01*
X362221Y193293D01*
X364043D01*
X364108Y193136D01*
X364636Y192608D01*
X364865Y192513D01*
X364765Y192013D01*
X350576D01*
X350369Y192513D01*
X350692Y192836D01*
X350978Y193526D01*
Y194274D01*
X350692Y194964D01*
X350164Y195492D01*
X349474Y195778D01*
X348727D01*
X348036Y195492D01*
X347508Y194964D01*
X347443Y194807D01*
X239957D01*
X239892Y194964D01*
X239364Y195492D01*
X238673Y195778D01*
X237927D01*
X237236Y195492D01*
X236708Y194964D01*
X236422Y194274D01*
Y193526D01*
X236708Y192836D01*
X237031Y192513D01*
X236824Y192013D01*
X228990D01*
X228013Y192990D01*
X228078Y193146D01*
Y193893D01*
X227792Y194583D01*
X227264Y195112D01*
X226573Y195398D01*
X225827D01*
X225136Y195112D01*
X224608Y194583D01*
X224322Y193893D01*
Y193146D01*
X224608Y192456D01*
X225136Y191928D01*
X225827Y191642D01*
X226573D01*
X226730Y191706D01*
X227327Y191109D01*
X227136Y190647D01*
X194347D01*
X194347Y190647D01*
X194000Y190578D01*
X193705Y190381D01*
X193705Y190381D01*
X187832Y184507D01*
X175770D01*
X175563Y185007D01*
X175892Y185336D01*
X176178Y186026D01*
Y186774D01*
X176113Y186930D01*
X185876Y196693D01*
X221743D01*
X221808Y196536D01*
X222336Y196008D01*
X223026Y195722D01*
X223774D01*
X224464Y196008D01*
X224992Y196536D01*
X225278Y197226D01*
Y197974D01*
X224992Y198664D01*
X224464Y199192D01*
X224347Y199240D01*
X224445Y199741D01*
X230148Y199781D01*
X230208Y199636D01*
X230736Y199108D01*
X231427Y198822D01*
X232173D01*
X232864Y199108D01*
X233392Y199636D01*
X233678Y200326D01*
Y201074D01*
X233392Y201764D01*
X233095Y202061D01*
X233302Y202561D01*
X234192D01*
X236487Y200266D01*
X236422Y200110D01*
Y199362D01*
X236708Y198672D01*
X237236Y198144D01*
X237927Y197858D01*
X238673D01*
X239364Y198144D01*
X239892Y198672D01*
X240178Y199362D01*
Y200110D01*
X239892Y200800D01*
X239364Y201328D01*
X238673Y201614D01*
X237927D01*
X237770Y201549D01*
X237227Y202093D01*
X237434Y202593D01*
X352545D01*
X361579Y193558D01*
D02*
G37*
G36*
X480393Y201812D02*
Y197070D01*
X479893Y196863D01*
X479764Y196992D01*
X479073Y197278D01*
X478327D01*
X478159Y197208D01*
X471794Y203574D01*
X471499Y203770D01*
X471152Y203839D01*
X391102D01*
X390895Y204339D01*
X391192Y204636D01*
X391478Y205327D01*
Y206073D01*
X391192Y206764D01*
X390875Y207081D01*
X391082Y207581D01*
X474624D01*
X480393Y201812D01*
D02*
G37*
G36*
X527261Y197342D02*
Y127494D01*
X524449Y124682D01*
X524001Y124941D01*
X524112Y125356D01*
Y126045D01*
X523934Y126711D01*
X523589Y127307D01*
X523102Y127794D01*
X522506Y128139D01*
X521840Y128317D01*
X521152D01*
X520486Y128139D01*
X519890Y127794D01*
X519403Y127307D01*
X519058Y126711D01*
X518880Y126045D01*
Y125356D01*
X519058Y124691D01*
X519403Y124094D01*
X519890Y123607D01*
X520486Y123263D01*
X521152Y123085D01*
X521840D01*
X522255Y123196D01*
X522514Y122748D01*
X521801Y122035D01*
X509979D01*
X509895Y122185D01*
X509793Y122535D01*
X509938Y122753D01*
X510007Y123100D01*
X510007Y123100D01*
Y125824D01*
X510583Y126400D01*
X511032Y126141D01*
X511006Y126045D01*
Y125356D01*
X511184Y124691D01*
X511529Y124094D01*
X512016Y123607D01*
X512612Y123263D01*
X513278Y123085D01*
X513966D01*
X514632Y123263D01*
X515228Y123607D01*
X515715Y124094D01*
X516060Y124691D01*
X516238Y125356D01*
Y126045D01*
X516060Y126711D01*
X515715Y127307D01*
X515228Y127794D01*
X514632Y128139D01*
X514431Y128193D01*
X514496Y128693D01*
X515400D01*
X515747Y128762D01*
X516042Y128958D01*
X518842Y131758D01*
X518905Y131853D01*
X519096Y131907D01*
X519460Y131913D01*
X519493Y131902D01*
X519890Y131505D01*
X520486Y131160D01*
X521152Y130982D01*
X521840D01*
X522506Y131160D01*
X523102Y131505D01*
X523589Y131992D01*
X523934Y132589D01*
X524112Y133254D01*
Y133943D01*
X523934Y134608D01*
X523881Y134700D01*
X525431Y136250D01*
X525431Y136250D01*
X525628Y136545D01*
X525697Y136892D01*
Y143610D01*
X525697Y143610D01*
X525628Y143958D01*
X525431Y144252D01*
X524507Y145176D01*
Y166000D01*
X524438Y166347D01*
X524242Y166642D01*
X503442Y187442D01*
X497645Y193239D01*
X497350Y193436D01*
X497003Y193505D01*
X480168D01*
X479960Y194005D01*
X480292Y194336D01*
X480296Y194345D01*
X523552D01*
X523899Y194414D01*
X524194Y194610D01*
X524270Y194687D01*
X524427Y194622D01*
X525174D01*
X525864Y194908D01*
X526392Y195436D01*
X526678Y196126D01*
Y196874D01*
X526435Y197460D01*
X526859Y197743D01*
X527261Y197342D01*
D02*
G37*
G36*
X476882Y195919D02*
X476822Y195774D01*
Y195026D01*
X477108Y194336D01*
X477439Y194005D01*
X477232Y193505D01*
X474643D01*
X466584Y201563D01*
X466776Y202025D01*
X470776D01*
X476882Y195919D01*
D02*
G37*
G36*
X347508Y192836D02*
X347831Y192513D01*
X347624Y192013D01*
X239776D01*
X239569Y192513D01*
X239892Y192836D01*
X239957Y192993D01*
X347443D01*
X347508Y192836D01*
D02*
G37*
G36*
X373193Y199624D02*
Y195757D01*
X373036Y195692D01*
X372508Y195164D01*
X372222Y194474D01*
Y193726D01*
X372508Y193036D01*
X373036Y192508D01*
X373101Y192184D01*
X371564Y190647D01*
X369684D01*
X369492Y191109D01*
X370242Y191858D01*
X370242Y191858D01*
X370438Y192153D01*
X370508Y192500D01*
X370507Y192500D01*
Y195743D01*
X370664Y195808D01*
X371192Y196336D01*
X371478Y197026D01*
Y197774D01*
X371192Y198464D01*
X370664Y198992D01*
X369973Y199278D01*
X369227D01*
X368536Y198992D01*
X368008Y198464D01*
X367722Y197774D01*
Y197026D01*
X368008Y196336D01*
X368536Y195808D01*
X368693Y195743D01*
Y192876D01*
X367830Y192013D01*
X366635D01*
X366535Y192513D01*
X366764Y192608D01*
X367292Y193136D01*
X367578Y193826D01*
Y194574D01*
X367292Y195264D01*
X366764Y195792D01*
X366073Y196078D01*
X365326D01*
X364636Y195792D01*
X364108Y195264D01*
X364043Y195107D01*
X362597D01*
X354464Y203241D01*
X354671Y203741D01*
X369076D01*
X373193Y199624D01*
D02*
G37*
G36*
X382639Y201010D02*
X382639Y201010D01*
X382933Y200814D01*
X383281Y200745D01*
X383281Y200745D01*
X464836D01*
X473625Y191955D01*
X473919Y191759D01*
X474267Y191690D01*
X496627D01*
X500147Y188169D01*
X499956Y187707D01*
X489057D01*
X488992Y187864D01*
X488464Y188392D01*
X487774Y188678D01*
X487027D01*
X486336Y188392D01*
X485808Y187864D01*
X485522Y187174D01*
Y186426D01*
X485808Y185736D01*
X486336Y185208D01*
X487027Y184922D01*
X487774D01*
X488464Y185208D01*
X488992Y185736D01*
X489057Y185893D01*
X502424D01*
X522693Y165624D01*
Y164715D01*
X522193Y164564D01*
X522138Y164646D01*
X522138Y164646D01*
X508642Y178142D01*
X508347Y178338D01*
X508000Y178407D01*
X483876D01*
X466342Y195942D01*
X466047Y196138D01*
X465700Y196207D01*
X381176D01*
X372825Y204559D01*
X373016Y205021D01*
X378629D01*
X382639Y201010D01*
D02*
G37*
G36*
X380158Y194658D02*
X380453Y194462D01*
X380800Y194393D01*
X380800Y194393D01*
X465324D01*
X482858Y176858D01*
X483153Y176662D01*
X483500Y176593D01*
X507624D01*
X520589Y163628D01*
Y143965D01*
X520486Y143938D01*
X519890Y143593D01*
X519607Y143311D01*
X519107Y143518D01*
Y162500D01*
X519073Y162673D01*
X519040Y162844D01*
X519039Y162846D01*
X519038Y162847D01*
X518940Y162994D01*
X518844Y163139D01*
X518843Y163140D01*
X518842Y163142D01*
X518695Y163239D01*
X518550Y163337D01*
X518549Y163337D01*
X518547Y163338D01*
X518374Y163373D01*
X518203Y163407D01*
X377788Y163934D01*
X377597Y164396D01*
X378642Y165440D01*
X378642Y165440D01*
X378838Y165735D01*
X378907Y166082D01*
Y174243D01*
X379064Y174308D01*
X379592Y174836D01*
X379878Y175526D01*
Y176274D01*
X379592Y176964D01*
X379064Y177492D01*
X378374Y177778D01*
X377626D01*
X376936Y177492D01*
X376408Y176964D01*
X376122Y176274D01*
Y175526D01*
X376408Y174836D01*
X376936Y174308D01*
X377093Y174243D01*
Y168262D01*
X376593Y168163D01*
X376592Y168164D01*
X376064Y168692D01*
X375374Y168978D01*
X374626D01*
X374470Y168913D01*
X367942Y175442D01*
X367942Y175442D01*
X356442Y186942D01*
X356276Y187052D01*
X356428Y187552D01*
X428292D01*
X428736Y187108D01*
X429426Y186822D01*
X430173D01*
X430864Y187108D01*
X431392Y187636D01*
X431678Y188326D01*
Y189074D01*
X431392Y189764D01*
X430864Y190292D01*
X430173Y190578D01*
X429426D01*
X428736Y190292D01*
X428208Y189764D01*
X428044Y189367D01*
X373504D01*
X373312Y189829D01*
X375542Y192058D01*
X375738Y192353D01*
X375807Y192700D01*
X375807Y192700D01*
Y193315D01*
X375978Y193726D01*
Y194474D01*
X375807Y194885D01*
Y198356D01*
X376269Y198547D01*
X380158Y194658D01*
D02*
G37*
G36*
X227548Y188370D02*
X225856Y186678D01*
X225374Y186878D01*
X224626D01*
X223936Y186592D01*
X223408Y186064D01*
X223122Y185374D01*
Y184626D01*
X223322Y184144D01*
X219917Y180739D01*
X194302D01*
X194095Y181239D01*
X194392Y181536D01*
X194678Y182226D01*
Y182974D01*
X194392Y183664D01*
X193864Y184192D01*
X193174Y184478D01*
X192426D01*
X191736Y184192D01*
X191208Y183664D01*
X191019Y183207D01*
X189752D01*
X189560Y183669D01*
X194723Y188832D01*
X227356D01*
X227548Y188370D01*
D02*
G37*
G36*
X361008Y170336D02*
X361536Y169808D01*
X361759Y169716D01*
X361654Y169218D01*
X346373Y169575D01*
X346363Y169573D01*
X346352Y169575D01*
X254668D01*
X254321Y169506D01*
X254026Y169310D01*
X254026Y169310D01*
X252064Y167348D01*
X251751Y167388D01*
X251558Y167903D01*
X251692Y168036D01*
X251978Y168726D01*
Y169474D01*
X251913Y169630D01*
X252776Y170493D01*
X360943D01*
X361008Y170336D01*
D02*
G37*
G36*
X342805Y167261D02*
X342508Y166964D01*
X342443Y166807D01*
X255700D01*
X255353Y166738D01*
X255058Y166542D01*
X254424Y165907D01*
X253844D01*
X253653Y166369D01*
X255044Y167761D01*
X342598D01*
X342805Y167261D01*
D02*
G37*
G36*
X342508Y164836D02*
X342837Y164507D01*
X342630Y164007D01*
X307257D01*
X307192Y164164D01*
X306863Y164493D01*
X307070Y164993D01*
X342443D01*
X342508Y164836D01*
D02*
G37*
G36*
X416065Y161975D02*
X416064Y161475D01*
X387104D01*
X387104Y161476D01*
X386757Y161406D01*
X386462Y161210D01*
X383292Y158039D01*
X382402D01*
X382195Y158539D01*
X382492Y158836D01*
X382778Y159526D01*
Y160274D01*
X382492Y160964D01*
X381964Y161492D01*
X381693Y161604D01*
X381793Y162104D01*
X416065Y161975D01*
D02*
G37*
G36*
X249006Y161757D02*
X249137Y161293D01*
X248708Y160864D01*
X248422Y160174D01*
Y159426D01*
X248708Y158736D01*
X249236Y158208D01*
X249926Y157922D01*
X250674D01*
X250830Y157987D01*
X251595Y157221D01*
X251388Y156721D01*
X239262D01*
X236144Y159840D01*
Y160979D01*
X236644Y161314D01*
X236750Y161293D01*
X236750Y161293D01*
X245200D01*
X245547Y161362D01*
X245842Y161558D01*
X246076Y161793D01*
X248983D01*
X249006Y161757D01*
D02*
G37*
G36*
X304337Y164493D02*
X304008Y164164D01*
X303722Y163474D01*
Y162726D01*
X304008Y162036D01*
X304305Y161739D01*
X304098Y161239D01*
X295876D01*
X294813Y162302D01*
X294878Y162458D01*
Y163206D01*
X294592Y163896D01*
X294064Y164424D01*
X293898Y164493D01*
X293998Y164993D01*
X304130D01*
X304337Y164493D01*
D02*
G37*
G36*
X292102D02*
X291936Y164424D01*
X291408Y163896D01*
X291122Y163206D01*
Y162458D01*
X291408Y161768D01*
X291936Y161240D01*
X292627Y160954D01*
X293373D01*
X293530Y161019D01*
X294858Y159690D01*
X294858Y159690D01*
X295153Y159494D01*
X295500Y159425D01*
X311229D01*
X311576Y159494D01*
X311871Y159690D01*
X312991Y160810D01*
X336474D01*
X336665Y160348D01*
X334824Y158507D01*
X252876D01*
X252113Y159270D01*
X252178Y159426D01*
Y160174D01*
X251892Y160864D01*
X251463Y161293D01*
X251594Y161757D01*
X251617Y161793D01*
X271243D01*
X271308Y161636D01*
X271836Y161108D01*
X272527Y160822D01*
X273273D01*
X273964Y161108D01*
X274492Y161636D01*
X274778Y162326D01*
Y163074D01*
X274492Y163764D01*
X273964Y164292D01*
X273480Y164493D01*
X273579Y164993D01*
X292002D01*
X292102Y164493D01*
D02*
G37*
G36*
X369821Y160340D02*
X369762Y160155D01*
X369576Y159878D01*
X368927D01*
X368236Y159592D01*
X367708Y159064D01*
X367422Y158374D01*
Y157626D01*
X367708Y156936D01*
X368005Y156639D01*
X367798Y156139D01*
X366908D01*
X358824Y164223D01*
X359016Y164685D01*
X365476D01*
X369821Y160340D01*
D02*
G37*
G36*
X516008Y153308D02*
Y143521D01*
X515508Y143314D01*
X515228Y143593D01*
X514632Y143938D01*
X514529Y143965D01*
Y152378D01*
X514460Y152725D01*
X514264Y153020D01*
X512690Y154594D01*
X512395Y154790D01*
X512048Y154859D01*
X390796D01*
X390605Y155321D01*
X391270Y155987D01*
X391426Y155922D01*
X392174D01*
X392864Y156208D01*
X393392Y156736D01*
X393678Y157426D01*
Y158174D01*
X393392Y158864D01*
X393095Y159161D01*
X393302Y159661D01*
X509656D01*
X516008Y153308D01*
D02*
G37*
G36*
X234136Y176808D02*
X234293Y176743D01*
Y163750D01*
X234329Y163568D01*
Y159464D01*
X234398Y159116D01*
X234594Y158822D01*
X238209Y155207D01*
X238194Y155059D01*
X238040Y154707D01*
X224344D01*
X224153Y155169D01*
X232922Y163938D01*
X233118Y164233D01*
X233187Y164580D01*
Y177104D01*
X233313Y177173D01*
X233687Y177257D01*
X234136Y176808D01*
D02*
G37*
G36*
X207203Y153158D02*
X207497Y152962D01*
X207845Y152893D01*
X209243D01*
X209308Y152736D01*
X209836Y152208D01*
X210526Y151922D01*
X211274D01*
X211964Y152208D01*
X212492Y152736D01*
X212557Y152893D01*
X239071D01*
X239262Y152431D01*
X238139Y151307D01*
X206084D01*
X205022Y152370D01*
X205086Y152526D01*
Y153274D01*
X204801Y153964D01*
X204504Y154261D01*
X204711Y154761D01*
X205601D01*
X207203Y153158D01*
D02*
G37*
G36*
X201913Y154261D02*
X201617Y153964D01*
X201331Y153274D01*
Y152526D01*
X201617Y151836D01*
X202145Y151308D01*
X202835Y151022D01*
X203582D01*
X203738Y151087D01*
X204718Y150107D01*
X204511Y149607D01*
X200876D01*
X197742Y152742D01*
X197447Y152938D01*
X197100Y153007D01*
X176557D01*
X176492Y153164D01*
X176073Y153583D01*
X176211Y154073D01*
X176221Y154088D01*
X197950Y154761D01*
X201706D01*
X201913Y154261D01*
D02*
G37*
G36*
X289447Y151131D02*
X285298Y146981D01*
X246569D01*
X246235Y147481D01*
X246378Y147826D01*
Y148574D01*
X246092Y149264D01*
X245741Y149615D01*
X245948Y150115D01*
X246858D01*
X248214Y148758D01*
X248214Y148758D01*
X248509Y148562D01*
X248856Y148493D01*
X266843D01*
X266908Y148336D01*
X267436Y147808D01*
X268127Y147522D01*
X268874D01*
X269564Y147808D01*
X270092Y148336D01*
X270378Y149026D01*
Y149774D01*
X270092Y150464D01*
X269661Y150895D01*
X269785Y151348D01*
X269814Y151395D01*
X282703D01*
X283050Y151464D01*
X283242Y151593D01*
X289256D01*
X289447Y151131D01*
D02*
G37*
G36*
X243259Y149615D02*
X242908Y149264D01*
X242622Y148574D01*
Y147826D01*
X242687Y147670D01*
X241998Y146981D01*
X210322D01*
X210322Y146981D01*
X209974Y146912D01*
X209680Y146715D01*
X209680Y146715D01*
X206850Y143885D01*
X206758Y143938D01*
X206092Y144116D01*
X205404D01*
X204738Y143938D01*
X204646Y143885D01*
X201201Y147331D01*
X201392Y147793D01*
X239375D01*
X239722Y147862D01*
X240017Y148058D01*
X242073Y150115D01*
X243052D01*
X243259Y149615D01*
D02*
G37*
G36*
X345471Y147146D02*
X345152Y146757D01*
X344921Y146912D01*
X344574Y146981D01*
X335426D01*
X335079Y146912D01*
X334785Y146715D01*
X325877Y137807D01*
X307344D01*
X307153Y138269D01*
X316876Y147993D01*
X344624D01*
X345471Y147146D01*
D02*
G37*
G36*
X173086Y152627D02*
X173022Y152474D01*
Y151726D01*
X173308Y151036D01*
X173605Y150739D01*
X173398Y150239D01*
X49732D01*
X49385Y150170D01*
X49090Y149974D01*
X44663Y145546D01*
X44201Y145738D01*
Y146718D01*
X49121Y151638D01*
X171013D01*
X171361Y151707D01*
X171655Y151903D01*
X172662Y152910D01*
X173086Y152627D01*
D02*
G37*
G36*
X348926Y150390D02*
X348926Y150390D01*
X349221Y150194D01*
X349568Y150125D01*
X349568Y150125D01*
X362382D01*
X362589Y149625D01*
X356850Y143885D01*
X356758Y143938D01*
X356092Y144116D01*
X355404D01*
X354738Y143938D01*
X354646Y143885D01*
X347784Y150748D01*
X347948Y151290D01*
X348013Y151303D01*
X348926Y150390D01*
D02*
G37*
G36*
X512715Y152002D02*
Y143965D01*
X512612Y143938D01*
X512016Y143593D01*
X511729Y143307D01*
X511229Y143514D01*
Y146074D01*
X511229Y146074D01*
X511160Y146421D01*
X510963Y146715D01*
X510963Y146715D01*
X505096Y152583D01*
X505287Y153045D01*
X511672D01*
X512715Y152002D01*
D02*
G37*
G36*
X316075Y149970D02*
X316084Y149693D01*
X315858Y149542D01*
X315858Y149542D01*
X305424Y139107D01*
X292929D01*
X292777Y139607D01*
X292818Y139634D01*
X296070Y142887D01*
X296227Y142822D01*
X296973D01*
X297664Y143108D01*
X298192Y143636D01*
X298478Y144326D01*
Y145074D01*
X298192Y145764D01*
X297664Y146292D01*
X296973Y146578D01*
X296227D01*
X295536Y146292D01*
X295008Y145764D01*
X294722Y145074D01*
Y144326D01*
X294787Y144170D01*
X291800Y141183D01*
X273746D01*
X273539Y141683D01*
X273892Y142036D01*
X274178Y142726D01*
Y143474D01*
X273892Y144164D01*
X273390Y144666D01*
X273399Y144796D01*
X273526Y145166D01*
X285674D01*
X286021Y145235D01*
X286315Y145432D01*
X291076Y150193D01*
X316001D01*
X316075Y149970D01*
D02*
G37*
G36*
X218627Y144704D02*
X216547Y142624D01*
X216457Y142603D01*
X215951Y142698D01*
X215715Y143106D01*
X215228Y143593D01*
X214632Y143938D01*
X213966Y144116D01*
X213278D01*
X212612Y143938D01*
X212016Y143593D01*
X211529Y143106D01*
X211184Y142510D01*
X211006Y141844D01*
Y141156D01*
X211184Y140490D01*
X211529Y139894D01*
X211815Y139607D01*
X211608Y139107D01*
X207762D01*
X207555Y139607D01*
X207841Y139894D01*
X208186Y140490D01*
X208364Y141156D01*
Y141844D01*
X208186Y142510D01*
X208133Y142602D01*
X210698Y145166D01*
X218436D01*
X218627Y144704D01*
D02*
G37*
G36*
X270422Y143473D02*
Y142726D01*
X270429Y142710D01*
X270373Y142605D01*
X269872Y142338D01*
X269525Y142407D01*
X223961D01*
X223934Y142510D01*
X223589Y143106D01*
X223310Y143386D01*
X223517Y143886D01*
X270090D01*
X270422Y143473D01*
D02*
G37*
G36*
X383309Y147993D02*
X374424Y139107D01*
X373510D01*
X373303Y139607D01*
X373589Y139894D01*
X373934Y140490D01*
X374112Y141156D01*
Y141844D01*
X373934Y142510D01*
X373589Y143106D01*
X373102Y143593D01*
X372506Y143938D01*
X371840Y144116D01*
X371152D01*
X370486Y143938D01*
X369890Y143593D01*
X369403Y143106D01*
X369058Y142510D01*
X368880Y141844D01*
Y141156D01*
X369058Y140490D01*
X369403Y139894D01*
X369689Y139607D01*
X369482Y139107D01*
X365636D01*
X365429Y139607D01*
X365715Y139894D01*
X366060Y140490D01*
X366238Y141156D01*
Y141844D01*
X366060Y142510D01*
X365715Y143106D01*
X365228Y143593D01*
X364632Y143938D01*
X363966Y144116D01*
X363278D01*
X362612Y143938D01*
X362016Y143593D01*
X361529Y143106D01*
X361184Y142510D01*
X361006Y141844D01*
Y141156D01*
X361184Y140490D01*
X361529Y139894D01*
X361815Y139607D01*
X361608Y139107D01*
X357762D01*
X357555Y139607D01*
X357841Y139894D01*
X358186Y140490D01*
X358364Y141156D01*
Y141844D01*
X358186Y142510D01*
X358133Y142602D01*
X364024Y148493D01*
X383102D01*
X383309Y147993D01*
D02*
G37*
G36*
X270107Y139634D02*
X270148Y139607D01*
X269996Y139107D01*
X223510D01*
X223303Y139607D01*
X223589Y139894D01*
X223934Y140490D01*
X223961Y140593D01*
X269149D01*
X270107Y139634D01*
D02*
G37*
G36*
X203363Y142602D02*
X203310Y142510D01*
X203132Y141844D01*
Y141156D01*
X203310Y140490D01*
X203655Y139894D01*
X203941Y139607D01*
X203734Y139107D01*
X201550D01*
X200259Y140399D01*
X200312Y140490D01*
X200490Y141156D01*
Y141844D01*
X200312Y142510D01*
X199967Y143106D01*
X199480Y143593D01*
X198884Y143938D01*
X198218Y144116D01*
X197530D01*
X197261Y144044D01*
X196761Y144428D01*
Y147354D01*
X196692Y147701D01*
X196543Y147925D01*
X196623Y148208D01*
X196753Y148425D01*
X197540D01*
X203363Y142602D01*
D02*
G37*
G36*
X503363Y142602D02*
X503310Y142510D01*
X503132Y141844D01*
Y141156D01*
X503310Y140490D01*
X503655Y139894D01*
X504142Y139407D01*
X504738Y139062D01*
X505316Y138907D01*
X505250Y138407D01*
X504900D01*
X504553Y138338D01*
X504258Y138142D01*
X504258Y138142D01*
X501758Y135642D01*
X501562Y135347D01*
X501493Y135000D01*
Y129049D01*
X501562Y128701D01*
X501758Y128407D01*
X503363Y126802D01*
X503310Y126711D01*
X503132Y126045D01*
Y125356D01*
X503310Y124691D01*
X503655Y124094D01*
X504142Y123607D01*
X504738Y123263D01*
X505404Y123085D01*
X506092D01*
X506758Y123263D01*
X507354Y123607D01*
X507427Y123680D01*
X507960Y123506D01*
X507996Y123279D01*
X506724Y122007D01*
X503750D01*
X503750Y122007D01*
X503403Y121938D01*
X503108Y121742D01*
X502591Y121224D01*
X502048Y121389D01*
X502038Y121440D01*
X501842Y121734D01*
X501547Y121931D01*
X501200Y122000D01*
X488809D01*
X488586Y122461D01*
X488583Y122482D01*
X489285Y123184D01*
X489656Y123085D01*
X490344D01*
X491010Y123263D01*
X491606Y123607D01*
X492093Y124094D01*
X492438Y124691D01*
X492616Y125356D01*
Y126045D01*
X492438Y126711D01*
X492093Y127307D01*
X491606Y127794D01*
X491274Y127986D01*
Y131313D01*
X491606Y131505D01*
X491886Y131785D01*
X492386Y131578D01*
Y130281D01*
X492455Y129934D01*
X492652Y129639D01*
X495489Y126802D01*
X495436Y126711D01*
X495258Y126045D01*
Y125356D01*
X495436Y124691D01*
X495781Y124094D01*
X496268Y123607D01*
X496864Y123263D01*
X497530Y123085D01*
X498218D01*
X498884Y123263D01*
X499480Y123607D01*
X499967Y124094D01*
X500312Y124691D01*
X500490Y125356D01*
Y126045D01*
X500312Y126711D01*
X499967Y127307D01*
X499480Y127794D01*
X498884Y128139D01*
X498218Y128317D01*
X497530D01*
X496864Y128139D01*
X496772Y128086D01*
X494201Y130657D01*
Y135335D01*
X494663Y135526D01*
X495489Y134700D01*
X495436Y134608D01*
X495258Y133943D01*
Y133254D01*
X495436Y132589D01*
X495781Y131992D01*
X496268Y131505D01*
X496864Y131160D01*
X497530Y130982D01*
X498218D01*
X498884Y131160D01*
X499480Y131505D01*
X499967Y131992D01*
X500312Y132589D01*
X500490Y133254D01*
Y133943D01*
X500312Y134608D01*
X499967Y135205D01*
X499480Y135692D01*
X498884Y136036D01*
X498218Y136214D01*
X497530D01*
X496864Y136036D01*
X496772Y135983D01*
X495481Y137275D01*
Y139486D01*
X495981Y139693D01*
X496268Y139407D01*
X496864Y139062D01*
X497530Y138884D01*
X498218D01*
X498884Y139062D01*
X499480Y139407D01*
X499967Y139894D01*
X500312Y140490D01*
X500490Y141156D01*
Y141844D01*
X500312Y142510D01*
X499967Y143106D01*
X499480Y143593D01*
X498884Y143938D01*
X498781Y143965D01*
Y145406D01*
X498712Y145754D01*
X498516Y146048D01*
X496571Y147993D01*
X496778Y148493D01*
X497472D01*
X503363Y142602D01*
D02*
G37*
G36*
X184501Y145984D02*
X169724Y131207D01*
X73512D01*
X73305Y131707D01*
X73589Y131992D01*
X73934Y132589D01*
X74112Y133254D01*
Y133943D01*
X73934Y134608D01*
X73589Y135205D01*
X73102Y135692D01*
X72506Y136036D01*
X71840Y136214D01*
X71152D01*
X70486Y136036D01*
X69890Y135692D01*
X69403Y135205D01*
X69058Y134608D01*
X68880Y133943D01*
Y133254D01*
X69058Y132589D01*
X69403Y131992D01*
X69687Y131707D01*
X69480Y131207D01*
X65638D01*
X65431Y131707D01*
X65715Y131992D01*
X66060Y132589D01*
X66238Y133254D01*
Y133943D01*
X66060Y134608D01*
X65715Y135205D01*
X65228Y135692D01*
X64632Y136036D01*
X63966Y136214D01*
X63278D01*
X62612Y136036D01*
X62016Y135692D01*
X61529Y135205D01*
X61184Y134608D01*
X61006Y133943D01*
Y133254D01*
X61184Y132589D01*
X61529Y131992D01*
X61813Y131707D01*
X61606Y131207D01*
X57764D01*
X57557Y131707D01*
X57841Y131992D01*
X58186Y132589D01*
X58364Y133254D01*
Y133943D01*
X58186Y134608D01*
X57841Y135205D01*
X57354Y135692D01*
X56758Y136036D01*
X56092Y136214D01*
X55404D01*
X54738Y136036D01*
X54646Y135983D01*
X53415Y137214D01*
X53097Y137551D01*
X53415Y137884D01*
X54646Y139115D01*
X54738Y139062D01*
X55404Y138884D01*
X56092D01*
X56758Y139062D01*
X57354Y139407D01*
X57841Y139894D01*
X58186Y140490D01*
X58364Y141156D01*
Y141844D01*
X58186Y142510D01*
X57841Y143106D01*
X57354Y143593D01*
X56758Y143938D01*
X56092Y144116D01*
X55404D01*
X54738Y143938D01*
X54142Y143593D01*
X53655Y143106D01*
X53310Y142510D01*
X53132Y141844D01*
Y141156D01*
X53310Y140490D01*
X53363Y140399D01*
X52072Y139107D01*
X49888D01*
X49681Y139607D01*
X49967Y139894D01*
X50312Y140490D01*
X50490Y141156D01*
Y141844D01*
X50312Y142510D01*
X50259Y142602D01*
X54103Y146446D01*
X184309D01*
X184501Y145984D01*
D02*
G37*
G36*
X484300Y146231D02*
X475877Y137807D01*
X376344D01*
X376153Y138269D01*
X384576Y146693D01*
X484109D01*
X484300Y146231D01*
D02*
G37*
G36*
X512016Y139407D02*
X512612Y139062D01*
X513278Y138884D01*
X513966D01*
X514632Y139062D01*
X515228Y139407D01*
X515508Y139686D01*
X516008Y139479D01*
Y137268D01*
X514723Y135983D01*
X514632Y136036D01*
X513966Y136214D01*
X513278D01*
X512612Y136036D01*
X512016Y135692D01*
X511529Y135205D01*
X511184Y134608D01*
X511006Y133943D01*
Y133254D01*
X511184Y132589D01*
X511529Y131992D01*
X512016Y131505D01*
X512612Y131160D01*
X513184Y131007D01*
X513118Y130507D01*
X512500D01*
X512500Y130507D01*
X512153Y130438D01*
X511858Y130242D01*
X511858Y130242D01*
X508604Y126987D01*
X508110Y126994D01*
X507993Y127045D01*
X507841Y127307D01*
X507354Y127794D01*
X506758Y128139D01*
X506092Y128317D01*
X505404D01*
X504738Y128139D01*
X504646Y128086D01*
X503307Y129425D01*
Y131632D01*
X503807Y131839D01*
X504142Y131505D01*
X504738Y131160D01*
X505404Y130982D01*
X506092D01*
X506758Y131160D01*
X507354Y131505D01*
X507841Y131992D01*
X508186Y132589D01*
X508364Y133254D01*
Y133943D01*
X508186Y134608D01*
X508133Y134700D01*
X510963Y137530D01*
X510963Y137530D01*
X511160Y137825D01*
X511229Y138172D01*
X511229Y138172D01*
Y139486D01*
X511729Y139693D01*
X512016Y139407D01*
D02*
G37*
G36*
X476122Y135493D02*
X471811Y131182D01*
X409254D01*
X408270Y132166D01*
X408232Y132191D01*
X408384Y132691D01*
X432542D01*
X432606Y132535D01*
X433135Y132006D01*
X433825Y131720D01*
X434572D01*
X435262Y132006D01*
X435790Y132535D01*
X436076Y133225D01*
Y133972D01*
X435790Y134662D01*
X435262Y135190D01*
X434572Y135476D01*
X433825D01*
X433135Y135190D01*
X432606Y134662D01*
X432542Y134506D01*
X373961D01*
X373934Y134608D01*
X373589Y135205D01*
X373302Y135493D01*
X373509Y135993D01*
X475915D01*
X476122Y135493D01*
D02*
G37*
G36*
X326122D02*
X321037Y130407D01*
X201673D01*
X201326Y130338D01*
X201031Y130142D01*
X198976Y128086D01*
X198884Y128139D01*
X198218Y128317D01*
X197530D01*
X196864Y128139D01*
X196772Y128086D01*
X194201Y130657D01*
Y135335D01*
X194663Y135526D01*
X195489Y134700D01*
X195436Y134608D01*
X195258Y133943D01*
Y133254D01*
X195436Y132589D01*
X195781Y131992D01*
X196268Y131505D01*
X196864Y131160D01*
X197530Y130982D01*
X198218D01*
X198884Y131160D01*
X199480Y131505D01*
X199967Y131992D01*
X200312Y132589D01*
X200490Y133254D01*
Y133943D01*
X200312Y134608D01*
X200259Y134700D01*
X201552Y135993D01*
X203735D01*
X203942Y135493D01*
X203655Y135205D01*
X203310Y134608D01*
X203132Y133943D01*
Y133254D01*
X203310Y132589D01*
X203655Y131992D01*
X204142Y131505D01*
X204738Y131160D01*
X205404Y130982D01*
X206092D01*
X206758Y131160D01*
X207354Y131505D01*
X207841Y131992D01*
X208186Y132589D01*
X208364Y133254D01*
Y133943D01*
X208186Y134608D01*
X207841Y135205D01*
X207554Y135493D01*
X207761Y135993D01*
X211609D01*
X211816Y135493D01*
X211529Y135205D01*
X211184Y134608D01*
X211006Y133943D01*
Y133254D01*
X211184Y132589D01*
X211529Y131992D01*
X212016Y131505D01*
X212612Y131160D01*
X213278Y130982D01*
X213966D01*
X214632Y131160D01*
X215228Y131505D01*
X215715Y131992D01*
X216060Y132589D01*
X216238Y133254D01*
Y133943D01*
X216060Y134608D01*
X215715Y135205D01*
X215428Y135493D01*
X215635Y135993D01*
X219483D01*
X219690Y135493D01*
X219403Y135205D01*
X219058Y134608D01*
X218880Y133943D01*
Y133254D01*
X219058Y132589D01*
X219403Y131992D01*
X219890Y131505D01*
X220486Y131160D01*
X221152Y130982D01*
X221840D01*
X222506Y131160D01*
X223102Y131505D01*
X223589Y131992D01*
X223934Y132589D01*
X223961Y132691D01*
X313761D01*
X313908Y132336D01*
X314436Y131808D01*
X315126Y131522D01*
X315874D01*
X316564Y131808D01*
X317092Y132336D01*
X317378Y133026D01*
Y133774D01*
X317092Y134464D01*
X316564Y134992D01*
X315874Y135278D01*
X315126D01*
X314436Y134992D01*
X313950Y134506D01*
X223961D01*
X223934Y134608D01*
X223589Y135205D01*
X223302Y135493D01*
X223509Y135993D01*
X325915D01*
X326122Y135493D01*
D02*
G37*
G36*
X402738Y132191D02*
X402700Y132166D01*
X401717Y131182D01*
X373486D01*
X373279Y131682D01*
X373589Y131992D01*
X373934Y132589D01*
X373961Y132691D01*
X402587D01*
X402738Y132191D01*
D02*
G37*
G36*
X353942Y135493D02*
X353655Y135205D01*
X353310Y134608D01*
X353132Y133943D01*
Y133254D01*
X353310Y132589D01*
X353655Y131992D01*
X353965Y131682D01*
X353758Y131182D01*
X352448D01*
X352448Y131182D01*
X352100Y131113D01*
X351806Y130916D01*
X351806Y130916D01*
X348976Y128086D01*
X348884Y128139D01*
X348218Y128317D01*
X347530D01*
X346864Y128139D01*
X346772Y128086D01*
X344201Y130657D01*
Y135335D01*
X344663Y135526D01*
X345489Y134700D01*
X345436Y134608D01*
X345258Y133943D01*
Y133254D01*
X345436Y132589D01*
X345781Y131992D01*
X346268Y131505D01*
X346864Y131160D01*
X347530Y130982D01*
X348218D01*
X348884Y131160D01*
X349480Y131505D01*
X349967Y131992D01*
X350312Y132589D01*
X350490Y133254D01*
Y133943D01*
X350312Y134608D01*
X350259Y134700D01*
X351552Y135993D01*
X353735D01*
X353942Y135493D01*
D02*
G37*
G36*
X487384Y143481D02*
Y138884D01*
X488726D01*
Y135883D01*
X488394Y135692D01*
X487907Y135205D01*
X487562Y134608D01*
X487384Y133943D01*
Y133254D01*
X487562Y132589D01*
X487907Y131992D01*
X488394Y131505D01*
X488726Y131313D01*
Y127986D01*
X488394Y127794D01*
X487907Y127307D01*
X487562Y126711D01*
X487384Y126045D01*
Y125356D01*
X487483Y124986D01*
X485569Y123072D01*
X373175D01*
X373041Y123572D01*
X373102Y123607D01*
X373589Y124094D01*
X373934Y124691D01*
X373961Y124793D01*
X408784D01*
X408808Y124736D01*
X409336Y124208D01*
X410027Y123922D01*
X410774D01*
X411464Y124208D01*
X411992Y124736D01*
X412278Y125426D01*
Y126174D01*
X411992Y126864D01*
X411464Y127392D01*
X410774Y127678D01*
X410027D01*
X409336Y127392D01*
X408808Y126864D01*
X408702Y126608D01*
X407264D01*
X407164Y127106D01*
X407164Y127108D01*
X407692Y127636D01*
X407978Y128326D01*
Y129074D01*
X407895Y129274D01*
X408098Y129488D01*
X408307Y129585D01*
X408531Y129436D01*
X408878Y129367D01*
X408878Y129367D01*
X472187D01*
X472535Y129436D01*
X472829Y129633D01*
X486884Y143688D01*
X487384Y143481D01*
D02*
G37*
G36*
X337384Y143481D02*
Y138884D01*
X338725D01*
Y135883D01*
X338394Y135692D01*
X337907Y135205D01*
X337562Y134608D01*
X337384Y133943D01*
Y133254D01*
X337562Y132589D01*
X337907Y131992D01*
X338394Y131505D01*
X338725Y131313D01*
Y127986D01*
X338394Y127794D01*
X337907Y127307D01*
X337715Y126975D01*
X332359D01*
X332207Y127475D01*
X332362Y127578D01*
X333970Y129187D01*
X334126Y129122D01*
X334874D01*
X335564Y129408D01*
X336092Y129936D01*
X336378Y130626D01*
Y131374D01*
X336092Y132064D01*
X335564Y132592D01*
X334874Y132878D01*
X334126D01*
X333436Y132592D01*
X332908Y132064D01*
X332622Y131374D01*
Y130626D01*
X332687Y130470D01*
X331344Y129127D01*
X322977D01*
X322785Y129589D01*
X336884Y143688D01*
X337384Y143481D01*
D02*
G37*
G36*
X42386Y138606D02*
X42455Y138259D01*
X42652Y137965D01*
X44358Y136258D01*
X44358Y136258D01*
X44653Y136062D01*
X45000Y135993D01*
X45861D01*
X46068Y135493D01*
X45781Y135205D01*
X45436Y134608D01*
X45258Y133943D01*
Y133254D01*
X45436Y132589D01*
X45781Y131992D01*
X46268Y131505D01*
X46864Y131160D01*
X47530Y130982D01*
X48218D01*
X48884Y131160D01*
X48976Y131213D01*
X50189Y130000D01*
X50190Y129300D01*
X48976Y128086D01*
X48884Y128139D01*
X48218Y128317D01*
X47530D01*
X46864Y128139D01*
X46268Y127794D01*
X45781Y127307D01*
X45436Y126711D01*
X45258Y126045D01*
Y125356D01*
X45436Y124691D01*
X45781Y124094D01*
X46268Y123607D01*
X46330Y123572D01*
X46196Y123072D01*
X44431D01*
X42517Y124986D01*
X42616Y125356D01*
Y126045D01*
X42438Y126711D01*
X42093Y127307D01*
X41606Y127794D01*
X41274Y127986D01*
Y131313D01*
X41606Y131505D01*
X42093Y131992D01*
X42438Y132589D01*
X42616Y133254D01*
Y133943D01*
X42438Y134608D01*
X42093Y135205D01*
X41606Y135692D01*
X41274Y135883D01*
Y138884D01*
X42386D01*
Y138606D01*
D02*
G37*
G36*
X365543Y128905D02*
X364723Y128086D01*
X364632Y128139D01*
X363966Y128317D01*
X363278D01*
X362612Y128139D01*
X362016Y127794D01*
X361529Y127307D01*
X361184Y126711D01*
X361006Y126045D01*
Y125356D01*
X361184Y124691D01*
X361529Y124094D01*
X362016Y123607D01*
X362077Y123572D01*
X361944Y123072D01*
X357427D01*
X357293Y123572D01*
X357354Y123607D01*
X357841Y124094D01*
X358186Y124691D01*
X358364Y125356D01*
Y126045D01*
X358186Y126711D01*
X357841Y127307D01*
X357354Y127794D01*
X356758Y128139D01*
X356092Y128317D01*
X355404D01*
X354738Y128139D01*
X354142Y127794D01*
X353655Y127307D01*
X353310Y126711D01*
X353132Y126045D01*
Y125356D01*
X353310Y124691D01*
X353655Y124094D01*
X354142Y123607D01*
X354204Y123572D01*
X354069Y123072D01*
X349552D01*
X349419Y123572D01*
X349480Y123607D01*
X349967Y124094D01*
X350312Y124691D01*
X350490Y125356D01*
Y126045D01*
X350312Y126711D01*
X350259Y126802D01*
X352823Y129367D01*
X365352D01*
X365543Y128905D01*
D02*
G37*
G36*
X404508Y127636D02*
X405036Y127108D01*
X405036Y127106D01*
X404936Y126608D01*
X373961D01*
X373934Y126711D01*
X373589Y127307D01*
X373310Y127587D01*
X373517Y128087D01*
X404321D01*
X404508Y127636D01*
D02*
G37*
G36*
X269106Y127312D02*
X269192Y126813D01*
X268877Y126602D01*
X265347Y123072D01*
X223175D01*
X223041Y123572D01*
X223102Y123607D01*
X223589Y124094D01*
X223934Y124691D01*
X224112Y125356D01*
Y126045D01*
X223934Y126711D01*
X223881Y126802D01*
X224391Y127313D01*
X269106D01*
X269106Y127312D01*
D02*
G37*
G36*
X187384Y143481D02*
Y138884D01*
X188725D01*
Y135883D01*
X188394Y135692D01*
X187907Y135205D01*
X187562Y134608D01*
X187384Y133943D01*
Y133254D01*
X187562Y132589D01*
X187907Y131992D01*
X188394Y131505D01*
X188725Y131313D01*
Y127986D01*
X188394Y127794D01*
X187907Y127307D01*
X187562Y126711D01*
X187384Y126045D01*
Y125356D01*
X187483Y124986D01*
X185568Y123072D01*
X73175D01*
X73040Y123572D01*
X73102Y123607D01*
X73589Y124094D01*
X73934Y124691D01*
X74112Y125356D01*
Y126045D01*
X73934Y126711D01*
X73589Y127307D01*
X73304Y127593D01*
X73511Y128093D01*
X170913D01*
X171260Y128162D01*
X171555Y128358D01*
X186884Y143688D01*
X187384Y143481D01*
D02*
G37*
G36*
X337907Y124094D02*
X338394Y123607D01*
X338990Y123263D01*
X339656Y123085D01*
X340344D01*
X340715Y123184D01*
X341409Y122489D01*
X341407Y122468D01*
X341184Y122007D01*
X324400D01*
X324053Y121938D01*
X323758Y121742D01*
X323758Y121742D01*
X323024Y121007D01*
X267541D01*
X267349Y121469D01*
X270306Y124426D01*
X337715D01*
X337907Y124094D01*
D02*
G37*
G36*
X338194Y119693D02*
X337907Y119405D01*
X337562Y118809D01*
X337384Y118144D01*
Y117455D01*
X337562Y116789D01*
X337907Y116193D01*
X338394Y115706D01*
X338725Y115514D01*
Y112187D01*
X338394Y111995D01*
X337907Y111508D01*
X337562Y110911D01*
X337384Y110246D01*
Y109557D01*
X337562Y108892D01*
X337907Y108295D01*
X338394Y107808D01*
X338725Y107617D01*
Y104285D01*
X338394Y104093D01*
X337907Y103606D01*
X337715Y103275D01*
X268904D01*
X268416Y103177D01*
X268002Y102901D01*
X264472Y99371D01*
X260693D01*
X260597Y99509D01*
X260502Y99871D01*
X261970Y101339D01*
X262126Y101274D01*
X262874D01*
X263564Y101560D01*
X264092Y102088D01*
X264378Y102778D01*
Y103525D01*
X264092Y104216D01*
X263564Y104744D01*
X262874Y105030D01*
X262126D01*
X261436Y104744D01*
X260908Y104216D01*
X260622Y103525D01*
Y102778D01*
X260687Y102622D01*
X259392Y101327D01*
X224364D01*
X224112Y101656D01*
Y102344D01*
X223934Y103010D01*
X223589Y103606D01*
X223102Y104093D01*
X222506Y104438D01*
X221840Y104616D01*
X221152D01*
X220486Y104438D01*
X219890Y104093D01*
X219403Y103606D01*
X219058Y103010D01*
X218880Y102344D01*
Y101656D01*
X219058Y100990D01*
X219403Y100394D01*
X219890Y99907D01*
X219952Y99871D01*
X219817Y99371D01*
X215300D01*
X215167Y99871D01*
X215228Y99907D01*
X215715Y100394D01*
X216060Y100990D01*
X216238Y101656D01*
Y102344D01*
X216060Y103010D01*
X215715Y103606D01*
X215228Y104093D01*
X214632Y104438D01*
X213966Y104616D01*
X213278D01*
X212612Y104438D01*
X212016Y104093D01*
X211529Y103606D01*
X211184Y103010D01*
X211006Y102344D01*
Y101656D01*
X211184Y100990D01*
X211529Y100394D01*
X212016Y99907D01*
X212077Y99871D01*
X211944Y99371D01*
X207427D01*
X207293Y99871D01*
X207354Y99907D01*
X207841Y100394D01*
X208186Y100990D01*
X208364Y101656D01*
Y102344D01*
X208186Y103010D01*
X207841Y103606D01*
X207354Y104093D01*
X206758Y104438D01*
X206092Y104616D01*
X205404D01*
X205135Y104544D01*
X204876Y104992D01*
X205576Y105693D01*
X232200D01*
X232547Y105762D01*
X232842Y105958D01*
X237770Y110887D01*
X237927Y110822D01*
X238673D01*
X239364Y111108D01*
X239693Y111437D01*
X240193Y111230D01*
Y110000D01*
X240262Y109653D01*
X240458Y109358D01*
X246658Y103158D01*
X246658Y103158D01*
X246953Y102962D01*
X247300Y102893D01*
X255343D01*
X255408Y102736D01*
X255936Y102208D01*
X256627Y101922D01*
X257373D01*
X258064Y102208D01*
X258592Y102736D01*
X258878Y103426D01*
Y104174D01*
X258592Y104864D01*
X258064Y105392D01*
X257373Y105678D01*
X256627D01*
X255936Y105392D01*
X255408Y104864D01*
X255343Y104707D01*
X247676D01*
X242007Y110376D01*
Y111538D01*
X242507Y111637D01*
X242508Y111636D01*
X243036Y111108D01*
X243726Y110822D01*
X244474D01*
X245164Y111108D01*
X245692Y111636D01*
X245757Y111793D01*
X257743D01*
X257808Y111636D01*
X258336Y111108D01*
X259027Y110822D01*
X259773D01*
X260464Y111108D01*
X260992Y111636D01*
X261278Y112326D01*
Y113074D01*
X260992Y113764D01*
X260464Y114292D01*
X259773Y114578D01*
X259027D01*
X258336Y114292D01*
X257808Y113764D01*
X257743Y113607D01*
X245757D01*
X245692Y113764D01*
X245164Y114292D01*
X244474Y114578D01*
X243726D01*
X243036Y114292D01*
X242508Y113764D01*
X242507Y113762D01*
X242007Y113862D01*
Y115900D01*
X241938Y116247D01*
X241742Y116542D01*
X241447Y116738D01*
X241100Y116807D01*
X236900D01*
X236900Y116807D01*
X236553Y116738D01*
X236258Y116542D01*
X236258Y116542D01*
X233824Y114107D01*
X229044D01*
X228853Y114569D01*
X233476Y119193D01*
X322291D01*
X322409Y118693D01*
X320530Y116813D01*
X320374Y116878D01*
X319626D01*
X318936Y116592D01*
X318408Y116064D01*
X318122Y115374D01*
Y114626D01*
X318408Y113936D01*
X318936Y113408D01*
X319626Y113122D01*
X320374D01*
X321064Y113408D01*
X321592Y113936D01*
X321878Y114626D01*
Y115374D01*
X321813Y115530D01*
X324042Y117758D01*
X324042Y117758D01*
X324238Y118053D01*
X324307Y118400D01*
X324307Y118400D01*
Y119724D01*
X324776Y120193D01*
X337986D01*
X338194Y119693D01*
D02*
G37*
G36*
X486119Y120475D02*
X486316Y120057D01*
X482903Y116643D01*
X462997D01*
X462997Y116644D01*
X462650Y116574D01*
X462355Y116378D01*
X462355Y116378D01*
X457407Y111429D01*
X455492D01*
X455285Y111929D01*
X455592Y112236D01*
X455878Y112926D01*
Y113674D01*
X455592Y114364D01*
X455064Y114892D01*
X454374Y115178D01*
X453626D01*
X453470Y115113D01*
X450142Y118441D01*
X449848Y118638D01*
X449501Y118707D01*
X391257D01*
X391192Y118864D01*
X390664Y119392D01*
X389973Y119678D01*
X389227D01*
X388536Y119392D01*
X388008Y118864D01*
X387943Y118707D01*
X373961D01*
X373934Y118809D01*
X373589Y119405D01*
X373102Y119893D01*
X372877Y120023D01*
X373011Y120523D01*
X486075D01*
X486119Y120475D01*
D02*
G37*
G36*
X231777Y120061D02*
X227124Y115407D01*
X223511D01*
X223304Y115907D01*
X223589Y116193D01*
X223934Y116789D01*
X224112Y117455D01*
Y118144D01*
X223934Y118809D01*
X223589Y119405D01*
X223102Y119893D01*
X222877Y120023D01*
X223011Y120523D01*
X231586D01*
X231777Y120061D01*
D02*
G37*
G36*
X362241Y120023D02*
X362016Y119893D01*
X361529Y119405D01*
X361184Y118809D01*
X361006Y118144D01*
Y117455D01*
X361184Y116789D01*
X361529Y116193D01*
X362016Y115706D01*
X362612Y115361D01*
X363278Y115183D01*
X363966D01*
X364632Y115361D01*
X364723Y115414D01*
X365568Y114569D01*
X365377Y114107D01*
X359046D01*
X358699Y114038D01*
X358405Y113842D01*
X356850Y112286D01*
X356758Y112339D01*
X356092Y112518D01*
X355404D01*
X354738Y112339D01*
X354142Y111995D01*
X353655Y111508D01*
X353310Y110911D01*
X353132Y110246D01*
Y109557D01*
X353310Y108892D01*
X353655Y108295D01*
X353942Y108007D01*
X353735Y107507D01*
X351552D01*
X350259Y108800D01*
X350312Y108892D01*
X350490Y109557D01*
Y110246D01*
X350312Y110911D01*
X349967Y111508D01*
X349480Y111995D01*
X348884Y112339D01*
X348312Y112493D01*
X348378Y112993D01*
X351849D01*
X352196Y113062D01*
X352490Y113258D01*
X354646Y115414D01*
X354738Y115361D01*
X355404Y115183D01*
X356092D01*
X356758Y115361D01*
X357354Y115706D01*
X357841Y116193D01*
X358186Y116789D01*
X358364Y117455D01*
Y118144D01*
X358186Y118809D01*
X357841Y119405D01*
X357354Y119893D01*
X357129Y120023D01*
X357263Y120523D01*
X362107D01*
X362241Y120023D01*
D02*
G37*
G36*
X204367D02*
X204142Y119893D01*
X203655Y119405D01*
X203310Y118809D01*
X203132Y118144D01*
Y117455D01*
X203310Y116789D01*
X203655Y116193D01*
X204142Y115706D01*
X204738Y115361D01*
X205404Y115183D01*
X206092D01*
X206758Y115361D01*
X206850Y115414D01*
X207695Y114569D01*
X207503Y114107D01*
X201172D01*
X200825Y114038D01*
X200531Y113842D01*
X198976Y112286D01*
X198884Y112339D01*
X198218Y112518D01*
X197530D01*
X196864Y112339D01*
X196268Y111995D01*
X195781Y111508D01*
X195436Y110911D01*
X195258Y110246D01*
Y109557D01*
X195436Y108892D01*
X195781Y108295D01*
X196068Y108007D01*
X195861Y107507D01*
X195376D01*
X194201Y108682D01*
Y119164D01*
X194132Y119511D01*
X193935Y119805D01*
X193684Y120057D01*
X193881Y120475D01*
X193925Y120523D01*
X196359D01*
X196493Y120023D01*
X196268Y119893D01*
X195781Y119405D01*
X195436Y118809D01*
X195258Y118144D01*
Y117455D01*
X195436Y116789D01*
X195781Y116193D01*
X196268Y115706D01*
X196864Y115361D01*
X197530Y115183D01*
X198218D01*
X198884Y115361D01*
X199480Y115706D01*
X199967Y116193D01*
X200312Y116789D01*
X200490Y117455D01*
Y118144D01*
X200312Y118809D01*
X199967Y119405D01*
X199480Y119893D01*
X199255Y120023D01*
X199389Y120523D01*
X204233D01*
X204367Y120023D01*
D02*
G37*
G36*
X186119Y120475D02*
X186316Y120057D01*
X182235Y115975D01*
X109968D01*
X109621Y115906D01*
X109326Y115710D01*
X109326Y115710D01*
X108324Y114707D01*
X71997D01*
X71931Y115207D01*
X72506Y115361D01*
X73102Y115706D01*
X73589Y116193D01*
X73934Y116789D01*
X74112Y117455D01*
Y118144D01*
X73934Y118809D01*
X73589Y119405D01*
X73102Y119893D01*
X72877Y120023D01*
X73011Y120523D01*
X186075D01*
X186119Y120475D01*
D02*
G37*
G36*
X452187Y113830D02*
X452122Y113674D01*
Y112926D01*
X452337Y112407D01*
X451913Y112124D01*
X450195Y113842D01*
X449901Y114038D01*
X449554Y114107D01*
X447936D01*
X447936Y114107D01*
X447589Y114038D01*
X447294Y113842D01*
X445892Y112439D01*
X445002D01*
X444795Y112939D01*
X445092Y113236D01*
X445378Y113926D01*
Y114674D01*
X445092Y115364D01*
X444564Y115892D01*
X443874Y116178D01*
X443126D01*
X442969Y116112D01*
X442681Y116305D01*
X442334Y116374D01*
X393085D01*
X393085Y116374D01*
X392738Y116305D01*
X392443Y116108D01*
X392443Y116108D01*
X391971Y115636D01*
X390590D01*
X390490Y116136D01*
X390664Y116208D01*
X391192Y116736D01*
X391256Y116892D01*
X449125D01*
X452187Y113830D01*
D02*
G37*
G36*
X487384Y117851D02*
Y117455D01*
X487562Y116789D01*
X487907Y116193D01*
X488394Y115706D01*
X488726Y115514D01*
Y112187D01*
X488394Y111995D01*
X487907Y111508D01*
X487562Y110911D01*
X487384Y110246D01*
Y109557D01*
X487562Y108892D01*
X487907Y108295D01*
X488394Y107808D01*
X488726Y107617D01*
Y104285D01*
X488394Y104093D01*
X487907Y103606D01*
X487715Y103275D01*
X479611D01*
X479420Y103736D01*
X480170Y104487D01*
X480327Y104422D01*
X481074D01*
X481764Y104708D01*
X482292Y105236D01*
X482578Y105926D01*
Y106674D01*
X482292Y107364D01*
X481764Y107892D01*
X481074Y108178D01*
X480327D01*
X479636Y107892D01*
X479108Y107364D01*
X478822Y106674D01*
Y105926D01*
X478887Y105770D01*
X477724Y104607D01*
X468598D01*
X468391Y105107D01*
X469170Y105887D01*
X469326Y105822D01*
X470074D01*
X470764Y106108D01*
X471292Y106636D01*
X471578Y107326D01*
Y108074D01*
X471292Y108764D01*
X470764Y109292D01*
X470074Y109578D01*
X469326D01*
X468636Y109292D01*
X468108Y108764D01*
X467822Y108074D01*
Y107326D01*
X467887Y107170D01*
X466924Y106207D01*
X462108D01*
X461917Y106669D01*
X466402Y111155D01*
X466558Y111090D01*
X467306D01*
X467996Y111376D01*
X468524Y111904D01*
X468810Y112594D01*
Y113342D01*
X468524Y114032D01*
X468227Y114329D01*
X468434Y114829D01*
X483279D01*
X483626Y114898D01*
X483920Y115094D01*
X486884Y118058D01*
X487384Y117851D01*
D02*
G37*
G36*
X187384D02*
Y117455D01*
X187562Y116789D01*
X187907Y116193D01*
X188394Y115706D01*
X188725Y115514D01*
Y112187D01*
X188394Y111995D01*
X187907Y111508D01*
X187562Y110911D01*
X187384Y110246D01*
Y109557D01*
X187562Y108892D01*
X187907Y108295D01*
X188394Y107808D01*
X188725Y107617D01*
Y104285D01*
X188394Y104093D01*
X187907Y103606D01*
X187562Y103010D01*
X187384Y102344D01*
Y101656D01*
X187483Y101285D01*
X185568Y99371D01*
X73175D01*
X73040Y99871D01*
X73102Y99907D01*
X73589Y100394D01*
X73934Y100990D01*
X73961Y101093D01*
X154787D01*
X154852Y100936D01*
X155380Y100408D01*
X156070Y100122D01*
X156818D01*
X157508Y100408D01*
X158036Y100936D01*
X158322Y101626D01*
Y102374D01*
X158036Y103064D01*
X157508Y103592D01*
X156818Y103878D01*
X156070D01*
X155380Y103592D01*
X154852Y103064D01*
X154787Y102907D01*
X73961D01*
X73934Y103010D01*
X73589Y103606D01*
X73275Y103921D01*
X73482Y104421D01*
X183924D01*
X184436Y103908D01*
X185126Y103622D01*
X185874D01*
X186564Y103908D01*
X187092Y104436D01*
X187378Y105126D01*
Y105874D01*
X187092Y106564D01*
X186564Y107092D01*
X185874Y107378D01*
X185126D01*
X184436Y107092D01*
X183908Y106564D01*
X183772Y106235D01*
X173272D01*
X173081Y106697D01*
X176870Y110487D01*
X177026Y110422D01*
X177774D01*
X178464Y110708D01*
X178992Y111236D01*
X179278Y111926D01*
Y112674D01*
X178992Y113364D01*
X178695Y113661D01*
X178902Y114161D01*
X182611D01*
X182958Y114230D01*
X183253Y114426D01*
X186884Y118058D01*
X187384Y117851D01*
D02*
G37*
G36*
X465637Y114329D02*
X465340Y114032D01*
X465054Y113342D01*
Y112594D01*
X465119Y112438D01*
X460188Y107507D01*
X449970D01*
X449763Y108007D01*
X450092Y108336D01*
X450378Y109026D01*
Y109774D01*
X450092Y110464D01*
X449564Y110992D01*
X448874Y111278D01*
X448127D01*
X447918Y111192D01*
X447635Y111616D01*
X448312Y112293D01*
X449178D01*
X451590Y109880D01*
X451885Y109683D01*
X452232Y109614D01*
X457783D01*
X458130Y109683D01*
X458424Y109880D01*
X463373Y114829D01*
X465430D01*
X465637Y114329D01*
D02*
G37*
G36*
X412561Y111312D02*
X412561Y111312D01*
X412856Y111116D01*
X413203Y111047D01*
X413203Y111047D01*
X423922D01*
Y110426D01*
X424208Y109736D01*
X424527Y109417D01*
X424320Y108917D01*
X380051D01*
X379978Y109027D01*
Y109774D01*
X379692Y110464D01*
X379395Y110761D01*
X379602Y111261D01*
X404369D01*
X404716Y111330D01*
X405010Y111526D01*
X405483Y111999D01*
X411875D01*
X412561Y111312D01*
D02*
G37*
G36*
X176105Y113661D02*
X175808Y113364D01*
X175522Y112674D01*
Y111926D01*
X175587Y111770D01*
X171332Y107515D01*
X73517D01*
X73310Y108015D01*
X73589Y108295D01*
X73934Y108892D01*
X74112Y109557D01*
Y110246D01*
X73934Y110911D01*
X73589Y111508D01*
X73102Y111995D01*
X72506Y112339D01*
X72308Y112393D01*
X72373Y112893D01*
X108700D01*
X109047Y112962D01*
X109342Y113158D01*
X110344Y114161D01*
X175898D01*
X176105Y113661D01*
D02*
G37*
G36*
X236708Y113764D02*
X236422Y113074D01*
Y112326D01*
X236487Y112170D01*
X231824Y107507D01*
X223509D01*
X223302Y108007D01*
X223589Y108295D01*
X223934Y108892D01*
X224112Y109557D01*
Y110246D01*
X223934Y110911D01*
X223589Y111508D01*
X223305Y111793D01*
X223512Y112293D01*
X234200D01*
X234547Y112362D01*
X234842Y112558D01*
X236322Y114038D01*
X236708Y113764D01*
D02*
G37*
G36*
X342386Y115779D02*
Y115606D01*
X342455Y115259D01*
X342652Y114965D01*
X344358Y113258D01*
X344358Y113258D01*
X344653Y113062D01*
X345000Y112993D01*
X347370D01*
X347436Y112493D01*
X346864Y112339D01*
X346268Y111995D01*
X345781Y111508D01*
X345436Y110911D01*
X345258Y110246D01*
Y109557D01*
X345436Y108892D01*
X345781Y108295D01*
X346268Y107808D01*
X346864Y107464D01*
X347530Y107285D01*
X348218D01*
X348884Y107464D01*
X348976Y107517D01*
X350192Y106301D01*
X350191Y105600D01*
X348976Y104385D01*
X348884Y104438D01*
X348218Y104616D01*
X347530D01*
X346864Y104438D01*
X346268Y104093D01*
X345781Y103606D01*
X345436Y103010D01*
X345258Y102344D01*
Y101656D01*
X345436Y100990D01*
X345781Y100394D01*
X346268Y99907D01*
X346329Y99871D01*
X346196Y99371D01*
X344431D01*
X342517Y101285D01*
X342616Y101656D01*
Y102344D01*
X342438Y103010D01*
X342093Y103606D01*
X341606Y104093D01*
X341274Y104285D01*
Y107617D01*
X341606Y107808D01*
X342093Y108295D01*
X342438Y108892D01*
X342616Y109557D01*
Y110246D01*
X342438Y110911D01*
X342093Y111508D01*
X341606Y111995D01*
X341274Y112187D01*
Y115514D01*
X341606Y115706D01*
X341886Y115986D01*
X342386Y115779D01*
D02*
G37*
G36*
X192455Y107961D02*
X192455Y107959D01*
X192652Y107665D01*
X194358Y105958D01*
X194358Y105958D01*
X194653Y105762D01*
X195000Y105693D01*
X202302D01*
X202504Y105327D01*
X202523Y105206D01*
X200683Y103367D01*
X200058Y103449D01*
X199967Y103606D01*
X199480Y104093D01*
X198884Y104438D01*
X198218Y104616D01*
X197530D01*
X196864Y104438D01*
X196268Y104093D01*
X195781Y103606D01*
X195436Y103010D01*
X195258Y102344D01*
Y101656D01*
X195436Y100990D01*
X195781Y100394D01*
X196268Y99907D01*
X196329Y99871D01*
X196195Y99371D01*
X194431D01*
X192517Y101285D01*
X192616Y101656D01*
Y102344D01*
X192438Y103010D01*
X192093Y103606D01*
X191606Y104093D01*
X191274Y104285D01*
Y107617D01*
X191606Y107808D01*
X191914Y108116D01*
X192455Y107961D01*
D02*
G37*
G36*
X289270Y100225D02*
X288908Y99864D01*
X288843Y99707D01*
X275200D01*
X275200Y99707D01*
X274853Y99638D01*
X274558Y99442D01*
X274558Y99442D01*
X270123Y95006D01*
X223961D01*
X223934Y95108D01*
X223589Y95705D01*
X223102Y96192D01*
X222877Y96322D01*
X223011Y96822D01*
X265000D01*
X265488Y96919D01*
X265901Y97195D01*
X269431Y100725D01*
X289063D01*
X289270Y100225D01*
D02*
G37*
G36*
X519689Y103893D02*
X519403Y103606D01*
X519058Y103010D01*
X518880Y102344D01*
Y101656D01*
X519058Y100990D01*
X519403Y100394D01*
X519890Y99907D01*
X520486Y99562D01*
X521152Y99384D01*
X521840D01*
X522506Y99562D01*
X523102Y99907D01*
X523589Y100394D01*
X523934Y100990D01*
X524112Y101656D01*
Y102344D01*
X524056Y102553D01*
X524504Y102812D01*
X525193Y102124D01*
Y89444D01*
X524731Y89253D01*
X523242Y90742D01*
X522947Y90938D01*
X522600Y91007D01*
X522000D01*
X521934Y91507D01*
X522506Y91661D01*
X523102Y92005D01*
X523589Y92492D01*
X523934Y93089D01*
X524112Y93754D01*
Y94443D01*
X523934Y95108D01*
X523589Y95705D01*
X523102Y96192D01*
X522506Y96536D01*
X521840Y96715D01*
X521152D01*
X520486Y96536D01*
X519890Y96192D01*
X519403Y95705D01*
X519058Y95108D01*
X518880Y94443D01*
Y93754D01*
X519058Y93089D01*
X519135Y92955D01*
X518735Y92648D01*
X518107Y93276D01*
Y95200D01*
X518038Y95547D01*
X517842Y95842D01*
X515642Y98042D01*
X515347Y98238D01*
X515000Y98307D01*
X509050D01*
X509050Y98307D01*
X508702Y98238D01*
X508408Y98042D01*
X506849Y96483D01*
X506758Y96536D01*
X506092Y96715D01*
X505404D01*
X504738Y96536D01*
X504142Y96192D01*
X503655Y95705D01*
X503310Y95108D01*
X503132Y94443D01*
Y93754D01*
X503277Y93214D01*
X502837Y92946D01*
X502075Y93708D01*
Y96289D01*
X502006Y96636D01*
X501809Y96930D01*
X499436Y99304D01*
X499408Y99468D01*
X499467Y99899D01*
X499480Y99907D01*
X499967Y100394D01*
X500312Y100990D01*
X500490Y101656D01*
Y102344D01*
X500312Y103010D01*
X500259Y103102D01*
X501550Y104393D01*
X503734D01*
X503941Y103893D01*
X503655Y103606D01*
X503310Y103010D01*
X503132Y102344D01*
Y101656D01*
X503310Y100990D01*
X503655Y100394D01*
X504142Y99907D01*
X504738Y99562D01*
X505404Y99384D01*
X506092D01*
X506758Y99562D01*
X507354Y99907D01*
X507841Y100394D01*
X508186Y100990D01*
X508364Y101656D01*
Y102344D01*
X508186Y103010D01*
X507841Y103606D01*
X507555Y103893D01*
X507762Y104393D01*
X511608D01*
X511815Y103893D01*
X511529Y103606D01*
X511184Y103010D01*
X511006Y102344D01*
Y101656D01*
X511184Y100990D01*
X511529Y100394D01*
X512016Y99907D01*
X512612Y99562D01*
X513278Y99384D01*
X513966D01*
X514632Y99562D01*
X515228Y99907D01*
X515715Y100394D01*
X516060Y100990D01*
X516238Y101656D01*
Y102344D01*
X516060Y103010D01*
X515715Y103606D01*
X515429Y103893D01*
X515636Y104393D01*
X519482D01*
X519689Y103893D01*
D02*
G37*
G36*
X379606Y104357D02*
X379737Y103893D01*
X379308Y103464D01*
X379022Y102774D01*
Y102026D01*
X379308Y101336D01*
X379836Y100808D01*
X380526Y100522D01*
X381274D01*
X381964Y100808D01*
X382492Y101336D01*
X382778Y102026D01*
Y102773D01*
X382791Y102793D01*
X418115D01*
X418306Y102331D01*
X415347Y99371D01*
X373175D01*
X373041Y99871D01*
X373102Y99907D01*
X373589Y100394D01*
X373934Y100990D01*
X374112Y101656D01*
Y102344D01*
X373934Y103010D01*
X373589Y103606D01*
X373303Y103893D01*
X373510Y104393D01*
X379583D01*
X379606Y104357D01*
D02*
G37*
G36*
X487907Y100394D02*
X488193Y100107D01*
X487986Y99607D01*
X477100D01*
X476753Y99538D01*
X476458Y99342D01*
X470024Y92907D01*
X442818D01*
X442666Y93407D01*
X442740Y93457D01*
X446270Y96987D01*
X446426Y96922D01*
X447174D01*
X447864Y97208D01*
X448392Y97736D01*
X448678Y98426D01*
Y99174D01*
X448392Y99864D01*
X448030Y100225D01*
X448237Y100725D01*
X487715D01*
X487907Y100394D01*
D02*
G37*
G36*
X337907D02*
X338394Y99907D01*
X338990Y99562D01*
X339656Y99384D01*
X340344D01*
X340715Y99483D01*
X341417Y98781D01*
X341414Y98760D01*
X341191Y98299D01*
X306528D01*
X306181Y98230D01*
X305886Y98034D01*
X305886Y98034D01*
X298260Y90407D01*
X274744D01*
X274553Y90869D01*
X275370Y91687D01*
X275526Y91622D01*
X276273D01*
X276964Y91908D01*
X277492Y92436D01*
X277778Y93126D01*
Y93874D01*
X277492Y94564D01*
X276964Y95092D01*
X276273Y95378D01*
X275526D01*
X274836Y95092D01*
X274308Y94564D01*
X274022Y93874D01*
Y93126D01*
X274087Y92970D01*
X272824Y91707D01*
X223512D01*
X223305Y92207D01*
X223589Y92492D01*
X223934Y93089D01*
X223961Y93191D01*
X270498D01*
X270846Y93260D01*
X271140Y93457D01*
X275576Y97893D01*
X288843D01*
X288908Y97736D01*
X289436Y97208D01*
X290126Y96922D01*
X290874D01*
X291564Y97208D01*
X292092Y97736D01*
X292378Y98426D01*
Y99174D01*
X292092Y99864D01*
X291730Y100225D01*
X291937Y100725D01*
X337715D01*
X337907Y100394D01*
D02*
G37*
G36*
X445570Y100225D02*
X445208Y99864D01*
X444922Y99174D01*
Y98426D01*
X444987Y98270D01*
X441722Y95006D01*
X373961D01*
X373934Y95108D01*
X373589Y95705D01*
X373102Y96192D01*
X372877Y96322D01*
X373011Y96822D01*
X415875D01*
X416363Y96919D01*
X416776Y97195D01*
X420306Y100725D01*
X445363D01*
X445570Y100225D01*
D02*
G37*
G36*
X398532Y92691D02*
X398458Y92642D01*
X398458Y92642D01*
X397730Y91913D01*
X397573Y91978D01*
X396827D01*
X396136Y91692D01*
X395608Y91164D01*
X395322Y90474D01*
Y89726D01*
X395608Y89036D01*
X395734Y88910D01*
X395555Y88382D01*
X395265Y88343D01*
X395034Y88574D01*
X394740Y88770D01*
X394392Y88839D01*
X389581D01*
X389395Y89339D01*
X389792Y89736D01*
X390078Y90426D01*
Y91174D01*
X389792Y91864D01*
X389264Y92392D01*
X388574Y92678D01*
X387826D01*
X387136Y92392D01*
X386608Y91864D01*
X386543Y91707D01*
X373512D01*
X373305Y92207D01*
X373589Y92492D01*
X373934Y93089D01*
X373961Y93191D01*
X398380D01*
X398532Y92691D01*
D02*
G37*
G36*
X516353Y92596D02*
X516362Y92553D01*
X516558Y92258D01*
X519358Y89458D01*
X519653Y89262D01*
X520000Y89193D01*
X520000Y89193D01*
X520622D01*
X520687Y88693D01*
X520486Y88639D01*
X519890Y88294D01*
X519403Y87807D01*
X519058Y87211D01*
X518880Y86545D01*
Y85856D01*
X519058Y85191D01*
X519111Y85099D01*
X517561Y83549D01*
X517364Y83254D01*
X517295Y82907D01*
Y74064D01*
X516833Y73873D01*
X516164Y74542D01*
X515870Y74738D01*
X515522Y74807D01*
X512976D01*
X512345Y75438D01*
X512612Y75861D01*
X513278Y75683D01*
X513966D01*
X514632Y75861D01*
X515228Y76206D01*
X515715Y76693D01*
X516060Y77289D01*
X516238Y77955D01*
Y78644D01*
X516060Y79309D01*
X515715Y79905D01*
X515228Y80393D01*
X514632Y80737D01*
X513966Y80915D01*
X513278D01*
X512612Y80737D01*
X512016Y80393D01*
X511610Y79987D01*
X511597Y79982D01*
X511230Y79980D01*
X511024Y80032D01*
X510970Y80113D01*
X508142Y82942D01*
X507847Y83138D01*
X507500Y83207D01*
X506616D01*
X506551Y83707D01*
X506758Y83763D01*
X507354Y84107D01*
X507841Y84595D01*
X508186Y85191D01*
X508364Y85856D01*
Y86545D01*
X508186Y87211D01*
X507841Y87807D01*
X507354Y88294D01*
X506758Y88639D01*
X506092Y88817D01*
X505404D01*
X504738Y88639D01*
X504142Y88294D01*
X503655Y87807D01*
X503310Y87211D01*
X503207Y86827D01*
X502707Y86893D01*
Y87400D01*
X502638Y87747D01*
X502442Y88042D01*
X499211Y91272D01*
X499293Y91897D01*
X499480Y92005D01*
X499967Y92492D01*
X500009Y92564D01*
X500253Y92624D01*
X500611Y92606D01*
X503058Y90158D01*
X503058Y90158D01*
X503353Y89962D01*
X503700Y89893D01*
X510324D01*
X510671Y89962D01*
X510965Y90158D01*
X512520Y91714D01*
X512612Y91661D01*
X513278Y91482D01*
X513966D01*
X514632Y91661D01*
X515228Y92005D01*
X515715Y92492D01*
X515826Y92683D01*
X516353Y92596D01*
D02*
G37*
G36*
X354367Y96322D02*
X354142Y96192D01*
X353655Y95705D01*
X353310Y95108D01*
X353132Y94443D01*
Y93754D01*
X353310Y93089D01*
X353655Y92492D01*
X354142Y92005D01*
X354738Y91661D01*
X355404Y91482D01*
X356092D01*
X356758Y91661D01*
X356850Y91714D01*
X357694Y90869D01*
X357502Y90407D01*
X351173D01*
X350826Y90338D01*
X350532Y90142D01*
X350532Y90142D01*
X348976Y88586D01*
X348884Y88639D01*
X348218Y88817D01*
X347530D01*
X346864Y88639D01*
X346268Y88294D01*
X345781Y87807D01*
X345436Y87211D01*
X345258Y86545D01*
Y85856D01*
X345436Y85191D01*
X345781Y84595D01*
X346268Y84107D01*
X346864Y83763D01*
X347530Y83585D01*
X348218D01*
X348884Y83763D01*
X349480Y84107D01*
X349967Y84595D01*
X350312Y85191D01*
X350490Y85856D01*
Y86545D01*
X350312Y87211D01*
X350259Y87302D01*
X351549Y88593D01*
X353733D01*
X353940Y88093D01*
X353655Y87807D01*
X353310Y87211D01*
X353132Y86545D01*
Y85856D01*
X353310Y85191D01*
X353655Y84595D01*
X353942Y84307D01*
X353734Y83807D01*
X352475D01*
X352128Y83738D01*
X351833Y83542D01*
X351833Y83542D01*
X348976Y80684D01*
X348884Y80737D01*
X348218Y80915D01*
X347530D01*
X346864Y80737D01*
X346772Y80684D01*
X344207Y83249D01*
Y95456D01*
X344138Y95804D01*
X343942Y96098D01*
X343684Y96356D01*
X343881Y96774D01*
X343925Y96822D01*
X346359D01*
X346493Y96322D01*
X346268Y96192D01*
X345781Y95705D01*
X345436Y95108D01*
X345258Y94443D01*
Y93754D01*
X345436Y93089D01*
X345781Y92492D01*
X346268Y92005D01*
X346864Y91661D01*
X347530Y91482D01*
X348218D01*
X348884Y91661D01*
X349480Y92005D01*
X349967Y92492D01*
X350312Y93089D01*
X350490Y93754D01*
Y94443D01*
X350312Y95108D01*
X349967Y95705D01*
X349480Y96192D01*
X349255Y96322D01*
X349389Y96822D01*
X354233D01*
X354367Y96322D01*
D02*
G37*
G36*
X212241D02*
X212016Y96192D01*
X211529Y95705D01*
X211184Y95108D01*
X211006Y94443D01*
Y93754D01*
X211184Y93089D01*
X211529Y92492D01*
X212016Y92005D01*
X212612Y91661D01*
X213278Y91482D01*
X213966D01*
X214632Y91661D01*
X214723Y91714D01*
X215568Y90869D01*
X215376Y90407D01*
X203994D01*
X203802Y90869D01*
X204646Y91714D01*
X204738Y91661D01*
X205404Y91482D01*
X206092D01*
X206758Y91661D01*
X207354Y92005D01*
X207841Y92492D01*
X208186Y93089D01*
X208364Y93754D01*
Y94443D01*
X208186Y95108D01*
X207841Y95705D01*
X207354Y96192D01*
X207129Y96322D01*
X207263Y96822D01*
X212107D01*
X212241Y96322D01*
D02*
G37*
G36*
X92115D02*
X86801Y91007D01*
X72000D01*
X71934Y91507D01*
X72506Y91661D01*
X73102Y92005D01*
X73589Y92492D01*
X73934Y93089D01*
X74112Y93754D01*
Y94443D01*
X73934Y95108D01*
X73589Y95705D01*
X73102Y96192D01*
X72877Y96322D01*
X73011Y96822D01*
X91908D01*
X92115Y96322D01*
D02*
G37*
G36*
X175805Y94761D02*
X175508Y94464D01*
X175222Y93774D01*
Y93026D01*
X175508Y92336D01*
X176036Y91808D01*
X176193Y91743D01*
Y90170D01*
X175693Y89963D01*
X175364Y90292D01*
X174674Y90578D01*
X173926D01*
X173236Y90292D01*
X172708Y89764D01*
X172643Y89607D01*
X91757D01*
X91692Y89764D01*
X91164Y90292D01*
X90474Y90578D01*
X89726D01*
X89587Y90520D01*
X89304Y90944D01*
X93621Y95261D01*
X175598D01*
X175805Y94761D01*
D02*
G37*
G36*
X485347Y97331D02*
X471824Y83807D01*
X407443D01*
X407343Y84307D01*
X407641Y84431D01*
X408169Y84959D01*
X408455Y85649D01*
Y86396D01*
X408169Y87087D01*
X407641Y87615D01*
X406951Y87901D01*
X406204D01*
X405513Y87615D01*
X404985Y87087D01*
X404920Y86930D01*
X401492D01*
X401301Y87392D01*
X403101Y89193D01*
X471143D01*
X471208Y89036D01*
X471736Y88508D01*
X472427Y88222D01*
X473174D01*
X473864Y88508D01*
X474392Y89036D01*
X474678Y89726D01*
Y90474D01*
X474392Y91164D01*
X473864Y91692D01*
X473174Y91978D01*
X472427D01*
X472327Y91937D01*
X472044Y92361D01*
X477476Y97793D01*
X485156D01*
X485347Y97331D01*
D02*
G37*
G36*
X165301Y87293D02*
X165004Y86996D01*
X164939Y86839D01*
X134616D01*
X134564Y86892D01*
X133874Y87178D01*
X133126D01*
X132436Y86892D01*
X132384Y86839D01*
X91602D01*
X91395Y87339D01*
X91692Y87636D01*
X91757Y87793D01*
X165094D01*
X165301Y87293D01*
D02*
G37*
G36*
X88280Y89213D02*
X88222Y89074D01*
Y88326D01*
X88508Y87636D01*
X88805Y87339D01*
X88598Y86839D01*
X87708D01*
X87705Y86843D01*
X87410Y87039D01*
X87063Y87108D01*
X73961D01*
X73934Y87211D01*
X73589Y87807D01*
X73102Y88294D01*
X72506Y88639D01*
X72305Y88693D01*
X72370Y89193D01*
X87177D01*
X87524Y89262D01*
X87818Y89458D01*
X87856Y89496D01*
X88280Y89213D01*
D02*
G37*
G36*
X338186Y95985D02*
X337907Y95705D01*
X337562Y95108D01*
X337384Y94443D01*
Y93754D01*
X337562Y93089D01*
X337907Y92492D01*
X338394Y92005D01*
X338725Y91813D01*
Y88486D01*
X338394Y88294D01*
X337907Y87807D01*
X337562Y87211D01*
X337384Y86545D01*
Y85856D01*
X337562Y85191D01*
X337907Y84595D01*
X338394Y84107D01*
X338725Y83916D01*
Y80584D01*
X338394Y80393D01*
X337907Y79905D01*
X337715Y79574D01*
X268904D01*
X268416Y79477D01*
X268002Y79200D01*
X264472Y75670D01*
X223175D01*
X223041Y76170D01*
X223102Y76206D01*
X223589Y76693D01*
X223934Y77289D01*
X224112Y77955D01*
Y78644D01*
X223934Y79309D01*
X223589Y79905D01*
X223302Y80193D01*
X223510Y80693D01*
X245043D01*
X245108Y80536D01*
X245636Y80008D01*
X246326Y79722D01*
X247074D01*
X247764Y80008D01*
X248292Y80536D01*
X248578Y81226D01*
Y81974D01*
X248292Y82664D01*
X247764Y83192D01*
X247074Y83478D01*
X246326D01*
X245636Y83192D01*
X245108Y82664D01*
X245043Y82507D01*
X209049D01*
X209049Y82507D01*
X208701Y82438D01*
X208407Y82242D01*
X208407Y82242D01*
X206850Y80684D01*
X206758Y80737D01*
X206092Y80915D01*
X205404D01*
X204738Y80737D01*
X204142Y80393D01*
X203655Y79905D01*
X203310Y79309D01*
X203132Y78644D01*
Y77955D01*
X203310Y77289D01*
X203655Y76693D01*
X204142Y76206D01*
X204203Y76170D01*
X204069Y75670D01*
X199553D01*
X199419Y76170D01*
X199480Y76206D01*
X199967Y76693D01*
X200312Y77289D01*
X200490Y77955D01*
Y78644D01*
X200312Y79309D01*
X200259Y79401D01*
X202542Y81683D01*
X202542Y81683D01*
X202738Y81978D01*
X202807Y82325D01*
Y85135D01*
X203307Y85201D01*
X203310Y85191D01*
X203655Y84595D01*
X204142Y84107D01*
X204738Y83763D01*
X205404Y83585D01*
X206092D01*
X206758Y83763D01*
X207354Y84107D01*
X207841Y84595D01*
X208186Y85191D01*
X208364Y85856D01*
Y86545D01*
X208186Y87211D01*
X207841Y87807D01*
X207556Y88093D01*
X207763Y88593D01*
X211607D01*
X211814Y88093D01*
X211529Y87807D01*
X211184Y87211D01*
X211006Y86545D01*
Y85856D01*
X211184Y85191D01*
X211529Y84595D01*
X212016Y84107D01*
X212612Y83763D01*
X213278Y83585D01*
X213966D01*
X214632Y83763D01*
X215228Y84107D01*
X215715Y84595D01*
X216060Y85191D01*
X216238Y85856D01*
Y86545D01*
X216060Y87211D01*
X215715Y87807D01*
X215430Y88093D01*
X215637Y88593D01*
X219481D01*
X219688Y88093D01*
X219403Y87807D01*
X219058Y87211D01*
X218880Y86545D01*
Y85856D01*
X219058Y85191D01*
X219403Y84595D01*
X219890Y84107D01*
X220486Y83763D01*
X221152Y83585D01*
X221840D01*
X222506Y83763D01*
X223102Y84107D01*
X223589Y84595D01*
X223934Y85191D01*
X223961Y85293D01*
X261944D01*
X262009Y85137D01*
X262537Y84609D01*
X263227Y84323D01*
X263974D01*
X264665Y84609D01*
X265193Y85137D01*
X265479Y85827D01*
Y86574D01*
X265193Y87265D01*
X264665Y87793D01*
X263974Y88079D01*
X263227D01*
X262537Y87793D01*
X262009Y87265D01*
X261944Y87108D01*
X223961D01*
X223934Y87211D01*
X223589Y87807D01*
X223304Y88093D01*
X223511Y88593D01*
X298636D01*
X298983Y88662D01*
X299278Y88858D01*
X306904Y96485D01*
X337979D01*
X338186Y95985D01*
D02*
G37*
G36*
X172708Y87636D02*
X173236Y87108D01*
X173926Y86822D01*
X174632D01*
X174725Y86713D01*
X174887Y86369D01*
X171923Y83406D01*
X134969D01*
X134762Y83906D01*
X135092Y84236D01*
X135378Y84926D01*
Y85025D01*
X164939D01*
X165004Y84868D01*
X165532Y84340D01*
X166223Y84054D01*
X166970D01*
X167660Y84340D01*
X168188Y84868D01*
X168474Y85558D01*
Y86306D01*
X168188Y86996D01*
X167891Y87293D01*
X168098Y87793D01*
X172643D01*
X172708Y87636D01*
D02*
G37*
G36*
X393105Y85115D02*
X393109Y85116D01*
X393112Y85115D01*
X404920D01*
X404985Y84959D01*
X405513Y84431D01*
X405811Y84307D01*
X405712Y83807D01*
X373510D01*
X373302Y84307D01*
X373589Y84595D01*
X373934Y85191D01*
X373956Y85273D01*
X393105Y85115D01*
D02*
G37*
G36*
X500893Y85426D02*
Y85000D01*
X500962Y84653D01*
X501158Y84358D01*
X503858Y81658D01*
X503858Y81658D01*
X504153Y81462D01*
X504500Y81393D01*
X504500Y81393D01*
X505253D01*
X505319Y80893D01*
X504738Y80737D01*
X504142Y80393D01*
X503655Y79905D01*
X503310Y79309D01*
X503132Y78644D01*
Y77955D01*
X503310Y77289D01*
X503655Y76693D01*
X503934Y76413D01*
X503727Y75913D01*
X499895D01*
X499688Y76413D01*
X499967Y76693D01*
X500312Y77289D01*
X500490Y77955D01*
Y78644D01*
X500312Y79309D01*
X499967Y79905D01*
X499480Y80393D01*
X498884Y80737D01*
X498218Y80915D01*
X497530D01*
X496864Y80737D01*
X496772Y80684D01*
X495481Y81976D01*
Y84187D01*
X495981Y84394D01*
X496268Y84107D01*
X496864Y83763D01*
X497530Y83585D01*
X498218D01*
X498884Y83763D01*
X499480Y84107D01*
X499967Y84595D01*
X500312Y85191D01*
X500393Y85492D01*
X500893Y85426D01*
D02*
G37*
G36*
X87317Y85025D02*
X87324Y85026D01*
X87332Y85025D01*
X131622D01*
Y84926D01*
X131908Y84236D01*
X132238Y83906D01*
X132031Y83406D01*
X131509D01*
X131374Y83542D01*
X131079Y83738D01*
X130732Y83807D01*
X73510D01*
X73302Y84307D01*
X73589Y84595D01*
X73934Y85191D01*
X73950Y85252D01*
X87317Y85025D01*
D02*
G37*
G36*
X193593Y93880D02*
Y92500D01*
X193662Y92153D01*
X193858Y91858D01*
X195558Y90158D01*
X195558Y90158D01*
X195853Y89962D01*
X196200Y89893D01*
X200952D01*
X201159Y89393D01*
X201062Y89247D01*
X200993Y88900D01*
Y82701D01*
X198976Y80684D01*
X198884Y80737D01*
X198218Y80915D01*
X197530D01*
X196864Y80737D01*
X196268Y80393D01*
X195781Y79905D01*
X195436Y79309D01*
X195258Y78644D01*
Y77955D01*
X195436Y77289D01*
X195781Y76693D01*
X196268Y76206D01*
X196329Y76170D01*
X196195Y75670D01*
X194431D01*
X192517Y77585D01*
X192616Y77955D01*
Y78644D01*
X192438Y79309D01*
X192093Y79905D01*
X191606Y80393D01*
X191274Y80584D01*
Y83916D01*
X191606Y84107D01*
X192093Y84595D01*
X192438Y85191D01*
X192616Y85856D01*
Y86545D01*
X192438Y87211D01*
X192093Y87807D01*
X191606Y88294D01*
X191274Y88486D01*
Y91813D01*
X191606Y92005D01*
X192093Y92492D01*
X192438Y93089D01*
X192616Y93754D01*
Y94150D01*
X193116Y94357D01*
X193593Y93880D01*
D02*
G37*
G36*
X187706Y95358D02*
X187562Y95108D01*
X187384Y94443D01*
Y93754D01*
X187562Y93089D01*
X187907Y92492D01*
X188394Y92005D01*
X188725Y91813D01*
Y88486D01*
X188394Y88294D01*
X187907Y87807D01*
X187562Y87211D01*
X187384Y86545D01*
Y85856D01*
X187562Y85191D01*
X187907Y84595D01*
X188394Y84107D01*
X188725Y83916D01*
Y80584D01*
X188394Y80393D01*
X187907Y79905D01*
X187562Y79309D01*
X187384Y78644D01*
Y77955D01*
X187483Y77585D01*
X185568Y75670D01*
X183233D01*
X183026Y76170D01*
X183392Y76536D01*
X183678Y77226D01*
Y77974D01*
X183392Y78664D01*
X182864Y79192D01*
X182174Y79478D01*
X181426D01*
X180736Y79192D01*
X180208Y78664D01*
X180143Y78507D01*
X88420D01*
X85397Y81531D01*
X85588Y81993D01*
X130356D01*
X130492Y81857D01*
X130786Y81660D01*
X131133Y81591D01*
X131133Y81591D01*
X182943D01*
X183008Y81435D01*
X183536Y80906D01*
X184226Y80620D01*
X184974D01*
X185664Y80906D01*
X186192Y81435D01*
X186478Y82125D01*
Y82872D01*
X186192Y83562D01*
X185664Y84090D01*
X184974Y84376D01*
X184226D01*
X183536Y84090D01*
X183008Y83562D01*
X182943Y83406D01*
X175143D01*
X174952Y83868D01*
X177742Y86658D01*
X177742Y86658D01*
X177938Y86952D01*
X178007Y87299D01*
X178007Y87299D01*
Y91743D01*
X178164Y91808D01*
X178692Y92336D01*
X178978Y93026D01*
Y93774D01*
X178692Y94464D01*
X178395Y94761D01*
X178602Y95261D01*
X186526D01*
X186873Y95330D01*
X187168Y95526D01*
X187306Y95665D01*
X187706Y95358D01*
D02*
G37*
G36*
X488194Y95993D02*
X487907Y95705D01*
X487562Y95108D01*
X487384Y94443D01*
Y93754D01*
X487562Y93089D01*
X487907Y92492D01*
X488394Y92005D01*
X488726Y91813D01*
Y88486D01*
X488394Y88294D01*
X487907Y87807D01*
X487562Y87211D01*
X487384Y86545D01*
Y85856D01*
X487562Y85191D01*
X487907Y84595D01*
X488394Y84107D01*
X488726Y83916D01*
Y80584D01*
X488394Y80393D01*
X487907Y79905D01*
X487715Y79574D01*
X482937D01*
X482729Y80074D01*
X483092Y80436D01*
X483378Y81126D01*
Y81874D01*
X483092Y82564D01*
X482564Y83092D01*
X481874Y83378D01*
X481126D01*
X480436Y83092D01*
X479908Y82564D01*
X479885Y82507D01*
X473744D01*
X473553Y82969D01*
X487076Y96493D01*
X487987D01*
X488194Y95993D01*
D02*
G37*
G36*
X493666Y94950D02*
Y81600D01*
X493735Y81252D01*
X493932Y80958D01*
X495489Y79401D01*
X495436Y79309D01*
X495258Y78644D01*
Y77955D01*
X495436Y77289D01*
X495781Y76693D01*
X496060Y76413D01*
X495853Y75913D01*
X492021D01*
X491814Y76413D01*
X492093Y76693D01*
X492438Y77289D01*
X492616Y77955D01*
Y78644D01*
X492438Y79309D01*
X492093Y79905D01*
X491606Y80393D01*
X491274Y80584D01*
Y83916D01*
X491606Y84107D01*
X492093Y84595D01*
X492438Y85191D01*
X492616Y85856D01*
Y86545D01*
X492438Y87211D01*
X492093Y87807D01*
X491606Y88294D01*
X491274Y88486D01*
Y91813D01*
X491606Y92005D01*
X492093Y92492D01*
X492438Y93089D01*
X492616Y93754D01*
Y94443D01*
X492438Y95108D01*
X492141Y95622D01*
X492213Y95936D01*
X492335Y96170D01*
X492428Y96189D01*
X493666Y94950D01*
D02*
G37*
G36*
X487907Y76693D02*
X488186Y76413D01*
X487979Y75913D01*
X432806D01*
X432806Y75913D01*
X432458Y75844D01*
X432164Y75647D01*
X432164Y75647D01*
X424524Y68007D01*
X373509D01*
X373302Y68507D01*
X373589Y68795D01*
X373934Y69392D01*
X374112Y70057D01*
Y70746D01*
X373934Y71411D01*
X373589Y72008D01*
X373102Y72495D01*
X372884Y72621D01*
X373018Y73121D01*
X427686D01*
X428174Y73218D01*
X428587Y73494D01*
X432117Y77025D01*
X487715D01*
X487907Y76693D01*
D02*
G37*
G36*
X479908Y80436D02*
X480270Y80074D01*
X480063Y79574D01*
X431589D01*
X431101Y79477D01*
X430688Y79200D01*
X427158Y75670D01*
X373175D01*
X373041Y76170D01*
X373102Y76206D01*
X373589Y76693D01*
X373934Y77289D01*
X374112Y77955D01*
Y78644D01*
X373934Y79309D01*
X373589Y79905D01*
X373302Y80193D01*
X373510Y80693D01*
X479802D01*
X479908Y80436D01*
D02*
G37*
G36*
X87402Y76958D02*
X87402Y76958D01*
X87697Y76762D01*
X88044Y76693D01*
X180143D01*
X180208Y76536D01*
X180574Y76170D01*
X180367Y75670D01*
X73175D01*
X73040Y76170D01*
X73102Y76206D01*
X73589Y76693D01*
X73934Y77289D01*
X74112Y77955D01*
Y78644D01*
X73934Y79309D01*
X73589Y79905D01*
X73302Y80193D01*
X73510Y80693D01*
X83668D01*
X87402Y76958D01*
D02*
G37*
G36*
X186123Y73064D02*
X186311Y72654D01*
X180393Y66735D01*
X76364D01*
X76173Y67197D01*
X79268Y70293D01*
X175743D01*
X175808Y70136D01*
X176336Y69608D01*
X177026Y69322D01*
X177774D01*
X178464Y69608D01*
X178992Y70136D01*
X179278Y70826D01*
Y71574D01*
X178992Y72264D01*
X178635Y72621D01*
X178842Y73121D01*
X186071D01*
X186123Y73064D01*
D02*
G37*
G36*
X176165Y72621D02*
X175808Y72264D01*
X175743Y72107D01*
X78892D01*
X78545Y72038D01*
X78250Y71842D01*
X74424Y68015D01*
X73517D01*
X73310Y68515D01*
X73589Y68795D01*
X73934Y69392D01*
X74112Y70057D01*
Y70746D01*
X73934Y71411D01*
X73589Y72008D01*
X73102Y72495D01*
X72884Y72621D01*
X73018Y73121D01*
X175958D01*
X176165Y72621D01*
D02*
G37*
G36*
X362234D02*
X362016Y72495D01*
X361529Y72008D01*
X361184Y71411D01*
X361006Y70746D01*
Y70057D01*
X361184Y69392D01*
X361529Y68795D01*
X362016Y68308D01*
X362612Y67964D01*
X363278Y67786D01*
X363966D01*
X364632Y67964D01*
X364723Y68017D01*
X365571Y67169D01*
X365380Y66707D01*
X351174D01*
X350827Y66638D01*
X350532Y66442D01*
X350532Y66442D01*
X348976Y64885D01*
X348884Y64938D01*
X348218Y65116D01*
X347530D01*
X346864Y64938D01*
X346268Y64593D01*
X345907Y64233D01*
X345407Y64413D01*
Y68489D01*
X345907Y68668D01*
X346268Y68308D01*
X346864Y67964D01*
X347530Y67786D01*
X348218D01*
X348884Y67964D01*
X349480Y68308D01*
X349967Y68795D01*
X350312Y69392D01*
X350490Y70057D01*
Y70746D01*
X350312Y71411D01*
X349967Y72008D01*
X349480Y72495D01*
X349262Y72621D01*
X349396Y73121D01*
X354226D01*
X354360Y72621D01*
X354142Y72495D01*
X353655Y72008D01*
X353310Y71411D01*
X353132Y70746D01*
Y70057D01*
X353310Y69392D01*
X353655Y68795D01*
X354142Y68308D01*
X354738Y67964D01*
X355404Y67786D01*
X356092D01*
X356758Y67964D01*
X357354Y68308D01*
X357841Y68795D01*
X358186Y69392D01*
X358364Y70057D01*
Y70746D01*
X358186Y71411D01*
X357841Y72008D01*
X357354Y72495D01*
X357136Y72621D01*
X357270Y73121D01*
X362100D01*
X362234Y72621D01*
D02*
G37*
G36*
X337907Y76693D02*
X338394Y76206D01*
X338990Y75861D01*
X339656Y75683D01*
X340344D01*
X340715Y75782D01*
X341432Y75065D01*
X341241Y74603D01*
X336700D01*
X336353Y74534D01*
X336058Y74337D01*
X335862Y74042D01*
X335793Y73695D01*
Y66676D01*
X335140Y66023D01*
X335102Y66032D01*
X334678Y66268D01*
Y66874D01*
X334392Y67564D01*
X333864Y68092D01*
X333173Y68378D01*
X332427D01*
X331736Y68092D01*
X331208Y67564D01*
X330922Y66874D01*
Y66707D01*
X266944D01*
X266753Y67169D01*
X268276Y68693D01*
X317743D01*
X317808Y68536D01*
X318336Y68008D01*
X319026Y67722D01*
X319774D01*
X320464Y68008D01*
X320992Y68536D01*
X321278Y69226D01*
Y69974D01*
X320992Y70664D01*
X320464Y71192D01*
X319774Y71478D01*
X319026D01*
X318336Y71192D01*
X317808Y70664D01*
X317743Y70507D01*
X267900D01*
X267553Y70438D01*
X267258Y70242D01*
X267258Y70242D01*
X265024Y68007D01*
X223509D01*
X223302Y68507D01*
X223589Y68795D01*
X223934Y69392D01*
X224112Y70057D01*
Y70746D01*
X223934Y71411D01*
X223589Y72008D01*
X223102Y72495D01*
X222884Y72621D01*
X223018Y73121D01*
X265000D01*
X265488Y73218D01*
X265901Y73494D01*
X269431Y77025D01*
X337715D01*
X337907Y76693D01*
D02*
G37*
G36*
X511237Y71503D02*
X511184Y71411D01*
X511006Y70746D01*
Y70057D01*
X511184Y69392D01*
X511529Y68795D01*
X512016Y68308D01*
X512612Y67964D01*
X513278Y67786D01*
X513966D01*
X514632Y67964D01*
X515228Y68308D01*
X515515Y68595D01*
X516015Y68388D01*
Y67876D01*
X514847Y66707D01*
X510328D01*
X509949Y67108D01*
X509880Y67455D01*
X509683Y67750D01*
X509683Y67750D01*
X508133Y69300D01*
X508186Y69392D01*
X508364Y70057D01*
Y70746D01*
X508186Y71411D01*
X507841Y72008D01*
X507354Y72495D01*
X506758Y72839D01*
X506092Y73018D01*
X505404D01*
X504738Y72839D01*
X504142Y72495D01*
X503655Y72008D01*
X503310Y71411D01*
X503132Y70746D01*
Y70057D01*
X503310Y69392D01*
X503655Y68795D01*
X504142Y68308D01*
X504738Y67964D01*
X505404Y67786D01*
X506092D01*
X506758Y67964D01*
X506849Y68017D01*
X508134Y66732D01*
Y64521D01*
X507634Y64314D01*
X507354Y64593D01*
X506758Y64938D01*
X506092Y65116D01*
X505404D01*
X504738Y64938D01*
X504142Y64593D01*
X503655Y64106D01*
X503310Y63510D01*
X503132Y62844D01*
Y62156D01*
X503310Y61490D01*
X503655Y60894D01*
X504142Y60407D01*
X504738Y60062D01*
X505404Y59884D01*
X506092D01*
X506758Y60062D01*
X507354Y60407D01*
X507634Y60686D01*
X508134Y60479D01*
Y56619D01*
X507634Y56412D01*
X507354Y56692D01*
X506758Y57036D01*
X506092Y57214D01*
X505404D01*
X504738Y57036D01*
X504142Y56692D01*
X503655Y56205D01*
X503310Y55608D01*
X503132Y54943D01*
Y54254D01*
X503310Y53589D01*
X503655Y52992D01*
X504142Y52505D01*
X504738Y52161D01*
X505404Y51982D01*
X506092D01*
X506228Y52019D01*
X506487Y51570D01*
X496776Y41859D01*
X356252D01*
X355905Y41790D01*
X355610Y41594D01*
X355610Y41594D01*
X352630Y38613D01*
X352473Y38678D01*
X351727D01*
X351036Y38392D01*
X350508Y37864D01*
X350222Y37174D01*
Y36426D01*
X350508Y35736D01*
X351036Y35208D01*
X351727Y34922D01*
X352473D01*
X353164Y35208D01*
X353692Y35736D01*
X353978Y36426D01*
Y37174D01*
X353913Y37330D01*
X356628Y40045D01*
X497152D01*
X497499Y40114D01*
X497794Y40310D01*
X508959Y51476D01*
X509421Y51284D01*
Y36376D01*
X495253Y22207D01*
X324200D01*
X324200Y22208D01*
X323853Y22138D01*
X323558Y21942D01*
X323558Y21942D01*
X313724Y12107D01*
X240976D01*
X236907Y16176D01*
Y35000D01*
X236838Y35347D01*
X236642Y35642D01*
X236642Y35642D01*
X231142Y41142D01*
X230847Y41338D01*
X230500Y41407D01*
X218200D01*
X217853Y41338D01*
X217558Y41142D01*
X217452Y41131D01*
X216539Y42045D01*
X216746Y42545D01*
X232152D01*
X232499Y42614D01*
X232794Y42810D01*
X233948Y43965D01*
X234105Y43900D01*
X234852D01*
X235542Y44186D01*
X236070Y44715D01*
X236356Y45405D01*
Y46152D01*
X236070Y46842D01*
X235542Y47370D01*
X235006Y47593D01*
X235105Y48093D01*
X257024D01*
X259987Y45130D01*
X259922Y44974D01*
Y44226D01*
X260208Y43536D01*
X260736Y43008D01*
X261426Y42722D01*
X262174D01*
X262864Y43008D01*
X263392Y43536D01*
X263678Y44226D01*
Y44974D01*
X263392Y45664D01*
X262864Y46192D01*
X262174Y46478D01*
X261426D01*
X261270Y46413D01*
X258725Y48958D01*
X258916Y49420D01*
X265875D01*
X266363Y49517D01*
X266774Y49793D01*
X317900D01*
X318247Y49862D01*
X318542Y50058D01*
X320887Y52404D01*
X321300Y52233D01*
Y54600D01*
Y56967D01*
X320453Y56616D01*
X319784Y55947D01*
X319753Y55873D01*
X269778D01*
X269290Y55776D01*
X268877Y55500D01*
X265347Y51969D01*
X223175D01*
X223041Y52469D01*
X223102Y52505D01*
X223589Y52992D01*
X223934Y53589D01*
X224112Y54254D01*
Y54943D01*
X223934Y55608D01*
X223589Y56205D01*
X223102Y56692D01*
X222506Y57036D01*
X221840Y57214D01*
X221152D01*
X220486Y57036D01*
X219890Y56692D01*
X219403Y56205D01*
X219058Y55608D01*
X218880Y54943D01*
Y54254D01*
X219058Y53589D01*
X219403Y52992D01*
X219890Y52505D01*
X219952Y52469D01*
X219817Y51969D01*
X215300D01*
X215167Y52469D01*
X215228Y52505D01*
X215715Y52992D01*
X216060Y53589D01*
X216238Y54254D01*
Y54943D01*
X216060Y55608D01*
X216007Y55700D01*
X218600Y58293D01*
X329600D01*
X329947Y58362D01*
X330242Y58558D01*
X337342Y65658D01*
X337342Y65658D01*
X337538Y65953D01*
X337608Y66300D01*
X337607Y66300D01*
Y67734D01*
X337842Y67831D01*
X338107Y67896D01*
X338725Y67539D01*
Y65362D01*
X338087Y64994D01*
X337507Y64413D01*
X337096Y63703D01*
X336908Y63000D01*
X340000D01*
Y62000D01*
X336908D01*
X337096Y61297D01*
X337507Y60587D01*
X338087Y60006D01*
X338725Y59638D01*
Y57461D01*
X338087Y57092D01*
X337507Y56512D01*
X337138Y55873D01*
X323847D01*
X323816Y55947D01*
X323147Y56616D01*
X322300Y56967D01*
Y54600D01*
Y52233D01*
X323147Y52584D01*
X323816Y53253D01*
X323845Y53324D01*
X337138D01*
X337507Y52685D01*
X338087Y52105D01*
X338797Y51695D01*
X339500Y51506D01*
Y54598D01*
X340000D01*
Y55098D01*
X343092D01*
X342904Y55801D01*
X342494Y56512D01*
X341913Y57092D01*
X341274Y57461D01*
Y59638D01*
X341913Y60006D01*
X342494Y60587D01*
X342904Y61297D01*
X343093Y62002D01*
X343593Y61936D01*
Y60000D01*
X343662Y59653D01*
X343858Y59358D01*
X345558Y57658D01*
X345558Y57658D01*
X345853Y57462D01*
X346200Y57393D01*
X346481D01*
X346615Y56893D01*
X346268Y56692D01*
X345781Y56205D01*
X345436Y55608D01*
X345258Y54943D01*
Y54254D01*
X345436Y53589D01*
X345781Y52992D01*
X346268Y52505D01*
X346329Y52469D01*
X346196Y51969D01*
X344431D01*
X342925Y53476D01*
X343092Y54098D01*
X340500D01*
Y51506D01*
X341123Y51673D01*
X343002Y49794D01*
X343416Y49517D01*
X343436Y49513D01*
X343476Y49441D01*
X343556Y48980D01*
X343140Y48564D01*
X342854Y47874D01*
Y47126D01*
X342818Y47087D01*
X342472Y46764D01*
X342185Y46706D01*
X341890Y46510D01*
X341694Y46215D01*
X341625Y45868D01*
Y35952D01*
X341694Y35605D01*
X341890Y35310D01*
X346542Y30658D01*
X346837Y30462D01*
X347184Y30393D01*
X367124D01*
X370587Y26930D01*
X370522Y26774D01*
Y26026D01*
X370808Y25336D01*
X371336Y24808D01*
X372026Y24522D01*
X372774D01*
X373464Y24808D01*
X373992Y25336D01*
X374278Y26026D01*
Y26774D01*
X373992Y27464D01*
X373464Y27992D01*
X372774Y28278D01*
X372026D01*
X371870Y28213D01*
X368142Y31942D01*
X367847Y32138D01*
X367500Y32207D01*
X347560D01*
X343439Y36328D01*
Y45028D01*
X343447Y45030D01*
X343742Y45226D01*
X344202Y45687D01*
X344358Y45622D01*
X345106D01*
X345796Y45908D01*
X346324Y46436D01*
X346389Y46593D01*
X490776D01*
X491123Y46662D01*
X491417Y46858D01*
X496772Y52214D01*
X496864Y52161D01*
X497530Y51982D01*
X498218D01*
X498455Y52046D01*
X498714Y51597D01*
X491354Y44237D01*
X352831D01*
X352766Y44394D01*
X352238Y44922D01*
X351548Y45208D01*
X350801D01*
X350111Y44922D01*
X349582Y44394D01*
X349296Y43704D01*
Y42957D01*
X349582Y42266D01*
X350111Y41738D01*
X350801Y41452D01*
X351548D01*
X352238Y41738D01*
X352766Y42266D01*
X352831Y42423D01*
X491730D01*
X492077Y42492D01*
X492372Y42688D01*
X501809Y52126D01*
X502006Y52420D01*
X502075Y52768D01*
Y67108D01*
X502006Y67455D01*
X501809Y67750D01*
X501809Y67750D01*
X500259Y69300D01*
X500312Y69392D01*
X500490Y70057D01*
Y70746D01*
X500312Y71411D01*
X499967Y72008D01*
X499480Y72495D01*
X498884Y72839D01*
X498218Y73018D01*
X497530D01*
X496864Y72839D01*
X496268Y72495D01*
X495781Y72008D01*
X495436Y71411D01*
X495414Y71328D01*
X494907Y71368D01*
X494675Y73598D01*
X494978Y74028D01*
X495080Y74094D01*
X495093Y74098D01*
X508642D01*
X511237Y71503D01*
D02*
G37*
G36*
X472457Y73636D02*
X465528Y66707D01*
X426444D01*
X426253Y67169D01*
X433181Y74098D01*
X472265D01*
X472457Y73636D01*
D02*
G37*
G36*
X487548Y72356D02*
X487506Y72315D01*
X487096Y71604D01*
X486908Y70902D01*
X490000D01*
Y69902D01*
X486908D01*
X487096Y69199D01*
X487506Y68488D01*
X488087Y67908D01*
X488726Y67539D01*
Y65362D01*
X488087Y64994D01*
X487506Y64413D01*
X487096Y63703D01*
X486908Y63000D01*
X490000D01*
X493092D01*
X492904Y63703D01*
X492493Y64413D01*
X491913Y64994D01*
X491274Y65362D01*
Y67539D01*
X491913Y67908D01*
X492493Y68488D01*
X492820Y69054D01*
X493334Y68945D01*
X493671Y65707D01*
X493710Y65582D01*
X493735Y65453D01*
X493762Y65414D01*
X493776Y65368D01*
X493859Y65268D01*
X493932Y65159D01*
X495489Y63601D01*
X495436Y63510D01*
X495258Y62844D01*
Y62156D01*
X495436Y61490D01*
X495781Y60894D01*
X496268Y60407D01*
X496864Y60062D01*
X497530Y59884D01*
X498218D01*
X498884Y60062D01*
X499480Y60407D01*
X499760Y60686D01*
X500260Y60479D01*
Y56619D01*
X499760Y56412D01*
X499480Y56692D01*
X498884Y57036D01*
X498218Y57214D01*
X497530D01*
X496864Y57036D01*
X496268Y56692D01*
X495781Y56205D01*
X495436Y55608D01*
X495258Y54943D01*
Y54254D01*
X495436Y53589D01*
X495489Y53497D01*
X490400Y48407D01*
X346389D01*
X346324Y48564D01*
X345968Y48920D01*
X346175Y49420D01*
X415875D01*
X416363Y49517D01*
X416776Y49794D01*
X420306Y53324D01*
X487138D01*
X487506Y52685D01*
X488087Y52105D01*
X488797Y51695D01*
X489500Y51506D01*
Y54598D01*
X490000D01*
Y55098D01*
X493092D01*
X492904Y55801D01*
X492493Y56512D01*
X491913Y57092D01*
X491274Y57461D01*
Y59638D01*
X491913Y60006D01*
X492493Y60587D01*
X492904Y61297D01*
X493092Y62000D01*
X490000D01*
X486908D01*
X487096Y61297D01*
X487506Y60587D01*
X488087Y60006D01*
X488726Y59638D01*
Y57461D01*
X488087Y57092D01*
X487506Y56512D01*
X487138Y55873D01*
X445282D01*
X445185Y56066D01*
X445129Y56373D01*
X445592Y56836D01*
X445878Y57526D01*
Y58274D01*
X445592Y58964D01*
X445064Y59492D01*
X444374Y59778D01*
X443626D01*
X442936Y59492D01*
X442408Y58964D01*
X442343Y58807D01*
X381593D01*
X381401Y59269D01*
X383625Y61493D01*
X468943D01*
X469008Y61336D01*
X469536Y60808D01*
X470226Y60522D01*
X470973D01*
X471664Y60808D01*
X472192Y61336D01*
X472478Y62026D01*
Y62774D01*
X472192Y63464D01*
X471664Y63992D01*
X470973Y64278D01*
X470226D01*
X469536Y63992D01*
X469008Y63464D01*
X468943Y63307D01*
X467798D01*
X467591Y63807D01*
X469976Y66193D01*
X479243D01*
X479308Y66036D01*
X479836Y65508D01*
X480526Y65222D01*
X481274D01*
X481964Y65508D01*
X482492Y66036D01*
X482778Y66726D01*
Y67474D01*
X482492Y68164D01*
X481964Y68692D01*
X481274Y68978D01*
X480526D01*
X479836Y68692D01*
X479308Y68164D01*
X479243Y68007D01*
X470102D01*
X469895Y68507D01*
X474205Y72818D01*
X487356D01*
X487548Y72356D01*
D02*
G37*
G36*
X194016Y69760D02*
X194016Y69760D01*
X194311Y69563D01*
X194658Y69494D01*
X195409D01*
X195436Y69392D01*
X195781Y68795D01*
X196268Y68308D01*
X196864Y67964D01*
X197530Y67786D01*
X198218D01*
X198884Y67964D01*
X198976Y68017D01*
X201834Y65158D01*
X201834Y65158D01*
X202128Y64962D01*
X202476Y64893D01*
X202476Y64893D01*
X203734D01*
X203941Y64393D01*
X203655Y64106D01*
X203310Y63510D01*
X203132Y62844D01*
Y62156D01*
X203310Y61490D01*
X203655Y60894D01*
X204142Y60407D01*
X204720Y60072D01*
X204739Y60058D01*
X204910Y59498D01*
X204841Y59407D01*
X203657D01*
X203592Y59564D01*
X203064Y60092D01*
X202374Y60378D01*
X201626D01*
X200936Y60092D01*
X200408Y59564D01*
X200122Y58874D01*
Y58126D01*
X200408Y57436D01*
X200936Y56908D01*
X201626Y56622D01*
X202374D01*
X203064Y56908D01*
X203592Y57436D01*
X203657Y57593D01*
X204883D01*
X204948Y57093D01*
X204738Y57036D01*
X204142Y56692D01*
X203655Y56205D01*
X203310Y55608D01*
X203132Y54943D01*
Y54254D01*
X203310Y53589D01*
X203655Y52992D01*
X204142Y52505D01*
X204203Y52469D01*
X204069Y51969D01*
X199553D01*
X199419Y52469D01*
X199480Y52505D01*
X199967Y52992D01*
X200312Y53589D01*
X200490Y54254D01*
Y54943D01*
X200312Y55608D01*
X199967Y56205D01*
X199480Y56692D01*
X198884Y57036D01*
X198218Y57214D01*
X197530D01*
X196864Y57036D01*
X196268Y56692D01*
X195781Y56205D01*
X195436Y55608D01*
X195258Y54943D01*
Y54254D01*
X195436Y53589D01*
X195781Y52992D01*
X196268Y52505D01*
X196329Y52469D01*
X196195Y51969D01*
X194431D01*
X192925Y53476D01*
X193092Y54098D01*
X190000D01*
X186908D01*
X187075Y53476D01*
X185731Y52132D01*
X185514Y52151D01*
X185325Y52667D01*
X185326Y52670D01*
X185592Y52936D01*
X185878Y53626D01*
Y54374D01*
X185592Y55064D01*
X185064Y55592D01*
X184529Y55813D01*
Y56378D01*
X184460Y56725D01*
X184264Y57020D01*
X184264Y57020D01*
X182922Y58361D01*
X182942Y58558D01*
X183270Y58887D01*
X183426Y58822D01*
X184174D01*
X184864Y59108D01*
X185392Y59636D01*
X185678Y60326D01*
Y61074D01*
X185392Y61764D01*
X184864Y62292D01*
X184174Y62578D01*
X183426D01*
X182736Y62292D01*
X182208Y61764D01*
X181922Y61074D01*
Y60326D01*
X181472Y60107D01*
X73510D01*
X73303Y60607D01*
X73589Y60894D01*
X73934Y61490D01*
X74112Y62156D01*
Y62844D01*
X73934Y63510D01*
X73589Y64106D01*
X73275Y64421D01*
X73482Y64921D01*
X180768D01*
X181116Y64990D01*
X181410Y65186D01*
X186422Y70198D01*
X186658Y70100D01*
X186892Y69961D01*
X187096Y69199D01*
X187506Y68488D01*
X188087Y67908D01*
X188725Y67539D01*
Y65362D01*
X188087Y64994D01*
X187506Y64413D01*
X187096Y63703D01*
X186908Y63000D01*
X190000D01*
X193092D01*
X192904Y63703D01*
X192493Y64413D01*
X191913Y64994D01*
X191274Y65362D01*
Y67539D01*
X191913Y67908D01*
X192493Y68488D01*
X192904Y69199D01*
X193108Y69961D01*
X193342Y70100D01*
X193578Y70198D01*
X194016Y69760D01*
D02*
G37*
G36*
X332427Y64622D02*
X333032D01*
X333268Y64197D01*
X333277Y64160D01*
X329224Y60107D01*
X223510D01*
X223303Y60607D01*
X223589Y60894D01*
X223934Y61490D01*
X224112Y62156D01*
Y62844D01*
X223934Y63510D01*
X223589Y64106D01*
X223303Y64393D01*
X223510Y64893D01*
X331773D01*
X332427Y64622D01*
D02*
G37*
G36*
X46486Y72621D02*
X46268Y72495D01*
X45781Y72008D01*
X45436Y71411D01*
X45258Y70746D01*
Y70057D01*
X45436Y69392D01*
X45781Y68795D01*
X46268Y68308D01*
X46864Y67964D01*
X47530Y67786D01*
X48218D01*
X48884Y67964D01*
X48976Y68017D01*
X51806Y65186D01*
X51806Y65186D01*
X52100Y64990D01*
X52448Y64921D01*
X52448Y64921D01*
X53762D01*
X53969Y64421D01*
X53655Y64106D01*
X53310Y63510D01*
X53132Y62844D01*
Y62156D01*
X53310Y61490D01*
X53655Y60894D01*
X53941Y60607D01*
X53734Y60107D01*
X49888D01*
X49681Y60607D01*
X49967Y60894D01*
X50312Y61490D01*
X50490Y62156D01*
Y62844D01*
X50312Y63510D01*
X49967Y64106D01*
X49480Y64593D01*
X48884Y64938D01*
X48218Y65116D01*
X47530D01*
X46864Y64938D01*
X46268Y64593D01*
X45781Y64106D01*
X45436Y63510D01*
X45258Y62844D01*
Y62156D01*
X45436Y61490D01*
X45781Y60894D01*
X46067Y60607D01*
X45860Y60107D01*
X45376D01*
X44207Y61276D01*
Y72680D01*
X44629Y73121D01*
X46352D01*
X46486Y72621D01*
D02*
G37*
G36*
X517295Y65936D02*
Y48357D01*
X517139Y48292D01*
X516610Y47764D01*
X516324Y47074D01*
Y46326D01*
X516610Y45636D01*
X517139Y45108D01*
X517295Y45043D01*
Y37678D01*
X499024Y19407D01*
X371657D01*
X371592Y19564D01*
X371263Y19893D01*
X371470Y20393D01*
X495628D01*
X495976Y20462D01*
X496270Y20658D01*
X510970Y35358D01*
X511167Y35653D01*
X511236Y36000D01*
Y52578D01*
X511736Y52785D01*
X512016Y52505D01*
X512612Y52161D01*
X513278Y51982D01*
X513966D01*
X514632Y52161D01*
X515228Y52505D01*
X515715Y52992D01*
X516060Y53589D01*
X516238Y54254D01*
Y54943D01*
X516060Y55608D01*
X515715Y56205D01*
X515228Y56692D01*
X514632Y57036D01*
X513966Y57214D01*
X513278D01*
X512612Y57036D01*
X512016Y56692D01*
X511736Y56412D01*
X511236Y56619D01*
Y60479D01*
X511736Y60686D01*
X512016Y60407D01*
X512612Y60062D01*
X513278Y59884D01*
X513966D01*
X514632Y60062D01*
X515228Y60407D01*
X515715Y60894D01*
X516060Y61490D01*
X516238Y62156D01*
Y62844D01*
X516060Y63510D01*
X515715Y64106D01*
X515403Y64419D01*
X515554Y64959D01*
X515570Y64962D01*
X515864Y65158D01*
X516833Y66127D01*
X517295Y65936D01*
D02*
G37*
G36*
X361815Y64393D02*
X361529Y64106D01*
X361184Y63510D01*
X361006Y62844D01*
Y62156D01*
X361184Y61490D01*
X361529Y60894D01*
X362016Y60407D01*
X362612Y60062D01*
X363278Y59884D01*
X363966D01*
X364632Y60062D01*
X364723Y60115D01*
X365939Y58900D01*
X365940Y58199D01*
X364723Y56983D01*
X364632Y57036D01*
X363966Y57214D01*
X363278D01*
X362612Y57036D01*
X362520Y56983D01*
X360562Y58942D01*
X360268Y59138D01*
X359920Y59207D01*
X346576D01*
X345643Y60141D01*
X345676Y60291D01*
X346224Y60450D01*
X346268Y60407D01*
X346864Y60062D01*
X347530Y59884D01*
X348218D01*
X348884Y60062D01*
X349480Y60407D01*
X349967Y60894D01*
X350312Y61490D01*
X350490Y62156D01*
Y62844D01*
X350312Y63510D01*
X350259Y63601D01*
X351550Y64893D01*
X353734D01*
X353941Y64393D01*
X353655Y64106D01*
X353310Y63510D01*
X353132Y62844D01*
Y62156D01*
X353310Y61490D01*
X353655Y60894D01*
X354142Y60407D01*
X354738Y60062D01*
X355404Y59884D01*
X356092D01*
X356758Y60062D01*
X357354Y60407D01*
X357841Y60894D01*
X358186Y61490D01*
X358364Y62156D01*
Y62844D01*
X358186Y63510D01*
X357841Y64106D01*
X357555Y64393D01*
X357762Y64893D01*
X361608D01*
X361815Y64393D01*
D02*
G37*
G36*
X219689D02*
X219403Y64106D01*
X219058Y63510D01*
X218880Y62844D01*
Y62156D01*
X219058Y61490D01*
X219403Y60894D01*
X219689Y60607D01*
X219482Y60107D01*
X218224D01*
X218224Y60107D01*
X217876Y60038D01*
X217582Y59842D01*
X217582Y59842D01*
X214723Y56983D01*
X214632Y57036D01*
X213966Y57214D01*
X213278D01*
X212612Y57036D01*
X212520Y56983D01*
X209862Y59642D01*
X209568Y59838D01*
X209220Y59907D01*
X207490D01*
X207355Y60403D01*
X207355Y60407D01*
X207841Y60894D01*
X208186Y61490D01*
X208364Y62156D01*
Y62844D01*
X208186Y63510D01*
X207841Y64106D01*
X207555Y64393D01*
X207762Y64893D01*
X211608D01*
X211815Y64393D01*
X211529Y64106D01*
X211184Y63510D01*
X211006Y62844D01*
Y62156D01*
X211184Y61490D01*
X211529Y60894D01*
X212016Y60407D01*
X212612Y60062D01*
X213278Y59884D01*
X213966D01*
X214632Y60062D01*
X215228Y60407D01*
X215715Y60894D01*
X216060Y61490D01*
X216238Y62156D01*
Y62844D01*
X216060Y63510D01*
X215715Y64106D01*
X215429Y64393D01*
X215636Y64893D01*
X219482D01*
X219689Y64393D01*
D02*
G37*
G36*
X44358Y58558D02*
X44358Y58558D01*
X44653Y58362D01*
X45000Y58293D01*
X49632D01*
X49823Y57831D01*
X48976Y56983D01*
X48884Y57036D01*
X48218Y57214D01*
X47530D01*
X46864Y57036D01*
X46268Y56692D01*
X45781Y56205D01*
X45436Y55608D01*
X45258Y54943D01*
Y54254D01*
X45436Y53589D01*
X45781Y52992D01*
X46268Y52505D01*
X46330Y52469D01*
X46196Y51969D01*
X44431D01*
X42925Y53476D01*
X43092Y54098D01*
X40000D01*
Y55098D01*
X43092D01*
X42904Y55801D01*
X42494Y56512D01*
X41913Y57092D01*
X41274Y57461D01*
Y59638D01*
X41913Y60006D01*
X42100Y60193D01*
X42658Y60258D01*
X44358Y58558D01*
D02*
G37*
G36*
X442408Y56836D02*
X442871Y56373D01*
X442815Y56066D01*
X442718Y55873D01*
X419778D01*
X419290Y55776D01*
X418877Y55500D01*
X415347Y51969D01*
X373175D01*
X373041Y52469D01*
X373102Y52505D01*
X373589Y52992D01*
X373934Y53589D01*
X374112Y54254D01*
Y54943D01*
X373934Y55608D01*
X373589Y56205D01*
X373302Y56493D01*
X373509Y56993D01*
X442343D01*
X442408Y56836D01*
D02*
G37*
G36*
X182714Y56002D02*
Y55370D01*
X182408Y55064D01*
X182122Y54374D01*
Y53626D01*
X182408Y52936D01*
X182875Y52469D01*
X182825Y52180D01*
X182722Y51969D01*
X73175D01*
X73040Y52469D01*
X73102Y52505D01*
X73589Y52992D01*
X73934Y53589D01*
X74112Y54254D01*
Y54943D01*
X73934Y55608D01*
X73589Y56205D01*
X73302Y56493D01*
X73509Y56993D01*
X181724D01*
X182714Y56002D01*
D02*
G37*
G36*
X318779Y52862D02*
X317524Y51607D01*
X269243D01*
X269052Y52069D01*
X270306Y53324D01*
X318587D01*
X318779Y52862D01*
D02*
G37*
G36*
X193416Y49517D02*
X193904Y49420D01*
X222057D01*
X222265Y48920D01*
X221908Y48564D01*
X221843Y48407D01*
X106757D01*
X106692Y48564D01*
X106335Y48920D01*
X106543Y49420D01*
X186096D01*
X186584Y49517D01*
X186996Y49793D01*
X193004D01*
X193416Y49517D01*
D02*
G37*
G36*
X221908Y46436D02*
X222205Y46139D01*
X221998Y45639D01*
X106602D01*
X106395Y46139D01*
X106692Y46436D01*
X106757Y46593D01*
X221843D01*
X221908Y46436D01*
D02*
G37*
G36*
X38797Y51695D02*
X39361Y51543D01*
X39396Y51017D01*
X39153Y50916D01*
X38484Y50247D01*
X38133Y49400D01*
X43029D01*
X43124Y49478D01*
X43338Y49569D01*
X43416Y49517D01*
X43904Y49420D01*
X103657D01*
X103865Y48920D01*
X103508Y48564D01*
X103222Y47874D01*
Y47126D01*
X103508Y46436D01*
X103805Y46139D01*
X103598Y45639D01*
X95811D01*
X95692Y45928D01*
X95164Y46456D01*
X94474Y46742D01*
X93726D01*
X93036Y46456D01*
X92508Y45928D01*
X92222Y45237D01*
Y44583D01*
X91964Y44405D01*
X91760Y44338D01*
X91056Y45042D01*
X90762Y45238D01*
X90414Y45307D01*
X85357D01*
X85292Y45464D01*
X84764Y45992D01*
X84074Y46278D01*
X83326D01*
X82636Y45992D01*
X82108Y45464D01*
X81822Y44774D01*
Y44026D01*
X82108Y43336D01*
X82437Y43007D01*
X82230Y42507D01*
X46169D01*
X45107Y43570D01*
X45172Y43726D01*
Y44474D01*
X44886Y45164D01*
X44357Y45692D01*
X43667Y45978D01*
X42920D01*
X42230Y45692D01*
X41701Y45164D01*
X41416Y44474D01*
Y43726D01*
X41701Y43036D01*
X42230Y42508D01*
X42920Y42222D01*
X43667D01*
X43824Y42287D01*
X45152Y40958D01*
X45152Y40958D01*
X45446Y40762D01*
X45794Y40693D01*
X65760D01*
X65860Y40193D01*
X65859Y40192D01*
X65330Y39664D01*
X65044Y38974D01*
Y38226D01*
X65330Y37536D01*
X65859Y37008D01*
X66549Y36722D01*
X67296D01*
X67986Y37008D01*
X68514Y37536D01*
X68579Y37693D01*
X202843D01*
X202908Y37536D01*
X203413Y37032D01*
X203404Y36911D01*
X203280Y36532D01*
X76424D01*
X76077Y36463D01*
X75783Y36266D01*
X75730Y36213D01*
X75574Y36278D01*
X74826D01*
X74136Y35992D01*
X73608Y35464D01*
X73322Y34774D01*
Y34026D01*
X73608Y33336D01*
X74132Y32812D01*
X74132Y32788D01*
X74027Y32312D01*
X45371D01*
X37607Y40076D01*
Y51931D01*
X37842Y52028D01*
X38107Y52093D01*
X38797Y51695D01*
D02*
G37*
G36*
X203437Y40193D02*
X203436Y40192D01*
X202908Y39664D01*
X202843Y39507D01*
X98028D01*
X97943Y39627D01*
X97839Y40007D01*
X98524Y40693D01*
X203338D01*
X203437Y40193D01*
D02*
G37*
G36*
X223366Y34217D02*
X221461Y32312D01*
X217055D01*
X216992Y32464D01*
X216464Y32992D01*
X215774Y33278D01*
X215026D01*
X214336Y32992D01*
X213808Y32464D01*
X213745Y32312D01*
X76373D01*
X76268Y32788D01*
X76268Y32812D01*
X76792Y33336D01*
X77078Y34026D01*
Y34717D01*
X223159D01*
X223366Y34217D01*
D02*
G37*
G36*
X232693Y29624D02*
Y12832D01*
X232701Y12789D01*
X232240Y12543D01*
X231465Y13318D01*
Y17858D01*
X231466Y17858D01*
X231396Y18205D01*
X231200Y18500D01*
X230056Y19644D01*
X229762Y19840D01*
X229414Y19909D01*
X218866D01*
X218865Y19909D01*
X218865Y19909D01*
X202566Y19890D01*
X202210Y20245D01*
X202418Y20745D01*
X218353D01*
X218700Y20814D01*
X218994Y21011D01*
X227470Y29487D01*
X227626Y29422D01*
X228374D01*
X229064Y29708D01*
X229592Y30236D01*
X229878Y30926D01*
Y31674D01*
X229837Y31773D01*
X230261Y32056D01*
X232693Y29624D01*
D02*
G37*
G36*
X185920Y29993D02*
X185436Y29792D01*
X184908Y29264D01*
X184843Y29107D01*
X135457D01*
X135392Y29264D01*
X134864Y29792D01*
X134380Y29993D01*
X134479Y30493D01*
X185821D01*
X185920Y29993D01*
D02*
G37*
G36*
X133220D02*
X132736Y29792D01*
X132208Y29264D01*
X132143Y29107D01*
X74457D01*
X74392Y29264D01*
X73864Y29792D01*
X73380Y29993D01*
X73479Y30493D01*
X133121D01*
X133220Y29993D01*
D02*
G37*
G36*
X199790Y20245D02*
X199431Y19886D01*
X61757Y19726D01*
X61550Y20225D01*
X61914Y20589D01*
X61978Y20745D01*
X199582D01*
X199790Y20245D01*
D02*
G37*
G36*
X519890Y52505D02*
X520486Y52161D01*
X521152Y51982D01*
X521840D01*
X522506Y52161D01*
X523102Y52505D01*
X523382Y52785D01*
X523882Y52578D01*
Y39865D01*
X496072Y12055D01*
X377810D01*
X377462Y11986D01*
X377168Y11790D01*
X372986Y7607D01*
X333748D01*
X333541Y8107D01*
X335642Y10208D01*
X335838Y10503D01*
X335907Y10850D01*
Y15700D01*
X335838Y16047D01*
X335642Y16342D01*
X335642Y16342D01*
X333142Y18842D01*
X332847Y19038D01*
X332500Y19107D01*
X330557D01*
X330492Y19264D01*
X329964Y19792D01*
X329721Y19893D01*
X329821Y20393D01*
X368530D01*
X368737Y19893D01*
X368408Y19564D01*
X368122Y18874D01*
Y18126D01*
X368408Y17436D01*
X368936Y16908D01*
X369626Y16622D01*
X370374D01*
X371064Y16908D01*
X371592Y17436D01*
X371657Y17593D01*
X499400D01*
X499747Y17662D01*
X500042Y17858D01*
X518844Y36661D01*
X519041Y36955D01*
X519110Y37302D01*
Y45043D01*
X519266Y45108D01*
X519794Y45636D01*
X520080Y46326D01*
Y47074D01*
X519794Y47764D01*
X519266Y48292D01*
X519110Y48357D01*
Y52578D01*
X519610Y52785D01*
X519890Y52505D01*
D02*
G37*
G36*
X328079Y19893D02*
X327836Y19792D01*
X327308Y19264D01*
X327022Y18574D01*
Y17826D01*
X327308Y17136D01*
X327836Y16608D01*
X328526Y16322D01*
X329274D01*
X329964Y16608D01*
X330492Y17136D01*
X330557Y17293D01*
X332124D01*
X334093Y15324D01*
Y14070D01*
X333593Y13863D01*
X333264Y14192D01*
X332574Y14478D01*
X331826D01*
X331136Y14192D01*
X330608Y13664D01*
X330322Y12974D01*
Y12226D01*
X330387Y12070D01*
X329024Y10707D01*
X315544D01*
X315353Y11169D01*
X324576Y20393D01*
X327979D01*
X328079Y19893D01*
D02*
G37*
G36*
X229651Y17482D02*
Y12942D01*
X229720Y12595D01*
X229916Y12300D01*
X234109Y8107D01*
X233902Y7607D01*
X179527D01*
X177293Y9842D01*
X176998Y10038D01*
X176651Y10107D01*
X57857D01*
X57792Y10264D01*
X57264Y10792D01*
X56574Y11078D01*
X55826D01*
X55557Y10966D01*
X55273Y11390D01*
X56408Y12525D01*
X226132D01*
X226479Y12594D01*
X226638Y12700D01*
X226827Y12622D01*
X227573D01*
X228264Y12908D01*
X228792Y13436D01*
X229078Y14126D01*
Y14874D01*
X228792Y15564D01*
X228264Y16092D01*
X227573Y16378D01*
X226827D01*
X226136Y16092D01*
X225608Y15564D01*
X225322Y14874D01*
Y14339D01*
X222902D01*
X222695Y14839D01*
X222992Y15136D01*
X223278Y15826D01*
Y16574D01*
X222992Y17264D01*
X222661Y17594D01*
X222869Y18094D01*
X229038D01*
X229651Y17482D01*
D02*
G37*
G36*
X525193Y37956D02*
Y13886D01*
X522082Y10775D01*
X498012D01*
X497821Y11237D01*
X524731Y38147D01*
X525193Y37956D01*
D02*
G37*
G36*
X216387Y39630D02*
X216322Y39474D01*
Y38726D01*
X216608Y38036D01*
X217136Y37508D01*
X217827Y37222D01*
X218573D01*
X219264Y37508D01*
X219792Y38036D01*
X220078Y38726D01*
Y39474D01*
X220158Y39593D01*
X230124D01*
X235093Y34624D01*
Y15800D01*
X235162Y15453D01*
X235358Y15158D01*
X239347Y11169D01*
X239156Y10707D01*
X237008D01*
X234507Y13208D01*
Y30000D01*
X234438Y30347D01*
X234242Y30642D01*
X230174Y34710D01*
X229879Y34906D01*
X229532Y34975D01*
X227189D01*
X227089Y35475D01*
X227332Y35576D01*
X227860Y36104D01*
X228146Y36794D01*
Y37542D01*
X227860Y38232D01*
X227332Y38760D01*
X226642Y39046D01*
X225894D01*
X225204Y38760D01*
X224676Y38232D01*
X224390Y37542D01*
Y36794D01*
X223958Y36532D01*
X205720D01*
X205595Y36911D01*
X205588Y37032D01*
X206092Y37536D01*
X206378Y38226D01*
Y38974D01*
X206092Y39664D01*
X205564Y40192D01*
X205562Y40193D01*
X205662Y40693D01*
X215324D01*
X216387Y39630D01*
D02*
G37*
G36*
X158684Y7793D02*
X156799Y5907D01*
X56276D01*
X55103Y7081D01*
X55386Y7504D01*
X55826Y7322D01*
X56574D01*
X57264Y7608D01*
X57792Y8136D01*
X57857Y8293D01*
X158477D01*
X158684Y7793D01*
D02*
G37*
G36*
X219902Y14838D02*
X219677Y14339D01*
X56032D01*
X55685Y14270D01*
X55390Y14074D01*
X52758Y11442D01*
X52562Y11147D01*
X52493Y10800D01*
Y7500D01*
X52562Y7153D01*
X52758Y6858D01*
X52877Y6740D01*
X52691Y6219D01*
X52642Y6214D01*
X52264Y6592D01*
X51574Y6878D01*
X50826D01*
X50136Y6592D01*
X49807Y6263D01*
X49307Y6470D01*
Y12224D01*
X52176Y15093D01*
X219705D01*
X219902Y14838D01*
D02*
G37*
G36*
X373231Y5293D02*
X372449Y4511D01*
X180063D01*
X179282Y5293D01*
X179489Y5793D01*
X373024D01*
X373231Y5293D01*
D02*
G37*
G36*
X171730Y6086D02*
X171408Y5764D01*
X171122Y5074D01*
Y4326D01*
X171408Y3636D01*
X171437Y3607D01*
X171230Y3107D01*
X52670D01*
X52463Y3607D01*
X52792Y3936D01*
X52857Y4093D01*
X157175D01*
X157522Y4162D01*
X157817Y4358D01*
X160044Y6586D01*
X171523D01*
X171730Y6086D01*
D02*
G37*
%LPC*%
G36*
X246547Y249839D02*
X246410D01*
X245180Y249509D01*
X244076Y248872D01*
X243175Y247971D01*
X242538Y246868D01*
X242209Y245637D01*
Y245500D01*
X246547D01*
Y249839D01*
D02*
G37*
G36*
X224062D02*
X223925D01*
Y245500D01*
X228264D01*
Y245637D01*
X227934Y246868D01*
X227297Y247971D01*
X226396Y248872D01*
X225293Y249509D01*
X224062Y249839D01*
D02*
G37*
G36*
X175681D02*
X175544D01*
X174314Y249509D01*
X173210Y248872D01*
X172309Y247971D01*
X171672Y246868D01*
X171343Y245637D01*
Y245500D01*
X175681D01*
Y249839D01*
D02*
G37*
G36*
X387448D02*
X387311D01*
Y245500D01*
X391650D01*
Y245637D01*
X391320Y246868D01*
X390683Y247971D01*
X389782Y248872D01*
X388679Y249509D01*
X387448Y249839D01*
D02*
G37*
G36*
X386311D02*
X386174D01*
X384943Y249509D01*
X383840Y248872D01*
X382939Y247971D01*
X382302Y246868D01*
X381972Y245637D01*
Y245500D01*
X386311D01*
Y249839D01*
D02*
G37*
G36*
X363826D02*
X363689D01*
Y245500D01*
X368028D01*
Y245637D01*
X367698Y246868D01*
X367061Y247971D01*
X366160Y248872D01*
X365057Y249509D01*
X363826Y249839D01*
D02*
G37*
G36*
X391650Y244500D02*
X387311D01*
Y240161D01*
X387448D01*
X388679Y240491D01*
X389782Y241128D01*
X390683Y242029D01*
X391320Y243132D01*
X391650Y244363D01*
Y244500D01*
D02*
G37*
G36*
X362689D02*
X358350D01*
Y244363D01*
X358680Y243132D01*
X359317Y242029D01*
X360218Y241128D01*
X361321Y240491D01*
X362552Y240161D01*
X362689D01*
Y244500D01*
D02*
G37*
G36*
X322422Y239496D02*
X321279D01*
X320176Y239200D01*
X319186Y238629D01*
X318379Y237821D01*
X317808Y236832D01*
X317512Y235729D01*
Y234586D01*
X317808Y233483D01*
X318205Y232795D01*
X311417Y226007D01*
X266157D01*
X266092Y226164D01*
X265564Y226692D01*
X264874Y226978D01*
X264126D01*
X263436Y226692D01*
X262908Y226164D01*
X262622Y225473D01*
Y224727D01*
X262908Y224036D01*
X263436Y223508D01*
X264126Y223222D01*
X264874D01*
X265564Y223508D01*
X266092Y224036D01*
X266157Y224193D01*
X311793D01*
X312140Y224262D01*
X312435Y224458D01*
X319488Y231512D01*
X320176Y231115D01*
X321279Y230819D01*
X322422D01*
X323525Y231115D01*
X324514Y231686D01*
X325322Y232493D01*
X325893Y233483D01*
X326189Y234586D01*
Y235729D01*
X325893Y236832D01*
X325322Y237821D01*
X324514Y238629D01*
X323525Y239200D01*
X322422Y239496D01*
D02*
G37*
G36*
X257791Y234657D02*
X253453D01*
Y230319D01*
X253590D01*
X254820Y230649D01*
X255924Y231286D01*
X256825Y232186D01*
X257462Y233290D01*
X257791Y234520D01*
Y234657D01*
D02*
G37*
G36*
X259429Y217843D02*
X258287D01*
X257184Y217547D01*
X256194Y216976D01*
X255386Y216168D01*
X254815Y215179D01*
X254520Y214075D01*
Y212933D01*
X254815Y211829D01*
X255386Y210840D01*
X256194Y210032D01*
X257184Y209461D01*
X258287Y209165D01*
X259429D01*
X260533Y209461D01*
X261522Y210032D01*
X262330Y210840D01*
X262901Y211829D01*
X263197Y212933D01*
Y214075D01*
X262901Y215179D01*
X262330Y216168D01*
X261522Y216976D01*
X260533Y217547D01*
X259429Y217843D01*
D02*
G37*
G36*
X247618D02*
X246476D01*
X245373Y217547D01*
X244383Y216976D01*
X243576Y216168D01*
X243004Y215179D01*
X242709Y214075D01*
Y212933D01*
X243004Y211829D01*
X243576Y210840D01*
X244383Y210032D01*
X245373Y209461D01*
X246476Y209165D01*
X247618D01*
X248722Y209461D01*
X249711Y210032D01*
X250519Y210840D01*
X251090Y211829D01*
X251386Y212933D01*
Y214075D01*
X251090Y215179D01*
X250519Y216168D01*
X249711Y216976D01*
X248722Y217547D01*
X247618Y217843D01*
D02*
G37*
G36*
X235807D02*
X234665D01*
X233562Y217547D01*
X232572Y216976D01*
X231765Y216168D01*
X231193Y215179D01*
X230898Y214075D01*
Y212933D01*
X231193Y211829D01*
X231765Y210840D01*
X232572Y210032D01*
X233562Y209461D01*
X234665Y209165D01*
X235807D01*
X236911Y209461D01*
X237900Y210032D01*
X238708Y210840D01*
X239279Y211829D01*
X239575Y212933D01*
Y214075D01*
X239279Y215179D01*
X238708Y216168D01*
X237900Y216976D01*
X236911Y217547D01*
X235807Y217843D01*
D02*
G37*
G36*
X229968Y239996D02*
X229831D01*
Y235657D01*
X234169D01*
Y235794D01*
X233840Y237025D01*
X233203Y238128D01*
X232302Y239029D01*
X231198Y239666D01*
X229968Y239996D01*
D02*
G37*
G36*
X206346D02*
X206209D01*
Y235657D01*
X210547D01*
Y235794D01*
X210217Y237025D01*
X209580Y238128D01*
X208680Y239029D01*
X207576Y239666D01*
X206346Y239996D01*
D02*
G37*
G36*
X114774Y172678D02*
X114026D01*
X113336Y172392D01*
X112808Y171864D01*
X112522Y171174D01*
Y170426D01*
X112808Y169736D01*
X113336Y169208D01*
X114026Y168922D01*
X114774D01*
X115464Y169208D01*
X115992Y169736D01*
X116159Y170141D01*
X127204D01*
X127395Y169679D01*
X116830Y159113D01*
X116674Y159178D01*
X115926D01*
X115236Y158892D01*
X114708Y158364D01*
X114422Y157674D01*
Y156926D01*
X114708Y156236D01*
X115236Y155708D01*
X115926Y155422D01*
X116674D01*
X117364Y155708D01*
X117892Y156236D01*
X118178Y156926D01*
Y157674D01*
X118113Y157830D01*
X129144Y168861D01*
X211756D01*
X217587Y163030D01*
X217522Y162874D01*
Y162126D01*
X217808Y161436D01*
X218336Y160908D01*
X219026Y160622D01*
X219774D01*
X220464Y160908D01*
X220992Y161436D01*
X221278Y162126D01*
Y162874D01*
X220992Y163564D01*
X220464Y164092D01*
X219774Y164378D01*
X219026D01*
X218870Y164313D01*
X213505Y169679D01*
X213696Y170141D01*
X222544D01*
X222922Y169773D01*
Y169026D01*
X223208Y168336D01*
X223736Y167808D01*
X224427Y167522D01*
X225173D01*
X225864Y167808D01*
X226392Y168336D01*
X226678Y169026D01*
Y169774D01*
X226392Y170464D01*
X225864Y170992D01*
X225173Y171278D01*
X224427D01*
X224270Y171213D01*
X223794Y171690D01*
X223499Y171886D01*
X223152Y171955D01*
X115900D01*
X115464Y172392D01*
X114774Y172678D01*
D02*
G37*
G36*
X209874Y164378D02*
X209126D01*
X208436Y164092D01*
X207908Y163564D01*
X207843Y163407D01*
X151757D01*
X151692Y163564D01*
X151164Y164092D01*
X150474Y164378D01*
X149726D01*
X149036Y164092D01*
X148508Y163564D01*
X148222Y162874D01*
Y162126D01*
X148508Y161436D01*
X149036Y160908D01*
X149726Y160622D01*
X150474D01*
X151164Y160908D01*
X151692Y161436D01*
X151757Y161593D01*
X207843D01*
X207908Y161436D01*
X208436Y160908D01*
X209126Y160622D01*
X209874D01*
X210564Y160908D01*
X211092Y161436D01*
X211378Y162126D01*
Y162874D01*
X211092Y163564D01*
X210564Y164092D01*
X209874Y164378D01*
D02*
G37*
G36*
X71840Y144116D02*
X71152D01*
X70486Y143938D01*
X69890Y143593D01*
X69403Y143106D01*
X69058Y142510D01*
X68880Y141844D01*
Y141156D01*
X69058Y140490D01*
X69403Y139894D01*
X69890Y139407D01*
X70486Y139062D01*
X71152Y138884D01*
X71840D01*
X72506Y139062D01*
X73102Y139407D01*
X73589Y139894D01*
X73934Y140490D01*
X74112Y141156D01*
Y141844D01*
X73934Y142510D01*
X73589Y143106D01*
X73102Y143593D01*
X72506Y143938D01*
X71840Y144116D01*
D02*
G37*
G36*
X63966D02*
X63278D01*
X62612Y143938D01*
X62016Y143593D01*
X61529Y143106D01*
X61184Y142510D01*
X61006Y141844D01*
Y141156D01*
X61184Y140490D01*
X61529Y139894D01*
X62016Y139407D01*
X62612Y139062D01*
X63278Y138884D01*
X63966D01*
X64632Y139062D01*
X65228Y139407D01*
X65715Y139894D01*
X66060Y140490D01*
X66238Y141156D01*
Y141844D01*
X66060Y142510D01*
X65715Y143106D01*
X65228Y143593D01*
X64632Y143938D01*
X63966Y144116D01*
D02*
G37*
G36*
X513966Y88817D02*
X513278D01*
X512612Y88639D01*
X512016Y88294D01*
X511529Y87807D01*
X511184Y87211D01*
X511006Y86545D01*
Y85856D01*
X511184Y85191D01*
X511529Y84595D01*
X512016Y84107D01*
X512612Y83763D01*
X513278Y83585D01*
X513966D01*
X514632Y83763D01*
X515228Y84107D01*
X515715Y84595D01*
X516060Y85191D01*
X516238Y85856D01*
Y86545D01*
X516060Y87211D01*
X515715Y87807D01*
X515228Y88294D01*
X514632Y88639D01*
X513966Y88817D01*
D02*
G37*
G36*
X198218D02*
X197530D01*
X196864Y88639D01*
X196268Y88294D01*
X195781Y87807D01*
X195436Y87211D01*
X195258Y86545D01*
Y85856D01*
X195436Y85191D01*
X195781Y84595D01*
X196268Y84107D01*
X196864Y83763D01*
X197530Y83585D01*
X198218D01*
X198884Y83763D01*
X199480Y84107D01*
X199967Y84595D01*
X200312Y85191D01*
X200490Y85856D01*
Y86545D01*
X200312Y87211D01*
X199967Y87807D01*
X199480Y88294D01*
X198884Y88639D01*
X198218Y88817D01*
D02*
G37*
G36*
X280473Y41878D02*
X279727D01*
X279036Y41592D01*
X278508Y41064D01*
X278443Y40907D01*
X248257D01*
X248192Y41064D01*
X247664Y41592D01*
X246973Y41878D01*
X246227D01*
X245536Y41592D01*
X245008Y41064D01*
X244722Y40374D01*
Y39626D01*
X245008Y38936D01*
X245536Y38408D01*
X246227Y38122D01*
X246973D01*
X247664Y38408D01*
X248192Y38936D01*
X248257Y39093D01*
X278443D01*
X278508Y38936D01*
X279036Y38408D01*
X279727Y38122D01*
X280473D01*
X281164Y38408D01*
X281692Y38936D01*
X281978Y39626D01*
Y40374D01*
X281692Y41064D01*
X281164Y41592D01*
X280473Y41878D01*
D02*
G37*
G36*
X317899Y33108D02*
X264201D01*
X263854Y33039D01*
X263559Y32843D01*
X263559Y32843D01*
X262530Y31813D01*
X262373Y31878D01*
X261627D01*
X260936Y31592D01*
X260408Y31064D01*
X260122Y30374D01*
Y29626D01*
X260408Y28936D01*
X260936Y28408D01*
X261627Y28122D01*
X262373D01*
X263064Y28408D01*
X263592Y28936D01*
X263878Y29626D01*
Y30374D01*
X263813Y30530D01*
X264577Y31294D01*
X317523D01*
X324658Y24158D01*
X324658Y24158D01*
X324953Y23962D01*
X325300Y23893D01*
X359743D01*
X359808Y23736D01*
X360336Y23208D01*
X361027Y22922D01*
X361773D01*
X362464Y23208D01*
X362992Y23736D01*
X363278Y24426D01*
Y25174D01*
X362992Y25864D01*
X362464Y26392D01*
X361773Y26678D01*
X361027D01*
X360336Y26392D01*
X359808Y25864D01*
X359743Y25707D01*
X325676D01*
X318541Y32843D01*
X318246Y33039D01*
X317899Y33108D01*
D02*
G37*
G36*
X493092Y54098D02*
X490500D01*
Y51506D01*
X491203Y51695D01*
X491913Y52105D01*
X492493Y52685D01*
X492904Y53396D01*
X493092Y54098D01*
D02*
G37*
G36*
X198218Y65116D02*
X197530D01*
X196864Y64938D01*
X196268Y64593D01*
X195781Y64106D01*
X195436Y63510D01*
X195258Y62844D01*
Y62156D01*
X195436Y61490D01*
X195781Y60894D01*
X196268Y60407D01*
X196864Y60062D01*
X197530Y59884D01*
X198218D01*
X198884Y60062D01*
X199480Y60407D01*
X199967Y60894D01*
X200312Y61490D01*
X200490Y62156D01*
Y62844D01*
X200312Y63510D01*
X199967Y64106D01*
X199480Y64593D01*
X198884Y64938D01*
X198218Y65116D01*
D02*
G37*
G36*
X193092Y62000D02*
X190000D01*
X186908D01*
X187096Y61297D01*
X187506Y60587D01*
X188087Y60006D01*
X188725Y59638D01*
Y57461D01*
X188087Y57092D01*
X187506Y56512D01*
X187096Y55801D01*
X186908Y55098D01*
X190000D01*
X193092D01*
X192904Y55801D01*
X192493Y56512D01*
X191913Y57092D01*
X191274Y57461D01*
Y59638D01*
X191913Y60006D01*
X192493Y60587D01*
X192904Y61297D01*
X193092Y62000D01*
D02*
G37*
G36*
X42867Y48400D02*
X41000D01*
Y46533D01*
X41847Y46884D01*
X42516Y47553D01*
X42867Y48400D01*
D02*
G37*
G36*
X40000D02*
X38133D01*
X38484Y47553D01*
X39153Y46884D01*
X40000Y46533D01*
Y48400D01*
D02*
G37*
%LPD*%
D12*
X14000Y281998D02*
Y276000D01*
X16999D01*
X17999Y277000D01*
Y280998D01*
X16999Y281998D01*
X14000D01*
X19998D02*
X21997D01*
X20998D01*
Y276000D01*
X19998D01*
X21997D01*
X24996D02*
Y279999D01*
X26996Y281998D01*
X28995Y279999D01*
Y276000D01*
Y278999D01*
X24996D01*
X30994Y276000D02*
Y281998D01*
X32994Y279999D01*
X34993Y281998D01*
Y276000D01*
X40991Y281998D02*
X36993D01*
Y276000D01*
X40991D01*
X36993Y278999D02*
X38992D01*
X42991Y281998D02*
X46989D01*
X44990D01*
Y276000D01*
X52987Y281998D02*
X48989D01*
Y276000D01*
X52987D01*
X48989Y278999D02*
X50988D01*
X54987Y276000D02*
Y281998D01*
X57986D01*
X58986Y280998D01*
Y278999D01*
X57986Y277999D01*
X54987D01*
X56986D02*
X58986Y276000D01*
X66983D02*
X68982D01*
X67983D01*
Y281998D01*
X66983Y280998D01*
X71981D02*
X72981Y281998D01*
X74980D01*
X75980Y280998D01*
Y279999D01*
X74980Y278999D01*
X73981D01*
X74980D01*
X75980Y277999D01*
Y277000D01*
X74980Y276000D01*
X72981D01*
X71981Y277000D01*
X77979Y280998D02*
X78979Y281998D01*
X80978D01*
X81978Y280998D01*
Y277000D01*
X80978Y276000D01*
X78979D01*
X77979Y277000D01*
Y280998D01*
X147500Y281998D02*
Y276000D01*
X150499D01*
X151499Y277000D01*
Y280998D01*
X150499Y281998D01*
X147500D01*
X153498D02*
X155497D01*
X154498D01*
Y276000D01*
X153498D01*
X155497D01*
X158496D02*
Y279999D01*
X160496Y281998D01*
X162495Y279999D01*
Y276000D01*
Y278999D01*
X158496D01*
X164495Y276000D02*
Y281998D01*
X166494Y279999D01*
X168493Y281998D01*
Y276000D01*
X174491Y281998D02*
X170493D01*
Y276000D01*
X174491D01*
X170493Y278999D02*
X172492D01*
X176491Y281998D02*
X180489D01*
X178490D01*
Y276000D01*
X186487Y281998D02*
X182489D01*
Y276000D01*
X186487D01*
X182489Y278999D02*
X184488D01*
X188487Y276000D02*
Y281998D01*
X191486D01*
X192485Y280998D01*
Y278999D01*
X191486Y277999D01*
X188487D01*
X190486D02*
X192485Y276000D01*
X200483D02*
X202482D01*
X201483D01*
Y281998D01*
X200483Y280998D01*
X205481D02*
X206481Y281998D01*
X208480D01*
X209480Y280998D01*
Y279999D01*
X208480Y278999D01*
X207481D01*
X208480D01*
X209480Y277999D01*
Y277000D01*
X208480Y276000D01*
X206481D01*
X205481Y277000D01*
X211479Y280998D02*
X212479Y281998D01*
X214478D01*
X215478Y280998D01*
Y277000D01*
X214478Y276000D01*
X212479D01*
X211479Y277000D01*
Y280998D01*
D21*
X202476Y65800D02*
X332100D01*
X344732Y47500D02*
X344732D01*
X343100Y45868D02*
X344732Y47500D01*
X342532Y45868D02*
X343100D01*
X494000Y99766D02*
X495060Y98706D01*
X494000Y99766D02*
Y106000D01*
X331720Y128220D02*
X334500Y131000D01*
X224015Y128220D02*
X331720D01*
X221496Y125701D02*
X224015Y128220D01*
X185328Y105328D02*
X185500Y105500D01*
X52448Y105328D02*
X185328D01*
X202000Y58500D02*
X205627D01*
X206128Y59000D01*
X209220D01*
X213622Y54598D01*
X262000Y30000D02*
X264201Y32201D01*
X317899D01*
X183622Y54378D02*
X184000Y54000D01*
X183622Y54378D02*
Y56378D01*
X182100Y57900D02*
X183622Y56378D01*
X66924Y57900D02*
X182100D01*
X350150Y165900D02*
X351122Y166872D01*
X344100Y165900D02*
X350150D01*
X351122Y166872D02*
X367132D01*
X220293Y179832D02*
X228920Y188460D01*
X323400Y118400D02*
Y120100D01*
X320000Y115000D02*
X323400Y118400D01*
X247047Y245000D02*
X258858D01*
X315945D01*
X208400D02*
X211614D01*
X202900Y239500D02*
X208400Y245000D01*
X196600Y239500D02*
X202900D01*
X191100Y245000D02*
X196600Y239500D01*
X187992Y245000D02*
X191100D01*
X184800D02*
X187992D01*
X179300Y239500D02*
X184800Y245000D01*
X173000Y239500D02*
X179300D01*
X167500Y245000D02*
X173000Y239500D01*
X164370Y245000D02*
X167500D01*
X348200D02*
X351378D01*
X342700Y239500D02*
X348200Y245000D01*
X336400Y239500D02*
X342700D01*
X330900Y245000D02*
X336400Y239500D01*
X327756Y245000D02*
X330900D01*
X218708Y213504D02*
X223425D01*
X213692Y218520D02*
X218708Y213504D01*
X207976Y218520D02*
X213692D01*
X207786Y218330D02*
X207976Y218520D01*
X203631Y218330D02*
X207786D01*
X203361Y218600D02*
X203631Y218330D01*
X197700Y218600D02*
X203361D01*
X192604Y213504D02*
X197700Y218600D01*
X187992Y213504D02*
X192604D01*
X235236Y245000D02*
X240336Y239900D01*
X251300D01*
X252650Y241250D01*
X255514D01*
X256864Y239900D01*
X317939D01*
X323039Y245000D01*
X327756D01*
X344574Y136899D02*
X347874Y133598D01*
X344574Y136899D02*
Y146074D01*
X335426D02*
X344574D01*
X326253Y136900D02*
X335426Y146074D01*
X201176Y136900D02*
X326253D01*
X197874Y133598D02*
X201176Y136900D01*
X347874Y133598D02*
X351176Y136900D01*
X476253D01*
X485426Y146074D01*
X494574D01*
Y136899D02*
Y146074D01*
Y136899D02*
X497874Y133598D01*
X195854Y143520D02*
X197874Y141500D01*
X195854Y143520D02*
Y147354D01*
X53728D02*
X195854D01*
X47874Y141500D02*
X53728Y147354D01*
X194574Y136899D02*
X197874Y133598D01*
X194574Y136899D02*
Y146074D01*
X185874D02*
X194574D01*
X170100Y130300D02*
X185874Y146074D01*
X51172Y130300D02*
X170100D01*
X47874Y133598D02*
X51172Y130300D01*
X182087Y235157D02*
X187602Y229642D01*
X235627D01*
X236869Y228400D01*
X247899D01*
X252953Y223346D01*
X197874Y141500D02*
X201174Y138200D01*
X305800D01*
X316500Y148900D01*
X345000D01*
X347874Y146026D01*
Y141500D02*
Y146026D01*
X497848Y149400D02*
X505748Y141500D01*
X363648Y149400D02*
X497848D01*
X355748Y141500D02*
X363648Y149400D01*
X343294Y130281D02*
X347874Y125701D01*
X343294Y130281D02*
Y144794D01*
X336706D02*
X343294D01*
X321413Y129500D02*
X336706Y144794D01*
X201673Y129500D02*
X321413D01*
X197874Y125701D02*
X201673Y129500D01*
X52448Y138200D02*
X55748Y141500D01*
X46250Y138200D02*
X52448D01*
X44574Y139876D02*
X46250Y138200D01*
X44574Y139876D02*
Y144174D01*
X49732Y149332D01*
X197916D01*
X205748Y141500D01*
X221496Y86201D02*
X263601D01*
X509018Y75006D02*
X513622Y70402D01*
X432806Y75006D02*
X509018D01*
X424900Y67100D02*
X432806Y75006D01*
X366924Y67100D02*
X424900D01*
X363622Y70402D02*
X366924Y67100D01*
X363622Y54598D02*
X366924Y57900D01*
X444000D01*
X363189Y245000D02*
X368289Y239900D01*
X378400D01*
X383500Y245000D01*
X386811D01*
X194699Y208400D02*
X199803Y213504D01*
X185000Y208400D02*
X194699D01*
X182100Y211300D02*
X185000Y208400D01*
X182100Y211300D02*
Y214679D01*
X175300Y221479D02*
X182100Y214679D01*
X175300Y221479D02*
Y225416D01*
X172353Y228362D02*
X175300Y225416D01*
X165300Y228362D02*
X172353D01*
X164370Y227432D02*
X165300Y228362D01*
X164370Y213504D02*
Y227432D01*
X170276Y235157D02*
X177071Y228362D01*
X231438D01*
X236454Y223346D01*
X241142D01*
X176181Y213504D02*
X183485Y206200D01*
X204310D01*
X211614Y213504D01*
X63622Y54598D02*
X66924Y57900D01*
X55748Y70402D02*
X59042Y67108D01*
X74800D01*
X78892Y71200D01*
X177400D01*
X513622Y141500D02*
Y152378D01*
X512048Y153952D02*
X513622Y152378D01*
X365252Y153952D02*
X512048D01*
X360472Y158732D02*
X365252Y153952D01*
X342316Y158732D02*
X360472D01*
X339398Y155814D02*
X342316Y158732D01*
X238886Y155814D02*
X339398D01*
X235236Y159464D02*
X238886Y155814D01*
X292176Y140276D02*
X296600Y144700D01*
X270749Y140276D02*
X292176D01*
X269525Y141500D02*
X270749Y140276D01*
X221496Y141500D02*
X269525D01*
X346148Y151100D02*
X355748Y141500D01*
X290700Y151100D02*
X346148D01*
X285674Y146074D02*
X290700Y151100D01*
X205748Y141500D02*
X210322Y146074D01*
X469600Y67100D02*
X480900D01*
X466600Y64100D02*
X469600Y67100D01*
X378900Y64100D02*
X466600D01*
X377800Y63000D02*
X378900Y64100D01*
X202450Y90800D02*
X205748Y94098D01*
X196200Y90800D02*
X202450D01*
X194500Y92500D02*
X196200Y90800D01*
X194500Y92500D02*
Y94256D01*
X191364Y97392D02*
X194500Y94256D01*
X187750Y97392D02*
X191364D01*
X186526Y96168D02*
X187750Y97392D01*
X93245Y96168D02*
X186526D01*
X87177Y90100D02*
X93245Y96168D01*
X59746Y90100D02*
X87177D01*
X55748Y94098D02*
X59746Y90100D01*
X55748Y109902D02*
X59646Y113800D01*
X108700D01*
X109968Y115068D01*
X182611D01*
X188636Y121093D01*
X191364D01*
X193294Y119164D01*
Y108306D02*
Y119164D01*
Y108306D02*
X195000Y106600D01*
X202446D01*
X205748Y109902D01*
X389232Y155232D02*
X391800Y157800D01*
X366532Y155232D02*
X389232D01*
X357452Y164312D02*
X366532Y155232D01*
X352932Y164312D02*
X357452D01*
X350338Y161718D02*
X352932Y164312D01*
X312615Y161718D02*
X350338D01*
X311229Y160332D02*
X312615Y161718D01*
X295500Y160332D02*
X311229D01*
X293000Y162832D02*
X295500Y160332D01*
X275200Y98800D02*
X290500D01*
X270498Y94098D02*
X275200Y98800D01*
X221496Y94098D02*
X270498D01*
X374100Y194100D02*
Y200000D01*
X369452Y204648D02*
X374100Y200000D01*
X354333Y204648D02*
X369452D01*
X353383Y205598D02*
X354333Y204648D01*
X521496Y141500D02*
Y164004D01*
X508000Y177500D02*
X521496Y164004D01*
X483500Y177500D02*
X508000D01*
X465700Y195300D02*
X483500Y177500D01*
X380800Y195300D02*
X465700D01*
X371452Y204648D02*
X380800Y195300D01*
X323851Y205598D02*
X353383D01*
X315945Y213504D02*
X323851Y205598D01*
X362221Y194200D02*
X365700D01*
X352921Y203500D02*
X362221Y194200D01*
X237096Y203500D02*
X352921D01*
X235848Y204748D02*
X237096Y203500D01*
X178870Y204748D02*
X235848D01*
X177771Y205846D02*
X178870Y204748D01*
X174429Y205846D02*
X177771D01*
X170276Y210000D02*
X174429Y205846D01*
X170276Y210000D02*
Y223346D01*
X88044Y77600D02*
X181800D01*
X84044Y81600D02*
X88044Y77600D01*
X59049Y81600D02*
X84044D01*
X55748Y78299D02*
X59049Y81600D01*
X248856Y149400D02*
X268500D01*
X247233Y151023D02*
X248856Y149400D01*
X241697Y151023D02*
X247233D01*
X239375Y148700D02*
X241697Y151023D01*
X200500Y148700D02*
X239375D01*
X197100Y152100D02*
X200500Y148700D01*
X174900Y152100D02*
X197100D01*
X87063Y86201D02*
X87332Y85932D01*
X71496Y86201D02*
X87063D01*
X533600Y20300D02*
Y97798D01*
X521496Y109902D02*
X533600Y97798D01*
X484100Y199300D02*
Y225468D01*
X480000Y229568D02*
X484100Y225468D01*
X477468Y229568D02*
X480000D01*
X475352Y227452D02*
X477468Y229568D01*
X452052Y227452D02*
X475352D01*
X451004Y228500D02*
X452052Y227452D01*
X362437Y228500D02*
X451004D01*
X357283Y223346D02*
X362437Y228500D01*
X171708Y106608D02*
X177400Y112300D01*
X66916Y106608D02*
X171708D01*
X63622Y109902D02*
X66916Y106608D01*
X347874Y78299D02*
X352475Y82900D01*
X472200D01*
X486700Y97400D01*
X492500D01*
X494574Y95326D01*
Y81600D02*
Y95326D01*
Y81600D02*
X497874Y78299D01*
X370252Y204648D02*
X374900Y200000D01*
X371940Y189740D02*
X374900Y192700D01*
X194347Y189740D02*
X371940D01*
X188208Y183600D02*
X194347Y189740D01*
X78000Y183600D02*
X188208D01*
X60322Y59200D02*
X63622Y62500D01*
X43300Y60900D02*
X45000Y59200D01*
X43300Y60900D02*
Y72680D01*
X45000Y31400D02*
X215400D01*
X46100Y18800D02*
X201000D01*
X343300Y82873D02*
X347874Y78299D01*
X343300Y82873D02*
Y95456D01*
X341364Y97392D02*
X343300Y95456D01*
X306528Y97392D02*
X341364D01*
X298636Y89500D02*
X306528Y97392D01*
X202500Y89500D02*
X298636D01*
X201900Y88900D02*
X202500Y89500D01*
X201900Y82325D02*
Y88900D01*
X197874Y78299D02*
X201900Y82325D01*
X215700Y41600D02*
X218200Y39100D01*
X98148Y41600D02*
X215700D01*
X97100Y40552D02*
X98148Y41600D01*
X90052Y40552D02*
X97100D01*
X89004Y41600D02*
X90052Y40552D01*
X45794Y41600D02*
X89004D01*
X43294Y44100D02*
X45794Y41600D01*
X347874Y86201D02*
X351173Y89500D01*
X376071D01*
X377639Y87932D01*
X394392D01*
X395021Y87303D01*
X399928D01*
X402725Y90100D01*
X472800D01*
X510322Y138172D02*
Y146074D01*
X503723Y152672D02*
X510322Y146074D01*
X356276Y155024D02*
X358628Y152672D01*
X114400Y170800D02*
X114648Y171048D01*
X223152D01*
X224800Y169400D01*
X233750Y181900D02*
X265000D01*
X232280Y180430D02*
X233750Y181900D01*
X232280Y164580D02*
Y180430D01*
X221500Y153800D02*
X232280Y164580D01*
X205748Y78299D02*
X209049Y81600D01*
X205748Y70402D02*
X209050Y67100D01*
X265400D01*
X359920Y58300D02*
X363622Y54598D01*
X346200Y58300D02*
X359920D01*
X344500Y60000D02*
X346200Y58300D01*
X344500Y60000D02*
Y71480D01*
X342285Y73695D02*
X344500Y71480D01*
X336700Y73695D02*
X342285D01*
X336700Y66300D02*
Y73695D01*
X329600Y59200D02*
X336700Y66300D01*
X218224Y59200D02*
X329600D01*
X213622Y54598D02*
X218224Y59200D01*
X133800Y28200D02*
X186500D01*
X213622Y94098D02*
X216920Y90800D01*
X273200D01*
X275900Y93500D01*
X257400Y49000D02*
X261800Y44600D01*
X231036Y49000D02*
X257400D01*
X226768Y44732D02*
X231036Y49000D01*
X94232Y44732D02*
X226768D01*
X94100Y44864D02*
X94232Y44732D01*
X371544Y159900D02*
X380900D01*
X365852Y165592D02*
X371544Y159900D01*
X351652Y165592D02*
X365852D01*
X349160Y163100D02*
X351652Y165592D01*
X305600Y163100D02*
X349160D01*
X380900Y102400D02*
X382200Y103700D01*
X478100D01*
X480700Y106300D01*
X495060Y98706D02*
X498750D01*
X501168Y96289D01*
Y93332D02*
Y96289D01*
Y93332D02*
X503700Y90800D01*
X510324D01*
X513622Y94098D01*
X182300Y59200D02*
X183800Y60700D01*
X66200Y59200D02*
X182300D01*
X64900Y57900D02*
X66200Y59200D01*
X51176Y57900D02*
X64900D01*
X47874Y54598D02*
X51176Y57900D01*
X344732Y47500D02*
X490776D01*
X497874Y54598D01*
X342532Y35952D02*
Y45868D01*
Y35952D02*
X347184Y31300D01*
X367500D01*
X372400Y26400D01*
X218866Y19002D02*
X229414D01*
X230558Y17858D01*
Y12942D02*
Y17858D01*
Y12942D02*
X235000Y8500D01*
X332650D01*
X335000Y10850D01*
Y15700D01*
X332500Y18200D02*
X335000Y15700D01*
X328900Y18200D02*
X332500D01*
X494574Y65800D02*
X497874Y62500D01*
X493750Y73726D02*
X494574Y65800D01*
X473830Y73726D02*
X493750D01*
X465904Y65800D02*
X473830Y73726D01*
X351174Y65800D02*
X465904D01*
X347874Y62500D02*
X351174Y65800D01*
X247895Y230100D02*
X252953Y235157D01*
X237757Y230100D02*
X247895D01*
X232700Y235157D02*
X237757Y230100D01*
X229331Y235157D02*
X232700D01*
X199803Y245000D02*
X204903Y250100D01*
X218325D01*
X223425Y245000D01*
X176181D02*
X181281Y250100D01*
X194703D01*
X199803Y245000D01*
X339567D02*
X344667Y250100D01*
X358089D01*
X363189Y245000D01*
X315945D02*
X321045Y250100D01*
X334467D01*
X339567Y245000D01*
X40500Y48900D02*
X42300Y50700D01*
X371496Y86201D02*
X393112Y86023D01*
X406577D01*
X518202Y46700D02*
Y82907D01*
X521496Y86201D01*
X71496D02*
X87332Y85932D01*
X133500Y85300D02*
Y85932D01*
X370000Y18500D02*
X499400D01*
X518202Y37302D01*
X224724Y35624D02*
X226268Y37168D01*
X76424Y35624D02*
X224724D01*
X75200Y34400D02*
X76424Y35624D01*
X442098Y94098D02*
X446800Y98800D01*
X371496Y94098D02*
X442098D01*
X221496Y102000D02*
X223076Y100420D01*
X259768D01*
X262500Y103152D01*
Y174800D02*
X367300D01*
X375000Y167100D01*
X71496Y102000D02*
X156444D01*
X172100Y175100D02*
X221300D01*
X232500Y186300D01*
X355800D01*
X517532Y196532D02*
X520100Y199100D01*
X481300Y196532D02*
X517532D01*
X481300D02*
Y202188D01*
X475000Y208488D02*
X481300Y202188D01*
X384733Y208488D02*
X475000D01*
X379717Y213504D02*
X384733Y208488D01*
X375000Y213504D02*
X379717D01*
X252400Y171400D02*
X362600D01*
X250100Y169100D02*
X252400Y171400D01*
X371496Y109902D02*
X372794Y111200D01*
X374732D01*
X375700Y112168D01*
X404369D01*
X405107Y112906D01*
X412251D01*
X413203Y111954D01*
X424646D01*
X425800Y110800D01*
X173400Y203100D02*
X173768Y203468D01*
X234568D01*
X238300Y199736D01*
Y193900D02*
X349100D01*
X351378Y213504D02*
X356250D01*
X358173Y211581D01*
Y210000D02*
Y211581D01*
Y210000D02*
X359685Y208488D01*
X382912D01*
X384192Y207208D01*
X388092D01*
X389600Y205700D01*
X389599Y117799D02*
X389600Y117800D01*
X449501Y117799D02*
X454000Y113300D01*
X116300Y157300D02*
X128768Y169768D01*
X212132D01*
X219400Y162500D01*
X478848Y195252D02*
X523552D01*
X478700Y195400D02*
X478848Y195252D01*
X410301Y125701D02*
X410400Y125800D01*
X371496Y125701D02*
X410301D01*
X339567Y213504D02*
X344583Y208488D01*
X355613D01*
X356893Y207208D01*
X380363D01*
X384639Y202932D01*
X471152D01*
X523552Y195252D02*
X524800Y196500D01*
X315302Y133598D02*
X315500Y133400D01*
X221496Y133598D02*
X315302D01*
X371496D02*
X434198D01*
X487400Y186800D02*
X502800D01*
X523600Y166000D01*
Y144800D02*
Y166000D01*
Y144800D02*
X524790Y143610D01*
X327756Y213504D02*
X334052Y207208D01*
X354333D01*
X355613Y205928D01*
X379005D01*
X383281Y201652D01*
X465212D01*
X474267Y192597D01*
X497003D01*
X524790Y136892D02*
Y143610D01*
X521496Y133598D02*
X524790Y136892D01*
X90100Y88700D02*
X174300D01*
X178533Y226900D02*
X182087Y223346D01*
X175682Y226900D02*
X178533D01*
X172939Y229642D02*
X175682Y226900D01*
X82942Y229642D02*
X172939D01*
X35400Y182100D02*
X82942Y229642D01*
X35400Y77500D02*
Y182100D01*
Y77500D02*
X39200Y73700D01*
X42280D01*
X45000Y59200D02*
X60322D01*
X329400Y9800D02*
X332200Y12600D01*
X236632Y9800D02*
X329400D01*
X233600Y12832D02*
X236632Y9800D01*
X233600Y12832D02*
Y30000D01*
X229532Y34068D02*
X233600Y30000D01*
X224501Y34068D02*
X229532D01*
X221837Y31405D02*
X224501Y34068D01*
X36700Y39700D02*
Y73700D01*
X42280D02*
X43300Y72680D01*
X363622Y62500D02*
X366922Y59200D01*
X380049D01*
X383249Y62400D01*
X470600D01*
X66922Y38600D02*
X204500D01*
X232152Y43452D02*
X234478Y45778D01*
X96868Y43452D02*
X232152D01*
X95248Y41832D02*
X96868Y43452D01*
X92982Y41832D02*
X95248D01*
X90414Y44400D02*
X92982Y41832D01*
X83700Y44400D02*
X90414D01*
X378100Y109400D02*
X379490Y108010D01*
X428534D01*
X429924Y109400D01*
X448500D01*
X378000Y166082D02*
Y175900D01*
X376250Y164332D02*
X378000Y166082D01*
X372232Y164332D02*
X376250D01*
X368412Y168152D02*
X372232Y164332D01*
X346352Y168668D02*
X368412Y168152D01*
X254668Y168668D02*
X346352D01*
X252332Y166332D02*
X254668Y168668D01*
X248750Y166332D02*
X252332D01*
X247300Y167782D02*
X248750Y166332D01*
X247300Y167782D02*
Y171500D01*
X250000Y174200D01*
X253368D01*
X456100Y231500D02*
X458600Y234000D01*
X495996D01*
X529448Y200548D01*
Y120848D02*
Y200548D01*
X523100Y114500D02*
X529448Y120848D01*
X518220Y114500D02*
X523100D01*
X165000Y235157D02*
X170276D01*
X159300Y240857D02*
X165000Y235157D01*
X159300Y240857D02*
Y250900D01*
X160300Y251900D01*
X520000D01*
X529448Y242452D01*
X513622Y109902D02*
X518220Y114500D01*
X226200Y193520D02*
X228614Y191106D01*
X368206D01*
X369600Y192500D01*
Y197400D01*
X185500Y197600D02*
X223400D01*
X174300Y186400D02*
X185500Y197600D01*
X363622Y117799D02*
X366921Y114500D01*
X372600D01*
X372829Y114729D01*
X392347D01*
X393085Y115466D01*
X442334D01*
X443500Y114300D01*
X228920Y188460D02*
X429560D01*
X429800Y188700D01*
X137800Y177500D02*
X140132Y179832D01*
X220293D01*
X405806Y128994D02*
X406100Y128700D01*
X366916Y128994D02*
X405806D01*
X363622Y125701D02*
X366916Y128994D01*
X513622Y133598D02*
X516916Y136892D01*
Y153684D01*
X510032Y160568D02*
X516916Y153684D01*
X387104Y160568D02*
X510032D01*
X383668Y157132D02*
X387104Y160568D01*
X370168Y157132D02*
X383668D01*
X369300Y158000D02*
X370168Y157132D01*
X236750Y162200D02*
X245200D01*
X245700Y162700D01*
X272900D01*
X270606Y144794D02*
X272300Y143100D01*
X220000Y144794D02*
X270606D01*
X216706Y141500D02*
X220000Y144794D01*
X213622Y141500D02*
X216706D01*
X176181Y200310D02*
X231800Y200700D01*
X66200Y200310D02*
X176181D01*
X267900Y69600D02*
X319400D01*
X265400Y67100D02*
X267900Y69600D01*
X352100Y36800D02*
X356252Y40952D01*
X497152D01*
X509042Y52842D01*
Y67108D01*
X505748Y70402D02*
X509042Y67108D01*
X481400Y81600D02*
X481500Y81500D01*
X359049Y81600D02*
X481400D01*
X355748Y78299D02*
X359049Y81600D01*
X317899Y32201D02*
X325300Y24800D01*
X361400D01*
X105100Y47500D02*
X223500D01*
X264500Y225100D02*
X311793D01*
X321850Y235157D01*
X56200Y9200D02*
X176651D01*
X179151Y6700D01*
X373362D01*
X377810Y11148D01*
X496448D01*
X524790Y39490D01*
Y87910D01*
X522600Y90100D02*
X524790Y87910D01*
X520000Y90100D02*
X522600D01*
X517200Y92900D02*
X520000Y90100D01*
X517200Y92900D02*
Y95200D01*
X515000Y97400D02*
X517200Y95200D01*
X509050Y97400D02*
X515000D01*
X505748Y94098D02*
X509050Y97400D01*
X359046Y90800D02*
X388200D01*
X355748Y94098D02*
X359046Y90800D01*
X218353Y21653D02*
X228000Y31300D01*
X60322Y21653D02*
X218353D01*
X353500Y160400D02*
X354600Y161500D01*
X338000Y160400D02*
X353500D01*
X335200Y157600D02*
X338000Y160400D01*
X252500Y157600D02*
X335200D01*
X250300Y159800D02*
X252500Y157600D01*
X367132Y166872D02*
X370952Y163052D01*
X518200Y162500D01*
Y132400D02*
Y162500D01*
X515400Y129600D02*
X518200Y132400D01*
X512500Y129600D02*
X515400D01*
X509100Y126200D02*
X512500Y129600D01*
X509100Y123100D02*
Y126200D01*
X507100Y121100D02*
X509100Y123100D01*
X503750Y121100D02*
X507100D01*
X502400Y119750D02*
X503750Y121100D01*
X502400Y113250D02*
Y119750D01*
X240000Y165000D02*
X254800D01*
X255700Y165900D01*
X344100D01*
X355748Y109902D02*
X359046Y113200D01*
X374201D01*
X374449Y113448D01*
X402875D01*
X403613Y114186D01*
X430522D01*
X433176Y111532D01*
X446268D01*
X447936Y113200D01*
X449554D01*
X452232Y110522D01*
X457783D01*
X462997Y115736D01*
X483279D01*
X488636Y121093D01*
X501200D01*
Y114450D02*
Y121093D01*
X150100Y162500D02*
X209500D01*
X323400Y120100D02*
X324400Y121100D01*
X341357D01*
X343294Y119164D01*
Y115606D02*
Y119164D01*
Y115606D02*
X345000Y113900D01*
X351849D01*
X355748Y117799D01*
X233100Y120100D02*
X323400D01*
X227500Y114500D02*
X233100Y120100D01*
X209047Y114500D02*
X227500D01*
X205748Y117799D02*
X209047Y114500D01*
X333661Y223346D02*
X340415Y230100D01*
X453332D01*
X454700Y228732D01*
X473420D01*
X475536Y230848D01*
X495038D01*
X528168Y197718D01*
Y127118D02*
Y197718D01*
X522177Y121127D02*
X528168Y127118D01*
X509076Y121127D02*
X522177D01*
X505748Y117799D02*
X509076Y121127D01*
X203209Y152900D02*
X205709Y150400D01*
X238515D01*
X240417Y152303D01*
X282703D01*
X282900Y152500D01*
X348100D01*
X349568Y151032D01*
X509042Y139542D02*
Y144800D01*
X502400Y135000D02*
X504900Y137500D01*
X502400Y129049D02*
X505748Y125701D01*
X502400Y129049D02*
Y135000D01*
X504900Y137500D02*
X507000D01*
X509042Y139542D01*
X502810Y151032D02*
X509042Y144800D01*
X352068Y151032D02*
X502810D01*
X349200Y153900D02*
X352068Y151032D01*
X505748Y133598D02*
X510322Y138172D01*
X52446Y136900D02*
X55748Y133598D01*
X45000Y136900D02*
X52446D01*
X43294Y138606D02*
X45000Y136900D01*
X43294Y138606D02*
Y147094D01*
X48745Y152545D01*
X171013D01*
X173376Y154908D01*
X197936Y155668D01*
X205977D01*
X207845Y153800D01*
X342500D02*
X345368Y156668D01*
X359976D02*
X363972Y152672D01*
X242374Y146074D02*
X244500Y148200D01*
X194658Y70402D02*
X197874D01*
X191364Y73695D02*
X194658Y70402D01*
X188636Y73695D02*
X191364D01*
X180768Y65828D02*
X188636Y73695D01*
X52448Y65828D02*
X180768D01*
X47874Y70402D02*
X52448Y65828D01*
X197874Y70402D02*
X202476Y65800D01*
X332100D02*
X332800Y66500D01*
X351174Y43330D02*
X491730D01*
X501168Y52768D01*
Y67108D01*
X497874Y70402D02*
X501168Y67108D01*
X51175Y82900D02*
X130732D01*
X47874Y86201D02*
X51175Y82900D01*
X211614Y213504D02*
X219090Y206028D01*
X261228D01*
X276500Y221300D01*
X315898D01*
X318898Y218300D01*
X325458D01*
X325758Y218600D01*
X331314D01*
X331584Y218330D01*
X335739D01*
X337409Y220000D01*
X339930D01*
X341600Y218330D01*
X347550D01*
X347970Y218750D01*
X352870D01*
X353289Y218330D01*
X359361D01*
X362231Y221200D01*
X364147D01*
X367017Y218330D01*
X371172D01*
X374042Y221200D01*
X375958D01*
X378828Y218330D01*
X382983D01*
X390825Y226172D01*
X479428D01*
X130732Y82900D02*
X131133Y82498D01*
X172299D02*
X177100Y87299D01*
Y93400D01*
X218200Y39100D02*
Y40500D01*
X230500D02*
X236000Y35000D01*
Y15800D02*
Y35000D01*
Y15800D02*
X240600Y11200D01*
X314100D01*
X324200Y21300D01*
X495628D01*
X510328Y36000D01*
Y65800D01*
X515222D01*
X516922Y67500D01*
Y72500D01*
X515522Y73900D02*
X516922Y72500D01*
X512600Y73900D02*
X515522D01*
X510328Y76172D02*
X512600Y73900D01*
X510328Y76172D02*
Y79472D01*
X507500Y82300D02*
X510328Y79472D01*
X504500Y82300D02*
X507500D01*
X501800Y85000D02*
X504500Y82300D01*
X501800Y85000D02*
Y87400D01*
X497874Y91326D02*
X501800Y87400D01*
X497874Y91326D02*
Y94098D01*
X397200Y90100D02*
X399100Y92000D01*
X470400D01*
X477100Y98700D01*
X493010D01*
X496072Y95900D01*
X497874Y94098D01*
X197874Y102000D02*
X200600D01*
X205200Y106600D01*
X232200D01*
X238300Y112700D01*
X244100D02*
X259400D01*
X226132Y13432D02*
X227200Y14500D01*
X56032Y13432D02*
X226132D01*
X53400Y10800D02*
X56032Y13432D01*
X53400Y7500D02*
Y10800D01*
Y7500D02*
X55900Y5000D01*
X179687Y3604D02*
X372825D01*
X379090Y9868D01*
X522458D01*
X526100Y13510D01*
Y102500D01*
X501174Y105300D02*
X523300D01*
X497874Y102000D02*
X501174Y105300D01*
X523300D02*
X526100Y102500D01*
X175798Y7493D02*
X179687Y3604D01*
X159668Y7493D02*
X175798D01*
X157175Y5000D02*
X159668Y7493D01*
X467300Y105300D02*
X469700Y107700D01*
X351174Y105300D02*
X467300D01*
X347874Y102000D02*
X351174Y105300D01*
X47874Y109902D02*
X52448Y105328D01*
X247300Y103800D02*
X257000D01*
X241100Y110000D02*
X247300Y103800D01*
X241100Y110000D02*
Y115900D01*
X236900D02*
X241100D01*
X234200Y113200D02*
X236900Y115900D01*
X201172Y113200D02*
X234200D01*
X197874Y109902D02*
X201172Y113200D01*
X347874Y109902D02*
X351176Y106600D01*
X460564D01*
X466932Y112968D01*
X173000Y4700D02*
X175376Y2324D01*
X377124D01*
X381900Y7100D01*
X173000Y2200D02*
Y4700D01*
X49950Y2200D02*
X173000D01*
X48400Y3750D02*
X49950Y2200D01*
X48400Y3750D02*
Y12600D01*
X51800Y16000D01*
X221200D01*
X221400Y16200D01*
X246600Y40000D02*
X280100D01*
X193294Y130281D02*
X197874Y125701D01*
X193294Y130281D02*
Y144794D01*
X186706D02*
X193294D01*
X170913Y129000D02*
X186706Y144794D01*
X51173Y129000D02*
X170913D01*
X47874Y125701D02*
X51173Y129000D01*
X347874Y125701D02*
X352448Y130274D01*
X402092D01*
X403342Y131524D01*
X407628D01*
X408878Y130274D01*
X472187D01*
X486706Y144794D01*
X493294D01*
Y130281D02*
Y144794D01*
Y130281D02*
X497874Y125701D01*
X347874Y141500D02*
X351174Y138200D01*
X374800D01*
X384200Y147600D01*
X495680D01*
X497874Y145406D01*
Y141500D02*
Y145406D01*
X211614Y245000D02*
X216714Y239900D01*
X226800D01*
X231900Y245000D01*
X235236D01*
X110200Y179000D02*
X113500Y182300D01*
X192500D01*
X192800Y182600D01*
X72800Y28200D02*
X133800D01*
X46100Y18800D02*
X201000Y18981D01*
X218866Y19002D01*
X42300Y50700D02*
X265880D01*
X317900D01*
X321800Y54600D01*
X87332Y85932D02*
X133500D01*
X166596D01*
X518202Y37302D02*
Y46700D01*
X355800Y186300D02*
X367300Y174800D01*
X371496Y117799D02*
X389599D01*
X449501D01*
X471152Y202932D02*
X478832Y195252D01*
X478848D01*
X497003Y192597D02*
X502800Y186800D01*
X369452Y204648D02*
X370252D01*
X371452D01*
X374900Y192700D02*
Y200000D01*
X36700Y39700D02*
X44995Y31405D01*
X45000Y31400D01*
X44995Y31405D02*
X221837D01*
X36700Y73700D02*
X39200D01*
X529448Y200548D02*
Y242452D01*
X235236Y159464D02*
Y163714D01*
Y178400D01*
X235200Y163750D02*
X235236Y163714D01*
X236750Y162200D01*
X235200Y163750D02*
Y178400D01*
X209049Y81600D02*
X246700D01*
X501200Y114450D02*
X502400Y113250D01*
X505748Y109902D01*
X349568Y151032D02*
X352068D01*
X210900Y153800D02*
X221500D01*
X342500D01*
X207845D02*
X210900D01*
X358628Y152672D02*
X363972D01*
X503723D01*
X345368Y156668D02*
X356276D01*
X359976D01*
X210322Y146074D02*
X242374D01*
X285674D01*
X131133Y82498D02*
X172299D01*
X184600D01*
X218200Y40500D02*
X230500D01*
X51200Y5000D02*
X55900D01*
X157175D01*
D22*
X386811Y245000D02*
D03*
X375000D02*
D03*
X363189D02*
D03*
X351378D02*
D03*
X339567D02*
D03*
X327756D02*
D03*
X315945D02*
D03*
X380906Y235157D02*
D03*
X369094D02*
D03*
X357283D02*
D03*
X345472D02*
D03*
X333661D02*
D03*
X321850D02*
D03*
X380906Y223346D02*
D03*
X369094D02*
D03*
X357283D02*
D03*
X345472D02*
D03*
X333661D02*
D03*
X321850D02*
D03*
X386811Y213504D02*
D03*
X375000D02*
D03*
X363189D02*
D03*
X351378D02*
D03*
X339567D02*
D03*
X327756D02*
D03*
X315945D02*
D03*
X258858Y245000D02*
D03*
X247047D02*
D03*
X235236D02*
D03*
X223425D02*
D03*
X211614D02*
D03*
X199803D02*
D03*
X187992D02*
D03*
X176181D02*
D03*
X164370D02*
D03*
X252953Y235157D02*
D03*
X241142D02*
D03*
X229331D02*
D03*
X217520D02*
D03*
X205709D02*
D03*
X193898D02*
D03*
X182087D02*
D03*
X170276D02*
D03*
X252953Y223346D02*
D03*
X241142D02*
D03*
X229331D02*
D03*
X217520D02*
D03*
X205709D02*
D03*
X193898D02*
D03*
X182087D02*
D03*
X170276D02*
D03*
X258858Y213504D02*
D03*
X247047D02*
D03*
X235236D02*
D03*
X223425D02*
D03*
X211614D02*
D03*
X199803D02*
D03*
X187992D02*
D03*
X176181D02*
D03*
D23*
X164370D02*
D03*
D24*
X415354Y270591D02*
D03*
X135827D02*
D03*
X287402D02*
D03*
D25*
X10000Y290000D02*
D03*
X540000Y10000D02*
D03*
Y290000D02*
D03*
X10000Y10000D02*
D03*
D26*
X55748Y54598D02*
D03*
Y62500D02*
D03*
Y70402D02*
D03*
Y78299D02*
D03*
Y86201D02*
D03*
Y94098D02*
D03*
Y102000D02*
D03*
Y109902D02*
D03*
Y117799D02*
D03*
Y125701D02*
D03*
Y133598D02*
D03*
X47874Y54598D02*
D03*
Y62500D02*
D03*
Y70402D02*
D03*
Y78299D02*
D03*
Y86201D02*
D03*
Y94098D02*
D03*
Y102000D02*
D03*
Y109902D02*
D03*
Y117799D02*
D03*
Y125701D02*
D03*
Y133598D02*
D03*
Y141500D02*
D03*
X40000Y54598D02*
D03*
Y62500D02*
D03*
Y70402D02*
D03*
Y78299D02*
D03*
Y86201D02*
D03*
Y94098D02*
D03*
Y102000D02*
D03*
Y109902D02*
D03*
Y117799D02*
D03*
Y125701D02*
D03*
Y133598D02*
D03*
X55748Y141500D02*
D03*
X63622D02*
D03*
Y94098D02*
D03*
Y86201D02*
D03*
Y78299D02*
D03*
Y70402D02*
D03*
Y62500D02*
D03*
Y54598D02*
D03*
Y102000D02*
D03*
Y109902D02*
D03*
Y117799D02*
D03*
Y125701D02*
D03*
Y133598D02*
D03*
X71496Y141500D02*
D03*
Y94098D02*
D03*
Y86201D02*
D03*
Y78299D02*
D03*
Y70402D02*
D03*
Y62500D02*
D03*
Y54598D02*
D03*
Y102000D02*
D03*
Y109902D02*
D03*
Y117799D02*
D03*
Y125701D02*
D03*
Y133598D02*
D03*
X490000D02*
D03*
Y125701D02*
D03*
Y117799D02*
D03*
Y109902D02*
D03*
Y102000D02*
D03*
Y94098D02*
D03*
Y86201D02*
D03*
Y78299D02*
D03*
Y70402D02*
D03*
X497874Y141500D02*
D03*
Y133598D02*
D03*
Y125701D02*
D03*
Y117799D02*
D03*
Y109902D02*
D03*
Y102000D02*
D03*
Y94098D02*
D03*
Y86201D02*
D03*
Y78299D02*
D03*
Y70402D02*
D03*
X505748Y141500D02*
D03*
Y133598D02*
D03*
Y125701D02*
D03*
Y117799D02*
D03*
Y109902D02*
D03*
Y102000D02*
D03*
Y94098D02*
D03*
Y86201D02*
D03*
Y78299D02*
D03*
Y70402D02*
D03*
Y62500D02*
D03*
X513622Y141500D02*
D03*
Y133598D02*
D03*
Y125701D02*
D03*
Y117799D02*
D03*
Y109902D02*
D03*
Y102000D02*
D03*
Y70402D02*
D03*
Y62500D02*
D03*
Y54598D02*
D03*
X521496Y141500D02*
D03*
Y133598D02*
D03*
Y125701D02*
D03*
Y117799D02*
D03*
Y109902D02*
D03*
Y102000D02*
D03*
Y94098D02*
D03*
Y86201D02*
D03*
Y54598D02*
D03*
Y62500D02*
D03*
Y70402D02*
D03*
Y78299D02*
D03*
X513622D02*
D03*
Y86201D02*
D03*
Y94098D02*
D03*
X505748Y54598D02*
D03*
X497874D02*
D03*
Y62500D02*
D03*
X490000Y54598D02*
D03*
Y62500D02*
D03*
X190000D02*
D03*
Y54598D02*
D03*
X197874Y62500D02*
D03*
Y54598D02*
D03*
X205748D02*
D03*
X213622Y94098D02*
D03*
Y86201D02*
D03*
Y78299D02*
D03*
X221496D02*
D03*
Y70402D02*
D03*
Y62500D02*
D03*
Y54598D02*
D03*
Y86201D02*
D03*
Y94098D02*
D03*
Y102000D02*
D03*
Y109902D02*
D03*
Y117799D02*
D03*
Y125701D02*
D03*
Y133598D02*
D03*
Y141500D02*
D03*
X213622Y54598D02*
D03*
Y62500D02*
D03*
Y70402D02*
D03*
Y102000D02*
D03*
Y109902D02*
D03*
Y117799D02*
D03*
Y125701D02*
D03*
Y133598D02*
D03*
Y141500D02*
D03*
X205748Y62500D02*
D03*
Y70402D02*
D03*
Y78299D02*
D03*
Y86201D02*
D03*
Y94098D02*
D03*
Y102000D02*
D03*
Y109902D02*
D03*
Y117799D02*
D03*
Y125701D02*
D03*
Y133598D02*
D03*
Y141500D02*
D03*
X197874Y70402D02*
D03*
Y78299D02*
D03*
Y86201D02*
D03*
Y94098D02*
D03*
Y102000D02*
D03*
Y109902D02*
D03*
Y117799D02*
D03*
Y125701D02*
D03*
Y133598D02*
D03*
Y141500D02*
D03*
X190000Y70402D02*
D03*
Y78299D02*
D03*
Y86201D02*
D03*
Y94098D02*
D03*
Y102000D02*
D03*
Y109902D02*
D03*
Y117799D02*
D03*
Y125701D02*
D03*
Y133598D02*
D03*
X340000D02*
D03*
Y125701D02*
D03*
Y117799D02*
D03*
Y109902D02*
D03*
Y102000D02*
D03*
Y94098D02*
D03*
Y86201D02*
D03*
Y78299D02*
D03*
Y70402D02*
D03*
X347874Y141500D02*
D03*
Y133598D02*
D03*
Y125701D02*
D03*
Y117799D02*
D03*
Y109902D02*
D03*
Y102000D02*
D03*
Y94098D02*
D03*
Y86201D02*
D03*
Y78299D02*
D03*
Y70402D02*
D03*
X355748Y141500D02*
D03*
Y133598D02*
D03*
Y125701D02*
D03*
Y117799D02*
D03*
Y109902D02*
D03*
Y102000D02*
D03*
Y94098D02*
D03*
Y86201D02*
D03*
Y78299D02*
D03*
Y70402D02*
D03*
Y62500D02*
D03*
X363622Y141500D02*
D03*
Y133598D02*
D03*
Y125701D02*
D03*
Y117799D02*
D03*
Y109902D02*
D03*
Y102000D02*
D03*
Y70402D02*
D03*
Y62500D02*
D03*
Y54598D02*
D03*
X371496Y141500D02*
D03*
Y133598D02*
D03*
Y125701D02*
D03*
Y117799D02*
D03*
Y109902D02*
D03*
Y102000D02*
D03*
Y94098D02*
D03*
Y86201D02*
D03*
Y54598D02*
D03*
Y62500D02*
D03*
Y70402D02*
D03*
Y78299D02*
D03*
X363622D02*
D03*
Y86201D02*
D03*
Y94098D02*
D03*
X355748Y54598D02*
D03*
X347874D02*
D03*
Y62500D02*
D03*
X340000Y54598D02*
D03*
Y62500D02*
D03*
D27*
X40000Y141500D02*
D03*
X490000D02*
D03*
X190000D02*
D03*
X340000D02*
D03*
D28*
X510000Y270000D02*
D03*
Y240000D02*
D03*
X480000Y270000D02*
D03*
Y210000D02*
D03*
Y30000D02*
D03*
X450000Y270000D02*
D03*
Y180000D02*
D03*
Y30000D02*
D03*
X420000D02*
D03*
X390000Y270000D02*
D03*
Y30000D02*
D03*
X360000Y270000D02*
D03*
X330000D02*
D03*
X300000D02*
D03*
Y180000D02*
D03*
X270000Y270000D02*
D03*
X240000D02*
D03*
X210000D02*
D03*
X180000D02*
D03*
X150000D02*
D03*
X120000D02*
D03*
Y240000D02*
D03*
X90000Y270000D02*
D03*
Y240000D02*
D03*
Y210000D02*
D03*
X60000Y270000D02*
D03*
Y240000D02*
D03*
Y180000D02*
D03*
X30000Y270000D02*
D03*
Y240000D02*
D03*
Y210000D02*
D03*
Y180000D02*
D03*
Y150000D02*
D03*
Y120000D02*
D03*
Y90000D02*
D03*
Y60000D02*
D03*
Y30000D02*
D03*
D29*
X66200Y200310D02*
D03*
X494000Y106000D02*
D03*
X334500Y131000D02*
D03*
X185500Y105500D02*
D03*
X202000Y58500D02*
D03*
X262000Y30000D02*
D03*
X184000Y54000D02*
D03*
X235200Y178400D02*
D03*
X225000Y185000D02*
D03*
X320000Y115000D02*
D03*
X263601Y86201D02*
D03*
X444000Y57900D02*
D03*
X177400Y71200D02*
D03*
X296600Y144700D02*
D03*
X480900Y67100D02*
D03*
X377800Y63000D02*
D03*
X391800Y157800D02*
D03*
X293000Y162832D02*
D03*
X290500Y98800D02*
D03*
X374100Y194100D02*
D03*
X365700Y194200D02*
D03*
X181800Y77600D02*
D03*
X268500Y149400D02*
D03*
X174900Y152100D02*
D03*
X166596Y85932D02*
D03*
X533600Y20300D02*
D03*
X484100Y199300D02*
D03*
X177400Y112300D02*
D03*
X78000Y183600D02*
D03*
X215400Y31400D02*
D03*
X105100Y47500D02*
D03*
X201000Y18800D02*
D03*
X43294Y44100D02*
D03*
X472800Y90100D02*
D03*
X356276Y155024D02*
D03*
X114400Y170800D02*
D03*
X224800Y169400D02*
D03*
X265000Y181900D02*
D03*
X246700Y81600D02*
D03*
X319400Y69600D02*
D03*
X186500Y28200D02*
D03*
X72800D02*
D03*
X133800D02*
D03*
X261800Y44600D02*
D03*
X94100Y44864D02*
D03*
X380900Y159900D02*
D03*
X305600Y163100D02*
D03*
X275900Y93500D02*
D03*
X380900Y102400D02*
D03*
X480700Y106300D02*
D03*
X183800Y60700D02*
D03*
X344732Y47500D02*
D03*
X372400Y26400D02*
D03*
X46100Y18800D02*
D03*
X328900Y18200D02*
D03*
X40500Y48900D02*
D03*
X321800Y54600D02*
D03*
X406577Y86023D02*
D03*
X518202Y46700D02*
D03*
X133500Y85300D02*
D03*
X370000Y18500D02*
D03*
X226268Y37168D02*
D03*
X75200Y34400D02*
D03*
X446800Y98800D02*
D03*
X262500Y103152D02*
D03*
Y174800D02*
D03*
X156444Y102000D02*
D03*
X172100Y175100D02*
D03*
X375000Y167100D02*
D03*
X520100Y199100D02*
D03*
X362600Y171400D02*
D03*
X250100Y169100D02*
D03*
X425800Y110800D02*
D03*
X173400Y203100D02*
D03*
X238300Y199736D02*
D03*
X349100Y193900D02*
D03*
X238300D02*
D03*
X389600Y205700D02*
D03*
Y117800D02*
D03*
X454000Y113300D02*
D03*
X116300Y157300D02*
D03*
X219400Y162500D02*
D03*
X524800Y196500D02*
D03*
X478700Y195400D02*
D03*
X410400Y125800D02*
D03*
X315500Y133400D02*
D03*
X434198Y133598D02*
D03*
X487400Y186800D02*
D03*
X174300Y88700D02*
D03*
X90100D02*
D03*
X332200Y12600D02*
D03*
X470600Y62400D02*
D03*
X204500Y38600D02*
D03*
X66922D02*
D03*
X234478Y45778D02*
D03*
X83700Y44400D02*
D03*
X378100Y109400D02*
D03*
X448500D02*
D03*
X378000Y175900D02*
D03*
X253368Y174200D02*
D03*
X456100Y231500D02*
D03*
X226200Y193520D02*
D03*
X369600Y197400D02*
D03*
X223400Y197600D02*
D03*
X174300Y186400D02*
D03*
X443500Y114300D02*
D03*
X429800Y188700D02*
D03*
X137800Y177500D02*
D03*
X406100Y128700D02*
D03*
X369300Y158000D02*
D03*
X272900Y162700D02*
D03*
X272300Y143100D02*
D03*
X231800Y200700D02*
D03*
X352100Y36800D02*
D03*
X481500Y81500D02*
D03*
X361400Y24800D02*
D03*
X223500Y47500D02*
D03*
X264500Y225100D02*
D03*
X56200Y9200D02*
D03*
X388200Y90800D02*
D03*
X228000Y31300D02*
D03*
X60322Y21653D02*
D03*
X354600Y161500D02*
D03*
X250300Y159800D02*
D03*
X240000Y165000D02*
D03*
X344100Y165900D02*
D03*
X209500Y162500D02*
D03*
X150100D02*
D03*
X203209Y152900D02*
D03*
X349200Y153900D02*
D03*
X210900Y153800D02*
D03*
X244500Y148200D02*
D03*
X332800Y66500D02*
D03*
X351174Y43330D02*
D03*
X184600Y82498D02*
D03*
X479428Y226172D02*
D03*
X177100Y93400D02*
D03*
X218200Y39100D02*
D03*
X397200Y90100D02*
D03*
X238300Y112700D02*
D03*
X244100D02*
D03*
X259400D02*
D03*
X227200Y14500D02*
D03*
X51200Y5000D02*
D03*
X469700Y107700D02*
D03*
X257000Y103800D02*
D03*
X466932Y112968D02*
D03*
X381900Y7100D02*
D03*
X173000Y4700D02*
D03*
X221400Y16200D02*
D03*
X246600Y40000D02*
D03*
X280100D02*
D03*
X110200Y179000D02*
D03*
X192800Y182600D02*
D03*
D30*
X269778Y54598D02*
X340000D01*
X265875Y50695D02*
X269778Y54598D01*
X190000D02*
X193904Y50695D01*
X186096D02*
X190000Y54598D01*
X40000D02*
X43904Y50695D01*
X343904D02*
X415875D01*
X340000Y54598D02*
Y62500D01*
Y54598D02*
X343904Y50695D01*
X415875D02*
X419778Y54598D01*
X490000D01*
Y62500D02*
Y70402D01*
Y54598D02*
Y62500D01*
X193904Y50695D02*
X265875D01*
X340000Y62500D02*
Y70402D01*
X190000Y62500D02*
Y70402D01*
Y54598D02*
Y62500D01*
X43904Y50695D02*
X186096D01*
X40000Y62500D02*
Y70402D01*
Y54598D02*
Y62500D01*
X186096Y74396D02*
X190000Y78299D01*
X43904Y74396D02*
X186096D01*
X40000Y78299D02*
X43904Y74396D01*
X40000Y86201D02*
Y94098D01*
Y78299D02*
Y86201D01*
X190000Y78299D02*
X193904Y74396D01*
X265000D01*
X268904Y78299D01*
X340000D01*
X190000Y86201D02*
Y94098D01*
Y78299D02*
Y86201D01*
X369396Y74396D02*
X369637Y74637D01*
X343904Y74396D02*
X369396D01*
X340000Y78299D02*
X343904Y74396D01*
X427686D02*
X431589Y78299D01*
X369637Y74637D02*
X369879Y74396D01*
X431589Y78299D02*
X490000D01*
X369879Y74396D02*
X427686D01*
X340000Y86201D02*
Y94098D01*
Y78299D02*
Y86201D01*
X490000D02*
Y94098D01*
Y78299D02*
Y86201D01*
X186096Y98096D02*
X190000Y102000D01*
X43904Y98096D02*
X186096D01*
X40000Y102000D02*
X43904Y98096D01*
X40000Y109902D02*
Y117799D01*
Y102000D02*
Y109902D01*
X190000D02*
Y117799D01*
Y102000D02*
Y109902D01*
Y102000D02*
X193904Y98096D01*
X265000D01*
X268904Y102000D01*
X340000D01*
Y109902D02*
Y117799D01*
Y102000D02*
Y109902D01*
Y102000D02*
X343904Y98096D01*
X415875D01*
X419778Y102000D01*
X490000D01*
Y109902D02*
Y117799D01*
Y102000D02*
Y109902D01*
Y133598D02*
Y141500D01*
Y125701D02*
Y133598D01*
X486096Y121797D02*
X490000Y125701D01*
X343904Y121797D02*
X486096D01*
X340000Y125701D02*
X343904Y121797D01*
X190000Y125701D02*
X193904Y121797D01*
X265875D01*
X269778Y125701D01*
X340000D01*
Y133598D02*
Y141500D01*
Y125701D02*
Y133598D01*
X190000D02*
Y141500D01*
Y125701D02*
Y133598D01*
X186096Y121797D02*
X190000Y125701D01*
X43904Y121797D02*
X186096D01*
X40000Y125701D02*
X43904Y121797D01*
X40000Y125701D02*
Y133598D01*
Y141500D01*
M02*
