M48
;Layer_Color=9474304
;FILE_FORMAT=2:4
INCH,TZ
;TYPE=PLATED
T1F00S00C0.0079
T2F00S00C0.0280
T3F00S00C0.0285
T4F00S00C0.0512
;TYPE=NON_PLATED
T5F00S00C0.1299
T6F00S00C0.1300
%
T01
X5120Y500
X5620Y920
X6032Y2165
X4610Y1880
X4329Y4410
X4050Y4890
X6692Y3860
X7520Y3440
X7280Y2820
X8370Y4440
X9410Y4486
X10510Y4750
X13380Y2820
X13350Y8530
X9010Y8870
X16660Y8593
X17430Y8870
X17710Y9340
X18460Y8250
X18180Y7760
X17740Y7120
X18380Y6070
X18400Y5400
X20200Y5850
X20450Y3860
X21820Y3910
X22627Y3717
X22800Y3130
X21540Y3140
X22140Y1620
X22720Y1450
X20100Y1880
X18650Y2820
X17300Y470
X22350Y4750
X23448Y4578
X24660Y4000
X26180Y4460
X26200Y3000
X28010Y4000
X27590Y9350
X26360Y8620
X26250Y10315
X25700Y10380
X25940Y11270
X24410
X23830
X24670Y8160
X29050Y9880
X29660Y14470
X27230Y14310
X26850Y14940
X24450Y14820
X21090Y15380
X20321Y15290
X17490Y15210
X17740Y11230
X18550Y10550
X15644Y10200
X32000Y11500
X31550Y13340
X33450Y13100
X34920Y15390
X35628Y15502
X37810Y10940
X38090Y10240
X38820Y9080
X39720Y9010
X40658Y8602
X40610Y12870
X41040Y12580
X38960Y11780
X42580Y11080
X44350Y11430
X44850Y10940
X45400Y11330
X46693Y11297
X44680Y9880
X44400Y5790
X37780Y6300
X37240Y2640
X37000Y1850
X36140Y2480
X35210Y3680
X35117Y4333
X34473Y4750
X32180Y5460
X31940Y6960
X33280Y6650
X32890Y1820
X33220Y1260
X38190Y710
X43420Y13360
X46970Y10770
X48070Y10630
X49400Y10600
X48150Y8150
X48090Y6710
X47060Y6240
X47280Y9010
X51820Y4670
X53360Y2030
X52480Y19650
X52010Y19910
X48410Y19930
X47870Y19540
X48740Y18680
X47943Y22617
X45610Y23150
X42980Y18870
X38960Y20570
X37410Y19410
X36960Y19740
X36570Y19420
X34910Y19390
X34410Y16590
X35460Y16150
X36260Y17140
X37500Y16710
X37800Y17590
X38090Y15990
X39180Y15780
X36930Y15800
X30560Y16310
X29300Y16283
X27290Y16270
X26250Y17480
X26500Y18190
X25337Y17420
X25010Y16910
X25030Y15980
X24000Y16500
X23520Y17840
X22500Y18500
X22620Y19352
X22340Y19760
X23180Y20070
X23830Y19974
Y19390
X22480Y16940
X21940Y16250
X20950
X19280Y18260
X17430Y18640
X17210Y17510
X17340Y20310
X26450Y22510
X13780Y17750
X15010Y16250
X11630Y15730
X11440Y17080
X11020Y17900
X7800Y18360
X6620Y20031
T02
X3000Y3000
Y6000
Y9000
Y12000
Y15000
X39000Y3000
X42000
X45000
X48000
Y21000
X51000Y24000
Y27000
X48000
X45000
X39000
X36000
X33000
X45000Y18000
X30000
Y27000
X27000
X24000
X21000
X18000
X15000
X12000
Y24000
X9000
Y27000
X6000
Y24000
X3000
Y27000
Y21000
Y18000
X6000
X9000Y21000
T03
X4000Y5460
X4787
X5575
X6362
X7150
Y6250
X6362
X5575
X4787
X4000
Y7040
X4787
X5575
X6362
X7150
Y7830
X6362
X5575
X4787
X4000
Y8620
X4787
X5575
X6362
X7150
Y9410
X6362
X5575
X4787
X4000
Y10200
X4787
X5575
X6362
X7150
Y10990
X6362
X5575
X4787
X4000
Y11780
X4787
X5575
X6362
X7150
Y12570
X6362
X5575
X4787
X4000
Y13360
X4787
X5575
X6362
X7150
Y14150
X6362
X5575
X4787
X4000
X19000
X19787
X20575
X21362
X22150
Y13360
X21362
X20575
X19787
X19000
Y12570
X19787
X20575
X21362
X22150
Y11780
X21362
X20575
X19787
X19000
Y10990
X19787
X20575
X21362
X22150
Y10200
X21362
X20575
X19787
X19000
Y9410
X19787
X20575
X21362
X22150
Y8620
X21362
X20575
X19787
X19000
Y7830
X19787
X20575
X21362
X22150
Y7040
X21362
X20575
X19787
X19000
Y6250
X19787
X20575
X21362
X22150
Y5460
X21362
X20575
X19787
X19000
X34000
X34787
X35575
X36362
X37150
Y6250
X36362
X35575
X34787
X34000
Y7040
X34787
X35575
X36362
X37150
Y7830
X36362
X35575
X34787
X34000
Y8620
X34787
X35575
X36362
X37150
Y9410
X36362
X35575
X34787
X34000
Y10200
X34787
X35575
X36362
X37150
Y10990
X36362
X35575
X34787
X34000
Y11780
X34787
X35575
X36362
X37150
Y12570
X36362
X35575
X34787
X34000
Y13360
X34787
X35575
X36362
X37150
Y14150
X36362
X35575
X34787
X34000
X49000
X49787
X50575
X51362
X52150
Y13360
X51362
X50575
X49787
X49000
Y12570
X49787
X50575
X51362
X52150
Y11780
X51362
X50575
X49787
X49000
Y10990
X49787
X50575
X51362
X52150
Y10200
X51362
X50575
X49787
X49000
Y9410
X49787
X50575
X51362
X52150
Y8620
X51362
X50575
X49787
X49000
Y7830
X49787
X50575
X51362
X52150
Y7040
X51362
X50575
X49787
X49000
Y6250
X49787
X50575
X51362
X52150
Y5460
X51362
X50575
X49787
X49000
T04
X31594Y21350
X32776
X33957
X35138
X36319
X37500
X38681
X38091Y22335
Y23516
X36909
X35728
X34547
X33366
X32185
Y22335
X33366
X34547
X35728
X36909
X36319Y24500
X37500
X38681
X35138
X33957
X32776
X31594
X25886
X24705
X23524
X22343
X21161
X19980
X18799
X17618
X16437
X17028Y23516
X18209
X19390
X20571
X21752
Y22335
X20571
X19390
X18209
X17028
X17618Y21350
X18799
X19980
X21161
X22343
X23524
X24705
X25886
X25295Y22335
Y23516
X24114
X22933
Y22335
X24114
X16437Y21350
T05
X41535Y27059
X28740
X13583
T06
X1000Y1000
X54000
Y29000
X1000
M30
