G04*
G04 #@! TF.GenerationSoftware,Altium Limited,Altium Designer,23.0.1 (38)*
G04*
G04 Layer_Color=65535*
%FSLAX25Y25*%
%MOIN*%
G70*
G04*
G04 #@! TF.SameCoordinates,88CA1221-A5B3-45BB-8031-3B943D831941*
G04*
G04*
G04 #@! TF.FilePolarity,Positive*
G04*
G01*
G75*
%ADD10C,0.00787*%
%ADD11C,0.00500*%
%ADD12C,0.01000*%
G36*
X132500Y264293D02*
X131793D01*
Y265000D01*
X132500D01*
Y264293D01*
D02*
G37*
G36*
X88687Y262173D02*
X87980D01*
Y262880D01*
X88687D01*
Y262173D01*
D02*
G37*
G36*
X95047Y258640D02*
X93633D01*
Y259347D01*
X95047D01*
Y258640D01*
D02*
G37*
G36*
X98580Y253693D02*
X97873D01*
Y254400D01*
X98580D01*
Y253693D01*
D02*
G37*
G36*
X66780Y234613D02*
X66073D01*
Y235320D01*
X66780D01*
Y234613D01*
D02*
G37*
G36*
X105647Y264293D02*
X104940D01*
Y261467D01*
X105647D01*
Y260053D01*
X103527D01*
Y259347D01*
X104233D01*
Y254400D01*
X104940D01*
Y248747D01*
X105647D01*
Y244507D01*
X106353D01*
Y238147D01*
X107060D01*
Y233200D01*
X107767D01*
Y229667D01*
X105647D01*
Y228960D01*
X103527D01*
Y228253D01*
X102820D01*
Y226840D01*
X103527D01*
Y224013D01*
X102820D01*
Y221893D01*
X102113D01*
Y221187D01*
X98580D01*
Y218360D01*
X97873D01*
Y215533D01*
X97167D01*
Y214120D01*
X96460D01*
Y208467D01*
X97873D01*
Y207760D01*
X99287D01*
Y207053D01*
X101407D01*
Y205640D01*
X102113D01*
Y204933D01*
X102820D01*
Y203520D01*
X103527D01*
Y202107D01*
X104233D01*
Y200693D01*
X104940D01*
Y199280D01*
X112007D01*
Y197160D01*
X112713D01*
Y196453D01*
X114127D01*
Y195747D01*
X119073D01*
Y195040D01*
X122607D01*
Y194333D01*
X125433D01*
Y193627D01*
X128967D01*
Y192920D01*
X130380D01*
Y192213D01*
X132500D01*
Y186560D01*
X129673D01*
Y187973D01*
X128260D01*
Y189387D01*
X126140D01*
Y190093D01*
X124020D01*
Y190800D01*
X119073D01*
Y191507D01*
X118367D01*
Y192213D01*
X119073D01*
Y192920D01*
X116953D01*
Y194333D01*
X113420D01*
Y195040D01*
X112713D01*
Y195747D01*
X111300D01*
Y196453D01*
X110593D01*
Y197160D01*
X111300D01*
Y197867D01*
X105647D01*
Y195040D01*
X104940D01*
Y192920D01*
X104233D01*
Y192213D01*
X103527D01*
Y190800D01*
X102820D01*
Y189387D01*
X102113D01*
Y187973D01*
X101407D01*
Y186560D01*
X100700D01*
Y185853D01*
X99993D01*
Y185147D01*
X99287D01*
Y183733D01*
X98580D01*
Y183027D01*
X97873D01*
Y182320D01*
X97167D01*
Y181613D01*
X96460D01*
Y180907D01*
X95047D01*
Y180200D01*
X94340D01*
Y179493D01*
X92927D01*
Y178787D01*
X91513D01*
Y178080D01*
X90100D01*
Y177373D01*
X85860D01*
Y178080D01*
X84447D01*
Y178787D01*
X81620D01*
Y178080D01*
X80913D01*
Y175960D01*
X80207D01*
Y173133D01*
X79500D01*
Y172427D01*
X81620D01*
Y173133D01*
X88687D01*
Y173840D01*
X97167D01*
Y173133D01*
X105647D01*
Y172427D01*
X112007D01*
Y173133D01*
X121900D01*
Y173840D01*
X132500D01*
Y170307D01*
X119780D01*
Y169600D01*
X98580D01*
Y170307D01*
X90807D01*
Y171013D01*
X89393D01*
Y170307D01*
X88687D01*
Y171013D01*
X87980D01*
Y170307D01*
X79500D01*
Y169600D01*
X78793D01*
Y159000D01*
X75967D01*
Y160413D01*
X76673D01*
Y167480D01*
X75967D01*
Y170307D01*
X75260D01*
Y171720D01*
X71020D01*
Y171013D01*
X68900D01*
Y171720D01*
X66780D01*
Y172427D01*
X62540D01*
Y173133D01*
X61127D01*
Y173840D01*
X55473D01*
Y174547D01*
X52647D01*
Y175253D01*
X51233D01*
Y176667D01*
X50527D01*
Y178787D01*
X49820D01*
Y179493D01*
X49113D01*
Y180200D01*
X45580D01*
Y179493D01*
X43460D01*
Y178787D01*
X42047D01*
Y178080D01*
X35687D01*
Y177373D01*
X33567D01*
Y176667D01*
X32153D01*
Y175960D01*
X30740D01*
Y176667D01*
X27913D01*
Y175960D01*
X26500D01*
Y265000D01*
X74553D01*
Y264293D01*
X73847D01*
Y263587D01*
X71727D01*
Y262880D01*
X71020D01*
Y262173D01*
X70313D01*
Y261467D01*
X68900D01*
Y260760D01*
X68193D01*
Y260053D01*
X67487D01*
Y259347D01*
X66073D01*
Y258640D01*
X65367D01*
Y257227D01*
X64660D01*
Y256520D01*
X63247D01*
Y255813D01*
X62540D01*
Y254400D01*
X61833D01*
Y252280D01*
X61127D01*
Y249453D01*
X60420D01*
Y247333D01*
X59713D01*
Y245920D01*
X59007D01*
Y242387D01*
X58300D01*
Y240973D01*
X59007D01*
Y232493D01*
X60420D01*
Y226840D01*
X61127D01*
Y231787D01*
X61833D01*
Y238853D01*
X63247D01*
Y239560D01*
X65367D01*
Y240267D01*
X70313D01*
Y238853D01*
X71020D01*
Y238147D01*
X68900D01*
Y237440D01*
X69607D01*
Y236733D01*
X66780D01*
Y236027D01*
X65367D01*
Y235320D01*
X64660D01*
Y234613D01*
X63953D01*
Y233907D01*
X66073D01*
Y233200D01*
X66780D01*
Y232493D01*
X66073D01*
Y231787D01*
X68193D01*
Y232493D01*
X70313D01*
Y233200D01*
X71727D01*
Y234613D01*
X73140D01*
Y235320D01*
X73847D01*
Y236027D01*
X73140D01*
Y236733D01*
X73847D01*
Y237440D01*
X73140D01*
Y238853D01*
X72433D01*
Y239560D01*
X71727D01*
Y240267D01*
X71020D01*
Y240973D01*
X72433D01*
Y240267D01*
X73140D01*
Y243093D01*
X66073D01*
Y242387D01*
X64660D01*
Y241680D01*
X63247D01*
Y240973D01*
X61833D01*
Y242387D01*
X62540D01*
Y244507D01*
X63247D01*
Y246627D01*
X63953D01*
Y248040D01*
X64660D01*
Y248747D01*
X65367D01*
Y250160D01*
X66073D01*
Y250867D01*
X66780D01*
Y252280D01*
X67487D01*
Y252987D01*
X68193D01*
Y253693D01*
X68900D01*
Y254400D01*
X74553D01*
Y255107D01*
X76673D01*
Y254400D01*
X78793D01*
Y255107D01*
X79500D01*
Y254400D01*
X80913D01*
Y255107D01*
X82327D01*
Y256520D01*
X84447D01*
Y255813D01*
X89393D01*
Y255107D01*
X90807D01*
Y254400D01*
X91513D01*
Y253693D01*
X92927D01*
Y252987D01*
X93633D01*
Y252280D01*
X94340D01*
Y250867D01*
X95047D01*
Y250160D01*
X95753D01*
Y248040D01*
X96460D01*
Y245920D01*
X97167D01*
Y244507D01*
X97873D01*
Y241680D01*
X98580D01*
Y238147D01*
X99287D01*
Y233200D01*
X99993D01*
Y230373D01*
X100700D01*
Y231787D01*
X101407D01*
Y232493D01*
X102113D01*
Y233907D01*
X102820D01*
Y236027D01*
X103527D01*
Y243093D01*
X102820D01*
Y244507D01*
X103527D01*
Y245213D01*
X102820D01*
Y245920D01*
X102113D01*
Y248747D01*
X101407D01*
Y250160D01*
X100700D01*
Y251573D01*
X99993D01*
Y252280D01*
X99287D01*
Y252987D01*
X99993D01*
Y253693D01*
X99287D01*
Y255107D01*
X97873D01*
Y256520D01*
X98580D01*
Y257227D01*
X97167D01*
Y258640D01*
X95753D01*
Y259347D01*
X95047D01*
Y260053D01*
X94340D01*
Y260760D01*
X93633D01*
Y261467D01*
X92220D01*
Y262173D01*
X91513D01*
Y262880D01*
X88687D01*
Y263587D01*
X87980D01*
Y264293D01*
X86567D01*
Y265000D01*
X105647D01*
Y264293D01*
D02*
G37*
G36*
X130380Y230373D02*
X131793D01*
Y229667D01*
X132500D01*
Y228960D01*
X131793D01*
Y229667D01*
X130380D01*
Y230373D01*
X129673D01*
Y231080D01*
X130380D01*
Y230373D01*
D02*
G37*
G36*
X108473Y219067D02*
X109180D01*
Y217653D01*
X107767D01*
Y218360D01*
Y219067D01*
Y219773D01*
X108473D01*
Y219067D01*
D02*
G37*
G36*
X112713Y190800D02*
X111300D01*
Y191507D01*
X112713D01*
Y190800D01*
D02*
G37*
G36*
X105647Y190093D02*
X104940D01*
Y190800D01*
X105647D01*
Y190093D01*
D02*
G37*
G36*
X107060Y188680D02*
X105647D01*
Y189387D01*
X107060D01*
Y188680D01*
D02*
G37*
G36*
X104233Y185853D02*
X103527D01*
Y186560D01*
X104233D01*
Y185853D01*
D02*
G37*
G36*
X99993Y182320D02*
X99287D01*
Y183027D01*
X99993D01*
Y182320D01*
D02*
G37*
G36*
X99287Y180907D02*
X98580D01*
Y181613D01*
X99287D01*
Y180907D01*
D02*
G37*
G36*
X53353Y159000D02*
X51233D01*
Y159707D01*
X53353D01*
Y159000D01*
D02*
G37*
%LPC*%
G36*
X88687Y244507D02*
X85153D01*
Y243800D01*
X83740D01*
Y243093D01*
X83033D01*
Y242387D01*
X90807D01*
Y241680D01*
X94340D01*
Y242387D01*
X92927D01*
Y243093D01*
X91513D01*
Y243800D01*
X88687D01*
Y244507D01*
D02*
G37*
G36*
X87980Y238853D02*
X85153D01*
Y236733D01*
X84447D01*
Y236027D01*
X85860D01*
Y235320D01*
X86567D01*
Y234613D01*
X87980D01*
Y233907D01*
X88687D01*
Y233200D01*
X90100D01*
Y233907D01*
Y234613D01*
X90807D01*
Y236027D01*
X91513D01*
Y236733D01*
X92220D01*
Y235320D01*
X94340D01*
Y236733D01*
X92220D01*
Y237440D01*
X89393D01*
Y238147D01*
X87980D01*
Y238853D01*
D02*
G37*
G36*
X102820Y231787D02*
X102113D01*
Y231080D01*
X102820D01*
Y231787D01*
D02*
G37*
G36*
Y230373D02*
X102113D01*
Y229667D01*
X102820D01*
Y230373D01*
D02*
G37*
G36*
X80913Y226840D02*
X79500D01*
Y226133D01*
X78793D01*
Y225427D01*
X81620D01*
Y224720D01*
X83033D01*
Y226133D01*
X80913D01*
Y226840D01*
D02*
G37*
G36*
X75260D02*
X73140D01*
Y226133D01*
X71727D01*
Y225427D01*
X72433D01*
Y224013D01*
X73140D01*
Y222600D01*
X71727D01*
Y221893D01*
X78087D01*
Y222600D01*
X78793D01*
Y224013D01*
X78087D01*
Y224720D01*
X78793D01*
Y225427D01*
X77380D01*
Y224013D01*
X76673D01*
Y225427D01*
X75967D01*
Y226133D01*
X75260D01*
Y226840D01*
D02*
G37*
G36*
X62540Y220480D02*
X61127D01*
Y219773D01*
X59713D01*
Y219067D01*
X60420D01*
Y218360D01*
X59713D01*
Y219067D01*
X59007D01*
Y218360D01*
X59713D01*
Y217653D01*
X59007D01*
Y218360D01*
X58300D01*
Y217653D01*
X57593D01*
Y216947D01*
X59007D01*
Y216240D01*
X58300D01*
Y215533D01*
X57593D01*
Y216947D01*
X56887D01*
Y216240D01*
X56180D01*
Y215533D01*
X55473D01*
Y214827D01*
X54767D01*
Y214120D01*
X54060D01*
Y212707D01*
X53353D01*
Y210587D01*
X52647D01*
Y205640D01*
X53353D01*
Y204227D01*
X54060D01*
Y202813D01*
X54767D01*
Y202107D01*
X55473D01*
Y201400D01*
X56887D01*
Y200693D01*
X57593D01*
Y199987D01*
X59007D01*
Y199280D01*
X60420D01*
Y198573D01*
X61833D01*
Y199280D01*
X62540D01*
Y201400D01*
X63247D01*
Y202813D01*
X63953D01*
Y203520D01*
X64660D01*
Y204227D01*
X66073D01*
Y206347D01*
X65367D01*
Y207053D01*
X63953D01*
Y209173D01*
X63247D01*
Y212000D01*
X63953D01*
Y213413D01*
X64660D01*
Y214120D01*
X63953D01*
Y216240D01*
X63247D01*
Y218360D01*
X62540D01*
Y220480D01*
D02*
G37*
G36*
X68900Y221187D02*
X68193D01*
Y220480D01*
X67487D01*
Y218360D01*
X69607D01*
Y217653D01*
X71020D01*
Y218360D01*
X84447D01*
Y217653D01*
X88687D01*
Y219773D01*
X87273D01*
Y219067D01*
X83033D01*
Y219773D01*
X79500D01*
Y220480D01*
X77380D01*
Y219773D01*
X76673D01*
Y220480D01*
X72433D01*
Y219773D01*
X69607D01*
Y220480D01*
X68900D01*
Y221187D01*
D02*
G37*
G36*
X79500Y216240D02*
X73847D01*
Y215533D01*
X71727D01*
Y214827D01*
X73140D01*
Y213413D01*
X80913D01*
Y214827D01*
X81620D01*
Y215533D01*
X79500D01*
Y216240D01*
D02*
G37*
G36*
X66073Y209173D02*
X65367D01*
Y208467D01*
X66073D01*
Y209173D01*
D02*
G37*
G36*
X69607Y208467D02*
X68900D01*
Y207760D01*
X69607D01*
Y208467D01*
D02*
G37*
G36*
X95753Y212000D02*
X94340D01*
Y211293D01*
X93633D01*
Y210587D01*
X90807D01*
Y209880D01*
X89393D01*
Y209173D01*
X87980D01*
Y208467D01*
X86567D01*
Y207760D01*
X84447D01*
Y207053D01*
X78793D01*
Y208467D01*
X77380D01*
Y209173D01*
X75967D01*
Y207760D01*
X77380D01*
Y207053D01*
X75260D01*
Y207760D01*
X71727D01*
Y206347D01*
X72433D01*
Y205640D01*
X73140D01*
Y204933D01*
X74553D01*
Y203520D01*
X75260D01*
Y202813D01*
X75967D01*
Y201400D01*
X75260D01*
Y200693D01*
X74553D01*
Y198573D01*
X75260D01*
Y194333D01*
X73847D01*
Y196453D01*
X73140D01*
Y197160D01*
X72433D01*
Y197867D01*
X71727D01*
Y200693D01*
X71020D01*
Y198573D01*
X70313D01*
Y201400D01*
X69607D01*
Y204227D01*
X68900D01*
Y206347D01*
X68193D01*
Y204933D01*
X67487D01*
Y204227D01*
X66780D01*
Y203520D01*
X65367D01*
Y202107D01*
X63953D01*
Y197160D01*
X64660D01*
Y192920D01*
X65367D01*
Y191507D01*
X66073D01*
Y190093D01*
X66780D01*
Y188680D01*
X67487D01*
Y187267D01*
X68193D01*
Y186560D01*
X68900D01*
Y185853D01*
X70313D01*
Y185147D01*
X72433D01*
Y184440D01*
X73140D01*
Y185147D01*
X72433D01*
Y185853D01*
X73140D01*
Y185147D01*
X74553D01*
Y187267D01*
X75260D01*
Y188680D01*
X75967D01*
Y189387D01*
X76673D01*
Y191507D01*
X78087D01*
Y190800D01*
X83033D01*
Y190093D01*
X83740D01*
Y189387D01*
X84447D01*
Y188680D01*
X86567D01*
Y189387D01*
X87273D01*
Y190093D01*
X86567D01*
Y190800D01*
X85860D01*
Y191507D01*
X86567D01*
Y190800D01*
X87273D01*
Y190093D01*
X88687D01*
Y190800D01*
X87980D01*
Y192213D01*
X87273D01*
Y192920D01*
X85860D01*
Y193627D01*
X84447D01*
Y194333D01*
X83740D01*
Y195040D01*
X81620D01*
Y195747D01*
X80913D01*
Y196453D01*
X81620D01*
Y197160D01*
X83033D01*
Y198573D01*
X83740D01*
Y201400D01*
X84447D01*
Y202107D01*
X85153D01*
Y203520D01*
X85860D01*
Y204227D01*
X87273D01*
Y204933D01*
X89393D01*
Y205640D01*
X90100D01*
Y206347D01*
X90807D01*
Y207053D01*
X91513D01*
Y207760D01*
X92220D01*
Y208467D01*
X92927D01*
Y209173D01*
X94340D01*
Y210587D01*
X95047D01*
Y211293D01*
X95753D01*
Y212000D01*
D02*
G37*
G36*
X66780Y207760D02*
X66073D01*
Y206347D01*
X66780D01*
Y207760D01*
D02*
G37*
G36*
X71020D02*
X70313D01*
Y206347D01*
X71020D01*
Y205640D01*
X71727D01*
Y206347D01*
X71020D01*
Y207760D01*
D02*
G37*
G36*
Y202813D02*
X70313D01*
Y202107D01*
X71020D01*
Y202813D01*
D02*
G37*
G36*
X97167Y207760D02*
X96460D01*
Y207053D01*
Y202107D01*
X97167D01*
Y199280D01*
X97873D01*
Y199987D01*
X98580D01*
Y200693D01*
X99287D01*
Y202107D01*
X99993D01*
Y203520D01*
X100700D01*
Y205640D01*
X99993D01*
Y206347D01*
X98580D01*
Y207053D01*
X97167D01*
Y207760D01*
D02*
G37*
G36*
X95047Y199987D02*
X94340D01*
Y199280D01*
X95047D01*
Y199987D01*
D02*
G37*
G36*
X96460D02*
X95753D01*
Y198573D01*
X95047D01*
Y197867D01*
X94340D01*
Y196453D01*
X93633D01*
Y197160D01*
X92927D01*
Y196453D01*
X93633D01*
Y195747D01*
X92220D01*
Y196453D01*
X91513D01*
Y195747D01*
X92220D01*
Y194333D01*
X93633D01*
Y195040D01*
X94340D01*
Y195747D01*
X95047D01*
Y196453D01*
X95753D01*
Y197867D01*
X96460D01*
Y198573D01*
X97167D01*
Y199280D01*
X96460D01*
Y199987D01*
D02*
G37*
G36*
X90807Y195040D02*
X90100D01*
Y194333D01*
X90807D01*
Y195040D01*
D02*
G37*
G36*
X92220Y194333D02*
X91513D01*
Y193627D01*
X92220D01*
Y194333D01*
D02*
G37*
G36*
X90100D02*
X89393D01*
Y193627D01*
X90100D01*
Y192920D01*
Y192213D01*
X90807D01*
Y192920D01*
X91513D01*
Y193627D01*
X90100D01*
Y194333D01*
D02*
G37*
G36*
X89393Y193627D02*
X88687D01*
Y192213D01*
X89393D01*
Y191507D01*
X90100D01*
Y192213D01*
X89393D01*
Y193627D01*
D02*
G37*
G36*
X61833Y197160D02*
X60420D01*
Y196453D01*
X59007D01*
Y195747D01*
X56887D01*
Y195040D01*
X53353D01*
Y194333D01*
X51233D01*
Y193627D01*
X49113D01*
Y192920D01*
X42753D01*
Y192213D01*
X42047D01*
Y191507D01*
X41340D01*
Y192213D01*
X39927D01*
Y191507D01*
X39220D01*
Y190800D01*
X37807D01*
Y190093D01*
X36393D01*
Y189387D01*
X37100D01*
Y188680D01*
X36393D01*
Y189387D01*
X34980D01*
Y188680D01*
X34273D01*
Y187973D01*
X33567D01*
Y187267D01*
X32860D01*
Y186560D01*
X32153D01*
Y185853D01*
X31447D01*
Y185147D01*
X30740D01*
Y184440D01*
X30033D01*
Y183027D01*
X29327D01*
Y182320D01*
X28620D01*
Y180907D01*
X27913D01*
Y179493D01*
X30740D01*
Y178787D01*
X32860D01*
Y179493D01*
X34273D01*
Y180200D01*
X35687D01*
Y180907D01*
X42047D01*
Y181613D01*
X43460D01*
Y182320D01*
X46993D01*
Y183027D01*
X47700D01*
Y182320D01*
X49113D01*
Y181613D01*
X49820D01*
Y180200D01*
X50527D01*
Y178787D01*
X51233D01*
Y178080D01*
X51940D01*
Y177373D01*
X56180D01*
Y176667D01*
X61127D01*
Y175960D01*
X62540D01*
Y181613D01*
X61833D01*
Y187267D01*
X61127D01*
Y195747D01*
X61833D01*
Y197160D01*
D02*
G37*
G36*
X89393Y191507D02*
X88687D01*
Y190800D01*
X89393D01*
Y191507D01*
D02*
G37*
G36*
X78087Y190800D02*
X77380D01*
Y190093D01*
X78087D01*
Y190800D01*
D02*
G37*
G36*
X83033Y190093D02*
X82327D01*
Y189387D01*
X83033D01*
Y190093D01*
D02*
G37*
G36*
X27913Y179493D02*
X27207D01*
Y178787D01*
X27913D01*
Y179493D01*
D02*
G37*
G36*
X68193Y185147D02*
X67487D01*
Y184440D01*
X66073D01*
Y183027D01*
X65367D01*
Y181613D01*
X64660D01*
Y180200D01*
X63953D01*
Y174547D01*
X64660D01*
Y173840D01*
X71020D01*
Y174547D01*
X75260D01*
Y176667D01*
X75967D01*
Y178080D01*
X75260D01*
Y180200D01*
X74553D01*
Y179493D01*
X68900D01*
Y180200D01*
X68193D01*
Y185147D01*
D02*
G37*
%LPD*%
G36*
X87980Y236027D02*
X86567D01*
Y236733D01*
X87980D01*
Y236027D01*
D02*
G37*
G36*
X77380Y196453D02*
X75967D01*
Y197160D01*
X77380D01*
Y196453D01*
D02*
G37*
G36*
X83740Y190800D02*
X85860D01*
Y189387D01*
X84447D01*
Y190093D01*
X83740D01*
Y190800D01*
X83033D01*
Y191507D01*
X83740D01*
Y190800D01*
D02*
G37*
G36*
X99287Y204933D02*
X98580D01*
Y205640D01*
X99287D01*
Y204933D01*
D02*
G37*
G36*
X97873Y204227D02*
X97167D01*
Y204933D01*
X97873D01*
Y204227D01*
D02*
G37*
G36*
X99287Y203520D02*
X98580D01*
Y204227D01*
X99287D01*
Y203520D01*
D02*
G37*
D10*
X40394Y147760D02*
G03*
X40394Y147760I-394J0D01*
G01*
X490394D02*
G03*
X490394Y147760I-394J0D01*
G01*
X190394D02*
G03*
X190394Y147760I-394J0D01*
G01*
X340394D02*
G03*
X340394Y147760I-394J0D01*
G01*
D11*
X86063Y50898D02*
Y145201D01*
X15984Y50898D02*
Y145201D01*
X86063D01*
X15984Y50898D02*
X86063D01*
X465984D02*
X536063D01*
X465984Y145201D02*
X536063D01*
X465984Y50898D02*
Y145201D01*
X536063Y50898D02*
Y145201D01*
X236063Y50898D02*
Y145201D01*
X165984Y50898D02*
Y145201D01*
X236063D01*
X165984Y50898D02*
X236063D01*
X315984D02*
X386063D01*
X315984Y145201D02*
X386063D01*
X315984Y50898D02*
Y145201D01*
X386063Y50898D02*
Y145201D01*
D12*
X19899Y157498D02*
X17899D01*
X18899D01*
Y152500D01*
X17899Y151500D01*
X16900D01*
X15900Y152500D01*
X21898Y151500D02*
X23897D01*
X22898D01*
Y157498D01*
X21898Y156498D01*
X469899Y157498D02*
X467899D01*
X468899D01*
Y152500D01*
X467899Y151500D01*
X466900D01*
X465900Y152500D01*
X474897Y151500D02*
Y157498D01*
X471898Y154499D01*
X475897D01*
X169899Y157498D02*
X167899D01*
X168899D01*
Y152500D01*
X167899Y151500D01*
X166900D01*
X165900Y152500D01*
X175897Y151500D02*
X171898D01*
X175897Y155499D01*
Y156498D01*
X174897Y157498D01*
X172898D01*
X171898Y156498D01*
X319899Y157498D02*
X317899D01*
X318899D01*
Y152500D01*
X317899Y151500D01*
X316900D01*
X315900Y152500D01*
X321898Y156498D02*
X322898Y157498D01*
X324897D01*
X325897Y156498D01*
Y155499D01*
X324897Y154499D01*
X323897D01*
X324897D01*
X325897Y153499D01*
Y152500D01*
X324897Y151500D01*
X322898D01*
X321898Y152500D01*
M02*
