M48
;Layer_Color=9474304
;FILE_FORMAT=2:4
METRIC,LZ
;TYPE=PLATED
T1F00S00C0.7112
T2F00S00C0.7250
T3F00S00C1.1000
T4F00S00C1.2700
T5F00S00C2.5400
%
T01
X0381Y21717
X11176Y18415
X14478Y22987
X28575Y19939
X27051Y17526
X39116Y37211
X49149Y56896
X59817Y5842
X67437Y59817
X654344Y62242
X66294Y69215
X60706Y67564
X5715Y65532
X56769Y74168
X6731Y50165
X67564Y45085
X6477Y43815
T02
X70359Y50802
Y52802
Y54802
Y56802
Y58802
Y60802
Y62802
Y64802
Y66802
Y68802
Y70802
Y72802
X72359
X74359
Y70802
X72359
Y68802
X74359
Y66802
X72359
Y64802
X74359
Y62802
X72359
Y60802
X74359
Y58802
X72359
Y56802
Y54802
X74359
Y56802
X76359
Y54802
X78359
Y56802
Y58802
X76359
Y60802
Y62802
X78359
Y60802
Y64802
X76359
Y66802
X78359
Y68802
X76359
Y70802
X78359
Y72802
X76359
Y52802
Y50802
X78359
Y52802
X74359
X72359
Y50802
X74359
T03
X15113Y74295
X17653
X20193
X27559
X30099
X32639
T04
X21209Y24257
X23749
X26289
X28829
X31369
X49657Y2413
X52197
X54737
X57277
X59817
Y5207
X57277
X54737
X52197
X49657
X31369Y52197
X28829
X26289
X23749
X21209
T05
X82359Y55802
Y67802
M30
