M48
;Layer_Color=9474304
;FILE_FORMAT=2:4
METRIC,LZ
;TYPE=PLATED
T1F00S00C0.7000
T2F00S00C0.7112
T3F00S00C0.7250
T4F00S00C0.8500
T5F00S00C0.9000
T6F00S00C1.1000
T7F00S00C2.5400
%
T01
X43942Y05593
X46482
X49022
X57658Y23876
X60198
X62738
T02
X1Y1
X2
X3
X35Y2
X3Y3
X19177Y30734
X19939Y38735
X17907
X1Y3
X15Y2
X45
X5Y3
X6
X7
X75Y2
X7Y1
X6
X4
Y3
X55Y4
X65
X6Y5
X5
X55Y6
X65
X63754Y63246
X67818Y6477
X64135Y70485
X60198
X5Y7
X4
X45Y6
X25
X15
X2Y7
X3
Y5
X32512Y44831
X35Y4
X25
X15
X1Y5
Y7
T03
X70359Y50802
Y52802
Y54802
Y56802
Y58802
Y60802
Y62802
Y64802
Y66802
Y68802
Y70802
Y72802
X72359
X74359
Y70802
X72359
Y68802
X74359
Y66802
X72359
Y64802
X74359
Y62802
X72359
Y60802
X74359
Y58802
X72359
Y56802
Y54802
X74359
Y56802
X76359
Y54802
X78359
Y56802
Y58802
X76359
Y60802
Y62802
X78359
Y60802
Y64802
X76359
Y66802
X78359
Y68802
X76359
Y70802
X78359
Y72802
X76359
Y52802
Y50802
X78359
Y52802
X74359
X72359
Y50802
X74359
T04
X58166Y16637
X65786
X65532Y31242
X57912
T05
X42799Y1397
Y1651
Y1905
Y2159
X50419
Y1905
Y1651
Y1397
T06
X11303Y80899
X13843
X16383
X26924
X29464
X32004
T07
X82359Y55802
Y67802
M30
