G04*
G04 #@! TF.GenerationSoftware,Altium Limited,Altium Designer,22.10.1 (41)*
G04*
G04 Layer_Color=32768*
%FSLAX44Y44*%
%MOMM*%
G71*
G04*
G04 #@! TF.SameCoordinates,81D378FE-F234-499D-9AEC-098A348C0B8A*
G04*
G04*
G04 #@! TF.FilePolarity,Positive*
G04*
G01*
G75*
%ADD10C,0.2000*%
D10*
X100769Y122009D02*
Y156091D01*
X119851D01*
Y122009D02*
Y156091D01*
X100769Y122009D02*
X119851D01*
X136329Y122009D02*
Y156091D01*
X155411D01*
Y122009D02*
Y156091D01*
X136329Y122009D02*
X155411D01*
X375121Y86449D02*
Y120531D01*
X356039Y86449D02*
X375121D01*
X356039D02*
Y120531D01*
X375121D01*
X48200Y266669D02*
X82282D01*
X48200D02*
Y285751D01*
X82282D01*
Y266669D02*
Y285751D01*
X314900Y297181D02*
X348983D01*
Y278099D02*
Y297181D01*
X314900Y278099D02*
X348983D01*
X314900D02*
Y297181D01*
X408109Y89640D02*
X427191D01*
Y123722D01*
X408109D02*
X427191D01*
X408109Y89640D02*
Y123722D01*
X733229Y224879D02*
X752311D01*
Y258961D01*
X733229D02*
X752311D01*
X733229Y224879D02*
Y258961D01*
X665919Y259612D02*
X685001D01*
X665919Y225530D02*
Y259612D01*
Y225530D02*
X685001D01*
Y259612D01*
M02*
