G04*
G04 #@! TF.GenerationSoftware,Altium Limited,Altium Designer,22.10.1 (41)*
G04*
G04 Layer_Color=8388736*
%FSLAX44Y44*%
%MOMM*%
G71*
G04*
G04 #@! TF.SameCoordinates,F3709F11-2DF0-4870-B383-C089ADBA4EFA*
G04*
G04*
G04 #@! TF.FilePolarity,Negative*
G04*
G01*
G75*
%ADD18R,1.4082X1.0065*%
%ADD21R,1.0065X1.4082*%
%ADD23R,1.2000X1.2000*%
%ADD24R,1.3500X1.0000*%
%ADD25R,0.9500X1.3500*%
%ADD26R,0.7000X0.2500*%
%ADD28R,0.2500X1.1000*%
%ADD29R,1.3500X0.9500*%
%ADD30R,0.2500X1.5000*%
%ADD32R,4.9500X2.9450*%
%ADD33R,1.4032X1.6532*%
%ADD34R,1.7032X1.7532*%
%ADD35R,1.2032X1.5532*%
%ADD36R,0.3302X0.3302*%
%ADD37R,0.3302X0.3302*%
%ADD38C,1.6270*%
%ADD39C,2.9782*%
%ADD40R,1.4000X1.4000*%
%ADD41C,1.4000*%
%ADD42C,1.4032*%
%ADD43R,1.9032X1.9032*%
%ADD44C,1.9032*%
%ADD45C,1.4732*%
G36*
X683171Y314619D02*
Y299619D01*
X685671D01*
Y304619D01*
X688173D01*
Y299619D01*
X690673D01*
Y309619D01*
X689672Y310619D01*
Y314619D01*
X683171D01*
D02*
G37*
G36*
X683170Y318869D02*
X700920D01*
Y321369D01*
X695920D01*
Y323870D01*
X700920D01*
Y326370D01*
X683170D01*
Y318869D01*
D02*
G37*
G36*
X683171Y330619D02*
Y345619D01*
X685671D01*
Y340619D01*
X688173D01*
Y345619D01*
X690673D01*
Y335619D01*
X689672Y334619D01*
Y330619D01*
X683171D01*
D02*
G37*
G36*
X515791Y893700D02*
Y878700D01*
X518291D01*
Y883700D01*
X520793D01*
Y878700D01*
X523293D01*
Y888700D01*
X522293Y889700D01*
Y893700D01*
X515791D01*
D02*
G37*
G36*
X275570Y909200D02*
Y894200D01*
X273070D01*
Y899200D01*
X270569D01*
Y894200D01*
X268069D01*
Y904200D01*
X269069Y905200D01*
Y909200D01*
X275570D01*
D02*
G37*
G36*
X275571Y920951D02*
X257821D01*
Y918451D01*
X262821D01*
Y915949D01*
X257821D01*
Y913449D01*
X275571D01*
Y920951D01*
D02*
G37*
G36*
X275570Y925200D02*
Y940200D01*
X273070D01*
Y935200D01*
X270569D01*
Y940200D01*
X268069D01*
Y930200D01*
X269069Y929200D01*
Y925200D01*
X275570D01*
D02*
G37*
G36*
X515790Y897949D02*
X533540D01*
Y900449D01*
X528540D01*
Y902951D01*
X533540D01*
Y905451D01*
X515790D01*
Y897949D01*
D02*
G37*
G36*
X515791Y909700D02*
Y924700D01*
X518291D01*
Y919700D01*
X520793D01*
Y924700D01*
X523293D01*
Y914700D01*
X522293Y913700D01*
Y909700D01*
X515791D01*
D02*
G37*
D18*
X558800Y938497D02*
D03*
X223520Y876300D02*
D03*
Y895317D02*
D03*
X1079500Y947420D02*
D03*
Y966437D02*
D03*
Y871220D02*
D03*
Y890238D02*
D03*
X599440Y333977D02*
D03*
X424180Y913097D02*
D03*
X358140Y908083D02*
D03*
Y927100D02*
D03*
X599440Y314960D02*
D03*
X726440Y361331D02*
D03*
Y380349D02*
D03*
X558800Y919480D02*
D03*
X424180Y894080D02*
D03*
D21*
X668020Y378460D02*
D03*
X687037D02*
D03*
X268003Y855980D02*
D03*
X520700Y972820D02*
D03*
X501683D02*
D03*
X287020Y855980D02*
D03*
D23*
X284480Y317500D02*
D03*
Y338500D02*
D03*
X-157480Y314620D02*
D03*
Y335620D02*
D03*
X73660Y312080D02*
D03*
Y333080D02*
D03*
D24*
X370840Y317660D02*
D03*
Y337660D02*
D03*
D25*
X480300Y843280D02*
D03*
X495300D02*
D03*
X292100Y962660D02*
D03*
X332500Y871220D02*
D03*
X462400Y944880D02*
D03*
X625080Y360680D02*
D03*
X647700Y269240D02*
D03*
X632700D02*
D03*
X640080Y360680D02*
D03*
X678180Y274320D02*
D03*
X693180D02*
D03*
X477400Y944880D02*
D03*
X523480Y843280D02*
D03*
X538480D02*
D03*
X317500Y871220D02*
D03*
X307100Y962660D02*
D03*
X256780Y980440D02*
D03*
X271780D02*
D03*
D26*
X300322Y914699D02*
D03*
X491040Y904201D02*
D03*
X658420Y325120D02*
D03*
X697420Y313616D02*
D03*
Y331622D02*
D03*
X658420Y335122D02*
D03*
Y330121D02*
D03*
Y320119D02*
D03*
Y315117D02*
D03*
Y310116D02*
D03*
X530040Y892697D02*
D03*
Y910703D02*
D03*
X491040Y914203D02*
D03*
Y909202D02*
D03*
Y899200D02*
D03*
Y894198D02*
D03*
Y889197D02*
D03*
X261321Y926203D02*
D03*
Y908197D02*
D03*
X300322Y904697D02*
D03*
Y909698D02*
D03*
Y919700D02*
D03*
Y924702D02*
D03*
Y929703D02*
D03*
D28*
X287323Y934700D02*
D03*
X292324D02*
D03*
X504039Y884200D02*
D03*
X499037D02*
D03*
X671419Y305119D02*
D03*
X666417D02*
D03*
X671419Y340119D02*
D03*
X666417D02*
D03*
X504039Y919200D02*
D03*
X499037D02*
D03*
X287323Y899700D02*
D03*
X292324D02*
D03*
D29*
X327660Y911980D02*
D03*
X459740Y911860D02*
D03*
X629920Y330080D02*
D03*
Y315080D02*
D03*
X726440Y314960D02*
D03*
Y299960D02*
D03*
X231140Y924560D02*
D03*
Y939560D02*
D03*
X459740Y896860D02*
D03*
X558800Y899040D02*
D03*
Y884040D02*
D03*
X327660Y926980D02*
D03*
D30*
X677920Y307120D02*
D03*
Y338119D02*
D03*
X510540Y886200D02*
D03*
Y917200D02*
D03*
X280821Y932700D02*
D03*
Y901700D02*
D03*
D32*
X886460Y260885D02*
D03*
Y369035D02*
D03*
X678180Y847625D02*
D03*
Y955775D02*
D03*
X132080Y966670D02*
D03*
Y858520D02*
D03*
D33*
X106680Y281940D02*
D03*
X89680D02*
D03*
D34*
X894080Y932180D02*
D03*
X875580D02*
D03*
X961940Y934720D02*
D03*
X980440D02*
D03*
D35*
X-104020Y281940D02*
D03*
X-89020D02*
D03*
D36*
X274320Y901700D02*
D03*
X269319Y897700D02*
D03*
Y936700D02*
D03*
X274320Y932700D02*
D03*
X517041Y917200D02*
D03*
X522043Y921200D02*
D03*
Y882200D02*
D03*
X517041Y886200D02*
D03*
X684421Y338119D02*
D03*
X689423Y342119D02*
D03*
Y303120D02*
D03*
X684421Y307120D02*
D03*
D37*
X693420Y320119D02*
D03*
Y325120D02*
D03*
X526040Y899200D02*
D03*
Y904201D02*
D03*
X265321Y919700D02*
D03*
Y914699D02*
D03*
D38*
X942340Y576100D02*
D03*
X967740D02*
D03*
X364486Y581027D02*
D03*
X339086D02*
D03*
X-16514Y701827D02*
D03*
Y501827D02*
D03*
Y681827D02*
D03*
Y521827D02*
D03*
Y541028D02*
D03*
Y561828D02*
D03*
Y581027D02*
D03*
Y601828D02*
D03*
Y621027D02*
D03*
Y641827D02*
D03*
Y661027D02*
D03*
X339086Y521827D02*
D03*
Y541028D02*
D03*
Y561828D02*
D03*
Y601828D02*
D03*
Y621027D02*
D03*
Y641827D02*
D03*
Y661027D02*
D03*
Y681827D02*
D03*
X364486Y521827D02*
D03*
Y541028D02*
D03*
Y561828D02*
D03*
Y601828D02*
D03*
Y621027D02*
D03*
Y641827D02*
D03*
Y661027D02*
D03*
Y681827D02*
D03*
X967740Y676900D02*
D03*
Y656100D02*
D03*
Y636900D02*
D03*
Y556900D02*
D03*
Y536100D02*
D03*
Y516900D02*
D03*
X942340Y676900D02*
D03*
Y656100D02*
D03*
Y636900D02*
D03*
Y616100D02*
D03*
Y556900D02*
D03*
Y536100D02*
D03*
Y516900D02*
D03*
X586740Y636900D02*
D03*
Y596900D02*
D03*
Y576100D02*
D03*
Y556900D02*
D03*
Y536100D02*
D03*
Y516900D02*
D03*
Y676900D02*
D03*
Y496900D02*
D03*
Y696900D02*
D03*
Y616100D02*
D03*
Y656100D02*
D03*
X942340Y596900D02*
D03*
X967740D02*
D03*
Y616100D02*
D03*
D39*
X1270000Y922020D02*
D03*
Y839520D02*
D03*
X737820Y53340D02*
D03*
X655320D02*
D03*
X1118820Y50800D02*
D03*
X1036320D02*
D03*
X214580Y1102360D02*
D03*
X132080D02*
D03*
X753060Y1094740D02*
D03*
X670560D02*
D03*
X128320Y43180D02*
D03*
X210820D02*
D03*
X335280Y45720D02*
D03*
X417780D02*
D03*
X340360Y1102360D02*
D03*
X422860D02*
D03*
X1275080Y636220D02*
D03*
Y553720D02*
D03*
X-167640Y897840D02*
D03*
Y815340D02*
D03*
X-162560Y635000D02*
D03*
Y552500D02*
D03*
X1065480Y1089660D02*
D03*
X982980D02*
D03*
X1270000Y331420D02*
D03*
Y248920D02*
D03*
D40*
X436710Y749700D02*
D03*
X1056470Y696360D02*
D03*
D41*
X436710Y774700D02*
D03*
Y799700D02*
D03*
X1056470Y721360D02*
D03*
Y746360D02*
D03*
D42*
X1089260Y510540D02*
D03*
X1039260D02*
D03*
X1087120Y416560D02*
D03*
X1037120D02*
D03*
X1069340Y579120D02*
D03*
Y629120D02*
D03*
X432200Y657860D02*
D03*
X482200D02*
D03*
X480060Y477520D02*
D03*
X430060D02*
D03*
X482200Y568960D02*
D03*
X432200D02*
D03*
D43*
X957580Y845820D02*
D03*
D44*
X932180D02*
D03*
X906780D02*
D03*
D45*
X614680Y716280D02*
D03*
X360680Y393700D02*
D03*
X495300Y391160D02*
D03*
X243840Y855980D02*
D03*
X594360Y937260D02*
D03*
X419100Y708660D02*
D03*
X492760Y642620D02*
D03*
X397889Y885796D02*
D03*
X383540Y619760D02*
D03*
X535940Y942340D02*
D03*
X497840Y944880D02*
D03*
X485140Y863600D02*
D03*
X469900Y878840D02*
D03*
X459740Y866140D02*
D03*
X464820Y848360D02*
D03*
X482600Y972820D02*
D03*
X245856Y879364D02*
D03*
X292100Y878840D02*
D03*
X530860Y863600D02*
D03*
X398780Y911860D02*
D03*
X350520Y871220D02*
D03*
X297180Y833120D02*
D03*
X259080Y830580D02*
D03*
X703580Y358140D02*
D03*
X673100D02*
D03*
X269240Y960120D02*
D03*
X327660Y952500D02*
D03*
X137160Y1153160D02*
D03*
X1183640Y904240D02*
D03*
X284480Y355600D02*
D03*
X449580Y447040D02*
D03*
X548640Y419100D02*
D03*
X995680Y617220D02*
D03*
X1000760Y449580D02*
D03*
X1117600Y500380D02*
D03*
X911860Y530860D02*
D03*
X703580Y500380D02*
D03*
X637540Y988060D02*
D03*
X482600Y195580D02*
D03*
X601726Y269240D02*
D03*
X599440Y350520D02*
D03*
X689610Y394970D02*
D03*
X647700Y386080D02*
D03*
X322580Y632460D02*
D03*
X408940Y337820D02*
D03*
X254000Y487680D02*
D03*
X-88900Y878840D02*
D03*
X584200Y459740D02*
D03*
X558800Y27940D02*
D03*
X1176020Y289560D02*
D03*
Y535940D02*
D03*
X778101Y341221D02*
D03*
X721360Y279400D02*
D03*
X751840Y307340D02*
D03*
X835660Y259080D02*
D03*
X637540Y292100D02*
D03*
M02*
