G04*
G04 #@! TF.GenerationSoftware,Altium Limited,Altium Designer,22.10.1 (41)*
G04*
G04 Layer_Color=0*
%FSLAX44Y44*%
%MOMM*%
G71*
G04*
G04 #@! TF.SameCoordinates,F3709F11-2DF0-4870-B383-C089ADBA4EFA*
G04*
G04*
G04 #@! TF.FilePolarity,Positive*
G04*
G01*
G75*
%ADD12C,0.1000*%
D12*
X441960Y769700D02*
Y779700D01*
X436960Y774700D02*
X446960D01*
X218520Y885809D02*
X228520D01*
X223520Y880808D02*
Y890808D01*
X677528Y373460D02*
Y383460D01*
X672529Y378460D02*
X682529D01*
X1061720Y716360D02*
Y726360D01*
X1056720Y721360D02*
X1066720D01*
X279480Y328000D02*
X289480D01*
X284480Y323000D02*
Y333000D01*
X365840Y327660D02*
X375840D01*
X370840Y322660D02*
Y332660D01*
X-162480Y325120D02*
X-152480D01*
X-157480Y320120D02*
Y330120D01*
X68660Y322580D02*
X78660D01*
X73660Y317580D02*
Y327580D01*
X1074500Y956928D02*
X1084500D01*
X1079500Y951928D02*
Y961928D01*
X482800Y843280D02*
X492800D01*
X487800Y838280D02*
Y848280D01*
X1079500Y875729D02*
Y885729D01*
X1074500Y880729D02*
X1084500D01*
X353140Y917591D02*
X363140D01*
X358140Y912591D02*
Y922591D01*
X640200Y264240D02*
Y274240D01*
X635200Y269240D02*
X645200D01*
X599440Y319468D02*
Y329468D01*
X594440Y324469D02*
X604440D01*
X627580Y360680D02*
X637580D01*
X632580Y355680D02*
Y365680D01*
X629920Y317580D02*
Y327580D01*
X624920Y322580D02*
X634920D01*
X726440Y365840D02*
Y375840D01*
X721440Y370840D02*
X731440D01*
X726440Y302460D02*
Y312460D01*
X721440Y307460D02*
X731440D01*
X886460Y309960D02*
Y319960D01*
X881460Y314960D02*
X891460D01*
X680680Y274320D02*
X690680D01*
X685680Y269320D02*
Y279320D01*
X231140Y927060D02*
Y937060D01*
X226140Y932060D02*
X236140D01*
X464900Y944880D02*
X474900D01*
X469900Y939880D02*
Y949880D01*
X506191Y972820D02*
X516191D01*
X511191Y967820D02*
Y977820D01*
X459740Y899360D02*
Y909360D01*
X454740Y904360D02*
X464740D01*
X525980Y843280D02*
X535980D01*
X530980Y838280D02*
Y848280D01*
X558800Y923988D02*
Y933988D01*
X553800Y928989D02*
X563800D01*
X678180Y896700D02*
Y906700D01*
X673180Y901700D02*
X683180D01*
X558800Y886540D02*
Y896540D01*
X553800Y891540D02*
X563800D01*
X320000Y871220D02*
X330000D01*
X325000Y866220D02*
Y876220D01*
X327660Y914480D02*
Y924480D01*
X322660Y919480D02*
X332660D01*
X272512Y855980D02*
X282512D01*
X277512Y850980D02*
Y860980D01*
X294600Y962660D02*
X304600D01*
X299600Y957660D02*
Y967660D01*
X132080Y907595D02*
Y917595D01*
X127080Y912595D02*
X137080D01*
X264280Y975440D02*
Y985440D01*
X259280Y980440D02*
X269280D01*
X419180Y903589D02*
X429180D01*
X424180Y898588D02*
Y908588D01*
M02*
