G04*
G04 #@! TF.GenerationSoftware,Altium Limited,Altium Designer,22.10.1 (41)*
G04*
G04 Layer_Color=65535*
%FSLAX44Y44*%
%MOMM*%
G71*
G04*
G04 #@! TF.SameCoordinates,81D378FE-F234-499D-9AEC-098A348C0B8A*
G04*
G04*
G04 #@! TF.FilePolarity,Positive*
G04*
G01*
G75*
%ADD10C,0.2000*%
%ADD11C,0.5080*%
%ADD12C,0.1270*%
%ADD13C,0.1524*%
%ADD14C,0.2540*%
D10*
X161630Y65390D02*
G03*
X161630Y65390I-1000J0D01*
G01*
X204900Y73010D02*
G03*
X204900Y73010I-1000J0D01*
G01*
X179540Y260970D02*
G03*
X179540Y260970I-1000J0D01*
G01*
X439890Y262240D02*
G03*
X439890Y262240I-1000J0D01*
G01*
X104060Y138324D02*
Y139776D01*
X116560Y138324D02*
Y139776D01*
X139620Y138324D02*
Y139776D01*
X152120Y138324D02*
Y139776D01*
X371830Y102764D02*
Y104216D01*
X359330Y102764D02*
Y104216D01*
X64515Y269960D02*
X65967D01*
X64515Y282460D02*
X65967D01*
X200910Y286140D02*
Y289140D01*
X331215Y293890D02*
X332668D01*
X331215Y281390D02*
X332668D01*
X423900Y105955D02*
Y107407D01*
X411400Y105955D02*
Y107407D01*
X545080Y113420D02*
Y116420D01*
X749020Y241194D02*
Y242646D01*
X736520Y241194D02*
Y242646D01*
X669210Y241845D02*
Y243297D01*
X681710Y241845D02*
Y243297D01*
D11*
X288999Y414640D02*
G03*
X288999Y414640I-3810J0D01*
G01*
X630121Y409560D02*
G03*
X630121Y409560I-3810J0D01*
G01*
X660601Y103490D02*
G03*
X660601Y103490I-3810J0D01*
G01*
X915490Y404099D02*
G03*
X915490Y404099I-3810J0D01*
G01*
D12*
X153280Y41190D02*
Y89490D01*
X57980Y41190D02*
X153280D01*
X57980D02*
Y89490D01*
X153280D01*
X211250Y48910D02*
Y97210D01*
X306550D01*
Y48910D02*
Y97210D01*
X211250Y48910D02*
X306550D01*
X128240Y196520D02*
Y236520D01*
X178740Y196520D02*
Y236520D01*
X439090Y197790D02*
Y237790D01*
X388590Y197790D02*
Y237790D01*
D13*
X151331Y456423D02*
X267409D01*
X151331Y372857D02*
Y456423D01*
Y372857D02*
X267409D01*
Y456423D01*
X644091Y367777D02*
X760169D01*
Y451343D01*
X644091D02*
X760169D01*
X644091Y367777D02*
Y451343D01*
X674571Y61707D02*
X790649D01*
Y145273D01*
X674571D02*
X790649D01*
X674571Y61707D02*
Y145273D01*
X869897Y270241D02*
Y386319D01*
Y270241D02*
X953463D01*
Y386319D01*
X869897D02*
X953463D01*
X268552Y183627D02*
Y239253D01*
X228928Y183627D02*
Y239253D01*
X242390Y257414D02*
X255090D01*
X247470D02*
X248740Y265034D01*
X246200Y257414D02*
X248740Y265034D01*
X244930Y257414D02*
X248740Y265034D01*
X243660Y257414D02*
X248740Y265034D01*
X242390Y257414D02*
X248740Y265034D01*
X250010Y257414D01*
X248740Y265034D02*
X251280Y257414D01*
X248740Y265034D02*
X252550Y257414D01*
X248740Y265034D02*
X253820Y257414D01*
X248740Y265034D02*
X255090Y257414D01*
X242390Y265034D02*
X255090D01*
X248740Y254874D02*
Y267574D01*
X520520Y270558D02*
Y283258D01*
X514170Y280718D02*
X526870D01*
X520520D02*
X526870Y273099D01*
X520520Y280718D02*
X525600Y273099D01*
X520520Y280718D02*
X524330Y273099D01*
X520520Y280718D02*
X523060Y273099D01*
X520520Y280718D02*
X521790Y273099D01*
X514170D02*
X520520Y280718D01*
X515440Y273099D02*
X520520Y280718D01*
X516710Y273099D02*
X520520Y280718D01*
X517980Y273099D02*
X520520Y280718D01*
X519250Y273099D02*
X520520Y280718D01*
X514170Y273099D02*
X526870D01*
X500708Y199312D02*
Y254937D01*
X540332Y199312D02*
Y254937D01*
D14*
X66264Y18403D02*
Y33638D01*
X73882D01*
X76421Y31098D01*
Y26020D01*
X73882Y23481D01*
X66264D01*
X71343D02*
X76421Y18403D01*
X89117D02*
Y33638D01*
X81499Y26020D01*
X91656D01*
X133675Y509885D02*
X128596D01*
X131136D01*
Y497189D01*
X128596Y494650D01*
X126057D01*
X123518Y497189D01*
X146371Y494650D02*
Y509885D01*
X138753Y502268D01*
X148910D01*
X235644Y23482D02*
Y38718D01*
X243262D01*
X245801Y36178D01*
Y31100D01*
X243262Y28561D01*
X235644D01*
X240723D02*
X245801Y23482D01*
X250879Y26022D02*
X253419Y23482D01*
X258497D01*
X261036Y26022D01*
Y36178D01*
X258497Y38718D01*
X253419D01*
X250879Y36178D01*
Y33639D01*
X253419Y31100D01*
X261036D01*
X626435Y504805D02*
X621356D01*
X623896D01*
Y492109D01*
X621356Y489570D01*
X618817D01*
X616278Y492109D01*
X631513Y502266D02*
X634052Y504805D01*
X639131D01*
X641670Y502266D01*
Y499727D01*
X639131Y497188D01*
X636591D01*
X639131D01*
X641670Y494648D01*
Y492109D01*
X639131Y489570D01*
X634052D01*
X631513Y492109D01*
X656915Y198481D02*
X651836D01*
X654376D01*
Y185785D01*
X651836Y183246D01*
X649297D01*
X646758Y185785D01*
X661993Y183246D02*
X667071D01*
X664532D01*
Y198481D01*
X661993Y195942D01*
X851987Y439781D02*
X846908D01*
X849448D01*
Y427085D01*
X846908Y424546D01*
X844369D01*
X841830Y427085D01*
X867222Y424546D02*
X857065D01*
X867222Y434703D01*
Y437242D01*
X864683Y439781D01*
X859604D01*
X857065Y437242D01*
X101423Y158721D02*
Y173956D01*
X109041D01*
X111580Y171417D01*
Y166338D01*
X109041Y163799D01*
X101423D01*
X106502D02*
X111580Y158721D01*
X116658D02*
X121737D01*
X119198D01*
Y173956D01*
X116658Y171417D01*
X135714Y158103D02*
Y173338D01*
X143332D01*
X145871Y170798D01*
Y165720D01*
X143332Y163181D01*
X135714D01*
X140793D02*
X145871Y158103D01*
X150949Y170798D02*
X153488Y173338D01*
X158567D01*
X161106Y170798D01*
Y168259D01*
X158567Y165720D01*
X156028D01*
X158567D01*
X161106Y163181D01*
Y160642D01*
X158567Y158103D01*
X153488D01*
X150949Y160642D01*
X62051Y144128D02*
X59512Y146668D01*
X54433D01*
X51894Y144128D01*
Y133972D01*
X54433Y131433D01*
X59512D01*
X62051Y133972D01*
X74747Y131433D02*
Y146668D01*
X67129Y139050D01*
X77286D01*
X191591Y112758D02*
X189052Y115297D01*
X183973D01*
X181434Y112758D01*
Y102602D01*
X183973Y100063D01*
X189052D01*
X191591Y102602D01*
X206826Y115297D02*
X196669D01*
Y107680D01*
X201748Y110219D01*
X204287D01*
X206826Y107680D01*
Y102602D01*
X204287Y100063D01*
X199208D01*
X196669Y102602D01*
X111582Y252697D02*
Y240001D01*
X114121Y237462D01*
X119199D01*
X121738Y240001D01*
Y252697D01*
X317323Y126708D02*
X314784Y129248D01*
X309706D01*
X307167Y126708D01*
Y116552D01*
X309706Y114013D01*
X314784D01*
X317323Y116552D01*
X332558Y129248D02*
X322402D01*
Y121630D01*
X327480Y124169D01*
X330019D01*
X332558Y121630D01*
Y116552D01*
X330019Y114013D01*
X324941D01*
X322402Y116552D01*
X337637Y126708D02*
X340176Y129248D01*
X345254D01*
X347794Y126708D01*
Y116552D01*
X345254Y114013D01*
X340176D01*
X337637Y116552D01*
Y126708D01*
X349074Y62853D02*
Y78088D01*
X356692D01*
X359231Y75548D01*
Y70470D01*
X356692Y67931D01*
X349074D01*
X354152D02*
X359231Y62853D01*
X374466Y78088D02*
X369388Y75548D01*
X364309Y70470D01*
Y65392D01*
X366848Y62853D01*
X371927D01*
X374466Y65392D01*
Y67931D01*
X371927Y70470D01*
X364309D01*
X34114Y291453D02*
Y306688D01*
X41732D01*
X44271Y304148D01*
Y299070D01*
X41732Y296531D01*
X34114D01*
X39193D02*
X44271Y291453D01*
X59506D02*
X49349D01*
X59506Y301609D01*
Y304148D01*
X56967Y306688D01*
X51888D01*
X49349Y304148D01*
X64590Y248648D02*
X62051Y251187D01*
X56972D01*
X54433Y248648D01*
Y238492D01*
X56972Y235952D01*
X62051D01*
X64590Y238492D01*
X69668Y235952D02*
X74747D01*
X72208D01*
Y251187D01*
X69668Y248648D01*
X116151Y320658D02*
X113612Y323198D01*
X108533D01*
X105994Y320658D01*
Y310502D01*
X108533Y307962D01*
X113612D01*
X116151Y310502D01*
X131386Y307962D02*
X121229D01*
X131386Y318119D01*
Y320658D01*
X128847Y323198D01*
X123768D01*
X121229Y320658D01*
X247472Y168258D02*
X244933Y170798D01*
X239855D01*
X237316Y168258D01*
Y158102D01*
X239855Y155562D01*
X244933D01*
X247472Y158102D01*
X252551Y155562D02*
Y170798D01*
X260168D01*
X262708Y168258D01*
Y163180D01*
X260168Y160641D01*
X252551D01*
X257629D02*
X262708Y155562D01*
X267786D02*
X272864D01*
X270325D01*
Y170798D01*
X267786Y168258D01*
X333831Y252078D02*
X331292Y254618D01*
X326213D01*
X323674Y252078D01*
Y241922D01*
X326213Y239382D01*
X331292D01*
X333831Y241922D01*
X349066Y254618D02*
X343988Y252078D01*
X338909Y247000D01*
Y241922D01*
X341448Y239382D01*
X346527D01*
X349066Y241922D01*
Y244461D01*
X346527Y247000D01*
X338909D01*
X208183Y310498D02*
Y295263D01*
X218340D01*
X223418D02*
X228496D01*
X225957D01*
Y310498D01*
X223418Y307958D01*
X320516Y302882D02*
Y318118D01*
X328133D01*
X330673Y315578D01*
Y310500D01*
X328133Y307961D01*
X320516D01*
X325594D02*
X330673Y302882D01*
X335751Y318118D02*
X345908D01*
Y315578D01*
X335751Y305422D01*
Y302882D01*
X440513Y198118D02*
Y185422D01*
X443052Y182883D01*
X448131D01*
X450670Y185422D01*
Y198118D01*
X455748Y182883D02*
X460827D01*
X458288D01*
Y198118D01*
X455748Y195579D01*
X406224Y70472D02*
Y85708D01*
X413842D01*
X416381Y83168D01*
Y78090D01*
X413842Y75551D01*
X406224D01*
X411302D02*
X416381Y70472D01*
X421459Y83168D02*
X423998Y85708D01*
X429077D01*
X431616Y83168D01*
Y80629D01*
X429077Y78090D01*
X431616Y75551D01*
Y73012D01*
X429077Y70472D01*
X423998D01*
X421459Y73012D01*
Y75551D01*
X423998Y78090D01*
X421459Y80629D01*
Y83168D01*
X423998Y78090D02*
X429077D01*
X459561Y122538D02*
X457022Y125078D01*
X451943D01*
X449404Y122538D01*
Y112382D01*
X451943Y109843D01*
X457022D01*
X459561Y112382D01*
X464639Y122538D02*
X467178Y125078D01*
X472257D01*
X474796Y122538D01*
Y119999D01*
X472257Y117460D01*
X474796Y114921D01*
Y112382D01*
X472257Y109843D01*
X467178D01*
X464639Y112382D01*
Y114921D01*
X467178Y117460D01*
X464639Y119999D01*
Y122538D01*
X467178Y117460D02*
X472257D01*
X510865Y304400D02*
X508326Y306939D01*
X503247D01*
X500708Y304400D01*
Y294243D01*
X503247Y291704D01*
X508326D01*
X510865Y294243D01*
X515943Y291704D02*
Y306939D01*
X523561D01*
X526100Y304400D01*
Y299322D01*
X523561Y296782D01*
X515943D01*
X521021D02*
X526100Y291704D01*
X541335D02*
X531178D01*
X541335Y301861D01*
Y304400D01*
X538796Y306939D01*
X533717D01*
X531178Y304400D01*
X507823Y156828D02*
X505284Y159368D01*
X500205D01*
X497666Y156828D01*
Y146672D01*
X500205Y144132D01*
X505284D01*
X507823Y146672D01*
X512901Y144132D02*
X517980D01*
X515440D01*
Y159368D01*
X512901Y156828D01*
X525597D02*
X528136Y159368D01*
X533215D01*
X535754Y156828D01*
Y146672D01*
X533215Y144132D01*
X528136D01*
X525597Y146672D01*
Y156828D01*
X516714Y123808D02*
Y108573D01*
X526871D01*
X531949Y121268D02*
X534488Y123808D01*
X539567D01*
X542106Y121268D01*
Y118729D01*
X537028Y113651D01*
Y111112D02*
Y108573D01*
X734642Y267574D02*
Y282809D01*
X742260D01*
X744799Y280270D01*
Y275192D01*
X742260Y272652D01*
X734642D01*
X739720D02*
X744799Y267574D01*
X749877D02*
X754955D01*
X752416D01*
Y282809D01*
X749877Y280270D01*
X762573Y267574D02*
X767651D01*
X765112D01*
Y282809D01*
X762573Y280270D01*
X402407Y351390D02*
X399868Y353929D01*
X394789D01*
X392250Y351390D01*
Y341233D01*
X394789Y338694D01*
X399868D01*
X402407Y341233D01*
X407485Y351390D02*
X410024Y353929D01*
X415103D01*
X417642Y351390D01*
Y348851D01*
X415103Y346312D01*
X412563D01*
X415103D01*
X417642Y343772D01*
Y341233D01*
X415103Y338694D01*
X410024D01*
X407485Y341233D01*
X451051Y328278D02*
X448512Y330818D01*
X443433D01*
X440894Y328278D01*
Y318122D01*
X443433Y315583D01*
X448512D01*
X451051Y318122D01*
X456129Y330818D02*
X466286D01*
Y328278D01*
X456129Y318122D01*
Y315583D01*
X667332Y268336D02*
Y283571D01*
X674950D01*
X677489Y281032D01*
Y275954D01*
X674950Y273414D01*
X667332D01*
X672410D02*
X677489Y268336D01*
X682567D02*
X687645D01*
X685106D01*
Y283571D01*
X682567Y281032D01*
X695263D02*
X697802Y283571D01*
X702880D01*
X705420Y281032D01*
Y270875D01*
X702880Y268336D01*
X697802D01*
X695263Y270875D01*
Y281032D01*
M02*
