G04*
G04 #@! TF.GenerationSoftware,Altium Limited,Altium Designer,22.10.1 (41)*
G04*
G04 Layer_Color=32768*
%FSLAX44Y44*%
%MOMM*%
G71*
G04*
G04 #@! TF.SameCoordinates,069A48A3-1EBA-4DE3-B07F-BDB1E3B34996*
G04*
G04*
G04 #@! TF.FilePolarity,Positive*
G04*
G01*
G75*
%ADD10C,0.2000*%
%ADD63C,0.0500*%
D10*
X412210Y724200D02*
Y825200D01*
X471710D01*
Y724200D02*
Y825200D01*
X412210Y724200D02*
X471710D01*
X213979Y902850D02*
X233061D01*
X213979Y868767D02*
Y902850D01*
Y868767D02*
X233061D01*
Y902850D01*
X660487Y368919D02*
Y388001D01*
Y368919D02*
X694570D01*
Y388001D01*
X660487D02*
X694570D01*
X1031970Y670860D02*
Y771860D01*
X1091470D01*
Y670860D02*
Y771860D01*
X1031970Y670860D02*
X1091470D01*
X276730Y345500D02*
X292230D01*
X276730Y310500D02*
Y345500D01*
Y310500D02*
X292230D01*
Y345500D01*
X362840Y343660D02*
X378840D01*
X362840Y311660D02*
Y343660D01*
Y311660D02*
X378840D01*
Y343660D01*
X-165230Y342620D02*
X-149730D01*
X-165230Y307620D02*
Y342620D01*
Y307620D02*
X-149730D01*
Y342620D01*
X65910Y340080D02*
X81410D01*
X65910Y305080D02*
Y340080D01*
Y305080D02*
X81410D01*
Y340080D01*
X1069959Y973970D02*
X1089041D01*
X1069959Y939887D02*
Y973970D01*
Y939887D02*
X1089041D01*
Y973970D01*
X473800Y851780D02*
X501800D01*
Y834780D02*
Y851780D01*
X473800Y834780D02*
X501800D01*
X473800D02*
Y851780D01*
X1069959Y863688D02*
Y897770D01*
X1089041D01*
Y863688D02*
Y897770D01*
X1069959Y863688D02*
X1089041D01*
X348599Y934633D02*
X367681D01*
X348599Y900550D02*
Y934633D01*
Y900550D02*
X367681D01*
Y934633D01*
X626200Y260740D02*
Y277740D01*
Y260740D02*
X654200D01*
Y277740D01*
X626200D02*
X654200D01*
X589899Y307427D02*
Y341510D01*
X608981D01*
Y307427D02*
Y341510D01*
X589899Y307427D02*
X608981D01*
X618580Y352180D02*
X646580D01*
X618580D02*
Y369180D01*
X646580D01*
Y352180D02*
Y369180D01*
X621420Y308580D02*
Y336580D01*
X638420D01*
Y308580D02*
Y336580D01*
X621420Y308580D02*
X638420D01*
X716899Y353799D02*
Y387881D01*
X735981D01*
Y353799D02*
Y387881D01*
X716899Y353799D02*
X735981D01*
X734940Y293460D02*
Y321460D01*
X717940Y293460D02*
X734940D01*
X717940D02*
Y321460D01*
X734940D01*
X820960Y245160D02*
Y384760D01*
X951960D01*
Y245160D02*
Y384760D01*
X820960Y245160D02*
X951960D01*
X671680Y282820D02*
X699680D01*
Y265820D02*
Y282820D01*
X671680Y265820D02*
X699680D01*
X671680D02*
Y282820D01*
X222640Y918060D02*
Y946060D01*
X239640D01*
Y918060D02*
Y946060D01*
X222640Y918060D02*
X239640D01*
X455900Y936380D02*
X483900D01*
X455900D02*
Y953380D01*
X483900D01*
Y936380D02*
Y953380D01*
X494150Y982361D02*
X528232D01*
Y963279D02*
Y982361D01*
X494150Y963279D02*
X528232D01*
X494150D02*
Y982361D01*
X451240Y890360D02*
Y918360D01*
X468240D01*
Y890360D02*
Y918360D01*
X451240Y890360D02*
X468240D01*
X516980Y851780D02*
X544980D01*
Y834780D02*
Y851780D01*
X516980Y834780D02*
X544980D01*
X516980D02*
Y851780D01*
X549259Y911947D02*
Y946030D01*
X568341D01*
Y911947D02*
Y946030D01*
X549259Y911947D02*
X568341D01*
X612680Y831900D02*
Y971500D01*
X743680D01*
Y831900D02*
Y971500D01*
X612680Y831900D02*
X743680D01*
X567300Y877540D02*
Y905540D01*
X550300Y877540D02*
X567300D01*
X550300D02*
Y905540D01*
X567300D01*
X311000Y879720D02*
X339000D01*
Y862720D02*
Y879720D01*
X311000Y862720D02*
X339000D01*
X311000D02*
Y879720D01*
X336160Y905480D02*
Y933480D01*
X319160Y905480D02*
X336160D01*
X319160D02*
Y933480D01*
X336160D01*
X260470Y846439D02*
X294553D01*
X260470D02*
Y865521D01*
X294553D01*
Y846439D02*
Y865521D01*
X285600Y954160D02*
X313600D01*
X285600D02*
Y971160D01*
X313600D01*
Y954160D02*
Y971160D01*
X197580Y842795D02*
Y982395D01*
X66580Y842795D02*
X197580D01*
X66580D02*
Y982395D01*
X197580D01*
X278280Y971940D02*
Y988940D01*
X250280D02*
X278280D01*
X250280Y971940D02*
Y988940D01*
Y971940D02*
X278280D01*
X414639Y886547D02*
X433721D01*
Y920630D01*
X414639D02*
X433721D01*
X414639Y886547D02*
Y920630D01*
D63*
X1288000Y1143000D02*
G03*
X1288000Y1143000I-18000J0D01*
G01*
X-159800Y7620D02*
G03*
X-159800Y7620I-18000J0D01*
G01*
X1288000D02*
G03*
X1288000Y7620I-18000J0D01*
G01*
X-159800Y1143000D02*
G03*
X-159800Y1143000I-18000J0D01*
G01*
M02*
