G04*
G04 #@! TF.GenerationSoftware,Altium Limited,Altium Designer,22.10.1 (41)*
G04*
G04 Layer_Color=8388736*
%FSLAX44Y44*%
%MOMM*%
G71*
G04*
G04 #@! TF.SameCoordinates,81D378FE-F234-499D-9AEC-098A348C0B8A*
G04*
G04*
G04 #@! TF.FilePolarity,Positive*
G04*
G01*
G75*
%ADD10C,0.2000*%
D10*
X104060Y129050D02*
Y149050D01*
X116560D01*
Y129050D02*
Y149050D01*
X104060Y129050D02*
X116560D01*
X139620D02*
Y149050D01*
X152120D01*
Y129050D02*
Y149050D01*
X139620Y129050D02*
X152120D01*
X371830Y93490D02*
Y113490D01*
X359330Y93490D02*
X371830D01*
X359330D02*
Y113490D01*
X371830D01*
X55241Y269960D02*
X75241D01*
X55241D02*
Y282460D01*
X75241D01*
Y269960D02*
Y282460D01*
X321942Y293890D02*
X341942D01*
Y281390D02*
Y293890D01*
X321942Y281390D02*
X341942D01*
X321942D02*
Y293890D01*
X411400Y96681D02*
X423900D01*
Y116681D01*
X411400D02*
X423900D01*
X411400Y96681D02*
Y116681D01*
X736520Y231920D02*
X749020D01*
Y251920D01*
X736520D02*
X749020D01*
X736520Y231920D02*
Y251920D01*
X669210Y252571D02*
X681710D01*
X669210Y232571D02*
Y252571D01*
Y232571D02*
X681710D01*
Y252571D01*
M02*
