G04*
G04 #@! TF.GenerationSoftware,Altium Limited,Altium Designer,22.10.1 (41)*
G04*
G04 Layer_Color=8421504*
%FSLAX44Y44*%
%MOMM*%
G71*
G04*
G04 #@! TF.SameCoordinates,F3709F11-2DF0-4870-B383-C089ADBA4EFA*
G04*
G04*
G04 #@! TF.FilePolarity,Positive*
G04*
G01*
G75*
%ADD18R,1.4082X1.0065*%
%ADD19R,1.2000X1.4500*%
%ADD20R,1.5000X1.5500*%
%ADD21R,1.0065X1.4082*%
%ADD22R,1.0000X1.3500*%
%ADD23R,1.2000X1.2000*%
%ADD24R,1.3500X1.0000*%
%ADD25R,0.9500X1.3500*%
%ADD26R,0.7000X0.2500*%
%ADD27R,0.1270X0.1270*%
%ADD28R,0.2500X1.1000*%
%ADD29R,1.3500X0.9500*%
%ADD30R,0.2500X1.5000*%
%ADD31R,0.1270X0.1270*%
%ADD32R,4.9500X2.9450*%
G36*
X683171Y314619D02*
Y299619D01*
X685671D01*
Y304619D01*
X688173D01*
Y299619D01*
X690673D01*
Y309619D01*
X689672Y310619D01*
Y314619D01*
X683171D01*
D02*
G37*
G36*
X683170Y318869D02*
X700920D01*
Y321369D01*
X695920D01*
Y323870D01*
X700920D01*
Y326370D01*
X683170D01*
Y318869D01*
D02*
G37*
G36*
X683171Y330619D02*
Y345619D01*
X685671D01*
Y340619D01*
X688173D01*
Y345619D01*
X690673D01*
Y335619D01*
X689672Y334619D01*
Y330619D01*
X683171D01*
D02*
G37*
G36*
X515791Y893700D02*
Y878700D01*
X518291D01*
Y883700D01*
X520793D01*
Y878700D01*
X523293D01*
Y888700D01*
X522293Y889700D01*
Y893700D01*
X515791D01*
D02*
G37*
G36*
X275570Y909200D02*
Y894200D01*
X273070D01*
Y899200D01*
X270569D01*
Y894200D01*
X268069D01*
Y904200D01*
X269069Y905200D01*
Y909200D01*
X275570D01*
D02*
G37*
G36*
X275571Y920951D02*
X257821D01*
Y918451D01*
X262821D01*
Y915949D01*
X257821D01*
Y913449D01*
X275571D01*
Y920951D01*
D02*
G37*
G36*
X275570Y925200D02*
Y940200D01*
X273070D01*
Y935200D01*
X270569D01*
Y940200D01*
X268069D01*
Y930200D01*
X269069Y929200D01*
Y925200D01*
X275570D01*
D02*
G37*
G36*
X515790Y897949D02*
X533540D01*
Y900449D01*
X528540D01*
Y902951D01*
X533540D01*
Y905451D01*
X515790D01*
Y897949D01*
D02*
G37*
G36*
X515791Y909700D02*
Y924700D01*
X518291D01*
Y919700D01*
X520793D01*
Y924700D01*
X523293D01*
Y914700D01*
X522293Y913700D01*
Y909700D01*
X515791D01*
D02*
G37*
D18*
X558800Y938497D02*
D03*
X223520Y876300D02*
D03*
Y895317D02*
D03*
X1079500Y947420D02*
D03*
Y966437D02*
D03*
Y871220D02*
D03*
Y890238D02*
D03*
X599440Y333977D02*
D03*
X424180Y913097D02*
D03*
X358140Y908083D02*
D03*
Y927100D02*
D03*
X599440Y314960D02*
D03*
X726440Y361331D02*
D03*
Y380349D02*
D03*
X558800Y919480D02*
D03*
X424180Y894080D02*
D03*
D19*
X106680Y281940D02*
D03*
X89680D02*
D03*
D20*
X894080Y932180D02*
D03*
X875580D02*
D03*
X961940Y934720D02*
D03*
X980440D02*
D03*
D21*
X668020Y378460D02*
D03*
X687037D02*
D03*
X268003Y855980D02*
D03*
X520700Y972820D02*
D03*
X501683D02*
D03*
X287020Y855980D02*
D03*
D22*
X-104020Y281940D02*
D03*
X-89020D02*
D03*
D23*
X284480Y317500D02*
D03*
Y338500D02*
D03*
X-157480Y314620D02*
D03*
Y335620D02*
D03*
X73660Y312080D02*
D03*
Y333080D02*
D03*
D24*
X370840Y317660D02*
D03*
Y337660D02*
D03*
D25*
X480300Y843280D02*
D03*
X495300D02*
D03*
X292100Y962660D02*
D03*
X332500Y871220D02*
D03*
X462400Y944880D02*
D03*
X625080Y360680D02*
D03*
X647700Y269240D02*
D03*
X632700D02*
D03*
X640080Y360680D02*
D03*
X678180Y274320D02*
D03*
X693180D02*
D03*
X477400Y944880D02*
D03*
X523480Y843280D02*
D03*
X538480D02*
D03*
X317500Y871220D02*
D03*
X307100Y962660D02*
D03*
X256780Y980440D02*
D03*
X271780D02*
D03*
D26*
X300322Y914699D02*
D03*
X491040Y904201D02*
D03*
X658420Y325120D02*
D03*
X697420Y313616D02*
D03*
Y331622D02*
D03*
X658420Y335122D02*
D03*
Y330121D02*
D03*
Y320119D02*
D03*
Y315117D02*
D03*
Y310116D02*
D03*
X530040Y892697D02*
D03*
Y910703D02*
D03*
X491040Y914203D02*
D03*
Y909202D02*
D03*
Y899200D02*
D03*
Y894198D02*
D03*
Y889197D02*
D03*
X261321Y926203D02*
D03*
Y908197D02*
D03*
X300322Y904697D02*
D03*
Y909698D02*
D03*
Y919700D02*
D03*
Y924702D02*
D03*
Y929703D02*
D03*
D27*
X274320Y901700D02*
D03*
X269319Y897700D02*
D03*
Y936700D02*
D03*
X274320Y932700D02*
D03*
X517041Y917200D02*
D03*
X522043Y921200D02*
D03*
Y882200D02*
D03*
X517041Y886200D02*
D03*
X684421Y338119D02*
D03*
X689423Y342119D02*
D03*
Y303120D02*
D03*
X684421Y307120D02*
D03*
D28*
X287323Y934700D02*
D03*
X292324D02*
D03*
X504039Y884200D02*
D03*
X499037D02*
D03*
X671419Y305119D02*
D03*
X666417D02*
D03*
X671419Y340119D02*
D03*
X666417D02*
D03*
X504039Y919200D02*
D03*
X499037D02*
D03*
X287323Y899700D02*
D03*
X292324D02*
D03*
D29*
X327660Y911980D02*
D03*
X459740Y911860D02*
D03*
X629920Y330080D02*
D03*
Y315080D02*
D03*
X726440Y314960D02*
D03*
Y299960D02*
D03*
X231140Y924560D02*
D03*
Y939560D02*
D03*
X459740Y896860D02*
D03*
X558800Y899040D02*
D03*
Y884040D02*
D03*
X327660Y926980D02*
D03*
D30*
X677920Y307120D02*
D03*
Y338119D02*
D03*
X510540Y886200D02*
D03*
Y917200D02*
D03*
X280821Y932700D02*
D03*
Y901700D02*
D03*
D31*
X693420Y320119D02*
D03*
Y325120D02*
D03*
X526040Y899200D02*
D03*
Y904201D02*
D03*
X265321Y919700D02*
D03*
Y914699D02*
D03*
D32*
X886460Y260885D02*
D03*
Y369035D02*
D03*
X678180Y847625D02*
D03*
Y955775D02*
D03*
X132080Y966670D02*
D03*
Y858520D02*
D03*
M02*
