G04*
G04 #@! TF.GenerationSoftware,Altium Limited,Altium Designer,22.10.1 (41)*
G04*
G04 Layer_Physical_Order=1*
G04 Layer_Color=255*
%FSLAX44Y44*%
%MOMM*%
G71*
G04*
G04 #@! TF.SameCoordinates,81D378FE-F234-499D-9AEC-098A348C0B8A*
G04*
G04*
G04 #@! TF.FilePolarity,Positive*
G04*
G01*
G75*
%ADD11C,0.5080*%
%ADD15R,1.4082X1.0065*%
%ADD16R,1.4500X1.3000*%
G04:AMPARAMS|DCode=17|XSize=1.97mm|YSize=0.6mm|CornerRadius=0.075mm|HoleSize=0mm|Usage=FLASHONLY|Rotation=270.000|XOffset=0mm|YOffset=0mm|HoleType=Round|Shape=RoundedRectangle|*
%AMROUNDEDRECTD17*
21,1,1.9700,0.4500,0,0,270.0*
21,1,1.8200,0.6000,0,0,270.0*
1,1,0.1500,-0.2250,-0.9100*
1,1,0.1500,-0.2250,0.9100*
1,1,0.1500,0.2250,0.9100*
1,1,0.1500,0.2250,-0.9100*
%
%ADD17ROUNDEDRECTD17*%
%ADD18R,1.5500X1.5000*%
%ADD19R,1.0065X1.4082*%
%ADD20R,1.3000X1.4500*%
%ADD21R,2.9972X1.9177*%
%ADD22R,0.6000X0.5000*%
%ADD31C,1.8034*%
%ADD33R,3.3000X2.4100*%
%ADD34C,1.6256*%
%ADD35C,0.8128*%
%ADD36C,0.3810*%
%ADD37R,1.5080X1.5080*%
%ADD38C,1.5080*%
%ADD39C,5.0000*%
%ADD40C,1.2700*%
G36*
X805000Y325740D02*
X756000D01*
X734191Y347549D01*
Y400061D01*
X734626Y400312D01*
X736778Y402464D01*
X738299Y405099D01*
X739087Y408038D01*
Y411082D01*
X738299Y414021D01*
X736778Y416656D01*
X734626Y418808D01*
X731991Y420329D01*
X729052Y421117D01*
X726009D01*
X723069Y420329D01*
X720434Y418808D01*
X718282Y416656D01*
X716761Y414021D01*
X715973Y411082D01*
Y408038D01*
X716761Y405099D01*
X718282Y402464D01*
X720434Y400312D01*
X720869Y400061D01*
Y344790D01*
X720869Y344790D01*
X721096Y343066D01*
X721761Y341460D01*
X722820Y340080D01*
X735987Y326913D01*
X735501Y325740D01*
X600530D01*
Y497190D01*
X805000D01*
Y325740D01*
D02*
G37*
G36*
X999310Y432420D02*
Y213980D01*
X749431D01*
Y224839D01*
X752351D01*
Y225750D01*
X784094D01*
X784094Y225750D01*
X785818Y225977D01*
X787425Y226643D01*
X788804Y227701D01*
X796673Y235570D01*
X798550D01*
X800811Y236176D01*
X802839Y237346D01*
X804494Y239001D01*
X805664Y241029D01*
X806270Y243290D01*
Y245630D01*
X805664Y247891D01*
X804494Y249919D01*
X802839Y251574D01*
X800811Y252744D01*
X798550Y253350D01*
X796210D01*
X793949Y252744D01*
X791921Y251574D01*
X790266Y249919D01*
X789096Y247891D01*
X788708Y246446D01*
X781335Y239072D01*
X752351D01*
Y239984D01*
X733189D01*
Y224839D01*
X736109D01*
Y213980D01*
X647520D01*
X644980Y216520D01*
Y225750D01*
X665879D01*
Y225490D01*
X685041D01*
Y240635D01*
X665879D01*
Y239072D01*
X644980D01*
Y277480D01*
X836750D01*
X838020Y278750D01*
X839290Y277480D01*
Y433690D01*
X998040D01*
X999310Y432420D01*
D02*
G37*
G36*
X430200Y290550D02*
X450228D01*
Y272520D01*
X449954Y272484D01*
X448348Y271819D01*
X446968Y270760D01*
X446968Y270760D01*
X431202Y254994D01*
X430640D01*
X429356Y254739D01*
X428268Y254012D01*
X427541Y252923D01*
X427286Y251640D01*
X427065Y251458D01*
X426612Y251523D01*
X425723Y252000D01*
X425539Y252923D01*
X424812Y254012D01*
X424722Y254072D01*
Y293701D01*
X426829Y295808D01*
X430200D01*
Y290550D01*
D02*
G37*
G36*
X580210Y420320D02*
X487500D01*
X484715Y419953D01*
X482120Y418879D01*
X479892Y417169D01*
X412581Y349859D01*
X410872Y347630D01*
X409797Y345035D01*
X409430Y342250D01*
X409673Y340403D01*
X400240Y330970D01*
X390080D01*
Y328591D01*
X382806D01*
X382079Y329538D01*
X379850Y331249D01*
X377255Y332323D01*
X374470Y332690D01*
X308430D01*
X305645Y332323D01*
X303050Y331249D01*
X300821Y329538D01*
X249363Y278080D01*
X213571D01*
Y282600D01*
X222450D01*
Y286796D01*
X222917Y287262D01*
X222917Y287262D01*
X223899Y288732D01*
X224244Y290467D01*
Y303188D01*
X223899Y304923D01*
X222917Y306393D01*
X220685Y308625D01*
X219215Y309607D01*
X217481Y309952D01*
X144090D01*
X144090Y309952D01*
X142356Y309607D01*
X140885Y308625D01*
X140885Y308625D01*
X134771Y302510D01*
X106350D01*
Y282930D01*
X110858D01*
Y280982D01*
X111203Y279247D01*
X112185Y277777D01*
X114417Y275545D01*
X115887Y274563D01*
X117622Y274218D01*
X129646D01*
X130132Y273045D01*
X129866Y272779D01*
X128696Y270751D01*
X128090Y268490D01*
Y266150D01*
X128696Y263889D01*
X129866Y261861D01*
X131521Y260206D01*
X133549Y259036D01*
X135810Y258430D01*
X136450D01*
X140479Y254401D01*
Y252907D01*
X139209Y252522D01*
X139062Y252742D01*
X137974Y253469D01*
X136690Y253724D01*
X132190D01*
X130906Y253469D01*
X129818Y252742D01*
X129091Y251653D01*
X128836Y250370D01*
Y245802D01*
X60232D01*
Y266629D01*
X63305D01*
Y284613D01*
X63305Y284639D01*
X63305Y284639D01*
X63305Y285060D01*
X64575Y285312D01*
X65431Y283244D01*
X66843Y281405D01*
Y279063D01*
X67178Y276524D01*
Y266629D01*
X82323D01*
Y269471D01*
X82983Y269745D01*
X85212Y271455D01*
X86922Y273683D01*
X87997Y276278D01*
X88363Y279063D01*
Y285771D01*
X87997Y288556D01*
X86922Y291151D01*
X85510Y292991D01*
Y300340D01*
X85143Y303125D01*
X84068Y305720D01*
X82359Y307948D01*
X80130Y309659D01*
X77535Y310733D01*
X74750Y311100D01*
X71965Y310733D01*
X69370Y309659D01*
X67141Y307948D01*
X65431Y305720D01*
X64357Y303125D01*
X63990Y300340D01*
Y288624D01*
X64264Y286545D01*
X64264Y286542D01*
X63082Y285791D01*
X62338Y285791D01*
X48160D01*
Y266629D01*
X51168D01*
Y243502D01*
X51513Y241767D01*
X52495Y240297D01*
X54727Y238065D01*
X56198Y237083D01*
X57932Y236738D01*
X128836D01*
Y232170D01*
X129091Y230886D01*
X129818Y229798D01*
X130906Y229071D01*
X132190Y228815D01*
X136690D01*
X137974Y229071D01*
X139062Y229798D01*
X139789Y230886D01*
X140044Y232170D01*
Y236443D01*
X141314Y237019D01*
X141536Y236826D01*
Y232170D01*
X141791Y230886D01*
X142518Y229798D01*
X143606Y229071D01*
X144890Y228815D01*
X149390D01*
X150674Y229071D01*
X151762Y229798D01*
X152489Y230886D01*
X152745Y232170D01*
Y236826D01*
X152966Y237019D01*
X154236Y236443D01*
Y232170D01*
X154491Y230886D01*
X155218Y229798D01*
X156306Y229071D01*
X157590Y228815D01*
X162090D01*
X163374Y229071D01*
X164462Y229798D01*
X165189Y230886D01*
X165445Y232170D01*
Y250370D01*
X165189Y251653D01*
X164462Y252742D01*
X164372Y252802D01*
Y276210D01*
X164027Y277944D01*
X163045Y279415D01*
X163045Y279415D01*
X160505Y281955D01*
X159034Y282937D01*
X157300Y283282D01*
X140430D01*
Y295351D01*
X145967Y300888D01*
X168008D01*
Y252802D01*
X167918Y252742D01*
X167191Y251653D01*
X166936Y250370D01*
Y232170D01*
X167191Y230886D01*
X167918Y229798D01*
X169006Y229071D01*
X170290Y228815D01*
X174790D01*
X176074Y229071D01*
X177162Y229798D01*
X177889Y230886D01*
X178144Y232170D01*
Y236738D01*
X194678D01*
Y235262D01*
X195023Y233528D01*
X196005Y232057D01*
X198237Y229825D01*
X199708Y228843D01*
X201442Y228498D01*
X231214D01*
Y222997D01*
X266266D01*
Y247254D01*
X231214D01*
Y237562D01*
X203742D01*
Y239038D01*
X203397Y240772D01*
X202415Y242243D01*
X200183Y244474D01*
X198713Y245457D01*
X196978Y245802D01*
X178144D01*
Y250370D01*
X177889Y251653D01*
X177162Y252742D01*
X177072Y252802D01*
Y300888D01*
X215180D01*
Y292680D01*
X211190D01*
X210240Y293409D01*
X208634Y294074D01*
X206910Y294301D01*
X205186Y294074D01*
X203579Y293409D01*
X202630Y292680D01*
X201370D01*
Y291268D01*
X201141Y290970D01*
X200476Y289364D01*
X200249Y287640D01*
Y276667D01*
X200180Y276639D01*
X197952Y274928D01*
X196241Y272700D01*
X195167Y270105D01*
X194800Y267320D01*
X195167Y264535D01*
X196241Y261940D01*
X197952Y259711D01*
X200180Y258001D01*
X202775Y256927D01*
X205560Y256560D01*
X253820D01*
X256605Y256927D01*
X259200Y258001D01*
X261429Y259711D01*
X312887Y311170D01*
X374470D01*
X377255Y311537D01*
X379850Y312612D01*
X382079Y314321D01*
X382806Y315269D01*
X390080D01*
Y296890D01*
X393209D01*
Y291011D01*
X392756Y290559D01*
X391586Y288531D01*
X390980Y286270D01*
Y283930D01*
X391586Y281669D01*
X392756Y279641D01*
X394411Y277986D01*
X396439Y276816D01*
X398700Y276210D01*
X401040D01*
X403301Y276816D01*
X405329Y277986D01*
X406984Y279641D01*
X408154Y281669D01*
X408760Y283930D01*
Y286270D01*
X408154Y288531D01*
X406984Y290559D01*
X406531Y291011D01*
Y296890D01*
X409660D01*
Y312890D01*
Y321550D01*
X419669Y331559D01*
X420190Y331490D01*
X422975Y331857D01*
X425570Y332932D01*
X427799Y334641D01*
X491957Y398800D01*
X580210D01*
Y96489D01*
X566151D01*
X557741Y104899D01*
Y109880D01*
X560379D01*
X561080Y109740D01*
X561120D01*
X561822Y109880D01*
X566620D01*
Y119960D01*
X566339D01*
Y123522D01*
X566929Y124290D01*
X567594Y125896D01*
X567821Y127620D01*
Y210170D01*
X567821Y210170D01*
X567594Y211894D01*
X566929Y213500D01*
X565870Y214880D01*
X565870Y214880D01*
X538103Y242647D01*
Y245285D01*
X538046Y245718D01*
Y262938D01*
X502994D01*
Y257471D01*
X480099D01*
X466810Y270760D01*
X465430Y271819D01*
X463824Y272484D01*
X463550Y272520D01*
Y290550D01*
X464280D01*
Y310130D01*
X430200D01*
Y304872D01*
X424951D01*
X423217Y304527D01*
X421747Y303545D01*
X416985Y298783D01*
X416003Y297313D01*
X415658Y295579D01*
Y254072D01*
X415568Y254012D01*
X414841Y252923D01*
X414586Y251640D01*
Y247367D01*
X413316Y246790D01*
X413094Y246984D01*
Y251640D01*
X413087Y251677D01*
Y256987D01*
X413087Y256987D01*
X412860Y258711D01*
X412195Y260317D01*
X411136Y261697D01*
X411136Y261697D01*
X408760Y264073D01*
Y265950D01*
X408154Y268211D01*
X406984Y270239D01*
X405329Y271894D01*
X403301Y273064D01*
X401040Y273670D01*
X398700D01*
X396439Y273064D01*
X394411Y271894D01*
X392756Y270239D01*
X391586Y268211D01*
X390980Y265950D01*
Y263610D01*
X391586Y261349D01*
X392756Y259321D01*
X394411Y257666D01*
X396439Y256496D01*
X396792Y256401D01*
X396836Y256264D01*
X395906Y254994D01*
X392540D01*
X391256Y254739D01*
X390168Y254012D01*
X389441Y252923D01*
X389428Y252858D01*
X380633D01*
X349022Y284468D01*
Y297221D01*
X333877D01*
Y278059D01*
X342613D01*
X375551Y245121D01*
X375551Y245121D01*
X377021Y244139D01*
X378756Y243794D01*
X389186D01*
Y233440D01*
X389441Y232156D01*
X390168Y231068D01*
X391256Y230341D01*
X392540Y230085D01*
X397040D01*
X398324Y230341D01*
X399412Y231068D01*
X400139Y232156D01*
X400395Y233440D01*
Y237201D01*
X401665Y237853D01*
X401886Y237695D01*
Y233440D01*
X402141Y232156D01*
X402868Y231068D01*
X403956Y230341D01*
X405240Y230085D01*
X409740D01*
X411024Y230341D01*
X412112Y231068D01*
X412839Y232156D01*
X413094Y233440D01*
Y238096D01*
X413316Y238289D01*
X414586Y237713D01*
Y233440D01*
X414841Y232156D01*
X415568Y231068D01*
X416656Y230341D01*
X417940Y230085D01*
X422440D01*
X423724Y230341D01*
X424812Y231068D01*
X425539Y232156D01*
X425794Y233440D01*
Y237713D01*
X427065Y238289D01*
X427286Y238096D01*
Y233440D01*
X427541Y232156D01*
X428268Y231068D01*
X429356Y230341D01*
X430640Y230085D01*
X435140D01*
X436424Y230341D01*
X437512Y231068D01*
X438239Y232156D01*
X438494Y233440D01*
Y238995D01*
X438659Y239209D01*
X439324Y240816D01*
X439551Y242540D01*
Y244503D01*
X454437Y259389D01*
X459341D01*
X472630Y246100D01*
X472630Y246100D01*
X474010Y245041D01*
X475616Y244376D01*
X477340Y244149D01*
X477340Y244149D01*
X502994D01*
Y238682D01*
X524940D01*
X525008Y238164D01*
X525673Y236558D01*
X526732Y235178D01*
X554499Y207411D01*
Y127620D01*
X554726Y125896D01*
X555391Y124290D01*
X555980Y123522D01*
Y121085D01*
X554711Y120459D01*
X554411Y120689D01*
X552804Y121354D01*
X551080Y121581D01*
X549356Y121354D01*
X547750Y120689D01*
X546800Y119960D01*
X545540D01*
Y118548D01*
X545312Y118251D01*
X544646Y116644D01*
X544419Y114920D01*
Y104899D01*
X528081Y88561D01*
X492210D01*
Y97520D01*
X498955Y104265D01*
X498955Y104265D01*
X500014Y105645D01*
X500679Y107251D01*
X500906Y108975D01*
Y110674D01*
X502234Y112001D01*
X503404Y114029D01*
X504010Y116290D01*
Y118630D01*
X503404Y120891D01*
X502234Y122919D01*
X500579Y124574D01*
X498551Y125744D01*
X496290Y126350D01*
X493950D01*
X491689Y125744D01*
X489661Y124574D01*
X488006Y122919D01*
X486836Y120891D01*
X486230Y118630D01*
Y116290D01*
X486836Y114029D01*
X487584Y112732D01*
Y111734D01*
X482790Y106940D01*
X472630D01*
Y88860D01*
Y82280D01*
X452241Y61891D01*
X409099D01*
X375161Y95829D01*
Y101554D01*
X355999D01*
Y86409D01*
X365741D01*
X401630Y50520D01*
X401630Y50520D01*
X403009Y49461D01*
X404616Y48796D01*
X406340Y48569D01*
X406340Y48569D01*
X455000D01*
X455000Y48569D01*
X456724Y48796D01*
X458330Y49461D01*
X459710Y50520D01*
X482050Y72860D01*
X492210D01*
Y75239D01*
X530840D01*
X530840Y75239D01*
X532565Y75466D01*
X534171Y76131D01*
X535551Y77190D01*
X551080Y92720D01*
X558682Y85118D01*
X558682Y85118D01*
X560061Y84060D01*
X561668Y83394D01*
X563392Y83167D01*
X563392Y83167D01*
X580210D01*
Y33640D01*
X578940Y32370D01*
X576400Y34910D01*
X57106D01*
X56862Y36449D01*
X55522Y40572D01*
X53554Y44434D01*
X51006Y47941D01*
X47941Y51006D01*
X44434Y53554D01*
X40572Y55522D01*
X36449Y56862D01*
X32167Y57540D01*
X29093D01*
X27826Y58807D01*
X28886Y442460D01*
X32167D01*
X36449Y443138D01*
X40572Y444478D01*
X44434Y446446D01*
X47941Y448994D01*
X51006Y452059D01*
X53554Y455566D01*
X55522Y459428D01*
X56862Y463551D01*
X57540Y467832D01*
Y472168D01*
X56862Y476449D01*
X55522Y480572D01*
X53554Y484434D01*
X51006Y487941D01*
X47941Y491006D01*
X44674Y493380D01*
X44896Y494650D01*
X580210D01*
Y420320D01*
D02*
G37*
G36*
X850720Y189850D02*
Y27290D01*
X609420D01*
X601800Y34910D01*
X603070Y201280D01*
X736109D01*
Y118730D01*
X736109Y118730D01*
X736336Y117006D01*
X737001Y115400D01*
X738060Y114020D01*
X746583Y105497D01*
X746453Y105012D01*
Y101968D01*
X747241Y99029D01*
X748762Y96394D01*
X750914Y94242D01*
X753549Y92721D01*
X756488Y91933D01*
X759531D01*
X762471Y92721D01*
X765106Y94242D01*
X767258Y96394D01*
X768779Y99029D01*
X769567Y101968D01*
Y105012D01*
X768779Y107951D01*
X767258Y110586D01*
X765106Y112738D01*
X762471Y114259D01*
X759531Y115047D01*
X756488D01*
X756003Y114917D01*
X749431Y121489D01*
Y201280D01*
X839290D01*
X850720Y189850D01*
D02*
G37*
%LPC*%
G36*
X913202Y314437D02*
X910158D01*
X907219Y313649D01*
X904584Y312128D01*
X902432Y309976D01*
X900911Y307341D01*
X900123Y304401D01*
Y301359D01*
X900911Y298419D01*
X902432Y295784D01*
X904584Y293632D01*
X905019Y293381D01*
Y231321D01*
X904566Y230869D01*
X903396Y228841D01*
X902790Y226580D01*
Y224240D01*
X903396Y221979D01*
X904566Y219951D01*
X906221Y218296D01*
X908249Y217126D01*
X910510Y216520D01*
X912850D01*
X915111Y217126D01*
X917139Y218296D01*
X918794Y219951D01*
X919964Y221979D01*
X920570Y224240D01*
Y226580D01*
X919964Y228841D01*
X918794Y230869D01*
X918341Y231321D01*
Y293381D01*
X918776Y293632D01*
X920928Y295784D01*
X922449Y298419D01*
X923237Y301359D01*
Y304401D01*
X922449Y307341D01*
X920928Y309976D01*
X918776Y312128D01*
X916141Y313649D01*
X913202Y314437D01*
D02*
G37*
G36*
X185492Y426197D02*
X182449D01*
X179509Y425409D01*
X176874Y423888D01*
X174722Y421736D01*
X174104Y420666D01*
X110373D01*
X108661Y421654D01*
X106400Y422260D01*
X104060D01*
X101799Y421654D01*
X99771Y420484D01*
X98116Y418829D01*
X96946Y416801D01*
X96340Y414540D01*
Y412200D01*
X96946Y409939D01*
X98116Y407911D01*
X99771Y406256D01*
X101799Y405086D01*
X104060Y404480D01*
X106400D01*
X108661Y405086D01*
X110689Y406256D01*
X111776Y407344D01*
X174922D01*
X176874Y405392D01*
X179509Y403871D01*
X182449Y403083D01*
X185492D01*
X188431Y403871D01*
X191066Y405392D01*
X193218Y407544D01*
X194739Y410179D01*
X195527Y413119D01*
Y416161D01*
X194739Y419101D01*
X193218Y421736D01*
X191066Y423888D01*
X188431Y425409D01*
X185492Y426197D01*
D02*
G37*
G36*
X330005Y297221D02*
X314860D01*
Y287479D01*
X307329Y279948D01*
X307060Y280020D01*
X304720D01*
X302459Y279414D01*
X300431Y278244D01*
X298776Y276589D01*
X297606Y274561D01*
X297000Y272300D01*
Y269960D01*
X297606Y267699D01*
X298776Y265671D01*
X300431Y264016D01*
X302459Y262846D01*
X304720Y262240D01*
X307060D01*
X309321Y262846D01*
X311349Y264016D01*
X313004Y265671D01*
X314174Y267699D01*
X314267Y268045D01*
X324281Y278059D01*
X330005D01*
Y297221D01*
D02*
G37*
G36*
X344890Y235210D02*
X325310D01*
Y232071D01*
X306721D01*
X306269Y232524D01*
X304241Y233694D01*
X301980Y234300D01*
X299640D01*
X297379Y233694D01*
X295351Y232524D01*
X293696Y230869D01*
X292526Y228841D01*
X291920Y226580D01*
Y224240D01*
X292526Y221979D01*
X293696Y219951D01*
X295351Y218296D01*
X297379Y217126D01*
X299640Y216520D01*
X301980D01*
X304241Y217126D01*
X306269Y218296D01*
X306721Y218749D01*
X325310D01*
Y217130D01*
X344890D01*
Y235210D01*
D02*
G37*
G36*
X74380Y215400D02*
X54800D01*
Y211751D01*
X48911D01*
X48459Y212204D01*
X46431Y213374D01*
X44170Y213980D01*
X41830D01*
X39569Y213374D01*
X37541Y212204D01*
X35886Y210549D01*
X34716Y208521D01*
X34110Y206260D01*
Y203920D01*
X34716Y201659D01*
X35886Y199631D01*
X37541Y197976D01*
X39569Y196806D01*
X41830Y196200D01*
X44170D01*
X46431Y196806D01*
X48459Y197976D01*
X48911Y198429D01*
X54800D01*
Y197320D01*
X74380D01*
Y215400D01*
D02*
G37*
G36*
X435140Y205495D02*
X430640D01*
X429356Y205239D01*
X428268Y204512D01*
X427541Y203424D01*
X427286Y202140D01*
Y197484D01*
X427065Y197291D01*
X425794Y197867D01*
Y202140D01*
X425539Y203424D01*
X424812Y204512D01*
X423724Y205239D01*
X422440Y205495D01*
X417940D01*
X416656Y205239D01*
X415568Y204512D01*
X414841Y203424D01*
X414586Y202140D01*
Y197867D01*
X413316Y197291D01*
X413094Y197484D01*
Y202140D01*
X412839Y203424D01*
X412112Y204512D01*
X411024Y205239D01*
X409740Y205495D01*
X405240D01*
X403956Y205239D01*
X402868Y204512D01*
X402141Y203424D01*
X401886Y202140D01*
Y197484D01*
X401665Y197291D01*
X400395Y197867D01*
Y202140D01*
X400139Y203424D01*
X399412Y204512D01*
X398324Y205239D01*
X397040Y205495D01*
X392540D01*
X391256Y205239D01*
X390168Y204512D01*
X389441Y203424D01*
X389186Y202140D01*
Y186995D01*
X374433Y172242D01*
X346660D01*
Y177750D01*
X326080D01*
Y157670D01*
Y139170D01*
X331838D01*
Y127357D01*
X287076Y82595D01*
X285227Y83090D01*
X282573D01*
X280009Y82403D01*
X277711Y81076D01*
X275834Y79199D01*
X274507Y76901D01*
X273820Y74337D01*
Y71683D01*
X274507Y69119D01*
X275834Y66821D01*
X277711Y64944D01*
X280009Y63617D01*
X282573Y62930D01*
X285227D01*
X287791Y63617D01*
X290089Y64944D01*
X291966Y66821D01*
X293293Y69119D01*
X293980Y71683D01*
Y74337D01*
X293485Y76185D01*
X339575Y122275D01*
X339575Y122275D01*
X340557Y123745D01*
X340902Y125480D01*
X340902Y125480D01*
Y139170D01*
X346660D01*
Y157670D01*
Y163178D01*
X376310D01*
X378045Y163523D01*
X379515Y164506D01*
X395595Y180586D01*
X397040D01*
X398324Y180841D01*
X399412Y181568D01*
X399559Y181788D01*
X400829Y181403D01*
Y145400D01*
X400829Y145400D01*
X401056Y143676D01*
X401721Y142070D01*
X402780Y140690D01*
X410989Y132481D01*
Y123763D01*
X408069D01*
Y122851D01*
X385900D01*
X385900Y122851D01*
X384176Y122624D01*
X382570Y121959D01*
X381190Y120900D01*
X381190Y120900D01*
X379949Y119659D01*
X375161D01*
Y120571D01*
X355999D01*
Y105426D01*
X375161D01*
Y106337D01*
X382708D01*
X382708Y106337D01*
X384432Y106564D01*
X386039Y107230D01*
X387418Y108288D01*
X388659Y109529D01*
X408069D01*
Y108617D01*
X427231D01*
Y123763D01*
X424311D01*
Y135240D01*
X424084Y136964D01*
X423419Y138570D01*
X422360Y139950D01*
X422360Y139950D01*
X414151Y148159D01*
Y180070D01*
X415421Y180709D01*
X415658Y180533D01*
Y161910D01*
X416003Y160176D01*
X416985Y158705D01*
X429685Y146005D01*
X429685Y146005D01*
X431156Y145023D01*
X432890Y144678D01*
X432890Y144678D01*
X472630D01*
Y140170D01*
X492210D01*
Y156170D01*
Y174250D01*
X489081D01*
Y182669D01*
X489534Y183121D01*
X490704Y185149D01*
X491310Y187410D01*
Y189750D01*
X490704Y192011D01*
X489534Y194039D01*
X487879Y195694D01*
X485851Y196864D01*
X483590Y197470D01*
X481250D01*
X478989Y196864D01*
X476961Y195694D01*
X475306Y194039D01*
X474136Y192011D01*
X473530Y189750D01*
Y187410D01*
X474136Y185149D01*
X475306Y183121D01*
X475759Y182669D01*
Y174250D01*
X472630D01*
Y156170D01*
Y153742D01*
X434767D01*
X424722Y163787D01*
Y181508D01*
X424812Y181568D01*
X425539Y182657D01*
X425634Y183132D01*
X426955Y183263D01*
X427121Y182860D01*
X428180Y181480D01*
X443226Y166435D01*
X443656Y164829D01*
X444826Y162801D01*
X446481Y161146D01*
X448509Y159976D01*
X450770Y159370D01*
X453110D01*
X455371Y159976D01*
X457399Y161146D01*
X459054Y162801D01*
X460224Y164829D01*
X460830Y167090D01*
Y169430D01*
X460224Y171691D01*
X459054Y173719D01*
X457399Y175374D01*
X455371Y176544D01*
X453110Y177150D01*
X451350D01*
X439551Y188949D01*
Y193040D01*
X439324Y194764D01*
X438659Y196371D01*
X438494Y196585D01*
Y202140D01*
X438239Y203424D01*
X437512Y204512D01*
X436424Y205239D01*
X435140Y205495D01*
D02*
G37*
G36*
X174790Y204225D02*
X170290D01*
X169006Y203969D01*
X167918Y203242D01*
X167191Y202154D01*
X166936Y200870D01*
Y196214D01*
X166714Y196021D01*
X165445Y196597D01*
Y200870D01*
X165189Y202154D01*
X164462Y203242D01*
X163374Y203969D01*
X162090Y204225D01*
X157590D01*
X156306Y203969D01*
X155218Y203242D01*
X154491Y202154D01*
X154236Y200870D01*
Y196597D01*
X152966Y196021D01*
X152745Y196214D01*
Y200870D01*
X152489Y202154D01*
X151762Y203242D01*
X150674Y203969D01*
X149390Y204225D01*
X144890D01*
X143606Y203969D01*
X142518Y203242D01*
X141791Y202154D01*
X141536Y200870D01*
Y196214D01*
X141314Y196021D01*
X140044Y196597D01*
Y200870D01*
X139789Y202154D01*
X139062Y203242D01*
X137974Y203969D01*
X136690Y204225D01*
X132190D01*
X130906Y203969D01*
X129818Y203242D01*
X129091Y202154D01*
X128836Y200870D01*
Y195652D01*
X66822D01*
X65087Y195307D01*
X63617Y194325D01*
X61385Y192093D01*
X60403Y190623D01*
X60058Y188888D01*
Y185680D01*
X54800D01*
Y167600D01*
Y158532D01*
X54197Y157075D01*
X53830Y154290D01*
Y76820D01*
X54197Y74035D01*
X55272Y71440D01*
X56982Y69212D01*
X68411Y57782D01*
X70640Y56072D01*
X73235Y54997D01*
X76020Y54630D01*
X80630D01*
X83415Y54997D01*
X86010Y56072D01*
X88239Y57782D01*
X89949Y60010D01*
X91024Y62605D01*
X91390Y65390D01*
X91024Y68175D01*
X89949Y70770D01*
X88239Y72998D01*
X86010Y74708D01*
X83415Y75783D01*
X80630Y76150D01*
X80477D01*
X75350Y81277D01*
Y154290D01*
X74983Y157075D01*
X74380Y158532D01*
Y167600D01*
Y185680D01*
X75254Y186588D01*
X128836D01*
Y182670D01*
X129091Y181387D01*
X129818Y180298D01*
X130906Y179571D01*
X132190Y179316D01*
X136690D01*
X137974Y179571D01*
X139062Y180298D01*
X139209Y180518D01*
X140479Y180133D01*
Y156131D01*
X136289D01*
Y155070D01*
X135360Y154251D01*
X133636Y154024D01*
X132030Y153359D01*
X130650Y152300D01*
X130650Y152300D01*
X121064Y142715D01*
X119891Y143201D01*
Y156131D01*
X116971D01*
Y159370D01*
X116971Y159370D01*
X116744Y161094D01*
X116079Y162701D01*
X115020Y164080D01*
X115020Y164080D01*
X103960Y175140D01*
Y175780D01*
X103354Y178041D01*
X102184Y180069D01*
X100529Y181724D01*
X98501Y182894D01*
X96240Y183500D01*
X93900D01*
X91639Y182894D01*
X89611Y181724D01*
X87956Y180069D01*
X86786Y178041D01*
X86180Y175780D01*
Y173440D01*
X86786Y171179D01*
X87956Y169151D01*
X89611Y167496D01*
X91639Y166326D01*
X93900Y165720D01*
X94540D01*
X102859Y157401D01*
X102333Y156131D01*
X100729D01*
Y140986D01*
X117676D01*
X118162Y139812D01*
X115521Y137171D01*
X111278D01*
X110845Y137114D01*
X100729D01*
Y121969D01*
X119891D01*
Y124061D01*
X120004Y124076D01*
X121610Y124741D01*
X122990Y125800D01*
X138119Y140929D01*
X145203D01*
X145203Y140929D01*
X145636Y140986D01*
X155451D01*
Y156131D01*
X153801D01*
Y178799D01*
X155071Y179439D01*
X155308Y179263D01*
Y170492D01*
X155653Y168757D01*
X156635Y167287D01*
X158867Y165055D01*
X160338Y164073D01*
X162072Y163728D01*
X165468D01*
Y129852D01*
X165813Y128118D01*
X166795Y126647D01*
X169027Y124415D01*
X170497Y123433D01*
X172232Y123088D01*
X184340D01*
Y119850D01*
X203920D01*
Y137469D01*
X216159D01*
X216611Y137016D01*
X218639Y135846D01*
X220900Y135240D01*
X223240D01*
X225501Y135846D01*
X227529Y137016D01*
X229184Y138671D01*
X230354Y140699D01*
X230960Y142960D01*
Y145300D01*
X230354Y147561D01*
X229184Y149589D01*
X227529Y151244D01*
X225501Y152414D01*
X223240Y153020D01*
X220900D01*
X218639Y152414D01*
X216611Y151244D01*
X216159Y150791D01*
X203920D01*
Y153930D01*
X184340D01*
Y135850D01*
Y132152D01*
X174532D01*
Y166028D01*
X174187Y167763D01*
X173205Y169233D01*
X170973Y171465D01*
X169503Y172447D01*
X167768Y172792D01*
X164372D01*
Y180238D01*
X164462Y180298D01*
X165189Y181387D01*
X165445Y182670D01*
Y186944D01*
X166714Y187520D01*
X166936Y187326D01*
Y182670D01*
X167191Y181387D01*
X167918Y180298D01*
X169006Y179571D01*
X170290Y179316D01*
X174790D01*
X176074Y179571D01*
X177162Y180298D01*
X177889Y181387D01*
X178144Y182670D01*
Y184459D01*
X186949D01*
X187401Y184006D01*
X189429Y182836D01*
X191690Y182230D01*
X194030D01*
X196291Y182836D01*
X198319Y184006D01*
X199974Y185661D01*
X201144Y187689D01*
X201750Y189950D01*
Y192290D01*
X201144Y194551D01*
X199974Y196579D01*
X198319Y198234D01*
X196291Y199404D01*
X194030Y200010D01*
X191690D01*
X189429Y199404D01*
X187401Y198234D01*
X186949Y197781D01*
X178144D01*
Y200870D01*
X177889Y202154D01*
X177162Y203242D01*
X176074Y203969D01*
X174790Y204225D01*
D02*
G37*
G36*
X538046Y215567D02*
X502994D01*
Y191311D01*
X513859D01*
Y179251D01*
X513406Y178799D01*
X512236Y176771D01*
X511630Y174510D01*
Y172170D01*
X512236Y169909D01*
X513406Y167881D01*
X515061Y166226D01*
X517089Y165056D01*
X519350Y164450D01*
X521690D01*
X523951Y165056D01*
X525979Y166226D01*
X527634Y167881D01*
X528804Y169909D01*
X529410Y172170D01*
Y174510D01*
X528804Y176771D01*
X527634Y178799D01*
X527181Y179251D01*
Y191311D01*
X538046D01*
Y215567D01*
D02*
G37*
G36*
X266266Y199883D02*
X231214D01*
Y175626D01*
X242079D01*
Y165281D01*
X241626Y164829D01*
X240456Y162801D01*
X239850Y160540D01*
Y158200D01*
X240456Y155939D01*
X241626Y153911D01*
X243281Y152256D01*
X245309Y151086D01*
X247570Y150480D01*
X249910D01*
X252171Y151086D01*
X254199Y152256D01*
X255854Y153911D01*
X257024Y155939D01*
X257630Y158200D01*
Y160540D01*
X257024Y162801D01*
X255854Y164829D01*
X255401Y165281D01*
Y175626D01*
X266266D01*
Y199883D01*
D02*
G37*
G36*
X445490Y106030D02*
X443150D01*
X440889Y105424D01*
X438861Y104254D01*
X438425Y103817D01*
X427231D01*
Y104745D01*
X408069D01*
Y89600D01*
X427231D01*
Y90495D01*
X438392D01*
X438861Y90026D01*
X440889Y88856D01*
X443150Y88250D01*
X445490D01*
X447751Y88856D01*
X449779Y90026D01*
X451434Y91681D01*
X452604Y93709D01*
X453210Y95970D01*
Y98310D01*
X452604Y100571D01*
X451434Y102599D01*
X449779Y104254D01*
X447751Y105424D01*
X445490Y106030D01*
D02*
G37*
G36*
X155451Y137114D02*
X136289D01*
Y121969D01*
X137939D01*
Y110671D01*
X137486Y110219D01*
X136316Y108191D01*
X135710Y105930D01*
Y103590D01*
X136316Y101329D01*
X137486Y99301D01*
X139141Y97646D01*
X141169Y96476D01*
X143430Y95870D01*
X145770D01*
X148031Y96476D01*
X150059Y97646D01*
X151714Y99301D01*
X152884Y101329D01*
X153490Y103590D01*
Y105930D01*
X152884Y108191D01*
X151714Y110219D01*
X151261Y110671D01*
Y121969D01*
X155451D01*
Y137114D01*
D02*
G37*
G36*
X261340Y127620D02*
X259000D01*
X256739Y127014D01*
X254711Y125844D01*
X253056Y124189D01*
X251886Y122161D01*
X251280Y119900D01*
Y117560D01*
X251886Y115299D01*
X252874Y113587D01*
Y81170D01*
X252711Y81076D01*
X250834Y79199D01*
X249507Y76901D01*
X248820Y74337D01*
Y71683D01*
X249507Y69119D01*
X250834Y66821D01*
X252711Y64944D01*
X255009Y63617D01*
X257573Y62930D01*
X260227D01*
X262791Y63617D01*
X265089Y64944D01*
X266966Y66821D01*
X268293Y69119D01*
X268980Y71683D01*
Y74337D01*
X268293Y76901D01*
X266966Y79199D01*
X266196Y79969D01*
Y112184D01*
X267284Y113271D01*
X268454Y115299D01*
X269060Y117560D01*
Y119900D01*
X268454Y122161D01*
X267284Y124189D01*
X265629Y125844D01*
X263601Y127014D01*
X261340Y127620D01*
D02*
G37*
G36*
X243980Y83090D02*
X223820D01*
Y62930D01*
X243980D01*
Y83090D01*
D02*
G37*
G36*
X140710Y75470D02*
X120550D01*
Y55310D01*
X140710D01*
Y75470D01*
D02*
G37*
G36*
X106065Y115085D02*
X103280Y114718D01*
X100685Y113643D01*
X98456Y111933D01*
X96746Y109705D01*
X95672Y107110D01*
X95305Y104325D01*
Y65825D01*
X95672Y63040D01*
X96103Y61999D01*
X96237Y61499D01*
X96495Y61052D01*
X96746Y60445D01*
X97146Y59924D01*
X97564Y59201D01*
X98154Y58610D01*
X98456Y58217D01*
X98850Y57915D01*
X99441Y57324D01*
X100164Y56906D01*
X100685Y56507D01*
X101292Y56255D01*
X101739Y55997D01*
X102238Y55863D01*
X103280Y55432D01*
X106065Y55065D01*
X108850Y55432D01*
X111445Y56507D01*
X113673Y58217D01*
X115383Y60445D01*
X116458Y63040D01*
X116825Y65825D01*
Y104325D01*
X116458Y107110D01*
X115383Y109705D01*
X113673Y111933D01*
X111445Y113643D01*
X108850Y114718D01*
X106065Y115085D01*
D02*
G37*
%LPD*%
D11*
X561080Y114920D02*
X561120D01*
X561160Y114960D01*
Y127620D01*
D15*
X110310Y129541D02*
D03*
Y148558D02*
D03*
X145870Y129541D02*
D03*
Y148559D02*
D03*
X365580Y112998D02*
D03*
Y93981D02*
D03*
X417650Y116190D02*
D03*
Y97172D02*
D03*
X742770Y232411D02*
D03*
Y251429D02*
D03*
X675460Y233062D02*
D03*
Y252080D02*
D03*
D16*
X64590Y176640D02*
D03*
Y160640D02*
D03*
X194130Y128890D02*
D03*
Y144890D02*
D03*
X64590Y206360D02*
D03*
Y222360D02*
D03*
X335100Y226170D02*
D03*
Y210170D02*
D03*
X482420Y97900D02*
D03*
Y81900D02*
D03*
Y165210D02*
D03*
Y149210D02*
D03*
X399870Y305930D02*
D03*
Y321930D02*
D03*
D17*
X172540Y191770D02*
D03*
X159840D02*
D03*
X147140D02*
D03*
X134440D02*
D03*
Y241270D02*
D03*
X147140D02*
D03*
X159840D02*
D03*
X172540D02*
D03*
X432890Y242540D02*
D03*
X420190D02*
D03*
X407490D02*
D03*
X394790D02*
D03*
Y193040D02*
D03*
X407490D02*
D03*
X420190D02*
D03*
X432890D02*
D03*
D18*
X336370Y149210D02*
D03*
Y167710D02*
D03*
D19*
X74750Y276210D02*
D03*
X55732D02*
D03*
X322433Y287640D02*
D03*
X341450D02*
D03*
D20*
X115390Y292720D02*
D03*
X131390D02*
D03*
X455240Y300340D02*
D03*
X439240D02*
D03*
D21*
X248740Y187754D02*
D03*
Y235126D02*
D03*
X520520Y250810D02*
D03*
Y203439D02*
D03*
D22*
X216910Y287640D02*
D03*
X206910D02*
D03*
X551080Y114920D02*
D03*
X561080D02*
D03*
D31*
X234770Y414640D02*
D03*
X183970D02*
D03*
X676730Y409560D02*
D03*
X727530D02*
D03*
X707210Y103490D02*
D03*
X758010D02*
D03*
X911680Y302880D02*
D03*
Y353680D02*
D03*
D33*
X153490Y216520D02*
D03*
X413840Y217790D02*
D03*
D34*
X64590Y76820D02*
Y154290D01*
Y76820D02*
X76020Y65390D01*
X80630D01*
X106065Y65825D02*
Y104325D01*
X205560Y267320D02*
X253820D01*
X74750Y288624D02*
Y300340D01*
Y288624D02*
X77603Y285771D01*
Y279063D02*
Y285771D01*
X253820Y267320D02*
X308430Y321930D01*
X374470D01*
X420190Y342250D02*
X487500Y409560D01*
X676730D01*
D35*
X105630Y65390D02*
X106065Y65825D01*
Y104325D02*
X106500Y104760D01*
X144600D02*
Y128271D01*
X95070Y174610D02*
X110310Y159370D01*
Y148558D02*
Y159370D01*
Y129541D02*
X111278Y130510D01*
X118280D01*
X135360Y147590D01*
X145203D01*
X144600Y128271D02*
X145870Y129541D01*
X145203Y147590D02*
X147140Y149527D01*
Y149829D02*
Y191770D01*
X258900Y73010D02*
X259535Y73645D01*
Y118095D01*
X260170Y118730D01*
X365580Y93981D02*
X367589D01*
X365580Y112998D02*
X382708D01*
X385900Y116190D01*
X367589Y93981D02*
X406340Y55230D01*
X385900Y116190D02*
X417650D01*
Y135240D01*
Y97172D02*
X417666Y97156D01*
X406340Y55230D02*
X455000D01*
X417666Y97156D02*
X444304D01*
X444320Y97140D01*
X455000Y55230D02*
X481670Y81900D01*
X482420D01*
X172540Y191770D02*
X173190Y191120D01*
X192860D01*
X194130Y144890D02*
X194890Y144130D01*
X222070D01*
X248740Y159370D02*
Y187754D01*
X407490Y145400D02*
Y193040D01*
Y145400D02*
X417650Y135240D01*
X432890Y186190D02*
Y193040D01*
Y186190D02*
X450820Y168260D01*
X451940D01*
X43000Y205090D02*
X63320D01*
X64590Y206360D01*
X136980Y267320D02*
X147140Y257160D01*
Y241270D02*
Y257160D01*
X205560Y267320D02*
X206435Y268195D01*
Y271428D01*
X206910Y271903D01*
X105230Y413370D02*
X105865Y414005D01*
X183335D01*
X183970Y414640D01*
X206910Y271903D02*
Y287640D01*
X399870Y263543D02*
Y264780D01*
X300810Y225410D02*
X334340D01*
X335100Y226170D01*
X399870Y263543D02*
X406426Y256987D01*
Y243604D02*
Y256987D01*
Y243604D02*
X407490Y242540D01*
X432890D02*
Y247262D01*
X413840Y217790D02*
X457020D01*
X432890Y247262D02*
X451678Y266050D01*
X456889D01*
X462100D01*
X477340Y250810D01*
X305890Y271130D02*
X306765Y272005D01*
X308806D01*
X322433Y285631D01*
Y287640D01*
X374470Y321930D02*
X399870D01*
Y285100D02*
Y305930D01*
Y321930D02*
X400620D01*
X420190Y341500D01*
Y342250D01*
X456889Y266050D02*
Y298691D01*
X455240Y300340D02*
X456889Y298691D01*
X482420Y165210D02*
Y188580D01*
Y97900D02*
X483170D01*
X494245Y108975D01*
Y116585D01*
X495120Y117460D01*
X482420Y81900D02*
X530840D01*
X520520Y173340D02*
Y203439D01*
X563392Y89828D02*
X626545D01*
X530840Y81900D02*
X551080Y102140D01*
X563392Y89828D01*
X626545D02*
X640207Y103490D01*
X707210D01*
X551080Y102140D02*
Y114920D01*
X742770Y118730D02*
X758010Y103490D01*
X561160Y127620D02*
Y210170D01*
X742770Y118730D02*
Y232411D01*
X531442Y239888D02*
X561160Y210170D01*
X570050Y231760D02*
X570701Y232411D01*
X674809D01*
X742770D02*
X784094D01*
X674809D02*
X675460Y233062D01*
X784094Y232411D02*
X796143Y244460D01*
X531442Y239888D02*
Y245285D01*
X796143Y244460D02*
X797380D01*
X525918Y250810D02*
X531442Y245285D01*
X675460Y252080D02*
X675786Y251754D01*
X727530Y344790D02*
Y409560D01*
X477340Y250810D02*
X520520D01*
X742770Y251429D02*
X744779D01*
X742444Y251754D02*
X742770Y251429D01*
X911680Y225410D02*
Y302880D01*
X744779Y251429D02*
X847030Y353680D01*
X727530Y344790D02*
X769440Y302880D01*
X675786Y251754D02*
X742444D01*
X847030Y353680D02*
X911680D01*
X520520Y250810D02*
X525918D01*
D36*
X64590Y176640D02*
Y188888D01*
X66822Y191120D01*
X133790D01*
X134440Y191770D01*
X159840Y170492D02*
Y191770D01*
Y170492D02*
X162072Y168260D01*
X167768D01*
X170000Y166028D01*
Y129852D02*
Y166028D01*
Y129852D02*
X172232Y127620D01*
X192860D01*
X194130Y128890D01*
X283900Y73010D02*
X336370Y125480D01*
Y149210D01*
Y167710D02*
X376310D01*
X394790Y186190D01*
Y193040D01*
X420190Y161910D02*
Y193040D01*
Y161910D02*
X432890Y149210D01*
X482420D01*
X55700Y243502D02*
Y276178D01*
X55732Y276210D01*
X55700Y243502D02*
X57932Y241270D01*
X134440D01*
X159840D02*
Y276210D01*
X172540Y241270D02*
Y305420D01*
Y241270D02*
X196978D01*
X199210Y239038D01*
Y235262D02*
Y239038D01*
Y235262D02*
X201442Y233030D01*
X246644D01*
X115390Y280982D02*
Y292720D01*
Y280982D02*
X117622Y278750D01*
X157300D01*
X131390Y292720D02*
X144090Y305420D01*
X172540D01*
X157300Y278750D02*
X159840Y276210D01*
X172540Y305420D02*
X217481D01*
X216910Y287640D02*
X217410D01*
X218005Y288235D01*
Y288760D01*
X217481Y305420D02*
X219712Y303188D01*
X218005Y288760D02*
X219712Y290467D01*
Y303188D01*
X246644Y233030D02*
X248740Y235126D01*
X394790Y242540D02*
Y247262D01*
X378756Y248326D02*
X393726D01*
X394790Y247262D01*
X341450Y285631D02*
Y287640D01*
Y285631D02*
X378756Y248326D01*
X420190Y242540D02*
Y295579D01*
X424951Y300340D01*
X439240D01*
D37*
X130630Y65390D02*
D03*
X233900Y73010D02*
D03*
D38*
X105630Y65390D02*
D03*
X80630D02*
D03*
X283900Y73010D02*
D03*
X258900D02*
D03*
D39*
X970000Y30000D02*
D03*
Y470000D02*
D03*
X30000D02*
D03*
Y30000D02*
D03*
D40*
X43000Y205090D02*
D03*
X74750Y300340D02*
D03*
X95070Y174610D02*
D03*
X105230Y413370D02*
D03*
X106500Y104760D02*
D03*
X136980Y267320D02*
D03*
X144600Y104760D02*
D03*
X192860Y191120D02*
D03*
X205560Y267320D02*
D03*
X222070Y144130D02*
D03*
X248740Y159370D02*
D03*
X260170Y118730D02*
D03*
X300810Y225410D02*
D03*
X305890Y271130D02*
D03*
X399870Y264780D02*
D03*
Y285100D02*
D03*
X444320Y97140D02*
D03*
X451940Y168260D02*
D03*
X457020Y217790D02*
D03*
X482420Y188580D02*
D03*
X495120Y117460D02*
D03*
X570050Y231760D02*
D03*
X520520Y173340D02*
D03*
X769440Y302880D02*
D03*
X797380Y244460D02*
D03*
X911680Y225410D02*
D03*
M02*
