G04*
G04 #@! TF.GenerationSoftware,Altium Limited,Altium Designer,22.10.1 (41)*
G04*
G04 Layer_Color=8388736*
%FSLAX44Y44*%
%MOMM*%
G71*
G04*
G04 #@! TF.SameCoordinates,81D378FE-F234-499D-9AEC-098A348C0B8A*
G04*
G04*
G04 #@! TF.FilePolarity,Negative*
G04*
G01*
G75*
%ADD15R,1.4082X1.0065*%
%ADD19R,1.0065X1.4082*%
%ADD21R,2.9972X1.9177*%
%ADD23R,1.6532X1.5032*%
%ADD24R,3.5032X2.6132*%
G04:AMPARAMS|DCode=25|XSize=2.1732mm|YSize=0.8032mm|CornerRadius=0.1766mm|HoleSize=0mm|Usage=FLASHONLY|Rotation=270.000|XOffset=0mm|YOffset=0mm|HoleType=Round|Shape=RoundedRectangle|*
%AMROUNDEDRECTD25*
21,1,2.1732,0.4500,0,0,270.0*
21,1,1.8200,0.8032,0,0,270.0*
1,1,0.3532,-0.2250,-0.9100*
1,1,0.3532,-0.2250,0.9100*
1,1,0.3532,0.2250,0.9100*
1,1,0.3532,0.2250,-0.9100*
%
%ADD25ROUNDEDRECTD25*%
%ADD26R,1.7532X1.7032*%
%ADD27R,1.5032X1.6532*%
%ADD28R,0.8032X0.7032*%
%ADD29R,1.7112X1.7112*%
%ADD30C,1.7112*%
%ADD31C,1.8034*%
%ADD32C,1.4732*%
D15*
X110310Y129541D02*
D03*
Y148558D02*
D03*
X145870Y129541D02*
D03*
Y148559D02*
D03*
X365580Y112998D02*
D03*
Y93981D02*
D03*
X417650Y116190D02*
D03*
Y97172D02*
D03*
X742770Y232411D02*
D03*
Y251429D02*
D03*
X675460Y233062D02*
D03*
Y252080D02*
D03*
D19*
X74750Y276210D02*
D03*
X55732D02*
D03*
X322433Y287640D02*
D03*
X341450D02*
D03*
D21*
X248740Y187754D02*
D03*
Y235126D02*
D03*
X520520Y250810D02*
D03*
Y203439D02*
D03*
D23*
X64590Y176640D02*
D03*
Y160640D02*
D03*
X194130Y128890D02*
D03*
Y144890D02*
D03*
X64590Y206360D02*
D03*
Y222360D02*
D03*
X335100Y226170D02*
D03*
Y210170D02*
D03*
X482420Y97900D02*
D03*
Y81900D02*
D03*
Y165210D02*
D03*
Y149210D02*
D03*
X399870Y305930D02*
D03*
Y321930D02*
D03*
D24*
X153490Y216520D02*
D03*
X413840Y217790D02*
D03*
D25*
X172540Y191770D02*
D03*
X159840D02*
D03*
X147140D02*
D03*
X134440D02*
D03*
Y241270D02*
D03*
X147140D02*
D03*
X159840D02*
D03*
X172540D02*
D03*
X432890Y242540D02*
D03*
X420190D02*
D03*
X407490D02*
D03*
X394790D02*
D03*
Y193040D02*
D03*
X407490D02*
D03*
X420190D02*
D03*
X432890D02*
D03*
D26*
X336370Y149210D02*
D03*
Y167710D02*
D03*
D27*
X115390Y292720D02*
D03*
X131390D02*
D03*
X455240Y300340D02*
D03*
X439240D02*
D03*
D28*
X216910Y287640D02*
D03*
X206910D02*
D03*
X551080Y114920D02*
D03*
X561080D02*
D03*
D29*
X130630Y65390D02*
D03*
X233900Y73010D02*
D03*
D30*
X105630Y65390D02*
D03*
X80630D02*
D03*
X283900Y73010D02*
D03*
X258900D02*
D03*
D31*
X234770Y414640D02*
D03*
X183970D02*
D03*
X676730Y409560D02*
D03*
X727530D02*
D03*
X707210Y103490D02*
D03*
X758010D02*
D03*
X911680Y302880D02*
D03*
Y353680D02*
D03*
D32*
X43000Y205090D02*
D03*
X74750Y300340D02*
D03*
X95070Y174610D02*
D03*
X105230Y413370D02*
D03*
X106500Y104760D02*
D03*
X136980Y267320D02*
D03*
X144600Y104760D02*
D03*
X192860Y191120D02*
D03*
X205560Y267320D02*
D03*
X222070Y144130D02*
D03*
X248740Y159370D02*
D03*
X260170Y118730D02*
D03*
X300810Y225410D02*
D03*
X305890Y271130D02*
D03*
X399870Y264780D02*
D03*
Y285100D02*
D03*
X444320Y97140D02*
D03*
X451940Y168260D02*
D03*
X457020Y217790D02*
D03*
X482420Y188580D02*
D03*
X495120Y117460D02*
D03*
X570050Y231760D02*
D03*
X520520Y173340D02*
D03*
X769440Y302880D02*
D03*
X797380Y244460D02*
D03*
X911680Y225410D02*
D03*
M02*
