G04*
G04 #@! TF.GenerationSoftware,Altium Limited,Altium Designer,22.10.1 (41)*
G04*
G04 Layer_Color=16711935*
%FSLAX44Y44*%
%MOMM*%
G71*
G04*
G04 #@! TF.SameCoordinates,81D378FE-F234-499D-9AEC-098A348C0B8A*
G04*
G04*
G04 #@! TF.FilePolarity,Positive*
G04*
G01*
G75*
%ADD10C,0.2000*%
%ADD11C,0.5080*%
%ADD12C,0.1270*%
%ADD14C,0.2540*%
%ADD41C,0.0254*%
%ADD42C,0.1000*%
D10*
X161630Y65390D02*
G03*
X161630Y65390I-1000J0D01*
G01*
X204900Y73010D02*
G03*
X204900Y73010I-1000J0D01*
G01*
X179540Y260970D02*
G03*
X179540Y260970I-1000J0D01*
G01*
X439890Y262240D02*
G03*
X439890Y262240I-1000J0D01*
G01*
D11*
X238580Y395590D02*
G03*
X238580Y395590I-3810J0D01*
G01*
X680540Y428610D02*
G03*
X680540Y428610I-3810J0D01*
G01*
X711020Y122540D02*
G03*
X711020Y122540I-3810J0D01*
G01*
X934540Y353680D02*
G03*
X934540Y353680I-3810J0D01*
G01*
D12*
X153280Y41190D02*
Y89490D01*
X57980D02*
X153280D01*
X57980Y41190D02*
Y89490D01*
Y41190D02*
X153280D01*
X211250Y48910D02*
Y97210D01*
Y48910D02*
X306550D01*
Y97210D01*
X211250D02*
X306550D01*
X128490Y196520D02*
X178490D01*
X128490Y236520D02*
X178490D01*
X128490Y196520D02*
Y236520D01*
X178490Y196520D02*
Y236520D01*
X438840Y197790D02*
Y237790D01*
X388840Y197790D02*
Y237790D01*
X438840D01*
X388840Y197790D02*
X438840D01*
D14*
X0Y0D02*
X1000000D01*
X0Y500000D02*
X1000000D01*
Y0D02*
Y500000D01*
X0Y0D02*
Y500000D01*
D41*
X152601Y455153D02*
X266139D01*
X152601Y374127D02*
Y455153D01*
Y374127D02*
X266139D01*
Y455153D01*
X645361Y369047D02*
X758899D01*
Y450073D01*
X645361D02*
X758899D01*
X645361Y369047D02*
Y450073D01*
X675841Y62977D02*
X789379D01*
Y144003D01*
X675841D02*
X789379D01*
X675841Y62977D02*
Y144003D01*
X871167Y271511D02*
Y385049D01*
Y271511D02*
X952193D01*
Y385049D01*
X871167D02*
X952193D01*
X230198Y237983D02*
X267282D01*
Y184897D02*
Y237983D01*
X230198Y184897D02*
X267282D01*
X230198D02*
Y237983D01*
X242390Y257414D02*
X255090D01*
X247470D02*
X248740Y265034D01*
X246200Y257414D02*
X248740Y265034D01*
X244930Y257414D02*
X248740Y265034D01*
X243660Y257414D02*
X248740Y265034D01*
X242390Y257414D02*
X248740Y265034D01*
X250010Y257414D01*
X248740Y265034D02*
X251280Y257414D01*
X248740Y265034D02*
X252550Y257414D01*
X248740Y265034D02*
X253820Y257414D01*
X248740Y265034D02*
X255090Y257414D01*
X242390Y265034D02*
X255090D01*
X248740Y254874D02*
Y267574D01*
X520520Y270558D02*
Y283258D01*
X514170Y280718D02*
X526870D01*
X520520D02*
X526870Y273099D01*
X520520Y280718D02*
X525600Y273099D01*
X520520Y280718D02*
X524330Y273099D01*
X520520Y280718D02*
X523060Y273099D01*
X520520Y280718D02*
X521790Y273099D01*
X514170D02*
X520520Y280718D01*
X515440Y273099D02*
X520520Y280718D01*
X516710Y273099D02*
X520520Y280718D01*
X517980Y273099D02*
X520520Y280718D01*
X519250Y273099D02*
X520520Y280718D01*
X514170Y273099D02*
X526870D01*
X501978Y200581D02*
Y253668D01*
Y200581D02*
X539062D01*
Y253668D01*
X501978D02*
X539062D01*
D42*
X57340Y179640D02*
X71840D01*
X57340Y157640D02*
X71840D01*
Y179640D01*
X57340Y157640D02*
Y179640D01*
X186880Y125890D02*
Y147890D01*
X201380Y125890D02*
Y147890D01*
X186880Y125890D02*
X201380D01*
X186880Y147890D02*
X201380D01*
X329120Y147460D02*
X343620D01*
X329120Y169460D02*
X343620D01*
X329120Y147460D02*
Y169460D01*
X343620Y147460D02*
Y169460D01*
X57340Y203360D02*
X71840D01*
X57340Y225360D02*
X71840D01*
X57340Y203360D02*
Y225360D01*
X71840Y203360D02*
Y225360D01*
X112390Y285470D02*
Y299970D01*
X134390Y285470D02*
Y299970D01*
X112390D02*
X134390D01*
X112390Y285470D02*
X134390D01*
X327850Y229170D02*
X342350D01*
X327850Y207170D02*
X342350D01*
Y229170D01*
X327850Y207170D02*
Y229170D01*
X206410Y284640D02*
X217410D01*
X206410Y290640D02*
X217410D01*
Y284640D02*
Y290640D01*
X206410Y284640D02*
Y290640D01*
X475170Y100900D02*
X489670D01*
X475170Y78900D02*
X489670D01*
Y100900D01*
X475170Y78900D02*
Y100900D01*
Y168210D02*
X489670D01*
X475170Y146210D02*
X489670D01*
Y168210D01*
X475170Y146210D02*
Y168210D01*
X550580Y111920D02*
Y117920D01*
X561580Y111920D02*
Y117920D01*
X550580D02*
X561580D01*
X550580Y111920D02*
X561580D01*
X392620Y302930D02*
X407120D01*
X392620Y324930D02*
X407120D01*
X392620Y302930D02*
Y324930D01*
X407120Y302930D02*
Y324930D01*
X436240Y293090D02*
X458240D01*
X436240Y307590D02*
X458240D01*
Y293090D02*
Y307590D01*
X436240Y293090D02*
Y307590D01*
M02*
