G04*
G04 #@! TF.GenerationSoftware,Altium Limited,Altium Designer,22.10.1 (41)*
G04*
G04 Layer_Color=16711935*
%FSLAX44Y44*%
%MOMM*%
G71*
G04*
G04 #@! TF.SameCoordinates,81D378FE-F234-499D-9AEC-098A348C0B8A*
G04*
G04*
G04 #@! TF.FilePolarity,Negative*
G04*
G01*
G75*
%ADD29R,1.7112X1.7112*%
%ADD30C,1.7112*%
%ADD31C,1.8034*%
%ADD32C,1.4732*%
D29*
X130630Y65390D02*
D03*
X233900Y73010D02*
D03*
D30*
X105630Y65390D02*
D03*
X80630D02*
D03*
X283900Y73010D02*
D03*
X258900D02*
D03*
D31*
X234770Y414640D02*
D03*
X183970D02*
D03*
X676730Y409560D02*
D03*
X727530D02*
D03*
X707210Y103490D02*
D03*
X758010D02*
D03*
X911680Y302880D02*
D03*
Y353680D02*
D03*
D32*
X43000Y205090D02*
D03*
X74750Y300340D02*
D03*
X95070Y174610D02*
D03*
X105230Y413370D02*
D03*
X106500Y104760D02*
D03*
X136980Y267320D02*
D03*
X144600Y104760D02*
D03*
X192860Y191120D02*
D03*
X205560Y267320D02*
D03*
X222070Y144130D02*
D03*
X248740Y159370D02*
D03*
X260170Y118730D02*
D03*
X300810Y225410D02*
D03*
X305890Y271130D02*
D03*
X399870Y264780D02*
D03*
Y285100D02*
D03*
X444320Y97140D02*
D03*
X451940Y168260D02*
D03*
X457020Y217790D02*
D03*
X482420Y188580D02*
D03*
X495120Y117460D02*
D03*
X570050Y231760D02*
D03*
X520520Y173340D02*
D03*
X769440Y302880D02*
D03*
X797380Y244460D02*
D03*
X911680Y225410D02*
D03*
M02*
