G04*
G04 #@! TF.GenerationSoftware,Altium Limited,Altium Designer,22.10.1 (41)*
G04*
G04 Layer_Physical_Order=2*
G04 Layer_Color=16711680*
%FSLAX44Y44*%
%MOMM*%
G71*
G04*
G04 #@! TF.SameCoordinates,F3709F11-2DF0-4870-B383-C089ADBA4EFA*
G04*
G04*
G04 #@! TF.FilePolarity,Positive*
G04*
G01*
G75*
%ADD16C,0.3810*%
%ADD40R,1.4000X1.4000*%
%ADD41C,1.4000*%
%ADD46C,1.2192*%
%ADD47C,0.8128*%
%ADD49C,0.2032*%
%ADD51C,1.5240*%
%ADD52C,3.0480*%
%ADD56C,1.5000*%
%ADD57C,2.7750*%
%ADD58C,1.2000*%
%ADD59R,1.7000X1.7000*%
%ADD60C,1.7000*%
%ADD61C,1.2700*%
G36*
X1385667Y1207867D02*
X1384300Y1206500D01*
Y-66040D01*
X-279400D01*
X-280767Y-67407D01*
X-281940Y-66921D01*
Y1209040D01*
X1385181D01*
X1385667Y1207867D01*
D02*
G37*
%LPC*%
G36*
X1092200Y1185221D02*
X1092200Y1185221D01*
X162560D01*
X162560Y1185221D01*
X160836Y1184994D01*
X159229Y1184329D01*
X157850Y1183270D01*
X157850Y1183270D01*
X136630Y1162050D01*
X135990D01*
X133729Y1161444D01*
X131701Y1160274D01*
X130046Y1158619D01*
X128876Y1156591D01*
X128270Y1154330D01*
Y1151990D01*
X128876Y1149729D01*
X130046Y1147701D01*
X131701Y1146046D01*
X133729Y1144876D01*
X135990Y1144270D01*
X138330D01*
X140591Y1144876D01*
X142619Y1146046D01*
X144274Y1147701D01*
X145444Y1149729D01*
X146050Y1151990D01*
Y1152630D01*
X165319Y1171899D01*
X1089441D01*
X1176979Y1084361D01*
Y910151D01*
X1176526Y909699D01*
X1175356Y907671D01*
X1174750Y905410D01*
Y903070D01*
X1175356Y900809D01*
X1176526Y898781D01*
X1178181Y897126D01*
X1180209Y895956D01*
X1182470Y895350D01*
X1184810D01*
X1187071Y895956D01*
X1189099Y897126D01*
X1190754Y898781D01*
X1191924Y900809D01*
X1192530Y903070D01*
Y905410D01*
X1191924Y907671D01*
X1190754Y909699D01*
X1190301Y910151D01*
Y1087120D01*
X1190301Y1087120D01*
X1190074Y1088844D01*
X1189409Y1090451D01*
X1188350Y1091830D01*
X1188350Y1091830D01*
X1096910Y1183270D01*
X1095530Y1184329D01*
X1093924Y1184994D01*
X1092200Y1185221D01*
D02*
G37*
G36*
X424477Y1118775D02*
X421244D01*
X418072Y1118144D01*
X415085Y1116907D01*
X412396Y1115110D01*
X410110Y1112824D01*
X408313Y1110135D01*
X407076Y1107148D01*
X406445Y1103977D01*
Y1100743D01*
X407076Y1097572D01*
X408313Y1094585D01*
X410110Y1091896D01*
X412396Y1089610D01*
X415085Y1087813D01*
X418072Y1086576D01*
X421244Y1085945D01*
X424477D01*
X427648Y1086576D01*
X430636Y1087813D01*
X433324Y1089610D01*
X435611Y1091896D01*
X437407Y1094585D01*
X438644Y1097572D01*
X439275Y1100743D01*
Y1103977D01*
X438644Y1107148D01*
X437407Y1110135D01*
X435611Y1112824D01*
X433324Y1115110D01*
X430636Y1116907D01*
X427648Y1118144D01*
X424477Y1118775D01*
D02*
G37*
G36*
X133697D02*
X130463D01*
X127292Y1118144D01*
X124305Y1116907D01*
X121616Y1115110D01*
X119330Y1112824D01*
X117533Y1110135D01*
X116296Y1107148D01*
X115665Y1103977D01*
Y1100743D01*
X116296Y1097572D01*
X117533Y1094585D01*
X119330Y1091896D01*
X121616Y1089610D01*
X124305Y1087813D01*
X127292Y1086576D01*
X130463Y1085945D01*
X133697D01*
X136868Y1086576D01*
X139855Y1087813D01*
X142544Y1089610D01*
X144830Y1091896D01*
X146627Y1094585D01*
X147864Y1097572D01*
X148495Y1100743D01*
Y1103977D01*
X147864Y1107148D01*
X146627Y1110135D01*
X144830Y1112824D01*
X142544Y1115110D01*
X139855Y1116907D01*
X136868Y1118144D01*
X133697Y1118775D01*
D02*
G37*
G36*
X672177Y1111155D02*
X668943D01*
X665772Y1110524D01*
X662785Y1109287D01*
X660096Y1107490D01*
X657810Y1105204D01*
X656013Y1102515D01*
X654776Y1099528D01*
X654145Y1096357D01*
Y1093123D01*
X654776Y1089952D01*
X656013Y1086965D01*
X657810Y1084276D01*
X660096Y1081990D01*
X662785Y1080193D01*
X665772Y1078956D01*
X668943Y1078325D01*
X672177D01*
X675348Y1078956D01*
X678335Y1080193D01*
X681024Y1081990D01*
X683310Y1084276D01*
X685107Y1086965D01*
X686344Y1089952D01*
X686975Y1093123D01*
Y1096357D01*
X686344Y1099528D01*
X685107Y1102515D01*
X683310Y1105204D01*
X681024Y1107490D01*
X678335Y1109287D01*
X675348Y1110524D01*
X672177Y1111155D01*
D02*
G37*
G36*
X984597Y1106075D02*
X981363D01*
X978192Y1105444D01*
X975205Y1104207D01*
X972516Y1102410D01*
X970230Y1100124D01*
X968433Y1097435D01*
X967196Y1094448D01*
X966565Y1091277D01*
Y1088043D01*
X967196Y1084872D01*
X968433Y1081885D01*
X970230Y1079196D01*
X972516Y1076910D01*
X975205Y1075113D01*
X978192Y1073876D01*
X981363Y1073245D01*
X984597D01*
X987768Y1073876D01*
X990755Y1075113D01*
X993444Y1076910D01*
X995730Y1079196D01*
X997527Y1081885D01*
X998764Y1084872D01*
X999395Y1088043D01*
Y1091277D01*
X998764Y1094448D01*
X997527Y1097435D01*
X995730Y1100124D01*
X993444Y1102410D01*
X990755Y1104207D01*
X987768Y1105444D01*
X984597Y1106075D01*
D02*
G37*
G36*
X483770Y981710D02*
X481430D01*
X479169Y981104D01*
X477141Y979934D01*
X475486Y978279D01*
X474316Y976251D01*
X473710Y973990D01*
Y971650D01*
X474258Y969605D01*
X457176Y952524D01*
X456390Y951348D01*
X456114Y949960D01*
X456114Y949960D01*
Y874312D01*
X454281Y873254D01*
X452626Y871599D01*
X451456Y869571D01*
X450850Y867310D01*
Y864970D01*
X451456Y862709D01*
X452626Y860681D01*
X454281Y859026D01*
X456309Y857856D01*
X458570Y857250D01*
X459898D01*
X460238Y855980D01*
X459361Y855474D01*
X457706Y853819D01*
X456536Y851791D01*
X455930Y849530D01*
Y847190D01*
X456536Y844929D01*
X457706Y842901D01*
X459361Y841246D01*
X461389Y840076D01*
X463650Y839470D01*
X465990D01*
X468251Y840076D01*
X470279Y841246D01*
X471934Y842901D01*
X473104Y844929D01*
X473710Y847190D01*
Y849530D01*
X473104Y851791D01*
X471934Y853819D01*
X470279Y855474D01*
X470106Y855573D01*
X469897Y857160D01*
X472464Y859727D01*
X472464Y859727D01*
X473250Y860903D01*
X473526Y862291D01*
Y870668D01*
X475359Y871726D01*
X477014Y873381D01*
X478184Y875409D01*
X478790Y877670D01*
Y880010D01*
X478184Y882271D01*
X477014Y884299D01*
X475359Y885954D01*
X473331Y887124D01*
X471070Y887730D01*
X468730D01*
X466469Y887124D01*
X464636Y886066D01*
X463366Y886479D01*
Y948458D01*
X479385Y964478D01*
X481430Y963930D01*
X483770D01*
X486031Y964536D01*
X488059Y965706D01*
X489714Y967361D01*
X490884Y969389D01*
X491490Y971650D01*
Y973990D01*
X490884Y976251D01*
X489714Y978279D01*
X488059Y979934D01*
X486031Y981104D01*
X483770Y981710D01*
D02*
G37*
G36*
X474980Y995132D02*
X473246Y994787D01*
X471775Y993805D01*
X471775Y993805D01*
X435966Y957995D01*
X434983Y956525D01*
X434639Y954791D01*
Y928955D01*
X400092Y894409D01*
X399059Y894686D01*
X396718D01*
X394457Y894080D01*
X392430Y892910D01*
X390775Y891254D01*
X389604Y889227D01*
X388999Y886966D01*
Y884625D01*
X389604Y882364D01*
X390775Y880337D01*
X392430Y878682D01*
X394457Y877512D01*
X396718Y876906D01*
X399059D01*
X401320Y877512D01*
X403347Y878682D01*
X405002Y880337D01*
X406173Y882364D01*
X406779Y884625D01*
Y886966D01*
X406502Y888000D01*
X442375Y923873D01*
X442375Y923873D01*
X443358Y925343D01*
X443703Y927078D01*
X443703Y927078D01*
Y952913D01*
X476857Y986068D01*
X531408D01*
Y949989D01*
X530481Y949454D01*
X528826Y947799D01*
X527656Y945771D01*
X527050Y943510D01*
Y941170D01*
X527656Y938909D01*
X528826Y936881D01*
X530481Y935226D01*
X532509Y934056D01*
X534770Y933450D01*
X537110D01*
X539371Y934056D01*
X541399Y935226D01*
X543054Y936881D01*
X544224Y938909D01*
X544830Y941170D01*
Y943510D01*
X544224Y945771D01*
X543054Y947799D01*
X541399Y949454D01*
X540472Y949989D01*
Y988060D01*
X540127Y989794D01*
X539145Y991265D01*
X539145Y991265D01*
X536605Y993805D01*
X535134Y994787D01*
X533400Y995132D01*
X474980D01*
X474980Y995132D01*
D02*
G37*
G36*
X1271617Y938435D02*
X1268383D01*
X1265212Y937804D01*
X1262225Y936567D01*
X1259536Y934770D01*
X1257250Y932484D01*
X1255453Y929795D01*
X1254216Y926808D01*
X1253585Y923637D01*
Y920403D01*
X1254216Y917232D01*
X1255453Y914245D01*
X1257250Y911556D01*
X1259536Y909270D01*
X1262225Y907473D01*
X1265212Y906236D01*
X1268383Y905605D01*
X1271617D01*
X1274788Y906236D01*
X1277775Y907473D01*
X1280464Y909270D01*
X1282750Y911556D01*
X1284547Y914245D01*
X1285784Y917232D01*
X1286415Y920403D01*
Y923637D01*
X1285784Y926808D01*
X1284547Y929795D01*
X1282750Y932484D01*
X1280464Y934770D01*
X1277775Y936567D01*
X1274788Y937804D01*
X1271617Y938435D01*
D02*
G37*
G36*
X-166023Y914255D02*
X-169257D01*
X-172428Y913624D01*
X-175415Y912387D01*
X-178104Y910591D01*
X-180390Y908304D01*
X-182187Y905616D01*
X-183424Y902628D01*
X-184055Y899457D01*
Y896224D01*
X-183424Y893052D01*
X-182187Y890065D01*
X-180390Y887376D01*
X-178104Y885090D01*
X-175415Y883293D01*
X-172428Y882056D01*
X-169257Y881425D01*
X-166023D01*
X-162852Y882056D01*
X-159865Y883293D01*
X-157176Y885090D01*
X-154890Y887376D01*
X-153093Y890065D01*
X-151856Y893052D01*
X-151225Y896224D01*
Y899457D01*
X-151856Y902628D01*
X-153093Y905616D01*
X-154890Y908304D01*
X-157176Y910591D01*
X-159865Y912387D01*
X-162852Y913624D01*
X-166023Y914255D01*
D02*
G37*
G36*
X245856Y889612D02*
X243203Y889263D01*
X240732Y888239D01*
X238609Y886610D01*
X236981Y884488D01*
X235957Y882017D01*
X235608Y879364D01*
X235957Y876712D01*
X236981Y874240D01*
X238609Y872118D01*
X238610Y872118D01*
X239134Y871594D01*
X239134Y871594D01*
X241256Y869965D01*
X243728Y868941D01*
X246380Y868592D01*
X246380Y868592D01*
X292100D01*
X294752Y868941D01*
X297224Y869965D01*
X299346Y871594D01*
X300975Y873716D01*
X301999Y876188D01*
X302348Y878840D01*
X301999Y881492D01*
X300975Y883964D01*
X299346Y886086D01*
X297224Y887715D01*
X294752Y888738D01*
X292100Y889088D01*
X248931D01*
X248508Y889263D01*
X245856Y889612D01*
D02*
G37*
G36*
X328830Y961390D02*
X326490D01*
X324229Y960784D01*
X322201Y959614D01*
X320546Y957959D01*
X319376Y955931D01*
X318770Y953670D01*
Y951330D01*
X319376Y949069D01*
X320546Y947041D01*
X322201Y945386D01*
X323128Y944851D01*
Y865477D01*
X299384Y841733D01*
X298350Y842010D01*
X296010D01*
X293749Y841404D01*
X291721Y840234D01*
X290066Y838579D01*
X288896Y836551D01*
X288290Y834290D01*
Y831950D01*
X288896Y829689D01*
X290066Y827661D01*
X291721Y826006D01*
X293749Y824836D01*
X296010Y824230D01*
X298350D01*
X300611Y824836D01*
X302639Y826006D01*
X304294Y827661D01*
X305464Y829689D01*
X306070Y831950D01*
Y834290D01*
X305793Y835324D01*
X330865Y860395D01*
X330865Y860395D01*
X331847Y861866D01*
X332192Y863600D01*
Y944851D01*
X333119Y945386D01*
X334774Y947041D01*
X335944Y949069D01*
X336550Y951330D01*
Y953670D01*
X335944Y955931D01*
X334774Y957959D01*
X333119Y959614D01*
X331091Y960784D01*
X328830Y961390D01*
D02*
G37*
G36*
X908233Y856860D02*
X905327D01*
X902519Y856108D01*
X900001Y854654D01*
X897946Y852599D01*
X896492Y850081D01*
X895740Y847273D01*
Y844367D01*
X896492Y841559D01*
X897946Y839041D01*
X900001Y836986D01*
X902519Y835532D01*
X905327Y834780D01*
X908233D01*
X911041Y835532D01*
X913559Y836986D01*
X915614Y839041D01*
X917068Y841559D01*
X917820Y844367D01*
Y847273D01*
X917068Y850081D01*
X915614Y852599D01*
X913559Y854654D01*
X911041Y856108D01*
X908233Y856860D01*
D02*
G37*
G36*
X595530Y946150D02*
X593190D01*
X590929Y945544D01*
X588901Y944374D01*
X587246Y942719D01*
X586076Y940691D01*
X585470Y938430D01*
Y936090D01*
X586076Y933829D01*
X587246Y931801D01*
X587699Y931349D01*
Y873979D01*
X535721Y822001D01*
X327660D01*
X325936Y821774D01*
X324329Y821109D01*
X322950Y820050D01*
X322950Y820050D01*
X307121Y804221D01*
X259299D01*
X250501Y813019D01*
Y850069D01*
X250954Y850521D01*
X252124Y852549D01*
X252730Y854810D01*
Y857150D01*
X252124Y859411D01*
X250954Y861439D01*
X249299Y863094D01*
X247271Y864264D01*
X245010Y864870D01*
X242670D01*
X240409Y864264D01*
X238381Y863094D01*
X236726Y861439D01*
X235556Y859411D01*
X234950Y857150D01*
Y856510D01*
X223890Y845450D01*
X222831Y844071D01*
X222166Y842464D01*
X221939Y840740D01*
X221939Y840740D01*
Y779780D01*
X221939Y779780D01*
X222166Y778056D01*
X222831Y776450D01*
X223890Y775070D01*
X246313Y752647D01*
X246313Y752647D01*
X247692Y751589D01*
X249299Y750923D01*
X251023Y750696D01*
X251023Y750696D01*
X327206D01*
X373952Y703950D01*
X373952Y703950D01*
X375332Y702891D01*
X376938Y702226D01*
X378662Y701999D01*
X378663Y701999D01*
X413189D01*
X413641Y701546D01*
X415669Y700376D01*
X417930Y699770D01*
X420270D01*
X422531Y700376D01*
X424559Y701546D01*
X426214Y703201D01*
X427384Y705229D01*
X427990Y707490D01*
Y709830D01*
X427384Y712091D01*
X426214Y714119D01*
X424559Y715774D01*
X422531Y716944D01*
X420270Y717550D01*
X417930D01*
X415669Y716944D01*
X413641Y715774D01*
X413189Y715321D01*
X381421D01*
X334675Y762067D01*
X333295Y763126D01*
X331689Y763791D01*
X329965Y764018D01*
X329965Y764018D01*
X253782D01*
X235261Y782539D01*
Y837811D01*
X235965Y838375D01*
X237179Y837840D01*
Y810260D01*
X237179Y810260D01*
X237406Y808536D01*
X238071Y806929D01*
X239130Y805550D01*
X251830Y792850D01*
X251830Y792850D01*
X253209Y791791D01*
X254816Y791126D01*
X256540Y790899D01*
X256540Y790899D01*
X309880D01*
X309880Y790899D01*
X311604Y791126D01*
X313211Y791791D01*
X314590Y792850D01*
X330419Y808679D01*
X430642D01*
X430982Y807409D01*
X430852Y807334D01*
X429076Y805558D01*
X427820Y803382D01*
X427170Y800956D01*
Y798444D01*
X427820Y796018D01*
X429076Y793842D01*
X430852Y792066D01*
X433027Y790810D01*
X435454Y790160D01*
X437966D01*
X440392Y790810D01*
X442567Y792066D01*
X444344Y793842D01*
X445600Y796018D01*
X446250Y798444D01*
Y800956D01*
X445600Y803382D01*
X444344Y805558D01*
X442567Y807334D01*
X442438Y807409D01*
X442778Y808679D01*
X538480D01*
X538480Y808679D01*
X540204Y808906D01*
X541810Y809571D01*
X543190Y810630D01*
X599070Y866510D01*
X599070Y866510D01*
X600129Y867889D01*
X600794Y869496D01*
X601021Y871220D01*
X601021Y871220D01*
Y931349D01*
X601474Y931801D01*
X602644Y933829D01*
X603250Y936090D01*
Y938430D01*
X602644Y940691D01*
X601474Y942719D01*
X599819Y944374D01*
X597791Y945544D01*
X595530Y946150D01*
D02*
G37*
G36*
X437966Y784240D02*
X435454D01*
X433027Y783590D01*
X430852Y782334D01*
X429076Y780558D01*
X427820Y778382D01*
X427170Y775956D01*
Y773444D01*
X427820Y771018D01*
X429076Y768842D01*
X430852Y767066D01*
X433027Y765810D01*
X435454Y765160D01*
X437966D01*
X440392Y765810D01*
X442567Y767066D01*
X444344Y768842D01*
X445600Y771018D01*
X446250Y773444D01*
Y775956D01*
X445600Y778382D01*
X444344Y780558D01*
X442567Y782334D01*
X440392Y783590D01*
X437966Y784240D01*
D02*
G37*
G36*
X446250Y759240D02*
X427170D01*
Y740160D01*
X446250D01*
Y759240D01*
D02*
G37*
G36*
X1057726Y755900D02*
X1055214D01*
X1052787Y755249D01*
X1050612Y753994D01*
X1048836Y752217D01*
X1047580Y750042D01*
X1046930Y747616D01*
Y745104D01*
X1047580Y742677D01*
X1048836Y740502D01*
X1050612Y738726D01*
X1052787Y737470D01*
X1055214Y736820D01*
X1057726D01*
X1060152Y737470D01*
X1062327Y738726D01*
X1064104Y740502D01*
X1065360Y742677D01*
X1066010Y745104D01*
Y747616D01*
X1065360Y750042D01*
X1064104Y752217D01*
X1062327Y753994D01*
X1060152Y755249D01*
X1057726Y755900D01*
D02*
G37*
G36*
Y730900D02*
X1055214D01*
X1052787Y730250D01*
X1050612Y728994D01*
X1048836Y727218D01*
X1047580Y725042D01*
X1046930Y722616D01*
Y720104D01*
X1047580Y717678D01*
X1048836Y715502D01*
X1050612Y713726D01*
X1052787Y712470D01*
X1055214Y711820D01*
X1057726D01*
X1060152Y712470D01*
X1062327Y713726D01*
X1064104Y715502D01*
X1065360Y717678D01*
X1066010Y720104D01*
Y722616D01*
X1065360Y725042D01*
X1064104Y727218D01*
X1062327Y728994D01*
X1060152Y730250D01*
X1057726Y730900D01*
D02*
G37*
G36*
X615850Y725170D02*
X613510D01*
X611249Y724564D01*
X609221Y723394D01*
X608769Y722941D01*
X566420D01*
X564696Y722714D01*
X563089Y722049D01*
X561710Y720990D01*
X561710Y720990D01*
X492230Y651510D01*
X491590D01*
X489329Y650904D01*
X488830Y650616D01*
X488050Y651633D01*
X489034Y652616D01*
X490158Y654564D01*
X490740Y656736D01*
Y658984D01*
X490158Y661156D01*
X489034Y663104D01*
X487444Y664694D01*
X485496Y665818D01*
X483325Y666400D01*
X481076D01*
X478904Y665818D01*
X476956Y664694D01*
X475367Y663104D01*
X474242Y661156D01*
X473660Y658984D01*
Y656736D01*
X474242Y654564D01*
X475367Y652616D01*
X476956Y651026D01*
X478904Y649902D01*
X481076Y649320D01*
X483325D01*
X485496Y649902D01*
X485915Y650144D01*
X486695Y649128D01*
X485646Y648079D01*
X484476Y646051D01*
X483870Y643790D01*
Y641450D01*
X484476Y639189D01*
X485646Y637161D01*
X487301Y635506D01*
X489329Y634336D01*
X491590Y633730D01*
X493930D01*
X496191Y634336D01*
X498219Y635506D01*
X499874Y637161D01*
X501044Y639189D01*
X501650Y641450D01*
Y642090D01*
X569179Y709619D01*
X608769D01*
X609221Y709166D01*
X611249Y707996D01*
X613510Y707390D01*
X615850D01*
X618111Y707996D01*
X620139Y709166D01*
X621794Y710821D01*
X622964Y712849D01*
X623570Y715110D01*
Y717450D01*
X622964Y719711D01*
X621794Y721739D01*
X620139Y723394D01*
X618111Y724564D01*
X615850Y725170D01*
D02*
G37*
G36*
X1066010Y705900D02*
X1046930D01*
Y686820D01*
X1066010D01*
Y705900D01*
D02*
G37*
G36*
X-15192Y711867D02*
X-17836D01*
X-20389Y711183D01*
X-22679Y709861D01*
X-24548Y707992D01*
X-25870Y705703D01*
X-26554Y703149D01*
Y700506D01*
X-25870Y697952D01*
X-24548Y695663D01*
X-22679Y693793D01*
X-20421Y692490D01*
X-20355Y692214D01*
Y691441D01*
X-20421Y691165D01*
X-22679Y689861D01*
X-24548Y687992D01*
X-25870Y685703D01*
X-26554Y683149D01*
Y680506D01*
X-25870Y677952D01*
X-24548Y675663D01*
X-22679Y673793D01*
X-20389Y672472D01*
X-17836Y671787D01*
X-15192D01*
X-12639Y672472D01*
X-10349Y673793D01*
X-8480Y675663D01*
X-7158Y677952D01*
X-6474Y680506D01*
Y683149D01*
X-7158Y685703D01*
X-8480Y687992D01*
X-10349Y689861D01*
X-12608Y691165D01*
X-12673Y691441D01*
Y692214D01*
X-12608Y692490D01*
X-10349Y693793D01*
X-8480Y695663D01*
X-7158Y697952D01*
X-6474Y700506D01*
Y703149D01*
X-7158Y705703D01*
X-8480Y707992D01*
X-10349Y709861D01*
X-12639Y711183D01*
X-15192Y711867D01*
D02*
G37*
G36*
X588062Y706940D02*
X585418D01*
X582865Y706256D01*
X580575Y704934D01*
X578706Y703065D01*
X577384Y700776D01*
X576700Y698222D01*
Y695579D01*
X577384Y693025D01*
X578706Y690736D01*
X580575Y688866D01*
X582833Y687563D01*
X582899Y687287D01*
Y686514D01*
X582833Y686238D01*
X580575Y684934D01*
X578706Y683065D01*
X577384Y680776D01*
X576700Y678222D01*
Y675579D01*
X577384Y673025D01*
X578706Y670736D01*
X580575Y668866D01*
X582865Y667545D01*
X585418Y666860D01*
X588062D01*
X590615Y667545D01*
X592905Y668866D01*
X594774Y670736D01*
X596096Y673025D01*
X596780Y675579D01*
Y678222D01*
X596096Y680776D01*
X594774Y683065D01*
X592905Y684934D01*
X590647Y686238D01*
X590581Y686514D01*
Y687287D01*
X590647Y687563D01*
X592905Y688866D01*
X594774Y690736D01*
X596096Y693025D01*
X596780Y695579D01*
Y698222D01*
X596096Y700776D01*
X594774Y703065D01*
X592905Y704934D01*
X590615Y706256D01*
X588062Y706940D01*
D02*
G37*
G36*
X433325Y666400D02*
X431076D01*
X428904Y665818D01*
X426957Y664694D01*
X425367Y663104D01*
X424242Y661156D01*
X423660Y658984D01*
Y656736D01*
X424242Y654564D01*
X425367Y652616D01*
X426957Y651026D01*
X428904Y649902D01*
X431076Y649320D01*
X433325D01*
X435497Y649902D01*
X437444Y651026D01*
X439034Y652616D01*
X440158Y654564D01*
X440740Y656736D01*
Y658984D01*
X440158Y661156D01*
X439034Y663104D01*
X437444Y664694D01*
X435497Y665818D01*
X433325Y666400D01*
D02*
G37*
G36*
X-15192Y651868D02*
X-17836D01*
X-20389Y651183D01*
X-22679Y649862D01*
X-24548Y647992D01*
X-25870Y645703D01*
X-26554Y643149D01*
Y640506D01*
X-25870Y637952D01*
X-24548Y635663D01*
X-22679Y633793D01*
X-20389Y632472D01*
X-17836Y631787D01*
X-15192D01*
X-12639Y632472D01*
X-10349Y633793D01*
X-8480Y635663D01*
X-7158Y637952D01*
X-6474Y640506D01*
Y643149D01*
X-7158Y645703D01*
X-8480Y647992D01*
X-10349Y649862D01*
X-12639Y651183D01*
X-15192Y651868D01*
D02*
G37*
G36*
X588062Y646940D02*
X585418D01*
X582865Y646256D01*
X580575Y644934D01*
X578706Y643065D01*
X577384Y640775D01*
X576700Y638222D01*
Y635578D01*
X577384Y633025D01*
X578706Y630735D01*
X580575Y628866D01*
X582865Y627544D01*
X585418Y626860D01*
X588062D01*
X590615Y627544D01*
X592905Y628866D01*
X594774Y630735D01*
X596096Y633025D01*
X596780Y635578D01*
Y638222D01*
X596096Y640775D01*
X594774Y643065D01*
X592905Y644934D01*
X590615Y646256D01*
X588062Y646940D01*
D02*
G37*
G36*
X1070464Y637660D02*
X1068216D01*
X1066044Y637078D01*
X1064096Y635954D01*
X1062506Y634364D01*
X1061382Y632417D01*
X1060800Y630245D01*
Y627996D01*
X1061382Y625824D01*
X1062506Y623877D01*
X1064096Y622287D01*
X1066044Y621162D01*
X1068216Y620580D01*
X1070464D01*
X1072636Y621162D01*
X1074584Y622287D01*
X1076174Y623877D01*
X1077298Y625824D01*
X1077880Y627996D01*
Y630245D01*
X1077298Y632417D01*
X1076174Y634364D01*
X1074584Y635954D01*
X1072636Y637078D01*
X1070464Y637660D01*
D02*
G37*
G36*
X1276697Y652635D02*
X1273463D01*
X1270292Y652004D01*
X1267305Y650767D01*
X1264616Y648971D01*
X1262330Y646684D01*
X1260533Y643996D01*
X1259296Y641008D01*
X1258665Y637837D01*
Y634604D01*
X1259296Y631432D01*
X1260533Y628445D01*
X1262330Y625756D01*
X1264616Y623470D01*
X1267305Y621673D01*
X1270292Y620436D01*
X1273463Y619805D01*
X1276697D01*
X1279868Y620436D01*
X1282855Y621673D01*
X1285544Y623470D01*
X1287830Y625756D01*
X1289627Y628445D01*
X1290864Y631432D01*
X1291495Y634604D01*
Y637837D01*
X1290864Y641008D01*
X1289627Y643996D01*
X1287830Y646684D01*
X1285544Y648971D01*
X1282855Y650767D01*
X1279868Y652004D01*
X1276697Y652635D01*
D02*
G37*
G36*
X-160943Y651415D02*
X-164177D01*
X-167348Y650784D01*
X-170335Y649547D01*
X-173024Y647750D01*
X-175310Y645464D01*
X-177107Y642775D01*
X-178344Y639788D01*
X-178975Y636617D01*
Y633383D01*
X-178344Y630212D01*
X-177107Y627225D01*
X-175310Y624536D01*
X-173024Y622250D01*
X-170335Y620453D01*
X-167348Y619216D01*
X-164177Y618585D01*
X-160943D01*
X-157772Y619216D01*
X-154785Y620453D01*
X-152096Y622250D01*
X-149810Y624536D01*
X-148013Y627225D01*
X-146776Y630212D01*
X-146145Y633383D01*
Y636617D01*
X-146776Y639788D01*
X-148013Y642775D01*
X-149810Y645464D01*
X-152096Y647750D01*
X-154785Y649547D01*
X-157772Y650784D01*
X-160943Y651415D01*
D02*
G37*
G36*
X340408Y691867D02*
X337764D01*
X335211Y691183D01*
X332921Y689861D01*
X331052Y687992D01*
X329730Y685703D01*
X329046Y683149D01*
Y680506D01*
X329730Y677952D01*
X331052Y675663D01*
X332921Y673793D01*
X335211Y672472D01*
X336654Y672085D01*
Y670770D01*
X335211Y670383D01*
X332921Y669061D01*
X331052Y667192D01*
X329730Y664903D01*
X329046Y662349D01*
Y659706D01*
X329730Y657152D01*
X331052Y654863D01*
X332921Y652993D01*
X334364Y652161D01*
Y650694D01*
X332921Y649862D01*
X331052Y647992D01*
X329730Y645703D01*
X329046Y643149D01*
Y640506D01*
X329730Y637952D01*
X331052Y635663D01*
X332921Y633793D01*
X335211Y632472D01*
X336654Y632085D01*
Y630770D01*
X335211Y630383D01*
X332921Y629062D01*
X331052Y627192D01*
X329730Y624903D01*
X329046Y622349D01*
Y619706D01*
X329730Y617152D01*
X331052Y614863D01*
X332921Y612994D01*
X335211Y611672D01*
X337764Y610988D01*
X340408D01*
X342961Y611672D01*
X345251Y612994D01*
X347120Y614863D01*
X348442Y617152D01*
X349126Y619706D01*
Y622349D01*
X348442Y624903D01*
X347120Y627192D01*
X345251Y629062D01*
X342961Y630383D01*
X341517Y630770D01*
Y632085D01*
X342961Y632472D01*
X345251Y633793D01*
X347120Y635663D01*
X348442Y637952D01*
X349126Y640506D01*
Y643149D01*
X348442Y645703D01*
X347120Y647992D01*
X345251Y649862D01*
X343808Y650694D01*
Y652161D01*
X345251Y652993D01*
X347120Y654863D01*
X348442Y657152D01*
X349126Y659706D01*
Y662349D01*
X348442Y664903D01*
X347120Y667192D01*
X345251Y669061D01*
X342961Y670383D01*
X341517Y670770D01*
Y672085D01*
X342961Y672472D01*
X345251Y673793D01*
X347120Y675663D01*
X348442Y677952D01*
X349126Y680506D01*
Y683149D01*
X348442Y685703D01*
X347120Y687992D01*
X345251Y689861D01*
X342961Y691183D01*
X340408Y691867D01*
D02*
G37*
G36*
X969062Y686940D02*
X966418D01*
X963865Y686256D01*
X961575Y684934D01*
X959706Y683065D01*
X958384Y680776D01*
X957700Y678222D01*
Y675579D01*
X958384Y673025D01*
X959706Y670736D01*
X961575Y668866D01*
X963865Y667545D01*
X965308Y667158D01*
Y665843D01*
X963865Y665456D01*
X961575Y664134D01*
X959706Y662265D01*
X958384Y659976D01*
X957700Y657422D01*
Y654779D01*
X958384Y652225D01*
X959706Y649936D01*
X961575Y648066D01*
X963018Y647233D01*
Y645767D01*
X961575Y644934D01*
X959706Y643065D01*
X958384Y640775D01*
X957700Y638222D01*
Y635578D01*
X958384Y633025D01*
X959706Y630735D01*
X961575Y628866D01*
X963865Y627544D01*
X965308Y627157D01*
Y625843D01*
X963865Y625456D01*
X961575Y624134D01*
X959706Y622265D01*
X958384Y619975D01*
X957700Y617422D01*
Y614778D01*
X958384Y612225D01*
X959706Y609935D01*
X961575Y608066D01*
X963865Y606744D01*
X966418Y606060D01*
X969062D01*
X971615Y606744D01*
X973905Y608066D01*
X975774Y609935D01*
X977096Y612225D01*
X977780Y614778D01*
Y617422D01*
X977096Y619975D01*
X975774Y622265D01*
X973905Y624134D01*
X971615Y625456D01*
X970172Y625843D01*
Y627157D01*
X971615Y627544D01*
X973905Y628866D01*
X975774Y630735D01*
X977096Y633025D01*
X977780Y635578D01*
Y638222D01*
X977096Y640775D01*
X975774Y643065D01*
X973905Y644934D01*
X972462Y645767D01*
Y647233D01*
X973905Y648066D01*
X975774Y649936D01*
X977096Y652225D01*
X977780Y654779D01*
Y657422D01*
X977096Y659976D01*
X975774Y662265D01*
X973905Y664134D01*
X971615Y665456D01*
X970172Y665843D01*
Y667158D01*
X971615Y667545D01*
X973905Y668866D01*
X975774Y670736D01*
X977096Y673025D01*
X977780Y675579D01*
Y678222D01*
X977096Y680776D01*
X975774Y683065D01*
X973905Y684934D01*
X971615Y686256D01*
X969062Y686940D01*
D02*
G37*
G36*
X943662D02*
X941018D01*
X938465Y686256D01*
X936175Y684934D01*
X934306Y683065D01*
X932984Y680776D01*
X932300Y678222D01*
Y675579D01*
X932984Y673025D01*
X934306Y670736D01*
X936175Y668866D01*
X938465Y667545D01*
X939908Y667158D01*
Y665843D01*
X938465Y665456D01*
X936175Y664134D01*
X934306Y662265D01*
X932984Y659976D01*
X932300Y657422D01*
Y654779D01*
X932984Y652225D01*
X934306Y649936D01*
X936175Y648066D01*
X937618Y647233D01*
Y645767D01*
X936175Y644934D01*
X934306Y643065D01*
X932984Y640775D01*
X932300Y638222D01*
Y635578D01*
X932984Y633025D01*
X934306Y630735D01*
X936175Y628866D01*
X938465Y627544D01*
X939908Y627157D01*
Y625843D01*
X938465Y625456D01*
X936175Y624134D01*
X934306Y622265D01*
X932984Y619975D01*
X932300Y617422D01*
Y614778D01*
X932984Y612225D01*
X934306Y609935D01*
X936175Y608066D01*
X938465Y606744D01*
X941018Y606060D01*
X943662D01*
X946215Y606744D01*
X948505Y608066D01*
X950374Y609935D01*
X951696Y612225D01*
X952380Y614778D01*
Y617422D01*
X951696Y619975D01*
X950374Y622265D01*
X948505Y624134D01*
X946215Y625456D01*
X944772Y625843D01*
Y627157D01*
X946215Y627544D01*
X948505Y628866D01*
X950374Y630735D01*
X951696Y633025D01*
X952380Y635578D01*
Y638222D01*
X951696Y640775D01*
X950374Y643065D01*
X948505Y644934D01*
X947062Y645767D01*
Y647233D01*
X948505Y648066D01*
X950374Y649936D01*
X951696Y652225D01*
X952380Y654779D01*
Y657422D01*
X951696Y659976D01*
X950374Y662265D01*
X948505Y664134D01*
X946215Y665456D01*
X944772Y665843D01*
Y667158D01*
X946215Y667545D01*
X948505Y668866D01*
X950374Y670736D01*
X951696Y673025D01*
X952380Y675579D01*
Y678222D01*
X951696Y680776D01*
X950374Y683065D01*
X948505Y684934D01*
X946215Y686256D01*
X943662Y686940D01*
D02*
G37*
G36*
X365808Y691867D02*
X363164D01*
X360611Y691183D01*
X358321Y689861D01*
X356452Y687992D01*
X355130Y685703D01*
X354446Y683149D01*
Y680506D01*
X355130Y677952D01*
X356452Y675663D01*
X358321Y673793D01*
X360611Y672472D01*
X362054Y672085D01*
Y670770D01*
X360611Y670383D01*
X358321Y669061D01*
X356452Y667192D01*
X355130Y664903D01*
X354446Y662349D01*
Y659706D01*
X355130Y657152D01*
X356452Y654863D01*
X358321Y652993D01*
X359763Y652161D01*
Y650694D01*
X358321Y649862D01*
X356452Y647992D01*
X355130Y645703D01*
X354446Y643149D01*
Y640506D01*
X355130Y637952D01*
X356452Y635663D01*
X358321Y633793D01*
X360611Y632472D01*
X362054Y632085D01*
Y630770D01*
X360611Y630383D01*
X358321Y629062D01*
X356452Y627192D01*
X355130Y624903D01*
X354446Y622349D01*
Y619706D01*
X355130Y617152D01*
X356452Y614863D01*
X358321Y612994D01*
X360611Y611672D01*
X363164Y610988D01*
X365808D01*
X368361Y611672D01*
X370651Y612994D01*
X372520Y614863D01*
X373559Y616663D01*
X374829Y616323D01*
Y585732D01*
X373559Y585392D01*
X372520Y587192D01*
X370651Y589062D01*
X368361Y590383D01*
X365808Y591068D01*
X363164D01*
X360611Y590383D01*
X358321Y589062D01*
X356452Y587192D01*
X355130Y584903D01*
X354446Y582349D01*
Y579706D01*
X355130Y577152D01*
X356452Y574863D01*
X358321Y572994D01*
X359763Y572161D01*
Y570694D01*
X358321Y569862D01*
X356452Y567992D01*
X355130Y565703D01*
X354446Y563149D01*
Y560506D01*
X355130Y557952D01*
X356452Y555663D01*
X358321Y553794D01*
X360611Y552472D01*
X362054Y552085D01*
Y550770D01*
X360611Y550383D01*
X358321Y549062D01*
X356452Y547192D01*
X355130Y544903D01*
X354446Y542349D01*
Y539706D01*
X355130Y537152D01*
X356452Y534863D01*
X358321Y532994D01*
X359764Y532161D01*
Y530694D01*
X358321Y529861D01*
X356452Y527992D01*
X355130Y525703D01*
X354446Y523149D01*
Y520505D01*
X355130Y517952D01*
X356452Y515662D01*
X358321Y513793D01*
X360611Y512472D01*
X363164Y511787D01*
X365808D01*
X368361Y512472D01*
X370651Y513793D01*
X372520Y515662D01*
X373842Y517952D01*
X374526Y520505D01*
Y523149D01*
X373842Y525703D01*
X372520Y527992D01*
X370651Y529861D01*
X369208Y530694D01*
Y532161D01*
X370651Y532994D01*
X372520Y534863D01*
X373842Y537152D01*
X374526Y539706D01*
Y542349D01*
X373842Y544903D01*
X372520Y547192D01*
X370651Y549062D01*
X368361Y550383D01*
X366917Y550770D01*
Y552085D01*
X368361Y552472D01*
X370651Y553794D01*
X372520Y555663D01*
X373559Y557463D01*
X374829Y557123D01*
Y551180D01*
X375126Y548926D01*
X375997Y546825D01*
X377381Y545021D01*
X468821Y453581D01*
X470625Y452197D01*
X472725Y451326D01*
X474980Y451030D01*
X582360D01*
X583030Y450850D01*
X585370D01*
X587631Y451456D01*
X589659Y452626D01*
X591314Y454281D01*
X592484Y456309D01*
X593090Y458570D01*
Y460910D01*
X592484Y463171D01*
X591314Y465199D01*
X589659Y466854D01*
X587631Y468024D01*
X585370Y468630D01*
X583030D01*
X582360Y468451D01*
X483903D01*
X483631Y469720D01*
X485304Y470686D01*
X486894Y472276D01*
X488018Y474224D01*
X488600Y476396D01*
Y478644D01*
X488018Y480816D01*
X486894Y482764D01*
X485304Y484354D01*
X483356Y485478D01*
X481184Y486060D01*
X478936D01*
X476764Y485478D01*
X474816Y484354D01*
X473226Y482764D01*
X472102Y480816D01*
X471520Y478644D01*
Y477315D01*
X470250Y476788D01*
X392251Y554788D01*
Y617920D01*
X392430Y618590D01*
Y620930D01*
X391824Y623191D01*
X390654Y625219D01*
X388999Y626874D01*
X386971Y628044D01*
X384710Y628650D01*
X382370D01*
X380109Y628044D01*
X378081Y626874D01*
X376426Y625219D01*
X375501Y623616D01*
X374147Y623762D01*
X373842Y624903D01*
X372520Y627192D01*
X370651Y629062D01*
X368361Y630383D01*
X366917Y630770D01*
Y632085D01*
X368361Y632472D01*
X370651Y633793D01*
X372520Y635663D01*
X373842Y637952D01*
X374526Y640506D01*
Y643149D01*
X373842Y645703D01*
X372520Y647992D01*
X370651Y649862D01*
X369208Y650694D01*
Y652161D01*
X370651Y652993D01*
X372520Y654863D01*
X373842Y657152D01*
X374526Y659706D01*
Y662349D01*
X373842Y664903D01*
X372520Y667192D01*
X370651Y669061D01*
X368361Y670383D01*
X366917Y670770D01*
Y672085D01*
X368361Y672472D01*
X370651Y673793D01*
X372520Y675663D01*
X373842Y677952D01*
X374526Y680506D01*
Y683149D01*
X373842Y685703D01*
X372520Y687992D01*
X370651Y689861D01*
X368361Y691183D01*
X365808Y691867D01*
D02*
G37*
G36*
X1070464Y587660D02*
X1068216D01*
X1066044Y587078D01*
X1064096Y585954D01*
X1062506Y584364D01*
X1061382Y582416D01*
X1060800Y580244D01*
Y577996D01*
X1061382Y575824D01*
X1062506Y573876D01*
X1064096Y572286D01*
X1066044Y571162D01*
X1068216Y570580D01*
X1070464D01*
X1072636Y571162D01*
X1074584Y572286D01*
X1076174Y573876D01*
X1077298Y575824D01*
X1077880Y577996D01*
Y580244D01*
X1077298Y582416D01*
X1076174Y584364D01*
X1074584Y585954D01*
X1072636Y587078D01*
X1070464Y587660D01*
D02*
G37*
G36*
X483324Y577500D02*
X481075D01*
X478903Y576918D01*
X476956Y575794D01*
X475366Y574204D01*
X474242Y572256D01*
X473660Y570084D01*
Y567836D01*
X474242Y565664D01*
X475366Y563716D01*
X476956Y562126D01*
X478903Y561002D01*
X481075Y560420D01*
X483324D01*
X485496Y561002D01*
X487443Y562126D01*
X489033Y563716D01*
X490158Y565664D01*
X490740Y567836D01*
Y570084D01*
X490158Y572256D01*
X489033Y574204D01*
X487443Y575794D01*
X485496Y576918D01*
X483324Y577500D01*
D02*
G37*
G36*
X433324D02*
X431076D01*
X428904Y576918D01*
X426956Y575794D01*
X425366Y574204D01*
X424242Y572256D01*
X423660Y570084D01*
Y567836D01*
X424242Y565664D01*
X425366Y563716D01*
X426956Y562126D01*
X428904Y561002D01*
X431076Y560420D01*
X433324D01*
X435496Y561002D01*
X437444Y562126D01*
X439034Y563716D01*
X440158Y565664D01*
X440740Y567836D01*
Y570084D01*
X440158Y572256D01*
X439034Y574204D01*
X437444Y575794D01*
X435496Y576918D01*
X433324Y577500D01*
D02*
G37*
G36*
X638710Y996950D02*
X636370D01*
X634109Y996344D01*
X632081Y995174D01*
X630426Y993519D01*
X629256Y991491D01*
X628650Y989230D01*
Y986890D01*
X629256Y984629D01*
X630426Y982601D01*
X632081Y980946D01*
X632682Y980600D01*
X903149Y710132D01*
Y532700D01*
X902970Y532030D01*
Y529690D01*
X903576Y527429D01*
X904746Y525401D01*
X906401Y523746D01*
X908429Y522576D01*
X910690Y521970D01*
X913030D01*
X915291Y522576D01*
X917319Y523746D01*
X918974Y525401D01*
X920144Y527429D01*
X920750Y529690D01*
Y532030D01*
X920571Y532700D01*
Y713740D01*
X920274Y715994D01*
X919404Y718095D01*
X918019Y719899D01*
X645001Y992918D01*
X644654Y993519D01*
X642999Y995174D01*
X640971Y996344D01*
X638710Y996950D01*
D02*
G37*
G36*
X933633Y856860D02*
X930727D01*
X927919Y856108D01*
X925401Y854654D01*
X923346Y852599D01*
X921892Y850081D01*
X921140Y847273D01*
Y844367D01*
X921892Y841559D01*
X923346Y839041D01*
X923469Y838918D01*
Y762688D01*
X923766Y760434D01*
X924637Y758333D01*
X926021Y756529D01*
X986970Y695580D01*
Y619060D01*
X986790Y618390D01*
Y616050D01*
X986970Y615380D01*
Y525628D01*
X978953Y517612D01*
X977780Y518098D01*
Y518222D01*
X977096Y520775D01*
X975774Y523065D01*
X973905Y524934D01*
X972462Y525767D01*
Y527233D01*
X973905Y528066D01*
X975774Y529935D01*
X977096Y532225D01*
X977780Y534778D01*
Y537422D01*
X977096Y539975D01*
X975774Y542265D01*
X973905Y544134D01*
X971615Y545456D01*
X970172Y545843D01*
Y547158D01*
X971615Y547544D01*
X973905Y548866D01*
X975774Y550735D01*
X977096Y553025D01*
X977780Y555578D01*
Y558222D01*
X977096Y560775D01*
X975774Y563065D01*
X973905Y564934D01*
X972462Y565767D01*
Y567233D01*
X973905Y568066D01*
X975774Y569935D01*
X977096Y572225D01*
X977780Y574778D01*
Y577422D01*
X977096Y579975D01*
X975774Y582265D01*
X973905Y584134D01*
X971615Y585456D01*
X969062Y586140D01*
X966418D01*
X963865Y585456D01*
X961575Y584134D01*
X959706Y582265D01*
X958384Y579975D01*
X957700Y577422D01*
Y574778D01*
X958384Y572225D01*
X959706Y569935D01*
X961575Y568066D01*
X963018Y567233D01*
Y565767D01*
X961575Y564934D01*
X959706Y563065D01*
X958384Y560775D01*
X957700Y558222D01*
Y555578D01*
X958384Y553025D01*
X959706Y550735D01*
X961575Y548866D01*
X963865Y547544D01*
X965308Y547158D01*
Y545843D01*
X963865Y545456D01*
X961575Y544134D01*
X959706Y542265D01*
X958384Y539975D01*
X957700Y537422D01*
Y534778D01*
X958384Y532225D01*
X959706Y529935D01*
X961575Y528066D01*
X963018Y527233D01*
Y525767D01*
X961575Y524934D01*
X959706Y523065D01*
X958384Y520775D01*
X957700Y518222D01*
Y515578D01*
X958384Y513025D01*
X959706Y510736D01*
X959793Y510648D01*
X959307Y509475D01*
X950773D01*
X950286Y510648D01*
X950374Y510736D01*
X951696Y513025D01*
X952380Y515578D01*
Y518222D01*
X951696Y520775D01*
X950374Y523065D01*
X948505Y524934D01*
X947062Y525767D01*
Y527233D01*
X948505Y528066D01*
X950374Y529935D01*
X951696Y532225D01*
X952380Y534778D01*
Y537422D01*
X951696Y539975D01*
X950374Y542265D01*
X948505Y544134D01*
X946215Y545456D01*
X944772Y545843D01*
Y547158D01*
X946215Y547544D01*
X948505Y548866D01*
X950374Y550735D01*
X951696Y553025D01*
X952380Y555578D01*
Y558222D01*
X951696Y560775D01*
X950374Y563065D01*
X948505Y564934D01*
X947062Y565767D01*
Y567233D01*
X948505Y568066D01*
X950374Y569935D01*
X951696Y572225D01*
X952380Y574778D01*
Y577422D01*
X951696Y579975D01*
X950374Y582265D01*
X948505Y584134D01*
X946215Y585456D01*
X943662Y586140D01*
X941018D01*
X938465Y585456D01*
X936175Y584134D01*
X934306Y582265D01*
X932984Y579975D01*
X932300Y577422D01*
Y574778D01*
X932984Y572225D01*
X934306Y569935D01*
X936175Y568066D01*
X937618Y567233D01*
Y565767D01*
X936175Y564934D01*
X934306Y563065D01*
X932984Y560775D01*
X932300Y558222D01*
Y555578D01*
X932984Y553025D01*
X934306Y550735D01*
X936175Y548866D01*
X938465Y547544D01*
X939908Y547158D01*
Y545843D01*
X938465Y545456D01*
X936175Y544134D01*
X934306Y542265D01*
X932984Y539975D01*
X932300Y537422D01*
Y534778D01*
X932984Y532225D01*
X934306Y529935D01*
X936175Y528066D01*
X937618Y527233D01*
Y525767D01*
X936175Y524934D01*
X934306Y523065D01*
X932984Y520775D01*
X932300Y518222D01*
Y515578D01*
X932984Y513025D01*
X934306Y510736D01*
X934393Y510648D01*
X933907Y509475D01*
X876684D01*
X874430Y509178D01*
X874219Y509090D01*
X705420D01*
X704750Y509270D01*
X702410D01*
X700149Y508664D01*
X698121Y507494D01*
X696466Y505839D01*
X695296Y503811D01*
X694690Y501550D01*
Y499210D01*
X695296Y496949D01*
X696466Y494921D01*
X698121Y493266D01*
X700149Y492096D01*
X702410Y491490D01*
X704750D01*
X705420Y491670D01*
X876300D01*
X878555Y491966D01*
X878765Y492054D01*
X974424D01*
X976678Y492350D01*
X978779Y493221D01*
X980583Y494605D01*
X1001839Y515861D01*
X1003223Y517665D01*
X1004094Y519766D01*
X1004390Y522020D01*
Y615380D01*
X1004570Y616050D01*
Y618390D01*
X1004390Y619060D01*
Y699188D01*
X1004094Y701443D01*
X1003223Y703543D01*
X1001839Y705348D01*
X940891Y766296D01*
Y838918D01*
X941014Y839041D01*
X942468Y841559D01*
X943220Y844367D01*
Y847273D01*
X942468Y850081D01*
X941014Y852599D01*
X938959Y854654D01*
X936441Y856108D01*
X933633Y856860D01*
D02*
G37*
G36*
X340408Y591068D02*
X337764D01*
X335211Y590383D01*
X332921Y589062D01*
X331052Y587192D01*
X329730Y584903D01*
X329046Y582349D01*
Y579706D01*
X329730Y577152D01*
X331052Y574863D01*
X332921Y572994D01*
X334364Y572161D01*
Y570694D01*
X332921Y569862D01*
X331052Y567992D01*
X329730Y565703D01*
X329046Y563149D01*
Y560506D01*
X329730Y557952D01*
X331052Y555663D01*
X332921Y553794D01*
X335211Y552472D01*
X336654Y552085D01*
Y550770D01*
X335211Y550383D01*
X332921Y549062D01*
X331052Y547192D01*
X329730Y544903D01*
X329046Y542349D01*
Y539706D01*
X329730Y537152D01*
X331052Y534863D01*
X332921Y532994D01*
X334364Y532161D01*
Y530694D01*
X332921Y529861D01*
X331052Y527992D01*
X329730Y525703D01*
X329046Y523149D01*
Y520505D01*
X329730Y517952D01*
X331052Y515662D01*
X332921Y513793D01*
X335211Y512472D01*
X337764Y511787D01*
X340408D01*
X342961Y512472D01*
X345251Y513793D01*
X347120Y515662D01*
X348442Y517952D01*
X349126Y520505D01*
Y523149D01*
X348442Y525703D01*
X347120Y527992D01*
X345251Y529861D01*
X343808Y530694D01*
Y532161D01*
X345251Y532994D01*
X347120Y534863D01*
X348442Y537152D01*
X349126Y539706D01*
Y542349D01*
X348442Y544903D01*
X347120Y547192D01*
X345251Y549062D01*
X342961Y550383D01*
X341517Y550770D01*
Y552085D01*
X342961Y552472D01*
X345251Y553794D01*
X347120Y555663D01*
X348442Y557952D01*
X349126Y560506D01*
Y563149D01*
X348442Y565703D01*
X347120Y567992D01*
X345251Y569862D01*
X343808Y570694D01*
Y572161D01*
X345251Y572994D01*
X347120Y574863D01*
X348442Y577152D01*
X349126Y579706D01*
Y582349D01*
X348442Y584903D01*
X347120Y587192D01*
X345251Y589062D01*
X342961Y590383D01*
X340408Y591068D01*
D02*
G37*
G36*
X1090384Y519080D02*
X1088135D01*
X1085963Y518498D01*
X1084016Y517374D01*
X1082426Y515784D01*
X1081302Y513836D01*
X1080720Y511664D01*
Y509416D01*
X1081302Y507244D01*
X1082426Y505296D01*
X1084016Y503706D01*
X1085963Y502582D01*
X1088135Y502000D01*
X1090384D01*
X1092556Y502582D01*
X1094503Y503706D01*
X1096093Y505296D01*
X1097218Y507244D01*
X1097800Y509416D01*
Y511664D01*
X1097218Y513836D01*
X1096093Y515784D01*
X1094503Y517374D01*
X1092556Y518498D01*
X1090384Y519080D01*
D02*
G37*
G36*
X1040384D02*
X1038136D01*
X1035964Y518498D01*
X1034016Y517374D01*
X1032426Y515784D01*
X1031302Y513836D01*
X1030720Y511664D01*
Y509416D01*
X1031302Y507244D01*
X1032426Y505296D01*
X1034016Y503706D01*
X1035964Y502582D01*
X1038136Y502000D01*
X1040384D01*
X1042556Y502582D01*
X1044503Y503706D01*
X1046094Y505296D01*
X1047218Y507244D01*
X1047800Y509416D01*
Y511664D01*
X1047218Y513836D01*
X1046094Y515784D01*
X1044503Y517374D01*
X1042556Y518498D01*
X1040384Y519080D01*
D02*
G37*
G36*
X-15192Y611868D02*
X-17836D01*
X-20389Y611183D01*
X-22679Y609862D01*
X-24548Y607992D01*
X-25870Y605703D01*
X-26554Y603149D01*
Y600506D01*
X-25870Y597952D01*
X-24548Y595663D01*
X-22679Y593794D01*
X-20389Y592472D01*
X-18946Y592085D01*
Y590770D01*
X-20389Y590383D01*
X-22679Y589062D01*
X-24548Y587192D01*
X-25870Y584903D01*
X-26554Y582349D01*
Y579706D01*
X-25870Y577152D01*
X-24548Y574863D01*
X-22679Y572994D01*
X-21237Y572161D01*
Y570694D01*
X-22679Y569862D01*
X-24548Y567992D01*
X-25870Y565703D01*
X-26554Y563149D01*
Y560506D01*
X-25870Y557952D01*
X-24548Y555663D01*
X-22679Y553794D01*
X-20389Y552472D01*
X-18946Y552085D01*
Y550770D01*
X-20389Y550383D01*
X-22679Y549062D01*
X-24548Y547192D01*
X-25870Y544903D01*
X-26554Y542349D01*
Y539706D01*
X-25870Y537152D01*
X-24548Y534863D01*
X-22679Y532994D01*
X-21236Y532161D01*
Y530694D01*
X-22679Y529861D01*
X-24548Y527992D01*
X-25870Y525703D01*
X-26554Y523149D01*
Y520505D01*
X-25870Y517952D01*
X-24548Y515662D01*
X-22679Y513793D01*
X-20421Y512490D01*
X-20355Y512214D01*
Y511441D01*
X-20421Y511165D01*
X-22679Y509861D01*
X-24548Y507992D01*
X-25870Y505703D01*
X-26554Y503149D01*
Y500505D01*
X-25870Y497952D01*
X-24548Y495663D01*
X-22679Y493793D01*
X-20389Y492472D01*
X-17836Y491787D01*
X-15192D01*
X-12639Y492472D01*
X-10349Y493793D01*
X-8480Y495663D01*
X-7158Y497952D01*
X-6474Y500505D01*
Y503149D01*
X-7158Y505703D01*
X-8480Y507992D01*
X-10349Y509861D01*
X-12608Y511165D01*
X-12673Y511441D01*
Y512214D01*
X-12608Y512490D01*
X-10349Y513793D01*
X-8480Y515662D01*
X-7158Y517952D01*
X-6474Y520505D01*
Y523149D01*
X-7158Y525703D01*
X-8480Y527992D01*
X-10349Y529861D01*
X-11792Y530694D01*
Y532161D01*
X-10349Y532994D01*
X-8480Y534863D01*
X-7158Y537152D01*
X-6474Y539706D01*
Y542349D01*
X-7158Y544903D01*
X-8480Y547192D01*
X-10349Y549062D01*
X-12639Y550383D01*
X-14082Y550770D01*
Y552085D01*
X-12639Y552472D01*
X-10349Y553794D01*
X-8480Y555663D01*
X-7158Y557952D01*
X-6474Y560506D01*
Y563149D01*
X-7158Y565703D01*
X-8480Y567992D01*
X-10349Y569862D01*
X-11792Y570694D01*
Y572161D01*
X-10349Y572994D01*
X-8480Y574863D01*
X-7158Y577152D01*
X-6474Y579706D01*
Y582349D01*
X-7158Y584903D01*
X-8480Y587192D01*
X-10349Y589062D01*
X-12639Y590383D01*
X-14082Y590770D01*
Y592085D01*
X-12639Y592472D01*
X-10349Y593794D01*
X-8480Y595663D01*
X-7158Y597952D01*
X-6474Y600506D01*
Y603149D01*
X-7158Y605703D01*
X-8480Y607992D01*
X-10349Y609862D01*
X-12639Y611183D01*
X-15192Y611868D01*
D02*
G37*
G36*
X588062Y606940D02*
X585418D01*
X582865Y606256D01*
X580575Y604934D01*
X578706Y603065D01*
X577384Y600775D01*
X576700Y598222D01*
Y595578D01*
X577384Y593025D01*
X578706Y590735D01*
X580575Y588866D01*
X582865Y587544D01*
X584308Y587157D01*
Y585843D01*
X582865Y585456D01*
X580575Y584134D01*
X578706Y582265D01*
X577384Y579975D01*
X576700Y577422D01*
Y574778D01*
X577384Y572225D01*
X578706Y569935D01*
X580575Y568066D01*
X582018Y567233D01*
Y565767D01*
X580575Y564934D01*
X578706Y563065D01*
X577384Y560775D01*
X576700Y558222D01*
Y555578D01*
X577384Y553025D01*
X578706Y550735D01*
X580575Y548866D01*
X582865Y547544D01*
X584308Y547158D01*
Y545843D01*
X582865Y545456D01*
X580575Y544134D01*
X578706Y542265D01*
X577384Y539975D01*
X576700Y537422D01*
Y534778D01*
X577384Y532225D01*
X578706Y529935D01*
X580575Y528066D01*
X582018Y527233D01*
Y525767D01*
X580575Y524934D01*
X578706Y523065D01*
X577384Y520775D01*
X576700Y518222D01*
Y515578D01*
X577384Y513025D01*
X578706Y510736D01*
X580575Y508866D01*
X582833Y507562D01*
X582899Y507287D01*
Y506514D01*
X582833Y506238D01*
X580575Y504934D01*
X578706Y503065D01*
X577384Y500775D01*
X576700Y498222D01*
Y495578D01*
X577384Y493025D01*
X578706Y490736D01*
X580575Y488866D01*
X582865Y487544D01*
X585418Y486860D01*
X588062D01*
X590615Y487544D01*
X592905Y488866D01*
X594774Y490736D01*
X596096Y493025D01*
X596780Y495578D01*
Y498222D01*
X596096Y500775D01*
X594774Y503065D01*
X592905Y504934D01*
X590647Y506238D01*
X590581Y506514D01*
Y507287D01*
X590647Y507562D01*
X592905Y508866D01*
X594774Y510736D01*
X596096Y513025D01*
X596780Y515578D01*
Y518222D01*
X596096Y520775D01*
X594774Y523065D01*
X592905Y524934D01*
X591462Y525767D01*
Y527233D01*
X592905Y528066D01*
X594774Y529935D01*
X596096Y532225D01*
X596780Y534778D01*
Y537422D01*
X596096Y539975D01*
X594774Y542265D01*
X592905Y544134D01*
X590615Y545456D01*
X589172Y545843D01*
Y547158D01*
X590615Y547544D01*
X592905Y548866D01*
X594774Y550735D01*
X596096Y553025D01*
X596780Y555578D01*
Y558222D01*
X596096Y560775D01*
X594774Y563065D01*
X592905Y564934D01*
X591462Y565767D01*
Y567233D01*
X592905Y568066D01*
X594774Y569935D01*
X596096Y572225D01*
X596780Y574778D01*
Y577422D01*
X596096Y579975D01*
X594774Y582265D01*
X592905Y584134D01*
X590615Y585456D01*
X589172Y585843D01*
Y587157D01*
X590615Y587544D01*
X592905Y588866D01*
X594774Y590735D01*
X596096Y593025D01*
X596780Y595578D01*
Y598222D01*
X596096Y600775D01*
X594774Y603065D01*
X592905Y604934D01*
X590615Y606256D01*
X588062Y606940D01*
D02*
G37*
G36*
X431184Y486060D02*
X428935D01*
X426763Y485478D01*
X424816Y484354D01*
X423226Y482764D01*
X422102Y480816D01*
X421520Y478644D01*
Y476396D01*
X422102Y474224D01*
X423226Y472276D01*
X424816Y470686D01*
X426763Y469562D01*
X428935Y468980D01*
X431184D01*
X433356Y469562D01*
X435303Y470686D01*
X436893Y472276D01*
X438018Y474224D01*
X438600Y476396D01*
Y478644D01*
X438018Y480816D01*
X436893Y482764D01*
X435303Y484354D01*
X433356Y485478D01*
X431184Y486060D01*
D02*
G37*
G36*
X1118770Y509270D02*
X1116430D01*
X1114169Y508664D01*
X1112141Y507494D01*
X1110486Y505839D01*
X1109316Y503811D01*
X1108710Y501550D01*
Y499210D01*
X1108889Y498540D01*
Y470968D01*
X1096212Y458290D01*
X1002600D01*
X1001930Y458470D01*
X999590D01*
X997329Y457864D01*
X995301Y456694D01*
X993646Y455039D01*
X992476Y453011D01*
X991870Y450750D01*
Y448410D01*
X992476Y446149D01*
X993646Y444121D01*
X995301Y442466D01*
X997329Y441296D01*
X999590Y440690D01*
X1001930D01*
X1002600Y440869D01*
X1099820D01*
X1102075Y441166D01*
X1104175Y442037D01*
X1105979Y443421D01*
X1123759Y461201D01*
X1125144Y463005D01*
X1126014Y465106D01*
X1126311Y467360D01*
Y498540D01*
X1126490Y499210D01*
Y501550D01*
X1125884Y503811D01*
X1124714Y505839D01*
X1123059Y507494D01*
X1121031Y508664D01*
X1118770Y509270D01*
D02*
G37*
G36*
X255170Y496570D02*
X252830D01*
X250569Y495964D01*
X248541Y494794D01*
X246886Y493139D01*
X245716Y491111D01*
X245110Y488850D01*
Y486510D01*
X245716Y484249D01*
X246886Y482221D01*
X248541Y480566D01*
X249142Y480219D01*
X288481Y440881D01*
X290285Y439496D01*
X292386Y438626D01*
X294640Y438330D01*
X447740D01*
X448410Y438150D01*
X450750D01*
X453011Y438756D01*
X455039Y439926D01*
X456694Y441581D01*
X457864Y443609D01*
X458470Y445870D01*
Y448210D01*
X457864Y450471D01*
X456694Y452499D01*
X455039Y454154D01*
X453011Y455324D01*
X450750Y455930D01*
X448410D01*
X447740Y455751D01*
X298248D01*
X261460Y492538D01*
X261114Y493139D01*
X259459Y494794D01*
X257431Y495964D01*
X255170Y496570D01*
D02*
G37*
G36*
X-87730Y887730D02*
X-90070D01*
X-92331Y887124D01*
X-94359Y885954D01*
X-96014Y884299D01*
X-97184Y882271D01*
X-97790Y880010D01*
Y877670D01*
X-97611Y877000D01*
Y431800D01*
X-97314Y429546D01*
X-96444Y427445D01*
X-95059Y425641D01*
X-82359Y412941D01*
X-80555Y411557D01*
X-78454Y410686D01*
X-76200Y410390D01*
X546800D01*
X547470Y410210D01*
X549810D01*
X552071Y410816D01*
X554099Y411986D01*
X555754Y413641D01*
X556924Y415669D01*
X557530Y417930D01*
Y420270D01*
X556924Y422531D01*
X555754Y424559D01*
X554099Y426214D01*
X552071Y427384D01*
X549810Y427990D01*
X547470D01*
X546800Y427811D01*
X-72592D01*
X-80190Y435408D01*
Y877000D01*
X-80010Y877670D01*
Y880010D01*
X-80616Y882271D01*
X-81786Y884299D01*
X-83441Y885954D01*
X-85469Y887124D01*
X-87730Y887730D01*
D02*
G37*
G36*
X1088244Y425100D02*
X1085996D01*
X1083824Y424518D01*
X1081876Y423394D01*
X1080286Y421804D01*
X1079162Y419856D01*
X1078580Y417684D01*
Y415436D01*
X1079162Y413264D01*
X1080286Y411316D01*
X1081876Y409726D01*
X1083824Y408602D01*
X1085996Y408020D01*
X1088244D01*
X1090416Y408602D01*
X1092364Y409726D01*
X1093954Y411316D01*
X1095078Y413264D01*
X1095660Y415436D01*
Y417684D01*
X1095078Y419856D01*
X1093954Y421804D01*
X1092364Y423394D01*
X1090416Y424518D01*
X1088244Y425100D01*
D02*
G37*
G36*
X1038244D02*
X1035995D01*
X1033823Y424518D01*
X1031876Y423394D01*
X1030286Y421804D01*
X1029162Y419856D01*
X1028580Y417684D01*
Y415436D01*
X1029162Y413264D01*
X1030286Y411316D01*
X1031876Y409726D01*
X1033823Y408602D01*
X1035995Y408020D01*
X1038244D01*
X1040416Y408602D01*
X1042363Y409726D01*
X1043953Y411316D01*
X1045078Y413264D01*
X1045660Y415436D01*
Y417684D01*
X1045078Y419856D01*
X1043953Y421804D01*
X1042363Y423394D01*
X1040416Y424518D01*
X1038244Y425100D01*
D02*
G37*
G36*
X361850Y402590D02*
X359510D01*
X357249Y401984D01*
X355221Y400814D01*
X353566Y399159D01*
X352396Y397131D01*
X351790Y394870D01*
Y392530D01*
X352396Y390269D01*
X353566Y388241D01*
X355221Y386586D01*
X357249Y385416D01*
X359510Y384810D01*
X361850D01*
X364111Y385416D01*
X366139Y386586D01*
X366591Y387039D01*
X487414D01*
X488186Y385701D01*
X489841Y384046D01*
X491869Y382876D01*
X494130Y382270D01*
X496470D01*
X498731Y382876D01*
X500759Y384046D01*
X502414Y385701D01*
X503584Y387729D01*
X504190Y389990D01*
Y392330D01*
X503584Y394591D01*
X502414Y396619D01*
X500759Y398274D01*
X498731Y399444D01*
X496470Y400050D01*
X494130D01*
X493717Y399939D01*
X493247Y400134D01*
X491523Y400361D01*
X491523Y400361D01*
X366591D01*
X366139Y400814D01*
X364111Y401984D01*
X361850Y402590D01*
D02*
G37*
G36*
X703580Y368388D02*
X673100D01*
X670448Y368038D01*
X667976Y367015D01*
X665854Y365386D01*
X664225Y363264D01*
X663202Y360792D01*
X662852Y358140D01*
X663202Y355488D01*
X664225Y353016D01*
X665854Y350894D01*
X667976Y349265D01*
X670448Y348242D01*
X673100Y347892D01*
X703580D01*
X706232Y348242D01*
X708704Y349265D01*
X710826Y350894D01*
X712455Y353016D01*
X713478Y355488D01*
X713828Y358140D01*
X713478Y360792D01*
X712455Y363264D01*
X710826Y365386D01*
X708704Y367015D01*
X706232Y368038D01*
X703580Y368388D01*
D02*
G37*
G36*
X779271Y350111D02*
X776930D01*
X774669Y349505D01*
X772642Y348334D01*
X772189Y347882D01*
X724761D01*
X724761Y347882D01*
X723037Y347655D01*
X721430Y346989D01*
X720051Y345931D01*
X720051Y345931D01*
X650021Y275901D01*
X607637D01*
X607185Y276354D01*
X605157Y277524D01*
X602896Y278130D01*
X600556D01*
X598295Y277524D01*
X596267Y276354D01*
X594612Y274699D01*
X593442Y272671D01*
X592836Y270410D01*
Y268070D01*
X593442Y265809D01*
X594612Y263781D01*
X596267Y262126D01*
X598295Y260956D01*
X600556Y260350D01*
X602896D01*
X605157Y260956D01*
X607185Y262126D01*
X607637Y262579D01*
X652780D01*
X652780Y262579D01*
X654504Y262806D01*
X656111Y263471D01*
X657490Y264530D01*
X727520Y334560D01*
X772189D01*
X772642Y334107D01*
X774669Y332937D01*
X776930Y332331D01*
X779271D01*
X781532Y332937D01*
X783559Y334107D01*
X785214Y335762D01*
X786385Y337789D01*
X786991Y340050D01*
Y342391D01*
X786385Y344652D01*
X785214Y346679D01*
X783559Y348334D01*
X781532Y349505D01*
X779271Y350111D01*
D02*
G37*
G36*
X1271617Y347835D02*
X1268383D01*
X1265212Y347204D01*
X1262225Y345967D01*
X1259536Y344171D01*
X1257250Y341884D01*
X1255453Y339196D01*
X1254216Y336208D01*
X1253585Y333037D01*
Y329804D01*
X1254216Y326632D01*
X1255453Y323645D01*
X1257250Y320956D01*
X1259536Y318670D01*
X1262225Y316873D01*
X1265212Y315636D01*
X1268383Y315005D01*
X1271617D01*
X1274788Y315636D01*
X1277775Y316873D01*
X1280464Y318670D01*
X1282750Y320956D01*
X1284547Y323645D01*
X1285784Y326632D01*
X1286415Y329804D01*
Y333037D01*
X1285784Y336208D01*
X1284547Y339196D01*
X1282750Y341884D01*
X1280464Y344171D01*
X1277775Y345967D01*
X1274788Y347204D01*
X1271617Y347835D01*
D02*
G37*
G36*
X648870Y394970D02*
X646530D01*
X644269Y394364D01*
X642241Y393194D01*
X640586Y391539D01*
X639416Y389511D01*
X638810Y387250D01*
Y384910D01*
X639416Y382649D01*
X640586Y380621D01*
X641039Y380169D01*
Y306256D01*
X635554Y300772D01*
X634109Y300384D01*
X632081Y299214D01*
X630426Y297559D01*
X629256Y295531D01*
X628650Y293270D01*
Y290930D01*
X629256Y288669D01*
X630426Y286641D01*
X632081Y284986D01*
X634109Y283816D01*
X636370Y283210D01*
X638710D01*
X640971Y283816D01*
X642999Y284986D01*
X644654Y286641D01*
X645824Y288669D01*
X646430Y290930D01*
Y292807D01*
X652410Y298787D01*
X652410Y298787D01*
X653469Y300167D01*
X654134Y301773D01*
X654361Y303497D01*
Y380169D01*
X654814Y380621D01*
X655984Y382649D01*
X656590Y384910D01*
Y387250D01*
X655984Y389511D01*
X654814Y391539D01*
X653159Y393194D01*
X651131Y394364D01*
X648870Y394970D01*
D02*
G37*
G36*
X753010Y316230D02*
X750670D01*
X748409Y315624D01*
X746381Y314454D01*
X744726Y312799D01*
X743556Y310771D01*
X742950Y308510D01*
Y306170D01*
X743556Y303909D01*
X744726Y301881D01*
X746381Y300226D01*
X748409Y299056D01*
X750670Y298450D01*
X753010D01*
X755271Y299056D01*
X757299Y300226D01*
X758954Y301881D01*
X759489Y302808D01*
X785523D01*
X827047Y261284D01*
X826770Y260250D01*
Y257910D01*
X827376Y255649D01*
X828546Y253621D01*
X830201Y251966D01*
X832229Y250796D01*
X834490Y250190D01*
X836830D01*
X839091Y250796D01*
X841119Y251966D01*
X842774Y253621D01*
X843944Y255649D01*
X844550Y257910D01*
Y260250D01*
X843944Y262511D01*
X842774Y264539D01*
X841119Y266194D01*
X839091Y267364D01*
X836830Y267970D01*
X834490D01*
X833456Y267693D01*
X790605Y310545D01*
X789134Y311527D01*
X787400Y311872D01*
X759489D01*
X758954Y312799D01*
X757299Y314454D01*
X755271Y315624D01*
X753010Y316230D01*
D02*
G37*
G36*
X739437Y69755D02*
X736204D01*
X733032Y69124D01*
X730045Y67887D01*
X727356Y66090D01*
X725070Y63804D01*
X723273Y61115D01*
X722036Y58128D01*
X721405Y54957D01*
Y51723D01*
X722036Y48552D01*
X723273Y45565D01*
X725070Y42876D01*
X727356Y40590D01*
X730045Y38793D01*
X733032Y37556D01*
X736204Y36925D01*
X739437D01*
X742608Y37556D01*
X745596Y38793D01*
X748284Y40590D01*
X750571Y42876D01*
X752367Y45565D01*
X753604Y48552D01*
X754235Y51723D01*
Y54957D01*
X753604Y58128D01*
X752367Y61115D01*
X750571Y63804D01*
X748284Y66090D01*
X745596Y67887D01*
X742608Y69124D01*
X739437Y69755D01*
D02*
G37*
G36*
X483770Y204470D02*
X481430D01*
X479169Y203864D01*
X477141Y202694D01*
X475486Y201039D01*
X474316Y199011D01*
X473710Y196750D01*
Y194410D01*
X474316Y192149D01*
X475486Y190121D01*
X477141Y188466D01*
X477742Y188120D01*
X496761Y169101D01*
X498565Y167717D01*
X500666Y166846D01*
X502920Y166549D01*
X781252D01*
X905701Y42101D01*
X907505Y40717D01*
X909605Y39846D01*
X911860Y39550D01*
X1024356D01*
X1025856Y38050D01*
X1028544Y36253D01*
X1031532Y35016D01*
X1034703Y34385D01*
X1037936D01*
X1041108Y35016D01*
X1044095Y36253D01*
X1046784Y38050D01*
X1049070Y40336D01*
X1050867Y43025D01*
X1052104Y46012D01*
X1052735Y49183D01*
Y52417D01*
X1052104Y55588D01*
X1050867Y58575D01*
X1049070Y61264D01*
X1046784Y63550D01*
X1044095Y65347D01*
X1041108Y66584D01*
X1037936Y67215D01*
X1034703D01*
X1031532Y66584D01*
X1028544Y65347D01*
X1025856Y63550D01*
X1023569Y61264D01*
X1021773Y58575D01*
X1021108Y56971D01*
X915468D01*
X791019Y181419D01*
X789215Y182803D01*
X787114Y183674D01*
X784860Y183971D01*
X506528D01*
X490061Y200438D01*
X489714Y201039D01*
X488059Y202694D01*
X486031Y203864D01*
X483770Y204470D01*
D02*
G37*
G36*
X419397Y62135D02*
X416163D01*
X412992Y61504D01*
X410005Y60267D01*
X407316Y58470D01*
X405030Y56184D01*
X403233Y53495D01*
X401996Y50508D01*
X401365Y47337D01*
Y44103D01*
X401996Y40932D01*
X403233Y37945D01*
X405030Y35256D01*
X407316Y32970D01*
X410005Y31173D01*
X412992Y29936D01*
X416163Y29305D01*
X419397D01*
X422568Y29936D01*
X425556Y31173D01*
X428244Y32970D01*
X430531Y35256D01*
X432327Y37945D01*
X433564Y40932D01*
X434195Y44103D01*
Y47337D01*
X433564Y50508D01*
X432327Y53495D01*
X430531Y56184D01*
X428244Y58470D01*
X425556Y60267D01*
X422568Y61504D01*
X419397Y62135D01*
D02*
G37*
G36*
X129937Y59595D02*
X126703D01*
X123532Y58964D01*
X120544Y57727D01*
X117856Y55930D01*
X115569Y53644D01*
X113773Y50955D01*
X112536Y47968D01*
X111905Y44797D01*
Y41563D01*
X112536Y38392D01*
X113773Y35405D01*
X115569Y32716D01*
X117856Y30430D01*
X120544Y28633D01*
X123532Y27396D01*
X126703Y26765D01*
X129937D01*
X133108Y27396D01*
X136095Y28633D01*
X138784Y30430D01*
X141070Y32716D01*
X142867Y35405D01*
X144104Y38392D01*
X144735Y41563D01*
Y44797D01*
X144104Y47968D01*
X142867Y50955D01*
X141070Y53644D01*
X138784Y55930D01*
X136095Y57727D01*
X133108Y58964D01*
X129937Y59595D01*
D02*
G37*
G36*
X408940Y355686D02*
X405454Y355343D01*
X402103Y354326D01*
X399014Y352675D01*
X396307Y350453D01*
X394085Y347746D01*
X392434Y344657D01*
X391417Y341306D01*
X391074Y337820D01*
Y177800D01*
X391417Y174314D01*
X392434Y170963D01*
X394085Y167874D01*
X396307Y165167D01*
X546167Y15307D01*
X548874Y13085D01*
X551963Y11434D01*
X555314Y10417D01*
X558800Y10074D01*
X562285Y10417D01*
X565637Y11434D01*
X568726Y13085D01*
X571433Y15307D01*
X573655Y18014D01*
X575306Y21103D01*
X576323Y24455D01*
X576666Y27940D01*
X576323Y31425D01*
X575306Y34777D01*
X573655Y37866D01*
X571433Y40573D01*
X426806Y185200D01*
Y337820D01*
X426463Y341306D01*
X425446Y344657D01*
X423795Y347746D01*
X421573Y350453D01*
X418866Y352675D01*
X415777Y354326D01*
X412425Y355343D01*
X408940Y355686D01*
D02*
G37*
%LPD*%
D16*
X397889Y885796D02*
X439171Y927078D01*
Y954791D01*
X533400Y990600D02*
X535940Y988060D01*
Y942340D02*
Y988060D01*
X474980Y990600D02*
X533400D01*
X439171Y954791D02*
X474980Y990600D01*
X297180Y833120D02*
X327660Y863600D01*
Y952500D01*
X787400Y307340D02*
X835660Y259080D01*
X751840Y307340D02*
X787400D01*
D40*
X436710Y749700D02*
D03*
X1056470Y696360D02*
D03*
D41*
X436710Y774700D02*
D03*
Y799700D02*
D03*
X1056470Y721360D02*
D03*
Y746360D02*
D03*
D46*
X551180Y616100D02*
X586740D01*
X453262D02*
X551180D01*
X1033780Y48260D02*
X1036320Y50800D01*
X911860Y48260D02*
X1033780D01*
X784860Y175260D02*
X911860Y48260D01*
X383540Y551180D02*
X474980Y459740D01*
X383540Y551180D02*
Y619760D01*
X371398Y697963D02*
X453262Y616100D01*
X332402Y697963D02*
X371398D01*
X474980Y459740D02*
X584200D01*
X322580Y632460D02*
Y688141D01*
X210820Y43180D02*
X213360Y40640D01*
X332740Y48260D02*
X335280Y45720D01*
X-76200Y419100D02*
X548640D01*
X-88900Y431800D02*
X-76200Y419100D01*
X-88900Y431800D02*
Y878840D01*
X294640Y447040D02*
X449580D01*
X254000Y487680D02*
X294640Y447040D01*
X995680Y522020D02*
Y617220D01*
X1000760Y449580D02*
X1099820D01*
X1117600Y467360D01*
Y500380D01*
X911860Y530860D02*
Y713740D01*
X637540Y988060D02*
X911860Y713740D01*
X876684Y500764D02*
X974424D01*
X995680Y522020D01*
X876300Y500380D02*
X876684Y500764D01*
X703580Y500380D02*
X876300D01*
X502920Y175260D02*
X784860D01*
X482600Y195580D02*
X502920Y175260D01*
X322580Y688141D02*
X332402Y697963D01*
X339086Y601828D02*
X364486D01*
X1176020Y289560D02*
Y535940D01*
X932180Y762688D02*
X995680Y699188D01*
Y617220D02*
Y699188D01*
X932180Y762688D02*
Y845820D01*
D47*
X585994Y656100D02*
X586740D01*
X551180Y621286D02*
X585994Y656100D01*
X551180Y616100D02*
Y621286D01*
X494063Y391160D02*
X495300D01*
X491523Y393700D02*
X494063Y391160D01*
X360680Y393700D02*
X491523D01*
X256540Y797560D02*
X309880D01*
X243840Y810260D02*
Y855980D01*
Y810260D02*
X256540Y797560D01*
X566420Y716280D02*
X614680D01*
X594360Y871220D02*
Y937260D01*
X251023Y757357D02*
X329965D01*
X378662Y708660D02*
X419100D01*
X329965Y757357D02*
X378662Y708660D01*
X228600Y779780D02*
Y840740D01*
X243840Y855980D01*
X228600Y779780D02*
X251023Y757357D01*
X492760Y642620D02*
X566420Y716280D01*
X538480Y815340D02*
X594360Y871220D01*
X309880Y797560D02*
X327660Y815340D01*
X538480D01*
X137160Y1153160D02*
X162560Y1178560D01*
X1092200D01*
X1183640Y1087120D01*
Y904240D02*
Y1087120D01*
X652780Y269240D02*
X724761Y341221D01*
X601726Y269240D02*
X652780D01*
X647700Y303497D02*
Y386080D01*
X637540Y292100D02*
Y293337D01*
X647700Y303497D01*
X724761Y341221D02*
X778101D01*
X942340Y596900D02*
X967740D01*
D49*
X469900Y862291D02*
Y878840D01*
X459740Y949960D02*
X482600Y972820D01*
X459740Y866140D02*
Y949960D01*
X465367Y857758D02*
X469900Y862291D01*
X464820Y848360D02*
X465367Y848907D01*
Y857758D01*
D51*
X245856Y879364D02*
X246380Y878840D01*
X292100D01*
X245856Y879364D02*
X245856D01*
X673100Y358140D02*
X703580D01*
D52*
X408940Y177800D02*
Y337820D01*
Y177800D02*
X558800Y27940D01*
D56*
X942340Y576100D02*
D03*
X967740D02*
D03*
X364486Y581027D02*
D03*
X339086D02*
D03*
X-16514Y701827D02*
D03*
Y501827D02*
D03*
Y681827D02*
D03*
Y521827D02*
D03*
Y541028D02*
D03*
Y561828D02*
D03*
Y581027D02*
D03*
Y601828D02*
D03*
Y621027D02*
D03*
Y641827D02*
D03*
Y661027D02*
D03*
X339086Y521827D02*
D03*
Y541028D02*
D03*
Y561828D02*
D03*
Y601828D02*
D03*
Y621027D02*
D03*
Y641827D02*
D03*
Y661027D02*
D03*
Y681827D02*
D03*
X364486Y521827D02*
D03*
Y541028D02*
D03*
Y561828D02*
D03*
Y601828D02*
D03*
Y621027D02*
D03*
Y641827D02*
D03*
Y661027D02*
D03*
Y681827D02*
D03*
X967740Y676900D02*
D03*
Y656100D02*
D03*
Y636900D02*
D03*
Y556900D02*
D03*
Y536100D02*
D03*
Y516900D02*
D03*
X942340Y676900D02*
D03*
Y656100D02*
D03*
Y636900D02*
D03*
Y616100D02*
D03*
Y556900D02*
D03*
Y536100D02*
D03*
Y516900D02*
D03*
X586740Y636900D02*
D03*
Y596900D02*
D03*
Y576100D02*
D03*
Y556900D02*
D03*
Y536100D02*
D03*
Y516900D02*
D03*
Y676900D02*
D03*
Y496900D02*
D03*
Y696900D02*
D03*
Y616100D02*
D03*
Y656100D02*
D03*
X942340Y596900D02*
D03*
X967740D02*
D03*
Y616100D02*
D03*
D57*
X1270000Y922020D02*
D03*
Y839520D02*
D03*
X737820Y53340D02*
D03*
X655320D02*
D03*
X1118820Y50800D02*
D03*
X1036320D02*
D03*
X214580Y1102360D02*
D03*
X132080D02*
D03*
X753060Y1094740D02*
D03*
X670560D02*
D03*
X128320Y43180D02*
D03*
X210820D02*
D03*
X335280Y45720D02*
D03*
X417780D02*
D03*
X340360Y1102360D02*
D03*
X422860D02*
D03*
X1275080Y636220D02*
D03*
Y553720D02*
D03*
X-167640Y897840D02*
D03*
Y815340D02*
D03*
X-162560Y635000D02*
D03*
Y552500D02*
D03*
X1065480Y1089660D02*
D03*
X982980D02*
D03*
X1270000Y331420D02*
D03*
Y248920D02*
D03*
D58*
X1089260Y510540D02*
D03*
X1039260D02*
D03*
X1087120Y416560D02*
D03*
X1037120D02*
D03*
X1069340Y579120D02*
D03*
Y629120D02*
D03*
X432200Y657860D02*
D03*
X482200D02*
D03*
X480060Y477520D02*
D03*
X430060D02*
D03*
X482200Y568960D02*
D03*
X432200D02*
D03*
D59*
X957580Y845820D02*
D03*
D60*
X932180D02*
D03*
X906780D02*
D03*
D61*
X614680Y716280D02*
D03*
X360680Y393700D02*
D03*
X495300Y391160D02*
D03*
X243840Y855980D02*
D03*
X594360Y937260D02*
D03*
X419100Y708660D02*
D03*
X492760Y642620D02*
D03*
X397889Y885796D02*
D03*
X383540Y619760D02*
D03*
X535940Y942340D02*
D03*
X497840Y944880D02*
D03*
X485140Y863600D02*
D03*
X469900Y878840D02*
D03*
X459740Y866140D02*
D03*
X464820Y848360D02*
D03*
X482600Y972820D02*
D03*
X245856Y879364D02*
D03*
X292100Y878840D02*
D03*
X530860Y863600D02*
D03*
X398780Y911860D02*
D03*
X350520Y871220D02*
D03*
X297180Y833120D02*
D03*
X259080Y830580D02*
D03*
X703580Y358140D02*
D03*
X673100D02*
D03*
X269240Y960120D02*
D03*
X327660Y952500D02*
D03*
X137160Y1153160D02*
D03*
X1183640Y904240D02*
D03*
X284480Y355600D02*
D03*
X449580Y447040D02*
D03*
X548640Y419100D02*
D03*
X995680Y617220D02*
D03*
X1000760Y449580D02*
D03*
X1117600Y500380D02*
D03*
X911860Y530860D02*
D03*
X703580Y500380D02*
D03*
X637540Y988060D02*
D03*
X482600Y195580D02*
D03*
X601726Y269240D02*
D03*
X599440Y350520D02*
D03*
X689610Y394970D02*
D03*
X647700Y386080D02*
D03*
X322580Y632460D02*
D03*
X408940Y337820D02*
D03*
X254000Y487680D02*
D03*
X-88900Y878840D02*
D03*
X584200Y459740D02*
D03*
X558800Y27940D02*
D03*
X1176020Y289560D02*
D03*
Y535940D02*
D03*
X778101Y341221D02*
D03*
X721360Y279400D02*
D03*
X751840Y307340D02*
D03*
X835660Y259080D02*
D03*
X637540Y292100D02*
D03*
M02*
