G04*
G04 #@! TF.GenerationSoftware,Altium Limited,Altium Designer,22.10.1 (41)*
G04*
G04 Layer_Physical_Order=2*
G04 Layer_Color=16711680*
%FSLAX44Y44*%
%MOMM*%
G71*
G04*
G04 #@! TF.SameCoordinates,81D378FE-F234-499D-9AEC-098A348C0B8A*
G04*
G04*
G04 #@! TF.FilePolarity,Positive*
G04*
G01*
G75*
%ADD31C,1.8034*%
%ADD35C,0.8128*%
%ADD37R,1.5080X1.5080*%
%ADD38C,1.5080*%
%ADD39C,5.0000*%
%ADD40C,1.2700*%
G36*
X1009470Y22210D02*
X1008200Y20940D01*
X22680D01*
Y506080D01*
X1009470D01*
Y22210D01*
D02*
G37*
%LPC*%
G36*
X236292Y426197D02*
X233249D01*
X230309Y425409D01*
X227674Y423888D01*
X225522Y421736D01*
X224001Y419101D01*
X223213Y416161D01*
Y413119D01*
X224001Y410179D01*
X225522Y407544D01*
X227674Y405392D01*
X230309Y403871D01*
X233249Y403083D01*
X236292D01*
X239231Y403871D01*
X241866Y405392D01*
X244018Y407544D01*
X245539Y410179D01*
X246327Y413119D01*
Y416161D01*
X245539Y419101D01*
X244018Y421736D01*
X241866Y423888D01*
X239231Y425409D01*
X236292Y426197D01*
D02*
G37*
G36*
X678251Y421117D02*
X675209D01*
X672269Y420329D01*
X669634Y418808D01*
X667482Y416656D01*
X665961Y414021D01*
X665173Y411082D01*
Y408038D01*
X665961Y405099D01*
X667482Y402464D01*
X669634Y400312D01*
X672269Y398791D01*
X675209Y398003D01*
X678251D01*
X681191Y398791D01*
X683826Y400312D01*
X685978Y402464D01*
X687499Y405099D01*
X688287Y408038D01*
Y411082D01*
X687499Y414021D01*
X685978Y416656D01*
X683826Y418808D01*
X681191Y420329D01*
X678251Y421117D01*
D02*
G37*
G36*
X913202Y365237D02*
X910158D01*
X907219Y364449D01*
X904584Y362928D01*
X902432Y360776D01*
X900911Y358141D01*
X900123Y355201D01*
Y352159D01*
X900911Y349219D01*
X902432Y346584D01*
X904584Y344432D01*
X907219Y342911D01*
X910158Y342123D01*
X913202D01*
X916141Y342911D01*
X918776Y344432D01*
X920928Y346584D01*
X922449Y349219D01*
X923237Y352159D01*
Y355201D01*
X922449Y358141D01*
X920928Y360776D01*
X918776Y362928D01*
X916141Y364449D01*
X913202Y365237D01*
D02*
G37*
G36*
X206730Y276210D02*
X204390D01*
X202129Y275604D01*
X200101Y274434D01*
X198887Y273219D01*
X159078D01*
X159078Y273219D01*
X157354Y272992D01*
X155747Y272327D01*
X154368Y271268D01*
X154368Y271268D01*
X90360Y207260D01*
X89301Y205881D01*
X88636Y204274D01*
X88409Y202550D01*
X88409Y202550D01*
Y180521D01*
X87956Y180069D01*
X86786Y178041D01*
X86180Y175780D01*
Y173440D01*
X86786Y171179D01*
X87956Y169151D01*
X89611Y167496D01*
X91639Y166326D01*
X93900Y165720D01*
X96240D01*
X98501Y166326D01*
X100529Y167496D01*
X102184Y169151D01*
X103354Y171179D01*
X103960Y173440D01*
Y175780D01*
X103354Y178041D01*
X102184Y180069D01*
X101731Y180521D01*
Y199791D01*
X161837Y259897D01*
X200637D01*
X202129Y259036D01*
X204390Y258430D01*
X206730D01*
X208991Y259036D01*
X211019Y260206D01*
X212674Y261861D01*
X213844Y263889D01*
X214450Y266150D01*
Y268490D01*
X213844Y270751D01*
X212674Y272779D01*
X211019Y274434D01*
X208991Y275604D01*
X206730Y276210D01*
D02*
G37*
G36*
X571220Y240650D02*
X568880D01*
X566619Y240044D01*
X564591Y238874D01*
X564139Y238421D01*
X523745D01*
X523232Y238815D01*
X521625Y239480D01*
X519901Y239707D01*
X519901Y239707D01*
X472276D01*
X472276Y239707D01*
X470552Y239480D01*
X468946Y238815D01*
X467566Y237756D01*
X467566Y237756D01*
X456490Y226680D01*
X455850D01*
X453589Y226074D01*
X451561Y224904D01*
X449906Y223249D01*
X448736Y221221D01*
X448130Y218960D01*
Y216620D01*
X448736Y214359D01*
X449906Y212331D01*
X451561Y210676D01*
X453589Y209506D01*
X455850Y208900D01*
X458190D01*
X460451Y209506D01*
X462479Y210676D01*
X464134Y212331D01*
X465304Y214359D01*
X465910Y216620D01*
Y217260D01*
X475035Y226385D01*
X517344D01*
X517857Y225991D01*
X519464Y225326D01*
X521188Y225099D01*
X521188Y225099D01*
X564139D01*
X564591Y224646D01*
X566619Y223476D01*
X568880Y222870D01*
X571220D01*
X573481Y223476D01*
X575509Y224646D01*
X577164Y226301D01*
X578334Y228329D01*
X578940Y230590D01*
Y232930D01*
X578334Y235191D01*
X577164Y237219D01*
X575509Y238874D01*
X573481Y240044D01*
X571220Y240650D01*
D02*
G37*
G36*
X708732Y115047D02*
X705688D01*
X702749Y114259D01*
X700114Y112738D01*
X697962Y110586D01*
X696441Y107951D01*
X695653Y105012D01*
Y101968D01*
X696441Y99029D01*
X697962Y96394D01*
X700114Y94242D01*
X702749Y92721D01*
X705688Y91933D01*
X708732D01*
X711671Y92721D01*
X714306Y94242D01*
X716458Y96394D01*
X717979Y99029D01*
X718767Y101968D01*
Y105012D01*
X717979Y107951D01*
X716458Y110586D01*
X714306Y112738D01*
X711671Y114259D01*
X708732Y115047D01*
D02*
G37*
G36*
X285227Y83090D02*
X282573D01*
X280009Y82403D01*
X277711Y81076D01*
X275834Y79199D01*
X274507Y76901D01*
X273820Y74337D01*
Y71683D01*
X274507Y69119D01*
X275834Y66821D01*
X277711Y64944D01*
X280009Y63617D01*
X282573Y62930D01*
X285227D01*
X287791Y63617D01*
X290089Y64944D01*
X291966Y66821D01*
X293293Y69119D01*
X293980Y71683D01*
Y74337D01*
X293293Y76901D01*
X291966Y79199D01*
X290089Y81076D01*
X287791Y82403D01*
X285227Y83090D01*
D02*
G37*
G36*
X243980D02*
X223820D01*
Y62930D01*
X243980D01*
Y83090D01*
D02*
G37*
G36*
X140710Y75470D02*
X120550D01*
Y55310D01*
X140710D01*
Y75470D01*
D02*
G37*
G36*
X81957D02*
X79303D01*
X76739Y74783D01*
X74441Y73456D01*
X72564Y71579D01*
X71237Y69281D01*
X70550Y66717D01*
Y64063D01*
X71237Y61499D01*
X72564Y59201D01*
X74441Y57324D01*
X76739Y55997D01*
X79303Y55310D01*
X81957D01*
X84521Y55997D01*
X86819Y57324D01*
X88696Y59201D01*
X90023Y61499D01*
X90710Y64063D01*
Y66717D01*
X90023Y69281D01*
X88696Y71579D01*
X86819Y73456D01*
X84521Y74783D01*
X81957Y75470D01*
D02*
G37*
%LPD*%
D31*
X234770Y414640D02*
D03*
X183970D02*
D03*
X676730Y409560D02*
D03*
X727530D02*
D03*
X707210Y103490D02*
D03*
X758010D02*
D03*
X911680Y302880D02*
D03*
Y353680D02*
D03*
D35*
X95070Y174610D02*
Y202550D01*
X159078Y266558D01*
X204798D01*
X205560Y267320D01*
X457020Y217790D02*
X472276Y233046D01*
X519901D01*
X521188Y231760D01*
X570050D01*
D37*
X130630Y65390D02*
D03*
X233900Y73010D02*
D03*
D38*
X105630Y65390D02*
D03*
X80630D02*
D03*
X283900Y73010D02*
D03*
X258900D02*
D03*
D39*
X970000Y30000D02*
D03*
Y470000D02*
D03*
X30000D02*
D03*
Y30000D02*
D03*
D40*
X43000Y205090D02*
D03*
X74750Y300340D02*
D03*
X95070Y174610D02*
D03*
X105230Y413370D02*
D03*
X106500Y104760D02*
D03*
X136980Y267320D02*
D03*
X144600Y104760D02*
D03*
X192860Y191120D02*
D03*
X205560Y267320D02*
D03*
X222070Y144130D02*
D03*
X248740Y159370D02*
D03*
X260170Y118730D02*
D03*
X300810Y225410D02*
D03*
X305890Y271130D02*
D03*
X399870Y264780D02*
D03*
Y285100D02*
D03*
X444320Y97140D02*
D03*
X451940Y168260D02*
D03*
X457020Y217790D02*
D03*
X482420Y188580D02*
D03*
X495120Y117460D02*
D03*
X570050Y231760D02*
D03*
X520520Y173340D02*
D03*
X769440Y302880D02*
D03*
X797380Y244460D02*
D03*
X911680Y225410D02*
D03*
M02*
