G04*
G04 #@! TF.GenerationSoftware,Altium Limited,Altium Designer,22.10.1 (41)*
G04*
G04 Layer_Color=8388736*
%FSLAX44Y44*%
%MOMM*%
G71*
G04*
G04 #@! TF.SameCoordinates,069A48A3-1EBA-4DE3-B07F-BDB1E3B34996*
G04*
G04*
G04 #@! TF.FilePolarity,Positive*
G04*
G01*
G75*
%ADD10C,0.2000*%
D10*
X413210Y725200D02*
Y824200D01*
X470710D01*
Y725200D02*
Y824200D01*
X413210Y725200D02*
X470710D01*
X217270Y895809D02*
X229770D01*
X217270Y875809D02*
Y895809D01*
Y875809D02*
X229770D01*
Y895809D01*
X667528Y372210D02*
Y384710D01*
Y372210D02*
X687528D01*
Y384710D01*
X667528D02*
X687528D01*
X1032970Y671860D02*
Y770860D01*
X1090470D01*
Y671860D02*
Y770860D01*
X1032970Y671860D02*
X1090470D01*
X277730Y338500D02*
X291230D01*
X277730Y317500D02*
Y338500D01*
Y317500D02*
X291230D01*
Y338500D01*
X363840Y338410D02*
X377840D01*
X363840Y316910D02*
Y338410D01*
Y316910D02*
X377840D01*
Y338410D01*
X-164230Y335620D02*
X-150730D01*
X-164230Y314620D02*
Y335620D01*
Y314620D02*
X-150730D01*
Y335620D01*
X66910Y333080D02*
X80410D01*
X66910Y312080D02*
Y333080D01*
Y312080D02*
X80410D01*
Y333080D01*
X1073250Y966928D02*
X1085750D01*
X1073250Y946928D02*
Y966928D01*
Y946928D02*
X1085750D01*
Y966928D01*
X476800Y850530D02*
X498800D01*
Y836030D02*
Y850530D01*
X476800Y836030D02*
X498800D01*
X476800D02*
Y850530D01*
X1073250Y870729D02*
Y890729D01*
X1085750D01*
Y870729D02*
Y890729D01*
X1073250Y870729D02*
X1085750D01*
X351890Y927591D02*
X364390D01*
X351890Y907591D02*
Y927591D01*
Y907591D02*
X364390D01*
Y927591D01*
X629200Y261990D02*
Y276490D01*
Y261990D02*
X651200D01*
Y276490D01*
X629200D02*
X651200D01*
X593190Y314469D02*
Y334469D01*
X605690D01*
Y314469D02*
Y334469D01*
X593190Y314469D02*
X605690D01*
X621580Y353430D02*
X643580D01*
X621580D02*
Y367930D01*
X643580D01*
Y353430D02*
Y367930D01*
X622670Y311580D02*
Y333580D01*
X637170D01*
Y311580D02*
Y333580D01*
X622670Y311580D02*
X637170D01*
X720190Y360840D02*
Y380840D01*
X732690D01*
Y360840D02*
Y380840D01*
X720190Y360840D02*
X732690D01*
X733690Y296460D02*
Y318460D01*
X719190Y296460D02*
X733690D01*
X719190D02*
Y318460D01*
X733690D01*
X821960Y246460D02*
Y383460D01*
X950960D01*
Y246460D02*
Y383460D01*
X821960Y246460D02*
X950960D01*
X674680Y281570D02*
X696680D01*
Y267070D02*
Y281570D01*
X674680Y267070D02*
X696680D01*
X674680D02*
Y281570D01*
X223890Y921060D02*
Y943060D01*
X238390D01*
Y921060D02*
Y943060D01*
X223890Y921060D02*
X238390D01*
X458900Y937630D02*
X480900D01*
X458900D02*
Y952130D01*
X480900D01*
Y937630D02*
Y952130D01*
X501191Y979070D02*
X521191D01*
Y966570D02*
Y979070D01*
X501191Y966570D02*
X521191D01*
X501191D02*
Y979070D01*
X452490Y893360D02*
Y915360D01*
X466990D01*
Y893360D02*
Y915360D01*
X452490Y893360D02*
X466990D01*
X519980Y850530D02*
X541980D01*
Y836030D02*
Y850530D01*
X519980Y836030D02*
X541980D01*
X519980D02*
Y850530D01*
X552550Y918989D02*
Y938989D01*
X565050D01*
Y918989D02*
Y938989D01*
X552550Y918989D02*
X565050D01*
X613680Y833200D02*
Y970200D01*
X742680D01*
Y833200D02*
Y970200D01*
X613680Y833200D02*
X742680D01*
X566050Y880540D02*
Y902540D01*
X551550Y880540D02*
X566050D01*
X551550D02*
Y902540D01*
X566050D01*
X314000Y878470D02*
X336000D01*
Y863970D02*
Y878470D01*
X314000Y863970D02*
X336000D01*
X314000D02*
Y878470D01*
X334910Y908480D02*
Y930480D01*
X320410Y908480D02*
X334910D01*
X320410D02*
Y930480D01*
X334910D01*
X267512Y849730D02*
X287512D01*
X267512D02*
Y862230D01*
X287512D01*
Y849730D02*
Y862230D01*
X288600Y955410D02*
X310600D01*
X288600D02*
Y969910D01*
X310600D01*
Y955410D02*
Y969910D01*
X196580Y844095D02*
Y981095D01*
X67580Y844095D02*
X196580D01*
X67580D02*
Y981095D01*
X196580D01*
X275280Y973190D02*
Y987690D01*
X253280D02*
X275280D01*
X253280Y973190D02*
Y987690D01*
Y973190D02*
X275280D01*
X417930Y893589D02*
X430430D01*
Y913589D01*
X417930D02*
X430430D01*
X417930Y893589D02*
Y913589D01*
M02*
