G04*
G04 #@! TF.GenerationSoftware,Altium Limited,Altium Designer,22.10.1 (41)*
G04*
G04 Layer_Color=16711935*
%FSLAX44Y44*%
%MOMM*%
G71*
G04*
G04 #@! TF.SameCoordinates,4CDF153F-0075-4D10-A07D-334E842CD810*
G04*
G04*
G04 #@! TF.FilePolarity,Positive*
G04*
G01*
G75*
%ADD56C,0.2000*%
%ADD60C,0.1000*%
%ADD61C,0.0500*%
D56*
X10890Y111860D02*
Y187860D01*
Y111860D02*
X70390D01*
Y187860D01*
X10890D02*
X70390D01*
X99620Y109120D02*
Y185120D01*
Y109120D02*
X159120D01*
Y185120D01*
X99620D02*
X159120D01*
X188690Y106780D02*
Y182780D01*
Y106780D02*
X248190D01*
Y182780D01*
X188690D02*
X248190D01*
X10890Y15340D02*
Y91340D01*
Y15340D02*
X70390D01*
Y91340D01*
X10890D02*
X70390D01*
X99790Y12800D02*
Y88800D01*
Y12800D02*
X159290D01*
Y88800D01*
X99790D02*
X159290D01*
X188520Y10460D02*
Y86460D01*
Y10460D02*
X248020D01*
Y86460D01*
X188520D02*
X248020D01*
X1014309Y478841D02*
X1032931D01*
Y445719D02*
Y478841D01*
X1014309Y445719D02*
X1032931D01*
X1014309D02*
Y478841D01*
X92289Y508070D02*
X110911D01*
X92289D02*
Y541191D01*
X110911D01*
Y508070D02*
Y541191D01*
X171029Y482771D02*
X189651D01*
Y449650D02*
Y482771D01*
X171029Y449650D02*
X189651D01*
X171029D02*
Y482771D01*
X663789Y510610D02*
X682411D01*
X663789D02*
Y543731D01*
X682411D01*
Y510610D02*
Y543731D01*
X739989Y478841D02*
X758611D01*
Y445719D02*
Y478841D01*
X739989Y445719D02*
X758611D01*
X739989D02*
Y478841D01*
X376769Y506679D02*
X395391D01*
X376769D02*
Y539801D01*
X395391D01*
Y506679D02*
Y539801D01*
X943189Y515449D02*
X961811D01*
X943189D02*
Y548570D01*
X961811D01*
Y515449D02*
Y548570D01*
X455509Y485070D02*
X474131D01*
Y451949D02*
Y485070D01*
X455509Y451949D02*
X474131D01*
X455509D02*
Y485070D01*
X165019Y504249D02*
X190581D01*
X165019D02*
Y547311D01*
X190581D01*
Y504249D02*
Y547311D01*
X655239Y488891D02*
X680801D01*
Y445829D02*
Y488891D01*
X655239Y445829D02*
X680801D01*
X655239D02*
Y488891D01*
X104059Y486754D02*
X129621D01*
Y443692D02*
Y486754D01*
X104059Y443692D02*
X129621D01*
X104059D02*
Y486754D01*
X893999Y503846D02*
X919561D01*
X893999D02*
Y546908D01*
X919561D01*
Y503846D02*
Y546908D01*
X335199Y504249D02*
X360761D01*
X335199D02*
Y547311D01*
X360761D01*
Y504249D02*
Y547311D01*
X970199Y511466D02*
X995761D01*
X970199D02*
Y554528D01*
X995761D01*
Y511466D02*
Y554528D01*
X406319Y504249D02*
X431881D01*
X406319D02*
Y547311D01*
X431881D01*
Y504249D02*
Y547311D01*
X899079Y483408D02*
X924641D01*
Y440346D02*
Y483408D01*
X899079Y440346D02*
X924641D01*
X899079D02*
Y483408D01*
X330119Y491028D02*
X355681D01*
Y447966D02*
Y491028D01*
X330119Y447966D02*
X355681D01*
X330119D02*
Y491028D01*
X1043859Y486351D02*
X1069421D01*
Y443289D02*
Y486351D01*
X1043859Y443289D02*
X1069421D01*
X1043859D02*
Y486351D01*
X487599Y491431D02*
X513161D01*
Y448369D02*
Y491431D01*
X487599Y448369D02*
X513161D01*
X487599D02*
Y491431D01*
X982899Y484214D02*
X1008461D01*
Y441152D02*
Y484214D01*
X982899Y441152D02*
X1008461D01*
X982899D02*
Y484214D01*
X419019Y491028D02*
X444581D01*
Y447966D02*
Y491028D01*
X419019Y447966D02*
X444581D01*
X419019D02*
Y491028D01*
X1038779Y511869D02*
X1064341D01*
X1038779D02*
Y554931D01*
X1064341D01*
Y511869D02*
Y554931D01*
X492679Y504249D02*
X518241D01*
X492679D02*
Y547311D01*
X518241D01*
Y504249D02*
Y547311D01*
X1003219Y511869D02*
X1028781D01*
X1003219D02*
Y554931D01*
X1028781D01*
Y511869D02*
Y554931D01*
X952419Y484214D02*
X977981D01*
Y441152D02*
Y484214D01*
X952419Y441152D02*
X977981D01*
X952419D02*
Y484214D01*
X439339Y503846D02*
X464901D01*
X439339D02*
Y546908D01*
X464901D01*
Y503846D02*
Y546908D01*
X385999Y491834D02*
X411561D01*
Y448772D02*
Y491834D01*
X385999Y448772D02*
X411561D01*
X385999D02*
Y491834D01*
X129459Y504652D02*
X155021D01*
X129459D02*
Y547714D01*
X155021D01*
Y504652D02*
Y547714D01*
X614599Y488488D02*
X640161D01*
Y445426D02*
Y488488D01*
X614599Y445426D02*
X640161D01*
X614599D02*
Y488488D01*
X50719Y486754D02*
X76281D01*
Y443692D02*
Y486754D01*
X50719Y443692D02*
X76281D01*
X50719D02*
Y486754D01*
X777159Y486351D02*
X802721D01*
Y443289D02*
Y486351D01*
X777159Y443289D02*
X802721D01*
X777159D02*
Y486351D01*
X205659Y488891D02*
X231221D01*
Y445829D02*
Y488891D01*
X205659Y445829D02*
X231221D01*
X205659D02*
Y488891D01*
X698419Y486754D02*
X723981D01*
Y443692D02*
Y486754D01*
X698419Y443692D02*
X723981D01*
X698419D02*
Y486754D01*
X761919Y506789D02*
X787481D01*
X761919D02*
Y549851D01*
X787481D01*
Y506789D02*
Y549851D01*
X205659Y504249D02*
X231221D01*
X205659D02*
Y547311D01*
X231221D01*
Y504249D02*
Y547311D01*
X731439Y506789D02*
X757001D01*
X731439D02*
Y549851D01*
X757001D01*
Y506789D02*
Y549851D01*
X134539Y486351D02*
X160101D01*
Y443289D02*
Y486351D01*
X134539Y443289D02*
X160101D01*
X134539D02*
Y486351D01*
X622219Y504652D02*
X647781D01*
X622219D02*
Y547714D01*
X647781D01*
Y504652D02*
Y547714D01*
X50719Y504652D02*
X76281D01*
X50719D02*
Y547714D01*
X76281D01*
Y504652D02*
Y547714D01*
X698419Y506386D02*
X723981D01*
X698419D02*
Y549448D01*
X723981D01*
Y506386D02*
Y549448D01*
X508891Y633440D02*
Y692440D01*
X425829Y633440D02*
X508891D01*
X425829D02*
Y692440D01*
X508891D01*
X281650Y728060D02*
X404150D01*
Y613060D02*
Y728060D01*
X281650Y613060D02*
X404150D01*
X281650D02*
Y728060D01*
X1065160Y8355D02*
X1124660D01*
X1065160D02*
Y84355D01*
X1124660D01*
Y8355D02*
Y84355D01*
X1065160Y99360D02*
X1124660D01*
X1065160D02*
Y175360D01*
X1124660D01*
Y99360D02*
Y175360D01*
X912760Y124360D02*
X972260D01*
X912760D02*
Y225360D01*
X972260D01*
Y124360D02*
Y225360D01*
X912760Y8320D02*
X972260D01*
X912760D02*
Y109320D01*
X972260D01*
Y8320D02*
Y109320D01*
X986420Y165200D02*
X1045920D01*
Y39200D02*
Y165200D01*
X986420Y39200D02*
X1045920D01*
X986420D02*
Y165200D01*
D60*
X276860Y193040D02*
X886460D01*
Y15240D02*
Y193040D01*
X276860Y15240D02*
X886460D01*
X276860D02*
Y193040D01*
X759540Y645780D02*
X769540D01*
X764540Y640780D02*
Y650780D01*
X790020Y647700D02*
X800020D01*
X795020Y642700D02*
Y652700D01*
X759540Y708660D02*
X769540D01*
X764540Y703660D02*
Y713660D01*
X589360Y650240D02*
X599360D01*
X594360Y645240D02*
Y655240D01*
X632540Y650240D02*
X642540D01*
X637540Y645240D02*
Y655240D01*
X1046560Y353060D02*
X1056560D01*
X1051560Y348060D02*
Y358060D01*
X233760Y355220D02*
X243760D01*
X238760Y350220D02*
Y360220D01*
X792560Y358520D02*
X802560D01*
X797560Y353520D02*
Y363520D01*
X492840Y355980D02*
X502840D01*
X497840Y350980D02*
Y360980D01*
X419180Y355600D02*
X429180D01*
X424180Y350600D02*
Y360600D01*
X975440Y355600D02*
X985440D01*
X980440Y350600D02*
Y360600D01*
X720170Y357290D02*
X730170D01*
X725170Y352290D02*
Y362290D01*
X155020Y355600D02*
X165020D01*
X160020Y350600D02*
Y360600D01*
X302340Y541020D02*
X312340D01*
X307340Y536020D02*
Y546020D01*
X249000Y627380D02*
X259000D01*
X254000Y622380D02*
Y632380D01*
X73740Y629920D02*
X83740D01*
X78740Y624920D02*
Y634920D01*
X591900Y708660D02*
X601900D01*
X596900Y703660D02*
Y713660D01*
D61*
X756040Y632280D02*
Y659280D01*
X773040Y632280D02*
Y659280D01*
X756040D02*
X773040D01*
X756040Y632280D02*
X773040D01*
X786520Y634200D02*
Y661200D01*
X803520Y634200D02*
Y661200D01*
X786520D02*
X803520D01*
X786520Y634200D02*
X803520D01*
X585860Y636740D02*
Y663740D01*
X602860Y636740D02*
Y663740D01*
X585860D02*
X602860D01*
X585860Y636740D02*
X602860D01*
X629040D02*
Y663740D01*
X646040Y636740D02*
Y663740D01*
X629040D02*
X646040D01*
X629040Y636740D02*
X646040D01*
X1041560Y336060D02*
Y370060D01*
X1061560Y336060D02*
Y370060D01*
X1041560D02*
X1061560D01*
X1041560Y336060D02*
X1061560D01*
X228760Y338220D02*
Y372220D01*
X248760Y338220D02*
Y372220D01*
X228760D02*
X248760D01*
X228760Y338220D02*
X248760D01*
X787560Y341520D02*
Y375520D01*
X807560Y341520D02*
Y375520D01*
X787560D02*
X807560D01*
X787560Y341520D02*
X807560D01*
X487840Y338980D02*
Y372980D01*
X507840Y338980D02*
Y372980D01*
X487840D02*
X507840D01*
X487840Y338980D02*
X507840D01*
X475180Y322100D02*
Y389100D01*
X373180Y322100D02*
Y389100D01*
Y322100D02*
X475180D01*
X373180Y389100D02*
X475180D01*
X1031440Y322100D02*
Y389100D01*
X929440Y322100D02*
Y389100D01*
Y322100D02*
X1031440D01*
X929440Y389100D02*
X1031440D01*
X776170Y323790D02*
Y390790D01*
X674170Y323790D02*
Y390790D01*
Y323790D02*
X776170D01*
X674170Y390790D02*
X776170D01*
X211020Y322100D02*
Y389100D01*
X109020Y322100D02*
Y389100D01*
Y322100D02*
X211020D01*
X109020Y389100D02*
X211020D01*
X329840Y529520D02*
Y552520D01*
X284840Y529520D02*
Y552520D01*
X329840D01*
X284840Y529520D02*
X329840D01*
X264000Y610380D02*
Y644380D01*
X244000Y610380D02*
Y644380D01*
Y610380D02*
X264000D01*
X244000Y644380D02*
X264000D01*
X88740Y612920D02*
Y646920D01*
X68740Y612920D02*
Y646920D01*
Y612920D02*
X88740D01*
X68740Y646920D02*
X88740D01*
X115760Y697060D02*
X234760D01*
X115760Y683060D02*
Y697060D01*
X97760Y683060D02*
X115760D01*
X97760Y658060D02*
Y683060D01*
Y658060D02*
X115760D01*
Y644060D02*
Y658060D01*
Y644060D02*
X234760D01*
Y658060D01*
X252760D01*
Y683060D01*
X234760D02*
X252760D01*
X234760D02*
Y697060D01*
M02*
