G04*
G04 #@! TF.GenerationSoftware,Altium Limited,Altium Designer,22.10.1 (41)*
G04*
G04 Layer_Color=65535*
%FSLAX44Y44*%
%MOMM*%
G71*
G04*
G04 #@! TF.SameCoordinates,4CDF153F-0075-4D10-A07D-334E842CD810*
G04*
G04*
G04 #@! TF.FilePolarity,Positive*
G04*
G01*
G75*
%ADD10C,0.2540*%
D10*
X78740Y306578D02*
X1059180D01*
X78740Y349758D02*
X1059180D01*
Y306578D02*
Y349758D01*
X78740Y306578D02*
Y349758D01*
X302006Y400812D02*
X551942D01*
X302006Y592328D02*
X551942D01*
Y400812D02*
Y592328D01*
X302006Y400812D02*
Y592328D01*
X867664Y400812D02*
X1117600D01*
X867664Y592328D02*
X1117600D01*
Y400812D02*
Y592328D01*
X867664Y400812D02*
Y592328D01*
X585724Y400812D02*
Y592328D01*
X835660Y400812D02*
Y592328D01*
X585724D02*
X835660D01*
X585724Y400812D02*
X835660D01*
X20066D02*
Y592328D01*
X270002Y400812D02*
Y592328D01*
X20066D02*
X270002D01*
X20066Y400812D02*
X270002D01*
X324485Y622676D02*
Y609980D01*
X327024Y607441D01*
X332103D01*
X334642Y609980D01*
Y622676D01*
X339720Y609980D02*
X342259Y607441D01*
X347338D01*
X349877Y609980D01*
Y620137D01*
X347338Y622676D01*
X342259D01*
X339720Y620137D01*
Y617598D01*
X342259Y615059D01*
X349877D01*
X1141598Y590931D02*
X1128902D01*
X1126363Y588392D01*
Y583313D01*
X1128902Y580774D01*
X1141598D01*
X1126363Y575696D02*
Y570618D01*
Y573157D01*
X1141598D01*
X1139059Y575696D01*
X1126363Y563000D02*
Y557922D01*
Y560461D01*
X1141598D01*
X1139059Y563000D01*
X890517Y222377D02*
X875282D01*
Y229995D01*
X877821Y232534D01*
X882899D01*
X885439Y229995D01*
Y222377D01*
Y227455D02*
X890517Y232534D01*
Y237612D02*
Y242690D01*
Y240151D01*
X875282D01*
X877821Y237612D01*
Y250308D02*
X875282Y252847D01*
Y257925D01*
X877821Y260465D01*
X880360D01*
X882899Y257925D01*
Y255386D01*
Y257925D01*
X885439Y260465D01*
X887978D01*
X890517Y257925D01*
Y252847D01*
X887978Y250308D01*
X834517Y222377D02*
X819282D01*
Y229995D01*
X821821Y232534D01*
X826899D01*
X829439Y229995D01*
Y222377D01*
Y227455D02*
X834517Y232534D01*
Y237612D02*
Y242690D01*
Y240151D01*
X819282D01*
X821821Y237612D01*
X834517Y260465D02*
Y250308D01*
X824360Y260465D01*
X821821D01*
X819282Y257925D01*
Y252847D01*
X821821Y250308D01*
X882523Y128143D02*
X897758D01*
Y120526D01*
X895219Y117986D01*
X890141D01*
X887601Y120526D01*
Y128143D01*
Y123065D02*
X882523Y117986D01*
Y112908D02*
Y107830D01*
Y110369D01*
X897758D01*
X895219Y112908D01*
X882523Y100212D02*
Y95134D01*
Y97673D01*
X897758D01*
X895219Y100212D01*
X872363Y52197D02*
Y36962D01*
X864745D01*
X862206Y39501D01*
Y44580D01*
X864745Y47119D01*
X872363D01*
X867285D02*
X862206Y52197D01*
X857128D02*
X852050D01*
X854589D01*
Y36962D01*
X857128Y39501D01*
X844432D02*
X841893Y36962D01*
X836814D01*
X834275Y39501D01*
Y49658D01*
X836814Y52197D01*
X841893D01*
X844432Y49658D01*
Y39501D01*
X859658Y590931D02*
X846962D01*
X844423Y588392D01*
Y583313D01*
X846962Y580774D01*
X859658D01*
X844423Y575696D02*
Y570618D01*
Y573157D01*
X859658D01*
X857119Y575696D01*
Y563000D02*
X859658Y560461D01*
Y555382D01*
X857119Y552843D01*
X846962D01*
X844423Y555382D01*
Y560461D01*
X846962Y563000D01*
X857119D01*
X294000Y590931D02*
X281304D01*
X278765Y588392D01*
Y583313D01*
X281304Y580774D01*
X294000D01*
X291461Y575696D02*
X294000Y573157D01*
Y568078D01*
X291461Y565539D01*
X288922D01*
X286383Y568078D01*
X283843Y565539D01*
X281304D01*
X278765Y568078D01*
Y573157D01*
X281304Y575696D01*
X283843D01*
X286383Y573157D01*
X288922Y575696D01*
X291461D01*
X286383Y573157D02*
Y568078D01*
M02*
