G04*
G04 #@! TF.GenerationSoftware,Altium Limited,Altium Designer,22.10.1 (41)*
G04*
G04 Layer_Color=32768*
%FSLAX44Y44*%
%MOMM*%
G71*
G04*
G04 #@! TF.SameCoordinates,F6FD88A5-7606-448C-B8D5-CB5F8BF09B0B*
G04*
G04*
G04 #@! TF.FilePolarity,Positive*
G04*
G01*
G75*
%ADD58C,0.2000*%
%ADD60C,0.1270*%
%ADD62C,0.1000*%
D58*
X771320Y598800D02*
Y656300D01*
X870320D01*
Y598800D02*
Y656300D01*
X771320Y598800D02*
X870320D01*
X745920Y675000D02*
Y732500D01*
X844920D01*
Y675000D02*
Y732500D01*
X745920Y675000D02*
X844920D01*
X613840D02*
X712840D01*
Y732500D01*
X613840D02*
X712840D01*
X613840Y675000D02*
Y732500D01*
X34920Y171080D02*
Y245080D01*
Y171080D02*
X92420D01*
Y245080D01*
X34920D02*
X92420D01*
X118740Y168540D02*
Y242540D01*
Y168540D02*
X176240D01*
Y242540D01*
X118740D02*
X176240D01*
X194770Y166200D02*
Y240200D01*
Y166200D02*
X252270D01*
Y240200D01*
X194770D02*
X252270D01*
X34920Y69480D02*
Y143480D01*
Y69480D02*
X92420D01*
Y143480D01*
X34920D02*
X92420D01*
X116200Y72020D02*
Y146020D01*
Y72020D02*
X173700D01*
Y146020D01*
X116200D02*
X173700D01*
X194600Y69880D02*
Y143880D01*
Y69880D02*
X252100D01*
Y143880D01*
X194600D02*
X252100D01*
X1017370Y472280D02*
X1029870D01*
Y452280D02*
Y472280D01*
X1017370Y452280D02*
X1029870D01*
X1017370D02*
Y472280D01*
X95350Y514630D02*
X107850D01*
X95350D02*
Y534630D01*
X107850D01*
Y514630D02*
Y534630D01*
X174090Y476210D02*
X186590D01*
Y456210D02*
Y476210D01*
X174090Y456210D02*
X186590D01*
X174090D02*
Y476210D01*
X666850Y517170D02*
X679350D01*
X666850D02*
Y537170D01*
X679350D01*
Y517170D02*
Y537170D01*
X743050Y472280D02*
X755550D01*
Y452280D02*
Y472280D01*
X743050Y452280D02*
X755550D01*
X743050D02*
Y472280D01*
X379830Y513240D02*
X392330D01*
X379830D02*
Y533240D01*
X392330D01*
Y513240D02*
Y533240D01*
X946250Y522010D02*
X958750D01*
X946250D02*
Y542010D01*
X958750D01*
Y522010D02*
Y542010D01*
X458570Y478510D02*
X471070D01*
Y458510D02*
Y478510D01*
X458570Y458510D02*
X471070D01*
X458570D02*
Y478510D01*
X171550Y515780D02*
X184050D01*
X171550D02*
Y535780D01*
X184050D01*
Y515780D02*
Y535780D01*
X661770Y477360D02*
X674270D01*
Y457360D02*
Y477360D01*
X661770Y457360D02*
X674270D01*
X661770D02*
Y477360D01*
X110590Y475223D02*
X123090D01*
Y455223D02*
Y475223D01*
X110590Y455223D02*
X123090D01*
X110590D02*
Y475223D01*
X900530Y515377D02*
X913030D01*
X900530D02*
Y535377D01*
X913030D01*
Y515377D02*
Y535377D01*
X341730Y515780D02*
X354230D01*
X341730D02*
Y535780D01*
X354230D01*
Y515780D02*
Y535780D01*
X976730Y522997D02*
X989230D01*
X976730D02*
Y542997D01*
X989230D01*
Y522997D02*
Y542997D01*
X412850Y515780D02*
X425350D01*
X412850D02*
Y535780D01*
X425350D01*
Y515780D02*
Y535780D01*
X905610Y471877D02*
X918110D01*
Y451877D02*
Y471877D01*
X905610Y451877D02*
X918110D01*
X905610D02*
Y471877D01*
X336650Y479497D02*
X349150D01*
Y459497D02*
Y479497D01*
X336650Y459497D02*
X349150D01*
X336650D02*
Y479497D01*
X1050390Y474820D02*
X1062890D01*
Y454820D02*
Y474820D01*
X1050390Y454820D02*
X1062890D01*
X1050390D02*
Y474820D01*
X494130Y479900D02*
X506630D01*
Y459900D02*
Y479900D01*
X494130Y459900D02*
X506630D01*
X494130D02*
Y479900D01*
X989430Y472683D02*
X1001930D01*
Y452683D02*
Y472683D01*
X989430Y452683D02*
X1001930D01*
X989430D02*
Y472683D01*
X425550Y479497D02*
X438050D01*
Y459497D02*
Y479497D01*
X425550Y459497D02*
X438050D01*
X425550D02*
Y479497D01*
X1045310Y523400D02*
X1057810D01*
X1045310D02*
Y543400D01*
X1057810D01*
Y523400D02*
Y543400D01*
X499210Y515780D02*
X511710D01*
X499210D02*
Y535780D01*
X511710D01*
Y515780D02*
Y535780D01*
X1009750Y523400D02*
X1022250D01*
X1009750D02*
Y543400D01*
X1022250D01*
Y523400D02*
Y543400D01*
X958950Y472683D02*
X971450D01*
Y452683D02*
Y472683D01*
X958950Y452683D02*
X971450D01*
X958950D02*
Y472683D01*
X445870Y515377D02*
X458370D01*
X445870D02*
Y535377D01*
X458370D01*
Y515377D02*
Y535377D01*
X392530Y480303D02*
X405030D01*
Y460303D02*
Y480303D01*
X392530Y460303D02*
X405030D01*
X392530D02*
Y480303D01*
X135990Y516183D02*
X148490D01*
X135990D02*
Y536183D01*
X148490D01*
Y516183D02*
Y536183D01*
X621130Y476957D02*
X633630D01*
Y456957D02*
Y476957D01*
X621130Y456957D02*
X633630D01*
X621130D02*
Y476957D01*
X57250Y475223D02*
X69750D01*
Y455223D02*
Y475223D01*
X57250Y455223D02*
X69750D01*
X57250D02*
Y475223D01*
X783690Y474820D02*
X796190D01*
Y454820D02*
Y474820D01*
X783690Y454820D02*
X796190D01*
X783690D02*
Y474820D01*
X212190Y477360D02*
X224690D01*
Y457360D02*
Y477360D01*
X212190Y457360D02*
X224690D01*
X212190D02*
Y477360D01*
X704950Y475223D02*
X717450D01*
Y455223D02*
Y475223D01*
X704950Y455223D02*
X717450D01*
X704950D02*
Y475223D01*
X768450Y518320D02*
X780950D01*
X768450D02*
Y538320D01*
X780950D01*
Y518320D02*
Y538320D01*
X212190Y515780D02*
X224690D01*
X212190D02*
Y535780D01*
X224690D01*
Y515780D02*
Y535780D01*
X737970Y518320D02*
X750470D01*
X737970D02*
Y538320D01*
X750470D01*
Y518320D02*
Y538320D01*
X141070Y474820D02*
X153570D01*
Y454820D02*
Y474820D01*
X141070Y454820D02*
X153570D01*
X141070D02*
Y474820D01*
X628750Y516183D02*
X641250D01*
X628750D02*
Y536183D01*
X641250D01*
Y516183D02*
Y536183D01*
X57250Y516183D02*
X69750D01*
X57250D02*
Y536183D01*
X69750D01*
Y516183D02*
Y536183D01*
X704950Y517917D02*
X717450D01*
X704950D02*
Y537917D01*
X717450D01*
Y517917D02*
Y537917D01*
X230320Y615580D02*
Y664580D01*
X191320Y615580D02*
X230320D01*
X191320D02*
Y664580D01*
X230320D01*
X284150Y708560D02*
X401650D01*
Y632560D02*
Y708560D01*
X284150Y632560D02*
X401650D01*
X284150D02*
Y708560D01*
X1020270Y72220D02*
X1077770D01*
X1020270D02*
Y146220D01*
X1077770D01*
Y72220D02*
Y146220D01*
X1020270Y171280D02*
X1077770D01*
X1020270D02*
Y245280D01*
X1077770D01*
Y171280D02*
Y245280D01*
X908510Y148620D02*
X966010D01*
X908510D02*
Y247620D01*
X966010D01*
Y148620D02*
Y247620D01*
X735700Y598800D02*
Y656300D01*
X611700Y598800D02*
X735700D01*
X611700D02*
Y656300D01*
X735700D01*
D60*
X201780Y682120D02*
Y730120D01*
X87780Y682120D02*
X201780D01*
X87780D02*
Y730120D01*
X201780D01*
D62*
X599000Y371680D02*
G03*
X599000Y371680I-5000J0D01*
G01*
X192600Y369140D02*
G03*
X192600Y369140I-5000J0D01*
G01*
X323410Y372530D02*
G03*
X323410Y372530I-5000J0D01*
G01*
X865700Y369140D02*
G03*
X865700Y369140I-5000J0D01*
G01*
X585000Y380680D02*
X685000D01*
X585000Y340680D02*
X685000D01*
X585000D02*
Y380680D01*
X685000Y340680D02*
Y380680D01*
X178600Y378140D02*
X278600D01*
X178600Y338140D02*
X278600D01*
X178600D02*
Y378140D01*
X278600Y338140D02*
Y378140D01*
X279770Y423340D02*
X294270D01*
X279770Y445340D02*
X294270D01*
Y423340D02*
Y445340D01*
X279770Y423340D02*
Y445340D01*
X309410Y381530D02*
X409410D01*
X309410Y341530D02*
X409410D01*
X309410D02*
Y381530D01*
X409410Y341530D02*
Y381530D01*
X559170Y679260D02*
Y701260D01*
X573670Y679260D02*
Y701260D01*
X559170D02*
X573670D01*
X559170Y679260D02*
X573670D01*
X561710Y712900D02*
Y734900D01*
X576210Y712900D02*
Y734900D01*
X561710D02*
X576210D01*
X561710Y712900D02*
X576210D01*
X433140Y660120D02*
X537140D01*
X433140Y614120D02*
Y660120D01*
Y614120D02*
X537140D01*
Y660120D01*
X433140Y627120D02*
X537140D01*
X556630Y591600D02*
Y613600D01*
X571130Y591600D02*
Y613600D01*
X556630D02*
X571130D01*
X556630Y591600D02*
X571130D01*
X556630Y633540D02*
Y655540D01*
X571130Y633540D02*
Y655540D01*
X556630D02*
X571130D01*
X556630Y633540D02*
X571130D01*
X1044310Y359460D02*
Y381460D01*
X1058810Y359460D02*
Y381460D01*
X1044310D02*
X1058810D01*
X1044310Y359460D02*
X1058810D01*
X790310Y347520D02*
Y369520D01*
X804810Y347520D02*
Y369520D01*
X790310D02*
X804810D01*
X790310Y347520D02*
X804810D01*
X432170Y354380D02*
Y376380D01*
X446670Y354380D02*
Y376380D01*
X432170D02*
X446670D01*
X432170Y354380D02*
X446670D01*
X951700Y338140D02*
Y378140D01*
X851700Y338140D02*
Y378140D01*
Y338140D02*
X951700D01*
X851700Y378140D02*
X951700D01*
X323840Y532020D02*
Y550020D01*
X290840Y532020D02*
Y550020D01*
X323840D01*
X290840Y532020D02*
X323840D01*
X134250Y631620D02*
Y653620D01*
X119750Y631620D02*
Y653620D01*
Y631620D02*
X134250D01*
X119750Y653620D02*
X134250D01*
X88530Y638610D02*
Y660610D01*
X74030Y638610D02*
Y660610D01*
Y638610D02*
X88530D01*
X74030Y660610D02*
X88530D01*
X433140Y733780D02*
X537140D01*
X433140Y687780D02*
Y733780D01*
Y687780D02*
X537140D01*
Y733780D01*
X433140Y700780D02*
X537140D01*
M02*
