G04*
G04 #@! TF.GenerationSoftware,Altium Limited,Altium Designer,22.10.1 (41)*
G04*
G04 Layer_Color=32896*
%FSLAX44Y44*%
%MOMM*%
G71*
G04*
G04 #@! TF.SameCoordinates,F6FD88A5-7606-448C-B8D5-CB5F8BF09B0B*
G04*
G04*
G04 #@! TF.FilePolarity,Positive*
G04*
G01*
G75*
%ADD10C,0.2540*%
%ADD57C,0.2500*%
%ADD58C,0.2000*%
%ADD59C,0.6000*%
%ADD60C,0.1270*%
G36*
X1046499Y711913D02*
X1046201D01*
Y709528D01*
X1046052D01*
Y708932D01*
X1045903D01*
Y708336D01*
X1045754D01*
Y705803D01*
X1045456D01*
Y703418D01*
X1045307D01*
Y702673D01*
X1045009D01*
Y699692D01*
X1044711D01*
Y697755D01*
X1044562D01*
Y696264D01*
X1044264D01*
Y695519D01*
X1036216D01*
Y695668D01*
X1035769D01*
Y696414D01*
X1035471D01*
Y697308D01*
X1035322D01*
Y697606D01*
X1035024D01*
Y698798D01*
X1034726D01*
Y699245D01*
X1034577D01*
Y699990D01*
X1034279D01*
Y700735D01*
X1033981D01*
Y701182D01*
X1033832D01*
Y701928D01*
X1033534D01*
Y702971D01*
X1033385D01*
Y703120D01*
X1033087D01*
Y704312D01*
X1032789D01*
Y704908D01*
X1032640D01*
Y705355D01*
X1032342D01*
Y706548D01*
X1032044D01*
Y706846D01*
X1031894D01*
Y707442D01*
Y707591D01*
X1031596D01*
Y708783D01*
X1031298D01*
Y709081D01*
X1031149D01*
Y709975D01*
X1030851D01*
Y709230D01*
X1030702D01*
Y708485D01*
X1030404D01*
Y705355D01*
X1030106D01*
Y703865D01*
X1029957D01*
Y702375D01*
X1029659D01*
Y699543D01*
X1029510D01*
Y699245D01*
X1029361D01*
Y698500D01*
X1029212D01*
Y696115D01*
X1028914D01*
Y695668D01*
X1028765D01*
Y695519D01*
X1026231D01*
Y697606D01*
X1026529D01*
Y700288D01*
X1026678D01*
Y701033D01*
X1026827D01*
Y701182D01*
X1026976D01*
Y704163D01*
X1027274D01*
Y705803D01*
X1027423D01*
Y707144D01*
X1027722D01*
Y710273D01*
X1028020D01*
Y711466D01*
X1028169D01*
Y713403D01*
X1028467D01*
Y713850D01*
X1036514D01*
Y713701D01*
X1036962D01*
Y712658D01*
X1037260D01*
Y712211D01*
X1037409D01*
Y711615D01*
X1037707D01*
Y710721D01*
X1037856D01*
Y710423D01*
X1038005D01*
Y710273D01*
X1038154D01*
Y709230D01*
X1038452D01*
Y708485D01*
X1038601D01*
Y708336D01*
X1038750D01*
Y708038D01*
X1038899D01*
Y707293D01*
X1039197D01*
Y706548D01*
X1039346D01*
Y706101D01*
X1039644D01*
Y704908D01*
X1039942D01*
Y704610D01*
X1040091D01*
Y703865D01*
X1040389D01*
Y702673D01*
X1040687D01*
Y702375D01*
X1040836D01*
Y701481D01*
X1041134D01*
Y700735D01*
X1041283D01*
Y700437D01*
X1041581D01*
Y699543D01*
X1041880D01*
Y700735D01*
X1042029D01*
Y702226D01*
X1042327D01*
Y705057D01*
X1042476D01*
Y705355D01*
X1042625D01*
Y706101D01*
X1042774D01*
Y708336D01*
X1043072D01*
Y710721D01*
X1043221D01*
Y711466D01*
X1043370D01*
Y711764D01*
X1043519D01*
Y713701D01*
X1043817D01*
Y713850D01*
X1046499D01*
Y711913D01*
D02*
G37*
G36*
X948735Y713701D02*
X948884D01*
Y712658D01*
X948735D01*
Y712360D01*
X948586D01*
Y711615D01*
X948437D01*
Y709230D01*
X948139D01*
Y706846D01*
X947990D01*
Y706250D01*
X947841D01*
Y706101D01*
X947692D01*
Y703120D01*
X947394D01*
Y701481D01*
X947245D01*
Y700437D01*
X946947D01*
Y697308D01*
X946649D01*
Y696264D01*
X946500D01*
Y695519D01*
X852462D01*
Y695668D01*
X852312D01*
Y697755D01*
X852462D01*
Y698053D01*
X852611D01*
Y698798D01*
X852760D01*
Y701033D01*
X853058D01*
Y703418D01*
X853207D01*
Y704163D01*
X853505D01*
Y707144D01*
X853803D01*
Y708783D01*
X853952D01*
Y710273D01*
X854250D01*
Y713403D01*
X854548D01*
Y713701D01*
X854697D01*
Y713850D01*
X948735D01*
Y713701D01*
D02*
G37*
G36*
X1067364Y711913D02*
X1067215D01*
Y711168D01*
X1067066D01*
Y711019D01*
X1066917D01*
Y710721D01*
X1057379D01*
Y710423D01*
X1057081D01*
Y710273D01*
X1056932D01*
Y709975D01*
X1056634D01*
Y708038D01*
X1056485D01*
Y706995D01*
X1056186D01*
Y705206D01*
Y705057D01*
Y703865D01*
X1055888D01*
Y702673D01*
X1055739D01*
Y700735D01*
X1055441D01*
Y699096D01*
X1055739D01*
Y698798D01*
X1056186D01*
Y698500D01*
X1059167D01*
Y698798D01*
X1059614D01*
Y699245D01*
X1060061D01*
Y701481D01*
X1060359D01*
Y703418D01*
X1057230D01*
Y703567D01*
X1057081D01*
Y704163D01*
X1057230D01*
Y704610D01*
X1057379D01*
Y706399D01*
X1057677D01*
Y706548D01*
X1067215D01*
Y706399D01*
X1067364D01*
Y704908D01*
X1067215D01*
Y704610D01*
X1067066D01*
Y704163D01*
X1066917D01*
Y701182D01*
X1066619D01*
Y698947D01*
X1066469D01*
Y698202D01*
X1066320D01*
Y698053D01*
X1066171D01*
Y695668D01*
X1065873D01*
Y695370D01*
X1051864D01*
Y695519D01*
X1051566D01*
Y695668D01*
X1051268D01*
Y695817D01*
X1050523D01*
Y696115D01*
X1050076D01*
Y696563D01*
X1049629D01*
Y697308D01*
X1049331D01*
Y697755D01*
X1049182D01*
Y698500D01*
X1048884D01*
Y700288D01*
X1049182D01*
Y701481D01*
X1049331D01*
Y703418D01*
X1049629D01*
Y706101D01*
X1049778D01*
Y706399D01*
X1049927D01*
Y706995D01*
X1050076D01*
Y709528D01*
X1050374D01*
Y710721D01*
X1050821D01*
Y711466D01*
X1051119D01*
Y711913D01*
X1051268D01*
Y712211D01*
X1051566D01*
Y712658D01*
X1052014D01*
Y712956D01*
X1052312D01*
Y713105D01*
X1052461D01*
Y713403D01*
X1053206D01*
Y713701D01*
X1053951D01*
Y713850D01*
X1067364D01*
Y711913D01*
D02*
G37*
G36*
X1024294Y713701D02*
X1024592D01*
Y713552D01*
Y713403D01*
X1024294D01*
Y710721D01*
X1024145D01*
Y710423D01*
X1023996D01*
Y709975D01*
X1023847D01*
Y706995D01*
X1023549D01*
Y705355D01*
X1023400D01*
Y703865D01*
X1023102D01*
Y700884D01*
X1022804D01*
Y699692D01*
X1022654D01*
Y697755D01*
X1022356D01*
Y695519D01*
X1022207D01*
Y695370D01*
X1015799D01*
Y698053D01*
X1016097D01*
Y698947D01*
X1016246D01*
Y701033D01*
X1016544D01*
Y703865D01*
X1016693D01*
Y704163D01*
X1016842D01*
Y704610D01*
X1016991D01*
Y707293D01*
X1017289D01*
Y709677D01*
X1017439D01*
Y710721D01*
X1017737D01*
Y713403D01*
X1018035D01*
Y713701D01*
X1021164D01*
Y713850D01*
X1024294D01*
Y713701D01*
D02*
G37*
G36*
X1012819D02*
X1013117D01*
Y712956D01*
X1012968D01*
Y712658D01*
X1012819D01*
Y711913D01*
X1012670D01*
Y710721D01*
X1005069D01*
Y710273D01*
X1004771D01*
Y709975D01*
X1004622D01*
Y708038D01*
X1004324D01*
Y706101D01*
X1004175D01*
Y705057D01*
X1003877D01*
Y701630D01*
X1003579D01*
Y700735D01*
X1003430D01*
Y698947D01*
X1003579D01*
Y698798D01*
X1011179D01*
Y698351D01*
X1011477D01*
Y698053D01*
X1011179D01*
Y695370D01*
X999555D01*
Y695519D01*
X999257D01*
Y695817D01*
X998512D01*
Y696115D01*
X998064D01*
Y696414D01*
X997766D01*
Y696563D01*
X997617D01*
Y696861D01*
X997319D01*
Y697606D01*
X997021D01*
Y701779D01*
X997319D01*
Y704610D01*
X997468D01*
Y704908D01*
X997617D01*
Y705654D01*
X997766D01*
Y708038D01*
X998064D01*
Y709975D01*
X998214D01*
Y710273D01*
X998363D01*
Y710423D01*
X998512D01*
Y711168D01*
X998810D01*
Y711764D01*
X998959D01*
Y711913D01*
X999257D01*
Y712360D01*
X999555D01*
Y712658D01*
X1000002D01*
Y713105D01*
X1000449D01*
Y713403D01*
X1001194D01*
Y713701D01*
X1001641D01*
Y713850D01*
X1012819D01*
Y713701D01*
D02*
G37*
G36*
X987334Y713403D02*
X987632D01*
Y712956D01*
X987781D01*
Y711913D01*
X988079D01*
Y710423D01*
X988378D01*
Y710273D01*
X988527D01*
Y708783D01*
X988825D01*
Y707740D01*
X988974D01*
Y707293D01*
X989272D01*
Y706101D01*
X989570D01*
Y705355D01*
X989719D01*
Y704610D01*
X990017D01*
Y703120D01*
X990166D01*
Y702971D01*
X990315D01*
Y702673D01*
X990464D01*
Y701481D01*
X990762D01*
Y700288D01*
X990911D01*
Y699990D01*
X991209D01*
Y698500D01*
X991507D01*
Y697606D01*
X991656D01*
Y697010D01*
X991954D01*
Y695370D01*
X985397D01*
Y695668D01*
X985099D01*
Y696115D01*
X984950D01*
Y696861D01*
X984652D01*
Y698351D01*
X984354D01*
Y698798D01*
X984205D01*
Y699692D01*
X983907D01*
Y700288D01*
X976604D01*
Y699990D01*
X976157D01*
Y699245D01*
X975859D01*
Y698798D01*
X975710D01*
Y698500D01*
X975412D01*
Y697755D01*
X975114D01*
Y697606D01*
X974965D01*
Y697308D01*
X974667D01*
Y696563D01*
X974220D01*
Y695817D01*
X973922D01*
Y695519D01*
X973773D01*
Y695370D01*
X970792D01*
Y696115D01*
X971090D01*
Y696563D01*
X971239D01*
Y696861D01*
X971537D01*
Y697308D01*
X971686D01*
Y697606D01*
X971835D01*
Y697755D01*
X971984D01*
Y698351D01*
X972282D01*
Y698798D01*
X972580D01*
Y698947D01*
X972729D01*
Y699543D01*
X973027D01*
Y699990D01*
X973176D01*
Y700288D01*
X973474D01*
Y700884D01*
X973624D01*
Y701033D01*
X973773D01*
Y701182D01*
X973922D01*
Y701630D01*
X974220D01*
Y702226D01*
X974518D01*
Y702375D01*
X974667D01*
Y702971D01*
X974965D01*
Y703418D01*
X975114D01*
Y703716D01*
X975412D01*
Y704312D01*
X975710D01*
Y704610D01*
X975859D01*
Y705057D01*
X976157D01*
Y705654D01*
X976455D01*
Y705803D01*
X976604D01*
Y706399D01*
X976902D01*
Y706846D01*
X977051D01*
Y706995D01*
X977349D01*
Y707740D01*
X977647D01*
Y708038D01*
X977796D01*
Y708485D01*
X978094D01*
Y709081D01*
X978392D01*
Y709230D01*
X978541D01*
Y709677D01*
X978839D01*
Y710273D01*
X978989D01*
Y710423D01*
X979287D01*
Y711168D01*
X979585D01*
Y711466D01*
X979734D01*
Y711764D01*
X979883D01*
Y711913D01*
X980032D01*
Y712509D01*
X980330D01*
Y712658D01*
X980479D01*
Y713105D01*
X980777D01*
Y713701D01*
X987334D01*
Y713403D01*
D02*
G37*
G36*
X965129Y713701D02*
X966172D01*
Y713403D01*
X967364D01*
Y712956D01*
X967662D01*
Y712658D01*
X967960D01*
Y712509D01*
X968109D01*
Y711466D01*
X968407D01*
Y709975D01*
X968109D01*
Y707144D01*
X967960D01*
Y706548D01*
X967811D01*
Y705803D01*
X967662D01*
Y704908D01*
X967364D01*
Y704163D01*
X966917D01*
Y703865D01*
X966619D01*
Y703716D01*
X966470D01*
Y703567D01*
X966172D01*
Y703418D01*
X964980D01*
Y702673D01*
X965427D01*
Y701481D01*
X965725D01*
Y700735D01*
X965874D01*
Y700437D01*
X966172D01*
Y699245D01*
X966470D01*
Y698798D01*
X966619D01*
Y698053D01*
X966917D01*
Y697010D01*
X967066D01*
Y696861D01*
X967364D01*
Y695668D01*
X967662D01*
Y695519D01*
X967364D01*
Y695370D01*
X960509D01*
Y695519D01*
X960360D01*
Y696115D01*
X960062D01*
Y697308D01*
X959913D01*
Y697606D01*
X959764D01*
Y697755D01*
X959615D01*
Y699245D01*
X959316D01*
Y699990D01*
X959167D01*
Y700735D01*
X958869D01*
Y701928D01*
X958571D01*
Y702673D01*
X958422D01*
Y703418D01*
X956485D01*
Y702673D01*
X956187D01*
Y700288D01*
X956038D01*
Y699692D01*
X955889D01*
Y698798D01*
X955740D01*
Y696563D01*
X955442D01*
Y695370D01*
X948884D01*
Y696563D01*
X949183D01*
Y698351D01*
X949332D01*
Y699990D01*
X949630D01*
Y702375D01*
X949779D01*
Y702971D01*
X949928D01*
Y703716D01*
X950077D01*
Y706101D01*
X950375D01*
Y708783D01*
X950524D01*
Y709081D01*
X950673D01*
Y709528D01*
X950822D01*
Y712211D01*
X951120D01*
Y713701D01*
X951269D01*
Y713850D01*
X965129D01*
Y713701D01*
D02*
G37*
G36*
X946053Y693582D02*
X946202D01*
Y691943D01*
X946053D01*
Y691198D01*
X945755D01*
Y688515D01*
X945457D01*
Y688366D01*
X945308D01*
Y688217D01*
X940390D01*
Y687025D01*
X940092D01*
Y685385D01*
X939942D01*
Y683895D01*
X939644D01*
Y683150D01*
X934279D01*
Y683895D01*
X934577D01*
Y685832D01*
X934726D01*
Y687323D01*
X935024D01*
Y688217D01*
X929958D01*
Y687770D01*
X929659D01*
Y685087D01*
X929510D01*
Y684640D01*
X929361D01*
Y684193D01*
X929212D01*
Y683150D01*
X923847D01*
Y684193D01*
X923996D01*
Y684640D01*
X924145D01*
Y685087D01*
X924294D01*
Y687621D01*
X924592D01*
Y688068D01*
X924294D01*
Y688217D01*
X919525D01*
Y688068D01*
X919227D01*
Y685087D01*
X918929D01*
Y683448D01*
X918780D01*
Y683150D01*
X913415D01*
Y683895D01*
X913564D01*
Y685385D01*
X913862D01*
Y688217D01*
X908944D01*
Y687472D01*
X908795D01*
Y685832D01*
X908497D01*
Y683150D01*
X903132D01*
Y685832D01*
X903430D01*
Y687770D01*
X903579D01*
Y688068D01*
X903430D01*
Y688217D01*
X898512D01*
Y687025D01*
X898363D01*
Y686578D01*
X898214D01*
Y686280D01*
X898065D01*
Y683597D01*
X897767D01*
Y683150D01*
X892402D01*
Y683448D01*
X892700D01*
Y686280D01*
X892849D01*
Y686578D01*
X892998D01*
Y687323D01*
X893147D01*
Y688068D01*
X892998D01*
Y688217D01*
X888080D01*
Y687323D01*
X887782D01*
Y685385D01*
X887633D01*
Y683895D01*
X887335D01*
Y683150D01*
X881970D01*
Y684193D01*
X882268D01*
Y685832D01*
X882417D01*
Y687323D01*
X882715D01*
Y688217D01*
X877648D01*
Y687770D01*
X877350D01*
Y685087D01*
X877201D01*
Y684640D01*
X877052D01*
Y684193D01*
X876903D01*
Y683150D01*
X871537D01*
Y684193D01*
X871686D01*
Y684640D01*
X871836D01*
Y685087D01*
X871985D01*
Y687621D01*
X872283D01*
Y688068D01*
X871985D01*
Y688217D01*
X867216D01*
Y688068D01*
X866917D01*
Y685087D01*
X866619D01*
Y683448D01*
X866470D01*
Y683150D01*
X861105D01*
Y683895D01*
X861254D01*
Y685385D01*
X861553D01*
Y688217D01*
X856634D01*
Y687323D01*
X856485D01*
Y685832D01*
X856187D01*
Y683150D01*
X850822D01*
Y686131D01*
X851120D01*
Y687770D01*
X851269D01*
Y688366D01*
X851567D01*
Y688515D01*
X856485D01*
Y688813D01*
X856634D01*
Y690303D01*
X856933D01*
Y693135D01*
X857082D01*
Y693433D01*
X857380D01*
Y693731D01*
X862298D01*
Y693433D01*
X862447D01*
Y693135D01*
X862298D01*
Y690154D01*
X862000D01*
Y688515D01*
X866917D01*
Y689260D01*
X867067D01*
Y689558D01*
X867216D01*
Y690005D01*
X867365D01*
Y692688D01*
X867663D01*
Y693433D01*
X867812D01*
Y693582D01*
Y693731D01*
X872730D01*
Y693433D01*
X873028D01*
Y692688D01*
X872730D01*
Y690005D01*
X872581D01*
Y689707D01*
X872432D01*
Y689111D01*
X872283D01*
Y688515D01*
X877350D01*
Y689260D01*
X877648D01*
Y690750D01*
X877797D01*
Y692241D01*
X878095D01*
Y693731D01*
X883013D01*
Y693582D01*
X883162D01*
Y693433D01*
X883460D01*
Y691943D01*
X883162D01*
Y690452D01*
X883013D01*
Y688962D01*
X882715D01*
Y688515D01*
X888080D01*
Y691198D01*
X888229D01*
Y691496D01*
X888378D01*
Y691943D01*
X888527D01*
Y693582D01*
X888974D01*
Y693731D01*
X893743D01*
Y693582D01*
X893892D01*
Y691943D01*
X893743D01*
Y691645D01*
X893594D01*
Y691198D01*
X893445D01*
Y688515D01*
X898512D01*
Y690750D01*
X898810D01*
Y692688D01*
X898959D01*
Y693433D01*
X899257D01*
Y693731D01*
X904175D01*
Y693433D01*
X904324D01*
Y692390D01*
X904175D01*
Y690899D01*
X903877D01*
Y688515D01*
X908795D01*
Y688813D01*
X908944D01*
Y690303D01*
X909242D01*
Y693135D01*
X909391D01*
Y693433D01*
X909689D01*
Y693731D01*
X914607D01*
Y693433D01*
X914905D01*
Y693135D01*
X914607D01*
Y690154D01*
X914309D01*
Y688515D01*
X919227D01*
Y689260D01*
X919376D01*
Y689558D01*
X919525D01*
Y690005D01*
X919674D01*
Y692688D01*
X919973D01*
Y693433D01*
X920122D01*
Y693731D01*
X925040D01*
Y693433D01*
X925338D01*
Y692688D01*
X925040D01*
Y690005D01*
X924891D01*
Y689707D01*
X924741D01*
Y689111D01*
X924592D01*
Y688515D01*
X929659D01*
Y688813D01*
X929958D01*
Y690750D01*
X930107D01*
Y692241D01*
X930405D01*
Y693731D01*
X935770D01*
Y691943D01*
X935472D01*
Y690303D01*
X935323D01*
Y688962D01*
X935024D01*
Y688515D01*
X940390D01*
Y691198D01*
X940539D01*
Y691496D01*
X940688D01*
Y691943D01*
X940837D01*
Y693433D01*
X941135D01*
Y693582D01*
X941284D01*
Y693731D01*
X946053D01*
Y693582D01*
D02*
G37*
G36*
X1065724Y691943D02*
X1065426D01*
Y689260D01*
X1065277D01*
Y688962D01*
X1065128D01*
Y688217D01*
X1064979D01*
Y686280D01*
X1064681D01*
Y683597D01*
X1064532D01*
Y683150D01*
X1064234D01*
Y682852D01*
X947394D01*
Y684938D01*
X947692D01*
Y687472D01*
X947841D01*
Y688068D01*
X947990D01*
Y688366D01*
X948139D01*
Y691049D01*
X948437D01*
Y693433D01*
X1065724D01*
Y691943D01*
D02*
G37*
G36*
X519963Y382311D02*
X521929D01*
Y382147D01*
X523240D01*
Y381983D01*
X524223D01*
Y381819D01*
X525206D01*
Y381656D01*
X525862D01*
Y381492D01*
X526681D01*
Y381328D01*
X527337D01*
Y381164D01*
X527992D01*
Y381000D01*
X528484D01*
Y380836D01*
X529139D01*
Y380672D01*
X529631D01*
Y380508D01*
X530123D01*
Y380345D01*
X530614D01*
Y380181D01*
X531106D01*
Y380017D01*
X531597D01*
Y379853D01*
X531925D01*
Y379689D01*
X532417D01*
Y379525D01*
X532744D01*
Y379361D01*
X533072D01*
Y379197D01*
X533564D01*
Y379034D01*
X533892D01*
Y378870D01*
X534219D01*
Y378706D01*
X534711D01*
Y378542D01*
X535039D01*
Y378378D01*
X535366D01*
Y378214D01*
X535694D01*
Y378050D01*
X536022D01*
Y377886D01*
X536186D01*
Y377723D01*
X536513D01*
Y377559D01*
X536841D01*
Y377395D01*
X537169D01*
Y377231D01*
X537497D01*
Y377067D01*
X537661D01*
Y376903D01*
X537988D01*
Y376739D01*
X538316D01*
Y376576D01*
X538480D01*
Y376412D01*
X538808D01*
Y376248D01*
X538972D01*
Y376084D01*
X539299D01*
Y375920D01*
X539463D01*
Y375756D01*
X539791D01*
Y375592D01*
X539955D01*
Y375428D01*
X540283D01*
Y375265D01*
X540446D01*
Y375101D01*
X540774D01*
Y374937D01*
X540938D01*
Y374773D01*
X541102D01*
Y374609D01*
X541266D01*
Y374445D01*
X541594D01*
Y374281D01*
X541757D01*
Y374117D01*
X541921D01*
Y373954D01*
X542249D01*
Y373790D01*
X542413D01*
Y373626D01*
X542577D01*
Y373462D01*
X542741D01*
Y373298D01*
X542905D01*
Y373134D01*
X543232D01*
Y372970D01*
X543396D01*
Y372806D01*
X543560D01*
Y372643D01*
X543724D01*
Y372479D01*
X543888D01*
Y372315D01*
X544052D01*
Y372151D01*
X544216D01*
Y371987D01*
X544379D01*
Y371823D01*
X544543D01*
Y371659D01*
X544707D01*
Y371496D01*
X544871D01*
Y371332D01*
X545035D01*
Y371168D01*
X545199D01*
Y371004D01*
X545363D01*
Y370840D01*
X545526D01*
Y370676D01*
X545690D01*
Y370512D01*
X545854D01*
Y370348D01*
X546018D01*
Y370185D01*
X546182D01*
Y369857D01*
X546346D01*
Y369693D01*
X546510D01*
Y369529D01*
X546674D01*
Y369365D01*
X546837D01*
Y369201D01*
X547001D01*
Y368874D01*
X547165D01*
Y368710D01*
X547329D01*
Y368546D01*
X547493D01*
Y368382D01*
X547657D01*
Y368054D01*
X547821D01*
Y367890D01*
X547985D01*
Y367726D01*
X548148D01*
Y367399D01*
X548312D01*
Y367235D01*
X548476D01*
Y366907D01*
X548640D01*
Y366743D01*
X548804D01*
Y366415D01*
X548968D01*
Y366252D01*
X549132D01*
Y365924D01*
X549296D01*
Y365760D01*
X549459D01*
Y365432D01*
X549623D01*
Y365268D01*
X549787D01*
Y364941D01*
X549951D01*
Y364613D01*
X550115D01*
Y364285D01*
X550279D01*
Y363957D01*
X550443D01*
Y363630D01*
X550606D01*
Y363302D01*
X550770D01*
Y362974D01*
X550934D01*
Y362646D01*
X551098D01*
Y362319D01*
X551262D01*
Y361991D01*
X551426D01*
Y361499D01*
X551590D01*
Y361172D01*
X551754D01*
Y360844D01*
X551917D01*
Y360352D01*
X552081D01*
Y359861D01*
X552245D01*
Y359369D01*
X552409D01*
Y358877D01*
X552573D01*
Y358386D01*
X552737D01*
Y357730D01*
X552901D01*
Y357075D01*
X553064D01*
Y356255D01*
X553228D01*
Y355436D01*
X553392D01*
Y353961D01*
X553556D01*
Y349373D01*
X553392D01*
Y347898D01*
X553228D01*
Y347079D01*
X553064D01*
Y346259D01*
X552901D01*
Y345604D01*
X552737D01*
Y345112D01*
X552573D01*
Y344457D01*
X552409D01*
Y343965D01*
X552245D01*
Y343474D01*
X552081D01*
Y343146D01*
X551917D01*
Y342654D01*
X551754D01*
Y342326D01*
X551590D01*
Y341835D01*
X551426D01*
Y341507D01*
X551262D01*
Y341179D01*
X551098D01*
Y340852D01*
X550934D01*
Y340524D01*
X550770D01*
Y340196D01*
X550606D01*
Y340032D01*
X550443D01*
Y339705D01*
X550279D01*
Y339377D01*
X550115D01*
Y339213D01*
X549951D01*
Y338885D01*
X549787D01*
Y338721D01*
X549623D01*
Y338394D01*
X549459D01*
Y338066D01*
X549296D01*
Y337902D01*
X549132D01*
Y337738D01*
X548968D01*
Y337410D01*
X548804D01*
Y337246D01*
X548640D01*
Y337083D01*
X548476D01*
Y336755D01*
X548312D01*
Y336591D01*
X548148D01*
Y336427D01*
X547985D01*
Y336263D01*
X547821D01*
Y336099D01*
X547657D01*
Y335772D01*
X547493D01*
Y335608D01*
X547329D01*
Y335444D01*
X547165D01*
Y335280D01*
X547001D01*
Y335116D01*
X546837D01*
Y334952D01*
X546674D01*
Y334788D01*
X546510D01*
Y334624D01*
X546346D01*
Y334461D01*
X546182D01*
Y334297D01*
X546018D01*
Y334133D01*
X545854D01*
Y333805D01*
X546018D01*
Y333969D01*
X547001D01*
Y334133D01*
X548476D01*
Y334297D01*
X550115D01*
Y334461D01*
X556178D01*
Y334297D01*
X557817D01*
Y334133D01*
X558800D01*
Y333969D01*
X559619D01*
Y333805D01*
X560111D01*
Y333641D01*
X560603D01*
Y333477D01*
X561094D01*
Y333314D01*
X561422D01*
Y333150D01*
X561586D01*
Y332986D01*
X561913D01*
Y332822D01*
X562077D01*
Y332658D01*
X562241D01*
Y332494D01*
X562405D01*
Y332330D01*
X562569D01*
Y331839D01*
X562733D01*
Y330364D01*
X562569D01*
Y329381D01*
X562405D01*
Y328889D01*
X562241D01*
Y328397D01*
X562077D01*
Y328070D01*
X561913D01*
Y327578D01*
X561750D01*
Y327250D01*
X561586D01*
Y326923D01*
X561422D01*
Y326595D01*
X561258D01*
Y326267D01*
X561094D01*
Y325939D01*
X560930D01*
Y325612D01*
X560766D01*
Y325284D01*
X560603D01*
Y325120D01*
X560439D01*
Y324792D01*
X560275D01*
Y324464D01*
X560111D01*
Y324301D01*
X559947D01*
Y323973D01*
X559783D01*
Y323809D01*
X559619D01*
Y323481D01*
X559455D01*
Y323317D01*
X559292D01*
Y323154D01*
X559128D01*
Y322826D01*
X558964D01*
Y322662D01*
X558800D01*
Y322498D01*
X558636D01*
Y322170D01*
X558472D01*
Y322006D01*
X558308D01*
Y321843D01*
X558144D01*
Y321679D01*
X557981D01*
Y321515D01*
X557817D01*
Y321187D01*
X557653D01*
Y321023D01*
X557489D01*
Y320859D01*
X557325D01*
Y320695D01*
X557161D01*
Y320532D01*
X556997D01*
Y320368D01*
X556833D01*
Y320204D01*
X556670D01*
Y320040D01*
X556506D01*
Y319876D01*
X556342D01*
Y319712D01*
X556178D01*
Y319548D01*
X556014D01*
Y319384D01*
X555850D01*
Y319221D01*
X555686D01*
Y319057D01*
X555523D01*
Y318893D01*
X555359D01*
Y318729D01*
X555195D01*
Y318565D01*
X555031D01*
Y318401D01*
X554867D01*
Y318237D01*
X554703D01*
Y318074D01*
X554539D01*
Y317910D01*
X554212D01*
Y317746D01*
X554048D01*
Y317582D01*
X553884D01*
Y317418D01*
X553720D01*
Y317254D01*
X553392D01*
Y317090D01*
X553228D01*
Y314796D01*
X553064D01*
Y313977D01*
X553228D01*
Y313813D01*
X553884D01*
Y313977D01*
X554048D01*
Y313813D01*
X554375D01*
Y313977D01*
X554539D01*
Y313813D01*
X556342D01*
Y313649D01*
X557161D01*
Y313485D01*
X557653D01*
Y313321D01*
X557981D01*
Y313157D01*
X558144D01*
Y312994D01*
X558308D01*
Y312666D01*
X558472D01*
Y310699D01*
X558308D01*
Y310044D01*
X558144D01*
Y309552D01*
X557981D01*
Y309061D01*
X557817D01*
Y308733D01*
X557653D01*
Y308405D01*
X557489D01*
Y308077D01*
X557325D01*
Y307750D01*
X557161D01*
Y307422D01*
X556997D01*
Y307094D01*
X556833D01*
Y306766D01*
X556670D01*
Y306439D01*
X556506D01*
Y306111D01*
X556342D01*
Y305947D01*
X556178D01*
Y305619D01*
X556014D01*
Y305292D01*
X555850D01*
Y305128D01*
X555686D01*
Y304800D01*
X555523D01*
Y304636D01*
X555359D01*
Y304308D01*
X555195D01*
Y304144D01*
X555031D01*
Y303817D01*
X554867D01*
Y303653D01*
X554703D01*
Y303489D01*
X554539D01*
Y303325D01*
X554375D01*
Y302997D01*
X554212D01*
Y302834D01*
X554048D01*
Y302670D01*
X553884D01*
Y302342D01*
X553720D01*
Y302178D01*
X553556D01*
Y302014D01*
X553392D01*
Y301850D01*
X553228D01*
Y301686D01*
X553064D01*
Y301523D01*
X552901D01*
Y301195D01*
X552737D01*
Y301031D01*
X552573D01*
Y300867D01*
X552409D01*
Y300703D01*
X552245D01*
Y300539D01*
X552081D01*
Y300375D01*
X551917D01*
Y300212D01*
X551754D01*
Y300048D01*
X551590D01*
Y299884D01*
X551426D01*
Y299720D01*
X551262D01*
Y299556D01*
X550934D01*
Y299392D01*
X550770D01*
Y299228D01*
X550606D01*
Y299065D01*
X550443D01*
Y298901D01*
X550279D01*
Y298737D01*
X550115D01*
Y298573D01*
X549951D01*
Y298409D01*
X549787D01*
Y298081D01*
X549623D01*
Y297590D01*
X549459D01*
Y297262D01*
X549296D01*
Y296934D01*
X549132D01*
Y296606D01*
X548968D01*
Y296279D01*
X548804D01*
Y295951D01*
X548640D01*
Y295623D01*
X548476D01*
Y295459D01*
X548312D01*
Y295132D01*
X548148D01*
Y294968D01*
X547985D01*
Y294804D01*
X547821D01*
Y294476D01*
X547657D01*
Y294312D01*
X547493D01*
Y294148D01*
X547329D01*
Y293985D01*
X547165D01*
Y293821D01*
X547001D01*
Y293657D01*
X546837D01*
Y293493D01*
X546674D01*
Y293329D01*
X546510D01*
Y293165D01*
X546346D01*
Y293001D01*
X546182D01*
Y292837D01*
X545854D01*
Y292674D01*
X545690D01*
Y292510D01*
X545526D01*
Y292346D01*
X545199D01*
Y292182D01*
X545035D01*
Y292018D01*
X544707D01*
Y291854D01*
X544379D01*
Y291690D01*
X544052D01*
Y291526D01*
X543724D01*
Y291363D01*
X543232D01*
Y291199D01*
X542741D01*
Y291035D01*
X541921D01*
Y290871D01*
X539299D01*
Y291035D01*
X538316D01*
Y291199D01*
X537825D01*
Y291363D01*
X537333D01*
Y291526D01*
X537005D01*
Y291690D01*
X536677D01*
Y291854D01*
X536350D01*
Y292018D01*
X536022D01*
Y292182D01*
X535694D01*
Y292346D01*
X535530D01*
Y292510D01*
X535203D01*
Y292674D01*
X534875D01*
Y292837D01*
X534547D01*
Y292674D01*
X534383D01*
Y292346D01*
X534219D01*
Y292018D01*
X534055D01*
Y291854D01*
X533892D01*
Y291526D01*
X533728D01*
Y291363D01*
X533564D01*
Y291199D01*
X533400D01*
Y290871D01*
X533236D01*
Y290707D01*
X533072D01*
Y290543D01*
X532908D01*
Y290379D01*
X532744D01*
Y290215D01*
X532581D01*
Y290052D01*
X532417D01*
Y289888D01*
X532253D01*
Y289724D01*
X532089D01*
Y289560D01*
X531925D01*
Y289396D01*
X531761D01*
Y289232D01*
X531597D01*
Y289068D01*
X531433D01*
Y288904D01*
X531106D01*
Y288741D01*
X530942D01*
Y288577D01*
X530778D01*
Y288413D01*
X530450D01*
Y288249D01*
X530286D01*
Y288085D01*
X530123D01*
Y287757D01*
X530286D01*
Y287594D01*
X530450D01*
Y287266D01*
X530614D01*
Y287102D01*
X530778D01*
Y286774D01*
X530942D01*
Y286446D01*
X531106D01*
Y286283D01*
X531270D01*
Y285955D01*
X531433D01*
Y285627D01*
X531597D01*
Y285299D01*
X531761D01*
Y285135D01*
X531925D01*
Y284644D01*
X532089D01*
Y284316D01*
X532253D01*
Y283988D01*
X532417D01*
Y283661D01*
X532581D01*
Y283333D01*
X532744D01*
Y283005D01*
X532908D01*
Y282677D01*
X533072D01*
Y282350D01*
X533236D01*
Y281858D01*
X533400D01*
Y281530D01*
X533564D01*
Y281039D01*
X533728D01*
Y280711D01*
X533892D01*
Y280219D01*
X534055D01*
Y279728D01*
X534219D01*
Y279236D01*
X534383D01*
Y278745D01*
X534547D01*
Y278253D01*
X534711D01*
Y277761D01*
X534875D01*
Y277106D01*
X535039D01*
Y276450D01*
X535203D01*
Y275631D01*
X535366D01*
Y274975D01*
X535530D01*
Y273664D01*
X535694D01*
Y272026D01*
X535858D01*
Y269732D01*
X535694D01*
Y268421D01*
X535530D01*
Y267601D01*
X535366D01*
Y266946D01*
X535203D01*
Y266454D01*
X535039D01*
Y266126D01*
X534875D01*
Y265799D01*
X534711D01*
Y265471D01*
X534547D01*
Y265307D01*
X534383D01*
Y264979D01*
X534219D01*
Y264816D01*
X534055D01*
Y264488D01*
X533892D01*
Y264324D01*
X533728D01*
Y264160D01*
X533400D01*
Y263996D01*
X533236D01*
Y263832D01*
X533072D01*
Y263668D01*
X532744D01*
Y263505D01*
X532417D01*
Y263341D01*
X532089D01*
Y263177D01*
X531597D01*
Y263013D01*
X530778D01*
Y262849D01*
X529139D01*
Y263013D01*
X528320D01*
Y263177D01*
X527664D01*
Y263341D01*
X527173D01*
Y263505D01*
X526845D01*
Y263668D01*
X526517D01*
Y263832D01*
X526190D01*
Y263996D01*
X525862D01*
Y264160D01*
X525698D01*
Y264324D01*
X525370D01*
Y264488D01*
X525206D01*
Y264652D01*
X524879D01*
Y264816D01*
X524715D01*
Y264979D01*
X524551D01*
Y265143D01*
X524387D01*
Y265307D01*
X524223D01*
Y265471D01*
X524059D01*
Y265635D01*
X523732D01*
Y265963D01*
X523404D01*
Y266290D01*
X523240D01*
Y266454D01*
X523076D01*
Y266618D01*
X522912D01*
Y266782D01*
X522748D01*
Y266946D01*
X522584D01*
Y267110D01*
X522421D01*
Y267437D01*
X522257D01*
Y267601D01*
X522093D01*
Y267765D01*
X521929D01*
Y267929D01*
X521765D01*
Y268257D01*
X521601D01*
Y268421D01*
X521437D01*
Y268748D01*
X521273D01*
Y269076D01*
X521110D01*
Y269240D01*
X520946D01*
Y269568D01*
X520782D01*
Y269895D01*
X520618D01*
Y270059D01*
X520454D01*
Y270387D01*
X520290D01*
Y270715D01*
X520126D01*
Y271043D01*
X519963D01*
Y271370D01*
X519799D01*
Y271698D01*
X519635D01*
Y272026D01*
X519471D01*
Y272517D01*
X519307D01*
Y272845D01*
X519143D01*
Y273337D01*
X518979D01*
Y273828D01*
X518815D01*
Y274320D01*
X518652D01*
Y274812D01*
X518488D01*
Y275303D01*
X518324D01*
Y275959D01*
X518160D01*
Y276614D01*
X517996D01*
Y277270D01*
X517832D01*
Y278089D01*
X517668D01*
Y279236D01*
X517505D01*
Y280383D01*
X517341D01*
Y282841D01*
X517177D01*
Y283005D01*
X517013D01*
Y283169D01*
X516849D01*
Y283333D01*
X516685D01*
Y283497D01*
X516521D01*
Y283661D01*
X516357D01*
Y283825D01*
X516030D01*
Y283988D01*
X515538D01*
Y283825D01*
X513080D01*
Y283988D01*
X511605D01*
Y284152D01*
X510786D01*
Y284316D01*
X509966D01*
Y284480D01*
X509311D01*
Y284644D01*
X508656D01*
Y284808D01*
X508164D01*
Y284972D01*
X507672D01*
Y285135D01*
X507181D01*
Y285299D01*
X506689D01*
Y285463D01*
X506197D01*
Y285627D01*
X505870D01*
Y285791D01*
X505542D01*
Y285955D01*
X505050D01*
Y286119D01*
X504723D01*
Y286283D01*
X504395D01*
Y286446D01*
X504067D01*
Y286610D01*
X503739D01*
Y286774D01*
X503412D01*
Y286938D01*
X503084D01*
Y287102D01*
X502756D01*
Y287266D01*
X502428D01*
Y287430D01*
X502101D01*
Y287594D01*
X501937D01*
Y287757D01*
X501609D01*
Y287921D01*
X501445D01*
Y288085D01*
X501117D01*
Y288249D01*
X500953D01*
Y288413D01*
X500626D01*
Y288577D01*
X500462D01*
Y288741D01*
X500134D01*
Y288904D01*
X499970D01*
Y289068D01*
X499643D01*
Y289232D01*
X499479D01*
Y289396D01*
X499315D01*
Y289560D01*
X499151D01*
Y289724D01*
X498823D01*
Y289888D01*
X498659D01*
Y290052D01*
X498495D01*
Y290215D01*
X498332D01*
Y290379D01*
X497676D01*
Y290215D01*
X497184D01*
Y290052D01*
X496693D01*
Y289888D01*
X496037D01*
Y289724D01*
X495382D01*
Y289560D01*
X494235D01*
Y289396D01*
X494071D01*
Y289560D01*
X493743D01*
Y289396D01*
X493088D01*
Y289560D01*
X491777D01*
Y289396D01*
X491449D01*
Y289232D01*
X491121D01*
Y289068D01*
X490630D01*
Y288904D01*
X488499D01*
Y289068D01*
X487844D01*
Y289232D01*
X487516D01*
Y289396D01*
X487188D01*
Y289560D01*
X486861D01*
Y289724D01*
X486533D01*
Y289888D01*
X486205D01*
Y290052D01*
X486041D01*
Y290215D01*
X485877D01*
Y290379D01*
X485550D01*
Y290543D01*
X485386D01*
Y290707D01*
X485222D01*
Y290871D01*
X485058D01*
Y291035D01*
X484894D01*
Y291199D01*
X484730D01*
Y291363D01*
X484566D01*
Y291526D01*
X484403D01*
Y291690D01*
X484239D01*
Y291854D01*
X484075D01*
Y292018D01*
X483911D01*
Y292182D01*
X483747D01*
Y292346D01*
X483583D01*
Y292510D01*
X483419D01*
Y292674D01*
X483256D01*
Y293001D01*
X483092D01*
Y293165D01*
X482928D01*
Y293329D01*
X482764D01*
Y293493D01*
X482600D01*
Y293821D01*
X482436D01*
Y293985D01*
X482272D01*
Y294148D01*
X482108D01*
Y294476D01*
X481945D01*
Y294804D01*
X481781D01*
Y294968D01*
X481617D01*
Y295296D01*
X481453D01*
Y295459D01*
X481289D01*
Y295787D01*
X481125D01*
Y296115D01*
X480961D01*
Y296279D01*
X480797D01*
Y296606D01*
X480634D01*
Y296934D01*
X480470D01*
Y297262D01*
X480306D01*
Y297590D01*
X480142D01*
Y297917D01*
X479978D01*
Y298245D01*
X479814D01*
Y298573D01*
X479650D01*
Y298901D01*
X479486D01*
Y299228D01*
X479323D01*
Y299556D01*
X479159D01*
Y300048D01*
X478995D01*
Y300375D01*
X478831D01*
Y300867D01*
X478667D01*
Y301195D01*
X478503D01*
Y301686D01*
X478339D01*
Y302178D01*
X478176D01*
Y302506D01*
X478012D01*
Y302997D01*
X477848D01*
Y303489D01*
X477684D01*
Y304144D01*
X477520D01*
Y304636D01*
X477356D01*
Y305292D01*
X477192D01*
Y305947D01*
X477028D01*
Y306766D01*
X476865D01*
Y307586D01*
X476701D01*
Y308733D01*
X476537D01*
Y312174D01*
X476701D01*
Y312994D01*
X476865D01*
Y313649D01*
X477028D01*
Y314141D01*
X477192D01*
Y314468D01*
X477356D01*
Y314796D01*
X477520D01*
Y315124D01*
X477684D01*
Y315288D01*
X477848D01*
Y315616D01*
X478012D01*
Y315779D01*
X478176D01*
Y315943D01*
X478339D01*
Y316107D01*
X478503D01*
Y316271D01*
X478831D01*
Y316435D01*
X478995D01*
Y316599D01*
X479323D01*
Y316763D01*
X479650D01*
Y316926D01*
X480470D01*
Y317090D01*
X481781D01*
Y316926D01*
X482600D01*
Y316763D01*
X483256D01*
Y316599D01*
X483583D01*
Y316435D01*
X483911D01*
Y316271D01*
X484403D01*
Y316107D01*
X484566D01*
Y315943D01*
X484894D01*
Y315779D01*
X485386D01*
Y316271D01*
X485550D01*
Y316926D01*
X485714D01*
Y317582D01*
X485877D01*
Y318074D01*
X486041D01*
Y318565D01*
X486205D01*
Y318893D01*
X486369D01*
Y319384D01*
X486533D01*
Y319712D01*
X486697D01*
Y320040D01*
X486861D01*
Y320532D01*
X487024D01*
Y320859D01*
X487188D01*
Y321187D01*
X487352D01*
Y321515D01*
X487516D01*
Y321843D01*
X487680D01*
Y322006D01*
X487844D01*
Y322334D01*
X488008D01*
Y322662D01*
X488172D01*
Y322826D01*
X488335D01*
Y323154D01*
X488499D01*
Y323317D01*
X488663D01*
Y323645D01*
X488827D01*
Y323809D01*
X488991D01*
Y324137D01*
X489155D01*
Y324301D01*
X489319D01*
Y324464D01*
X489483D01*
Y324792D01*
X489646D01*
Y324956D01*
X489810D01*
Y325284D01*
X489974D01*
Y325448D01*
X490138D01*
Y325612D01*
X490302D01*
Y325775D01*
X490466D01*
Y326103D01*
X490630D01*
Y326267D01*
X490793D01*
Y326431D01*
X490957D01*
Y326759D01*
X490793D01*
Y327086D01*
X490630D01*
Y327742D01*
X490466D01*
Y328397D01*
X490302D01*
Y328889D01*
X490138D01*
Y329053D01*
X489974D01*
Y329217D01*
X489810D01*
Y329381D01*
X489646D01*
Y329708D01*
X489483D01*
Y329872D01*
X489319D01*
Y330036D01*
X489155D01*
Y330200D01*
X488991D01*
Y330364D01*
X488827D01*
Y330528D01*
X488663D01*
Y330855D01*
X488499D01*
Y331019D01*
X488335D01*
Y331183D01*
X488172D01*
Y331347D01*
X488008D01*
Y331675D01*
X487844D01*
Y331839D01*
X487680D01*
Y332003D01*
X487516D01*
Y332166D01*
X487352D01*
Y332494D01*
X487188D01*
Y332658D01*
X487024D01*
Y332822D01*
X486861D01*
Y333150D01*
X486697D01*
Y333314D01*
X486533D01*
Y333641D01*
X486369D01*
Y333805D01*
X486205D01*
Y333969D01*
X486041D01*
Y334297D01*
X485877D01*
Y334461D01*
X485714D01*
Y334788D01*
X485550D01*
Y334952D01*
X485386D01*
Y335280D01*
X485222D01*
Y335608D01*
X485058D01*
Y335772D01*
X484894D01*
Y336099D01*
X484730D01*
Y336263D01*
X484566D01*
Y336591D01*
X484403D01*
Y336755D01*
X484239D01*
Y337083D01*
X484075D01*
Y337410D01*
X483911D01*
Y337574D01*
X483747D01*
Y337902D01*
X483583D01*
Y338230D01*
X483419D01*
Y338557D01*
X483256D01*
Y338885D01*
X483092D01*
Y339213D01*
X482928D01*
Y339541D01*
X482764D01*
Y339868D01*
X482600D01*
Y340196D01*
X482436D01*
Y340524D01*
X482272D01*
Y340852D01*
X482108D01*
Y341179D01*
X481945D01*
Y341507D01*
X481781D01*
Y341835D01*
X481617D01*
Y342163D01*
X481453D01*
Y342490D01*
X481289D01*
Y342982D01*
X481125D01*
Y343310D01*
X480961D01*
Y343801D01*
X480797D01*
Y344129D01*
X480634D01*
Y344621D01*
X480470D01*
Y344948D01*
X480306D01*
Y345440D01*
X480142D01*
Y345932D01*
X479978D01*
Y346423D01*
X479814D01*
Y346915D01*
X479650D01*
Y347570D01*
X479486D01*
Y348062D01*
X479323D01*
Y348717D01*
X479159D01*
Y349373D01*
X478995D01*
Y350028D01*
X478831D01*
Y351012D01*
X478667D01*
Y351995D01*
X478503D01*
Y353634D01*
X478339D01*
Y355272D01*
X478503D01*
Y356583D01*
X478667D01*
Y357239D01*
X478831D01*
Y357566D01*
X478995D01*
Y357894D01*
X479159D01*
Y358058D01*
X479323D01*
Y358222D01*
X479650D01*
Y358386D01*
X479978D01*
Y358550D01*
X480961D01*
Y358714D01*
X481617D01*
Y358550D01*
X482764D01*
Y358386D01*
X483256D01*
Y358222D01*
X483911D01*
Y358058D01*
X484239D01*
Y357894D01*
X484730D01*
Y357730D01*
X485058D01*
Y357566D01*
X485550D01*
Y357403D01*
X485877D01*
Y357239D01*
X486205D01*
Y357075D01*
X486533D01*
Y356911D01*
X486861D01*
Y356747D01*
X487188D01*
Y356583D01*
X487352D01*
Y356419D01*
X487680D01*
Y356255D01*
X488008D01*
Y356583D01*
X488172D01*
Y356747D01*
X488008D01*
Y357566D01*
X488172D01*
Y359861D01*
X488335D01*
Y361008D01*
X488499D01*
Y361827D01*
X488663D01*
Y362483D01*
X488827D01*
Y363138D01*
X488991D01*
Y363794D01*
X489155D01*
Y364285D01*
X489319D01*
Y364777D01*
X489483D01*
Y365104D01*
X489646D01*
Y365596D01*
X489810D01*
Y365924D01*
X489974D01*
Y366415D01*
X490138D01*
Y366743D01*
X490302D01*
Y367071D01*
X490466D01*
Y367399D01*
X490630D01*
Y367726D01*
X490793D01*
Y368054D01*
X490957D01*
Y368382D01*
X491121D01*
Y368710D01*
X491285D01*
Y368874D01*
X491449D01*
Y369201D01*
X491613D01*
Y369529D01*
X491777D01*
Y369693D01*
X491941D01*
Y370021D01*
X492104D01*
Y370185D01*
X492268D01*
Y370348D01*
X492432D01*
Y370676D01*
X492596D01*
Y370840D01*
X492760D01*
Y371168D01*
X492924D01*
Y371332D01*
X493088D01*
Y371496D01*
X493252D01*
Y371823D01*
X493415D01*
Y371987D01*
X493579D01*
Y372151D01*
X493743D01*
Y372315D01*
X493907D01*
Y372479D01*
X494071D01*
Y372806D01*
X494235D01*
Y372970D01*
X494399D01*
Y373134D01*
X494563D01*
Y373298D01*
X494726D01*
Y373462D01*
X494890D01*
Y373626D01*
X495054D01*
Y373790D01*
X495218D01*
Y373954D01*
X495382D01*
Y374117D01*
X495546D01*
Y374281D01*
X495710D01*
Y374445D01*
X495873D01*
Y374609D01*
X496201D01*
Y374773D01*
X496365D01*
Y374937D01*
X496529D01*
Y375101D01*
X496693D01*
Y375265D01*
X496857D01*
Y375428D01*
X497021D01*
Y375592D01*
X497348D01*
Y375756D01*
X497512D01*
Y375920D01*
X497676D01*
Y376084D01*
X497840D01*
Y376248D01*
X498168D01*
Y376412D01*
X498332D01*
Y376576D01*
X498659D01*
Y376739D01*
X498823D01*
Y376903D01*
X498987D01*
Y377067D01*
X499315D01*
Y377231D01*
X499643D01*
Y377395D01*
X499806D01*
Y377559D01*
X500134D01*
Y377723D01*
X500298D01*
Y377886D01*
X500626D01*
Y378050D01*
X500953D01*
Y378214D01*
X501281D01*
Y378378D01*
X501445D01*
Y378542D01*
X501773D01*
Y378706D01*
X502101D01*
Y378870D01*
X502428D01*
Y379034D01*
X502756D01*
Y379197D01*
X503084D01*
Y379361D01*
X503412D01*
Y379525D01*
X503903D01*
Y379689D01*
X504231D01*
Y379853D01*
X504559D01*
Y380017D01*
X505050D01*
Y380181D01*
X505378D01*
Y380345D01*
X505870D01*
Y380508D01*
X506361D01*
Y380672D01*
X506853D01*
Y380836D01*
X507345D01*
Y381000D01*
X507836D01*
Y381164D01*
X508492D01*
Y381328D01*
X509147D01*
Y381492D01*
X509803D01*
Y381656D01*
X510622D01*
Y381819D01*
X511441D01*
Y381983D01*
X512425D01*
Y382147D01*
X513736D01*
Y382311D01*
X515702D01*
Y382475D01*
X519963D01*
Y382311D01*
D02*
G37*
%LPC*%
G36*
X945457Y709975D02*
X943519D01*
Y709528D01*
X943370D01*
Y709230D01*
X943072D01*
Y708783D01*
X942774D01*
Y708485D01*
X942625D01*
Y708038D01*
X942327D01*
Y707591D01*
X942029D01*
Y707293D01*
X941880D01*
Y707144D01*
X941582D01*
Y706548D01*
X941284D01*
Y706399D01*
X941135D01*
Y706101D01*
X940837D01*
Y705355D01*
X940092D01*
Y706101D01*
X939942D01*
Y706399D01*
X939644D01*
Y707293D01*
X939197D01*
Y708038D01*
X938899D01*
Y708485D01*
X938750D01*
Y708783D01*
X938452D01*
Y709528D01*
X938154D01*
Y709975D01*
X933534D01*
Y709230D01*
X933832D01*
Y708485D01*
X934130D01*
Y708336D01*
X934279D01*
Y707591D01*
X934577D01*
Y707293D01*
X934726D01*
Y706846D01*
X935024D01*
Y706101D01*
X935323D01*
Y705803D01*
X935472D01*
Y705355D01*
X935770D01*
Y704610D01*
X935919D01*
Y704461D01*
X936068D01*
Y704163D01*
X936217D01*
Y703716D01*
X936515D01*
Y702971D01*
X936664D01*
Y702375D01*
X936515D01*
Y699990D01*
X936217D01*
Y698500D01*
X940092D01*
Y698798D01*
X940390D01*
Y701630D01*
X940539D01*
Y702226D01*
X940688D01*
Y702375D01*
X940837D01*
Y703120D01*
X941135D01*
Y703716D01*
X941284D01*
Y703865D01*
X941582D01*
Y704312D01*
X941880D01*
Y704610D01*
X942029D01*
Y704908D01*
X942327D01*
Y705355D01*
X942625D01*
Y705654D01*
X942774D01*
Y706101D01*
X943072D01*
Y706548D01*
X943519D01*
Y706995D01*
X943817D01*
Y707591D01*
X944264D01*
Y708038D01*
X944563D01*
Y708485D01*
X944712D01*
Y708783D01*
X945010D01*
Y709230D01*
X945308D01*
Y709528D01*
X945457D01*
Y709975D01*
D02*
G37*
G36*
X943072Y700735D02*
X942029D01*
Y700437D01*
X943072D01*
Y700735D01*
D02*
G37*
G36*
X943519Y700288D02*
X943072D01*
Y699990D01*
X943519D01*
Y700288D01*
D02*
G37*
G36*
X943370Y699692D02*
X943221D01*
Y699543D01*
Y699245D01*
X943370D01*
Y699692D01*
D02*
G37*
G36*
X942625Y699990D02*
X942029D01*
Y699543D01*
X942327D01*
Y699245D01*
X942625D01*
Y699394D01*
Y699990D01*
D02*
G37*
G36*
X941433D02*
X941284D01*
Y698947D01*
X941582D01*
Y699841D01*
X941433D01*
Y699990D01*
D02*
G37*
G36*
X942774Y698798D02*
X941582D01*
Y698500D01*
X942774D01*
Y698798D01*
D02*
G37*
G36*
X927722Y709975D02*
X923847D01*
Y708932D01*
X923549D01*
Y706995D01*
X923400D01*
Y705803D01*
X923102D01*
Y702673D01*
X922804D01*
Y701630D01*
X922655D01*
Y699245D01*
X922357D01*
Y698500D01*
X931448D01*
Y698798D01*
X931597D01*
Y700288D01*
X931448D01*
Y700437D01*
X926530D01*
Y700735D01*
X926679D01*
Y701033D01*
X926828D01*
Y701481D01*
X926977D01*
Y704163D01*
X927275D01*
Y706250D01*
X927424D01*
Y707293D01*
X927722D01*
Y709975D01*
D02*
G37*
G36*
X920718D02*
X911627D01*
Y709826D01*
X911478D01*
Y709528D01*
X911180D01*
Y709230D01*
X910732D01*
Y708783D01*
X910434D01*
Y708038D01*
X910136D01*
Y707740D01*
X909987D01*
Y705355D01*
X909689D01*
Y703120D01*
X909540D01*
Y702375D01*
X909391D01*
Y702226D01*
X909242D01*
Y701928D01*
Y701779D01*
Y699990D01*
X909540D01*
Y699692D01*
X909689D01*
Y699245D01*
X909987D01*
Y698798D01*
X910434D01*
Y698500D01*
X918929D01*
Y698798D01*
X919674D01*
Y699245D01*
X919973D01*
Y699543D01*
X920419D01*
Y700288D01*
X920718D01*
Y700735D01*
X920867D01*
Y701481D01*
X921165D01*
Y704312D01*
X921314D01*
Y704908D01*
X921463D01*
Y705654D01*
X921612D01*
Y708783D01*
X921463D01*
Y709230D01*
X921165D01*
Y709528D01*
X920867D01*
Y709677D01*
X920718D01*
Y709975D01*
D02*
G37*
G36*
X907752D02*
X897767D01*
Y708038D01*
X897618D01*
Y707293D01*
X897320D01*
Y704312D01*
X897022D01*
Y702971D01*
X896873D01*
Y701182D01*
X896575D01*
Y698500D01*
X900449D01*
Y700288D01*
X900748D01*
Y702673D01*
X906560D01*
Y702971D01*
X907007D01*
Y703120D01*
X907305D01*
Y703418D01*
X907752D01*
Y703865D01*
X908050D01*
Y704610D01*
X908199D01*
Y705355D01*
X908497D01*
Y709230D01*
X908348D01*
Y709528D01*
X908050D01*
Y709677D01*
X907752D01*
Y709975D01*
D02*
G37*
G36*
X886143D02*
X882268D01*
Y709230D01*
X881970D01*
Y706846D01*
X881821D01*
Y706250D01*
X881672D01*
Y705803D01*
X881523D01*
Y703120D01*
X881225D01*
Y700735D01*
X881076D01*
Y699990D01*
X880926D01*
Y699692D01*
X880777D01*
Y698500D01*
X889719D01*
Y699096D01*
X890017D01*
Y700288D01*
X889570D01*
Y700437D01*
X885099D01*
Y701481D01*
X885397D01*
Y704312D01*
X885546D01*
Y704908D01*
X885695D01*
Y705654D01*
X885844D01*
Y708038D01*
X886143D01*
Y709975D01*
D02*
G37*
G36*
X875859D02*
X871537D01*
Y709230D01*
X871239D01*
Y708783D01*
X871090D01*
Y708485D01*
X870792D01*
Y708038D01*
X870494D01*
Y707591D01*
X870345D01*
Y707293D01*
X870047D01*
Y706548D01*
X869600D01*
Y705803D01*
X869302D01*
Y705355D01*
X868855D01*
Y704610D01*
X868557D01*
Y704163D01*
X868408D01*
Y703865D01*
X868110D01*
Y703120D01*
X867812D01*
Y702971D01*
X867663D01*
Y702673D01*
X867365D01*
Y701928D01*
X866917D01*
Y701182D01*
X866619D01*
Y700735D01*
X866470D01*
Y700437D01*
X866172D01*
Y699692D01*
X865874D01*
Y699543D01*
X865725D01*
Y699245D01*
X865427D01*
Y698500D01*
X867216D01*
Y698798D01*
X867365D01*
Y699245D01*
X867663D01*
Y699990D01*
X868110D01*
Y700735D01*
X868408D01*
Y701182D01*
X868557D01*
Y701481D01*
X868855D01*
Y701630D01*
X869004D01*
Y701779D01*
X873475D01*
Y701630D01*
X873773D01*
Y701481D01*
X873922D01*
Y700735D01*
X874220D01*
Y699245D01*
X874369D01*
Y699096D01*
X874518D01*
Y698798D01*
X874667D01*
Y698500D01*
X878840D01*
Y699245D01*
X878542D01*
Y700288D01*
X878393D01*
Y700735D01*
X878095D01*
Y702226D01*
X877797D01*
Y702673D01*
X877648D01*
Y703865D01*
X877350D01*
Y705057D01*
X877201D01*
Y705355D01*
X876903D01*
Y706846D01*
X876605D01*
Y708038D01*
X876307D01*
Y708336D01*
X876158D01*
Y709677D01*
X875859D01*
Y709975D01*
D02*
G37*
G36*
X865725D02*
X857678D01*
Y709528D01*
X857380D01*
Y709230D01*
X856933D01*
Y708783D01*
X856634D01*
Y708336D01*
X856485D01*
Y707591D01*
X856187D01*
Y704908D01*
X856038D01*
Y704610D01*
X855889D01*
Y703865D01*
X855740D01*
Y701481D01*
X855442D01*
Y700288D01*
X855740D01*
Y699543D01*
X855889D01*
Y699245D01*
X856187D01*
Y698798D01*
X856933D01*
Y698500D01*
X864682D01*
Y700288D01*
X864533D01*
Y700437D01*
X859615D01*
Y702971D01*
X859764D01*
Y703418D01*
X859913D01*
Y703865D01*
X860062D01*
Y706399D01*
X860360D01*
Y708038D01*
X860807D01*
Y708485D01*
X865725D01*
Y709975D01*
D02*
G37*
%LPD*%
G36*
X917290Y708038D02*
X917737D01*
Y706548D01*
X917588D01*
Y706101D01*
X917439D01*
Y705654D01*
X917290D01*
Y702673D01*
X916992D01*
Y700884D01*
X916843D01*
Y700735D01*
X916545D01*
Y700437D01*
X913415D01*
Y700884D01*
X913117D01*
Y701033D01*
X913415D01*
Y702971D01*
X913564D01*
Y703120D01*
Y704163D01*
X913862D01*
Y706995D01*
X914011D01*
Y707293D01*
X914160D01*
Y707740D01*
X914309D01*
Y708038D01*
X914607D01*
Y708336D01*
X914756D01*
Y708485D01*
X917290D01*
Y708038D01*
D02*
G37*
G36*
X904175Y708336D02*
X904324D01*
Y708038D01*
X904622D01*
Y706548D01*
X904324D01*
Y705355D01*
Y705206D01*
Y705057D01*
X904175D01*
Y704610D01*
X901195D01*
Y706399D01*
X901493D01*
Y708336D01*
X901642D01*
Y708485D01*
X904175D01*
Y708336D01*
D02*
G37*
G36*
X872283Y706846D02*
X872432D01*
Y706548D01*
X872581D01*
Y706399D01*
X872730D01*
Y705057D01*
X873028D01*
Y704312D01*
X873177D01*
Y703716D01*
X873475D01*
Y703567D01*
X873177D01*
Y703418D01*
X870047D01*
Y704163D01*
X870345D01*
Y704461D01*
X870494D01*
Y704610D01*
X870792D01*
Y705355D01*
X871090D01*
Y705504D01*
Y705654D01*
Y705803D01*
X871239D01*
Y706101D01*
X871537D01*
Y706846D01*
X871836D01*
Y706995D01*
X871985D01*
Y707293D01*
X872283D01*
Y706846D01*
D02*
G37*
%LPC*%
G36*
X981522Y708932D02*
X981224D01*
Y708485D01*
X981075D01*
Y708336D01*
X980777D01*
Y708038D01*
Y707889D01*
Y707591D01*
X980479D01*
Y707293D01*
X980330D01*
Y706846D01*
X980032D01*
Y706101D01*
X979734D01*
Y705803D01*
X979585D01*
Y705355D01*
X979287D01*
Y704610D01*
X978839D01*
Y703865D01*
X978541D01*
Y703418D01*
X983161D01*
Y704163D01*
X983012D01*
Y704610D01*
X982714D01*
Y706101D01*
X982416D01*
Y706548D01*
X982267D01*
Y707293D01*
X981969D01*
Y708783D01*
X981522D01*
Y708932D01*
D02*
G37*
G36*
X961552Y710721D02*
X957379D01*
Y709528D01*
X957230D01*
Y708783D01*
X957081D01*
Y708485D01*
X956932D01*
Y707740D01*
Y707591D01*
Y706548D01*
X961254D01*
Y706995D01*
X961552D01*
Y709528D01*
X961701D01*
Y709975D01*
X961850D01*
Y710273D01*
X961552D01*
Y710721D01*
D02*
G37*
G36*
X1041880Y691496D02*
X1040389D01*
Y691198D01*
X1039942D01*
Y691049D01*
X1039644D01*
Y688813D01*
X1039942D01*
Y688515D01*
X1040091D01*
Y688217D01*
X1040389D01*
Y688068D01*
X1040538D01*
Y687770D01*
X1040836D01*
Y687323D01*
X1041134D01*
Y686578D01*
X1040836D01*
Y686131D01*
X1040091D01*
Y686280D01*
X1039942D01*
Y686578D01*
X1039644D01*
Y686876D01*
X1038899D01*
Y686131D01*
X1039197D01*
Y685832D01*
X1039346D01*
Y685385D01*
X1041134D01*
Y685534D01*
X1041283D01*
Y685832D01*
X1041581D01*
Y686131D01*
X1041880D01*
Y687770D01*
X1041581D01*
Y688217D01*
X1041432D01*
Y688366D01*
X1041283D01*
Y688515D01*
X1041134D01*
Y688813D01*
X1040836D01*
Y689111D01*
X1040687D01*
Y689260D01*
X1040389D01*
Y690750D01*
X1041432D01*
Y690452D01*
X1041581D01*
Y690005D01*
X1042029D01*
Y690303D01*
X1042327D01*
Y691049D01*
X1042029D01*
Y691198D01*
X1041880D01*
Y691496D01*
D02*
G37*
G36*
X1007304D02*
X1005814D01*
Y691198D01*
X1005367D01*
Y690899D01*
X1005069D01*
Y690303D01*
X1004920D01*
Y690005D01*
X1005069D01*
Y688813D01*
X1005367D01*
Y688515D01*
X1005665D01*
Y688366D01*
X1005814D01*
Y688068D01*
X1006112D01*
Y687770D01*
X1006261D01*
Y687323D01*
X1006559D01*
Y686280D01*
X1006261D01*
Y686131D01*
X1005367D01*
Y686876D01*
X1004324D01*
Y686578D01*
X1004622D01*
Y685683D01*
X1004920D01*
Y685534D01*
X1005069D01*
Y685385D01*
X1006559D01*
Y685534D01*
X1006708D01*
Y685683D01*
X1006857D01*
Y685832D01*
X1007006D01*
Y686131D01*
X1007304D01*
Y686429D01*
Y686578D01*
Y687770D01*
X1007006D01*
Y688217D01*
X1006857D01*
Y688515D01*
X1006559D01*
Y688813D01*
X1006261D01*
Y688962D01*
X1006112D01*
Y689260D01*
X1005814D01*
Y690750D01*
X1006857D01*
Y690452D01*
X1007006D01*
Y690005D01*
X1007304D01*
Y690154D01*
X1007453D01*
Y690303D01*
X1007751D01*
Y691049D01*
X1007602D01*
Y691198D01*
X1007304D01*
Y691496D01*
D02*
G37*
G36*
X957230D02*
X955740D01*
Y691198D01*
X955293D01*
Y691049D01*
X955144D01*
Y690899D01*
X954995D01*
Y690750D01*
Y688813D01*
X955442D01*
Y688366D01*
X955740D01*
Y688068D01*
X955889D01*
Y687770D01*
X956187D01*
Y687323D01*
X956485D01*
Y686578D01*
X956187D01*
Y686131D01*
X955442D01*
Y686578D01*
X955144D01*
Y686876D01*
X954249D01*
Y686280D01*
X954548D01*
Y685832D01*
X954697D01*
Y685534D01*
X954995D01*
Y685385D01*
X956634D01*
Y685683D01*
X956932D01*
Y686131D01*
X957230D01*
Y686280D01*
X957379D01*
Y687621D01*
X957230D01*
Y687770D01*
X956932D01*
Y688366D01*
X956634D01*
Y688515D01*
X956485D01*
Y688813D01*
X956187D01*
Y689260D01*
X955889D01*
Y689558D01*
X955740D01*
Y690452D01*
X955889D01*
Y690750D01*
X956932D01*
Y690005D01*
X957379D01*
Y690303D01*
X957677D01*
Y691049D01*
X957379D01*
Y691198D01*
X957230D01*
Y691496D01*
D02*
G37*
G36*
X973773Y691645D02*
X973624D01*
Y691496D01*
X973474D01*
Y690750D01*
X973176D01*
Y689260D01*
X973027D01*
Y687770D01*
X972729D01*
Y688515D01*
X972431D01*
Y689260D01*
X972282D01*
Y690899D01*
X971984D01*
Y691496D01*
X971835D01*
Y691645D01*
X971239D01*
Y691496D01*
X971090D01*
Y691198D01*
X970792D01*
Y687770D01*
X970494D01*
Y686876D01*
X970345D01*
Y685385D01*
X971090D01*
Y685534D01*
X971239D01*
Y687621D01*
X971537D01*
Y688962D01*
X971686D01*
Y689260D01*
X971835D01*
Y688813D01*
X971984D01*
Y687323D01*
X972282D01*
Y685832D01*
X972431D01*
Y685534D01*
X972580D01*
Y685385D01*
X973474D01*
Y687025D01*
X973624D01*
Y687323D01*
X973773D01*
Y688068D01*
X973922D01*
Y690303D01*
X974220D01*
Y691496D01*
X973773D01*
Y691645D01*
D02*
G37*
G36*
X993743D02*
X993594D01*
Y691496D01*
X993147D01*
Y689707D01*
X992998D01*
Y689260D01*
X992848D01*
Y688962D01*
X992699D01*
Y686578D01*
X992401D01*
Y686280D01*
X992252D01*
Y686131D01*
X991656D01*
Y686280D01*
X991507D01*
Y686578D01*
X991209D01*
Y686876D01*
X991507D01*
Y687472D01*
Y687621D01*
Y688962D01*
X991656D01*
Y690005D01*
X991954D01*
Y691645D01*
X991209D01*
Y690750D01*
X991060D01*
Y690005D01*
X990762D01*
Y687025D01*
X990464D01*
Y686131D01*
X990762D01*
Y685683D01*
X990911D01*
Y685534D01*
X991060D01*
Y685385D01*
X992699D01*
Y685683D01*
X992848D01*
Y685832D01*
X993147D01*
Y686131D01*
X993445D01*
Y688068D01*
X993594D01*
Y688515D01*
X993743D01*
Y688813D01*
X993892D01*
Y691496D01*
X993743D01*
Y691645D01*
D02*
G37*
G36*
X1056932D02*
X1056634D01*
Y691496D01*
X1055888D01*
Y691198D01*
X1055441D01*
Y690750D01*
X1055292D01*
Y690452D01*
X1055143D01*
Y690303D01*
X1054994D01*
Y687770D01*
X1054696D01*
Y686578D01*
Y686429D01*
Y685832D01*
X1054994D01*
Y685534D01*
X1055143D01*
Y685385D01*
X1056932D01*
Y685832D01*
X1057379D01*
Y686280D01*
X1057677D01*
Y688515D01*
X1057826D01*
Y689260D01*
X1058124D01*
Y690750D01*
X1057826D01*
Y691049D01*
X1057677D01*
Y691198D01*
X1057379D01*
Y691496D01*
X1056932D01*
Y691645D01*
D02*
G37*
G36*
X1049182D02*
X1047841D01*
Y691496D01*
X1047692D01*
Y691198D01*
X1047394D01*
Y689558D01*
X1047245D01*
Y688217D01*
X1047096D01*
Y688068D01*
X1046946D01*
Y685385D01*
X1047692D01*
Y687323D01*
X1048139D01*
Y687770D01*
X1049331D01*
Y688068D01*
X1049629D01*
Y688515D01*
X1050076D01*
Y690005D01*
X1050374D01*
Y690750D01*
X1050076D01*
Y691198D01*
X1049629D01*
Y691496D01*
X1049182D01*
Y691645D01*
D02*
G37*
G36*
X1034130D02*
X1033981D01*
Y691496D01*
X1033534D01*
Y688962D01*
X1033385D01*
Y688515D01*
X1033236D01*
Y688217D01*
X1033087D01*
Y685385D01*
X1033832D01*
Y687323D01*
X1033981D01*
Y688068D01*
X1034279D01*
Y690005D01*
Y690154D01*
Y691496D01*
X1034130D01*
Y691645D01*
D02*
G37*
G36*
X1026827D02*
X1025784D01*
Y691496D01*
X1025486D01*
Y690452D01*
X1025337D01*
Y688962D01*
X1025039D01*
Y686131D01*
X1024890D01*
Y685832D01*
X1024741D01*
Y685534D01*
X1025039D01*
Y685385D01*
X1027274D01*
Y685832D01*
X1027722D01*
Y686429D01*
X1028020D01*
Y686876D01*
X1028169D01*
Y687770D01*
X1028020D01*
Y688068D01*
X1027722D01*
Y688813D01*
X1028020D01*
Y689260D01*
X1028169D01*
Y690899D01*
X1028020D01*
Y691198D01*
X1027722D01*
Y691496D01*
X1026827D01*
Y691645D01*
D02*
G37*
G36*
X1019227D02*
X1018929D01*
Y691496D01*
X1018184D01*
Y691198D01*
X1017737D01*
Y690452D01*
X1017439D01*
Y690154D01*
X1017289D01*
Y687770D01*
X1016991D01*
Y685832D01*
X1017289D01*
Y685534D01*
X1017439D01*
Y685385D01*
X1019227D01*
Y685832D01*
X1019674D01*
Y686578D01*
X1019972D01*
Y686727D01*
Y688217D01*
X1020121D01*
Y689260D01*
X1020419D01*
Y690750D01*
X1020121D01*
Y691049D01*
X1019972D01*
Y691198D01*
X1019674D01*
Y691496D01*
X1019227D01*
Y691645D01*
D02*
G37*
G36*
X999555D02*
X999257D01*
Y691198D01*
X998959D01*
Y690005D01*
X998810D01*
Y687770D01*
X998512D01*
Y687621D01*
Y687472D01*
Y685385D01*
X999257D01*
Y687621D01*
X999555D01*
Y688515D01*
X999704D01*
Y690750D01*
X1000002D01*
Y691496D01*
X999555D01*
Y691645D01*
D02*
G37*
G36*
X984503D02*
X983907D01*
Y691198D01*
X983757D01*
Y690452D01*
X983608D01*
Y690005D01*
X983459D01*
Y687323D01*
X983161D01*
Y685385D01*
X985397D01*
Y685534D01*
X985546D01*
Y686131D01*
X985397D01*
Y686280D01*
X983907D01*
Y686876D01*
X984205D01*
Y689260D01*
X984354D01*
Y690303D01*
X984652D01*
Y691496D01*
X984503D01*
Y691645D01*
D02*
G37*
G36*
X964980D02*
X963936D01*
Y691496D01*
X963788D01*
Y691198D01*
X963489D01*
Y690005D01*
X963191D01*
Y689558D01*
X963042D01*
Y688515D01*
X962744D01*
Y687323D01*
X962446D01*
Y687025D01*
X962297D01*
Y686131D01*
X961999D01*
Y685385D01*
X962744D01*
Y685832D01*
X963042D01*
Y686578D01*
X963191D01*
Y686876D01*
X964234D01*
Y685385D01*
X965278D01*
Y685534D01*
X965427D01*
Y685832D01*
X965129D01*
Y687770D01*
X964980D01*
Y691645D01*
D02*
G37*
%LPD*%
G36*
X1056932Y690303D02*
X1057230D01*
Y690005D01*
X1057081D01*
Y689707D01*
X1056932D01*
Y687025D01*
X1056634D01*
Y686280D01*
X1056485D01*
Y686131D01*
X1055739D01*
Y686578D01*
X1055441D01*
Y687621D01*
X1055739D01*
Y689260D01*
X1055888D01*
Y690303D01*
X1056186D01*
Y690750D01*
X1056932D01*
Y690303D01*
D02*
G37*
G36*
X1049182Y690452D02*
X1049331D01*
Y688962D01*
X1049182D01*
Y688813D01*
X1048884D01*
Y688515D01*
X1048139D01*
Y689558D01*
Y689707D01*
Y690452D01*
X1048437D01*
Y690750D01*
X1049182D01*
Y690452D01*
D02*
G37*
G36*
X1026976D02*
X1027274D01*
Y690154D01*
Y690005D01*
X1027423D01*
Y689707D01*
X1027274D01*
Y689260D01*
X1026976D01*
Y688962D01*
X1026827D01*
Y688813D01*
X1026231D01*
Y690452D01*
X1026529D01*
Y690750D01*
X1026976D01*
Y690452D01*
D02*
G37*
G36*
Y687323D02*
X1027274D01*
Y687025D01*
X1026976D01*
Y686578D01*
X1026529D01*
Y686280D01*
X1025784D01*
Y687323D01*
Y687472D01*
Y687770D01*
X1025933D01*
Y688068D01*
X1026976D01*
Y687323D01*
D02*
G37*
G36*
X1019227Y690303D02*
X1019376D01*
Y689707D01*
X1019227D01*
Y687174D01*
Y687025D01*
X1018929D01*
Y686280D01*
X1018780D01*
Y686131D01*
X1018035D01*
Y686280D01*
X1017737D01*
Y687621D01*
X1018035D01*
Y689260D01*
X1018184D01*
Y690303D01*
X1018482D01*
Y690750D01*
X1019227D01*
Y690303D01*
D02*
G37*
G36*
X964234Y687472D02*
X963489D01*
Y688515D01*
X963788D01*
Y688813D01*
Y688962D01*
X963936D01*
Y690005D01*
X964234D01*
Y687472D01*
D02*
G37*
%LPC*%
G36*
X519963Y373134D02*
X519635D01*
Y372970D01*
X519471D01*
Y372806D01*
X519143D01*
Y372643D01*
X518979D01*
Y372479D01*
X518652D01*
Y372315D01*
X518488D01*
Y372151D01*
X518160D01*
Y371987D01*
X517996D01*
Y371823D01*
X517668D01*
Y371659D01*
X517341D01*
Y371496D01*
X517177D01*
Y371332D01*
X517013D01*
Y371168D01*
X516685D01*
Y371004D01*
X516521D01*
Y370840D01*
X516194D01*
Y370676D01*
X516030D01*
Y370512D01*
X515702D01*
Y370348D01*
X515538D01*
Y370185D01*
X515210D01*
Y370021D01*
X514883D01*
Y369857D01*
X514719D01*
Y369693D01*
X514555D01*
Y369529D01*
X514227D01*
Y369365D01*
X514063D01*
Y369201D01*
X513736D01*
Y369037D01*
X513408D01*
Y368874D01*
X513244D01*
Y368710D01*
X513080D01*
Y368546D01*
X512752D01*
Y368382D01*
X512588D01*
Y368218D01*
X512261D01*
Y368054D01*
X511605D01*
Y368218D01*
X511441D01*
Y368382D01*
X511277D01*
Y368546D01*
X511114D01*
Y368710D01*
X510950D01*
Y368874D01*
X510786D01*
Y369037D01*
X510458D01*
Y369201D01*
X510294D01*
Y369365D01*
X510130D01*
Y369529D01*
X509803D01*
Y369693D01*
X509639D01*
Y369857D01*
X509311D01*
Y370021D01*
X509147D01*
Y370185D01*
X508656D01*
Y370348D01*
X508492D01*
Y370512D01*
X508164D01*
Y370676D01*
X508000D01*
Y370021D01*
X508164D01*
Y369365D01*
X508328D01*
Y368710D01*
X508492D01*
Y367890D01*
X508656D01*
Y366907D01*
X508819D01*
Y365596D01*
X508983D01*
Y362810D01*
X509147D01*
Y362483D01*
X508983D01*
Y360188D01*
X509147D01*
Y360352D01*
X509311D01*
Y360516D01*
X509475D01*
Y360680D01*
X509639D01*
Y360844D01*
X509966D01*
Y361008D01*
X510130D01*
Y361172D01*
X510458D01*
Y361335D01*
X510786D01*
Y361499D01*
X510950D01*
Y361663D01*
X511441D01*
Y361827D01*
X511933D01*
Y361991D01*
X514227D01*
Y361827D01*
X514719D01*
Y361663D01*
X515046D01*
Y361499D01*
X515374D01*
Y361335D01*
X515702D01*
Y361172D01*
X516030D01*
Y361008D01*
X516194D01*
Y360844D01*
X516521D01*
Y360680D01*
X516685D01*
Y360516D01*
X516849D01*
Y360352D01*
X517177D01*
Y360188D01*
X517341D01*
Y360024D01*
X517505D01*
Y359861D01*
X517668D01*
Y359697D01*
X517832D01*
Y359533D01*
X517996D01*
Y359369D01*
X518160D01*
Y359205D01*
X518324D01*
Y359041D01*
X518488D01*
Y358714D01*
X518652D01*
Y358550D01*
X518815D01*
Y358386D01*
X518979D01*
Y358222D01*
X519143D01*
Y357894D01*
X519307D01*
Y357730D01*
X519471D01*
Y357566D01*
X519635D01*
Y357239D01*
X519799D01*
Y357075D01*
X519963D01*
Y356747D01*
X520126D01*
Y356419D01*
X520290D01*
Y356255D01*
X520454D01*
Y355928D01*
X520618D01*
Y355600D01*
X520782D01*
Y355272D01*
X520946D01*
Y354944D01*
X521110D01*
Y354617D01*
X521273D01*
Y354125D01*
X521437D01*
Y353797D01*
X521601D01*
Y353306D01*
X521765D01*
Y352814D01*
X521929D01*
Y352650D01*
X522093D01*
Y352978D01*
X522257D01*
Y353306D01*
X522421D01*
Y353634D01*
X522584D01*
Y353961D01*
X522748D01*
Y354289D01*
X522912D01*
Y354617D01*
X523076D01*
Y354944D01*
X523240D01*
Y355272D01*
X523404D01*
Y355436D01*
X523568D01*
Y355764D01*
X523732D01*
Y356092D01*
X523895D01*
Y356419D01*
X524059D01*
Y356583D01*
X524223D01*
Y356911D01*
X524387D01*
Y357075D01*
X524551D01*
Y357403D01*
X524715D01*
Y357730D01*
X524879D01*
Y357894D01*
X525043D01*
Y358222D01*
X525206D01*
Y358386D01*
X525370D01*
Y358714D01*
X525534D01*
Y358877D01*
X525698D01*
Y359205D01*
X525862D01*
Y359369D01*
X526026D01*
Y359533D01*
X526190D01*
Y359861D01*
X526353D01*
Y360024D01*
X526517D01*
Y360188D01*
X526681D01*
Y360516D01*
X526845D01*
Y360680D01*
X527009D01*
Y360844D01*
X527173D01*
Y361008D01*
X527337D01*
Y361172D01*
X527501D01*
Y361499D01*
X527664D01*
Y361663D01*
X527828D01*
Y361827D01*
X527992D01*
Y361991D01*
X528156D01*
Y362155D01*
X528320D01*
Y362319D01*
X528484D01*
Y362483D01*
X528648D01*
Y362646D01*
X528812D01*
Y362810D01*
X528975D01*
Y362974D01*
X529139D01*
Y363138D01*
X529303D01*
Y363302D01*
X529467D01*
Y363466D01*
X529631D01*
Y363630D01*
X529795D01*
Y363794D01*
X529959D01*
Y363957D01*
X530123D01*
Y364121D01*
X530286D01*
Y364285D01*
X530614D01*
Y364449D01*
X530778D01*
Y364613D01*
X530942D01*
Y364777D01*
X531106D01*
Y364941D01*
X531433D01*
Y365104D01*
X531597D01*
Y365268D01*
X531925D01*
Y365432D01*
X532089D01*
Y365596D01*
X532253D01*
Y365760D01*
X530450D01*
Y365596D01*
X530123D01*
Y365760D01*
X529959D01*
Y365596D01*
X528156D01*
Y365432D01*
X526845D01*
Y365268D01*
X526026D01*
Y365104D01*
X525370D01*
Y364941D01*
X524879D01*
Y365104D01*
X524715D01*
Y365268D01*
X524551D01*
Y365596D01*
X524387D01*
Y365924D01*
X524223D01*
Y366252D01*
X524059D01*
Y366415D01*
X523895D01*
Y366907D01*
X523732D01*
Y367071D01*
X523568D01*
Y367399D01*
X523404D01*
Y367726D01*
X523240D01*
Y368054D01*
X523076D01*
Y368218D01*
X522912D01*
Y368546D01*
X522748D01*
Y368874D01*
X522584D01*
Y369037D01*
X522421D01*
Y369365D01*
X522257D01*
Y369693D01*
X522093D01*
Y369857D01*
X521929D01*
Y370185D01*
X521765D01*
Y370512D01*
X521601D01*
Y370676D01*
X521437D01*
Y371004D01*
X521273D01*
Y371168D01*
X521110D01*
Y371496D01*
X520946D01*
Y371659D01*
X520782D01*
Y371987D01*
X520618D01*
Y372151D01*
X520454D01*
Y372479D01*
X520290D01*
Y372643D01*
X520126D01*
Y372970D01*
X519963D01*
Y373134D01*
D02*
G37*
G36*
X521273Y381164D02*
X514555D01*
Y381000D01*
X513080D01*
Y380836D01*
X511933D01*
Y380672D01*
X511114D01*
Y380508D01*
X510294D01*
Y380345D01*
X509475D01*
Y380181D01*
X508983D01*
Y380017D01*
X508328D01*
Y379853D01*
X507836D01*
Y379689D01*
X507181D01*
Y379525D01*
X506853D01*
Y379361D01*
X506361D01*
Y379197D01*
X505870D01*
Y379034D01*
X505542D01*
Y378870D01*
X505050D01*
Y378706D01*
X504723D01*
Y378542D01*
X504231D01*
Y378378D01*
X503903D01*
Y378214D01*
X503576D01*
Y378050D01*
X503248D01*
Y377886D01*
X502920D01*
Y377723D01*
X502592D01*
Y377559D01*
X502265D01*
Y377395D01*
X501937D01*
Y377231D01*
X501609D01*
Y376903D01*
X502756D01*
Y376739D01*
X503248D01*
Y376576D01*
X503576D01*
Y376412D01*
X503903D01*
Y376248D01*
X504231D01*
Y376084D01*
X504395D01*
Y375920D01*
X504723D01*
Y375756D01*
X504886D01*
Y375592D01*
X505050D01*
Y375428D01*
X505214D01*
Y375265D01*
X505378D01*
Y375101D01*
X505542D01*
Y374937D01*
X505706D01*
Y374773D01*
X505870D01*
Y374609D01*
X506034D01*
Y374281D01*
X506197D01*
Y374117D01*
X506361D01*
Y373790D01*
X506525D01*
Y373626D01*
X506689D01*
Y373298D01*
X506853D01*
Y372970D01*
X507017D01*
Y372643D01*
X507181D01*
Y372315D01*
X507345D01*
Y372151D01*
X507508D01*
Y371987D01*
X508164D01*
Y371823D01*
X508492D01*
Y371659D01*
X508819D01*
Y371496D01*
X509147D01*
Y371332D01*
X509475D01*
Y371168D01*
X509803D01*
Y371004D01*
X509966D01*
Y370840D01*
X510294D01*
Y370676D01*
X510458D01*
Y370512D01*
X510786D01*
Y370348D01*
X510950D01*
Y370185D01*
X511277D01*
Y370021D01*
X511441D01*
Y369857D01*
X511605D01*
Y369693D01*
X511769D01*
Y369529D01*
X512261D01*
Y369693D01*
X512588D01*
Y369857D01*
X512752D01*
Y370021D01*
X513080D01*
Y370185D01*
X513244D01*
Y370348D01*
X513572D01*
Y370512D01*
X513736D01*
Y370676D01*
X514063D01*
Y370840D01*
X514227D01*
Y371004D01*
X514555D01*
Y371168D01*
X514719D01*
Y371332D01*
X515046D01*
Y371496D01*
X515210D01*
Y371659D01*
X515538D01*
Y371823D01*
X515702D01*
Y371987D01*
X516030D01*
Y372151D01*
X516194D01*
Y372315D01*
X516521D01*
Y372479D01*
X516685D01*
Y372643D01*
X517013D01*
Y372806D01*
X517177D01*
Y372970D01*
X517505D01*
Y373134D01*
X517668D01*
Y373298D01*
X517996D01*
Y373462D01*
X518160D01*
Y373626D01*
X518488D01*
Y373790D01*
X518652D01*
Y373954D01*
X518979D01*
Y374117D01*
X519143D01*
Y374281D01*
X519471D01*
Y374445D01*
X519635D01*
Y374609D01*
X520454D01*
Y374281D01*
X520618D01*
Y374117D01*
X520782D01*
Y373954D01*
X520946D01*
Y373626D01*
X521110D01*
Y373462D01*
X521273D01*
Y373134D01*
X521437D01*
Y372970D01*
X521601D01*
Y372643D01*
X521765D01*
Y372479D01*
X521929D01*
Y372151D01*
X522093D01*
Y371987D01*
X522257D01*
Y371659D01*
X522421D01*
Y371496D01*
X522584D01*
Y371168D01*
X522748D01*
Y370840D01*
X522912D01*
Y370676D01*
X523076D01*
Y370348D01*
X523240D01*
Y370185D01*
X523404D01*
Y369857D01*
X523568D01*
Y369529D01*
X523732D01*
Y369201D01*
X523895D01*
Y369037D01*
X524059D01*
Y368710D01*
X524223D01*
Y368382D01*
X524387D01*
Y368218D01*
X524551D01*
Y367890D01*
X524715D01*
Y367563D01*
X524879D01*
Y367235D01*
X525043D01*
Y366907D01*
X525206D01*
Y366579D01*
X525370D01*
Y366415D01*
X526353D01*
Y366579D01*
X527337D01*
Y366743D01*
X528812D01*
Y366907D01*
X534875D01*
Y367071D01*
X535203D01*
Y367235D01*
X535694D01*
Y367399D01*
X536022D01*
Y367563D01*
X536677D01*
Y367726D01*
X537333D01*
Y367890D01*
X538316D01*
Y368054D01*
X542249D01*
Y367890D01*
X543068D01*
Y367726D01*
X543724D01*
Y367563D01*
X544216D01*
Y367399D01*
X544871D01*
Y367235D01*
X545199D01*
Y367071D01*
X545526D01*
Y366907D01*
X546018D01*
Y366743D01*
X546346D01*
Y366579D01*
X546674D01*
Y366415D01*
X547001D01*
Y366252D01*
X547165D01*
Y366088D01*
X547493D01*
Y365924D01*
X547657D01*
Y366252D01*
X547493D01*
Y366415D01*
X547329D01*
Y366743D01*
X547165D01*
Y366907D01*
X547001D01*
Y367071D01*
X546837D01*
Y367399D01*
X546674D01*
Y367563D01*
X546510D01*
Y367726D01*
X546346D01*
Y368054D01*
X546182D01*
Y368218D01*
X546018D01*
Y368382D01*
X545854D01*
Y368546D01*
X545690D01*
Y368710D01*
X545526D01*
Y369037D01*
X545363D01*
Y369201D01*
X545199D01*
Y369365D01*
X545035D01*
Y369529D01*
X544871D01*
Y369693D01*
X544707D01*
Y369857D01*
X544543D01*
Y370021D01*
X544379D01*
Y370185D01*
X544216D01*
Y370348D01*
X544052D01*
Y370512D01*
X543888D01*
Y370676D01*
X543724D01*
Y370840D01*
X543560D01*
Y371004D01*
X543396D01*
Y371168D01*
X543232D01*
Y371332D01*
X543068D01*
Y371496D01*
X542905D01*
Y371659D01*
X542741D01*
Y371823D01*
X542577D01*
Y371987D01*
X542413D01*
Y372151D01*
X542249D01*
Y372315D01*
X542085D01*
Y372479D01*
X541757D01*
Y372643D01*
X541594D01*
Y372806D01*
X541430D01*
Y372970D01*
X541266D01*
Y373134D01*
X541102D01*
Y373298D01*
X540774D01*
Y373462D01*
X540610D01*
Y373626D01*
X540446D01*
Y373790D01*
X540119D01*
Y373954D01*
X539955D01*
Y374117D01*
X539791D01*
Y374281D01*
X539463D01*
Y374445D01*
X539299D01*
Y374609D01*
X538972D01*
Y374773D01*
X538808D01*
Y374937D01*
X538480D01*
Y375101D01*
X538316D01*
Y375265D01*
X537988D01*
Y375428D01*
X537825D01*
Y375592D01*
X537497D01*
Y375756D01*
X537169D01*
Y375920D01*
X537005D01*
Y376084D01*
X536677D01*
Y376248D01*
X536350D01*
Y376412D01*
X536022D01*
Y376576D01*
X535694D01*
Y376739D01*
X535530D01*
Y376903D01*
X535203D01*
Y377067D01*
X534875D01*
Y377231D01*
X534547D01*
Y377395D01*
X534219D01*
Y377559D01*
X533892D01*
Y377723D01*
X533400D01*
Y377886D01*
X533072D01*
Y378050D01*
X532744D01*
Y378214D01*
X532417D01*
Y378378D01*
X531925D01*
Y378542D01*
X531433D01*
Y378706D01*
X531106D01*
Y378870D01*
X530614D01*
Y379034D01*
X530123D01*
Y379197D01*
X529631D01*
Y379361D01*
X529139D01*
Y379525D01*
X528648D01*
Y379689D01*
X528156D01*
Y379853D01*
X527501D01*
Y380017D01*
X526845D01*
Y380181D01*
X526190D01*
Y380345D01*
X525534D01*
Y380508D01*
X524551D01*
Y380672D01*
X523732D01*
Y380836D01*
X522584D01*
Y381000D01*
X521273D01*
Y381164D01*
D02*
G37*
G36*
X513736Y360844D02*
X512261D01*
Y360680D01*
X511769D01*
Y360516D01*
X511441D01*
Y360352D01*
X511114D01*
Y360188D01*
X510786D01*
Y360024D01*
X510622D01*
Y359861D01*
X510458D01*
Y359697D01*
X510294D01*
Y359533D01*
X509966D01*
Y359369D01*
X509803D01*
Y359205D01*
X509639D01*
Y358877D01*
X509475D01*
Y358714D01*
X509311D01*
Y358550D01*
X509147D01*
Y358386D01*
X508983D01*
Y358222D01*
X508819D01*
Y357894D01*
X508656D01*
Y357730D01*
X508492D01*
Y357403D01*
X508328D01*
Y357239D01*
X508164D01*
Y356911D01*
X508000D01*
Y356747D01*
X507836D01*
Y356419D01*
X507672D01*
Y356255D01*
X507508D01*
Y355928D01*
X507345D01*
Y355600D01*
X507181D01*
Y355272D01*
X507017D01*
Y354781D01*
X506853D01*
Y351339D01*
X507017D01*
Y350192D01*
X507181D01*
Y349373D01*
X507345D01*
Y348881D01*
X507508D01*
Y348226D01*
X507672D01*
Y347898D01*
X507836D01*
Y347406D01*
X508000D01*
Y346915D01*
X508164D01*
Y346587D01*
X508328D01*
Y346259D01*
X508492D01*
Y345932D01*
X508656D01*
Y345604D01*
X508819D01*
Y345440D01*
X508983D01*
Y345112D01*
X509147D01*
Y344948D01*
X509311D01*
Y344621D01*
X509475D01*
Y344457D01*
X509639D01*
Y344129D01*
X509803D01*
Y343965D01*
X509966D01*
Y343801D01*
X510130D01*
Y343637D01*
X510294D01*
Y343474D01*
X510458D01*
Y343310D01*
X510622D01*
Y343146D01*
X510786D01*
Y342982D01*
X510950D01*
Y342818D01*
X511277D01*
Y342654D01*
X511441D01*
Y342490D01*
X511769D01*
Y342326D01*
X512097D01*
Y342163D01*
X512588D01*
Y341999D01*
X514391D01*
Y342163D01*
X514883D01*
Y342326D01*
X515210D01*
Y342490D01*
X515538D01*
Y342654D01*
X515702D01*
Y342818D01*
X516030D01*
Y342982D01*
X516194D01*
Y343146D01*
X516521D01*
Y343310D01*
X516685D01*
Y343474D01*
X516849D01*
Y343637D01*
X517013D01*
Y343801D01*
X517177D01*
Y343965D01*
X517341D01*
Y344129D01*
X517505D01*
Y344293D01*
X517668D01*
Y344457D01*
X517832D01*
Y344621D01*
X517996D01*
Y344785D01*
X518160D01*
Y345112D01*
X518324D01*
Y345276D01*
X518488D01*
Y345440D01*
X518652D01*
Y345604D01*
X518815D01*
Y345932D01*
X518979D01*
Y346096D01*
X519143D01*
Y346423D01*
X519307D01*
Y346587D01*
X519471D01*
Y346915D01*
X519635D01*
Y347243D01*
X519799D01*
Y347406D01*
X519963D01*
Y347734D01*
X520126D01*
Y348062D01*
X520290D01*
Y348390D01*
X520454D01*
Y348881D01*
X520618D01*
Y349373D01*
X520782D01*
Y349865D01*
X520946D01*
Y351667D01*
X520782D01*
Y352159D01*
Y352323D01*
Y352486D01*
X520618D01*
Y352978D01*
X520454D01*
Y353470D01*
X520290D01*
Y353797D01*
X520126D01*
Y354289D01*
X519963D01*
Y354617D01*
X519799D01*
Y354944D01*
X519635D01*
Y355272D01*
X519471D01*
Y355436D01*
X519307D01*
Y355764D01*
X519143D01*
Y356092D01*
X518979D01*
Y356255D01*
X518815D01*
Y356583D01*
X518652D01*
Y356911D01*
X518488D01*
Y357075D01*
X518324D01*
Y357239D01*
X518160D01*
Y357566D01*
X517996D01*
Y357730D01*
X517832D01*
Y357894D01*
X517668D01*
Y358058D01*
X517505D01*
Y358222D01*
X517341D01*
Y358550D01*
X517013D01*
Y358714D01*
X516849D01*
Y358877D01*
X516685D01*
Y359041D01*
X516521D01*
Y359205D01*
X516357D01*
Y359369D01*
X516194D01*
Y359533D01*
X516030D01*
Y359697D01*
X515866D01*
Y359861D01*
X515538D01*
Y360024D01*
X515210D01*
Y360188D01*
X515046D01*
Y360352D01*
X514719D01*
Y360516D01*
X514391D01*
Y360680D01*
X513736D01*
Y360844D01*
D02*
G37*
G36*
X556014Y333314D02*
X555686D01*
Y333150D01*
X555359D01*
Y333314D01*
X550770D01*
Y333150D01*
X548804D01*
Y332986D01*
X547657D01*
Y332822D01*
X546510D01*
Y332658D01*
X545526D01*
Y332494D01*
X544543D01*
Y332330D01*
X543888D01*
Y332166D01*
X543396D01*
Y332003D01*
X543232D01*
Y331839D01*
X542905D01*
Y331675D01*
X542741D01*
Y331511D01*
X542413D01*
Y331347D01*
X542249D01*
Y331183D01*
X541921D01*
Y331019D01*
X541757D01*
Y330855D01*
X541430D01*
Y330692D01*
X541266D01*
Y330528D01*
X540938D01*
Y330364D01*
X540610D01*
Y330200D01*
X540283D01*
Y330036D01*
X540119D01*
Y329872D01*
X539791D01*
Y329708D01*
X539463D01*
Y329544D01*
X539136D01*
Y329381D01*
X538808D01*
Y329217D01*
X538316D01*
Y329053D01*
X537988D01*
Y328889D01*
X537661D01*
Y328725D01*
X537333D01*
Y328561D01*
X536841D01*
Y328397D01*
X536513D01*
Y326267D01*
X536350D01*
Y325120D01*
X536186D01*
Y324464D01*
X536022D01*
Y323809D01*
X535858D01*
Y323317D01*
X535694D01*
Y322990D01*
X535530D01*
Y322498D01*
X535366D01*
Y322170D01*
X535203D01*
Y321843D01*
X535039D01*
Y321679D01*
X534875D01*
Y321351D01*
X534711D01*
Y321023D01*
X534547D01*
Y320859D01*
X534383D01*
Y320532D01*
X534219D01*
Y320368D01*
X534055D01*
Y320204D01*
X533892D01*
Y320040D01*
X533728D01*
Y319876D01*
X533564D01*
Y319712D01*
X533400D01*
Y319548D01*
X533236D01*
Y319384D01*
X533072D01*
Y319221D01*
X532908D01*
Y319057D01*
X532744D01*
Y318893D01*
X532581D01*
Y318729D01*
X532417D01*
Y318565D01*
X532089D01*
Y318401D01*
X531925D01*
Y318237D01*
X531761D01*
Y318074D01*
X531433D01*
Y317910D01*
X531106D01*
Y317746D01*
X530942D01*
Y317582D01*
X530614D01*
Y317418D01*
X530286D01*
Y317254D01*
X529959D01*
Y317090D01*
X529467D01*
Y316926D01*
X529139D01*
Y316763D01*
X528812D01*
Y316599D01*
X528156D01*
Y316435D01*
X527501D01*
Y316271D01*
X526845D01*
Y316107D01*
X525370D01*
Y315943D01*
X522912D01*
Y316107D01*
X521601D01*
Y316271D01*
X520782D01*
Y316435D01*
X519963D01*
Y316599D01*
X519471D01*
Y316763D01*
X518979D01*
Y316926D01*
X518488D01*
Y317090D01*
X518160D01*
Y317254D01*
X517832D01*
Y317418D01*
X517341D01*
Y317582D01*
X517013D01*
Y317746D01*
X516685D01*
Y317910D01*
X516521D01*
Y318074D01*
X516194D01*
Y318237D01*
X515866D01*
Y318401D01*
X515702D01*
Y318565D01*
X515374D01*
Y318729D01*
X515210D01*
Y318893D01*
X514883D01*
Y319057D01*
X514719D01*
Y319221D01*
X514555D01*
Y319384D01*
X514391D01*
Y319548D01*
X514063D01*
Y319712D01*
X513899D01*
Y319876D01*
X513736D01*
Y320040D01*
X513572D01*
Y320204D01*
X513408D01*
Y320368D01*
X513244D01*
Y320532D01*
X513080D01*
Y320695D01*
X512916D01*
Y320859D01*
X512752D01*
Y321023D01*
X512588D01*
Y321351D01*
X512425D01*
Y321515D01*
X512261D01*
Y321679D01*
X512097D01*
Y321843D01*
X511933D01*
Y322170D01*
X511769D01*
Y322334D01*
X511605D01*
Y322662D01*
X511441D01*
Y322990D01*
X511277D01*
Y323154D01*
X511114D01*
Y323481D01*
X510950D01*
Y323645D01*
X510786D01*
Y323973D01*
X510622D01*
Y324464D01*
X510458D01*
Y324792D01*
X510294D01*
Y325120D01*
X510130D01*
Y325612D01*
X509966D01*
Y325775D01*
X509803D01*
Y325612D01*
X509639D01*
Y325448D01*
X509311D01*
Y325284D01*
X509147D01*
Y325120D01*
X508819D01*
Y324956D01*
X508656D01*
Y324792D01*
X508328D01*
Y324628D01*
X508164D01*
Y324464D01*
X507836D01*
Y324301D01*
X507508D01*
Y324137D01*
X507181D01*
Y323973D01*
X506853D01*
Y323809D01*
X506689D01*
Y323645D01*
X506197D01*
Y323481D01*
X505870D01*
Y323317D01*
X505542D01*
Y323154D01*
X505214D01*
Y322990D01*
X504723D01*
Y322826D01*
X504231D01*
Y322662D01*
X503903D01*
Y322498D01*
X503248D01*
Y322334D01*
X502756D01*
Y322170D01*
X501937D01*
Y322006D01*
X500953D01*
Y321843D01*
X497676D01*
Y322006D01*
X496857D01*
Y322170D01*
X496201D01*
Y322334D01*
X495710D01*
Y322498D01*
X495218D01*
Y322662D01*
X494890D01*
Y322826D01*
X494563D01*
Y322990D01*
X494235D01*
Y323154D01*
X493907D01*
Y323317D01*
X493743D01*
Y323481D01*
X493415D01*
Y323645D01*
X493252D01*
Y323809D01*
X493088D01*
Y323973D01*
X492760D01*
Y324137D01*
X492596D01*
Y324301D01*
X492432D01*
Y324464D01*
X492268D01*
Y324792D01*
X492104D01*
Y324956D01*
X491941D01*
Y325120D01*
X491777D01*
Y325284D01*
X491449D01*
Y325120D01*
X491285D01*
Y324792D01*
X491121D01*
Y324628D01*
X490957D01*
Y324464D01*
X490793D01*
Y324301D01*
X490630D01*
Y323973D01*
X490466D01*
Y323809D01*
X490302D01*
Y323645D01*
X490138D01*
Y323317D01*
X489974D01*
Y323154D01*
X489810D01*
Y322826D01*
X489646D01*
Y322662D01*
X489483D01*
Y322334D01*
X489319D01*
Y322170D01*
X489155D01*
Y321843D01*
X488991D01*
Y321515D01*
X488827D01*
Y321351D01*
X488663D01*
Y321023D01*
X488499D01*
Y320695D01*
X488335D01*
Y320368D01*
X488172D01*
Y320040D01*
X488008D01*
Y319712D01*
X487844D01*
Y319221D01*
X487680D01*
Y318893D01*
X487516D01*
Y318565D01*
X487352D01*
Y318074D01*
X487188D01*
Y317582D01*
X487024D01*
Y317090D01*
X486861D01*
Y316435D01*
X486697D01*
Y315779D01*
X486533D01*
Y314632D01*
X486861D01*
Y314468D01*
X487024D01*
Y314305D01*
X487188D01*
Y314141D01*
X487352D01*
Y313977D01*
X487516D01*
Y313813D01*
X487680D01*
Y313649D01*
X488008D01*
Y313485D01*
X488172D01*
Y313321D01*
X488335D01*
Y313157D01*
X488499D01*
Y312830D01*
X488663D01*
Y312666D01*
X488827D01*
Y312502D01*
X488991D01*
Y312338D01*
X489155D01*
Y312174D01*
X489319D01*
Y312010D01*
X489483D01*
Y311846D01*
X489646D01*
Y311683D01*
X489810D01*
Y312174D01*
X489646D01*
Y312830D01*
X489483D01*
Y315288D01*
X489646D01*
Y315943D01*
X489810D01*
Y316435D01*
X489974D01*
Y316926D01*
X490138D01*
Y317254D01*
X490302D01*
Y317582D01*
X490466D01*
Y317746D01*
X490630D01*
Y318074D01*
X490793D01*
Y318237D01*
X490957D01*
Y318401D01*
X491121D01*
Y318729D01*
X491285D01*
Y318893D01*
X491449D01*
Y319057D01*
X491613D01*
Y319221D01*
X491941D01*
Y319384D01*
X492104D01*
Y319548D01*
X492268D01*
Y319712D01*
X492596D01*
Y319876D01*
X492924D01*
Y320040D01*
X493252D01*
Y320204D01*
X493579D01*
Y320368D01*
X494071D01*
Y320532D01*
X495054D01*
Y320695D01*
X495218D01*
Y320532D01*
X495546D01*
Y320695D01*
X495710D01*
Y320532D01*
X496693D01*
Y320368D01*
X497184D01*
Y320204D01*
X497512D01*
Y320040D01*
X497840D01*
Y319876D01*
X498168D01*
Y319712D01*
X498332D01*
Y319548D01*
X498495D01*
Y319384D01*
X498823D01*
Y319221D01*
X498987D01*
Y319057D01*
X499151D01*
Y318729D01*
X499315D01*
Y318565D01*
X499479D01*
Y318401D01*
X499643D01*
Y318074D01*
X499806D01*
Y317910D01*
X499970D01*
Y317582D01*
X500134D01*
Y317090D01*
X500298D01*
Y316599D01*
X500462D01*
Y315943D01*
X500626D01*
Y313485D01*
X500462D01*
Y312830D01*
X500298D01*
Y312338D01*
X500134D01*
Y312010D01*
X499970D01*
Y311519D01*
X499806D01*
Y311355D01*
X499643D01*
Y311027D01*
X499479D01*
Y310699D01*
X499315D01*
Y310536D01*
X499151D01*
Y310372D01*
X498987D01*
Y310208D01*
X498823D01*
Y309880D01*
X498659D01*
Y309716D01*
X498332D01*
Y309552D01*
X498168D01*
Y309388D01*
X498004D01*
Y309224D01*
X497840D01*
Y309061D01*
X497512D01*
Y308897D01*
X497184D01*
Y308733D01*
X496857D01*
Y308569D01*
X496529D01*
Y308405D01*
X495873D01*
Y308241D01*
X493579D01*
Y308405D01*
X493088D01*
Y308569D01*
X492596D01*
Y308733D01*
X492268D01*
Y308897D01*
X492104D01*
Y309061D01*
X491777D01*
Y309224D01*
X491613D01*
Y309388D01*
X491285D01*
Y309224D01*
X491449D01*
Y309061D01*
X491613D01*
Y308733D01*
X491777D01*
Y308405D01*
X491941D01*
Y308077D01*
X492104D01*
Y307750D01*
X492268D01*
Y307422D01*
X492432D01*
Y307094D01*
X492596D01*
Y306766D01*
X492760D01*
Y306439D01*
X492924D01*
Y306111D01*
X493088D01*
Y305619D01*
X493252D01*
Y305292D01*
X493415D01*
Y304800D01*
X493579D01*
Y304308D01*
X493743D01*
Y303817D01*
X493907D01*
Y303161D01*
X494071D01*
Y302670D01*
X494235D01*
Y301850D01*
X494399D01*
Y301195D01*
X494563D01*
Y300212D01*
X494726D01*
Y298573D01*
X494890D01*
Y298409D01*
X494726D01*
Y298081D01*
X494890D01*
Y296115D01*
X494726D01*
Y295951D01*
X494890D01*
Y295623D01*
X494726D01*
Y294640D01*
X494563D01*
Y293821D01*
X494399D01*
Y293165D01*
X494235D01*
Y292674D01*
X494071D01*
Y292346D01*
X493907D01*
Y291854D01*
X493743D01*
Y291526D01*
X493579D01*
Y291363D01*
X493415D01*
Y291035D01*
X493252D01*
Y290707D01*
X495054D01*
Y290871D01*
X495710D01*
Y291035D01*
X496365D01*
Y291199D01*
X496857D01*
Y291363D01*
X497348D01*
Y291854D01*
X497184D01*
Y292182D01*
X497021D01*
Y292510D01*
X496857D01*
Y293165D01*
X496693D01*
Y293985D01*
X497021D01*
Y293657D01*
X497184D01*
Y293329D01*
X497348D01*
Y293001D01*
X497512D01*
Y292837D01*
X497676D01*
Y292674D01*
X497840D01*
Y292510D01*
X498004D01*
Y292182D01*
X498168D01*
Y292018D01*
X498332D01*
Y291854D01*
X498495D01*
Y291690D01*
X498659D01*
Y291526D01*
X498823D01*
Y291363D01*
X498987D01*
Y291199D01*
X499151D01*
Y291035D01*
X499479D01*
Y290871D01*
X499643D01*
Y290707D01*
X499806D01*
Y290543D01*
X499970D01*
Y290379D01*
X500298D01*
Y290215D01*
X500462D01*
Y290052D01*
X500626D01*
Y289888D01*
X500953D01*
Y289724D01*
X501117D01*
Y289560D01*
X501281D01*
Y289396D01*
X501609D01*
Y289232D01*
X501773D01*
Y289068D01*
X502101D01*
Y288904D01*
X502428D01*
Y288741D01*
X502592D01*
Y288577D01*
X502920D01*
Y288413D01*
X503248D01*
Y288249D01*
X503412D01*
Y288085D01*
X503739D01*
Y287921D01*
X504067D01*
Y287757D01*
X504395D01*
Y287594D01*
X504723D01*
Y287430D01*
X505050D01*
Y287266D01*
X505378D01*
Y287102D01*
X505870D01*
Y286938D01*
X506197D01*
Y286774D01*
X506689D01*
Y286610D01*
X507017D01*
Y286446D01*
X507508D01*
Y286283D01*
X508000D01*
Y286119D01*
X508492D01*
Y285955D01*
X508983D01*
Y285791D01*
X509639D01*
Y285627D01*
X510294D01*
Y285463D01*
X511114D01*
Y285299D01*
X512097D01*
Y285135D01*
X514555D01*
Y284972D01*
X514883D01*
Y285135D01*
X516685D01*
Y285299D01*
X517668D01*
Y285463D01*
X518324D01*
Y285627D01*
X518815D01*
Y285791D01*
X519307D01*
Y285955D01*
X519799D01*
Y285791D01*
X519635D01*
Y285627D01*
X519471D01*
Y285463D01*
X519307D01*
Y285299D01*
X519143D01*
Y285135D01*
X518815D01*
Y284972D01*
X518488D01*
Y284808D01*
X518160D01*
Y284644D01*
X517996D01*
Y284480D01*
X517668D01*
Y284316D01*
X517505D01*
Y284152D01*
X517832D01*
Y283988D01*
X517996D01*
Y283825D01*
X518160D01*
Y283661D01*
X518324D01*
Y283497D01*
X518488D01*
Y283333D01*
X518815D01*
Y283169D01*
X519143D01*
Y283005D01*
X519307D01*
Y282841D01*
X519635D01*
Y282677D01*
X520126D01*
Y282514D01*
X520618D01*
Y282350D01*
X521765D01*
Y282186D01*
X522257D01*
Y282350D01*
X523568D01*
Y282514D01*
X524059D01*
Y282677D01*
X524551D01*
Y282841D01*
X524879D01*
Y283005D01*
X525206D01*
Y283169D01*
X525534D01*
Y283333D01*
X525698D01*
Y283497D01*
X525862D01*
Y283661D01*
X526026D01*
Y283825D01*
X526353D01*
Y283988D01*
X526517D01*
Y284152D01*
X526681D01*
Y284316D01*
X526845D01*
Y284480D01*
X527009D01*
Y284808D01*
X527173D01*
Y284972D01*
X527337D01*
Y285135D01*
X527501D01*
Y285463D01*
X527664D01*
Y285627D01*
X527828D01*
Y285955D01*
X527992D01*
Y286283D01*
X528156D01*
Y286774D01*
X528320D01*
Y287266D01*
X528484D01*
Y288085D01*
X528648D01*
Y288577D01*
X528812D01*
Y288741D01*
X528975D01*
Y288904D01*
X529303D01*
Y289068D01*
X529631D01*
Y289232D01*
X529795D01*
Y289396D01*
X530123D01*
Y289560D01*
X530286D01*
Y289724D01*
X530450D01*
Y289888D01*
X530614D01*
Y290052D01*
X530942D01*
Y290215D01*
X531106D01*
Y290379D01*
X531270D01*
Y290543D01*
X531433D01*
Y290707D01*
X531597D01*
Y290871D01*
X531761D01*
Y291035D01*
X531925D01*
Y291199D01*
X532089D01*
Y291363D01*
X532253D01*
Y291690D01*
X532417D01*
Y291854D01*
X532581D01*
Y292018D01*
X532744D01*
Y292182D01*
X532908D01*
Y292510D01*
X533072D01*
Y292837D01*
X533236D01*
Y293001D01*
X533400D01*
Y293329D01*
X533564D01*
Y293493D01*
X533728D01*
Y293821D01*
X533892D01*
Y294148D01*
X534055D01*
Y294640D01*
X534219D01*
Y294968D01*
X534383D01*
Y295296D01*
X534547D01*
Y295623D01*
X534711D01*
Y296115D01*
X534875D01*
Y296606D01*
X535039D01*
Y297098D01*
X535203D01*
Y297590D01*
X535366D01*
Y298245D01*
X535530D01*
Y298901D01*
X535694D01*
Y299720D01*
X535858D01*
Y300539D01*
X536022D01*
Y301850D01*
X536186D01*
Y303981D01*
X536350D01*
Y306930D01*
X536186D01*
Y308733D01*
X535366D01*
Y308569D01*
X532744D01*
Y308733D01*
X532089D01*
Y309061D01*
X533072D01*
Y309224D01*
X533892D01*
Y309388D01*
X534547D01*
Y309552D01*
X535203D01*
Y309716D01*
X535858D01*
Y309880D01*
X536350D01*
Y310044D01*
X537005D01*
Y310208D01*
X537497D01*
Y310372D01*
X537988D01*
Y310536D01*
X538480D01*
Y310699D01*
X538972D01*
Y310863D01*
X539463D01*
Y311027D01*
X539955D01*
Y311191D01*
X540283D01*
Y311355D01*
X540774D01*
Y311519D01*
X541266D01*
Y311683D01*
X541594D01*
Y311846D01*
X542085D01*
Y312010D01*
X542413D01*
Y312174D01*
X542905D01*
Y312338D01*
X543232D01*
Y312502D01*
X543560D01*
Y312666D01*
X543888D01*
Y312830D01*
X544216D01*
Y312994D01*
X544543D01*
Y313157D01*
X544871D01*
Y313321D01*
X545363D01*
Y313485D01*
X545690D01*
Y313649D01*
X546018D01*
Y313813D01*
X546182D01*
Y313977D01*
X546510D01*
Y314141D01*
X546837D01*
Y314305D01*
X547165D01*
Y314468D01*
X547493D01*
Y314632D01*
X547657D01*
Y314796D01*
X547985D01*
Y314960D01*
X548312D01*
Y315124D01*
X548640D01*
Y315288D01*
X548804D01*
Y315452D01*
X549132D01*
Y315616D01*
X549296D01*
Y315779D01*
X549623D01*
Y315943D01*
X549787D01*
Y316107D01*
X550115D01*
Y316271D01*
X550279D01*
Y316435D01*
X550606D01*
Y316599D01*
X550770D01*
Y316763D01*
X551098D01*
Y316926D01*
X551262D01*
Y317090D01*
X551426D01*
Y317254D01*
X551754D01*
Y317418D01*
X551917D01*
Y317582D01*
X552081D01*
Y317746D01*
X552409D01*
Y317910D01*
X552573D01*
Y318074D01*
X552737D01*
Y318237D01*
X552901D01*
Y318401D01*
X553228D01*
Y318565D01*
X553392D01*
Y318729D01*
X553556D01*
Y318893D01*
X553720D01*
Y319057D01*
X553884D01*
Y319221D01*
X554048D01*
Y319384D01*
X554375D01*
Y319548D01*
X554539D01*
Y319712D01*
X554703D01*
Y319876D01*
X554867D01*
Y320040D01*
X555031D01*
Y320204D01*
X555195D01*
Y320368D01*
X555359D01*
Y320532D01*
X555523D01*
Y320695D01*
X555686D01*
Y320859D01*
X555850D01*
Y321023D01*
X556014D01*
Y321187D01*
X556178D01*
Y321515D01*
X556342D01*
Y321679D01*
X556506D01*
Y321843D01*
X556670D01*
Y322006D01*
X556833D01*
Y322170D01*
X556997D01*
Y322334D01*
X557161D01*
Y322498D01*
X557325D01*
Y322826D01*
X557489D01*
Y322990D01*
X557653D01*
Y323154D01*
X557817D01*
Y323317D01*
X557981D01*
Y323645D01*
X558144D01*
Y323809D01*
X558308D01*
Y324137D01*
X558472D01*
Y324301D01*
X558636D01*
Y324464D01*
X558800D01*
Y324792D01*
X558964D01*
Y324956D01*
X559128D01*
Y325284D01*
X559292D01*
Y325612D01*
X559455D01*
Y325775D01*
X559619D01*
Y326103D01*
X559783D01*
Y326431D01*
X559947D01*
Y326759D01*
X560111D01*
Y327086D01*
X560275D01*
Y327414D01*
X560439D01*
Y327742D01*
X560603D01*
Y328070D01*
X560766D01*
Y328561D01*
X560930D01*
Y329053D01*
X561094D01*
Y329544D01*
X561258D01*
Y330036D01*
X561422D01*
Y331019D01*
X561586D01*
Y331183D01*
X561422D01*
Y331839D01*
X561258D01*
Y332003D01*
X561094D01*
Y332166D01*
X560766D01*
Y332330D01*
X560275D01*
Y332494D01*
X559947D01*
Y332658D01*
X559292D01*
Y332822D01*
X558472D01*
Y332986D01*
X557489D01*
Y333150D01*
X556014D01*
Y333314D01*
D02*
G37*
G36*
X481289Y357566D02*
X481125D01*
Y357403D01*
X480306D01*
Y357239D01*
X480142D01*
Y357075D01*
X479978D01*
Y356747D01*
X479814D01*
Y356092D01*
X479650D01*
Y352814D01*
X479814D01*
Y351667D01*
X479978D01*
Y350684D01*
X480142D01*
Y349865D01*
X480306D01*
Y349209D01*
X480470D01*
Y348554D01*
X480634D01*
Y347898D01*
X480797D01*
Y347406D01*
X480961D01*
Y346751D01*
X481125D01*
Y346259D01*
X481289D01*
Y345768D01*
X481453D01*
Y345440D01*
X481617D01*
Y344948D01*
X481781D01*
Y344457D01*
X481945D01*
Y344129D01*
X482108D01*
Y343637D01*
X482272D01*
Y343310D01*
X482436D01*
Y343146D01*
Y342982D01*
X482600D01*
Y342654D01*
X482764D01*
Y342163D01*
X482928D01*
Y341835D01*
X483092D01*
Y341507D01*
X483256D01*
Y341179D01*
X483419D01*
Y340852D01*
X483583D01*
Y340524D01*
X483747D01*
Y340196D01*
X483911D01*
Y339868D01*
X484075D01*
Y339541D01*
X484239D01*
Y339213D01*
X484403D01*
Y338885D01*
X484566D01*
Y338721D01*
X484730D01*
Y338394D01*
X484894D01*
Y338066D01*
X485058D01*
Y337738D01*
X485222D01*
Y337574D01*
X485386D01*
Y337246D01*
X485550D01*
Y337083D01*
X485714D01*
Y336755D01*
X485877D01*
Y336427D01*
X486041D01*
Y336263D01*
X486205D01*
Y335936D01*
X486369D01*
Y335772D01*
X486533D01*
Y335444D01*
X486697D01*
Y335280D01*
X486861D01*
Y334952D01*
X487024D01*
Y334788D01*
X487188D01*
Y334461D01*
X487352D01*
Y334297D01*
X487516D01*
Y334133D01*
X487680D01*
Y333805D01*
X487844D01*
Y333641D01*
X488008D01*
Y333314D01*
X488172D01*
Y333150D01*
X488335D01*
Y332986D01*
X488499D01*
Y332822D01*
X488663D01*
Y332494D01*
X488827D01*
Y332330D01*
X488991D01*
Y332166D01*
X489155D01*
Y331839D01*
X489319D01*
Y331675D01*
X489483D01*
Y331511D01*
X489646D01*
Y331347D01*
X489810D01*
Y331019D01*
X489974D01*
Y330855D01*
X490302D01*
Y331675D01*
X490466D01*
Y332330D01*
X490630D01*
Y332822D01*
X490793D01*
Y333314D01*
X490957D01*
Y333641D01*
X491121D01*
Y334133D01*
X491285D01*
Y334461D01*
X491449D01*
Y334788D01*
X491613D01*
Y335116D01*
X491777D01*
Y335280D01*
X491941D01*
Y335608D01*
X492104D01*
Y335936D01*
X492268D01*
Y336099D01*
X492432D01*
Y336263D01*
X492596D01*
Y336591D01*
X492760D01*
Y336755D01*
X492924D01*
Y336919D01*
X493088D01*
Y337246D01*
X493252D01*
Y337410D01*
X493415D01*
Y337574D01*
X493579D01*
Y337738D01*
X493743D01*
Y338066D01*
X493907D01*
Y338230D01*
X494071D01*
Y338394D01*
X494235D01*
Y338557D01*
X494399D01*
Y338721D01*
X494563D01*
Y338885D01*
X494726D01*
Y339049D01*
X494890D01*
Y339377D01*
X494726D01*
Y339705D01*
X494563D01*
Y339868D01*
X494399D01*
Y340032D01*
X494235D01*
Y340196D01*
X494071D01*
Y340524D01*
X493907D01*
Y340688D01*
X493743D01*
Y340852D01*
X493579D01*
Y341179D01*
X493415D01*
Y341343D01*
X493252D01*
Y341507D01*
X493088D01*
Y341835D01*
X492924D01*
Y341999D01*
X492760D01*
Y342326D01*
X492596D01*
Y342490D01*
X492432D01*
Y342818D01*
X492268D01*
Y343146D01*
X492104D01*
Y343310D01*
X491941D01*
Y343637D01*
X491777D01*
Y343965D01*
X491613D01*
Y344129D01*
X491449D01*
Y344457D01*
X491285D01*
Y344785D01*
X491121D01*
Y345112D01*
X490957D01*
Y345440D01*
X490793D01*
Y345768D01*
X490630D01*
Y346096D01*
X490466D01*
Y346423D01*
X490302D01*
Y346915D01*
X490138D01*
Y347243D01*
X489974D01*
Y347570D01*
X489810D01*
Y348062D01*
X489646D01*
Y348554D01*
X489483D01*
Y349045D01*
X489319D01*
Y349537D01*
X489155D01*
Y350028D01*
X488991D01*
Y350684D01*
X488827D01*
Y351339D01*
X488663D01*
Y352159D01*
X488499D01*
Y352978D01*
X488335D01*
Y354125D01*
X488172D01*
Y354617D01*
X488008D01*
Y354781D01*
X487844D01*
Y354944D01*
X487516D01*
Y355108D01*
X487188D01*
Y355272D01*
X487024D01*
Y355436D01*
X486697D01*
Y355600D01*
X486369D01*
Y355764D01*
X486041D01*
Y355928D01*
X485714D01*
Y356092D01*
X485386D01*
Y356255D01*
X485058D01*
Y356419D01*
X484730D01*
Y356583D01*
X484239D01*
Y356747D01*
X483911D01*
Y356911D01*
X483419D01*
Y357075D01*
X482928D01*
Y357239D01*
X482272D01*
Y357403D01*
X481289D01*
Y357566D01*
D02*
G37*
G36*
X502428Y375756D02*
X500298D01*
Y375592D01*
X499806D01*
Y375428D01*
X499315D01*
Y375265D01*
X498987D01*
Y375101D01*
X498659D01*
Y374937D01*
X498332D01*
Y374773D01*
X498168D01*
Y374609D01*
X497840D01*
Y374445D01*
X497676D01*
Y374281D01*
X497348D01*
Y374117D01*
X497184D01*
Y373954D01*
X497021D01*
Y373790D01*
X496857D01*
Y373626D01*
X496693D01*
Y373462D01*
X496529D01*
Y373298D01*
X496365D01*
Y373134D01*
X496201D01*
Y372970D01*
X496037D01*
Y372806D01*
X495873D01*
Y372643D01*
X495710D01*
Y372479D01*
X495546D01*
Y372315D01*
X495382D01*
Y372151D01*
X495218D01*
Y371987D01*
X495054D01*
Y371823D01*
X494890D01*
Y371659D01*
X494726D01*
Y371332D01*
X494563D01*
Y371168D01*
X494399D01*
Y371004D01*
X494235D01*
Y370840D01*
X494071D01*
Y370676D01*
X493907D01*
Y370348D01*
X493743D01*
Y370185D01*
X493579D01*
Y370021D01*
X493415D01*
Y369693D01*
X493252D01*
Y369529D01*
X493088D01*
Y369201D01*
X492924D01*
Y369037D01*
X492760D01*
Y368710D01*
X492596D01*
Y368546D01*
X492432D01*
Y368218D01*
X492268D01*
Y367890D01*
X492104D01*
Y367563D01*
X491941D01*
Y367235D01*
X491777D01*
Y366907D01*
X491613D01*
Y366579D01*
X491449D01*
Y366252D01*
X491285D01*
Y365924D01*
X491121D01*
Y365596D01*
X490957D01*
Y365104D01*
X490793D01*
Y364777D01*
X490630D01*
Y364285D01*
X490466D01*
Y363794D01*
X490302D01*
Y363302D01*
X490138D01*
Y362810D01*
X489974D01*
Y361991D01*
X489810D01*
Y361335D01*
X489646D01*
Y360352D01*
X489483D01*
Y359041D01*
X489319D01*
Y354617D01*
X489483D01*
Y353634D01*
X489646D01*
Y352486D01*
X489810D01*
Y351667D01*
X489974D01*
Y351012D01*
X490138D01*
Y350520D01*
X490302D01*
Y349865D01*
X490466D01*
Y349373D01*
X490630D01*
Y348881D01*
X490793D01*
Y348390D01*
X490957D01*
Y348062D01*
X491121D01*
Y347570D01*
X491285D01*
Y347243D01*
X491449D01*
Y346915D01*
X491613D01*
Y346587D01*
X491777D01*
Y346259D01*
X491941D01*
Y345768D01*
X492104D01*
Y345440D01*
X492268D01*
Y345276D01*
X492432D01*
Y344948D01*
X492596D01*
Y344621D01*
X492760D01*
Y344293D01*
X492924D01*
Y343965D01*
X493088D01*
Y343801D01*
X493252D01*
Y343474D01*
X493415D01*
Y343310D01*
X493579D01*
Y342982D01*
X493743D01*
Y342818D01*
X493907D01*
Y342490D01*
X494071D01*
Y342326D01*
X494235D01*
Y341999D01*
X494399D01*
Y341835D01*
X494563D01*
Y341671D01*
X494726D01*
Y341343D01*
X494890D01*
Y341179D01*
X495054D01*
Y340852D01*
X495218D01*
Y340688D01*
X495382D01*
Y340524D01*
X495546D01*
Y340360D01*
X495710D01*
Y340196D01*
X495873D01*
Y340032D01*
X496037D01*
Y339705D01*
X496201D01*
Y339541D01*
X496365D01*
Y339377D01*
X496529D01*
Y339213D01*
X496693D01*
Y339049D01*
X496857D01*
Y338885D01*
X497021D01*
Y338721D01*
X497184D01*
Y338557D01*
X497348D01*
Y338394D01*
X497512D01*
Y338230D01*
X497676D01*
Y338066D01*
X497840D01*
Y337738D01*
X498168D01*
Y337574D01*
X498332D01*
Y337410D01*
X498495D01*
Y337246D01*
X498659D01*
Y337083D01*
X498823D01*
Y336919D01*
X498987D01*
Y336755D01*
X499151D01*
Y336591D01*
X499315D01*
Y336427D01*
X499479D01*
Y336263D01*
X499806D01*
Y336099D01*
X499970D01*
Y335936D01*
X500134D01*
Y335772D01*
X500298D01*
Y335608D01*
X500462D01*
Y335444D01*
X500790D01*
Y335280D01*
X500953D01*
Y335116D01*
X501117D01*
Y334952D01*
X501445D01*
Y334788D01*
X501609D01*
Y334624D01*
X501773D01*
Y334461D01*
X502101D01*
Y334297D01*
X502265D01*
Y334133D01*
X502592D01*
Y333969D01*
X502756D01*
Y333805D01*
X503084D01*
Y333641D01*
X503248D01*
Y333477D01*
X503412D01*
Y333314D01*
X503739D01*
Y333150D01*
X504067D01*
Y332986D01*
X504231D01*
Y332822D01*
X504559D01*
Y332658D01*
X504886D01*
Y332494D01*
X505214D01*
Y332330D01*
X505378D01*
Y332166D01*
X505706D01*
Y332003D01*
X506034D01*
Y331839D01*
X506361D01*
Y331675D01*
X506689D01*
Y331511D01*
X507017D01*
Y331347D01*
X507345D01*
Y331183D01*
X507672D01*
Y331019D01*
X508000D01*
Y330855D01*
X508328D01*
Y330692D01*
X508656D01*
Y330528D01*
X508983D01*
Y330364D01*
X509475D01*
Y330200D01*
X509803D01*
Y330036D01*
X510294D01*
Y329872D01*
X510786D01*
Y329708D01*
X511114D01*
Y329544D01*
X511605D01*
Y329381D01*
X512097D01*
Y329217D01*
X512588D01*
Y329053D01*
X513080D01*
Y328889D01*
X513736D01*
Y328725D01*
X514227D01*
Y328561D01*
X514883D01*
Y328397D01*
X515538D01*
Y328234D01*
X516357D01*
Y328070D01*
X517177D01*
Y327906D01*
X517996D01*
Y327742D01*
X519143D01*
Y327578D01*
X520454D01*
Y327414D01*
X522421D01*
Y327250D01*
X522584D01*
Y327414D01*
X522748D01*
Y327250D01*
X525698D01*
Y327414D01*
X527828D01*
Y327578D01*
X528975D01*
Y327742D01*
X530123D01*
Y327906D01*
X530942D01*
Y328070D01*
X531761D01*
Y328234D01*
X532417D01*
Y328397D01*
X533072D01*
Y328561D01*
X533564D01*
Y328725D01*
X534219D01*
Y328889D01*
X534711D01*
Y329053D01*
X535203D01*
Y329217D01*
X535694D01*
Y329381D01*
X536022D01*
Y329544D01*
X536513D01*
Y329708D01*
X537005D01*
Y329872D01*
X537333D01*
Y330036D01*
X537661D01*
Y330200D01*
X537988D01*
Y330364D01*
X538316D01*
Y330528D01*
X538644D01*
Y330692D01*
X538972D01*
Y330855D01*
X539299D01*
Y331019D01*
X539627D01*
Y331183D01*
X539955D01*
Y331347D01*
X540119D01*
Y331511D01*
X540446D01*
Y331675D01*
X540774D01*
Y331839D01*
X540938D01*
Y332003D01*
X541266D01*
Y332166D01*
X541430D01*
Y332330D01*
X541757D01*
Y332494D01*
X542085D01*
Y332658D01*
X542249D01*
Y332822D01*
X542577D01*
Y332986D01*
X542741D01*
Y333150D01*
X542905D01*
Y333314D01*
X543068D01*
Y333477D01*
X543396D01*
Y333641D01*
X543560D01*
Y333805D01*
X543724D01*
Y333969D01*
X543888D01*
Y334133D01*
X544216D01*
Y334297D01*
X544379D01*
Y334461D01*
X544543D01*
Y334624D01*
X544707D01*
Y334788D01*
X544871D01*
Y334952D01*
X545035D01*
Y335116D01*
X545199D01*
Y335280D01*
X545526D01*
Y335444D01*
X545690D01*
Y335608D01*
X545854D01*
Y335772D01*
X546018D01*
Y336099D01*
X546182D01*
Y336263D01*
X546346D01*
Y336427D01*
X546510D01*
Y336591D01*
X546674D01*
Y336755D01*
X546837D01*
Y336919D01*
X547001D01*
Y337083D01*
X547165D01*
Y337410D01*
X547329D01*
Y337574D01*
X547493D01*
Y337738D01*
X547657D01*
Y337902D01*
X547821D01*
Y338230D01*
X547985D01*
Y338394D01*
X548148D01*
Y338557D01*
X548312D01*
Y338885D01*
X548476D01*
Y339049D01*
X548640D01*
Y339377D01*
X548804D01*
Y339541D01*
X548968D01*
Y339868D01*
X549132D01*
Y340196D01*
X549296D01*
Y340360D01*
X549459D01*
Y340688D01*
X549623D01*
Y341016D01*
X549787D01*
Y341343D01*
X549951D01*
Y341671D01*
X550115D01*
Y341999D01*
X550279D01*
Y342326D01*
X550443D01*
Y342654D01*
X550606D01*
Y343146D01*
X550770D01*
Y343474D01*
X550934D01*
Y343965D01*
X551098D01*
Y344457D01*
X551262D01*
Y344948D01*
X551426D01*
Y345440D01*
X551590D01*
Y346096D01*
X551754D01*
Y346751D01*
X551917D01*
Y347734D01*
X552081D01*
Y348717D01*
X552245D01*
Y350192D01*
X552409D01*
Y352814D01*
X552245D01*
Y354781D01*
X552081D01*
Y355600D01*
X551917D01*
Y356583D01*
X551754D01*
Y357239D01*
X551590D01*
Y357894D01*
X551426D01*
Y358386D01*
X551262D01*
Y358877D01*
X551098D01*
Y359533D01*
X550934D01*
Y359861D01*
X550770D01*
Y360352D01*
X550606D01*
Y360844D01*
X550443D01*
Y361172D01*
X550279D01*
Y361499D01*
X550115D01*
Y361827D01*
X549951D01*
Y362155D01*
X549787D01*
Y362646D01*
X549623D01*
Y362810D01*
X549459D01*
Y362974D01*
X549296D01*
Y363138D01*
X549132D01*
Y363302D01*
X548968D01*
Y363466D01*
X548804D01*
Y363630D01*
X548640D01*
Y363794D01*
X548312D01*
Y363957D01*
X548148D01*
Y364121D01*
X547985D01*
Y364285D01*
X547657D01*
Y364449D01*
X547493D01*
Y364613D01*
X547329D01*
Y364777D01*
X547001D01*
Y364941D01*
X546674D01*
Y365104D01*
X546510D01*
Y365268D01*
X546182D01*
Y365432D01*
X545854D01*
Y365596D01*
X545526D01*
Y365760D01*
X545199D01*
Y365924D01*
X544871D01*
Y366088D01*
X544379D01*
Y366252D01*
X543888D01*
Y366415D01*
X543232D01*
Y366579D01*
X542577D01*
Y366743D01*
X541430D01*
Y366907D01*
X538808D01*
Y366743D01*
X537825D01*
Y366579D01*
X537169D01*
Y366415D01*
X536513D01*
Y366252D01*
X536022D01*
Y366088D01*
X535694D01*
Y365924D01*
X535203D01*
Y365760D01*
X534875D01*
Y365596D01*
X534547D01*
Y365432D01*
X534219D01*
Y365268D01*
X533892D01*
Y365104D01*
X533564D01*
Y364941D01*
X533400D01*
Y364777D01*
X533072D01*
Y364613D01*
X532744D01*
Y364449D01*
X532581D01*
Y364285D01*
X532417D01*
Y364121D01*
X532089D01*
Y363957D01*
X531925D01*
Y363794D01*
X531761D01*
Y363630D01*
X531433D01*
Y363466D01*
X531270D01*
Y363302D01*
X531106D01*
Y363138D01*
X530942D01*
Y362974D01*
X530778D01*
Y362810D01*
X530450D01*
Y362646D01*
X530286D01*
Y362483D01*
X530123D01*
Y362319D01*
X529959D01*
Y362155D01*
X529795D01*
Y361991D01*
X529631D01*
Y361827D01*
X529467D01*
Y361663D01*
X529303D01*
Y361499D01*
X529139D01*
Y361172D01*
X528975D01*
Y361008D01*
X528812D01*
Y360844D01*
X528648D01*
Y360680D01*
X528484D01*
Y360516D01*
X528320D01*
Y360352D01*
X528156D01*
Y360188D01*
X527992D01*
Y359861D01*
X527828D01*
Y359697D01*
X527664D01*
Y359533D01*
X527501D01*
Y359369D01*
X527337D01*
Y359041D01*
X527173D01*
Y358877D01*
X527009D01*
Y358714D01*
X526845D01*
Y358386D01*
X526681D01*
Y358222D01*
X526517D01*
Y357894D01*
X526353D01*
Y357730D01*
X526190D01*
Y357403D01*
X526026D01*
Y357239D01*
X525862D01*
Y356911D01*
X525698D01*
Y356747D01*
X525534D01*
Y356419D01*
X525370D01*
Y356092D01*
X525206D01*
Y355928D01*
X525043D01*
Y355600D01*
X524879D01*
Y355272D01*
X524715D01*
Y355108D01*
X524551D01*
Y354781D01*
X524387D01*
Y354453D01*
X524223D01*
Y354125D01*
X524059D01*
Y353797D01*
X523895D01*
Y353470D01*
X523732D01*
Y353142D01*
X523568D01*
Y352814D01*
X523404D01*
Y352486D01*
X523240D01*
Y352159D01*
X523076D01*
Y351831D01*
X522912D01*
Y351503D01*
X522748D01*
Y351175D01*
X522584D01*
Y350684D01*
X522421D01*
Y350356D01*
X522257D01*
Y350028D01*
X522093D01*
Y349373D01*
X521929D01*
Y348881D01*
X521765D01*
Y348390D01*
X521601D01*
Y348062D01*
X521437D01*
Y347734D01*
X521273D01*
Y347243D01*
X521110D01*
Y347079D01*
X520946D01*
Y346751D01*
X520782D01*
Y346423D01*
X520618D01*
Y346096D01*
X520454D01*
Y345932D01*
X520290D01*
Y345604D01*
X520126D01*
Y345440D01*
X519963D01*
Y345112D01*
X519799D01*
Y344948D01*
X519635D01*
Y344621D01*
X519471D01*
Y344457D01*
X519307D01*
Y344293D01*
X519143D01*
Y344129D01*
X518979D01*
Y343801D01*
X518815D01*
Y343637D01*
X518652D01*
Y343474D01*
X518488D01*
Y343310D01*
X518324D01*
Y343146D01*
X518160D01*
Y342982D01*
X517996D01*
Y342818D01*
X517832D01*
Y342654D01*
X517668D01*
Y342490D01*
X517341D01*
Y342326D01*
X517177D01*
Y342163D01*
X517013D01*
Y341999D01*
X516685D01*
Y341835D01*
X516521D01*
Y341671D01*
X516194D01*
Y341507D01*
X516030D01*
Y341343D01*
X515702D01*
Y341179D01*
X515210D01*
Y341016D01*
X514719D01*
Y340852D01*
X514063D01*
Y340688D01*
X512916D01*
Y340852D01*
X512097D01*
Y341016D01*
X511769D01*
Y341179D01*
X511441D01*
Y341343D01*
X511114D01*
Y341507D01*
X510786D01*
Y341671D01*
X510458D01*
Y341835D01*
X510294D01*
Y341999D01*
X510130D01*
Y342163D01*
X509966D01*
Y342326D01*
X509803D01*
Y342490D01*
X509639D01*
Y342654D01*
X509475D01*
Y342818D01*
X509311D01*
Y342982D01*
X509147D01*
Y343146D01*
X508983D01*
Y343310D01*
X508819D01*
Y343474D01*
X508656D01*
Y343637D01*
X508492D01*
Y343965D01*
X508328D01*
Y344129D01*
X508164D01*
Y344457D01*
X508000D01*
Y344621D01*
X507836D01*
Y344948D01*
X507672D01*
Y345276D01*
X507508D01*
Y345604D01*
X507345D01*
Y345932D01*
X507181D01*
Y346259D01*
X507017D01*
Y346587D01*
X506853D01*
Y347079D01*
X506689D01*
Y347406D01*
X506525D01*
Y347898D01*
X506361D01*
Y348390D01*
X506197D01*
Y349045D01*
X506034D01*
Y349701D01*
X505870D01*
Y350684D01*
X505706D01*
Y355436D01*
X505870D01*
Y355764D01*
X506034D01*
Y356092D01*
X506197D01*
Y356419D01*
X506361D01*
Y356583D01*
X506525D01*
Y356911D01*
X506689D01*
Y357239D01*
X506853D01*
Y357403D01*
X507017D01*
Y357730D01*
X507181D01*
Y357894D01*
X507345D01*
Y358222D01*
X507508D01*
Y358386D01*
X507672D01*
Y360188D01*
X507836D01*
Y363957D01*
Y364121D01*
Y364777D01*
X507672D01*
Y366415D01*
X507508D01*
Y367563D01*
X507345D01*
Y368382D01*
X507181D01*
Y369037D01*
X507017D01*
Y369693D01*
X506853D01*
Y370185D01*
X506689D01*
Y370676D01*
X506525D01*
Y371168D01*
X506361D01*
Y371496D01*
X506197D01*
Y371823D01*
X506034D01*
Y372315D01*
X505870D01*
Y372643D01*
X505706D01*
Y372970D01*
X505542D01*
Y373134D01*
X505378D01*
Y373462D01*
X505214D01*
Y373626D01*
X505050D01*
Y373790D01*
X504886D01*
Y374117D01*
X504723D01*
Y374281D01*
X504559D01*
Y374445D01*
X504395D01*
Y374609D01*
X504231D01*
Y374773D01*
X504067D01*
Y374937D01*
X503739D01*
Y375101D01*
X503576D01*
Y375265D01*
X503248D01*
Y375428D01*
X502920D01*
Y375592D01*
X502428D01*
Y375756D01*
D02*
G37*
G36*
X495873Y338230D02*
X495710D01*
Y338066D01*
X495546D01*
Y337902D01*
X495382D01*
Y337738D01*
X495218D01*
Y337574D01*
X495054D01*
Y337410D01*
X494890D01*
Y337246D01*
X494726D01*
Y337083D01*
X494563D01*
Y336919D01*
X494399D01*
Y336591D01*
X494235D01*
Y336427D01*
X494071D01*
Y336263D01*
X493907D01*
Y336099D01*
X493743D01*
Y335772D01*
X493579D01*
Y335608D01*
X493415D01*
Y335444D01*
X493252D01*
Y335116D01*
X493088D01*
Y334952D01*
X492924D01*
Y334624D01*
X492760D01*
Y334297D01*
X492596D01*
Y333969D01*
X492432D01*
Y333641D01*
X492268D01*
Y333314D01*
X492104D01*
Y332822D01*
X491941D01*
Y332494D01*
X491777D01*
Y331839D01*
X491613D01*
Y331019D01*
X491449D01*
Y328889D01*
X491613D01*
Y328070D01*
X491777D01*
Y327578D01*
X491941D01*
Y327250D01*
X492104D01*
Y326923D01*
X492268D01*
Y326595D01*
X492432D01*
Y326267D01*
X492596D01*
Y326103D01*
X492760D01*
Y325775D01*
X492924D01*
Y325612D01*
X493088D01*
Y325448D01*
X493252D01*
Y325284D01*
X493415D01*
Y325120D01*
X493579D01*
Y324956D01*
X493743D01*
Y324792D01*
X493907D01*
Y324628D01*
X494235D01*
Y324464D01*
X494399D01*
Y324301D01*
X494726D01*
Y324137D01*
X495054D01*
Y323973D01*
X495218D01*
Y323809D01*
X495710D01*
Y323645D01*
X496037D01*
Y323481D01*
X496529D01*
Y323317D01*
X497184D01*
Y323154D01*
X498168D01*
Y322990D01*
X500462D01*
Y323154D01*
X501609D01*
Y323317D01*
X502265D01*
Y323481D01*
X502920D01*
Y323645D01*
X503576D01*
Y323809D01*
X504067D01*
Y323973D01*
X504395D01*
Y324137D01*
X504886D01*
Y324301D01*
X505214D01*
Y324464D01*
X505542D01*
Y324628D01*
X505870D01*
Y324792D01*
X506197D01*
Y324956D01*
X506525D01*
Y325120D01*
X506853D01*
Y325284D01*
X507181D01*
Y325448D01*
X507345D01*
Y325612D01*
X507672D01*
Y325775D01*
X508000D01*
Y325939D01*
X508164D01*
Y326103D01*
X508492D01*
Y326267D01*
X508656D01*
Y326431D01*
X508983D01*
Y326595D01*
X509147D01*
Y326759D01*
X509311D01*
Y326923D01*
X509639D01*
Y327086D01*
X509803D01*
Y327250D01*
X510622D01*
Y327086D01*
X510786D01*
Y326759D01*
X510950D01*
Y326267D01*
X511114D01*
Y325775D01*
X511277D01*
Y325448D01*
X511441D01*
Y325120D01*
X511605D01*
Y324792D01*
X511769D01*
Y324301D01*
X511933D01*
Y324137D01*
X512097D01*
Y323809D01*
X512261D01*
Y323481D01*
X512425D01*
Y323317D01*
X512588D01*
Y322990D01*
X512752D01*
Y322826D01*
X512916D01*
Y322498D01*
X513080D01*
Y322334D01*
X513244D01*
Y322170D01*
X513408D01*
Y321843D01*
X513736D01*
Y321515D01*
X513899D01*
Y321351D01*
X514063D01*
Y321187D01*
X514227D01*
Y321023D01*
X514391D01*
Y320859D01*
X514555D01*
Y320695D01*
X514719D01*
Y320532D01*
X515046D01*
Y320368D01*
X515210D01*
Y320204D01*
X515374D01*
Y320040D01*
X515702D01*
Y319876D01*
X515866D01*
Y319712D01*
X516030D01*
Y319548D01*
X516357D01*
Y319384D01*
X516521D01*
Y319221D01*
X516849D01*
Y319057D01*
X517177D01*
Y318893D01*
X517505D01*
Y318729D01*
X517832D01*
Y318565D01*
X518160D01*
Y318401D01*
X518488D01*
Y318237D01*
X518979D01*
Y318074D01*
X519307D01*
Y317910D01*
X519963D01*
Y317746D01*
X520454D01*
Y317582D01*
X521273D01*
Y317418D01*
X522093D01*
Y317254D01*
X524059D01*
Y317090D01*
X524551D01*
Y317254D01*
X526190D01*
Y317418D01*
X527009D01*
Y317582D01*
X527828D01*
Y317746D01*
X528320D01*
Y317910D01*
X528812D01*
Y318074D01*
X529139D01*
Y318237D01*
X529467D01*
Y318401D01*
X529795D01*
Y318565D01*
X530123D01*
Y318729D01*
X530450D01*
Y318893D01*
X530614D01*
Y319057D01*
X530942D01*
Y319221D01*
X531270D01*
Y319384D01*
X531433D01*
Y319548D01*
X531597D01*
Y319712D01*
X531761D01*
Y319876D01*
X532089D01*
Y320040D01*
X532253D01*
Y320204D01*
X532417D01*
Y320368D01*
X532581D01*
Y320532D01*
X532744D01*
Y320695D01*
X532908D01*
Y321023D01*
X533072D01*
Y321187D01*
X533236D01*
Y321351D01*
X533400D01*
Y321679D01*
X533564D01*
Y321843D01*
X533728D01*
Y322170D01*
X533892D01*
Y322334D01*
X534055D01*
Y322662D01*
X534219D01*
Y322990D01*
X534383D01*
Y323481D01*
X534547D01*
Y323809D01*
X534711D01*
Y324301D01*
X534875D01*
Y324956D01*
X535039D01*
Y325775D01*
X535203D01*
Y327578D01*
X535366D01*
Y327742D01*
X534547D01*
Y327578D01*
X534055D01*
Y327414D01*
X533400D01*
Y327250D01*
X532908D01*
Y327086D01*
X532253D01*
Y326923D01*
X531433D01*
Y326759D01*
X530614D01*
Y326595D01*
X529631D01*
Y326431D01*
X528648D01*
Y326267D01*
X527173D01*
Y326103D01*
X521437D01*
Y326267D01*
X519635D01*
Y326431D01*
X518324D01*
Y326595D01*
X517341D01*
Y326759D01*
X516521D01*
Y326923D01*
X515702D01*
Y327086D01*
X515046D01*
Y327250D01*
X514391D01*
Y327414D01*
X513736D01*
Y327578D01*
X513244D01*
Y327742D01*
X512588D01*
Y327906D01*
X512097D01*
Y328070D01*
X511605D01*
Y328234D01*
X511277D01*
Y328397D01*
X510786D01*
Y328561D01*
X510294D01*
Y328725D01*
X509803D01*
Y328889D01*
X509475D01*
Y329053D01*
X509147D01*
Y329217D01*
X508656D01*
Y329381D01*
X508328D01*
Y329544D01*
X508000D01*
Y329708D01*
X507508D01*
Y329872D01*
X507181D01*
Y330036D01*
X506853D01*
Y330200D01*
X506525D01*
Y330364D01*
X506197D01*
Y330528D01*
X505870D01*
Y330692D01*
X505542D01*
Y330855D01*
X505214D01*
Y331019D01*
X505050D01*
Y331183D01*
X504723D01*
Y331347D01*
X504395D01*
Y331511D01*
X504067D01*
Y331675D01*
X503903D01*
Y331839D01*
X503576D01*
Y332003D01*
X503412D01*
Y332166D01*
X503084D01*
Y332330D01*
X502756D01*
Y332494D01*
X502592D01*
Y332658D01*
X502265D01*
Y332822D01*
X502101D01*
Y332986D01*
X501773D01*
Y333150D01*
X501609D01*
Y333314D01*
X501445D01*
Y333477D01*
X501117D01*
Y333641D01*
X500953D01*
Y333805D01*
X500626D01*
Y333969D01*
X500462D01*
Y334133D01*
X500298D01*
Y334297D01*
X499970D01*
Y334461D01*
X499806D01*
Y334624D01*
X499643D01*
Y334788D01*
X499479D01*
Y334952D01*
X499151D01*
Y335116D01*
X498987D01*
Y335280D01*
X498823D01*
Y335444D01*
X498659D01*
Y335608D01*
X498495D01*
Y335772D01*
X498332D01*
Y335936D01*
X498004D01*
Y336099D01*
X497840D01*
Y336263D01*
X497676D01*
Y336427D01*
X497512D01*
Y336591D01*
X497348D01*
Y336755D01*
X497184D01*
Y336919D01*
X497021D01*
Y337083D01*
X496857D01*
Y337246D01*
X496693D01*
Y337410D01*
X496529D01*
Y337574D01*
X496365D01*
Y337738D01*
X496201D01*
Y337902D01*
X496037D01*
Y338066D01*
X495873D01*
Y338230D01*
D02*
G37*
G36*
X496201Y319384D02*
X494563D01*
Y319221D01*
X494071D01*
Y319057D01*
X493579D01*
Y318893D01*
X493252D01*
Y318729D01*
X493088D01*
Y318565D01*
X492760D01*
Y318401D01*
X492596D01*
Y318237D01*
X492432D01*
Y318074D01*
X492268D01*
Y317910D01*
X492104D01*
Y317746D01*
X491941D01*
Y317582D01*
X491777D01*
Y317254D01*
X491613D01*
Y317090D01*
X491449D01*
Y316763D01*
X491285D01*
Y316435D01*
X491121D01*
Y315943D01*
X490957D01*
Y315452D01*
X490793D01*
Y314468D01*
X490630D01*
Y313649D01*
X490793D01*
Y312666D01*
X490957D01*
Y312174D01*
X491121D01*
Y311683D01*
X491285D01*
Y311355D01*
X491449D01*
Y311191D01*
X491613D01*
Y310863D01*
X491777D01*
Y310699D01*
X491941D01*
Y310536D01*
X492104D01*
Y310372D01*
X492268D01*
Y310208D01*
X492432D01*
Y310044D01*
X492760D01*
Y309880D01*
X493088D01*
Y309716D01*
X493415D01*
Y309552D01*
X494071D01*
Y309388D01*
X495546D01*
Y309552D01*
X496037D01*
Y309716D01*
X496529D01*
Y309880D01*
X496857D01*
Y310044D01*
X497021D01*
Y310208D01*
X497184D01*
Y310372D01*
X497512D01*
Y310536D01*
X497676D01*
Y310699D01*
X497840D01*
Y310863D01*
X498004D01*
Y311027D01*
X498168D01*
Y311191D01*
X498332D01*
Y311519D01*
X498495D01*
Y311846D01*
X498659D01*
Y312010D01*
X498823D01*
Y312338D01*
X498987D01*
Y312830D01*
X499151D01*
Y313321D01*
X499315D01*
Y313485D01*
Y313649D01*
Y313977D01*
X499479D01*
Y315288D01*
X499315D01*
Y316271D01*
X499151D01*
Y316599D01*
X498987D01*
Y317090D01*
X498823D01*
Y317418D01*
X498659D01*
Y317582D01*
X498495D01*
Y317910D01*
X498332D01*
Y318074D01*
X498168D01*
Y318237D01*
X498004D01*
Y318401D01*
X497840D01*
Y318565D01*
X497676D01*
Y318729D01*
X497348D01*
Y318893D01*
X497184D01*
Y319057D01*
X496693D01*
Y319221D01*
X496201D01*
Y319384D01*
D02*
G37*
G36*
X482108Y315779D02*
X480470D01*
Y315616D01*
X480306D01*
Y312994D01*
X480470D01*
Y311683D01*
X480634D01*
Y310699D01*
X480797D01*
Y310044D01*
X480961D01*
Y309388D01*
X481125D01*
Y308733D01*
X481289D01*
Y308241D01*
X481453D01*
Y307914D01*
X481617D01*
Y307422D01*
X481781D01*
Y307258D01*
X481453D01*
Y307422D01*
X481289D01*
Y307586D01*
X481125D01*
Y307750D01*
X480961D01*
Y308077D01*
X480797D01*
Y308241D01*
X480634D01*
Y308569D01*
X480470D01*
Y308897D01*
X480306D01*
Y309224D01*
X480142D01*
Y309552D01*
X479978D01*
Y310044D01*
X479814D01*
Y310372D01*
X479650D01*
Y311027D01*
X479486D01*
Y311519D01*
X479323D01*
Y312174D01*
X479159D01*
Y313485D01*
X478995D01*
Y313977D01*
X479159D01*
Y314141D01*
X478995D01*
Y314305D01*
X479159D01*
Y314468D01*
X478995D01*
Y314796D01*
X478831D01*
Y314632D01*
X478667D01*
Y314305D01*
X478503D01*
Y313977D01*
X478339D01*
Y313649D01*
X478176D01*
Y313157D01*
X478012D01*
Y312502D01*
X477848D01*
Y311191D01*
X477684D01*
Y310208D01*
X477848D01*
Y310044D01*
X477684D01*
Y309716D01*
X477848D01*
Y308241D01*
X478012D01*
Y307258D01*
X478176D01*
Y306439D01*
X478339D01*
Y305783D01*
X478503D01*
Y305128D01*
X478667D01*
Y304472D01*
X478831D01*
Y303981D01*
X478995D01*
Y303489D01*
X479159D01*
Y302997D01*
X479323D01*
Y302506D01*
X479486D01*
Y302178D01*
X479650D01*
Y301686D01*
X479814D01*
Y301195D01*
X479978D01*
Y300867D01*
X480142D01*
Y300375D01*
X480306D01*
Y300048D01*
X480470D01*
Y299720D01*
X480634D01*
Y299392D01*
X480797D01*
Y299065D01*
X480961D01*
Y298737D01*
X481125D01*
Y298409D01*
X481289D01*
Y298081D01*
X481453D01*
Y297754D01*
X481617D01*
Y297426D01*
X481781D01*
Y297098D01*
X481945D01*
Y296934D01*
X482108D01*
Y296606D01*
X482272D01*
Y296279D01*
X482436D01*
Y295951D01*
X482600D01*
Y295787D01*
X482764D01*
Y295459D01*
X482928D01*
Y295296D01*
X483092D01*
Y294968D01*
X483256D01*
Y294804D01*
X483419D01*
Y294476D01*
X483583D01*
Y294312D01*
X483747D01*
Y294148D01*
X483911D01*
Y293821D01*
X484075D01*
Y293657D01*
X484239D01*
Y293493D01*
X484403D01*
Y293329D01*
X484566D01*
Y293165D01*
X484730D01*
Y292837D01*
X484894D01*
Y292674D01*
X485058D01*
Y292510D01*
X485222D01*
Y292346D01*
X485386D01*
Y292182D01*
X485550D01*
Y292018D01*
X485714D01*
Y291854D01*
X485877D01*
Y291690D01*
X486205D01*
Y291526D01*
X486369D01*
Y291363D01*
X486533D01*
Y291199D01*
X486861D01*
Y291035D01*
X487024D01*
Y290871D01*
X487352D01*
Y290707D01*
X487680D01*
Y290543D01*
X488008D01*
Y290379D01*
X488335D01*
Y290215D01*
X488991D01*
Y290052D01*
X490138D01*
Y290215D01*
X490793D01*
Y290379D01*
X491121D01*
Y290543D01*
X491285D01*
Y290707D01*
X491449D01*
Y290871D01*
X491777D01*
Y291035D01*
X491941D01*
Y291363D01*
X492104D01*
Y291526D01*
X492268D01*
Y291690D01*
X492432D01*
Y292018D01*
X492596D01*
Y292346D01*
X492760D01*
Y292674D01*
X492924D01*
Y293165D01*
X493088D01*
Y293657D01*
X493252D01*
Y294312D01*
X493415D01*
Y295296D01*
X493579D01*
Y299556D01*
X493415D01*
Y300539D01*
X493252D01*
Y301359D01*
X493088D01*
Y302178D01*
X492924D01*
Y302834D01*
X492760D01*
Y303489D01*
X492596D01*
Y303817D01*
X492432D01*
Y304308D01*
X492268D01*
Y304800D01*
X492104D01*
Y305292D01*
X491941D01*
Y305619D01*
X491777D01*
Y306111D01*
X491613D01*
Y306439D01*
X491449D01*
Y306766D01*
X491285D01*
Y307094D01*
X491121D01*
Y307422D01*
X490957D01*
Y307750D01*
X490793D01*
Y307914D01*
X490630D01*
Y308241D01*
X490466D01*
Y308569D01*
X490302D01*
Y308733D01*
X490138D01*
Y309061D01*
X489974D01*
Y309388D01*
X489810D01*
Y309552D01*
X489646D01*
Y309880D01*
X489483D01*
Y310044D01*
X489319D01*
Y310208D01*
X489155D01*
Y310536D01*
X488991D01*
Y310699D01*
X488827D01*
Y310863D01*
X488663D01*
Y311027D01*
X488499D01*
Y311355D01*
X488335D01*
Y311519D01*
X488172D01*
Y311683D01*
X488008D01*
Y311846D01*
X487844D01*
Y312010D01*
X487680D01*
Y312174D01*
X487516D01*
Y312338D01*
X487352D01*
Y312502D01*
X487188D01*
Y312666D01*
X487024D01*
Y312830D01*
X486861D01*
Y312994D01*
X486697D01*
Y313157D01*
X486533D01*
Y313321D01*
X486369D01*
Y313485D01*
X486041D01*
Y313649D01*
X485877D01*
Y313813D01*
X485714D01*
Y313977D01*
X485386D01*
Y314141D01*
X485222D01*
Y314305D01*
X485058D01*
Y314468D01*
X484730D01*
Y314632D01*
X484566D01*
Y314796D01*
X484239D01*
Y314960D01*
X483747D01*
Y314141D01*
X483911D01*
Y312994D01*
X484075D01*
Y312174D01*
X484239D01*
Y311519D01*
X484403D01*
Y310699D01*
X484566D01*
Y310044D01*
X484730D01*
Y309388D01*
X484894D01*
Y308733D01*
X485058D01*
Y308241D01*
X485222D01*
Y307750D01*
X485386D01*
Y307258D01*
X485550D01*
Y307094D01*
X485222D01*
Y307258D01*
X485058D01*
Y307586D01*
X484894D01*
Y307750D01*
X484730D01*
Y307914D01*
X484566D01*
Y308241D01*
X484403D01*
Y308569D01*
X484239D01*
Y308733D01*
X484075D01*
Y309061D01*
X483911D01*
Y309388D01*
X483747D01*
Y309716D01*
X483583D01*
Y310044D01*
X483419D01*
Y310699D01*
X483256D01*
Y311191D01*
X483092D01*
Y311846D01*
X482928D01*
Y312338D01*
X482764D01*
Y313321D01*
X482600D01*
Y314796D01*
X482436D01*
Y315616D01*
X482108D01*
Y315779D01*
D02*
G37*
G36*
X551917Y315943D02*
X551754D01*
Y315779D01*
X551426D01*
Y315616D01*
X551262D01*
Y315452D01*
X551098D01*
Y315288D01*
X550770D01*
Y315124D01*
X550606D01*
Y314960D01*
X550279D01*
Y314796D01*
X550115D01*
Y314632D01*
X549787D01*
Y314468D01*
X549623D01*
Y314305D01*
X549296D01*
Y314141D01*
X548968D01*
Y313977D01*
X548804D01*
Y313813D01*
X548476D01*
Y312994D01*
X548640D01*
Y312338D01*
X548804D01*
Y311846D01*
X548968D01*
Y311027D01*
X549132D01*
Y310044D01*
X549296D01*
Y308569D01*
X549459D01*
Y307914D01*
X549296D01*
Y307422D01*
X549459D01*
Y307258D01*
X549296D01*
Y306930D01*
X549132D01*
Y307094D01*
X548968D01*
Y307586D01*
X548804D01*
Y308077D01*
X548640D01*
Y308733D01*
X548476D01*
Y309224D01*
X548312D01*
Y309880D01*
X548148D01*
Y310372D01*
X547985D01*
Y311027D01*
X547821D01*
Y311519D01*
X547657D01*
Y312010D01*
X547493D01*
Y312502D01*
X547329D01*
Y312994D01*
X547001D01*
Y312830D01*
X546674D01*
Y312666D01*
X546346D01*
Y312502D01*
X546018D01*
Y312338D01*
X545690D01*
Y312174D01*
X545363D01*
Y312010D01*
X545035D01*
Y311846D01*
X544707D01*
Y311683D01*
X544216D01*
Y311519D01*
X543888D01*
Y311355D01*
X543560D01*
Y311191D01*
X543232D01*
Y311027D01*
X542741D01*
Y310863D01*
X542413D01*
Y310699D01*
X541921D01*
Y310536D01*
X541594D01*
Y310372D01*
X541102D01*
Y310208D01*
X540774D01*
Y310044D01*
X540283D01*
Y309880D01*
X539791D01*
Y309716D01*
X539299D01*
Y309552D01*
X538972D01*
Y309388D01*
X538316D01*
Y309224D01*
X537988D01*
Y309061D01*
X537497D01*
Y308897D01*
X537333D01*
Y308405D01*
X537497D01*
Y302834D01*
X537333D01*
Y301359D01*
X537169D01*
Y300212D01*
X537005D01*
Y299228D01*
X536841D01*
Y298573D01*
X536677D01*
Y297917D01*
X536513D01*
Y297262D01*
X536350D01*
Y296770D01*
X536186D01*
Y296279D01*
X536022D01*
Y295787D01*
X535858D01*
Y295296D01*
X535694D01*
Y294968D01*
X535530D01*
Y294476D01*
X535366D01*
Y294148D01*
X535203D01*
Y293985D01*
X535366D01*
Y293821D01*
X535694D01*
Y293657D01*
X535858D01*
Y293493D01*
X536186D01*
Y293329D01*
X536513D01*
Y293165D01*
X536677D01*
Y293001D01*
X537005D01*
Y292837D01*
X537333D01*
Y292674D01*
X537825D01*
Y292510D01*
X538316D01*
Y292346D01*
X538808D01*
Y292182D01*
X539627D01*
Y292018D01*
X541430D01*
Y292182D01*
X542249D01*
Y292346D01*
X542905D01*
Y292510D01*
X543232D01*
Y292674D01*
X543560D01*
Y292837D01*
X543888D01*
Y293001D01*
X544216D01*
Y293165D01*
X544543D01*
Y293329D01*
X544871D01*
Y293493D01*
X545035D01*
Y293657D01*
X545199D01*
Y293821D01*
X545363D01*
Y293985D01*
X545526D01*
Y294148D01*
X545854D01*
Y294312D01*
X546018D01*
Y294476D01*
X546182D01*
Y294640D01*
X546346D01*
Y294804D01*
X546510D01*
Y295132D01*
X546674D01*
Y295296D01*
X546837D01*
Y295459D01*
X547001D01*
Y295623D01*
X547165D01*
Y295951D01*
X547329D01*
Y296115D01*
X547493D01*
Y296443D01*
X547657D01*
Y296770D01*
X547821D01*
Y296934D01*
X547985D01*
Y297262D01*
X548148D01*
Y297590D01*
X548312D01*
Y297917D01*
X548476D01*
Y298409D01*
X548640D01*
Y298901D01*
X548804D01*
Y299556D01*
X548968D01*
Y300212D01*
X549132D01*
Y300867D01*
X549296D01*
Y302178D01*
X549459D01*
Y304964D01*
X549787D01*
Y304472D01*
X549951D01*
Y303489D01*
X550115D01*
Y302014D01*
X550279D01*
Y301686D01*
X550115D01*
Y301359D01*
X550279D01*
Y301195D01*
X550115D01*
Y300375D01*
X550279D01*
Y300539D01*
X550443D01*
Y300703D01*
X550606D01*
Y300867D01*
X550770D01*
Y301031D01*
X550934D01*
Y301195D01*
X551098D01*
Y301359D01*
X551262D01*
Y301523D01*
X551426D01*
Y301686D01*
X551590D01*
Y301850D01*
X551754D01*
Y302014D01*
X551917D01*
Y302178D01*
X552081D01*
Y302342D01*
X552245D01*
Y302506D01*
X552409D01*
Y302670D01*
X552573D01*
Y302834D01*
X552737D01*
Y302997D01*
Y303161D01*
X552901D01*
Y303325D01*
X553064D01*
Y303489D01*
X553228D01*
Y303817D01*
X553392D01*
Y303981D01*
X553556D01*
Y304144D01*
X553720D01*
Y304308D01*
X553884D01*
Y304636D01*
X554048D01*
Y304800D01*
X554212D01*
Y305128D01*
X554375D01*
Y305292D01*
X554539D01*
Y305619D01*
X554703D01*
Y305947D01*
X554867D01*
Y306111D01*
X555031D01*
Y306439D01*
X555195D01*
Y306603D01*
X555359D01*
Y306930D01*
X555523D01*
Y307258D01*
X555686D01*
Y307422D01*
X555850D01*
Y307750D01*
X556014D01*
Y308077D01*
X556178D01*
Y308405D01*
X556342D01*
Y308733D01*
X556506D01*
Y309224D01*
X556670D01*
Y309552D01*
X556833D01*
Y310044D01*
X556997D01*
Y310536D01*
X557161D01*
Y311027D01*
X557325D01*
Y312174D01*
X557161D01*
Y312338D01*
X556670D01*
Y312502D01*
X555686D01*
Y312666D01*
X551262D01*
Y312502D01*
X550115D01*
Y312666D01*
X550279D01*
Y312830D01*
X550443D01*
Y312994D01*
X550606D01*
Y313157D01*
X550770D01*
Y313321D01*
X551098D01*
Y313485D01*
X551262D01*
Y313649D01*
X551754D01*
Y313977D01*
X551917D01*
Y315943D01*
D02*
G37*
G36*
X529631Y286610D02*
X529467D01*
Y286446D01*
X529303D01*
Y285955D01*
X529139D01*
Y285627D01*
X528975D01*
Y285299D01*
X528812D01*
Y284972D01*
X528648D01*
Y284808D01*
X528484D01*
Y284480D01*
X528320D01*
Y284316D01*
X528156D01*
Y283988D01*
X527992D01*
Y283825D01*
X527828D01*
Y283661D01*
X527664D01*
Y283497D01*
X527501D01*
Y283333D01*
X527337D01*
Y283169D01*
X527173D01*
Y283005D01*
X527009D01*
Y282841D01*
X526845D01*
Y282677D01*
X526681D01*
Y282514D01*
X526353D01*
Y282350D01*
X526190D01*
Y282186D01*
X525862D01*
Y282022D01*
X525534D01*
Y281858D01*
X525370D01*
Y281694D01*
X524879D01*
Y281530D01*
X524551D01*
Y281366D01*
X523895D01*
Y281203D01*
X523240D01*
Y281039D01*
X520946D01*
Y281203D01*
X520290D01*
Y281366D01*
X519635D01*
Y281530D01*
X519307D01*
Y281694D01*
X518979D01*
Y281858D01*
X518488D01*
Y281203D01*
X518652D01*
Y279564D01*
X518815D01*
Y278581D01*
X518979D01*
Y277761D01*
X519143D01*
Y276942D01*
X519307D01*
Y276286D01*
X519471D01*
Y275795D01*
X519635D01*
Y275139D01*
X519799D01*
Y274648D01*
X519963D01*
Y274156D01*
X520126D01*
Y273664D01*
X520290D01*
Y273337D01*
X520454D01*
Y272845D01*
X520618D01*
Y272517D01*
X520782D01*
Y272026D01*
X520946D01*
Y271862D01*
X521110D01*
Y271534D01*
Y271370D01*
X521273D01*
Y271206D01*
X521437D01*
Y270879D01*
X521601D01*
Y270551D01*
X521765D01*
Y270223D01*
X521929D01*
Y269895D01*
X522093D01*
Y269732D01*
X522257D01*
Y269404D01*
X522421D01*
Y269240D01*
X522584D01*
Y268912D01*
X522748D01*
Y268748D01*
X522912D01*
Y268421D01*
X523076D01*
Y268257D01*
X523240D01*
Y268093D01*
X523404D01*
Y267929D01*
X523568D01*
Y267601D01*
X523732D01*
Y267437D01*
X523895D01*
Y267274D01*
X524059D01*
Y267110D01*
X524223D01*
Y266946D01*
X524387D01*
Y266782D01*
X524551D01*
Y266618D01*
X524715D01*
Y266454D01*
X524879D01*
Y266290D01*
X525043D01*
Y266126D01*
X525206D01*
Y265963D01*
X525534D01*
Y265799D01*
X525698D01*
Y266126D01*
X525534D01*
Y266618D01*
X525370D01*
Y266946D01*
X525206D01*
Y267437D01*
X525043D01*
Y267929D01*
X524879D01*
Y268257D01*
X524715D01*
Y268912D01*
X524551D01*
Y269404D01*
X524387D01*
Y270387D01*
X524223D01*
Y273992D01*
X524387D01*
Y275139D01*
X524715D01*
Y273992D01*
X524879D01*
Y272681D01*
X525043D01*
Y271862D01*
X525206D01*
Y271043D01*
X525370D01*
Y270387D01*
X525534D01*
Y269732D01*
X525698D01*
Y269240D01*
X525862D01*
Y268748D01*
X526026D01*
Y268257D01*
X526190D01*
Y267765D01*
X526353D01*
Y267437D01*
X526517D01*
Y266946D01*
X526681D01*
Y266618D01*
X526845D01*
Y266290D01*
X527009D01*
Y265963D01*
X527173D01*
Y265635D01*
X527337D01*
Y265471D01*
X527501D01*
Y265143D01*
X527664D01*
Y264979D01*
X527828D01*
Y264652D01*
X527992D01*
Y264488D01*
X528156D01*
Y264324D01*
X528812D01*
Y264160D01*
X531106D01*
Y264324D01*
X531597D01*
Y264488D01*
X531925D01*
Y264652D01*
X531761D01*
Y264979D01*
X531597D01*
Y265143D01*
X531433D01*
Y265471D01*
X531270D01*
Y265635D01*
X531106D01*
Y265963D01*
X530942D01*
Y266290D01*
X530778D01*
Y266618D01*
X530614D01*
Y266946D01*
X530450D01*
Y267274D01*
X530286D01*
Y267601D01*
X530123D01*
Y267929D01*
X529959D01*
Y268257D01*
X529795D01*
Y268584D01*
X529631D01*
Y269076D01*
X529467D01*
Y269404D01*
X529303D01*
Y269732D01*
X529139D01*
Y270223D01*
X528975D01*
Y270715D01*
X528812D01*
Y271206D01*
X528648D01*
Y271862D01*
X528484D01*
Y272517D01*
X528320D01*
Y273009D01*
X528156D01*
Y273992D01*
X527992D01*
Y275139D01*
X527828D01*
Y275959D01*
X528156D01*
Y275467D01*
X528320D01*
Y274975D01*
X528484D01*
Y274648D01*
X528648D01*
Y274156D01*
X528812D01*
Y273828D01*
X528975D01*
Y273337D01*
X529139D01*
Y273009D01*
X529303D01*
Y272681D01*
X529467D01*
Y272190D01*
X529631D01*
Y271698D01*
X529795D01*
Y271370D01*
X529959D01*
Y271043D01*
X530123D01*
Y270551D01*
X530286D01*
Y270223D01*
X530450D01*
Y269732D01*
X530614D01*
Y269404D01*
X530778D01*
Y269076D01*
X530942D01*
Y268748D01*
X531106D01*
Y268421D01*
X531270D01*
Y267929D01*
X531433D01*
Y267601D01*
X531597D01*
Y267274D01*
X531761D01*
Y266946D01*
X531925D01*
Y266782D01*
X532089D01*
Y266454D01*
X532253D01*
Y266126D01*
X532417D01*
Y265963D01*
X532581D01*
Y265635D01*
X532744D01*
Y265471D01*
X532908D01*
Y265307D01*
X533072D01*
Y265471D01*
X533236D01*
Y265635D01*
X533400D01*
Y265963D01*
X533564D01*
Y266126D01*
X533728D01*
Y266454D01*
X533892D01*
Y266782D01*
X534055D01*
Y267274D01*
X534219D01*
Y267929D01*
X534383D01*
Y268584D01*
X534547D01*
Y269895D01*
X534711D01*
Y270387D01*
X534547D01*
Y270715D01*
X534711D01*
Y271043D01*
X534547D01*
Y273337D01*
X534383D01*
Y274320D01*
X534219D01*
Y275303D01*
X534055D01*
Y275959D01*
X533892D01*
Y276614D01*
X533728D01*
Y277270D01*
X533564D01*
Y277761D01*
X533400D01*
Y278253D01*
X533236D01*
Y278908D01*
X533072D01*
Y279400D01*
X532908D01*
Y279892D01*
X532744D01*
Y280219D01*
X532581D01*
Y280711D01*
X532417D01*
Y281039D01*
X532253D01*
Y281530D01*
X532089D01*
Y281858D01*
X531925D01*
Y282186D01*
X531761D01*
Y282514D01*
X531597D01*
Y283005D01*
X531433D01*
Y283333D01*
X531270D01*
Y283661D01*
X531106D01*
Y283988D01*
X530942D01*
Y284316D01*
X530778D01*
Y284644D01*
X530614D01*
Y284808D01*
X530450D01*
Y285135D01*
X530286D01*
Y285463D01*
X530123D01*
Y285791D01*
X529959D01*
Y286119D01*
X529795D01*
Y286283D01*
X529631D01*
Y286610D01*
D02*
G37*
%LPD*%
G36*
X512097Y357075D02*
X513244D01*
Y356911D01*
X513736D01*
Y356747D01*
X514391D01*
Y356583D01*
X514719D01*
Y356419D01*
X515046D01*
Y356255D01*
X515374D01*
Y356092D01*
X515702D01*
Y355928D01*
X516030D01*
Y355764D01*
X516357D01*
Y355600D01*
X516521D01*
Y355436D01*
X516849D01*
Y355272D01*
X517013D01*
Y355108D01*
X517341D01*
Y354944D01*
X517505D01*
Y354781D01*
X517668D01*
Y354617D01*
X517996D01*
Y354453D01*
X518160D01*
Y354289D01*
X518324D01*
Y354125D01*
X518488D01*
Y353961D01*
X518652D01*
Y353797D01*
X518815D01*
Y353634D01*
X518979D01*
Y353470D01*
X519143D01*
Y353306D01*
X519307D01*
Y353142D01*
X519471D01*
Y352978D01*
X519635D01*
Y352814D01*
X519799D01*
Y352650D01*
X519963D01*
Y352486D01*
X520126D01*
Y352323D01*
X520290D01*
Y351012D01*
X520126D01*
Y350192D01*
X519963D01*
Y349701D01*
X519799D01*
Y349209D01*
X519635D01*
Y348881D01*
X519471D01*
Y348390D01*
X519307D01*
Y348062D01*
X519143D01*
Y347898D01*
X518979D01*
Y347570D01*
X518815D01*
Y347243D01*
X518652D01*
Y347079D01*
X518488D01*
Y346751D01*
X518324D01*
Y346587D01*
X518160D01*
Y346423D01*
X517996D01*
Y346259D01*
X517832D01*
Y346096D01*
X517668D01*
Y345768D01*
X517505D01*
Y345604D01*
X517341D01*
Y345440D01*
X517013D01*
Y345276D01*
X516849D01*
Y345112D01*
X516685D01*
Y344948D01*
X516521D01*
Y344785D01*
X516194D01*
Y344621D01*
X516030D01*
Y344457D01*
X515702D01*
Y344293D01*
X515374D01*
Y344129D01*
X515046D01*
Y343965D01*
X514555D01*
Y343801D01*
X513572D01*
Y343637D01*
X513244D01*
Y343801D01*
X512261D01*
Y343965D01*
X511769D01*
Y344129D01*
X511605D01*
Y344293D01*
X511277D01*
Y344457D01*
X511114D01*
Y344621D01*
X510786D01*
Y344785D01*
X510622D01*
Y344948D01*
X510458D01*
Y345112D01*
X510294D01*
Y345440D01*
X510130D01*
Y345604D01*
X509966D01*
Y345768D01*
X509803D01*
Y345932D01*
X509639D01*
Y346259D01*
X509475D01*
Y346587D01*
X509311D01*
Y346751D01*
X509147D01*
Y347079D01*
X508983D01*
Y347570D01*
X508819D01*
Y347898D01*
X508656D01*
Y348390D01*
X508492D01*
Y348881D01*
X508328D01*
Y349537D01*
X508164D01*
Y350356D01*
X508000D01*
Y351667D01*
X507836D01*
Y353470D01*
X508000D01*
Y354781D01*
X508164D01*
Y355108D01*
X508328D01*
Y355272D01*
X508492D01*
Y355600D01*
X508656D01*
Y355764D01*
X508819D01*
Y355928D01*
X508983D01*
Y356092D01*
X509147D01*
Y356255D01*
X509475D01*
Y356419D01*
X509639D01*
Y356583D01*
X509966D01*
Y356747D01*
X510294D01*
Y356911D01*
X510786D01*
Y357075D01*
X511933D01*
Y357239D01*
X512097D01*
Y357075D01*
D02*
G37*
%LPC*%
G36*
X512752Y355928D02*
X511114D01*
Y355764D01*
X510622D01*
Y355600D01*
X510458D01*
Y355436D01*
X510130D01*
Y355272D01*
X509966D01*
Y355108D01*
X509803D01*
Y354944D01*
X509639D01*
Y354781D01*
X509475D01*
Y354617D01*
X509311D01*
Y354125D01*
X509147D01*
Y350684D01*
X509311D01*
Y350028D01*
X509475D01*
Y349209D01*
X509639D01*
Y348717D01*
X509803D01*
Y348390D01*
X509966D01*
Y347898D01*
X510130D01*
Y347570D01*
X510294D01*
Y347243D01*
X510458D01*
Y346915D01*
X510622D01*
Y346751D01*
X510786D01*
Y346423D01*
X510950D01*
Y346259D01*
X511114D01*
Y346096D01*
X511277D01*
Y345932D01*
X511441D01*
Y345768D01*
X511605D01*
Y345604D01*
X511769D01*
Y345440D01*
X511933D01*
Y345276D01*
X512261D01*
Y345112D01*
X512588D01*
Y344948D01*
X514063D01*
Y345112D01*
X514555D01*
Y345276D01*
X514883D01*
Y345440D01*
X515210D01*
Y345604D01*
X515538D01*
Y345768D01*
X515702D01*
Y345932D01*
X516030D01*
Y346096D01*
X516194D01*
Y346259D01*
X516357D01*
Y346423D01*
X516521D01*
Y346587D01*
X516685D01*
Y346751D01*
X516849D01*
Y346915D01*
X517013D01*
Y347079D01*
X517177D01*
Y347406D01*
X517341D01*
Y347570D01*
X517505D01*
Y347734D01*
X517668D01*
Y348062D01*
X517832D01*
Y348390D01*
X517996D01*
Y348554D01*
X518160D01*
Y348881D01*
X518324D01*
Y349373D01*
X518488D01*
Y349701D01*
X518652D01*
Y350192D01*
X518815D01*
Y350848D01*
X518979D01*
Y351831D01*
X518815D01*
Y352159D01*
X518652D01*
Y352323D01*
X518488D01*
Y352486D01*
X518324D01*
Y352650D01*
X518160D01*
Y352814D01*
X517996D01*
Y352978D01*
X517668D01*
Y353142D01*
X517505D01*
Y353306D01*
X517341D01*
Y353470D01*
X517177D01*
Y353634D01*
X517013D01*
Y353797D01*
X516685D01*
Y353961D01*
X516521D01*
Y354125D01*
X516357D01*
Y354289D01*
X516030D01*
Y354453D01*
X515866D01*
Y354617D01*
X515538D01*
Y354781D01*
X515210D01*
Y354944D01*
X515046D01*
Y355108D01*
X514719D01*
Y355272D01*
X514227D01*
Y355436D01*
X513899D01*
Y355600D01*
X513408D01*
Y355764D01*
X512752D01*
Y355928D01*
D02*
G37*
%LPD*%
G36*
X523076Y313649D02*
X523895D01*
Y313485D01*
X524551D01*
Y313321D01*
X524879D01*
Y313157D01*
X525206D01*
Y312994D01*
X525534D01*
Y312830D01*
X525698D01*
Y312666D01*
X526026D01*
Y312502D01*
X526190D01*
Y312338D01*
X526353D01*
Y312174D01*
X526517D01*
Y312010D01*
X526681D01*
Y311846D01*
X526845D01*
Y311683D01*
X527009D01*
Y311519D01*
X527173D01*
Y311355D01*
X527337D01*
Y311191D01*
X527501D01*
Y310863D01*
X527664D01*
Y310536D01*
X527828D01*
Y310208D01*
X527992D01*
Y309880D01*
X528156D01*
Y309388D01*
X528320D01*
Y308733D01*
X528484D01*
Y306766D01*
X528320D01*
Y305947D01*
X528156D01*
Y305455D01*
X527992D01*
Y305128D01*
X527828D01*
Y304800D01*
X527664D01*
Y304472D01*
X527501D01*
Y304144D01*
X527337D01*
Y303981D01*
X527173D01*
Y303817D01*
X527009D01*
Y303653D01*
X526845D01*
Y303489D01*
X526681D01*
Y303325D01*
X526517D01*
Y303161D01*
X526353D01*
Y302997D01*
X526190D01*
Y302834D01*
X526026D01*
Y302670D01*
X525862D01*
Y302506D01*
X525534D01*
Y302342D01*
X525206D01*
Y302178D01*
X524879D01*
Y302014D01*
X524551D01*
Y301850D01*
X524059D01*
Y301686D01*
X523240D01*
Y301523D01*
X521601D01*
Y301686D01*
X520782D01*
Y301850D01*
X520290D01*
Y302014D01*
X519799D01*
Y302178D01*
X519471D01*
Y302342D01*
X519143D01*
Y302506D01*
X518979D01*
Y302670D01*
X518652D01*
Y302834D01*
X518488D01*
Y302997D01*
X518324D01*
Y303161D01*
X518160D01*
Y303325D01*
X517996D01*
Y303489D01*
X517832D01*
Y303653D01*
X517668D01*
Y303817D01*
X517505D01*
Y304144D01*
X517341D01*
Y304308D01*
X517177D01*
Y304636D01*
X517013D01*
Y304964D01*
X516849D01*
Y305292D01*
X516685D01*
Y305783D01*
X516521D01*
Y306439D01*
X516357D01*
Y308897D01*
X516521D01*
Y309552D01*
X516685D01*
Y310044D01*
X516849D01*
Y310372D01*
X517013D01*
Y310699D01*
X517177D01*
Y310863D01*
X517341D01*
Y311191D01*
X517505D01*
Y311355D01*
X517668D01*
Y311683D01*
X517832D01*
Y311846D01*
X517996D01*
Y312010D01*
X518160D01*
Y312174D01*
X518324D01*
Y312338D01*
X518488D01*
Y312502D01*
X518815D01*
Y312666D01*
X518979D01*
Y312830D01*
X519307D01*
Y312994D01*
X519635D01*
Y313157D01*
X519963D01*
Y313321D01*
X520290D01*
Y313485D01*
X520946D01*
Y313649D01*
X521765D01*
Y313813D01*
X523076D01*
Y313649D01*
D02*
G37*
%LPC*%
G36*
X523568Y312502D02*
X521273D01*
Y312338D01*
X520782D01*
Y312174D01*
X520290D01*
Y312010D01*
X519963D01*
Y311846D01*
X519799D01*
Y311683D01*
X519471D01*
Y311519D01*
X519307D01*
Y311355D01*
X519143D01*
Y311191D01*
X518979D01*
Y311027D01*
X518815D01*
Y310863D01*
X518652D01*
Y310699D01*
X518488D01*
Y310536D01*
X518324D01*
Y310208D01*
X518160D01*
Y309880D01*
X517996D01*
Y309552D01*
X517832D01*
Y309224D01*
X517668D01*
Y308405D01*
X517505D01*
Y306766D01*
X517668D01*
Y306111D01*
X517832D01*
Y305619D01*
X517996D01*
Y305292D01*
X518160D01*
Y305128D01*
X518324D01*
Y304800D01*
X518488D01*
Y304636D01*
X518652D01*
Y304472D01*
X518815D01*
Y304308D01*
X518979D01*
Y303981D01*
X519307D01*
Y303817D01*
X519471D01*
Y303653D01*
X519635D01*
Y303489D01*
X519963D01*
Y303325D01*
X520290D01*
Y303161D01*
X520618D01*
Y302997D01*
X521110D01*
Y302834D01*
X522257D01*
Y302670D01*
X522748D01*
Y302834D01*
X523568D01*
Y302997D01*
X524059D01*
Y303161D01*
X524551D01*
Y303325D01*
X524879D01*
Y303489D01*
X525043D01*
Y303653D01*
X525370D01*
Y303817D01*
X525534D01*
Y303981D01*
X525698D01*
Y304144D01*
X525862D01*
Y304308D01*
X526026D01*
Y304472D01*
X526190D01*
Y304636D01*
X526353D01*
Y304800D01*
X526517D01*
Y305128D01*
X526681D01*
Y305455D01*
X526845D01*
Y305783D01*
X527009D01*
Y306275D01*
X527173D01*
Y307258D01*
X527337D01*
Y308077D01*
X527173D01*
Y309061D01*
X527009D01*
Y309552D01*
X526845D01*
Y309880D01*
X526681D01*
Y310208D01*
X526517D01*
Y310372D01*
X526353D01*
Y310699D01*
X526190D01*
Y310863D01*
X526026D01*
Y311027D01*
X525862D01*
Y311191D01*
X525698D01*
Y311355D01*
X525534D01*
Y311519D01*
X525370D01*
Y311683D01*
X525043D01*
Y311846D01*
X524715D01*
Y312010D01*
X524387D01*
Y312174D01*
X524059D01*
Y312338D01*
X523568D01*
Y312502D01*
D02*
G37*
%LPD*%
G36*
X501609Y369857D02*
X502101D01*
Y369693D01*
X502428D01*
Y369529D01*
X502592D01*
Y369365D01*
X502756D01*
Y369201D01*
X502920D01*
Y369037D01*
X503084D01*
Y368874D01*
X503248D01*
Y368710D01*
X503412D01*
Y368382D01*
X503576D01*
Y368054D01*
X503739D01*
Y367726D01*
X503903D01*
Y367071D01*
X504067D01*
Y366252D01*
X504231D01*
Y363302D01*
X504067D01*
Y362155D01*
X503903D01*
Y361499D01*
X503739D01*
Y360844D01*
X503576D01*
Y360188D01*
X503412D01*
Y359861D01*
X503248D01*
Y359369D01*
X503084D01*
Y358877D01*
X502920D01*
Y358550D01*
X502756D01*
Y358222D01*
X502592D01*
Y357894D01*
X502428D01*
Y357566D01*
X502265D01*
Y357239D01*
X502101D01*
Y356911D01*
X501937D01*
Y356747D01*
X501773D01*
Y356419D01*
X501609D01*
Y356255D01*
X501445D01*
Y355928D01*
X501281D01*
Y355764D01*
X501117D01*
Y355600D01*
X500953D01*
Y355436D01*
X500790D01*
Y355272D01*
X500626D01*
Y355108D01*
X500462D01*
Y354944D01*
X500298D01*
Y354781D01*
X500134D01*
Y354617D01*
X499970D01*
Y354453D01*
X499643D01*
Y354289D01*
X499479D01*
Y354125D01*
X499151D01*
Y353961D01*
X498823D01*
Y353797D01*
X498332D01*
Y353634D01*
X496857D01*
Y353797D01*
X496365D01*
Y353961D01*
X496201D01*
Y354125D01*
X495873D01*
Y354289D01*
X495710D01*
Y354453D01*
X495546D01*
Y354617D01*
X495382D01*
Y354944D01*
X495218D01*
Y355108D01*
X495054D01*
Y355436D01*
X494890D01*
Y355928D01*
X494726D01*
Y356419D01*
X494563D01*
Y357239D01*
X494399D01*
Y360680D01*
X494563D01*
Y361663D01*
X494726D01*
Y362319D01*
X494890D01*
Y362810D01*
X495054D01*
Y363466D01*
X495218D01*
Y363957D01*
X495382D01*
Y364285D01*
X495546D01*
Y364777D01*
X495710D01*
Y365104D01*
X495873D01*
Y365432D01*
X496037D01*
Y365760D01*
X496201D01*
Y366088D01*
X496365D01*
Y366415D01*
X496529D01*
Y366579D01*
X496693D01*
Y366907D01*
X496857D01*
Y367235D01*
X497021D01*
Y367399D01*
X497184D01*
Y367563D01*
X497348D01*
Y367726D01*
X497512D01*
Y368054D01*
X497676D01*
Y368218D01*
X497840D01*
Y368382D01*
X498004D01*
Y368546D01*
X498168D01*
Y368710D01*
X498332D01*
Y368874D01*
X498495D01*
Y369037D01*
X498659D01*
Y369201D01*
X498987D01*
Y369365D01*
X499151D01*
Y369529D01*
X499479D01*
Y369693D01*
X499806D01*
Y369857D01*
X500298D01*
Y370021D01*
X501609D01*
Y369857D01*
D02*
G37*
G36*
X538480Y360352D02*
X538972D01*
Y360188D01*
X539299D01*
Y360024D01*
X539627D01*
Y359861D01*
X539791D01*
Y359697D01*
X539955D01*
Y359533D01*
X540119D01*
Y359369D01*
X540283D01*
Y359205D01*
X540446D01*
Y359041D01*
X540610D01*
Y358877D01*
X540774D01*
Y358714D01*
X540938D01*
Y358550D01*
X541102D01*
Y358222D01*
X541266D01*
Y357894D01*
X541430D01*
Y357730D01*
X541594D01*
Y357403D01*
X541757D01*
Y356911D01*
X541921D01*
Y356583D01*
X542085D01*
Y356092D01*
X542249D01*
Y355272D01*
X542413D01*
Y354289D01*
X542577D01*
Y351175D01*
X542413D01*
Y350192D01*
X542249D01*
Y349537D01*
X542085D01*
Y349045D01*
X541921D01*
Y348390D01*
X541757D01*
Y348062D01*
X541594D01*
Y347570D01*
X541430D01*
Y347243D01*
X541266D01*
Y346915D01*
X541102D01*
Y346587D01*
X540938D01*
Y346259D01*
X540774D01*
Y346096D01*
X540610D01*
Y345768D01*
X540446D01*
Y345604D01*
X540283D01*
Y345440D01*
X540119D01*
Y345276D01*
X539955D01*
Y344948D01*
X539791D01*
Y344785D01*
X539627D01*
Y344621D01*
X539463D01*
Y344457D01*
X539136D01*
Y344293D01*
X538972D01*
Y344129D01*
X538808D01*
Y343965D01*
X538480D01*
Y343801D01*
X538316D01*
Y343637D01*
X537825D01*
Y343474D01*
X537333D01*
Y343310D01*
X535203D01*
Y343474D01*
X534711D01*
Y343637D01*
X534383D01*
Y343801D01*
X534219D01*
Y343965D01*
X533892D01*
Y344129D01*
X533728D01*
Y344293D01*
X533564D01*
Y344457D01*
X533400D01*
Y344621D01*
X533236D01*
Y344785D01*
X533072D01*
Y344948D01*
X532908D01*
Y345112D01*
X532744D01*
Y345440D01*
X532581D01*
Y345768D01*
X532417D01*
Y345932D01*
X532253D01*
Y346259D01*
X532089D01*
Y346587D01*
X531925D01*
Y347079D01*
X531761D01*
Y347406D01*
X531597D01*
Y348062D01*
X531433D01*
Y348881D01*
X531270D01*
Y350028D01*
X531106D01*
Y352159D01*
X531270D01*
Y353306D01*
X531433D01*
Y354125D01*
X531597D01*
Y354781D01*
X531761D01*
Y355272D01*
X531925D01*
Y355764D01*
X532089D01*
Y356092D01*
X532253D01*
Y356419D01*
X532417D01*
Y356747D01*
X532581D01*
Y357075D01*
X532744D01*
Y357403D01*
X532908D01*
Y357730D01*
X533072D01*
Y357894D01*
X533236D01*
Y358058D01*
X533400D01*
Y358386D01*
X533564D01*
Y358550D01*
X533728D01*
Y358714D01*
X533892D01*
Y358877D01*
X534055D01*
Y359041D01*
X534219D01*
Y359205D01*
X534383D01*
Y359369D01*
X534547D01*
Y359533D01*
X534875D01*
Y359697D01*
X535039D01*
Y359861D01*
X535203D01*
Y360024D01*
X535530D01*
Y360188D01*
X536022D01*
Y360352D01*
X536350D01*
Y360516D01*
X538480D01*
Y360352D01*
D02*
G37*
%LPC*%
G36*
X501773Y367726D02*
X501117D01*
Y367563D01*
X500790D01*
Y367399D01*
X500626D01*
Y367235D01*
X500462D01*
Y367071D01*
X500298D01*
Y366907D01*
X500134D01*
Y366579D01*
X499970D01*
Y366415D01*
X499806D01*
Y366088D01*
X499643D01*
Y365760D01*
X499479D01*
Y365432D01*
X499315D01*
Y365104D01*
X499151D01*
Y364449D01*
X498987D01*
Y363794D01*
X498823D01*
Y361335D01*
X498987D01*
Y360844D01*
X499151D01*
Y360516D01*
X499315D01*
Y360352D01*
X500298D01*
Y360516D01*
X500462D01*
Y360680D01*
X500790D01*
Y361008D01*
X500953D01*
Y361172D01*
X501117D01*
Y361335D01*
X501281D01*
Y361663D01*
X501445D01*
Y361827D01*
X501609D01*
Y362155D01*
X501773D01*
Y362483D01*
X501937D01*
Y362974D01*
X502101D01*
Y363466D01*
X502265D01*
Y364121D01*
X502428D01*
Y366743D01*
X502265D01*
Y367235D01*
X502101D01*
Y367399D01*
X501937D01*
Y367563D01*
X501773D01*
Y367726D01*
D02*
G37*
G36*
X537497Y359041D02*
X536841D01*
Y358877D01*
X536677D01*
Y358714D01*
X536513D01*
Y358550D01*
X536350D01*
Y358386D01*
X536186D01*
Y358058D01*
X536022D01*
Y357730D01*
X535858D01*
Y357403D01*
X535694D01*
Y356911D01*
X535530D01*
Y356255D01*
X535366D01*
Y353142D01*
X535530D01*
Y352486D01*
X535694D01*
Y351995D01*
X535858D01*
Y351667D01*
X536022D01*
Y351503D01*
X536186D01*
Y351339D01*
X536350D01*
Y351175D01*
X536513D01*
Y351012D01*
X537169D01*
Y351175D01*
X537333D01*
Y351339D01*
X537497D01*
Y351503D01*
X537661D01*
Y351667D01*
X537825D01*
Y351831D01*
X537988D01*
Y352323D01*
X538152D01*
Y352650D01*
X538316D01*
Y352978D01*
X538480D01*
Y353634D01*
X538644D01*
Y354617D01*
X538808D01*
Y356092D01*
X538644D01*
Y357075D01*
X538480D01*
Y357730D01*
X538316D01*
Y358058D01*
X538152D01*
Y358386D01*
X537988D01*
Y358550D01*
X537825D01*
Y358877D01*
X537497D01*
Y359041D01*
D02*
G37*
%LPD*%
D10*
X1065092Y652777D02*
Y642620D01*
X1060014D01*
X1058321Y644313D01*
Y651084D01*
X1060014Y652777D01*
X1065092D01*
X1053243Y649391D02*
X1049857D01*
X1048165Y647698D01*
Y642620D01*
X1053243D01*
X1054936Y644313D01*
X1053243Y646006D01*
X1048165D01*
X1044779Y642620D02*
X1039701D01*
X1038008Y644313D01*
X1039701Y646006D01*
X1043086D01*
X1044779Y647698D01*
X1043086Y649391D01*
X1038008D01*
X1034622Y652777D02*
Y642620D01*
Y647698D01*
X1032930Y649391D01*
X1029544D01*
X1027851Y647698D01*
Y642620D01*
X1024466Y652777D02*
Y642620D01*
X1019387D01*
X1017694Y644313D01*
Y646006D01*
Y647698D01*
X1019387Y649391D01*
X1024466D01*
X1012616Y642620D02*
X1009230D01*
X1007538Y644313D01*
Y647698D01*
X1009230Y649391D01*
X1012616D01*
X1014309Y647698D01*
Y644313D01*
X1012616Y642620D01*
X1002459Y649391D02*
X999074D01*
X997381Y647698D01*
Y642620D01*
X1002459D01*
X1004152Y644313D01*
X1002459Y646006D01*
X997381D01*
X993995Y649391D02*
Y642620D01*
Y646006D01*
X992303Y647698D01*
X990610Y649391D01*
X988917D01*
X977067Y652777D02*
Y642620D01*
X982146D01*
X983839Y644313D01*
Y647698D01*
X982146Y649391D01*
X977067D01*
X1059162Y671402D02*
X1065933D01*
Y661246D01*
X1059162D01*
X1065933Y666324D02*
X1062548D01*
X1055776Y661246D02*
X1052391D01*
X1054084D01*
Y671402D01*
X1055776D01*
X1047312Y661246D02*
X1043927D01*
X1045620D01*
Y668017D01*
X1047312D01*
X1038848Y657860D02*
X1037156D01*
X1035463Y659553D01*
Y668017D01*
X1026999D02*
X1023613D01*
X1021921Y666324D01*
Y661246D01*
X1026999D01*
X1028692Y662938D01*
X1026999Y664631D01*
X1021921D01*
X1018535Y671402D02*
Y661246D01*
Y666324D01*
X1016842Y668017D01*
X1013457D01*
X1011764Y666324D01*
Y661246D01*
X991451Y669709D02*
X993143Y671402D01*
X996529D01*
X998222Y669709D01*
Y662938D01*
X996529Y661246D01*
X993143D01*
X991451Y662938D01*
Y666324D01*
X994836D01*
X986372Y661246D02*
X982987D01*
X981294Y662938D01*
Y666324D01*
X982987Y668017D01*
X986372D01*
X988065Y666324D01*
Y662938D01*
X986372Y661246D01*
X977908Y668017D02*
Y661246D01*
Y664631D01*
X976215Y666324D01*
X974523Y668017D01*
X972830D01*
X960980Y671402D02*
Y661246D01*
X966059D01*
X967751Y662938D01*
Y666324D01*
X966059Y668017D01*
X960980D01*
X955902Y661246D02*
X952516D01*
X950824Y662938D01*
Y666324D01*
X952516Y668017D01*
X955902D01*
X957595Y666324D01*
Y662938D01*
X955902Y661246D01*
X947438D02*
Y668017D01*
X942360D01*
X940667Y666324D01*
Y661246D01*
X1066778Y624840D02*
Y634997D01*
X1061700D01*
X1060007Y633304D01*
Y629918D01*
X1061700Y628226D01*
X1066778D01*
X1063392D02*
X1060007Y624840D01*
X1051543D02*
X1054928D01*
X1056621Y626533D01*
Y629918D01*
X1054928Y631611D01*
X1051543D01*
X1049850Y629918D01*
Y628226D01*
X1056621D01*
X1046464Y631611D02*
X1043079Y624840D01*
X1039693Y631611D01*
X1019380Y624840D02*
X1026151D01*
X1019380Y631611D01*
Y633304D01*
X1021073Y634997D01*
X1024458D01*
X1026151Y633304D01*
X1015994Y624840D02*
Y626533D01*
X1014302D01*
Y624840D01*
X1015994D01*
X1007530Y633304D02*
X1005837Y634997D01*
X1002452D01*
X1000759Y633304D01*
Y626533D01*
X1002452Y624840D01*
X1005837D01*
X1007530Y626533D01*
Y633304D01*
X980446Y624840D02*
X987217D01*
X980446Y631611D01*
Y633304D01*
X982139Y634997D01*
X985524D01*
X987217Y633304D01*
X977060Y624840D02*
X970289Y631611D01*
X966903Y633304D02*
X965211Y634997D01*
X961825D01*
X960132Y633304D01*
Y631611D01*
X961825Y629918D01*
X960132Y628226D01*
Y626533D01*
X961825Y624840D01*
X965211D01*
X966903Y626533D01*
Y628226D01*
X965211Y629918D01*
X966903Y631611D01*
Y633304D01*
X965211Y629918D02*
X961825D01*
X956747Y624840D02*
X949976Y631611D01*
X939819Y624840D02*
X946590D01*
X939819Y631611D01*
Y633304D01*
X941512Y634997D01*
X944897D01*
X946590Y633304D01*
X936433D02*
X934741Y634997D01*
X931355D01*
X929662Y633304D01*
Y631611D01*
X931355Y629918D01*
X933048D01*
X931355D01*
X929662Y628226D01*
Y626533D01*
X931355Y624840D01*
X934741D01*
X936433Y626533D01*
X887457Y739307D02*
X892535D01*
X889996D01*
Y726612D01*
X892535Y724072D01*
X895075D01*
X897614Y726612D01*
X882379Y724072D02*
X877300D01*
X879840D01*
Y739307D01*
X882379Y736768D01*
X869683D02*
X867144Y739307D01*
X862065D01*
X859526Y736768D01*
Y734229D01*
X862065Y731690D01*
X864605D01*
X862065D01*
X859526Y729151D01*
Y726612D01*
X862065Y724072D01*
X867144D01*
X869683Y726612D01*
X894079Y622298D02*
X899157D01*
X896618D01*
Y609602D01*
X899157Y607062D01*
X901697D01*
X904236Y609602D01*
X878844Y622298D02*
X889001D01*
Y614680D01*
X883923Y617219D01*
X881383D01*
X878844Y614680D01*
Y609602D01*
X881383Y607062D01*
X886462D01*
X889001Y609602D01*
X534664Y609598D02*
Y596902D01*
X532125Y594362D01*
X527046D01*
X524507Y596902D01*
Y609598D01*
X519429Y594362D02*
X514350D01*
X516890D01*
Y609598D01*
X519429Y607058D01*
X496576Y594362D02*
X506733D01*
X496576Y604519D01*
Y607058D01*
X499115Y609598D01*
X504194D01*
X506733Y607058D01*
X971931Y516897D02*
X987166D01*
Y524515D01*
X984627Y527054D01*
X979548D01*
X977009Y524515D01*
Y516897D01*
Y521975D02*
X971931Y527054D01*
Y539749D02*
X987166D01*
X979548Y532132D01*
Y542289D01*
X987166Y557524D02*
Y547367D01*
X979548D01*
X982088Y552445D01*
Y554985D01*
X979548Y557524D01*
X974470D01*
X971931Y554985D01*
Y549906D01*
X974470Y547367D01*
X1004189Y477393D02*
X988954D01*
Y469775D01*
X991493Y467236D01*
X996571D01*
X999111Y469775D01*
Y477393D01*
Y472315D02*
X1004189Y467236D01*
Y454540D02*
X988954D01*
X996571Y462158D01*
Y452001D01*
X1004189Y439305D02*
X988954D01*
X996571Y446923D01*
Y436766D01*
X405511Y508127D02*
X420746D01*
Y515745D01*
X418207Y518284D01*
X413129D01*
X410589Y515745D01*
Y508127D01*
Y513205D02*
X405511Y518284D01*
Y530980D02*
X420746D01*
X413129Y523362D01*
Y533519D01*
X418207Y538597D02*
X420746Y541136D01*
Y546215D01*
X418207Y548754D01*
X415668D01*
X413129Y546215D01*
Y543675D01*
Y546215D01*
X410589Y548754D01*
X408050D01*
X405511Y546215D01*
Y541136D01*
X408050Y538597D01*
X445389Y483623D02*
X430154D01*
Y476005D01*
X432693Y473466D01*
X437771D01*
X440311Y476005D01*
Y483623D01*
Y478545D02*
X445389Y473466D01*
Y460770D02*
X430154D01*
X437771Y468388D01*
Y458231D01*
X445389Y442996D02*
Y453153D01*
X435232Y442996D01*
X432693D01*
X430154Y445535D01*
Y450614D01*
X432693Y453153D01*
X729869Y477393D02*
X714634D01*
Y469776D01*
X717173Y467236D01*
X722252D01*
X724791Y469776D01*
Y477393D01*
Y472315D02*
X729869Y467236D01*
Y454540D02*
X714634D01*
X722252Y462158D01*
Y452001D01*
X729869Y446923D02*
Y441844D01*
Y444384D01*
X714634D01*
X717173Y446923D01*
X692531Y512057D02*
X707766D01*
Y519675D01*
X705227Y522214D01*
X700149D01*
X697609Y519675D01*
Y512057D01*
Y517135D02*
X692531Y522214D01*
Y534910D02*
X707766D01*
X700149Y527292D01*
Y537449D01*
X705227Y542527D02*
X707766Y545066D01*
Y550145D01*
X705227Y552684D01*
X695070D01*
X692531Y550145D01*
Y545066D01*
X695070Y542527D01*
X705227D01*
X121031Y509517D02*
X136266D01*
Y517135D01*
X133727Y519674D01*
X128649D01*
X126109Y517135D01*
Y509517D01*
Y514595D02*
X121031Y519674D01*
X133727Y524752D02*
X136266Y527291D01*
Y532370D01*
X133727Y534909D01*
X131188D01*
X128649Y532370D01*
Y529831D01*
Y532370D01*
X126109Y534909D01*
X123570D01*
X121031Y532370D01*
Y527291D01*
X123570Y524752D01*
Y539987D02*
X121031Y542526D01*
Y547605D01*
X123570Y550144D01*
X133727D01*
X136266Y547605D01*
Y542526D01*
X133727Y539987D01*
X131188D01*
X128649Y542526D01*
Y550144D01*
X160909Y481323D02*
X145674D01*
Y473705D01*
X148213Y471166D01*
X153291D01*
X155831Y473705D01*
Y481323D01*
Y476245D02*
X160909Y471166D01*
X148213Y466088D02*
X145674Y463549D01*
Y458470D01*
X148213Y455931D01*
X150752D01*
X153291Y458470D01*
Y461010D01*
Y458470D01*
X155831Y455931D01*
X158370D01*
X160909Y458470D01*
Y463549D01*
X158370Y466088D01*
X148213Y450853D02*
X145674Y448314D01*
Y443235D01*
X148213Y440696D01*
X150752D01*
X153291Y443235D01*
X155831Y440696D01*
X158370D01*
X160909Y443235D01*
Y448314D01*
X158370Y450853D01*
X155831D01*
X153291Y448314D01*
X150752Y450853D01*
X148213D01*
X153291Y448314D02*
Y443235D01*
X594362Y684527D02*
X591823Y687066D01*
Y692145D01*
X594362Y694684D01*
X604518D01*
X607057Y692145D01*
Y687066D01*
X604518Y684527D01*
X607057Y679449D02*
Y674370D01*
Y676910D01*
X591823D01*
X594362Y679449D01*
Y666753D02*
X591823Y664214D01*
Y659135D01*
X594362Y656596D01*
X604518D01*
X607057Y659135D01*
Y664214D01*
X604518Y666753D01*
X594362D01*
X599438Y716281D02*
X601978Y713742D01*
Y708663D01*
X599438Y706124D01*
X589282D01*
X586743Y708663D01*
Y713742D01*
X589282Y716281D01*
Y721359D02*
X586743Y723898D01*
Y728977D01*
X589282Y731516D01*
X599438D01*
X601978Y728977D01*
Y723898D01*
X599438Y721359D01*
X596899D01*
X594360Y723898D01*
Y731516D01*
X592959Y601454D02*
X595498Y598914D01*
Y593836D01*
X592959Y591297D01*
X582802D01*
X580263Y593836D01*
Y598914D01*
X582802Y601454D01*
X592959Y606532D02*
X595498Y609071D01*
Y614149D01*
X592959Y616689D01*
X590420D01*
X587881Y614149D01*
X585341Y616689D01*
X582802D01*
X580263Y614149D01*
Y609071D01*
X582802Y606532D01*
X585341D01*
X587881Y609071D01*
X590420Y606532D01*
X592959D01*
X587881Y609071D02*
Y614149D01*
X592959Y643394D02*
X595498Y640855D01*
Y635776D01*
X592959Y633237D01*
X582802D01*
X580263Y635776D01*
Y640855D01*
X582802Y643394D01*
X595498Y648472D02*
Y658629D01*
X592959D01*
X582802Y648472D01*
X580263D01*
X44074Y730377D02*
X46613D01*
X51691Y725299D01*
X46613Y720220D01*
X44074D01*
X51691Y725299D02*
X59309D01*
Y715142D02*
Y710064D01*
Y712603D01*
X44074D01*
X46613Y715142D01*
X823600Y389255D02*
X836296D01*
X838835Y386716D01*
Y381637D01*
X836296Y379098D01*
X823600D01*
Y374020D02*
Y363863D01*
X826139D01*
X836296Y374020D01*
X838835D01*
X281310Y392645D02*
X294006D01*
X296545Y390106D01*
Y385027D01*
X294006Y382488D01*
X281310D01*
Y367253D02*
X283849Y372332D01*
X288927Y377410D01*
X294006D01*
X296545Y374871D01*
Y369792D01*
X294006Y367253D01*
X291467D01*
X288927Y369792D01*
Y377410D01*
X556900Y391795D02*
X569596D01*
X572135Y389256D01*
Y384177D01*
X569596Y381638D01*
X556900D01*
Y366403D02*
Y376560D01*
X564517D01*
X561978Y371482D01*
Y368942D01*
X564517Y366403D01*
X569596D01*
X572135Y368942D01*
Y374021D01*
X569596Y376560D01*
X257688Y733425D02*
X270384D01*
X272923Y730886D01*
Y725807D01*
X270384Y723268D01*
X257688D01*
X272923Y710572D02*
X257688D01*
X265306Y718190D01*
Y708033D01*
X145420Y668147D02*
X158116D01*
X160655Y665608D01*
Y660529D01*
X158116Y657990D01*
X145420D01*
X147959Y652912D02*
X145420Y650373D01*
Y645294D01*
X147959Y642755D01*
X150498D01*
X153038Y645294D01*
Y647834D01*
Y645294D01*
X155577Y642755D01*
X158116D01*
X160655Y645294D01*
Y650373D01*
X158116Y652912D01*
X150500Y389255D02*
X163196D01*
X165735Y386716D01*
Y381637D01*
X163196Y379098D01*
X150500D01*
X165735Y363863D02*
Y374020D01*
X155578Y363863D01*
X153039D01*
X150500Y366402D01*
Y371481D01*
X153039Y374020D01*
X530857Y683258D02*
Y670562D01*
X528317Y668023D01*
X523239D01*
X520700Y670562D01*
Y683258D01*
X515622Y668023D02*
X510543D01*
X513082D01*
Y683258D01*
X515622Y680718D01*
X943737Y482622D02*
X928502D01*
Y475005D01*
X931041Y472466D01*
X936120D01*
X938659Y475005D01*
Y482622D01*
Y477544D02*
X943737Y472466D01*
X931041Y467387D02*
X928502Y464848D01*
Y459770D01*
X931041Y457231D01*
X933580D01*
X936120Y459770D01*
Y462309D01*
Y459770D01*
X938659Y457231D01*
X941198D01*
X943737Y459770D01*
Y464848D01*
X941198Y467387D01*
X928502Y452152D02*
Y441996D01*
X931041D01*
X941198Y452152D01*
X943737D01*
X377317Y490243D02*
X362082D01*
Y482625D01*
X364621Y480086D01*
X369700D01*
X372239Y482625D01*
Y490243D01*
Y485164D02*
X377317Y480086D01*
X364621Y475007D02*
X362082Y472468D01*
Y467390D01*
X364621Y464851D01*
X367160D01*
X369700Y467390D01*
Y469929D01*
Y467390D01*
X372239Y464851D01*
X374778D01*
X377317Y467390D01*
Y472468D01*
X374778Y475007D01*
X362082Y449616D02*
X364621Y454694D01*
X369700Y459772D01*
X374778D01*
X377317Y457233D01*
Y452155D01*
X374778Y449616D01*
X372239D01*
X369700Y452155D01*
Y459772D01*
X1037463Y513461D02*
X1052698D01*
Y521078D01*
X1050159Y523618D01*
X1045080D01*
X1042541Y521078D01*
Y513461D01*
Y518539D02*
X1037463Y523618D01*
X1050159Y528696D02*
X1052698Y531235D01*
Y536314D01*
X1050159Y538853D01*
X1047620D01*
X1045080Y536314D01*
Y533774D01*
Y536314D01*
X1042541Y538853D01*
X1040002D01*
X1037463Y536314D01*
Y531235D01*
X1040002Y528696D01*
X1052698Y554088D02*
Y543931D01*
X1045080D01*
X1047620Y549010D01*
Y551549D01*
X1045080Y554088D01*
X1040002D01*
X1037463Y551549D01*
Y546470D01*
X1040002Y543931D01*
X473583Y505438D02*
X488818D01*
Y513055D01*
X486279Y515594D01*
X481200D01*
X478661Y513055D01*
Y505438D01*
Y510516D02*
X473583Y515594D01*
X486279Y520673D02*
X488818Y523212D01*
Y528290D01*
X486279Y530829D01*
X483740D01*
X481200Y528290D01*
Y525751D01*
Y528290D01*
X478661Y530829D01*
X476122D01*
X473583Y528290D01*
Y523212D01*
X476122Y520673D01*
X473583Y543525D02*
X488818D01*
X481200Y535908D01*
Y546064D01*
X1073023Y513461D02*
X1088258D01*
Y521078D01*
X1085719Y523618D01*
X1080640D01*
X1078101Y521078D01*
Y513461D01*
Y518539D02*
X1073023Y523618D01*
X1085719Y528696D02*
X1088258Y531235D01*
Y536314D01*
X1085719Y538853D01*
X1083180D01*
X1080640Y536314D01*
Y533774D01*
Y536314D01*
X1078101Y538853D01*
X1075562D01*
X1073023Y536314D01*
Y531235D01*
X1075562Y528696D01*
X1085719Y543931D02*
X1088258Y546470D01*
Y551549D01*
X1085719Y554088D01*
X1083180D01*
X1080640Y551549D01*
Y549010D01*
Y551549D01*
X1078101Y554088D01*
X1075562D01*
X1073023Y551549D01*
Y546470D01*
X1075562Y543931D01*
X526923Y505841D02*
X542158D01*
Y513459D01*
X539619Y515998D01*
X534540D01*
X532001Y513459D01*
Y505841D01*
Y510919D02*
X526923Y515998D01*
X539619Y521076D02*
X542158Y523615D01*
Y528694D01*
X539619Y531233D01*
X537080D01*
X534540Y528694D01*
Y526154D01*
Y528694D01*
X532001Y531233D01*
X529462D01*
X526923Y528694D01*
Y523615D01*
X529462Y521076D01*
X526923Y546468D02*
Y536311D01*
X537080Y546468D01*
X539619D01*
X542158Y543929D01*
Y538850D01*
X539619Y536311D01*
X974217Y482622D02*
X958982D01*
Y475005D01*
X961521Y472466D01*
X966600D01*
X969139Y475005D01*
Y482622D01*
Y477544D02*
X974217Y472466D01*
X961521Y467387D02*
X958982Y464848D01*
Y459770D01*
X961521Y457231D01*
X964060D01*
X966600Y459770D01*
Y462309D01*
Y459770D01*
X969139Y457231D01*
X971678D01*
X974217Y459770D01*
Y464848D01*
X971678Y467387D01*
X974217Y452152D02*
Y447074D01*
Y449613D01*
X958982D01*
X961521Y452152D01*
X410337Y489436D02*
X395102D01*
Y481818D01*
X397641Y479279D01*
X402719D01*
X405259Y481818D01*
Y489436D01*
Y484357D02*
X410337Y479279D01*
X397641Y474200D02*
X395102Y471661D01*
Y466583D01*
X397641Y464044D01*
X400180D01*
X402719Y466583D01*
Y469122D01*
Y466583D01*
X405259Y464044D01*
X407798D01*
X410337Y466583D01*
Y471661D01*
X407798Y474200D01*
X397641Y458965D02*
X395102Y456426D01*
Y451348D01*
X397641Y448809D01*
X407798D01*
X410337Y451348D01*
Y456426D01*
X407798Y458965D01*
X397641D01*
X1035177Y484759D02*
X1019942D01*
Y477141D01*
X1022481Y474602D01*
X1027560D01*
X1030099Y477141D01*
Y484759D01*
Y479681D02*
X1035177Y474602D01*
Y459367D02*
Y469524D01*
X1025020Y459367D01*
X1022481D01*
X1019942Y461906D01*
Y466985D01*
X1022481Y469524D01*
X1032638Y454289D02*
X1035177Y451750D01*
Y446671D01*
X1032638Y444132D01*
X1022481D01*
X1019942Y446671D01*
Y451750D01*
X1022481Y454289D01*
X1025020D01*
X1027560Y451750D01*
Y444132D01*
X478917Y489839D02*
X463682D01*
Y482221D01*
X466221Y479682D01*
X471300D01*
X473839Y482221D01*
Y489839D01*
Y484761D02*
X478917Y479682D01*
Y464447D02*
Y474604D01*
X468760Y464447D01*
X466221D01*
X463682Y466986D01*
Y472065D01*
X466221Y474604D01*
Y459369D02*
X463682Y456830D01*
Y451751D01*
X466221Y449212D01*
X468760D01*
X471300Y451751D01*
X473839Y449212D01*
X476378D01*
X478917Y451751D01*
Y456830D01*
X476378Y459369D01*
X473839D01*
X471300Y456830D01*
X468760Y459369D01*
X466221D01*
X471300Y456830D02*
Y451751D01*
X890397Y481815D02*
X875162D01*
Y474198D01*
X877701Y471659D01*
X882779D01*
X885319Y474198D01*
Y481815D01*
Y476737D02*
X890397Y471659D01*
Y456424D02*
Y466580D01*
X880240Y456424D01*
X877701D01*
X875162Y458963D01*
Y464041D01*
X877701Y466580D01*
X875162Y451345D02*
Y441189D01*
X877701D01*
X887858Y451345D01*
X890397D01*
X321437Y489436D02*
X306202D01*
Y481818D01*
X308741Y479279D01*
X313820D01*
X316359Y481818D01*
Y489436D01*
Y484357D02*
X321437Y479279D01*
Y464044D02*
Y474200D01*
X311280Y464044D01*
X308741D01*
X306202Y466583D01*
Y471661D01*
X308741Y474200D01*
X306202Y448809D02*
X308741Y453887D01*
X313820Y458965D01*
X318898D01*
X321437Y456426D01*
Y451348D01*
X318898Y448809D01*
X316359D01*
X313820Y451348D01*
Y458965D01*
X1004443Y513058D02*
X1019678D01*
Y520675D01*
X1017139Y523214D01*
X1012060D01*
X1009521Y520675D01*
Y513058D01*
Y518136D02*
X1004443Y523214D01*
Y538449D02*
Y528293D01*
X1014600Y538449D01*
X1017139D01*
X1019678Y535910D01*
Y530832D01*
X1017139Y528293D01*
X1019678Y553684D02*
Y543528D01*
X1012060D01*
X1014600Y548606D01*
Y551145D01*
X1012060Y553684D01*
X1006982D01*
X1004443Y551145D01*
Y546067D01*
X1006982Y543528D01*
X440563Y505841D02*
X455798D01*
Y513459D01*
X453259Y515998D01*
X448181D01*
X445641Y513459D01*
Y505841D01*
Y510919D02*
X440563Y515998D01*
Y531233D02*
Y521076D01*
X450720Y531233D01*
X453259D01*
X455798Y528694D01*
Y523615D01*
X453259Y521076D01*
X440563Y543929D02*
X455798D01*
X448181Y536311D01*
Y546468D01*
X928243Y505438D02*
X943478D01*
Y513055D01*
X940939Y515594D01*
X935861D01*
X933321Y513055D01*
Y505438D01*
Y510516D02*
X928243Y515594D01*
Y530829D02*
Y520673D01*
X938400Y530829D01*
X940939D01*
X943478Y528290D01*
Y523212D01*
X940939Y520673D01*
Y535908D02*
X943478Y538447D01*
Y543525D01*
X940939Y546064D01*
X938400D01*
X935861Y543525D01*
Y540986D01*
Y543525D01*
X933321Y546064D01*
X930782D01*
X928243Y543525D01*
Y538447D01*
X930782Y535908D01*
X369443Y505841D02*
X384678D01*
Y513459D01*
X382139Y515998D01*
X377061D01*
X374521Y513459D01*
Y505841D01*
Y510919D02*
X369443Y515998D01*
Y531233D02*
Y521076D01*
X379600Y531233D01*
X382139D01*
X384678Y528694D01*
Y523615D01*
X382139Y521076D01*
X369443Y546468D02*
Y536311D01*
X379600Y546468D01*
X382139D01*
X384678Y543929D01*
Y538850D01*
X382139Y536311D01*
X646557Y487299D02*
X631322D01*
Y479682D01*
X633861Y477142D01*
X638940D01*
X641479Y479682D01*
Y487299D01*
Y482221D02*
X646557Y477142D01*
Y461907D02*
Y472064D01*
X636400Y461907D01*
X633861D01*
X631322Y464446D01*
Y469525D01*
X633861Y472064D01*
X646557Y456829D02*
Y451750D01*
Y454290D01*
X631322D01*
X633861Y456829D01*
X95377Y485163D02*
X80142D01*
Y477545D01*
X82681Y475006D01*
X87760D01*
X90299Y477545D01*
Y485163D01*
Y480084D02*
X95377Y475006D01*
Y459771D02*
Y469927D01*
X85220Y459771D01*
X82681D01*
X80142Y462310D01*
Y467388D01*
X82681Y469927D01*
Y454692D02*
X80142Y452153D01*
Y447075D01*
X82681Y444536D01*
X92838D01*
X95377Y447075D01*
Y452153D01*
X92838Y454692D01*
X82681D01*
X765683Y508381D02*
X780918D01*
Y515998D01*
X778379Y518538D01*
X773300D01*
X770761Y515998D01*
Y508381D01*
Y513459D02*
X765683Y518538D01*
Y523616D02*
Y528694D01*
Y526155D01*
X780918D01*
X778379Y523616D01*
X768222Y536312D02*
X765683Y538851D01*
Y543929D01*
X768222Y546469D01*
X778379D01*
X780918Y543929D01*
Y538851D01*
X778379Y536312D01*
X775840D01*
X773300Y538851D01*
Y546469D01*
X199263Y505841D02*
X214498D01*
Y513459D01*
X211959Y515998D01*
X206880D01*
X204341Y513459D01*
Y505841D01*
Y510919D02*
X199263Y515998D01*
Y521076D02*
Y526154D01*
Y523615D01*
X214498D01*
X211959Y521076D01*
Y533772D02*
X214498Y536311D01*
Y541390D01*
X211959Y543929D01*
X209420D01*
X206880Y541390D01*
X204341Y543929D01*
X201802D01*
X199263Y541390D01*
Y536311D01*
X201802Y533772D01*
X204341D01*
X206880Y536311D01*
X209420Y533772D01*
X211959D01*
X206880Y536311D02*
Y541390D01*
X796163Y508381D02*
X811398D01*
Y515998D01*
X808859Y518538D01*
X803781D01*
X801241Y515998D01*
Y508381D01*
Y513459D02*
X796163Y518538D01*
Y523616D02*
Y528694D01*
Y526155D01*
X811398D01*
X808859Y523616D01*
X811398Y536312D02*
Y546469D01*
X808859D01*
X798702Y536312D01*
X796163D01*
X239903Y505841D02*
X255138D01*
Y513459D01*
X252599Y515998D01*
X247521D01*
X244981Y513459D01*
Y505841D01*
Y510919D02*
X239903Y515998D01*
Y521076D02*
Y526154D01*
Y523615D01*
X255138D01*
X252599Y521076D01*
X255138Y543929D02*
X252599Y538850D01*
X247521Y533772D01*
X242442D01*
X239903Y536311D01*
Y541390D01*
X242442Y543929D01*
X244981D01*
X247521Y541390D01*
Y533772D01*
X689737Y485163D02*
X674502D01*
Y477545D01*
X677041Y475006D01*
X682120D01*
X684659Y477545D01*
Y485163D01*
Y480084D02*
X689737Y475006D01*
Y469927D02*
Y464849D01*
Y467388D01*
X674502D01*
X677041Y469927D01*
X674502Y447075D02*
Y457231D01*
X682120D01*
X679580Y452153D01*
Y449614D01*
X682120Y447075D01*
X687198D01*
X689737Y449614D01*
Y454692D01*
X687198Y457231D01*
X125857Y484759D02*
X110622D01*
Y477141D01*
X113161Y474602D01*
X118239D01*
X120779Y477141D01*
Y484759D01*
Y479681D02*
X125857Y474602D01*
Y469524D02*
Y464446D01*
Y466985D01*
X110622D01*
X113161Y469524D01*
X125857Y449211D02*
X110622D01*
X118239Y456828D01*
Y446671D01*
X768477Y484759D02*
X753242D01*
Y477141D01*
X755781Y474602D01*
X760860D01*
X763399Y477141D01*
Y484759D01*
Y479681D02*
X768477Y474602D01*
X765938Y469524D02*
X768477Y466985D01*
Y461906D01*
X765938Y459367D01*
X755781D01*
X753242Y461906D01*
Y466985D01*
X755781Y469524D01*
X758320D01*
X760860Y466985D01*
Y459367D01*
X196977Y487299D02*
X181742D01*
Y479682D01*
X184281Y477142D01*
X189359D01*
X191899Y479682D01*
Y487299D01*
Y482221D02*
X196977Y477142D01*
X184281Y472064D02*
X181742Y469525D01*
Y464446D01*
X184281Y461907D01*
X186820D01*
X189359Y464446D01*
X191899Y461907D01*
X194438D01*
X196977Y464446D01*
Y469525D01*
X194438Y472064D01*
X191899D01*
X189359Y469525D01*
X186820Y472064D01*
X184281D01*
X189359Y469525D02*
Y464446D01*
X605917Y486895D02*
X590682D01*
Y479278D01*
X593221Y476739D01*
X598299D01*
X600839Y479278D01*
Y486895D01*
Y481817D02*
X605917Y476739D01*
X590682Y471660D02*
Y461504D01*
X593221D01*
X603378Y471660D01*
X605917D01*
X42037Y485163D02*
X26802D01*
Y477545D01*
X29341Y475006D01*
X34420D01*
X36959Y477545D01*
Y485163D01*
Y480084D02*
X42037Y475006D01*
X26802Y459771D02*
X29341Y464849D01*
X34420Y469927D01*
X39498D01*
X42037Y467388D01*
Y462310D01*
X39498Y459771D01*
X36959D01*
X34420Y462310D01*
Y469927D01*
X732663Y507977D02*
X747898D01*
Y515595D01*
X745359Y518134D01*
X740281D01*
X737741Y515595D01*
Y507977D01*
Y513056D02*
X732663Y518134D01*
X747898Y533369D02*
Y523213D01*
X740281D01*
X742820Y528291D01*
Y530830D01*
X740281Y533369D01*
X735202D01*
X732663Y530830D01*
Y525752D01*
X735202Y523213D01*
X163703Y506245D02*
X178938D01*
Y513862D01*
X176399Y516401D01*
X171320D01*
X168781Y513862D01*
Y506245D01*
Y511323D02*
X163703Y516401D01*
Y529097D02*
X178938D01*
X171320Y521480D01*
Y531636D01*
X656463Y506245D02*
X671698D01*
Y513862D01*
X669159Y516401D01*
X664081D01*
X661541Y513862D01*
Y506245D01*
Y511323D02*
X656463Y516401D01*
X669159Y521480D02*
X671698Y524019D01*
Y529097D01*
X669159Y531636D01*
X666620D01*
X664081Y529097D01*
Y526558D01*
Y529097D01*
X661541Y531636D01*
X659002D01*
X656463Y529097D01*
Y524019D01*
X659002Y521480D01*
X84963Y506245D02*
X100198D01*
Y513862D01*
X97659Y516401D01*
X92580D01*
X90041Y513862D01*
Y506245D01*
Y511323D02*
X84963Y516401D01*
Y531636D02*
Y521480D01*
X95120Y531636D01*
X97659D01*
X100198Y529097D01*
Y524019D01*
X97659Y521480D01*
X327533Y560451D02*
Y575686D01*
X319916D01*
X317376Y573147D01*
Y568069D01*
X319916Y565529D01*
X327533D01*
X322455D02*
X317376Y560451D01*
X312298D02*
X307220D01*
X309759D01*
Y575686D01*
X312298Y573147D01*
X626107Y584198D02*
X631185D01*
X628646D01*
Y571502D01*
X631185Y568963D01*
X633725D01*
X636264Y571502D01*
X621029Y568963D02*
X615950D01*
X618490D01*
Y584198D01*
X621029Y581658D01*
X598176Y568963D02*
X608333D01*
X598176Y579119D01*
Y581658D01*
X600715Y584198D01*
X605794D01*
X608333Y581658D01*
X96693Y84888D02*
Y89966D01*
Y87427D01*
X109389D01*
X111928Y89966D01*
Y92505D01*
X109389Y95044D01*
X111928Y79809D02*
Y74731D01*
Y77270D01*
X96693D01*
X99232Y79809D01*
X111928Y67113D02*
Y62035D01*
Y64574D01*
X96693D01*
X99232Y67113D01*
X80177Y169977D02*
X85256D01*
X82717D01*
Y157282D01*
X85256Y154742D01*
X87795D01*
X90334Y157282D01*
X75099Y154742D02*
X70021D01*
X72560D01*
Y169977D01*
X75099Y167438D01*
X62403D02*
X59864Y169977D01*
X54785D01*
X52246Y167438D01*
Y157282D01*
X54785Y154742D01*
X59864D01*
X62403Y157282D01*
Y167438D01*
X93774Y239198D02*
Y244277D01*
Y241737D01*
X106470D01*
X109009Y244277D01*
Y246816D01*
X106470Y249355D01*
Y234120D02*
X109009Y231581D01*
Y226502D01*
X106470Y223963D01*
X96313D01*
X93774Y226502D01*
Y231581D01*
X96313Y234120D01*
X98852D01*
X101391Y231581D01*
Y223963D01*
X91234Y142678D02*
Y147757D01*
Y145217D01*
X103930D01*
X106469Y147757D01*
Y150296D01*
X103930Y152835D01*
X93773Y137600D02*
X91234Y135061D01*
Y129982D01*
X93773Y127443D01*
X96313D01*
X98852Y129982D01*
X101391Y127443D01*
X103930D01*
X106469Y129982D01*
Y135061D01*
X103930Y137600D01*
X101391D01*
X98852Y135061D01*
X96313Y137600D01*
X93773D01*
X98852Y135061D02*
Y129982D01*
X169634Y140538D02*
Y145617D01*
Y143077D01*
X182330D01*
X184869Y145617D01*
Y148156D01*
X182330Y150695D01*
X169634Y135460D02*
Y125303D01*
X172173D01*
X182330Y135460D01*
X184869D01*
X955424Y272410D02*
X960503D01*
X957963D01*
Y259714D01*
X960503Y257175D01*
X963042D01*
X965581Y259714D01*
X940189Y272410D02*
X945268Y269871D01*
X950346Y264792D01*
Y259714D01*
X947807Y257175D01*
X942728D01*
X940189Y259714D01*
Y262253D01*
X942728Y264792D01*
X950346D01*
X1059008Y258881D02*
Y253803D01*
Y256342D01*
X1046312D01*
X1043773Y253803D01*
Y251263D01*
X1046312Y248724D01*
X1043773Y271577D02*
X1059008D01*
X1051390Y263959D01*
Y274116D01*
X1015828Y80646D02*
Y75567D01*
Y78107D01*
X1003132D01*
X1000592Y75567D01*
Y73028D01*
X1003132Y70489D01*
X1013288Y85724D02*
X1015828Y88263D01*
Y93342D01*
X1013288Y95881D01*
X1010749D01*
X1008210Y93342D01*
Y90802D01*
Y93342D01*
X1005671Y95881D01*
X1003132D01*
X1000592Y93342D01*
Y88263D01*
X1003132Y85724D01*
X169804Y236858D02*
Y241937D01*
Y239398D01*
X182500D01*
X185039Y241937D01*
Y244476D01*
X182500Y247015D01*
X185039Y221623D02*
Y231780D01*
X174882Y221623D01*
X172343D01*
X169804Y224162D01*
Y229241D01*
X172343Y231780D01*
X731520Y690878D02*
X736598D01*
X734059D01*
Y678182D01*
X736598Y675642D01*
X739137D01*
X741677Y678182D01*
X726442Y675642D02*
X721363D01*
X723902D01*
Y690878D01*
X726442Y688338D01*
X828163Y354072D02*
X830702Y351533D01*
Y346454D01*
X828163Y343915D01*
X818006D01*
X815467Y346454D01*
Y351533D01*
X818006Y354072D01*
X830702Y369307D02*
X828163Y364228D01*
X823085Y359150D01*
X818006D01*
X815467Y361689D01*
Y366768D01*
X818006Y369307D01*
X820545D01*
X823085Y366768D01*
Y359150D01*
X470023Y360932D02*
X472562Y358393D01*
Y353314D01*
X470023Y350775D01*
X459866D01*
X457327Y353314D01*
Y358393D01*
X459866Y360932D01*
X472562Y376167D02*
Y366010D01*
X464945D01*
X467484Y371088D01*
Y373628D01*
X464945Y376167D01*
X459866D01*
X457327Y373628D01*
Y368549D01*
X459866Y366010D01*
X1082163Y366012D02*
X1084702Y363473D01*
Y358394D01*
X1082163Y355855D01*
X1072006D01*
X1069467Y358394D01*
Y363473D01*
X1072006Y366012D01*
X1069467Y378708D02*
X1084702D01*
X1077085Y371090D01*
Y381247D01*
X317623Y429892D02*
X320162Y427352D01*
Y422274D01*
X317623Y419735D01*
X307466D01*
X304927Y422274D01*
Y427352D01*
X307466Y429892D01*
X317623Y434970D02*
X320162Y437509D01*
Y442588D01*
X317623Y445127D01*
X315084D01*
X312544Y442588D01*
Y440048D01*
Y442588D01*
X310005Y445127D01*
X307466D01*
X304927Y442588D01*
Y437509D01*
X307466Y434970D01*
X96397Y647068D02*
X93858Y649607D01*
Y654686D01*
X96397Y657225D01*
X106554D01*
X109093Y654686D01*
Y649607D01*
X106554Y647068D01*
X109093Y631833D02*
Y641990D01*
X98936Y631833D01*
X96397D01*
X93858Y634372D01*
Y639451D01*
X96397Y641990D01*
X50677Y654058D02*
X48138Y656598D01*
Y661676D01*
X50677Y664215D01*
X60834D01*
X63373Y661676D01*
Y656598D01*
X60834Y654058D01*
X63373Y648980D02*
Y643902D01*
Y646441D01*
X48138D01*
X50677Y648980D01*
X919856Y58039D02*
X904621D01*
Y65656D01*
X907160Y68196D01*
X909699D01*
X912238Y65656D01*
Y58039D01*
Y65656D01*
X914778Y68196D01*
X917317D01*
X919856Y65656D01*
Y58039D01*
X904621Y73274D02*
Y78352D01*
Y75813D01*
X919856D01*
X917317Y73274D01*
D57*
X767320Y621800D02*
G03*
X767320Y621800I-1250J0D01*
G01*
X741920Y698000D02*
G03*
X741920Y698000I-1250J0D01*
G01*
X609840Y698000D02*
G03*
X609840Y698000I-1250J0D01*
G01*
X583550Y386930D02*
G03*
X583550Y386930I-1250J0D01*
G01*
X177150Y384390D02*
G03*
X177150Y384390I-1250J0D01*
G01*
X307960Y387780D02*
G03*
X307960Y387780I-1250J0D01*
G01*
X59670Y251830D02*
G03*
X59670Y251830I-1250J0D01*
G01*
X143490Y249290D02*
G03*
X143490Y249290I-1250J0D01*
G01*
X219520Y246950D02*
G03*
X219520Y246950I-1250J0D01*
G01*
X59670Y150230D02*
G03*
X59670Y150230I-1250J0D01*
G01*
X140950Y152770D02*
G03*
X140950Y152770I-1250J0D01*
G01*
X219350Y150630D02*
G03*
X219350Y150630I-1250J0D01*
G01*
X440890Y653620D02*
G03*
X440890Y653620I-1250J0D01*
G01*
X850250Y384390D02*
G03*
X850250Y384390I-1250J0D01*
G01*
X254101Y659130D02*
G03*
X254101Y659130I-1250J0D01*
G01*
X293350Y733560D02*
G03*
X293350Y733560I-1250J0D01*
G01*
X440890Y727280D02*
G03*
X440890Y727280I-1250J0D01*
G01*
X1055520Y65470D02*
G03*
X1055520Y65470I-1250J0D01*
G01*
Y164530D02*
G03*
X1055520Y164530I-1250J0D01*
G01*
X944260Y143370D02*
G03*
X944260Y143370I-1250J0D01*
G01*
X607450Y622300D02*
G03*
X607450Y622300I-1250J0D01*
G01*
D58*
X341360Y250140D02*
G03*
X340360Y250140I-500J0D01*
G01*
D02*
G03*
X341360Y250140I500J0D01*
G01*
D02*
G03*
X340360Y250140I-500J0D01*
G01*
X771320Y598800D02*
Y656300D01*
X870320D01*
Y598800D02*
Y656300D01*
X771320Y598800D02*
X870320D01*
X745920Y675000D02*
Y732500D01*
X844920D01*
Y675000D02*
Y732500D01*
X745920Y675000D02*
X844920D01*
X613840D02*
X712840D01*
Y732500D01*
X613840D02*
X712840D01*
X613840Y675000D02*
Y732500D01*
X276860Y66040D02*
Y243840D01*
Y66040D02*
X886460D01*
Y243840D01*
X276860D02*
X886460D01*
X585000Y376680D02*
X685000D01*
X585000Y344680D02*
X685000D01*
X585000D02*
Y376680D01*
X685000Y344680D02*
Y376680D01*
X178600Y374140D02*
X278600D01*
X178600Y342140D02*
X278600D01*
X178600D02*
Y374140D01*
X278600Y342140D02*
Y374140D01*
X309410Y377530D02*
X409410D01*
X309410Y345530D02*
X409410D01*
X309410D02*
Y377530D01*
X409410Y345530D02*
Y377530D01*
X34920Y171080D02*
Y245080D01*
Y171080D02*
X92420D01*
Y245080D01*
X34920D02*
X92420D01*
X118740Y168540D02*
Y242540D01*
Y168540D02*
X176240D01*
Y242540D01*
X118740D02*
X176240D01*
X194770Y166200D02*
Y240200D01*
Y166200D02*
X252270D01*
Y240200D01*
X194770D02*
X252270D01*
X34920Y69480D02*
Y143480D01*
Y69480D02*
X92420D01*
Y143480D01*
X34920D02*
X92420D01*
X116200Y72020D02*
Y146020D01*
Y72020D02*
X173700D01*
Y146020D01*
X116200D02*
X173700D01*
X194600Y69880D02*
Y143880D01*
Y69880D02*
X252100D01*
Y143880D01*
X194600D02*
X252100D01*
X1012809Y448220D02*
Y476340D01*
X1034431Y448220D02*
Y476340D01*
X112411Y510569D02*
Y538691D01*
X90789Y510569D02*
Y538691D01*
X169529Y452150D02*
Y480271D01*
X191151Y452150D02*
Y480271D01*
X683911Y513110D02*
Y541231D01*
X662289Y513110D02*
Y541231D01*
X738489Y448220D02*
Y476340D01*
X760111Y448220D02*
Y476340D01*
X396891Y509180D02*
Y537300D01*
X375269Y509180D02*
Y537300D01*
X963311Y517949D02*
Y546071D01*
X941689Y517949D02*
Y546071D01*
X454009Y454449D02*
Y482570D01*
X475631Y454449D02*
Y482570D01*
X433140Y619120D02*
X537140D01*
X433140Y614120D02*
Y660120D01*
X537140D01*
Y614120D02*
Y660120D01*
X433140Y614120D02*
X537140D01*
X189581Y509249D02*
Y542311D01*
X166019Y509249D02*
Y542311D01*
X656239Y450829D02*
Y483891D01*
X679801Y450829D02*
Y483891D01*
X105059Y448693D02*
Y481755D01*
X128621Y448693D02*
Y481755D01*
X918561Y508845D02*
Y541908D01*
X894999Y508845D02*
Y541908D01*
X359761Y509249D02*
Y542311D01*
X336199Y509249D02*
Y542311D01*
X994761Y516465D02*
Y549528D01*
X971199Y516465D02*
Y549528D01*
X430881Y509249D02*
Y542311D01*
X407319Y509249D02*
Y542311D01*
X900079Y445345D02*
Y478408D01*
X923641Y445345D02*
Y478408D01*
X331119Y452965D02*
Y486027D01*
X354681Y452965D02*
Y486027D01*
X1044859Y448289D02*
Y481351D01*
X1068421Y448289D02*
Y481351D01*
X488599Y453369D02*
Y486431D01*
X512161Y453369D02*
Y486431D01*
X983899Y446152D02*
Y479215D01*
X1007461Y446152D02*
Y479215D01*
X420019Y452965D02*
Y486027D01*
X443581Y452965D02*
Y486027D01*
X1063341Y516869D02*
Y549931D01*
X1039779Y516869D02*
Y549931D01*
X517241Y509249D02*
Y542311D01*
X493679Y509249D02*
Y542311D01*
X1027781Y516869D02*
Y549931D01*
X1004219Y516869D02*
Y549931D01*
X953419Y446152D02*
Y479215D01*
X976981Y446152D02*
Y479215D01*
X463901Y508845D02*
Y541908D01*
X440339Y508845D02*
Y541908D01*
X386999Y453773D02*
Y486835D01*
X410561Y453773D02*
Y486835D01*
X951700Y342140D02*
Y374140D01*
X851700Y342140D02*
Y374140D01*
Y342140D02*
X951700D01*
X851700Y374140D02*
X951700D01*
X154021Y509652D02*
Y542715D01*
X130459Y509652D02*
Y542715D01*
X615599Y450425D02*
Y483488D01*
X639161Y450425D02*
Y483488D01*
X51719Y448693D02*
Y481755D01*
X75281Y448693D02*
Y481755D01*
X778159Y448289D02*
Y481351D01*
X801721Y448289D02*
Y481351D01*
X206659Y450829D02*
Y483891D01*
X230221Y450829D02*
Y483891D01*
X699419Y448693D02*
Y481755D01*
X722981Y448693D02*
Y481755D01*
X786481Y511789D02*
Y544851D01*
X762919Y511789D02*
Y544851D01*
X230221Y509249D02*
Y542311D01*
X206659Y509249D02*
Y542311D01*
X756001Y511789D02*
Y544851D01*
X732439Y511789D02*
Y544851D01*
X135539Y448289D02*
Y481351D01*
X159101Y448289D02*
Y481351D01*
X646781Y509652D02*
Y542715D01*
X623219Y509652D02*
Y542715D01*
X75281Y509652D02*
Y542715D01*
X51719Y509652D02*
Y542715D01*
X722981Y511385D02*
Y544448D01*
X699419Y511385D02*
Y544448D01*
X303840Y549020D02*
X310840D01*
X303840Y533020D02*
X310840D01*
X220307Y615580D02*
Y664580D01*
X201333Y615580D02*
X220307D01*
X201333D02*
Y664580D01*
X220307D01*
X284150Y708560D02*
X285350D01*
X400450D02*
X401650D01*
Y632560D02*
Y708560D01*
X284150Y632560D02*
X285350D01*
X400450D02*
X401650D01*
X284150D02*
Y708560D01*
X433140Y692780D02*
X537140D01*
X433140Y687780D02*
Y733780D01*
X537140D01*
Y687780D02*
Y733780D01*
X433140Y687780D02*
X537140D01*
X1020270Y72220D02*
X1077770D01*
X1020270D02*
Y146220D01*
X1077770D01*
Y72220D02*
Y146220D01*
X1020270Y171280D02*
X1077770D01*
X1020270D02*
Y245280D01*
X1077770D01*
Y171280D02*
Y245280D01*
X908510Y148620D02*
X966010D01*
X908510D02*
Y247620D01*
X966010D01*
Y148620D02*
Y247620D01*
X735700Y598800D02*
Y656300D01*
X611700Y598800D02*
X735700D01*
X611700D02*
Y656300D01*
X735700D01*
D59*
X598000Y366680D02*
G03*
X598000Y366680I-3000J0D01*
G01*
X191600Y364140D02*
G03*
X191600Y364140I-3000J0D01*
G01*
X322410Y367530D02*
G03*
X322410Y367530I-3000J0D01*
G01*
X864700Y364140D02*
G03*
X864700Y364140I-3000J0D01*
G01*
D60*
X201780Y718660D02*
Y730120D01*
X87780D02*
X201780D01*
X87780Y718660D02*
Y730120D01*
Y682120D02*
Y693580D01*
Y682120D02*
X201780D01*
Y693580D01*
M02*
