G04*
G04 #@! TF.GenerationSoftware,Altium Limited,Altium Designer,22.10.1 (41)*
G04*
G04 Layer_Color=16711935*
%FSLAX44Y44*%
%MOMM*%
G71*
G04*
G04 #@! TF.SameCoordinates,F6FD88A5-7606-448C-B8D5-CB5F8BF09B0B*
G04*
G04*
G04 #@! TF.FilePolarity,Positive*
G04*
G01*
G75*
%ADD10C,0.2540*%
%ADD61C,0.1500*%
D10*
X459486Y289560D02*
G03*
X459486Y289560I-30988J0D01*
G01*
X744728D02*
G03*
X744728Y289560I-30988J0D01*
G01*
X10160Y53340D02*
X1125220D01*
X10160Y746760D02*
X1125220D01*
Y53340D02*
Y746760D01*
X10160Y53340D02*
Y746760D01*
X40640Y337312D02*
X45720Y332232D01*
D61*
X630193Y375990D02*
X636857D01*
X638190Y374657D01*
Y371991D01*
X636857Y370658D01*
X630193D01*
Y362661D02*
Y367993D01*
X634191D01*
X632858Y365327D01*
Y363994D01*
X634191Y362661D01*
X636857D01*
X638190Y363994D01*
Y366660D01*
X636857Y367993D01*
X223793Y373450D02*
X230457D01*
X231790Y372117D01*
Y369451D01*
X230457Y368118D01*
X223793D01*
X231790Y360121D02*
Y365453D01*
X226458Y360121D01*
X225126D01*
X223793Y361454D01*
Y364120D01*
X225126Y365453D01*
X354603Y376840D02*
X361267D01*
X362600Y375507D01*
Y372841D01*
X361267Y371508D01*
X354603D01*
Y363511D02*
X355936Y366177D01*
X358601Y368843D01*
X361267D01*
X362600Y367510D01*
Y364844D01*
X361267Y363511D01*
X359934D01*
X358601Y364844D01*
Y368843D01*
X893703Y345440D02*
X900367D01*
X901700Y344107D01*
Y341441D01*
X900367Y340108D01*
X893703D01*
Y337443D02*
Y332111D01*
X895035D01*
X900367Y337443D01*
X901700D01*
M02*
