G04*
G04 #@! TF.GenerationSoftware,Altium Limited,Altium Designer,22.10.1 (41)*
G04*
G04 Layer_Color=16711935*
%FSLAX44Y44*%
%MOMM*%
G71*
G04*
G04 #@! TF.SameCoordinates,4CDF153F-0075-4D10-A07D-334E842CD810*
G04*
G04*
G04 #@! TF.FilePolarity,Positive*
G04*
G01*
G75*
%ADD10C,0.2540*%
%ADD59C,0.1500*%
D10*
X1270D02*
X1134110D01*
X1270Y746760D02*
X1134110D01*
Y0D02*
Y746760D01*
X1270Y0D02*
Y746760D01*
D59*
X419373Y370910D02*
X426037D01*
X427370Y369577D01*
Y366911D01*
X426037Y365578D01*
X419373D01*
Y357581D02*
X420705Y360247D01*
X423371Y362913D01*
X426037D01*
X427370Y361580D01*
Y358914D01*
X426037Y357581D01*
X424704D01*
X423371Y358914D01*
Y362913D01*
X972443Y342900D02*
X979107D01*
X980440Y341567D01*
Y338901D01*
X979107Y337568D01*
X972443D01*
Y334903D02*
Y329571D01*
X973775D01*
X979107Y334903D01*
X980440D01*
X720363Y372600D02*
X727027D01*
X728360Y371267D01*
Y368601D01*
X727027Y367268D01*
X720363D01*
Y359271D02*
Y364603D01*
X724361D01*
X723028Y361937D01*
Y360604D01*
X724361Y359271D01*
X727027D01*
X728360Y360604D01*
Y363270D01*
X727027Y364603D01*
X155213Y370910D02*
X161877D01*
X163210Y369577D01*
Y366911D01*
X161877Y365578D01*
X155213D01*
X163210Y357581D02*
Y362913D01*
X157878Y357581D01*
X156545D01*
X155213Y358914D01*
Y361580D01*
X156545Y362913D01*
M02*
