G04*
G04 #@! TF.GenerationSoftware,Altium Limited,Altium Designer,22.10.1 (41)*
G04*
G04 Layer_Color=16711935*
%FSLAX44Y44*%
%MOMM*%
G71*
G04*
G04 #@! TF.SameCoordinates,F6FD88A5-7606-448C-B8D5-CB5F8BF09B0B*
G04*
G04*
G04 #@! TF.FilePolarity,Positive*
G04*
G01*
G75*
%ADD58C,0.2000*%
%ADD62C,0.1000*%
%ADD63C,0.0500*%
D58*
X770320Y597800D02*
Y657300D01*
X871320D01*
Y597800D02*
Y657300D01*
X770320Y597800D02*
X871320D01*
X744920Y674000D02*
Y733500D01*
X845920D01*
Y674000D02*
Y733500D01*
X744920Y674000D02*
X845920D01*
X612840Y674000D02*
X713840D01*
Y733500D01*
X612840D02*
X713840D01*
X612840Y674000D02*
Y733500D01*
X33920Y170080D02*
Y246080D01*
Y170080D02*
X93420D01*
Y246080D01*
X33920D02*
X93420D01*
X117740Y167540D02*
Y243540D01*
Y167540D02*
X177240D01*
Y243540D01*
X117740D02*
X177240D01*
X193770Y165200D02*
Y241200D01*
Y165200D02*
X253270D01*
Y241200D01*
X193770D02*
X253270D01*
X33920Y68480D02*
Y144480D01*
Y68480D02*
X93420D01*
Y144480D01*
X33920D02*
X93420D01*
X115200Y71020D02*
Y147020D01*
Y71020D02*
X174700D01*
Y147020D01*
X115200D02*
X174700D01*
X193600Y68880D02*
Y144880D01*
Y68880D02*
X253100D01*
Y144880D01*
X193600D02*
X253100D01*
X1014309Y478841D02*
X1032931D01*
Y445719D02*
Y478841D01*
X1014309Y445719D02*
X1032931D01*
X1014309D02*
Y478841D01*
X92289Y508070D02*
X110911D01*
X92289D02*
Y541191D01*
X110911D01*
Y508070D02*
Y541191D01*
X171029Y482771D02*
X189651D01*
Y449650D02*
Y482771D01*
X171029Y449650D02*
X189651D01*
X171029D02*
Y482771D01*
X663789Y510610D02*
X682411D01*
X663789D02*
Y543731D01*
X682411D01*
Y510610D02*
Y543731D01*
X739989Y478841D02*
X758611D01*
Y445719D02*
Y478841D01*
X739989Y445719D02*
X758611D01*
X739989D02*
Y478841D01*
X376769Y506679D02*
X395391D01*
X376769D02*
Y539801D01*
X395391D01*
Y506679D02*
Y539801D01*
X943189Y515449D02*
X961811D01*
X943189D02*
Y548570D01*
X961811D01*
Y515449D02*
Y548570D01*
X455509Y485070D02*
X474131D01*
Y451949D02*
Y485070D01*
X455509Y451949D02*
X474131D01*
X455509D02*
Y485070D01*
X165019Y504249D02*
X190581D01*
X165019D02*
Y547311D01*
X190581D01*
Y504249D02*
Y547311D01*
X655239Y488891D02*
X680801D01*
Y445829D02*
Y488891D01*
X655239Y445829D02*
X680801D01*
X655239D02*
Y488891D01*
X104059Y486754D02*
X129621D01*
Y443692D02*
Y486754D01*
X104059Y443692D02*
X129621D01*
X104059D02*
Y486754D01*
X893999Y503846D02*
X919561D01*
X893999D02*
Y546908D01*
X919561D01*
Y503846D02*
Y546908D01*
X335199Y504249D02*
X360761D01*
X335199D02*
Y547311D01*
X360761D01*
Y504249D02*
Y547311D01*
X970199Y511466D02*
X995761D01*
X970199D02*
Y554528D01*
X995761D01*
Y511466D02*
Y554528D01*
X406319Y504249D02*
X431881D01*
X406319D02*
Y547311D01*
X431881D01*
Y504249D02*
Y547311D01*
X899079Y483408D02*
X924641D01*
Y440346D02*
Y483408D01*
X899079Y440346D02*
X924641D01*
X899079D02*
Y483408D01*
X330119Y491028D02*
X355681D01*
Y447966D02*
Y491028D01*
X330119Y447966D02*
X355681D01*
X330119D02*
Y491028D01*
X1043859Y486351D02*
X1069421D01*
Y443289D02*
Y486351D01*
X1043859Y443289D02*
X1069421D01*
X1043859D02*
Y486351D01*
X487599Y491431D02*
X513161D01*
Y448369D02*
Y491431D01*
X487599Y448369D02*
X513161D01*
X487599D02*
Y491431D01*
X982899Y484214D02*
X1008461D01*
Y441152D02*
Y484214D01*
X982899Y441152D02*
X1008461D01*
X982899D02*
Y484214D01*
X419019Y491028D02*
X444581D01*
Y447966D02*
Y491028D01*
X419019Y447966D02*
X444581D01*
X419019D02*
Y491028D01*
X1038779Y511869D02*
X1064341D01*
X1038779D02*
Y554931D01*
X1064341D01*
Y511869D02*
Y554931D01*
X492679Y504249D02*
X518241D01*
X492679D02*
Y547311D01*
X518241D01*
Y504249D02*
Y547311D01*
X1003219Y511869D02*
X1028781D01*
X1003219D02*
Y554931D01*
X1028781D01*
Y511869D02*
Y554931D01*
X952419Y484214D02*
X977981D01*
Y441152D02*
Y484214D01*
X952419Y441152D02*
X977981D01*
X952419D02*
Y484214D01*
X439339Y503846D02*
X464901D01*
X439339D02*
Y546908D01*
X464901D01*
Y503846D02*
Y546908D01*
X385999Y491834D02*
X411561D01*
Y448772D02*
Y491834D01*
X385999Y448772D02*
X411561D01*
X385999D02*
Y491834D01*
X129459Y504652D02*
X155021D01*
X129459D02*
Y547714D01*
X155021D01*
Y504652D02*
Y547714D01*
X614599Y488488D02*
X640161D01*
Y445426D02*
Y488488D01*
X614599Y445426D02*
X640161D01*
X614599D02*
Y488488D01*
X50719Y486754D02*
X76281D01*
Y443692D02*
Y486754D01*
X50719Y443692D02*
X76281D01*
X50719D02*
Y486754D01*
X777159Y486351D02*
X802721D01*
Y443289D02*
Y486351D01*
X777159Y443289D02*
X802721D01*
X777159D02*
Y486351D01*
X205659Y488891D02*
X231221D01*
Y445829D02*
Y488891D01*
X205659Y445829D02*
X231221D01*
X205659D02*
Y488891D01*
X698419Y486754D02*
X723981D01*
Y443692D02*
Y486754D01*
X698419Y443692D02*
X723981D01*
X698419D02*
Y486754D01*
X761919Y506789D02*
X787481D01*
X761919D02*
Y549851D01*
X787481D01*
Y506789D02*
Y549851D01*
X205659Y504249D02*
X231221D01*
X205659D02*
Y547311D01*
X231221D01*
Y504249D02*
Y547311D01*
X731439Y506789D02*
X757001D01*
X731439D02*
Y549851D01*
X757001D01*
Y506789D02*
Y549851D01*
X134539Y486351D02*
X160101D01*
Y443289D02*
Y486351D01*
X134539Y443289D02*
X160101D01*
X134539D02*
Y486351D01*
X622219Y504652D02*
X647781D01*
X622219D02*
Y547714D01*
X647781D01*
Y504652D02*
Y547714D01*
X50719Y504652D02*
X76281D01*
X50719D02*
Y547714D01*
X76281D01*
Y504652D02*
Y547714D01*
X698419Y506386D02*
X723981D01*
X698419D02*
Y549448D01*
X723981D01*
Y506386D02*
Y549448D01*
X252351Y610580D02*
Y669580D01*
X169289Y610580D02*
X252351D01*
X169289D02*
Y669580D01*
X252351D01*
X281650Y728060D02*
X404150D01*
Y613060D02*
Y728060D01*
X281650Y613060D02*
X404150D01*
X281650D02*
Y728060D01*
X1019270Y71220D02*
X1078770D01*
X1019270D02*
Y147220D01*
X1078770D01*
Y71220D02*
Y147220D01*
X1019270Y170280D02*
X1078770D01*
X1019270D02*
Y246280D01*
X1078770D01*
Y170280D02*
Y246280D01*
X907510Y147620D02*
X967010D01*
X907510D02*
Y248620D01*
X967010D01*
Y147620D02*
Y248620D01*
X736700Y597800D02*
Y657300D01*
X610700Y597800D02*
X736700D01*
X610700D02*
Y657300D01*
X736700D01*
D62*
X276860Y66040D02*
Y243840D01*
Y66040D02*
X886460D01*
Y243840D01*
X276860D02*
X886460D01*
X635000Y355680D02*
Y365680D01*
X630000Y360680D02*
X640000D01*
X228600Y353140D02*
Y363140D01*
X223600Y358140D02*
X233600D01*
X287020Y429340D02*
Y439340D01*
X282020Y434340D02*
X292020D01*
X359410Y356530D02*
Y366530D01*
X354410Y361530D02*
X364410D01*
X561420Y690260D02*
X571420D01*
X566420Y685260D02*
Y695260D01*
X563960Y723900D02*
X573960D01*
X568960Y718900D02*
Y728900D01*
X480140Y642620D02*
X490140D01*
X485140Y637620D02*
Y647620D01*
X558880Y602600D02*
X568880D01*
X563880Y597599D02*
Y607600D01*
X558880Y644540D02*
X568880D01*
X563880Y639540D02*
Y649540D01*
X1046560Y370460D02*
X1056560D01*
X1051560Y365460D02*
Y375460D01*
X792560Y358520D02*
X802560D01*
X797560Y353520D02*
Y363520D01*
X434420Y365380D02*
X444420D01*
X439420Y360380D02*
Y370380D01*
X896700Y358140D02*
X906700D01*
X901700Y353140D02*
Y363140D01*
X302340Y541020D02*
X312340D01*
X307340Y536020D02*
Y546020D01*
X122000Y642620D02*
X132000D01*
X127000Y637620D02*
Y647620D01*
X76280Y649610D02*
X86280D01*
X81280Y644610D02*
Y654610D01*
X480140Y716280D02*
X490140D01*
X485140Y711280D02*
Y721280D01*
D63*
X584000Y394180D02*
X686000D01*
X584000Y327180D02*
X686000D01*
X584000D02*
Y394180D01*
X686000Y327180D02*
Y394180D01*
X177600Y391640D02*
X279600D01*
X177600Y324640D02*
X279600D01*
X177600D02*
Y391640D01*
X279600Y324640D02*
Y391640D01*
X277020Y417340D02*
X297020D01*
X277020Y451340D02*
X297020D01*
Y417340D02*
Y451340D01*
X277020Y417340D02*
Y451340D01*
X308410Y395030D02*
X410410D01*
X308410Y328030D02*
X410410D01*
X308410D02*
Y395030D01*
X410410Y328030D02*
Y395030D01*
X557920Y676760D02*
Y703760D01*
X574920Y676760D02*
Y703760D01*
X557920D02*
X574920D01*
X557920Y676760D02*
X574920D01*
X560460Y710400D02*
Y737400D01*
X577460Y710400D02*
Y737400D01*
X560460D02*
X577460D01*
X560460Y710400D02*
X577460D01*
X555380Y589100D02*
Y616100D01*
X572380Y589100D02*
Y616100D01*
X555380D02*
X572380D01*
X555380Y589100D02*
X572380D01*
X555380Y631040D02*
Y658040D01*
X572380Y631040D02*
Y658040D01*
X555380D02*
X572380D01*
X555380Y631040D02*
X572380D01*
X1041560Y353460D02*
Y387460D01*
X1061560Y353460D02*
Y387460D01*
X1041560D02*
X1061560D01*
X1041560Y353460D02*
X1061560D01*
X787560Y341520D02*
Y375520D01*
X807560Y341520D02*
Y375520D01*
X787560D02*
X807560D01*
X787560Y341520D02*
X807560D01*
X429420Y348380D02*
Y382380D01*
X449420Y348380D02*
Y382380D01*
X429420D02*
X449420D01*
X429420Y348380D02*
X449420D01*
X952700Y324640D02*
Y391640D01*
X850700Y324640D02*
Y391640D01*
Y324640D02*
X952700D01*
X850700Y391640D02*
X952700D01*
X329840Y529520D02*
Y552520D01*
X284840Y529520D02*
Y552520D01*
X329840D01*
X284840Y529520D02*
X329840D01*
X137000Y625620D02*
Y659620D01*
X117000Y625620D02*
Y659620D01*
Y625620D02*
X137000D01*
X117000Y659620D02*
X137000D01*
X91280Y632610D02*
Y666610D01*
X71280Y632610D02*
Y666610D01*
Y632610D02*
X91280D01*
X71280Y666610D02*
X91280D01*
X85280Y732620D02*
X204280D01*
X85280Y718620D02*
Y732620D01*
X67280Y718620D02*
X85280D01*
X67280Y693620D02*
Y718620D01*
Y693620D02*
X85280D01*
Y679620D02*
Y693620D01*
Y679620D02*
X204280D01*
Y693620D01*
X222280D01*
Y718620D01*
X204280D02*
X222280D01*
X204280D02*
Y732620D01*
M02*
