G04*
G04 #@! TF.GenerationSoftware,Altium Limited,Altium Designer,22.10.1 (41)*
G04*
G04 Layer_Physical_Order=1*
G04 Layer_Color=255*
%FSLAX44Y44*%
%MOMM*%
G71*
G04*
G04 #@! TF.SameCoordinates,4CDF153F-0075-4D10-A07D-334E842CD810*
G04*
G04*
G04 #@! TF.FilePolarity,Positive*
G04*
G01*
G75*
%ADD10C,0.2540*%
%ADD11R,1.0000X1.3500*%
%ADD12R,1.3500X1.0000*%
%ADD15R,1.5500X1.5500*%
%ADD16C,1.5500*%
%ADD22C,1.4000*%
%ADD23R,1.4000X1.4000*%
%ADD27C,0.3048*%
%ADD28C,0.1524*%
%ADD29C,0.3810*%
%ADD30C,1.6650*%
%ADD31R,2.0320X2.5400*%
%ADD32O,2.0320X2.5400*%
%ADD33C,1.7000*%
%ADD34R,1.7000X1.7000*%
%ADD35C,0.7620*%
%ADD36C,0.4064*%
%ADD37C,1.2700*%
G36*
X909260Y638285D02*
Y521073D01*
X907990Y520366D01*
X906571Y520954D01*
X904449D01*
X902488Y520142D01*
X900988Y518642D01*
X900176Y516681D01*
Y514559D01*
X900988Y512598D01*
X902402Y511184D01*
Y366285D01*
X896797Y360680D01*
X894797D01*
X892837Y359868D01*
X891336Y358368D01*
X890524Y356407D01*
Y354285D01*
X891336Y352324D01*
X892837Y350824D01*
X894797Y350012D01*
X896919D01*
X898879Y350824D01*
X900380Y352324D01*
X901192Y354285D01*
Y356285D01*
X907708Y362800D01*
X907990Y363224D01*
X909260Y362839D01*
Y249306D01*
X909497Y248117D01*
X910171Y247109D01*
X910424Y246855D01*
X911433Y246181D01*
X912622Y245944D01*
X924411D01*
X963844Y206511D01*
Y79299D01*
X951214Y66668D01*
X951050Y66763D01*
X948882Y67344D01*
X946638D01*
X944470Y66763D01*
X944306Y66668D01*
X940622Y70353D01*
Y77107D01*
X941892Y77633D01*
X942526Y76999D01*
X944470Y75877D01*
X946638Y75296D01*
X946744D01*
Y83820D01*
Y92344D01*
X946638D01*
X944470Y91763D01*
X942526Y90641D01*
X941892Y90007D01*
X940622Y90533D01*
Y141336D01*
X956284D01*
Y158384D01*
X953971D01*
X953485Y159557D01*
X960006Y166077D01*
X960679Y167086D01*
X960916Y168275D01*
Y180366D01*
X960679Y181555D01*
X960006Y182563D01*
X954951Y187617D01*
X953943Y188291D01*
X952754Y188528D01*
X910844D01*
X909655Y188291D01*
X908646Y187617D01*
X893047Y172018D01*
X881162D01*
X880636Y173288D01*
X881641Y174293D01*
X882938Y176538D01*
X883609Y179043D01*
Y181637D01*
X882938Y184142D01*
X881641Y186387D01*
X879807Y188221D01*
X877562Y189518D01*
X875057Y190189D01*
X872463D01*
X869958Y189518D01*
X867713Y188221D01*
X866284Y186792D01*
X864946Y186828D01*
X864726Y186931D01*
X864528Y187229D01*
X851588Y200169D01*
Y220326D01*
X855004D01*
Y235398D01*
X856956D01*
Y220326D01*
X870004D01*
Y225492D01*
X897956D01*
Y220326D01*
X911004D01*
Y236874D01*
X897956D01*
Y231708D01*
X870004D01*
Y236874D01*
X866588D01*
Y238252D01*
X866351Y239441D01*
X865678Y240450D01*
X865424Y240704D01*
X864415Y241377D01*
X863226Y241614D01*
X804926D01*
X803737Y241377D01*
X802729Y240704D01*
X751184Y189159D01*
X750562Y189518D01*
X748057Y190189D01*
X745463D01*
X742958Y189518D01*
X740713Y188221D01*
X739708Y187216D01*
X738438Y187742D01*
Y296655D01*
X755981Y314198D01*
X757981D01*
X759941Y315010D01*
X761442Y316511D01*
X762254Y318471D01*
Y320593D01*
X761442Y322553D01*
X759941Y324054D01*
X757981Y324866D01*
X755859D01*
X753898Y324054D01*
X752398Y322553D01*
X751586Y320593D01*
Y318593D01*
X739611Y306618D01*
X738438Y307104D01*
Y357361D01*
X782069Y400993D01*
X782743Y402001D01*
X782980Y403190D01*
Y693328D01*
X782743Y694517D01*
X782069Y695526D01*
X773487Y704108D01*
X773881Y704791D01*
X774564Y707340D01*
Y709980D01*
X773881Y712529D01*
X772561Y714815D01*
X771410Y715966D01*
X771936Y717236D01*
X782544D01*
X783070Y715966D01*
X781919Y714815D01*
X780599Y712529D01*
X779916Y709980D01*
Y707340D01*
X780599Y704791D01*
X781919Y702505D01*
X783785Y700639D01*
X786071Y699319D01*
X788620Y698636D01*
X791260D01*
X793809Y699319D01*
X796095Y700639D01*
X797961Y702505D01*
X799281Y704791D01*
X799964Y707340D01*
Y709980D01*
X799281Y712529D01*
X797961Y714815D01*
X796810Y715966D01*
X797336Y717236D01*
X830309D01*
X909260Y638285D01*
D02*
G37*
G36*
X751863Y584716D02*
X751127Y584151D01*
X749254Y581710D01*
X748077Y578868D01*
X747675Y575818D01*
Y570738D01*
X748077Y567688D01*
X749254Y564846D01*
X751127Y562405D01*
X753568Y560532D01*
X756410Y559355D01*
X759460Y558953D01*
X762510Y559355D01*
X765352Y560532D01*
X767793Y562405D01*
X769666Y564846D01*
X770322Y566430D01*
X771592Y566177D01*
Y520353D01*
X771144Y519271D01*
Y517856D01*
X771685Y516549D01*
X772686Y515549D01*
X773993Y515007D01*
X775407D01*
X775494Y515043D01*
X776764Y514195D01*
Y469677D01*
X775591Y469191D01*
X771144Y473638D01*
Y475638D01*
X770332Y477598D01*
X768831Y479099D01*
X766871Y479911D01*
X764749D01*
X762788Y479099D01*
X761288Y477598D01*
X760476Y475638D01*
Y473516D01*
X761288Y471555D01*
X762788Y470055D01*
X764749Y469243D01*
X766749D01*
X769394Y466598D01*
X768868Y465328D01*
X767289D01*
X765329Y464516D01*
X763828Y463016D01*
X763016Y461055D01*
Y458933D01*
X763828Y456973D01*
X764888Y455913D01*
X764314Y449105D01*
X762999Y448624D01*
X762588Y449035D01*
X760628Y449847D01*
X758506D01*
X756545Y449035D01*
X755131Y447621D01*
X737248D01*
X736059Y447384D01*
X735051Y446711D01*
X731862Y443522D01*
X731189Y442514D01*
X730952Y441325D01*
Y434777D01*
X728168Y433624D01*
X725727Y431751D01*
X723854Y429310D01*
X722677Y426468D01*
X722275Y423418D01*
Y418338D01*
X722677Y415288D01*
X723854Y412446D01*
X725727Y410005D01*
X727699Y408492D01*
X727268Y407222D01*
X715452D01*
X715021Y408492D01*
X716993Y410005D01*
X718866Y412446D01*
X720043Y415288D01*
X720445Y418338D01*
Y423418D01*
X720043Y426468D01*
X718866Y429310D01*
X716993Y431751D01*
X714552Y433624D01*
X711710Y434801D01*
X708660Y435203D01*
X705610Y434801D01*
X702768Y433624D01*
X700327Y431751D01*
X698454Y429310D01*
X697277Y426468D01*
X696875Y423418D01*
Y418338D01*
X697277Y415288D01*
X698454Y412446D01*
X700327Y410005D01*
X702299Y408492D01*
X701868Y407222D01*
X696976D01*
X695787Y406985D01*
X694779Y406311D01*
X645502Y357035D01*
X644829Y356027D01*
X644592Y354838D01*
Y196486D01*
X643658Y195552D01*
X643031Y195641D01*
X642982Y195677D01*
X642320Y196991D01*
X642874Y198329D01*
Y200451D01*
X642062Y202411D01*
X640648Y203826D01*
Y431275D01*
X645211Y435838D01*
X646176Y435007D01*
X646176Y433871D01*
Y406654D01*
X654752D01*
Y398136D01*
X653338Y396721D01*
X652526Y394761D01*
Y392639D01*
X653338Y390678D01*
X654838Y389178D01*
X656799Y388366D01*
X658921D01*
X660882Y389178D01*
X662382Y390678D01*
X663194Y392639D01*
Y394761D01*
X662382Y396721D01*
X660968Y398136D01*
Y406654D01*
X669544D01*
Y435102D01*
X647442D01*
X646271Y435102D01*
X645440Y436067D01*
X694348Y484975D01*
X695021Y485983D01*
X695258Y487172D01*
Y523011D01*
X695021Y524201D01*
X694348Y525209D01*
X686368Y533189D01*
Y559379D01*
X689152Y560532D01*
X691593Y562405D01*
X693466Y564846D01*
X694643Y567688D01*
X695045Y570738D01*
Y575818D01*
X694643Y578868D01*
X693466Y581710D01*
X691593Y584151D01*
X690857Y584716D01*
X691266Y585918D01*
X700654D01*
X701063Y584716D01*
X700327Y584151D01*
X698454Y581710D01*
X697277Y578868D01*
X696875Y575818D01*
Y570738D01*
X697277Y567688D01*
X698454Y564846D01*
X700327Y562405D01*
X702768Y560532D01*
X705610Y559355D01*
X708660Y558953D01*
X711710Y559355D01*
X714552Y560532D01*
X716993Y562405D01*
X718866Y564846D01*
X720043Y567688D01*
X720445Y570738D01*
Y575818D01*
X720043Y578868D01*
X718866Y581710D01*
X716993Y584151D01*
X716257Y584716D01*
X716666Y585918D01*
X726054D01*
X726463Y584716D01*
X725727Y584151D01*
X723854Y581710D01*
X722677Y578868D01*
X722275Y575818D01*
Y570738D01*
X722677Y567688D01*
X723854Y564846D01*
X725727Y562405D01*
X728168Y560532D01*
X731010Y559355D01*
X734060Y558953D01*
X737110Y559355D01*
X739952Y560532D01*
X742393Y562405D01*
X744266Y564846D01*
X745443Y567688D01*
X745845Y570738D01*
Y575818D01*
X745443Y578868D01*
X744266Y581710D01*
X742393Y584151D01*
X741657Y584716D01*
X742066Y585918D01*
X751454D01*
X751863Y584716D01*
D02*
G37*
G36*
X675663D02*
X674927Y584151D01*
X673054Y581710D01*
X671877Y578868D01*
X671475Y575818D01*
Y570738D01*
X671877Y567688D01*
X673054Y564846D01*
X674927Y562405D01*
X677368Y560532D01*
X680152Y559379D01*
Y531901D01*
X680389Y530712D01*
X681062Y529704D01*
X688201Y522566D01*
X688135Y522098D01*
X686742Y521301D01*
X686353Y521462D01*
X684231D01*
X682271Y520650D01*
X680770Y519150D01*
X679958Y517189D01*
Y515189D01*
X626707Y461937D01*
X626424Y461514D01*
X625154Y461899D01*
Y501379D01*
X644818Y521043D01*
X645491Y522051D01*
X645728Y523240D01*
Y566177D01*
X646998Y566430D01*
X647654Y564846D01*
X649527Y562405D01*
X651968Y560532D01*
X654810Y559355D01*
X657860Y558953D01*
X660910Y559355D01*
X663752Y560532D01*
X666193Y562405D01*
X668066Y564846D01*
X669243Y567688D01*
X669645Y570738D01*
Y575818D01*
X669243Y578868D01*
X668066Y581710D01*
X666193Y584151D01*
X665457Y584716D01*
X665866Y585918D01*
X675254D01*
X675663Y584716D01*
D02*
G37*
G36*
X226254Y458199D02*
Y451477D01*
X224984Y450770D01*
X223565Y451358D01*
X221443D01*
X219482Y450546D01*
X217982Y449045D01*
X217170Y447085D01*
Y444963D01*
X217982Y443003D01*
X219396Y441588D01*
Y391812D01*
X217788Y390204D01*
X184009D01*
X183757Y391474D01*
X185266Y392099D01*
X186681Y393513D01*
X203581D01*
X204770Y393750D01*
X205779Y394423D01*
X209207Y397853D01*
X209881Y398861D01*
X210118Y400050D01*
Y469392D01*
X209881Y470581D01*
X209207Y471590D01*
X188628Y492169D01*
X188963Y492984D01*
X189250Y493343D01*
X191110D01*
X226254Y458199D01*
D02*
G37*
G36*
X400660Y514103D02*
X401116Y513002D01*
X402530Y511588D01*
Y482363D01*
X360643Y440476D01*
X359470Y440962D01*
Y462771D01*
X362281Y465582D01*
X364281D01*
X366241Y466394D01*
X367742Y467895D01*
X368554Y469855D01*
Y471977D01*
X367742Y473937D01*
X366241Y475438D01*
X364281Y476250D01*
X362807D01*
X362281Y477520D01*
X399162Y514401D01*
X400660Y514103D01*
D02*
G37*
G36*
X756481Y440055D02*
X756568Y439924D01*
X756893Y438535D01*
X756866Y438484D01*
X756589Y438069D01*
X756578Y438013D01*
X756547Y437964D01*
X756460Y437420D01*
X756352Y436880D01*
Y434777D01*
X753568Y433624D01*
X751127Y431751D01*
X749254Y429310D01*
X748077Y426468D01*
X747675Y423418D01*
Y418338D01*
X748077Y415288D01*
X749254Y412446D01*
X751127Y410005D01*
X753568Y408132D01*
X756410Y406955D01*
X759460Y406553D01*
X762510Y406955D01*
X763725Y407458D01*
X764444Y406381D01*
X757157Y399094D01*
X710930D01*
X710428Y399741D01*
X711000Y401006D01*
X730250D01*
X731439Y401243D01*
X732448Y401917D01*
X736257Y405727D01*
X736931Y406735D01*
X736971Y406936D01*
X737110Y406955D01*
X739952Y408132D01*
X742393Y410005D01*
X744266Y412446D01*
X745443Y415288D01*
X745845Y418338D01*
Y423418D01*
X745443Y426468D01*
X744266Y429310D01*
X742393Y431751D01*
X739952Y433624D01*
X737168Y434777D01*
Y440038D01*
X738536Y441405D01*
X755131D01*
X756481Y440055D01*
D02*
G37*
G36*
X776764Y408252D02*
Y404477D01*
X733132Y360845D01*
X732749Y360271D01*
X732392Y360160D01*
X731438Y360113D01*
X731263Y360160D01*
X730031Y361392D01*
X728070Y362204D01*
X725948D01*
X723988Y361392D01*
X722487Y359892D01*
X721675Y357931D01*
Y355931D01*
X679736Y313991D01*
X679062Y312983D01*
X678825Y311794D01*
Y187799D01*
X677555Y187273D01*
X676607Y188221D01*
X674362Y189518D01*
X671857Y190189D01*
X669263D01*
X666758Y189518D01*
X664513Y188221D01*
X662679Y186387D01*
X661382Y184142D01*
X660968Y182595D01*
X659698Y182762D01*
Y322563D01*
X687401Y350266D01*
X689401D01*
X691361Y351078D01*
X692862Y352579D01*
X693674Y354539D01*
Y356661D01*
X693086Y358080D01*
X693792Y359350D01*
X710438D01*
X711627Y359587D01*
X712635Y360261D01*
X733717Y381343D01*
X734391Y382351D01*
X734628Y383540D01*
X734391Y384729D01*
X733717Y385737D01*
X732709Y386411D01*
X731520Y386648D01*
X730331Y386411D01*
X729323Y385737D01*
X709151Y365566D01*
X682498D01*
X681309Y365329D01*
X680301Y364655D01*
X660622Y344977D01*
X660309Y345157D01*
X658306Y345694D01*
X656233D01*
X654230Y345157D01*
X652434Y344121D01*
X652078Y343764D01*
X650808Y344290D01*
Y353551D01*
X698263Y401006D01*
X701801D01*
X702327Y399736D01*
X701598Y399007D01*
X700786Y397047D01*
Y394925D01*
X701598Y392965D01*
X703099Y391464D01*
X705059Y390652D01*
X707181D01*
X709141Y391464D01*
X710556Y392878D01*
X758444D01*
X759633Y393115D01*
X760641Y393788D01*
X775591Y408738D01*
X776764Y408252D01*
D02*
G37*
G36*
X226254Y388366D02*
Y373440D01*
X179696D01*
X178281Y374854D01*
X176321Y375666D01*
X174199D01*
X172780Y375078D01*
X171510Y375784D01*
Y385935D01*
X172683Y386421D01*
X174205Y384898D01*
X175214Y384225D01*
X176403Y383988D01*
X219075D01*
X220264Y384225D01*
X221273Y384898D01*
X224701Y388327D01*
X224984Y388751D01*
X226254Y388366D01*
D02*
G37*
G36*
X689042Y510676D02*
Y488459D01*
X635342Y434759D01*
X634669Y433751D01*
X634432Y432562D01*
Y366133D01*
X634386Y366102D01*
X633162Y365743D01*
X632012Y366894D01*
Y458453D01*
X684353Y510794D01*
X686353D01*
X687772Y511382D01*
X689042Y510676D01*
D02*
G37*
G36*
X317173Y191258D02*
X316515Y190120D01*
X316257Y190189D01*
X313663D01*
X311158Y189518D01*
X308913Y188221D01*
X307079Y186387D01*
X305782Y184142D01*
X305111Y181637D01*
Y179043D01*
X305782Y176538D01*
X307079Y174293D01*
X308913Y172459D01*
X311158Y171162D01*
X313663Y170491D01*
X316257D01*
X318762Y171162D01*
X321007Y172459D01*
X322841Y174293D01*
X323282Y175057D01*
X324552Y174716D01*
Y168275D01*
X324789Y167086D01*
X325462Y166077D01*
X328638Y162903D01*
X329646Y162229D01*
X330835Y161992D01*
X350520D01*
X351709Y162229D01*
X352718Y162903D01*
X361336Y171521D01*
X361958Y171162D01*
X364463Y170491D01*
X367057D01*
X369562Y171162D01*
X371807Y172459D01*
X372812Y173464D01*
X374082Y172938D01*
Y170197D01*
X362293Y158407D01*
X361619Y157399D01*
X361554Y157071D01*
X360176Y156653D01*
X359107Y157721D01*
X356862Y159018D01*
X354357Y159689D01*
X351763D01*
X349258Y159018D01*
X347013Y157721D01*
X345179Y155888D01*
X343882Y153642D01*
X343211Y151137D01*
Y148544D01*
X343882Y146039D01*
X345179Y143793D01*
X347013Y141959D01*
X349258Y140662D01*
X351763Y139991D01*
X354357D01*
X356862Y140662D01*
X359107Y141959D01*
X360112Y142964D01*
X361382Y142438D01*
Y130810D01*
X361619Y129621D01*
X362293Y128612D01*
X458541Y32364D01*
X458182Y31742D01*
X457511Y29237D01*
Y26643D01*
X458182Y24138D01*
X459479Y21893D01*
X460427Y20945D01*
X459901Y19675D01*
X449419D01*
X448893Y20945D01*
X449841Y21893D01*
X451138Y24138D01*
X451809Y26643D01*
Y29237D01*
X451138Y31742D01*
X449841Y33987D01*
X448007Y35821D01*
X445762Y37118D01*
X443257Y37789D01*
X440663D01*
X438158Y37118D01*
X435913Y35821D01*
X434079Y33987D01*
X432782Y31742D01*
X432111Y29237D01*
Y26643D01*
X432782Y24138D01*
X434079Y21893D01*
X435027Y20945D01*
X434501Y19675D01*
X429220D01*
X425379Y23516D01*
X425738Y24138D01*
X426409Y26643D01*
Y29237D01*
X425738Y31742D01*
X424441Y33987D01*
X422607Y35821D01*
X420362Y37118D01*
X417857Y37789D01*
X415263D01*
X412758Y37118D01*
X410513Y35821D01*
X408679Y33987D01*
X407382Y31742D01*
X406711Y29237D01*
Y26643D01*
X407382Y24138D01*
X408679Y21893D01*
X410513Y20059D01*
X412758Y18762D01*
X415263Y18091D01*
X417857D01*
X420362Y18762D01*
X420984Y19121D01*
X423886Y16219D01*
X423400Y15046D01*
X360189D01*
X357438Y17797D01*
Y20538D01*
X358708Y21064D01*
X359713Y20059D01*
X361958Y18762D01*
X364463Y18091D01*
X367057D01*
X369562Y18762D01*
X371807Y20059D01*
X373641Y21893D01*
X374938Y24138D01*
X375609Y26643D01*
Y29237D01*
X374938Y31742D01*
X373641Y33987D01*
X371807Y35821D01*
X369562Y37118D01*
X367057Y37789D01*
X364463D01*
X361958Y37118D01*
X359713Y35821D01*
X358708Y34816D01*
X357438Y35342D01*
Y63754D01*
X357201Y64943D01*
X356527Y65951D01*
X274126Y148353D01*
Y232646D01*
X275299Y233132D01*
X317173Y191258D01*
D02*
G37*
G36*
X704325Y327994D02*
X704225Y327495D01*
Y187799D01*
X702955Y187273D01*
X702007Y188221D01*
X699762Y189518D01*
X697257Y190189D01*
X694663D01*
X692158Y189518D01*
X689913Y188221D01*
X688079Y186387D01*
X686782Y184142D01*
X686311Y182382D01*
X685041Y182550D01*
Y310507D01*
X703154Y328620D01*
X704325Y327994D01*
D02*
G37*
G36*
X652434Y331519D02*
X654230Y330483D01*
X656233Y329946D01*
X656632D01*
X657118Y328773D01*
X654392Y326048D01*
X653719Y325039D01*
X653482Y323850D01*
Y187742D01*
X652212Y187216D01*
X651207Y188221D01*
X648962Y189518D01*
X648179Y189727D01*
X647850Y190954D01*
X649898Y193001D01*
X650571Y194010D01*
X650808Y195199D01*
Y331350D01*
X652078Y331876D01*
X652434Y331519D01*
D02*
G37*
G36*
X732222Y343045D02*
Y297942D01*
Y182762D01*
X730952Y182595D01*
X730538Y184142D01*
X729241Y186387D01*
X727407Y188221D01*
X725162Y189518D01*
X722657Y190189D01*
X720063D01*
X717558Y189518D01*
X715313Y188221D01*
X713479Y186387D01*
X712182Y184142D01*
X711711Y182382D01*
X710441Y182550D01*
Y326208D01*
X726072Y341839D01*
X728072D01*
X730032Y342651D01*
X730952Y343571D01*
X732222Y343045D01*
D02*
G37*
G36*
X635982Y176538D02*
X637279Y174293D01*
X639113Y172459D01*
X641358Y171162D01*
X643863Y170491D01*
X646457D01*
X648962Y171162D01*
X651207Y172459D01*
X652212Y173464D01*
X653482Y172938D01*
Y169562D01*
X638804Y154884D01*
X620815D01*
X620289Y156154D01*
X633387Y169252D01*
X634061Y170261D01*
X634298Y171450D01*
Y177918D01*
X635568Y178085D01*
X635982Y176538D01*
D02*
G37*
G36*
X381982D02*
X383279Y174293D01*
X385113Y172459D01*
X387358Y171162D01*
X389863Y170491D01*
X391630D01*
X392156Y169221D01*
X390233Y167297D01*
X389559Y166289D01*
X389322Y165100D01*
Y152262D01*
X388052Y152095D01*
X387638Y153642D01*
X386341Y155888D01*
X384507Y157721D01*
X382262Y159018D01*
X379757Y159689D01*
X377163D01*
X374658Y159018D01*
X372413Y157721D01*
X370579Y155888D01*
X369282Y153642D01*
X368868Y152095D01*
X367598Y152262D01*
Y154923D01*
X379388Y166712D01*
X380061Y167721D01*
X380298Y168910D01*
Y177918D01*
X381568Y178085D01*
X381982Y176538D01*
D02*
G37*
G36*
X458945Y175218D02*
X459479Y174293D01*
X461313Y172459D01*
X463558Y171162D01*
X466063Y170491D01*
X468657D01*
X471162Y171162D01*
X471784Y171521D01*
X526123Y117183D01*
X527131Y116509D01*
X528320Y116272D01*
X576580D01*
X577769Y116509D01*
X578778Y117183D01*
X590991Y129396D01*
X592165Y128910D01*
Y93132D01*
X546023Y46990D01*
X544023D01*
X542062Y46178D01*
X540562Y44678D01*
X539750Y42717D01*
Y40595D01*
X540557Y38647D01*
X540647Y38425D01*
X540188Y37286D01*
X538994Y36901D01*
X495868Y80027D01*
Y130946D01*
X497282Y132360D01*
X498094Y134321D01*
Y136443D01*
X497282Y138404D01*
X495782Y139904D01*
X493821Y140716D01*
X491699D01*
X489739Y139904D01*
X488238Y138404D01*
X487426Y136443D01*
Y134321D01*
X488238Y132360D01*
X489652Y130946D01*
Y78740D01*
X489889Y77551D01*
X490563Y76543D01*
X534741Y32364D01*
X534382Y31742D01*
X533711Y29237D01*
Y26643D01*
X534382Y24138D01*
X535679Y21893D01*
X536627Y20945D01*
X536101Y19675D01*
X525619D01*
X525093Y20945D01*
X526041Y21893D01*
X527338Y24138D01*
X528009Y26643D01*
Y29237D01*
X527338Y31742D01*
X526041Y33987D01*
X524207Y35821D01*
X521962Y37118D01*
X519457Y37789D01*
X516863D01*
X514358Y37118D01*
X513736Y36759D01*
X446338Y104157D01*
Y142438D01*
X447608Y142964D01*
X448613Y141959D01*
X450858Y140662D01*
X453363Y139991D01*
X453644D01*
Y149840D01*
Y159689D01*
X453363D01*
X450858Y159018D01*
X448613Y157721D01*
X447608Y156716D01*
X446338Y157243D01*
Y163813D01*
X457112Y174587D01*
X457504Y175173D01*
X458815Y175260D01*
X458945Y175218D01*
D02*
G37*
G36*
X732222Y177918D02*
Y140970D01*
X732459Y139781D01*
X733132Y138772D01*
X737941Y133964D01*
X737582Y133342D01*
X736911Y130837D01*
Y129324D01*
X735641Y128798D01*
X724468Y139971D01*
Y170976D01*
X725162Y171162D01*
X727407Y172459D01*
X729241Y174293D01*
X730538Y176538D01*
X730952Y178085D01*
X732222Y177918D01*
D02*
G37*
G36*
X661382Y176538D02*
X662679Y174293D01*
X664513Y172459D01*
X666758Y171162D01*
X669263Y170491D01*
X671857D01*
X674362Y171162D01*
X676607Y172459D01*
X677555Y173407D01*
X678825Y172881D01*
Y163790D01*
X552793Y37757D01*
X552119Y36749D01*
X551882Y35560D01*
Y35342D01*
X550612Y34816D01*
X549607Y35821D01*
X548937Y36208D01*
X548753Y37781D01*
X549606Y38635D01*
X550418Y40595D01*
Y42595D01*
X597470Y89647D01*
X598144Y90655D01*
X598380Y91844D01*
Y147845D01*
X599203Y148668D01*
X640091D01*
X641281Y148905D01*
X642289Y149579D01*
X658788Y166077D01*
X659461Y167086D01*
X659698Y168275D01*
Y177918D01*
X660968Y178085D01*
X661382Y176538D01*
D02*
G37*
G36*
X686782D02*
X688079Y174293D01*
X689913Y172459D01*
X692158Y171162D01*
X694663Y170491D01*
X697257D01*
X699762Y171162D01*
X702007Y172459D01*
X702955Y173407D01*
X704225Y172881D01*
Y170140D01*
X604863Y70778D01*
X604189Y69769D01*
X603952Y68580D01*
Y33564D01*
X602682Y33223D01*
X602241Y33987D01*
X600407Y35821D01*
X598162Y37118D01*
X595657Y37789D01*
X593063D01*
X590558Y37118D01*
X588313Y35821D01*
X586479Y33987D01*
X585182Y31742D01*
X584511Y29237D01*
Y26643D01*
X585182Y24138D01*
X585541Y23516D01*
X571229Y9204D01*
X556415D01*
X555889Y10474D01*
X564536Y19121D01*
X565158Y18762D01*
X567663Y18091D01*
X570257D01*
X572762Y18762D01*
X575007Y20059D01*
X576841Y21893D01*
X578138Y24138D01*
X578809Y26643D01*
Y29237D01*
X578138Y31742D01*
X576841Y33987D01*
X575007Y35821D01*
X572762Y37118D01*
X570257Y37789D01*
X567663D01*
X565158Y37118D01*
X562913Y35821D01*
X561079Y33987D01*
X559782Y31742D01*
X559368Y30195D01*
X558098Y30362D01*
Y34273D01*
X684131Y160306D01*
X684804Y161314D01*
X685041Y162503D01*
Y178130D01*
X686311Y178298D01*
X686782Y176538D01*
D02*
G37*
G36*
X369282Y146039D02*
X370579Y143793D01*
X372413Y141959D01*
X374658Y140662D01*
X377163Y139991D01*
X379757D01*
X382262Y140662D01*
X384507Y141959D01*
X386341Y143793D01*
X387638Y146039D01*
X388052Y147585D01*
X389322Y147418D01*
Y128270D01*
X389559Y127081D01*
X390233Y126073D01*
X483941Y32364D01*
X483582Y31742D01*
X482911Y29237D01*
Y26643D01*
X483582Y24138D01*
X484879Y21893D01*
X485827Y20945D01*
X485301Y19675D01*
X474819D01*
X474293Y20945D01*
X475241Y21893D01*
X476538Y24138D01*
X477209Y26643D01*
Y29237D01*
X476538Y31742D01*
X475241Y33987D01*
X473407Y35821D01*
X471162Y37118D01*
X468657Y37789D01*
X466063D01*
X463558Y37118D01*
X462936Y36759D01*
X367598Y132097D01*
Y147418D01*
X368868Y147585D01*
X369282Y146039D01*
D02*
G37*
G36*
X1130226Y3884D02*
X972768D01*
X972062Y4940D01*
X972312Y5543D01*
Y7543D01*
X988988Y24218D01*
X989661Y25227D01*
X989898Y26416D01*
Y304047D01*
X991312Y305462D01*
X992124Y307422D01*
Y309544D01*
X991312Y311504D01*
X989811Y313005D01*
X987851Y313817D01*
X985729D01*
X983768Y313005D01*
X982268Y311504D01*
X981456Y309544D01*
Y307422D01*
X982268Y305462D01*
X983682Y304047D01*
Y27703D01*
X967917Y11938D01*
X965917D01*
X963957Y11126D01*
X962456Y9625D01*
X961644Y7665D01*
Y5543D01*
X961894Y4940D01*
X961188Y3884D01*
X576496D01*
X575970Y5155D01*
X589936Y19121D01*
X590558Y18762D01*
X593063Y18091D01*
X595657D01*
X598162Y18762D01*
X600407Y20059D01*
X600553Y20204D01*
X601726Y19718D01*
Y19259D01*
X602538Y17299D01*
X604039Y15798D01*
X605999Y14986D01*
X608121D01*
X610081Y15798D01*
X611582Y17299D01*
X612394Y19259D01*
Y19718D01*
X613567Y20204D01*
X613713Y20059D01*
X615958Y18762D01*
X618463Y18091D01*
X621057D01*
X623562Y18762D01*
X625807Y20059D01*
X627641Y21893D01*
X628938Y24138D01*
X629609Y26643D01*
Y29237D01*
X628938Y31742D01*
X627641Y33987D01*
X625807Y35821D01*
X623562Y37118D01*
X621057Y37789D01*
X618463D01*
X615958Y37118D01*
X613713Y35821D01*
X611879Y33987D01*
X611438Y33223D01*
X610168Y33564D01*
Y67293D01*
X709531Y166656D01*
X710204Y167664D01*
X710441Y168853D01*
Y178130D01*
X711711Y178298D01*
X712182Y176538D01*
X713479Y174293D01*
X715313Y172459D01*
X717558Y171162D01*
X718252Y170976D01*
Y138684D01*
X718489Y137495D01*
X719163Y136487D01*
X739680Y115969D01*
X740688Y115296D01*
X741877Y115059D01*
X744550D01*
X744718Y113789D01*
X742958Y113318D01*
X740713Y112021D01*
X738879Y110187D01*
X737582Y107942D01*
X736911Y105437D01*
Y105156D01*
X756609D01*
Y105437D01*
X755938Y107942D01*
X754641Y110187D01*
X752807Y112021D01*
X750562Y113318D01*
X748802Y113789D01*
X748970Y115059D01*
X758190D01*
X759379Y115296D01*
X760387Y115969D01*
X797520Y153102D01*
X861043D01*
X872938Y141207D01*
Y138939D01*
X871668Y138413D01*
X870939Y139142D01*
X868979Y139954D01*
X868934D01*
Y134620D01*
X867918D01*
Y133604D01*
X862584D01*
Y133559D01*
X863174Y132134D01*
X862471Y130864D01*
X857866D01*
Y125356D01*
X866140D01*
Y124340D01*
X867156D01*
Y117816D01*
X872938D01*
Y115864D01*
X857866D01*
Y102816D01*
X863032D01*
Y87684D01*
X857866D01*
Y74636D01*
X874414D01*
Y87684D01*
X869248D01*
Y102816D01*
X874414D01*
Y106232D01*
X875912D01*
X877101Y106469D01*
X878109Y107142D01*
X878243Y107276D01*
X878917Y108285D01*
X879154Y109474D01*
Y142494D01*
X878917Y143683D01*
X878243Y144691D01*
X864528Y158407D01*
X863519Y159081D01*
X862330Y159318D01*
X796233D01*
X795044Y159081D01*
X794036Y158407D01*
X756903Y121275D01*
X754219D01*
X753693Y122545D01*
X754641Y123493D01*
X755938Y125738D01*
X756609Y128243D01*
Y130837D01*
X755938Y133342D01*
X754641Y135587D01*
X752807Y137421D01*
X750562Y138718D01*
X748057Y139389D01*
X745463D01*
X742958Y138718D01*
X742336Y138359D01*
X738438Y142257D01*
Y147538D01*
X739708Y148064D01*
X740713Y147059D01*
X742958Y145762D01*
X745463Y145091D01*
X748057D01*
X750562Y145762D01*
X752807Y147059D01*
X754641Y148893D01*
X755938Y151138D01*
X756609Y153643D01*
Y156237D01*
X755938Y158742D01*
X754641Y160987D01*
X752807Y162821D01*
X750562Y164118D01*
X748057Y164789D01*
X745463D01*
X742958Y164118D01*
X740713Y162821D01*
X739708Y161816D01*
X738438Y162342D01*
Y172938D01*
X739708Y173464D01*
X740713Y172459D01*
X742958Y171162D01*
X745463Y170491D01*
X748057D01*
X750562Y171162D01*
X752807Y172459D01*
X754641Y174293D01*
X755938Y176538D01*
X756609Y179043D01*
Y181637D01*
X755938Y184142D01*
X755579Y184764D01*
X806213Y235398D01*
X841956D01*
Y220326D01*
X845372D01*
Y198882D01*
X845609Y197693D01*
X846282Y196684D01*
X852124Y190843D01*
X851467Y189704D01*
X849657Y190189D01*
X847063D01*
X844558Y189518D01*
X842313Y188221D01*
X840479Y186387D01*
X839182Y184142D01*
X838511Y181637D01*
Y179043D01*
X839182Y176538D01*
X840479Y174293D01*
X842313Y172459D01*
X844558Y171162D01*
X847063Y170491D01*
X849657D01*
X852162Y171162D01*
X854407Y172459D01*
X856241Y174293D01*
X857538Y176538D01*
X857952Y178085D01*
X859222Y177918D01*
Y173355D01*
X859459Y172166D01*
X860133Y171157D01*
X864577Y166712D01*
X865586Y166039D01*
X866775Y165802D01*
X894334D01*
X895523Y166039D01*
X896532Y166712D01*
X912131Y182312D01*
X941361D01*
X941887Y181042D01*
X940939Y180094D01*
X939817Y178150D01*
X939236Y175982D01*
Y173738D01*
X939817Y171570D01*
X939911Y171406D01*
X935316Y166812D01*
X934643Y165804D01*
X934406Y164614D01*
Y69066D01*
X934643Y67876D01*
X935316Y66868D01*
X939911Y62274D01*
X939817Y62110D01*
X939236Y59942D01*
Y57698D01*
X939817Y55530D01*
X940939Y53586D01*
X942526Y51999D01*
X944470Y50877D01*
X946638Y50296D01*
X948882D01*
X951050Y50877D01*
X952994Y51999D01*
X954581Y53586D01*
X955703Y55530D01*
X956284Y57698D01*
Y59942D01*
X955703Y62110D01*
X955609Y62274D01*
X969150Y75815D01*
X969823Y76823D01*
X970060Y78012D01*
Y207798D01*
X969823Y208987D01*
X969150Y209995D01*
X927895Y251250D01*
X926887Y251923D01*
X925698Y252160D01*
X924557D01*
X923922Y253430D01*
X924560Y254971D01*
Y257093D01*
X923748Y259053D01*
X922334Y260468D01*
Y270239D01*
X951561Y299466D01*
X953561D01*
X955521Y300278D01*
X957022Y301779D01*
X957834Y303739D01*
Y305861D01*
X957022Y307822D01*
X955521Y309322D01*
X953561Y310134D01*
X951439D01*
X949479Y309322D01*
X947978Y307822D01*
X947166Y305861D01*
Y303861D01*
X917029Y273724D01*
X916746Y273300D01*
X915476Y273685D01*
Y639572D01*
X915239Y640761D01*
X914566Y641769D01*
X833793Y722542D01*
X832785Y723215D01*
X831596Y723452D01*
X633984D01*
X632795Y723215D01*
X631786Y722542D01*
X626852Y717607D01*
X626169Y718001D01*
X623620Y718684D01*
X620980D01*
X618431Y718001D01*
X616145Y716681D01*
X614279Y714815D01*
X612959Y712529D01*
X612276Y709980D01*
Y707340D01*
X612959Y704791D01*
X614279Y702505D01*
X616145Y700639D01*
X618431Y699319D01*
X620980Y698636D01*
X623620D01*
X626169Y699319D01*
X628455Y700639D01*
X630321Y702505D01*
X631641Y704791D01*
X632324Y707340D01*
Y709980D01*
X631641Y712529D01*
X631247Y713212D01*
X635271Y717236D01*
X729116D01*
Y709676D01*
X749164D01*
Y717236D01*
X757144D01*
X757670Y715966D01*
X756519Y714815D01*
X755199Y712529D01*
X754516Y709980D01*
Y707340D01*
X755199Y704791D01*
X756519Y702505D01*
X758385Y700639D01*
X760671Y699319D01*
X763220Y698636D01*
X765860D01*
X768409Y699319D01*
X769092Y699713D01*
X776764Y692041D01*
Y583247D01*
X775591Y582761D01*
X767128Y591223D01*
X766120Y591897D01*
X764931Y592134D01*
X652389D01*
X651200Y591897D01*
X650192Y591223D01*
X640423Y581454D01*
X639749Y580446D01*
X639512Y579257D01*
Y524527D01*
X619849Y504864D01*
X619175Y503855D01*
X618938Y502666D01*
Y351553D01*
X610614Y343229D01*
X608687Y343745D01*
X606614D01*
X604612Y343208D01*
X602816Y342172D01*
X601350Y340705D01*
X600313Y338910D01*
X599777Y336907D01*
Y334834D01*
X600313Y332831D01*
X601350Y331036D01*
X602816Y329570D01*
X604612Y328533D01*
X606614Y327997D01*
X608687D01*
X610690Y328533D01*
X612486Y329570D01*
X613952Y331036D01*
X614988Y332831D01*
X615525Y334834D01*
Y336907D01*
X615009Y338834D01*
X624244Y348069D01*
X624917Y349077D01*
X625154Y350266D01*
Y357006D01*
X626424Y357712D01*
X627843Y357124D01*
X629965D01*
X631926Y357936D01*
X633162Y359173D01*
X634386Y358814D01*
X634432Y358783D01*
Y203826D01*
X633018Y202411D01*
X632206Y200451D01*
Y198329D01*
X633018Y196369D01*
X633381Y196006D01*
X633142Y194448D01*
X632803Y194221D01*
X628993Y190411D01*
X628319Y189403D01*
X628082Y188214D01*
Y187742D01*
X626812Y187216D01*
X625807Y188221D01*
X623562Y189518D01*
X621057Y190189D01*
X618463D01*
X615958Y189518D01*
X613713Y188221D01*
X611879Y186387D01*
X610582Y184142D01*
X609911Y181637D01*
Y179043D01*
X610582Y176538D01*
X611879Y174293D01*
X613713Y172459D01*
X615958Y171162D01*
X618463Y170491D01*
X621057D01*
X623562Y171162D01*
X625807Y172459D01*
X625841Y172492D01*
X627219Y172074D01*
X627252Y171907D01*
X615992Y160647D01*
X595840D01*
X594650Y160411D01*
X593642Y159737D01*
X588503Y154598D01*
X587829Y153589D01*
X587593Y152400D01*
Y134788D01*
X576107Y123302D01*
X575784Y123371D01*
X575014Y124831D01*
X575310Y125545D01*
Y127667D01*
X574498Y129627D01*
X572998Y131128D01*
X571037Y131940D01*
X569037D01*
X535295Y165682D01*
Y172881D01*
X536565Y173407D01*
X537513Y172459D01*
X539758Y171162D01*
X542263Y170491D01*
X544857D01*
X547362Y171162D01*
X549607Y172459D01*
X551441Y174293D01*
X552738Y176538D01*
X553209Y178298D01*
X554479Y178130D01*
Y175629D01*
X554716Y174440D01*
X555389Y173431D01*
X562108Y166712D01*
X563116Y166039D01*
X564306Y165802D01*
X582930D01*
X584119Y166039D01*
X585127Y166712D01*
X589936Y171521D01*
X590558Y171162D01*
X593063Y170491D01*
X595657D01*
X598162Y171162D01*
X600407Y172459D01*
X602241Y174293D01*
X603538Y176538D01*
X604209Y179043D01*
Y181637D01*
X603538Y184142D01*
X602241Y186387D01*
X600407Y188221D01*
X598162Y189518D01*
X595657Y190189D01*
X593063D01*
X590558Y189518D01*
X588313Y188221D01*
X586479Y186387D01*
X585182Y184142D01*
X584511Y181637D01*
Y179043D01*
X585182Y176538D01*
X585541Y175916D01*
X581643Y172018D01*
X576362D01*
X575836Y173288D01*
X576841Y174293D01*
X578138Y176538D01*
X578809Y179043D01*
Y181637D01*
X578138Y184142D01*
X576841Y186387D01*
X575007Y188221D01*
X572762Y189518D01*
X572068Y189704D01*
Y582422D01*
X571971Y582908D01*
X573142Y583534D01*
X581861Y574815D01*
Y263003D01*
X582127Y261665D01*
X582884Y260531D01*
X612286Y231130D01*
X611886Y229637D01*
Y227563D01*
X612423Y225561D01*
X613459Y223765D01*
X614925Y222299D01*
X616721Y221263D01*
X618723Y220726D01*
X620797D01*
X622799Y221263D01*
X624595Y222299D01*
X626061Y223765D01*
X627097Y225561D01*
X627634Y227563D01*
Y229637D01*
X627097Y231639D01*
X626061Y233435D01*
X624595Y234901D01*
X622799Y235937D01*
X620797Y236474D01*
X618723D01*
X617230Y236074D01*
X588853Y264452D01*
Y576263D01*
X588853Y576263D01*
X588587Y577601D01*
X587829Y578735D01*
X587829Y578735D01*
X544332Y622232D01*
X543197Y622990D01*
X541860Y623256D01*
X502374D01*
X501601Y624595D01*
X500135Y626061D01*
X498339Y627097D01*
X496337Y627634D01*
X494263D01*
X492261Y627097D01*
X490465Y626061D01*
X488999Y624595D01*
X487963Y622799D01*
X487426Y620797D01*
Y618723D01*
X487963Y616721D01*
X488999Y614925D01*
X490465Y613459D01*
X492261Y612423D01*
X494263Y611886D01*
X496337D01*
X498339Y612423D01*
X500135Y613459D01*
X501601Y614925D01*
X502374Y616264D01*
X540411D01*
X548442Y608233D01*
X548046Y606833D01*
X546634Y606248D01*
X545134Y604748D01*
X544322Y602787D01*
Y600665D01*
X545134Y598704D01*
X546634Y597204D01*
X548595Y596392D01*
X550595D01*
X565852Y581135D01*
Y189704D01*
X565158Y189518D01*
X562913Y188221D01*
X561965Y187273D01*
X560695Y187799D01*
Y569919D01*
X560458Y571108D01*
X559784Y572117D01*
X524002Y607899D01*
Y609899D01*
X523190Y611860D01*
X521689Y613360D01*
X519729Y614172D01*
X517607D01*
X515647Y613360D01*
X514146Y611860D01*
X513334Y609899D01*
Y607777D01*
X514146Y605816D01*
X515647Y604316D01*
X517607Y603504D01*
X519607D01*
X554479Y568632D01*
Y182550D01*
X553209Y182382D01*
X552738Y184142D01*
X551441Y186387D01*
X549607Y188221D01*
X547362Y189518D01*
X544857Y190189D01*
X542263D01*
X539758Y189518D01*
X537513Y188221D01*
X536565Y187273D01*
X535295Y187799D01*
Y546805D01*
X535058Y547994D01*
X534384Y549003D01*
X427736Y655651D01*
Y657651D01*
X426924Y659612D01*
X425424Y661112D01*
X423463Y661924D01*
X421341D01*
X419380Y661112D01*
X417880Y659612D01*
X417068Y657651D01*
Y655529D01*
X417880Y653568D01*
X419380Y652068D01*
X421341Y651256D01*
X423341D01*
X529079Y545518D01*
Y182550D01*
X527809Y182382D01*
X527338Y184142D01*
X526041Y186387D01*
X524207Y188221D01*
X521962Y189518D01*
X519457Y190189D01*
X516863D01*
X514358Y189518D01*
X512113Y188221D01*
X510279Y186387D01*
X508982Y184142D01*
X508311Y181637D01*
Y179043D01*
X508982Y176538D01*
X510279Y174293D01*
X512113Y172459D01*
X514358Y171162D01*
X516863Y170491D01*
X519457D01*
X521962Y171162D01*
X524207Y172459D01*
X526041Y174293D01*
X527338Y176538D01*
X527809Y178298D01*
X529079Y178130D01*
Y164395D01*
X529316Y163206D01*
X529989Y162197D01*
X564642Y127545D01*
Y125545D01*
X565382Y123758D01*
X564891Y122488D01*
X529607D01*
X476179Y175916D01*
X476538Y176538D01*
X477209Y179043D01*
Y181637D01*
X476538Y184142D01*
X475241Y186387D01*
X473407Y188221D01*
X471162Y189518D01*
X468657Y190189D01*
X466063D01*
X463558Y189518D01*
X461313Y188221D01*
X459479Y186387D01*
X459292Y186063D01*
X458022Y186404D01*
Y294894D01*
X457785Y296083D01*
X457112Y297092D01*
X456184Y298019D01*
Y300019D01*
X455372Y301980D01*
X453871Y303480D01*
X451911Y304292D01*
X449789D01*
X447828Y303480D01*
X446328Y301980D01*
X445516Y300019D01*
Y297897D01*
X446328Y295937D01*
X447828Y294436D01*
X449789Y293624D01*
X451789D01*
X451806Y293607D01*
Y185524D01*
X450536Y185183D01*
X449841Y186387D01*
X448007Y188221D01*
X445762Y189518D01*
X443257Y190189D01*
X440663D01*
X438158Y189518D01*
X435913Y188221D01*
X434079Y186387D01*
X432782Y184142D01*
X432111Y181637D01*
Y179043D01*
X432782Y176538D01*
X434079Y174293D01*
X435913Y172459D01*
X438158Y171162D01*
X440663Y170491D01*
X442430D01*
X442956Y169221D01*
X441032Y167297D01*
X440359Y166289D01*
X440122Y165100D01*
Y152262D01*
X438852Y152095D01*
X438438Y153642D01*
X437141Y155888D01*
X435307Y157721D01*
X433062Y159018D01*
X430557Y159689D01*
X430276D01*
Y149840D01*
Y139991D01*
X430557D01*
X433062Y140662D01*
X435307Y141959D01*
X437141Y143793D01*
X438438Y146039D01*
X438852Y147585D01*
X440122Y147418D01*
Y102870D01*
X440359Y101681D01*
X441032Y100673D01*
X509341Y32364D01*
X508982Y31742D01*
X508311Y29237D01*
Y26643D01*
X508982Y24138D01*
X510279Y21893D01*
X511227Y20945D01*
X510701Y19675D01*
X500219D01*
X499693Y20945D01*
X500641Y21893D01*
X501938Y24138D01*
X502609Y26643D01*
Y29237D01*
X501938Y31742D01*
X500641Y33987D01*
X498807Y35821D01*
X496562Y37118D01*
X494057Y37789D01*
X491463D01*
X488958Y37118D01*
X488336Y36759D01*
X395538Y129557D01*
Y142438D01*
X396808Y142964D01*
X397813Y141959D01*
X400058Y140662D01*
X402563Y139991D01*
X405157D01*
X407662Y140662D01*
X409907Y141959D01*
X411741Y143793D01*
X413038Y146039D01*
X413709Y148544D01*
Y151137D01*
X413038Y153642D01*
X411741Y155888D01*
X409907Y157721D01*
X407662Y159018D01*
X405157Y159689D01*
X402563D01*
X400058Y159018D01*
X397813Y157721D01*
X396808Y156716D01*
X395538Y157243D01*
Y163813D01*
X406058Y174333D01*
X406665Y175241D01*
X407217Y175364D01*
X408038Y175402D01*
X408679Y174293D01*
X410513Y172459D01*
X412758Y171162D01*
X415263Y170491D01*
X417857D01*
X420362Y171162D01*
X422607Y172459D01*
X424441Y174293D01*
X425738Y176538D01*
X426409Y179043D01*
Y181637D01*
X425738Y184142D01*
X424441Y186387D01*
X422607Y188221D01*
X420362Y189518D01*
X419668Y189704D01*
Y387439D01*
X420938Y388145D01*
X422357Y387557D01*
X424479D01*
X426440Y388369D01*
X427854Y389784D01*
X475781D01*
X476486Y388728D01*
X476250Y388157D01*
Y388112D01*
X486918D01*
Y388157D01*
X486267Y389730D01*
X486883Y391000D01*
X487164D01*
X488354Y391236D01*
X489362Y391910D01*
X491147Y393695D01*
X491821Y394704D01*
X492058Y395893D01*
Y443611D01*
X491821Y444800D01*
X491147Y445808D01*
X487972Y448983D01*
X486964Y449657D01*
X485775Y449894D01*
X447158D01*
X445743Y451308D01*
X443783Y452120D01*
X441661D01*
X439701Y451308D01*
X438200Y449808D01*
X437388Y447847D01*
Y445725D01*
X438200Y443764D01*
X439701Y442264D01*
X441661Y441452D01*
X443783D01*
X445743Y442264D01*
X447158Y443678D01*
X484488D01*
X485842Y442324D01*
Y431424D01*
X484640Y431015D01*
X484075Y431751D01*
X481634Y433624D01*
X478792Y434801D01*
X475742Y435203D01*
X472692Y434801D01*
X469850Y433624D01*
X467409Y431751D01*
X465536Y429310D01*
X464359Y426468D01*
X463957Y423418D01*
Y418338D01*
X464359Y415288D01*
X465536Y412446D01*
X467409Y410005D01*
X469850Y408132D01*
X472692Y406955D01*
X475742Y406553D01*
X478792Y406955D01*
X481634Y408132D01*
X484075Y410005D01*
X484640Y410741D01*
X485842Y410332D01*
Y397215D01*
X478897D01*
X477707Y396979D01*
X476699Y396305D01*
X476393Y395999D01*
X428135D01*
X427545Y396749D01*
X428082Y397958D01*
X445008D01*
X446197Y398195D01*
X447206Y398868D01*
X452539Y404202D01*
X453213Y405211D01*
X453450Y406400D01*
Y406979D01*
X456234Y408132D01*
X458675Y410005D01*
X460548Y412446D01*
X461725Y415288D01*
X462127Y418338D01*
Y423418D01*
X461725Y426468D01*
X460548Y429310D01*
X458675Y431751D01*
X456234Y433624D01*
X453392Y434801D01*
X450342Y435203D01*
X447292Y434801D01*
X444450Y433624D01*
X442009Y431751D01*
X440136Y429310D01*
X438959Y426468D01*
X438557Y423418D01*
Y418338D01*
X438959Y415288D01*
X440136Y412446D01*
X442009Y410005D01*
X444450Y408132D01*
X445677Y407623D01*
X445925Y406378D01*
X443721Y404174D01*
X420751D01*
X419562Y403937D01*
X418554Y403264D01*
X414362Y399072D01*
X413689Y398064D01*
X413452Y396875D01*
Y189704D01*
X412758Y189518D01*
X410513Y188221D01*
X408679Y186387D01*
X408238Y185623D01*
X406968Y185964D01*
Y305444D01*
X408382Y306859D01*
X409194Y308819D01*
Y310941D01*
X408382Y312901D01*
X406881Y314402D01*
X404921Y315214D01*
X402799D01*
X400839Y314402D01*
X399338Y312901D01*
X398526Y310941D01*
Y308819D01*
X399338Y306859D01*
X400752Y305444D01*
Y185964D01*
X399482Y185623D01*
X399041Y186387D01*
X397207Y188221D01*
X394962Y189518D01*
X392457Y190189D01*
X389863D01*
X387358Y189518D01*
X386736Y189159D01*
X354898Y220997D01*
Y308547D01*
X356168Y308887D01*
X356919Y307585D01*
X358385Y306119D01*
X360181Y305083D01*
X362183Y304546D01*
X364257D01*
X366259Y305083D01*
X368055Y306119D01*
X369521Y307585D01*
X370518Y309312D01*
X381830D01*
X382827Y307585D01*
X384293Y306119D01*
X386089Y305083D01*
X388091Y304546D01*
X390165D01*
X392167Y305083D01*
X393963Y306119D01*
X395429Y307585D01*
X396465Y309381D01*
X397002Y311383D01*
Y313457D01*
X396465Y315459D01*
X395429Y317255D01*
X393963Y318721D01*
X392167Y319757D01*
X390165Y320294D01*
X388091D01*
X386089Y319757D01*
X384293Y318721D01*
X382827Y317255D01*
X381830Y315528D01*
X370518D01*
X369521Y317255D01*
X368055Y318721D01*
X366259Y319757D01*
X364257Y320294D01*
X362183D01*
X360181Y319757D01*
X358385Y318721D01*
X356919Y317255D01*
X356168Y315953D01*
X354898Y316293D01*
Y392683D01*
X356168Y393209D01*
X356897Y392480D01*
X358857Y391668D01*
X360979D01*
X361337Y391816D01*
X361750Y391591D01*
X362458Y390906D01*
Y389083D01*
X363270Y387122D01*
X364771Y385622D01*
X366731Y384810D01*
X368853D01*
X370813Y385622D01*
X372314Y387122D01*
X373126Y389083D01*
Y391205D01*
X372314Y393166D01*
X370900Y394580D01*
Y404368D01*
X370698Y405384D01*
X370862Y405832D01*
X371458Y406654D01*
X385826D01*
Y435102D01*
X365718D01*
X365232Y436275D01*
X407836Y478879D01*
X408509Y479887D01*
X408746Y481076D01*
Y511588D01*
X410160Y513002D01*
X410972Y514962D01*
Y517084D01*
X410160Y519045D01*
X408660Y520545D01*
X406699Y521357D01*
X404577D01*
X403706Y520996D01*
X402650Y521702D01*
Y559379D01*
X405434Y560532D01*
X407875Y562405D01*
X409748Y564846D01*
X410925Y567688D01*
X411327Y570738D01*
Y575818D01*
X410925Y578868D01*
X409748Y581710D01*
X407875Y584151D01*
X405434Y586024D01*
X402592Y587201D01*
X399542Y587603D01*
X396492Y587201D01*
X393650Y586024D01*
X391209Y584151D01*
X389336Y581710D01*
X388159Y578868D01*
X387757Y575818D01*
Y570738D01*
X388159Y567688D01*
X389336Y564846D01*
X391209Y562405D01*
X393650Y560532D01*
X396434Y559379D01*
Y520463D01*
X349593Y473621D01*
X348919Y472613D01*
X348682Y471424D01*
Y341749D01*
X347509Y341262D01*
X347192Y341580D01*
X345231Y342392D01*
X343109D01*
X341148Y341580D01*
X339648Y340079D01*
X338836Y338119D01*
Y335997D01*
X339648Y334036D01*
X341062Y332622D01*
Y220345D01*
X341299Y219156D01*
X341973Y218148D01*
X369187Y190933D01*
X368530Y189794D01*
X367057Y190189D01*
X364463D01*
X361958Y189518D01*
X359713Y188221D01*
X357879Y186387D01*
X356582Y184142D01*
X355911Y181637D01*
Y179043D01*
X356582Y176538D01*
X356941Y175916D01*
X349233Y168208D01*
X332122D01*
X330768Y169562D01*
Y174716D01*
X332038Y175057D01*
X332479Y174293D01*
X334313Y172459D01*
X336558Y171162D01*
X339063Y170491D01*
X341657D01*
X344162Y171162D01*
X346407Y172459D01*
X348241Y174293D01*
X349538Y176538D01*
X350209Y179043D01*
Y181637D01*
X349538Y184142D01*
X348241Y186387D01*
X346407Y188221D01*
X344162Y189518D01*
X341657Y190189D01*
X339063D01*
X336558Y189518D01*
X335936Y189159D01*
X259140Y265955D01*
Y493310D01*
X258903Y494499D01*
X258230Y495508D01*
X217312Y536426D01*
X216303Y537099D01*
X215114Y537336D01*
X124411D01*
X120710Y541037D01*
Y559379D01*
X123494Y560532D01*
X125935Y562405D01*
X127808Y564846D01*
X128985Y567688D01*
X129387Y570738D01*
Y575818D01*
X128985Y578868D01*
X127808Y581710D01*
X125935Y584151D01*
X123494Y586024D01*
X120652Y587201D01*
X117602Y587603D01*
X114552Y587201D01*
X111710Y586024D01*
X109269Y584151D01*
X107396Y581710D01*
X106219Y578868D01*
X105817Y575818D01*
Y570738D01*
X106219Y567688D01*
X107396Y564846D01*
X109269Y562405D01*
X111710Y560532D01*
X114494Y559379D01*
Y539750D01*
X114731Y538561D01*
X115405Y537552D01*
X120927Y532031D01*
X121935Y531357D01*
X123124Y531120D01*
X213827D01*
X252924Y492023D01*
Y266093D01*
X251654Y265567D01*
X171510Y345711D01*
Y364879D01*
X172780Y365586D01*
X174199Y364998D01*
X176321D01*
X178281Y365810D01*
X179696Y367224D01*
X228346D01*
X229535Y367461D01*
X230543Y368134D01*
X231560Y369151D01*
X232233Y370159D01*
X232470Y371348D01*
Y459486D01*
X232233Y460675D01*
X231560Y461684D01*
X195505Y497738D01*
Y499738D01*
X194693Y501698D01*
X193193Y503199D01*
X191232Y504011D01*
X189110D01*
X187150Y503199D01*
X185649Y501698D01*
X184837Y499738D01*
Y498569D01*
X183567Y497935D01*
X183134Y498261D01*
Y499663D01*
X182322Y501623D01*
X180821Y503124D01*
X178861Y503936D01*
X176739D01*
X174778Y503124D01*
X173278Y501623D01*
X172466Y499663D01*
Y497541D01*
X173278Y495580D01*
X174778Y494080D01*
X176739Y493268D01*
X178739D01*
X203902Y468105D01*
Y431424D01*
X202700Y431015D01*
X202135Y431751D01*
X199694Y433624D01*
X196852Y434801D01*
X193802Y435203D01*
X190752Y434801D01*
X187910Y433624D01*
X185469Y431751D01*
X183596Y429310D01*
X182419Y426468D01*
X182017Y423418D01*
Y418338D01*
X182419Y415288D01*
X183596Y412446D01*
X185469Y410005D01*
X185719Y409813D01*
X185320Y408607D01*
X178257Y408491D01*
X177689Y408369D01*
X177119Y408255D01*
X177097Y408241D01*
X177072Y408235D01*
X176594Y407905D01*
X176110Y407581D01*
X172683Y404154D01*
X171510Y404640D01*
Y406979D01*
X174294Y408132D01*
X176735Y410005D01*
X178608Y412446D01*
X179785Y415288D01*
X180187Y418338D01*
Y423418D01*
X179785Y426468D01*
X178608Y429310D01*
X176735Y431751D01*
X174294Y433624D01*
X171452Y434801D01*
X168402Y435203D01*
X165352Y434801D01*
X162510Y433624D01*
X160069Y431751D01*
X158196Y429310D01*
X157019Y426468D01*
X156617Y423418D01*
Y418338D01*
X157019Y415288D01*
X158196Y412446D01*
X160069Y410005D01*
X162510Y408132D01*
X165294Y406979D01*
Y350013D01*
X164024Y349487D01*
X163549Y349962D01*
X161589Y350774D01*
X159467D01*
X157507Y349962D01*
X156006Y348461D01*
X155194Y346501D01*
Y344379D01*
X156006Y342419D01*
X157507Y340918D01*
X159467Y340106D01*
X161467D01*
X267910Y233663D01*
Y147066D01*
X268147Y145877D01*
X268820Y144868D01*
X351222Y62467D01*
Y30362D01*
X349952Y30195D01*
X349538Y31742D01*
X348241Y33987D01*
X346407Y35821D01*
X344162Y37118D01*
X341657Y37789D01*
X339063D01*
X336558Y37118D01*
X334313Y35821D01*
X332479Y33987D01*
X331182Y31742D01*
X330511Y29237D01*
Y26643D01*
X331182Y24138D01*
X332479Y21893D01*
X334313Y20059D01*
X336558Y18762D01*
X339063Y18091D01*
X341657D01*
X344162Y18762D01*
X346407Y20059D01*
X348241Y21893D01*
X349538Y24138D01*
X349952Y25685D01*
X351222Y25518D01*
Y16510D01*
X351459Y15321D01*
X352132Y14312D01*
X355971Y10474D01*
X355445Y9204D01*
X272559D01*
X250504Y31259D01*
Y242824D01*
X250267Y244013D01*
X249594Y245021D01*
X177038Y317577D01*
Y319577D01*
X176226Y321538D01*
X174725Y323038D01*
X172765Y323850D01*
X170643D01*
X168682Y323038D01*
X167182Y321538D01*
X166370Y319577D01*
Y317455D01*
X167182Y315494D01*
X168682Y313994D01*
X170643Y313182D01*
X172643D01*
X244288Y241537D01*
Y29972D01*
X244525Y28783D01*
X245198Y27775D01*
X267819Y5155D01*
X267292Y3884D01*
X5155D01*
Y742876D01*
X1130226D01*
Y3884D01*
D02*
G37*
%LPC*%
G36*
X926004Y236874D02*
X920496D01*
Y229616D01*
X926004D01*
Y236874D01*
D02*
G37*
G36*
X918464D02*
X912956D01*
Y229616D01*
X918464D01*
Y236874D01*
D02*
G37*
G36*
X926004Y227584D02*
X920496D01*
Y220326D01*
X926004D01*
Y227584D01*
D02*
G37*
G36*
X918464D02*
X912956D01*
Y220326D01*
X918464D01*
Y227584D01*
D02*
G37*
G36*
X948882Y208384D02*
X948776D01*
Y200876D01*
X956284D01*
Y200982D01*
X955703Y203150D01*
X954581Y205094D01*
X952994Y206681D01*
X951050Y207803D01*
X948882Y208384D01*
D02*
G37*
G36*
X946744D02*
X946638D01*
X944470Y207803D01*
X942526Y206681D01*
X940939Y205094D01*
X939817Y203150D01*
X939236Y200982D01*
Y200876D01*
X946744D01*
Y208384D01*
D02*
G37*
G36*
X956284Y198844D02*
X948776D01*
Y191336D01*
X948882D01*
X951050Y191917D01*
X952994Y193039D01*
X954581Y194626D01*
X955703Y196570D01*
X956284Y198738D01*
Y198844D01*
D02*
G37*
G36*
X946744D02*
X939236D01*
Y198738D01*
X939817Y196570D01*
X940939Y194626D01*
X942526Y193039D01*
X944470Y191917D01*
X946638Y191336D01*
X946744D01*
Y198844D01*
D02*
G37*
G36*
X948882Y92344D02*
X948776D01*
Y84836D01*
X956284D01*
Y84942D01*
X955703Y87110D01*
X954581Y89054D01*
X952994Y90641D01*
X951050Y91763D01*
X948882Y92344D01*
D02*
G37*
G36*
X956284Y82804D02*
X948776D01*
Y75296D01*
X948882D01*
X951050Y75877D01*
X952994Y76999D01*
X954581Y78586D01*
X955703Y80530D01*
X956284Y82698D01*
Y82804D01*
D02*
G37*
G36*
X683260Y435203D02*
X680210Y434801D01*
X677368Y433624D01*
X674927Y431751D01*
X673054Y429310D01*
X671877Y426468D01*
X671475Y423418D01*
Y418338D01*
X671877Y415288D01*
X673054Y412446D01*
X674927Y410005D01*
X677368Y408132D01*
X680210Y406955D01*
X683260Y406553D01*
X686310Y406955D01*
X689152Y408132D01*
X691593Y410005D01*
X693466Y412446D01*
X694643Y415288D01*
X695045Y418338D01*
Y423418D01*
X694643Y426468D01*
X693466Y429310D01*
X691593Y431751D01*
X689152Y433624D01*
X686310Y434801D01*
X683260Y435203D01*
D02*
G37*
G36*
X290857Y190189D02*
X290576D01*
Y181356D01*
X299409D01*
Y181637D01*
X298738Y184142D01*
X297441Y186387D01*
X295607Y188221D01*
X293362Y189518D01*
X290857Y190189D01*
D02*
G37*
G36*
X288544D02*
X288263D01*
X285758Y189518D01*
X283513Y188221D01*
X281679Y186387D01*
X280382Y184142D01*
X279711Y181637D01*
Y181356D01*
X288544D01*
Y190189D01*
D02*
G37*
G36*
X299409Y179324D02*
X290576D01*
Y170491D01*
X290857D01*
X293362Y171162D01*
X295607Y172459D01*
X297441Y174293D01*
X298738Y176538D01*
X299409Y179043D01*
Y179324D01*
D02*
G37*
G36*
X288544D02*
X279711D01*
Y179043D01*
X280382Y176538D01*
X281679Y174293D01*
X283513Y172459D01*
X285758Y171162D01*
X288263Y170491D01*
X288544D01*
Y179324D01*
D02*
G37*
G36*
X392457Y37789D02*
X389863D01*
X387358Y37118D01*
X385113Y35821D01*
X383279Y33987D01*
X381982Y31742D01*
X381311Y29237D01*
Y26643D01*
X381982Y24138D01*
X383279Y21893D01*
X385113Y20059D01*
X387358Y18762D01*
X389863Y18091D01*
X392457D01*
X394962Y18762D01*
X397207Y20059D01*
X399041Y21893D01*
X400338Y24138D01*
X401009Y26643D01*
Y29237D01*
X400338Y31742D01*
X399041Y33987D01*
X397207Y35821D01*
X394962Y37118D01*
X392457Y37789D01*
D02*
G37*
G36*
X455957Y159689D02*
X455676D01*
Y150856D01*
X464509D01*
Y151137D01*
X463838Y153642D01*
X462541Y155888D01*
X460707Y157721D01*
X458462Y159018D01*
X455957Y159689D01*
D02*
G37*
G36*
X464509Y148824D02*
X455676D01*
Y139991D01*
X455957D01*
X458462Y140662D01*
X460707Y141959D01*
X462541Y143793D01*
X463838Y146039D01*
X464509Y148544D01*
Y148824D01*
D02*
G37*
G36*
X581524Y718684D02*
X572516D01*
Y709676D01*
X581524D01*
Y718684D01*
D02*
G37*
G36*
X570484D02*
X561476D01*
Y709676D01*
X570484D01*
Y718684D01*
D02*
G37*
G36*
X369361Y708152D02*
X367239D01*
X365279Y707340D01*
X363864Y705926D01*
X194428D01*
X193013Y707340D01*
X191053Y708152D01*
X188931D01*
X186971Y707340D01*
X185470Y705839D01*
X184658Y703879D01*
Y701757D01*
X185470Y699797D01*
X186971Y698296D01*
X188931Y697484D01*
X191053D01*
X193013Y698296D01*
X194428Y699710D01*
X363864D01*
X365279Y698296D01*
X367239Y697484D01*
X369361D01*
X371321Y698296D01*
X372822Y699797D01*
X373634Y701757D01*
Y703879D01*
X372822Y705839D01*
X371321Y707340D01*
X369361Y708152D01*
D02*
G37*
G36*
X749164Y707644D02*
X740156D01*
Y698636D01*
X749164D01*
Y707644D01*
D02*
G37*
G36*
X738124D02*
X729116D01*
Y698636D01*
X738124D01*
Y707644D01*
D02*
G37*
G36*
X598220Y718684D02*
X595580D01*
X593031Y718001D01*
X590745Y716681D01*
X588879Y714815D01*
X587559Y712529D01*
X586876Y709980D01*
Y707340D01*
X587559Y704791D01*
X588879Y702505D01*
X590745Y700639D01*
X593031Y699319D01*
X595580Y698636D01*
X598220D01*
X600769Y699319D01*
X603055Y700639D01*
X604921Y702505D01*
X606241Y704791D01*
X606924Y707340D01*
Y709980D01*
X606241Y712529D01*
X604921Y714815D01*
X603055Y716681D01*
X600769Y718001D01*
X598220Y718684D01*
D02*
G37*
G36*
X581524Y707644D02*
X572516D01*
Y698636D01*
X581524D01*
Y707644D01*
D02*
G37*
G36*
X570484D02*
X561476D01*
Y698636D01*
X570484D01*
Y707644D01*
D02*
G37*
G36*
X424995Y627634D02*
X422921D01*
X420919Y627097D01*
X419123Y626061D01*
X417657Y624595D01*
X416884Y623256D01*
X368300D01*
X366962Y622990D01*
X365828Y622232D01*
X345770Y602174D01*
X337619D01*
X337537Y602479D01*
X336501Y604275D01*
X335035Y605741D01*
X333239Y606777D01*
X331237Y607314D01*
X329163D01*
X327161Y606777D01*
X325365Y605741D01*
X323899Y604275D01*
X322863Y602479D01*
X322326Y600477D01*
Y598403D01*
X322863Y596401D01*
X323899Y594605D01*
X325365Y593139D01*
X327161Y592103D01*
X329163Y591566D01*
X331237D01*
X333239Y592103D01*
X335035Y593139D01*
X336501Y594605D01*
X336834Y595182D01*
X347218D01*
X348556Y595448D01*
X349690Y596206D01*
X369748Y616264D01*
X416884D01*
X417657Y614925D01*
X419123Y613459D01*
X420919Y612423D01*
X422921Y611886D01*
X424995D01*
X426997Y612423D01*
X428793Y613459D01*
X430259Y614925D01*
X431296Y616721D01*
X431832Y618723D01*
Y620797D01*
X431296Y622799D01*
X430259Y624595D01*
X428793Y626061D01*
X426997Y627097D01*
X424995Y627634D01*
D02*
G37*
G36*
X1041400Y587603D02*
X1038350Y587201D01*
X1035508Y586024D01*
X1033067Y584151D01*
X1031194Y581710D01*
X1030017Y578868D01*
X1029615Y575818D01*
Y570738D01*
X1030017Y567688D01*
X1031194Y564846D01*
X1033067Y562405D01*
X1035508Y560532D01*
X1038350Y559355D01*
X1041400Y558953D01*
X1044450Y559355D01*
X1047292Y560532D01*
X1049733Y562405D01*
X1051606Y564846D01*
X1052783Y567688D01*
X1053185Y570738D01*
Y575818D01*
X1052783Y578868D01*
X1051606Y581710D01*
X1049733Y584151D01*
X1047292Y586024D01*
X1044450Y587201D01*
X1041400Y587603D01*
D02*
G37*
G36*
X1016000D02*
X1012950Y587201D01*
X1010108Y586024D01*
X1007667Y584151D01*
X1005794Y581710D01*
X1004617Y578868D01*
X1004215Y575818D01*
Y570738D01*
X1004617Y567688D01*
X1005794Y564846D01*
X1007667Y562405D01*
X1010108Y560532D01*
X1012950Y559355D01*
X1016000Y558953D01*
X1019050Y559355D01*
X1021892Y560532D01*
X1024333Y562405D01*
X1026206Y564846D01*
X1027383Y567688D01*
X1027785Y570738D01*
Y575818D01*
X1027383Y578868D01*
X1026206Y581710D01*
X1024333Y584151D01*
X1021892Y586024D01*
X1019050Y587201D01*
X1016000Y587603D01*
D02*
G37*
G36*
X965200D02*
X962150Y587201D01*
X959308Y586024D01*
X956867Y584151D01*
X954994Y581710D01*
X953817Y578868D01*
X953415Y575818D01*
Y570738D01*
X953817Y567688D01*
X954994Y564846D01*
X956867Y562405D01*
X959308Y560532D01*
X962150Y559355D01*
X965200Y558953D01*
X968250Y559355D01*
X971092Y560532D01*
X973533Y562405D01*
X975406Y564846D01*
X976583Y567688D01*
X976985Y570738D01*
Y575818D01*
X976583Y578868D01*
X975406Y581710D01*
X973533Y584151D01*
X971092Y586024D01*
X968250Y587201D01*
X965200Y587603D01*
D02*
G37*
G36*
X850691Y734314D02*
X848569D01*
X846609Y733502D01*
X845108Y732001D01*
X844296Y730041D01*
Y727919D01*
X845108Y725958D01*
X846609Y724458D01*
X848569Y723646D01*
X850569D01*
X923484Y650731D01*
Y397764D01*
X923721Y396575D01*
X924395Y395566D01*
X1028386Y291575D01*
Y146584D01*
X1027116Y146058D01*
X1026654Y146521D01*
X1024710Y147643D01*
X1022542Y148224D01*
X1022436D01*
Y139700D01*
Y131176D01*
X1022542D01*
X1024710Y131757D01*
X1026654Y132879D01*
X1027116Y133342D01*
X1028386Y132816D01*
Y121584D01*
X1027116Y121058D01*
X1026654Y121521D01*
X1024710Y122643D01*
X1022542Y123224D01*
X1020298D01*
X1018130Y122643D01*
X1016186Y121521D01*
X1014599Y119934D01*
X1013477Y117990D01*
X1012896Y115822D01*
Y113578D01*
X1013477Y111410D01*
X1014599Y109466D01*
X1016186Y107879D01*
X1018130Y106757D01*
X1020298Y106176D01*
X1022542D01*
X1024710Y106757D01*
X1026654Y107879D01*
X1027116Y108342D01*
X1028386Y107815D01*
Y96585D01*
X1027116Y96058D01*
X1026654Y96521D01*
X1024710Y97643D01*
X1022542Y98224D01*
X1020298D01*
X1018130Y97643D01*
X1016186Y96521D01*
X1014599Y94934D01*
X1013477Y92990D01*
X1012896Y90822D01*
Y88578D01*
X1013477Y86410D01*
X1014599Y84466D01*
X1016186Y82879D01*
X1018130Y81757D01*
X1020298Y81176D01*
X1022542D01*
X1024710Y81757D01*
X1026654Y82879D01*
X1027116Y83342D01*
X1028386Y82816D01*
Y76061D01*
X1025549Y73224D01*
X1012896D01*
Y56176D01*
X1029944D01*
Y68829D01*
X1033691Y72577D01*
X1034365Y73585D01*
X1034602Y74774D01*
Y292862D01*
X1034365Y294051D01*
X1033691Y295060D01*
X929700Y399051D01*
Y406654D01*
X951484D01*
Y435102D01*
X942908D01*
Y477910D01*
X944322Y479324D01*
X945134Y481285D01*
Y483407D01*
X944322Y485368D01*
X942822Y486868D01*
X940861Y487680D01*
X938739D01*
X936778Y486868D01*
X935278Y485368D01*
X934466Y483407D01*
Y481285D01*
X935278Y479324D01*
X936692Y477910D01*
Y435102D01*
X929700D01*
Y562732D01*
X930902Y563141D01*
X931467Y562405D01*
X933908Y560532D01*
X936750Y559355D01*
X939800Y558953D01*
X942850Y559355D01*
X945692Y560532D01*
X948133Y562405D01*
X950006Y564846D01*
X951183Y567688D01*
X951585Y570738D01*
Y575818D01*
X951183Y578868D01*
X950006Y581710D01*
X948133Y584151D01*
X945692Y586024D01*
X942850Y587201D01*
X939800Y587603D01*
X936750Y587201D01*
X933908Y586024D01*
X931467Y584151D01*
X930902Y583415D01*
X929700Y583824D01*
Y652018D01*
X929463Y653207D01*
X928790Y654215D01*
X854964Y728041D01*
Y730041D01*
X854152Y732001D01*
X852652Y733502D01*
X850691Y734314D01*
D02*
G37*
G36*
X475742Y587603D02*
X472692Y587201D01*
X469850Y586024D01*
X467409Y584151D01*
X465536Y581710D01*
X464359Y578868D01*
X463957Y575818D01*
Y570738D01*
X464359Y567688D01*
X465536Y564846D01*
X467409Y562405D01*
X469850Y560532D01*
X472692Y559355D01*
X475742Y558953D01*
X478792Y559355D01*
X481634Y560532D01*
X484075Y562405D01*
X485948Y564846D01*
X487125Y567688D01*
X487527Y570738D01*
Y575818D01*
X487125Y578868D01*
X485948Y581710D01*
X484075Y584151D01*
X481634Y586024D01*
X478792Y587201D01*
X475742Y587603D01*
D02*
G37*
G36*
X450342D02*
X447292Y587201D01*
X444450Y586024D01*
X442009Y584151D01*
X440136Y581710D01*
X438959Y578868D01*
X438557Y575818D01*
Y570738D01*
X438959Y567688D01*
X440136Y564846D01*
X442009Y562405D01*
X444450Y560532D01*
X447292Y559355D01*
X450342Y558953D01*
X453392Y559355D01*
X456234Y560532D01*
X458675Y562405D01*
X460548Y564846D01*
X461725Y567688D01*
X462127Y570738D01*
Y575818D01*
X461725Y578868D01*
X460548Y581710D01*
X458675Y584151D01*
X456234Y586024D01*
X453392Y587201D01*
X450342Y587603D01*
D02*
G37*
G36*
X424942D02*
X421892Y587201D01*
X419050Y586024D01*
X416609Y584151D01*
X414736Y581710D01*
X413559Y578868D01*
X413157Y575818D01*
Y570738D01*
X413559Y567688D01*
X414736Y564846D01*
X416609Y562405D01*
X419050Y560532D01*
X421892Y559355D01*
X424942Y558953D01*
X427992Y559355D01*
X430834Y560532D01*
X433275Y562405D01*
X435148Y564846D01*
X436325Y567688D01*
X436727Y570738D01*
Y575818D01*
X436325Y578868D01*
X435148Y581710D01*
X433275Y584151D01*
X430834Y586024D01*
X427992Y587201D01*
X424942Y587603D01*
D02*
G37*
G36*
X374142D02*
X371092Y587201D01*
X368250Y586024D01*
X365809Y584151D01*
X363936Y581710D01*
X362759Y578868D01*
X362357Y575818D01*
Y570738D01*
X362759Y567688D01*
X363936Y564846D01*
X365809Y562405D01*
X368250Y560532D01*
X371092Y559355D01*
X374142Y558953D01*
X377192Y559355D01*
X380034Y560532D01*
X382475Y562405D01*
X384348Y564846D01*
X385525Y567688D01*
X385927Y570738D01*
Y575818D01*
X385525Y578868D01*
X384348Y581710D01*
X382475Y584151D01*
X380034Y586024D01*
X377192Y587201D01*
X374142Y587603D01*
D02*
G37*
G36*
X193802D02*
X190752Y587201D01*
X187910Y586024D01*
X185469Y584151D01*
X183596Y581710D01*
X182419Y578868D01*
X182017Y575818D01*
Y570738D01*
X182419Y567688D01*
X183596Y564846D01*
X185469Y562405D01*
X187910Y560532D01*
X190752Y559355D01*
X193802Y558953D01*
X196852Y559355D01*
X199694Y560532D01*
X202135Y562405D01*
X204008Y564846D01*
X205185Y567688D01*
X205587Y570738D01*
Y575818D01*
X205185Y578868D01*
X204008Y581710D01*
X202135Y584151D01*
X199694Y586024D01*
X196852Y587201D01*
X193802Y587603D01*
D02*
G37*
G36*
X168402D02*
X165352Y587201D01*
X162510Y586024D01*
X160069Y584151D01*
X158196Y581710D01*
X157019Y578868D01*
X156617Y575818D01*
Y570738D01*
X157019Y567688D01*
X158196Y564846D01*
X160069Y562405D01*
X162510Y560532D01*
X165352Y559355D01*
X168402Y558953D01*
X171452Y559355D01*
X174294Y560532D01*
X176735Y562405D01*
X178608Y564846D01*
X179785Y567688D01*
X180187Y570738D01*
Y575818D01*
X179785Y578868D01*
X178608Y581710D01*
X176735Y584151D01*
X174294Y586024D01*
X171452Y587201D01*
X168402Y587603D01*
D02*
G37*
G36*
X143002D02*
X139952Y587201D01*
X137110Y586024D01*
X134669Y584151D01*
X132796Y581710D01*
X131619Y578868D01*
X131217Y575818D01*
Y570738D01*
X131619Y567688D01*
X132796Y564846D01*
X134669Y562405D01*
X137110Y560532D01*
X139952Y559355D01*
X143002Y558953D01*
X146052Y559355D01*
X148894Y560532D01*
X151335Y562405D01*
X153208Y564846D01*
X154385Y567688D01*
X154787Y570738D01*
Y575818D01*
X154385Y578868D01*
X153208Y581710D01*
X151335Y584151D01*
X148894Y586024D01*
X146052Y587201D01*
X143002Y587603D01*
D02*
G37*
G36*
X92202D02*
X89152Y587201D01*
X86310Y586024D01*
X83869Y584151D01*
X81996Y581710D01*
X80819Y578868D01*
X80417Y575818D01*
Y570738D01*
X80819Y567688D01*
X81996Y564846D01*
X83869Y562405D01*
X86310Y560532D01*
X89152Y559355D01*
X92202Y558953D01*
X95252Y559355D01*
X98094Y560532D01*
X100535Y562405D01*
X102408Y564846D01*
X103585Y567688D01*
X103987Y570738D01*
Y575818D01*
X103585Y578868D01*
X102408Y581710D01*
X100535Y584151D01*
X98094Y586024D01*
X95252Y587201D01*
X92202Y587603D01*
D02*
G37*
G36*
X990600D02*
X987550Y587201D01*
X984708Y586024D01*
X982267Y584151D01*
X980394Y581710D01*
X979217Y578868D01*
X978815Y575818D01*
Y570738D01*
X979217Y567688D01*
X980394Y564846D01*
X982267Y562405D01*
X984708Y560532D01*
X987492Y559379D01*
Y551660D01*
X983919Y548087D01*
X981919D01*
X979958Y547275D01*
X978458Y545774D01*
X977646Y543814D01*
Y541692D01*
X978458Y539731D01*
X979958Y538231D01*
X981919Y537419D01*
X984041D01*
X986002Y538231D01*
X987502Y539731D01*
X988314Y541692D01*
Y543692D01*
X992797Y548175D01*
X993471Y549184D01*
X993708Y550373D01*
Y559379D01*
X996492Y560532D01*
X998933Y562405D01*
X1000806Y564846D01*
X1001983Y567688D01*
X1002385Y570738D01*
Y575818D01*
X1001983Y578868D01*
X1000806Y581710D01*
X998933Y584151D01*
X996492Y586024D01*
X993650Y587201D01*
X990600Y587603D01*
D02*
G37*
G36*
X494583Y503428D02*
X494538D01*
Y499110D01*
X498856D01*
Y499155D01*
X498044Y501115D01*
X496544Y502616D01*
X494583Y503428D01*
D02*
G37*
G36*
X492506D02*
X492461D01*
X490500Y502616D01*
X489000Y501115D01*
X488188Y499155D01*
Y499110D01*
X492506D01*
Y503428D01*
D02*
G37*
G36*
X498856Y497078D02*
X494538D01*
Y492760D01*
X494583D01*
X496544Y493572D01*
X498044Y495073D01*
X498856Y497033D01*
Y497078D01*
D02*
G37*
G36*
X492506D02*
X488188D01*
Y497033D01*
X489000Y495073D01*
X490500Y493572D01*
X492461Y492760D01*
X492506D01*
Y497078D01*
D02*
G37*
G36*
X1019577Y505714D02*
X1017503D01*
X1015501Y505177D01*
X1013705Y504141D01*
X1012239Y502675D01*
X1011203Y500879D01*
X1010666Y498877D01*
Y496803D01*
X1011203Y494801D01*
X1012239Y493005D01*
X1013705Y491539D01*
X1015432Y490542D01*
Y453407D01*
X1000848Y438824D01*
X1000175Y437815D01*
X999938Y436626D01*
X1000175Y435437D01*
X1000715Y434628D01*
Y431404D01*
X999513Y430996D01*
X998933Y431751D01*
X996492Y433624D01*
X993650Y434801D01*
X990600Y435203D01*
X987550Y434801D01*
X984708Y433624D01*
X982267Y431751D01*
X980394Y429310D01*
X979217Y426468D01*
X978815Y423418D01*
Y418338D01*
X979217Y415288D01*
X980394Y412446D01*
X982267Y410005D01*
X984708Y408132D01*
X987550Y406955D01*
X990600Y406553D01*
X993650Y406955D01*
X996492Y408132D01*
X998802Y409904D01*
X999396Y409826D01*
X1000168Y409528D01*
X1000237Y409173D01*
X998931Y407868D01*
X998400Y407762D01*
X997476Y407144D01*
X996858Y406220D01*
X996641Y405130D01*
Y401959D01*
X996260Y401388D01*
X995994Y400050D01*
Y383122D01*
X995934Y382977D01*
Y381563D01*
X996159Y381020D01*
X996260Y380512D01*
X997018Y379378D01*
X998152Y378620D01*
X999490Y378354D01*
X1000828Y378620D01*
X1001962Y379378D01*
X1002720Y380512D01*
X1002821Y381020D01*
X1003046Y381563D01*
Y382977D01*
X1002986Y383122D01*
Y400050D01*
X1002720Y401388D01*
X1002339Y401959D01*
Y404683D01*
X1004694Y407038D01*
X1005199Y407794D01*
X1005377Y408686D01*
Y410903D01*
X1006647Y411334D01*
X1007667Y410005D01*
X1010108Y408132D01*
X1012892Y406979D01*
Y330708D01*
X1013129Y329519D01*
X1013802Y328511D01*
X1025049Y317264D01*
X1026057Y316590D01*
X1027247Y316354D01*
X1027991D01*
X1036066Y308279D01*
Y306279D01*
X1036878Y304319D01*
X1038379Y302818D01*
X1040339Y302006D01*
X1042461D01*
X1044421Y302818D01*
X1045922Y304319D01*
X1046734Y306279D01*
Y308401D01*
X1045922Y310361D01*
X1044421Y311862D01*
X1042461Y312674D01*
X1040461D01*
X1031476Y321659D01*
X1030468Y322333D01*
X1029279Y322569D01*
X1028534D01*
X1019108Y331995D01*
Y406979D01*
X1021892Y408132D01*
X1024333Y410005D01*
X1026206Y412446D01*
X1027383Y415288D01*
X1027785Y418338D01*
Y423418D01*
X1027383Y426468D01*
X1026206Y429310D01*
X1024333Y431751D01*
X1021892Y433624D01*
X1019050Y434801D01*
X1016000Y435203D01*
X1012950Y434801D01*
X1010108Y433624D01*
X1007667Y431751D01*
X1006647Y430422D01*
X1005377Y430853D01*
Y434562D01*
X1020738Y449922D01*
X1021411Y450931D01*
X1021648Y452120D01*
Y490542D01*
X1023375Y491539D01*
X1024841Y493005D01*
X1025877Y494801D01*
X1026414Y496803D01*
Y498877D01*
X1025877Y500879D01*
X1024841Y502675D01*
X1023375Y504141D01*
X1021579Y505177D01*
X1019577Y505714D01*
D02*
G37*
G36*
X103886Y435102D02*
X80518D01*
Y417128D01*
X74540D01*
X73126Y418542D01*
X71165Y419354D01*
X69043D01*
X67083Y418542D01*
X65582Y417042D01*
X64770Y415081D01*
Y412959D01*
X65582Y410998D01*
X67083Y409498D01*
X69043Y408686D01*
X71165D01*
X73126Y409498D01*
X74540Y410912D01*
X80518D01*
Y406654D01*
X103886D01*
Y435102D01*
D02*
G37*
G36*
X1041400Y435203D02*
X1038350Y434801D01*
X1035508Y433624D01*
X1033067Y431751D01*
X1031194Y429310D01*
X1030017Y426468D01*
X1029615Y423418D01*
Y418338D01*
X1030017Y415288D01*
X1031194Y412446D01*
X1033067Y410005D01*
X1035508Y408132D01*
X1038350Y406955D01*
X1041400Y406553D01*
X1044450Y406955D01*
X1047292Y408132D01*
X1049733Y410005D01*
X1051606Y412446D01*
X1052783Y415288D01*
X1053185Y418338D01*
Y423418D01*
X1052783Y426468D01*
X1051606Y429310D01*
X1049733Y431751D01*
X1047292Y433624D01*
X1044450Y434801D01*
X1041400Y435203D01*
D02*
G37*
G36*
X965200D02*
X962150Y434801D01*
X959308Y433624D01*
X956867Y431751D01*
X954994Y429310D01*
X953817Y426468D01*
X953415Y423418D01*
Y418338D01*
X953817Y415288D01*
X954994Y412446D01*
X956867Y410005D01*
X959308Y408132D01*
X962150Y406955D01*
X965200Y406553D01*
X968250Y406955D01*
X971092Y408132D01*
X973533Y410005D01*
X975406Y412446D01*
X976583Y415288D01*
X976985Y418338D01*
Y423418D01*
X976583Y426468D01*
X975406Y429310D01*
X973533Y431751D01*
X971092Y433624D01*
X968250Y434801D01*
X965200Y435203D01*
D02*
G37*
G36*
X424942D02*
X421892Y434801D01*
X419050Y433624D01*
X416609Y431751D01*
X414736Y429310D01*
X413559Y426468D01*
X413157Y423418D01*
Y418338D01*
X413559Y415288D01*
X414736Y412446D01*
X416609Y410005D01*
X419050Y408132D01*
X421892Y406955D01*
X424942Y406553D01*
X427992Y406955D01*
X430834Y408132D01*
X433275Y410005D01*
X435148Y412446D01*
X436325Y415288D01*
X436727Y418338D01*
Y423418D01*
X436325Y426468D01*
X435148Y429310D01*
X433275Y431751D01*
X430834Y433624D01*
X427992Y434801D01*
X424942Y435203D01*
D02*
G37*
G36*
X399542D02*
X396492Y434801D01*
X393650Y433624D01*
X391209Y431751D01*
X389336Y429310D01*
X388159Y426468D01*
X387757Y423418D01*
Y418338D01*
X388159Y415288D01*
X389336Y412446D01*
X391209Y410005D01*
X393650Y408132D01*
X396492Y406955D01*
X399542Y406553D01*
X402592Y406955D01*
X405434Y408132D01*
X407875Y410005D01*
X409748Y412446D01*
X410925Y415288D01*
X411327Y418338D01*
Y423418D01*
X410925Y426468D01*
X409748Y429310D01*
X407875Y431751D01*
X405434Y433624D01*
X402592Y434801D01*
X399542Y435203D01*
D02*
G37*
G36*
X143002D02*
X139952Y434801D01*
X137110Y433624D01*
X134669Y431751D01*
X132796Y429310D01*
X131619Y426468D01*
X131217Y423418D01*
Y418338D01*
X131619Y415288D01*
X132796Y412446D01*
X134669Y410005D01*
X137110Y408132D01*
X139952Y406955D01*
X143002Y406553D01*
X146052Y406955D01*
X148894Y408132D01*
X151335Y410005D01*
X153208Y412446D01*
X154385Y415288D01*
X154787Y418338D01*
Y423418D01*
X154385Y426468D01*
X153208Y429310D01*
X151335Y431751D01*
X148894Y433624D01*
X146052Y434801D01*
X143002Y435203D01*
D02*
G37*
G36*
X117602D02*
X114552Y434801D01*
X111710Y433624D01*
X109269Y431751D01*
X107396Y429310D01*
X106219Y426468D01*
X105817Y423418D01*
Y418338D01*
X106219Y415288D01*
X107396Y412446D01*
X109269Y410005D01*
X111710Y408132D01*
X114552Y406955D01*
X117602Y406553D01*
X120652Y406955D01*
X123494Y408132D01*
X125935Y410005D01*
X127808Y412446D01*
X128985Y415288D01*
X129387Y418338D01*
Y423418D01*
X128985Y426468D01*
X127808Y429310D01*
X125935Y431751D01*
X123494Y433624D01*
X120652Y434801D01*
X117602Y435203D01*
D02*
G37*
G36*
X486918Y386080D02*
X482600D01*
Y381762D01*
X482645D01*
X484605Y382574D01*
X486106Y384075D01*
X486918Y386035D01*
Y386080D01*
D02*
G37*
G36*
X480568D02*
X476250D01*
Y386035D01*
X477062Y384075D01*
X478563Y382574D01*
X480523Y381762D01*
X480568D01*
Y386080D01*
D02*
G37*
G36*
X154731Y309626D02*
X154686D01*
Y305308D01*
X159004D01*
Y305353D01*
X158192Y307313D01*
X156692Y308814D01*
X154731Y309626D01*
D02*
G37*
G36*
X152654D02*
X152609D01*
X150648Y308814D01*
X149148Y307313D01*
X148336Y305353D01*
Y305308D01*
X152654D01*
Y309626D01*
D02*
G37*
G36*
X308377Y483257D02*
X306303D01*
X304301Y482721D01*
X302505Y481684D01*
X301039Y480218D01*
X300003Y478423D01*
X299466Y476420D01*
Y474347D01*
X300003Y472344D01*
X301039Y470549D01*
X302505Y469083D01*
X304232Y468086D01*
Y327660D01*
X304469Y326471D01*
X305142Y325462D01*
X315222Y315383D01*
X314706Y313457D01*
Y311383D01*
X315243Y309381D01*
X316279Y307585D01*
X317745Y306119D01*
X319541Y305083D01*
X321543Y304546D01*
X323617D01*
X325619Y305083D01*
X327415Y306119D01*
X328881Y307585D01*
X329917Y309381D01*
X330454Y311383D01*
Y313457D01*
X329917Y315459D01*
X328881Y317255D01*
X327415Y318721D01*
X325619Y319757D01*
X323617Y320294D01*
X321543D01*
X319617Y319778D01*
X310448Y328947D01*
Y468086D01*
X312175Y469083D01*
X313641Y470549D01*
X314677Y472344D01*
X315214Y474347D01*
Y476420D01*
X314677Y478423D01*
X313641Y480218D01*
X312175Y481684D01*
X310379Y482721D01*
X308377Y483257D01*
D02*
G37*
G36*
X159004Y303276D02*
X154686D01*
Y298958D01*
X154731D01*
X156692Y299770D01*
X158192Y301271D01*
X159004Y303231D01*
Y303276D01*
D02*
G37*
G36*
X152654D02*
X148336D01*
Y303231D01*
X149148Y301271D01*
X150648Y299770D01*
X152609Y298958D01*
X152654D01*
Y303276D01*
D02*
G37*
G36*
X973881Y310134D02*
X971759D01*
X969799Y309322D01*
X968298Y307822D01*
X967486Y305861D01*
Y303861D01*
X957252Y293627D01*
X953460D01*
X952270Y293391D01*
X951262Y292717D01*
X937857Y279312D01*
X937183Y278303D01*
X936946Y277114D01*
Y253610D01*
X935532Y252195D01*
X934720Y250235D01*
Y248113D01*
X935532Y246152D01*
X937032Y244652D01*
X938993Y243840D01*
X941115D01*
X943075Y244652D01*
X944576Y246152D01*
X945388Y248113D01*
Y250235D01*
X944576Y252195D01*
X943162Y253610D01*
Y275827D01*
X954747Y287412D01*
X958540D01*
X959729Y287648D01*
X960737Y288322D01*
X971881Y299466D01*
X973881D01*
X975842Y300278D01*
X977342Y301779D01*
X978154Y303739D01*
Y305861D01*
X977342Y307822D01*
X975842Y309322D01*
X973881Y310134D01*
D02*
G37*
G36*
X824257Y190189D02*
X821663D01*
X819158Y189518D01*
X816913Y188221D01*
X815079Y186387D01*
X813782Y184142D01*
X813111Y181637D01*
Y179043D01*
X813782Y176538D01*
X815079Y174293D01*
X816913Y172459D01*
X819158Y171162D01*
X821663Y170491D01*
X824257D01*
X826762Y171162D01*
X829007Y172459D01*
X830841Y174293D01*
X832138Y176538D01*
X832809Y179043D01*
Y181637D01*
X832138Y184142D01*
X830841Y186387D01*
X829007Y188221D01*
X826762Y189518D01*
X824257Y190189D01*
D02*
G37*
G36*
X798857D02*
X796263D01*
X793758Y189518D01*
X791513Y188221D01*
X789679Y186387D01*
X788382Y184142D01*
X787711Y181637D01*
Y179043D01*
X788382Y176538D01*
X789679Y174293D01*
X791513Y172459D01*
X793758Y171162D01*
X796263Y170491D01*
X798857D01*
X801362Y171162D01*
X803607Y172459D01*
X805441Y174293D01*
X806738Y176538D01*
X807409Y179043D01*
Y181637D01*
X806738Y184142D01*
X805441Y186387D01*
X803607Y188221D01*
X801362Y189518D01*
X798857Y190189D01*
D02*
G37*
G36*
X773457D02*
X770863D01*
X768358Y189518D01*
X766113Y188221D01*
X764279Y186387D01*
X762982Y184142D01*
X762311Y181637D01*
Y179043D01*
X762982Y176538D01*
X764279Y174293D01*
X766113Y172459D01*
X768358Y171162D01*
X770863Y170491D01*
X773457D01*
X775962Y171162D01*
X778207Y172459D01*
X780041Y174293D01*
X781338Y176538D01*
X782009Y179043D01*
Y181637D01*
X781338Y184142D01*
X780041Y186387D01*
X778207Y188221D01*
X775962Y189518D01*
X773457Y190189D01*
D02*
G37*
G36*
X494057D02*
X491463D01*
X488958Y189518D01*
X486713Y188221D01*
X484879Y186387D01*
X483582Y184142D01*
X482911Y181637D01*
Y179043D01*
X483582Y176538D01*
X484879Y174293D01*
X486713Y172459D01*
X488958Y171162D01*
X491463Y170491D01*
X494057D01*
X496562Y171162D01*
X498807Y172459D01*
X500641Y174293D01*
X501938Y176538D01*
X502609Y179043D01*
Y181637D01*
X501938Y184142D01*
X500641Y186387D01*
X498807Y188221D01*
X496562Y189518D01*
X494057Y190189D01*
D02*
G37*
G36*
X44664Y171634D02*
X26116D01*
Y153086D01*
X44664D01*
Y171634D01*
D02*
G37*
G36*
X1101381Y159134D02*
X1101176D01*
Y150876D01*
X1109434D01*
Y151081D01*
X1108802Y153440D01*
X1107581Y155554D01*
X1105854Y157281D01*
X1103739Y158502D01*
X1101381Y159134D01*
D02*
G37*
G36*
X1099144D02*
X1098939D01*
X1096580Y158502D01*
X1094465Y157281D01*
X1092739Y155554D01*
X1091518Y153440D01*
X1090886Y151081D01*
Y150876D01*
X1099144D01*
Y159134D01*
D02*
G37*
G36*
X428244Y159689D02*
X427963D01*
X425458Y159018D01*
X423213Y157721D01*
X421379Y155888D01*
X420082Y153642D01*
X419411Y151137D01*
Y150856D01*
X428244D01*
Y159689D01*
D02*
G37*
G36*
X1020404Y148224D02*
X1020298D01*
X1018130Y147643D01*
X1016186Y146521D01*
X1014599Y144934D01*
X1013477Y142990D01*
X1012896Y140822D01*
Y140716D01*
X1020404D01*
Y148224D01*
D02*
G37*
G36*
X1109434Y148844D02*
X1101176D01*
Y140586D01*
X1101381D01*
X1103739Y141218D01*
X1105854Y142439D01*
X1107581Y144166D01*
X1108802Y146280D01*
X1109434Y148639D01*
Y148844D01*
D02*
G37*
G36*
X1099144D02*
X1090886D01*
Y148639D01*
X1091518Y146280D01*
X1092739Y144166D01*
X1094465Y142439D01*
X1096580Y141218D01*
X1098939Y140586D01*
X1099144D01*
Y148844D01*
D02*
G37*
G36*
X428244Y148824D02*
X419411D01*
Y148544D01*
X420082Y146039D01*
X421379Y143793D01*
X423213Y141959D01*
X425458Y140662D01*
X427963Y139991D01*
X428244D01*
Y148824D01*
D02*
G37*
G36*
X36611Y146634D02*
X36406D01*
Y138376D01*
X44664D01*
Y138581D01*
X44032Y140940D01*
X42811Y143055D01*
X41084Y144781D01*
X38969Y146002D01*
X36611Y146634D01*
D02*
G37*
G36*
X34374D02*
X34169D01*
X31810Y146002D01*
X29695Y144781D01*
X27969Y143055D01*
X26748Y140940D01*
X26116Y138581D01*
Y138376D01*
X34374D01*
Y146634D01*
D02*
G37*
G36*
X125341Y143894D02*
X125136D01*
Y135636D01*
X133394D01*
Y135841D01*
X132762Y138200D01*
X131541Y140314D01*
X129815Y142041D01*
X127700Y143262D01*
X125341Y143894D01*
D02*
G37*
G36*
X866902Y139954D02*
X866857D01*
X864896Y139142D01*
X863396Y137641D01*
X862584Y135681D01*
Y135636D01*
X866902D01*
Y139954D01*
D02*
G37*
G36*
X123104Y143894D02*
X122899D01*
X120541Y143262D01*
X118426Y142041D01*
X116699Y140314D01*
X115478Y138200D01*
X114846Y135841D01*
Y135636D01*
X123104D01*
Y143894D01*
D02*
G37*
G36*
X214411Y141554D02*
X214206D01*
Y133296D01*
X222464D01*
Y133501D01*
X221832Y135860D01*
X220611Y137975D01*
X218884Y139701D01*
X216769Y140922D01*
X214411Y141554D01*
D02*
G37*
G36*
X1020404Y138684D02*
X1012896D01*
Y138578D01*
X1013477Y136410D01*
X1014599Y134466D01*
X1016186Y132879D01*
X1018130Y131757D01*
X1020298Y131176D01*
X1020404D01*
Y138684D01*
D02*
G37*
G36*
X44664Y136344D02*
X36406D01*
Y128086D01*
X36611D01*
X38969Y128718D01*
X41084Y129939D01*
X42811Y131666D01*
X44032Y133780D01*
X44664Y136139D01*
Y136344D01*
D02*
G37*
G36*
X34374D02*
X26116D01*
Y136139D01*
X26748Y133780D01*
X27969Y131666D01*
X29695Y129939D01*
X31810Y128718D01*
X34169Y128086D01*
X34374D01*
Y136344D01*
D02*
G37*
G36*
X133394Y133604D02*
X125136D01*
Y125346D01*
X125341D01*
X127700Y125978D01*
X129815Y127199D01*
X131541Y128926D01*
X132762Y131040D01*
X133394Y133399D01*
Y133604D01*
D02*
G37*
G36*
X123104D02*
X114846D01*
Y133399D01*
X115478Y131040D01*
X116699Y128926D01*
X118426Y127199D01*
X120541Y125978D01*
X122899Y125346D01*
X123104D01*
Y133604D01*
D02*
G37*
G36*
X222464Y131264D02*
X214206D01*
Y123006D01*
X214411D01*
X216769Y123638D01*
X218884Y124859D01*
X220611Y126586D01*
X221832Y128701D01*
X222464Y131059D01*
Y131264D01*
D02*
G37*
G36*
Y166554D02*
X203916D01*
Y152401D01*
X199986Y148471D01*
X199313Y147463D01*
X199076Y146274D01*
Y15104D01*
X197662Y13690D01*
X196850Y11729D01*
Y9607D01*
X197662Y7646D01*
X199163Y6146D01*
X201123Y5334D01*
X203245D01*
X205205Y6146D01*
X206706Y7646D01*
X207518Y9607D01*
Y11729D01*
X206706Y13690D01*
X205292Y15104D01*
Y28777D01*
X206562Y29303D01*
X207326Y28539D01*
X209440Y27318D01*
X211799Y26686D01*
X212004D01*
Y35960D01*
Y45234D01*
X211799D01*
X209440Y44602D01*
X207326Y43381D01*
X206562Y42617D01*
X205292Y43143D01*
Y51686D01*
X222294D01*
Y70234D01*
X205292D01*
Y125267D01*
X206562Y125793D01*
X207495Y124859D01*
X209610Y123638D01*
X211969Y123006D01*
X212174D01*
Y132280D01*
Y141554D01*
X211969D01*
X209610Y140922D01*
X207495Y139701D01*
X206562Y138767D01*
X205292Y139293D01*
Y144987D01*
X208311Y148006D01*
X222464D01*
Y166554D01*
D02*
G37*
G36*
X865124Y123324D02*
X857866D01*
Y117816D01*
X865124D01*
Y123324D01*
D02*
G37*
G36*
X1109434Y134134D02*
X1090886D01*
Y115586D01*
X1109434D01*
Y134134D01*
D02*
G37*
G36*
X756609Y103124D02*
X747776D01*
Y94291D01*
X748057D01*
X750562Y94962D01*
X752807Y96259D01*
X754641Y98093D01*
X755938Y100338D01*
X756609Y102843D01*
Y103124D01*
D02*
G37*
G36*
X745744D02*
X736911D01*
Y102843D01*
X737582Y100338D01*
X738879Y98093D01*
X740713Y96259D01*
X742958Y94962D01*
X745463Y94291D01*
X745744D01*
Y103124D01*
D02*
G37*
G36*
X748057Y88589D02*
X745463D01*
X742958Y87918D01*
X740713Y86621D01*
X738879Y84787D01*
X737582Y82542D01*
X736911Y80037D01*
Y77443D01*
X737582Y74938D01*
X738879Y72693D01*
X740713Y70859D01*
X742958Y69562D01*
X745463Y68891D01*
X748057D01*
X750562Y69562D01*
X752807Y70859D01*
X754641Y72693D01*
X755938Y74938D01*
X756609Y77443D01*
Y80037D01*
X755938Y82542D01*
X754641Y84787D01*
X752807Y86621D01*
X750562Y87918D01*
X748057Y88589D01*
D02*
G37*
G36*
X133394Y168894D02*
X114846D01*
Y150346D01*
X128999D01*
X143450Y135895D01*
Y78604D01*
X142036Y77189D01*
X141224Y75229D01*
Y73107D01*
X142036Y71146D01*
X143537Y69646D01*
X145497Y68834D01*
X147619D01*
X149579Y69646D01*
X151080Y71146D01*
X151892Y73107D01*
Y75229D01*
X151080Y77189D01*
X149666Y78604D01*
Y137182D01*
X149429Y138372D01*
X148756Y139380D01*
X133394Y154741D01*
Y168894D01*
D02*
G37*
G36*
X1101381Y68129D02*
X1101176D01*
Y59871D01*
X1109434D01*
Y60076D01*
X1108802Y62435D01*
X1107581Y64549D01*
X1105854Y66276D01*
X1103739Y67497D01*
X1101381Y68129D01*
D02*
G37*
G36*
X1099144D02*
X1098939D01*
X1096580Y67497D01*
X1094465Y66276D01*
X1092739Y64549D01*
X1091518Y62435D01*
X1090886Y60076D01*
Y59871D01*
X1099144D01*
Y68129D01*
D02*
G37*
G36*
X44664Y75114D02*
X26116D01*
Y56566D01*
X44664D01*
Y75114D01*
D02*
G37*
G36*
X133564Y72574D02*
X115016D01*
Y54026D01*
X133564D01*
Y72574D01*
D02*
G37*
G36*
X1109434Y57839D02*
X1101176D01*
Y49581D01*
X1101381D01*
X1103739Y50213D01*
X1105854Y51434D01*
X1107581Y53161D01*
X1108802Y55275D01*
X1109434Y57634D01*
Y57839D01*
D02*
G37*
G36*
X1099144D02*
X1090886D01*
Y57634D01*
X1091518Y55275D01*
X1092739Y53161D01*
X1094465Y51434D01*
X1096580Y50213D01*
X1098939Y49581D01*
X1099144D01*
Y57839D01*
D02*
G37*
G36*
X748057Y63189D02*
X745463D01*
X742958Y62518D01*
X740713Y61221D01*
X738879Y59387D01*
X737582Y57142D01*
X736911Y54637D01*
Y52043D01*
X737582Y49538D01*
X738879Y47293D01*
X740713Y45459D01*
X742958Y44162D01*
X745463Y43491D01*
X748057D01*
X750562Y44162D01*
X752807Y45459D01*
X754641Y47293D01*
X755938Y49538D01*
X756609Y52043D01*
Y54637D01*
X755938Y57142D01*
X754641Y59387D01*
X752807Y61221D01*
X750562Y62518D01*
X748057Y63189D01*
D02*
G37*
G36*
X316257D02*
X313663D01*
X311158Y62518D01*
X308913Y61221D01*
X307079Y59387D01*
X305782Y57142D01*
X305111Y54637D01*
Y52043D01*
X305782Y49538D01*
X307079Y47293D01*
X308913Y45459D01*
X311158Y44162D01*
X313663Y43491D01*
X316257D01*
X318762Y44162D01*
X321007Y45459D01*
X322841Y47293D01*
X324138Y49538D01*
X324809Y52043D01*
Y54637D01*
X324138Y57142D01*
X322841Y59387D01*
X321007Y61221D01*
X318762Y62518D01*
X316257Y63189D01*
D02*
G37*
G36*
X36611Y50114D02*
X36406D01*
Y41856D01*
X44664D01*
Y42061D01*
X44032Y44420D01*
X42811Y46535D01*
X41084Y48261D01*
X38969Y49482D01*
X36611Y50114D01*
D02*
G37*
G36*
X34374D02*
X34169D01*
X31810Y49482D01*
X29695Y48261D01*
X27969Y46535D01*
X26748Y44420D01*
X26116Y42061D01*
Y41856D01*
X34374D01*
Y50114D01*
D02*
G37*
G36*
X125511Y47574D02*
X125306D01*
Y39316D01*
X133564D01*
Y39521D01*
X132932Y41880D01*
X131711Y43994D01*
X129984Y45721D01*
X127869Y46942D01*
X125511Y47574D01*
D02*
G37*
G36*
X123274D02*
X123069D01*
X120710Y46942D01*
X118595Y45721D01*
X116869Y43994D01*
X115648Y41880D01*
X115016Y39521D01*
Y39316D01*
X123274D01*
Y47574D01*
D02*
G37*
G36*
X214241Y45234D02*
X214036D01*
Y36976D01*
X222294D01*
Y37181D01*
X221662Y39539D01*
X220441Y41654D01*
X218715Y43381D01*
X216600Y44602D01*
X214241Y45234D01*
D02*
G37*
G36*
X44664Y39824D02*
X36406D01*
Y31566D01*
X36611D01*
X38969Y32198D01*
X41084Y33419D01*
X42811Y35146D01*
X44032Y37260D01*
X44664Y39619D01*
Y39824D01*
D02*
G37*
G36*
X34374D02*
X26116D01*
Y39619D01*
X26748Y37260D01*
X27969Y35146D01*
X29695Y33419D01*
X31810Y32198D01*
X34169Y31566D01*
X34374D01*
Y39824D01*
D02*
G37*
G36*
X133564Y37284D02*
X125306D01*
Y29026D01*
X125511D01*
X127869Y29658D01*
X129984Y30879D01*
X131711Y32606D01*
X132932Y34720D01*
X133564Y37079D01*
Y37284D01*
D02*
G37*
G36*
X123274D02*
X115016D01*
Y37079D01*
X115648Y34720D01*
X116869Y32606D01*
X118595Y30879D01*
X120710Y29658D01*
X123069Y29026D01*
X123274D01*
Y37284D01*
D02*
G37*
G36*
X646457Y37789D02*
X646176D01*
Y28956D01*
X655009D01*
Y29237D01*
X654338Y31742D01*
X653041Y33987D01*
X651207Y35821D01*
X648962Y37118D01*
X646457Y37789D01*
D02*
G37*
G36*
X644144D02*
X643863D01*
X641358Y37118D01*
X639113Y35821D01*
X637279Y33987D01*
X635982Y31742D01*
X635311Y29237D01*
Y28956D01*
X644144D01*
Y37789D01*
D02*
G37*
G36*
X316257D02*
X315976D01*
Y28956D01*
X324809D01*
Y29237D01*
X324138Y31742D01*
X322841Y33987D01*
X321007Y35821D01*
X318762Y37118D01*
X316257Y37789D01*
D02*
G37*
G36*
X313944D02*
X313663D01*
X311158Y37118D01*
X308913Y35821D01*
X307079Y33987D01*
X305782Y31742D01*
X305111Y29237D01*
Y28956D01*
X313944D01*
Y37789D01*
D02*
G37*
G36*
X222294Y34944D02*
X214036D01*
Y26686D01*
X214241D01*
X216600Y27318D01*
X218715Y28539D01*
X220441Y30265D01*
X221662Y32380D01*
X222294Y34739D01*
Y34944D01*
D02*
G37*
G36*
X874414Y72684D02*
X857866D01*
Y59636D01*
X868269D01*
X896320Y31584D01*
X897329Y30911D01*
X898518Y30674D01*
X939236D01*
Y25296D01*
X956284D01*
Y42344D01*
X939236D01*
Y36890D01*
X899805D01*
X874414Y62281D01*
Y72684D01*
D02*
G37*
G36*
X1109434Y43129D02*
X1090886D01*
Y24581D01*
X1109434D01*
Y43129D01*
D02*
G37*
G36*
X875057Y37789D02*
X872463D01*
X869958Y37118D01*
X867713Y35821D01*
X865879Y33987D01*
X864582Y31742D01*
X863911Y29237D01*
Y26643D01*
X864582Y24138D01*
X865879Y21893D01*
X867713Y20059D01*
X869958Y18762D01*
X872463Y18091D01*
X875057D01*
X877562Y18762D01*
X879807Y20059D01*
X881641Y21893D01*
X882938Y24138D01*
X883609Y26643D01*
Y29237D01*
X882938Y31742D01*
X881641Y33987D01*
X879807Y35821D01*
X877562Y37118D01*
X875057Y37789D01*
D02*
G37*
G36*
X849657D02*
X847063D01*
X844558Y37118D01*
X842313Y35821D01*
X840479Y33987D01*
X839182Y31742D01*
X838511Y29237D01*
Y26643D01*
X839182Y24138D01*
X840479Y21893D01*
X842313Y20059D01*
X844558Y18762D01*
X847063Y18091D01*
X849657D01*
X852162Y18762D01*
X854407Y20059D01*
X856241Y21893D01*
X857538Y24138D01*
X858209Y26643D01*
Y29237D01*
X857538Y31742D01*
X856241Y33987D01*
X854407Y35821D01*
X852162Y37118D01*
X849657Y37789D01*
D02*
G37*
G36*
X824257D02*
X821663D01*
X819158Y37118D01*
X816913Y35821D01*
X815079Y33987D01*
X813782Y31742D01*
X813111Y29237D01*
Y26643D01*
X813782Y24138D01*
X815079Y21893D01*
X816913Y20059D01*
X819158Y18762D01*
X821663Y18091D01*
X824257D01*
X826762Y18762D01*
X829007Y20059D01*
X830841Y21893D01*
X832138Y24138D01*
X832809Y26643D01*
Y29237D01*
X832138Y31742D01*
X830841Y33987D01*
X829007Y35821D01*
X826762Y37118D01*
X824257Y37789D01*
D02*
G37*
G36*
X798857D02*
X796263D01*
X793758Y37118D01*
X791513Y35821D01*
X789679Y33987D01*
X788382Y31742D01*
X787711Y29237D01*
Y26643D01*
X788382Y24138D01*
X789679Y21893D01*
X791513Y20059D01*
X793758Y18762D01*
X796263Y18091D01*
X798857D01*
X801362Y18762D01*
X803607Y20059D01*
X805441Y21893D01*
X806738Y24138D01*
X807409Y26643D01*
Y29237D01*
X806738Y31742D01*
X805441Y33987D01*
X803607Y35821D01*
X801362Y37118D01*
X798857Y37789D01*
D02*
G37*
G36*
X773221Y96774D02*
X771099D01*
X769138Y95962D01*
X767638Y94461D01*
X766826Y92501D01*
Y90379D01*
X767638Y88419D01*
X769052Y87004D01*
Y37304D01*
X768358Y37118D01*
X766113Y35821D01*
X764279Y33987D01*
X762982Y31742D01*
X762311Y29237D01*
Y26643D01*
X762982Y24138D01*
X764279Y21893D01*
X766113Y20059D01*
X768358Y18762D01*
X770863Y18091D01*
X773457D01*
X775962Y18762D01*
X778207Y20059D01*
X780041Y21893D01*
X781338Y24138D01*
X782009Y26643D01*
Y29237D01*
X781338Y31742D01*
X780041Y33987D01*
X778207Y35821D01*
X775962Y37118D01*
X775268Y37304D01*
Y87004D01*
X776682Y88419D01*
X777494Y90379D01*
Y92501D01*
X776682Y94461D01*
X775182Y95962D01*
X773221Y96774D01*
D02*
G37*
G36*
X748057Y37789D02*
X745463D01*
X742958Y37118D01*
X740713Y35821D01*
X738879Y33987D01*
X737582Y31742D01*
X736911Y29237D01*
Y26643D01*
X737582Y24138D01*
X738879Y21893D01*
X740713Y20059D01*
X742958Y18762D01*
X745463Y18091D01*
X748057D01*
X750562Y18762D01*
X752807Y20059D01*
X754641Y21893D01*
X755938Y24138D01*
X756609Y26643D01*
Y29237D01*
X755938Y31742D01*
X754641Y33987D01*
X752807Y35821D01*
X750562Y37118D01*
X748057Y37789D01*
D02*
G37*
G36*
X684321Y44704D02*
X682199D01*
X680238Y43892D01*
X678738Y42392D01*
X677926Y40431D01*
Y38309D01*
X678738Y36349D01*
X680238Y34848D01*
X682199Y34036D01*
X684321D01*
X686282Y34848D01*
X687384Y35951D01*
X688146Y35851D01*
X688604Y34513D01*
X688079Y33987D01*
X686782Y31742D01*
X686111Y29237D01*
Y26643D01*
X686782Y24138D01*
X688079Y21893D01*
X689913Y20059D01*
X692158Y18762D01*
X694663Y18091D01*
X697257D01*
X699762Y18762D01*
X702007Y20059D01*
X703841Y21893D01*
X705138Y24138D01*
X705809Y26643D01*
Y29237D01*
X705138Y31742D01*
X703841Y33987D01*
X702836Y34992D01*
X703362Y36262D01*
X708643D01*
X712541Y32364D01*
X712182Y31742D01*
X711511Y29237D01*
Y26643D01*
X712182Y24138D01*
X713479Y21893D01*
X715313Y20059D01*
X717558Y18762D01*
X720063Y18091D01*
X722657D01*
X725162Y18762D01*
X727407Y20059D01*
X729241Y21893D01*
X730538Y24138D01*
X731209Y26643D01*
Y29237D01*
X730538Y31742D01*
X729241Y33987D01*
X727407Y35821D01*
X725162Y37118D01*
X722657Y37789D01*
X720063D01*
X717558Y37118D01*
X716936Y36759D01*
X712128Y41568D01*
X711119Y42241D01*
X709930Y42478D01*
X687696D01*
X686282Y43892D01*
X684321Y44704D01*
D02*
G37*
G36*
X671857Y37789D02*
X669263D01*
X666758Y37118D01*
X664513Y35821D01*
X662679Y33987D01*
X661382Y31742D01*
X660711Y29237D01*
Y26643D01*
X661382Y24138D01*
X662679Y21893D01*
X664513Y20059D01*
X666758Y18762D01*
X669263Y18091D01*
X671857D01*
X674362Y18762D01*
X676607Y20059D01*
X678441Y21893D01*
X679738Y24138D01*
X680409Y26643D01*
Y29237D01*
X679738Y31742D01*
X678441Y33987D01*
X676607Y35821D01*
X674362Y37118D01*
X671857Y37789D01*
D02*
G37*
G36*
X655009Y26924D02*
X646176D01*
Y18091D01*
X646457D01*
X648962Y18762D01*
X651207Y20059D01*
X653041Y21893D01*
X654338Y24138D01*
X655009Y26643D01*
Y26924D01*
D02*
G37*
G36*
X644144D02*
X635311D01*
Y26643D01*
X635982Y24138D01*
X637279Y21893D01*
X639113Y20059D01*
X641358Y18762D01*
X643863Y18091D01*
X644144D01*
Y26924D01*
D02*
G37*
G36*
X324809D02*
X315976D01*
Y18091D01*
X316257D01*
X318762Y18762D01*
X321007Y20059D01*
X322841Y21893D01*
X324138Y24138D01*
X324809Y26643D01*
Y26924D01*
D02*
G37*
G36*
X313944D02*
X305111D01*
Y26643D01*
X305782Y24138D01*
X307079Y21893D01*
X308913Y20059D01*
X311158Y18762D01*
X313663Y18091D01*
X313944D01*
Y26924D01*
D02*
G37*
G36*
X290857Y37789D02*
X288263D01*
X285758Y37118D01*
X283513Y35821D01*
X281679Y33987D01*
X280382Y31742D01*
X279711Y29237D01*
Y26643D01*
X280382Y24138D01*
X281679Y21893D01*
X283513Y20059D01*
X285758Y18762D01*
X288263Y18091D01*
X290857D01*
X293362Y18762D01*
X295607Y20059D01*
X297441Y21893D01*
X298738Y24138D01*
X299409Y26643D01*
Y29237D01*
X298738Y31742D01*
X297441Y33987D01*
X295607Y35821D01*
X293362Y37118D01*
X290857Y37789D01*
D02*
G37*
%LPD*%
D10*
X999490Y400050D02*
Y405130D01*
D11*
X919480Y228600D02*
D03*
X904480D02*
D03*
X863480D02*
D03*
X848480D02*
D03*
D12*
X866140Y124340D02*
D03*
Y109340D02*
D03*
Y81160D02*
D03*
Y66160D02*
D03*
D15*
X35390Y162360D02*
D03*
X124120Y159620D02*
D03*
X213190Y157280D02*
D03*
X35390Y65840D02*
D03*
X124290Y63300D02*
D03*
X213020Y60960D02*
D03*
X1100160Y33855D02*
D03*
Y124860D02*
D03*
D16*
X35390Y137360D02*
D03*
X124120Y134620D02*
D03*
X213190Y132280D02*
D03*
X35390Y40840D02*
D03*
X124290Y38300D02*
D03*
X213020Y35960D02*
D03*
X1100160Y58855D02*
D03*
Y149860D02*
D03*
D22*
X947760Y199860D02*
D03*
Y174860D02*
D03*
Y83820D02*
D03*
Y58820D02*
D03*
X1021420Y89700D02*
D03*
Y114700D02*
D03*
Y139700D02*
D03*
D23*
X947760Y149860D02*
D03*
Y33820D02*
D03*
X1021420Y64700D02*
D03*
D27*
X113284Y145456D02*
Y263906D01*
Y49306D02*
Y123784D01*
X124120Y134620D01*
Y159620D02*
X146558Y137182D01*
Y74168D02*
Y137182D01*
X113284Y145456D02*
X124120Y134620D01*
X202184Y10668D02*
Y146274D01*
X213190Y157280D01*
X113284Y49306D02*
X124290Y38300D01*
X113284Y263906D02*
X153670Y304292D01*
X467360Y180340D02*
X528320Y119380D01*
X576580D01*
X590700Y133500D01*
Y152400D01*
X595840Y157539D01*
X617279D01*
X545084Y41656D02*
X595272Y91844D01*
X607060Y20320D02*
Y68580D01*
X532187Y164395D02*
Y546805D01*
X656590Y168275D02*
Y323850D01*
X637540Y199390D02*
Y432562D01*
X707333Y168853D02*
Y327495D01*
X862330Y173355D02*
Y185032D01*
X848480Y198882D02*
X862330Y185032D01*
X848480Y198882D02*
Y228600D01*
X532187Y164395D02*
X569976Y126606D01*
X607060Y68580D02*
X707333Y168853D01*
X656590Y323850D02*
X688340Y355600D01*
X862330Y173355D02*
X866775Y168910D01*
X707333Y327495D02*
X727011Y347173D01*
X746760Y104140D02*
X806450D01*
X256032Y264668D02*
X340360Y180340D01*
X647700Y195199D02*
Y354838D01*
X696976Y404114D02*
X730250D01*
X647700Y354838D02*
X696976Y404114D01*
X637540Y432562D02*
X692150Y487172D01*
Y523011D01*
X683260Y531901D02*
X692150Y523011D01*
X683260Y531901D02*
Y573278D01*
X422402Y656590D02*
X532187Y546805D01*
X557587Y175629D02*
Y569919D01*
X730250Y404114D02*
X734060Y407924D01*
Y420878D01*
Y441325D01*
X450850Y298958D02*
X454914Y294894D01*
X354330Y16510D02*
Y63754D01*
X160528Y345440D02*
X271018Y234950D01*
Y147066D02*
X354330Y63754D01*
X271018Y147066D02*
Y234950D01*
X492760Y78740D02*
X543560Y27940D01*
X772160D02*
Y91440D01*
X416560Y180340D02*
Y396875D01*
X168402Y344424D02*
X327660Y185166D01*
X735330Y140970D02*
Y297942D01*
X681933Y162503D02*
Y311794D01*
X568960Y180340D02*
Y582422D01*
X171704Y318516D02*
X247396Y242824D01*
X403860Y176530D02*
Y309880D01*
X746760Y180340D02*
X804926Y238506D01*
X351790Y219710D02*
X391160Y180340D01*
X758190Y118167D02*
X796233Y156210D01*
X876046Y109474D02*
Y142494D01*
X796233Y156210D02*
X862330D01*
X876046Y142494D01*
X344170Y220345D02*
X377190Y187325D01*
X351790Y219710D02*
Y471424D01*
X344170Y220345D02*
Y337058D01*
X429260Y149840D02*
Y321056D01*
X645160Y27940D02*
X721360Y104140D01*
X746760D01*
X617279Y157539D02*
X631190Y171450D01*
Y188214D01*
X635000Y192024D01*
X644525D01*
X647700Y195199D01*
X557587Y175629D02*
X564306Y168910D01*
X582930D01*
X594360Y180340D01*
X364490Y130810D02*
X467360Y27940D01*
X364490Y130810D02*
Y156210D01*
X377190Y168910D01*
Y187325D01*
X443230Y102870D02*
X518160Y27940D01*
X443230Y102870D02*
Y165100D01*
X454914Y176784D01*
Y294894D01*
X354330Y16510D02*
X358902Y11938D01*
X552958D01*
X568960Y27940D01*
X350520Y165100D02*
X365760Y180340D01*
X330835Y165100D02*
X350520D01*
X327660Y168275D02*
X330835Y165100D01*
X327660Y168275D02*
Y185166D01*
X735330Y140970D02*
X746760Y129540D01*
X247396Y29972D02*
Y242824D01*
Y29972D02*
X271272Y6096D01*
X572516D01*
X594360Y27940D01*
X392430Y128270D02*
X492760Y27940D01*
X392430Y128270D02*
Y165100D01*
X403860Y176530D01*
X741877Y118167D02*
X758190D01*
X721360Y138684D02*
X741877Y118167D01*
X721360Y138684D02*
Y180340D01*
X683260Y39370D02*
X709930D01*
X721360Y27940D01*
X416560D02*
X427933Y16567D01*
X549332D01*
X554990Y22225D01*
Y35560D01*
X681933Y162503D01*
Y311794D02*
X727009Y356870D01*
X492760Y78740D02*
Y135382D01*
X595272Y91844D02*
Y149132D01*
X875912Y109340D02*
X876046Y109474D01*
X866140Y109340D02*
X875912D01*
X399542Y519176D02*
Y573278D01*
X351790Y471424D02*
X399542Y519176D01*
X863480Y228600D02*
Y238252D01*
X863226Y238506D02*
X863480Y238252D01*
X804926Y238506D02*
X863226D01*
X549656Y601726D02*
X568960Y582422D01*
X168402Y344424D02*
Y420878D01*
X450342Y406400D02*
Y420878D01*
X445008Y401066D02*
X450342Y406400D01*
X420751Y401066D02*
X445008D01*
X416560Y396875D02*
X420751Y401066D01*
X518668Y608838D02*
X557587Y569919D01*
X117602Y539750D02*
Y573278D01*
Y539750D02*
X123124Y534228D01*
X215114D01*
X256032Y493310D01*
Y264668D02*
Y493310D01*
X826650Y124340D02*
X866140D01*
X806450Y104140D02*
X826650Y124340D01*
X764931Y589026D02*
X774700Y579257D01*
Y518563D02*
Y579257D01*
X905510Y364998D02*
Y515620D01*
X895858Y355346D02*
X905510Y364998D01*
X982980Y542753D02*
X990600Y550373D01*
Y573278D01*
X919226Y271526D02*
X952500Y304800D01*
X919226Y256032D02*
Y271526D01*
X940054Y277114D02*
X953460Y290520D01*
X958540D01*
X972820Y304800D01*
X986790Y26416D02*
Y308483D01*
X1029279Y319461D02*
X1041400Y307340D01*
X1027247Y319461D02*
X1029279D01*
X1016000Y330708D02*
X1027247Y319461D01*
X1016000Y330708D02*
Y420878D01*
X642620Y579257D02*
X652389Y589026D01*
X764931D01*
X642620Y523240D02*
Y579257D01*
X622046Y502666D02*
X642620Y523240D01*
X607651Y335871D02*
X622046Y350266D01*
Y502666D01*
X657269Y337820D02*
X657860D01*
X682498Y362458D01*
X710438D01*
X731520Y383540D01*
X478897Y394107D02*
X487164D01*
X488950Y395893D02*
Y443611D01*
X477681Y392891D02*
X478897Y394107D01*
X423418Y392891D02*
X477681D01*
X487164Y394107D02*
X488950Y395893D01*
X485775Y446786D02*
X488950Y443611D01*
X442722Y446786D02*
X485775D01*
X363220Y312420D02*
X389128D01*
X307340Y327660D02*
X322580Y312420D01*
X307340Y327660D02*
Y475383D01*
X1018540Y452120D02*
Y497840D01*
X1003046Y436626D02*
X1018540Y452120D01*
X735330Y297942D02*
Y358648D01*
X867918Y124340D02*
Y134620D01*
X429260Y321056D02*
Y325882D01*
X898518Y33782D02*
X947760D01*
X70104Y414020D02*
X92202D01*
X764540Y708660D02*
X779872Y693328D01*
Y403190D02*
Y693328D01*
X735330Y358648D02*
X779872Y403190D01*
X947760Y199860D02*
X962380Y185240D01*
Y98440D02*
Y185240D01*
X947760Y83820D02*
X962380Y98440D01*
X493522Y385318D02*
Y498094D01*
X429260Y321056D02*
X493522Y385318D01*
X947760Y58820D02*
X966952Y78012D01*
Y207798D01*
X925698Y249052D02*
X966952Y207798D01*
X912622Y249052D02*
X925698D01*
X912368Y249306D02*
X912622Y249052D01*
X912368Y249306D02*
Y639572D01*
X831596Y720344D02*
X912368Y639572D01*
X633984Y720344D02*
X831596D01*
X622300Y708660D02*
X633984Y720344D01*
X595272Y149132D02*
X597916Y151776D01*
X640091D01*
X656590Y168275D01*
X966978Y6604D02*
X986790Y26416D01*
X193802Y405638D02*
Y420878D01*
X178308Y405384D02*
X193802Y405638D01*
X172974Y400050D02*
X178308Y405384D01*
X172974Y390525D02*
Y400050D01*
Y390525D02*
X176403Y387096D01*
X219075D01*
X222504Y390525D01*
Y446024D01*
X706120Y395986D02*
X758444D01*
X775300Y412842D01*
Y465087D01*
X765810Y474577D02*
X775300Y465087D01*
X759460Y420878D02*
Y436880D01*
X766425Y437134D01*
X768350Y459994D01*
X175260Y370332D02*
X228346D01*
X229362Y371348D01*
Y459486D01*
X190171Y498677D02*
X229362Y459486D01*
X405638Y481076D02*
Y516023D01*
X360934Y436372D02*
X405638Y481076D01*
X360934Y405384D02*
Y436372D01*
Y405384D02*
X361188Y405130D01*
X367030D01*
X367792Y404368D01*
Y390144D02*
Y404368D01*
X939800Y420878D02*
Y482346D01*
X628904Y362458D02*
Y459740D01*
X685292Y516128D01*
X481584Y378206D02*
Y387096D01*
X429260Y325882D02*
X481584Y378206D01*
X189992Y702818D02*
X368300D01*
X724916Y694436D02*
X739140Y708660D01*
X585724Y694436D02*
X724916D01*
X571500Y708660D02*
X585724Y694436D01*
X866140Y124340D02*
X867918D01*
X657860Y393700D02*
Y420878D01*
X947760Y149860D02*
Y158227D01*
X957808Y168275D01*
Y180366D01*
X952754Y185420D02*
X957808Y180366D01*
X910844Y185420D02*
X952754D01*
X894334Y168910D02*
X910844Y185420D01*
X866775Y168910D02*
X894334D01*
X735330Y297942D02*
X756920Y319532D01*
X734060Y441325D02*
X737248Y444513D01*
X759567D01*
X182245Y396621D02*
X203581D01*
X207010Y400050D01*
Y469392D01*
X177800Y498602D02*
X207010Y469392D01*
X940054Y249174D02*
Y277114D01*
X356362Y400558D02*
X359918Y397002D01*
X356362Y400558D02*
Y464058D01*
X363220Y470916D01*
X92202Y414020D02*
Y420878D01*
X1021420Y64700D02*
X1031494Y74774D01*
Y292862D01*
X926592Y397764D02*
X1031494Y292862D01*
X926592Y397764D02*
Y652018D01*
X849630Y728980D02*
X926592Y652018D01*
X937514Y164614D02*
X947760Y174860D01*
X937514Y69066D02*
Y164614D01*
Y69066D02*
X947760Y58820D01*
X922820Y199860D02*
X947760D01*
X919480Y203200D02*
X922820Y199860D01*
X919480Y203200D02*
Y228600D01*
X947760Y33782D02*
Y33820D01*
X866140Y66160D02*
X898518Y33782D01*
X1100160Y149860D02*
X1110996Y139024D01*
Y69691D02*
Y139024D01*
X1100160Y58855D02*
X1110996Y69691D01*
X866140Y81160D02*
Y109340D01*
X863480Y228600D02*
X904480D01*
D28*
X999490Y405130D02*
X1003046Y408686D01*
Y436626D01*
D29*
X999490Y382270D02*
Y400050D01*
Y381850D02*
Y382270D01*
X330200Y599440D02*
X330962Y598678D01*
X347218D01*
X368300Y619760D01*
X423958D01*
X495300D02*
X541860D01*
X585357Y576263D01*
Y263003D02*
Y576263D01*
Y263003D02*
X619760Y228600D01*
D30*
X340360Y180340D02*
D03*
X365760D02*
D03*
X391160D02*
D03*
X416560D02*
D03*
X441960D02*
D03*
X467360D02*
D03*
X492760D02*
D03*
X518160D02*
D03*
X543560D02*
D03*
X568960D02*
D03*
X594360D02*
D03*
X619760D02*
D03*
Y27940D02*
D03*
X594360D02*
D03*
X568960D02*
D03*
X543560D02*
D03*
X518160D02*
D03*
X492760D02*
D03*
X467360D02*
D03*
X441960D02*
D03*
X416560D02*
D03*
X391160D02*
D03*
X365760D02*
D03*
X670560Y180340D02*
D03*
X695960D02*
D03*
X721360D02*
D03*
X746760D02*
D03*
X772160D02*
D03*
X797560D02*
D03*
X822960D02*
D03*
X848360D02*
D03*
X873760D02*
D03*
Y27940D02*
D03*
X848360D02*
D03*
X822960D02*
D03*
X797560D02*
D03*
X772160D02*
D03*
X746760D02*
D03*
X721360D02*
D03*
X695960D02*
D03*
X670560D02*
D03*
X645160Y180340D02*
D03*
X746760Y154940D02*
D03*
Y129540D02*
D03*
Y104140D02*
D03*
Y78740D02*
D03*
Y53340D02*
D03*
X454660Y149840D02*
D03*
X429260D02*
D03*
X403860D02*
D03*
X378460D02*
D03*
X353060D02*
D03*
X340360Y27940D02*
D03*
X289560D02*
D03*
X314960Y180340D02*
D03*
Y53340D02*
D03*
X645160Y27940D02*
D03*
X314960D02*
D03*
X289560Y180340D02*
D03*
D31*
X374142Y420878D02*
D03*
X939800D02*
D03*
X657860D02*
D03*
X92202D02*
D03*
D32*
X399542D02*
D03*
X424942D02*
D03*
X450342D02*
D03*
X475742D02*
D03*
X374142Y573278D02*
D03*
X399542D02*
D03*
X424942D02*
D03*
X450342D02*
D03*
X475742D02*
D03*
X1041400D02*
D03*
X1016000D02*
D03*
X990600D02*
D03*
X965200D02*
D03*
X939800D02*
D03*
X1041400Y420878D02*
D03*
X1016000D02*
D03*
X990600D02*
D03*
X965200D02*
D03*
X683260D02*
D03*
X708660D02*
D03*
X734060D02*
D03*
X759460D02*
D03*
X657860Y573278D02*
D03*
X683260D02*
D03*
X708660D02*
D03*
X734060D02*
D03*
X759460D02*
D03*
X117602Y420878D02*
D03*
X143002D02*
D03*
X168402D02*
D03*
X193802D02*
D03*
X92202Y573278D02*
D03*
X117602D02*
D03*
X143002D02*
D03*
X168402D02*
D03*
X193802D02*
D03*
D33*
X789940Y708660D02*
D03*
X764540D02*
D03*
X622300D02*
D03*
X596900D02*
D03*
D34*
X739140D02*
D03*
X571500D02*
D03*
D35*
X146558Y74168D02*
D03*
X545084Y41656D02*
D03*
X683260Y39370D02*
D03*
X637540Y199390D02*
D03*
X905510Y515620D02*
D03*
X982980Y542753D02*
D03*
X952500Y304800D02*
D03*
X972820D02*
D03*
X986790Y308483D02*
D03*
X1041400Y307340D02*
D03*
X688340Y355600D02*
D03*
X727011Y347173D02*
D03*
X727009Y356870D02*
D03*
X423418Y392891D02*
D03*
X403860Y309880D02*
D03*
X493522Y498094D02*
D03*
X966978Y6604D02*
D03*
X919226Y256032D02*
D03*
X222504Y446024D02*
D03*
X706120Y395986D02*
D03*
X765810Y474577D02*
D03*
X768350Y459994D02*
D03*
X175260Y370332D02*
D03*
X190171Y498677D02*
D03*
X895858Y355346D02*
D03*
X405638Y516023D02*
D03*
X367792Y390144D02*
D03*
X939800Y482346D02*
D03*
X442722Y446786D02*
D03*
X628904Y362458D02*
D03*
X685292Y516128D02*
D03*
X481584Y387096D02*
D03*
X368300Y702818D02*
D03*
X189992D02*
D03*
X867918Y134620D02*
D03*
X657860Y393700D02*
D03*
X607060Y20320D02*
D03*
X202184Y10668D02*
D03*
X492760Y135382D02*
D03*
X171704Y318516D02*
D03*
X160528Y345440D02*
D03*
X549656Y601726D02*
D03*
X569976Y126606D02*
D03*
X422402Y656590D02*
D03*
X518668Y608838D02*
D03*
X756920Y319532D02*
D03*
X759567Y444513D02*
D03*
X182245Y396621D02*
D03*
X177800Y498602D02*
D03*
X940054Y249174D02*
D03*
X344170Y337058D02*
D03*
X450850Y298958D02*
D03*
X153670Y304292D02*
D03*
X359918Y397002D02*
D03*
X363220Y470916D02*
D03*
X70104Y414020D02*
D03*
X849630Y728980D02*
D03*
X772160Y91440D02*
D03*
D36*
X774700Y518563D02*
D03*
X999490Y382270D02*
D03*
D37*
X607651Y335871D02*
D03*
X657269Y337820D02*
D03*
X389128Y312420D02*
D03*
X363220D02*
D03*
X322580D02*
D03*
X307340Y475383D02*
D03*
X1018540Y497840D02*
D03*
X330200Y599440D02*
D03*
X423958Y619760D02*
D03*
X495300D02*
D03*
X619760Y228600D02*
D03*
M02*
