G04*
G04 #@! TF.GenerationSoftware,Altium Limited,Altium Designer,22.10.1 (41)*
G04*
G04 Layer_Color=32768*
%FSLAX44Y44*%
%MOMM*%
G71*
G04*
G04 #@! TF.SameCoordinates,4CDF153F-0075-4D10-A07D-334E842CD810*
G04*
G04*
G04 #@! TF.FilePolarity,Positive*
G04*
G01*
G75*
%ADD56C,0.2000*%
%ADD58C,0.1270*%
%ADD60C,0.1000*%
D56*
X11890Y112860D02*
Y186860D01*
Y112860D02*
X69390D01*
Y186860D01*
X11890D02*
X69390D01*
X100620Y110120D02*
Y184120D01*
Y110120D02*
X158120D01*
Y184120D01*
X100620D02*
X158120D01*
X189690Y107780D02*
Y181780D01*
Y107780D02*
X247190D01*
Y181780D01*
X189690D02*
X247190D01*
X11890Y16340D02*
Y90340D01*
Y16340D02*
X69390D01*
Y90340D01*
X11890D02*
X69390D01*
X100790Y13800D02*
Y87800D01*
Y13800D02*
X158290D01*
Y87800D01*
X100790D02*
X158290D01*
X189520Y11460D02*
Y85460D01*
Y11460D02*
X247020D01*
Y85460D01*
X189520D02*
X247020D01*
X1017370Y472280D02*
X1029870D01*
Y452280D02*
Y472280D01*
X1017370Y452280D02*
X1029870D01*
X1017370D02*
Y472280D01*
X95350Y514630D02*
X107850D01*
X95350D02*
Y534630D01*
X107850D01*
Y514630D02*
Y534630D01*
X174090Y476210D02*
X186590D01*
Y456210D02*
Y476210D01*
X174090Y456210D02*
X186590D01*
X174090D02*
Y476210D01*
X666850Y517170D02*
X679350D01*
X666850D02*
Y537170D01*
X679350D01*
Y517170D02*
Y537170D01*
X743050Y472280D02*
X755550D01*
Y452280D02*
Y472280D01*
X743050Y452280D02*
X755550D01*
X743050D02*
Y472280D01*
X379830Y513240D02*
X392330D01*
X379830D02*
Y533240D01*
X392330D01*
Y513240D02*
Y533240D01*
X946250Y522010D02*
X958750D01*
X946250D02*
Y542010D01*
X958750D01*
Y522010D02*
Y542010D01*
X458570Y478510D02*
X471070D01*
Y458510D02*
Y478510D01*
X458570Y458510D02*
X471070D01*
X458570D02*
Y478510D01*
X171550Y515780D02*
X184050D01*
X171550D02*
Y535780D01*
X184050D01*
Y515780D02*
Y535780D01*
X661770Y477360D02*
X674270D01*
Y457360D02*
Y477360D01*
X661770Y457360D02*
X674270D01*
X661770D02*
Y477360D01*
X110590Y475223D02*
X123090D01*
Y455223D02*
Y475223D01*
X110590Y455223D02*
X123090D01*
X110590D02*
Y475223D01*
X900530Y515377D02*
X913030D01*
X900530D02*
Y535377D01*
X913030D01*
Y515377D02*
Y535377D01*
X341730Y515780D02*
X354230D01*
X341730D02*
Y535780D01*
X354230D01*
Y515780D02*
Y535780D01*
X976730Y522997D02*
X989230D01*
X976730D02*
Y542997D01*
X989230D01*
Y522997D02*
Y542997D01*
X412850Y515780D02*
X425350D01*
X412850D02*
Y535780D01*
X425350D01*
Y515780D02*
Y535780D01*
X905610Y471877D02*
X918110D01*
Y451877D02*
Y471877D01*
X905610Y451877D02*
X918110D01*
X905610D02*
Y471877D01*
X336650Y479497D02*
X349150D01*
Y459497D02*
Y479497D01*
X336650Y459497D02*
X349150D01*
X336650D02*
Y479497D01*
X1050390Y474820D02*
X1062890D01*
Y454820D02*
Y474820D01*
X1050390Y454820D02*
X1062890D01*
X1050390D02*
Y474820D01*
X494130Y479900D02*
X506630D01*
Y459900D02*
Y479900D01*
X494130Y459900D02*
X506630D01*
X494130D02*
Y479900D01*
X989430Y472683D02*
X1001930D01*
Y452683D02*
Y472683D01*
X989430Y452683D02*
X1001930D01*
X989430D02*
Y472683D01*
X425550Y479497D02*
X438050D01*
Y459497D02*
Y479497D01*
X425550Y459497D02*
X438050D01*
X425550D02*
Y479497D01*
X1045310Y523400D02*
X1057810D01*
X1045310D02*
Y543400D01*
X1057810D01*
Y523400D02*
Y543400D01*
X499210Y515780D02*
X511710D01*
X499210D02*
Y535780D01*
X511710D01*
Y515780D02*
Y535780D01*
X1009750Y523400D02*
X1022250D01*
X1009750D02*
Y543400D01*
X1022250D01*
Y523400D02*
Y543400D01*
X958950Y472683D02*
X971450D01*
Y452683D02*
Y472683D01*
X958950Y452683D02*
X971450D01*
X958950D02*
Y472683D01*
X445870Y515377D02*
X458370D01*
X445870D02*
Y535377D01*
X458370D01*
Y515377D02*
Y535377D01*
X392530Y480303D02*
X405030D01*
Y460303D02*
Y480303D01*
X392530Y460303D02*
X405030D01*
X392530D02*
Y480303D01*
X135990Y516183D02*
X148490D01*
X135990D02*
Y536183D01*
X148490D01*
Y516183D02*
Y536183D01*
X621130Y476957D02*
X633630D01*
Y456957D02*
Y476957D01*
X621130Y456957D02*
X633630D01*
X621130D02*
Y476957D01*
X57250Y475223D02*
X69750D01*
Y455223D02*
Y475223D01*
X57250Y455223D02*
X69750D01*
X57250D02*
Y475223D01*
X783690Y474820D02*
X796190D01*
Y454820D02*
Y474820D01*
X783690Y454820D02*
X796190D01*
X783690D02*
Y474820D01*
X212190Y477360D02*
X224690D01*
Y457360D02*
Y477360D01*
X212190Y457360D02*
X224690D01*
X212190D02*
Y477360D01*
X704950Y475223D02*
X717450D01*
Y455223D02*
Y475223D01*
X704950Y455223D02*
X717450D01*
X704950D02*
Y475223D01*
X768450Y518320D02*
X780950D01*
X768450D02*
Y538320D01*
X780950D01*
Y518320D02*
Y538320D01*
X212190Y515780D02*
X224690D01*
X212190D02*
Y535780D01*
X224690D01*
Y515780D02*
Y535780D01*
X737970Y518320D02*
X750470D01*
X737970D02*
Y538320D01*
X750470D01*
Y518320D02*
Y538320D01*
X141070Y474820D02*
X153570D01*
Y454820D02*
Y474820D01*
X141070Y454820D02*
X153570D01*
X141070D02*
Y474820D01*
X628750Y516183D02*
X641250D01*
X628750D02*
Y536183D01*
X641250D01*
Y516183D02*
Y536183D01*
X57250Y516183D02*
X69750D01*
X57250D02*
Y536183D01*
X69750D01*
Y516183D02*
Y536183D01*
X704950Y517917D02*
X717450D01*
X704950D02*
Y537917D01*
X717450D01*
Y517917D02*
Y537917D01*
X486860Y638440D02*
Y687440D01*
X447860Y638440D02*
X486860D01*
X447860D02*
Y687440D01*
X486860D01*
X284150Y708560D02*
X401650D01*
Y632560D02*
Y708560D01*
X284150Y632560D02*
X401650D01*
X284150D02*
Y708560D01*
X1066160Y9355D02*
X1123660D01*
X1066160D02*
Y83355D01*
X1123660D01*
Y9355D02*
Y83355D01*
X1066160Y100360D02*
X1123660D01*
X1066160D02*
Y174360D01*
X1123660D01*
Y100360D02*
Y174360D01*
X913760Y125360D02*
X971260D01*
X913760D02*
Y224360D01*
X971260D01*
Y125360D02*
Y224360D01*
X913760Y9320D02*
X971260D01*
X913760D02*
Y108320D01*
X971260D01*
Y9320D02*
Y108320D01*
X987420Y164200D02*
X1044920D01*
Y40200D02*
Y164200D01*
X987420Y40200D02*
X1044920D01*
X987420D02*
Y164200D01*
D58*
X232260Y646560D02*
Y694560D01*
X118260Y646560D02*
X232260D01*
X118260D02*
Y694560D01*
X232260D01*
D60*
X388180Y366600D02*
G03*
X388180Y366600I-5000J0D01*
G01*
X944440D02*
G03*
X944440Y366600I-5000J0D01*
G01*
X689170Y368290D02*
G03*
X689170Y368290I-5000J0D01*
G01*
X124020Y366600D02*
G03*
X124020Y366600I-5000J0D01*
G01*
X757290Y634780D02*
Y656780D01*
X771790Y634780D02*
Y656780D01*
X757290D02*
X771790D01*
X757290Y634780D02*
X771790D01*
X787770Y636700D02*
Y658700D01*
X802270Y636700D02*
Y658700D01*
X787770D02*
X802270D01*
X787770Y636700D02*
X802270D01*
X712540Y726160D02*
X816540D01*
X712540Y680160D02*
Y726160D01*
Y680160D02*
X816540D01*
Y726160D01*
X712540Y693160D02*
X816540D01*
X587110Y639240D02*
Y661240D01*
X601610Y639240D02*
Y661240D01*
X587110D02*
X601610D01*
X587110Y639240D02*
X601610D01*
X630290D02*
Y661240D01*
X644790Y639240D02*
Y661240D01*
X630290D02*
X644790D01*
X630290Y639240D02*
X644790D01*
X1044310Y342060D02*
Y364060D01*
X1058810Y342060D02*
Y364060D01*
X1044310D02*
X1058810D01*
X1044310Y342060D02*
X1058810D01*
X231510Y344220D02*
Y366220D01*
X246010Y344220D02*
Y366220D01*
X231510D02*
X246010D01*
X231510Y344220D02*
X246010D01*
X790310Y347520D02*
Y369520D01*
X804810Y347520D02*
Y369520D01*
X790310D02*
X804810D01*
X790310Y347520D02*
X804810D01*
X490590Y344980D02*
Y366980D01*
X505090Y344980D02*
Y366980D01*
X490590D02*
X505090D01*
X490590Y344980D02*
X505090D01*
X474180Y335600D02*
Y375600D01*
X374180Y335600D02*
Y375600D01*
Y335600D02*
X474180D01*
X374180Y375600D02*
X474180D01*
X1030440Y335600D02*
Y375600D01*
X930440Y335600D02*
Y375600D01*
Y335600D02*
X1030440D01*
X930440Y375600D02*
X1030440D01*
X775170Y337290D02*
Y377290D01*
X675170Y337290D02*
Y377290D01*
Y337290D02*
X775170D01*
X675170Y377290D02*
X775170D01*
X210020Y335600D02*
Y375600D01*
X110020Y335600D02*
Y375600D01*
Y335600D02*
X210020D01*
X110020Y375600D02*
X210020D01*
X323840Y532020D02*
Y550020D01*
X290840Y532020D02*
Y550020D01*
X323840D01*
X290840Y532020D02*
X323840D01*
X261250Y616380D02*
Y638380D01*
X246750Y616380D02*
Y638380D01*
Y616380D02*
X261250D01*
X246750Y638380D02*
X261250D01*
X85990Y618920D02*
Y640920D01*
X71490Y618920D02*
Y640920D01*
Y618920D02*
X85990D01*
X71490Y640920D02*
X85990D01*
X544900Y726160D02*
X648900D01*
X544900Y680160D02*
Y726160D01*
Y680160D02*
X648900D01*
Y726160D01*
X544900Y693160D02*
X648900D01*
M02*
