G04*
G04 #@! TF.GenerationSoftware,Altium Limited,Altium Designer,22.10.1 (41)*
G04*
G04 Layer_Color=8388736*
%FSLAX44Y44*%
%MOMM*%
G71*
G04*
G04 #@! TF.SameCoordinates,4CDF153F-0075-4D10-A07D-334E842CD810*
G04*
G04*
G04 #@! TF.FilePolarity,Negative*
G04*
G01*
G75*
%ADD13R,1.1500X1.5000*%
%ADD14R,1.5000X1.1500*%
%ADD15R,1.5500X1.5500*%
%ADD16C,1.5500*%
%ADD17C,1.8150*%
%ADD18R,2.1820X2.6900*%
%ADD19O,2.1820X2.6900*%
%ADD20C,1.8500*%
%ADD21R,1.8500X1.8500*%
%ADD22C,1.4000*%
%ADD23R,1.4000X1.4000*%
%ADD24C,0.9120*%
%ADD25C,0.5564*%
%ADD26C,1.4200*%
D13*
X919480Y228600D02*
D03*
X904480D02*
D03*
X863480D02*
D03*
X848480D02*
D03*
D14*
X866140Y124340D02*
D03*
Y109340D02*
D03*
Y81160D02*
D03*
Y66160D02*
D03*
D15*
X35390Y162360D02*
D03*
X124120Y159620D02*
D03*
X213190Y157280D02*
D03*
X35390Y65840D02*
D03*
X124290Y63300D02*
D03*
X213020Y60960D02*
D03*
X1100160Y33855D02*
D03*
Y124860D02*
D03*
D16*
X35390Y137360D02*
D03*
X124120Y134620D02*
D03*
X213190Y132280D02*
D03*
X35390Y40840D02*
D03*
X124290Y38300D02*
D03*
X213020Y35960D02*
D03*
X1100160Y58855D02*
D03*
Y149860D02*
D03*
D17*
X340360Y180340D02*
D03*
X365760D02*
D03*
X391160D02*
D03*
X416560D02*
D03*
X441960D02*
D03*
X467360D02*
D03*
X492760D02*
D03*
X518160D02*
D03*
X543560D02*
D03*
X568960D02*
D03*
X594360D02*
D03*
X619760D02*
D03*
Y27940D02*
D03*
X594360D02*
D03*
X568960D02*
D03*
X543560D02*
D03*
X518160D02*
D03*
X492760D02*
D03*
X467360D02*
D03*
X441960D02*
D03*
X416560D02*
D03*
X391160D02*
D03*
X365760D02*
D03*
X670560Y180340D02*
D03*
X695960D02*
D03*
X721360D02*
D03*
X746760D02*
D03*
X772160D02*
D03*
X797560D02*
D03*
X822960D02*
D03*
X848360D02*
D03*
X873760D02*
D03*
Y27940D02*
D03*
X848360D02*
D03*
X822960D02*
D03*
X797560D02*
D03*
X772160D02*
D03*
X746760D02*
D03*
X721360D02*
D03*
X695960D02*
D03*
X670560D02*
D03*
X645160Y180340D02*
D03*
X746760Y154940D02*
D03*
Y129540D02*
D03*
Y104140D02*
D03*
Y78740D02*
D03*
Y53340D02*
D03*
X454660Y149840D02*
D03*
X429260D02*
D03*
X403860D02*
D03*
X378460D02*
D03*
X353060D02*
D03*
X340360Y27940D02*
D03*
X289560D02*
D03*
X314960Y180340D02*
D03*
Y53340D02*
D03*
X645160Y27940D02*
D03*
X314960D02*
D03*
X289560Y180340D02*
D03*
D18*
X374142Y420878D02*
D03*
X939800D02*
D03*
X657860D02*
D03*
X92202D02*
D03*
D19*
X399542D02*
D03*
X424942D02*
D03*
X450342D02*
D03*
X475742D02*
D03*
X374142Y573278D02*
D03*
X399542D02*
D03*
X424942D02*
D03*
X450342D02*
D03*
X475742D02*
D03*
X1041400D02*
D03*
X1016000D02*
D03*
X990600D02*
D03*
X965200D02*
D03*
X939800D02*
D03*
X1041400Y420878D02*
D03*
X1016000D02*
D03*
X990600D02*
D03*
X965200D02*
D03*
X683260D02*
D03*
X708660D02*
D03*
X734060D02*
D03*
X759460D02*
D03*
X657860Y573278D02*
D03*
X683260D02*
D03*
X708660D02*
D03*
X734060D02*
D03*
X759460D02*
D03*
X117602Y420878D02*
D03*
X143002D02*
D03*
X168402D02*
D03*
X193802D02*
D03*
X92202Y573278D02*
D03*
X117602D02*
D03*
X143002D02*
D03*
X168402D02*
D03*
X193802D02*
D03*
D20*
X789940Y708660D02*
D03*
X764540D02*
D03*
X622300D02*
D03*
X596900D02*
D03*
D21*
X739140D02*
D03*
X571500D02*
D03*
D22*
X947760Y199860D02*
D03*
Y174860D02*
D03*
Y83820D02*
D03*
Y58820D02*
D03*
X1021420Y89700D02*
D03*
Y114700D02*
D03*
Y139700D02*
D03*
D23*
X947760Y149860D02*
D03*
Y33820D02*
D03*
X1021420Y64700D02*
D03*
D24*
X146558Y74168D02*
D03*
X545084Y41656D02*
D03*
X683260Y39370D02*
D03*
X637540Y199390D02*
D03*
X905510Y515620D02*
D03*
X982980Y542753D02*
D03*
X952500Y304800D02*
D03*
X972820D02*
D03*
X986790Y308483D02*
D03*
X1041400Y307340D02*
D03*
X688340Y355600D02*
D03*
X727011Y347173D02*
D03*
X727009Y356870D02*
D03*
X423418Y392891D02*
D03*
X403860Y309880D02*
D03*
X493522Y498094D02*
D03*
X966978Y6604D02*
D03*
X919226Y256032D02*
D03*
X222504Y446024D02*
D03*
X706120Y395986D02*
D03*
X765810Y474577D02*
D03*
X768350Y459994D02*
D03*
X175260Y370332D02*
D03*
X190171Y498677D02*
D03*
X895858Y355346D02*
D03*
X405638Y516023D02*
D03*
X367792Y390144D02*
D03*
X939800Y482346D02*
D03*
X442722Y446786D02*
D03*
X628904Y362458D02*
D03*
X685292Y516128D02*
D03*
X481584Y387096D02*
D03*
X368300Y702818D02*
D03*
X189992D02*
D03*
X867918Y134620D02*
D03*
X657860Y393700D02*
D03*
X607060Y20320D02*
D03*
X202184Y10668D02*
D03*
X492760Y135382D02*
D03*
X171704Y318516D02*
D03*
X160528Y345440D02*
D03*
X549656Y601726D02*
D03*
X569976Y126606D02*
D03*
X422402Y656590D02*
D03*
X518668Y608838D02*
D03*
X756920Y319532D02*
D03*
X759567Y444513D02*
D03*
X182245Y396621D02*
D03*
X177800Y498602D02*
D03*
X940054Y249174D02*
D03*
X344170Y337058D02*
D03*
X450850Y298958D02*
D03*
X153670Y304292D02*
D03*
X359918Y397002D02*
D03*
X363220Y470916D02*
D03*
X70104Y414020D02*
D03*
X849630Y728980D02*
D03*
X772160Y91440D02*
D03*
D25*
X774700Y518563D02*
D03*
X999490Y382270D02*
D03*
D26*
X607651Y335871D02*
D03*
X657269Y337820D02*
D03*
X389128Y312420D02*
D03*
X363220D02*
D03*
X322580D02*
D03*
X307340Y475383D02*
D03*
X1018540Y497840D02*
D03*
X330200Y599440D02*
D03*
X423958Y619760D02*
D03*
X495300D02*
D03*
X619760Y228600D02*
D03*
M02*
