G04*
G04 #@! TF.GenerationSoftware,Altium Limited,Altium Designer,22.10.1 (41)*
G04*
G04 Layer_Physical_Order=1*
G04 Layer_Color=255*
%FSLAX44Y44*%
%MOMM*%
G71*
G04*
G04 #@! TF.SameCoordinates,F6FD88A5-7606-448C-B8D5-CB5F8BF09B0B*
G04*
G04*
G04 #@! TF.FilePolarity,Positive*
G04*
G01*
G75*
%ADD11R,1.0000X1.3500*%
%ADD12R,1.3500X1.0000*%
%ADD15C,1.4000*%
%ADD16R,1.4000X1.4000*%
%ADD20R,1.5500X1.5500*%
%ADD21C,1.5500*%
%ADD26R,1.4000X1.4000*%
%ADD29C,0.3048*%
%ADD30C,1.6650*%
%ADD31O,6.3500X6.1976*%
%ADD32R,2.0320X2.5400*%
%ADD33O,2.0320X2.5400*%
%ADD34C,1.7000*%
%ADD35R,1.7000X1.7000*%
%ADD36C,0.7620*%
%ADD37C,0.6858*%
G36*
X751863Y584716D02*
X751127Y584151D01*
X749254Y581710D01*
X748077Y578868D01*
X747675Y575818D01*
Y570738D01*
X748077Y567688D01*
X749254Y564846D01*
X751127Y562405D01*
X753568Y560532D01*
X756410Y559355D01*
X759460Y558953D01*
X762510Y559355D01*
X765352Y560532D01*
X767793Y562405D01*
X768358Y563141D01*
X769560Y562732D01*
Y499403D01*
X769454Y499297D01*
X768781Y498289D01*
X768544Y497099D01*
Y467488D01*
X768781Y466299D01*
X769454Y465290D01*
X769560Y465185D01*
Y431424D01*
X768358Y431015D01*
X767793Y431751D01*
X765352Y433624D01*
X762510Y434801D01*
X759460Y435203D01*
X756410Y434801D01*
X753568Y433624D01*
X751127Y431751D01*
X749254Y429310D01*
X748077Y426468D01*
X747675Y423418D01*
Y418338D01*
X748077Y415288D01*
X749254Y412446D01*
X751127Y410005D01*
X753568Y408132D01*
X755180Y407464D01*
X753435Y387283D01*
X692847D01*
X691657Y387046D01*
X690649Y386372D01*
X607120Y302843D01*
X605850Y303369D01*
Y348369D01*
X607120Y349076D01*
X608539Y348488D01*
X610661D01*
X612621Y349300D01*
X614122Y350801D01*
X614934Y352761D01*
Y354883D01*
X614122Y356843D01*
X612708Y358258D01*
Y487917D01*
X647269Y522478D01*
X649269D01*
X651229Y523290D01*
X652730Y524790D01*
X653542Y526751D01*
Y528873D01*
X652730Y530834D01*
X651229Y532334D01*
X649269Y533146D01*
X647147D01*
X645186Y532334D01*
X643686Y530834D01*
X642874Y528873D01*
Y526873D01*
X607402Y491401D01*
X607120Y490978D01*
X605850Y491363D01*
Y495791D01*
X660058Y549999D01*
X660731Y551007D01*
X660968Y552196D01*
Y559379D01*
X663752Y560532D01*
X666193Y562405D01*
X668066Y564846D01*
X669243Y567688D01*
X669645Y570738D01*
Y575818D01*
X669243Y578868D01*
X668066Y581710D01*
X666193Y584151D01*
X665457Y584716D01*
X665866Y585918D01*
X675254D01*
X675663Y584716D01*
X674927Y584151D01*
X673054Y581710D01*
X671877Y578868D01*
X671475Y575818D01*
Y570738D01*
X671877Y567688D01*
X673054Y564846D01*
X674927Y562405D01*
X677368Y560532D01*
X680210Y559355D01*
X683260Y558953D01*
X686310Y559355D01*
X689152Y560532D01*
X691593Y562405D01*
X693466Y564846D01*
X694643Y567688D01*
X695045Y570738D01*
Y575818D01*
X694643Y578868D01*
X693466Y581710D01*
X691593Y584151D01*
X690857Y584716D01*
X691266Y585918D01*
X700654D01*
X701063Y584716D01*
X700327Y584151D01*
X698454Y581710D01*
X697277Y578868D01*
X696875Y575818D01*
Y570738D01*
X697277Y567688D01*
X698454Y564846D01*
X700327Y562405D01*
X702768Y560532D01*
X705610Y559355D01*
X708660Y558953D01*
X711710Y559355D01*
X714552Y560532D01*
X716993Y562405D01*
X718866Y564846D01*
X720043Y567688D01*
X720445Y570738D01*
Y575818D01*
X720043Y578868D01*
X718866Y581710D01*
X716993Y584151D01*
X716257Y584716D01*
X716666Y585918D01*
X726054D01*
X726463Y584716D01*
X725727Y584151D01*
X723854Y581710D01*
X722677Y578868D01*
X722275Y575818D01*
Y570738D01*
X722677Y567688D01*
X723854Y564846D01*
X725727Y562405D01*
X728168Y560532D01*
X731010Y559355D01*
X734060Y558953D01*
X737110Y559355D01*
X739952Y560532D01*
X742393Y562405D01*
X744266Y564846D01*
X745443Y567688D01*
X745845Y570738D01*
Y575818D01*
X745443Y578868D01*
X744266Y581710D01*
X742393Y584151D01*
X741657Y584716D01*
X742066Y585918D01*
X751454D01*
X751863Y584716D01*
D02*
G37*
G36*
X1121336Y57224D02*
X608617D01*
X608131Y58398D01*
X610584Y60851D01*
X611258Y61860D01*
X611495Y63049D01*
Y71281D01*
X612765Y71807D01*
X613713Y70859D01*
X615958Y69562D01*
X618463Y68891D01*
X621057D01*
X623562Y69562D01*
X625807Y70859D01*
X627641Y72693D01*
X628938Y74938D01*
X629609Y77443D01*
Y80037D01*
X628938Y82542D01*
X627641Y84787D01*
X625807Y86621D01*
X623562Y87918D01*
X621057Y88589D01*
X618463D01*
X617068Y88215D01*
X616411Y89354D01*
X633387Y106331D01*
X633797Y106944D01*
X635067Y106559D01*
Y100956D01*
X633653Y99542D01*
X632841Y97581D01*
Y95459D01*
X633653Y93498D01*
X635154Y91998D01*
X637114Y91186D01*
X639236D01*
X641197Y91998D01*
X642697Y93498D01*
X643509Y95459D01*
Y97581D01*
X642697Y99542D01*
X641283Y100956D01*
Y166226D01*
X658788Y183731D01*
X659461Y184739D01*
X659698Y185928D01*
Y228718D01*
X660968Y228885D01*
X661382Y227338D01*
X662679Y225093D01*
X664513Y223259D01*
X666758Y221962D01*
X669263Y221291D01*
X671857D01*
X674362Y221962D01*
X676607Y223259D01*
X678441Y225093D01*
X679738Y227338D01*
X680409Y229843D01*
Y232437D01*
X679738Y234942D01*
X678441Y237187D01*
X676607Y239021D01*
X674362Y240318D01*
X671857Y240989D01*
X669263D01*
X666758Y240318D01*
X664513Y239021D01*
X662679Y237187D01*
X661382Y234942D01*
X660968Y233395D01*
X659698Y233562D01*
Y252984D01*
X659461Y254173D01*
X658788Y255182D01*
X639826Y274143D01*
Y276143D01*
X639014Y278104D01*
X637514Y279604D01*
X635553Y280416D01*
X633431D01*
X632012Y279828D01*
X630742Y280534D01*
Y283955D01*
X653111Y306324D01*
X655111D01*
X657072Y307136D01*
X658572Y308636D01*
X659384Y310597D01*
Y312719D01*
X658572Y314680D01*
X657072Y316180D01*
X655111Y316992D01*
X652989D01*
X651029Y316180D01*
X649528Y314680D01*
X648716Y312719D01*
Y310719D01*
X625437Y287439D01*
X624763Y286431D01*
X624526Y285242D01*
Y255270D01*
X624763Y254081D01*
X625437Y253072D01*
X628082Y250427D01*
Y238542D01*
X626812Y238016D01*
X625807Y239021D01*
X623562Y240318D01*
X621057Y240989D01*
X618463D01*
X615958Y240318D01*
X613713Y239021D01*
X612708Y238016D01*
X611438Y238542D01*
Y288273D01*
X640411Y317246D01*
X642411D01*
X644371Y318058D01*
X645872Y319559D01*
X646684Y321519D01*
Y323641D01*
X645872Y325602D01*
X644371Y327102D01*
X642670Y327807D01*
X642154Y329087D01*
X694134Y381067D01*
X756285D01*
X756750Y381160D01*
X757222Y381212D01*
X757341Y381277D01*
X757474Y381304D01*
X757869Y381568D01*
X758285Y381796D01*
X758370Y381902D01*
X758483Y381978D01*
X758746Y382372D01*
X759043Y382743D01*
X759081Y382873D01*
X759156Y382986D01*
X759249Y383451D01*
X759381Y383907D01*
X761362Y406804D01*
X762510Y406955D01*
X765352Y408132D01*
X767793Y410005D01*
X768358Y410741D01*
X769560Y410332D01*
Y281449D01*
X731862Y243752D01*
X731189Y242743D01*
X730952Y241554D01*
Y236764D01*
X729682Y236423D01*
X729241Y237187D01*
X727407Y239021D01*
X725162Y240318D01*
X722657Y240989D01*
X720063D01*
X717558Y240318D01*
X715313Y239021D01*
X713479Y237187D01*
X712182Y234942D01*
X711511Y232437D01*
Y229843D01*
X712182Y227338D01*
X712541Y226716D01*
X683722Y197897D01*
X683049Y196889D01*
X682812Y195700D01*
Y163214D01*
X679396D01*
Y158048D01*
X671884D01*
Y163214D01*
X658836D01*
Y146666D01*
X671884D01*
Y151832D01*
X679396D01*
Y146666D01*
X692444D01*
Y163214D01*
X689028D01*
Y194413D01*
X716936Y222321D01*
X717558Y221962D01*
X720063Y221291D01*
X722657D01*
X725162Y221962D01*
X727407Y223259D01*
X729241Y225093D01*
X729682Y225857D01*
X730952Y225516D01*
Y192549D01*
X701617Y163214D01*
X694396D01*
Y146666D01*
X707444D01*
Y160251D01*
X736257Y189065D01*
X736931Y190073D01*
X737168Y191262D01*
Y200116D01*
X738438Y200457D01*
X738879Y199693D01*
X740713Y197859D01*
X742958Y196562D01*
X745463Y195891D01*
X748057D01*
X750562Y196562D01*
X752807Y197859D01*
X754641Y199693D01*
X755938Y201938D01*
X756609Y204443D01*
Y207037D01*
X755938Y209542D01*
X754641Y211787D01*
X752807Y213621D01*
X750562Y214918D01*
X748057Y215589D01*
X745463D01*
X742958Y214918D01*
X740713Y213621D01*
X738879Y211787D01*
X738438Y211023D01*
X737168Y211364D01*
Y225516D01*
X738438Y225857D01*
X738879Y225093D01*
X740713Y223259D01*
X742958Y221962D01*
X745463Y221291D01*
X748057D01*
X750562Y221962D01*
X751324Y222402D01*
X751667Y222173D01*
X752856Y221936D01*
X759951D01*
X768890Y212997D01*
X768890Y212997D01*
X771670Y210217D01*
X774773Y159710D01*
X774904Y159214D01*
X775004Y158711D01*
X775058Y158631D01*
X775082Y158537D01*
X775393Y158129D01*
X775677Y157703D01*
X775758Y157649D01*
X775816Y157572D01*
X776259Y157314D01*
X776686Y157029D01*
X776780Y157010D01*
X776864Y156961D01*
X777372Y156892D01*
X777875Y156792D01*
X779126D01*
Y153376D01*
X795674D01*
Y166424D01*
X780588D01*
X777861Y210817D01*
X778954Y212087D01*
X811703D01*
X812352Y211438D01*
Y208934D01*
X808936D01*
Y192386D01*
X821984D01*
Y208934D01*
X818568D01*
Y212725D01*
X818331Y213914D01*
X817657Y214923D01*
X817094Y215486D01*
X817580Y216659D01*
X836987D01*
X838176Y216896D01*
X839184Y217569D01*
X843936Y222321D01*
X844558Y221962D01*
X847063Y221291D01*
X849657D01*
X852162Y221962D01*
X854407Y223259D01*
X856241Y225093D01*
X857538Y227338D01*
X858209Y229843D01*
Y232437D01*
X857538Y234942D01*
X856241Y237187D01*
X854407Y239021D01*
X852162Y240318D01*
X849657Y240989D01*
X847063D01*
X844558Y240318D01*
X842313Y239021D01*
X840479Y237187D01*
X839182Y234942D01*
X838511Y232437D01*
Y229843D01*
X839182Y227338D01*
X839541Y226716D01*
X835700Y222875D01*
X830419D01*
X829893Y224145D01*
X830841Y225093D01*
X832138Y227338D01*
X832809Y229843D01*
Y232437D01*
X832138Y234942D01*
X831779Y235564D01*
X833286Y237071D01*
X833959Y238079D01*
X834196Y239268D01*
Y607313D01*
X835466Y607839D01*
X835940Y607364D01*
X837901Y606552D01*
X839901D01*
X860238Y586215D01*
Y521073D01*
X858968Y520366D01*
X857549Y520954D01*
X855427D01*
X853466Y520142D01*
X851966Y518642D01*
X851154Y516681D01*
Y514559D01*
X851966Y512598D01*
X853380Y511184D01*
Y364998D01*
X853617Y363809D01*
X854290Y362800D01*
X870458Y346633D01*
Y344633D01*
X871270Y342673D01*
X872770Y341172D01*
X874731Y340360D01*
X876853D01*
X878813Y341172D01*
X880314Y342673D01*
X881126Y344633D01*
Y346755D01*
X880314Y348716D01*
X878813Y350216D01*
X876853Y351028D01*
X874853D01*
X859596Y366285D01*
Y460121D01*
X860866Y460506D01*
X861149Y460083D01*
X949646Y371585D01*
Y229834D01*
X948376Y229308D01*
X947744Y229941D01*
X945800Y231063D01*
X943632Y231644D01*
X943526D01*
Y223120D01*
Y214596D01*
X943632D01*
X945800Y215177D01*
X947744Y216299D01*
X948376Y216932D01*
X949646Y216406D01*
Y209652D01*
X945963Y205969D01*
X945800Y206063D01*
X943632Y206644D01*
X941387D01*
X939220Y206063D01*
X937276Y204941D01*
X935689Y203354D01*
X934567Y201410D01*
X933986Y199242D01*
Y196998D01*
X934567Y194830D01*
X935689Y192886D01*
X937276Y191299D01*
X939220Y190177D01*
X939687Y190052D01*
X939520Y188782D01*
X841874D01*
X840460Y190196D01*
X838499Y191008D01*
X836377D01*
X834417Y190196D01*
X832916Y188696D01*
X832104Y186735D01*
Y184613D01*
X832916Y182652D01*
X834417Y181152D01*
X835598Y180663D01*
X835749Y179235D01*
X804521Y148008D01*
X795674D01*
Y151424D01*
X779126D01*
Y138376D01*
X795674D01*
Y141792D01*
X805808D01*
X806997Y142029D01*
X808005Y142702D01*
X839233Y173930D01*
X844041D01*
X844567Y172660D01*
X843838Y171931D01*
X843026Y169971D01*
Y167849D01*
X843838Y165889D01*
X845252Y164474D01*
Y88104D01*
X844558Y87918D01*
X842313Y86621D01*
X840479Y84787D01*
X839182Y82542D01*
X838511Y80037D01*
Y77443D01*
X839182Y74938D01*
X840479Y72693D01*
X842313Y70859D01*
X844558Y69562D01*
X847063Y68891D01*
X849657D01*
X852162Y69562D01*
X854407Y70859D01*
X856241Y72693D01*
X857538Y74938D01*
X858209Y77443D01*
Y80037D01*
X857538Y82542D01*
X856241Y84787D01*
X854407Y86621D01*
X852162Y87918D01*
X851468Y88104D01*
Y164474D01*
X852882Y165889D01*
X853694Y167849D01*
Y169971D01*
X852882Y171931D01*
X852153Y172660D01*
X852679Y173930D01*
X933986D01*
Y164596D01*
X951034D01*
Y181296D01*
X951034Y181644D01*
X951873Y182566D01*
X1038225D01*
X1039414Y182803D01*
X1040423Y183477D01*
X1043597Y186651D01*
X1043726Y186843D01*
X1044996Y186506D01*
X1045027Y186506D01*
X1063544D01*
Y205054D01*
X1045778D01*
X1044996Y205054D01*
X1044508Y206122D01*
Y216718D01*
X1045778Y216940D01*
X1046849Y215086D01*
X1048575Y213359D01*
X1050690Y212138D01*
X1053049Y211506D01*
X1053254D01*
Y220780D01*
Y230054D01*
X1053049D01*
X1050690Y229422D01*
X1048575Y228201D01*
X1046849Y226474D01*
X1045778Y224619D01*
X1044508Y224842D01*
Y406979D01*
X1047292Y408132D01*
X1049733Y410005D01*
X1051606Y412446D01*
X1052783Y415288D01*
X1053185Y418338D01*
Y423418D01*
X1052783Y426468D01*
X1051606Y429310D01*
X1049733Y431751D01*
X1047292Y433624D01*
X1044450Y434801D01*
X1041400Y435203D01*
X1038350Y434801D01*
X1035508Y433624D01*
X1033067Y431751D01*
X1031194Y429310D01*
X1030017Y426468D01*
X1029615Y423418D01*
Y418338D01*
X1030017Y415288D01*
X1031194Y412446D01*
X1033067Y410005D01*
X1035508Y408132D01*
X1038292Y406979D01*
Y190136D01*
X1036938Y188782D01*
X945500D01*
X945333Y190052D01*
X945800Y190177D01*
X947744Y191299D01*
X949331Y192886D01*
X950453Y194830D01*
X951034Y196998D01*
Y199242D01*
X950453Y201410D01*
X950358Y201574D01*
X954951Y206167D01*
X955625Y207175D01*
X955862Y208364D01*
Y372872D01*
X955625Y374061D01*
X954951Y375070D01*
X889204Y440817D01*
X889730Y442087D01*
X889985D01*
X891806Y442841D01*
X893199Y444234D01*
X893953Y446055D01*
Y447598D01*
X951247Y504892D01*
X1045123D01*
X1046214Y503801D01*
X1048035Y503047D01*
X1050005D01*
X1051826Y503801D01*
X1053219Y505194D01*
X1053973Y507015D01*
Y508985D01*
X1053219Y510806D01*
X1051826Y512199D01*
X1050005Y512953D01*
X1048035D01*
X1046214Y512199D01*
X1045123Y511108D01*
X949960D01*
X948771Y510871D01*
X947763Y510197D01*
X889558Y451993D01*
X888015D01*
X886194Y451239D01*
X884801Y449846D01*
X884047Y448025D01*
Y447770D01*
X882777Y447244D01*
X866454Y463567D01*
Y587502D01*
X866217Y588691D01*
X865544Y589700D01*
X844296Y610947D01*
Y612569D01*
X844468Y613085D01*
X844804Y613355D01*
Y621284D01*
X837296D01*
Y621178D01*
X837877Y619010D01*
X838233Y618393D01*
X837532Y617067D01*
X835940Y616408D01*
X835466Y615933D01*
X834196Y616459D01*
Y662832D01*
X833959Y664021D01*
X833286Y665029D01*
X803268Y695046D01*
X803363Y695210D01*
X803944Y697378D01*
Y699622D01*
X803363Y701790D01*
X802241Y703734D01*
X800654Y705321D01*
X798710Y706443D01*
X796542Y707024D01*
X794298D01*
X792130Y706443D01*
X790186Y705321D01*
X788599Y703734D01*
X787477Y701790D01*
X786896Y699622D01*
Y697378D01*
X787477Y695210D01*
X788599Y693266D01*
X790186Y691679D01*
X792130Y690557D01*
X794298Y689976D01*
X796542D01*
X798710Y690557D01*
X798874Y690651D01*
X827980Y661544D01*
Y628990D01*
X826710Y628464D01*
X826054Y629121D01*
X824110Y630243D01*
X821942Y630824D01*
X819698D01*
X817530Y630243D01*
X815586Y629121D01*
X814818Y628353D01*
X813548Y628879D01*
Y658480D01*
X813311Y659669D01*
X812638Y660677D01*
X778944Y694371D01*
Y707024D01*
X761896D01*
Y689976D01*
X774549D01*
X807333Y657193D01*
Y452064D01*
X785585Y430316D01*
X784412Y430802D01*
Y472060D01*
X784175Y473249D01*
X783502Y474258D01*
X779332Y478427D01*
Y481465D01*
X780602Y482172D01*
X782021Y481584D01*
X782066D01*
Y486918D01*
Y492252D01*
X782021D01*
X781672Y492108D01*
X780082Y492804D01*
X780027Y492952D01*
X783502Y496426D01*
X784175Y497434D01*
X784412Y498623D01*
Y606497D01*
X791691Y613776D01*
X804344D01*
Y630824D01*
X787296D01*
Y618171D01*
X779107Y609981D01*
X778433Y608973D01*
X778196Y607784D01*
Y499911D01*
X777046Y498760D01*
X775776Y499286D01*
Y584708D01*
X775539Y585897D01*
X774865Y586906D01*
X770547Y591223D01*
X769539Y591897D01*
X768350Y592134D01*
X643399D01*
X629218Y606315D01*
Y613776D01*
X644724D01*
Y630824D01*
X629218D01*
Y684983D01*
X634211Y689976D01*
X646864D01*
Y707024D01*
X629816D01*
Y694371D01*
X623913Y688467D01*
X623239Y687459D01*
X623002Y686270D01*
Y605028D01*
X623239Y603839D01*
X623913Y602831D01*
X639915Y586828D01*
X640923Y586155D01*
X642112Y585918D01*
X649854D01*
X650263Y584716D01*
X649527Y584151D01*
X647654Y581710D01*
X646477Y578868D01*
X646075Y575818D01*
Y570738D01*
X646477Y567688D01*
X647654Y564846D01*
X649527Y562405D01*
X651968Y560532D01*
X654752Y559379D01*
Y553483D01*
X600545Y499276D01*
X599871Y498267D01*
X599634Y497078D01*
Y303293D01*
X552793Y256451D01*
X552119Y255443D01*
X551882Y254254D01*
Y238542D01*
X550612Y238016D01*
X549607Y239021D01*
X547362Y240318D01*
X544857Y240989D01*
X542263D01*
X539758Y240318D01*
X537513Y239021D01*
X535679Y237187D01*
X534382Y234942D01*
X533711Y232437D01*
Y229843D01*
X534382Y227338D01*
X535679Y225093D01*
X536684Y224088D01*
X536158Y222818D01*
X525562D01*
X525036Y224088D01*
X526041Y225093D01*
X527338Y227338D01*
X528009Y229843D01*
Y232437D01*
X527338Y234942D01*
X526041Y237187D01*
X524207Y239021D01*
X521962Y240318D01*
X519457Y240989D01*
X516863D01*
X514358Y240318D01*
X512113Y239021D01*
X510279Y237187D01*
X508982Y234942D01*
X508311Y232437D01*
Y229843D01*
X508982Y227338D01*
X510279Y225093D01*
X511284Y224088D01*
X510758Y222818D01*
X500162D01*
X499636Y224088D01*
X500641Y225093D01*
X501938Y227338D01*
X502609Y229843D01*
Y232437D01*
X501938Y234942D01*
X501579Y235564D01*
X586906Y320891D01*
X587579Y321899D01*
X587816Y323088D01*
Y639962D01*
X589230Y641376D01*
X590042Y643337D01*
Y645459D01*
X589230Y647420D01*
X587729Y648920D01*
X585769Y649732D01*
X583647D01*
X581687Y648920D01*
X580186Y647420D01*
X579374Y645459D01*
Y643337D01*
X580186Y641376D01*
X581600Y639962D01*
Y324375D01*
X497184Y239959D01*
X496562Y240318D01*
X494057Y240989D01*
X491463D01*
X488958Y240318D01*
X486713Y239021D01*
X484879Y237187D01*
X483582Y234942D01*
X482911Y232437D01*
Y229843D01*
X483582Y227338D01*
X484879Y225093D01*
X485884Y224088D01*
X485358Y222818D01*
X474762D01*
X474236Y224088D01*
X475241Y225093D01*
X476538Y227338D01*
X477209Y229843D01*
Y232437D01*
X476538Y234942D01*
X475241Y237187D01*
X473407Y239021D01*
X471162Y240318D01*
X468657Y240989D01*
X466063D01*
X463558Y240318D01*
X462936Y239959D01*
X454698Y248197D01*
X453690Y248870D01*
X452501Y249107D01*
X434975D01*
X433786Y248870D01*
X432777Y248197D01*
X428332Y243752D01*
X427659Y242743D01*
X427422Y241554D01*
Y233562D01*
X426152Y233395D01*
X425738Y234942D01*
X424441Y237187D01*
X422607Y239021D01*
X420362Y240318D01*
X419668Y240504D01*
Y248166D01*
X419431Y249355D01*
X418758Y250363D01*
X396808Y272313D01*
Y276015D01*
X398053Y276262D01*
X398678Y274754D01*
X401352Y270391D01*
X404675Y266500D01*
X408567Y263176D01*
X412930Y260502D01*
X417658Y258544D01*
X422634Y257349D01*
X425426Y257129D01*
X425939Y257048D01*
X426459D01*
X427736Y256947D01*
X429260D01*
X430537Y257048D01*
X431057D01*
X431570Y257129D01*
X434362Y257349D01*
X439338Y258544D01*
X444066Y260502D01*
X448429Y263176D01*
X452321Y266500D01*
X455644Y270391D01*
X458318Y274754D01*
X460276Y279482D01*
X461471Y284458D01*
X461872Y289560D01*
X461471Y294662D01*
X460276Y299638D01*
X458318Y304366D01*
X455644Y308729D01*
X452321Y312621D01*
X448429Y315944D01*
X444066Y318618D01*
X439338Y320576D01*
X434362Y321771D01*
X434479Y323028D01*
X471678D01*
X472867Y323265D01*
X473876Y323938D01*
X477939Y328003D01*
X478613Y329011D01*
X478850Y330200D01*
Y406979D01*
X481634Y408132D01*
X484075Y410005D01*
X485948Y412446D01*
X487125Y415288D01*
X487527Y418338D01*
Y423418D01*
X487125Y426468D01*
X485948Y429310D01*
X484075Y431751D01*
X481634Y433624D01*
X478792Y434801D01*
X475742Y435203D01*
X472692Y434801D01*
X469850Y433624D01*
X467409Y431751D01*
X465536Y429310D01*
X464359Y426468D01*
X463957Y423418D01*
Y418338D01*
X464359Y415288D01*
X465536Y412446D01*
X467409Y410005D01*
X469850Y408132D01*
X472634Y406979D01*
Y331487D01*
X470391Y329244D01*
X396875D01*
X395686Y329007D01*
X394678Y328334D01*
X391502Y325159D01*
X390829Y324150D01*
X390592Y322961D01*
Y273722D01*
X389419Y273236D01*
X376464Y286191D01*
X377183Y287268D01*
X377475Y287147D01*
X379445D01*
X381266Y287901D01*
X382659Y289294D01*
X383413Y291115D01*
Y293085D01*
X382659Y294906D01*
X381568Y295997D01*
Y323763D01*
X382659Y324854D01*
X383413Y326675D01*
Y328645D01*
X382659Y330466D01*
X381266Y331859D01*
X379445Y332613D01*
X377475D01*
X375654Y331859D01*
X374261Y330466D01*
X373507Y328645D01*
Y326675D01*
X374261Y324854D01*
X375352Y323763D01*
Y295997D01*
X374261Y294906D01*
X373507Y293085D01*
Y291115D01*
X373628Y290823D01*
X372551Y290104D01*
X370900Y291755D01*
Y318144D01*
X372314Y319559D01*
X373126Y321519D01*
Y323641D01*
X372314Y325602D01*
X370813Y327102D01*
X368853Y327914D01*
X366731D01*
X364771Y327102D01*
X363270Y325602D01*
X362458Y323641D01*
Y321519D01*
X363270Y319559D01*
X364684Y318144D01*
Y296514D01*
X363511Y296028D01*
X355060Y304479D01*
X354052Y305152D01*
X352863Y305389D01*
X340850D01*
X338388Y307851D01*
Y414472D01*
X339658Y414724D01*
X339662Y414715D01*
X341055Y413322D01*
X342875Y412567D01*
X344846D01*
X346666Y413322D01*
X348060Y414715D01*
X348814Y416535D01*
Y418325D01*
X361285Y430796D01*
X362458Y430310D01*
Y406654D01*
X385826D01*
Y435102D01*
X367250D01*
X366764Y436275D01*
X369341Y438852D01*
X449580D01*
X450769Y439089D01*
X451777Y439762D01*
X499822Y487807D01*
X501365D01*
X503186Y488561D01*
X504579Y489954D01*
X505333Y491775D01*
Y493745D01*
X504579Y495566D01*
X503186Y496959D01*
X501365Y497713D01*
X499395D01*
X497574Y496959D01*
X496181Y495566D01*
X495427Y493745D01*
Y492202D01*
X448293Y445068D01*
X368054D01*
X366864Y444831D01*
X365856Y444157D01*
X344172Y422473D01*
X342875D01*
X341055Y421720D01*
X339662Y420326D01*
X339658Y420317D01*
X338388Y420569D01*
Y422893D01*
X376339Y460844D01*
X377013Y461853D01*
X377250Y463042D01*
Y489594D01*
X378520Y490300D01*
X379939Y489712D01*
X382061D01*
X384021Y490524D01*
X385522Y492024D01*
X386334Y493985D01*
Y496107D01*
X385522Y498068D01*
X384108Y499482D01*
Y511793D01*
X400572Y528256D01*
X402571D01*
X404532Y529069D01*
X406032Y530569D01*
X406844Y532529D01*
Y534651D01*
X406032Y536612D01*
X404532Y538112D01*
X402571Y538924D01*
X400449D01*
X398489Y538112D01*
X396989Y536612D01*
X396176Y534651D01*
Y532651D01*
X378802Y515277D01*
X378520Y514854D01*
X377250Y515239D01*
Y559379D01*
X380034Y560532D01*
X382475Y562405D01*
X384348Y564846D01*
X385525Y567688D01*
X385927Y570738D01*
Y575818D01*
X385525Y578868D01*
X384348Y581710D01*
X382475Y584151D01*
X380034Y586024D01*
X377192Y587201D01*
X374142Y587603D01*
X371092Y587201D01*
X368250Y586024D01*
X365809Y584151D01*
X363936Y581710D01*
X362759Y578868D01*
X362357Y575818D01*
Y570738D01*
X362759Y567688D01*
X363936Y564846D01*
X365809Y562405D01*
X368250Y560532D01*
X371034Y559379D01*
Y472258D01*
X369764Y471552D01*
X368345Y472139D01*
X366223D01*
X364263Y471327D01*
X362762Y469827D01*
X362435Y469038D01*
X360774D01*
X359585Y468802D01*
X358577Y468128D01*
X343839Y453390D01*
X341839D01*
X339879Y452578D01*
X338378Y451077D01*
X337566Y449117D01*
Y446995D01*
X338378Y445034D01*
X339879Y443534D01*
X341839Y442722D01*
X343961D01*
X345922Y443534D01*
X347422Y445034D01*
X348234Y446995D01*
Y448995D01*
X362062Y462823D01*
X363723D01*
X364263Y462283D01*
X366223Y461471D01*
X366517D01*
X367003Y460298D01*
X333083Y426377D01*
X332409Y425369D01*
X332172Y424180D01*
Y320524D01*
X330902Y319845D01*
X330768Y319935D01*
Y511588D01*
X332182Y513002D01*
X332994Y514962D01*
Y517084D01*
X332182Y519045D01*
X330681Y520545D01*
X328721Y521357D01*
X326599D01*
X325688Y521966D01*
Y595004D01*
X327102Y596418D01*
X327914Y598379D01*
Y600501D01*
X327102Y602462D01*
X325602Y603962D01*
X323641Y604774D01*
X321519D01*
X319559Y603962D01*
X318058Y602462D01*
X317246Y600501D01*
Y600202D01*
X315976Y599949D01*
X315672Y600684D01*
X314172Y602184D01*
X312211Y602996D01*
X310089D01*
X308129Y602184D01*
X306628Y600684D01*
X305816Y598723D01*
Y598713D01*
X305739Y598597D01*
X305502Y597408D01*
Y297589D01*
X304232Y297063D01*
X297502Y303793D01*
Y349623D01*
X297265Y350812D01*
X296592Y351820D01*
X291122Y357290D01*
X290114Y357963D01*
X288925Y358200D01*
X198772D01*
X196910Y360062D01*
Y406979D01*
X199694Y408132D01*
X202135Y410005D01*
X204008Y412446D01*
X205185Y415288D01*
X205587Y418338D01*
Y420311D01*
X206760Y420797D01*
X223774Y403783D01*
Y401783D01*
X224586Y399823D01*
X226087Y398322D01*
X228047Y397510D01*
X230169D01*
X232129Y398322D01*
X233630Y399823D01*
X234442Y401783D01*
Y403905D01*
X233630Y405866D01*
X232129Y407366D01*
X230169Y408178D01*
X228169D01*
X210118Y426229D01*
Y430022D01*
X209881Y431211D01*
X209207Y432220D01*
X155194Y486233D01*
Y488233D01*
X154382Y490193D01*
X152881Y491694D01*
X150921Y492506D01*
X148799D01*
X146839Y491694D01*
X145338Y490193D01*
X144526Y488233D01*
Y486111D01*
X145338Y484151D01*
X146839Y482650D01*
X148799Y481838D01*
X150799D01*
X196510Y436127D01*
X195917Y434924D01*
X193802Y435203D01*
X190752Y434801D01*
X187910Y433624D01*
X185469Y431751D01*
X183596Y429310D01*
X182419Y426468D01*
X182017Y423418D01*
Y418338D01*
X182419Y415288D01*
X183596Y412446D01*
X185469Y410005D01*
X187910Y408132D01*
X190694Y406979D01*
Y358775D01*
X190931Y357586D01*
X191604Y356577D01*
X193568Y354614D01*
X193082Y353440D01*
X119077D01*
X82102Y390415D01*
Y406654D01*
X103886D01*
Y435102D01*
X82102D01*
Y457004D01*
X94399Y469302D01*
X95073Y470310D01*
X95310Y471500D01*
Y559379D01*
X98094Y560532D01*
X100535Y562405D01*
X102408Y564846D01*
X103585Y567688D01*
X103987Y570738D01*
Y575818D01*
X103585Y578868D01*
X102408Y581710D01*
X100535Y584151D01*
X98094Y586024D01*
X95252Y587201D01*
X92202Y587603D01*
X89152Y587201D01*
X86310Y586024D01*
X83869Y584151D01*
X81996Y581710D01*
X80819Y578868D01*
X80417Y575818D01*
Y570738D01*
X80819Y567688D01*
X81996Y564846D01*
X83869Y562405D01*
X86310Y560532D01*
X89094Y559379D01*
Y480433D01*
X87824Y479726D01*
X86405Y480314D01*
X86360D01*
Y474980D01*
X85344D01*
Y473964D01*
X80010D01*
Y473919D01*
X80822Y471959D01*
X82323Y470458D01*
X84283Y469646D01*
X84294D01*
X84780Y468473D01*
X76796Y460489D01*
X76123Y459481D01*
X75886Y458292D01*
Y389128D01*
X76123Y387939D01*
X76796Y386931D01*
X115592Y348135D01*
X116600Y347461D01*
X117789Y347225D01*
X247888D01*
X261042Y334071D01*
Y321575D01*
X261278Y320385D01*
X261952Y319377D01*
X337252Y244077D01*
Y240504D01*
X336558Y240318D01*
X334313Y239021D01*
X332479Y237187D01*
X332038Y236423D01*
X330768Y236764D01*
Y247142D01*
X330531Y248331D01*
X329857Y249340D01*
X259588Y319609D01*
Y321609D01*
X258776Y323569D01*
X257276Y325070D01*
X255315Y325882D01*
X253193D01*
X251232Y325070D01*
X249732Y323569D01*
X248920Y321609D01*
Y319487D01*
X249732Y317526D01*
X251232Y316026D01*
X253193Y315214D01*
X255193D01*
X324552Y245855D01*
Y236764D01*
X323282Y236423D01*
X322841Y237187D01*
X321007Y239021D01*
X318762Y240318D01*
X316257Y240989D01*
X313663D01*
X311158Y240318D01*
X308913Y239021D01*
X307079Y237187D01*
X305782Y234942D01*
X305368Y233395D01*
X304098Y233562D01*
Y254508D01*
X303861Y255697D01*
X303188Y256705D01*
X240284Y319609D01*
Y321609D01*
X239472Y323569D01*
X237971Y325070D01*
X236011Y325882D01*
X233889D01*
X231929Y325070D01*
X230428Y323569D01*
X229616Y321609D01*
Y319487D01*
X230428Y317526D01*
X231929Y316026D01*
X233889Y315214D01*
X235889D01*
X297882Y253221D01*
Y238542D01*
X296612Y238016D01*
X295607Y239021D01*
X293362Y240318D01*
X290857Y240989D01*
X290576D01*
Y231140D01*
Y221291D01*
X290857D01*
X293362Y221962D01*
X295607Y223259D01*
X296612Y224264D01*
X297882Y223738D01*
Y171196D01*
X298119Y170007D01*
X298792Y168999D01*
X340448Y127343D01*
X341457Y126669D01*
X342646Y126432D01*
X411265D01*
X412068Y125162D01*
X411607Y124048D01*
Y122078D01*
X412361Y120257D01*
X413754Y118864D01*
X415575Y118110D01*
X417545D01*
X419366Y118864D01*
X420457Y119955D01*
X447150D01*
X483941Y83164D01*
X483582Y82542D01*
X482911Y80037D01*
Y77443D01*
X483582Y74938D01*
X484879Y72693D01*
X486713Y70859D01*
X488958Y69562D01*
X491463Y68891D01*
X494057D01*
X496562Y69562D01*
X498807Y70859D01*
X500641Y72693D01*
X501938Y74938D01*
X502352Y76485D01*
X503622Y76318D01*
Y71755D01*
X503859Y70566D01*
X504533Y69557D01*
X507325Y66765D01*
X506839Y65592D01*
X459503D01*
X450779Y74316D01*
X451138Y74938D01*
X451809Y77443D01*
Y80037D01*
X451138Y82542D01*
X449841Y84787D01*
X448007Y86621D01*
X445762Y87918D01*
X443257Y88589D01*
X440663D01*
X438158Y87918D01*
X435913Y86621D01*
X434079Y84787D01*
X432782Y82542D01*
X432111Y80037D01*
Y77443D01*
X432782Y74938D01*
X434079Y72693D01*
X435913Y70859D01*
X438158Y69562D01*
X440663Y68891D01*
X443257D01*
X445762Y69562D01*
X446384Y69921D01*
X454112Y62193D01*
X453626Y61020D01*
X438675D01*
X425379Y74316D01*
X425738Y74938D01*
X426409Y77443D01*
Y80037D01*
X425738Y82542D01*
X424441Y84787D01*
X422607Y86621D01*
X420362Y87918D01*
X417857Y88589D01*
X415263D01*
X412758Y87918D01*
X410513Y86621D01*
X408679Y84787D01*
X407382Y82542D01*
X406711Y80037D01*
Y77443D01*
X407382Y74938D01*
X408679Y72693D01*
X410513Y70859D01*
X412758Y69562D01*
X415263Y68891D01*
X417857D01*
X420362Y69562D01*
X420984Y69921D01*
X432507Y58398D01*
X432021Y57224D01*
X14045D01*
Y742876D01*
X1121336D01*
Y57224D01*
D02*
G37*
G36*
X322998Y513339D02*
X323138Y513002D01*
X324552Y511588D01*
Y318888D01*
X323138Y317474D01*
X322326Y315513D01*
X321116Y315657D01*
Y513510D01*
X321449Y513761D01*
X322998Y513339D01*
D02*
G37*
G36*
X422634Y321771D02*
X417658Y320576D01*
X412930Y318618D01*
X408567Y315944D01*
X404675Y312621D01*
X401352Y308729D01*
X398678Y304366D01*
X398053Y302858D01*
X396808Y303105D01*
Y321674D01*
X398162Y323028D01*
X422517D01*
X422634Y321771D01*
D02*
G37*
G36*
X348931Y291834D02*
Y291115D01*
X349685Y289294D01*
X351078Y287901D01*
X352899Y287147D01*
X354869D01*
X356690Y287901D01*
X358083Y289294D01*
X358133Y289416D01*
X359672Y289812D01*
X360112Y289460D01*
Y281940D01*
X360349Y280751D01*
X361022Y279743D01*
X367091Y273674D01*
X366978Y272428D01*
X365860Y271888D01*
X364281Y272542D01*
X362159D01*
X360199Y271730D01*
X358698Y270229D01*
X357886Y268269D01*
Y267584D01*
X356616Y267058D01*
X332091Y291583D01*
X332421Y293049D01*
X333535Y293510D01*
X334626Y294602D01*
X346163D01*
X348931Y291834D01*
D02*
G37*
G36*
X318058Y596418D02*
X319472Y595004D01*
Y521929D01*
X315811Y518268D01*
X315137Y517259D01*
X314900Y516070D01*
Y301271D01*
X315137Y300082D01*
X315811Y299073D01*
X351105Y263779D01*
X350570Y263244D01*
X349758Y261284D01*
Y261070D01*
X348585Y260584D01*
X311718Y297451D01*
Y592328D01*
X312211D01*
X314172Y593140D01*
X315672Y594641D01*
X316484Y596601D01*
Y596900D01*
X317754Y597153D01*
X318058Y596418D01*
D02*
G37*
G36*
X827980Y615610D02*
Y241081D01*
X826823Y240282D01*
X826762Y240318D01*
X824257Y240989D01*
X821663D01*
X819158Y240318D01*
X816913Y239021D01*
X815079Y237187D01*
X813782Y234942D01*
X813111Y232437D01*
Y229843D01*
X813782Y227338D01*
X815079Y225093D01*
X816027Y224145D01*
X815501Y222875D01*
X805019D01*
X804493Y224145D01*
X805441Y225093D01*
X806738Y227338D01*
X807409Y229843D01*
Y232437D01*
X806738Y234942D01*
X806379Y235564D01*
X823017Y252202D01*
X823691Y253211D01*
X823928Y254400D01*
Y614308D01*
X824110Y614357D01*
X826054Y615479D01*
X826710Y616136D01*
X827980Y615610D01*
D02*
G37*
G36*
X815586Y615479D02*
X817530Y614357D01*
X817712Y614308D01*
Y255687D01*
X801984Y239959D01*
X801362Y240318D01*
X798857Y240989D01*
X796263D01*
X793758Y240318D01*
X791513Y239021D01*
X790508Y238016D01*
X789238Y238542D01*
Y425179D01*
X812638Y448579D01*
X813311Y449587D01*
X813548Y450776D01*
Y615721D01*
X814818Y616247D01*
X815586Y615479D01*
D02*
G37*
G36*
X778196Y470773D02*
Y241571D01*
X776584Y239959D01*
X775962Y240318D01*
X773457Y240989D01*
X770863D01*
X768358Y240318D01*
X766113Y239021D01*
X764279Y237187D01*
X762982Y234942D01*
X762311Y232437D01*
Y229843D01*
X762484Y229199D01*
X761461Y228107D01*
X761238Y228152D01*
X757199D01*
X756426Y229159D01*
X756609Y229843D01*
Y232437D01*
X755938Y234942D01*
X754641Y237187D01*
X752807Y239021D01*
X750562Y240318D01*
X748057Y240989D01*
X745463D01*
X742958Y240318D01*
X740713Y239021D01*
X738879Y237187D01*
X738438Y236423D01*
X737168Y236764D01*
Y240267D01*
X774865Y277964D01*
X775539Y278973D01*
X775776Y280162D01*
Y466472D01*
X775539Y467661D01*
X774865Y468670D01*
X774760Y468775D01*
Y472550D01*
X775933Y473036D01*
X778196Y470773D01*
D02*
G37*
G36*
X399482Y254383D02*
Y238542D01*
X398212Y238016D01*
X397207Y239021D01*
X394962Y240318D01*
X392457Y240989D01*
X389863D01*
X387358Y240318D01*
X386736Y239959D01*
X373345Y253350D01*
Y274923D01*
X373109Y276112D01*
X372435Y277120D01*
X366328Y283227D01*
Y285878D01*
X367501Y286364D01*
X399482Y254383D01*
D02*
G37*
G36*
X633431Y269748D02*
X635431D01*
X653482Y251697D01*
Y238542D01*
X652212Y238016D01*
X651207Y239021D01*
X648962Y240318D01*
X646457Y240989D01*
X643863D01*
X641358Y240318D01*
X639113Y239021D01*
X637279Y237187D01*
X635982Y234942D01*
X635568Y233395D01*
X634298Y233562D01*
Y251714D01*
X634061Y252903D01*
X633387Y253911D01*
X630742Y256557D01*
Y269629D01*
X632012Y270336D01*
X633431Y269748D01*
D02*
G37*
G36*
X604972Y291000D02*
X605421Y290558D01*
X605222Y289560D01*
Y233562D01*
X603952Y233395D01*
X603538Y234942D01*
X602241Y237187D01*
X600407Y239021D01*
X598162Y240318D01*
X595657Y240989D01*
X593063D01*
X590558Y240318D01*
X588313Y239021D01*
X587308Y238016D01*
X586038Y238542D01*
Y272971D01*
X604374Y291307D01*
X604972Y291000D01*
D02*
G37*
G36*
X579822Y272895D02*
Y233562D01*
X578552Y233395D01*
X578138Y234942D01*
X576841Y237187D01*
X575007Y239021D01*
X572762Y240318D01*
X570257Y240989D01*
X567663D01*
X565158Y240318D01*
X562913Y239021D01*
X561079Y237187D01*
X559782Y234942D01*
X559368Y233395D01*
X558098Y233562D01*
Y252967D01*
X578552Y273421D01*
X579822Y272895D01*
D02*
G37*
G36*
X458541Y235564D02*
X458182Y234942D01*
X457511Y232437D01*
Y229843D01*
X458182Y227338D01*
X459479Y225093D01*
X460484Y224088D01*
X459958Y222818D01*
X454677D01*
X450779Y226716D01*
X451138Y227338D01*
X451809Y229843D01*
Y232437D01*
X451138Y234942D01*
X449841Y237187D01*
X448007Y239021D01*
X445762Y240318D01*
X443257Y240989D01*
X440663D01*
X438158Y240318D01*
X435913Y239021D01*
X434908Y238016D01*
X433638Y238542D01*
Y240267D01*
X436262Y242891D01*
X451214D01*
X458541Y235564D01*
D02*
G37*
G36*
X605222Y228718D02*
Y112355D01*
X580789Y87922D01*
X580116Y86914D01*
X579879Y85725D01*
Y80950D01*
X578609Y80782D01*
X578138Y82542D01*
X576841Y84787D01*
X575007Y86621D01*
X572762Y87918D01*
X572068Y88104D01*
Y151130D01*
X571831Y152319D01*
X571157Y153328D01*
X535852Y188633D01*
X534843Y189307D01*
X533654Y189544D01*
X456011D01*
X455957Y190791D01*
X458462Y191462D01*
X460707Y192759D01*
X462541Y194593D01*
X463838Y196839D01*
X464509Y199343D01*
Y199624D01*
X444811D01*
Y199343D01*
X445482Y196839D01*
X446779Y194593D01*
X448332Y193040D01*
X447966Y191870D01*
X447892Y191770D01*
X446741D01*
X444781Y190958D01*
X443280Y189457D01*
X442468Y187497D01*
Y185375D01*
X443280Y183414D01*
X444781Y181914D01*
X446741Y181102D01*
X448863D01*
X450824Y181914D01*
X452238Y183328D01*
X532367D01*
X565852Y149843D01*
Y88104D01*
X565158Y87918D01*
X562913Y86621D01*
X561079Y84787D01*
X559782Y82542D01*
X559111Y80037D01*
Y77443D01*
X559782Y74938D01*
X561079Y72693D01*
X562913Y70859D01*
X565158Y69562D01*
X567663Y68891D01*
X570257D01*
X572762Y69562D01*
X575007Y70859D01*
X576841Y72693D01*
X578138Y74938D01*
X578609Y76698D01*
X579879Y76530D01*
Y67962D01*
X577509Y65592D01*
X528211D01*
X527725Y66765D01*
X531787Y70827D01*
X532461Y71836D01*
X532698Y73025D01*
Y76318D01*
X533968Y76485D01*
X534382Y74938D01*
X535679Y72693D01*
X537513Y70859D01*
X539758Y69562D01*
X542263Y68891D01*
X544857D01*
X547362Y69562D01*
X549607Y70859D01*
X551441Y72693D01*
X552738Y74938D01*
X553409Y77443D01*
Y80037D01*
X552738Y82542D01*
X551441Y84787D01*
X550916Y85313D01*
X551374Y86651D01*
X552136Y86751D01*
X553238Y85648D01*
X555199Y84836D01*
X557321D01*
X559282Y85648D01*
X560782Y87149D01*
X561594Y89109D01*
Y91231D01*
X560782Y93191D01*
X559282Y94692D01*
X557321Y95504D01*
X555199D01*
X553238Y94692D01*
X551824Y93278D01*
X533400D01*
X532211Y93041D01*
X531203Y92367D01*
X527393Y88558D01*
X526719Y87549D01*
X526482Y86360D01*
Y86142D01*
X525212Y85616D01*
X524207Y86621D01*
X521962Y87918D01*
X519457Y88589D01*
X516863D01*
X514358Y87918D01*
X513736Y87559D01*
X420938Y180357D01*
Y193238D01*
X422208Y193764D01*
X423213Y192759D01*
X425458Y191462D01*
X427963Y190791D01*
X428244D01*
Y200640D01*
Y210489D01*
X427963D01*
X425458Y209818D01*
X423213Y208521D01*
X422208Y207516D01*
X420938Y208043D01*
Y210058D01*
X420701Y211247D01*
X420028Y212255D01*
X410461Y221822D01*
X411240Y222839D01*
X412758Y221962D01*
X415263Y221291D01*
X417857D01*
X420362Y221962D01*
X422607Y223259D01*
X424441Y225093D01*
X425738Y227338D01*
X426152Y228885D01*
X427422Y228718D01*
Y217805D01*
X427659Y216616D01*
X428332Y215607D01*
X432714Y211226D01*
X432719Y211094D01*
X431855Y210141D01*
X430557Y210489D01*
X430276D01*
Y201656D01*
X439109D01*
Y201937D01*
X438438Y204442D01*
X437141Y206688D01*
X435307Y208521D01*
X434330Y209086D01*
X434783Y210290D01*
X434975Y210252D01*
X449071D01*
X449411Y208982D01*
X448613Y208521D01*
X446779Y206688D01*
X445482Y204442D01*
X444811Y201937D01*
Y201656D01*
X464509D01*
Y201937D01*
X463838Y204442D01*
X462541Y206688D01*
X460707Y208521D01*
X459909Y208982D01*
X460249Y210252D01*
X576834D01*
X578023Y210489D01*
X579031Y211162D01*
X585127Y217258D01*
X585801Y218267D01*
X586038Y219456D01*
Y223738D01*
X587308Y224264D01*
X588313Y223259D01*
X590558Y221962D01*
X593063Y221291D01*
X595657D01*
X598162Y221962D01*
X600407Y223259D01*
X602241Y225093D01*
X603538Y227338D01*
X603952Y228885D01*
X605222Y228718D01*
D02*
G37*
G36*
X291286Y348336D02*
Y302506D01*
X291523Y301317D01*
X292197Y300308D01*
X356941Y235564D01*
X356582Y234942D01*
X355911Y232437D01*
Y229843D01*
X356582Y227338D01*
X357879Y225093D01*
X359713Y223259D01*
X361958Y221962D01*
X364463Y221291D01*
X367057D01*
X369562Y221962D01*
X371807Y223259D01*
X373641Y225093D01*
X374938Y227338D01*
X375609Y229843D01*
Y232437D01*
X374938Y234942D01*
X373641Y237187D01*
X371807Y239021D01*
X369562Y240318D01*
X367057Y240989D01*
X364463D01*
X361958Y240318D01*
X361336Y239959D01*
X355483Y245812D01*
X356009Y247082D01*
X359410D01*
X360599Y247319D01*
X361608Y247992D01*
X365418Y251803D01*
X365860Y252464D01*
X367130Y252079D01*
Y252062D01*
X367366Y250873D01*
X368040Y249865D01*
X382341Y235564D01*
X381982Y234942D01*
X381311Y232437D01*
Y229843D01*
X381982Y227338D01*
X383279Y225093D01*
X385113Y223259D01*
X387358Y221962D01*
X389863Y221291D01*
X392457D01*
X394962Y221962D01*
X397207Y223259D01*
X398363Y224415D01*
X399666Y224121D01*
X399773Y224028D01*
X400392Y223100D01*
X414722Y208771D01*
Y203062D01*
X413452Y202895D01*
X413038Y204442D01*
X411741Y206688D01*
X409907Y208521D01*
X407662Y209818D01*
X405157Y210489D01*
X402563D01*
X400058Y209818D01*
X397813Y208521D01*
X395979Y206688D01*
X394682Y204442D01*
X394011Y201937D01*
Y199343D01*
X394682Y196839D01*
X395979Y194593D01*
X397813Y192759D01*
X400058Y191462D01*
X402563Y190791D01*
X405157D01*
X407662Y191462D01*
X409907Y192759D01*
X411741Y194593D01*
X413038Y196839D01*
X413452Y198386D01*
X414722Y198218D01*
Y179070D01*
X414959Y177881D01*
X415633Y176873D01*
X458684Y133821D01*
X458198Y132648D01*
X412078D01*
X411826Y133918D01*
X412889Y134358D01*
X414282Y135751D01*
X415036Y137572D01*
Y139542D01*
X414282Y141363D01*
X412889Y142756D01*
X411068Y143510D01*
X409525D01*
X367957Y185077D01*
X366949Y185751D01*
X365760Y185988D01*
X321397D01*
X320306Y187079D01*
X318485Y187833D01*
X316515D01*
X314694Y187079D01*
X313301Y185686D01*
X312547Y183865D01*
Y181895D01*
X313301Y180074D01*
X314694Y178681D01*
X316515Y177927D01*
X318485D01*
X320306Y178681D01*
X321397Y179772D01*
X364473D01*
X405130Y139115D01*
Y137572D01*
X405884Y135751D01*
X407277Y134358D01*
X408340Y133918D01*
X408088Y132648D01*
X343933D01*
X304098Y172483D01*
Y228718D01*
X305368Y228885D01*
X305782Y227338D01*
X307079Y225093D01*
X308913Y223259D01*
X311158Y221962D01*
X313663Y221291D01*
X316257D01*
X318762Y221962D01*
X321007Y223259D01*
X322841Y225093D01*
X323282Y225857D01*
X324552Y225516D01*
Y224536D01*
X324789Y223347D01*
X325462Y222339D01*
X335622Y212178D01*
X336631Y211505D01*
X337820Y211268D01*
X349764D01*
X349931Y209998D01*
X349258Y209818D01*
X347013Y208521D01*
X345179Y206688D01*
X343882Y204442D01*
X343211Y201937D01*
Y199343D01*
X343882Y196839D01*
X345179Y194593D01*
X347013Y192759D01*
X349258Y191462D01*
X351763Y190791D01*
X354357D01*
X356862Y191462D01*
X359107Y192759D01*
X360941Y194593D01*
X362238Y196839D01*
X362909Y199343D01*
Y201937D01*
X362238Y204442D01*
X360941Y206688D01*
X359107Y208521D01*
X356862Y209818D01*
X356189Y209998D01*
X356356Y211268D01*
X375164D01*
X375331Y209998D01*
X374658Y209818D01*
X372413Y208521D01*
X370579Y206688D01*
X369282Y204442D01*
X368611Y201937D01*
Y199343D01*
X369282Y196839D01*
X370579Y194593D01*
X372413Y192759D01*
X374658Y191462D01*
X377163Y190791D01*
X379757D01*
X382262Y191462D01*
X384507Y192759D01*
X386341Y194593D01*
X387638Y196839D01*
X388309Y199343D01*
Y201937D01*
X387638Y204442D01*
X386341Y206688D01*
X384507Y208521D01*
X382262Y209818D01*
X381589Y209998D01*
X381756Y211268D01*
X387486D01*
X388900Y209854D01*
X390861Y209042D01*
X392983D01*
X394944Y209854D01*
X396444Y211355D01*
X397256Y213315D01*
Y215437D01*
X396444Y217397D01*
X394944Y218898D01*
X392983Y219710D01*
X390861D01*
X388900Y218898D01*
X387486Y217484D01*
X339107D01*
X335462Y221128D01*
X336242Y222145D01*
X336558Y221962D01*
X339063Y221291D01*
X341657D01*
X344162Y221962D01*
X346407Y223259D01*
X348241Y225093D01*
X349538Y227338D01*
X350209Y229843D01*
Y232437D01*
X349538Y234942D01*
X348241Y237187D01*
X346407Y239021D01*
X344162Y240318D01*
X343468Y240504D01*
Y245364D01*
X343231Y246553D01*
X342557Y247561D01*
X267257Y322862D01*
Y335358D01*
X267020Y336548D01*
X266347Y337556D01*
X253092Y350811D01*
X253578Y351984D01*
X287638D01*
X291286Y348336D01*
D02*
G37*
G36*
X559782Y227338D02*
X561079Y225093D01*
X562913Y223259D01*
X565158Y221962D01*
X567663Y221291D01*
X570257D01*
X572762Y221962D01*
X575007Y223259D01*
X576841Y225093D01*
X578138Y227338D01*
X578552Y228885D01*
X579822Y228718D01*
Y220743D01*
X575547Y216468D01*
X552186D01*
X551918Y216860D01*
X551698Y217738D01*
X557188Y223228D01*
X557861Y224236D01*
X558098Y225425D01*
Y228718D01*
X559368Y228885D01*
X559782Y227338D01*
D02*
G37*
G36*
X933986Y181644D02*
X933986Y181416D01*
X933697Y180146D01*
X841113D01*
X841082Y180192D01*
X840723Y181416D01*
X841874Y182566D01*
X933147D01*
X933986Y181644D01*
D02*
G37*
G36*
X635982Y227338D02*
X637279Y225093D01*
X639113Y223259D01*
X641358Y221962D01*
X643863Y221291D01*
X646457D01*
X648962Y221962D01*
X651207Y223259D01*
X652212Y224264D01*
X653482Y223738D01*
Y187215D01*
X635978Y169711D01*
X635568Y169097D01*
X634298Y169482D01*
Y228718D01*
X635568Y228885D01*
X635982Y227338D01*
D02*
G37*
G36*
X496187Y89333D02*
X495530Y88194D01*
X494057Y88589D01*
X491463D01*
X488958Y87918D01*
X488336Y87559D01*
X450733Y125162D01*
X450778Y125576D01*
X451167Y126432D01*
X459088D01*
X496187Y89333D01*
D02*
G37*
G36*
X613713Y223259D02*
X615958Y221962D01*
X618463Y221291D01*
X621057D01*
X623562Y221962D01*
X625807Y223259D01*
X626812Y224264D01*
X628082Y223738D01*
Y109815D01*
X606189Y87922D01*
X605516Y86914D01*
X605279Y85725D01*
Y80950D01*
X604009Y80782D01*
X603538Y82542D01*
X602241Y84787D01*
X600407Y86621D01*
X598162Y87918D01*
X595657Y88589D01*
X593063D01*
X591668Y88215D01*
X591011Y89354D01*
X610527Y108871D01*
X611201Y109879D01*
X611438Y111068D01*
Y223738D01*
X612708Y224264D01*
X613713Y223259D01*
D02*
G37*
G36*
X605279Y76530D02*
Y64336D01*
X601963Y61020D01*
X583386D01*
X582900Y62193D01*
X585184Y64478D01*
X585858Y65486D01*
X586095Y66675D01*
Y71281D01*
X587365Y71807D01*
X588313Y70859D01*
X590558Y69562D01*
X593063Y68891D01*
X595657D01*
X598162Y69562D01*
X600407Y70859D01*
X602241Y72693D01*
X603538Y74938D01*
X604009Y76698D01*
X605279Y76530D01*
D02*
G37*
%LPC*%
G36*
X740125Y502793D02*
X738155D01*
X736334Y502039D01*
X735243Y500948D01*
X670179D01*
X668990Y500711D01*
X667981Y500037D01*
X648258Y480314D01*
X646715D01*
X644894Y479560D01*
X643501Y478167D01*
X642747Y476346D01*
Y474376D01*
X643208Y473262D01*
X642405Y471992D01*
X625475D01*
X624286Y471755D01*
X623278Y471082D01*
X618325Y466129D01*
X617651Y465120D01*
X617414Y463931D01*
Y416306D01*
X617651Y415117D01*
X618325Y414109D01*
X623316Y409117D01*
Y407117D01*
X624128Y405157D01*
X625629Y403656D01*
X627589Y402844D01*
X629711D01*
X631671Y403656D01*
X633172Y405157D01*
X633984Y407117D01*
Y409239D01*
X633172Y411199D01*
X631671Y412700D01*
X629711Y413512D01*
X627711D01*
X623630Y417593D01*
Y426601D01*
X624900Y427308D01*
X626319Y426720D01*
X628441D01*
X630401Y427532D01*
X631816Y428946D01*
X646176D01*
Y406654D01*
X669544D01*
Y435102D01*
X658160D01*
X657860Y435162D01*
X631816D01*
X630401Y436576D01*
X628441Y437388D01*
X626319D01*
X624900Y436800D01*
X623630Y437506D01*
Y462644D01*
X626762Y465776D01*
X685174D01*
X686589Y464362D01*
X688549Y463550D01*
X690671D01*
X692632Y464362D01*
X694132Y465863D01*
X694944Y467823D01*
Y469945D01*
X694132Y471906D01*
X692632Y473406D01*
X690671Y474218D01*
X688549D01*
X686589Y473406D01*
X685174Y471992D01*
X652995D01*
X652191Y473262D01*
X652653Y474376D01*
Y475919D01*
X671466Y494732D01*
X735243D01*
X736334Y493641D01*
X738155Y492887D01*
X740125D01*
X741946Y493641D01*
X743339Y495034D01*
X744093Y496855D01*
Y498825D01*
X743339Y500646D01*
X741946Y502039D01*
X740125Y502793D01*
D02*
G37*
G36*
X734060Y435203D02*
X731010Y434801D01*
X728168Y433624D01*
X725727Y431751D01*
X723854Y429310D01*
X722677Y426468D01*
X722275Y423418D01*
Y418338D01*
X722677Y415288D01*
X723854Y412446D01*
X725727Y410005D01*
X728168Y408132D01*
X731010Y406955D01*
X734060Y406553D01*
X737110Y406955D01*
X739952Y408132D01*
X742393Y410005D01*
X744266Y412446D01*
X745443Y415288D01*
X745845Y418338D01*
Y423418D01*
X745443Y426468D01*
X744266Y429310D01*
X742393Y431751D01*
X739952Y433624D01*
X737110Y434801D01*
X734060Y435203D01*
D02*
G37*
G36*
X708660D02*
X705610Y434801D01*
X702768Y433624D01*
X700327Y431751D01*
X698454Y429310D01*
X697277Y426468D01*
X696875Y423418D01*
Y418338D01*
X697277Y415288D01*
X698454Y412446D01*
X700327Y410005D01*
X702768Y408132D01*
X705610Y406955D01*
X708660Y406553D01*
X711710Y406955D01*
X714552Y408132D01*
X716993Y410005D01*
X718866Y412446D01*
X720043Y415288D01*
X720445Y418338D01*
Y423418D01*
X720043Y426468D01*
X718866Y429310D01*
X716993Y431751D01*
X714552Y433624D01*
X711710Y434801D01*
X708660Y435203D01*
D02*
G37*
G36*
X683260D02*
X680210Y434801D01*
X677368Y433624D01*
X674927Y431751D01*
X673054Y429310D01*
X671877Y426468D01*
X671475Y423418D01*
Y418338D01*
X671877Y415288D01*
X673054Y412446D01*
X674927Y410005D01*
X677368Y408132D01*
X680210Y406955D01*
X683260Y406553D01*
X686310Y406955D01*
X689152Y408132D01*
X691593Y410005D01*
X693466Y412446D01*
X694643Y415288D01*
X695045Y418338D01*
Y423418D01*
X694643Y426468D01*
X693466Y429310D01*
X691593Y431751D01*
X689152Y433624D01*
X686310Y434801D01*
X683260Y435203D01*
D02*
G37*
G36*
X745348Y402463D02*
X743378D01*
X741557Y401709D01*
X740466Y400618D01*
X645247D01*
X644156Y401709D01*
X642335Y402463D01*
X640365D01*
X638544Y401709D01*
X637151Y400316D01*
X636397Y398495D01*
Y396525D01*
X637151Y394704D01*
X638544Y393311D01*
X640365Y392557D01*
X642335D01*
X644156Y393311D01*
X645247Y394402D01*
X740466D01*
X741557Y393311D01*
X743378Y392557D01*
X745348D01*
X747169Y393311D01*
X748562Y394704D01*
X749316Y396525D01*
Y398495D01*
X748562Y400316D01*
X747169Y401709D01*
X745348Y402463D01*
D02*
G37*
G36*
X469764Y726304D02*
X460756D01*
Y717296D01*
X469764D01*
Y726304D01*
D02*
G37*
G36*
X458724D02*
X449716D01*
Y717296D01*
X458724D01*
Y726304D01*
D02*
G37*
G36*
X469764Y715264D02*
X460756D01*
Y706256D01*
X469764D01*
Y715264D01*
D02*
G37*
G36*
X458724D02*
X449716D01*
Y706256D01*
X458724D01*
Y715264D01*
D02*
G37*
G36*
X821542Y707024D02*
X821436D01*
Y699516D01*
X828944D01*
Y699622D01*
X828363Y701790D01*
X827241Y703734D01*
X825654Y705321D01*
X823710Y706443D01*
X821542Y707024D01*
D02*
G37*
G36*
X819404D02*
X819298D01*
X817130Y706443D01*
X815186Y705321D01*
X813599Y703734D01*
X812477Y701790D01*
X811896Y699622D01*
Y699516D01*
X819404D01*
Y707024D01*
D02*
G37*
G36*
X689462D02*
X689356D01*
Y699516D01*
X696864D01*
Y699622D01*
X696283Y701790D01*
X695161Y703734D01*
X693574Y705321D01*
X691630Y706443D01*
X689462Y707024D01*
D02*
G37*
G36*
X687324D02*
X687218D01*
X685050Y706443D01*
X683106Y705321D01*
X681519Y703734D01*
X680397Y701790D01*
X679816Y699622D01*
Y699516D01*
X687324D01*
Y707024D01*
D02*
G37*
G36*
X828944Y697484D02*
X821436D01*
Y689976D01*
X821542D01*
X823710Y690557D01*
X825654Y691679D01*
X827241Y693266D01*
X828363Y695210D01*
X828944Y697378D01*
Y697484D01*
D02*
G37*
G36*
X819404D02*
X811896D01*
Y697378D01*
X812477Y695210D01*
X813599Y693266D01*
X815186Y691679D01*
X817130Y690557D01*
X819298Y689976D01*
X819404D01*
Y697484D01*
D02*
G37*
G36*
X696864D02*
X689356D01*
Y689976D01*
X689462D01*
X691630Y690557D01*
X693574Y691679D01*
X695161Y693266D01*
X696283Y695210D01*
X696864Y697378D01*
Y697484D01*
D02*
G37*
G36*
X687324D02*
X679816D01*
Y697378D01*
X680397Y695210D01*
X681519Y693266D01*
X683106Y691679D01*
X685050Y690557D01*
X687218Y689976D01*
X687324D01*
Y697484D01*
D02*
G37*
G36*
X1093828Y715024D02*
X1090573D01*
X1087380Y714389D01*
X1084373Y713143D01*
X1081667Y711335D01*
X1079365Y709033D01*
X1077557Y706327D01*
X1076311Y703320D01*
X1075676Y700127D01*
Y696872D01*
X1076311Y693680D01*
X1077557Y690673D01*
X1079365Y687967D01*
X1081667Y685665D01*
X1084373Y683857D01*
X1087380Y682611D01*
X1090573Y681976D01*
X1093828D01*
X1097020Y682611D01*
X1100027Y683857D01*
X1102733Y685665D01*
X1105035Y687967D01*
X1106843Y690673D01*
X1108089Y693680D01*
X1108724Y696872D01*
Y700127D01*
X1108089Y703320D01*
X1106843Y706327D01*
X1105035Y709033D01*
X1102733Y711335D01*
X1100027Y713143D01*
X1097020Y714389D01*
X1093828Y715024D01*
D02*
G37*
G36*
X44808D02*
X41553D01*
X38360Y714389D01*
X35353Y713143D01*
X32647Y711335D01*
X30345Y709033D01*
X28537Y706327D01*
X27291Y703320D01*
X26656Y700127D01*
Y696872D01*
X27291Y693680D01*
X28537Y690673D01*
X30345Y687967D01*
X32647Y685665D01*
X35353Y683857D01*
X38360Y682611D01*
X41553Y681976D01*
X44808D01*
X48000Y682611D01*
X51007Y683857D01*
X53713Y685665D01*
X56015Y687967D01*
X57823Y690673D01*
X59069Y693680D01*
X59704Y696872D01*
Y700127D01*
X59069Y703320D01*
X57823Y706327D01*
X56015Y709033D01*
X53713Y711335D01*
X51007Y713143D01*
X48000Y714389D01*
X44808Y715024D01*
D02*
G37*
G36*
X469764Y652644D02*
X460756D01*
Y643636D01*
X469764D01*
Y652644D01*
D02*
G37*
G36*
X458724D02*
X449716D01*
Y643636D01*
X458724D01*
Y652644D01*
D02*
G37*
G36*
X469764Y641604D02*
X460756D01*
Y632596D01*
X469764D01*
Y641604D01*
D02*
G37*
G36*
X458724D02*
X449716D01*
Y632596D01*
X458724D01*
Y641604D01*
D02*
G37*
G36*
X712322Y630824D02*
X712216D01*
Y623316D01*
X719724D01*
Y623422D01*
X719143Y625590D01*
X718021Y627534D01*
X716434Y629121D01*
X714490Y630243D01*
X712322Y630824D01*
D02*
G37*
G36*
X846942D02*
X846836D01*
Y623316D01*
X854344D01*
Y623422D01*
X853763Y625590D01*
X852641Y627534D01*
X851054Y629121D01*
X849110Y630243D01*
X846942Y630824D01*
D02*
G37*
G36*
X844804D02*
X844698D01*
X842530Y630243D01*
X840586Y629121D01*
X838999Y627534D01*
X837877Y625590D01*
X837296Y623422D01*
Y623316D01*
X844804D01*
Y630824D01*
D02*
G37*
G36*
X710184D02*
X710078D01*
X707910Y630243D01*
X705966Y629121D01*
X704379Y627534D01*
X703257Y625590D01*
X702676Y623422D01*
Y623316D01*
X710184D01*
Y630824D01*
D02*
G37*
G36*
X287573Y701040D02*
X285451D01*
X283491Y700228D01*
X281990Y698727D01*
X281178Y696767D01*
Y694645D01*
X281990Y692684D01*
X283404Y691270D01*
Y628413D01*
X272973Y617982D01*
X270973D01*
X269554Y617394D01*
X268284Y618101D01*
Y634475D01*
X268555Y634746D01*
X270555D01*
X272516Y635558D01*
X274016Y637058D01*
X274828Y639019D01*
Y641141D01*
X274016Y643102D01*
X272516Y644602D01*
X270555Y645414D01*
X268433D01*
X266472Y644602D01*
X264972Y643102D01*
X264160Y641141D01*
Y639141D01*
X262978Y637960D01*
X262305Y636951D01*
X262068Y635762D01*
Y609219D01*
X262305Y608030D01*
X262978Y607021D01*
X267677Y602323D01*
X268686Y601649D01*
X269875Y601412D01*
X287274D01*
X288463Y601649D01*
X289471Y602323D01*
X301261Y614112D01*
X412124D01*
X413539Y612698D01*
X415499Y611886D01*
X417621D01*
X419581Y612698D01*
X421082Y614198D01*
X421894Y616159D01*
Y618281D01*
X421082Y620242D01*
X419581Y621742D01*
X417621Y622554D01*
X415499D01*
X413539Y621742D01*
X412124Y620328D01*
X299974D01*
X298785Y620091D01*
X297777Y619417D01*
X285987Y607628D01*
X276353D01*
X275827Y608898D01*
X276556Y609627D01*
X277368Y611587D01*
Y613587D01*
X288710Y624929D01*
X289383Y625937D01*
X289620Y627126D01*
Y691270D01*
X291034Y692684D01*
X291846Y694645D01*
Y696767D01*
X291034Y698727D01*
X289534Y700228D01*
X287573Y701040D01*
D02*
G37*
G36*
X486460Y726304D02*
X483820D01*
X481271Y725621D01*
X478985Y724301D01*
X477119Y722435D01*
X475799Y720149D01*
X475116Y717600D01*
Y714960D01*
X475799Y712411D01*
X477119Y710125D01*
X478985Y708259D01*
X481271Y706939D01*
X482032Y706735D01*
Y668020D01*
X482269Y666831D01*
X482943Y665823D01*
X501593Y647172D01*
X501199Y646489D01*
X500516Y643940D01*
Y641300D01*
X501199Y638751D01*
X502519Y636465D01*
X504385Y634599D01*
X506671Y633279D01*
X507432Y633075D01*
Y629977D01*
X507669Y628788D01*
X508343Y627779D01*
X518668Y617454D01*
Y615454D01*
X518789Y615162D01*
X517712Y614443D01*
X494087Y638068D01*
X494481Y638751D01*
X495164Y641300D01*
Y643940D01*
X494481Y646489D01*
X493161Y648775D01*
X491295Y650641D01*
X489009Y651961D01*
X486460Y652644D01*
X483820D01*
X481271Y651961D01*
X478985Y650641D01*
X477119Y648775D01*
X475799Y646489D01*
X475116Y643940D01*
Y641300D01*
X475799Y638751D01*
X477119Y636465D01*
X478985Y634599D01*
X481271Y633279D01*
X483820Y632596D01*
X486460D01*
X489009Y633279D01*
X489692Y633673D01*
X508782Y614583D01*
X508322Y613247D01*
X506757Y612598D01*
X505256Y611097D01*
X504444Y609137D01*
Y607015D01*
X505256Y605055D01*
X506670Y603640D01*
Y292862D01*
X506907Y291673D01*
X507580Y290665D01*
X516382Y281863D01*
Y279863D01*
X517194Y277903D01*
X518694Y276402D01*
X520655Y275590D01*
X522777D01*
X524738Y276402D01*
X526238Y277903D01*
X527050Y279863D01*
Y281985D01*
X526238Y283946D01*
X524738Y285446D01*
X522777Y286258D01*
X520777D01*
X512886Y294149D01*
Y603640D01*
X514300Y605055D01*
X514949Y606620D01*
X516285Y607080D01*
X568900Y554465D01*
Y358004D01*
X567486Y356590D01*
X566674Y354629D01*
Y352507D01*
X567486Y350546D01*
X568987Y349046D01*
X570947Y348234D01*
X573069D01*
X575029Y349046D01*
X576530Y350546D01*
X577342Y352507D01*
Y354629D01*
X576530Y356590D01*
X575116Y358004D01*
Y555752D01*
X574879Y556941D01*
X574206Y557949D01*
X521930Y610225D01*
X522649Y611302D01*
X522941Y611181D01*
X525063D01*
X527024Y611993D01*
X528524Y613493D01*
X529336Y615454D01*
Y617576D01*
X528524Y619536D01*
X527024Y621037D01*
X525063Y621849D01*
X523063D01*
X513648Y631264D01*
Y633075D01*
X514409Y633279D01*
X516695Y634599D01*
X518561Y636465D01*
X519881Y638751D01*
X520564Y641300D01*
Y643940D01*
X519881Y646489D01*
X518561Y648775D01*
X516695Y650641D01*
X514409Y651961D01*
X511860Y652644D01*
X509220D01*
X506671Y651961D01*
X505988Y651567D01*
X488248Y669307D01*
Y706735D01*
X489009Y706939D01*
X491295Y708259D01*
X493161Y710125D01*
X494481Y712411D01*
X495164Y714960D01*
Y717600D01*
X494481Y720149D01*
X493161Y722435D01*
X491295Y724301D01*
X489009Y725621D01*
X486460Y726304D01*
D02*
G37*
G36*
X854344Y621284D02*
X846836D01*
Y613776D01*
X846942D01*
X849110Y614357D01*
X851054Y615479D01*
X852641Y617066D01*
X853763Y619010D01*
X854344Y621178D01*
Y621284D01*
D02*
G37*
G36*
X719724D02*
X712216D01*
Y613776D01*
X712322D01*
X714490Y614357D01*
X716434Y615479D01*
X718021Y617066D01*
X719143Y619010D01*
X719724Y621178D01*
Y621284D01*
D02*
G37*
G36*
X710184D02*
X702676D01*
Y621178D01*
X703257Y619010D01*
X704379Y617066D01*
X705966Y615479D01*
X707910Y614357D01*
X710078Y613776D01*
X710184D01*
Y621284D01*
D02*
G37*
G36*
X511860Y726304D02*
X509220D01*
X506671Y725621D01*
X504385Y724301D01*
X502519Y722435D01*
X501199Y720149D01*
X500516Y717600D01*
Y714960D01*
X501199Y712411D01*
X502519Y710125D01*
X504385Y708259D01*
X506671Y706939D01*
X509220Y706256D01*
X511860D01*
X514409Y706939D01*
X516695Y708259D01*
X518561Y710125D01*
X519881Y712411D01*
X520085Y713172D01*
X644273D01*
X655491Y701954D01*
X655397Y701790D01*
X654816Y699622D01*
Y697378D01*
X655397Y695210D01*
X656519Y693266D01*
X658106Y691679D01*
X660050Y690557D01*
X660232Y690508D01*
Y645160D01*
X660469Y643971D01*
X661142Y642962D01*
X678351Y625754D01*
X678257Y625590D01*
X677676Y623422D01*
Y621178D01*
X678257Y619010D01*
X679379Y617066D01*
X680966Y615479D01*
X682910Y614357D01*
X685078Y613776D01*
X687322D01*
X689490Y614357D01*
X691434Y615479D01*
X693021Y617066D01*
X694143Y619010D01*
X694724Y621178D01*
Y623422D01*
X694143Y625590D01*
X693021Y627534D01*
X691434Y629121D01*
X689490Y630243D01*
X687322Y630824D01*
X685078D01*
X682910Y630243D01*
X682746Y630149D01*
X666448Y646447D01*
Y690508D01*
X666630Y690557D01*
X668574Y691679D01*
X670161Y693266D01*
X671283Y695210D01*
X671864Y697378D01*
Y699622D01*
X671283Y701790D01*
X670161Y703734D01*
X668574Y705321D01*
X666630Y706443D01*
X664462Y707024D01*
X662218D01*
X660050Y706443D01*
X659886Y706349D01*
X647757Y718477D01*
X646749Y719151D01*
X645560Y719388D01*
X520085D01*
X519881Y720149D01*
X518561Y722435D01*
X516695Y724301D01*
X514409Y725621D01*
X511860Y726304D01*
D02*
G37*
G36*
X662322Y630824D02*
X660078D01*
X657910Y630243D01*
X655966Y629121D01*
X654379Y627534D01*
X653257Y625590D01*
X652676Y623422D01*
Y621178D01*
X653257Y619010D01*
X654379Y617066D01*
X655966Y615479D01*
X657910Y614357D01*
X660078Y613776D01*
X662322D01*
X664490Y614357D01*
X666434Y615479D01*
X668021Y617066D01*
X669143Y619010D01*
X669724Y621178D01*
Y623422D01*
X669143Y625590D01*
X668021Y627534D01*
X666434Y629121D01*
X664490Y630243D01*
X662322Y630824D01*
D02*
G37*
G36*
X1041400Y587603D02*
X1038350Y587201D01*
X1035508Y586024D01*
X1033067Y584151D01*
X1031194Y581710D01*
X1030017Y578868D01*
X1029615Y575818D01*
Y570738D01*
X1030017Y567688D01*
X1031194Y564846D01*
X1033067Y562405D01*
X1035508Y560532D01*
X1038350Y559355D01*
X1041400Y558953D01*
X1044450Y559355D01*
X1047292Y560532D01*
X1049733Y562405D01*
X1051606Y564846D01*
X1052783Y567688D01*
X1053185Y570738D01*
Y575818D01*
X1052783Y578868D01*
X1051606Y581710D01*
X1049733Y584151D01*
X1047292Y586024D01*
X1044450Y587201D01*
X1041400Y587603D01*
D02*
G37*
G36*
X1016000D02*
X1012950Y587201D01*
X1010108Y586024D01*
X1007667Y584151D01*
X1005794Y581710D01*
X1004617Y578868D01*
X1004215Y575818D01*
Y570738D01*
X1004617Y567688D01*
X1005794Y564846D01*
X1007667Y562405D01*
X1010108Y560532D01*
X1012950Y559355D01*
X1016000Y558953D01*
X1019050Y559355D01*
X1021892Y560532D01*
X1024333Y562405D01*
X1026206Y564846D01*
X1027383Y567688D01*
X1027785Y570738D01*
Y575818D01*
X1027383Y578868D01*
X1026206Y581710D01*
X1024333Y584151D01*
X1021892Y586024D01*
X1019050Y587201D01*
X1016000Y587603D01*
D02*
G37*
G36*
X990600D02*
X987550Y587201D01*
X984708Y586024D01*
X982267Y584151D01*
X980394Y581710D01*
X979217Y578868D01*
X978815Y575818D01*
Y570738D01*
X979217Y567688D01*
X980394Y564846D01*
X982267Y562405D01*
X984708Y560532D01*
X987550Y559355D01*
X990600Y558953D01*
X993650Y559355D01*
X996492Y560532D01*
X998933Y562405D01*
X1000806Y564846D01*
X1001983Y567688D01*
X1002385Y570738D01*
Y575818D01*
X1001983Y578868D01*
X1000806Y581710D01*
X998933Y584151D01*
X996492Y586024D01*
X993650Y587201D01*
X990600Y587603D01*
D02*
G37*
G36*
X965200D02*
X962150Y587201D01*
X959308Y586024D01*
X956867Y584151D01*
X954994Y581710D01*
X953817Y578868D01*
X953415Y575818D01*
Y570738D01*
X953817Y567688D01*
X954994Y564846D01*
X956867Y562405D01*
X959308Y560532D01*
X962150Y559355D01*
X965200Y558953D01*
X968250Y559355D01*
X971092Y560532D01*
X973533Y562405D01*
X975406Y564846D01*
X976583Y567688D01*
X976985Y570738D01*
Y575818D01*
X976583Y578868D01*
X975406Y581710D01*
X973533Y584151D01*
X971092Y586024D01*
X968250Y587201D01*
X965200Y587603D01*
D02*
G37*
G36*
X939800D02*
X936750Y587201D01*
X933908Y586024D01*
X931467Y584151D01*
X929594Y581710D01*
X928417Y578868D01*
X928015Y575818D01*
Y570738D01*
X928417Y567688D01*
X929594Y564846D01*
X931467Y562405D01*
X933908Y560532D01*
X936750Y559355D01*
X939800Y558953D01*
X942850Y559355D01*
X945692Y560532D01*
X948133Y562405D01*
X950006Y564846D01*
X951183Y567688D01*
X951585Y570738D01*
Y575818D01*
X951183Y578868D01*
X950006Y581710D01*
X948133Y584151D01*
X945692Y586024D01*
X942850Y587201D01*
X939800Y587603D01*
D02*
G37*
G36*
X475742D02*
X472692Y587201D01*
X469850Y586024D01*
X467409Y584151D01*
X465536Y581710D01*
X464359Y578868D01*
X463957Y575818D01*
Y570738D01*
X464359Y567688D01*
X465536Y564846D01*
X467409Y562405D01*
X469850Y560532D01*
X472692Y559355D01*
X475742Y558953D01*
X478792Y559355D01*
X481634Y560532D01*
X484075Y562405D01*
X485948Y564846D01*
X487125Y567688D01*
X487527Y570738D01*
Y575818D01*
X487125Y578868D01*
X485948Y581710D01*
X484075Y584151D01*
X481634Y586024D01*
X478792Y587201D01*
X475742Y587603D01*
D02*
G37*
G36*
X450342D02*
X447292Y587201D01*
X444450Y586024D01*
X442009Y584151D01*
X440136Y581710D01*
X438959Y578868D01*
X438557Y575818D01*
Y570738D01*
X438959Y567688D01*
X440136Y564846D01*
X442009Y562405D01*
X444450Y560532D01*
X447292Y559355D01*
X450342Y558953D01*
X453392Y559355D01*
X456234Y560532D01*
X458675Y562405D01*
X460548Y564846D01*
X461725Y567688D01*
X462127Y570738D01*
Y575818D01*
X461725Y578868D01*
X460548Y581710D01*
X458675Y584151D01*
X456234Y586024D01*
X453392Y587201D01*
X450342Y587603D01*
D02*
G37*
G36*
X424942D02*
X421892Y587201D01*
X419050Y586024D01*
X416609Y584151D01*
X414736Y581710D01*
X413559Y578868D01*
X413157Y575818D01*
Y570738D01*
X413559Y567688D01*
X414736Y564846D01*
X416609Y562405D01*
X419050Y560532D01*
X421892Y559355D01*
X424942Y558953D01*
X427992Y559355D01*
X430834Y560532D01*
X433275Y562405D01*
X435148Y564846D01*
X436325Y567688D01*
X436727Y570738D01*
Y575818D01*
X436325Y578868D01*
X435148Y581710D01*
X433275Y584151D01*
X430834Y586024D01*
X427992Y587201D01*
X424942Y587603D01*
D02*
G37*
G36*
X399542D02*
X396492Y587201D01*
X393650Y586024D01*
X391209Y584151D01*
X389336Y581710D01*
X388159Y578868D01*
X387757Y575818D01*
Y570738D01*
X388159Y567688D01*
X389336Y564846D01*
X391209Y562405D01*
X393650Y560532D01*
X396492Y559355D01*
X399542Y558953D01*
X402592Y559355D01*
X405434Y560532D01*
X407875Y562405D01*
X409748Y564846D01*
X410925Y567688D01*
X411327Y570738D01*
Y575818D01*
X410925Y578868D01*
X409748Y581710D01*
X407875Y584151D01*
X405434Y586024D01*
X402592Y587201D01*
X399542Y587603D01*
D02*
G37*
G36*
X193802D02*
X190752Y587201D01*
X187910Y586024D01*
X185469Y584151D01*
X183596Y581710D01*
X182419Y578868D01*
X182017Y575818D01*
Y570738D01*
X182419Y567688D01*
X183596Y564846D01*
X185469Y562405D01*
X187910Y560532D01*
X190752Y559355D01*
X193802Y558953D01*
X196852Y559355D01*
X199694Y560532D01*
X202135Y562405D01*
X204008Y564846D01*
X205185Y567688D01*
X205587Y570738D01*
Y575818D01*
X205185Y578868D01*
X204008Y581710D01*
X202135Y584151D01*
X199694Y586024D01*
X196852Y587201D01*
X193802Y587603D01*
D02*
G37*
G36*
X168402D02*
X165352Y587201D01*
X162510Y586024D01*
X160069Y584151D01*
X158196Y581710D01*
X157019Y578868D01*
X156617Y575818D01*
Y570738D01*
X157019Y567688D01*
X158196Y564846D01*
X160069Y562405D01*
X162510Y560532D01*
X165352Y559355D01*
X168402Y558953D01*
X171452Y559355D01*
X174294Y560532D01*
X176735Y562405D01*
X178608Y564846D01*
X179785Y567688D01*
X180187Y570738D01*
Y575818D01*
X179785Y578868D01*
X178608Y581710D01*
X176735Y584151D01*
X174294Y586024D01*
X171452Y587201D01*
X168402Y587603D01*
D02*
G37*
G36*
X143002D02*
X139952Y587201D01*
X137110Y586024D01*
X134669Y584151D01*
X132796Y581710D01*
X131619Y578868D01*
X131217Y575818D01*
Y570738D01*
X131619Y567688D01*
X132796Y564846D01*
X134669Y562405D01*
X137110Y560532D01*
X139952Y559355D01*
X143002Y558953D01*
X146052Y559355D01*
X148894Y560532D01*
X151335Y562405D01*
X153208Y564846D01*
X154385Y567688D01*
X154787Y570738D01*
Y575818D01*
X154385Y578868D01*
X153208Y581710D01*
X151335Y584151D01*
X148894Y586024D01*
X146052Y587201D01*
X143002Y587603D01*
D02*
G37*
G36*
X117602D02*
X114552Y587201D01*
X111710Y586024D01*
X109269Y584151D01*
X107396Y581710D01*
X106219Y578868D01*
X105817Y575818D01*
Y570738D01*
X106219Y567688D01*
X107396Y564846D01*
X109269Y562405D01*
X111710Y560532D01*
X114552Y559355D01*
X117602Y558953D01*
X120652Y559355D01*
X123494Y560532D01*
X125935Y562405D01*
X127808Y564846D01*
X128985Y567688D01*
X129387Y570738D01*
Y575818D01*
X128985Y578868D01*
X127808Y581710D01*
X125935Y584151D01*
X123494Y586024D01*
X120652Y587201D01*
X117602Y587603D01*
D02*
G37*
G36*
X444037Y496824D02*
X443992D01*
Y492506D01*
X448310D01*
Y492551D01*
X447498Y494511D01*
X445998Y496012D01*
X444037Y496824D01*
D02*
G37*
G36*
X441960D02*
X441915D01*
X439954Y496012D01*
X438454Y494511D01*
X437642Y492551D01*
Y492506D01*
X441960D01*
Y496824D01*
D02*
G37*
G36*
X784143Y492252D02*
X784098D01*
Y487934D01*
X788416D01*
Y487979D01*
X787604Y489939D01*
X786104Y491440D01*
X784143Y492252D01*
D02*
G37*
G36*
X448310Y490474D02*
X443992D01*
Y486156D01*
X444037D01*
X445998Y486968D01*
X447498Y488469D01*
X448310Y490429D01*
Y490474D01*
D02*
G37*
G36*
X441960D02*
X437642D01*
Y490429D01*
X438454Y488469D01*
X439954Y486968D01*
X441915Y486156D01*
X441960D01*
Y490474D01*
D02*
G37*
G36*
X788416Y485902D02*
X784098D01*
Y481584D01*
X784143D01*
X786104Y482396D01*
X787604Y483896D01*
X788416Y485857D01*
Y485902D01*
D02*
G37*
G36*
X84328Y480314D02*
X84283D01*
X82323Y479502D01*
X80822Y478002D01*
X80010Y476041D01*
Y475996D01*
X84328D01*
Y480314D01*
D02*
G37*
G36*
X1060704Y466404D02*
X1019175D01*
X1017986Y466167D01*
X1016977Y465494D01*
X1013802Y462318D01*
X1013129Y461310D01*
X1012892Y460121D01*
Y434777D01*
X1010108Y433624D01*
X1007667Y431751D01*
X1005794Y429310D01*
X1004617Y426468D01*
X1004215Y423418D01*
Y418338D01*
X1004617Y415288D01*
X1005794Y412446D01*
X1007667Y410005D01*
X1010108Y408132D01*
X1012950Y406955D01*
X1016000Y406553D01*
X1019050Y406955D01*
X1021892Y408132D01*
X1024333Y410005D01*
X1026206Y412446D01*
X1027383Y415288D01*
X1027785Y418338D01*
Y423418D01*
X1027383Y426468D01*
X1026206Y429310D01*
X1024333Y431751D01*
X1021892Y433624D01*
X1019108Y434777D01*
Y458834D01*
X1020462Y460188D01*
X1059417D01*
X1064006Y455599D01*
Y453599D01*
X1064818Y451638D01*
X1066319Y450138D01*
X1068279Y449326D01*
X1070401D01*
X1072362Y450138D01*
X1073862Y451638D01*
X1074674Y453599D01*
Y455721D01*
X1073862Y457682D01*
X1072362Y459182D01*
X1070401Y459994D01*
X1068401D01*
X1062902Y465494D01*
X1061893Y466167D01*
X1060704Y466404D01*
D02*
G37*
G36*
X196641Y515874D02*
X194519D01*
X192558Y515062D01*
X191058Y513562D01*
X190246Y511601D01*
Y509479D01*
X191058Y507519D01*
X192558Y506018D01*
X194519Y505206D01*
X196519D01*
X243668Y458058D01*
Y454665D01*
X243128Y454126D01*
X242316Y452165D01*
Y450043D01*
X243128Y448083D01*
X244629Y446582D01*
X246589Y445770D01*
X248711D01*
X250672Y446582D01*
X252172Y448083D01*
X252984Y450043D01*
Y452165D01*
X252172Y454126D01*
X250672Y455626D01*
X249883Y455953D01*
Y459345D01*
X249646Y460534D01*
X248973Y461542D01*
X200914Y509601D01*
Y511601D01*
X200102Y513562D01*
X198601Y515062D01*
X196641Y515874D01*
D02*
G37*
G36*
X909873Y444500D02*
X907751D01*
X905790Y443688D01*
X904290Y442188D01*
X903478Y440227D01*
Y438105D01*
X904290Y436144D01*
X905790Y434644D01*
X907751Y433832D01*
X909873D01*
X911833Y434644D01*
X913248Y436058D01*
X927359D01*
X928116Y435102D01*
Y406654D01*
X951484D01*
Y435102D01*
X942908D01*
Y435991D01*
X942671Y437180D01*
X941998Y438189D01*
X938822Y441363D01*
X937814Y442037D01*
X936625Y442274D01*
X913248D01*
X911833Y443688D01*
X909873Y444500D01*
D02*
G37*
G36*
X990600Y435203D02*
X987550Y434801D01*
X984708Y433624D01*
X982267Y431751D01*
X980394Y429310D01*
X979217Y426468D01*
X978815Y423418D01*
Y418338D01*
X979217Y415288D01*
X980394Y412446D01*
X982267Y410005D01*
X984708Y408132D01*
X987550Y406955D01*
X990600Y406553D01*
X993650Y406955D01*
X996492Y408132D01*
X998933Y410005D01*
X1000806Y412446D01*
X1001983Y415288D01*
X1002385Y418338D01*
Y423418D01*
X1001983Y426468D01*
X1000806Y429310D01*
X998933Y431751D01*
X996492Y433624D01*
X993650Y434801D01*
X990600Y435203D01*
D02*
G37*
G36*
X965200D02*
X962150Y434801D01*
X959308Y433624D01*
X956867Y431751D01*
X954994Y429310D01*
X953817Y426468D01*
X953415Y423418D01*
Y418338D01*
X953817Y415288D01*
X954994Y412446D01*
X956867Y410005D01*
X959308Y408132D01*
X962150Y406955D01*
X965200Y406553D01*
X968250Y406955D01*
X971092Y408132D01*
X973533Y410005D01*
X975406Y412446D01*
X976583Y415288D01*
X976985Y418338D01*
Y423418D01*
X976583Y426468D01*
X975406Y429310D01*
X973533Y431751D01*
X971092Y433624D01*
X968250Y434801D01*
X965200Y435203D01*
D02*
G37*
G36*
X450342D02*
X447292Y434801D01*
X444450Y433624D01*
X442009Y431751D01*
X440136Y429310D01*
X438959Y426468D01*
X438557Y423418D01*
Y418338D01*
X438959Y415288D01*
X440136Y412446D01*
X442009Y410005D01*
X444450Y408132D01*
X447292Y406955D01*
X450342Y406553D01*
X453392Y406955D01*
X456234Y408132D01*
X458675Y410005D01*
X460548Y412446D01*
X461725Y415288D01*
X462127Y418338D01*
Y423418D01*
X461725Y426468D01*
X460548Y429310D01*
X458675Y431751D01*
X456234Y433624D01*
X453392Y434801D01*
X450342Y435203D01*
D02*
G37*
G36*
X424942D02*
X421892Y434801D01*
X419050Y433624D01*
X416609Y431751D01*
X414736Y429310D01*
X413559Y426468D01*
X413157Y423418D01*
Y418338D01*
X413559Y415288D01*
X414736Y412446D01*
X416609Y410005D01*
X419050Y408132D01*
X421892Y406955D01*
X424942Y406553D01*
X427992Y406955D01*
X430834Y408132D01*
X433275Y410005D01*
X435148Y412446D01*
X436325Y415288D01*
X436727Y418338D01*
Y423418D01*
X436325Y426468D01*
X435148Y429310D01*
X433275Y431751D01*
X430834Y433624D01*
X427992Y434801D01*
X424942Y435203D01*
D02*
G37*
G36*
X399542D02*
X396492Y434801D01*
X393650Y433624D01*
X391209Y431751D01*
X389336Y429310D01*
X388159Y426468D01*
X387757Y423418D01*
Y418338D01*
X388159Y415288D01*
X389336Y412446D01*
X391209Y410005D01*
X393650Y408132D01*
X396492Y406955D01*
X399542Y406553D01*
X402592Y406955D01*
X405434Y408132D01*
X407875Y410005D01*
X409748Y412446D01*
X410925Y415288D01*
X411327Y418338D01*
Y423418D01*
X410925Y426468D01*
X409748Y429310D01*
X407875Y431751D01*
X405434Y433624D01*
X402592Y434801D01*
X399542Y435203D01*
D02*
G37*
G36*
X168402D02*
X165352Y434801D01*
X162510Y433624D01*
X160069Y431751D01*
X158196Y429310D01*
X157019Y426468D01*
X156617Y423418D01*
Y418338D01*
X157019Y415288D01*
X158196Y412446D01*
X160069Y410005D01*
X162510Y408132D01*
X165352Y406955D01*
X168402Y406553D01*
X171452Y406955D01*
X174294Y408132D01*
X176735Y410005D01*
X178608Y412446D01*
X179785Y415288D01*
X180187Y418338D01*
Y423418D01*
X179785Y426468D01*
X178608Y429310D01*
X176735Y431751D01*
X174294Y433624D01*
X171452Y434801D01*
X168402Y435203D01*
D02*
G37*
G36*
X143002D02*
X139952Y434801D01*
X137110Y433624D01*
X134669Y431751D01*
X132796Y429310D01*
X131619Y426468D01*
X131217Y423418D01*
Y418338D01*
X131619Y415288D01*
X132796Y412446D01*
X134669Y410005D01*
X137110Y408132D01*
X139952Y406955D01*
X143002Y406553D01*
X146052Y406955D01*
X148894Y408132D01*
X151335Y410005D01*
X153208Y412446D01*
X154385Y415288D01*
X154787Y418338D01*
Y423418D01*
X154385Y426468D01*
X153208Y429310D01*
X151335Y431751D01*
X148894Y433624D01*
X146052Y434801D01*
X143002Y435203D01*
D02*
G37*
G36*
X117602D02*
X114552Y434801D01*
X111710Y433624D01*
X109269Y431751D01*
X107396Y429310D01*
X106219Y426468D01*
X105817Y423418D01*
Y418338D01*
X106219Y415288D01*
X107396Y412446D01*
X109269Y410005D01*
X111710Y408132D01*
X114552Y406955D01*
X117602Y406553D01*
X120652Y406955D01*
X123494Y408132D01*
X125935Y410005D01*
X127808Y412446D01*
X128985Y415288D01*
X129387Y418338D01*
Y423418D01*
X128985Y426468D01*
X127808Y429310D01*
X125935Y431751D01*
X123494Y433624D01*
X120652Y434801D01*
X117602Y435203D01*
D02*
G37*
G36*
X889985Y426593D02*
X888015D01*
X886194Y425839D01*
X884801Y424446D01*
X884047Y422625D01*
Y420655D01*
X884801Y418834D01*
X885892Y417743D01*
Y411353D01*
X886129Y410164D01*
X886803Y409156D01*
X903097Y392861D01*
Y391318D01*
X903851Y389497D01*
X905244Y388104D01*
X907065Y387350D01*
X909035D01*
X910856Y388104D01*
X912249Y389497D01*
X913003Y391318D01*
Y393288D01*
X912249Y395109D01*
X910856Y396502D01*
X909035Y397256D01*
X907492D01*
X892108Y412640D01*
Y417743D01*
X893199Y418834D01*
X893953Y420655D01*
Y422625D01*
X893199Y424446D01*
X891806Y425839D01*
X889985Y426593D01*
D02*
G37*
G36*
X1093828Y354344D02*
X1090573D01*
X1087380Y353709D01*
X1084373Y352463D01*
X1081667Y350655D01*
X1079365Y348353D01*
X1077557Y345647D01*
X1076311Y342640D01*
X1075676Y339448D01*
Y336193D01*
X1076311Y333000D01*
X1077557Y329993D01*
X1079365Y327287D01*
X1081667Y324985D01*
X1084373Y323177D01*
X1087380Y321931D01*
X1090573Y321296D01*
X1093828D01*
X1097020Y321931D01*
X1100027Y323177D01*
X1102733Y324985D01*
X1105035Y327287D01*
X1106843Y329993D01*
X1108089Y333000D01*
X1108724Y336193D01*
Y339448D01*
X1108089Y342640D01*
X1106843Y345647D01*
X1105035Y348353D01*
X1102733Y350655D01*
X1100027Y352463D01*
X1097020Y353709D01*
X1093828Y354344D01*
D02*
G37*
G36*
X47347D02*
X44092D01*
X40900Y353709D01*
X37893Y352463D01*
X35187Y350655D01*
X32885Y348353D01*
X31077Y345647D01*
X29831Y342640D01*
X29196Y339448D01*
Y336193D01*
X29831Y333000D01*
X31077Y329993D01*
X32885Y327287D01*
X35187Y324985D01*
X37893Y323177D01*
X40900Y321931D01*
X44092Y321296D01*
X47347D01*
X50540Y321931D01*
X53547Y323177D01*
X56253Y324985D01*
X58555Y327287D01*
X60363Y329993D01*
X61609Y333000D01*
X62244Y336193D01*
Y339448D01*
X61609Y342640D01*
X60363Y345647D01*
X58555Y348353D01*
X56253Y350655D01*
X53547Y352463D01*
X50540Y353709D01*
X47347Y354344D01*
D02*
G37*
G36*
X993902Y322173D02*
X992378D01*
X991101Y322072D01*
X990581D01*
X990068Y321991D01*
X987276Y321771D01*
X982300Y320576D01*
X977572Y318618D01*
X973209Y315944D01*
X969317Y312621D01*
X965994Y308729D01*
X963320Y304366D01*
X961362Y299638D01*
X960167Y294662D01*
X959765Y289560D01*
X960167Y284458D01*
X961362Y279482D01*
X963320Y274754D01*
X965994Y270391D01*
X969317Y266500D01*
X973209Y263176D01*
X977572Y260502D01*
X982300Y258544D01*
X987276Y257349D01*
X990068Y257129D01*
X990581Y257048D01*
X991101D01*
X992378Y256947D01*
X993902D01*
X995179Y257048D01*
X995699D01*
X996212Y257129D01*
X999004Y257349D01*
X1003980Y258544D01*
X1008708Y260502D01*
X1013071Y263176D01*
X1016963Y266500D01*
X1020286Y270391D01*
X1022960Y274754D01*
X1024918Y279482D01*
X1026113Y284458D01*
X1026515Y289560D01*
X1026113Y294662D01*
X1024918Y299638D01*
X1022960Y304366D01*
X1020286Y308729D01*
X1016963Y312621D01*
X1013071Y315944D01*
X1008708Y318618D01*
X1003980Y320576D01*
X999004Y321771D01*
X996212Y321991D01*
X995699Y322072D01*
X995179D01*
X993902Y322173D01*
D02*
G37*
G36*
X693465Y331978D02*
X691343D01*
X689382Y331166D01*
X687882Y329665D01*
X687070Y327705D01*
Y325705D01*
X676745Y315380D01*
X676071Y314371D01*
X675834Y313182D01*
Y248158D01*
X676071Y246969D01*
X676745Y245961D01*
X687141Y235564D01*
X686782Y234942D01*
X686111Y232437D01*
Y229843D01*
X686782Y227338D01*
X688079Y225093D01*
X689913Y223259D01*
X692158Y221962D01*
X694663Y221291D01*
X697257D01*
X699762Y221962D01*
X702007Y223259D01*
X703841Y225093D01*
X705138Y227338D01*
X705809Y229843D01*
Y232437D01*
X705138Y234942D01*
X703841Y237187D01*
X702007Y239021D01*
X699762Y240318D01*
X697257Y240989D01*
X694663D01*
X692158Y240318D01*
X691536Y239959D01*
X682050Y249445D01*
Y276015D01*
X683295Y276262D01*
X683920Y274754D01*
X686594Y270391D01*
X689918Y266500D01*
X693809Y263176D01*
X698172Y260502D01*
X702900Y258544D01*
X707876Y257349D01*
X710668Y257129D01*
X711181Y257048D01*
X711701D01*
X712978Y256947D01*
X714502D01*
X715779Y257048D01*
X716299D01*
X716812Y257129D01*
X719604Y257349D01*
X724580Y258544D01*
X729308Y260502D01*
X733671Y263176D01*
X737562Y266500D01*
X740886Y270391D01*
X743560Y274754D01*
X745518Y279482D01*
X746713Y284458D01*
X747114Y289560D01*
X746713Y294662D01*
X745518Y299638D01*
X743560Y304366D01*
X740886Y308729D01*
X737562Y312621D01*
X733671Y315944D01*
X729308Y318618D01*
X724580Y320576D01*
X719604Y321771D01*
X716812Y321991D01*
X716299Y322072D01*
X715779D01*
X714502Y322173D01*
X712978D01*
X711701Y322072D01*
X711181D01*
X710668Y321991D01*
X707876Y321771D01*
X702900Y320576D01*
X698172Y318618D01*
X693809Y315944D01*
X689918Y312621D01*
X686594Y308729D01*
X683920Y304366D01*
X683295Y302858D01*
X682050Y303105D01*
Y311895D01*
X691465Y321310D01*
X693465D01*
X695425Y322122D01*
X696926Y323623D01*
X697738Y325583D01*
Y327705D01*
X696926Y329665D01*
X695425Y331166D01*
X693465Y331978D01*
D02*
G37*
G36*
X145542Y322173D02*
X144018D01*
X142741Y322072D01*
X142221D01*
X141708Y321991D01*
X138916Y321771D01*
X133940Y320576D01*
X129212Y318618D01*
X124849Y315944D01*
X120957Y312621D01*
X117634Y308729D01*
X114960Y304366D01*
X113002Y299638D01*
X111807Y294662D01*
X111405Y289560D01*
X111807Y284458D01*
X113002Y279482D01*
X114960Y274754D01*
X117634Y270391D01*
X120957Y266500D01*
X124849Y263176D01*
X129212Y260502D01*
X133940Y258544D01*
X138916Y257349D01*
X141708Y257129D01*
X142221Y257048D01*
X142741D01*
X144018Y256947D01*
X145542D01*
X146819Y257048D01*
X147339D01*
X147852Y257129D01*
X150644Y257349D01*
X155620Y258544D01*
X160348Y260502D01*
X164711Y263176D01*
X168603Y266500D01*
X171926Y270391D01*
X174600Y274754D01*
X176558Y279482D01*
X177753Y284458D01*
X178155Y289560D01*
X177753Y294662D01*
X176558Y299638D01*
X174600Y304366D01*
X171926Y308729D01*
X168603Y312621D01*
X164711Y315944D01*
X160348Y318618D01*
X155620Y320576D01*
X150644Y321771D01*
X147852Y321991D01*
X147339Y322072D01*
X146819D01*
X145542Y322173D01*
D02*
G37*
G36*
X941494Y231644D02*
X941387D01*
X939220Y231063D01*
X937276Y229941D01*
X935689Y228354D01*
X934567Y226410D01*
X933986Y224242D01*
Y224136D01*
X941494D01*
Y231644D01*
D02*
G37*
G36*
X1055491Y230054D02*
X1055286D01*
Y221796D01*
X1063544D01*
Y222001D01*
X1062912Y224359D01*
X1061691Y226474D01*
X1059964Y228201D01*
X1057849Y229422D01*
X1055491Y230054D01*
D02*
G37*
G36*
X875057Y240989D02*
X872463D01*
X869958Y240318D01*
X867713Y239021D01*
X865879Y237187D01*
X864582Y234942D01*
X863911Y232437D01*
Y229843D01*
X864582Y227338D01*
X865879Y225093D01*
X867713Y223259D01*
X869958Y221962D01*
X872463Y221291D01*
X875057D01*
X877562Y221962D01*
X879807Y223259D01*
X881641Y225093D01*
X882938Y227338D01*
X883609Y229843D01*
Y232437D01*
X882938Y234942D01*
X881641Y237187D01*
X879807Y239021D01*
X877562Y240318D01*
X875057Y240989D01*
D02*
G37*
G36*
X270225Y271653D02*
X268255D01*
X266434Y270899D01*
X265041Y269506D01*
X264287Y267685D01*
Y265715D01*
X265041Y263894D01*
X266132Y262803D01*
Y196937D01*
X265041Y195846D01*
X264287Y194025D01*
Y192055D01*
X265041Y190234D01*
X266434Y188841D01*
X268255Y188087D01*
X270225D01*
X272046Y188841D01*
X273439Y190234D01*
X273752Y190991D01*
X275022Y190738D01*
Y180594D01*
X275259Y179405D01*
X275933Y178396D01*
X351624Y102704D01*
X352633Y102031D01*
X353822Y101794D01*
X439911D01*
X458541Y83164D01*
X458182Y82542D01*
X457511Y80037D01*
Y77443D01*
X458182Y74938D01*
X459479Y72693D01*
X461313Y70859D01*
X463558Y69562D01*
X466063Y68891D01*
X468657D01*
X471162Y69562D01*
X473407Y70859D01*
X475241Y72693D01*
X476538Y74938D01*
X477209Y77443D01*
Y80037D01*
X476538Y82542D01*
X475241Y84787D01*
X473407Y86621D01*
X471162Y87918D01*
X468657Y88589D01*
X466063D01*
X463558Y87918D01*
X462936Y87559D01*
X443396Y107100D01*
X442387Y107773D01*
X441198Y108010D01*
X355109D01*
X281238Y181881D01*
Y223738D01*
X282508Y224264D01*
X283513Y223259D01*
X285758Y221962D01*
X288263Y221291D01*
X288544D01*
Y231140D01*
Y240989D01*
X288263D01*
X285758Y240318D01*
X283513Y239021D01*
X282508Y238016D01*
X281238Y238542D01*
Y252866D01*
X282652Y254280D01*
X283464Y256241D01*
Y258363D01*
X282652Y260324D01*
X281152Y261824D01*
X279191Y262636D01*
X277069D01*
X275109Y261824D01*
X273618Y260333D01*
X273561Y260334D01*
X272348Y260599D01*
Y262803D01*
X273439Y263894D01*
X274193Y265715D01*
Y267685D01*
X273439Y269506D01*
X272046Y270899D01*
X270225Y271653D01*
D02*
G37*
G36*
X941494Y222104D02*
X933986D01*
Y221998D01*
X934567Y219830D01*
X935689Y217886D01*
X937276Y216299D01*
X939220Y215177D01*
X941387Y214596D01*
X941494D01*
Y222104D01*
D02*
G37*
G36*
X1063544Y219764D02*
X1055286D01*
Y211506D01*
X1055491D01*
X1057849Y212138D01*
X1059964Y213359D01*
X1061691Y215086D01*
X1062912Y217200D01*
X1063544Y219559D01*
Y219764D01*
D02*
G37*
G36*
X67694Y229854D02*
X49146D01*
Y211306D01*
X67694D01*
Y229854D01*
D02*
G37*
G36*
X151514Y227314D02*
X132966D01*
Y208766D01*
X151514D01*
Y227314D01*
D02*
G37*
G36*
X836984Y208934D02*
X831476D01*
Y201676D01*
X836984D01*
Y208934D01*
D02*
G37*
G36*
X829444D02*
X823936D01*
Y201676D01*
X829444D01*
Y208934D01*
D02*
G37*
G36*
X59641Y204854D02*
X59436D01*
Y196596D01*
X67694D01*
Y196801D01*
X67062Y199160D01*
X65841Y201274D01*
X64114Y203001D01*
X62000Y204222D01*
X59641Y204854D01*
D02*
G37*
G36*
X57404D02*
X57199D01*
X54840Y204222D01*
X52726Y203001D01*
X50999Y201274D01*
X49778Y199160D01*
X49146Y196801D01*
Y196596D01*
X57404D01*
Y204854D01*
D02*
G37*
G36*
X143461Y202314D02*
X143256D01*
Y194056D01*
X151514D01*
Y194261D01*
X150882Y196620D01*
X149661Y198734D01*
X147934Y200461D01*
X145820Y201682D01*
X143461Y202314D01*
D02*
G37*
G36*
X141224D02*
X141019D01*
X138660Y201682D01*
X136546Y200461D01*
X134819Y198734D01*
X133598Y196620D01*
X132966Y194261D01*
Y194056D01*
X141224D01*
Y202314D01*
D02*
G37*
G36*
X836984Y199644D02*
X831476D01*
Y192386D01*
X836984D01*
Y199644D01*
D02*
G37*
G36*
X829444D02*
X823936D01*
Y192386D01*
X829444D01*
Y199644D01*
D02*
G37*
G36*
X219491Y199974D02*
X219286D01*
Y191716D01*
X227544D01*
Y191921D01*
X226912Y194280D01*
X225691Y196395D01*
X223964Y198121D01*
X221849Y199342D01*
X219491Y199974D01*
D02*
G37*
G36*
X217254D02*
X217049D01*
X214690Y199342D01*
X212575Y198121D01*
X210849Y196395D01*
X209628Y194280D01*
X208996Y191921D01*
Y191716D01*
X217254D01*
Y199974D01*
D02*
G37*
G36*
X765601Y211074D02*
X763479D01*
X761518Y210262D01*
X760018Y208762D01*
X759206Y206801D01*
Y204679D01*
X760018Y202719D01*
X760670Y202066D01*
Y198645D01*
X751184Y189159D01*
X750562Y189518D01*
X748057Y190189D01*
X745463D01*
X742958Y189518D01*
X740713Y188221D01*
X738879Y186387D01*
X737582Y184142D01*
X736911Y181637D01*
Y179043D01*
X737582Y176538D01*
X738879Y174293D01*
X740713Y172459D01*
X742958Y171162D01*
X745463Y170491D01*
X748057D01*
X750562Y171162D01*
X752807Y172459D01*
X754641Y174293D01*
X755938Y176538D01*
X756609Y179043D01*
Y181637D01*
X755938Y184142D01*
X755579Y184764D01*
X765975Y195161D01*
X766649Y196169D01*
X766886Y197358D01*
Y200938D01*
X767561Y201218D01*
X769062Y202719D01*
X769874Y204679D01*
Y206801D01*
X769062Y208762D01*
X767561Y210262D01*
X765601Y211074D01*
D02*
G37*
G36*
X67694Y194564D02*
X59436D01*
Y186306D01*
X59641D01*
X62000Y186938D01*
X64114Y188159D01*
X65841Y189886D01*
X67062Y192000D01*
X67694Y194359D01*
Y194564D01*
D02*
G37*
G36*
X57404D02*
X49146D01*
Y194359D01*
X49778Y192000D01*
X50999Y189886D01*
X52726Y188159D01*
X54840Y186938D01*
X57199Y186306D01*
X57404D01*
Y194564D01*
D02*
G37*
G36*
X151514Y192024D02*
X143256D01*
Y183766D01*
X143461D01*
X145820Y184398D01*
X147934Y185619D01*
X149661Y187346D01*
X150882Y189460D01*
X151514Y191819D01*
Y192024D01*
D02*
G37*
G36*
X141224D02*
X132966D01*
Y191819D01*
X133598Y189460D01*
X134819Y187346D01*
X136546Y185619D01*
X138660Y184398D01*
X141019Y183766D01*
X141224D01*
Y192024D01*
D02*
G37*
G36*
X227544Y189684D02*
X219286D01*
Y181426D01*
X219491D01*
X221849Y182058D01*
X223964Y183279D01*
X225691Y185006D01*
X226912Y187120D01*
X227544Y189479D01*
Y189684D01*
D02*
G37*
G36*
X217254D02*
X208996D01*
Y189479D01*
X209628Y187120D01*
X210849Y185006D01*
X212575Y183279D01*
X214690Y182058D01*
X217049Y181426D01*
X217254D01*
Y189684D01*
D02*
G37*
G36*
X656884Y163214D02*
X651376D01*
Y155956D01*
X656884D01*
Y163214D01*
D02*
G37*
G36*
X748057Y164789D02*
X747776D01*
Y155956D01*
X756609D01*
Y156237D01*
X755938Y158742D01*
X754641Y160987D01*
X752807Y162821D01*
X750562Y164118D01*
X748057Y164789D01*
D02*
G37*
G36*
X745744D02*
X745463D01*
X742958Y164118D01*
X740713Y162821D01*
X738879Y160987D01*
X737582Y158742D01*
X736911Y156237D01*
Y155956D01*
X745744D01*
Y164789D01*
D02*
G37*
G36*
X649344Y163214D02*
X643836D01*
Y155956D01*
X649344D01*
Y163214D01*
D02*
G37*
G36*
X656884Y153924D02*
X651376D01*
Y146666D01*
X656884D01*
Y153924D01*
D02*
G37*
G36*
X649344D02*
X643836D01*
Y146666D01*
X649344D01*
Y153924D01*
D02*
G37*
G36*
X756609D02*
X747776D01*
Y145091D01*
X748057D01*
X750562Y145762D01*
X752807Y147059D01*
X754641Y148893D01*
X755938Y151138D01*
X756609Y153643D01*
Y153924D01*
D02*
G37*
G36*
X745744D02*
X736911D01*
Y153643D01*
X737582Y151138D01*
X738879Y148893D01*
X740713Y147059D01*
X742958Y145762D01*
X745463Y145091D01*
X745744D01*
Y153924D01*
D02*
G37*
G36*
X1055491Y130994D02*
X1055286D01*
Y122736D01*
X1063544D01*
Y122941D01*
X1062912Y125300D01*
X1061691Y127414D01*
X1059964Y129141D01*
X1057849Y130362D01*
X1055491Y130994D01*
D02*
G37*
G36*
X1053254D02*
X1053049D01*
X1050690Y130362D01*
X1048575Y129141D01*
X1046849Y127414D01*
X1045628Y125300D01*
X1044996Y122941D01*
Y122736D01*
X1053254D01*
Y130994D01*
D02*
G37*
G36*
X748057Y139389D02*
X745463D01*
X742958Y138718D01*
X740713Y137421D01*
X738879Y135587D01*
X737582Y133342D01*
X736911Y130837D01*
Y128243D01*
X737582Y125738D01*
X738879Y123493D01*
X740713Y121659D01*
X742958Y120362D01*
X745463Y119691D01*
X748057D01*
X750562Y120362D01*
X752807Y121659D01*
X754641Y123493D01*
X755938Y125738D01*
X756609Y128243D01*
Y130837D01*
X755938Y133342D01*
X754641Y135587D01*
X752807Y137421D01*
X750562Y138718D01*
X748057Y139389D01*
D02*
G37*
G36*
X1063544Y120704D02*
X1055286D01*
Y112446D01*
X1055491D01*
X1057849Y113078D01*
X1059964Y114299D01*
X1061691Y116025D01*
X1062912Y118140D01*
X1063544Y120499D01*
Y120704D01*
D02*
G37*
G36*
X1053254D02*
X1044996D01*
Y120499D01*
X1045628Y118140D01*
X1046849Y116025D01*
X1048575Y114299D01*
X1050690Y113078D01*
X1053049Y112446D01*
X1053254D01*
Y120704D01*
D02*
G37*
G36*
X148974Y130794D02*
X130426D01*
Y112246D01*
X148974D01*
Y130794D01*
D02*
G37*
G36*
X227544Y224974D02*
X208996D01*
Y206426D01*
X223149D01*
X232350Y197224D01*
Y162814D01*
X232587Y161625D01*
X233260Y160616D01*
X277368Y116509D01*
Y114509D01*
X278180Y112549D01*
X279681Y111048D01*
X281641Y110236D01*
X283763D01*
X285723Y111048D01*
X287224Y112549D01*
X288036Y114509D01*
Y116631D01*
X287224Y118591D01*
X285723Y120092D01*
X283763Y120904D01*
X281763D01*
X238566Y164101D01*
Y198512D01*
X238329Y199701D01*
X237656Y200709D01*
X227544Y210821D01*
Y224974D01*
D02*
G37*
G36*
X227374Y128654D02*
X208826D01*
Y110106D01*
X227374D01*
Y128654D01*
D02*
G37*
G36*
X67694Y128254D02*
X49146D01*
Y109706D01*
X67694D01*
Y128254D01*
D02*
G37*
G36*
X140921Y105794D02*
X140716D01*
Y97536D01*
X148974D01*
Y97741D01*
X148342Y100100D01*
X147121Y102214D01*
X145394Y103941D01*
X143280Y105162D01*
X140921Y105794D01*
D02*
G37*
G36*
X138684D02*
X138479D01*
X136120Y105162D01*
X134006Y103941D01*
X132279Y102214D01*
X131058Y100100D01*
X130426Y97741D01*
Y97536D01*
X138684D01*
Y105794D01*
D02*
G37*
G36*
X219321Y103654D02*
X219116D01*
Y95396D01*
X227374D01*
Y95601D01*
X226742Y97959D01*
X225521Y100074D01*
X223794Y101801D01*
X221680Y103022D01*
X219321Y103654D01*
D02*
G37*
G36*
X217084D02*
X216879D01*
X214520Y103022D01*
X212406Y101801D01*
X210679Y100074D01*
X209458Y97959D01*
X208826Y95601D01*
Y95396D01*
X217084D01*
Y103654D01*
D02*
G37*
G36*
X59641Y103254D02*
X59436D01*
Y94996D01*
X67694D01*
Y95201D01*
X67062Y97560D01*
X65841Y99674D01*
X64114Y101401D01*
X62000Y102622D01*
X59641Y103254D01*
D02*
G37*
G36*
X57404D02*
X57199D01*
X54840Y102622D01*
X52726Y101401D01*
X50999Y99674D01*
X49778Y97560D01*
X49146Y95201D01*
Y94996D01*
X57404D01*
Y103254D01*
D02*
G37*
G36*
X748057Y113989D02*
X745463D01*
X742958Y113318D01*
X740713Y112021D01*
X738879Y110187D01*
X737582Y107942D01*
X736911Y105437D01*
Y102843D01*
X737582Y100338D01*
X738879Y98093D01*
X740713Y96259D01*
X742958Y94962D01*
X745463Y94291D01*
X748057D01*
X750562Y94962D01*
X752807Y96259D01*
X754641Y98093D01*
X755938Y100338D01*
X756609Y102843D01*
Y105437D01*
X755938Y107942D01*
X754641Y110187D01*
X752807Y112021D01*
X750562Y113318D01*
X748057Y113989D01*
D02*
G37*
G36*
X316257D02*
X313663D01*
X311158Y113318D01*
X308913Y112021D01*
X307079Y110187D01*
X305782Y107942D01*
X305111Y105437D01*
Y102843D01*
X305782Y100338D01*
X307079Y98093D01*
X308913Y96259D01*
X311158Y94962D01*
X313663Y94291D01*
X316257D01*
X318762Y94962D01*
X321007Y96259D01*
X322841Y98093D01*
X324138Y100338D01*
X324809Y102843D01*
Y105437D01*
X324138Y107942D01*
X322841Y110187D01*
X321007Y112021D01*
X318762Y113318D01*
X316257Y113989D01*
D02*
G37*
G36*
X1063544Y105994D02*
X1044996D01*
Y87446D01*
X1063544D01*
Y105994D01*
D02*
G37*
G36*
X148974Y95504D02*
X140716D01*
Y87246D01*
X140921D01*
X143280Y87878D01*
X145394Y89099D01*
X147121Y90826D01*
X148342Y92940D01*
X148974Y95299D01*
Y95504D01*
D02*
G37*
G36*
X138684D02*
X130426D01*
Y95299D01*
X131058Y92940D01*
X132279Y90826D01*
X134006Y89099D01*
X136120Y87878D01*
X138479Y87246D01*
X138684D01*
Y95504D01*
D02*
G37*
G36*
X210611Y325882D02*
X208489D01*
X206528Y325070D01*
X205028Y323569D01*
X204216Y321609D01*
Y319487D01*
X205028Y317526D01*
X206528Y316026D01*
X208489Y315214D01*
X210489D01*
X252162Y273541D01*
Y186690D01*
X252399Y185501D01*
X253072Y184492D01*
X348830Y88735D01*
X349839Y88061D01*
X351028Y87824D01*
X359390D01*
X359613Y86993D01*
X359646Y86554D01*
X357879Y84787D01*
X356582Y82542D01*
X355911Y80037D01*
Y77443D01*
X356582Y74938D01*
X357879Y72693D01*
X359713Y70859D01*
X361958Y69562D01*
X364463Y68891D01*
X367057D01*
X369562Y69562D01*
X371807Y70859D01*
X373641Y72693D01*
X374938Y74938D01*
X375609Y77443D01*
Y80037D01*
X374938Y82542D01*
X373641Y84787D01*
X371874Y86554D01*
X371907Y86993D01*
X372130Y87824D01*
X384790D01*
X385013Y86993D01*
X385046Y86554D01*
X383279Y84787D01*
X381982Y82542D01*
X381311Y80037D01*
Y77443D01*
X381982Y74938D01*
X383279Y72693D01*
X385113Y70859D01*
X387358Y69562D01*
X389863Y68891D01*
X392457D01*
X394962Y69562D01*
X397207Y70859D01*
X399041Y72693D01*
X400338Y74938D01*
X401009Y77443D01*
Y80037D01*
X400338Y82542D01*
X399041Y84787D01*
X397274Y86554D01*
X397307Y86993D01*
X397530Y87824D01*
X400694D01*
X402108Y86410D01*
X404069Y85598D01*
X406191D01*
X408152Y86410D01*
X409652Y87910D01*
X410464Y89871D01*
Y91993D01*
X409652Y93954D01*
X408152Y95454D01*
X406191Y96266D01*
X404069D01*
X402108Y95454D01*
X400694Y94040D01*
X352315D01*
X258378Y187977D01*
Y274828D01*
X258141Y276017D01*
X257467Y277026D01*
X214884Y319609D01*
Y321609D01*
X214072Y323569D01*
X212572Y325070D01*
X210611Y325882D01*
D02*
G37*
G36*
X227374Y93364D02*
X219116D01*
Y85106D01*
X219321D01*
X221680Y85738D01*
X223794Y86959D01*
X225521Y88685D01*
X226742Y90800D01*
X227374Y93159D01*
Y93364D01*
D02*
G37*
G36*
X217084D02*
X208826D01*
Y93159D01*
X209458Y90800D01*
X210679Y88685D01*
X212406Y86959D01*
X214520Y85738D01*
X216879Y85106D01*
X217084D01*
Y93364D01*
D02*
G37*
G36*
X67694Y92964D02*
X59436D01*
Y84706D01*
X59641D01*
X62000Y85338D01*
X64114Y86559D01*
X65841Y88286D01*
X67062Y90400D01*
X67694Y92759D01*
Y92964D01*
D02*
G37*
G36*
X57404D02*
X49146D01*
Y92759D01*
X49778Y90400D01*
X50999Y88286D01*
X52726Y86559D01*
X54840Y85338D01*
X57199Y84706D01*
X57404D01*
Y92964D01*
D02*
G37*
G36*
X646457Y88589D02*
X646176D01*
Y79756D01*
X655009D01*
Y80037D01*
X654338Y82542D01*
X653041Y84787D01*
X651207Y86621D01*
X648962Y87918D01*
X646457Y88589D01*
D02*
G37*
G36*
X644144D02*
X643863D01*
X641358Y87918D01*
X639113Y86621D01*
X637279Y84787D01*
X635982Y82542D01*
X635311Y80037D01*
Y79756D01*
X644144D01*
Y88589D01*
D02*
G37*
G36*
X316257D02*
X315976D01*
Y79756D01*
X324809D01*
Y80037D01*
X324138Y82542D01*
X322841Y84787D01*
X321007Y86621D01*
X318762Y87918D01*
X316257Y88589D01*
D02*
G37*
G36*
X313944D02*
X313663D01*
X311158Y87918D01*
X308913Y86621D01*
X307079Y84787D01*
X305782Y82542D01*
X305111Y80037D01*
Y79756D01*
X313944D01*
Y88589D01*
D02*
G37*
G36*
X875057D02*
X872463D01*
X869958Y87918D01*
X867713Y86621D01*
X865879Y84787D01*
X864582Y82542D01*
X863911Y80037D01*
Y77443D01*
X864582Y74938D01*
X865879Y72693D01*
X867713Y70859D01*
X869958Y69562D01*
X872463Y68891D01*
X875057D01*
X877562Y69562D01*
X879807Y70859D01*
X881641Y72693D01*
X882938Y74938D01*
X883609Y77443D01*
Y80037D01*
X882938Y82542D01*
X881641Y84787D01*
X879807Y86621D01*
X877562Y87918D01*
X875057Y88589D01*
D02*
G37*
G36*
X824257D02*
X821663D01*
X819158Y87918D01*
X816913Y86621D01*
X815079Y84787D01*
X813782Y82542D01*
X813111Y80037D01*
Y77443D01*
X813782Y74938D01*
X815079Y72693D01*
X816913Y70859D01*
X819158Y69562D01*
X821663Y68891D01*
X824257D01*
X826762Y69562D01*
X829007Y70859D01*
X830841Y72693D01*
X832138Y74938D01*
X832809Y77443D01*
Y80037D01*
X832138Y82542D01*
X830841Y84787D01*
X829007Y86621D01*
X826762Y87918D01*
X824257Y88589D01*
D02*
G37*
G36*
X798857D02*
X796263D01*
X793758Y87918D01*
X791513Y86621D01*
X789679Y84787D01*
X788382Y82542D01*
X787711Y80037D01*
Y77443D01*
X788382Y74938D01*
X789679Y72693D01*
X791513Y70859D01*
X793758Y69562D01*
X796263Y68891D01*
X798857D01*
X801362Y69562D01*
X803607Y70859D01*
X805441Y72693D01*
X806738Y74938D01*
X807409Y77443D01*
Y80037D01*
X806738Y82542D01*
X805441Y84787D01*
X803607Y86621D01*
X801362Y87918D01*
X798857Y88589D01*
D02*
G37*
G36*
X773457D02*
X770863D01*
X768358Y87918D01*
X766113Y86621D01*
X764279Y84787D01*
X762982Y82542D01*
X762311Y80037D01*
Y77443D01*
X762982Y74938D01*
X764279Y72693D01*
X766113Y70859D01*
X768358Y69562D01*
X770863Y68891D01*
X773457D01*
X775962Y69562D01*
X778207Y70859D01*
X780041Y72693D01*
X781338Y74938D01*
X782009Y77443D01*
Y80037D01*
X781338Y82542D01*
X780041Y84787D01*
X778207Y86621D01*
X775962Y87918D01*
X773457Y88589D01*
D02*
G37*
G36*
X748057D02*
X745463D01*
X742958Y87918D01*
X740713Y86621D01*
X738879Y84787D01*
X737582Y82542D01*
X736911Y80037D01*
Y77443D01*
X737582Y74938D01*
X738879Y72693D01*
X740713Y70859D01*
X742958Y69562D01*
X745463Y68891D01*
X748057D01*
X750562Y69562D01*
X752807Y70859D01*
X754641Y72693D01*
X755938Y74938D01*
X756609Y77443D01*
Y80037D01*
X755938Y82542D01*
X754641Y84787D01*
X752807Y86621D01*
X750562Y87918D01*
X748057Y88589D01*
D02*
G37*
G36*
X722657D02*
X720063D01*
X717558Y87918D01*
X715313Y86621D01*
X713479Y84787D01*
X712182Y82542D01*
X711511Y80037D01*
Y77443D01*
X712182Y74938D01*
X713479Y72693D01*
X715313Y70859D01*
X717558Y69562D01*
X720063Y68891D01*
X722657D01*
X725162Y69562D01*
X727407Y70859D01*
X729241Y72693D01*
X730538Y74938D01*
X731209Y77443D01*
Y80037D01*
X730538Y82542D01*
X729241Y84787D01*
X727407Y86621D01*
X725162Y87918D01*
X722657Y88589D01*
D02*
G37*
G36*
X697257D02*
X694663D01*
X692158Y87918D01*
X689913Y86621D01*
X688079Y84787D01*
X686782Y82542D01*
X686111Y80037D01*
Y77443D01*
X686782Y74938D01*
X688079Y72693D01*
X689913Y70859D01*
X692158Y69562D01*
X694663Y68891D01*
X697257D01*
X699762Y69562D01*
X702007Y70859D01*
X703841Y72693D01*
X705138Y74938D01*
X705809Y77443D01*
Y80037D01*
X705138Y82542D01*
X703841Y84787D01*
X702007Y86621D01*
X699762Y87918D01*
X697257Y88589D01*
D02*
G37*
G36*
X671857D02*
X669263D01*
X666758Y87918D01*
X664513Y86621D01*
X662679Y84787D01*
X661382Y82542D01*
X660711Y80037D01*
Y77443D01*
X661382Y74938D01*
X662679Y72693D01*
X664513Y70859D01*
X666758Y69562D01*
X669263Y68891D01*
X671857D01*
X674362Y69562D01*
X676607Y70859D01*
X678441Y72693D01*
X679738Y74938D01*
X680409Y77443D01*
Y80037D01*
X679738Y82542D01*
X678441Y84787D01*
X676607Y86621D01*
X674362Y87918D01*
X671857Y88589D01*
D02*
G37*
G36*
X655009Y77724D02*
X646176D01*
Y68891D01*
X646457D01*
X648962Y69562D01*
X651207Y70859D01*
X653041Y72693D01*
X654338Y74938D01*
X655009Y77443D01*
Y77724D01*
D02*
G37*
G36*
X644144D02*
X635311D01*
Y77443D01*
X635982Y74938D01*
X637279Y72693D01*
X639113Y70859D01*
X641358Y69562D01*
X643863Y68891D01*
X644144D01*
Y77724D01*
D02*
G37*
G36*
X341657Y88589D02*
X339063D01*
X336558Y87918D01*
X334313Y86621D01*
X332479Y84787D01*
X331182Y82542D01*
X330511Y80037D01*
Y77443D01*
X331182Y74938D01*
X332479Y72693D01*
X334313Y70859D01*
X336558Y69562D01*
X339063Y68891D01*
X341657D01*
X344162Y69562D01*
X346407Y70859D01*
X348241Y72693D01*
X349538Y74938D01*
X350209Y77443D01*
Y80037D01*
X349538Y82542D01*
X348241Y84787D01*
X346407Y86621D01*
X344162Y87918D01*
X341657Y88589D01*
D02*
G37*
G36*
X324809Y77724D02*
X315976D01*
Y68891D01*
X316257D01*
X318762Y69562D01*
X321007Y70859D01*
X322841Y72693D01*
X324138Y74938D01*
X324809Y77443D01*
Y77724D01*
D02*
G37*
G36*
X313944D02*
X305111D01*
Y77443D01*
X305782Y74938D01*
X307079Y72693D01*
X308913Y70859D01*
X311158Y69562D01*
X313663Y68891D01*
X313944D01*
Y77724D01*
D02*
G37*
G36*
X290857Y88589D02*
X288263D01*
X285758Y87918D01*
X283513Y86621D01*
X281679Y84787D01*
X280382Y82542D01*
X279711Y80037D01*
Y77443D01*
X280382Y74938D01*
X281679Y72693D01*
X283513Y70859D01*
X285758Y69562D01*
X288263Y68891D01*
X290857D01*
X293362Y69562D01*
X295607Y70859D01*
X297441Y72693D01*
X298738Y74938D01*
X299409Y77443D01*
Y80037D01*
X298738Y82542D01*
X297441Y84787D01*
X295607Y86621D01*
X293362Y87918D01*
X290857Y88589D01*
D02*
G37*
G36*
X439109Y199624D02*
X430276D01*
Y190791D01*
X430557D01*
X433062Y191462D01*
X435307Y192759D01*
X437141Y194593D01*
X438438Y196839D01*
X439109Y199343D01*
Y199624D01*
D02*
G37*
%LPD*%
D11*
X830460Y200660D02*
D03*
X815460D02*
D03*
X650360Y154940D02*
D03*
X665360D02*
D03*
X685920D02*
D03*
X700920D02*
D03*
D12*
X787400Y159900D02*
D03*
Y144900D02*
D03*
D15*
X845820Y622300D02*
D03*
X820820D02*
D03*
X820420Y698500D02*
D03*
X795420D02*
D03*
X663340D02*
D03*
X688340D02*
D03*
X942510Y223120D02*
D03*
Y198120D02*
D03*
X661200Y622300D02*
D03*
X686200D02*
D03*
X711200D02*
D03*
D16*
X795820D02*
D03*
X770420Y698500D02*
D03*
X638340D02*
D03*
X636200Y622300D02*
D03*
D20*
X58420Y220580D02*
D03*
X142240Y218040D02*
D03*
X218270Y215700D02*
D03*
X58420Y118980D02*
D03*
X139700Y121520D02*
D03*
X218100Y119380D02*
D03*
X1054270Y96720D02*
D03*
Y195780D02*
D03*
D21*
X58420Y195580D02*
D03*
X142240Y193040D02*
D03*
X218270Y190700D02*
D03*
X58420Y93980D02*
D03*
X139700Y96520D02*
D03*
X218100Y94380D02*
D03*
X1054270Y121720D02*
D03*
Y220780D02*
D03*
D26*
X942510Y173120D02*
D03*
D29*
X763778Y204978D02*
X764540Y205740D01*
X763778Y197358D02*
Y204978D01*
X746760Y180340D02*
X763778Y197358D01*
X299974Y617220D02*
X416560D01*
X287274Y604520D02*
X299974Y617220D01*
X318008Y516070D02*
X322580Y520642D01*
Y599440D01*
X318008Y301271D02*
Y516070D01*
X195580Y510540D02*
X246775Y459345D01*
Y451979D02*
Y459345D01*
Y451979D02*
X247650Y451104D01*
X207010Y424942D02*
Y430022D01*
Y424942D02*
X229108Y402844D01*
X149860Y487172D02*
X207010Y430022D01*
X72588Y465526D02*
X75890D01*
X85344Y474980D01*
X64008Y456946D02*
X72588Y465526D01*
X234950Y320548D02*
X300990Y254508D01*
Y171196D02*
Y254508D01*
X609600Y489204D02*
X648208Y527812D01*
X609600Y353822D02*
Y489204D01*
X1019175Y463296D02*
X1060704D01*
X1069340Y454660D01*
X1016000Y460121D02*
X1019175Y463296D01*
X907923Y392430D02*
X908050D01*
X949960Y508000D02*
X1049020D01*
X889000Y447040D02*
X949960Y508000D01*
X889000Y411353D02*
Y421640D01*
Y411353D02*
X907923Y392430D01*
X908050Y392303D02*
Y392430D01*
X670179Y497840D02*
X739140D01*
X647700Y475361D02*
X670179Y497840D01*
X641350Y397510D02*
X744363D01*
X449580Y441960D02*
X500380Y492760D01*
X368054Y441960D02*
X449580D01*
X343861Y417767D02*
X368054Y441960D01*
X343861Y417520D02*
Y417767D01*
X335280Y424180D02*
X374142Y463042D01*
X335280Y306564D02*
Y424180D01*
X374142Y463042D02*
Y573278D01*
X366409Y465930D02*
X367284Y466805D01*
X342900Y448056D02*
X360774Y465930D01*
X366409D01*
X370238Y252062D02*
Y274923D01*
X363220Y281940D02*
Y291924D01*
Y281940D02*
X370238Y274923D01*
X352863Y302281D02*
X363220Y291924D01*
X339562Y302281D02*
X352863D01*
X335280Y306564D02*
X339562Y302281D01*
X353060Y292100D02*
X353884D01*
X347451Y297709D02*
X353060Y292100D01*
X330729Y297709D02*
X347451D01*
X269240Y193040D02*
Y266700D01*
X317500Y182880D02*
X365760D01*
X410083Y138557D01*
X460375Y129540D02*
X506730Y83185D01*
X342646Y129540D02*
X460375D01*
X300990Y171196D02*
X342646Y129540D01*
X416560Y123063D02*
X448437D01*
X492760Y78740D01*
X378460Y292100D02*
Y327660D01*
X367792Y290468D02*
Y322580D01*
X402590Y225298D02*
Y255670D01*
X367792Y290468D02*
X402590Y255670D01*
X650360Y119246D02*
Y145930D01*
X771087Y215195D02*
X774700Y211582D01*
X627380Y432054D02*
X657860D01*
X485140Y642620D02*
X572008Y555752D01*
Y353568D02*
Y555752D01*
X783082Y486918D02*
X805868Y509704D01*
Y631952D01*
X805472Y632348D02*
X805868Y631952D01*
X721248Y632348D02*
X805472D01*
X711200Y622300D02*
X721248Y632348D01*
X308864Y597662D02*
X311150D01*
X308610Y597408D02*
X308864Y597662D01*
X308610Y296164D02*
Y597408D01*
Y296164D02*
X354584Y250190D01*
X359410D01*
X363220Y254000D01*
Y267208D01*
X509778Y292862D02*
Y608076D01*
Y292862D02*
X521716Y280924D01*
X700920Y154940D02*
Y158122D01*
X734060Y191262D01*
Y241554D01*
X772668Y280162D01*
Y466472D01*
X771652Y467488D02*
X772668Y466472D01*
X771652Y467488D02*
Y497099D01*
X772668Y498115D01*
Y584708D01*
X768350Y589026D02*
X772668Y584708D01*
X642112Y589026D02*
X768350D01*
X626110Y605028D02*
X642112Y589026D01*
X626110Y605028D02*
Y686270D01*
X638340Y698500D01*
X269875Y604520D02*
X287274D01*
X265176Y609219D02*
X269875Y604520D01*
X265176Y609219D02*
Y635762D01*
X269494Y640080D01*
X370238Y252062D02*
X391160Y231140D01*
X452501Y245999D02*
X467360Y231140D01*
X434975Y245999D02*
X452501D01*
X430530Y241554D02*
X434975Y245999D01*
X430530Y217805D02*
Y241554D01*
Y217805D02*
X434975Y213360D01*
X576834D01*
X582930Y219456D01*
Y274258D01*
X692847Y384175D01*
X756285D01*
X759460Y420878D01*
X584708Y323088D02*
Y644398D01*
X492760Y231140D02*
X584708Y323088D01*
X506730Y71755D02*
Y83185D01*
Y71755D02*
X511175Y67310D01*
X523875D01*
X529590Y73025D01*
Y86360D01*
X533400Y90170D01*
X556260D01*
X568960Y78740D02*
Y151130D01*
X533654Y186436D02*
X568960Y151130D01*
X447802Y186436D02*
X533654D01*
X337820Y214376D02*
X391922D01*
X327660Y224536D02*
X337820Y214376D01*
X327660Y224536D02*
Y247142D01*
X254254Y320548D02*
X327660Y247142D01*
X209550Y320548D02*
X255270Y274828D01*
Y186690D02*
Y274828D01*
Y186690D02*
X351028Y90932D01*
X405130D01*
X634492Y275082D02*
X656590Y252984D01*
Y185928D02*
Y252984D01*
X638175Y167513D02*
X656590Y185928D01*
X638175Y96520D02*
Y167513D01*
X777875Y159900D02*
X787400D01*
X774700Y211582D02*
X777875Y159900D01*
X752856Y225044D02*
X761238D01*
X746760Y231140D02*
X752856Y225044D01*
X625475Y468884D02*
X689610D01*
X620522Y463931D02*
X625475Y468884D01*
X620522Y416306D02*
Y463931D01*
Y416306D02*
X628650Y408178D01*
X327660Y314452D02*
Y516023D01*
X381000Y495046D02*
Y513080D01*
X401511Y533591D01*
X485140Y668020D02*
Y716280D01*
Y668020D02*
X510540Y642620D01*
X797560Y231140D02*
X820820Y254400D01*
Y622300D01*
X678942Y313182D02*
X692404Y326644D01*
X678942Y248158D02*
Y313182D01*
Y248158D02*
X695960Y231140D01*
X663340Y645160D02*
Y698500D01*
Y645160D02*
X686200Y622300D01*
X711200D02*
Y675640D01*
X688340Y698500D02*
X711200Y675640D01*
X645160Y114046D02*
X650360Y119246D01*
X645160Y78740D02*
Y114046D01*
X836987Y219767D02*
X848360Y231140D01*
X790575Y219767D02*
X836987D01*
X786130Y224212D02*
X790575Y219767D01*
X786130Y224212D02*
Y426466D01*
X810440Y450776D01*
Y658480D01*
X770420Y698500D02*
X810440Y658480D01*
X772160Y231140D02*
X781304Y240284D01*
Y472060D01*
X776224Y477140D02*
X781304Y472060D01*
X776224Y477140D02*
Y493543D01*
X781304Y498623D01*
Y607784D01*
X795820Y622300D01*
X442976Y491490D02*
X488950Y537464D01*
Y613410D01*
X459740Y642620D02*
X488950Y613410D01*
X402590Y225298D02*
X417830Y210058D01*
Y179070D02*
Y210058D01*
Y179070D02*
X518160Y78740D01*
X848360D02*
Y168910D01*
X355092Y260223D02*
Y264187D01*
X318008Y301271D02*
X355092Y264187D01*
X761238Y225044D02*
X771087Y215195D01*
X812990D01*
X815460Y212725D01*
Y200660D02*
Y212725D01*
X340360Y231140D02*
Y245364D01*
X264149Y321575D02*
X340360Y245364D01*
X264149Y321575D02*
Y335358D01*
X249175Y350332D02*
X264149Y335358D01*
X117789Y350332D02*
X249175D01*
X78994Y389128D02*
X117789Y350332D01*
X78994Y389128D02*
Y458292D01*
X92202Y471500D01*
Y573278D01*
X47498Y206502D02*
X58420Y195580D01*
X47498Y206502D02*
Y229870D01*
X64008Y246380D01*
Y456946D01*
X193802Y358775D02*
Y420878D01*
Y358775D02*
X197485Y355092D01*
X288925D01*
X294394Y349623D01*
Y302506D02*
Y349623D01*
Y302506D02*
X365760Y231140D01*
X475742Y330200D02*
Y420878D01*
X471678Y326136D02*
X475742Y330200D01*
X396875Y326136D02*
X471678D01*
X393700Y322961D02*
X396875Y326136D01*
X393700Y271026D02*
Y322961D01*
Y271026D02*
X416560Y248166D01*
Y231140D02*
Y248166D01*
X441198Y104902D02*
X467360Y78740D01*
X353822Y104902D02*
X441198D01*
X278130Y180594D02*
X353822Y104902D01*
X278130Y180594D02*
Y257302D01*
X235458Y162814D02*
X282702Y115570D01*
X235458Y162814D02*
Y198512D01*
X218270Y215700D02*
X235458Y198512D01*
X787400Y144900D02*
X805808D01*
X837946Y177038D01*
X938592D01*
X942510Y173120D01*
X856488Y364998D02*
Y515620D01*
Y364998D02*
X875792Y345694D01*
X510540Y716280D02*
X645560D01*
X663340Y698500D01*
X510540Y629977D02*
Y642620D01*
Y629977D02*
X524002Y616515D01*
X286512Y627126D02*
Y695706D01*
X272034Y612648D02*
X286512Y627126D01*
X942510Y198120D02*
X952754Y208364D01*
Y372872D01*
X863346Y462280D02*
X952754Y372872D01*
X863346Y462280D02*
Y587502D01*
X838962Y611886D02*
X863346Y587502D01*
X685920Y154940D02*
Y195700D01*
X721360Y231140D01*
X608330Y289560D02*
X641350Y322580D01*
X608330Y111068D02*
Y289560D01*
X582987Y85725D02*
X608330Y111068D01*
X582987Y66675D02*
Y85725D01*
X578796Y62484D02*
X582987Y66675D01*
X458216Y62484D02*
X578796D01*
X441960Y78740D02*
X458216Y62484D01*
X627634Y285242D02*
X654050Y311658D01*
X627634Y255270D02*
Y285242D01*
Y255270D02*
X631190Y251714D01*
Y108528D02*
Y251714D01*
X608387Y85725D02*
X631190Y108528D01*
X608387Y63049D02*
Y85725D01*
X603250Y57912D02*
X608387Y63049D01*
X437388Y57912D02*
X603250D01*
X416560Y78740D02*
X437388Y57912D01*
X1041400Y188849D02*
Y420878D01*
X1038225Y185674D02*
X1041400Y188849D01*
X837438Y185674D02*
X1038225D01*
X657860Y552196D02*
Y573278D01*
X602742Y497078D02*
X657860Y552196D01*
X602742Y302006D02*
Y497078D01*
X554990Y254254D02*
X602742Y302006D01*
X554990Y225425D02*
Y254254D01*
X549275Y219710D02*
X554990Y225425D01*
X453390Y219710D02*
X549275D01*
X441960Y231140D02*
X453390Y219710D01*
X1016000Y420878D02*
Y460121D01*
X939800Y420878D02*
Y435991D01*
X936625Y439166D02*
X939800Y435991D01*
X908812Y439166D02*
X936625D01*
X657860Y420878D02*
Y432054D01*
X820420Y698500D02*
X839978Y678942D01*
Y628142D02*
Y678942D01*
Y628142D02*
X845820Y622300D01*
X942510Y214630D02*
Y223120D01*
X928540Y200660D02*
X942510Y214630D01*
X830460Y200660D02*
X928540D01*
X795420Y698500D02*
X831088Y662832D01*
Y239268D02*
Y662832D01*
X822960Y231140D02*
X831088Y239268D01*
X218100Y94380D02*
X229108Y105388D01*
Y179862D01*
X218270Y190700D02*
X229108Y179862D01*
X1054270Y220780D02*
X1065276Y209774D01*
Y132726D02*
Y209774D01*
X1054270Y121720D02*
X1065276Y132726D01*
X734060Y142240D02*
X746760Y154940D01*
X654050Y142240D02*
X734060D01*
X650360Y145930D02*
X654050Y142240D01*
X650360Y145930D02*
Y154940D01*
X459740Y642620D02*
Y716280D01*
X665360Y154940D02*
X685920D01*
D30*
X289560Y231140D02*
D03*
X314960Y78740D02*
D03*
X645160D02*
D03*
X314960Y104140D02*
D03*
Y231140D02*
D03*
X289560Y78740D02*
D03*
X340360D02*
D03*
X353060Y200640D02*
D03*
X378460D02*
D03*
X403860D02*
D03*
X429260D02*
D03*
X454660D02*
D03*
X746760Y104140D02*
D03*
Y129540D02*
D03*
Y154940D02*
D03*
Y180340D02*
D03*
Y205740D02*
D03*
X645160Y231140D02*
D03*
X670560Y78740D02*
D03*
X695960D02*
D03*
X721360D02*
D03*
X746760D02*
D03*
X772160D02*
D03*
X797560D02*
D03*
X822960D02*
D03*
X848360D02*
D03*
X873760D02*
D03*
Y231140D02*
D03*
X848360D02*
D03*
X822960D02*
D03*
X797560D02*
D03*
X772160D02*
D03*
X746760D02*
D03*
X721360D02*
D03*
X695960D02*
D03*
X670560D02*
D03*
X365760Y78740D02*
D03*
X391160D02*
D03*
X416560D02*
D03*
X441960D02*
D03*
X467360D02*
D03*
X492760D02*
D03*
X518160D02*
D03*
X543560D02*
D03*
X568960D02*
D03*
X594360D02*
D03*
X619760D02*
D03*
Y231140D02*
D03*
X594360D02*
D03*
X568960D02*
D03*
X543560D02*
D03*
X518160D02*
D03*
X492760D02*
D03*
X467360D02*
D03*
X441960D02*
D03*
X416560D02*
D03*
X391160D02*
D03*
X365760D02*
D03*
X340360D02*
D03*
D31*
X144780Y289560D02*
D03*
X428498D02*
D03*
X993140D02*
D03*
X713740D02*
D03*
D32*
X374142Y420878D02*
D03*
X939800D02*
D03*
X657860D02*
D03*
X92202D02*
D03*
D33*
X399542D02*
D03*
X424942D02*
D03*
X450342D02*
D03*
X475742D02*
D03*
X374142Y573278D02*
D03*
X399542D02*
D03*
X424942D02*
D03*
X450342D02*
D03*
X475742D02*
D03*
X1041400D02*
D03*
X1016000D02*
D03*
X990600D02*
D03*
X965200D02*
D03*
X939800D02*
D03*
X1041400Y420878D02*
D03*
X1016000D02*
D03*
X990600D02*
D03*
X965200D02*
D03*
X683260D02*
D03*
X708660D02*
D03*
X734060D02*
D03*
X759460D02*
D03*
X657860Y573278D02*
D03*
X683260D02*
D03*
X708660D02*
D03*
X734060D02*
D03*
X759460D02*
D03*
X117602Y420878D02*
D03*
X143002D02*
D03*
X168402D02*
D03*
X193802D02*
D03*
X92202Y573278D02*
D03*
X117602D02*
D03*
X143002D02*
D03*
X168402D02*
D03*
X193802D02*
D03*
D34*
X510540Y642620D02*
D03*
X485140D02*
D03*
X510540Y716280D02*
D03*
X485140D02*
D03*
D35*
X459740Y642620D02*
D03*
Y716280D02*
D03*
D36*
X764540Y205740D02*
D03*
X416560Y617220D02*
D03*
X322580Y599440D02*
D03*
X195580Y510540D02*
D03*
X149860Y487172D02*
D03*
X85344Y474980D02*
D03*
X234950Y320548D02*
D03*
X609600Y353822D02*
D03*
X1069340Y454660D02*
D03*
X367284Y466805D02*
D03*
X367792Y322580D02*
D03*
X572008Y353568D02*
D03*
X783082Y486918D02*
D03*
X311150Y597662D02*
D03*
X363220Y267208D02*
D03*
X509778Y608076D02*
D03*
X521716Y280924D02*
D03*
X269494Y640080D02*
D03*
X584708Y644398D02*
D03*
X556260Y90170D02*
D03*
X447802Y186436D02*
D03*
X391922Y214376D02*
D03*
X254254Y320548D02*
D03*
X209550D02*
D03*
X405130Y90932D02*
D03*
X634492Y275082D02*
D03*
X638175Y96520D02*
D03*
X648208Y527812D02*
D03*
X229108Y402844D02*
D03*
X689610Y468884D02*
D03*
X628650Y408178D02*
D03*
X247650Y451104D02*
D03*
X327660Y516023D02*
D03*
Y314452D02*
D03*
X381000Y495046D02*
D03*
X401511Y533591D02*
D03*
X692404Y326644D02*
D03*
X442976Y491490D02*
D03*
X848360Y168910D02*
D03*
X355092Y260223D02*
D03*
X278130Y257302D02*
D03*
X282702Y115570D02*
D03*
X856488Y515620D02*
D03*
X875792Y345694D02*
D03*
X524002Y616515D02*
D03*
X286512Y695706D02*
D03*
X272034Y612648D02*
D03*
X838962Y611886D02*
D03*
X641350Y322580D02*
D03*
X654050Y311658D02*
D03*
X837438Y185674D02*
D03*
X342900Y448056D02*
D03*
X908812Y439166D02*
D03*
X627380Y432054D02*
D03*
D37*
X1049020Y508000D02*
D03*
X889000Y447040D02*
D03*
Y421640D02*
D03*
X908050Y392303D02*
D03*
X739140Y497840D02*
D03*
X647700Y475361D02*
D03*
X744363Y397510D02*
D03*
X641350D02*
D03*
X500380Y492760D02*
D03*
X343861Y417520D02*
D03*
X353884Y292100D02*
D03*
X330729Y297709D02*
D03*
X269240Y266700D02*
D03*
Y193040D02*
D03*
X317500Y182880D02*
D03*
X410083Y138557D02*
D03*
X416560Y123063D02*
D03*
X378460Y292100D02*
D03*
Y327660D02*
D03*
M02*
