G04*
G04 #@! TF.GenerationSoftware,Altium Limited,Altium Designer,22.10.1 (41)*
G04*
G04 Layer_Color=65535*
%FSLAX44Y44*%
%MOMM*%
G71*
G04*
G04 #@! TF.SameCoordinates,F6FD88A5-7606-448C-B8D5-CB5F8BF09B0B*
G04*
G04*
G04 #@! TF.FilePolarity,Positive*
G04*
G01*
G75*
%ADD10C,0.2540*%
D10*
X78740Y306578D02*
X1059180D01*
X78740Y349758D02*
X1059180D01*
Y306578D02*
Y349758D01*
X78740Y306578D02*
Y349758D01*
X302006Y400812D02*
X551942D01*
X302006Y592328D02*
X551942D01*
Y400812D02*
Y592328D01*
X302006Y400812D02*
Y592328D01*
X867664Y400812D02*
X1117600D01*
X867664Y592328D02*
X1117600D01*
Y400812D02*
Y592328D01*
X867664Y400812D02*
Y592328D01*
X585724Y400812D02*
Y592328D01*
X835660Y400812D02*
Y592328D01*
X585724D02*
X835660D01*
X585724Y400812D02*
X835660D01*
X20066D02*
Y592328D01*
X270002Y400812D02*
Y592328D01*
X20066D02*
X270002D01*
X20066Y400812D02*
X270002D01*
X1086736Y736977D02*
X1084196Y739516D01*
X1079118D01*
X1076579Y736977D01*
Y734438D01*
X1079118Y731898D01*
X1084196D01*
X1086736Y729359D01*
Y726820D01*
X1084196Y724281D01*
X1079118D01*
X1076579Y726820D01*
X1099432Y724281D02*
Y739516D01*
X1091814Y731898D01*
X1101971D01*
X37716Y736977D02*
X35176Y739516D01*
X30098D01*
X27559Y736977D01*
Y734438D01*
X30098Y731898D01*
X35176D01*
X37716Y729359D01*
Y726820D01*
X35176Y724281D01*
X30098D01*
X27559Y726820D01*
X42794Y736977D02*
X45333Y739516D01*
X50412D01*
X52951Y736977D01*
Y734438D01*
X50412Y731898D01*
X47872D01*
X50412D01*
X52951Y729359D01*
Y726820D01*
X50412Y724281D01*
X45333D01*
X42794Y726820D01*
X40256Y376297D02*
X37717Y378836D01*
X32638D01*
X30099Y376297D01*
Y373758D01*
X32638Y371218D01*
X37717D01*
X40256Y368679D01*
Y366140D01*
X37717Y363601D01*
X32638D01*
X30099Y366140D01*
X55491Y363601D02*
X45334D01*
X55491Y373758D01*
Y376297D01*
X52952Y378836D01*
X47873D01*
X45334Y376297D01*
X1086736D02*
X1084196Y378836D01*
X1079118D01*
X1076579Y376297D01*
Y373758D01*
X1079118Y371218D01*
X1084196D01*
X1086736Y368679D01*
Y366140D01*
X1084196Y363601D01*
X1079118D01*
X1076579Y366140D01*
X1091814Y363601D02*
X1096892D01*
X1094353D01*
Y378836D01*
X1091814Y376297D01*
X824236Y170182D02*
Y185417D01*
X831854D01*
X834393Y182878D01*
Y177800D01*
X831854Y175261D01*
X824236D01*
X829314D02*
X834393Y170182D01*
X839471D02*
X844550D01*
X842010D01*
Y185417D01*
X839471Y182878D01*
X852167D02*
X854706Y185417D01*
X859785D01*
X862324Y182878D01*
Y180339D01*
X859785Y177800D01*
X857245D01*
X859785D01*
X862324Y175261D01*
Y172722D01*
X859785Y170182D01*
X854706D01*
X852167Y172722D01*
X801376Y114303D02*
Y129537D01*
X808994D01*
X811533Y126998D01*
Y121920D01*
X808994Y119381D01*
X801376D01*
X806454D02*
X811533Y114303D01*
X816611D02*
X821690D01*
X819150D01*
Y129537D01*
X816611Y126998D01*
X839464Y114303D02*
X829307D01*
X839464Y124459D01*
Y126998D01*
X836925Y129537D01*
X831846D01*
X829307Y126998D01*
X637537Y123195D02*
X622303D01*
Y130813D01*
X624842Y133352D01*
X629920D01*
X632459Y130813D01*
Y123195D01*
Y128274D02*
X637537Y133352D01*
Y138430D02*
Y143509D01*
Y140970D01*
X622303D01*
X624842Y138430D01*
X637537Y151126D02*
Y156205D01*
Y153666D01*
X622303D01*
X624842Y151126D01*
X714883Y161163D02*
X730118D01*
Y153546D01*
X727579Y151006D01*
X722501D01*
X719961Y153546D01*
Y161163D01*
Y156085D02*
X714883Y151006D01*
Y145928D02*
Y140850D01*
Y143389D01*
X730118D01*
X727579Y145928D01*
Y133232D02*
X730118Y130693D01*
Y125615D01*
X727579Y123075D01*
X717422D01*
X714883Y125615D01*
Y130693D01*
X717422Y133232D01*
X727579D01*
X1057915Y617217D02*
Y604522D01*
X1060454Y601982D01*
X1065533D01*
X1068072Y604522D01*
Y617217D01*
X1073150Y601982D02*
X1078229D01*
X1075690D01*
Y617217D01*
X1073150Y614678D01*
X1085846Y601982D02*
X1090925D01*
X1088385D01*
Y617217D01*
X1085846Y614678D01*
X859658Y590931D02*
X846962D01*
X844423Y588392D01*
Y583313D01*
X846962Y580774D01*
X859658D01*
X844423Y575696D02*
Y570618D01*
Y573157D01*
X859658D01*
X857119Y575696D01*
Y563000D02*
X859658Y560461D01*
Y555382D01*
X857119Y552843D01*
X846962D01*
X844423Y555382D01*
Y560461D01*
X846962Y563000D01*
X857119D01*
X294000Y590931D02*
X281304D01*
X278765Y588392D01*
Y583313D01*
X281304Y580774D01*
X294000D01*
X291461Y575696D02*
X294000Y573157D01*
Y568078D01*
X291461Y565539D01*
X288922D01*
X286383Y568078D01*
X283843Y565539D01*
X281304D01*
X278765Y568078D01*
Y573157D01*
X281304Y575696D01*
X283843D01*
X286383Y573157D01*
X288922Y575696D01*
X291461D01*
X286383Y573157D02*
Y568078D01*
X324485Y622676D02*
Y609980D01*
X327024Y607441D01*
X332103D01*
X334642Y609980D01*
Y622676D01*
X339720Y609980D02*
X342259Y607441D01*
X347338D01*
X349877Y609980D01*
Y620137D01*
X347338Y622676D01*
X342259D01*
X339720Y620137D01*
Y617598D01*
X342259Y615059D01*
X349877D01*
M02*
