G04*
G04 #@! TF.GenerationSoftware,Altium Limited,Altium Designer,22.10.1 (41)*
G04*
G04 Layer_Color=32896*
%FSLAX44Y44*%
%MOMM*%
G71*
G04*
G04 #@! TF.SameCoordinates,4CDF153F-0075-4D10-A07D-334E842CD810*
G04*
G04*
G04 #@! TF.FilePolarity,Positive*
G04*
G01*
G75*
%ADD10C,0.2540*%
%ADD55C,0.2500*%
%ADD56C,0.2000*%
%ADD57C,0.6000*%
%ADD58C,0.1270*%
G36*
X568071Y444762D02*
X572237D01*
Y444415D01*
X575014D01*
Y444068D01*
X577096D01*
Y443721D01*
X579179D01*
Y443374D01*
X580568D01*
Y443027D01*
X582304D01*
Y442680D01*
X583692D01*
Y442332D01*
X585080D01*
Y441985D01*
X586122D01*
Y441638D01*
X587510D01*
Y441291D01*
X588552D01*
Y440944D01*
X589593D01*
Y440597D01*
X590635D01*
Y440250D01*
X591676D01*
Y439903D01*
X592718D01*
Y439556D01*
X593412D01*
Y439208D01*
X594453D01*
Y438861D01*
X595147D01*
Y438514D01*
X595842D01*
Y438167D01*
X596883D01*
Y437820D01*
X597577D01*
Y437473D01*
X598272D01*
Y437126D01*
X599313D01*
Y436778D01*
X600007D01*
Y436431D01*
X600701D01*
Y436084D01*
X601396D01*
Y435737D01*
X602090D01*
Y435390D01*
X602437D01*
Y435043D01*
X603131D01*
Y434696D01*
X603826D01*
Y434348D01*
X604520D01*
Y434001D01*
X605214D01*
Y433654D01*
X605561D01*
Y433307D01*
X606256D01*
Y432960D01*
X606950D01*
Y432613D01*
X607297D01*
Y432266D01*
X607991D01*
Y431918D01*
X608339D01*
Y431571D01*
X609033D01*
Y431224D01*
X609380D01*
Y430877D01*
X610074D01*
Y430530D01*
X610421D01*
Y430183D01*
X611115D01*
Y429836D01*
X611463D01*
Y429489D01*
X612157D01*
Y429142D01*
X612504D01*
Y428794D01*
X612851D01*
Y428447D01*
X613198D01*
Y428100D01*
X613893D01*
Y427753D01*
X614240D01*
Y427406D01*
X614587D01*
Y427059D01*
X615281D01*
Y426712D01*
X615628D01*
Y426364D01*
X615975D01*
Y426017D01*
X616323D01*
Y425670D01*
X616670D01*
Y425323D01*
X617364D01*
Y424976D01*
X617711D01*
Y424629D01*
X618058D01*
Y424282D01*
X618405D01*
Y423935D01*
X618753D01*
Y423587D01*
X619100D01*
Y423240D01*
X619447D01*
Y422893D01*
X619794D01*
Y422546D01*
X620141D01*
Y422199D01*
X620488D01*
Y421852D01*
X620835D01*
Y421505D01*
X621182D01*
Y421157D01*
X621530D01*
Y420810D01*
X621877D01*
Y420463D01*
X622224D01*
Y420116D01*
X622571D01*
Y419769D01*
X622918D01*
Y419422D01*
X623265D01*
Y419075D01*
X623612D01*
Y418380D01*
X623960D01*
Y418033D01*
X624307D01*
Y417686D01*
X624654D01*
Y417339D01*
X625001D01*
Y416992D01*
X625348D01*
Y416297D01*
X625695D01*
Y415950D01*
X626042D01*
Y415603D01*
X626389D01*
Y415256D01*
X626736D01*
Y414562D01*
X627084D01*
Y414215D01*
X627431D01*
Y413868D01*
X627778D01*
Y413173D01*
X628125D01*
Y412826D01*
X628472D01*
Y412132D01*
X628819D01*
Y411785D01*
X629166D01*
Y411091D01*
X629514D01*
Y410743D01*
X629861D01*
Y410049D01*
X630208D01*
Y409702D01*
X630555D01*
Y409008D01*
X630902D01*
Y408661D01*
X631249D01*
Y407966D01*
X631596D01*
Y407272D01*
X631944D01*
Y406578D01*
X632291D01*
Y405883D01*
X632638D01*
Y405189D01*
X632985D01*
Y404495D01*
X633332D01*
Y403801D01*
X633679D01*
Y403106D01*
X634026D01*
Y402412D01*
X634374D01*
Y401718D01*
X634721D01*
Y400676D01*
X635068D01*
Y399982D01*
X635415D01*
Y399288D01*
X635762D01*
Y398247D01*
X636109D01*
Y397205D01*
X636456D01*
Y396164D01*
X636803D01*
Y395122D01*
X637150D01*
Y394081D01*
X637498D01*
Y392692D01*
X637845D01*
Y391304D01*
X638192D01*
Y389568D01*
X638539D01*
Y387833D01*
X638886D01*
Y384708D01*
X639233D01*
Y374989D01*
X638886D01*
Y371865D01*
X638539D01*
Y370129D01*
X638192D01*
Y368393D01*
X637845D01*
Y367005D01*
X637498D01*
Y365963D01*
X637150D01*
Y364575D01*
X636803D01*
Y363533D01*
X636456D01*
Y362492D01*
X636109D01*
Y361798D01*
X635762D01*
Y360756D01*
X635415D01*
Y360062D01*
X635068D01*
Y359021D01*
X634721D01*
Y358326D01*
X634374D01*
Y357632D01*
X634026D01*
Y356938D01*
X633679D01*
Y356244D01*
X633332D01*
Y355549D01*
X632985D01*
Y355202D01*
X632638D01*
Y354508D01*
X632291D01*
Y353814D01*
X631944D01*
Y353466D01*
X631596D01*
Y352772D01*
X631249D01*
Y352425D01*
X630902D01*
Y351731D01*
X630555D01*
Y351036D01*
X630208D01*
Y350689D01*
X629861D01*
Y350342D01*
X629514D01*
Y349648D01*
X629166D01*
Y349301D01*
X628819D01*
Y348954D01*
X628472D01*
Y348259D01*
X628125D01*
Y347912D01*
X627778D01*
Y347565D01*
X627431D01*
Y347218D01*
X627084D01*
Y346871D01*
X626736D01*
Y346177D01*
X626389D01*
Y345830D01*
X626042D01*
Y345482D01*
X625695D01*
Y345135D01*
X625348D01*
Y344788D01*
X625001D01*
Y344441D01*
X624654D01*
Y344094D01*
X624307D01*
Y343747D01*
X623960D01*
Y343400D01*
X623612D01*
Y343052D01*
X623265D01*
Y342705D01*
X622918D01*
Y342011D01*
X623265D01*
Y342358D01*
X625348D01*
Y342705D01*
X628472D01*
Y343052D01*
X631944D01*
Y343400D01*
X644788D01*
Y343052D01*
X648259D01*
Y342705D01*
X650342D01*
Y342358D01*
X652077D01*
Y342011D01*
X653119D01*
Y341664D01*
X654160D01*
Y341317D01*
X655201D01*
Y340970D01*
X655896D01*
Y340622D01*
X656243D01*
Y340275D01*
X656937D01*
Y339928D01*
X657284D01*
Y339581D01*
X657631D01*
Y339234D01*
X657979D01*
Y338887D01*
X658326D01*
Y337845D01*
X658673D01*
Y334721D01*
X658326D01*
Y332638D01*
X657979D01*
Y331597D01*
X657631D01*
Y330556D01*
X657284D01*
Y329861D01*
X656937D01*
Y328820D01*
X656590D01*
Y328126D01*
X656243D01*
Y327431D01*
X655896D01*
Y326737D01*
X655549D01*
Y326043D01*
X655201D01*
Y325349D01*
X654854D01*
Y324654D01*
X654507D01*
Y323960D01*
X654160D01*
Y323613D01*
X653813D01*
Y322919D01*
X653466D01*
Y322224D01*
X653119D01*
Y321877D01*
X652772D01*
Y321183D01*
X652424D01*
Y320836D01*
X652077D01*
Y320142D01*
X651730D01*
Y319795D01*
X651383D01*
Y319447D01*
X651036D01*
Y318753D01*
X650689D01*
Y318406D01*
X650342D01*
Y318059D01*
X649995D01*
Y317365D01*
X649647D01*
Y317017D01*
X649300D01*
Y316670D01*
X648953D01*
Y316323D01*
X648606D01*
Y315976D01*
X648259D01*
Y315282D01*
X647912D01*
Y314935D01*
X647564D01*
Y314587D01*
X647217D01*
Y314240D01*
X646870D01*
Y313893D01*
X646523D01*
Y313546D01*
X646176D01*
Y313199D01*
X645829D01*
Y312852D01*
X645482D01*
Y312505D01*
X645135D01*
Y312157D01*
X644788D01*
Y311810D01*
X644440D01*
Y311463D01*
X644093D01*
Y311116D01*
X643746D01*
Y310769D01*
X643399D01*
Y310422D01*
X643052D01*
Y310075D01*
X642705D01*
Y309728D01*
X642357D01*
Y309380D01*
X642010D01*
Y309033D01*
X641663D01*
Y308686D01*
X641316D01*
Y308339D01*
X640622D01*
Y307992D01*
X640275D01*
Y307645D01*
X639928D01*
Y307298D01*
X639580D01*
Y306950D01*
X638886D01*
Y306603D01*
X638539D01*
Y301744D01*
X638192D01*
Y300008D01*
X638539D01*
Y299661D01*
X639928D01*
Y300008D01*
X640275D01*
Y299661D01*
X640969D01*
Y300008D01*
X641316D01*
Y299661D01*
X645135D01*
Y299314D01*
X646870D01*
Y298967D01*
X647912D01*
Y298619D01*
X648606D01*
Y298272D01*
X648953D01*
Y297925D01*
X649300D01*
Y297231D01*
X649647D01*
Y293065D01*
X649300D01*
Y291677D01*
X648953D01*
Y290635D01*
X648606D01*
Y289594D01*
X648259D01*
Y288900D01*
X647912D01*
Y288205D01*
X647564D01*
Y287511D01*
X647217D01*
Y286817D01*
X646870D01*
Y286122D01*
X646523D01*
Y285428D01*
X646176D01*
Y284734D01*
X645829D01*
Y284040D01*
X645482D01*
Y283346D01*
X645135D01*
Y282998D01*
X644788D01*
Y282304D01*
X644440D01*
Y281610D01*
X644093D01*
Y281263D01*
X643746D01*
Y280568D01*
X643399D01*
Y280221D01*
X643052D01*
Y279527D01*
X642705D01*
Y279180D01*
X642357D01*
Y278486D01*
X642010D01*
Y278139D01*
X641663D01*
Y277791D01*
X641316D01*
Y277444D01*
X640969D01*
Y276750D01*
X640622D01*
Y276403D01*
X640275D01*
Y276056D01*
X639928D01*
Y275361D01*
X639580D01*
Y275014D01*
X639233D01*
Y274667D01*
X638886D01*
Y274320D01*
X638539D01*
Y273973D01*
X638192D01*
Y273626D01*
X637845D01*
Y272931D01*
X637498D01*
Y272584D01*
X637150D01*
Y272237D01*
X636803D01*
Y271890D01*
X636456D01*
Y271543D01*
X636109D01*
Y271196D01*
X635762D01*
Y270849D01*
X635415D01*
Y270501D01*
X635068D01*
Y270154D01*
X634721D01*
Y269807D01*
X634374D01*
Y269460D01*
X633679D01*
Y269113D01*
X633332D01*
Y268766D01*
X632985D01*
Y268419D01*
X632638D01*
Y268072D01*
X632291D01*
Y267724D01*
X631944D01*
Y267377D01*
X631596D01*
Y267030D01*
X631249D01*
Y266336D01*
X630902D01*
Y265294D01*
X630555D01*
Y264600D01*
X630208D01*
Y263906D01*
X629861D01*
Y263212D01*
X629514D01*
Y262518D01*
X629166D01*
Y261823D01*
X628819D01*
Y261129D01*
X628472D01*
Y260782D01*
X628125D01*
Y260088D01*
X627778D01*
Y259740D01*
X627431D01*
Y259393D01*
X627084D01*
Y258699D01*
X626736D01*
Y258352D01*
X626389D01*
Y258005D01*
X626042D01*
Y257658D01*
X625695D01*
Y257311D01*
X625348D01*
Y256963D01*
X625001D01*
Y256616D01*
X624654D01*
Y256269D01*
X624307D01*
Y255922D01*
X623960D01*
Y255575D01*
X623612D01*
Y255228D01*
X622918D01*
Y254881D01*
X622571D01*
Y254533D01*
X622224D01*
Y254186D01*
X621530D01*
Y253839D01*
X621182D01*
Y253492D01*
X620488D01*
Y253145D01*
X619794D01*
Y252798D01*
X619100D01*
Y252451D01*
X618405D01*
Y252104D01*
X617364D01*
Y251756D01*
X616323D01*
Y251409D01*
X614587D01*
Y251062D01*
X609033D01*
Y251409D01*
X606950D01*
Y251756D01*
X605909D01*
Y252104D01*
X604867D01*
Y252451D01*
X604173D01*
Y252798D01*
X603479D01*
Y253145D01*
X602784D01*
Y253492D01*
X602090D01*
Y253839D01*
X601396D01*
Y254186D01*
X601049D01*
Y254533D01*
X600354D01*
Y254881D01*
X599660D01*
Y255228D01*
X598966D01*
Y254881D01*
X598619D01*
Y254186D01*
X598272D01*
Y253492D01*
X597924D01*
Y253145D01*
X597577D01*
Y252451D01*
X597230D01*
Y252104D01*
X596883D01*
Y251756D01*
X596536D01*
Y251062D01*
X596189D01*
Y250715D01*
X595842D01*
Y250368D01*
X595494D01*
Y250021D01*
X595147D01*
Y249674D01*
X594800D01*
Y249326D01*
X594453D01*
Y248979D01*
X594106D01*
Y248632D01*
X593759D01*
Y248285D01*
X593412D01*
Y247938D01*
X593065D01*
Y247591D01*
X592718D01*
Y247244D01*
X592370D01*
Y246896D01*
X591676D01*
Y246549D01*
X591329D01*
Y246202D01*
X590982D01*
Y245855D01*
X590288D01*
Y245508D01*
X589940D01*
Y245161D01*
X589593D01*
Y244466D01*
X589940D01*
Y244119D01*
X590288D01*
Y243425D01*
X590635D01*
Y243078D01*
X590982D01*
Y242384D01*
X591329D01*
Y241689D01*
X591676D01*
Y241342D01*
X592023D01*
Y240648D01*
X592370D01*
Y239954D01*
X592718D01*
Y239259D01*
X593065D01*
Y238912D01*
X593412D01*
Y237871D01*
X593759D01*
Y237177D01*
X594106D01*
Y236483D01*
X594453D01*
Y235788D01*
X594800D01*
Y235094D01*
X595147D01*
Y234400D01*
X595494D01*
Y233705D01*
X595842D01*
Y233011D01*
X596189D01*
Y231970D01*
X596536D01*
Y231276D01*
X596883D01*
Y230234D01*
X597230D01*
Y229540D01*
X597577D01*
Y228498D01*
X597924D01*
Y227457D01*
X598272D01*
Y226416D01*
X598619D01*
Y225374D01*
X598966D01*
Y224333D01*
X599313D01*
Y223291D01*
X599660D01*
Y221903D01*
X600007D01*
Y220514D01*
X600354D01*
Y218779D01*
X600701D01*
Y217390D01*
X601049D01*
Y214613D01*
X601396D01*
Y211142D01*
X601743D01*
Y206282D01*
X601396D01*
Y203505D01*
X601049D01*
Y201769D01*
X600701D01*
Y200381D01*
X600354D01*
Y199339D01*
X600007D01*
Y198645D01*
X599660D01*
Y197951D01*
X599313D01*
Y197256D01*
X598966D01*
Y196909D01*
X598619D01*
Y196215D01*
X598272D01*
Y195868D01*
X597924D01*
Y195174D01*
X597577D01*
Y194827D01*
X597230D01*
Y194479D01*
X596536D01*
Y194132D01*
X596189D01*
Y193785D01*
X595842D01*
Y193438D01*
X595147D01*
Y193091D01*
X594453D01*
Y192744D01*
X593759D01*
Y192397D01*
X592718D01*
Y192049D01*
X590982D01*
Y191702D01*
X587510D01*
Y192049D01*
X585775D01*
Y192397D01*
X584386D01*
Y192744D01*
X583345D01*
Y193091D01*
X582651D01*
Y193438D01*
X581956D01*
Y193785D01*
X581262D01*
Y194132D01*
X580568D01*
Y194479D01*
X580221D01*
Y194827D01*
X579526D01*
Y195174D01*
X579179D01*
Y195521D01*
X578485D01*
Y195868D01*
X578138D01*
Y196215D01*
X577791D01*
Y196562D01*
X577444D01*
Y196909D01*
X577096D01*
Y197256D01*
X576749D01*
Y197603D01*
X576055D01*
Y198298D01*
X575361D01*
Y198992D01*
X575014D01*
Y199339D01*
X574666D01*
Y199686D01*
X574319D01*
Y200033D01*
X573972D01*
Y200381D01*
X573625D01*
Y200728D01*
X573278D01*
Y201422D01*
X572931D01*
Y201769D01*
X572584D01*
Y202116D01*
X572237D01*
Y202463D01*
X571889D01*
Y203158D01*
X571542D01*
Y203505D01*
X571195D01*
Y204199D01*
X570848D01*
Y204893D01*
X570501D01*
Y205240D01*
X570154D01*
Y205935D01*
X569807D01*
Y206629D01*
X569459D01*
Y206976D01*
X569112D01*
Y207670D01*
X568765D01*
Y208365D01*
X568418D01*
Y209059D01*
X568071D01*
Y209753D01*
X567724D01*
Y210448D01*
X567377D01*
Y211142D01*
X567030D01*
Y212183D01*
X566683D01*
Y212877D01*
X566335D01*
Y213919D01*
X565988D01*
Y214960D01*
X565641D01*
Y216002D01*
X565294D01*
Y217043D01*
X564947D01*
Y218084D01*
X564600D01*
Y219473D01*
X564253D01*
Y220861D01*
X563905D01*
Y222250D01*
X563558D01*
Y223986D01*
X563211D01*
Y226416D01*
X562864D01*
Y228846D01*
X562517D01*
Y234053D01*
X562170D01*
Y234400D01*
X561823D01*
Y234747D01*
X561475D01*
Y235094D01*
X561128D01*
Y235441D01*
X560781D01*
Y235788D01*
X560434D01*
Y236135D01*
X559740D01*
Y236483D01*
X558698D01*
Y236135D01*
X553491D01*
Y236483D01*
X550367D01*
Y236830D01*
X548632D01*
Y237177D01*
X546896D01*
Y237524D01*
X545507D01*
Y237871D01*
X544119D01*
Y238218D01*
X543077D01*
Y238565D01*
X542036D01*
Y238912D01*
X540995D01*
Y239259D01*
X539953D01*
Y239607D01*
X538912D01*
Y239954D01*
X538218D01*
Y240301D01*
X537523D01*
Y240648D01*
X536482D01*
Y240995D01*
X535788D01*
Y241342D01*
X535093D01*
Y241689D01*
X534399D01*
Y242037D01*
X533705D01*
Y242384D01*
X533010D01*
Y242731D01*
X532316D01*
Y243078D01*
X531622D01*
Y243425D01*
X530928D01*
Y243772D01*
X530233D01*
Y244119D01*
X529886D01*
Y244466D01*
X529192D01*
Y244814D01*
X528845D01*
Y245161D01*
X528151D01*
Y245508D01*
X527803D01*
Y245855D01*
X527109D01*
Y246202D01*
X526762D01*
Y246549D01*
X526068D01*
Y246896D01*
X525721D01*
Y247244D01*
X525027D01*
Y247591D01*
X524679D01*
Y247938D01*
X524332D01*
Y248285D01*
X523985D01*
Y248632D01*
X523291D01*
Y248979D01*
X522944D01*
Y249326D01*
X522597D01*
Y249674D01*
X522249D01*
Y250021D01*
X520861D01*
Y249674D01*
X519819D01*
Y249326D01*
X518778D01*
Y248979D01*
X517389D01*
Y248632D01*
X516001D01*
Y248285D01*
X513571D01*
Y247938D01*
X513224D01*
Y248285D01*
X512530D01*
Y247938D01*
X511141D01*
Y248285D01*
X508364D01*
Y247938D01*
X507670D01*
Y247591D01*
X506976D01*
Y247244D01*
X505934D01*
Y246896D01*
X501421D01*
Y247244D01*
X500033D01*
Y247591D01*
X499339D01*
Y247938D01*
X498644D01*
Y248285D01*
X497950D01*
Y248632D01*
X497256D01*
Y248979D01*
X496562D01*
Y249326D01*
X496214D01*
Y249674D01*
X495867D01*
Y250021D01*
X495173D01*
Y250368D01*
X494826D01*
Y250715D01*
X494479D01*
Y251062D01*
X494132D01*
Y251409D01*
X493784D01*
Y251756D01*
X493437D01*
Y252104D01*
X493090D01*
Y252451D01*
X492743D01*
Y252798D01*
X492396D01*
Y253145D01*
X492049D01*
Y253492D01*
X491702D01*
Y253839D01*
X491354D01*
Y254186D01*
X491007D01*
Y254533D01*
X490660D01*
Y254881D01*
X490313D01*
Y255575D01*
X489966D01*
Y255922D01*
X489619D01*
Y256269D01*
X489272D01*
Y256616D01*
X488925D01*
Y257311D01*
X488577D01*
Y257658D01*
X488230D01*
Y258005D01*
X487883D01*
Y258699D01*
X487536D01*
Y259393D01*
X487189D01*
Y259740D01*
X486842D01*
Y260435D01*
X486495D01*
Y260782D01*
X486147D01*
Y261476D01*
X485800D01*
Y262170D01*
X485453D01*
Y262518D01*
X485106D01*
Y263212D01*
X484759D01*
Y263906D01*
X484412D01*
Y264600D01*
X484065D01*
Y265294D01*
X483718D01*
Y265989D01*
X483371D01*
Y266683D01*
X483023D01*
Y267377D01*
X482676D01*
Y268072D01*
X482329D01*
Y268766D01*
X481982D01*
Y269460D01*
X481635D01*
Y270501D01*
X481288D01*
Y271196D01*
X480941D01*
Y272237D01*
X480593D01*
Y272931D01*
X480246D01*
Y273973D01*
X479899D01*
Y275014D01*
X479552D01*
Y275709D01*
X479205D01*
Y276750D01*
X478858D01*
Y277791D01*
X478511D01*
Y279180D01*
X478163D01*
Y280221D01*
X477816D01*
Y281610D01*
X477469D01*
Y282998D01*
X477122D01*
Y284734D01*
X476775D01*
Y286470D01*
X476428D01*
Y288900D01*
X476081D01*
Y296189D01*
X476428D01*
Y297925D01*
X476775D01*
Y299314D01*
X477122D01*
Y300355D01*
X477469D01*
Y301049D01*
X477816D01*
Y301744D01*
X478163D01*
Y302438D01*
X478511D01*
Y302785D01*
X478858D01*
Y303479D01*
X479205D01*
Y303826D01*
X479552D01*
Y304174D01*
X479899D01*
Y304521D01*
X480246D01*
Y304868D01*
X480941D01*
Y305215D01*
X481288D01*
Y305562D01*
X481982D01*
Y305909D01*
X482676D01*
Y306256D01*
X484412D01*
Y306603D01*
X487189D01*
Y306256D01*
X488925D01*
Y305909D01*
X490313D01*
Y305562D01*
X491007D01*
Y305215D01*
X491702D01*
Y304868D01*
X492743D01*
Y304521D01*
X493090D01*
Y304174D01*
X493784D01*
Y303826D01*
X494826D01*
Y304868D01*
X495173D01*
Y306256D01*
X495520D01*
Y307645D01*
X495867D01*
Y308686D01*
X496214D01*
Y309728D01*
X496562D01*
Y310422D01*
X496909D01*
Y311463D01*
X497256D01*
Y312157D01*
X497603D01*
Y312852D01*
X497950D01*
Y313893D01*
X498297D01*
Y314587D01*
X498644D01*
Y315282D01*
X498992D01*
Y315976D01*
X499339D01*
Y316670D01*
X499686D01*
Y317017D01*
X500033D01*
Y317712D01*
X500380D01*
Y318406D01*
X500727D01*
Y318753D01*
X501074D01*
Y319447D01*
X501421D01*
Y319795D01*
X501768D01*
Y320489D01*
X502116D01*
Y320836D01*
X502463D01*
Y321530D01*
X502810D01*
Y321877D01*
X503157D01*
Y322224D01*
X503504D01*
Y322919D01*
X503851D01*
Y323266D01*
X504198D01*
Y323960D01*
X504546D01*
Y324307D01*
X504893D01*
Y324654D01*
X505240D01*
Y325001D01*
X505587D01*
Y325696D01*
X505934D01*
Y326043D01*
X506281D01*
Y326390D01*
X506628D01*
Y327084D01*
X506281D01*
Y327779D01*
X505934D01*
Y329167D01*
X505587D01*
Y330556D01*
X505240D01*
Y331597D01*
X504893D01*
Y331944D01*
X504546D01*
Y332291D01*
X504198D01*
Y332638D01*
X503851D01*
Y333333D01*
X503504D01*
Y333680D01*
X503157D01*
Y334027D01*
X502810D01*
Y334374D01*
X502463D01*
Y334721D01*
X502116D01*
Y335068D01*
X501768D01*
Y335763D01*
X501421D01*
Y336110D01*
X501074D01*
Y336457D01*
X500727D01*
Y336804D01*
X500380D01*
Y337498D01*
X500033D01*
Y337845D01*
X499686D01*
Y338192D01*
X499339D01*
Y338540D01*
X498992D01*
Y339234D01*
X498644D01*
Y339581D01*
X498297D01*
Y339928D01*
X497950D01*
Y340622D01*
X497603D01*
Y340970D01*
X497256D01*
Y341664D01*
X496909D01*
Y342011D01*
X496562D01*
Y342358D01*
X496214D01*
Y343052D01*
X495867D01*
Y343400D01*
X495520D01*
Y344094D01*
X495173D01*
Y344441D01*
X494826D01*
Y345135D01*
X494479D01*
Y345830D01*
X494132D01*
Y346177D01*
X493784D01*
Y346871D01*
X493437D01*
Y347218D01*
X493090D01*
Y347912D01*
X492743D01*
Y348259D01*
X492396D01*
Y348954D01*
X492049D01*
Y349648D01*
X491702D01*
Y349995D01*
X491354D01*
Y350689D01*
X491007D01*
Y351384D01*
X490660D01*
Y352078D01*
X490313D01*
Y352772D01*
X489966D01*
Y353466D01*
X489619D01*
Y354161D01*
X489272D01*
Y354855D01*
X488925D01*
Y355549D01*
X488577D01*
Y356244D01*
X488230D01*
Y356938D01*
X487883D01*
Y357632D01*
X487536D01*
Y358326D01*
X487189D01*
Y359021D01*
X486842D01*
Y359715D01*
X486495D01*
Y360409D01*
X486147D01*
Y361451D01*
X485800D01*
Y362145D01*
X485453D01*
Y363186D01*
X485106D01*
Y363880D01*
X484759D01*
Y364922D01*
X484412D01*
Y365616D01*
X484065D01*
Y366657D01*
X483718D01*
Y367699D01*
X483371D01*
Y368740D01*
X483023D01*
Y369782D01*
X482676D01*
Y371170D01*
X482329D01*
Y372212D01*
X481982D01*
Y373600D01*
X481635D01*
Y374989D01*
X481288D01*
Y376377D01*
X480941D01*
Y378460D01*
X480593D01*
Y380543D01*
X480246D01*
Y384014D01*
X479899D01*
Y387486D01*
X480246D01*
Y390262D01*
X480593D01*
Y391651D01*
X480941D01*
Y392345D01*
X481288D01*
Y393040D01*
X481635D01*
Y393387D01*
X481982D01*
Y393734D01*
X482676D01*
Y394081D01*
X483371D01*
Y394428D01*
X485453D01*
Y394775D01*
X486842D01*
Y394428D01*
X489272D01*
Y394081D01*
X490313D01*
Y393734D01*
X491702D01*
Y393387D01*
X492396D01*
Y393040D01*
X493437D01*
Y392692D01*
X494132D01*
Y392345D01*
X495173D01*
Y391998D01*
X495867D01*
Y391651D01*
X496562D01*
Y391304D01*
X497256D01*
Y390957D01*
X497950D01*
Y390610D01*
X498644D01*
Y390262D01*
X498992D01*
Y389915D01*
X499686D01*
Y389568D01*
X500380D01*
Y390262D01*
X500727D01*
Y390610D01*
X500380D01*
Y392345D01*
X500727D01*
Y397205D01*
X501074D01*
Y399635D01*
X501421D01*
Y401371D01*
X501768D01*
Y402759D01*
X502116D01*
Y404148D01*
X502463D01*
Y405536D01*
X502810D01*
Y406578D01*
X503157D01*
Y407619D01*
X503504D01*
Y408313D01*
X503851D01*
Y409355D01*
X504198D01*
Y410049D01*
X504546D01*
Y411091D01*
X504893D01*
Y411785D01*
X505240D01*
Y412479D01*
X505587D01*
Y413173D01*
X505934D01*
Y413868D01*
X506281D01*
Y414562D01*
X506628D01*
Y415256D01*
X506976D01*
Y415950D01*
X507323D01*
Y416297D01*
X507670D01*
Y416992D01*
X508017D01*
Y417686D01*
X508364D01*
Y418033D01*
X508711D01*
Y418727D01*
X509058D01*
Y419075D01*
X509406D01*
Y419422D01*
X509753D01*
Y420116D01*
X510100D01*
Y420463D01*
X510447D01*
Y421157D01*
X510794D01*
Y421505D01*
X511141D01*
Y421852D01*
X511488D01*
Y422546D01*
X511835D01*
Y422893D01*
X512183D01*
Y423240D01*
X512530D01*
Y423587D01*
X512877D01*
Y423935D01*
X513224D01*
Y424629D01*
X513571D01*
Y424976D01*
X513918D01*
Y425323D01*
X514265D01*
Y425670D01*
X514613D01*
Y426017D01*
X514960D01*
Y426364D01*
X515307D01*
Y426712D01*
X515654D01*
Y427059D01*
X516001D01*
Y427406D01*
X516348D01*
Y427753D01*
X516695D01*
Y428100D01*
X517042D01*
Y428447D01*
X517737D01*
Y428794D01*
X518084D01*
Y429142D01*
X518431D01*
Y429489D01*
X518778D01*
Y429836D01*
X519125D01*
Y430183D01*
X519472D01*
Y430530D01*
X520167D01*
Y430877D01*
X520514D01*
Y431224D01*
X520861D01*
Y431571D01*
X521208D01*
Y431918D01*
X521902D01*
Y432266D01*
X522249D01*
Y432613D01*
X522944D01*
Y432960D01*
X523291D01*
Y433307D01*
X523638D01*
Y433654D01*
X524332D01*
Y434001D01*
X525027D01*
Y434348D01*
X525374D01*
Y434696D01*
X526068D01*
Y435043D01*
X526415D01*
Y435390D01*
X527109D01*
Y435737D01*
X527803D01*
Y436084D01*
X528498D01*
Y436431D01*
X528845D01*
Y436778D01*
X529539D01*
Y437126D01*
X530233D01*
Y437473D01*
X530928D01*
Y437820D01*
X531622D01*
Y438167D01*
X532316D01*
Y438514D01*
X533010D01*
Y438861D01*
X534052D01*
Y439208D01*
X534746D01*
Y439556D01*
X535440D01*
Y439903D01*
X536482D01*
Y440250D01*
X537176D01*
Y440597D01*
X538218D01*
Y440944D01*
X539259D01*
Y441291D01*
X540300D01*
Y441638D01*
X541342D01*
Y441985D01*
X542383D01*
Y442332D01*
X543772D01*
Y442680D01*
X545160D01*
Y443027D01*
X546549D01*
Y443374D01*
X548284D01*
Y443721D01*
X550020D01*
Y444068D01*
X552103D01*
Y444415D01*
X554880D01*
Y444762D01*
X559045D01*
Y445110D01*
X568071D01*
Y444762D01*
D02*
G37*
G36*
X216153Y296577D02*
X215855D01*
Y294193D01*
X215706D01*
Y293597D01*
X215557D01*
Y293001D01*
X215408D01*
Y290467D01*
X215110D01*
Y288083D01*
X214960D01*
Y287337D01*
X214662D01*
Y284357D01*
X214364D01*
Y282419D01*
X214215D01*
Y280929D01*
X213917D01*
Y280184D01*
X205870D01*
Y280333D01*
X205422D01*
Y281078D01*
X205124D01*
Y281972D01*
X204975D01*
Y282271D01*
X204677D01*
Y283463D01*
X204379D01*
Y283910D01*
X204230D01*
Y284655D01*
X203932D01*
Y285400D01*
X203634D01*
Y285847D01*
X203485D01*
Y286592D01*
X203187D01*
Y287635D01*
X203038D01*
Y287785D01*
X202740D01*
Y288977D01*
X202442D01*
Y289573D01*
X202293D01*
Y290020D01*
X201995D01*
Y291212D01*
X201697D01*
Y291510D01*
X201548D01*
Y292106D01*
Y292255D01*
X201250D01*
Y293448D01*
X200952D01*
Y293746D01*
X200802D01*
Y294640D01*
X200504D01*
Y293895D01*
X200355D01*
Y293150D01*
X200057D01*
Y290020D01*
X199759D01*
Y288530D01*
X199610D01*
Y287039D01*
X199312D01*
Y284208D01*
X199163D01*
Y283910D01*
X199014D01*
Y283165D01*
X198865D01*
Y280780D01*
X198567D01*
Y280333D01*
X198418D01*
Y280184D01*
X195884D01*
Y282271D01*
X196183D01*
Y284953D01*
X196332D01*
Y285698D01*
X196481D01*
Y285847D01*
X196630D01*
Y288828D01*
X196928D01*
Y290467D01*
X197077D01*
Y291808D01*
X197375D01*
Y294938D01*
X197673D01*
Y296130D01*
X197822D01*
Y298068D01*
X198120D01*
Y298515D01*
X206168D01*
Y298366D01*
X206615D01*
Y297323D01*
X206913D01*
Y296875D01*
X207062D01*
Y296279D01*
X207360D01*
Y295385D01*
X207509D01*
Y295087D01*
X207658D01*
Y294938D01*
X207807D01*
Y293895D01*
X208105D01*
Y293150D01*
X208254D01*
Y293001D01*
X208403D01*
Y292703D01*
X208552D01*
Y291957D01*
X208850D01*
Y291212D01*
X208999D01*
Y290765D01*
X209297D01*
Y289573D01*
X209595D01*
Y289275D01*
X209744D01*
Y288530D01*
X210042D01*
Y287337D01*
X210340D01*
Y287039D01*
X210490D01*
Y286145D01*
X210788D01*
Y285400D01*
X210937D01*
Y285102D01*
X211235D01*
Y284208D01*
X211533D01*
Y285400D01*
X211682D01*
Y286890D01*
X211980D01*
Y289722D01*
X212129D01*
Y290020D01*
X212278D01*
Y290765D01*
X212427D01*
Y293001D01*
X212725D01*
Y295385D01*
X212874D01*
Y296130D01*
X213023D01*
Y296428D01*
X213172D01*
Y298366D01*
X213470D01*
Y298515D01*
X216153D01*
Y296577D01*
D02*
G37*
G36*
X118389Y298366D02*
X118538D01*
Y297323D01*
X118389D01*
Y297024D01*
X118240D01*
Y296279D01*
X118091D01*
Y293895D01*
X117793D01*
Y291510D01*
X117643D01*
Y290914D01*
X117494D01*
Y290765D01*
X117345D01*
Y287785D01*
X117047D01*
Y286145D01*
X116898D01*
Y285102D01*
X116600D01*
Y281972D01*
X116302D01*
Y280929D01*
X116153D01*
Y280184D01*
X22115D01*
Y280333D01*
X21966D01*
Y282419D01*
X22115D01*
Y282717D01*
X22264D01*
Y283463D01*
X22413D01*
Y285698D01*
X22711D01*
Y288083D01*
X22860D01*
Y288828D01*
X23158D01*
Y291808D01*
X23456D01*
Y293448D01*
X23605D01*
Y294938D01*
X23903D01*
Y298068D01*
X24201D01*
Y298366D01*
X24350D01*
Y298515D01*
X118389D01*
Y298366D01*
D02*
G37*
G36*
X237017Y296577D02*
X236868D01*
Y295832D01*
X236719D01*
Y295683D01*
X236570D01*
Y295385D01*
X227032D01*
Y295087D01*
X226734D01*
Y294938D01*
X226585D01*
Y294640D01*
X226287D01*
Y292703D01*
X226138D01*
Y291659D01*
X225840D01*
Y289871D01*
Y289722D01*
Y288530D01*
X225542D01*
Y287337D01*
X225393D01*
Y285400D01*
X225095D01*
Y283761D01*
X225393D01*
Y283463D01*
X225840D01*
Y283165D01*
X228820D01*
Y283463D01*
X229267D01*
Y283910D01*
X229715D01*
Y286145D01*
X230012D01*
Y288083D01*
X226883D01*
Y288232D01*
X226734D01*
Y288828D01*
X226883D01*
Y289275D01*
X227032D01*
Y291063D01*
X227330D01*
Y291212D01*
X236868D01*
Y291063D01*
X237017D01*
Y289573D01*
X236868D01*
Y289275D01*
X236719D01*
Y288828D01*
X236570D01*
Y285847D01*
X236272D01*
Y283612D01*
X236123D01*
Y282867D01*
X235974D01*
Y282717D01*
X235825D01*
Y280333D01*
X235527D01*
Y280035D01*
X221518D01*
Y280184D01*
X221220D01*
Y280333D01*
X220922D01*
Y280482D01*
X220177D01*
Y280780D01*
X219729D01*
Y281227D01*
X219282D01*
Y281972D01*
X218984D01*
Y282419D01*
X218835D01*
Y283165D01*
X218537D01*
Y284953D01*
X218835D01*
Y286145D01*
X218984D01*
Y288083D01*
X219282D01*
Y290765D01*
X219431D01*
Y291063D01*
X219580D01*
Y291659D01*
X219729D01*
Y294193D01*
X220028D01*
Y295385D01*
X220475D01*
Y296130D01*
X220773D01*
Y296577D01*
X220922D01*
Y296875D01*
X221220D01*
Y297323D01*
X221667D01*
Y297621D01*
X221965D01*
Y297770D01*
X222114D01*
Y298068D01*
X222859D01*
Y298366D01*
X223604D01*
Y298515D01*
X237017D01*
Y296577D01*
D02*
G37*
G36*
X193947Y298366D02*
X194245D01*
Y298217D01*
Y298068D01*
X193947D01*
Y295385D01*
X193798D01*
Y295087D01*
X193649D01*
Y294640D01*
X193500D01*
Y291659D01*
X193202D01*
Y290020D01*
X193053D01*
Y288530D01*
X192755D01*
Y285549D01*
X192457D01*
Y284357D01*
X192308D01*
Y282419D01*
X192010D01*
Y280184D01*
X191861D01*
Y280035D01*
X185452D01*
Y282717D01*
X185751D01*
Y283612D01*
X185900D01*
Y285698D01*
X186197D01*
Y288530D01*
X186347D01*
Y288828D01*
X186496D01*
Y289275D01*
X186645D01*
Y291957D01*
X186943D01*
Y294342D01*
X187092D01*
Y295385D01*
X187390D01*
Y298068D01*
X187688D01*
Y298366D01*
X190818D01*
Y298515D01*
X193947D01*
Y298366D01*
D02*
G37*
G36*
X182472D02*
X182770D01*
Y297621D01*
X182621D01*
Y297323D01*
X182472D01*
Y296577D01*
X182323D01*
Y295385D01*
X174722D01*
Y294938D01*
X174424D01*
Y294640D01*
X174275D01*
Y292703D01*
X173977D01*
Y290765D01*
X173828D01*
Y289722D01*
X173530D01*
Y286294D01*
X173232D01*
Y285400D01*
X173083D01*
Y283612D01*
X173232D01*
Y283463D01*
X180833D01*
Y283016D01*
X181131D01*
Y282717D01*
X180833D01*
Y280035D01*
X169208D01*
Y280184D01*
X168910D01*
Y280482D01*
X168165D01*
Y280780D01*
X167718D01*
Y281078D01*
X167420D01*
Y281227D01*
X167271D01*
Y281525D01*
X166973D01*
Y282271D01*
X166674D01*
Y286443D01*
X166973D01*
Y289275D01*
X167122D01*
Y289573D01*
X167271D01*
Y290318D01*
X167420D01*
Y292703D01*
X167718D01*
Y294640D01*
X167867D01*
Y294938D01*
X168016D01*
Y295087D01*
X168165D01*
Y295832D01*
X168463D01*
Y296428D01*
X168612D01*
Y296577D01*
X168910D01*
Y297024D01*
X169208D01*
Y297323D01*
X169655D01*
Y297770D01*
X170102D01*
Y298068D01*
X170847D01*
Y298366D01*
X171294D01*
Y298515D01*
X182472D01*
Y298366D01*
D02*
G37*
G36*
X156987Y298068D02*
X157286D01*
Y297621D01*
X157435D01*
Y296577D01*
X157733D01*
Y295087D01*
X158031D01*
Y294938D01*
X158180D01*
Y293448D01*
X158478D01*
Y292404D01*
X158627D01*
Y291957D01*
X158925D01*
Y290765D01*
X159223D01*
Y290020D01*
X159372D01*
Y289275D01*
X159670D01*
Y287785D01*
X159819D01*
Y287635D01*
X159968D01*
Y287337D01*
X160117D01*
Y286145D01*
X160415D01*
Y284953D01*
X160564D01*
Y284655D01*
X160862D01*
Y283165D01*
X161160D01*
Y282271D01*
X161310D01*
Y281674D01*
X161607D01*
Y280035D01*
X155050D01*
Y280333D01*
X154752D01*
Y280780D01*
X154603D01*
Y281525D01*
X154305D01*
Y283016D01*
X154007D01*
Y283463D01*
X153858D01*
Y284357D01*
X153560D01*
Y284953D01*
X146257D01*
Y284655D01*
X145810D01*
Y283910D01*
X145512D01*
Y283463D01*
X145363D01*
Y283165D01*
X145065D01*
Y282419D01*
X144767D01*
Y282271D01*
X144618D01*
Y281972D01*
X144320D01*
Y281227D01*
X143873D01*
Y280482D01*
X143575D01*
Y280184D01*
X143426D01*
Y280035D01*
X140445D01*
Y280780D01*
X140743D01*
Y281227D01*
X140892D01*
Y281525D01*
X141190D01*
Y281972D01*
X141339D01*
Y282271D01*
X141488D01*
Y282419D01*
X141637D01*
Y283016D01*
X141936D01*
Y283463D01*
X142233D01*
Y283612D01*
X142382D01*
Y284208D01*
X142681D01*
Y284655D01*
X142830D01*
Y284953D01*
X143128D01*
Y285549D01*
X143277D01*
Y285698D01*
X143426D01*
Y285847D01*
X143575D01*
Y286294D01*
X143873D01*
Y286890D01*
X144171D01*
Y287039D01*
X144320D01*
Y287635D01*
X144618D01*
Y288083D01*
X144767D01*
Y288381D01*
X145065D01*
Y288977D01*
X145363D01*
Y289275D01*
X145512D01*
Y289722D01*
X145810D01*
Y290318D01*
X146108D01*
Y290467D01*
X146257D01*
Y291063D01*
X146555D01*
Y291510D01*
X146705D01*
Y291659D01*
X147002D01*
Y292404D01*
X147301D01*
Y292703D01*
X147450D01*
Y293150D01*
X147748D01*
Y293746D01*
X148046D01*
Y293895D01*
X148195D01*
Y294342D01*
X148493D01*
Y294938D01*
X148642D01*
Y295087D01*
X148940D01*
Y295832D01*
X149238D01*
Y296130D01*
X149387D01*
Y296428D01*
X149536D01*
Y296577D01*
X149685D01*
Y297174D01*
X149983D01*
Y297323D01*
X150132D01*
Y297770D01*
X150430D01*
Y298366D01*
X156987D01*
Y298068D01*
D02*
G37*
G36*
X134782Y298366D02*
X135825D01*
Y298068D01*
X137017D01*
Y297621D01*
X137316D01*
Y297323D01*
X137614D01*
Y297174D01*
X137763D01*
Y296130D01*
X138061D01*
Y294640D01*
X137763D01*
Y291808D01*
X137614D01*
Y291212D01*
X137465D01*
Y290467D01*
X137316D01*
Y289573D01*
X137017D01*
Y288828D01*
X136570D01*
Y288530D01*
X136272D01*
Y288381D01*
X136123D01*
Y288232D01*
X135825D01*
Y288083D01*
X134633D01*
Y287337D01*
X135080D01*
Y286145D01*
X135378D01*
Y285400D01*
X135527D01*
Y285102D01*
X135825D01*
Y283910D01*
X136123D01*
Y283463D01*
X136272D01*
Y282717D01*
X136570D01*
Y281674D01*
X136719D01*
Y281525D01*
X137017D01*
Y280333D01*
X137316D01*
Y280184D01*
X137017D01*
Y280035D01*
X130162D01*
Y280184D01*
X130013D01*
Y280780D01*
X129715D01*
Y281972D01*
X129566D01*
Y282271D01*
X129417D01*
Y282419D01*
X129268D01*
Y283910D01*
X128970D01*
Y284655D01*
X128821D01*
Y285400D01*
X128523D01*
Y286592D01*
X128225D01*
Y287337D01*
X128076D01*
Y288083D01*
X126138D01*
Y287337D01*
X125840D01*
Y284953D01*
X125691D01*
Y284357D01*
X125542D01*
Y283463D01*
X125393D01*
Y281227D01*
X125095D01*
Y280035D01*
X118538D01*
Y281227D01*
X118836D01*
Y283016D01*
X118985D01*
Y284655D01*
X119283D01*
Y287039D01*
X119432D01*
Y287635D01*
X119581D01*
Y288381D01*
X119730D01*
Y290765D01*
X120028D01*
Y293448D01*
X120177D01*
Y293746D01*
X120326D01*
Y294193D01*
X120475D01*
Y296875D01*
X120773D01*
Y298366D01*
X120922D01*
Y298515D01*
X134782D01*
Y298366D01*
D02*
G37*
G36*
X115706Y278247D02*
X115855D01*
Y276607D01*
X115706D01*
Y275862D01*
X115408D01*
Y273180D01*
X115110D01*
Y273030D01*
X114961D01*
Y272882D01*
X110043D01*
Y271689D01*
X109745D01*
Y270050D01*
X109596D01*
Y268560D01*
X109298D01*
Y267815D01*
X103933D01*
Y268560D01*
X104231D01*
Y270497D01*
X104380D01*
Y271987D01*
X104678D01*
Y272882D01*
X99611D01*
Y272434D01*
X99313D01*
Y269752D01*
X99164D01*
Y269305D01*
X99015D01*
Y268858D01*
X98866D01*
Y267815D01*
X93500D01*
Y268858D01*
X93650D01*
Y269305D01*
X93799D01*
Y269752D01*
X93948D01*
Y272285D01*
X94246D01*
Y272733D01*
X93948D01*
Y272882D01*
X89179D01*
Y272733D01*
X88881D01*
Y269752D01*
X88582D01*
Y268113D01*
X88434D01*
Y267815D01*
X83068D01*
Y268560D01*
X83217D01*
Y270050D01*
X83516D01*
Y272882D01*
X78597D01*
Y272136D01*
X78448D01*
Y270497D01*
X78150D01*
Y267815D01*
X72785D01*
Y270497D01*
X73083D01*
Y272434D01*
X73232D01*
Y272733D01*
X73083D01*
Y272882D01*
X68165D01*
Y271689D01*
X68016D01*
Y271242D01*
X67867D01*
Y270944D01*
X67718D01*
Y268262D01*
X67420D01*
Y267815D01*
X62055D01*
Y268113D01*
X62353D01*
Y270944D01*
X62502D01*
Y271242D01*
X62651D01*
Y271987D01*
X62800D01*
Y272733D01*
X62651D01*
Y272882D01*
X57733D01*
Y271987D01*
X57435D01*
Y270050D01*
X57286D01*
Y268560D01*
X56988D01*
Y267815D01*
X51623D01*
Y268858D01*
X51921D01*
Y270497D01*
X52070D01*
Y271987D01*
X52368D01*
Y272882D01*
X47301D01*
Y272434D01*
X47003D01*
Y269752D01*
X46854D01*
Y269305D01*
X46705D01*
Y268858D01*
X46556D01*
Y267815D01*
X41191D01*
Y268858D01*
X41340D01*
Y269305D01*
X41489D01*
Y269752D01*
X41638D01*
Y272285D01*
X41936D01*
Y272733D01*
X41638D01*
Y272882D01*
X36869D01*
Y272733D01*
X36571D01*
Y269752D01*
X36273D01*
Y268113D01*
X36124D01*
Y267815D01*
X30759D01*
Y268560D01*
X30908D01*
Y270050D01*
X31206D01*
Y272882D01*
X26288D01*
Y271987D01*
X26139D01*
Y270497D01*
X25841D01*
Y267815D01*
X20475D01*
Y270795D01*
X20774D01*
Y272434D01*
X20923D01*
Y273030D01*
X21221D01*
Y273180D01*
X26139D01*
Y273478D01*
X26288D01*
Y274968D01*
X26586D01*
Y277799D01*
X26735D01*
Y278098D01*
X27033D01*
Y278396D01*
X31951D01*
Y278098D01*
X32100D01*
Y277799D01*
X31951D01*
Y274819D01*
X31653D01*
Y273180D01*
X36571D01*
Y273925D01*
X36720D01*
Y274223D01*
X36869D01*
Y274670D01*
X37018D01*
Y277352D01*
X37316D01*
Y278098D01*
X37465D01*
Y278247D01*
Y278396D01*
X42383D01*
Y278098D01*
X42681D01*
Y277352D01*
X42383D01*
Y274670D01*
X42234D01*
Y274372D01*
X42085D01*
Y273776D01*
X41936D01*
Y273180D01*
X47003D01*
Y273925D01*
X47301D01*
Y275415D01*
X47450D01*
Y276905D01*
X47748D01*
Y278396D01*
X52666D01*
Y278247D01*
X52815D01*
Y278098D01*
X53113D01*
Y276607D01*
X52815D01*
Y275117D01*
X52666D01*
Y273627D01*
X52368D01*
Y273180D01*
X57733D01*
Y275862D01*
X57882D01*
Y276160D01*
X58031D01*
Y276607D01*
X58180D01*
Y278247D01*
X58627D01*
Y278396D01*
X63396D01*
Y278247D01*
X63545D01*
Y276607D01*
X63396D01*
Y276309D01*
X63247D01*
Y275862D01*
X63098D01*
Y273180D01*
X68165D01*
Y275415D01*
X68463D01*
Y277352D01*
X68612D01*
Y278098D01*
X68910D01*
Y278396D01*
X73829D01*
Y278098D01*
X73977D01*
Y277054D01*
X73829D01*
Y275564D01*
X73530D01*
Y273180D01*
X78448D01*
Y273478D01*
X78597D01*
Y274968D01*
X78896D01*
Y277799D01*
X79044D01*
Y278098D01*
X79343D01*
Y278396D01*
X84261D01*
Y278098D01*
X84559D01*
Y277799D01*
X84261D01*
Y274819D01*
X83962D01*
Y273180D01*
X88881D01*
Y273925D01*
X89030D01*
Y274223D01*
X89179D01*
Y274670D01*
X89328D01*
Y277352D01*
X89626D01*
Y278098D01*
X89775D01*
Y278396D01*
X94693D01*
Y278098D01*
X94991D01*
Y277352D01*
X94693D01*
Y274670D01*
X94544D01*
Y274372D01*
X94395D01*
Y273776D01*
X94246D01*
Y273180D01*
X99313D01*
Y273478D01*
X99611D01*
Y275415D01*
X99760D01*
Y276905D01*
X100058D01*
Y278396D01*
X105423D01*
Y276607D01*
X105125D01*
Y274968D01*
X104976D01*
Y273627D01*
X104678D01*
Y273180D01*
X110043D01*
Y275862D01*
X110192D01*
Y276160D01*
X110341D01*
Y276607D01*
X110490D01*
Y278098D01*
X110788D01*
Y278247D01*
X110937D01*
Y278396D01*
X115706D01*
Y278247D01*
D02*
G37*
G36*
X235378Y276607D02*
X235080D01*
Y273925D01*
X234931D01*
Y273627D01*
X234781D01*
Y272882D01*
X234632D01*
Y270944D01*
X234335D01*
Y268262D01*
X234185D01*
Y267815D01*
X233887D01*
Y267516D01*
X117047D01*
Y269603D01*
X117345D01*
Y272136D01*
X117494D01*
Y272733D01*
X117643D01*
Y273030D01*
X117793D01*
Y275713D01*
X118091D01*
Y278098D01*
X235378D01*
Y276607D01*
D02*
G37*
%LPC*%
G36*
X568071Y425323D02*
X567377D01*
Y424976D01*
X567030D01*
Y424629D01*
X566335D01*
Y424282D01*
X565988D01*
Y423935D01*
X565294D01*
Y423587D01*
X564947D01*
Y423240D01*
X564253D01*
Y422893D01*
X563905D01*
Y422546D01*
X563211D01*
Y422199D01*
X562517D01*
Y421852D01*
X562170D01*
Y421505D01*
X561823D01*
Y421157D01*
X561128D01*
Y420810D01*
X560781D01*
Y420463D01*
X560087D01*
Y420116D01*
X559740D01*
Y419769D01*
X559045D01*
Y419422D01*
X558698D01*
Y419075D01*
X558004D01*
Y418727D01*
X557310D01*
Y418380D01*
X556963D01*
Y418033D01*
X556616D01*
Y417686D01*
X555921D01*
Y417339D01*
X555574D01*
Y416992D01*
X554880D01*
Y416645D01*
X554186D01*
Y416297D01*
X553839D01*
Y415950D01*
X553491D01*
Y415603D01*
X552797D01*
Y415256D01*
X552450D01*
Y414909D01*
X551756D01*
Y414562D01*
X550367D01*
Y414909D01*
X550020D01*
Y415256D01*
X549673D01*
Y415603D01*
X549326D01*
Y415950D01*
X548979D01*
Y416297D01*
X548632D01*
Y416645D01*
X547937D01*
Y416992D01*
X547590D01*
Y417339D01*
X547243D01*
Y417686D01*
X546549D01*
Y418033D01*
X546202D01*
Y418380D01*
X545507D01*
Y418727D01*
X545160D01*
Y419075D01*
X544119D01*
Y419422D01*
X543772D01*
Y419769D01*
X543077D01*
Y420116D01*
X542730D01*
Y418727D01*
X543077D01*
Y417339D01*
X543424D01*
Y415950D01*
X543772D01*
Y414215D01*
X544119D01*
Y412132D01*
X544466D01*
Y409355D01*
X544813D01*
Y403454D01*
X545160D01*
Y402759D01*
X544813D01*
Y397900D01*
X545160D01*
Y398247D01*
X545507D01*
Y398594D01*
X545854D01*
Y398941D01*
X546202D01*
Y399288D01*
X546896D01*
Y399635D01*
X547243D01*
Y399982D01*
X547937D01*
Y400329D01*
X548632D01*
Y400676D01*
X548979D01*
Y401024D01*
X550020D01*
Y401371D01*
X551062D01*
Y401718D01*
X555921D01*
Y401371D01*
X556963D01*
Y401024D01*
X557657D01*
Y400676D01*
X558351D01*
Y400329D01*
X559045D01*
Y399982D01*
X559740D01*
Y399635D01*
X560087D01*
Y399288D01*
X560781D01*
Y398941D01*
X561128D01*
Y398594D01*
X561475D01*
Y398247D01*
X562170D01*
Y397900D01*
X562517D01*
Y397552D01*
X562864D01*
Y397205D01*
X563211D01*
Y396858D01*
X563558D01*
Y396511D01*
X563905D01*
Y396164D01*
X564253D01*
Y395817D01*
X564600D01*
Y395470D01*
X564947D01*
Y394775D01*
X565294D01*
Y394428D01*
X565641D01*
Y394081D01*
X565988D01*
Y393734D01*
X566335D01*
Y393040D01*
X566683D01*
Y392692D01*
X567030D01*
Y392345D01*
X567377D01*
Y391651D01*
X567724D01*
Y391304D01*
X568071D01*
Y390610D01*
X568418D01*
Y389915D01*
X568765D01*
Y389568D01*
X569112D01*
Y388874D01*
X569459D01*
Y388180D01*
X569807D01*
Y387486D01*
X570154D01*
Y386791D01*
X570501D01*
Y386097D01*
X570848D01*
Y385056D01*
X571195D01*
Y384361D01*
X571542D01*
Y383320D01*
X571889D01*
Y382279D01*
X572237D01*
Y381931D01*
X572584D01*
Y382626D01*
X572931D01*
Y383320D01*
X573278D01*
Y384014D01*
X573625D01*
Y384708D01*
X573972D01*
Y385403D01*
X574319D01*
Y386097D01*
X574666D01*
Y386791D01*
X575014D01*
Y387486D01*
X575361D01*
Y387833D01*
X575708D01*
Y388527D01*
X576055D01*
Y389221D01*
X576402D01*
Y389915D01*
X576749D01*
Y390262D01*
X577096D01*
Y390957D01*
X577444D01*
Y391304D01*
X577791D01*
Y391998D01*
X578138D01*
Y392692D01*
X578485D01*
Y393040D01*
X578832D01*
Y393734D01*
X579179D01*
Y394081D01*
X579526D01*
Y394775D01*
X579874D01*
Y395122D01*
X580221D01*
Y395817D01*
X580568D01*
Y396164D01*
X580915D01*
Y396511D01*
X581262D01*
Y397205D01*
X581609D01*
Y397552D01*
X581956D01*
Y397900D01*
X582304D01*
Y398594D01*
X582651D01*
Y398941D01*
X582998D01*
Y399288D01*
X583345D01*
Y399635D01*
X583692D01*
Y399982D01*
X584039D01*
Y400676D01*
X584386D01*
Y401024D01*
X584733D01*
Y401371D01*
X585080D01*
Y401718D01*
X585428D01*
Y402065D01*
X585775D01*
Y402412D01*
X586122D01*
Y402759D01*
X586469D01*
Y403106D01*
X586816D01*
Y403454D01*
X587163D01*
Y403801D01*
X587510D01*
Y404148D01*
X587858D01*
Y404495D01*
X588205D01*
Y404842D01*
X588552D01*
Y405189D01*
X588899D01*
Y405536D01*
X589246D01*
Y405883D01*
X589593D01*
Y406231D01*
X589940D01*
Y406578D01*
X590635D01*
Y406925D01*
X590982D01*
Y407272D01*
X591329D01*
Y407619D01*
X591676D01*
Y407966D01*
X592370D01*
Y408313D01*
X592718D01*
Y408661D01*
X593412D01*
Y409008D01*
X593759D01*
Y409355D01*
X594106D01*
Y409702D01*
X590288D01*
Y409355D01*
X589593D01*
Y409702D01*
X589246D01*
Y409355D01*
X585428D01*
Y409008D01*
X582651D01*
Y408661D01*
X580915D01*
Y408313D01*
X579526D01*
Y407966D01*
X578485D01*
Y408313D01*
X578138D01*
Y408661D01*
X577791D01*
Y409355D01*
X577444D01*
Y410049D01*
X577096D01*
Y410743D01*
X576749D01*
Y411091D01*
X576402D01*
Y412132D01*
X576055D01*
Y412479D01*
X575708D01*
Y413173D01*
X575361D01*
Y413868D01*
X575014D01*
Y414562D01*
X574666D01*
Y414909D01*
X574319D01*
Y415603D01*
X573972D01*
Y416297D01*
X573625D01*
Y416645D01*
X573278D01*
Y417339D01*
X572931D01*
Y418033D01*
X572584D01*
Y418380D01*
X572237D01*
Y419075D01*
X571889D01*
Y419769D01*
X571542D01*
Y420116D01*
X571195D01*
Y420810D01*
X570848D01*
Y421157D01*
X570501D01*
Y421852D01*
X570154D01*
Y422199D01*
X569807D01*
Y422893D01*
X569459D01*
Y423240D01*
X569112D01*
Y423935D01*
X568765D01*
Y424282D01*
X568418D01*
Y424976D01*
X568071D01*
Y425323D01*
D02*
G37*
G36*
X570848Y442332D02*
X556616D01*
Y441985D01*
X553491D01*
Y441638D01*
X551062D01*
Y441291D01*
X549326D01*
Y440944D01*
X547590D01*
Y440597D01*
X545854D01*
Y440250D01*
X544813D01*
Y439903D01*
X543424D01*
Y439556D01*
X542383D01*
Y439208D01*
X540995D01*
Y438861D01*
X540300D01*
Y438514D01*
X539259D01*
Y438167D01*
X538218D01*
Y437820D01*
X537523D01*
Y437473D01*
X536482D01*
Y437126D01*
X535788D01*
Y436778D01*
X534746D01*
Y436431D01*
X534052D01*
Y436084D01*
X533358D01*
Y435737D01*
X532663D01*
Y435390D01*
X531969D01*
Y435043D01*
X531275D01*
Y434696D01*
X530581D01*
Y434348D01*
X529886D01*
Y434001D01*
X529192D01*
Y433307D01*
X531622D01*
Y432960D01*
X532663D01*
Y432613D01*
X533358D01*
Y432266D01*
X534052D01*
Y431918D01*
X534746D01*
Y431571D01*
X535093D01*
Y431224D01*
X535788D01*
Y430877D01*
X536135D01*
Y430530D01*
X536482D01*
Y430183D01*
X536829D01*
Y429836D01*
X537176D01*
Y429489D01*
X537523D01*
Y429142D01*
X537870D01*
Y428794D01*
X538218D01*
Y428447D01*
X538565D01*
Y427753D01*
X538912D01*
Y427406D01*
X539259D01*
Y426712D01*
X539606D01*
Y426364D01*
X539953D01*
Y425670D01*
X540300D01*
Y424976D01*
X540648D01*
Y424282D01*
X540995D01*
Y423587D01*
X541342D01*
Y423240D01*
X541689D01*
Y422893D01*
X543077D01*
Y422546D01*
X543772D01*
Y422199D01*
X544466D01*
Y421852D01*
X545160D01*
Y421505D01*
X545854D01*
Y421157D01*
X546549D01*
Y420810D01*
X546896D01*
Y420463D01*
X547590D01*
Y420116D01*
X547937D01*
Y419769D01*
X548632D01*
Y419422D01*
X548979D01*
Y419075D01*
X549673D01*
Y418727D01*
X550020D01*
Y418380D01*
X550367D01*
Y418033D01*
X550714D01*
Y417686D01*
X551756D01*
Y418033D01*
X552450D01*
Y418380D01*
X552797D01*
Y418727D01*
X553491D01*
Y419075D01*
X553839D01*
Y419422D01*
X554533D01*
Y419769D01*
X554880D01*
Y420116D01*
X555574D01*
Y420463D01*
X555921D01*
Y420810D01*
X556616D01*
Y421157D01*
X556963D01*
Y421505D01*
X557657D01*
Y421852D01*
X558004D01*
Y422199D01*
X558698D01*
Y422546D01*
X559045D01*
Y422893D01*
X559740D01*
Y423240D01*
X560087D01*
Y423587D01*
X560781D01*
Y423935D01*
X561128D01*
Y424282D01*
X561823D01*
Y424629D01*
X562170D01*
Y424976D01*
X562864D01*
Y425323D01*
X563211D01*
Y425670D01*
X563905D01*
Y426017D01*
X564253D01*
Y426364D01*
X564947D01*
Y426712D01*
X565294D01*
Y427059D01*
X565988D01*
Y427406D01*
X566335D01*
Y427753D01*
X567030D01*
Y428100D01*
X567377D01*
Y428447D01*
X569112D01*
Y427753D01*
X569459D01*
Y427406D01*
X569807D01*
Y427059D01*
X570154D01*
Y426364D01*
X570501D01*
Y426017D01*
X570848D01*
Y425323D01*
X571195D01*
Y424976D01*
X571542D01*
Y424282D01*
X571889D01*
Y423935D01*
X572237D01*
Y423240D01*
X572584D01*
Y422893D01*
X572931D01*
Y422199D01*
X573278D01*
Y421852D01*
X573625D01*
Y421157D01*
X573972D01*
Y420463D01*
X574319D01*
Y420116D01*
X574666D01*
Y419422D01*
X575014D01*
Y419075D01*
X575361D01*
Y418380D01*
X575708D01*
Y417686D01*
X576055D01*
Y416992D01*
X576402D01*
Y416645D01*
X576749D01*
Y415950D01*
X577096D01*
Y415256D01*
X577444D01*
Y414909D01*
X577791D01*
Y414215D01*
X578138D01*
Y413521D01*
X578485D01*
Y412826D01*
X578832D01*
Y412132D01*
X579179D01*
Y411438D01*
X579526D01*
Y411091D01*
X581609D01*
Y411438D01*
X583692D01*
Y411785D01*
X586816D01*
Y412132D01*
X599660D01*
Y412479D01*
X600354D01*
Y412826D01*
X601396D01*
Y413173D01*
X602090D01*
Y413521D01*
X603479D01*
Y413868D01*
X604867D01*
Y414215D01*
X606950D01*
Y414562D01*
X615281D01*
Y414215D01*
X617017D01*
Y413868D01*
X618405D01*
Y413521D01*
X619447D01*
Y413173D01*
X620835D01*
Y412826D01*
X621530D01*
Y412479D01*
X622224D01*
Y412132D01*
X623265D01*
Y411785D01*
X623960D01*
Y411438D01*
X624654D01*
Y411091D01*
X625348D01*
Y410743D01*
X625695D01*
Y410396D01*
X626389D01*
Y410049D01*
X626736D01*
Y410743D01*
X626389D01*
Y411091D01*
X626042D01*
Y411785D01*
X625695D01*
Y412132D01*
X625348D01*
Y412479D01*
X625001D01*
Y413173D01*
X624654D01*
Y413521D01*
X624307D01*
Y413868D01*
X623960D01*
Y414562D01*
X623612D01*
Y414909D01*
X623265D01*
Y415256D01*
X622918D01*
Y415603D01*
X622571D01*
Y415950D01*
X622224D01*
Y416645D01*
X621877D01*
Y416992D01*
X621530D01*
Y417339D01*
X621182D01*
Y417686D01*
X620835D01*
Y418033D01*
X620488D01*
Y418380D01*
X620141D01*
Y418727D01*
X619794D01*
Y419075D01*
X619447D01*
Y419422D01*
X619100D01*
Y419769D01*
X618753D01*
Y420116D01*
X618405D01*
Y420463D01*
X618058D01*
Y420810D01*
X617711D01*
Y421157D01*
X617364D01*
Y421505D01*
X617017D01*
Y421852D01*
X616670D01*
Y422199D01*
X616323D01*
Y422546D01*
X615975D01*
Y422893D01*
X615628D01*
Y423240D01*
X615281D01*
Y423587D01*
X614934D01*
Y423935D01*
X614240D01*
Y424282D01*
X613893D01*
Y424629D01*
X613545D01*
Y424976D01*
X613198D01*
Y425323D01*
X612851D01*
Y425670D01*
X612157D01*
Y426017D01*
X611810D01*
Y426364D01*
X611463D01*
Y426712D01*
X610768D01*
Y427059D01*
X610421D01*
Y427406D01*
X610074D01*
Y427753D01*
X609380D01*
Y428100D01*
X609033D01*
Y428447D01*
X608339D01*
Y428794D01*
X607991D01*
Y429142D01*
X607297D01*
Y429489D01*
X606950D01*
Y429836D01*
X606256D01*
Y430183D01*
X605909D01*
Y430530D01*
X605214D01*
Y430877D01*
X604520D01*
Y431224D01*
X604173D01*
Y431571D01*
X603479D01*
Y431918D01*
X602784D01*
Y432266D01*
X602090D01*
Y432613D01*
X601396D01*
Y432960D01*
X601049D01*
Y433307D01*
X600354D01*
Y433654D01*
X599660D01*
Y434001D01*
X598966D01*
Y434348D01*
X598272D01*
Y434696D01*
X597577D01*
Y435043D01*
X596536D01*
Y435390D01*
X595842D01*
Y435737D01*
X595147D01*
Y436084D01*
X594453D01*
Y436431D01*
X593412D01*
Y436778D01*
X592370D01*
Y437126D01*
X591676D01*
Y437473D01*
X590635D01*
Y437820D01*
X589593D01*
Y438167D01*
X588552D01*
Y438514D01*
X587510D01*
Y438861D01*
X586469D01*
Y439208D01*
X585428D01*
Y439556D01*
X584039D01*
Y439903D01*
X582651D01*
Y440250D01*
X581262D01*
Y440597D01*
X579874D01*
Y440944D01*
X577791D01*
Y441291D01*
X576055D01*
Y441638D01*
X573625D01*
Y441985D01*
X570848D01*
Y442332D01*
D02*
G37*
G36*
X554880Y399288D02*
X551756D01*
Y398941D01*
X550714D01*
Y398594D01*
X550020D01*
Y398247D01*
X549326D01*
Y397900D01*
X548632D01*
Y397552D01*
X548284D01*
Y397205D01*
X547937D01*
Y396858D01*
X547590D01*
Y396511D01*
X546896D01*
Y396164D01*
X546549D01*
Y395817D01*
X546202D01*
Y395122D01*
X545854D01*
Y394775D01*
X545507D01*
Y394428D01*
X545160D01*
Y394081D01*
X544813D01*
Y393734D01*
X544466D01*
Y393040D01*
X544119D01*
Y392692D01*
X543772D01*
Y391998D01*
X543424D01*
Y391651D01*
X543077D01*
Y390957D01*
X542730D01*
Y390610D01*
X542383D01*
Y389915D01*
X542036D01*
Y389568D01*
X541689D01*
Y388874D01*
X541342D01*
Y388180D01*
X540995D01*
Y387486D01*
X540648D01*
Y386444D01*
X540300D01*
Y379154D01*
X540648D01*
Y376724D01*
X540995D01*
Y374989D01*
X541342D01*
Y373947D01*
X541689D01*
Y372559D01*
X542036D01*
Y371865D01*
X542383D01*
Y370823D01*
X542730D01*
Y369782D01*
X543077D01*
Y369087D01*
X543424D01*
Y368393D01*
X543772D01*
Y367699D01*
X544119D01*
Y367005D01*
X544466D01*
Y366657D01*
X544813D01*
Y365963D01*
X545160D01*
Y365616D01*
X545507D01*
Y364922D01*
X545854D01*
Y364575D01*
X546202D01*
Y363880D01*
X546549D01*
Y363533D01*
X546896D01*
Y363186D01*
X547243D01*
Y362839D01*
X547590D01*
Y362492D01*
X547937D01*
Y362145D01*
X548284D01*
Y361798D01*
X548632D01*
Y361451D01*
X548979D01*
Y361103D01*
X549673D01*
Y360756D01*
X550020D01*
Y360409D01*
X550714D01*
Y360062D01*
X551409D01*
Y359715D01*
X552450D01*
Y359368D01*
X556269D01*
Y359715D01*
X557310D01*
Y360062D01*
X558004D01*
Y360409D01*
X558698D01*
Y360756D01*
X559045D01*
Y361103D01*
X559740D01*
Y361451D01*
X560087D01*
Y361798D01*
X560781D01*
Y362145D01*
X561128D01*
Y362492D01*
X561475D01*
Y362839D01*
X561823D01*
Y363186D01*
X562170D01*
Y363533D01*
X562517D01*
Y363880D01*
X562864D01*
Y364227D01*
X563211D01*
Y364575D01*
X563558D01*
Y364922D01*
X563905D01*
Y365269D01*
X564253D01*
Y365963D01*
X564600D01*
Y366310D01*
X564947D01*
Y366657D01*
X565294D01*
Y367005D01*
X565641D01*
Y367699D01*
X565988D01*
Y368046D01*
X566335D01*
Y368740D01*
X566683D01*
Y369087D01*
X567030D01*
Y369782D01*
X567377D01*
Y370476D01*
X567724D01*
Y370823D01*
X568071D01*
Y371517D01*
X568418D01*
Y372212D01*
X568765D01*
Y372906D01*
X569112D01*
Y373947D01*
X569459D01*
Y374989D01*
X569807D01*
Y376030D01*
X570154D01*
Y379849D01*
X569807D01*
Y380890D01*
Y381237D01*
Y381584D01*
X569459D01*
Y382626D01*
X569112D01*
Y383667D01*
X568765D01*
Y384361D01*
X568418D01*
Y385403D01*
X568071D01*
Y386097D01*
X567724D01*
Y386791D01*
X567377D01*
Y387486D01*
X567030D01*
Y387833D01*
X566683D01*
Y388527D01*
X566335D01*
Y389221D01*
X565988D01*
Y389568D01*
X565641D01*
Y390262D01*
X565294D01*
Y390957D01*
X564947D01*
Y391304D01*
X564600D01*
Y391651D01*
X564253D01*
Y392345D01*
X563905D01*
Y392692D01*
X563558D01*
Y393040D01*
X563211D01*
Y393387D01*
X562864D01*
Y393734D01*
X562517D01*
Y394428D01*
X561823D01*
Y394775D01*
X561475D01*
Y395122D01*
X561128D01*
Y395470D01*
X560781D01*
Y395817D01*
X560434D01*
Y396164D01*
X560087D01*
Y396511D01*
X559740D01*
Y396858D01*
X559393D01*
Y397205D01*
X558698D01*
Y397552D01*
X558004D01*
Y397900D01*
X557657D01*
Y398247D01*
X556963D01*
Y398594D01*
X556269D01*
Y398941D01*
X554880D01*
Y399288D01*
D02*
G37*
G36*
X644440Y340970D02*
X643746D01*
Y340622D01*
X643052D01*
Y340970D01*
X633332D01*
Y340622D01*
X629166D01*
Y340275D01*
X626736D01*
Y339928D01*
X624307D01*
Y339581D01*
X622224D01*
Y339234D01*
X620141D01*
Y338887D01*
X618753D01*
Y338540D01*
X617711D01*
Y338192D01*
X617364D01*
Y337845D01*
X616670D01*
Y337498D01*
X616323D01*
Y337151D01*
X615628D01*
Y336804D01*
X615281D01*
Y336457D01*
X614587D01*
Y336110D01*
X614240D01*
Y335763D01*
X613545D01*
Y335415D01*
X613198D01*
Y335068D01*
X612504D01*
Y334721D01*
X611810D01*
Y334374D01*
X611115D01*
Y334027D01*
X610768D01*
Y333680D01*
X610074D01*
Y333333D01*
X609380D01*
Y332985D01*
X608686D01*
Y332638D01*
X607991D01*
Y332291D01*
X606950D01*
Y331944D01*
X606256D01*
Y331597D01*
X605561D01*
Y331250D01*
X604867D01*
Y330903D01*
X603826D01*
Y330556D01*
X603131D01*
Y326043D01*
X602784D01*
Y323613D01*
X602437D01*
Y322224D01*
X602090D01*
Y320836D01*
X601743D01*
Y319795D01*
X601396D01*
Y319100D01*
X601049D01*
Y318059D01*
X600701D01*
Y317365D01*
X600354D01*
Y316670D01*
X600007D01*
Y316323D01*
X599660D01*
Y315629D01*
X599313D01*
Y314935D01*
X598966D01*
Y314587D01*
X598619D01*
Y313893D01*
X598272D01*
Y313546D01*
X597924D01*
Y313199D01*
X597577D01*
Y312852D01*
X597230D01*
Y312505D01*
X596883D01*
Y312157D01*
X596536D01*
Y311810D01*
X596189D01*
Y311463D01*
X595842D01*
Y311116D01*
X595494D01*
Y310769D01*
X595147D01*
Y310422D01*
X594800D01*
Y310075D01*
X594453D01*
Y309728D01*
X593759D01*
Y309380D01*
X593412D01*
Y309033D01*
X593065D01*
Y308686D01*
X592370D01*
Y308339D01*
X591676D01*
Y307992D01*
X591329D01*
Y307645D01*
X590635D01*
Y307298D01*
X589940D01*
Y306950D01*
X589246D01*
Y306603D01*
X588205D01*
Y306256D01*
X587510D01*
Y305909D01*
X586816D01*
Y305562D01*
X585428D01*
Y305215D01*
X584039D01*
Y304868D01*
X582651D01*
Y304521D01*
X579526D01*
Y304174D01*
X574319D01*
Y304521D01*
X571542D01*
Y304868D01*
X569807D01*
Y305215D01*
X568071D01*
Y305562D01*
X567030D01*
Y305909D01*
X565988D01*
Y306256D01*
X564947D01*
Y306603D01*
X564253D01*
Y306950D01*
X563558D01*
Y307298D01*
X562517D01*
Y307645D01*
X561823D01*
Y307992D01*
X561128D01*
Y308339D01*
X560781D01*
Y308686D01*
X560087D01*
Y309033D01*
X559393D01*
Y309380D01*
X559045D01*
Y309728D01*
X558351D01*
Y310075D01*
X558004D01*
Y310422D01*
X557310D01*
Y310769D01*
X556963D01*
Y311116D01*
X556616D01*
Y311463D01*
X556269D01*
Y311810D01*
X555574D01*
Y312157D01*
X555227D01*
Y312505D01*
X554880D01*
Y312852D01*
X554533D01*
Y313199D01*
X554186D01*
Y313546D01*
X553839D01*
Y313893D01*
X553491D01*
Y314240D01*
X553144D01*
Y314587D01*
X552797D01*
Y314935D01*
X552450D01*
Y315629D01*
X552103D01*
Y315976D01*
X551756D01*
Y316323D01*
X551409D01*
Y316670D01*
X551062D01*
Y317365D01*
X550714D01*
Y317712D01*
X550367D01*
Y318406D01*
X550020D01*
Y319100D01*
X549673D01*
Y319447D01*
X549326D01*
Y320142D01*
X548979D01*
Y320489D01*
X548632D01*
Y321183D01*
X548284D01*
Y322224D01*
X547937D01*
Y322919D01*
X547590D01*
Y323613D01*
X547243D01*
Y324654D01*
X546896D01*
Y325001D01*
X546549D01*
Y324654D01*
X546202D01*
Y324307D01*
X545507D01*
Y323960D01*
X545160D01*
Y323613D01*
X544466D01*
Y323266D01*
X544119D01*
Y322919D01*
X543424D01*
Y322571D01*
X543077D01*
Y322224D01*
X542383D01*
Y321877D01*
X541689D01*
Y321530D01*
X540995D01*
Y321183D01*
X540300D01*
Y320836D01*
X539953D01*
Y320489D01*
X538912D01*
Y320142D01*
X538218D01*
Y319795D01*
X537523D01*
Y319447D01*
X536829D01*
Y319100D01*
X535788D01*
Y318753D01*
X534746D01*
Y318406D01*
X534052D01*
Y318059D01*
X532663D01*
Y317712D01*
X531622D01*
Y317365D01*
X529886D01*
Y317017D01*
X527803D01*
Y316670D01*
X520861D01*
Y317017D01*
X519125D01*
Y317365D01*
X517737D01*
Y317712D01*
X516695D01*
Y318059D01*
X515654D01*
Y318406D01*
X514960D01*
Y318753D01*
X514265D01*
Y319100D01*
X513571D01*
Y319447D01*
X512877D01*
Y319795D01*
X512530D01*
Y320142D01*
X511835D01*
Y320489D01*
X511488D01*
Y320836D01*
X511141D01*
Y321183D01*
X510447D01*
Y321530D01*
X510100D01*
Y321877D01*
X509753D01*
Y322224D01*
X509406D01*
Y322919D01*
X509058D01*
Y323266D01*
X508711D01*
Y323613D01*
X508364D01*
Y323960D01*
X507670D01*
Y323613D01*
X507323D01*
Y322919D01*
X506976D01*
Y322571D01*
X506628D01*
Y322224D01*
X506281D01*
Y321877D01*
X505934D01*
Y321183D01*
X505587D01*
Y320836D01*
X505240D01*
Y320489D01*
X504893D01*
Y319795D01*
X504546D01*
Y319447D01*
X504198D01*
Y318753D01*
X503851D01*
Y318406D01*
X503504D01*
Y317712D01*
X503157D01*
Y317365D01*
X502810D01*
Y316670D01*
X502463D01*
Y315976D01*
X502116D01*
Y315629D01*
X501768D01*
Y314935D01*
X501421D01*
Y314240D01*
X501074D01*
Y313546D01*
X500727D01*
Y312852D01*
X500380D01*
Y312157D01*
X500033D01*
Y311116D01*
X499686D01*
Y310422D01*
X499339D01*
Y309728D01*
X498992D01*
Y308686D01*
X498644D01*
Y307645D01*
X498297D01*
Y306603D01*
X497950D01*
Y305215D01*
X497603D01*
Y303826D01*
X497256D01*
Y301396D01*
X497950D01*
Y301049D01*
X498297D01*
Y300702D01*
X498644D01*
Y300355D01*
X498992D01*
Y300008D01*
X499339D01*
Y299661D01*
X499686D01*
Y299314D01*
X500380D01*
Y298967D01*
X500727D01*
Y298619D01*
X501074D01*
Y298272D01*
X501421D01*
Y297578D01*
X501768D01*
Y297231D01*
X502116D01*
Y296884D01*
X502463D01*
Y296537D01*
X502810D01*
Y296189D01*
X503157D01*
Y295842D01*
X503504D01*
Y295495D01*
X503851D01*
Y295148D01*
X504198D01*
Y296189D01*
X503851D01*
Y297578D01*
X503504D01*
Y302785D01*
X503851D01*
Y304174D01*
X504198D01*
Y305215D01*
X504546D01*
Y306256D01*
X504893D01*
Y306950D01*
X505240D01*
Y307645D01*
X505587D01*
Y307992D01*
X505934D01*
Y308686D01*
X506281D01*
Y309033D01*
X506628D01*
Y309380D01*
X506976D01*
Y310075D01*
X507323D01*
Y310422D01*
X507670D01*
Y310769D01*
X508017D01*
Y311116D01*
X508711D01*
Y311463D01*
X509058D01*
Y311810D01*
X509406D01*
Y312157D01*
X510100D01*
Y312505D01*
X510794D01*
Y312852D01*
X511488D01*
Y313199D01*
X512183D01*
Y313546D01*
X513224D01*
Y313893D01*
X515307D01*
Y314240D01*
X515654D01*
Y313893D01*
X516348D01*
Y314240D01*
X516695D01*
Y313893D01*
X518778D01*
Y313546D01*
X519819D01*
Y313199D01*
X520514D01*
Y312852D01*
X521208D01*
Y312505D01*
X521902D01*
Y312157D01*
X522249D01*
Y311810D01*
X522597D01*
Y311463D01*
X523291D01*
Y311116D01*
X523638D01*
Y310769D01*
X523985D01*
Y310075D01*
X524332D01*
Y309728D01*
X524679D01*
Y309380D01*
X525027D01*
Y308686D01*
X525374D01*
Y308339D01*
X525721D01*
Y307645D01*
X526068D01*
Y306603D01*
X526415D01*
Y305562D01*
X526762D01*
Y304174D01*
X527109D01*
Y298967D01*
X526762D01*
Y297578D01*
X526415D01*
Y296537D01*
X526068D01*
Y295842D01*
X525721D01*
Y294801D01*
X525374D01*
Y294454D01*
X525027D01*
Y293759D01*
X524679D01*
Y293065D01*
X524332D01*
Y292718D01*
X523985D01*
Y292371D01*
X523638D01*
Y292024D01*
X523291D01*
Y291329D01*
X522944D01*
Y290982D01*
X522249D01*
Y290635D01*
X521902D01*
Y290288D01*
X521555D01*
Y289941D01*
X521208D01*
Y289594D01*
X520514D01*
Y289247D01*
X519819D01*
Y288900D01*
X519125D01*
Y288552D01*
X518431D01*
Y288205D01*
X517042D01*
Y287858D01*
X512183D01*
Y288205D01*
X511141D01*
Y288552D01*
X510100D01*
Y288900D01*
X509406D01*
Y289247D01*
X509058D01*
Y289594D01*
X508364D01*
Y289941D01*
X508017D01*
Y290288D01*
X507323D01*
Y289941D01*
X507670D01*
Y289594D01*
X508017D01*
Y288900D01*
X508364D01*
Y288205D01*
X508711D01*
Y287511D01*
X509058D01*
Y286817D01*
X509406D01*
Y286122D01*
X509753D01*
Y285428D01*
X510100D01*
Y284734D01*
X510447D01*
Y284040D01*
X510794D01*
Y283346D01*
X511141D01*
Y282304D01*
X511488D01*
Y281610D01*
X511835D01*
Y280568D01*
X512183D01*
Y279527D01*
X512530D01*
Y278486D01*
X512877D01*
Y277097D01*
X513224D01*
Y276056D01*
X513571D01*
Y274320D01*
X513918D01*
Y272931D01*
X514265D01*
Y270849D01*
X514613D01*
Y267377D01*
X514960D01*
Y267030D01*
X514613D01*
Y266336D01*
X514960D01*
Y262170D01*
X514613D01*
Y261823D01*
X514960D01*
Y261129D01*
X514613D01*
Y259046D01*
X514265D01*
Y257311D01*
X513918D01*
Y255922D01*
X513571D01*
Y254881D01*
X513224D01*
Y254186D01*
X512877D01*
Y253145D01*
X512530D01*
Y252451D01*
X512183D01*
Y252104D01*
X511835D01*
Y251409D01*
X511488D01*
Y250715D01*
X515307D01*
Y251062D01*
X516695D01*
Y251409D01*
X518084D01*
Y251756D01*
X519125D01*
Y252104D01*
X520167D01*
Y253145D01*
X519819D01*
Y253839D01*
X519472D01*
Y254533D01*
X519125D01*
Y255922D01*
X518778D01*
Y257658D01*
X519472D01*
Y256963D01*
X519819D01*
Y256269D01*
X520167D01*
Y255575D01*
X520514D01*
Y255228D01*
X520861D01*
Y254881D01*
X521208D01*
Y254533D01*
X521555D01*
Y253839D01*
X521902D01*
Y253492D01*
X522249D01*
Y253145D01*
X522597D01*
Y252798D01*
X522944D01*
Y252451D01*
X523291D01*
Y252104D01*
X523638D01*
Y251756D01*
X523985D01*
Y251409D01*
X524679D01*
Y251062D01*
X525027D01*
Y250715D01*
X525374D01*
Y250368D01*
X525721D01*
Y250021D01*
X526415D01*
Y249674D01*
X526762D01*
Y249326D01*
X527109D01*
Y248979D01*
X527803D01*
Y248632D01*
X528151D01*
Y248285D01*
X528498D01*
Y247938D01*
X529192D01*
Y247591D01*
X529539D01*
Y247244D01*
X530233D01*
Y246896D01*
X530928D01*
Y246549D01*
X531275D01*
Y246202D01*
X531969D01*
Y245855D01*
X532663D01*
Y245508D01*
X533010D01*
Y245161D01*
X533705D01*
Y244814D01*
X534399D01*
Y244466D01*
X535093D01*
Y244119D01*
X535788D01*
Y243772D01*
X536482D01*
Y243425D01*
X537176D01*
Y243078D01*
X538218D01*
Y242731D01*
X538912D01*
Y242384D01*
X539953D01*
Y242037D01*
X540648D01*
Y241689D01*
X541689D01*
Y241342D01*
X542730D01*
Y240995D01*
X543772D01*
Y240648D01*
X544813D01*
Y240301D01*
X546202D01*
Y239954D01*
X547590D01*
Y239607D01*
X549326D01*
Y239259D01*
X551409D01*
Y238912D01*
X556616D01*
Y238565D01*
X557310D01*
Y238912D01*
X561128D01*
Y239259D01*
X563211D01*
Y239607D01*
X564600D01*
Y239954D01*
X565641D01*
Y240301D01*
X566683D01*
Y240648D01*
X567724D01*
Y240301D01*
X567377D01*
Y239954D01*
X567030D01*
Y239607D01*
X566683D01*
Y239259D01*
X566335D01*
Y238912D01*
X565641D01*
Y238565D01*
X564947D01*
Y238218D01*
X564253D01*
Y237871D01*
X563905D01*
Y237524D01*
X563211D01*
Y237177D01*
X562864D01*
Y236830D01*
X563558D01*
Y236483D01*
X563905D01*
Y236135D01*
X564253D01*
Y235788D01*
X564600D01*
Y235441D01*
X564947D01*
Y235094D01*
X565641D01*
Y234747D01*
X566335D01*
Y234400D01*
X566683D01*
Y234053D01*
X567377D01*
Y233705D01*
X568418D01*
Y233358D01*
X569459D01*
Y233011D01*
X571889D01*
Y232664D01*
X572931D01*
Y233011D01*
X575708D01*
Y233358D01*
X576749D01*
Y233705D01*
X577791D01*
Y234053D01*
X578485D01*
Y234400D01*
X579179D01*
Y234747D01*
X579874D01*
Y235094D01*
X580221D01*
Y235441D01*
X580568D01*
Y235788D01*
X580915D01*
Y236135D01*
X581609D01*
Y236483D01*
X581956D01*
Y236830D01*
X582304D01*
Y237177D01*
X582651D01*
Y237524D01*
X582998D01*
Y238218D01*
X583345D01*
Y238565D01*
X583692D01*
Y238912D01*
X584039D01*
Y239607D01*
X584386D01*
Y239954D01*
X584733D01*
Y240648D01*
X585080D01*
Y241342D01*
X585428D01*
Y242384D01*
X585775D01*
Y243425D01*
X586122D01*
Y245161D01*
X586469D01*
Y246202D01*
X586816D01*
Y246549D01*
X587163D01*
Y246896D01*
X587858D01*
Y247244D01*
X588552D01*
Y247591D01*
X588899D01*
Y247938D01*
X589593D01*
Y248285D01*
X589940D01*
Y248632D01*
X590288D01*
Y248979D01*
X590635D01*
Y249326D01*
X591329D01*
Y249674D01*
X591676D01*
Y250021D01*
X592023D01*
Y250368D01*
X592370D01*
Y250715D01*
X592718D01*
Y251062D01*
X593065D01*
Y251409D01*
X593412D01*
Y251756D01*
X593759D01*
Y252104D01*
X594106D01*
Y252798D01*
X594453D01*
Y253145D01*
X594800D01*
Y253492D01*
X595147D01*
Y253839D01*
X595494D01*
Y254533D01*
X595842D01*
Y255228D01*
X596189D01*
Y255575D01*
X596536D01*
Y256269D01*
X596883D01*
Y256616D01*
X597230D01*
Y257311D01*
X597577D01*
Y258005D01*
X597924D01*
Y259046D01*
X598272D01*
Y259740D01*
X598619D01*
Y260435D01*
X598966D01*
Y261129D01*
X599313D01*
Y262170D01*
X599660D01*
Y263212D01*
X600007D01*
Y264253D01*
X600354D01*
Y265294D01*
X600701D01*
Y266683D01*
X601049D01*
Y268072D01*
X601396D01*
Y269807D01*
X601743D01*
Y271543D01*
X602090D01*
Y274320D01*
X602437D01*
Y278833D01*
X602784D01*
Y285081D01*
X602437D01*
Y288900D01*
X600701D01*
Y288552D01*
X595147D01*
Y288900D01*
X593759D01*
Y289594D01*
X595842D01*
Y289941D01*
X597577D01*
Y290288D01*
X598966D01*
Y290635D01*
X600354D01*
Y290982D01*
X601743D01*
Y291329D01*
X602784D01*
Y291677D01*
X604173D01*
Y292024D01*
X605214D01*
Y292371D01*
X606256D01*
Y292718D01*
X607297D01*
Y293065D01*
X608339D01*
Y293412D01*
X609380D01*
Y293759D01*
X610421D01*
Y294107D01*
X611115D01*
Y294454D01*
X612157D01*
Y294801D01*
X613198D01*
Y295148D01*
X613893D01*
Y295495D01*
X614934D01*
Y295842D01*
X615628D01*
Y296189D01*
X616670D01*
Y296537D01*
X617364D01*
Y296884D01*
X618058D01*
Y297231D01*
X618753D01*
Y297578D01*
X619447D01*
Y297925D01*
X620141D01*
Y298272D01*
X620835D01*
Y298619D01*
X621877D01*
Y298967D01*
X622571D01*
Y299314D01*
X623265D01*
Y299661D01*
X623612D01*
Y300008D01*
X624307D01*
Y300355D01*
X625001D01*
Y300702D01*
X625695D01*
Y301049D01*
X626389D01*
Y301396D01*
X626736D01*
Y301744D01*
X627431D01*
Y302091D01*
X628125D01*
Y302438D01*
X628819D01*
Y302785D01*
X629166D01*
Y303132D01*
X629861D01*
Y303479D01*
X630208D01*
Y303826D01*
X630902D01*
Y304174D01*
X631249D01*
Y304521D01*
X631944D01*
Y304868D01*
X632291D01*
Y305215D01*
X632985D01*
Y305562D01*
X633332D01*
Y305909D01*
X634026D01*
Y306256D01*
X634374D01*
Y306603D01*
X634721D01*
Y306950D01*
X635415D01*
Y307298D01*
X635762D01*
Y307645D01*
X636109D01*
Y307992D01*
X636803D01*
Y308339D01*
X637150D01*
Y308686D01*
X637498D01*
Y309033D01*
X637845D01*
Y309380D01*
X638539D01*
Y309728D01*
X638886D01*
Y310075D01*
X639233D01*
Y310422D01*
X639580D01*
Y310769D01*
X639928D01*
Y311116D01*
X640275D01*
Y311463D01*
X640969D01*
Y311810D01*
X641316D01*
Y312157D01*
X641663D01*
Y312505D01*
X642010D01*
Y312852D01*
X642357D01*
Y313199D01*
X642705D01*
Y313546D01*
X643052D01*
Y313893D01*
X643399D01*
Y314240D01*
X643746D01*
Y314587D01*
X644093D01*
Y314935D01*
X644440D01*
Y315282D01*
X644788D01*
Y315976D01*
X645135D01*
Y316323D01*
X645482D01*
Y316670D01*
X645829D01*
Y317017D01*
X646176D01*
Y317365D01*
X646523D01*
Y317712D01*
X646870D01*
Y318059D01*
X647217D01*
Y318753D01*
X647564D01*
Y319100D01*
X647912D01*
Y319447D01*
X648259D01*
Y319795D01*
X648606D01*
Y320489D01*
X648953D01*
Y320836D01*
X649300D01*
Y321530D01*
X649647D01*
Y321877D01*
X649995D01*
Y322224D01*
X650342D01*
Y322919D01*
X650689D01*
Y323266D01*
X651036D01*
Y323960D01*
X651383D01*
Y324654D01*
X651730D01*
Y325001D01*
X652077D01*
Y325696D01*
X652424D01*
Y326390D01*
X652772D01*
Y327084D01*
X653119D01*
Y327779D01*
X653466D01*
Y328473D01*
X653813D01*
Y329167D01*
X654160D01*
Y329861D01*
X654507D01*
Y330903D01*
X654854D01*
Y331944D01*
X655201D01*
Y332985D01*
X655549D01*
Y334027D01*
X655896D01*
Y336110D01*
X656243D01*
Y336457D01*
X655896D01*
Y337845D01*
X655549D01*
Y338192D01*
X655201D01*
Y338540D01*
X654507D01*
Y338887D01*
X653466D01*
Y339234D01*
X652772D01*
Y339581D01*
X651383D01*
Y339928D01*
X649647D01*
Y340275D01*
X647564D01*
Y340622D01*
X644440D01*
Y340970D01*
D02*
G37*
G36*
X486147Y392345D02*
X485800D01*
Y391998D01*
X484065D01*
Y391651D01*
X483718D01*
Y391304D01*
X483371D01*
Y390610D01*
X483023D01*
Y389221D01*
X482676D01*
Y382279D01*
X483023D01*
Y379849D01*
X483371D01*
Y377766D01*
X483718D01*
Y376030D01*
X484065D01*
Y374641D01*
X484412D01*
Y373253D01*
X484759D01*
Y371865D01*
X485106D01*
Y370823D01*
X485453D01*
Y369435D01*
X485800D01*
Y368393D01*
X486147D01*
Y367352D01*
X486495D01*
Y366657D01*
X486842D01*
Y365616D01*
X487189D01*
Y364575D01*
X487536D01*
Y363880D01*
X487883D01*
Y362839D01*
X488230D01*
Y362145D01*
X488577D01*
Y361798D01*
Y361451D01*
X488925D01*
Y360756D01*
X489272D01*
Y359715D01*
X489619D01*
Y359021D01*
X489966D01*
Y358326D01*
X490313D01*
Y357632D01*
X490660D01*
Y356938D01*
X491007D01*
Y356244D01*
X491354D01*
Y355549D01*
X491702D01*
Y354855D01*
X492049D01*
Y354161D01*
X492396D01*
Y353466D01*
X492743D01*
Y352772D01*
X493090D01*
Y352425D01*
X493437D01*
Y351731D01*
X493784D01*
Y351036D01*
X494132D01*
Y350342D01*
X494479D01*
Y349995D01*
X494826D01*
Y349301D01*
X495173D01*
Y348954D01*
X495520D01*
Y348259D01*
X495867D01*
Y347565D01*
X496214D01*
Y347218D01*
X496562D01*
Y346524D01*
X496909D01*
Y346177D01*
X497256D01*
Y345482D01*
X497603D01*
Y345135D01*
X497950D01*
Y344441D01*
X498297D01*
Y344094D01*
X498644D01*
Y343400D01*
X498992D01*
Y343052D01*
X499339D01*
Y342705D01*
X499686D01*
Y342011D01*
X500033D01*
Y341664D01*
X500380D01*
Y340970D01*
X500727D01*
Y340622D01*
X501074D01*
Y340275D01*
X501421D01*
Y339928D01*
X501768D01*
Y339234D01*
X502116D01*
Y338887D01*
X502463D01*
Y338540D01*
X502810D01*
Y337845D01*
X503157D01*
Y337498D01*
X503504D01*
Y337151D01*
X503851D01*
Y336804D01*
X504198D01*
Y336110D01*
X504546D01*
Y335763D01*
X505240D01*
Y337498D01*
X505587D01*
Y338887D01*
X505934D01*
Y339928D01*
X506281D01*
Y340970D01*
X506628D01*
Y341664D01*
X506976D01*
Y342705D01*
X507323D01*
Y343400D01*
X507670D01*
Y344094D01*
X508017D01*
Y344788D01*
X508364D01*
Y345135D01*
X508711D01*
Y345830D01*
X509058D01*
Y346524D01*
X509406D01*
Y346871D01*
X509753D01*
Y347218D01*
X510100D01*
Y347912D01*
X510447D01*
Y348259D01*
X510794D01*
Y348606D01*
X511141D01*
Y349301D01*
X511488D01*
Y349648D01*
X511835D01*
Y349995D01*
X512183D01*
Y350342D01*
X512530D01*
Y351036D01*
X512877D01*
Y351384D01*
X513224D01*
Y351731D01*
X513571D01*
Y352078D01*
X513918D01*
Y352425D01*
X514265D01*
Y352772D01*
X514613D01*
Y353119D01*
X514960D01*
Y353814D01*
X514613D01*
Y354508D01*
X514265D01*
Y354855D01*
X513918D01*
Y355202D01*
X513571D01*
Y355549D01*
X513224D01*
Y356244D01*
X512877D01*
Y356591D01*
X512530D01*
Y356938D01*
X512183D01*
Y357632D01*
X511835D01*
Y357979D01*
X511488D01*
Y358326D01*
X511141D01*
Y359021D01*
X510794D01*
Y359368D01*
X510447D01*
Y360062D01*
X510100D01*
Y360409D01*
X509753D01*
Y361103D01*
X509406D01*
Y361798D01*
X509058D01*
Y362145D01*
X508711D01*
Y362839D01*
X508364D01*
Y363533D01*
X508017D01*
Y363880D01*
X507670D01*
Y364575D01*
X507323D01*
Y365269D01*
X506976D01*
Y365963D01*
X506628D01*
Y366657D01*
X506281D01*
Y367352D01*
X505934D01*
Y368046D01*
X505587D01*
Y368740D01*
X505240D01*
Y369782D01*
X504893D01*
Y370476D01*
X504546D01*
Y371170D01*
X504198D01*
Y372212D01*
X503851D01*
Y373253D01*
X503504D01*
Y374294D01*
X503157D01*
Y375336D01*
X502810D01*
Y376377D01*
X502463D01*
Y377766D01*
X502116D01*
Y379154D01*
X501768D01*
Y380890D01*
X501421D01*
Y382626D01*
X501074D01*
Y385056D01*
X500727D01*
Y386097D01*
X500380D01*
Y386444D01*
X500033D01*
Y386791D01*
X499339D01*
Y387138D01*
X498644D01*
Y387486D01*
X498297D01*
Y387833D01*
X497603D01*
Y388180D01*
X496909D01*
Y388527D01*
X496214D01*
Y388874D01*
X495520D01*
Y389221D01*
X494826D01*
Y389568D01*
X494132D01*
Y389915D01*
X493437D01*
Y390262D01*
X492396D01*
Y390610D01*
X491702D01*
Y390957D01*
X490660D01*
Y391304D01*
X489619D01*
Y391651D01*
X488230D01*
Y391998D01*
X486147D01*
Y392345D01*
D02*
G37*
G36*
X530928Y430877D02*
X526415D01*
Y430530D01*
X525374D01*
Y430183D01*
X524332D01*
Y429836D01*
X523638D01*
Y429489D01*
X522944D01*
Y429142D01*
X522249D01*
Y428794D01*
X521902D01*
Y428447D01*
X521208D01*
Y428100D01*
X520861D01*
Y427753D01*
X520167D01*
Y427406D01*
X519819D01*
Y427059D01*
X519472D01*
Y426712D01*
X519125D01*
Y426364D01*
X518778D01*
Y426017D01*
X518431D01*
Y425670D01*
X518084D01*
Y425323D01*
X517737D01*
Y424976D01*
X517389D01*
Y424629D01*
X517042D01*
Y424282D01*
X516695D01*
Y423935D01*
X516348D01*
Y423587D01*
X516001D01*
Y423240D01*
X515654D01*
Y422893D01*
X515307D01*
Y422546D01*
X514960D01*
Y422199D01*
X514613D01*
Y421505D01*
X514265D01*
Y421157D01*
X513918D01*
Y420810D01*
X513571D01*
Y420463D01*
X513224D01*
Y420116D01*
X512877D01*
Y419422D01*
X512530D01*
Y419075D01*
X512183D01*
Y418727D01*
X511835D01*
Y418033D01*
X511488D01*
Y417686D01*
X511141D01*
Y416992D01*
X510794D01*
Y416645D01*
X510447D01*
Y415950D01*
X510100D01*
Y415603D01*
X509753D01*
Y414909D01*
X509406D01*
Y414215D01*
X509058D01*
Y413521D01*
X508711D01*
Y412826D01*
X508364D01*
Y412132D01*
X508017D01*
Y411438D01*
X507670D01*
Y410743D01*
X507323D01*
Y410049D01*
X506976D01*
Y409355D01*
X506628D01*
Y408313D01*
X506281D01*
Y407619D01*
X505934D01*
Y406578D01*
X505587D01*
Y405536D01*
X505240D01*
Y404495D01*
X504893D01*
Y403454D01*
X504546D01*
Y401718D01*
X504198D01*
Y400329D01*
X503851D01*
Y398247D01*
X503504D01*
Y395470D01*
X503157D01*
Y386097D01*
X503504D01*
Y384014D01*
X503851D01*
Y381584D01*
X504198D01*
Y379849D01*
X504546D01*
Y378460D01*
X504893D01*
Y377419D01*
X505240D01*
Y376030D01*
X505587D01*
Y374989D01*
X505934D01*
Y373947D01*
X506281D01*
Y372906D01*
X506628D01*
Y372212D01*
X506976D01*
Y371170D01*
X507323D01*
Y370476D01*
X507670D01*
Y369782D01*
X508017D01*
Y369087D01*
X508364D01*
Y368393D01*
X508711D01*
Y367352D01*
X509058D01*
Y366657D01*
X509406D01*
Y366310D01*
X509753D01*
Y365616D01*
X510100D01*
Y364922D01*
X510447D01*
Y364227D01*
X510794D01*
Y363533D01*
X511141D01*
Y363186D01*
X511488D01*
Y362492D01*
X511835D01*
Y362145D01*
X512183D01*
Y361451D01*
X512530D01*
Y361103D01*
X512877D01*
Y360409D01*
X513224D01*
Y360062D01*
X513571D01*
Y359368D01*
X513918D01*
Y359021D01*
X514265D01*
Y358673D01*
X514613D01*
Y357979D01*
X514960D01*
Y357632D01*
X515307D01*
Y356938D01*
X515654D01*
Y356591D01*
X516001D01*
Y356244D01*
X516348D01*
Y355896D01*
X516695D01*
Y355549D01*
X517042D01*
Y355202D01*
X517389D01*
Y354508D01*
X517737D01*
Y354161D01*
X518084D01*
Y353814D01*
X518431D01*
Y353466D01*
X518778D01*
Y353119D01*
X519125D01*
Y352772D01*
X519472D01*
Y352425D01*
X519819D01*
Y352078D01*
X520167D01*
Y351731D01*
X520514D01*
Y351384D01*
X520861D01*
Y351036D01*
X521208D01*
Y350342D01*
X521902D01*
Y349995D01*
X522249D01*
Y349648D01*
X522597D01*
Y349301D01*
X522944D01*
Y348954D01*
X523291D01*
Y348606D01*
X523638D01*
Y348259D01*
X523985D01*
Y347912D01*
X524332D01*
Y347565D01*
X524679D01*
Y347218D01*
X525374D01*
Y346871D01*
X525721D01*
Y346524D01*
X526068D01*
Y346177D01*
X526415D01*
Y345830D01*
X526762D01*
Y345482D01*
X527456D01*
Y345135D01*
X527803D01*
Y344788D01*
X528151D01*
Y344441D01*
X528845D01*
Y344094D01*
X529192D01*
Y343747D01*
X529539D01*
Y343400D01*
X530233D01*
Y343052D01*
X530581D01*
Y342705D01*
X531275D01*
Y342358D01*
X531622D01*
Y342011D01*
X532316D01*
Y341664D01*
X532663D01*
Y341317D01*
X533010D01*
Y340970D01*
X533705D01*
Y340622D01*
X534399D01*
Y340275D01*
X534746D01*
Y339928D01*
X535440D01*
Y339581D01*
X536135D01*
Y339234D01*
X536829D01*
Y338887D01*
X537176D01*
Y338540D01*
X537870D01*
Y338192D01*
X538565D01*
Y337845D01*
X539259D01*
Y337498D01*
X539953D01*
Y337151D01*
X540648D01*
Y336804D01*
X541342D01*
Y336457D01*
X542036D01*
Y336110D01*
X542730D01*
Y335763D01*
X543424D01*
Y335415D01*
X544119D01*
Y335068D01*
X544813D01*
Y334721D01*
X545854D01*
Y334374D01*
X546549D01*
Y334027D01*
X547590D01*
Y333680D01*
X548632D01*
Y333333D01*
X549326D01*
Y332985D01*
X550367D01*
Y332638D01*
X551409D01*
Y332291D01*
X552450D01*
Y331944D01*
X553491D01*
Y331597D01*
X554880D01*
Y331250D01*
X555921D01*
Y330903D01*
X557310D01*
Y330556D01*
X558698D01*
Y330209D01*
X560434D01*
Y329861D01*
X562170D01*
Y329514D01*
X563905D01*
Y329167D01*
X566335D01*
Y328820D01*
X569112D01*
Y328473D01*
X573278D01*
Y328126D01*
X573625D01*
Y328473D01*
X573972D01*
Y328126D01*
X580221D01*
Y328473D01*
X584733D01*
Y328820D01*
X587163D01*
Y329167D01*
X589593D01*
Y329514D01*
X591329D01*
Y329861D01*
X593065D01*
Y330209D01*
X594453D01*
Y330556D01*
X595842D01*
Y330903D01*
X596883D01*
Y331250D01*
X598272D01*
Y331597D01*
X599313D01*
Y331944D01*
X600354D01*
Y332291D01*
X601396D01*
Y332638D01*
X602090D01*
Y332985D01*
X603131D01*
Y333333D01*
X604173D01*
Y333680D01*
X604867D01*
Y334027D01*
X605561D01*
Y334374D01*
X606256D01*
Y334721D01*
X606950D01*
Y335068D01*
X607644D01*
Y335415D01*
X608339D01*
Y335763D01*
X609033D01*
Y336110D01*
X609727D01*
Y336457D01*
X610421D01*
Y336804D01*
X610768D01*
Y337151D01*
X611463D01*
Y337498D01*
X612157D01*
Y337845D01*
X612504D01*
Y338192D01*
X613198D01*
Y338540D01*
X613545D01*
Y338887D01*
X614240D01*
Y339234D01*
X614934D01*
Y339581D01*
X615281D01*
Y339928D01*
X615975D01*
Y340275D01*
X616323D01*
Y340622D01*
X616670D01*
Y340970D01*
X617017D01*
Y341317D01*
X617711D01*
Y341664D01*
X618058D01*
Y342011D01*
X618405D01*
Y342358D01*
X618753D01*
Y342705D01*
X619447D01*
Y343052D01*
X619794D01*
Y343400D01*
X620141D01*
Y343747D01*
X620488D01*
Y344094D01*
X620835D01*
Y344441D01*
X621182D01*
Y344788D01*
X621530D01*
Y345135D01*
X622224D01*
Y345482D01*
X622571D01*
Y345830D01*
X622918D01*
Y346177D01*
X623265D01*
Y346871D01*
X623612D01*
Y347218D01*
X623960D01*
Y347565D01*
X624307D01*
Y347912D01*
X624654D01*
Y348259D01*
X625001D01*
Y348606D01*
X625348D01*
Y348954D01*
X625695D01*
Y349648D01*
X626042D01*
Y349995D01*
X626389D01*
Y350342D01*
X626736D01*
Y350689D01*
X627084D01*
Y351384D01*
X627431D01*
Y351731D01*
X627778D01*
Y352078D01*
X628125D01*
Y352772D01*
X628472D01*
Y353119D01*
X628819D01*
Y353814D01*
X629166D01*
Y354161D01*
X629514D01*
Y354855D01*
X629861D01*
Y355549D01*
X630208D01*
Y355896D01*
X630555D01*
Y356591D01*
X630902D01*
Y357285D01*
X631249D01*
Y357979D01*
X631596D01*
Y358673D01*
X631944D01*
Y359368D01*
X632291D01*
Y360062D01*
X632638D01*
Y360756D01*
X632985D01*
Y361798D01*
X633332D01*
Y362492D01*
X633679D01*
Y363533D01*
X634026D01*
Y364575D01*
X634374D01*
Y365616D01*
X634721D01*
Y366657D01*
X635068D01*
Y368046D01*
X635415D01*
Y369435D01*
X635762D01*
Y371517D01*
X636109D01*
Y373600D01*
X636456D01*
Y376724D01*
X636803D01*
Y382279D01*
X636456D01*
Y386444D01*
X636109D01*
Y388180D01*
X635762D01*
Y390262D01*
X635415D01*
Y391651D01*
X635068D01*
Y393040D01*
X634721D01*
Y394081D01*
X634374D01*
Y395122D01*
X634026D01*
Y396511D01*
X633679D01*
Y397205D01*
X633332D01*
Y398247D01*
X632985D01*
Y399288D01*
X632638D01*
Y399982D01*
X632291D01*
Y400676D01*
X631944D01*
Y401371D01*
X631596D01*
Y402065D01*
X631249D01*
Y403106D01*
X630902D01*
Y403454D01*
X630555D01*
Y403801D01*
X630208D01*
Y404148D01*
X629861D01*
Y404495D01*
X629514D01*
Y404842D01*
X629166D01*
Y405189D01*
X628819D01*
Y405536D01*
X628125D01*
Y405883D01*
X627778D01*
Y406231D01*
X627431D01*
Y406578D01*
X626736D01*
Y406925D01*
X626389D01*
Y407272D01*
X626042D01*
Y407619D01*
X625348D01*
Y407966D01*
X624654D01*
Y408313D01*
X624307D01*
Y408661D01*
X623612D01*
Y409008D01*
X622918D01*
Y409355D01*
X622224D01*
Y409702D01*
X621530D01*
Y410049D01*
X620835D01*
Y410396D01*
X619794D01*
Y410743D01*
X618753D01*
Y411091D01*
X617364D01*
Y411438D01*
X615975D01*
Y411785D01*
X613545D01*
Y412132D01*
X607991D01*
Y411785D01*
X605909D01*
Y411438D01*
X604520D01*
Y411091D01*
X603131D01*
Y410743D01*
X602090D01*
Y410396D01*
X601396D01*
Y410049D01*
X600354D01*
Y409702D01*
X599660D01*
Y409355D01*
X598966D01*
Y409008D01*
X598272D01*
Y408661D01*
X597577D01*
Y408313D01*
X596883D01*
Y407966D01*
X596536D01*
Y407619D01*
X595842D01*
Y407272D01*
X595147D01*
Y406925D01*
X594800D01*
Y406578D01*
X594453D01*
Y406231D01*
X593759D01*
Y405883D01*
X593412D01*
Y405536D01*
X593065D01*
Y405189D01*
X592370D01*
Y404842D01*
X592023D01*
Y404495D01*
X591676D01*
Y404148D01*
X591329D01*
Y403801D01*
X590982D01*
Y403454D01*
X590288D01*
Y403106D01*
X589940D01*
Y402759D01*
X589593D01*
Y402412D01*
X589246D01*
Y402065D01*
X588899D01*
Y401718D01*
X588552D01*
Y401371D01*
X588205D01*
Y401024D01*
X587858D01*
Y400676D01*
X587510D01*
Y399982D01*
X587163D01*
Y399635D01*
X586816D01*
Y399288D01*
X586469D01*
Y398941D01*
X586122D01*
Y398594D01*
X585775D01*
Y398247D01*
X585428D01*
Y397900D01*
X585080D01*
Y397205D01*
X584733D01*
Y396858D01*
X584386D01*
Y396511D01*
X584039D01*
Y396164D01*
X583692D01*
Y395470D01*
X583345D01*
Y395122D01*
X582998D01*
Y394775D01*
X582651D01*
Y394081D01*
X582304D01*
Y393734D01*
X581956D01*
Y393040D01*
X581609D01*
Y392692D01*
X581262D01*
Y391998D01*
X580915D01*
Y391651D01*
X580568D01*
Y390957D01*
X580221D01*
Y390610D01*
X579874D01*
Y389915D01*
X579526D01*
Y389221D01*
X579179D01*
Y388874D01*
X578832D01*
Y388180D01*
X578485D01*
Y387486D01*
X578138D01*
Y387138D01*
X577791D01*
Y386444D01*
X577444D01*
Y385750D01*
X577096D01*
Y385056D01*
X576749D01*
Y384361D01*
X576402D01*
Y383667D01*
X576055D01*
Y382973D01*
X575708D01*
Y382279D01*
X575361D01*
Y381584D01*
X575014D01*
Y380890D01*
X574666D01*
Y380196D01*
X574319D01*
Y379501D01*
X573972D01*
Y378807D01*
X573625D01*
Y377766D01*
X573278D01*
Y377071D01*
X572931D01*
Y376377D01*
X572584D01*
Y374989D01*
X572237D01*
Y373947D01*
X571889D01*
Y372906D01*
X571542D01*
Y372212D01*
X571195D01*
Y371517D01*
X570848D01*
Y370476D01*
X570501D01*
Y370129D01*
X570154D01*
Y369435D01*
X569807D01*
Y368740D01*
X569459D01*
Y368046D01*
X569112D01*
Y367699D01*
X568765D01*
Y367005D01*
X568418D01*
Y366657D01*
X568071D01*
Y365963D01*
X567724D01*
Y365616D01*
X567377D01*
Y364922D01*
X567030D01*
Y364575D01*
X566683D01*
Y364227D01*
X566335D01*
Y363880D01*
X565988D01*
Y363186D01*
X565641D01*
Y362839D01*
X565294D01*
Y362492D01*
X564947D01*
Y362145D01*
X564600D01*
Y361798D01*
X564253D01*
Y361451D01*
X563905D01*
Y361103D01*
X563558D01*
Y360756D01*
X563211D01*
Y360409D01*
X562517D01*
Y360062D01*
X562170D01*
Y359715D01*
X561823D01*
Y359368D01*
X561128D01*
Y359021D01*
X560781D01*
Y358673D01*
X560087D01*
Y358326D01*
X559740D01*
Y357979D01*
X559045D01*
Y357632D01*
X558004D01*
Y357285D01*
X556963D01*
Y356938D01*
X555574D01*
Y356591D01*
X553144D01*
Y356938D01*
X551409D01*
Y357285D01*
X550714D01*
Y357632D01*
X550020D01*
Y357979D01*
X549326D01*
Y358326D01*
X548632D01*
Y358673D01*
X547937D01*
Y359021D01*
X547590D01*
Y359368D01*
X547243D01*
Y359715D01*
X546896D01*
Y360062D01*
X546549D01*
Y360409D01*
X546202D01*
Y360756D01*
X545854D01*
Y361103D01*
X545507D01*
Y361451D01*
X545160D01*
Y361798D01*
X544813D01*
Y362145D01*
X544466D01*
Y362492D01*
X544119D01*
Y362839D01*
X543772D01*
Y363533D01*
X543424D01*
Y363880D01*
X543077D01*
Y364575D01*
X542730D01*
Y364922D01*
X542383D01*
Y365616D01*
X542036D01*
Y366310D01*
X541689D01*
Y367005D01*
X541342D01*
Y367699D01*
X540995D01*
Y368393D01*
X540648D01*
Y369087D01*
X540300D01*
Y370129D01*
X539953D01*
Y370823D01*
X539606D01*
Y371865D01*
X539259D01*
Y372906D01*
X538912D01*
Y374294D01*
X538565D01*
Y375683D01*
X538218D01*
Y377766D01*
X537870D01*
Y387833D01*
X538218D01*
Y388527D01*
X538565D01*
Y389221D01*
X538912D01*
Y389915D01*
X539259D01*
Y390262D01*
X539606D01*
Y390957D01*
X539953D01*
Y391651D01*
X540300D01*
Y391998D01*
X540648D01*
Y392692D01*
X540995D01*
Y393040D01*
X541342D01*
Y393734D01*
X541689D01*
Y394081D01*
X542036D01*
Y397900D01*
X542383D01*
Y405883D01*
Y406231D01*
Y407619D01*
X542036D01*
Y411091D01*
X541689D01*
Y413521D01*
X541342D01*
Y415256D01*
X540995D01*
Y416645D01*
X540648D01*
Y418033D01*
X540300D01*
Y419075D01*
X539953D01*
Y420116D01*
X539606D01*
Y421157D01*
X539259D01*
Y421852D01*
X538912D01*
Y422546D01*
X538565D01*
Y423587D01*
X538218D01*
Y424282D01*
X537870D01*
Y424976D01*
X537523D01*
Y425323D01*
X537176D01*
Y426017D01*
X536829D01*
Y426364D01*
X536482D01*
Y426712D01*
X536135D01*
Y427406D01*
X535788D01*
Y427753D01*
X535440D01*
Y428100D01*
X535093D01*
Y428447D01*
X534746D01*
Y428794D01*
X534399D01*
Y429142D01*
X533705D01*
Y429489D01*
X533358D01*
Y429836D01*
X532663D01*
Y430183D01*
X531969D01*
Y430530D01*
X530928D01*
Y430877D01*
D02*
G37*
G36*
X517042Y351384D02*
X516695D01*
Y351036D01*
X516348D01*
Y350689D01*
X516001D01*
Y350342D01*
X515654D01*
Y349995D01*
X515307D01*
Y349648D01*
X514960D01*
Y349301D01*
X514613D01*
Y348954D01*
X514265D01*
Y348606D01*
X513918D01*
Y347912D01*
X513571D01*
Y347565D01*
X513224D01*
Y347218D01*
X512877D01*
Y346871D01*
X512530D01*
Y346177D01*
X512183D01*
Y345830D01*
X511835D01*
Y345482D01*
X511488D01*
Y344788D01*
X511141D01*
Y344441D01*
X510794D01*
Y343747D01*
X510447D01*
Y343052D01*
X510100D01*
Y342358D01*
X509753D01*
Y341664D01*
X509406D01*
Y340970D01*
X509058D01*
Y339928D01*
X508711D01*
Y339234D01*
X508364D01*
Y337845D01*
X508017D01*
Y336110D01*
X507670D01*
Y331597D01*
X508017D01*
Y329861D01*
X508364D01*
Y328820D01*
X508711D01*
Y328126D01*
X509058D01*
Y327431D01*
X509406D01*
Y326737D01*
X509753D01*
Y326043D01*
X510100D01*
Y325696D01*
X510447D01*
Y325001D01*
X510794D01*
Y324654D01*
X511141D01*
Y324307D01*
X511488D01*
Y323960D01*
X511835D01*
Y323613D01*
X512183D01*
Y323266D01*
X512530D01*
Y322919D01*
X512877D01*
Y322571D01*
X513571D01*
Y322224D01*
X513918D01*
Y321877D01*
X514613D01*
Y321530D01*
X515307D01*
Y321183D01*
X515654D01*
Y320836D01*
X516695D01*
Y320489D01*
X517389D01*
Y320142D01*
X518431D01*
Y319795D01*
X519819D01*
Y319447D01*
X521902D01*
Y319100D01*
X526762D01*
Y319447D01*
X529192D01*
Y319795D01*
X530581D01*
Y320142D01*
X531969D01*
Y320489D01*
X533358D01*
Y320836D01*
X534399D01*
Y321183D01*
X535093D01*
Y321530D01*
X536135D01*
Y321877D01*
X536829D01*
Y322224D01*
X537523D01*
Y322571D01*
X538218D01*
Y322919D01*
X538912D01*
Y323266D01*
X539606D01*
Y323613D01*
X540300D01*
Y323960D01*
X540995D01*
Y324307D01*
X541342D01*
Y324654D01*
X542036D01*
Y325001D01*
X542730D01*
Y325349D01*
X543077D01*
Y325696D01*
X543772D01*
Y326043D01*
X544119D01*
Y326390D01*
X544813D01*
Y326737D01*
X545160D01*
Y327084D01*
X545507D01*
Y327431D01*
X546202D01*
Y327779D01*
X546549D01*
Y328126D01*
X548284D01*
Y327779D01*
X548632D01*
Y327084D01*
X548979D01*
Y326043D01*
X549326D01*
Y325001D01*
X549673D01*
Y324307D01*
X550020D01*
Y323613D01*
X550367D01*
Y322919D01*
X550714D01*
Y321877D01*
X551062D01*
Y321530D01*
X551409D01*
Y320836D01*
X551756D01*
Y320142D01*
X552103D01*
Y319795D01*
X552450D01*
Y319100D01*
X552797D01*
Y318753D01*
X553144D01*
Y318059D01*
X553491D01*
Y317712D01*
X553839D01*
Y317365D01*
X554186D01*
Y316670D01*
X554880D01*
Y315976D01*
X555227D01*
Y315629D01*
X555574D01*
Y315282D01*
X555921D01*
Y314935D01*
X556269D01*
Y314587D01*
X556616D01*
Y314240D01*
X556963D01*
Y313893D01*
X557657D01*
Y313546D01*
X558004D01*
Y313199D01*
X558351D01*
Y312852D01*
X559045D01*
Y312505D01*
X559393D01*
Y312157D01*
X559740D01*
Y311810D01*
X560434D01*
Y311463D01*
X560781D01*
Y311116D01*
X561475D01*
Y310769D01*
X562170D01*
Y310422D01*
X562864D01*
Y310075D01*
X563558D01*
Y309728D01*
X564253D01*
Y309380D01*
X564947D01*
Y309033D01*
X565988D01*
Y308686D01*
X566683D01*
Y308339D01*
X568071D01*
Y307992D01*
X569112D01*
Y307645D01*
X570848D01*
Y307298D01*
X572584D01*
Y306950D01*
X576749D01*
Y306603D01*
X577791D01*
Y306950D01*
X581262D01*
Y307298D01*
X582998D01*
Y307645D01*
X584733D01*
Y307992D01*
X585775D01*
Y308339D01*
X586816D01*
Y308686D01*
X587510D01*
Y309033D01*
X588205D01*
Y309380D01*
X588899D01*
Y309728D01*
X589593D01*
Y310075D01*
X590288D01*
Y310422D01*
X590635D01*
Y310769D01*
X591329D01*
Y311116D01*
X592023D01*
Y311463D01*
X592370D01*
Y311810D01*
X592718D01*
Y312157D01*
X593065D01*
Y312505D01*
X593759D01*
Y312852D01*
X594106D01*
Y313199D01*
X594453D01*
Y313546D01*
X594800D01*
Y313893D01*
X595147D01*
Y314240D01*
X595494D01*
Y314935D01*
X595842D01*
Y315282D01*
X596189D01*
Y315629D01*
X596536D01*
Y316323D01*
X596883D01*
Y316670D01*
X597230D01*
Y317365D01*
X597577D01*
Y317712D01*
X597924D01*
Y318406D01*
X598272D01*
Y319100D01*
X598619D01*
Y320142D01*
X598966D01*
Y320836D01*
X599313D01*
Y321877D01*
X599660D01*
Y323266D01*
X600007D01*
Y325001D01*
X600354D01*
Y328820D01*
X600701D01*
Y329167D01*
X598966D01*
Y328820D01*
X597924D01*
Y328473D01*
X596536D01*
Y328126D01*
X595494D01*
Y327779D01*
X594106D01*
Y327431D01*
X592370D01*
Y327084D01*
X590635D01*
Y326737D01*
X588552D01*
Y326390D01*
X586469D01*
Y326043D01*
X583345D01*
Y325696D01*
X571195D01*
Y326043D01*
X567377D01*
Y326390D01*
X564600D01*
Y326737D01*
X562517D01*
Y327084D01*
X560781D01*
Y327431D01*
X559045D01*
Y327779D01*
X557657D01*
Y328126D01*
X556269D01*
Y328473D01*
X554880D01*
Y328820D01*
X553839D01*
Y329167D01*
X552450D01*
Y329514D01*
X551409D01*
Y329861D01*
X550367D01*
Y330209D01*
X549673D01*
Y330556D01*
X548632D01*
Y330903D01*
X547590D01*
Y331250D01*
X546549D01*
Y331597D01*
X545854D01*
Y331944D01*
X545160D01*
Y332291D01*
X544119D01*
Y332638D01*
X543424D01*
Y332985D01*
X542730D01*
Y333333D01*
X541689D01*
Y333680D01*
X540995D01*
Y334027D01*
X540300D01*
Y334374D01*
X539606D01*
Y334721D01*
X538912D01*
Y335068D01*
X538218D01*
Y335415D01*
X537523D01*
Y335763D01*
X536829D01*
Y336110D01*
X536482D01*
Y336457D01*
X535788D01*
Y336804D01*
X535093D01*
Y337151D01*
X534399D01*
Y337498D01*
X534052D01*
Y337845D01*
X533358D01*
Y338192D01*
X533010D01*
Y338540D01*
X532316D01*
Y338887D01*
X531622D01*
Y339234D01*
X531275D01*
Y339581D01*
X530581D01*
Y339928D01*
X530233D01*
Y340275D01*
X529539D01*
Y340622D01*
X529192D01*
Y340970D01*
X528845D01*
Y341317D01*
X528151D01*
Y341664D01*
X527803D01*
Y342011D01*
X527109D01*
Y342358D01*
X526762D01*
Y342705D01*
X526415D01*
Y343052D01*
X525721D01*
Y343400D01*
X525374D01*
Y343747D01*
X525027D01*
Y344094D01*
X524679D01*
Y344441D01*
X523985D01*
Y344788D01*
X523638D01*
Y345135D01*
X523291D01*
Y345482D01*
X522944D01*
Y345830D01*
X522597D01*
Y346177D01*
X522249D01*
Y346524D01*
X521555D01*
Y346871D01*
X521208D01*
Y347218D01*
X520861D01*
Y347565D01*
X520514D01*
Y347912D01*
X520167D01*
Y348259D01*
X519819D01*
Y348606D01*
X519472D01*
Y348954D01*
X519125D01*
Y349301D01*
X518778D01*
Y349648D01*
X518431D01*
Y349995D01*
X518084D01*
Y350342D01*
X517737D01*
Y350689D01*
X517389D01*
Y351036D01*
X517042D01*
Y351384D01*
D02*
G37*
G36*
X517737Y311463D02*
X514265D01*
Y311116D01*
X513224D01*
Y310769D01*
X512183D01*
Y310422D01*
X511488D01*
Y310075D01*
X511141D01*
Y309728D01*
X510447D01*
Y309380D01*
X510100D01*
Y309033D01*
X509753D01*
Y308686D01*
X509406D01*
Y308339D01*
X509058D01*
Y307992D01*
X508711D01*
Y307645D01*
X508364D01*
Y306950D01*
X508017D01*
Y306603D01*
X507670D01*
Y305909D01*
X507323D01*
Y305215D01*
X506976D01*
Y304174D01*
X506628D01*
Y303132D01*
X506281D01*
Y301049D01*
X505934D01*
Y299314D01*
X506281D01*
Y297231D01*
X506628D01*
Y296189D01*
X506976D01*
Y295148D01*
X507323D01*
Y294454D01*
X507670D01*
Y294107D01*
X508017D01*
Y293412D01*
X508364D01*
Y293065D01*
X508711D01*
Y292718D01*
X509058D01*
Y292371D01*
X509406D01*
Y292024D01*
X509753D01*
Y291677D01*
X510447D01*
Y291329D01*
X511141D01*
Y290982D01*
X511835D01*
Y290635D01*
X513224D01*
Y290288D01*
X516348D01*
Y290635D01*
X517389D01*
Y290982D01*
X518431D01*
Y291329D01*
X519125D01*
Y291677D01*
X519472D01*
Y292024D01*
X519819D01*
Y292371D01*
X520514D01*
Y292718D01*
X520861D01*
Y293065D01*
X521208D01*
Y293412D01*
X521555D01*
Y293759D01*
X521902D01*
Y294107D01*
X522249D01*
Y294801D01*
X522597D01*
Y295495D01*
X522944D01*
Y295842D01*
X523291D01*
Y296537D01*
X523638D01*
Y297578D01*
X523985D01*
Y298619D01*
X524332D01*
Y298967D01*
Y299314D01*
Y300008D01*
X524679D01*
Y302785D01*
X524332D01*
Y304868D01*
X523985D01*
Y305562D01*
X523638D01*
Y306603D01*
X523291D01*
Y307298D01*
X522944D01*
Y307645D01*
X522597D01*
Y308339D01*
X522249D01*
Y308686D01*
X521902D01*
Y309033D01*
X521555D01*
Y309380D01*
X521208D01*
Y309728D01*
X520861D01*
Y310075D01*
X520167D01*
Y310422D01*
X519819D01*
Y310769D01*
X518778D01*
Y311116D01*
X517737D01*
Y311463D01*
D02*
G37*
G36*
X487883Y303826D02*
X484412D01*
Y303479D01*
X484065D01*
Y297925D01*
X484412D01*
Y295148D01*
X484759D01*
Y293065D01*
X485106D01*
Y291677D01*
X485453D01*
Y290288D01*
X485800D01*
Y288900D01*
X486147D01*
Y287858D01*
X486495D01*
Y287164D01*
X486842D01*
Y286122D01*
X487189D01*
Y285775D01*
X486495D01*
Y286122D01*
X486147D01*
Y286470D01*
X485800D01*
Y286817D01*
X485453D01*
Y287511D01*
X485106D01*
Y287858D01*
X484759D01*
Y288552D01*
X484412D01*
Y289247D01*
X484065D01*
Y289941D01*
X483718D01*
Y290635D01*
X483371D01*
Y291677D01*
X483023D01*
Y292371D01*
X482676D01*
Y293759D01*
X482329D01*
Y294801D01*
X481982D01*
Y296189D01*
X481635D01*
Y298967D01*
X481288D01*
Y300008D01*
X481635D01*
Y300355D01*
X481288D01*
Y300702D01*
X481635D01*
Y301049D01*
X481288D01*
Y301744D01*
X480941D01*
Y301396D01*
X480593D01*
Y300702D01*
X480246D01*
Y300008D01*
X479899D01*
Y299314D01*
X479552D01*
Y298272D01*
X479205D01*
Y296884D01*
X478858D01*
Y294107D01*
X478511D01*
Y292024D01*
X478858D01*
Y291677D01*
X478511D01*
Y290982D01*
X478858D01*
Y287858D01*
X479205D01*
Y285775D01*
X479552D01*
Y284040D01*
X479899D01*
Y282651D01*
X480246D01*
Y281263D01*
X480593D01*
Y279874D01*
X480941D01*
Y278833D01*
X481288D01*
Y277791D01*
X481635D01*
Y276750D01*
X481982D01*
Y275709D01*
X482329D01*
Y275014D01*
X482676D01*
Y273973D01*
X483023D01*
Y272931D01*
X483371D01*
Y272237D01*
X483718D01*
Y271196D01*
X484065D01*
Y270501D01*
X484412D01*
Y269807D01*
X484759D01*
Y269113D01*
X485106D01*
Y268419D01*
X485453D01*
Y267724D01*
X485800D01*
Y267030D01*
X486147D01*
Y266336D01*
X486495D01*
Y265642D01*
X486842D01*
Y264947D01*
X487189D01*
Y264253D01*
X487536D01*
Y263906D01*
X487883D01*
Y263212D01*
X488230D01*
Y262518D01*
X488577D01*
Y261823D01*
X488925D01*
Y261476D01*
X489272D01*
Y260782D01*
X489619D01*
Y260435D01*
X489966D01*
Y259740D01*
X490313D01*
Y259393D01*
X490660D01*
Y258699D01*
X491007D01*
Y258352D01*
X491354D01*
Y258005D01*
X491702D01*
Y257311D01*
X492049D01*
Y256963D01*
X492396D01*
Y256616D01*
X492743D01*
Y256269D01*
X493090D01*
Y255922D01*
X493437D01*
Y255228D01*
X493784D01*
Y254881D01*
X494132D01*
Y254533D01*
X494479D01*
Y254186D01*
X494826D01*
Y253839D01*
X495173D01*
Y253492D01*
X495520D01*
Y253145D01*
X495867D01*
Y252798D01*
X496562D01*
Y252451D01*
X496909D01*
Y252104D01*
X497256D01*
Y251756D01*
X497950D01*
Y251409D01*
X498297D01*
Y251062D01*
X498992D01*
Y250715D01*
X499686D01*
Y250368D01*
X500380D01*
Y250021D01*
X501074D01*
Y249674D01*
X502463D01*
Y249326D01*
X504893D01*
Y249674D01*
X506281D01*
Y250021D01*
X506976D01*
Y250368D01*
X507323D01*
Y250715D01*
X507670D01*
Y251062D01*
X508364D01*
Y251409D01*
X508711D01*
Y252104D01*
X509058D01*
Y252451D01*
X509406D01*
Y252798D01*
X509753D01*
Y253492D01*
X510100D01*
Y254186D01*
X510447D01*
Y254881D01*
X510794D01*
Y255922D01*
X511141D01*
Y256963D01*
X511488D01*
Y258352D01*
X511835D01*
Y260435D01*
X512183D01*
Y269460D01*
X511835D01*
Y271543D01*
X511488D01*
Y273279D01*
X511141D01*
Y275014D01*
X510794D01*
Y276403D01*
X510447D01*
Y277791D01*
X510100D01*
Y278486D01*
X509753D01*
Y279527D01*
X509406D01*
Y280568D01*
X509058D01*
Y281610D01*
X508711D01*
Y282304D01*
X508364D01*
Y283346D01*
X508017D01*
Y284040D01*
X507670D01*
Y284734D01*
X507323D01*
Y285428D01*
X506976D01*
Y286122D01*
X506628D01*
Y286817D01*
X506281D01*
Y287164D01*
X505934D01*
Y287858D01*
X505587D01*
Y288552D01*
X505240D01*
Y288900D01*
X504893D01*
Y289594D01*
X504546D01*
Y290288D01*
X504198D01*
Y290635D01*
X503851D01*
Y291329D01*
X503504D01*
Y291677D01*
X503157D01*
Y292024D01*
X502810D01*
Y292718D01*
X502463D01*
Y293065D01*
X502116D01*
Y293412D01*
X501768D01*
Y293759D01*
X501421D01*
Y294454D01*
X501074D01*
Y294801D01*
X500727D01*
Y295148D01*
X500380D01*
Y295495D01*
X500033D01*
Y295842D01*
X499686D01*
Y296189D01*
X499339D01*
Y296537D01*
X498992D01*
Y296884D01*
X498644D01*
Y297231D01*
X498297D01*
Y297578D01*
X497950D01*
Y297925D01*
X497603D01*
Y298272D01*
X497256D01*
Y298619D01*
X496909D01*
Y298967D01*
X496214D01*
Y299314D01*
X495867D01*
Y299661D01*
X495520D01*
Y300008D01*
X494826D01*
Y300355D01*
X494479D01*
Y300702D01*
X494132D01*
Y301049D01*
X493437D01*
Y301396D01*
X493090D01*
Y301744D01*
X492396D01*
Y302091D01*
X491354D01*
Y300355D01*
X491702D01*
Y297925D01*
X492049D01*
Y296189D01*
X492396D01*
Y294801D01*
X492743D01*
Y293065D01*
X493090D01*
Y291677D01*
X493437D01*
Y290288D01*
X493784D01*
Y288900D01*
X494132D01*
Y287858D01*
X494479D01*
Y286817D01*
X494826D01*
Y285775D01*
X495173D01*
Y285428D01*
X494479D01*
Y285775D01*
X494132D01*
Y286470D01*
X493784D01*
Y286817D01*
X493437D01*
Y287164D01*
X493090D01*
Y287858D01*
X492743D01*
Y288552D01*
X492396D01*
Y288900D01*
X492049D01*
Y289594D01*
X491702D01*
Y290288D01*
X491354D01*
Y290982D01*
X491007D01*
Y291677D01*
X490660D01*
Y293065D01*
X490313D01*
Y294107D01*
X489966D01*
Y295495D01*
X489619D01*
Y296537D01*
X489272D01*
Y298619D01*
X488925D01*
Y301744D01*
X488577D01*
Y303479D01*
X487883D01*
Y303826D01*
D02*
G37*
G36*
X635762Y304174D02*
X635415D01*
Y303826D01*
X634721D01*
Y303479D01*
X634374D01*
Y303132D01*
X634026D01*
Y302785D01*
X633332D01*
Y302438D01*
X632985D01*
Y302091D01*
X632291D01*
Y301744D01*
X631944D01*
Y301396D01*
X631249D01*
Y301049D01*
X630902D01*
Y300702D01*
X630208D01*
Y300355D01*
X629514D01*
Y300008D01*
X629166D01*
Y299661D01*
X628472D01*
Y297925D01*
X628819D01*
Y296537D01*
X629166D01*
Y295495D01*
X629514D01*
Y293759D01*
X629861D01*
Y291677D01*
X630208D01*
Y288552D01*
X630555D01*
Y287164D01*
X630208D01*
Y286122D01*
X630555D01*
Y285775D01*
X630208D01*
Y285081D01*
X629861D01*
Y285428D01*
X629514D01*
Y286470D01*
X629166D01*
Y287511D01*
X628819D01*
Y288900D01*
X628472D01*
Y289941D01*
X628125D01*
Y291329D01*
X627778D01*
Y292371D01*
X627431D01*
Y293759D01*
X627084D01*
Y294801D01*
X626736D01*
Y295842D01*
X626389D01*
Y296884D01*
X626042D01*
Y297925D01*
X625348D01*
Y297578D01*
X624654D01*
Y297231D01*
X623960D01*
Y296884D01*
X623265D01*
Y296537D01*
X622571D01*
Y296189D01*
X621877D01*
Y295842D01*
X621182D01*
Y295495D01*
X620488D01*
Y295148D01*
X619447D01*
Y294801D01*
X618753D01*
Y294454D01*
X618058D01*
Y294107D01*
X617364D01*
Y293759D01*
X616323D01*
Y293412D01*
X615628D01*
Y293065D01*
X614587D01*
Y292718D01*
X613893D01*
Y292371D01*
X612851D01*
Y292024D01*
X612157D01*
Y291677D01*
X611115D01*
Y291329D01*
X610074D01*
Y290982D01*
X609033D01*
Y290635D01*
X608339D01*
Y290288D01*
X606950D01*
Y289941D01*
X606256D01*
Y289594D01*
X605214D01*
Y289247D01*
X604867D01*
Y288205D01*
X605214D01*
Y276403D01*
X604867D01*
Y273279D01*
X604520D01*
Y270849D01*
X604173D01*
Y268766D01*
X603826D01*
Y267377D01*
X603479D01*
Y265989D01*
X603131D01*
Y264600D01*
X602784D01*
Y263559D01*
X602437D01*
Y262518D01*
X602090D01*
Y261476D01*
X601743D01*
Y260435D01*
X601396D01*
Y259740D01*
X601049D01*
Y258699D01*
X600701D01*
Y258005D01*
X600354D01*
Y257658D01*
X600701D01*
Y257311D01*
X601396D01*
Y256963D01*
X601743D01*
Y256616D01*
X602437D01*
Y256269D01*
X603131D01*
Y255922D01*
X603479D01*
Y255575D01*
X604173D01*
Y255228D01*
X604867D01*
Y254881D01*
X605909D01*
Y254533D01*
X606950D01*
Y254186D01*
X607991D01*
Y253839D01*
X609727D01*
Y253492D01*
X613545D01*
Y253839D01*
X615281D01*
Y254186D01*
X616670D01*
Y254533D01*
X617364D01*
Y254881D01*
X618058D01*
Y255228D01*
X618753D01*
Y255575D01*
X619447D01*
Y255922D01*
X620141D01*
Y256269D01*
X620835D01*
Y256616D01*
X621182D01*
Y256963D01*
X621530D01*
Y257311D01*
X621877D01*
Y257658D01*
X622224D01*
Y258005D01*
X622918D01*
Y258352D01*
X623265D01*
Y258699D01*
X623612D01*
Y259046D01*
X623960D01*
Y259393D01*
X624307D01*
Y260088D01*
X624654D01*
Y260435D01*
X625001D01*
Y260782D01*
X625348D01*
Y261129D01*
X625695D01*
Y261823D01*
X626042D01*
Y262170D01*
X626389D01*
Y262865D01*
X626736D01*
Y263559D01*
X627084D01*
Y263906D01*
X627431D01*
Y264600D01*
X627778D01*
Y265294D01*
X628125D01*
Y265989D01*
X628472D01*
Y267030D01*
X628819D01*
Y268072D01*
X629166D01*
Y269460D01*
X629514D01*
Y270849D01*
X629861D01*
Y272237D01*
X630208D01*
Y275014D01*
X630555D01*
Y280916D01*
X631249D01*
Y279874D01*
X631596D01*
Y277791D01*
X631944D01*
Y274667D01*
X632291D01*
Y273973D01*
X631944D01*
Y273279D01*
X632291D01*
Y272931D01*
X631944D01*
Y271196D01*
X632291D01*
Y271543D01*
X632638D01*
Y271890D01*
X632985D01*
Y272237D01*
X633332D01*
Y272584D01*
X633679D01*
Y272931D01*
X634026D01*
Y273279D01*
X634374D01*
Y273626D01*
X634721D01*
Y273973D01*
X635068D01*
Y274320D01*
X635415D01*
Y274667D01*
X635762D01*
Y275014D01*
X636109D01*
Y275361D01*
X636456D01*
Y275709D01*
X636803D01*
Y276056D01*
X637150D01*
Y276403D01*
X637498D01*
Y276750D01*
Y277097D01*
X637845D01*
Y277444D01*
X638192D01*
Y277791D01*
X638539D01*
Y278486D01*
X638886D01*
Y278833D01*
X639233D01*
Y279180D01*
X639580D01*
Y279527D01*
X639928D01*
Y280221D01*
X640275D01*
Y280568D01*
X640622D01*
Y281263D01*
X640969D01*
Y281610D01*
X641316D01*
Y282304D01*
X641663D01*
Y282998D01*
X642010D01*
Y283346D01*
X642357D01*
Y284040D01*
X642705D01*
Y284387D01*
X643052D01*
Y285081D01*
X643399D01*
Y285775D01*
X643746D01*
Y286122D01*
X644093D01*
Y286817D01*
X644440D01*
Y287511D01*
X644788D01*
Y288205D01*
X645135D01*
Y288900D01*
X645482D01*
Y289941D01*
X645829D01*
Y290635D01*
X646176D01*
Y291677D01*
X646523D01*
Y292718D01*
X646870D01*
Y293759D01*
X647217D01*
Y296189D01*
X646870D01*
Y296537D01*
X645829D01*
Y296884D01*
X643746D01*
Y297231D01*
X634374D01*
Y296884D01*
X631944D01*
Y297231D01*
X632291D01*
Y297578D01*
X632638D01*
Y297925D01*
X632985D01*
Y298272D01*
X633332D01*
Y298619D01*
X634026D01*
Y298967D01*
X634374D01*
Y299314D01*
X635415D01*
Y300008D01*
X635762D01*
Y304174D01*
D02*
G37*
G36*
X588552Y242037D02*
X588205D01*
Y241689D01*
X587858D01*
Y240648D01*
X587510D01*
Y239954D01*
X587163D01*
Y239259D01*
X586816D01*
Y238565D01*
X586469D01*
Y238218D01*
X586122D01*
Y237524D01*
X585775D01*
Y237177D01*
X585428D01*
Y236483D01*
X585080D01*
Y236135D01*
X584733D01*
Y235788D01*
X584386D01*
Y235441D01*
X584039D01*
Y235094D01*
X583692D01*
Y234747D01*
X583345D01*
Y234400D01*
X582998D01*
Y234053D01*
X582651D01*
Y233705D01*
X582304D01*
Y233358D01*
X581609D01*
Y233011D01*
X581262D01*
Y232664D01*
X580568D01*
Y232317D01*
X579874D01*
Y231970D01*
X579526D01*
Y231623D01*
X578485D01*
Y231276D01*
X577791D01*
Y230928D01*
X576402D01*
Y230581D01*
X575014D01*
Y230234D01*
X570154D01*
Y230581D01*
X568765D01*
Y230928D01*
X567377D01*
Y231276D01*
X566683D01*
Y231623D01*
X565988D01*
Y231970D01*
X564947D01*
Y230581D01*
X565294D01*
Y227110D01*
X565641D01*
Y225027D01*
X565988D01*
Y223291D01*
X566335D01*
Y221556D01*
X566683D01*
Y220167D01*
X567030D01*
Y219126D01*
X567377D01*
Y217737D01*
X567724D01*
Y216696D01*
X568071D01*
Y215655D01*
X568418D01*
Y214613D01*
X568765D01*
Y213919D01*
X569112D01*
Y212877D01*
X569459D01*
Y212183D01*
X569807D01*
Y211142D01*
X570154D01*
Y210795D01*
X570501D01*
Y210100D01*
Y209753D01*
X570848D01*
Y209406D01*
X571195D01*
Y208712D01*
X571542D01*
Y208018D01*
X571889D01*
Y207323D01*
X572237D01*
Y206629D01*
X572584D01*
Y206282D01*
X572931D01*
Y205588D01*
X573278D01*
Y205240D01*
X573625D01*
Y204546D01*
X573972D01*
Y204199D01*
X574319D01*
Y203505D01*
X574666D01*
Y203158D01*
X575014D01*
Y202810D01*
X575361D01*
Y202463D01*
X575708D01*
Y201769D01*
X576055D01*
Y201422D01*
X576402D01*
Y201075D01*
X576749D01*
Y200728D01*
X577096D01*
Y200381D01*
X577444D01*
Y200033D01*
X577791D01*
Y199686D01*
X578138D01*
Y199339D01*
X578485D01*
Y198992D01*
X578832D01*
Y198645D01*
X579179D01*
Y198298D01*
X579874D01*
Y197951D01*
X580221D01*
Y198645D01*
X579874D01*
Y199686D01*
X579526D01*
Y200381D01*
X579179D01*
Y201422D01*
X578832D01*
Y202463D01*
X578485D01*
Y203158D01*
X578138D01*
Y204546D01*
X577791D01*
Y205588D01*
X577444D01*
Y207670D01*
X577096D01*
Y215307D01*
X577444D01*
Y217737D01*
X578138D01*
Y215307D01*
X578485D01*
Y212530D01*
X578832D01*
Y210795D01*
X579179D01*
Y209059D01*
X579526D01*
Y207670D01*
X579874D01*
Y206282D01*
X580221D01*
Y205240D01*
X580568D01*
Y204199D01*
X580915D01*
Y203158D01*
X581262D01*
Y202116D01*
X581609D01*
Y201422D01*
X581956D01*
Y200381D01*
X582304D01*
Y199686D01*
X582651D01*
Y198992D01*
X582998D01*
Y198298D01*
X583345D01*
Y197603D01*
X583692D01*
Y197256D01*
X584039D01*
Y196562D01*
X584386D01*
Y196215D01*
X584733D01*
Y195521D01*
X585080D01*
Y195174D01*
X585428D01*
Y194827D01*
X586816D01*
Y194479D01*
X591676D01*
Y194827D01*
X592718D01*
Y195174D01*
X593412D01*
Y195521D01*
X593065D01*
Y196215D01*
X592718D01*
Y196562D01*
X592370D01*
Y197256D01*
X592023D01*
Y197603D01*
X591676D01*
Y198298D01*
X591329D01*
Y198992D01*
X590982D01*
Y199686D01*
X590635D01*
Y200381D01*
X590288D01*
Y201075D01*
X589940D01*
Y201769D01*
X589593D01*
Y202463D01*
X589246D01*
Y203158D01*
X588899D01*
Y203852D01*
X588552D01*
Y204893D01*
X588205D01*
Y205588D01*
X587858D01*
Y206282D01*
X587510D01*
Y207323D01*
X587163D01*
Y208365D01*
X586816D01*
Y209406D01*
X586469D01*
Y210795D01*
X586122D01*
Y212183D01*
X585775D01*
Y213225D01*
X585428D01*
Y215307D01*
X585080D01*
Y217737D01*
X584733D01*
Y219473D01*
X585428D01*
Y218431D01*
X585775D01*
Y217390D01*
X586122D01*
Y216696D01*
X586469D01*
Y215655D01*
X586816D01*
Y214960D01*
X587163D01*
Y213919D01*
X587510D01*
Y213225D01*
X587858D01*
Y212530D01*
X588205D01*
Y211489D01*
X588552D01*
Y210448D01*
X588899D01*
Y209753D01*
X589246D01*
Y209059D01*
X589593D01*
Y208018D01*
X589940D01*
Y207323D01*
X590288D01*
Y206282D01*
X590635D01*
Y205588D01*
X590982D01*
Y204893D01*
X591329D01*
Y204199D01*
X591676D01*
Y203505D01*
X592023D01*
Y202463D01*
X592370D01*
Y201769D01*
X592718D01*
Y201075D01*
X593065D01*
Y200381D01*
X593412D01*
Y200033D01*
X593759D01*
Y199339D01*
X594106D01*
Y198645D01*
X594453D01*
Y198298D01*
X594800D01*
Y197603D01*
X595147D01*
Y197256D01*
X595494D01*
Y196909D01*
X595842D01*
Y197256D01*
X596189D01*
Y197603D01*
X596536D01*
Y198298D01*
X596883D01*
Y198645D01*
X597230D01*
Y199339D01*
X597577D01*
Y200033D01*
X597924D01*
Y201075D01*
X598272D01*
Y202463D01*
X598619D01*
Y203852D01*
X598966D01*
Y206629D01*
X599313D01*
Y207670D01*
X598966D01*
Y208365D01*
X599313D01*
Y209059D01*
X598966D01*
Y213919D01*
X598619D01*
Y216002D01*
X598272D01*
Y218084D01*
X597924D01*
Y219473D01*
X597577D01*
Y220861D01*
X597230D01*
Y222250D01*
X596883D01*
Y223291D01*
X596536D01*
Y224333D01*
X596189D01*
Y225721D01*
X595842D01*
Y226763D01*
X595494D01*
Y227804D01*
X595147D01*
Y228498D01*
X594800D01*
Y229540D01*
X594453D01*
Y230234D01*
X594106D01*
Y231276D01*
X593759D01*
Y231970D01*
X593412D01*
Y232664D01*
X593065D01*
Y233358D01*
X592718D01*
Y234400D01*
X592370D01*
Y235094D01*
X592023D01*
Y235788D01*
X591676D01*
Y236483D01*
X591329D01*
Y237177D01*
X590982D01*
Y237871D01*
X590635D01*
Y238218D01*
X590288D01*
Y238912D01*
X589940D01*
Y239607D01*
X589593D01*
Y240301D01*
X589246D01*
Y240995D01*
X588899D01*
Y241342D01*
X588552D01*
Y242037D01*
D02*
G37*
%LPD*%
G36*
X551409Y391304D02*
X553839D01*
Y390957D01*
X554880D01*
Y390610D01*
X556269D01*
Y390262D01*
X556963D01*
Y389915D01*
X557657D01*
Y389568D01*
X558351D01*
Y389221D01*
X559045D01*
Y388874D01*
X559740D01*
Y388527D01*
X560434D01*
Y388180D01*
X560781D01*
Y387833D01*
X561475D01*
Y387486D01*
X561823D01*
Y387138D01*
X562517D01*
Y386791D01*
X562864D01*
Y386444D01*
X563211D01*
Y386097D01*
X563905D01*
Y385750D01*
X564253D01*
Y385403D01*
X564600D01*
Y385056D01*
X564947D01*
Y384708D01*
X565294D01*
Y384361D01*
X565641D01*
Y384014D01*
X565988D01*
Y383667D01*
X566335D01*
Y383320D01*
X566683D01*
Y382973D01*
X567030D01*
Y382626D01*
X567377D01*
Y382279D01*
X567724D01*
Y381931D01*
X568071D01*
Y381584D01*
X568418D01*
Y381237D01*
X568765D01*
Y378460D01*
X568418D01*
Y376724D01*
X568071D01*
Y375683D01*
X567724D01*
Y374641D01*
X567377D01*
Y373947D01*
X567030D01*
Y372906D01*
X566683D01*
Y372212D01*
X566335D01*
Y371865D01*
X565988D01*
Y371170D01*
X565641D01*
Y370476D01*
X565294D01*
Y370129D01*
X564947D01*
Y369435D01*
X564600D01*
Y369087D01*
X564253D01*
Y368740D01*
X563905D01*
Y368393D01*
X563558D01*
Y368046D01*
X563211D01*
Y367352D01*
X562864D01*
Y367005D01*
X562517D01*
Y366657D01*
X561823D01*
Y366310D01*
X561475D01*
Y365963D01*
X561128D01*
Y365616D01*
X560781D01*
Y365269D01*
X560087D01*
Y364922D01*
X559740D01*
Y364575D01*
X559045D01*
Y364227D01*
X558351D01*
Y363880D01*
X557657D01*
Y363533D01*
X556616D01*
Y363186D01*
X554533D01*
Y362839D01*
X553839D01*
Y363186D01*
X551756D01*
Y363533D01*
X550714D01*
Y363880D01*
X550367D01*
Y364227D01*
X549673D01*
Y364575D01*
X549326D01*
Y364922D01*
X548632D01*
Y365269D01*
X548284D01*
Y365616D01*
X547937D01*
Y365963D01*
X547590D01*
Y366657D01*
X547243D01*
Y367005D01*
X546896D01*
Y367352D01*
X546549D01*
Y367699D01*
X546202D01*
Y368393D01*
X545854D01*
Y369087D01*
X545507D01*
Y369435D01*
X545160D01*
Y370129D01*
X544813D01*
Y371170D01*
X544466D01*
Y371865D01*
X544119D01*
Y372906D01*
X543772D01*
Y373947D01*
X543424D01*
Y375336D01*
X543077D01*
Y377071D01*
X542730D01*
Y379849D01*
X542383D01*
Y383667D01*
X542730D01*
Y386444D01*
X543077D01*
Y387138D01*
X543424D01*
Y387486D01*
X543772D01*
Y388180D01*
X544119D01*
Y388527D01*
X544466D01*
Y388874D01*
X544813D01*
Y389221D01*
X545160D01*
Y389568D01*
X545854D01*
Y389915D01*
X546202D01*
Y390262D01*
X546896D01*
Y390610D01*
X547590D01*
Y390957D01*
X548632D01*
Y391304D01*
X551062D01*
Y391651D01*
X551409D01*
Y391304D01*
D02*
G37*
%LPC*%
G36*
X552797Y388874D02*
X549326D01*
Y388527D01*
X548284D01*
Y388180D01*
X547937D01*
Y387833D01*
X547243D01*
Y387486D01*
X546896D01*
Y387138D01*
X546549D01*
Y386791D01*
X546202D01*
Y386444D01*
X545854D01*
Y386097D01*
X545507D01*
Y385056D01*
X545160D01*
Y377766D01*
X545507D01*
Y376377D01*
X545854D01*
Y374641D01*
X546202D01*
Y373600D01*
X546549D01*
Y372906D01*
X546896D01*
Y371865D01*
X547243D01*
Y371170D01*
X547590D01*
Y370476D01*
X547937D01*
Y369782D01*
X548284D01*
Y369435D01*
X548632D01*
Y368740D01*
X548979D01*
Y368393D01*
X549326D01*
Y368046D01*
X549673D01*
Y367699D01*
X550020D01*
Y367352D01*
X550367D01*
Y367005D01*
X550714D01*
Y366657D01*
X551062D01*
Y366310D01*
X551756D01*
Y365963D01*
X552450D01*
Y365616D01*
X555574D01*
Y365963D01*
X556616D01*
Y366310D01*
X557310D01*
Y366657D01*
X558004D01*
Y367005D01*
X558698D01*
Y367352D01*
X559045D01*
Y367699D01*
X559740D01*
Y368046D01*
X560087D01*
Y368393D01*
X560434D01*
Y368740D01*
X560781D01*
Y369087D01*
X561128D01*
Y369435D01*
X561475D01*
Y369782D01*
X561823D01*
Y370129D01*
X562170D01*
Y370823D01*
X562517D01*
Y371170D01*
X562864D01*
Y371517D01*
X563211D01*
Y372212D01*
X563558D01*
Y372906D01*
X563905D01*
Y373253D01*
X564253D01*
Y373947D01*
X564600D01*
Y374989D01*
X564947D01*
Y375683D01*
X565294D01*
Y376724D01*
X565641D01*
Y378113D01*
X565988D01*
Y380196D01*
X565641D01*
Y380890D01*
X565294D01*
Y381237D01*
X564947D01*
Y381584D01*
X564600D01*
Y381931D01*
X564253D01*
Y382279D01*
X563905D01*
Y382626D01*
X563211D01*
Y382973D01*
X562864D01*
Y383320D01*
X562517D01*
Y383667D01*
X562170D01*
Y384014D01*
X561823D01*
Y384361D01*
X561128D01*
Y384708D01*
X560781D01*
Y385056D01*
X560434D01*
Y385403D01*
X559740D01*
Y385750D01*
X559393D01*
Y386097D01*
X558698D01*
Y386444D01*
X558004D01*
Y386791D01*
X557657D01*
Y387138D01*
X556963D01*
Y387486D01*
X555921D01*
Y387833D01*
X555227D01*
Y388180D01*
X554186D01*
Y388527D01*
X552797D01*
Y388874D01*
D02*
G37*
%LPD*%
G36*
X574666Y299314D02*
X576402D01*
Y298967D01*
X577791D01*
Y298619D01*
X578485D01*
Y298272D01*
X579179D01*
Y297925D01*
X579874D01*
Y297578D01*
X580221D01*
Y297231D01*
X580915D01*
Y296884D01*
X581262D01*
Y296537D01*
X581609D01*
Y296189D01*
X581956D01*
Y295842D01*
X582304D01*
Y295495D01*
X582651D01*
Y295148D01*
X582998D01*
Y294801D01*
X583345D01*
Y294454D01*
X583692D01*
Y294107D01*
X584039D01*
Y293412D01*
X584386D01*
Y292718D01*
X584733D01*
Y292024D01*
X585080D01*
Y291329D01*
X585428D01*
Y290288D01*
X585775D01*
Y288900D01*
X586122D01*
Y284734D01*
X585775D01*
Y282998D01*
X585428D01*
Y281957D01*
X585080D01*
Y281263D01*
X584733D01*
Y280568D01*
X584386D01*
Y279874D01*
X584039D01*
Y279180D01*
X583692D01*
Y278833D01*
X583345D01*
Y278486D01*
X582998D01*
Y278139D01*
X582651D01*
Y277791D01*
X582304D01*
Y277444D01*
X581956D01*
Y277097D01*
X581609D01*
Y276750D01*
X581262D01*
Y276403D01*
X580915D01*
Y276056D01*
X580568D01*
Y275709D01*
X579874D01*
Y275361D01*
X579179D01*
Y275014D01*
X578485D01*
Y274667D01*
X577791D01*
Y274320D01*
X576749D01*
Y273973D01*
X575014D01*
Y273626D01*
X571542D01*
Y273973D01*
X569807D01*
Y274320D01*
X568765D01*
Y274667D01*
X567724D01*
Y275014D01*
X567030D01*
Y275361D01*
X566335D01*
Y275709D01*
X565988D01*
Y276056D01*
X565294D01*
Y276403D01*
X564947D01*
Y276750D01*
X564600D01*
Y277097D01*
X564253D01*
Y277444D01*
X563905D01*
Y277791D01*
X563558D01*
Y278139D01*
X563211D01*
Y278486D01*
X562864D01*
Y279180D01*
X562517D01*
Y279527D01*
X562170D01*
Y280221D01*
X561823D01*
Y280916D01*
X561475D01*
Y281610D01*
X561128D01*
Y282651D01*
X560781D01*
Y284040D01*
X560434D01*
Y289247D01*
X560781D01*
Y290635D01*
X561128D01*
Y291677D01*
X561475D01*
Y292371D01*
X561823D01*
Y293065D01*
X562170D01*
Y293412D01*
X562517D01*
Y294107D01*
X562864D01*
Y294454D01*
X563211D01*
Y295148D01*
X563558D01*
Y295495D01*
X563905D01*
Y295842D01*
X564253D01*
Y296189D01*
X564600D01*
Y296537D01*
X564947D01*
Y296884D01*
X565641D01*
Y297231D01*
X565988D01*
Y297578D01*
X566683D01*
Y297925D01*
X567377D01*
Y298272D01*
X568071D01*
Y298619D01*
X568765D01*
Y298967D01*
X570154D01*
Y299314D01*
X571889D01*
Y299661D01*
X574666D01*
Y299314D01*
D02*
G37*
%LPC*%
G36*
X575708Y296884D02*
X570848D01*
Y296537D01*
X569807D01*
Y296189D01*
X568765D01*
Y295842D01*
X568071D01*
Y295495D01*
X567724D01*
Y295148D01*
X567030D01*
Y294801D01*
X566683D01*
Y294454D01*
X566335D01*
Y294107D01*
X565988D01*
Y293759D01*
X565641D01*
Y293412D01*
X565294D01*
Y293065D01*
X564947D01*
Y292718D01*
X564600D01*
Y292024D01*
X564253D01*
Y291329D01*
X563905D01*
Y290635D01*
X563558D01*
Y289941D01*
X563211D01*
Y288205D01*
X562864D01*
Y284734D01*
X563211D01*
Y283346D01*
X563558D01*
Y282304D01*
X563905D01*
Y281610D01*
X564253D01*
Y281263D01*
X564600D01*
Y280568D01*
X564947D01*
Y280221D01*
X565294D01*
Y279874D01*
X565641D01*
Y279527D01*
X565988D01*
Y278833D01*
X566683D01*
Y278486D01*
X567030D01*
Y278139D01*
X567377D01*
Y277791D01*
X568071D01*
Y277444D01*
X568765D01*
Y277097D01*
X569459D01*
Y276750D01*
X570501D01*
Y276403D01*
X572931D01*
Y276056D01*
X573972D01*
Y276403D01*
X575708D01*
Y276750D01*
X576749D01*
Y277097D01*
X577791D01*
Y277444D01*
X578485D01*
Y277791D01*
X578832D01*
Y278139D01*
X579526D01*
Y278486D01*
X579874D01*
Y278833D01*
X580221D01*
Y279180D01*
X580568D01*
Y279527D01*
X580915D01*
Y279874D01*
X581262D01*
Y280221D01*
X581609D01*
Y280568D01*
X581956D01*
Y281263D01*
X582304D01*
Y281957D01*
X582651D01*
Y282651D01*
X582998D01*
Y283693D01*
X583345D01*
Y285775D01*
X583692D01*
Y287511D01*
X583345D01*
Y289594D01*
X582998D01*
Y290635D01*
X582651D01*
Y291329D01*
X582304D01*
Y292024D01*
X581956D01*
Y292371D01*
X581609D01*
Y293065D01*
X581262D01*
Y293412D01*
X580915D01*
Y293759D01*
X580568D01*
Y294107D01*
X580221D01*
Y294454D01*
X579874D01*
Y294801D01*
X579526D01*
Y295148D01*
X578832D01*
Y295495D01*
X578138D01*
Y295842D01*
X577444D01*
Y296189D01*
X576749D01*
Y296537D01*
X575708D01*
Y296884D01*
D02*
G37*
%LPD*%
G36*
X529192Y418380D02*
X530233D01*
Y418033D01*
X530928D01*
Y417686D01*
X531275D01*
Y417339D01*
X531622D01*
Y416992D01*
X531969D01*
Y416645D01*
X532316D01*
Y416297D01*
X532663D01*
Y415950D01*
X533010D01*
Y415256D01*
X533358D01*
Y414562D01*
X533705D01*
Y413868D01*
X534052D01*
Y412479D01*
X534399D01*
Y410743D01*
X534746D01*
Y404495D01*
X534399D01*
Y402065D01*
X534052D01*
Y400676D01*
X533705D01*
Y399288D01*
X533358D01*
Y397900D01*
X533010D01*
Y397205D01*
X532663D01*
Y396164D01*
X532316D01*
Y395122D01*
X531969D01*
Y394428D01*
X531622D01*
Y393734D01*
X531275D01*
Y393040D01*
X530928D01*
Y392345D01*
X530581D01*
Y391651D01*
X530233D01*
Y390957D01*
X529886D01*
Y390610D01*
X529539D01*
Y389915D01*
X529192D01*
Y389568D01*
X528845D01*
Y388874D01*
X528498D01*
Y388527D01*
X528151D01*
Y388180D01*
X527803D01*
Y387833D01*
X527456D01*
Y387486D01*
X527109D01*
Y387138D01*
X526762D01*
Y386791D01*
X526415D01*
Y386444D01*
X526068D01*
Y386097D01*
X525721D01*
Y385750D01*
X525027D01*
Y385403D01*
X524679D01*
Y385056D01*
X523985D01*
Y384708D01*
X523291D01*
Y384361D01*
X522249D01*
Y384014D01*
X519125D01*
Y384361D01*
X518084D01*
Y384708D01*
X517737D01*
Y385056D01*
X517042D01*
Y385403D01*
X516695D01*
Y385750D01*
X516348D01*
Y386097D01*
X516001D01*
Y386791D01*
X515654D01*
Y387138D01*
X515307D01*
Y387833D01*
X514960D01*
Y388874D01*
X514613D01*
Y389915D01*
X514265D01*
Y391651D01*
X513918D01*
Y398941D01*
X514265D01*
Y401024D01*
X514613D01*
Y402412D01*
X514960D01*
Y403454D01*
X515307D01*
Y404842D01*
X515654D01*
Y405883D01*
X516001D01*
Y406578D01*
X516348D01*
Y407619D01*
X516695D01*
Y408313D01*
X517042D01*
Y409008D01*
X517389D01*
Y409702D01*
X517737D01*
Y410396D01*
X518084D01*
Y411091D01*
X518431D01*
Y411438D01*
X518778D01*
Y412132D01*
X519125D01*
Y412826D01*
X519472D01*
Y413173D01*
X519819D01*
Y413521D01*
X520167D01*
Y413868D01*
X520514D01*
Y414562D01*
X520861D01*
Y414909D01*
X521208D01*
Y415256D01*
X521555D01*
Y415603D01*
X521902D01*
Y415950D01*
X522249D01*
Y416297D01*
X522597D01*
Y416645D01*
X522944D01*
Y416992D01*
X523638D01*
Y417339D01*
X523985D01*
Y417686D01*
X524679D01*
Y418033D01*
X525374D01*
Y418380D01*
X526415D01*
Y418727D01*
X529192D01*
Y418380D01*
D02*
G37*
G36*
X607297Y398247D02*
X608339D01*
Y397900D01*
X609033D01*
Y397552D01*
X609727D01*
Y397205D01*
X610074D01*
Y396858D01*
X610421D01*
Y396511D01*
X610768D01*
Y396164D01*
X611115D01*
Y395817D01*
X611463D01*
Y395470D01*
X611810D01*
Y395122D01*
X612157D01*
Y394775D01*
X612504D01*
Y394428D01*
X612851D01*
Y393734D01*
X613198D01*
Y393040D01*
X613545D01*
Y392692D01*
X613893D01*
Y391998D01*
X614240D01*
Y390957D01*
X614587D01*
Y390262D01*
X614934D01*
Y389221D01*
X615281D01*
Y387486D01*
X615628D01*
Y385403D01*
X615975D01*
Y378807D01*
X615628D01*
Y376724D01*
X615281D01*
Y375336D01*
X614934D01*
Y374294D01*
X614587D01*
Y372906D01*
X614240D01*
Y372212D01*
X613893D01*
Y371170D01*
X613545D01*
Y370476D01*
X613198D01*
Y369782D01*
X612851D01*
Y369087D01*
X612504D01*
Y368393D01*
X612157D01*
Y368046D01*
X611810D01*
Y367352D01*
X611463D01*
Y367005D01*
X611115D01*
Y366657D01*
X610768D01*
Y366310D01*
X610421D01*
Y365616D01*
X610074D01*
Y365269D01*
X609727D01*
Y364922D01*
X609380D01*
Y364575D01*
X608686D01*
Y364227D01*
X608339D01*
Y363880D01*
X607991D01*
Y363533D01*
X607297D01*
Y363186D01*
X606950D01*
Y362839D01*
X605909D01*
Y362492D01*
X604867D01*
Y362145D01*
X600354D01*
Y362492D01*
X599313D01*
Y362839D01*
X598619D01*
Y363186D01*
X598272D01*
Y363533D01*
X597577D01*
Y363880D01*
X597230D01*
Y364227D01*
X596883D01*
Y364575D01*
X596536D01*
Y364922D01*
X596189D01*
Y365269D01*
X595842D01*
Y365616D01*
X595494D01*
Y365963D01*
X595147D01*
Y366657D01*
X594800D01*
Y367352D01*
X594453D01*
Y367699D01*
X594106D01*
Y368393D01*
X593759D01*
Y369087D01*
X593412D01*
Y370129D01*
X593065D01*
Y370823D01*
X592718D01*
Y372212D01*
X592370D01*
Y373947D01*
X592023D01*
Y376377D01*
X591676D01*
Y380890D01*
X592023D01*
Y383320D01*
X592370D01*
Y385056D01*
X592718D01*
Y386444D01*
X593065D01*
Y387486D01*
X593412D01*
Y388527D01*
X593759D01*
Y389221D01*
X594106D01*
Y389915D01*
X594453D01*
Y390610D01*
X594800D01*
Y391304D01*
X595147D01*
Y391998D01*
X595494D01*
Y392692D01*
X595842D01*
Y393040D01*
X596189D01*
Y393387D01*
X596536D01*
Y394081D01*
X596883D01*
Y394428D01*
X597230D01*
Y394775D01*
X597577D01*
Y395122D01*
X597924D01*
Y395470D01*
X598272D01*
Y395817D01*
X598619D01*
Y396164D01*
X598966D01*
Y396511D01*
X599660D01*
Y396858D01*
X600007D01*
Y397205D01*
X600354D01*
Y397552D01*
X601049D01*
Y397900D01*
X602090D01*
Y398247D01*
X602784D01*
Y398594D01*
X607297D01*
Y398247D01*
D02*
G37*
%LPC*%
G36*
X529539Y413868D02*
X528151D01*
Y413521D01*
X527456D01*
Y413173D01*
X527109D01*
Y412826D01*
X526762D01*
Y412479D01*
X526415D01*
Y412132D01*
X526068D01*
Y411438D01*
X525721D01*
Y411091D01*
X525374D01*
Y410396D01*
X525027D01*
Y409702D01*
X524679D01*
Y409008D01*
X524332D01*
Y408313D01*
X523985D01*
Y406925D01*
X523638D01*
Y405536D01*
X523291D01*
Y400329D01*
X523638D01*
Y399288D01*
X523985D01*
Y398594D01*
X524332D01*
Y398247D01*
X526415D01*
Y398594D01*
X526762D01*
Y398941D01*
X527456D01*
Y399635D01*
X527803D01*
Y399982D01*
X528151D01*
Y400329D01*
X528498D01*
Y401024D01*
X528845D01*
Y401371D01*
X529192D01*
Y402065D01*
X529539D01*
Y402759D01*
X529886D01*
Y403801D01*
X530233D01*
Y404842D01*
X530581D01*
Y406231D01*
X530928D01*
Y411785D01*
X530581D01*
Y412826D01*
X530233D01*
Y413173D01*
X529886D01*
Y413521D01*
X529539D01*
Y413868D01*
D02*
G37*
G36*
X605214Y395470D02*
X603826D01*
Y395122D01*
X603479D01*
Y394775D01*
X603131D01*
Y394428D01*
X602784D01*
Y394081D01*
X602437D01*
Y393387D01*
X602090D01*
Y392692D01*
X601743D01*
Y391998D01*
X601396D01*
Y390957D01*
X601049D01*
Y389568D01*
X600701D01*
Y382973D01*
X601049D01*
Y381584D01*
X601396D01*
Y380543D01*
X601743D01*
Y379849D01*
X602090D01*
Y379501D01*
X602437D01*
Y379154D01*
X602784D01*
Y378807D01*
X603131D01*
Y378460D01*
X604520D01*
Y378807D01*
X604867D01*
Y379154D01*
X605214D01*
Y379501D01*
X605561D01*
Y379849D01*
X605909D01*
Y380196D01*
X606256D01*
Y381237D01*
X606603D01*
Y381931D01*
X606950D01*
Y382626D01*
X607297D01*
Y384014D01*
X607644D01*
Y386097D01*
X607991D01*
Y389221D01*
X607644D01*
Y391304D01*
X607297D01*
Y392692D01*
X606950D01*
Y393387D01*
X606603D01*
Y394081D01*
X606256D01*
Y394428D01*
X605909D01*
Y395122D01*
X605214D01*
Y395470D01*
D02*
G37*
G36*
X115110Y294640D02*
X113173D01*
Y294193D01*
X113024D01*
Y293895D01*
X112725D01*
Y293448D01*
X112427D01*
Y293150D01*
X112278D01*
Y292703D01*
X111980D01*
Y292255D01*
X111682D01*
Y291957D01*
X111533D01*
Y291808D01*
X111235D01*
Y291212D01*
X110937D01*
Y291063D01*
X110788D01*
Y290765D01*
X110490D01*
Y290020D01*
X109745D01*
Y290765D01*
X109596D01*
Y291063D01*
X109298D01*
Y291957D01*
X108851D01*
Y292703D01*
X108553D01*
Y293150D01*
X108404D01*
Y293448D01*
X108105D01*
Y294193D01*
X107808D01*
Y294640D01*
X103188D01*
Y293895D01*
X103486D01*
Y293150D01*
X103784D01*
Y293001D01*
X103933D01*
Y292255D01*
X104231D01*
Y291957D01*
X104380D01*
Y291510D01*
X104678D01*
Y290765D01*
X104976D01*
Y290467D01*
X105125D01*
Y290020D01*
X105423D01*
Y289275D01*
X105572D01*
Y289126D01*
X105721D01*
Y288828D01*
X105870D01*
Y288381D01*
X106168D01*
Y287635D01*
X106317D01*
Y287039D01*
X106168D01*
Y284655D01*
X105870D01*
Y283165D01*
X109745D01*
Y283463D01*
X110043D01*
Y286294D01*
X110192D01*
Y286890D01*
X110341D01*
Y287039D01*
X110490D01*
Y287785D01*
X110788D01*
Y288381D01*
X110937D01*
Y288530D01*
X111235D01*
Y288977D01*
X111533D01*
Y289275D01*
X111682D01*
Y289573D01*
X111980D01*
Y290020D01*
X112278D01*
Y290318D01*
X112427D01*
Y290765D01*
X112725D01*
Y291212D01*
X113173D01*
Y291659D01*
X113471D01*
Y292255D01*
X113918D01*
Y292703D01*
X114216D01*
Y293150D01*
X114365D01*
Y293448D01*
X114663D01*
Y293895D01*
X114961D01*
Y294193D01*
X115110D01*
Y294640D01*
D02*
G37*
G36*
X112725Y285400D02*
X111682D01*
Y285102D01*
X112725D01*
Y285400D01*
D02*
G37*
G36*
X113173Y284953D02*
X112725D01*
Y284655D01*
X113173D01*
Y284953D01*
D02*
G37*
G36*
X113024Y284357D02*
X112874D01*
Y284208D01*
Y283910D01*
X113024D01*
Y284357D01*
D02*
G37*
G36*
X112278Y284655D02*
X111682D01*
Y284208D01*
X111980D01*
Y283910D01*
X112278D01*
Y284059D01*
Y284655D01*
D02*
G37*
G36*
X111086D02*
X110937D01*
Y283612D01*
X111235D01*
Y284506D01*
X111086D01*
Y284655D01*
D02*
G37*
G36*
X112427Y283463D02*
X111235D01*
Y283165D01*
X112427D01*
Y283463D01*
D02*
G37*
G36*
X97375Y294640D02*
X93500D01*
Y293597D01*
X93202D01*
Y291659D01*
X93053D01*
Y290467D01*
X92755D01*
Y287337D01*
X92457D01*
Y286294D01*
X92308D01*
Y283910D01*
X92010D01*
Y283165D01*
X101101D01*
Y283463D01*
X101250D01*
Y284953D01*
X101101D01*
Y285102D01*
X96183D01*
Y285400D01*
X96332D01*
Y285698D01*
X96481D01*
Y286145D01*
X96630D01*
Y288828D01*
X96928D01*
Y290914D01*
X97077D01*
Y291957D01*
X97375D01*
Y294640D01*
D02*
G37*
G36*
X90371D02*
X81280D01*
Y294491D01*
X81131D01*
Y294193D01*
X80833D01*
Y293895D01*
X80386D01*
Y293448D01*
X80088D01*
Y292703D01*
X79790D01*
Y292404D01*
X79641D01*
Y290020D01*
X79343D01*
Y287785D01*
X79194D01*
Y287039D01*
X79044D01*
Y286890D01*
X78896D01*
Y286592D01*
Y286443D01*
Y284655D01*
X79194D01*
Y284357D01*
X79343D01*
Y283910D01*
X79641D01*
Y283463D01*
X80088D01*
Y283165D01*
X88582D01*
Y283463D01*
X89328D01*
Y283910D01*
X89626D01*
Y284208D01*
X90073D01*
Y284953D01*
X90371D01*
Y285400D01*
X90520D01*
Y286145D01*
X90818D01*
Y288977D01*
X90967D01*
Y289573D01*
X91116D01*
Y290318D01*
X91265D01*
Y293448D01*
X91116D01*
Y293895D01*
X90818D01*
Y294193D01*
X90520D01*
Y294342D01*
X90371D01*
Y294640D01*
D02*
G37*
G36*
X77405D02*
X67420D01*
Y292703D01*
X67271D01*
Y291957D01*
X66973D01*
Y288977D01*
X66675D01*
Y287635D01*
X66526D01*
Y285847D01*
X66228D01*
Y283165D01*
X70103D01*
Y284953D01*
X70401D01*
Y287337D01*
X76213D01*
Y287635D01*
X76660D01*
Y287785D01*
X76958D01*
Y288083D01*
X77405D01*
Y288530D01*
X77703D01*
Y289275D01*
X77852D01*
Y290020D01*
X78150D01*
Y293895D01*
X78001D01*
Y294193D01*
X77703D01*
Y294342D01*
X77405D01*
Y294640D01*
D02*
G37*
G36*
X55796D02*
X51921D01*
Y293895D01*
X51623D01*
Y291510D01*
X51474D01*
Y290914D01*
X51325D01*
Y290467D01*
X51176D01*
Y287785D01*
X50878D01*
Y285400D01*
X50729D01*
Y284655D01*
X50580D01*
Y284357D01*
X50431D01*
Y283165D01*
X59373D01*
Y283761D01*
X59671D01*
Y284953D01*
X59223D01*
Y285102D01*
X54752D01*
Y286145D01*
X55051D01*
Y288977D01*
X55200D01*
Y289573D01*
X55349D01*
Y290318D01*
X55498D01*
Y292703D01*
X55796D01*
Y294640D01*
D02*
G37*
G36*
X45513D02*
X41191D01*
Y293895D01*
X40893D01*
Y293448D01*
X40744D01*
Y293150D01*
X40446D01*
Y292703D01*
X40148D01*
Y292255D01*
X39999D01*
Y291957D01*
X39701D01*
Y291212D01*
X39253D01*
Y290467D01*
X38955D01*
Y290020D01*
X38508D01*
Y289275D01*
X38210D01*
Y288828D01*
X38061D01*
Y288530D01*
X37763D01*
Y287785D01*
X37465D01*
Y287635D01*
X37316D01*
Y287337D01*
X37018D01*
Y286592D01*
X36571D01*
Y285847D01*
X36273D01*
Y285400D01*
X36124D01*
Y285102D01*
X35826D01*
Y284357D01*
X35528D01*
Y284208D01*
X35379D01*
Y283910D01*
X35080D01*
Y283165D01*
X36869D01*
Y283463D01*
X37018D01*
Y283910D01*
X37316D01*
Y284655D01*
X37763D01*
Y285400D01*
X38061D01*
Y285847D01*
X38210D01*
Y286145D01*
X38508D01*
Y286294D01*
X38657D01*
Y286443D01*
X43128D01*
Y286294D01*
X43426D01*
Y286145D01*
X43575D01*
Y285400D01*
X43873D01*
Y283910D01*
X44022D01*
Y283761D01*
X44171D01*
Y283463D01*
X44320D01*
Y283165D01*
X48493D01*
Y283910D01*
X48195D01*
Y284953D01*
X48046D01*
Y285400D01*
X47748D01*
Y286890D01*
X47450D01*
Y287337D01*
X47301D01*
Y288530D01*
X47003D01*
Y289722D01*
X46854D01*
Y290020D01*
X46556D01*
Y291510D01*
X46258D01*
Y292703D01*
X45960D01*
Y293001D01*
X45811D01*
Y294342D01*
X45513D01*
Y294640D01*
D02*
G37*
G36*
X35379D02*
X27331D01*
Y294193D01*
X27033D01*
Y293895D01*
X26586D01*
Y293448D01*
X26288D01*
Y293001D01*
X26139D01*
Y292255D01*
X25841D01*
Y289573D01*
X25692D01*
Y289275D01*
X25543D01*
Y288530D01*
X25394D01*
Y286145D01*
X25096D01*
Y284953D01*
X25394D01*
Y284208D01*
X25543D01*
Y283910D01*
X25841D01*
Y283463D01*
X26586D01*
Y283165D01*
X34335D01*
Y284953D01*
X34186D01*
Y285102D01*
X29268D01*
Y287635D01*
X29417D01*
Y288083D01*
X29566D01*
Y288530D01*
X29715D01*
Y291063D01*
X30013D01*
Y292703D01*
X30461D01*
Y293150D01*
X35379D01*
Y294640D01*
D02*
G37*
%LPD*%
G36*
X86943Y292703D02*
X87390D01*
Y291212D01*
X87241D01*
Y290765D01*
X87092D01*
Y290318D01*
X86943D01*
Y287337D01*
X86645D01*
Y285549D01*
X86496D01*
Y285400D01*
X86198D01*
Y285102D01*
X83068D01*
Y285549D01*
X82770D01*
Y285698D01*
X83068D01*
Y287635D01*
X83217D01*
Y287785D01*
Y288828D01*
X83516D01*
Y291659D01*
X83665D01*
Y291957D01*
X83813D01*
Y292404D01*
X83962D01*
Y292703D01*
X84261D01*
Y293001D01*
X84410D01*
Y293150D01*
X86943D01*
Y292703D01*
D02*
G37*
G36*
X73829Y293001D02*
X73977D01*
Y292703D01*
X74276D01*
Y291212D01*
X73977D01*
Y290020D01*
Y289871D01*
Y289722D01*
X73829D01*
Y289275D01*
X70848D01*
Y291063D01*
X71146D01*
Y293001D01*
X71295D01*
Y293150D01*
X73829D01*
Y293001D01*
D02*
G37*
G36*
X41936Y291510D02*
X42085D01*
Y291212D01*
X42234D01*
Y291063D01*
X42383D01*
Y289722D01*
X42681D01*
Y288977D01*
X42830D01*
Y288381D01*
X43128D01*
Y288232D01*
X42830D01*
Y288083D01*
X39701D01*
Y288828D01*
X39999D01*
Y289126D01*
X40148D01*
Y289275D01*
X40446D01*
Y290020D01*
X40744D01*
Y290169D01*
Y290318D01*
Y290467D01*
X40893D01*
Y290765D01*
X41191D01*
Y291510D01*
X41489D01*
Y291659D01*
X41638D01*
Y291957D01*
X41936D01*
Y291510D01*
D02*
G37*
%LPC*%
G36*
X151175Y293597D02*
X150877D01*
Y293150D01*
X150728D01*
Y293001D01*
X150430D01*
Y292703D01*
Y292554D01*
Y292255D01*
X150132D01*
Y291957D01*
X149983D01*
Y291510D01*
X149685D01*
Y290765D01*
X149387D01*
Y290467D01*
X149238D01*
Y290020D01*
X148940D01*
Y289275D01*
X148493D01*
Y288530D01*
X148195D01*
Y288083D01*
X152815D01*
Y288828D01*
X152666D01*
Y289275D01*
X152368D01*
Y290765D01*
X152070D01*
Y291212D01*
X151920D01*
Y291957D01*
X151622D01*
Y293448D01*
X151175D01*
Y293597D01*
D02*
G37*
G36*
X131205Y295385D02*
X127032D01*
Y294193D01*
X126883D01*
Y293448D01*
X126734D01*
Y293150D01*
X126585D01*
Y292404D01*
Y292255D01*
Y291212D01*
X130907D01*
Y291659D01*
X131205D01*
Y294193D01*
X131354D01*
Y294640D01*
X131503D01*
Y294938D01*
X131205D01*
Y295385D01*
D02*
G37*
G36*
X211533Y276160D02*
X210042D01*
Y275862D01*
X209595D01*
Y275713D01*
X209297D01*
Y273478D01*
X209595D01*
Y273180D01*
X209744D01*
Y272882D01*
X210042D01*
Y272733D01*
X210191D01*
Y272434D01*
X210490D01*
Y271987D01*
X210788D01*
Y271242D01*
X210490D01*
Y270795D01*
X209744D01*
Y270944D01*
X209595D01*
Y271242D01*
X209297D01*
Y271540D01*
X208552D01*
Y270795D01*
X208850D01*
Y270497D01*
X208999D01*
Y270050D01*
X210788D01*
Y270199D01*
X210937D01*
Y270497D01*
X211235D01*
Y270795D01*
X211533D01*
Y272434D01*
X211235D01*
Y272882D01*
X211086D01*
Y273030D01*
X210937D01*
Y273180D01*
X210788D01*
Y273478D01*
X210490D01*
Y273776D01*
X210340D01*
Y273925D01*
X210042D01*
Y275415D01*
X211086D01*
Y275117D01*
X211235D01*
Y274670D01*
X211682D01*
Y274968D01*
X211980D01*
Y275713D01*
X211682D01*
Y275862D01*
X211533D01*
Y276160D01*
D02*
G37*
G36*
X176958D02*
X175467D01*
Y275862D01*
X175020D01*
Y275564D01*
X174722D01*
Y274968D01*
X174573D01*
Y274670D01*
X174722D01*
Y273478D01*
X175020D01*
Y273180D01*
X175318D01*
Y273030D01*
X175467D01*
Y272733D01*
X175765D01*
Y272434D01*
X175914D01*
Y271987D01*
X176213D01*
Y270944D01*
X175914D01*
Y270795D01*
X175020D01*
Y271540D01*
X173977D01*
Y271242D01*
X174275D01*
Y270348D01*
X174573D01*
Y270199D01*
X174722D01*
Y270050D01*
X176213D01*
Y270199D01*
X176362D01*
Y270348D01*
X176511D01*
Y270497D01*
X176660D01*
Y270795D01*
X176958D01*
Y271093D01*
Y271242D01*
Y272434D01*
X176660D01*
Y272882D01*
X176511D01*
Y273180D01*
X176213D01*
Y273478D01*
X175914D01*
Y273627D01*
X175765D01*
Y273925D01*
X175467D01*
Y275415D01*
X176511D01*
Y275117D01*
X176660D01*
Y274670D01*
X176958D01*
Y274819D01*
X177107D01*
Y274968D01*
X177405D01*
Y275713D01*
X177256D01*
Y275862D01*
X176958D01*
Y276160D01*
D02*
G37*
G36*
X126883D02*
X125393D01*
Y275862D01*
X124946D01*
Y275713D01*
X124797D01*
Y275564D01*
X124648D01*
Y275415D01*
Y273478D01*
X125095D01*
Y273030D01*
X125393D01*
Y272733D01*
X125542D01*
Y272434D01*
X125840D01*
Y271987D01*
X126138D01*
Y271242D01*
X125840D01*
Y270795D01*
X125095D01*
Y271242D01*
X124797D01*
Y271540D01*
X123903D01*
Y270944D01*
X124201D01*
Y270497D01*
X124350D01*
Y270199D01*
X124648D01*
Y270050D01*
X126287D01*
Y270348D01*
X126585D01*
Y270795D01*
X126883D01*
Y270944D01*
X127032D01*
Y272285D01*
X126883D01*
Y272434D01*
X126585D01*
Y273030D01*
X126287D01*
Y273180D01*
X126138D01*
Y273478D01*
X125840D01*
Y273925D01*
X125542D01*
Y274223D01*
X125393D01*
Y275117D01*
X125542D01*
Y275415D01*
X126585D01*
Y274670D01*
X127032D01*
Y274968D01*
X127331D01*
Y275713D01*
X127032D01*
Y275862D01*
X126883D01*
Y276160D01*
D02*
G37*
G36*
X143426Y276309D02*
X143277D01*
Y276160D01*
X143128D01*
Y275415D01*
X142830D01*
Y273925D01*
X142681D01*
Y272434D01*
X142382D01*
Y273180D01*
X142085D01*
Y273925D01*
X141936D01*
Y275564D01*
X141637D01*
Y276160D01*
X141488D01*
Y276309D01*
X140892D01*
Y276160D01*
X140743D01*
Y275862D01*
X140445D01*
Y272434D01*
X140147D01*
Y271540D01*
X139998D01*
Y270050D01*
X140743D01*
Y270199D01*
X140892D01*
Y272285D01*
X141190D01*
Y273627D01*
X141339D01*
Y273925D01*
X141488D01*
Y273478D01*
X141637D01*
Y271987D01*
X141936D01*
Y270497D01*
X142085D01*
Y270199D01*
X142233D01*
Y270050D01*
X143128D01*
Y271689D01*
X143277D01*
Y271987D01*
X143426D01*
Y272733D01*
X143575D01*
Y274968D01*
X143873D01*
Y276160D01*
X143426D01*
Y276309D01*
D02*
G37*
G36*
X163396D02*
X163247D01*
Y276160D01*
X162800D01*
Y274372D01*
X162651D01*
Y273925D01*
X162502D01*
Y273627D01*
X162353D01*
Y271242D01*
X162055D01*
Y270944D01*
X161906D01*
Y270795D01*
X161310D01*
Y270944D01*
X161160D01*
Y271242D01*
X160862D01*
Y271540D01*
X161160D01*
Y272136D01*
Y272285D01*
Y273627D01*
X161310D01*
Y274670D01*
X161607D01*
Y276309D01*
X160862D01*
Y275415D01*
X160713D01*
Y274670D01*
X160415D01*
Y271689D01*
X160117D01*
Y270795D01*
X160415D01*
Y270348D01*
X160564D01*
Y270199D01*
X160713D01*
Y270050D01*
X162353D01*
Y270348D01*
X162502D01*
Y270497D01*
X162800D01*
Y270795D01*
X163098D01*
Y272733D01*
X163247D01*
Y273180D01*
X163396D01*
Y273478D01*
X163545D01*
Y276160D01*
X163396D01*
Y276309D01*
D02*
G37*
G36*
X226585D02*
X226287D01*
Y276160D01*
X225542D01*
Y275862D01*
X225095D01*
Y275415D01*
X224946D01*
Y275117D01*
X224797D01*
Y274968D01*
X224648D01*
Y272434D01*
X224349D01*
Y271242D01*
Y271093D01*
Y270497D01*
X224648D01*
Y270199D01*
X224797D01*
Y270050D01*
X226585D01*
Y270497D01*
X227032D01*
Y270944D01*
X227330D01*
Y273180D01*
X227479D01*
Y273925D01*
X227777D01*
Y275415D01*
X227479D01*
Y275713D01*
X227330D01*
Y275862D01*
X227032D01*
Y276160D01*
X226585D01*
Y276309D01*
D02*
G37*
G36*
X218835D02*
X217494D01*
Y276160D01*
X217345D01*
Y275862D01*
X217047D01*
Y274223D01*
X216898D01*
Y272882D01*
X216749D01*
Y272733D01*
X216600D01*
Y270050D01*
X217345D01*
Y271987D01*
X217792D01*
Y272434D01*
X218984D01*
Y272733D01*
X219282D01*
Y273180D01*
X219729D01*
Y274670D01*
X220028D01*
Y275415D01*
X219729D01*
Y275862D01*
X219282D01*
Y276160D01*
X218835D01*
Y276309D01*
D02*
G37*
G36*
X203783D02*
X203634D01*
Y276160D01*
X203187D01*
Y273627D01*
X203038D01*
Y273180D01*
X202889D01*
Y272882D01*
X202740D01*
Y270050D01*
X203485D01*
Y271987D01*
X203634D01*
Y272733D01*
X203932D01*
Y274670D01*
Y274819D01*
Y276160D01*
X203783D01*
Y276309D01*
D02*
G37*
G36*
X196481D02*
X195438D01*
Y276160D01*
X195139D01*
Y275117D01*
X194990D01*
Y273627D01*
X194692D01*
Y270795D01*
X194543D01*
Y270497D01*
X194394D01*
Y270199D01*
X194692D01*
Y270050D01*
X196928D01*
Y270497D01*
X197375D01*
Y271093D01*
X197673D01*
Y271540D01*
X197822D01*
Y272434D01*
X197673D01*
Y272733D01*
X197375D01*
Y273478D01*
X197673D01*
Y273925D01*
X197822D01*
Y275564D01*
X197673D01*
Y275862D01*
X197375D01*
Y276160D01*
X196481D01*
Y276309D01*
D02*
G37*
G36*
X188880D02*
X188582D01*
Y276160D01*
X187837D01*
Y275862D01*
X187390D01*
Y275117D01*
X187092D01*
Y274819D01*
X186943D01*
Y272434D01*
X186645D01*
Y270497D01*
X186943D01*
Y270199D01*
X187092D01*
Y270050D01*
X188880D01*
Y270497D01*
X189327D01*
Y271242D01*
X189625D01*
Y271391D01*
Y272882D01*
X189774D01*
Y273925D01*
X190072D01*
Y275415D01*
X189774D01*
Y275713D01*
X189625D01*
Y275862D01*
X189327D01*
Y276160D01*
X188880D01*
Y276309D01*
D02*
G37*
G36*
X169208D02*
X168910D01*
Y275862D01*
X168612D01*
Y274670D01*
X168463D01*
Y272434D01*
X168165D01*
Y272285D01*
Y272136D01*
Y270050D01*
X168910D01*
Y272285D01*
X169208D01*
Y273180D01*
X169357D01*
Y275415D01*
X169655D01*
Y276160D01*
X169208D01*
Y276309D01*
D02*
G37*
G36*
X154156D02*
X153560D01*
Y275862D01*
X153411D01*
Y275117D01*
X153262D01*
Y274670D01*
X153113D01*
Y271987D01*
X152815D01*
Y270050D01*
X155050D01*
Y270199D01*
X155199D01*
Y270795D01*
X155050D01*
Y270944D01*
X153560D01*
Y271540D01*
X153858D01*
Y273925D01*
X154007D01*
Y274968D01*
X154305D01*
Y276160D01*
X154156D01*
Y276309D01*
D02*
G37*
G36*
X134633D02*
X133590D01*
Y276160D01*
X133441D01*
Y275862D01*
X133143D01*
Y274670D01*
X132845D01*
Y274223D01*
X132696D01*
Y273180D01*
X132397D01*
Y271987D01*
X132100D01*
Y271689D01*
X131950D01*
Y270795D01*
X131652D01*
Y270050D01*
X132397D01*
Y270497D01*
X132696D01*
Y271242D01*
X132845D01*
Y271540D01*
X133888D01*
Y270050D01*
X134931D01*
Y270199D01*
X135080D01*
Y270497D01*
X134782D01*
Y272434D01*
X134633D01*
Y276309D01*
D02*
G37*
%LPD*%
G36*
X226585Y274968D02*
X226883D01*
Y274670D01*
X226734D01*
Y274372D01*
X226585D01*
Y271689D01*
X226287D01*
Y270944D01*
X226138D01*
Y270795D01*
X225393D01*
Y271242D01*
X225095D01*
Y272285D01*
X225393D01*
Y273925D01*
X225542D01*
Y274968D01*
X225840D01*
Y275415D01*
X226585D01*
Y274968D01*
D02*
G37*
G36*
X218835Y275117D02*
X218984D01*
Y273627D01*
X218835D01*
Y273478D01*
X218537D01*
Y273180D01*
X217792D01*
Y274223D01*
Y274372D01*
Y275117D01*
X218090D01*
Y275415D01*
X218835D01*
Y275117D01*
D02*
G37*
G36*
X196630D02*
X196928D01*
Y274819D01*
Y274670D01*
X197077D01*
Y274372D01*
X196928D01*
Y273925D01*
X196630D01*
Y273627D01*
X196481D01*
Y273478D01*
X195884D01*
Y275117D01*
X196183D01*
Y275415D01*
X196630D01*
Y275117D01*
D02*
G37*
G36*
Y271987D02*
X196928D01*
Y271689D01*
X196630D01*
Y271242D01*
X196183D01*
Y270944D01*
X195438D01*
Y271987D01*
Y272136D01*
Y272434D01*
X195586D01*
Y272733D01*
X196630D01*
Y271987D01*
D02*
G37*
G36*
X188880Y274968D02*
X189029D01*
Y274372D01*
X188880D01*
Y271838D01*
Y271689D01*
X188582D01*
Y270944D01*
X188433D01*
Y270795D01*
X187688D01*
Y270944D01*
X187390D01*
Y272285D01*
X187688D01*
Y273925D01*
X187837D01*
Y274968D01*
X188135D01*
Y275415D01*
X188880D01*
Y274968D01*
D02*
G37*
G36*
X133888Y272136D02*
X133143D01*
Y273180D01*
X133441D01*
Y273478D01*
Y273627D01*
X133590D01*
Y274670D01*
X133888D01*
Y272136D01*
D02*
G37*
D10*
X137141Y210820D02*
Y220977D01*
X132063D01*
X130370Y219284D01*
Y215898D01*
X132063Y214206D01*
X137141D01*
X133756D02*
X130370Y210820D01*
X121906D02*
X125292D01*
X126984Y212513D01*
Y215898D01*
X125292Y217591D01*
X121906D01*
X120213Y215898D01*
Y214206D01*
X126984D01*
X116828Y217591D02*
X113442Y210820D01*
X110057Y217591D01*
X96514Y210820D02*
X93129D01*
X94822D01*
Y220977D01*
X96514Y219284D01*
X71122Y210820D02*
X77894D01*
X71122Y217591D01*
Y219284D01*
X72815Y220977D01*
X76201D01*
X77894Y219284D01*
X67737Y210820D02*
X60966Y217591D01*
X57580Y219284D02*
X55887Y220977D01*
X52502D01*
X50809Y219284D01*
Y217591D01*
X52502Y215898D01*
X50809Y214206D01*
Y212513D01*
X52502Y210820D01*
X55887D01*
X57580Y212513D01*
Y214206D01*
X55887Y215898D01*
X57580Y217591D01*
Y219284D01*
X55887Y215898D02*
X52502D01*
X47423Y210820D02*
X40652Y217591D01*
X30496Y210820D02*
X37267D01*
X30496Y217591D01*
Y219284D01*
X32188Y220977D01*
X35574D01*
X37267Y219284D01*
X27110D02*
X25417Y220977D01*
X22032D01*
X20339Y219284D01*
Y217591D01*
X22032Y215898D01*
X23724D01*
X22032D01*
X20339Y214206D01*
Y212513D01*
X22032Y210820D01*
X25417D01*
X27110Y212513D01*
X107513Y238757D02*
Y228600D01*
X102434D01*
X100741Y230293D01*
Y237064D01*
X102434Y238757D01*
X107513D01*
X95663Y235371D02*
X92277D01*
X90585Y233678D01*
Y228600D01*
X95663D01*
X97356Y230293D01*
X95663Y231986D01*
X90585D01*
X87199Y228600D02*
X82121D01*
X80428Y230293D01*
X82121Y231986D01*
X85506D01*
X87199Y233678D01*
X85506Y235371D01*
X80428D01*
X77042Y238757D02*
Y228600D01*
Y233678D01*
X75349Y235371D01*
X71964D01*
X70271Y233678D01*
Y228600D01*
X66886Y238757D02*
Y228600D01*
X61807D01*
X60114Y230293D01*
Y231986D01*
Y233678D01*
X61807Y235371D01*
X66886D01*
X55036Y228600D02*
X51651D01*
X49958Y230293D01*
Y233678D01*
X51651Y235371D01*
X55036D01*
X56729Y233678D01*
Y230293D01*
X55036Y228600D01*
X44879Y235371D02*
X41494D01*
X39801Y233678D01*
Y228600D01*
X44879D01*
X46572Y230293D01*
X44879Y231986D01*
X39801D01*
X36415Y235371D02*
Y228600D01*
Y231986D01*
X34723Y233678D01*
X33030Y235371D01*
X31337D01*
X19488Y238757D02*
Y228600D01*
X24566D01*
X26259Y230293D01*
Y233678D01*
X24566Y235371D01*
X19488D01*
X139682Y257382D02*
X146453D01*
Y247226D01*
X139682D01*
X146453Y252304D02*
X143068D01*
X136296Y247226D02*
X132911D01*
X134604D01*
Y257382D01*
X136296D01*
X127832Y247226D02*
X124447D01*
X126140D01*
Y253997D01*
X127832D01*
X119368Y243840D02*
X117676D01*
X115983Y245533D01*
Y253997D01*
X107519D02*
X104133D01*
X102441Y252304D01*
Y247226D01*
X107519D01*
X109212Y248918D01*
X107519Y250611D01*
X102441D01*
X99055Y257382D02*
Y247226D01*
Y252304D01*
X97362Y253997D01*
X93977D01*
X92284Y252304D01*
Y247226D01*
X71971Y255690D02*
X73663Y257382D01*
X77049D01*
X78742Y255690D01*
Y248918D01*
X77049Y247226D01*
X73663D01*
X71971Y248918D01*
Y252304D01*
X75356D01*
X66892Y247226D02*
X63507D01*
X61814Y248918D01*
Y252304D01*
X63507Y253997D01*
X66892D01*
X68585Y252304D01*
Y248918D01*
X66892Y247226D01*
X58428Y253997D02*
Y247226D01*
Y250611D01*
X56735Y252304D01*
X55043Y253997D01*
X53350D01*
X41500Y257382D02*
Y247226D01*
X46579D01*
X48271Y248918D01*
Y252304D01*
X46579Y253997D01*
X41500D01*
X36422Y247226D02*
X33036D01*
X31344Y248918D01*
Y252304D01*
X33036Y253997D01*
X36422D01*
X38115Y252304D01*
Y248918D01*
X36422Y247226D01*
X27958D02*
Y253997D01*
X22880D01*
X21187Y252304D01*
Y247226D01*
X57147Y111757D02*
X62225D01*
X59686D01*
Y99062D01*
X62225Y96523D01*
X64765D01*
X67304Y99062D01*
X52069Y96523D02*
X46990D01*
X49530D01*
Y111757D01*
X52069Y109218D01*
X39373D02*
X36834Y111757D01*
X31755D01*
X29216Y109218D01*
Y99062D01*
X31755Y96523D01*
X36834D01*
X39373Y99062D01*
Y109218D01*
X75654Y180778D02*
Y185857D01*
Y183318D01*
X88350D01*
X90889Y185857D01*
Y188396D01*
X88350Y190935D01*
Y175700D02*
X90889Y173161D01*
Y168082D01*
X88350Y165543D01*
X78193D01*
X75654Y168082D01*
Y173161D01*
X78193Y175700D01*
X80732D01*
X83271Y173161D01*
Y165543D01*
X164724Y178438D02*
Y183517D01*
Y180977D01*
X177420D01*
X179959Y183517D01*
Y186056D01*
X177420Y188595D01*
X179959Y163203D02*
Y173360D01*
X169802Y163203D01*
X167263D01*
X164724Y165742D01*
Y170821D01*
X167263Y173360D01*
X73662Y31748D02*
Y36826D01*
Y34287D01*
X86358D01*
X88897Y36826D01*
Y39365D01*
X86358Y41905D01*
X88897Y26669D02*
Y21591D01*
Y24130D01*
X73662D01*
X76202Y26669D01*
X88897Y13974D02*
Y8895D01*
Y11435D01*
X73662D01*
X76202Y13974D01*
X75824Y84458D02*
Y89537D01*
Y86997D01*
X88520D01*
X91059Y89537D01*
Y92076D01*
X88520Y94615D01*
X78363Y79380D02*
X75824Y76841D01*
Y71762D01*
X78363Y69223D01*
X80902D01*
X83441Y71762D01*
X85981Y69223D01*
X88520D01*
X91059Y71762D01*
Y76841D01*
X88520Y79380D01*
X85981D01*
X83441Y76841D01*
X80902Y79380D01*
X78363D01*
X83441Y76841D02*
Y71762D01*
X164554Y82118D02*
Y87197D01*
Y84657D01*
X177250D01*
X179789Y87197D01*
Y89736D01*
X177250Y92275D01*
X164554Y77040D02*
Y66883D01*
X167093D01*
X177250Y77040D01*
X179789D01*
X919856Y7239D02*
X904621D01*
Y14856D01*
X907160Y17396D01*
X909699D01*
X912238Y14856D01*
Y7239D01*
Y14856D01*
X914778Y17396D01*
X917317D01*
X919856Y14856D01*
Y7239D01*
X904621Y22474D02*
Y27552D01*
Y25013D01*
X919856D01*
X917317Y22474D01*
X1004189Y477393D02*
X988954D01*
Y469775D01*
X991493Y467236D01*
X996571D01*
X999111Y469775D01*
Y477393D01*
Y472315D02*
X1004189Y467236D01*
Y454540D02*
X988954D01*
X996571Y462158D01*
Y452001D01*
X1004189Y439305D02*
X988954D01*
X996571Y446923D01*
Y436766D01*
X755647Y619758D02*
X758186Y622298D01*
X763265D01*
X765804Y619758D01*
Y609602D01*
X763265Y607062D01*
X758186D01*
X755647Y609602D01*
X750569Y607062D02*
X745490D01*
X748030D01*
Y622298D01*
X750569Y619758D01*
X737873D02*
X735334Y622298D01*
X730255D01*
X727716Y619758D01*
Y609602D01*
X730255Y607062D01*
X735334D01*
X737873Y609602D01*
Y619758D01*
X121031Y509517D02*
X136266D01*
Y517135D01*
X133727Y519674D01*
X128649D01*
X126109Y517135D01*
Y509517D01*
Y514595D02*
X121031Y519674D01*
X133727Y524752D02*
X136266Y527291D01*
Y532370D01*
X133727Y534909D01*
X131188D01*
X128649Y532370D01*
Y529831D01*
Y532370D01*
X126109Y534909D01*
X123570D01*
X121031Y532370D01*
Y527291D01*
X123570Y524752D01*
Y539987D02*
X121031Y542526D01*
Y547605D01*
X123570Y550144D01*
X133727D01*
X136266Y547605D01*
Y542526D01*
X133727Y539987D01*
X131188D01*
X128649Y542526D01*
Y550144D01*
X160909Y481323D02*
X145674D01*
Y473705D01*
X148213Y471166D01*
X153291D01*
X155831Y473705D01*
Y481323D01*
Y476245D02*
X160909Y471166D01*
X148213Y466088D02*
X145674Y463549D01*
Y458470D01*
X148213Y455931D01*
X150752D01*
X153291Y458470D01*
Y461010D01*
Y458470D01*
X155831Y455931D01*
X158370D01*
X160909Y458470D01*
Y463549D01*
X158370Y466088D01*
X148213Y450853D02*
X145674Y448314D01*
Y443235D01*
X148213Y440696D01*
X150752D01*
X153291Y443235D01*
X155831Y440696D01*
X158370D01*
X160909Y443235D01*
Y448314D01*
X158370Y450853D01*
X155831D01*
X153291Y448314D01*
X150752Y450853D01*
X148213D01*
X153291Y448314D02*
Y443235D01*
X692531Y512057D02*
X707766D01*
Y519675D01*
X705227Y522214D01*
X700149D01*
X697609Y519675D01*
Y512057D01*
Y517135D02*
X692531Y522214D01*
Y534910D02*
X707766D01*
X700149Y527292D01*
Y537449D01*
X705227Y542527D02*
X707766Y545066D01*
Y550145D01*
X705227Y552684D01*
X695070D01*
X692531Y550145D01*
Y545066D01*
X695070Y542527D01*
X705227D01*
X729869Y477393D02*
X714634D01*
Y469776D01*
X717173Y467236D01*
X722252D01*
X724791Y469776D01*
Y477393D01*
Y472315D02*
X729869Y467236D01*
Y454540D02*
X714634D01*
X722252Y462158D01*
Y452001D01*
X729869Y446923D02*
Y441844D01*
Y444384D01*
X714634D01*
X717173Y446923D01*
X405511Y508127D02*
X420746D01*
Y515745D01*
X418207Y518284D01*
X413129D01*
X410589Y515745D01*
Y508127D01*
Y513205D02*
X405511Y518284D01*
Y530980D02*
X420746D01*
X413129Y523362D01*
Y533519D01*
X418207Y538597D02*
X420746Y541136D01*
Y546215D01*
X418207Y548754D01*
X415668D01*
X413129Y546215D01*
Y543675D01*
Y546215D01*
X410589Y548754D01*
X408050D01*
X405511Y546215D01*
Y541136D01*
X408050Y538597D01*
X971931Y516897D02*
X987166D01*
Y524515D01*
X984627Y527054D01*
X979548D01*
X977009Y524515D01*
Y516897D01*
Y521975D02*
X971931Y527054D01*
Y539749D02*
X987166D01*
X979548Y532132D01*
Y542289D01*
X987166Y557524D02*
Y547367D01*
X979548D01*
X982088Y552445D01*
Y554985D01*
X979548Y557524D01*
X974470D01*
X971931Y554985D01*
Y549906D01*
X974470Y547367D01*
X445389Y483623D02*
X430154D01*
Y476005D01*
X432693Y473466D01*
X437771D01*
X440311Y476005D01*
Y483623D01*
Y478545D02*
X445389Y473466D01*
Y460770D02*
X430154D01*
X437771Y468388D01*
Y458231D01*
X445389Y442996D02*
Y453153D01*
X435232Y442996D01*
X432693D01*
X430154Y445535D01*
Y450614D01*
X432693Y453153D01*
X807721Y609602D02*
X805182Y607062D01*
X800103D01*
X797564Y609602D01*
Y619758D01*
X800103Y622298D01*
X805182D01*
X807721Y619758D01*
X812799D02*
X815338Y622298D01*
X820417D01*
X822956Y619758D01*
Y609602D01*
X820417Y607062D01*
X815338D01*
X812799Y609602D01*
Y612141D01*
X815338Y614680D01*
X822956D01*
X840354Y681609D02*
X827658D01*
X825119Y684148D01*
Y689227D01*
X827658Y691766D01*
X840354D01*
X825119Y696844D02*
Y701922D01*
Y699383D01*
X840354D01*
X837815Y696844D01*
X825119Y719697D02*
Y709540D01*
X835276Y719697D01*
X837815D01*
X840354Y717158D01*
Y712079D01*
X837815Y709540D01*
X623439Y649094D02*
X625978Y646554D01*
Y641476D01*
X623439Y638937D01*
X613282D01*
X610743Y641476D01*
Y646554D01*
X613282Y649094D01*
X623439Y654172D02*
X625978Y656711D01*
Y661790D01*
X623439Y664329D01*
X620900D01*
X618360Y661790D01*
X615821Y664329D01*
X613282D01*
X610743Y661790D01*
Y656711D01*
X613282Y654172D01*
X615821D01*
X618360Y656711D01*
X620900Y654172D01*
X623439D01*
X618360Y656711D02*
Y661790D01*
X666619Y649094D02*
X669158Y646554D01*
Y641476D01*
X666619Y638937D01*
X656462D01*
X653923Y641476D01*
Y646554D01*
X656462Y649094D01*
X669158Y654172D02*
Y664329D01*
X666619D01*
X656462Y654172D01*
X653923D01*
X74554Y694817D02*
X77093D01*
X82171Y689739D01*
X77093Y684660D01*
X74554D01*
X82171Y689739D02*
X89789D01*
Y679582D02*
Y674504D01*
Y677043D01*
X74554D01*
X77093Y679582D01*
X902340Y386715D02*
X915036D01*
X917575Y384176D01*
Y379098D01*
X915036Y376558D01*
X902340D01*
Y371480D02*
Y361323D01*
X904879D01*
X915036Y371480D01*
X917575D01*
X346080Y386715D02*
X358776D01*
X361315Y384176D01*
Y379098D01*
X358776Y376558D01*
X346080D01*
Y361323D02*
X348619Y366402D01*
X353698Y371480D01*
X358776D01*
X361315Y368941D01*
Y363862D01*
X358776Y361323D01*
X356237D01*
X353698Y363862D01*
Y371480D01*
X647070Y388405D02*
X659766D01*
X662305Y385866D01*
Y380787D01*
X659766Y378248D01*
X647070D01*
Y363013D02*
Y373170D01*
X654687D01*
X652148Y368092D01*
Y365552D01*
X654687Y363013D01*
X659766D01*
X662305Y365552D01*
Y370631D01*
X659766Y373170D01*
X257688Y733425D02*
X270384D01*
X272923Y730886D01*
Y725807D01*
X270384Y723268D01*
X257688D01*
X272923Y710572D02*
X257688D01*
X265306Y718190D01*
Y708033D01*
X401960Y691007D02*
X414656D01*
X417195Y688468D01*
Y683390D01*
X414656Y680850D01*
X401960D01*
X404499Y675772D02*
X401960Y673233D01*
Y668154D01*
X404499Y665615D01*
X407038D01*
X409577Y668154D01*
Y670694D01*
Y668154D01*
X412117Y665615D01*
X414656D01*
X417195Y668154D01*
Y673233D01*
X414656Y675772D01*
X81920Y386715D02*
X94616D01*
X97155Y384176D01*
Y379098D01*
X94616Y376558D01*
X81920D01*
X97155Y361323D02*
Y371480D01*
X86998Y361323D01*
X84459D01*
X81920Y363862D01*
Y368941D01*
X84459Y371480D01*
X672714Y681609D02*
X660018D01*
X657479Y684148D01*
Y689227D01*
X660018Y691766D01*
X672714D01*
X657479Y696844D02*
Y701922D01*
Y699383D01*
X672714D01*
X670175Y696844D01*
X943737Y482622D02*
X928502D01*
Y475005D01*
X931041Y472466D01*
X936120D01*
X938659Y475005D01*
Y482622D01*
Y477544D02*
X943737Y472466D01*
X931041Y467387D02*
X928502Y464848D01*
Y459770D01*
X931041Y457231D01*
X933580D01*
X936120Y459770D01*
Y462309D01*
Y459770D01*
X938659Y457231D01*
X941198D01*
X943737Y459770D01*
Y464848D01*
X941198Y467387D01*
X928502Y452152D02*
Y441996D01*
X931041D01*
X941198Y452152D01*
X943737D01*
X377317Y490243D02*
X362082D01*
Y482625D01*
X364621Y480086D01*
X369700D01*
X372239Y482625D01*
Y490243D01*
Y485164D02*
X377317Y480086D01*
X364621Y475007D02*
X362082Y472468D01*
Y467390D01*
X364621Y464851D01*
X367160D01*
X369700Y467390D01*
Y469929D01*
Y467390D01*
X372239Y464851D01*
X374778D01*
X377317Y467390D01*
Y472468D01*
X374778Y475007D01*
X362082Y449616D02*
X364621Y454694D01*
X369700Y459772D01*
X374778D01*
X377317Y457233D01*
Y452155D01*
X374778Y449616D01*
X372239D01*
X369700Y452155D01*
Y459772D01*
X1037463Y513461D02*
X1052698D01*
Y521078D01*
X1050159Y523618D01*
X1045080D01*
X1042541Y521078D01*
Y513461D01*
Y518539D02*
X1037463Y523618D01*
X1050159Y528696D02*
X1052698Y531235D01*
Y536314D01*
X1050159Y538853D01*
X1047620D01*
X1045080Y536314D01*
Y533774D01*
Y536314D01*
X1042541Y538853D01*
X1040002D01*
X1037463Y536314D01*
Y531235D01*
X1040002Y528696D01*
X1052698Y554088D02*
Y543931D01*
X1045080D01*
X1047620Y549010D01*
Y551549D01*
X1045080Y554088D01*
X1040002D01*
X1037463Y551549D01*
Y546470D01*
X1040002Y543931D01*
X473583Y505438D02*
X488818D01*
Y513055D01*
X486279Y515594D01*
X481200D01*
X478661Y513055D01*
Y505438D01*
Y510516D02*
X473583Y515594D01*
X486279Y520673D02*
X488818Y523212D01*
Y528290D01*
X486279Y530829D01*
X483740D01*
X481200Y528290D01*
Y525751D01*
Y528290D01*
X478661Y530829D01*
X476122D01*
X473583Y528290D01*
Y523212D01*
X476122Y520673D01*
X473583Y543525D02*
X488818D01*
X481200Y535908D01*
Y546064D01*
X1073023Y513461D02*
X1088258D01*
Y521078D01*
X1085719Y523618D01*
X1080640D01*
X1078101Y521078D01*
Y513461D01*
Y518539D02*
X1073023Y523618D01*
X1085719Y528696D02*
X1088258Y531235D01*
Y536314D01*
X1085719Y538853D01*
X1083180D01*
X1080640Y536314D01*
Y533774D01*
Y536314D01*
X1078101Y538853D01*
X1075562D01*
X1073023Y536314D01*
Y531235D01*
X1075562Y528696D01*
X1085719Y543931D02*
X1088258Y546470D01*
Y551549D01*
X1085719Y554088D01*
X1083180D01*
X1080640Y551549D01*
Y549010D01*
Y551549D01*
X1078101Y554088D01*
X1075562D01*
X1073023Y551549D01*
Y546470D01*
X1075562Y543931D01*
X526923Y505841D02*
X542158D01*
Y513459D01*
X539619Y515998D01*
X534540D01*
X532001Y513459D01*
Y505841D01*
Y510919D02*
X526923Y515998D01*
X539619Y521076D02*
X542158Y523615D01*
Y528694D01*
X539619Y531233D01*
X537080D01*
X534540Y528694D01*
Y526154D01*
Y528694D01*
X532001Y531233D01*
X529462D01*
X526923Y528694D01*
Y523615D01*
X529462Y521076D01*
X526923Y546468D02*
Y536311D01*
X537080Y546468D01*
X539619D01*
X542158Y543929D01*
Y538850D01*
X539619Y536311D01*
X974217Y482622D02*
X958982D01*
Y475005D01*
X961521Y472466D01*
X966600D01*
X969139Y475005D01*
Y482622D01*
Y477544D02*
X974217Y472466D01*
X961521Y467387D02*
X958982Y464848D01*
Y459770D01*
X961521Y457231D01*
X964060D01*
X966600Y459770D01*
Y462309D01*
Y459770D01*
X969139Y457231D01*
X971678D01*
X974217Y459770D01*
Y464848D01*
X971678Y467387D01*
X974217Y452152D02*
Y447074D01*
Y449613D01*
X958982D01*
X961521Y452152D01*
X410337Y489436D02*
X395102D01*
Y481818D01*
X397641Y479279D01*
X402719D01*
X405259Y481818D01*
Y489436D01*
Y484357D02*
X410337Y479279D01*
X397641Y474200D02*
X395102Y471661D01*
Y466583D01*
X397641Y464044D01*
X400180D01*
X402719Y466583D01*
Y469122D01*
Y466583D01*
X405259Y464044D01*
X407798D01*
X410337Y466583D01*
Y471661D01*
X407798Y474200D01*
X397641Y458965D02*
X395102Y456426D01*
Y451348D01*
X397641Y448809D01*
X407798D01*
X410337Y451348D01*
Y456426D01*
X407798Y458965D01*
X397641D01*
X1035177Y484759D02*
X1019942D01*
Y477141D01*
X1022481Y474602D01*
X1027560D01*
X1030099Y477141D01*
Y484759D01*
Y479681D02*
X1035177Y474602D01*
Y459367D02*
Y469524D01*
X1025020Y459367D01*
X1022481D01*
X1019942Y461906D01*
Y466985D01*
X1022481Y469524D01*
X1032638Y454289D02*
X1035177Y451750D01*
Y446671D01*
X1032638Y444132D01*
X1022481D01*
X1019942Y446671D01*
Y451750D01*
X1022481Y454289D01*
X1025020D01*
X1027560Y451750D01*
Y444132D01*
X478917Y489839D02*
X463682D01*
Y482221D01*
X466221Y479682D01*
X471300D01*
X473839Y482221D01*
Y489839D01*
Y484761D02*
X478917Y479682D01*
Y464447D02*
Y474604D01*
X468760Y464447D01*
X466221D01*
X463682Y466986D01*
Y472065D01*
X466221Y474604D01*
Y459369D02*
X463682Y456830D01*
Y451751D01*
X466221Y449212D01*
X468760D01*
X471300Y451751D01*
X473839Y449212D01*
X476378D01*
X478917Y451751D01*
Y456830D01*
X476378Y459369D01*
X473839D01*
X471300Y456830D01*
X468760Y459369D01*
X466221D01*
X471300Y456830D02*
Y451751D01*
X890397Y481815D02*
X875162D01*
Y474198D01*
X877701Y471659D01*
X882779D01*
X885319Y474198D01*
Y481815D01*
Y476737D02*
X890397Y471659D01*
Y456424D02*
Y466580D01*
X880240Y456424D01*
X877701D01*
X875162Y458963D01*
Y464041D01*
X877701Y466580D01*
X875162Y451345D02*
Y441189D01*
X877701D01*
X887858Y451345D01*
X890397D01*
X321437Y489436D02*
X306202D01*
Y481818D01*
X308741Y479279D01*
X313820D01*
X316359Y481818D01*
Y489436D01*
Y484357D02*
X321437Y479279D01*
Y464044D02*
Y474200D01*
X311280Y464044D01*
X308741D01*
X306202Y466583D01*
Y471661D01*
X308741Y474200D01*
X306202Y448809D02*
X308741Y453887D01*
X313820Y458965D01*
X318898D01*
X321437Y456426D01*
Y451348D01*
X318898Y448809D01*
X316359D01*
X313820Y451348D01*
Y458965D01*
X1004443Y513058D02*
X1019678D01*
Y520675D01*
X1017139Y523214D01*
X1012060D01*
X1009521Y520675D01*
Y513058D01*
Y518136D02*
X1004443Y523214D01*
Y538449D02*
Y528293D01*
X1014600Y538449D01*
X1017139D01*
X1019678Y535910D01*
Y530832D01*
X1017139Y528293D01*
X1019678Y553684D02*
Y543528D01*
X1012060D01*
X1014600Y548606D01*
Y551145D01*
X1012060Y553684D01*
X1006982D01*
X1004443Y551145D01*
Y546067D01*
X1006982Y543528D01*
X440563Y505841D02*
X455798D01*
Y513459D01*
X453259Y515998D01*
X448181D01*
X445641Y513459D01*
Y505841D01*
Y510919D02*
X440563Y515998D01*
Y531233D02*
Y521076D01*
X450720Y531233D01*
X453259D01*
X455798Y528694D01*
Y523615D01*
X453259Y521076D01*
X440563Y543929D02*
X455798D01*
X448181Y536311D01*
Y546468D01*
X928243Y505438D02*
X943478D01*
Y513055D01*
X940939Y515594D01*
X935861D01*
X933321Y513055D01*
Y505438D01*
Y510516D02*
X928243Y515594D01*
Y530829D02*
Y520673D01*
X938400Y530829D01*
X940939D01*
X943478Y528290D01*
Y523212D01*
X940939Y520673D01*
Y535908D02*
X943478Y538447D01*
Y543525D01*
X940939Y546064D01*
X938400D01*
X935861Y543525D01*
Y540986D01*
Y543525D01*
X933321Y546064D01*
X930782D01*
X928243Y543525D01*
Y538447D01*
X930782Y535908D01*
X369443Y505841D02*
X384678D01*
Y513459D01*
X382139Y515998D01*
X377061D01*
X374521Y513459D01*
Y505841D01*
Y510919D02*
X369443Y515998D01*
Y531233D02*
Y521076D01*
X379600Y531233D01*
X382139D01*
X384678Y528694D01*
Y523615D01*
X382139Y521076D01*
X369443Y546468D02*
Y536311D01*
X379600Y546468D01*
X382139D01*
X384678Y543929D01*
Y538850D01*
X382139Y536311D01*
X646557Y487299D02*
X631322D01*
Y479682D01*
X633861Y477142D01*
X638940D01*
X641479Y479682D01*
Y487299D01*
Y482221D02*
X646557Y477142D01*
Y461907D02*
Y472064D01*
X636400Y461907D01*
X633861D01*
X631322Y464446D01*
Y469525D01*
X633861Y472064D01*
X646557Y456829D02*
Y451750D01*
Y454290D01*
X631322D01*
X633861Y456829D01*
X95377Y485163D02*
X80142D01*
Y477545D01*
X82681Y475006D01*
X87760D01*
X90299Y477545D01*
Y485163D01*
Y480084D02*
X95377Y475006D01*
Y459771D02*
Y469927D01*
X85220Y459771D01*
X82681D01*
X80142Y462310D01*
Y467388D01*
X82681Y469927D01*
Y454692D02*
X80142Y452153D01*
Y447075D01*
X82681Y444536D01*
X92838D01*
X95377Y447075D01*
Y452153D01*
X92838Y454692D01*
X82681D01*
X765683Y508381D02*
X780918D01*
Y515998D01*
X778379Y518538D01*
X773300D01*
X770761Y515998D01*
Y508381D01*
Y513459D02*
X765683Y518538D01*
Y523616D02*
Y528694D01*
Y526155D01*
X780918D01*
X778379Y523616D01*
X768222Y536312D02*
X765683Y538851D01*
Y543929D01*
X768222Y546469D01*
X778379D01*
X780918Y543929D01*
Y538851D01*
X778379Y536312D01*
X775840D01*
X773300Y538851D01*
Y546469D01*
X199263Y505841D02*
X214498D01*
Y513459D01*
X211959Y515998D01*
X206880D01*
X204341Y513459D01*
Y505841D01*
Y510919D02*
X199263Y515998D01*
Y521076D02*
Y526154D01*
Y523615D01*
X214498D01*
X211959Y521076D01*
Y533772D02*
X214498Y536311D01*
Y541390D01*
X211959Y543929D01*
X209420D01*
X206880Y541390D01*
X204341Y543929D01*
X201802D01*
X199263Y541390D01*
Y536311D01*
X201802Y533772D01*
X204341D01*
X206880Y536311D01*
X209420Y533772D01*
X211959D01*
X206880Y536311D02*
Y541390D01*
X796163Y508381D02*
X811398D01*
Y515998D01*
X808859Y518538D01*
X803781D01*
X801241Y515998D01*
Y508381D01*
Y513459D02*
X796163Y518538D01*
Y523616D02*
Y528694D01*
Y526155D01*
X811398D01*
X808859Y523616D01*
X811398Y536312D02*
Y546469D01*
X808859D01*
X798702Y536312D01*
X796163D01*
X239903Y505841D02*
X255138D01*
Y513459D01*
X252599Y515998D01*
X247521D01*
X244981Y513459D01*
Y505841D01*
Y510919D02*
X239903Y515998D01*
Y521076D02*
Y526154D01*
Y523615D01*
X255138D01*
X252599Y521076D01*
X255138Y543929D02*
X252599Y538850D01*
X247521Y533772D01*
X242442D01*
X239903Y536311D01*
Y541390D01*
X242442Y543929D01*
X244981D01*
X247521Y541390D01*
Y533772D01*
X689737Y485163D02*
X674502D01*
Y477545D01*
X677041Y475006D01*
X682120D01*
X684659Y477545D01*
Y485163D01*
Y480084D02*
X689737Y475006D01*
Y469927D02*
Y464849D01*
Y467388D01*
X674502D01*
X677041Y469927D01*
X674502Y447075D02*
Y457231D01*
X682120D01*
X679580Y452153D01*
Y449614D01*
X682120Y447075D01*
X687198D01*
X689737Y449614D01*
Y454692D01*
X687198Y457231D01*
X125857Y484759D02*
X110622D01*
Y477141D01*
X113161Y474602D01*
X118239D01*
X120779Y477141D01*
Y484759D01*
Y479681D02*
X125857Y474602D01*
Y469524D02*
Y464446D01*
Y466985D01*
X110622D01*
X113161Y469524D01*
X125857Y449211D02*
X110622D01*
X118239Y456828D01*
Y446671D01*
X768477Y484759D02*
X753242D01*
Y477141D01*
X755781Y474602D01*
X760860D01*
X763399Y477141D01*
Y484759D01*
Y479681D02*
X768477Y474602D01*
X765938Y469524D02*
X768477Y466985D01*
Y461906D01*
X765938Y459367D01*
X755781D01*
X753242Y461906D01*
Y466985D01*
X755781Y469524D01*
X758320D01*
X760860Y466985D01*
Y459367D01*
X196977Y487299D02*
X181742D01*
Y479682D01*
X184281Y477142D01*
X189359D01*
X191899Y479682D01*
Y487299D01*
Y482221D02*
X196977Y477142D01*
X184281Y472064D02*
X181742Y469525D01*
Y464446D01*
X184281Y461907D01*
X186820D01*
X189359Y464446D01*
X191899Y461907D01*
X194438D01*
X196977Y464446D01*
Y469525D01*
X194438Y472064D01*
X191899D01*
X189359Y469525D01*
X186820Y472064D01*
X184281D01*
X189359Y469525D02*
Y464446D01*
X605917Y486895D02*
X590682D01*
Y479278D01*
X593221Y476739D01*
X598299D01*
X600839Y479278D01*
Y486895D01*
Y481817D02*
X605917Y476739D01*
X590682Y471660D02*
Y461504D01*
X593221D01*
X603378Y471660D01*
X605917D01*
X42037Y485163D02*
X26802D01*
Y477545D01*
X29341Y475006D01*
X34420D01*
X36959Y477545D01*
Y485163D01*
Y480084D02*
X42037Y475006D01*
X26802Y459771D02*
X29341Y464849D01*
X34420Y469927D01*
X39498D01*
X42037Y467388D01*
Y462310D01*
X39498Y459771D01*
X36959D01*
X34420Y462310D01*
Y469927D01*
X732663Y507977D02*
X747898D01*
Y515595D01*
X745359Y518134D01*
X740281D01*
X737741Y515595D01*
Y507977D01*
Y513056D02*
X732663Y518134D01*
X747898Y533369D02*
Y523213D01*
X740281D01*
X742820Y528291D01*
Y530830D01*
X740281Y533369D01*
X735202D01*
X732663Y530830D01*
Y525752D01*
X735202Y523213D01*
X163703Y506245D02*
X178938D01*
Y513862D01*
X176399Y516401D01*
X171320D01*
X168781Y513862D01*
Y506245D01*
Y511323D02*
X163703Y516401D01*
Y529097D02*
X178938D01*
X171320Y521480D01*
Y531636D01*
X656463Y506245D02*
X671698D01*
Y513862D01*
X669159Y516401D01*
X664081D01*
X661541Y513862D01*
Y506245D01*
Y511323D02*
X656463Y516401D01*
X669159Y521480D02*
X671698Y524019D01*
Y529097D01*
X669159Y531636D01*
X666620D01*
X664081Y529097D01*
Y526558D01*
Y529097D01*
X661541Y531636D01*
X659002D01*
X656463Y529097D01*
Y524019D01*
X659002Y521480D01*
X84963Y506245D02*
X100198D01*
Y513862D01*
X97659Y516401D01*
X92580D01*
X90041Y513862D01*
Y506245D01*
Y511323D02*
X84963Y516401D01*
Y531636D02*
Y521480D01*
X95120Y531636D01*
X97659D01*
X100198Y529097D01*
Y524019D01*
X97659Y521480D01*
X327533Y560451D02*
Y575686D01*
X319916D01*
X317376Y573147D01*
Y568069D01*
X319916Y565529D01*
X327533D01*
X322455D02*
X317376Y560451D01*
X312298D02*
X307220D01*
X309759D01*
Y575686D01*
X312298Y573147D01*
X998006Y9368D02*
X992927D01*
X995467D01*
Y22064D01*
X992927Y24603D01*
X990388D01*
X987849Y22064D01*
X1003084Y24603D02*
X1008162D01*
X1005623D01*
Y9368D01*
X1003084Y11907D01*
X1025937Y24603D02*
X1015780D01*
X1025937Y14446D01*
Y11907D01*
X1023397Y9368D01*
X1018319D01*
X1015780Y11907D01*
X960674Y249150D02*
X965753D01*
X963213D01*
Y236454D01*
X965753Y233915D01*
X968292D01*
X970831Y236454D01*
X945439Y249150D02*
X950518Y246611D01*
X955596Y241532D01*
Y236454D01*
X953057Y233915D01*
X947978D01*
X945439Y236454D01*
Y238993D01*
X947978Y241532D01*
X955596D01*
X1104898Y187961D02*
Y182882D01*
Y185422D01*
X1092202D01*
X1089662Y182882D01*
Y180343D01*
X1092202Y177804D01*
X1089662Y200657D02*
X1104898D01*
X1097280Y193039D01*
Y203196D01*
X1061718Y17781D02*
Y12702D01*
Y15242D01*
X1049022D01*
X1046482Y12702D01*
Y10163D01*
X1049022Y7624D01*
X1059178Y22859D02*
X1061718Y25398D01*
Y30477D01*
X1059178Y33016D01*
X1056639D01*
X1054100Y30477D01*
Y27938D01*
Y30477D01*
X1051561Y33016D01*
X1049022D01*
X1046482Y30477D01*
Y25398D01*
X1049022Y22859D01*
X960674Y133110D02*
X965753D01*
X963213D01*
Y120414D01*
X965753Y117875D01*
X968292D01*
X970831Y120414D01*
X955596Y117875D02*
X950518D01*
X953057D01*
Y133110D01*
X955596Y130571D01*
X828163Y354072D02*
X830702Y351533D01*
Y346454D01*
X828163Y343915D01*
X818006D01*
X815467Y346454D01*
Y351533D01*
X818006Y354072D01*
X830702Y369307D02*
X828163Y364228D01*
X823085Y359150D01*
X818006D01*
X815467Y361689D01*
Y366768D01*
X818006Y369307D01*
X820545D01*
X823085Y366768D01*
Y359150D01*
X528443Y351532D02*
X530982Y348993D01*
Y343914D01*
X528443Y341375D01*
X518286D01*
X515747Y343914D01*
Y348993D01*
X518286Y351532D01*
X530982Y366767D02*
Y356610D01*
X523364D01*
X525904Y361688D01*
Y364228D01*
X523364Y366767D01*
X518286D01*
X515747Y364228D01*
Y359149D01*
X518286Y356610D01*
X1082163Y348612D02*
X1084702Y346073D01*
Y340994D01*
X1082163Y338455D01*
X1072006D01*
X1069467Y340994D01*
Y346073D01*
X1072006Y348612D01*
X1069467Y361308D02*
X1084702D01*
X1077085Y353690D01*
Y363847D01*
X269363Y350772D02*
X271902Y348233D01*
Y343154D01*
X269363Y340615D01*
X259206D01*
X256667Y343154D01*
Y348233D01*
X259206Y350772D01*
X269363Y355850D02*
X271902Y358389D01*
Y363468D01*
X269363Y366007D01*
X266824D01*
X264284Y363468D01*
Y360928D01*
Y363468D01*
X261745Y366007D01*
X259206D01*
X256667Y363468D01*
Y358389D01*
X259206Y355850D01*
X223397Y631828D02*
X220858Y634367D01*
Y639446D01*
X223397Y641985D01*
X233554D01*
X236093Y639446D01*
Y634367D01*
X233554Y631828D01*
X236093Y616593D02*
Y626750D01*
X225936Y616593D01*
X223397D01*
X220858Y619132D01*
Y624211D01*
X223397Y626750D01*
X48137Y634368D02*
X45598Y636907D01*
Y641986D01*
X48137Y644525D01*
X58294D01*
X60833Y641986D01*
Y636907D01*
X58294Y634368D01*
X60833Y629290D02*
Y624212D01*
Y626751D01*
X45598D01*
X48137Y629290D01*
D55*
X36640Y193610D02*
G03*
X36640Y193610I-1250J0D01*
G01*
X125370Y190870D02*
G03*
X125370Y190870I-1250J0D01*
G01*
X214440Y188530D02*
G03*
X214440Y188530I-1250J0D01*
G01*
X36640Y97090D02*
G03*
X36640Y97090I-1250J0D01*
G01*
X125540Y94550D02*
G03*
X125540Y94550I-1250J0D01*
G01*
X214270Y92210D02*
G03*
X214270Y92210I-1250J0D01*
G01*
X720290Y719660D02*
G03*
X720290Y719660I-1250J0D01*
G01*
X372730Y381850D02*
G03*
X372730Y381850I-1250J0D01*
G01*
X928990D02*
G03*
X928990Y381850I-1250J0D01*
G01*
X673720Y383540D02*
G03*
X673720Y383540I-1250J0D01*
G01*
X108570Y381850D02*
G03*
X108570Y381850I-1250J0D01*
G01*
X510641Y681990D02*
G03*
X510641Y681990I-1250J0D01*
G01*
X293350Y733560D02*
G03*
X293350Y733560I-1250J0D01*
G01*
X552650Y719660D02*
G03*
X552650Y719660I-1250J0D01*
G01*
X1101410Y2605D02*
G03*
X1101410Y2605I-1250J0D01*
G01*
Y93610D02*
G03*
X1101410Y93610I-1250J0D01*
G01*
X949510Y120110D02*
G03*
X949510Y120110I-1250J0D01*
G01*
Y4070D02*
G03*
X949510Y4070I-1250J0D01*
G01*
X1022670Y34700D02*
G03*
X1022670Y34700I-1250J0D01*
G01*
D56*
X341360Y199340D02*
G03*
X340360Y199340I-500J0D01*
G01*
D02*
G03*
X341360Y199340I500J0D01*
G01*
D02*
G03*
X340360Y199340I-500J0D01*
G01*
X11890Y112860D02*
Y186860D01*
Y112860D02*
X69390D01*
Y186860D01*
X11890D02*
X69390D01*
X100620Y110120D02*
Y184120D01*
Y110120D02*
X158120D01*
Y184120D01*
X100620D02*
X158120D01*
X189690Y107780D02*
Y181780D01*
Y107780D02*
X247190D01*
Y181780D01*
X189690D02*
X247190D01*
X11890Y16340D02*
Y90340D01*
Y16340D02*
X69390D01*
Y90340D01*
X11890D02*
X69390D01*
X100790Y13800D02*
Y87800D01*
Y13800D02*
X158290D01*
Y87800D01*
X100790D02*
X158290D01*
X189520Y11460D02*
Y85460D01*
Y11460D02*
X247020D01*
Y85460D01*
X189520D02*
X247020D01*
X276860Y193040D02*
X886460D01*
Y15240D02*
Y193040D01*
X276860Y15240D02*
X886460D01*
X276860D02*
Y193040D01*
X1012809Y448220D02*
Y476340D01*
X1034431Y448220D02*
Y476340D01*
X112411Y510569D02*
Y538691D01*
X90789Y510569D02*
Y538691D01*
X169529Y452150D02*
Y480271D01*
X191151Y452150D02*
Y480271D01*
X683911Y513110D02*
Y541231D01*
X662289Y513110D02*
Y541231D01*
X738489Y448220D02*
Y476340D01*
X760111Y448220D02*
Y476340D01*
X396891Y509180D02*
Y537300D01*
X375269Y509180D02*
Y537300D01*
X963311Y517949D02*
Y546071D01*
X941689Y517949D02*
Y546071D01*
X454009Y454449D02*
Y482570D01*
X475631Y454449D02*
Y482570D01*
X712540Y685160D02*
X816540D01*
X712540Y680160D02*
Y726160D01*
X816540D01*
Y680160D02*
Y726160D01*
X712540Y680160D02*
X816540D01*
X189581Y509249D02*
Y542311D01*
X166019Y509249D02*
Y542311D01*
X656239Y450829D02*
Y483891D01*
X679801Y450829D02*
Y483891D01*
X105059Y448693D02*
Y481755D01*
X128621Y448693D02*
Y481755D01*
X918561Y508845D02*
Y541908D01*
X894999Y508845D02*
Y541908D01*
X359761Y509249D02*
Y542311D01*
X336199Y509249D02*
Y542311D01*
X994761Y516465D02*
Y549528D01*
X971199Y516465D02*
Y549528D01*
X430881Y509249D02*
Y542311D01*
X407319Y509249D02*
Y542311D01*
X900079Y445345D02*
Y478408D01*
X923641Y445345D02*
Y478408D01*
X331119Y452965D02*
Y486027D01*
X354681Y452965D02*
Y486027D01*
X1044859Y448289D02*
Y481351D01*
X1068421Y448289D02*
Y481351D01*
X488599Y453369D02*
Y486431D01*
X512161Y453369D02*
Y486431D01*
X983899Y446152D02*
Y479215D01*
X1007461Y446152D02*
Y479215D01*
X420019Y452965D02*
Y486027D01*
X443581Y452965D02*
Y486027D01*
X1063341Y516869D02*
Y549931D01*
X1039779Y516869D02*
Y549931D01*
X517241Y509249D02*
Y542311D01*
X493679Y509249D02*
Y542311D01*
X1027781Y516869D02*
Y549931D01*
X1004219Y516869D02*
Y549931D01*
X953419Y446152D02*
Y479215D01*
X976981Y446152D02*
Y479215D01*
X463901Y508845D02*
Y541908D01*
X440339Y508845D02*
Y541908D01*
X386999Y453773D02*
Y486835D01*
X410561Y453773D02*
Y486835D01*
X474180Y339600D02*
Y371600D01*
X374180Y339600D02*
Y371600D01*
Y339600D02*
X474180D01*
X374180Y371600D02*
X474180D01*
X1030440Y339600D02*
Y371600D01*
X930440Y339600D02*
Y371600D01*
Y339600D02*
X1030440D01*
X930440Y371600D02*
X1030440D01*
X154021Y509652D02*
Y542715D01*
X130459Y509652D02*
Y542715D01*
X615599Y450425D02*
Y483488D01*
X639161Y450425D02*
Y483488D01*
X51719Y448693D02*
Y481755D01*
X75281Y448693D02*
Y481755D01*
X778159Y448289D02*
Y481351D01*
X801721Y448289D02*
Y481351D01*
X206659Y450829D02*
Y483891D01*
X230221Y450829D02*
Y483891D01*
X699419Y448693D02*
Y481755D01*
X722981Y448693D02*
Y481755D01*
X786481Y511789D02*
Y544851D01*
X762919Y511789D02*
Y544851D01*
X230221Y509249D02*
Y542311D01*
X206659Y509249D02*
Y542311D01*
X756001Y511789D02*
Y544851D01*
X732439Y511789D02*
Y544851D01*
X135539Y448289D02*
Y481351D01*
X159101Y448289D02*
Y481351D01*
X775170Y341290D02*
Y373290D01*
X675170Y341290D02*
Y373290D01*
Y341290D02*
X775170D01*
X675170Y373290D02*
X775170D01*
X646781Y509652D02*
Y542715D01*
X623219Y509652D02*
Y542715D01*
X75281Y509652D02*
Y542715D01*
X51719Y509652D02*
Y542715D01*
X722981Y511385D02*
Y544448D01*
X699419Y511385D02*
Y544448D01*
X210020Y339600D02*
Y371600D01*
X110020Y339600D02*
Y371600D01*
Y339600D02*
X210020D01*
X110020Y371600D02*
X210020D01*
X303840Y549020D02*
X310840D01*
X303840Y533020D02*
X310840D01*
X476847Y638440D02*
Y687440D01*
X457873Y638440D02*
X476847D01*
X457873D02*
Y687440D01*
X476847D01*
X284150Y708560D02*
X285350D01*
X400450D02*
X401650D01*
Y632560D02*
Y708560D01*
X284150Y632560D02*
X285350D01*
X400450D02*
X401650D01*
X284150D02*
Y708560D01*
X544900Y685160D02*
X648900D01*
X544900Y680160D02*
Y726160D01*
X648900D01*
Y680160D02*
Y726160D01*
X544900Y680160D02*
X648900D01*
X1066160Y9355D02*
X1123660D01*
X1066160D02*
Y83355D01*
X1123660D01*
Y9355D02*
Y83355D01*
X1066160Y100360D02*
X1123660D01*
X1066160D02*
Y174360D01*
X1123660D01*
Y100360D02*
Y174360D01*
X913760Y125360D02*
X971260D01*
X913760D02*
Y224360D01*
X971260D01*
Y125360D02*
Y224360D01*
X913760Y9320D02*
X971260D01*
X913760D02*
Y108320D01*
X971260D01*
Y9320D02*
Y108320D01*
X987420Y164200D02*
X1044920D01*
Y40200D02*
Y164200D01*
X987420Y40200D02*
X1044920D01*
X987420D02*
Y164200D01*
D57*
X387180Y361600D02*
G03*
X387180Y361600I-3000J0D01*
G01*
X943440D02*
G03*
X943440Y361600I-3000J0D01*
G01*
X688170Y363290D02*
G03*
X688170Y363290I-3000J0D01*
G01*
X123020Y361600D02*
G03*
X123020Y361600I-3000J0D01*
G01*
D58*
X232260Y683100D02*
Y694560D01*
X118260D02*
X232260D01*
X118260Y683100D02*
Y694560D01*
Y646560D02*
Y658020D01*
Y646560D02*
X232260D01*
Y658020D01*
M02*
