G04*
G04 #@! TF.GenerationSoftware,Altium Limited,Altium Designer,22.10.1 (41)*
G04*
G04 Layer_Color=32896*
%FSLAX44Y44*%
%MOMM*%
G71*
G04*
G04 #@! TF.SameCoordinates,F6FD88A5-7606-448C-B8D5-CB5F8BF09B0B*
G04*
G04*
G04 #@! TF.FilePolarity,Positive*
G04*
G01*
G75*
%ADD62C,0.1000*%
D62*
X820820Y622550D02*
Y632550D01*
X815820Y627550D02*
X825820D01*
X795420Y698750D02*
Y708750D01*
X790420Y703750D02*
X800420D01*
X658340Y703750D02*
X668340D01*
X663340Y698750D02*
Y708750D01*
X63670Y203080D02*
Y213080D01*
X58670Y208080D02*
X68670D01*
X147490Y200540D02*
Y210540D01*
X142490Y205540D02*
X152490D01*
X223520Y198200D02*
Y208200D01*
X218520Y203200D02*
X228520D01*
X63670Y101480D02*
Y111480D01*
X58670Y106480D02*
X68670D01*
X144950Y104020D02*
Y114020D01*
X139950Y109020D02*
X149950D01*
X223350Y101880D02*
Y111880D01*
X218350Y106880D02*
X228350D01*
X1018620Y462280D02*
X1028620D01*
X1023620Y457280D02*
Y467280D01*
X96600Y524630D02*
X106600D01*
X101600Y519630D02*
Y529630D01*
X175340Y466210D02*
X185340D01*
X180340Y461210D02*
Y471210D01*
X668100Y527170D02*
X678100D01*
X673100Y522170D02*
Y532170D01*
X744300Y462280D02*
X754300D01*
X749300Y457280D02*
Y467280D01*
X381080Y523240D02*
X391080D01*
X386080Y518240D02*
Y528240D01*
X947500Y532010D02*
X957500D01*
X952500Y527010D02*
Y537010D01*
X459820Y468510D02*
X469820D01*
X464820Y463510D02*
Y473510D01*
X172800Y525780D02*
X182800D01*
X177800Y520780D02*
Y530780D01*
X663020Y467360D02*
X673020D01*
X668020Y462360D02*
Y472360D01*
X111840Y465223D02*
X121840D01*
X116840Y460224D02*
Y470224D01*
X901780Y525377D02*
X911780D01*
X906780Y520376D02*
Y530376D01*
X342980Y525780D02*
X352980D01*
X347980Y520780D02*
Y530780D01*
X977980Y532997D02*
X987980D01*
X982980Y527996D02*
Y537996D01*
X414100Y525780D02*
X424100D01*
X419100Y520780D02*
Y530780D01*
X906860Y461877D02*
X916860D01*
X911860Y456876D02*
Y466876D01*
X337900Y469497D02*
X347900D01*
X342900Y464496D02*
Y474496D01*
X1051640Y464820D02*
X1061640D01*
X1056640Y459820D02*
Y469820D01*
X495380Y469900D02*
X505380D01*
X500380Y464900D02*
Y474900D01*
X990680Y462683D02*
X1000680D01*
X995680Y457684D02*
Y467684D01*
X426800Y469497D02*
X436800D01*
X431800Y464496D02*
Y474496D01*
X1046560Y533400D02*
X1056560D01*
X1051560Y528400D02*
Y538400D01*
X500460Y525780D02*
X510460D01*
X505460Y520780D02*
Y530780D01*
X1011000Y533400D02*
X1021000D01*
X1016000Y528400D02*
Y538400D01*
X960200Y462683D02*
X970200D01*
X965200Y457684D02*
Y467684D01*
X447120Y525377D02*
X457120D01*
X452120Y520376D02*
Y530376D01*
X393780Y470303D02*
X403780D01*
X398780Y465304D02*
Y475304D01*
X137240Y526183D02*
X147240D01*
X142240Y521184D02*
Y531184D01*
X622380Y466957D02*
X632380D01*
X627380Y461956D02*
Y471956D01*
X58500Y465223D02*
X68500D01*
X63500Y460224D02*
Y470224D01*
X784940Y464820D02*
X794940D01*
X789940Y459820D02*
Y469820D01*
X213440Y467360D02*
X223440D01*
X218440Y462360D02*
Y472360D01*
X706200Y465223D02*
X716200D01*
X711200Y460224D02*
Y470224D01*
X769700Y528320D02*
X779700D01*
X774700Y523320D02*
Y533320D01*
X213440Y525780D02*
X223440D01*
X218440Y520780D02*
Y530780D01*
X739220Y528320D02*
X749220D01*
X744220Y523320D02*
Y533320D01*
X142320Y464820D02*
X152320D01*
X147320Y459820D02*
Y469820D01*
X630000Y526183D02*
X640000D01*
X635000Y521184D02*
Y531184D01*
X58500Y526183D02*
X68500D01*
X63500Y521184D02*
Y531184D01*
X706200Y527917D02*
X716200D01*
X711200Y522916D02*
Y532916D01*
X210820Y635080D02*
Y645080D01*
X205820Y640080D02*
X215820D01*
X325650Y670560D02*
X360150D01*
X342900Y653310D02*
Y687810D01*
X1044020Y109220D02*
X1054020D01*
X1049020Y104220D02*
Y114220D01*
X1044020Y208280D02*
X1054020D01*
X1049020Y203280D02*
Y213280D01*
X932260Y198120D02*
X942260D01*
X937260Y193120D02*
Y203120D01*
X673700Y622550D02*
Y632550D01*
X668700Y627550D02*
X678700D01*
M02*
