G04*
G04 #@! TF.GenerationSoftware,Altium Limited,Altium Designer,22.10.1 (41)*
G04*
G04 Layer_Physical_Order=2*
G04 Layer_Color=16711680*
%FSLAX44Y44*%
%MOMM*%
G71*
G04*
G04 #@! TF.SameCoordinates,F6FD88A5-7606-448C-B8D5-CB5F8BF09B0B*
G04*
G04*
G04 #@! TF.FilePolarity,Positive*
G04*
G01*
G75*
%ADD15C,1.4000*%
%ADD16R,1.4000X1.4000*%
%ADD20R,1.5500X1.5500*%
%ADD21C,1.5500*%
%ADD26R,1.4000X1.4000*%
%ADD29C,0.3048*%
%ADD30C,1.6650*%
%ADD31O,6.3500X6.1976*%
%ADD32R,2.0320X2.5400*%
%ADD33O,2.0320X2.5400*%
%ADD34C,1.7000*%
%ADD35R,1.7000X1.7000*%
%ADD36C,0.7620*%
%ADD37C,0.6858*%
G04:AMPARAMS|DCode=38|XSize=0.55mm|YSize=1.25mm|CornerRadius=0.0495mm|HoleSize=0mm|Usage=FLASHONLY|Rotation=180.000|XOffset=0mm|YOffset=0mm|HoleType=Round|Shape=RoundedRectangle|*
%AMROUNDEDRECTD38*
21,1,0.5500,1.1510,0,0,180.0*
21,1,0.4510,1.2500,0,0,180.0*
1,1,0.0990,-0.2255,0.5755*
1,1,0.0990,0.2255,0.5755*
1,1,0.0990,0.2255,-0.5755*
1,1,0.0990,-0.2255,-0.5755*
%
%ADD38ROUNDEDRECTD38*%
%ADD39R,1.4500X1.3000*%
%ADD40R,1.3621X1.0581*%
%ADD41R,1.3500X1.1000*%
%ADD42R,1.5562X1.3549*%
%ADD43R,1.2500X1.8000*%
G04:AMPARAMS|DCode=44|XSize=2.2044mm|YSize=0.608mm|CornerRadius=0.304mm|HoleSize=0mm|Usage=FLASHONLY|Rotation=180.000|XOffset=0mm|YOffset=0mm|HoleType=Round|Shape=RoundedRectangle|*
%AMROUNDEDRECTD44*
21,1,2.2044,0.0000,0,0,180.0*
21,1,1.5965,0.6080,0,0,180.0*
1,1,0.6080,-0.7982,0.0000*
1,1,0.6080,0.7982,0.0000*
1,1,0.6080,0.7982,0.0000*
1,1,0.6080,-0.7982,0.0000*
%
%ADD44ROUNDEDRECTD44*%
%ADD45R,2.2044X0.6080*%
%ADD46R,1.4500X1.2500*%
%ADD47R,5.5000X2.0000*%
G04:AMPARAMS|DCode=48|XSize=1.9mm|YSize=0.6mm|CornerRadius=0.3mm|HoleSize=0mm|Usage=FLASHONLY|Rotation=270.000|XOffset=0mm|YOffset=0mm|HoleType=Round|Shape=RoundedRectangle|*
%AMROUNDEDRECTD48*
21,1,1.9000,0.0000,0,0,270.0*
21,1,1.3000,0.6000,0,0,270.0*
1,1,0.6000,0.0000,-0.6500*
1,1,0.6000,0.0000,0.6500*
1,1,0.6000,0.0000,0.6500*
1,1,0.6000,0.0000,-0.6500*
%
%ADD48ROUNDEDRECTD48*%
%ADD49C,0.1524*%
%ADD50C,0.2032*%
G36*
X560686Y734008D02*
X499760D01*
X498571Y733771D01*
X497563Y733098D01*
X489692Y725227D01*
X489009Y725621D01*
X486460Y726304D01*
X484337D01*
X483804Y727567D01*
X492777Y736540D01*
X560686D01*
Y734008D01*
D02*
G37*
G36*
X1121336Y57224D02*
X14045D01*
Y742876D01*
X488570D01*
X488801Y742545D01*
X489053Y741606D01*
X471259Y723811D01*
X471034Y723475D01*
X469764Y723861D01*
Y726304D01*
X460756D01*
Y716280D01*
Y706256D01*
X469078D01*
X469764Y706256D01*
X470348Y705228D01*
Y658740D01*
X470387Y658546D01*
X469357Y657276D01*
X384928D01*
X383739Y657039D01*
X382731Y656366D01*
X371331Y644966D01*
X295275D01*
X294086Y644729D01*
X293078Y644055D01*
X289902Y640881D01*
X289229Y639872D01*
X288992Y638683D01*
Y633424D01*
X288838Y633321D01*
X287838Y631825D01*
X287487Y630060D01*
Y626668D01*
X270537D01*
X261503Y635702D01*
X261723Y636580D01*
X261991Y636972D01*
X265058D01*
X266472Y635558D01*
X268433Y634746D01*
X270555D01*
X272516Y635558D01*
X274016Y637058D01*
X274828Y639019D01*
Y641141D01*
X274016Y643102D01*
X272516Y644602D01*
X270555Y645414D01*
X268433D01*
X266472Y644602D01*
X265058Y643188D01*
X248981D01*
X248382Y644308D01*
X248610Y644649D01*
X248762Y645414D01*
X236329D01*
X223895D01*
X224047Y644649D01*
X224275Y644308D01*
X223677Y643188D01*
X219219D01*
X213780Y648627D01*
X212771Y649301D01*
X211582Y649538D01*
X196706D01*
X196584Y649720D01*
X195074Y650729D01*
X193293Y651083D01*
X177329D01*
X175548Y650729D01*
X174039Y649720D01*
X173030Y648211D01*
X172676Y646430D01*
X173030Y644649D01*
X174039Y643140D01*
X175548Y642131D01*
X177329Y641777D01*
X193293D01*
X195074Y642131D01*
X196584Y643140D01*
X196706Y643322D01*
X210295D01*
X215509Y638108D01*
X215289Y637230D01*
X215021Y636838D01*
X196706D01*
X196584Y637020D01*
X195074Y638029D01*
X193293Y638383D01*
X177329D01*
X175548Y638029D01*
X174039Y637020D01*
X173030Y635511D01*
X172676Y633730D01*
X173030Y631949D01*
X174039Y630440D01*
X175548Y629431D01*
X177329Y629077D01*
X193293D01*
X195074Y629431D01*
X196584Y630440D01*
X196706Y630622D01*
X214613D01*
X216348Y628887D01*
Y594360D01*
X216585Y593171D01*
X217258Y592163D01*
X282791Y526631D01*
X283799Y525957D01*
X284988Y525720D01*
X330200D01*
X331389Y525957D01*
X332397Y526631D01*
X332651Y526884D01*
X333325Y527893D01*
X333562Y529082D01*
Y592565D01*
X337837Y596840D01*
X363520D01*
X363649Y596487D01*
X363731Y595570D01*
X362928Y595033D01*
X345783Y577888D01*
X345109Y576880D01*
X344872Y575691D01*
Y543835D01*
X338675D01*
Y527238D01*
X357285D01*
Y543835D01*
X351088D01*
Y574404D01*
X366412Y589728D01*
X392794D01*
X394856Y587667D01*
X394608Y586421D01*
X393650Y586024D01*
X391209Y584151D01*
X389336Y581710D01*
X388159Y578868D01*
X387757Y575818D01*
Y570738D01*
X388159Y567688D01*
X389336Y564846D01*
X391209Y562405D01*
X393650Y560532D01*
X396492Y559355D01*
X399542Y558953D01*
X402592Y559355D01*
X405434Y560532D01*
X407875Y562405D01*
X409748Y564846D01*
X410925Y567688D01*
X411327Y570738D01*
Y575818D01*
X410925Y578868D01*
X409748Y581710D01*
X407875Y584151D01*
X405434Y586024D01*
X402650Y587177D01*
Y587375D01*
X402413Y588564D01*
X401740Y589572D01*
X396278Y595033D01*
X395475Y595570D01*
X395557Y596487D01*
X395686Y596840D01*
X518200D01*
X539330Y575709D01*
X540339Y575036D01*
X541528Y574799D01*
X616807D01*
X617996Y575036D01*
X619005Y575709D01*
X657746Y614451D01*
X657910Y614357D01*
X660078Y613776D01*
X662322D01*
X664490Y614357D01*
X666434Y615479D01*
X668021Y617066D01*
X669143Y619010D01*
X669724Y621178D01*
Y623422D01*
X669143Y625590D01*
X668021Y627534D01*
X666434Y629121D01*
X664490Y630243D01*
X662322Y630824D01*
X660078D01*
X657910Y630243D01*
X655966Y629121D01*
X654379Y627534D01*
X653257Y625590D01*
X652676Y623422D01*
Y621178D01*
X653257Y619010D01*
X653351Y618846D01*
X615520Y581015D01*
X600969D01*
X600483Y582188D01*
X632071Y613776D01*
X644724D01*
Y630824D01*
X627676D01*
Y618171D01*
X595092Y585587D01*
X577715D01*
X576805Y586857D01*
X576894Y587305D01*
Y609346D01*
X576657Y610535D01*
X575984Y611544D01*
X575729Y611797D01*
X574721Y612471D01*
X573532Y612708D01*
X572154D01*
Y616624D01*
X555606D01*
Y602576D01*
Y596615D01*
X563880D01*
Y594584D01*
X555606D01*
Y591102D01*
X554336Y590576D01*
X529336Y615576D01*
Y617576D01*
X528524Y619536D01*
X527024Y621037D01*
X525063Y621849D01*
X522941D01*
X520980Y621037D01*
X519480Y619536D01*
X518668Y617576D01*
Y617178D01*
X517495Y616692D01*
X514770Y619417D01*
X513761Y620091D01*
X512572Y620328D01*
X420996D01*
X419581Y621742D01*
X417621Y622554D01*
X415499D01*
X413539Y621742D01*
X412038Y620242D01*
X411226Y618281D01*
Y616159D01*
X412038Y614198D01*
X413539Y612698D01*
X414128Y612454D01*
X413876Y611184D01*
X393295D01*
X393261Y611240D01*
X393423Y611686D01*
X393984Y612504D01*
X395465Y612798D01*
X396962Y613798D01*
X397962Y615295D01*
X398313Y617060D01*
Y630060D01*
X397962Y631825D01*
X396962Y633321D01*
X395465Y634321D01*
X393700Y634672D01*
X391935Y634321D01*
X391603Y634100D01*
X390221Y634538D01*
X389548Y635546D01*
X386372Y638722D01*
X385364Y639395D01*
X384175Y639632D01*
X376583D01*
X376057Y640902D01*
X386216Y651061D01*
X449716D01*
Y643636D01*
X459740D01*
Y642620D01*
X460756D01*
Y632596D01*
X469764D01*
Y632956D01*
X471034Y633341D01*
X471394Y632803D01*
X475322Y628874D01*
X476331Y628200D01*
X477520Y627964D01*
X498992D01*
X500181Y628200D01*
X501189Y628874D01*
X505988Y633673D01*
X506671Y633279D01*
X509220Y632596D01*
X511860D01*
X514409Y633279D01*
X516695Y634599D01*
X518561Y636465D01*
X519881Y638751D01*
X520564Y641300D01*
Y643940D01*
X519881Y646489D01*
X518561Y648775D01*
X516695Y650641D01*
X514409Y651961D01*
X511860Y652644D01*
X509220D01*
X506671Y651961D01*
X504385Y650641D01*
X502519Y648775D01*
X501199Y646489D01*
X500516Y643940D01*
Y641300D01*
X501199Y638751D01*
X501593Y638068D01*
X497704Y634179D01*
X492671D01*
X492145Y635449D01*
X493161Y636465D01*
X494481Y638751D01*
X495164Y641300D01*
Y643940D01*
X494481Y646489D01*
X493161Y648775D01*
X491295Y650641D01*
X489009Y651961D01*
X486460Y652644D01*
X483820D01*
X482332Y652245D01*
X481062Y653220D01*
Y654242D01*
X480825Y655432D01*
X480151Y656440D01*
X476564Y660028D01*
Y708884D01*
X477834Y709410D01*
X478985Y708259D01*
X481271Y706939D01*
X483820Y706256D01*
X486460D01*
X489009Y706939D01*
X491295Y708259D01*
X493161Y710125D01*
X494481Y712411D01*
X495164Y714960D01*
Y717600D01*
X494481Y720149D01*
X494087Y720832D01*
X501048Y727793D01*
X560686D01*
Y723876D01*
Y717916D01*
X568960D01*
Y716900D01*
X569976D01*
Y709876D01*
X575758D01*
Y704781D01*
X574694Y704284D01*
X558146D01*
Y690236D01*
Y684276D01*
X574694D01*
Y690236D01*
Y694156D01*
X575864Y694389D01*
X576872Y695062D01*
X581063Y699253D01*
X581737Y700262D01*
X581974Y701451D01*
Y739394D01*
X581737Y740583D01*
X581063Y741591D01*
X581049Y741606D01*
X581301Y742545D01*
X581532Y742876D01*
X1121336D01*
Y57224D01*
D02*
G37*
G36*
X224275Y635852D02*
X224047Y635511D01*
X223693Y633730D01*
X224047Y631949D01*
X225056Y630440D01*
X226566Y629431D01*
X228347Y629077D01*
X244311D01*
X246092Y629431D01*
X247601Y630440D01*
X247723Y630622D01*
X257793D01*
X263007Y625408D01*
X262481Y624138D01*
X247723D01*
X247601Y624320D01*
X246092Y625329D01*
X244311Y625683D01*
X228347D01*
X226566Y625329D01*
X225056Y624320D01*
X224047Y622811D01*
X223834Y621737D01*
X222564Y621862D01*
Y630174D01*
X222327Y631363D01*
X221653Y632371D01*
X218323Y635702D01*
X218543Y636580D01*
X218811Y636972D01*
X223677D01*
X224275Y635852D01*
D02*
G37*
G36*
X376953Y632146D02*
X376739Y631825D01*
X376387Y630060D01*
Y617060D01*
X376739Y615295D01*
X377738Y613798D01*
X379235Y612798D01*
X381000Y612447D01*
X382765Y612798D01*
X383122Y613037D01*
X384242Y612438D01*
Y611759D01*
X384479Y610570D01*
X385153Y609562D01*
X388835Y605878D01*
X389844Y605205D01*
X391033Y604968D01*
X504968D01*
X505470Y604321D01*
X504898Y603056D01*
X343553D01*
X343067Y604229D01*
X345098Y606259D01*
X345771Y607268D01*
X346008Y608457D01*
Y613695D01*
X346162Y613798D01*
X347161Y615295D01*
X347513Y617060D01*
Y630060D01*
X347161Y631825D01*
X346947Y632146D01*
X347626Y633416D01*
X350874D01*
X351553Y632146D01*
X351339Y631825D01*
X350987Y630060D01*
Y617060D01*
X351339Y615295D01*
X352338Y613798D01*
X353835Y612798D01*
X355600Y612447D01*
X357365Y612798D01*
X358862Y613798D01*
X359861Y615295D01*
X360213Y617060D01*
Y630060D01*
X359861Y631825D01*
X359647Y632146D01*
X360326Y633416D01*
X363574D01*
X364253Y632146D01*
X364039Y631825D01*
X363687Y630060D01*
Y617060D01*
X364039Y615295D01*
X365038Y613798D01*
X366535Y612798D01*
X368300Y612447D01*
X370065Y612798D01*
X371562Y613798D01*
X372561Y615295D01*
X372913Y617060D01*
Y630060D01*
X372561Y631825D01*
X372347Y632146D01*
X373026Y633416D01*
X376274D01*
X376953Y632146D01*
D02*
G37*
G36*
X507346Y612842D02*
X506757Y612598D01*
X505342Y611184D01*
X419244D01*
X418992Y612454D01*
X419581Y612698D01*
X420996Y614112D01*
X507094D01*
X507346Y612842D01*
D02*
G37*
G36*
X287487Y617060D02*
X287838Y615295D01*
X288838Y613798D01*
X288992Y613695D01*
Y582896D01*
X289229Y581707D01*
X289902Y580699D01*
X290482Y580119D01*
Y551544D01*
X285816D01*
Y534054D01*
X284643Y533568D01*
X222564Y595647D01*
Y620198D01*
X223834Y620323D01*
X224047Y619249D01*
X225056Y617740D01*
X226566Y616731D01*
X228347Y616377D01*
X244311D01*
X246092Y616731D01*
X247601Y617740D01*
X247723Y617922D01*
X262365D01*
X266700Y613587D01*
Y611587D01*
X267512Y609627D01*
X269013Y608126D01*
X270973Y607314D01*
X273095D01*
X275056Y608126D01*
X276556Y609627D01*
X277368Y611587D01*
Y613709D01*
X276556Y615670D01*
X275056Y617170D01*
X273095Y617982D01*
X271095D01*
X269895Y619182D01*
X270421Y620452D01*
X287487D01*
Y617060D01*
D02*
G37*
G36*
X329047Y637480D02*
X328003Y636436D01*
X327329Y635427D01*
X327092Y634238D01*
Y633424D01*
X326938Y633321D01*
X325938Y631825D01*
X325587Y630060D01*
Y617060D01*
X325938Y615295D01*
X326938Y613798D01*
X328435Y612798D01*
X330200Y612447D01*
X331965Y612798D01*
X333462Y613798D01*
X334462Y615295D01*
X334813Y617060D01*
Y630060D01*
X334462Y631825D01*
X334247Y632146D01*
X334926Y633416D01*
X338174D01*
X338853Y632146D01*
X338638Y631825D01*
X338287Y630060D01*
Y617060D01*
X338638Y615295D01*
X339638Y613798D01*
X339792Y613695D01*
Y609744D01*
X337781Y607733D01*
X329002D01*
X327813Y607496D01*
X326805Y606823D01*
X324430Y604447D01*
X323641Y604774D01*
X321519D01*
X319559Y603962D01*
X318058Y602462D01*
X317246Y600501D01*
Y600202D01*
X315976Y599949D01*
X315672Y600684D01*
X314258Y602098D01*
Y611318D01*
X317500D01*
X318689Y611555D01*
X319697Y612229D01*
X320371Y613237D01*
X320440Y613583D01*
X320762Y613798D01*
X321762Y615295D01*
X322113Y617060D01*
Y630060D01*
X321762Y631825D01*
X320762Y633321D01*
X319265Y634321D01*
X317500Y634672D01*
X315735Y634321D01*
X314238Y633321D01*
X313239Y631825D01*
X312887Y630060D01*
Y617534D01*
X312674D01*
X311485Y617297D01*
X310643Y616735D01*
X310111Y616875D01*
X309413Y617356D01*
Y630060D01*
X309062Y631825D01*
X308062Y633321D01*
X306565Y634321D01*
X304800Y634672D01*
X303035Y634321D01*
X301538Y633321D01*
X300539Y631825D01*
X300187Y630060D01*
Y617060D01*
X300539Y615295D01*
X301150Y614380D01*
Y574617D01*
X301386Y573427D01*
X302060Y572419D01*
X317982Y556497D01*
Y551544D01*
X313316D01*
Y531936D01*
X301364D01*
Y551544D01*
X296698D01*
Y581406D01*
X296461Y582595D01*
X295787Y583604D01*
X295208Y584183D01*
Y613695D01*
X295362Y613798D01*
X296362Y615295D01*
X296713Y617060D01*
Y630060D01*
X296362Y631825D01*
X295362Y633321D01*
X295208Y633424D01*
Y637396D01*
X296562Y638750D01*
X328521D01*
X329047Y637480D01*
D02*
G37*
G36*
X318058Y596418D02*
X319559Y594918D01*
X321519Y594106D01*
X323641D01*
X325602Y594918D01*
X326721Y596038D01*
X327708Y595229D01*
X327583Y595041D01*
X327346Y593852D01*
Y551544D01*
X324198D01*
Y557784D01*
X323961Y558973D01*
X323288Y559981D01*
X307365Y575904D01*
Y592244D01*
X308635Y592930D01*
X310089Y592328D01*
X312211D01*
X314172Y593140D01*
X315672Y594641D01*
X316484Y596601D01*
Y596900D01*
X317754Y597153D01*
X318058Y596418D01*
D02*
G37*
%LPC*%
G36*
X394716Y728471D02*
Y718576D01*
X398313D01*
Y724060D01*
X397962Y725825D01*
X396962Y727322D01*
X395465Y728322D01*
X394716Y728471D01*
D02*
G37*
G36*
X458724Y726304D02*
X449716D01*
Y717296D01*
X458724D01*
Y726304D01*
D02*
G37*
G36*
X567944Y715884D02*
X560686D01*
Y709876D01*
X567944D01*
Y715884D01*
D02*
G37*
G36*
X293497Y734882D02*
X174244D01*
X173055Y734645D01*
X172047Y733971D01*
X147303Y709228D01*
X126304D01*
Y717644D01*
X68256D01*
Y694596D01*
X94172D01*
Y664352D01*
X91324Y661504D01*
X90054Y662030D01*
Y665634D01*
X72506D01*
Y650404D01*
X72506Y650086D01*
Y649134D01*
X72506Y648816D01*
Y642376D01*
X81280D01*
X90054D01*
Y648816D01*
X90054Y649134D01*
Y650086D01*
X90054Y650404D01*
Y654752D01*
X92075D01*
X93264Y654989D01*
X94272Y655663D01*
X99477Y660867D01*
X100151Y661876D01*
X100388Y663065D01*
Y694596D01*
X126304D01*
Y703012D01*
X148590D01*
X149779Y703249D01*
X150787Y703923D01*
X162083Y715218D01*
X163256Y714732D01*
Y708163D01*
X124803Y669709D01*
X124129Y668701D01*
X123892Y667512D01*
Y658644D01*
X118226D01*
Y643414D01*
X118226Y643096D01*
Y642144D01*
X118226Y641826D01*
Y635386D01*
X127000D01*
X135774D01*
Y641826D01*
X135774Y642144D01*
Y643096D01*
X135774Y643414D01*
Y658644D01*
X130108D01*
Y666225D01*
X162083Y698200D01*
X163256Y697714D01*
Y694596D01*
X221304D01*
Y703012D01*
X250935D01*
X273139Y680808D01*
X274147Y680135D01*
X275336Y679898D01*
X360426D01*
X361615Y680135D01*
X362623Y680808D01*
X382718Y700903D01*
X383988Y700377D01*
Y684039D01*
X362187Y662238D01*
X248875D01*
Y663694D01*
X223783D01*
Y654566D01*
X248875D01*
Y656022D01*
X363474D01*
X364663Y656259D01*
X365672Y656933D01*
X389294Y680555D01*
X389967Y681563D01*
X390204Y682752D01*
Y706428D01*
X391474Y707107D01*
X391935Y706799D01*
X392684Y706650D01*
Y717560D01*
Y728471D01*
X391935Y728322D01*
X391331Y727918D01*
X389967Y728264D01*
X389294Y729273D01*
X386119Y732448D01*
X385110Y733121D01*
X383921Y733358D01*
X307975D01*
X306786Y733121D01*
X305777Y732448D01*
X302603Y729273D01*
X302304Y728826D01*
X300829Y728747D01*
X300648Y729018D01*
X295695Y733971D01*
X294686Y734645D01*
X293497Y734882D01*
D02*
G37*
G36*
X398313Y716544D02*
X394716D01*
Y706650D01*
X395465Y706799D01*
X396962Y707799D01*
X397962Y709295D01*
X398313Y711060D01*
Y716544D01*
D02*
G37*
G36*
X511860Y726304D02*
X509220D01*
X506671Y725621D01*
X504385Y724301D01*
X502519Y722435D01*
X501199Y720149D01*
X500516Y717600D01*
Y714960D01*
X501199Y712411D01*
X502519Y710125D01*
X504385Y708259D01*
X506671Y706939D01*
X509220Y706256D01*
X511860D01*
X514409Y706939D01*
X516695Y708259D01*
X518561Y710125D01*
X519881Y712411D01*
X520564Y714960D01*
Y717600D01*
X519881Y720149D01*
X518561Y722435D01*
X516695Y724301D01*
X514409Y725621D01*
X511860Y726304D01*
D02*
G37*
G36*
X458724Y715264D02*
X449716D01*
Y706256D01*
X458724D01*
Y715264D01*
D02*
G37*
G36*
X821542Y707024D02*
X821436D01*
Y699516D01*
X828944D01*
Y699622D01*
X828363Y701790D01*
X827241Y703734D01*
X825654Y705321D01*
X823710Y706443D01*
X821542Y707024D01*
D02*
G37*
G36*
X819404D02*
X819298D01*
X817130Y706443D01*
X815186Y705321D01*
X813599Y703734D01*
X812477Y701790D01*
X811896Y699622D01*
Y699516D01*
X819404D01*
Y707024D01*
D02*
G37*
G36*
X689462D02*
X689356D01*
Y699516D01*
X696864D01*
Y699622D01*
X696283Y701790D01*
X695161Y703734D01*
X693574Y705321D01*
X691630Y706443D01*
X689462Y707024D01*
D02*
G37*
G36*
X687324D02*
X687218D01*
X685050Y706443D01*
X683106Y705321D01*
X681519Y703734D01*
X680397Y701790D01*
X679816Y699622D01*
Y699516D01*
X687324D01*
Y707024D01*
D02*
G37*
G36*
X828944Y697484D02*
X821436D01*
Y689976D01*
X821542D01*
X823710Y690557D01*
X825654Y691679D01*
X827241Y693266D01*
X828363Y695210D01*
X828944Y697378D01*
Y697484D01*
D02*
G37*
G36*
X819404D02*
X811896D01*
Y697378D01*
X812477Y695210D01*
X813599Y693266D01*
X815186Y691679D01*
X817130Y690557D01*
X819298Y689976D01*
X819404D01*
Y697484D01*
D02*
G37*
G36*
X796542Y707024D02*
X794298D01*
X792130Y706443D01*
X790186Y705321D01*
X788599Y703734D01*
X787477Y701790D01*
X786896Y699622D01*
Y697378D01*
X787477Y695210D01*
X788599Y693266D01*
X790186Y691679D01*
X792130Y690557D01*
X794298Y689976D01*
X796542D01*
X798710Y690557D01*
X800654Y691679D01*
X802241Y693266D01*
X803363Y695210D01*
X803944Y697378D01*
Y699622D01*
X803363Y701790D01*
X802241Y703734D01*
X800654Y705321D01*
X798710Y706443D01*
X796542Y707024D01*
D02*
G37*
G36*
X778944D02*
X761896D01*
Y689976D01*
X778944D01*
Y707024D01*
D02*
G37*
G36*
X696864Y697484D02*
X689356D01*
Y689976D01*
X689462D01*
X691630Y690557D01*
X693574Y691679D01*
X695161Y693266D01*
X696283Y695210D01*
X696864Y697378D01*
Y697484D01*
D02*
G37*
G36*
X687324D02*
X679816D01*
Y697378D01*
X680397Y695210D01*
X681519Y693266D01*
X683106Y691679D01*
X685050Y690557D01*
X687218Y689976D01*
X687324D01*
Y697484D01*
D02*
G37*
G36*
X664462Y707024D02*
X662218D01*
X660050Y706443D01*
X658106Y705321D01*
X656519Y703734D01*
X655397Y701790D01*
X654816Y699622D01*
Y697378D01*
X655397Y695210D01*
X655491Y695046D01*
X615093Y654648D01*
X572154D01*
Y658565D01*
X555606D01*
Y644517D01*
Y638556D01*
X572154D01*
Y644517D01*
Y648433D01*
X579540D01*
X580080Y647163D01*
X579374Y645459D01*
Y643337D01*
X580186Y641376D01*
X581687Y639876D01*
X583647Y639064D01*
X585769D01*
X587729Y639876D01*
X589093Y641240D01*
X857317Y638151D01*
Y604647D01*
X857554Y603458D01*
X858227Y602449D01*
X889596Y571081D01*
X890605Y570407D01*
X891794Y570170D01*
X928090D01*
X928417Y567688D01*
X929594Y564846D01*
X931467Y562405D01*
X933908Y560532D01*
X936692Y559379D01*
Y553480D01*
X936929Y552290D01*
X937602Y551282D01*
X944165Y544719D01*
Y537004D01*
X942895Y536478D01*
X942043Y537330D01*
X941034Y538004D01*
X939845Y538241D01*
X916085D01*
Y543431D01*
X897475D01*
Y526834D01*
X916085D01*
Y532025D01*
X938558D01*
X940396Y530187D01*
X941405Y529513D01*
X942594Y529276D01*
X944165D01*
Y524256D01*
X952500D01*
X960835D01*
Y529276D01*
X962025D01*
X963214Y529513D01*
X964222Y530187D01*
X967398Y533362D01*
X968071Y534370D01*
X968308Y535559D01*
Y559379D01*
X971092Y560532D01*
X973533Y562405D01*
X975406Y564846D01*
X976583Y567688D01*
X976985Y570738D01*
Y575818D01*
X976583Y578868D01*
X975406Y581710D01*
X973533Y584151D01*
X971092Y586024D01*
X968250Y587201D01*
X965200Y587603D01*
X962150Y587201D01*
X959308Y586024D01*
X956867Y584151D01*
X954994Y581710D01*
X953817Y578868D01*
X953415Y575818D01*
Y570738D01*
X953817Y567688D01*
X954994Y564846D01*
X956867Y562405D01*
X959308Y560532D01*
X962092Y559379D01*
Y547624D01*
X960835Y547594D01*
Y547594D01*
X950080D01*
X942908Y554767D01*
Y559379D01*
X945692Y560532D01*
X948133Y562405D01*
X950006Y564846D01*
X951183Y567688D01*
X951585Y570738D01*
Y575818D01*
X951183Y578868D01*
X950006Y581710D01*
X948133Y584151D01*
X945692Y586024D01*
X942850Y587201D01*
X939800Y587603D01*
X936750Y587201D01*
X933908Y586024D01*
X931467Y584151D01*
X929594Y581710D01*
X928417Y578868D01*
X928090Y576386D01*
X893081D01*
X863533Y605934D01*
Y641223D01*
X863418Y641800D01*
X863310Y642379D01*
X863300Y642394D01*
X863296Y642412D01*
X862969Y642901D01*
X862648Y643395D01*
X862633Y643405D01*
X862623Y643420D01*
X862133Y643747D01*
X861647Y644080D01*
X861629Y644084D01*
X861614Y644094D01*
X861037Y644209D01*
X860461Y644331D01*
X614508Y647163D01*
X614515Y648433D01*
X616380D01*
X617570Y648669D01*
X618578Y649343D01*
X659886Y690651D01*
X660050Y690557D01*
X662218Y689976D01*
X664462D01*
X666630Y690557D01*
X668574Y691679D01*
X670161Y693266D01*
X671283Y695210D01*
X671864Y697378D01*
Y699622D01*
X671283Y701790D01*
X670161Y703734D01*
X668574Y705321D01*
X666630Y706443D01*
X664462Y707024D01*
D02*
G37*
G36*
X646864D02*
X629816D01*
Y689976D01*
X646864D01*
Y707024D01*
D02*
G37*
G36*
X1093828Y715024D02*
X1090573D01*
X1087380Y714389D01*
X1084373Y713143D01*
X1081667Y711335D01*
X1079365Y709033D01*
X1077557Y706327D01*
X1076311Y703320D01*
X1075676Y700127D01*
Y696872D01*
X1076311Y693680D01*
X1077557Y690673D01*
X1079365Y687967D01*
X1081667Y685665D01*
X1084373Y683857D01*
X1087380Y682611D01*
X1090573Y681976D01*
X1093828D01*
X1097020Y682611D01*
X1100027Y683857D01*
X1102733Y685665D01*
X1105035Y687967D01*
X1106843Y690673D01*
X1108089Y693680D01*
X1108724Y696872D01*
Y700127D01*
X1108089Y703320D01*
X1106843Y706327D01*
X1105035Y709033D01*
X1102733Y711335D01*
X1100027Y713143D01*
X1097020Y714389D01*
X1093828Y715024D01*
D02*
G37*
G36*
X44808D02*
X41553D01*
X38360Y714389D01*
X35353Y713143D01*
X32647Y711335D01*
X30345Y709033D01*
X28537Y706327D01*
X27291Y703320D01*
X26656Y700127D01*
Y696872D01*
X27291Y693680D01*
X28537Y690673D01*
X30345Y687967D01*
X32647Y685665D01*
X35353Y683857D01*
X38360Y682611D01*
X41553Y681976D01*
X44808D01*
X48000Y682611D01*
X51007Y683857D01*
X53713Y685665D01*
X56015Y687967D01*
X57823Y690673D01*
X59069Y693680D01*
X59704Y696872D01*
Y700127D01*
X59069Y703320D01*
X57823Y706327D01*
X56015Y709033D01*
X53713Y711335D01*
X51007Y713143D01*
X48000Y714389D01*
X44808Y715024D01*
D02*
G37*
G36*
X574694Y682244D02*
X567436D01*
Y676236D01*
X574694D01*
Y682244D01*
D02*
G37*
G36*
X565404D02*
X558146D01*
Y676236D01*
X565404D01*
Y682244D01*
D02*
G37*
G36*
X193293Y663783D02*
X177329D01*
X175548Y663429D01*
X174039Y662420D01*
X173030Y660911D01*
X172676Y659130D01*
X173030Y657349D01*
X174039Y655840D01*
X175548Y654831D01*
X177329Y654477D01*
X193293D01*
X195074Y654831D01*
X196584Y655840D01*
X197593Y657349D01*
X197947Y659130D01*
X197593Y660911D01*
X196584Y662420D01*
X195074Y663429D01*
X193293Y663783D01*
D02*
G37*
G36*
X244311Y651083D02*
X237345D01*
Y647446D01*
X248762D01*
X248610Y648211D01*
X247601Y649720D01*
X246092Y650729D01*
X244311Y651083D01*
D02*
G37*
G36*
X235313D02*
X228347D01*
X226566Y650729D01*
X225056Y649720D01*
X224047Y648211D01*
X223895Y647446D01*
X235313D01*
Y651083D01*
D02*
G37*
G36*
X90054Y640344D02*
X82296D01*
Y633586D01*
X90054D01*
Y640344D01*
D02*
G37*
G36*
X80264D02*
X72506D01*
Y633586D01*
X80264D01*
Y640344D01*
D02*
G37*
G36*
X458724Y641604D02*
X449716D01*
Y632596D01*
X458724D01*
Y641604D01*
D02*
G37*
G36*
X572154Y636524D02*
X564896D01*
Y630516D01*
X572154D01*
Y636524D01*
D02*
G37*
G36*
X562864D02*
X555606D01*
Y630516D01*
X562864D01*
Y636524D01*
D02*
G37*
G36*
X135774Y633354D02*
X128016D01*
Y626596D01*
X135774D01*
Y633354D01*
D02*
G37*
G36*
X125984D02*
X118226D01*
Y626596D01*
X125984D01*
Y633354D01*
D02*
G37*
G36*
X846942Y630824D02*
X846836D01*
Y623316D01*
X854344D01*
Y623422D01*
X853763Y625590D01*
X852641Y627534D01*
X851054Y629121D01*
X849110Y630243D01*
X846942Y630824D01*
D02*
G37*
G36*
X844804D02*
X844698D01*
X842530Y630243D01*
X840586Y629121D01*
X838999Y627534D01*
X837877Y625590D01*
X837296Y623422D01*
Y623316D01*
X844804D01*
Y630824D01*
D02*
G37*
G36*
X193293Y625683D02*
X177329D01*
X175548Y625329D01*
X174039Y624320D01*
X173030Y622811D01*
X172676Y621030D01*
X173030Y619249D01*
X174039Y617740D01*
X175548Y616731D01*
X177329Y616377D01*
X193293D01*
X195074Y616731D01*
X196584Y617740D01*
X197593Y619249D01*
X197947Y621030D01*
X197593Y622811D01*
X196584Y624320D01*
X195074Y625329D01*
X193293Y625683D01*
D02*
G37*
G36*
X854344Y621284D02*
X846836D01*
Y613776D01*
X846942D01*
X849110Y614357D01*
X851054Y615479D01*
X852641Y617066D01*
X853763Y619010D01*
X854344Y621178D01*
Y621284D01*
D02*
G37*
G36*
X719724D02*
X712216D01*
Y613776D01*
X712322D01*
X714490Y614357D01*
X716434Y615479D01*
X718021Y617066D01*
X719143Y619010D01*
X719724Y621178D01*
Y621284D01*
D02*
G37*
G36*
X710184D02*
X702676D01*
Y621178D01*
X703257Y619010D01*
X704379Y617066D01*
X705966Y615479D01*
X707910Y614357D01*
X710078Y613776D01*
X710184D01*
Y621284D01*
D02*
G37*
G36*
X756412Y637092D02*
X697884D01*
X696694Y636855D01*
X695686Y636181D01*
X689653Y630149D01*
X689490Y630243D01*
X687322Y630824D01*
X685078D01*
X682910Y630243D01*
X680966Y629121D01*
X679379Y627534D01*
X678257Y625590D01*
X677676Y623422D01*
Y621178D01*
X678257Y619010D01*
X679379Y617066D01*
X680966Y615479D01*
X682910Y614357D01*
X685078Y613776D01*
X687322D01*
X689490Y614357D01*
X691434Y615479D01*
X693021Y617066D01*
X694143Y619010D01*
X694724Y621178D01*
Y623422D01*
X694143Y625590D01*
X694048Y625754D01*
X699171Y630876D01*
X706467D01*
X706807Y629606D01*
X705966Y629121D01*
X704379Y627534D01*
X703257Y625590D01*
X702676Y623422D01*
Y623316D01*
X711200D01*
X719724D01*
Y623422D01*
X719143Y625590D01*
X718021Y627534D01*
X716434Y629121D01*
X715593Y629606D01*
X715933Y630876D01*
X755125D01*
X776312Y609688D01*
X777321Y609015D01*
X778510Y608778D01*
X834526D01*
X835940Y607364D01*
X837901Y606552D01*
X840023D01*
X841983Y607364D01*
X843484Y608865D01*
X844296Y610825D01*
Y612569D01*
X844468Y613085D01*
X844804Y613355D01*
Y621284D01*
X837296D01*
Y621178D01*
X837877Y619010D01*
X838233Y618393D01*
X837532Y617067D01*
X835940Y616408D01*
X834526Y614994D01*
X827364D01*
X826838Y616264D01*
X827641Y617066D01*
X828763Y619010D01*
X829344Y621178D01*
Y623422D01*
X828763Y625590D01*
X827641Y627534D01*
X826054Y629121D01*
X824110Y630243D01*
X821942Y630824D01*
X819698D01*
X817530Y630243D01*
X815586Y629121D01*
X813999Y627534D01*
X812877Y625590D01*
X812296Y623422D01*
Y621178D01*
X812877Y619010D01*
X813999Y617066D01*
X814801Y616264D01*
X814275Y614994D01*
X804344D01*
Y630824D01*
X787296D01*
Y614994D01*
X779797D01*
X758609Y636181D01*
X757601Y636855D01*
X756412Y637092D01*
D02*
G37*
G36*
X679450Y594420D02*
X649223D01*
X648034Y594183D01*
X647026Y593509D01*
X632803Y579286D01*
X632129Y578278D01*
X631892Y577089D01*
Y544239D01*
X625695D01*
Y527641D01*
X631461D01*
X631723Y527409D01*
X632314Y526371D01*
X632273Y526162D01*
X632147Y525613D01*
X632123Y524726D01*
X625695D01*
Y508129D01*
X644305D01*
Y522418D01*
X645922D01*
X646847Y522602D01*
X647147Y522478D01*
X649269D01*
X651229Y523290D01*
X652730Y524790D01*
X653542Y526751D01*
Y528873D01*
X652730Y530834D01*
X651229Y532334D01*
X649269Y533146D01*
X647147D01*
X645575Y532495D01*
X644305Y533112D01*
Y544239D01*
X638108D01*
Y575801D01*
X650511Y588204D01*
X653913D01*
X654165Y586934D01*
X651968Y586024D01*
X649527Y584151D01*
X647654Y581710D01*
X646477Y578868D01*
X646075Y575818D01*
Y570738D01*
X646477Y567688D01*
X647654Y564846D01*
X649527Y562405D01*
X651968Y560532D01*
X654752Y559379D01*
Y551180D01*
X654989Y549991D01*
X655663Y548983D01*
X664765Y539880D01*
Y529125D01*
X681435D01*
Y542755D01*
X670680D01*
X660968Y552467D01*
Y559379D01*
X663752Y560532D01*
X666193Y562405D01*
X668066Y564846D01*
X669243Y567688D01*
X669645Y570738D01*
Y575818D01*
X669243Y578868D01*
X668066Y581710D01*
X666193Y584151D01*
X663752Y586024D01*
X661555Y586934D01*
X661807Y588204D01*
X677587D01*
X678078Y587631D01*
X677744Y586180D01*
X677368Y586024D01*
X674927Y584151D01*
X673054Y581710D01*
X671877Y578868D01*
X671475Y575818D01*
Y570738D01*
X671877Y567688D01*
X673054Y564846D01*
X674927Y562405D01*
X677368Y560532D01*
X680210Y559355D01*
X683260Y558953D01*
X686310Y559355D01*
X689152Y560532D01*
X691593Y562405D01*
X693466Y564846D01*
X694643Y567688D01*
X695045Y570738D01*
Y575818D01*
X694643Y578868D01*
X693466Y581710D01*
X691593Y584151D01*
X689152Y586024D01*
X686368Y587177D01*
Y587502D01*
X686131Y588691D01*
X685458Y589700D01*
X681647Y593509D01*
X680639Y594183D01*
X679450Y594420D01*
D02*
G37*
G36*
X117348Y592134D02*
X66675D01*
X65486Y591897D01*
X64478Y591223D01*
X61302Y588049D01*
X60629Y587040D01*
X60392Y585851D01*
Y544239D01*
X54195D01*
Y527641D01*
X72805D01*
Y544239D01*
X66608D01*
Y584564D01*
X67962Y585918D01*
X84196D01*
X84605Y584716D01*
X83869Y584151D01*
X81996Y581710D01*
X80819Y578868D01*
X80417Y575818D01*
Y570738D01*
X80819Y567688D01*
X81996Y564846D01*
X83869Y562405D01*
X86310Y560532D01*
X89094Y559379D01*
Y542798D01*
X89331Y541609D01*
X90005Y540601D01*
X93265Y537340D01*
Y527364D01*
X77978D01*
X76789Y527127D01*
X75781Y526454D01*
X73687Y524360D01*
X72805Y524726D01*
Y524726D01*
X54195D01*
Y519535D01*
X47625D01*
X46436Y519298D01*
X45427Y518625D01*
X41237Y514434D01*
X40563Y513425D01*
X40326Y512236D01*
Y371094D01*
X40563Y369905D01*
X41237Y368896D01*
X59016Y351116D01*
X60025Y350443D01*
X61214Y350206D01*
X193742D01*
Y339504D01*
X193139Y339101D01*
X192693Y338433D01*
X192537Y337645D01*
Y326135D01*
X192693Y325347D01*
X193139Y324679D01*
X193807Y324233D01*
X194595Y324077D01*
X199105D01*
X199893Y324233D01*
X200561Y324679D01*
X201007Y325347D01*
X201164Y326135D01*
Y337645D01*
X201007Y338433D01*
X200561Y339101D01*
X199958Y339504D01*
Y353060D01*
X199721Y354249D01*
X199048Y355257D01*
X198794Y355512D01*
X197785Y356185D01*
X196596Y356422D01*
X62501D01*
X46542Y372381D01*
Y389110D01*
X47715Y389596D01*
X54953Y382359D01*
X55961Y381685D01*
X57150Y381448D01*
X179837D01*
Y378635D01*
X179993Y377847D01*
X180439Y377179D01*
X181107Y376733D01*
X181895Y376576D01*
X186405D01*
X187193Y376733D01*
X187861Y377179D01*
X188307Y377847D01*
X188463Y378635D01*
Y390145D01*
X188307Y390933D01*
X187861Y391600D01*
X187849Y391608D01*
X188234Y392878D01*
X192283D01*
X193172Y391933D01*
X193139Y391600D01*
X192693Y390933D01*
X192537Y390145D01*
Y378635D01*
X192693Y377847D01*
X193139Y377179D01*
X193807Y376733D01*
X194595Y376576D01*
X199105D01*
X200092Y375478D01*
Y363433D01*
X200329Y362244D01*
X201003Y361236D01*
X204177Y358061D01*
X205186Y357387D01*
X206375Y357151D01*
X214843D01*
X216033Y357387D01*
X217041Y358061D01*
X218351Y359371D01*
X219025Y360380D01*
X219262Y361569D01*
Y375975D01*
X219995Y376576D01*
X224505D01*
X225293Y376733D01*
X225961Y377179D01*
X226407Y377847D01*
X226563Y378635D01*
Y390145D01*
X226407Y390933D01*
X225961Y391600D01*
X225358Y392003D01*
Y394699D01*
X228169Y397510D01*
X230169D01*
X232129Y398322D01*
X233630Y399823D01*
X234442Y401783D01*
Y403905D01*
X233630Y405866D01*
X232129Y407366D01*
X230169Y408178D01*
X228047D01*
X226087Y407366D01*
X224586Y405866D01*
X223774Y403905D01*
Y401905D01*
X220532Y398663D01*
X219262Y399189D01*
Y449305D01*
X227745D01*
Y465902D01*
X210626D01*
Y468818D01*
X227745D01*
Y485415D01*
X209135D01*
Y480224D01*
X207772D01*
X206583Y479988D01*
X205574Y479314D01*
X205320Y479060D01*
X204647Y478052D01*
X204410Y476863D01*
Y440436D01*
X204647Y439247D01*
X205320Y438238D01*
X206442Y437117D01*
Y426638D01*
X205185Y426468D01*
X204008Y429310D01*
X202135Y431751D01*
X199694Y433624D01*
X196910Y434777D01*
Y454138D01*
X196673Y455328D01*
X196000Y456336D01*
X192698Y459638D01*
X191689Y460311D01*
X190500Y460548D01*
X188675D01*
Y464255D01*
X172005D01*
Y450626D01*
X188675D01*
Y452909D01*
X189809Y453401D01*
X190694Y452691D01*
Y434777D01*
X187910Y433624D01*
X185469Y431751D01*
X183596Y429310D01*
X182419Y426468D01*
X182017Y423418D01*
Y418338D01*
X182419Y415288D01*
X183596Y412446D01*
X185469Y410005D01*
X187910Y408132D01*
X190752Y406955D01*
X193802Y406553D01*
X196852Y406955D01*
X199694Y408132D01*
X202135Y410005D01*
X204008Y412446D01*
X205185Y415288D01*
X206442Y415118D01*
Y400294D01*
X206050Y400026D01*
X205172Y399806D01*
X202222Y402756D01*
X201214Y403429D01*
X200025Y403666D01*
X175531D01*
X172819Y406378D01*
X173067Y407623D01*
X174294Y408132D01*
X176735Y410005D01*
X178608Y412446D01*
X179785Y415288D01*
X180187Y418338D01*
Y423418D01*
X179785Y426468D01*
X178608Y429310D01*
X176735Y431751D01*
X174294Y433624D01*
X171452Y434801D01*
X168402Y435203D01*
X165352Y434801D01*
X162510Y433624D01*
X160069Y431751D01*
X158196Y429310D01*
X157019Y426468D01*
X156617Y423418D01*
Y418338D01*
X157019Y415288D01*
X158196Y412446D01*
X160069Y410005D01*
X162510Y408132D01*
X165294Y406979D01*
Y406400D01*
X165531Y405211D01*
X166204Y404202D01*
X170140Y400267D01*
X169654Y399094D01*
X70502D01*
X55779Y413817D01*
Y447169D01*
X72805D01*
Y452360D01*
X87613D01*
X89094Y450878D01*
Y435102D01*
X80518D01*
Y406654D01*
X103886D01*
Y435102D01*
X95310D01*
Y452165D01*
X95073Y453354D01*
X94399Y454363D01*
X91097Y457665D01*
X90089Y458338D01*
X88900Y458575D01*
X72805D01*
Y463766D01*
X63071D01*
X62189Y465036D01*
X62290Y465544D01*
Y466682D01*
X72805D01*
Y483279D01*
X58930D01*
X58444Y484452D01*
X76620Y502627D01*
X77293Y503636D01*
X77530Y504825D01*
Y519413D01*
X79265Y521148D01*
X93265D01*
Y516876D01*
X101600D01*
X109935D01*
Y521148D01*
X123427D01*
X130345Y514230D01*
X131354Y513556D01*
X132543Y513320D01*
X132935D01*
Y508129D01*
X151545D01*
Y524726D01*
X132935D01*
Y522089D01*
X131762Y521603D01*
X126911Y526454D01*
X125903Y527127D01*
X124714Y527364D01*
X109935D01*
Y540215D01*
X99180D01*
X95310Y544085D01*
Y559379D01*
X98094Y560532D01*
X100535Y562405D01*
X102408Y564846D01*
X103585Y567688D01*
X103987Y570738D01*
Y575818D01*
X103585Y578868D01*
X102408Y581710D01*
X100535Y584151D01*
X99799Y584716D01*
X100208Y585918D01*
X109596D01*
X110005Y584716D01*
X109269Y584151D01*
X107396Y581710D01*
X106219Y578868D01*
X105817Y575818D01*
Y570738D01*
X106219Y567688D01*
X107396Y564846D01*
X109269Y562405D01*
X111710Y560532D01*
X114552Y559355D01*
X117602Y558953D01*
X120652Y559355D01*
X123494Y560532D01*
X125935Y562405D01*
X127808Y564846D01*
X128985Y567688D01*
X129387Y570738D01*
Y575818D01*
X128985Y578868D01*
X127808Y581710D01*
X125935Y584151D01*
X123494Y586024D01*
X120710Y587177D01*
Y588772D01*
X120473Y589961D01*
X119799Y590970D01*
X119545Y591223D01*
X118537Y591897D01*
X117348Y592134D01*
D02*
G37*
G36*
X1041400Y587603D02*
X1038350Y587201D01*
X1035508Y586024D01*
X1033067Y584151D01*
X1031194Y581710D01*
X1030017Y578868D01*
X1029615Y575818D01*
Y570738D01*
X1030017Y567688D01*
X1031194Y564846D01*
X1033067Y562405D01*
X1035508Y560532D01*
X1038350Y559355D01*
X1041135Y558988D01*
X1047398Y552725D01*
X1046872Y551455D01*
X1042255D01*
Y534858D01*
X1060865D01*
Y551455D01*
X1054668D01*
Y552958D01*
X1054431Y554147D01*
X1053757Y555155D01*
X1048589Y560324D01*
X1048672Y561591D01*
X1049733Y562405D01*
X1051606Y564846D01*
X1052783Y567688D01*
X1053185Y570738D01*
Y575818D01*
X1052783Y578868D01*
X1051606Y581710D01*
X1049733Y584151D01*
X1047292Y586024D01*
X1044450Y587201D01*
X1041400Y587603D01*
D02*
G37*
G36*
X1016000D02*
X1012950Y587201D01*
X1010108Y586024D01*
X1007667Y584151D01*
X1005794Y581710D01*
X1004617Y578868D01*
X1004215Y575818D01*
Y570738D01*
X1004617Y567688D01*
X1005794Y564846D01*
X1007667Y562405D01*
X1010108Y560532D01*
X1012892Y559379D01*
Y551455D01*
X1006695D01*
Y534858D01*
X1025305D01*
Y551455D01*
X1019108D01*
Y559379D01*
X1021892Y560532D01*
X1024333Y562405D01*
X1026206Y564846D01*
X1027383Y567688D01*
X1027785Y570738D01*
Y575818D01*
X1027383Y578868D01*
X1026206Y581710D01*
X1024333Y584151D01*
X1021892Y586024D01*
X1019050Y587201D01*
X1016000Y587603D01*
D02*
G37*
G36*
X990600D02*
X987550Y587201D01*
X984708Y586024D01*
X982267Y584151D01*
X980394Y581710D01*
X979217Y578868D01*
X978815Y575818D01*
Y570738D01*
X979217Y567688D01*
X980394Y564846D01*
X982267Y562405D01*
X983938Y561123D01*
X984093Y559482D01*
X980782Y556171D01*
X980109Y555163D01*
X979872Y553974D01*
Y551051D01*
X973675D01*
Y534454D01*
X992285D01*
Y551051D01*
X986088D01*
Y552687D01*
X992620Y559219D01*
X993650Y559355D01*
X996492Y560532D01*
X998933Y562405D01*
X1000806Y564846D01*
X1001983Y567688D01*
X1002385Y570738D01*
Y575818D01*
X1001983Y578868D01*
X1000806Y581710D01*
X998933Y584151D01*
X996492Y586024D01*
X993650Y587201D01*
X990600Y587603D01*
D02*
G37*
G36*
X424942D02*
X421892Y587201D01*
X419050Y586024D01*
X416609Y584151D01*
X414736Y581710D01*
X413559Y578868D01*
X413157Y575818D01*
Y570738D01*
X413559Y567688D01*
X414736Y564846D01*
X416609Y562405D01*
X419050Y560532D01*
X419379Y560396D01*
X419627Y559150D01*
X416903Y556426D01*
X416229Y555417D01*
X415992Y554228D01*
Y543835D01*
X409795D01*
Y531360D01*
X408622Y530874D01*
X406844Y532651D01*
Y534651D01*
X406032Y536612D01*
X404532Y538112D01*
X402571Y538924D01*
X400449D01*
X398489Y538112D01*
X396989Y536612D01*
X396176Y534651D01*
Y532529D01*
X396989Y530569D01*
X398489Y529069D01*
X400449Y528256D01*
X402449D01*
X407378Y523329D01*
X408386Y522655D01*
X409575Y522418D01*
X409795D01*
Y516660D01*
X408834Y516264D01*
X408525Y516239D01*
X399580Y525183D01*
X398572Y525857D01*
X397383Y526094D01*
X394415D01*
Y538825D01*
X377745D01*
X377250Y539889D01*
Y559379D01*
X380034Y560532D01*
X382475Y562405D01*
X384348Y564846D01*
X385525Y567688D01*
X385927Y570738D01*
Y575818D01*
X385525Y578868D01*
X384348Y581710D01*
X382475Y584151D01*
X380034Y586024D01*
X377192Y587201D01*
X374142Y587603D01*
X371092Y587201D01*
X368250Y586024D01*
X365809Y584151D01*
X363936Y581710D01*
X362759Y578868D01*
X362357Y575818D01*
Y570738D01*
X362759Y567688D01*
X363936Y564846D01*
X365809Y562405D01*
X368250Y560532D01*
X371034Y559379D01*
Y535693D01*
X371271Y534504D01*
X371945Y533496D01*
X375628Y529813D01*
X376636Y529139D01*
X377745Y528918D01*
Y526053D01*
X376763Y525857D01*
X375755Y525183D01*
X366314Y515743D01*
X365641Y514735D01*
X365404Y513546D01*
Y510388D01*
X363838Y508822D01*
X357285D01*
Y524322D01*
X338675D01*
Y519131D01*
X332096D01*
X330681Y520545D01*
X328721Y521357D01*
X326599D01*
X324638Y520545D01*
X323138Y519045D01*
X322326Y517084D01*
Y514962D01*
X323138Y513002D01*
X324638Y511501D01*
X326599Y510689D01*
X328721D01*
X330681Y511501D01*
X332096Y512916D01*
X338675D01*
Y508822D01*
X313690D01*
X312501Y508585D01*
X311493Y507911D01*
X304545Y500964D01*
X303871Y499956D01*
X303635Y498767D01*
Y381089D01*
X303871Y379900D01*
X304545Y378892D01*
X307174Y376263D01*
X308183Y375589D01*
X309372Y375352D01*
X378206D01*
X379395Y375589D01*
X380404Y376263D01*
X380658Y376516D01*
X381331Y377525D01*
X381424Y377992D01*
X382794Y378367D01*
X385914Y375247D01*
X386923Y374573D01*
X388112Y374336D01*
X393954D01*
X395143Y374573D01*
X396152Y375247D01*
X399707Y378802D01*
X399954Y379172D01*
X400554Y379833D01*
X401605Y379966D01*
X402844D01*
Y387780D01*
X403860D01*
Y388796D01*
X408173D01*
Y393535D01*
X409296Y394402D01*
X506984D01*
X508173Y394639D01*
X509182Y395312D01*
X513499Y399631D01*
X514173Y400639D01*
X514410Y401828D01*
Y502158D01*
X514173Y503347D01*
X513499Y504356D01*
X511303Y506552D01*
X511790Y507725D01*
X514765D01*
Y524322D01*
X496155D01*
Y507725D01*
X502407D01*
X502589Y506811D01*
X503262Y505802D01*
X508194Y500871D01*
Y487955D01*
X504362D01*
X503850Y489225D01*
X504579Y489954D01*
X505333Y491775D01*
Y493745D01*
X504579Y495566D01*
X503186Y496959D01*
X501365Y497713D01*
X499395D01*
X497574Y496959D01*
X496181Y495566D01*
X495427Y493745D01*
Y491775D01*
X496181Y489954D01*
X496910Y489225D01*
X496398Y487955D01*
X491075D01*
Y471358D01*
X508194D01*
Y468442D01*
X491075D01*
Y451845D01*
X497272D01*
Y410862D01*
X494648Y408238D01*
X483748D01*
X483339Y409440D01*
X484075Y410005D01*
X485948Y412446D01*
X487125Y415288D01*
X487527Y418338D01*
Y423418D01*
X487125Y426468D01*
X485948Y429310D01*
X484075Y431751D01*
X481634Y433624D01*
X478850Y434777D01*
Y459486D01*
X478613Y460675D01*
X477939Y461684D01*
X477686Y461937D01*
X476677Y462611D01*
X475488Y462848D01*
X473155D01*
Y466555D01*
X456485D01*
Y452925D01*
X472634D01*
Y434777D01*
X469850Y433624D01*
X467409Y431751D01*
X465536Y429310D01*
X464359Y426468D01*
X463957Y423418D01*
Y418338D01*
X464359Y415288D01*
X465536Y412446D01*
X467409Y410005D01*
X468145Y409440D01*
X467736Y408238D01*
X458348D01*
X457939Y409440D01*
X458675Y410005D01*
X460548Y412446D01*
X461725Y415288D01*
X462127Y418338D01*
Y423418D01*
X461725Y426468D01*
X460548Y429310D01*
X458675Y431751D01*
X456234Y433624D01*
X453392Y434801D01*
X450342Y435203D01*
X447292Y434801D01*
X444450Y433624D01*
X442009Y431751D01*
X440136Y429310D01*
X438959Y426468D01*
X438557Y423418D01*
Y418338D01*
X438959Y415288D01*
X440136Y412446D01*
X442009Y410005D01*
X444450Y408132D01*
X447234Y406979D01*
Y405384D01*
X447471Y404195D01*
X448144Y403186D01*
X448399Y402933D01*
X449407Y402259D01*
X450596Y402022D01*
X495935D01*
X497124Y402259D01*
X498133Y402933D01*
X502578Y407378D01*
X503251Y408386D01*
X503488Y409575D01*
Y451845D01*
X508194D01*
Y403115D01*
X505697Y400618D01*
X397764D01*
X396575Y400381D01*
X395566Y399707D01*
X395312Y399454D01*
X395285Y399413D01*
X394893Y399348D01*
X393826Y399515D01*
X393358Y400215D01*
X389548Y404025D01*
X388539Y404699D01*
X387350Y404936D01*
X366982D01*
X366644Y405384D01*
X367277Y406654D01*
X385826D01*
Y435102D01*
X377250D01*
Y459947D01*
X377013Y461137D01*
X376339Y462145D01*
X372618Y465866D01*
Y467866D01*
X371806Y469827D01*
X370305Y471327D01*
X368886Y471915D01*
X368488Y473313D01*
X372127Y476952D01*
X389475D01*
Y471762D01*
X408085D01*
Y486858D01*
X415527D01*
X422495Y479890D01*
Y470954D01*
X441105D01*
Y485615D01*
X441915Y486156D01*
X441960D01*
Y490474D01*
X437642D01*
Y490429D01*
X438308Y488821D01*
X437712Y487551D01*
X423624D01*
X419011Y492164D01*
X418003Y492837D01*
X416814Y493074D01*
X387924D01*
X387278Y492945D01*
X386332Y493979D01*
X386334Y493985D01*
Y496107D01*
X385522Y498068D01*
X384021Y499568D01*
X382061Y500380D01*
X379939D01*
X377979Y499568D01*
X376564Y498154D01*
X320675D01*
X319486Y497917D01*
X318477Y497243D01*
X312763Y491529D01*
X312089Y490520D01*
X311852Y489331D01*
Y395714D01*
X311103Y395140D01*
X309850Y395622D01*
Y497479D01*
X314977Y502606D01*
X365125D01*
X366314Y502843D01*
X367323Y503517D01*
X370709Y506903D01*
X371383Y507912D01*
X371620Y509101D01*
Y512259D01*
X376572Y517211D01*
X377745Y516725D01*
Y515486D01*
X386080D01*
X394415D01*
Y519878D01*
X396096D01*
X403292Y512682D01*
Y507619D01*
X403529Y506430D01*
X404202Y505421D01*
X407378Y502247D01*
X408386Y501573D01*
X409575Y501336D01*
X448564D01*
X449753Y501573D01*
X450761Y502247D01*
X454318Y505802D01*
X454991Y506811D01*
X455093Y507322D01*
X461425D01*
Y523918D01*
X442815D01*
Y507552D01*
X429603D01*
X428405Y507725D01*
Y524322D01*
X421987D01*
X421953Y525609D01*
X421871Y525968D01*
X422131Y526504D01*
X422757Y527213D01*
X422809Y527238D01*
X428405D01*
Y543835D01*
X422208D01*
Y552941D01*
X427140Y557873D01*
X427813Y558881D01*
X427905Y559343D01*
X427992Y559355D01*
X430834Y560532D01*
X433275Y562405D01*
X435148Y564846D01*
X436325Y567688D01*
X436727Y570738D01*
Y575818D01*
X436325Y578868D01*
X435148Y581710D01*
X433275Y584151D01*
X430834Y586024D01*
X427992Y587201D01*
X424942Y587603D01*
D02*
G37*
G36*
X759460D02*
X756410Y587201D01*
X753568Y586024D01*
X751127Y584151D01*
X749254Y581710D01*
X748077Y578868D01*
X747675Y575818D01*
Y570738D01*
X748077Y567688D01*
X749254Y564846D01*
X751127Y562405D01*
X753568Y560532D01*
X756352Y559379D01*
Y542925D01*
X756589Y541736D01*
X757262Y540728D01*
X762111Y535879D01*
X763119Y535205D01*
X764308Y534969D01*
X765395D01*
Y529778D01*
X784005D01*
Y546375D01*
X765395D01*
Y543044D01*
X764222Y542558D01*
X762568Y544212D01*
Y559379D01*
X765352Y560532D01*
X767793Y562405D01*
X769666Y564846D01*
X770843Y567688D01*
X771245Y570738D01*
Y575818D01*
X770843Y578868D01*
X769666Y581710D01*
X767793Y584151D01*
X765352Y586024D01*
X762510Y587201D01*
X759460Y587603D01*
D02*
G37*
G36*
X734060D02*
X731010Y587201D01*
X728168Y586024D01*
X725727Y584151D01*
X723854Y581710D01*
X722677Y578868D01*
X722275Y575818D01*
Y570738D01*
X722677Y567688D01*
X723854Y564846D01*
X725727Y562405D01*
X728168Y560532D01*
X731010Y559355D01*
X731231Y559326D01*
X731862Y558381D01*
X741112Y549131D01*
Y546375D01*
X734915D01*
Y529778D01*
X753525D01*
Y546375D01*
X747328D01*
Y550418D01*
X747091Y551607D01*
X746417Y552616D01*
X739724Y559309D01*
X740147Y560682D01*
X742393Y562405D01*
X744266Y564846D01*
X745443Y567688D01*
X745845Y570738D01*
Y575818D01*
X745443Y578868D01*
X744266Y581710D01*
X742393Y584151D01*
X739952Y586024D01*
X737110Y587201D01*
X734060Y587603D01*
D02*
G37*
G36*
X708660D02*
X705610Y587201D01*
X702768Y586024D01*
X700327Y584151D01*
X698454Y581710D01*
X697277Y578868D01*
X696875Y575818D01*
Y570738D01*
X697277Y567688D01*
X698454Y564846D01*
X700327Y562405D01*
X702768Y560532D01*
X705552Y559379D01*
Y556514D01*
X705789Y555325D01*
X706462Y554316D01*
X708092Y552687D01*
Y545971D01*
X701895D01*
Y529374D01*
X720505D01*
Y545971D01*
X714308D01*
Y553974D01*
X714071Y555163D01*
X713398Y556171D01*
X711768Y557801D01*
Y559379D01*
X714552Y560532D01*
X716993Y562405D01*
X718866Y564846D01*
X720043Y567688D01*
X720445Y570738D01*
Y575818D01*
X720043Y578868D01*
X718866Y581710D01*
X716993Y584151D01*
X714552Y586024D01*
X711710Y587201D01*
X708660Y587603D01*
D02*
G37*
G36*
X143002D02*
X139952Y587201D01*
X137110Y586024D01*
X134669Y584151D01*
X132796Y581710D01*
X131619Y578868D01*
X131217Y575818D01*
Y570738D01*
X131619Y567688D01*
X132796Y564846D01*
X134669Y562405D01*
X137110Y560532D01*
X139894Y559379D01*
Y556204D01*
X139369Y555417D01*
X139132Y554228D01*
Y544239D01*
X132935D01*
Y527641D01*
X151545D01*
Y544239D01*
X145348D01*
Y553014D01*
X145873Y553801D01*
X146110Y554990D01*
Y559379D01*
X148894Y560532D01*
X151335Y562405D01*
X153208Y564846D01*
X154385Y567688D01*
X154787Y570738D01*
Y575818D01*
X154385Y578868D01*
X153208Y581710D01*
X151335Y584151D01*
X148894Y586024D01*
X146052Y587201D01*
X143002Y587603D01*
D02*
G37*
G36*
X475742D02*
X472692Y587201D01*
X469850Y586024D01*
X467409Y584151D01*
X465536Y581710D01*
X464359Y578868D01*
X463957Y575818D01*
Y570738D01*
X464359Y567688D01*
X465536Y564846D01*
X467409Y562405D01*
X469850Y560532D01*
X472634Y559379D01*
Y539220D01*
X472871Y538030D01*
X473545Y537022D01*
X477228Y533339D01*
X478236Y532665D01*
X479425Y532429D01*
X496155D01*
Y527238D01*
X514765D01*
Y543835D01*
X496155D01*
Y538644D01*
X480712D01*
X478850Y540507D01*
Y559379D01*
X481634Y560532D01*
X484075Y562405D01*
X485948Y564846D01*
X487125Y567688D01*
X487527Y570738D01*
Y575818D01*
X487125Y578868D01*
X485948Y581710D01*
X484075Y584151D01*
X481634Y586024D01*
X478792Y587201D01*
X475742Y587603D01*
D02*
G37*
G36*
X193802D02*
X190752Y587201D01*
X187910Y586024D01*
X185469Y584151D01*
X183596Y581710D01*
X182419Y578868D01*
X182017Y575818D01*
Y570738D01*
X182419Y567688D01*
X183596Y564846D01*
X185469Y562405D01*
X187910Y560532D01*
X190694Y559379D01*
Y539750D01*
X190931Y538561D01*
X191604Y537552D01*
X195818Y533339D01*
X196826Y532665D01*
X198015Y532429D01*
X209135D01*
Y527238D01*
X227745D01*
Y543835D01*
X209135D01*
Y538644D01*
X199303D01*
X196910Y541037D01*
Y559379D01*
X199694Y560532D01*
X202135Y562405D01*
X204008Y564846D01*
X205185Y567688D01*
X205587Y570738D01*
Y575818D01*
X205185Y578868D01*
X204008Y581710D01*
X202135Y584151D01*
X199694Y586024D01*
X196852Y587201D01*
X193802Y587603D01*
D02*
G37*
G36*
X168402D02*
X165352Y587201D01*
X162510Y586024D01*
X160069Y584151D01*
X158196Y581710D01*
X157019Y578868D01*
X156617Y575818D01*
Y570738D01*
X157019Y567688D01*
X158196Y564846D01*
X160069Y562405D01*
X162510Y560532D01*
X165294Y559379D01*
Y535791D01*
X165531Y534601D01*
X166204Y533593D01*
X166458Y533339D01*
X167467Y532665D01*
X168495Y532461D01*
Y527238D01*
X187105D01*
Y543835D01*
X171510D01*
Y559379D01*
X174294Y560532D01*
X176735Y562405D01*
X178608Y564846D01*
X179785Y567688D01*
X180187Y570738D01*
Y575818D01*
X179785Y578868D01*
X178608Y581710D01*
X176735Y584151D01*
X174294Y586024D01*
X171452Y587201D01*
X168402Y587603D01*
D02*
G37*
G36*
X450342D02*
X447292Y587201D01*
X444450Y586024D01*
X442009Y584151D01*
X440136Y581710D01*
X438959Y578868D01*
X438557Y575818D01*
Y570738D01*
X438959Y567688D01*
X440136Y564846D01*
X442009Y562405D01*
X444450Y560532D01*
X447234Y559379D01*
Y556006D01*
X447471Y554817D01*
X448144Y553809D01*
X449012Y552941D01*
Y543431D01*
X442815D01*
Y526834D01*
X461425D01*
Y543431D01*
X455228D01*
Y554228D01*
X454991Y555417D01*
X454318Y556426D01*
X453450Y557293D01*
Y559379D01*
X456234Y560532D01*
X458675Y562405D01*
X460548Y564846D01*
X461725Y567688D01*
X462127Y570738D01*
Y575818D01*
X461725Y578868D01*
X460548Y581710D01*
X458675Y584151D01*
X456234Y586024D01*
X453392Y587201D01*
X450342Y587603D01*
D02*
G37*
G36*
X681435Y525215D02*
X674116D01*
Y519416D01*
X681435D01*
Y525215D01*
D02*
G37*
G36*
X672084D02*
X664765D01*
Y519416D01*
X672084D01*
Y525215D01*
D02*
G37*
G36*
X916085Y523918D02*
X897475D01*
Y518728D01*
X860924D01*
X859510Y520142D01*
X857549Y520954D01*
X855427D01*
X853466Y520142D01*
X851966Y518642D01*
X851154Y516681D01*
Y514559D01*
X851966Y512598D01*
X853466Y511098D01*
X855427Y510286D01*
X857549D01*
X859510Y511098D01*
X860924Y512512D01*
X897475D01*
Y507322D01*
X916085D01*
Y523918D01*
D02*
G37*
G36*
X960835Y522224D02*
X953516D01*
Y516425D01*
X960835D01*
Y522224D01*
D02*
G37*
G36*
X951484D02*
X944165D01*
Y516425D01*
X951484D01*
Y522224D01*
D02*
G37*
G36*
X672084Y517384D02*
X664765D01*
Y511586D01*
X672084D01*
Y517384D01*
D02*
G37*
G36*
X784005Y526862D02*
X765395D01*
Y510265D01*
X784005D01*
Y515456D01*
X795638D01*
X797754Y513339D01*
Y482875D01*
X793048D01*
Y493522D01*
X792811Y494711D01*
X792138Y495719D01*
X791883Y495974D01*
X790875Y496647D01*
X789686Y496884D01*
X774539D01*
X773350Y496647D01*
X772342Y495974D01*
X766648Y490280D01*
X670324D01*
X669838Y491453D01*
X693437Y515052D01*
X701895D01*
Y509861D01*
X720505D01*
Y526459D01*
X701895D01*
Y521268D01*
X692150D01*
X690961Y521031D01*
X689952Y520358D01*
X682608Y513013D01*
X681435Y513499D01*
Y517384D01*
X674116D01*
Y511586D01*
X679521D01*
X680007Y510412D01*
X664447Y494852D01*
X596138D01*
X594949Y494615D01*
X593941Y493941D01*
X588353Y488354D01*
X587679Y487345D01*
X587442Y486156D01*
Y394543D01*
X586839Y394141D01*
X586393Y393473D01*
X586236Y392685D01*
Y381175D01*
X586393Y380387D01*
X586839Y379719D01*
X587507Y379273D01*
X588295Y379116D01*
X592805D01*
X593593Y379273D01*
X594261Y379719D01*
X594707Y380387D01*
X594864Y381175D01*
Y392685D01*
X594707Y393473D01*
X594261Y394141D01*
X593658Y394543D01*
Y484869D01*
X597425Y488636D01*
X643618D01*
X644104Y487463D01*
X637955Y481314D01*
X636685Y481840D01*
Y485011D01*
X618075D01*
Y479821D01*
X610571D01*
X609381Y479584D01*
X608373Y478910D01*
X601053Y471590D01*
X600379Y470581D01*
X600142Y469392D01*
Y394543D01*
X599539Y394141D01*
X599093Y393473D01*
X598937Y392685D01*
Y381175D01*
X599093Y380387D01*
X599539Y379719D01*
X600207Y379273D01*
X600995Y379116D01*
X605505D01*
X606293Y379273D01*
X606961Y379719D01*
X607407Y380387D01*
X607564Y381175D01*
Y392685D01*
X607407Y393473D01*
X606961Y394141D01*
X606358Y394543D01*
Y468105D01*
X611858Y473605D01*
X618075D01*
Y468414D01*
X635956D01*
Y465499D01*
X618075D01*
Y448901D01*
X624272D01*
Y436490D01*
X622858Y435075D01*
X622046Y433115D01*
Y430993D01*
X622858Y429033D01*
X624358Y427532D01*
X626319Y426720D01*
X627031D01*
X627557Y425450D01*
X613753Y411646D01*
X613079Y410637D01*
X612842Y409448D01*
Y394543D01*
X612239Y394141D01*
X611793Y393473D01*
X611637Y392685D01*
Y381175D01*
X611793Y380387D01*
X612239Y379719D01*
X612907Y379273D01*
X613695Y379116D01*
X618205D01*
X618993Y379273D01*
X619661Y379719D01*
X620107Y380387D01*
X620263Y381175D01*
Y392685D01*
X620107Y393473D01*
X619661Y394141D01*
X619058Y394543D01*
Y408161D01*
X640274Y429377D01*
X641544Y428851D01*
Y406916D01*
X641781Y405726D01*
X642455Y404718D01*
X644042Y403131D01*
X643322Y402054D01*
X642335Y402463D01*
X640365D01*
X638544Y401709D01*
X637151Y400316D01*
X636397Y398495D01*
Y396525D01*
X637151Y394704D01*
X637646Y394209D01*
X637639Y394141D01*
X637193Y393473D01*
X637037Y392685D01*
Y381175D01*
X637193Y380387D01*
X637639Y379719D01*
X638307Y379273D01*
X639095Y379116D01*
X643605D01*
X644393Y379273D01*
X645061Y379719D01*
X645507Y380387D01*
X645664Y381175D01*
Y392685D01*
X645507Y393473D01*
X645061Y394141D01*
X645054Y394209D01*
X645549Y394704D01*
X646303Y396525D01*
Y398495D01*
X645894Y399482D01*
X646971Y400202D01*
X647036Y400136D01*
X647743Y399664D01*
X650942Y396465D01*
Y394543D01*
X650339Y394141D01*
X649893Y393473D01*
X649736Y392685D01*
Y381175D01*
X649893Y380387D01*
X650339Y379719D01*
X651007Y379273D01*
X651795Y379116D01*
X656305D01*
X657093Y379273D01*
X657761Y379719D01*
X658207Y380387D01*
X658363Y381175D01*
Y392685D01*
X658207Y393473D01*
X657761Y394141D01*
X657158Y394543D01*
Y397752D01*
X656921Y398941D01*
X656247Y399949D01*
X651666Y404531D01*
X650959Y405003D01*
X650482Y405481D01*
X650968Y406654D01*
X668229D01*
Y402652D01*
X666058Y400480D01*
X665561Y400381D01*
X664553Y399707D01*
X663879Y398699D01*
X663642Y397510D01*
Y394543D01*
X663039Y394141D01*
X662593Y393473D01*
X662437Y392685D01*
Y381175D01*
X662593Y380387D01*
X663039Y379719D01*
X663707Y379273D01*
X664495Y379116D01*
X669005D01*
X669793Y379273D01*
X670461Y379719D01*
X670907Y380387D01*
X671064Y381175D01*
Y392685D01*
X670907Y393473D01*
X670461Y394141D01*
X669858Y394543D01*
Y396955D01*
X672391Y399489D01*
X672953Y400329D01*
X673150Y401320D01*
X672953Y402311D01*
X672891Y402404D01*
Y410572D01*
X674161Y411003D01*
X674927Y410005D01*
X677368Y408132D01*
X680210Y406955D01*
X683260Y406553D01*
X686310Y406955D01*
X689152Y408132D01*
X691593Y410005D01*
X693466Y412446D01*
X694643Y415288D01*
X695045Y418338D01*
Y423418D01*
X694643Y426468D01*
X693466Y429310D01*
X691593Y431751D01*
X689152Y433624D01*
X686368Y434777D01*
Y454025D01*
X686131Y455214D01*
X685458Y456222D01*
X681879Y459801D01*
X680871Y460475D01*
X679682Y460711D01*
X677325D01*
Y465902D01*
X661990D01*
X661464Y467172D01*
X663110Y468818D01*
X677325D01*
Y484064D01*
X700950D01*
X701895Y483279D01*
X701895Y482794D01*
Y478088D01*
X695706D01*
X694517Y477851D01*
X693509Y477178D01*
X690549Y474218D01*
X688549D01*
X686589Y473406D01*
X685088Y471906D01*
X684276Y469945D01*
Y467823D01*
X685088Y465863D01*
X686589Y464362D01*
X688549Y463550D01*
X690671D01*
X692632Y464362D01*
X694132Y465863D01*
X694944Y467823D01*
Y469823D01*
X696993Y471872D01*
X701895D01*
Y466682D01*
X720505D01*
Y482794D01*
X720505Y483279D01*
X721450Y484064D01*
X767935D01*
X769124Y484301D01*
X770132Y484975D01*
X775826Y490668D01*
X777629D01*
X778336Y489398D01*
X777748Y487979D01*
Y487934D01*
X783082D01*
Y485902D01*
X777748D01*
Y485857D01*
X778560Y483896D01*
X780061Y482396D01*
X780635Y482158D01*
Y466278D01*
X797754D01*
Y463362D01*
X780635D01*
Y458171D01*
X769129D01*
X763077Y464224D01*
X762069Y464897D01*
X760879Y465134D01*
X757635D01*
Y470034D01*
X749300D01*
X740965D01*
Y465134D01*
X738886D01*
X737697Y464897D01*
X736689Y464224D01*
X731862Y459398D01*
X731189Y458389D01*
X730952Y457200D01*
Y434777D01*
X728168Y433624D01*
X725727Y431751D01*
X723854Y429310D01*
X722677Y426468D01*
X722275Y423418D01*
Y418338D01*
X722677Y415288D01*
X723854Y412446D01*
X725727Y410005D01*
X728168Y408132D01*
X731010Y406955D01*
X734060Y406553D01*
X737110Y406955D01*
X739952Y408132D01*
X742393Y410005D01*
X744266Y412446D01*
X745443Y415288D01*
X745845Y418338D01*
Y423418D01*
X745443Y426468D01*
X744266Y429310D01*
X742393Y431751D01*
X739952Y433624D01*
X737168Y434777D01*
Y455913D01*
X739695Y458440D01*
X740965Y457914D01*
Y446695D01*
X746192D01*
Y442214D01*
X746429Y441025D01*
X747103Y440017D01*
X752846Y434273D01*
X752763Y433006D01*
X751127Y431751D01*
X749254Y429310D01*
X748077Y426468D01*
X747675Y423418D01*
Y418338D01*
X748077Y415288D01*
X749254Y412446D01*
X751127Y410005D01*
X753568Y408132D01*
X756410Y406955D01*
X759460Y406553D01*
X762510Y406955D01*
X765352Y408132D01*
X767793Y410005D01*
X769666Y412446D01*
X770843Y415288D01*
X771245Y418338D01*
Y423418D01*
X770843Y426468D01*
X769666Y429310D01*
X767793Y431751D01*
X765352Y433624D01*
X762510Y434801D01*
X760895Y435014D01*
X752408Y443501D01*
Y446695D01*
X757635D01*
Y458918D01*
X759592D01*
X765645Y452866D01*
X766653Y452192D01*
X767842Y451956D01*
X780635D01*
Y446765D01*
X797754D01*
Y437151D01*
X761221Y400618D01*
X748260D01*
X747169Y401709D01*
X745348Y402463D01*
X743378D01*
X741557Y401709D01*
X740164Y400316D01*
X739410Y398495D01*
Y396525D01*
X740164Y394704D01*
X741557Y393311D01*
X743378Y392557D01*
X745348D01*
X747169Y393311D01*
X748260Y394402D01*
X762508D01*
X763697Y394639D01*
X764706Y395312D01*
X803059Y433666D01*
X803733Y434675D01*
X803970Y435864D01*
Y514626D01*
X803733Y515816D01*
X803059Y516824D01*
X799122Y520761D01*
X798114Y521435D01*
X796925Y521671D01*
X784005D01*
Y526862D01*
D02*
G37*
G36*
X109935Y514844D02*
X102616D01*
Y509046D01*
X109935D01*
Y514844D01*
D02*
G37*
G36*
X100584D02*
X93265D01*
Y509046D01*
X100584D01*
Y514844D01*
D02*
G37*
G36*
X394415Y513454D02*
X387096D01*
Y507655D01*
X394415D01*
Y513454D01*
D02*
G37*
G36*
X385064D02*
X377745D01*
Y507655D01*
X385064D01*
Y513454D01*
D02*
G37*
G36*
X187105Y524322D02*
X168495D01*
Y507725D01*
X187105D01*
Y512916D01*
X188809D01*
X190246Y511479D01*
Y509479D01*
X191058Y507519D01*
X192558Y506018D01*
X194519Y505206D01*
X196641D01*
X198601Y506018D01*
X200102Y507519D01*
X200914Y509479D01*
Y511601D01*
X200102Y513562D01*
X198601Y515062D01*
X196641Y515874D01*
X194641D01*
X192294Y518221D01*
X191286Y518895D01*
X190097Y519131D01*
X187105D01*
Y524322D01*
D02*
G37*
G36*
X1060865Y531942D02*
X1042255D01*
Y515345D01*
X1048452D01*
Y512953D01*
X1048035D01*
X1046214Y512199D01*
X1044821Y510806D01*
X1044067Y508985D01*
Y507015D01*
X1044821Y505194D01*
X1046214Y503801D01*
X1048035Y503047D01*
X1050005D01*
X1051826Y503801D01*
X1053219Y505194D01*
X1053973Y507015D01*
Y508985D01*
X1053791Y509424D01*
X1054431Y510382D01*
X1054668Y511571D01*
Y515345D01*
X1060865D01*
Y531942D01*
D02*
G37*
G36*
X1025305D02*
X1006695D01*
Y515345D01*
X1012892D01*
Y496841D01*
X1011538Y495487D01*
X980948D01*
X980450Y496757D01*
X985178Y501484D01*
X985851Y502493D01*
X986088Y503682D01*
Y514941D01*
X992285D01*
Y531539D01*
X973675D01*
Y514941D01*
X979872D01*
Y504969D01*
X976613Y501710D01*
X862076D01*
X860887Y501473D01*
X859878Y500799D01*
X855052Y495974D01*
X854379Y494965D01*
X854142Y493776D01*
Y392003D01*
X853539Y391600D01*
X853093Y390933D01*
X852936Y390145D01*
Y378635D01*
X853093Y377847D01*
X853539Y377179D01*
X854207Y376733D01*
X854995Y376576D01*
X859505D01*
X859730Y376621D01*
X860862Y375885D01*
X861000Y375678D01*
Y374396D01*
X861237Y373207D01*
X861910Y372198D01*
X862165Y371945D01*
X863173Y371271D01*
X864362Y371034D01*
X885825D01*
X887014Y371271D01*
X888023Y371945D01*
X891198Y375120D01*
X891205Y375131D01*
X891681Y375171D01*
X892642Y374995D01*
X893152Y374230D01*
X896328Y371055D01*
X897336Y370382D01*
X898525Y370145D01*
X936625D01*
X937814Y370382D01*
X938822Y371055D01*
X941998Y374230D01*
X942671Y375239D01*
X942737Y375569D01*
X943895Y376576D01*
X945134D01*
Y384390D01*
X946150D01*
Y385406D01*
X950463D01*
Y390145D01*
X950307Y390933D01*
X949861Y391600D01*
X949193Y392047D01*
X948405Y392203D01*
X946771D01*
X946285Y393377D01*
X954930Y402022D01*
X1050925D01*
X1052114Y402259D01*
X1053122Y402933D01*
X1056805Y406615D01*
X1057479Y407624D01*
X1057716Y408813D01*
Y432943D01*
X1057479Y434132D01*
X1056805Y435140D01*
X1053122Y438824D01*
X1052114Y439497D01*
X1050925Y439734D01*
X1043449D01*
X1038158Y445025D01*
Y461518D01*
X1037921Y462707D01*
X1037247Y463716D01*
X1036740Y464224D01*
X1035731Y464897D01*
X1034542Y465134D01*
X1031955D01*
Y470034D01*
X1023620D01*
Y472066D01*
X1031955D01*
Y473545D01*
X1033128Y474031D01*
X1034780Y472379D01*
X1035788Y471706D01*
X1036977Y471469D01*
X1047335D01*
Y466278D01*
X1065945D01*
Y482875D01*
X1047335D01*
Y477684D01*
X1038265D01*
X1031405Y484543D01*
X1030397Y485217D01*
X1029208Y485454D01*
X927100D01*
X925911Y485217D01*
X924902Y484543D01*
X920492Y480132D01*
X920357Y479931D01*
X904578D01*
X904092Y481105D01*
X912258Y489271D01*
X1012825D01*
X1014014Y489508D01*
X1015023Y490182D01*
X1018197Y493357D01*
X1018871Y494365D01*
X1019108Y495554D01*
Y515345D01*
X1025305D01*
Y531942D01*
D02*
G37*
G36*
X753525Y526862D02*
X734915D01*
Y510265D01*
X741112D01*
Y505238D01*
X738667Y502793D01*
X738155D01*
X736334Y502039D01*
X734941Y500646D01*
X734187Y498825D01*
Y496855D01*
X734941Y495034D01*
X736334Y493641D01*
X738155Y492887D01*
X740125D01*
X741946Y493641D01*
X743339Y495034D01*
X744093Y496855D01*
Y498825D01*
X743916Y499252D01*
X746417Y501754D01*
X747091Y502762D01*
X747328Y503951D01*
Y510265D01*
X753525D01*
Y526862D01*
D02*
G37*
G36*
X444037Y496824D02*
X443992D01*
Y492506D01*
X448310D01*
Y492551D01*
X447498Y494511D01*
X445998Y496012D01*
X444037Y496824D01*
D02*
G37*
G36*
X441960D02*
X441915D01*
X439954Y496012D01*
X438454Y494511D01*
X437642Y492551D01*
Y492506D01*
X441960D01*
Y496824D01*
D02*
G37*
G36*
X448310Y490474D02*
X443992D01*
Y486156D01*
X444037D01*
X445998Y486968D01*
X447498Y488469D01*
X448310Y490429D01*
Y490474D01*
D02*
G37*
G36*
X473155Y484094D02*
X465836D01*
Y478296D01*
X473155D01*
Y484094D01*
D02*
G37*
G36*
X463804D02*
X456485D01*
Y478296D01*
X463804D01*
Y484094D01*
D02*
G37*
G36*
X188675Y481795D02*
X181356D01*
Y475996D01*
X188675D01*
Y481795D01*
D02*
G37*
G36*
X86405Y480314D02*
X86360D01*
Y475996D01*
X90678D01*
Y476041D01*
X89866Y478002D01*
X88365Y479502D01*
X86405Y480314D01*
D02*
G37*
G36*
X84328D02*
X84283D01*
X82323Y479502D01*
X80822Y478002D01*
X80010Y476041D01*
Y475996D01*
X84328D01*
Y480314D01*
D02*
G37*
G36*
X179324Y481795D02*
X172005D01*
Y475996D01*
X179324D01*
Y481795D01*
D02*
G37*
G36*
X757635Y477865D02*
X750316D01*
Y472066D01*
X757635D01*
Y477865D01*
D02*
G37*
G36*
X748284D02*
X740965D01*
Y472066D01*
X748284D01*
Y477865D01*
D02*
G37*
G36*
X473155Y476264D02*
X465836D01*
Y470465D01*
X473155D01*
Y476264D01*
D02*
G37*
G36*
X463804D02*
X456485D01*
Y470465D01*
X463804D01*
Y476264D01*
D02*
G37*
G36*
X90678Y473964D02*
X86360D01*
Y469646D01*
X86405D01*
X88365Y470458D01*
X89866Y471959D01*
X90678Y473919D01*
Y473964D01*
D02*
G37*
G36*
X84328D02*
X80010D01*
Y473919D01*
X80822Y471959D01*
X82323Y470458D01*
X84283Y469646D01*
X84328D01*
Y473964D01*
D02*
G37*
G36*
X188675D02*
X181356D01*
Y468165D01*
X188675D01*
Y473964D01*
D02*
G37*
G36*
X179324D02*
X172005D01*
Y468165D01*
X179324D01*
Y473964D01*
D02*
G37*
G36*
X1065945Y463362D02*
X1047335D01*
Y446765D01*
X1065945D01*
Y448918D01*
X1067215Y449767D01*
X1068279Y449326D01*
X1070401D01*
X1072362Y450138D01*
X1073862Y451638D01*
X1074674Y453599D01*
Y455721D01*
X1073862Y457682D01*
X1072362Y459182D01*
X1070401Y459994D01*
X1068279D01*
X1067215Y459553D01*
X1065945Y460402D01*
Y463362D01*
D02*
G37*
G36*
X295794Y450364D02*
X288036D01*
Y443356D01*
X295794D01*
Y450364D01*
D02*
G37*
G36*
X286004D02*
X278246D01*
Y443356D01*
X286004D01*
Y450364D01*
D02*
G37*
G36*
X720505Y463766D02*
X701895D01*
Y447169D01*
X708092D01*
Y440707D01*
X706462Y439077D01*
X705789Y438069D01*
X705552Y436880D01*
Y434777D01*
X702768Y433624D01*
X700327Y431751D01*
X698454Y429310D01*
X697277Y426468D01*
X696875Y423418D01*
Y418338D01*
X697277Y415288D01*
X698454Y412446D01*
X700327Y410005D01*
X702768Y408132D01*
X705610Y406955D01*
X708660Y406553D01*
X711710Y406955D01*
X714552Y408132D01*
X716993Y410005D01*
X718866Y412446D01*
X720043Y415288D01*
X720445Y418338D01*
Y423418D01*
X720043Y426468D01*
X718866Y429310D01*
X716993Y431751D01*
X714552Y433624D01*
X712317Y434550D01*
X712126Y435951D01*
X713398Y437223D01*
X714071Y438231D01*
X714308Y439420D01*
Y447169D01*
X720505D01*
Y463766D01*
D02*
G37*
G36*
X441105Y468038D02*
X422495D01*
Y451441D01*
X428692D01*
Y448327D01*
X422744Y442379D01*
X422071Y441371D01*
X421834Y440182D01*
Y434777D01*
X419050Y433624D01*
X416609Y431751D01*
X414736Y429310D01*
X413559Y426468D01*
X413157Y423418D01*
Y418338D01*
X413559Y415288D01*
X414736Y412446D01*
X416609Y410005D01*
X419050Y408132D01*
X421892Y406955D01*
X424942Y406553D01*
X427992Y406955D01*
X430834Y408132D01*
X433275Y410005D01*
X435148Y412446D01*
X436325Y415288D01*
X436727Y418338D01*
Y423418D01*
X436325Y426468D01*
X435148Y429310D01*
X433275Y431751D01*
X430834Y433624D01*
X428050Y434777D01*
Y438895D01*
X433997Y444842D01*
X434671Y445851D01*
X434908Y447040D01*
Y451441D01*
X441105D01*
Y468038D01*
D02*
G37*
G36*
X408085Y468846D02*
X389475D01*
Y452249D01*
X395672D01*
Y441452D01*
X395909Y440263D01*
X396434Y439476D01*
Y434777D01*
X393650Y433624D01*
X391209Y431751D01*
X389336Y429310D01*
X388159Y426468D01*
X387757Y423418D01*
Y418338D01*
X388159Y415288D01*
X389336Y412446D01*
X391209Y410005D01*
X393650Y408132D01*
X396492Y406955D01*
X399542Y406553D01*
X402592Y406955D01*
X405434Y408132D01*
X407875Y410005D01*
X409748Y412446D01*
X410925Y415288D01*
X411327Y418338D01*
Y423418D01*
X410925Y426468D01*
X409748Y429310D01*
X407875Y431751D01*
X405434Y433624D01*
X402650Y434777D01*
Y440690D01*
X402413Y441879D01*
X401888Y442666D01*
Y452249D01*
X408085D01*
Y468846D01*
D02*
G37*
G36*
X156625Y463362D02*
X138015D01*
Y446765D01*
X144212D01*
Y441215D01*
X140805Y437808D01*
X140131Y436799D01*
X139894Y435610D01*
Y434777D01*
X137110Y433624D01*
X134669Y431751D01*
X132796Y429310D01*
X131619Y426468D01*
X131217Y423418D01*
Y418338D01*
X131619Y415288D01*
X132796Y412446D01*
X134669Y410005D01*
X137110Y408132D01*
X139952Y406955D01*
X143002Y406553D01*
X146052Y406955D01*
X148894Y408132D01*
X151335Y410005D01*
X153208Y412446D01*
X154385Y415288D01*
X154787Y418338D01*
Y423418D01*
X154385Y426468D01*
X153208Y429310D01*
X151335Y431751D01*
X148894Y433624D01*
X147487Y434207D01*
X147239Y435452D01*
X149517Y437730D01*
X150191Y438739D01*
X150428Y439928D01*
Y446765D01*
X156625D01*
Y463362D01*
D02*
G37*
G36*
X126145Y463766D02*
X107535D01*
Y447169D01*
X113732D01*
Y438404D01*
X113969Y437215D01*
X114494Y436428D01*
Y434777D01*
X111710Y433624D01*
X109269Y431751D01*
X107396Y429310D01*
X106219Y426468D01*
X105817Y423418D01*
Y418338D01*
X106219Y415288D01*
X107396Y412446D01*
X109269Y410005D01*
X111710Y408132D01*
X114552Y406955D01*
X117602Y406553D01*
X120652Y406955D01*
X123494Y408132D01*
X125935Y410005D01*
X127808Y412446D01*
X128985Y415288D01*
X129387Y418338D01*
Y423418D01*
X128985Y426468D01*
X127808Y429310D01*
X125935Y431751D01*
X123494Y433624D01*
X120710Y434777D01*
Y437642D01*
X120473Y438831D01*
X119948Y439618D01*
Y447169D01*
X126145D01*
Y463766D01*
D02*
G37*
G36*
X681705Y394743D02*
X680466D01*
Y387946D01*
X683764D01*
Y392685D01*
X683607Y393473D01*
X683161Y394141D01*
X682493Y394587D01*
X681705Y394743D01*
D02*
G37*
G36*
X678434D02*
X677195D01*
X676407Y394587D01*
X675739Y394141D01*
X675293Y393473D01*
X675136Y392685D01*
Y387946D01*
X678434D01*
Y394743D01*
D02*
G37*
G36*
X275305Y392203D02*
X274066D01*
Y385406D01*
X277363D01*
Y390145D01*
X277207Y390933D01*
X276761Y391600D01*
X276093Y392047D01*
X275305Y392203D01*
D02*
G37*
G36*
X408173Y386764D02*
X404876D01*
Y379966D01*
X406115D01*
X406903Y380123D01*
X407571Y380569D01*
X408017Y381237D01*
X408173Y382025D01*
Y386764D01*
D02*
G37*
G36*
X1060334Y386484D02*
X1052576D01*
Y379476D01*
X1060334D01*
Y386484D01*
D02*
G37*
G36*
X1050544D02*
X1042786D01*
Y379476D01*
X1050544D01*
Y386484D01*
D02*
G37*
G36*
X683764Y385914D02*
X680466D01*
Y379116D01*
X681705D01*
X682493Y379273D01*
X683161Y379719D01*
X683607Y380387D01*
X683764Y381175D01*
Y385914D01*
D02*
G37*
G36*
X678434D02*
X675136D01*
Y381175D01*
X675293Y380387D01*
X675739Y379719D01*
X676407Y379273D01*
X677195Y379116D01*
X678434D01*
Y385914D01*
D02*
G37*
G36*
X629711Y413512D02*
X627589D01*
X625629Y412700D01*
X624128Y411199D01*
X623316Y409239D01*
Y407117D01*
X624128Y405157D01*
X625542Y403742D01*
Y394543D01*
X624939Y394141D01*
X624493Y393473D01*
X624337Y392685D01*
Y381175D01*
X624493Y380387D01*
X624939Y379719D01*
X625607Y379273D01*
X626395Y379116D01*
X630905D01*
X631693Y379273D01*
X632361Y379719D01*
X632807Y380387D01*
X632963Y381175D01*
Y392685D01*
X632807Y393473D01*
X632361Y394141D01*
X631758Y394543D01*
Y403742D01*
X633172Y405157D01*
X633984Y407117D01*
Y409239D01*
X633172Y411199D01*
X631671Y412700D01*
X629711Y413512D01*
D02*
G37*
G36*
X950463Y383374D02*
X947166D01*
Y376576D01*
X948405D01*
X949193Y376733D01*
X949861Y377179D01*
X950307Y377847D01*
X950463Y378635D01*
Y383374D01*
D02*
G37*
G36*
X277363D02*
X274066D01*
Y376576D01*
X275305D01*
X276093Y376733D01*
X276761Y377179D01*
X277207Y377847D01*
X277363Y378635D01*
Y383374D01*
D02*
G37*
G36*
X248711Y456438D02*
X246589D01*
X244629Y455626D01*
X243128Y454126D01*
X242316Y452165D01*
Y450043D01*
X243128Y448083D01*
X244542Y446668D01*
Y392003D01*
X243939Y391600D01*
X243493Y390933D01*
X243337Y390145D01*
Y378635D01*
X243493Y377847D01*
X243939Y377179D01*
X244607Y376733D01*
X245395Y376576D01*
X249905D01*
X250693Y376733D01*
X251361Y377179D01*
X251807Y377847D01*
X251964Y378635D01*
Y390145D01*
X251807Y390933D01*
X251361Y391600D01*
X250758Y392003D01*
Y446668D01*
X252172Y448083D01*
X252984Y450043D01*
Y452165D01*
X252172Y454126D01*
X250672Y455626D01*
X248711Y456438D01*
D02*
G37*
G36*
X448194Y381404D02*
X440436D01*
Y374396D01*
X448194D01*
Y381404D01*
D02*
G37*
G36*
X438404D02*
X430646D01*
Y374396D01*
X438404D01*
Y381404D01*
D02*
G37*
G36*
X227745Y524322D02*
X209135D01*
Y507725D01*
X227745D01*
Y512916D01*
X242911D01*
X257481Y498347D01*
X257178Y497502D01*
X256893Y497138D01*
X120650D01*
X119461Y496901D01*
X118453Y496227D01*
X114642Y492417D01*
X113969Y491409D01*
X113732Y490220D01*
Y483279D01*
X107535D01*
Y466682D01*
X126145D01*
Y483279D01*
X119948D01*
Y488933D01*
X121937Y490922D01*
X144408D01*
X145114Y489652D01*
X144526Y488233D01*
Y486111D01*
X145338Y484151D01*
X145440Y484049D01*
X144954Y482875D01*
X138015D01*
Y466278D01*
X156625D01*
Y482875D01*
X154766D01*
X154280Y484049D01*
X154382Y484151D01*
X155194Y486111D01*
Y488233D01*
X154606Y489652D01*
X155312Y490922D01*
X255761D01*
X257242Y489441D01*
Y392003D01*
X256639Y391600D01*
X256193Y390933D01*
X256036Y390145D01*
Y378635D01*
X256193Y377847D01*
X256639Y377179D01*
X257307Y376733D01*
X258095Y376576D01*
X261165D01*
X261691Y375306D01*
X258809Y372424D01*
X239412D01*
X238058Y373778D01*
Y376776D01*
X238661Y377179D01*
X239107Y377847D01*
X239263Y378635D01*
Y390145D01*
X239107Y390933D01*
X238661Y391600D01*
X237993Y392047D01*
X237205Y392203D01*
X232695D01*
X231907Y392047D01*
X231239Y391600D01*
X230793Y390933D01*
X230637Y390145D01*
Y378635D01*
X230793Y377847D01*
X231239Y377179D01*
X231842Y376776D01*
Y372491D01*
X232079Y371302D01*
X232752Y370294D01*
X235928Y367118D01*
X236936Y366445D01*
X238125Y366208D01*
X260096D01*
X261285Y366445D01*
X262293Y367118D01*
X268389Y373214D01*
X269063Y374223D01*
X269300Y375412D01*
Y375678D01*
X269438Y375885D01*
X270570Y376621D01*
X270795Y376576D01*
X272034D01*
Y384390D01*
Y392203D01*
X270795D01*
X270570Y392159D01*
X269438Y392895D01*
X269300Y393101D01*
Y494030D01*
X269063Y495219D01*
X268389Y496227D01*
X246396Y518221D01*
X245388Y518895D01*
X244199Y519131D01*
X227745D01*
Y524322D01*
D02*
G37*
G36*
X806334Y374544D02*
X798576D01*
Y367536D01*
X806334D01*
Y374544D01*
D02*
G37*
G36*
X796544D02*
X788786D01*
Y367536D01*
X796544D01*
Y374544D01*
D02*
G37*
G36*
X295794Y441324D02*
X278246D01*
Y434316D01*
Y418316D01*
X283912D01*
Y365125D01*
X284149Y363936D01*
X284823Y362928D01*
X288505Y359244D01*
X289514Y358571D01*
X290703Y358334D01*
X309863D01*
X311852Y356345D01*
Y342893D01*
X311249Y342491D01*
X310803Y341823D01*
X310646Y341035D01*
Y329525D01*
X310803Y328737D01*
X311249Y328069D01*
X311852Y327667D01*
Y325137D01*
X310498Y323783D01*
X277572D01*
X277495Y323868D01*
X277010Y325053D01*
X277207Y325347D01*
X277363Y326135D01*
Y337645D01*
X277207Y338433D01*
X276761Y339101D01*
X276093Y339547D01*
X275305Y339704D01*
X270795D01*
X270007Y339547D01*
X269339Y339101D01*
X268893Y338433D01*
X268736Y337645D01*
Y326135D01*
X268893Y325347D01*
X269090Y325053D01*
X268605Y323868D01*
X268528Y323783D01*
X264823D01*
X264540Y325514D01*
X264664Y326135D01*
Y337645D01*
X264507Y338433D01*
X264061Y339101D01*
X263393Y339547D01*
X262605Y339704D01*
X258095D01*
X257307Y339547D01*
X256639Y339101D01*
X256193Y338433D01*
X256036Y337645D01*
Y326958D01*
X255398Y326005D01*
X254792Y325882D01*
X253193D01*
X253031Y325915D01*
X251964Y326747D01*
Y337645D01*
X251807Y338433D01*
X251361Y339101D01*
X250693Y339547D01*
X249905Y339704D01*
X245395D01*
X244607Y339547D01*
X243939Y339101D01*
X243493Y338433D01*
X243337Y337645D01*
Y326135D01*
X243493Y325347D01*
X243939Y324679D01*
X244607Y324233D01*
X244866Y324182D01*
X245452Y323303D01*
X248920Y319836D01*
Y319487D01*
X249508Y318068D01*
X248801Y316798D01*
X240403D01*
X239696Y318068D01*
X240284Y319487D01*
Y321609D01*
X239472Y323569D01*
X238634Y324408D01*
X238661Y324679D01*
X239107Y325347D01*
X239263Y326135D01*
Y337645D01*
X239107Y338433D01*
X238661Y339101D01*
X237993Y339547D01*
X237205Y339704D01*
X232695D01*
X231907Y339547D01*
X231239Y339101D01*
X230793Y338433D01*
X230637Y337645D01*
Y326135D01*
X230793Y325347D01*
X231239Y324679D01*
X231266Y324408D01*
X230428Y323569D01*
X229616Y321609D01*
Y319487D01*
X230204Y318068D01*
X229498Y316798D01*
X215002D01*
X214296Y318068D01*
X214884Y319487D01*
Y321609D01*
X214072Y323569D01*
X213234Y324408D01*
X213261Y324679D01*
X213707Y325347D01*
X213864Y326135D01*
Y337645D01*
X213707Y338433D01*
X213261Y339101D01*
X212593Y339547D01*
X211805Y339704D01*
X207295D01*
X206507Y339547D01*
X205839Y339101D01*
X205393Y338433D01*
X205236Y337645D01*
Y326135D01*
X205393Y325347D01*
X205839Y324679D01*
X205866Y324408D01*
X205028Y323569D01*
X204216Y321609D01*
Y319487D01*
X204804Y318068D01*
X204097Y316798D01*
X193307D01*
X187258Y322847D01*
Y324277D01*
X187861Y324679D01*
X188307Y325347D01*
X188463Y326135D01*
Y337645D01*
X188307Y338433D01*
X187861Y339101D01*
X187193Y339547D01*
X186405Y339704D01*
X181895D01*
X181107Y339547D01*
X180439Y339101D01*
X179993Y338433D01*
X179837Y337645D01*
Y326135D01*
X179993Y325347D01*
X180439Y324679D01*
X181042Y324277D01*
Y321560D01*
X181279Y320371D01*
X181952Y319363D01*
X189823Y311493D01*
X190831Y310819D01*
X192020Y310582D01*
X258890D01*
X260079Y310819D01*
X261087Y311493D01*
X264897Y315303D01*
X265038Y315513D01*
X265223Y315685D01*
X265372Y316012D01*
X265571Y316311D01*
X265620Y316559D01*
X265725Y316789D01*
X265738Y317148D01*
X265808Y317500D01*
X265863Y317567D01*
X311785D01*
X312974Y317804D01*
X313983Y318477D01*
X317157Y321652D01*
X317831Y322661D01*
X318068Y323850D01*
Y327667D01*
X318671Y328069D01*
X319117Y328737D01*
X319273Y329525D01*
Y341035D01*
X319117Y341823D01*
X318950Y342072D01*
X319743Y343094D01*
X322825D01*
X323504Y341824D01*
X323503Y341823D01*
X323346Y341035D01*
Y329525D01*
X323503Y328737D01*
X323949Y328069D01*
X324552Y327667D01*
Y318888D01*
X323138Y317474D01*
X322326Y315513D01*
Y313391D01*
X323138Y311430D01*
X324638Y309930D01*
X326599Y309118D01*
X328721D01*
X330681Y309930D01*
X332182Y311430D01*
X332994Y313391D01*
Y315513D01*
X332182Y317474D01*
X330768Y318888D01*
Y327667D01*
X331371Y328069D01*
X331817Y328737D01*
X331973Y329525D01*
Y341035D01*
X331817Y341823D01*
X331816Y341824D01*
X332495Y343094D01*
X335525D01*
X336204Y341824D01*
X336203Y341823D01*
X336046Y341035D01*
Y329525D01*
X336203Y328737D01*
X336649Y328069D01*
X337252Y327667D01*
Y262399D01*
X335263Y260410D01*
X282566D01*
X281152Y261824D01*
X279191Y262636D01*
X277069D01*
X275109Y261824D01*
X273608Y260324D01*
X272796Y258363D01*
Y256241D01*
X273608Y254280D01*
X275109Y252780D01*
X277069Y251968D01*
X279191D01*
X281152Y252780D01*
X282566Y254194D01*
X336550D01*
X337739Y254431D01*
X338747Y255105D01*
X342557Y258915D01*
X343231Y259923D01*
X343468Y261112D01*
Y327667D01*
X344071Y328069D01*
X344517Y328737D01*
X344674Y329525D01*
Y341035D01*
X344517Y341823D01*
X344516Y341824D01*
X345195Y343094D01*
X348225D01*
X348904Y341824D01*
X348903Y341823D01*
X348746Y341035D01*
Y336296D01*
X353060D01*
X357374D01*
Y341035D01*
X357217Y341823D01*
X357216Y341824D01*
X357895Y343094D01*
X360925D01*
X361604Y341824D01*
X361603Y341823D01*
X361446Y341035D01*
Y329525D01*
X361603Y328737D01*
X362049Y328069D01*
X362717Y327623D01*
X363505Y327467D01*
X363810D01*
Y326141D01*
X363270Y325602D01*
X362458Y323641D01*
Y321519D01*
X363270Y319559D01*
X364771Y318058D01*
X366731Y317246D01*
X368853D01*
X370813Y318058D01*
X372314Y319559D01*
X373126Y321519D01*
Y323641D01*
X372314Y325602D01*
X370813Y327102D01*
X370025Y327429D01*
Y329281D01*
X370074Y329525D01*
Y341035D01*
X369917Y341823D01*
X369916Y341824D01*
X370595Y343094D01*
X373625D01*
X374304Y341824D01*
X374303Y341823D01*
X374146Y341035D01*
Y330189D01*
X373507Y328645D01*
Y326675D01*
X374261Y324854D01*
X375654Y323461D01*
X377475Y322707D01*
X379445D01*
X381266Y323461D01*
X382659Y324854D01*
X383413Y326675D01*
Y328645D01*
X382774Y330189D01*
Y341035D01*
X382617Y341823D01*
X382616Y341824D01*
X383295Y343094D01*
X386377D01*
X387170Y342072D01*
X387003Y341823D01*
X386847Y341035D01*
Y329525D01*
X387003Y328737D01*
X387449Y328069D01*
X388117Y327623D01*
X388905Y327467D01*
X393415D01*
X394203Y327623D01*
X394871Y328069D01*
X395317Y328737D01*
X395474Y329525D01*
Y341035D01*
X395317Y341823D01*
X394871Y342491D01*
X394268Y342893D01*
Y351138D01*
X397402Y354272D01*
X430646D01*
Y349356D01*
X448194D01*
Y354272D01*
X566674D01*
Y352507D01*
X567486Y350546D01*
X568987Y349046D01*
X570947Y348234D01*
X573069D01*
X575029Y349046D01*
X576444Y350460D01*
X586470D01*
X586996Y341745D01*
X586839Y341641D01*
X586393Y340973D01*
X586236Y340185D01*
Y328675D01*
X586393Y327887D01*
X586839Y327220D01*
X587507Y326773D01*
X588295Y326617D01*
X592805D01*
X593593Y326773D01*
X594261Y327220D01*
X594707Y327887D01*
X594864Y328675D01*
Y340185D01*
X594707Y340973D01*
X594261Y341641D01*
X593658Y342044D01*
Y356218D01*
X595012Y357572D01*
X604147D01*
X604854Y356302D01*
X604266Y354883D01*
Y352883D01*
X601053Y349669D01*
X600379Y348661D01*
X600142Y347472D01*
Y342044D01*
X599539Y341641D01*
X599093Y340973D01*
X598937Y340185D01*
Y328675D01*
X599093Y327887D01*
X599539Y327220D01*
X600207Y326773D01*
X600995Y326617D01*
X605505D01*
X606293Y326773D01*
X606961Y327220D01*
X607407Y327887D01*
X607564Y328675D01*
Y340185D01*
X607407Y340973D01*
X606961Y341641D01*
X606358Y342044D01*
Y346185D01*
X608661Y348488D01*
X610661D01*
X612621Y349300D01*
X614122Y350801D01*
X614934Y352761D01*
Y354883D01*
X614346Y356302D01*
X615052Y357572D01*
X662288D01*
X663642Y356218D01*
Y347345D01*
Y342044D01*
X663039Y341641D01*
X662593Y340973D01*
X662437Y340185D01*
Y328675D01*
X662593Y327887D01*
X663039Y327220D01*
X663642Y326817D01*
Y254017D01*
X649584Y239959D01*
X648962Y240318D01*
X646457Y240989D01*
X643863D01*
X641358Y240318D01*
X639113Y239021D01*
X637279Y237187D01*
X635982Y234942D01*
X635311Y232437D01*
Y229843D01*
X635982Y227338D01*
X637279Y225093D01*
X639113Y223259D01*
X641358Y221962D01*
X643863Y221291D01*
X646457D01*
X648962Y221962D01*
X649584Y222321D01*
X661377Y210527D01*
X662386Y209854D01*
X663575Y209617D01*
X670433D01*
X671622Y209854D01*
X672630Y210527D01*
X686728Y224625D01*
X686811Y224749D01*
X687323Y224888D01*
X688071Y224904D01*
X688372Y224799D01*
X689913Y223259D01*
X692158Y221962D01*
X694663Y221291D01*
X697257D01*
X699762Y221962D01*
X702007Y223259D01*
X703841Y225093D01*
X705138Y227338D01*
X705809Y229843D01*
Y232437D01*
X705138Y234942D01*
X703841Y237187D01*
X702836Y238192D01*
X703362Y239462D01*
X713958D01*
X714484Y238192D01*
X713479Y237187D01*
X712182Y234942D01*
X711511Y232437D01*
Y229843D01*
X712182Y227338D01*
X713479Y225093D01*
X715313Y223259D01*
X717558Y221962D01*
X720063Y221291D01*
X722657D01*
X725162Y221962D01*
X727407Y223259D01*
X729241Y225093D01*
X730538Y227338D01*
X731209Y229843D01*
Y232437D01*
X730538Y234942D01*
X729241Y237187D01*
X728236Y238192D01*
X728762Y239462D01*
X739358D01*
X739884Y238192D01*
X738879Y237187D01*
X737582Y234942D01*
X736911Y232437D01*
Y229843D01*
X737582Y227338D01*
X738879Y225093D01*
X740713Y223259D01*
X742958Y221962D01*
X745463Y221291D01*
X748057D01*
X750562Y221962D01*
X752807Y223259D01*
X754641Y225093D01*
X755283Y226204D01*
X756701Y226120D01*
X761432Y221389D01*
Y210176D01*
X760018Y208762D01*
X759206Y206801D01*
Y204679D01*
X760018Y202719D01*
X761518Y201218D01*
X763479Y200406D01*
X765601D01*
X767561Y201218D01*
X769062Y202719D01*
X769874Y204679D01*
Y206801D01*
X769062Y208762D01*
X767648Y210176D01*
Y221029D01*
X768918Y221812D01*
X770863Y221291D01*
X773457D01*
X775962Y221962D01*
X778207Y223259D01*
X780041Y225093D01*
X781338Y227338D01*
X782009Y229843D01*
Y232437D01*
X781338Y234942D01*
X780041Y237187D01*
X778207Y239021D01*
X775962Y240318D01*
X773457Y240989D01*
X770863D01*
X768358Y240318D01*
X766113Y239021D01*
X764279Y237187D01*
X763692Y236171D01*
X762042Y235853D01*
X761813Y236032D01*
Y237610D01*
X761576Y238799D01*
X760903Y239807D01*
X755943Y244767D01*
X754934Y245441D01*
X753745Y245678D01*
X691152D01*
X690666Y246851D01*
X695088Y251273D01*
X917575D01*
X918109Y251379D01*
X918646Y251464D01*
X918701Y251497D01*
X918764Y251510D01*
X919217Y251812D01*
X919681Y252095D01*
X919719Y252148D01*
X919772Y252183D01*
X920075Y252636D01*
X920395Y253075D01*
X920410Y253138D01*
X920446Y253192D01*
X920552Y253725D01*
X920680Y254254D01*
X922215Y291713D01*
X923484Y291687D01*
Y225061D01*
X806736Y108313D01*
X806062Y107304D01*
X805825Y106115D01*
Y86199D01*
X804555Y85673D01*
X803607Y86621D01*
X801362Y87918D01*
X800668Y88104D01*
Y102178D01*
X800431Y103367D01*
X799758Y104376D01*
X761022Y143111D01*
X760014Y143784D01*
X758825Y144021D01*
X748970D01*
X748802Y145291D01*
X750562Y145762D01*
X752807Y147059D01*
X754641Y148893D01*
X755938Y151138D01*
X756609Y153643D01*
Y153924D01*
X736911D01*
Y153643D01*
X737582Y151138D01*
X738879Y148893D01*
X740713Y147059D01*
X742958Y145762D01*
X744718Y145291D01*
X744550Y144021D01*
X622663D01*
X614627Y152058D01*
X613618Y152731D01*
X612429Y152968D01*
X353060D01*
X351871Y152731D01*
X350863Y152058D01*
X342826Y144021D01*
X80353D01*
X79164Y143784D01*
X78156Y143111D01*
X63299Y128254D01*
X50606D01*
Y188483D01*
X51876Y189009D01*
X52726Y188159D01*
X54840Y186938D01*
X57199Y186306D01*
X57404D01*
Y195580D01*
Y204854D01*
X57199D01*
X54840Y204222D01*
X52726Y203001D01*
X51876Y202151D01*
X50606Y202677D01*
Y208370D01*
X53541Y211306D01*
X67694D01*
Y229854D01*
X49146D01*
Y215701D01*
X45300Y211855D01*
X44627Y210847D01*
X44390Y209658D01*
Y108204D01*
X44627Y107015D01*
X45300Y106006D01*
X45554Y105752D01*
X46563Y105079D01*
X47752Y104842D01*
X133115D01*
X133637Y103572D01*
X132279Y102214D01*
X131058Y100100D01*
X130426Y97741D01*
Y97536D01*
X139700D01*
X148974D01*
Y97741D01*
X148342Y100100D01*
X147121Y102214D01*
X145763Y103572D01*
X146285Y104842D01*
X185458D01*
X186647Y105079D01*
X187656Y105752D01*
X207653Y125750D01*
X208826Y125264D01*
Y110106D01*
X222979D01*
X226637Y106448D01*
X227645Y105774D01*
X228835Y105538D01*
X283629D01*
X299924Y89242D01*
X300933Y88569D01*
X302122Y88332D01*
X309336D01*
X309677Y87062D01*
X308913Y86621D01*
X307079Y84787D01*
X305782Y82542D01*
X305111Y80037D01*
Y79756D01*
X324809D01*
Y80037D01*
X324138Y82542D01*
X322841Y84787D01*
X321007Y86621D01*
X320243Y87062D01*
X320584Y88332D01*
X334736D01*
X335077Y87062D01*
X334313Y86621D01*
X332479Y84787D01*
X331182Y82542D01*
X330511Y80037D01*
Y77443D01*
X331182Y74938D01*
X332479Y72693D01*
X334313Y70859D01*
X336558Y69562D01*
X339063Y68891D01*
X341657D01*
X344162Y69562D01*
X346407Y70859D01*
X348241Y72693D01*
X349538Y74938D01*
X350209Y77443D01*
Y80037D01*
X349538Y82542D01*
X348241Y84787D01*
X346407Y86621D01*
X345643Y87062D01*
X345984Y88332D01*
X360136D01*
X360477Y87062D01*
X359713Y86621D01*
X357879Y84787D01*
X356582Y82542D01*
X355911Y80037D01*
Y77443D01*
X356582Y74938D01*
X357879Y72693D01*
X359713Y70859D01*
X361958Y69562D01*
X364463Y68891D01*
X367057D01*
X369562Y69562D01*
X370184Y69921D01*
X379508Y60597D01*
X380516Y59924D01*
X381705Y59687D01*
X728783D01*
X729972Y59924D01*
X730980Y60597D01*
X737527Y67144D01*
X738201Y68153D01*
X738438Y69342D01*
Y71338D01*
X739708Y71864D01*
X740713Y70859D01*
X742958Y69562D01*
X745463Y68891D01*
X748057D01*
X750562Y69562D01*
X751184Y69921D01*
X760508Y60597D01*
X761516Y59924D01*
X762705Y59687D01*
X1020344D01*
X1021534Y59924D01*
X1022542Y60597D01*
X1049391Y87446D01*
X1063544D01*
Y105994D01*
X1044996D01*
Y91841D01*
X1019057Y65903D01*
X807865D01*
X807379Y67076D01*
X811131Y70827D01*
X811804Y71836D01*
X812041Y73025D01*
Y76530D01*
X813311Y76698D01*
X813782Y74938D01*
X815079Y72693D01*
X816913Y70859D01*
X819158Y69562D01*
X821663Y68891D01*
X824257D01*
X826762Y69562D01*
X829007Y70859D01*
X830841Y72693D01*
X832138Y74938D01*
X832809Y77443D01*
Y80037D01*
X832138Y82542D01*
X831779Y83164D01*
X863109Y114494D01*
X976092D01*
X977281Y114731D01*
X978289Y115405D01*
X1049391Y186506D01*
X1063544D01*
Y205054D01*
X1044996D01*
Y190901D01*
X974805Y120710D01*
X861822D01*
X860633Y120473D01*
X859624Y119799D01*
X827384Y87559D01*
X826762Y87918D01*
X824257Y88589D01*
X821663D01*
X819158Y87918D01*
X816913Y86621D01*
X815079Y84787D01*
X813782Y82542D01*
X813311Y80782D01*
X812041Y80950D01*
Y104828D01*
X928790Y221576D01*
X929463Y222585D01*
X929700Y223774D01*
Y323179D01*
X929838Y323385D01*
X930970Y324121D01*
X931195Y324077D01*
X935705D01*
X936493Y324233D01*
X937161Y324679D01*
X937607Y325347D01*
X937764Y326135D01*
Y337645D01*
X937607Y338433D01*
X937161Y339101D01*
X936558Y339504D01*
Y343391D01*
X939309Y346142D01*
X945896D01*
X947085Y346379D01*
X948093Y347052D01*
X960393Y359352D01*
X1042786D01*
Y354436D01*
X1060334D01*
Y370436D01*
Y377444D01*
X1042786D01*
Y370436D01*
Y365568D01*
X959106D01*
X957917Y365331D01*
X956909Y364658D01*
X944609Y352358D01*
X905383D01*
X904194Y352121D01*
X903186Y351447D01*
X900011Y348273D01*
X899337Y347264D01*
X899100Y346075D01*
Y340602D01*
X898962Y340395D01*
X897830Y339659D01*
X897605Y339704D01*
X896366D01*
Y331890D01*
X894334D01*
Y339704D01*
X893095D01*
X892870Y339659D01*
X891738Y340395D01*
X891600Y340602D01*
Y352425D01*
X891363Y353614D01*
X890689Y354622D01*
X885353Y359959D01*
X884345Y360633D01*
X883156Y360869D01*
X820674D01*
X819485Y360633D01*
X818476Y359959D01*
X812145Y353628D01*
X806334D01*
Y358496D01*
Y365504D01*
X788786D01*
Y358496D01*
Y353628D01*
X669925D01*
X669858Y353683D01*
Y357505D01*
X669621Y358694D01*
X668948Y359702D01*
X665772Y362878D01*
X664764Y363551D01*
X663575Y363788D01*
X593725D01*
X592536Y363551D01*
X591527Y362878D01*
X588766Y360116D01*
X588564Y360251D01*
X587375Y360488D01*
X448194D01*
Y365356D01*
Y372364D01*
X430646D01*
Y365356D01*
Y360488D01*
X396115D01*
X394926Y360251D01*
X393918Y359577D01*
X388963Y354622D01*
X388289Y353614D01*
X388052Y352425D01*
Y349469D01*
X387858Y349310D01*
X318262D01*
X318068Y349469D01*
Y357632D01*
X317831Y358821D01*
X317157Y359829D01*
X313347Y363639D01*
X312339Y364313D01*
X311150Y364550D01*
X291990D01*
X290128Y366412D01*
Y418316D01*
X295794D01*
Y434316D01*
Y441324D01*
D02*
G37*
G36*
X634238Y347278D02*
X623062D01*
X621873Y347041D01*
X620864Y346367D01*
X620611Y346114D01*
X619937Y345105D01*
X619700Y343916D01*
Y343142D01*
X619511Y342859D01*
X618697Y342146D01*
X618205Y342244D01*
X613695D01*
X612907Y342087D01*
X612239Y341641D01*
X611793Y340973D01*
X611637Y340185D01*
Y328675D01*
X611793Y327887D01*
X612239Y327220D01*
X612907Y326773D01*
X613695Y326617D01*
X618205D01*
X618993Y326773D01*
X619661Y327220D01*
X620107Y327887D01*
X620263Y328675D01*
Y334939D01*
X620314Y334949D01*
X621323Y335622D01*
X623163Y337463D01*
X624337Y336977D01*
Y335446D01*
X628650D01*
Y334430D01*
X629666D01*
Y326617D01*
X630905D01*
X631384Y326223D01*
Y279518D01*
X629970Y278104D01*
X629158Y276143D01*
Y274021D01*
X629970Y272061D01*
X631470Y270560D01*
X633431Y269748D01*
X635553D01*
X637514Y270560D01*
X639014Y272061D01*
X639826Y274021D01*
Y276143D01*
X639014Y278104D01*
X637600Y279518D01*
Y317127D01*
X638870Y317834D01*
X640289Y317246D01*
X642411D01*
X644371Y318058D01*
X645872Y319559D01*
X646684Y321519D01*
Y323641D01*
X645872Y325602D01*
X644988Y326485D01*
X645061Y327220D01*
X645507Y327887D01*
X645664Y328675D01*
Y340185D01*
X645507Y340973D01*
X645061Y341641D01*
X644393Y342087D01*
X643605Y342244D01*
X639095D01*
X638870Y342199D01*
X637738Y342935D01*
X637600Y343142D01*
Y343916D01*
X637363Y345105D01*
X636689Y346114D01*
X636436Y346367D01*
X635427Y347041D01*
X634238Y347278D01*
D02*
G37*
G36*
X224505Y339704D02*
X223266D01*
Y332906D01*
X226563D01*
Y337645D01*
X226407Y338433D01*
X225961Y339101D01*
X225293Y339547D01*
X224505Y339704D01*
D02*
G37*
G36*
X221234D02*
X219995D01*
X219207Y339547D01*
X218539Y339101D01*
X218093Y338433D01*
X217936Y337645D01*
Y332906D01*
X221234D01*
Y339704D01*
D02*
G37*
G36*
X406115Y343093D02*
X401605D01*
X400817Y342937D01*
X400149Y342491D01*
X399703Y341823D01*
X399547Y341035D01*
Y329525D01*
X399703Y328737D01*
X400149Y328069D01*
X400817Y327623D01*
X401605Y327467D01*
X406115D01*
X406903Y327623D01*
X407571Y328069D01*
X408017Y328737D01*
X408173Y329525D01*
Y341035D01*
X408017Y341823D01*
X407571Y342491D01*
X406903Y342937D01*
X406115Y343093D01*
D02*
G37*
G36*
X357374Y334264D02*
X354076D01*
Y327467D01*
X355315D01*
X356103Y327623D01*
X356771Y328069D01*
X357217Y328737D01*
X357374Y329525D01*
Y334264D01*
D02*
G37*
G36*
X352044D02*
X348746D01*
Y329525D01*
X348903Y328737D01*
X349349Y328069D01*
X350017Y327623D01*
X350805Y327467D01*
X352044D01*
Y334264D01*
D02*
G37*
G36*
X627634Y333414D02*
X624337D01*
Y328675D01*
X624493Y327887D01*
X624939Y327220D01*
X625607Y326773D01*
X626395Y326617D01*
X627634D01*
Y333414D01*
D02*
G37*
G36*
X948405Y339704D02*
X943895D01*
X943107Y339547D01*
X942439Y339101D01*
X941993Y338433D01*
X941836Y337645D01*
Y326135D01*
X941993Y325347D01*
X942439Y324679D01*
X943107Y324233D01*
X943895Y324077D01*
X948405D01*
X949193Y324233D01*
X949861Y324679D01*
X950307Y325347D01*
X950463Y326135D01*
Y337645D01*
X950307Y338433D01*
X949861Y339101D01*
X949193Y339547D01*
X948405Y339704D01*
D02*
G37*
G36*
X226563Y330874D02*
X223266D01*
Y324077D01*
X224505D01*
X225293Y324233D01*
X225961Y324679D01*
X226407Y325347D01*
X226563Y326135D01*
Y330874D01*
D02*
G37*
G36*
X221234D02*
X217936D01*
Y326135D01*
X218093Y325347D01*
X218539Y324679D01*
X219207Y324233D01*
X219995Y324077D01*
X221234D01*
Y330874D01*
D02*
G37*
G36*
X1093828Y354344D02*
X1090573D01*
X1087380Y353709D01*
X1084373Y352463D01*
X1081667Y350655D01*
X1079365Y348353D01*
X1077557Y345647D01*
X1076311Y342640D01*
X1075676Y339448D01*
Y336193D01*
X1076311Y333000D01*
X1077557Y329993D01*
X1079365Y327287D01*
X1081667Y324985D01*
X1084373Y323177D01*
X1087380Y321931D01*
X1090573Y321296D01*
X1093828D01*
X1097020Y321931D01*
X1100027Y323177D01*
X1102733Y324985D01*
X1105035Y327287D01*
X1106843Y329993D01*
X1108089Y333000D01*
X1108724Y336193D01*
Y339448D01*
X1108089Y342640D01*
X1106843Y345647D01*
X1105035Y348353D01*
X1102733Y350655D01*
X1100027Y352463D01*
X1097020Y353709D01*
X1093828Y354344D01*
D02*
G37*
G36*
X47347D02*
X44092D01*
X40900Y353709D01*
X37893Y352463D01*
X35187Y350655D01*
X32885Y348353D01*
X31077Y345647D01*
X29831Y342640D01*
X29196Y339448D01*
Y336193D01*
X29831Y333000D01*
X31077Y329993D01*
X32885Y327287D01*
X35187Y324985D01*
X37893Y323177D01*
X40900Y321931D01*
X44092Y321296D01*
X47347D01*
X50540Y321931D01*
X53547Y323177D01*
X56253Y324985D01*
X58555Y327287D01*
X60363Y329993D01*
X61609Y333000D01*
X62244Y336193D01*
Y339448D01*
X61609Y342640D01*
X60363Y345647D01*
X58555Y348353D01*
X56253Y350655D01*
X53547Y352463D01*
X50540Y353709D01*
X47347Y354344D01*
D02*
G37*
G36*
X656305Y342244D02*
X651795D01*
X651007Y342087D01*
X650339Y341641D01*
X649893Y340973D01*
X649736Y340185D01*
Y328675D01*
X649893Y327887D01*
X650339Y327220D01*
X650942Y326817D01*
Y316094D01*
X649528Y314680D01*
X648716Y312719D01*
Y310597D01*
X649528Y308636D01*
X651029Y307136D01*
X652989Y306324D01*
X655111D01*
X657072Y307136D01*
X658572Y308636D01*
X659384Y310597D01*
Y312719D01*
X658572Y314680D01*
X657158Y316094D01*
Y326817D01*
X657761Y327220D01*
X658207Y327887D01*
X658363Y328675D01*
Y340185D01*
X658207Y340973D01*
X657761Y341641D01*
X657093Y342087D01*
X656305Y342244D01*
D02*
G37*
G36*
X379445Y297053D02*
X377475D01*
X375654Y296299D01*
X374563Y295208D01*
X357781D01*
X356690Y296299D01*
X354869Y297053D01*
X352899D01*
X351078Y296299D01*
X349685Y294906D01*
X348931Y293085D01*
Y291115D01*
X349685Y289294D01*
X351078Y287901D01*
X352899Y287147D01*
X354869D01*
X356690Y287901D01*
X357781Y288992D01*
X374563D01*
X375654Y287901D01*
X377475Y287147D01*
X379445D01*
X381266Y287901D01*
X382659Y289294D01*
X383413Y291115D01*
Y293085D01*
X382659Y294906D01*
X381266Y296299D01*
X379445Y297053D01*
D02*
G37*
G36*
X331715Y302662D02*
X329744D01*
X327924Y301908D01*
X326530Y300515D01*
X326436Y300288D01*
X299720D01*
X298531Y300051D01*
X297523Y299377D01*
X269798Y271653D01*
X268255D01*
X266434Y270899D01*
X265041Y269506D01*
X264287Y267685D01*
Y265715D01*
X265041Y263894D01*
X266434Y262501D01*
X268255Y261747D01*
X270225D01*
X272046Y262501D01*
X273439Y263894D01*
X274193Y265715D01*
Y267258D01*
X301007Y294072D01*
X327362D01*
X327924Y293510D01*
X329744Y292756D01*
X331715D01*
X333535Y293510D01*
X334928Y294904D01*
X335682Y296724D01*
Y298695D01*
X334928Y300515D01*
X333535Y301908D01*
X331715Y302662D01*
D02*
G37*
G36*
X429260Y322173D02*
X427736D01*
X426459Y322072D01*
X425939D01*
X425426Y321991D01*
X422634Y321771D01*
X417658Y320576D01*
X412930Y318618D01*
X408567Y315944D01*
X404675Y312621D01*
X401352Y308729D01*
X398678Y304366D01*
X396720Y299638D01*
X395525Y294662D01*
X395123Y289560D01*
X395525Y284458D01*
X396720Y279482D01*
X398678Y274754D01*
X401352Y270391D01*
X404675Y266500D01*
X408567Y263176D01*
X411742Y261230D01*
X412023Y259568D01*
X411834Y259337D01*
X394282D01*
X384213Y269405D01*
X383205Y270079D01*
X382016Y270316D01*
X367656D01*
X366241Y271730D01*
X364281Y272542D01*
X362159D01*
X360199Y271730D01*
X358698Y270229D01*
X357886Y268269D01*
Y266147D01*
X356881Y265256D01*
X356153Y265557D01*
X354031D01*
X352071Y264745D01*
X350570Y263244D01*
X349758Y261284D01*
Y259162D01*
X350570Y257201D01*
X352071Y255701D01*
X354031Y254889D01*
X356031D01*
X361460Y249460D01*
X362469Y248786D01*
X363658Y248549D01*
X370625D01*
X371111Y247376D01*
X369921Y246186D01*
X167278D01*
X166089Y245949D01*
X165080Y245275D01*
X147119Y227314D01*
X132966D01*
Y208766D01*
X151514D01*
Y222919D01*
X168565Y239970D01*
X282738D01*
X283192Y238700D01*
X281679Y237187D01*
X280382Y234942D01*
X279711Y232437D01*
Y232156D01*
X299409D01*
Y232437D01*
X298738Y234942D01*
X297441Y237187D01*
X295928Y238700D01*
X296382Y239970D01*
X308138D01*
X308592Y238700D01*
X307079Y237187D01*
X305782Y234942D01*
X305111Y232437D01*
Y229843D01*
X305782Y227338D01*
X307079Y225093D01*
X308913Y223259D01*
X311158Y221962D01*
X313663Y221291D01*
X316257D01*
X318762Y221962D01*
X321007Y223259D01*
X322841Y225093D01*
X324138Y227338D01*
X324809Y229843D01*
Y232437D01*
X324138Y234942D01*
X322841Y237187D01*
X321328Y238700D01*
X321782Y239970D01*
X333538D01*
X333992Y238700D01*
X332479Y237187D01*
X331182Y234942D01*
X330511Y232437D01*
Y229843D01*
X331182Y227338D01*
X332479Y225093D01*
X334313Y223259D01*
X336558Y221962D01*
X339063Y221291D01*
X341657D01*
X344162Y221962D01*
X346407Y223259D01*
X348241Y225093D01*
X349538Y227338D01*
X350209Y229843D01*
Y232437D01*
X349538Y234942D01*
X348241Y237187D01*
X346728Y238700D01*
X347182Y239970D01*
X358938D01*
X359392Y238700D01*
X357879Y237187D01*
X356582Y234942D01*
X355911Y232437D01*
Y229843D01*
X356582Y227338D01*
X357879Y225093D01*
X359713Y223259D01*
X361958Y221962D01*
X364463Y221291D01*
X367057D01*
X369562Y221962D01*
X371807Y223259D01*
X373641Y225093D01*
X374938Y227338D01*
X375609Y229843D01*
Y232437D01*
X374938Y234942D01*
X373641Y237187D01*
X371996Y238832D01*
X372083Y239650D01*
X372320Y240192D01*
X372397Y240207D01*
X373405Y240881D01*
X376502Y243977D01*
X405818D01*
X408915Y240881D01*
X409923Y240207D01*
X410000Y240192D01*
X410237Y239650D01*
X410324Y238832D01*
X408679Y237187D01*
X407382Y234942D01*
X406711Y232437D01*
Y229843D01*
X407382Y227338D01*
X408679Y225093D01*
X410513Y223259D01*
X412758Y221962D01*
X415263Y221291D01*
X417857D01*
X420362Y221962D01*
X422607Y223259D01*
X424441Y225093D01*
X425738Y227338D01*
X426409Y229843D01*
Y232437D01*
X425738Y234942D01*
X424441Y237187D01*
X422928Y238700D01*
X423382Y239970D01*
X435138D01*
X435592Y238700D01*
X434079Y237187D01*
X432782Y234942D01*
X432111Y232437D01*
Y229843D01*
X432782Y227338D01*
X434079Y225093D01*
X435913Y223259D01*
X438158Y221962D01*
X440663Y221291D01*
X443257D01*
X445762Y221962D01*
X448007Y223259D01*
X449841Y225093D01*
X451138Y227338D01*
X451809Y229843D01*
Y232437D01*
X451138Y234942D01*
X449841Y237187D01*
X448328Y238700D01*
X448782Y239970D01*
X460538D01*
X460992Y238700D01*
X459479Y237187D01*
X458182Y234942D01*
X457511Y232437D01*
Y229843D01*
X458182Y227338D01*
X459479Y225093D01*
X461313Y223259D01*
X463558Y221962D01*
X466063Y221291D01*
X468657D01*
X471162Y221962D01*
X473407Y223259D01*
X475241Y225093D01*
X476538Y227338D01*
X477209Y229843D01*
Y232437D01*
X476538Y234942D01*
X475241Y237187D01*
X473728Y238700D01*
X474182Y239970D01*
X485938D01*
X486392Y238700D01*
X484879Y237187D01*
X483582Y234942D01*
X482911Y232437D01*
Y229843D01*
X483582Y227338D01*
X484879Y225093D01*
X486713Y223259D01*
X488958Y221962D01*
X491463Y221291D01*
X494057D01*
X496562Y221962D01*
X498807Y223259D01*
X500641Y225093D01*
X501938Y227338D01*
X502609Y229843D01*
Y232437D01*
X501938Y234942D01*
X500641Y237187D01*
X499128Y238700D01*
X499582Y239970D01*
X511338D01*
X511792Y238700D01*
X510279Y237187D01*
X508982Y234942D01*
X508311Y232437D01*
Y229843D01*
X508982Y227338D01*
X510279Y225093D01*
X512113Y223259D01*
X514358Y221962D01*
X516863Y221291D01*
X519457D01*
X521962Y221962D01*
X522584Y222321D01*
X578192Y166712D01*
X579201Y166039D01*
X580390Y165802D01*
X744338D01*
X744505Y164532D01*
X742958Y164118D01*
X740713Y162821D01*
X738879Y160987D01*
X737582Y158742D01*
X736911Y156237D01*
Y155956D01*
X756609D01*
Y156237D01*
X755938Y158742D01*
X754641Y160987D01*
X752807Y162821D01*
X750562Y164118D01*
X749015Y164532D01*
X749182Y165802D01*
X820674D01*
X821863Y166039D01*
X822871Y166712D01*
X836499Y180340D01*
X838499D01*
X840460Y181152D01*
X841960Y182652D01*
X842772Y184613D01*
Y186735D01*
X841960Y188696D01*
X841231Y189424D01*
X841757Y190694D01*
X843771D01*
X845252Y189213D01*
Y173346D01*
X843838Y171931D01*
X843026Y169971D01*
Y167849D01*
X843838Y165889D01*
X845339Y164388D01*
X847299Y163576D01*
X849421D01*
X851382Y164388D01*
X852882Y165889D01*
X853694Y167849D01*
Y169971D01*
X852882Y171931D01*
X851468Y173346D01*
Y190500D01*
X851231Y191689D01*
X850557Y192698D01*
X847255Y196000D01*
X846247Y196673D01*
X845058Y196910D01*
X753582D01*
X753128Y198180D01*
X754641Y199693D01*
X755938Y201938D01*
X756609Y204443D01*
Y207037D01*
X755938Y209542D01*
X754641Y211787D01*
X752807Y213621D01*
X750562Y214918D01*
X748057Y215589D01*
X745463D01*
X742958Y214918D01*
X740713Y213621D01*
X738879Y211787D01*
X737582Y209542D01*
X736911Y207037D01*
Y204443D01*
X737582Y201938D01*
X738879Y199693D01*
X740392Y198180D01*
X739938Y196910D01*
X563827D01*
X540211Y220526D01*
X540868Y221665D01*
X542263Y221291D01*
X544857D01*
X547362Y221962D01*
X549607Y223259D01*
X551441Y225093D01*
X552738Y227338D01*
X553409Y229843D01*
Y232437D01*
X552738Y234942D01*
X551441Y237187D01*
X549607Y239021D01*
X547362Y240318D01*
X544857Y240989D01*
X542263D01*
X539758Y240318D01*
X537513Y239021D01*
X535746Y237254D01*
X535307Y237287D01*
X534476Y237510D01*
Y238760D01*
X534239Y239949D01*
X533565Y240958D01*
X529248Y245275D01*
X528239Y245949D01*
X527050Y246186D01*
X413483D01*
X413356Y246320D01*
X413881Y247532D01*
X413968Y247590D01*
X573515D01*
X585541Y235564D01*
X585182Y234942D01*
X584511Y232437D01*
Y229843D01*
X585182Y227338D01*
X586479Y225093D01*
X588313Y223259D01*
X590558Y221962D01*
X591157Y221802D01*
X590990Y220532D01*
X583963D01*
X577779Y226716D01*
X578138Y227338D01*
X578809Y229843D01*
Y232437D01*
X578138Y234942D01*
X576841Y237187D01*
X575007Y239021D01*
X572762Y240318D01*
X570257Y240989D01*
X567663D01*
X565158Y240318D01*
X562913Y239021D01*
X561079Y237187D01*
X559782Y234942D01*
X559111Y232437D01*
Y229843D01*
X559782Y227338D01*
X561079Y225093D01*
X562913Y223259D01*
X565158Y221962D01*
X567663Y221291D01*
X570257D01*
X572762Y221962D01*
X573384Y222321D01*
X580479Y215226D01*
X581487Y214553D01*
X582676Y214316D01*
X600964D01*
X602153Y214553D01*
X603162Y215226D01*
X607988Y220053D01*
X608661Y221061D01*
X608898Y222250D01*
Y228718D01*
X610168Y228885D01*
X610582Y227338D01*
X611879Y225093D01*
X613713Y223259D01*
X615958Y221962D01*
X618463Y221291D01*
X621057D01*
X623562Y221962D01*
X625807Y223259D01*
X627641Y225093D01*
X628938Y227338D01*
X629609Y229843D01*
Y232437D01*
X628938Y234942D01*
X627641Y237187D01*
X625807Y239021D01*
X623562Y240318D01*
X622868Y240504D01*
Y265176D01*
X622631Y266365D01*
X621958Y267374D01*
X606209Y283121D01*
X605201Y283795D01*
X604012Y284032D01*
X526152D01*
X524738Y285446D01*
X522777Y286258D01*
X520655D01*
X518694Y285446D01*
X517194Y283946D01*
X516382Y281985D01*
Y279863D01*
X517194Y277903D01*
X518694Y276402D01*
X520655Y275590D01*
X522777D01*
X524738Y276402D01*
X526152Y277816D01*
X602725D01*
X616652Y263889D01*
Y240504D01*
X615958Y240318D01*
X613713Y239021D01*
X611879Y237187D01*
X610582Y234942D01*
X610168Y233395D01*
X608898Y233562D01*
Y250825D01*
X608661Y252014D01*
X607988Y253022D01*
X603288Y257722D01*
X602280Y258395D01*
X601091Y258632D01*
X442805D01*
X442558Y259877D01*
X444066Y260502D01*
X448429Y263176D01*
X452321Y266500D01*
X455644Y270391D01*
X458318Y274754D01*
X460276Y279482D01*
X461471Y284458D01*
X461872Y289560D01*
X461471Y294662D01*
X460276Y299638D01*
X458318Y304366D01*
X455644Y308729D01*
X452321Y312621D01*
X448429Y315944D01*
X444066Y318618D01*
X439338Y320576D01*
X434362Y321771D01*
X431570Y321991D01*
X431057Y322072D01*
X430537D01*
X429260Y322173D01*
D02*
G37*
G36*
X993902D02*
X992378D01*
X991101Y322072D01*
X990581D01*
X990068Y321991D01*
X987276Y321771D01*
X982300Y320576D01*
X977572Y318618D01*
X973209Y315944D01*
X969317Y312621D01*
X965994Y308729D01*
X963320Y304366D01*
X961362Y299638D01*
X960167Y294662D01*
X959765Y289560D01*
X960167Y284458D01*
X961362Y279482D01*
X963320Y274754D01*
X965994Y270391D01*
X969317Y266500D01*
X973209Y263176D01*
X977572Y260502D01*
X982300Y258544D01*
X987276Y257349D01*
X990068Y257129D01*
X990581Y257048D01*
X991101D01*
X992378Y256947D01*
X993902D01*
X995179Y257048D01*
X995699D01*
X996212Y257129D01*
X999004Y257349D01*
X1003980Y258544D01*
X1008708Y260502D01*
X1013071Y263176D01*
X1016963Y266500D01*
X1020286Y270391D01*
X1022960Y274754D01*
X1024918Y279482D01*
X1026113Y284458D01*
X1026515Y289560D01*
X1026113Y294662D01*
X1024918Y299638D01*
X1022960Y304366D01*
X1020286Y308729D01*
X1016963Y312621D01*
X1013071Y315944D01*
X1008708Y318618D01*
X1003980Y320576D01*
X999004Y321771D01*
X996212Y321991D01*
X995699Y322072D01*
X995179D01*
X993902Y322173D01*
D02*
G37*
G36*
X145542D02*
X144018D01*
X142741Y322072D01*
X142221D01*
X141708Y321991D01*
X138916Y321771D01*
X133940Y320576D01*
X129212Y318618D01*
X124849Y315944D01*
X120957Y312621D01*
X117634Y308729D01*
X114960Y304366D01*
X113002Y299638D01*
X111807Y294662D01*
X111405Y289560D01*
X111807Y284458D01*
X113002Y279482D01*
X114960Y274754D01*
X117634Y270391D01*
X120957Y266500D01*
X124849Y263176D01*
X129212Y260502D01*
X133940Y258544D01*
X138916Y257349D01*
X141708Y257129D01*
X142221Y257048D01*
X142741D01*
X144018Y256947D01*
X145542D01*
X146819Y257048D01*
X147339D01*
X147852Y257129D01*
X150644Y257349D01*
X155620Y258544D01*
X160348Y260502D01*
X164711Y263176D01*
X168603Y266500D01*
X171926Y270391D01*
X174600Y274754D01*
X176558Y279482D01*
X177753Y284458D01*
X178155Y289560D01*
X177753Y294662D01*
X176558Y299638D01*
X174600Y304366D01*
X171926Y308729D01*
X168603Y312621D01*
X164711Y315944D01*
X160348Y318618D01*
X155620Y320576D01*
X150644Y321771D01*
X147852Y321991D01*
X147339Y322072D01*
X146819D01*
X145542Y322173D01*
D02*
G37*
G36*
X943632Y231644D02*
X943526D01*
Y224136D01*
X951034D01*
Y224242D01*
X950453Y226410D01*
X949331Y228354D01*
X947744Y229941D01*
X945800Y231063D01*
X943632Y231644D01*
D02*
G37*
G36*
X941494D02*
X941387D01*
X939220Y231063D01*
X937276Y229941D01*
X935689Y228354D01*
X934567Y226410D01*
X933986Y224242D01*
Y224136D01*
X941494D01*
Y231644D01*
D02*
G37*
G36*
X1055491Y230054D02*
X1055286D01*
Y221796D01*
X1063544D01*
Y222001D01*
X1062912Y224359D01*
X1061691Y226474D01*
X1059964Y228201D01*
X1057849Y229422D01*
X1055491Y230054D01*
D02*
G37*
G36*
X1053254D02*
X1053049D01*
X1050690Y229422D01*
X1048575Y228201D01*
X1046849Y226474D01*
X1045628Y224359D01*
X1044996Y222001D01*
Y221796D01*
X1053254D01*
Y230054D01*
D02*
G37*
G36*
X875057Y240989D02*
X872463D01*
X869958Y240318D01*
X867713Y239021D01*
X865879Y237187D01*
X864582Y234942D01*
X863911Y232437D01*
Y229843D01*
X864582Y227338D01*
X865879Y225093D01*
X867713Y223259D01*
X869958Y221962D01*
X872463Y221291D01*
X875057D01*
X877562Y221962D01*
X879807Y223259D01*
X881641Y225093D01*
X882938Y227338D01*
X883609Y229843D01*
Y232437D01*
X882938Y234942D01*
X881641Y237187D01*
X879807Y239021D01*
X877562Y240318D01*
X875057Y240989D01*
D02*
G37*
G36*
X849657D02*
X847063D01*
X844558Y240318D01*
X842313Y239021D01*
X840479Y237187D01*
X839182Y234942D01*
X838511Y232437D01*
Y229843D01*
X839182Y227338D01*
X840479Y225093D01*
X842313Y223259D01*
X844558Y221962D01*
X847063Y221291D01*
X849657D01*
X852162Y221962D01*
X854407Y223259D01*
X856241Y225093D01*
X857538Y227338D01*
X858209Y229843D01*
Y232437D01*
X857538Y234942D01*
X856241Y237187D01*
X854407Y239021D01*
X852162Y240318D01*
X849657Y240989D01*
D02*
G37*
G36*
X824257D02*
X821663D01*
X819158Y240318D01*
X816913Y239021D01*
X815079Y237187D01*
X813782Y234942D01*
X813111Y232437D01*
Y229843D01*
X813782Y227338D01*
X815079Y225093D01*
X816913Y223259D01*
X819158Y221962D01*
X821663Y221291D01*
X824257D01*
X826762Y221962D01*
X829007Y223259D01*
X830841Y225093D01*
X832138Y227338D01*
X832809Y229843D01*
Y232437D01*
X832138Y234942D01*
X830841Y237187D01*
X829007Y239021D01*
X826762Y240318D01*
X824257Y240989D01*
D02*
G37*
G36*
X798857D02*
X796263D01*
X793758Y240318D01*
X791513Y239021D01*
X789679Y237187D01*
X788382Y234942D01*
X787711Y232437D01*
Y229843D01*
X788382Y227338D01*
X789679Y225093D01*
X791513Y223259D01*
X793758Y221962D01*
X796263Y221291D01*
X798857D01*
X801362Y221962D01*
X803607Y223259D01*
X805441Y225093D01*
X806738Y227338D01*
X807409Y229843D01*
Y232437D01*
X806738Y234942D01*
X805441Y237187D01*
X803607Y239021D01*
X801362Y240318D01*
X798857Y240989D01*
D02*
G37*
G36*
X392457D02*
X389863D01*
X387358Y240318D01*
X385113Y239021D01*
X383279Y237187D01*
X381982Y234942D01*
X381311Y232437D01*
Y229843D01*
X381982Y227338D01*
X383279Y225093D01*
X385113Y223259D01*
X387358Y221962D01*
X389863Y221291D01*
X392457D01*
X394962Y221962D01*
X397207Y223259D01*
X399041Y225093D01*
X400338Y227338D01*
X401009Y229843D01*
Y232437D01*
X400338Y234942D01*
X399041Y237187D01*
X397207Y239021D01*
X394962Y240318D01*
X392457Y240989D01*
D02*
G37*
G36*
X299409Y230124D02*
X290576D01*
Y221291D01*
X290857D01*
X293362Y221962D01*
X295607Y223259D01*
X297441Y225093D01*
X298738Y227338D01*
X299409Y229843D01*
Y230124D01*
D02*
G37*
G36*
X288544D02*
X279711D01*
Y229843D01*
X280382Y227338D01*
X281679Y225093D01*
X283513Y223259D01*
X285758Y221962D01*
X288263Y221291D01*
X288544D01*
Y230124D01*
D02*
G37*
G36*
X951034Y222104D02*
X943526D01*
Y214596D01*
X943632D01*
X945800Y215177D01*
X947744Y216299D01*
X949331Y217886D01*
X950453Y219830D01*
X951034Y221998D01*
Y222104D01*
D02*
G37*
G36*
X941494D02*
X933986D01*
Y221998D01*
X934567Y219830D01*
X935689Y217886D01*
X937276Y216299D01*
X939220Y215177D01*
X941387Y214596D01*
X941494D01*
Y222104D01*
D02*
G37*
G36*
X1063544Y219764D02*
X1055286D01*
Y211506D01*
X1055491D01*
X1057849Y212138D01*
X1059964Y213359D01*
X1061691Y215086D01*
X1062912Y217200D01*
X1063544Y219559D01*
Y219764D01*
D02*
G37*
G36*
X1053254D02*
X1044996D01*
Y219559D01*
X1045628Y217200D01*
X1046849Y215086D01*
X1048575Y213359D01*
X1050690Y212138D01*
X1053049Y211506D01*
X1053254D01*
Y219764D01*
D02*
G37*
G36*
X227544Y224974D02*
X208996D01*
Y206426D01*
X227544D01*
Y224974D01*
D02*
G37*
G36*
X392983Y219710D02*
X390861D01*
X388900Y218898D01*
X387400Y217397D01*
X386588Y215437D01*
Y213315D01*
X387400Y211355D01*
X388814Y209940D01*
Y205466D01*
X388604Y205309D01*
X386938Y205653D01*
X386341Y206688D01*
X384507Y208521D01*
X382262Y209818D01*
X379757Y210489D01*
X377163D01*
X374658Y209818D01*
X372413Y208521D01*
X370579Y206688D01*
X369282Y204442D01*
X368611Y201937D01*
Y199343D01*
X369282Y196839D01*
X370579Y194593D01*
X372413Y192759D01*
X374658Y191462D01*
X377163Y190791D01*
X379757D01*
X382262Y191462D01*
X384507Y192759D01*
X386341Y194593D01*
X386938Y195627D01*
X388604Y195971D01*
X388814Y195815D01*
Y193167D01*
X389051Y191978D01*
X389725Y190970D01*
X396455Y184238D01*
X397464Y183565D01*
X398653Y183328D01*
X443366D01*
X444781Y181914D01*
X446741Y181102D01*
X448863D01*
X450824Y181914D01*
X452324Y183414D01*
X453136Y185375D01*
Y187497D01*
X452324Y189457D01*
X451918Y189864D01*
X452575Y191002D01*
X453363Y190791D01*
X453644D01*
Y199624D01*
X444811D01*
Y199343D01*
X445482Y196839D01*
X446779Y194593D01*
X448332Y193040D01*
X447966Y191870D01*
X447892Y191770D01*
X446741D01*
X444781Y190958D01*
X443366Y189544D01*
X430611D01*
X430557Y190791D01*
X433062Y191462D01*
X435307Y192759D01*
X437141Y194593D01*
X438438Y196839D01*
X439109Y199343D01*
Y199624D01*
X419411D01*
Y199343D01*
X420082Y196839D01*
X421379Y194593D01*
X423213Y192759D01*
X425458Y191462D01*
X427963Y190791D01*
X427909Y189544D01*
X405211D01*
X405157Y190791D01*
X407662Y191462D01*
X409907Y192759D01*
X411741Y194593D01*
X413038Y196839D01*
X413709Y199343D01*
Y201937D01*
X413038Y204442D01*
X411741Y206688D01*
X409907Y208521D01*
X407662Y209818D01*
X405157Y210489D01*
X402563D01*
X400058Y209818D01*
X397813Y208521D01*
X396300Y207008D01*
X395030Y207462D01*
Y209940D01*
X396444Y211355D01*
X397256Y213315D01*
Y215437D01*
X396444Y217397D01*
X394944Y218898D01*
X392983Y219710D01*
D02*
G37*
G36*
X455957Y210489D02*
X455676D01*
Y201656D01*
X464509D01*
Y201937D01*
X463838Y204442D01*
X462541Y206688D01*
X460707Y208521D01*
X458462Y209818D01*
X455957Y210489D01*
D02*
G37*
G36*
X453644D02*
X453363D01*
X450858Y209818D01*
X448613Y208521D01*
X446779Y206688D01*
X445482Y204442D01*
X444811Y201937D01*
Y201656D01*
X453644D01*
Y210489D01*
D02*
G37*
G36*
X430557D02*
X430276D01*
Y201656D01*
X439109D01*
Y201937D01*
X438438Y204442D01*
X437141Y206688D01*
X435307Y208521D01*
X433062Y209818D01*
X430557Y210489D01*
D02*
G37*
G36*
X428244D02*
X427963D01*
X425458Y209818D01*
X423213Y208521D01*
X421379Y206688D01*
X420082Y204442D01*
X419411Y201937D01*
Y201656D01*
X428244D01*
Y210489D01*
D02*
G37*
G36*
X59641Y204854D02*
X59436D01*
Y196596D01*
X67694D01*
Y196801D01*
X67062Y199160D01*
X65841Y201274D01*
X64114Y203001D01*
X62000Y204222D01*
X59641Y204854D01*
D02*
G37*
G36*
X143461Y202314D02*
X143256D01*
Y194056D01*
X151514D01*
Y194261D01*
X150882Y196620D01*
X149661Y198734D01*
X147934Y200461D01*
X145820Y201682D01*
X143461Y202314D01*
D02*
G37*
G36*
X141224D02*
X141019D01*
X138660Y201682D01*
X136546Y200461D01*
X134819Y198734D01*
X133598Y196620D01*
X132966Y194261D01*
Y194056D01*
X141224D01*
Y202314D01*
D02*
G37*
G36*
X219491Y199974D02*
X219286D01*
Y191716D01*
X227544D01*
Y191921D01*
X226912Y194280D01*
X225691Y196395D01*
X223964Y198121D01*
X221849Y199342D01*
X219491Y199974D01*
D02*
G37*
G36*
X217254D02*
X217049D01*
X214690Y199342D01*
X212575Y198121D01*
X210849Y196395D01*
X209628Y194280D01*
X208996Y191921D01*
Y191716D01*
X217254D01*
Y199974D01*
D02*
G37*
G36*
X464509Y199624D02*
X455676D01*
Y190791D01*
X455957D01*
X458462Y191462D01*
X460707Y192759D01*
X462541Y194593D01*
X463838Y196839D01*
X464509Y199343D01*
Y199624D01*
D02*
G37*
G36*
X354357Y210489D02*
X351763D01*
X349258Y209818D01*
X347013Y208521D01*
X345179Y206688D01*
X343882Y204442D01*
X343211Y201937D01*
Y199343D01*
X343882Y196839D01*
X345179Y194593D01*
X347013Y192759D01*
X349258Y191462D01*
X351763Y190791D01*
X354357D01*
X356862Y191462D01*
X359107Y192759D01*
X360941Y194593D01*
X362238Y196839D01*
X362909Y199343D01*
Y201937D01*
X362238Y204442D01*
X360941Y206688D01*
X359107Y208521D01*
X356862Y209818D01*
X354357Y210489D01*
D02*
G37*
G36*
X943632Y206644D02*
X941387D01*
X939220Y206063D01*
X937276Y204941D01*
X935689Y203354D01*
X934567Y201410D01*
X933986Y199242D01*
Y196998D01*
X934567Y194830D01*
X935689Y192886D01*
X937276Y191299D01*
X939220Y190177D01*
X941387Y189596D01*
X943632D01*
X945800Y190177D01*
X947744Y191299D01*
X949331Y192886D01*
X950453Y194830D01*
X951034Y196998D01*
Y199242D01*
X950453Y201410D01*
X949331Y203354D01*
X947744Y204941D01*
X945800Y206063D01*
X943632Y206644D01*
D02*
G37*
G36*
X67694Y194564D02*
X59436D01*
Y186306D01*
X59641D01*
X62000Y186938D01*
X64114Y188159D01*
X65841Y189886D01*
X67062Y192000D01*
X67694Y194359D01*
Y194564D01*
D02*
G37*
G36*
X151514Y192024D02*
X143256D01*
Y183766D01*
X143461D01*
X145820Y184398D01*
X147934Y185619D01*
X149661Y187346D01*
X150882Y189460D01*
X151514Y191819D01*
Y192024D01*
D02*
G37*
G36*
X141224D02*
X132966D01*
Y191819D01*
X133598Y189460D01*
X134819Y187346D01*
X136546Y185619D01*
X138660Y184398D01*
X141019Y183766D01*
X141224D01*
Y192024D01*
D02*
G37*
G36*
X227544Y189684D02*
X219286D01*
Y181426D01*
X219491D01*
X221849Y182058D01*
X223964Y183279D01*
X225691Y185006D01*
X226912Y187120D01*
X227544Y189479D01*
Y189684D01*
D02*
G37*
G36*
X217254D02*
X208996D01*
Y189479D01*
X209628Y187120D01*
X210849Y185006D01*
X212575Y183279D01*
X214690Y182058D01*
X217049Y181426D01*
X217254D01*
Y189684D01*
D02*
G37*
G36*
X270225Y197993D02*
X268255D01*
X266434Y197239D01*
X265041Y195846D01*
X264287Y194025D01*
Y192055D01*
X265041Y190234D01*
X266434Y188841D01*
X268255Y188087D01*
X269798D01*
X277202Y180683D01*
X278211Y180009D01*
X279400Y179772D01*
X313603D01*
X314694Y178681D01*
X316515Y177927D01*
X318485D01*
X320306Y178681D01*
X321699Y180074D01*
X322453Y181895D01*
Y183865D01*
X321699Y185686D01*
X320306Y187079D01*
X318485Y187833D01*
X316515D01*
X314694Y187079D01*
X313603Y185988D01*
X280687D01*
X274193Y192482D01*
Y194025D01*
X273439Y195846D01*
X272046Y197239D01*
X270225Y197993D01*
D02*
G37*
G36*
X951034Y181644D02*
X933986D01*
Y164596D01*
X951034D01*
Y181644D01*
D02*
G37*
G36*
X1055491Y130994D02*
X1055286D01*
Y122736D01*
X1063544D01*
Y122941D01*
X1062912Y125300D01*
X1061691Y127414D01*
X1059964Y129141D01*
X1057849Y130362D01*
X1055491Y130994D01*
D02*
G37*
G36*
X1053254D02*
X1053049D01*
X1050690Y130362D01*
X1048575Y129141D01*
X1046849Y127414D01*
X1045628Y125300D01*
X1044996Y122941D01*
Y122736D01*
X1053254D01*
Y130994D01*
D02*
G37*
G36*
X1063544Y120704D02*
X1055286D01*
Y112446D01*
X1055491D01*
X1057849Y113078D01*
X1059964Y114299D01*
X1061691Y116025D01*
X1062912Y118140D01*
X1063544Y120499D01*
Y120704D01*
D02*
G37*
G36*
X1053254D02*
X1044996D01*
Y120499D01*
X1045628Y118140D01*
X1046849Y116025D01*
X1048575Y114299D01*
X1050690Y113078D01*
X1053049Y112446D01*
X1053254D01*
Y120704D01*
D02*
G37*
G36*
X219321Y103654D02*
X219116D01*
Y95396D01*
X227374D01*
Y95601D01*
X226742Y97959D01*
X225521Y100074D01*
X223794Y101801D01*
X221680Y103022D01*
X219321Y103654D01*
D02*
G37*
G36*
X217084D02*
X216879D01*
X214520Y103022D01*
X212406Y101801D01*
X210679Y100074D01*
X209458Y97959D01*
X208826Y95601D01*
Y95396D01*
X217084D01*
Y103654D01*
D02*
G37*
G36*
X59641Y103254D02*
X59436D01*
Y94996D01*
X67694D01*
Y95201D01*
X67062Y97560D01*
X65841Y99674D01*
X64114Y101401D01*
X62000Y102622D01*
X59641Y103254D01*
D02*
G37*
G36*
X57404D02*
X57199D01*
X54840Y102622D01*
X52726Y101401D01*
X50999Y99674D01*
X49778Y97560D01*
X49146Y95201D01*
Y94996D01*
X57404D01*
Y103254D01*
D02*
G37*
G36*
X148974Y95504D02*
X140716D01*
Y87246D01*
X140921D01*
X143280Y87878D01*
X145394Y89099D01*
X147121Y90826D01*
X148342Y92940D01*
X148974Y95299D01*
Y95504D01*
D02*
G37*
G36*
X138684D02*
X130426D01*
Y95299D01*
X131058Y92940D01*
X132279Y90826D01*
X134006Y89099D01*
X136120Y87878D01*
X138479Y87246D01*
X138684D01*
Y95504D01*
D02*
G37*
G36*
X227374Y93364D02*
X219116D01*
Y85106D01*
X219321D01*
X221680Y85738D01*
X223794Y86959D01*
X225521Y88685D01*
X226742Y90800D01*
X227374Y93159D01*
Y93364D01*
D02*
G37*
G36*
X217084D02*
X208826D01*
Y93159D01*
X209458Y90800D01*
X210679Y88685D01*
X212406Y86959D01*
X214520Y85738D01*
X216879Y85106D01*
X217084D01*
Y93364D01*
D02*
G37*
G36*
X67694Y92964D02*
X59436D01*
Y84706D01*
X59641D01*
X62000Y85338D01*
X64114Y86559D01*
X65841Y88286D01*
X67062Y90400D01*
X67694Y92759D01*
Y92964D01*
D02*
G37*
G36*
X57404D02*
X49146D01*
Y92759D01*
X49778Y90400D01*
X50999Y88286D01*
X52726Y86559D01*
X54840Y85338D01*
X57199Y84706D01*
X57404D01*
Y92964D01*
D02*
G37*
G36*
X875057Y88589D02*
X872463D01*
X869958Y87918D01*
X867713Y86621D01*
X865879Y84787D01*
X864582Y82542D01*
X863911Y80037D01*
Y77443D01*
X864582Y74938D01*
X865879Y72693D01*
X867713Y70859D01*
X869958Y69562D01*
X872463Y68891D01*
X875057D01*
X877562Y69562D01*
X879807Y70859D01*
X881641Y72693D01*
X882938Y74938D01*
X883609Y77443D01*
Y80037D01*
X882938Y82542D01*
X881641Y84787D01*
X879807Y86621D01*
X877562Y87918D01*
X875057Y88589D01*
D02*
G37*
G36*
X849657D02*
X847063D01*
X844558Y87918D01*
X842313Y86621D01*
X840479Y84787D01*
X839182Y82542D01*
X838511Y80037D01*
Y77443D01*
X839182Y74938D01*
X840479Y72693D01*
X842313Y70859D01*
X844558Y69562D01*
X847063Y68891D01*
X849657D01*
X852162Y69562D01*
X854407Y70859D01*
X856241Y72693D01*
X857538Y74938D01*
X858209Y77443D01*
Y80037D01*
X857538Y82542D01*
X856241Y84787D01*
X854407Y86621D01*
X852162Y87918D01*
X849657Y88589D01*
D02*
G37*
G36*
X324809Y77724D02*
X315976D01*
Y68891D01*
X316257D01*
X318762Y69562D01*
X321007Y70859D01*
X322841Y72693D01*
X324138Y74938D01*
X324809Y77443D01*
Y77724D01*
D02*
G37*
G36*
X313944D02*
X305111D01*
Y77443D01*
X305782Y74938D01*
X307079Y72693D01*
X308913Y70859D01*
X311158Y69562D01*
X313663Y68891D01*
X313944D01*
Y77724D01*
D02*
G37*
G36*
X290857Y88589D02*
X288263D01*
X285758Y87918D01*
X283513Y86621D01*
X281679Y84787D01*
X280382Y82542D01*
X279711Y80037D01*
Y77443D01*
X280382Y74938D01*
X281679Y72693D01*
X283513Y70859D01*
X285758Y69562D01*
X288263Y68891D01*
X290857D01*
X293362Y69562D01*
X295607Y70859D01*
X297441Y72693D01*
X298738Y74938D01*
X299409Y77443D01*
Y80037D01*
X298738Y82542D01*
X297441Y84787D01*
X295607Y86621D01*
X293362Y87918D01*
X290857Y88589D01*
D02*
G37*
%LPD*%
G36*
X288950Y727396D02*
X288838Y727322D01*
X287838Y725825D01*
X287487Y724060D01*
Y711060D01*
X287838Y709295D01*
X288838Y707799D01*
X288992Y707696D01*
Y702581D01*
X287451Y701040D01*
X285451D01*
X283491Y700228D01*
X281990Y698727D01*
X281178Y696767D01*
Y694645D01*
X281990Y692684D01*
X283491Y691184D01*
X285451Y690372D01*
X287573D01*
X289534Y691184D01*
X291034Y692684D01*
X291846Y694645D01*
Y696645D01*
X294298Y699097D01*
X294971Y700105D01*
X295208Y701294D01*
Y703210D01*
X295600Y703477D01*
X296478Y703697D01*
X299428Y700748D01*
X300436Y700074D01*
X301625Y699837D01*
X365125D01*
X366314Y700074D01*
X367323Y700748D01*
X370498Y703923D01*
X371171Y704931D01*
X371408Y706120D01*
Y707696D01*
X371562Y707799D01*
X372561Y709295D01*
X372913Y711060D01*
Y724060D01*
X372561Y725825D01*
X372430Y726022D01*
X373029Y727142D01*
X376271D01*
X376870Y726022D01*
X376739Y725825D01*
X376387Y724060D01*
Y711060D01*
X376739Y709295D01*
X377738Y707799D01*
X377892Y707696D01*
Y704867D01*
X359139Y686114D01*
X276623D01*
X254419Y708317D01*
X253411Y708991D01*
X252222Y709228D01*
X221304D01*
Y717644D01*
X166168D01*
X165682Y718817D01*
X175531Y728666D01*
X288565D01*
X288950Y727396D01*
D02*
G37*
G36*
X54195Y508129D02*
X71314D01*
Y506112D01*
X47715Y482513D01*
X46542Y482999D01*
Y510949D01*
X48912Y513320D01*
X54195D01*
Y508129D01*
D02*
G37*
G36*
X67017Y393788D02*
X68026Y393115D01*
X69215Y392878D01*
X180066D01*
X180451Y391608D01*
X180439Y391600D01*
X179993Y390933D01*
X179837Y390145D01*
Y387664D01*
X58437D01*
X51207Y394894D01*
Y407940D01*
X52380Y408426D01*
X67017Y393788D01*
D02*
G37*
G36*
X377907Y490595D02*
X377880Y490245D01*
X377554Y489325D01*
X362519D01*
X361330Y489089D01*
X360322Y488415D01*
X353475Y481568D01*
X352205Y482094D01*
Y487551D01*
X333595D01*
Y482360D01*
X333375D01*
X332186Y482124D01*
X331177Y481450D01*
X325462Y475735D01*
X324789Y474727D01*
X324552Y473538D01*
Y395393D01*
X323949Y394990D01*
X323503Y394323D01*
X323346Y393535D01*
Y382025D01*
X322971Y381568D01*
X319649D01*
X319273Y382025D01*
Y393535D01*
X319117Y394323D01*
X318671Y394990D01*
X318068Y395393D01*
Y488044D01*
X321962Y491938D01*
X376564D01*
X377907Y490595D01*
D02*
G37*
G36*
X364263Y462283D02*
X366223Y461471D01*
X368223D01*
X371034Y458660D01*
Y435102D01*
X362518D01*
Y462232D01*
X363788Y462758D01*
X364263Y462283D01*
D02*
G37*
G36*
X333595Y473419D02*
Y470954D01*
X351730D01*
Y468038D01*
X333595D01*
Y451441D01*
X337154D01*
X338003Y450172D01*
X337566Y449117D01*
Y446995D01*
X338378Y445034D01*
X339879Y443534D01*
X341839Y442722D01*
X343961D01*
X345922Y443534D01*
X347422Y445034D01*
X348234Y446995D01*
Y449117D01*
X347797Y450172D01*
X348646Y451441D01*
X351730D01*
Y439691D01*
X350863Y438824D01*
X350189Y437815D01*
X349952Y436626D01*
Y419075D01*
X348682Y418823D01*
X348060Y420326D01*
X346666Y421720D01*
X344846Y422473D01*
X342875D01*
X341055Y421720D01*
X339662Y420326D01*
X338908Y418506D01*
Y416963D01*
X338162Y416217D01*
X337489Y415209D01*
X337252Y414020D01*
Y395393D01*
X336649Y394990D01*
X336203Y394323D01*
X336046Y393535D01*
Y382025D01*
X335671Y381568D01*
X332349D01*
X331973Y382025D01*
Y393535D01*
X331817Y394323D01*
X331371Y394990D01*
X330768Y395393D01*
Y472251D01*
X332422Y473904D01*
X333595Y473419D01*
D02*
G37*
G36*
X349952Y415966D02*
Y395393D01*
X349349Y394990D01*
X348903Y394323D01*
X348746Y393535D01*
Y382025D01*
X348371Y381568D01*
X345049D01*
X344674Y382025D01*
Y393535D01*
X344517Y394323D01*
X344071Y394990D01*
X343468Y395393D01*
Y412567D01*
X344846D01*
X346666Y413322D01*
X348060Y414715D01*
X348682Y416218D01*
X349952Y415966D01*
D02*
G37*
G36*
X658715Y473213D02*
X654994Y469492D01*
X654320Y468483D01*
X654083Y467294D01*
Y449566D01*
X654320Y448377D01*
X654994Y447369D01*
X660060Y442303D01*
X661068Y441629D01*
X662257Y441392D01*
X664193D01*
X668229Y437356D01*
Y435102D01*
X647760D01*
Y470408D01*
X648685D01*
X650506Y471162D01*
X651899Y472555D01*
X652653Y474376D01*
Y476346D01*
X651899Y478167D01*
X650506Y479560D01*
X648685Y480314D01*
X647541D01*
X647015Y481584D01*
X649495Y484064D01*
X658715D01*
Y473213D01*
D02*
G37*
G36*
X680152Y452738D02*
Y434777D01*
X677368Y433624D01*
X674927Y431751D01*
X674161Y430753D01*
X672891Y431184D01*
Y437422D01*
X673431Y438231D01*
X673668Y439420D01*
X673431Y440609D01*
X672757Y441618D01*
X667678Y446698D01*
X666669Y447371D01*
X665480Y447608D01*
X664156D01*
X663836Y448035D01*
X664472Y449305D01*
X677325D01*
Y454011D01*
X678595Y454295D01*
X680152Y452738D01*
D02*
G37*
G36*
X986375Y464142D02*
X1004985D01*
Y466522D01*
X1006255Y467201D01*
X1006542Y467009D01*
Y465201D01*
X1006779Y464012D01*
X1007452Y463004D01*
X1010628Y459828D01*
X1011636Y459155D01*
X1012825Y458918D01*
X1015285D01*
Y446695D01*
X1020512D01*
Y441325D01*
X1020749Y440136D01*
X1021423Y439128D01*
X1030694Y429856D01*
X1031155Y429548D01*
X1031194Y429310D01*
X1030017Y426468D01*
X1029615Y423418D01*
Y418338D01*
X1030017Y415288D01*
X1031194Y412446D01*
X1033067Y410005D01*
X1033803Y409440D01*
X1033394Y408238D01*
X1024006D01*
X1023597Y409440D01*
X1024333Y410005D01*
X1026206Y412446D01*
X1027383Y415288D01*
X1027785Y418338D01*
Y423418D01*
X1027383Y426468D01*
X1026206Y429310D01*
X1024333Y431751D01*
X1021892Y433624D01*
X1019050Y434801D01*
X1016000Y435203D01*
X1012950Y434801D01*
X1010108Y433624D01*
X1007667Y431751D01*
X1005794Y429310D01*
X1004617Y426468D01*
X1004215Y423418D01*
Y418338D01*
X1004617Y415288D01*
X1005794Y412446D01*
X1007667Y410005D01*
X1008403Y409440D01*
X1007994Y408238D01*
X998606D01*
X998197Y409440D01*
X998933Y410005D01*
X1000806Y412446D01*
X1001983Y415288D01*
X1002385Y418338D01*
Y423418D01*
X1001983Y426468D01*
X1000806Y429310D01*
X998933Y431751D01*
X996492Y433624D01*
X995983Y433835D01*
X995735Y435080D01*
X997878Y437223D01*
X998551Y438231D01*
X998788Y439420D01*
Y444629D01*
X1004985D01*
Y461226D01*
X986375D01*
Y444629D01*
X992572D01*
Y440707D01*
X988402Y436538D01*
X987729Y435529D01*
X987585Y434806D01*
X987550Y434801D01*
X984708Y433624D01*
X982267Y431751D01*
X980394Y429310D01*
X979217Y426468D01*
X978815Y423418D01*
Y418338D01*
X979217Y415288D01*
X980394Y412446D01*
X982267Y410005D01*
X983003Y409440D01*
X982594Y408238D01*
X973206D01*
X972797Y409440D01*
X973533Y410005D01*
X975406Y412446D01*
X976583Y415288D01*
X976985Y418338D01*
Y423418D01*
X976583Y426468D01*
X975406Y429310D01*
X973533Y431751D01*
X971092Y433624D01*
X968308Y434777D01*
Y444629D01*
X974505D01*
Y461226D01*
X955895D01*
Y444629D01*
X962092D01*
Y434777D01*
X959308Y433624D01*
X956867Y431751D01*
X954994Y429310D01*
X953817Y426468D01*
X953415Y423418D01*
Y418338D01*
X953817Y415288D01*
X954994Y412446D01*
X956867Y410005D01*
X957603Y409440D01*
X957194Y408238D01*
X953643D01*
X952754Y408061D01*
X951484Y408764D01*
Y435102D01*
X929700D01*
Y436438D01*
X930225Y436963D01*
X930899Y437972D01*
X931135Y439161D01*
Y468905D01*
X931562Y469332D01*
X955895D01*
Y464142D01*
X974505D01*
Y479238D01*
X986375D01*
Y464142D01*
D02*
G37*
G36*
X908421Y494224D02*
X861910Y447714D01*
X861628Y447290D01*
X860358Y447676D01*
Y492489D01*
X863363Y495494D01*
X907923D01*
X908421Y494224D01*
D02*
G37*
G36*
X902555Y467059D02*
Y463334D01*
X919581D01*
Y460419D01*
X902555D01*
Y443821D01*
X904128D01*
X904654Y442551D01*
X904290Y442188D01*
X903478Y440227D01*
Y438105D01*
X904290Y436144D01*
X905790Y434644D01*
X907751Y433832D01*
X908116D01*
X908642Y432562D01*
X894154Y418074D01*
X893199Y418834D01*
X893953Y420655D01*
Y422625D01*
X893199Y424446D01*
X892108Y425537D01*
Y443143D01*
X893199Y444234D01*
X893953Y446055D01*
Y448025D01*
X893199Y449846D01*
X891806Y451239D01*
X889985Y451993D01*
X888015D01*
X887118Y451621D01*
X886398Y452698D01*
X901285Y467585D01*
X902555Y467059D01*
D02*
G37*
G36*
X884419Y448922D02*
X884047Y448025D01*
Y446055D01*
X884801Y444234D01*
X885892Y443143D01*
Y425537D01*
X884801Y424446D01*
X884047Y422625D01*
Y420655D01*
X884801Y418834D01*
X886194Y417441D01*
X888015Y416687D01*
X889985D01*
X891806Y417441D01*
X892566Y416486D01*
X880452Y404372D01*
X879779Y403364D01*
X879542Y402175D01*
Y392003D01*
X878939Y391600D01*
X878493Y390933D01*
X878336Y390145D01*
Y378635D01*
X878359Y378520D01*
X877481Y377250D01*
X875119D01*
X874241Y378520D01*
X874264Y378635D01*
Y390145D01*
X874107Y390933D01*
X873661Y391600D01*
X873058Y392003D01*
Y439357D01*
X883342Y449642D01*
X884419Y448922D01*
D02*
G37*
G36*
X923484Y436818D02*
Y406908D01*
X923721Y405719D01*
X924395Y404711D01*
X930342Y398763D01*
Y392003D01*
X929739Y391600D01*
X929293Y390933D01*
X929137Y390145D01*
Y378635D01*
X929293Y377847D01*
X929438Y377631D01*
X928852Y376361D01*
X925348D01*
X924762Y377631D01*
X924907Y377847D01*
X925063Y378635D01*
Y390145D01*
X924907Y390933D01*
X924461Y391600D01*
X923793Y392047D01*
X923756Y392054D01*
X923621Y392730D01*
X922947Y393739D01*
X915708Y400978D01*
X914700Y401651D01*
X913511Y401888D01*
X896239D01*
X895050Y401651D01*
X894042Y400978D01*
X887028Y393964D01*
X886150Y394184D01*
X885758Y394451D01*
Y400888D01*
X922214Y437344D01*
X923484Y436818D01*
D02*
G37*
G36*
X825844Y353480D02*
X802115Y329752D01*
X696840D01*
X695425Y331166D01*
X693465Y331978D01*
X691343D01*
X689382Y331166D01*
X687882Y329665D01*
X687070Y327705D01*
Y325583D01*
X687882Y323623D01*
X689382Y322122D01*
X691343Y321310D01*
X693465D01*
X695425Y322122D01*
X696840Y323536D01*
X803402D01*
X804591Y323773D01*
X805600Y324446D01*
X831235Y350082D01*
X870977D01*
X871463Y348909D01*
X871270Y348716D01*
X870458Y346755D01*
Y344755D01*
X867753Y342049D01*
X867079Y341041D01*
X866842Y339852D01*
Y339504D01*
X866239Y339101D01*
X865793Y338433D01*
X865637Y337645D01*
Y326135D01*
X865793Y325347D01*
X866239Y324679D01*
X866631Y324418D01*
X866350Y323148D01*
X861782D01*
X860902Y324082D01*
X860961Y324679D01*
X861407Y325347D01*
X861563Y326135D01*
Y337645D01*
X861407Y338433D01*
X860961Y339101D01*
X860293Y339547D01*
X859505Y339704D01*
X854995D01*
X854207Y339547D01*
X853539Y339101D01*
X853093Y338433D01*
X852936Y337645D01*
Y326135D01*
X853093Y325347D01*
X853539Y324679D01*
X854142Y324277D01*
Y323215D01*
X854379Y322026D01*
X855052Y321017D01*
X858227Y317843D01*
X859236Y317169D01*
X860425Y316932D01*
X898525D01*
X899714Y317169D01*
X900723Y317843D01*
X904406Y321525D01*
X905079Y322534D01*
X905154Y322909D01*
X905795Y324077D01*
X910305D01*
X911093Y324233D01*
X911761Y324679D01*
X912207Y325347D01*
X912364Y326135D01*
Y337645D01*
X912207Y338433D01*
X911761Y339101D01*
X912540Y340046D01*
X916260D01*
X916413Y339861D01*
X916823Y338776D01*
X916593Y338433D01*
X916436Y337645D01*
Y326135D01*
X916593Y325347D01*
X917039Y324679D01*
X917336Y324481D01*
X914592Y257489D01*
X725352D01*
X725099Y258759D01*
X729308Y260502D01*
X733671Y263176D01*
X737562Y266500D01*
X740886Y270391D01*
X743560Y274754D01*
X745518Y279482D01*
X746713Y284458D01*
X747114Y289560D01*
X746713Y294662D01*
X745518Y299638D01*
X743560Y304366D01*
X740886Y308729D01*
X737562Y312621D01*
X733671Y315944D01*
X729308Y318618D01*
X724580Y320576D01*
X719604Y321771D01*
X716812Y321991D01*
X716299Y322072D01*
X715779D01*
X714502Y322173D01*
X712978D01*
X711701Y322072D01*
X711181D01*
X710668Y321991D01*
X707876Y321771D01*
X702900Y320576D01*
X698172Y318618D01*
X693809Y315944D01*
X689918Y312621D01*
X686594Y308729D01*
X683920Y304366D01*
X681962Y299638D01*
X680767Y294662D01*
X680366Y289560D01*
X680767Y284458D01*
X681962Y279482D01*
X683920Y274754D01*
X686594Y270391D01*
X689918Y266500D01*
X693809Y263176D01*
X698172Y260502D01*
X702381Y258759D01*
X702128Y257489D01*
X693801D01*
X692612Y257252D01*
X691603Y256579D01*
X674984Y239959D01*
X674362Y240318D01*
X671857Y240989D01*
X669263D01*
X666758Y240318D01*
X664513Y239021D01*
X662679Y237187D01*
X661382Y234942D01*
X660711Y232437D01*
Y229843D01*
X661382Y227338D01*
X662679Y225093D01*
X664513Y223259D01*
X666758Y221962D01*
X669263Y221291D01*
X671857D01*
X673156Y221639D01*
X673814Y220501D01*
X669146Y215833D01*
X664862D01*
X653979Y226716D01*
X654338Y227338D01*
X655009Y229843D01*
Y232437D01*
X654338Y234942D01*
X653979Y235564D01*
X668948Y250532D01*
X669621Y251541D01*
X669858Y252730D01*
Y326817D01*
X670461Y327220D01*
X670907Y327887D01*
X671064Y328675D01*
Y340185D01*
X670907Y340973D01*
X670461Y341641D01*
X669858Y342044D01*
Y346058D01*
X671212Y347412D01*
X788786D01*
Y342496D01*
X806334D01*
Y347412D01*
X813432D01*
X814622Y347649D01*
X815630Y348322D01*
X821961Y354654D01*
X825358D01*
X825844Y353480D01*
D02*
G37*
G36*
X619179Y138716D02*
X620187Y138042D01*
X621376Y137805D01*
X739301D01*
X739827Y136535D01*
X738879Y135587D01*
X737582Y133342D01*
X736911Y130837D01*
Y128243D01*
X737582Y125738D01*
X738879Y123493D01*
X740713Y121659D01*
X742958Y120362D01*
X744718Y119891D01*
X744550Y118621D01*
X420919D01*
X420392Y119891D01*
X420759Y120257D01*
X421513Y122078D01*
Y124048D01*
X420759Y125869D01*
X419366Y127262D01*
X417545Y128016D01*
X416002D01*
X413191Y130827D01*
Y134660D01*
X414282Y135751D01*
X415036Y137572D01*
Y139542D01*
X414282Y141363D01*
X412889Y142756D01*
X411068Y143510D01*
X409098D01*
X407277Y142756D01*
X405884Y141363D01*
X405130Y139542D01*
Y137572D01*
X405884Y135751D01*
X406975Y134660D01*
Y129540D01*
X407212Y128351D01*
X407886Y127343D01*
X411607Y123621D01*
Y122078D01*
X412361Y120257D01*
X412728Y119891D01*
X412201Y118621D01*
X368571D01*
X350244Y136947D01*
X349236Y137621D01*
X348047Y137858D01*
X347249D01*
X346723Y139128D01*
X354347Y146752D01*
X611142D01*
X619179Y138716D01*
D02*
G37*
G36*
X232629Y121755D02*
X233637Y121081D01*
X234826Y120844D01*
X278637D01*
X279163Y119574D01*
X278180Y118591D01*
X277368Y116631D01*
Y114509D01*
X277983Y113023D01*
X277316Y111753D01*
X230122D01*
X227374Y114501D01*
Y125350D01*
X228547Y125836D01*
X232629Y121755D01*
D02*
G37*
G36*
X365087Y113316D02*
X365890Y112779D01*
X365808Y111862D01*
X365679Y111509D01*
X339164D01*
X324524Y126150D01*
X323515Y126823D01*
X322326Y127060D01*
X236113D01*
X232704Y130469D01*
X233190Y131642D01*
X346760D01*
X365087Y113316D01*
D02*
G37*
G36*
X203582Y130469D02*
X184171Y111058D01*
X149172D01*
X148974Y112246D01*
X148974D01*
Y126399D01*
X154218Y131642D01*
X203096D01*
X203582Y130469D01*
D02*
G37*
G36*
X150321Y136535D02*
X144579Y130794D01*
X130426D01*
Y112246D01*
X130426D01*
X130228Y111058D01*
X67694D01*
Y123859D01*
X81641Y137805D01*
X149795D01*
X150321Y136535D01*
D02*
G37*
G36*
X308084Y111192D02*
X307079Y110187D01*
X305782Y107942D01*
X305111Y105437D01*
Y102843D01*
X305782Y100338D01*
X307079Y98093D01*
X308913Y96259D01*
X309677Y95818D01*
X309336Y94548D01*
X303409D01*
X287214Y110743D01*
X286965Y111175D01*
X286956Y111267D01*
X288050Y112462D01*
X307558D01*
X308084Y111192D01*
D02*
G37*
G36*
X661741Y83164D02*
X661382Y82542D01*
X660711Y80037D01*
Y77443D01*
X661382Y74938D01*
X662679Y72693D01*
X663627Y71745D01*
X663101Y70475D01*
X652619D01*
X652093Y71745D01*
X653041Y72693D01*
X654338Y74938D01*
X655009Y77443D01*
Y77724D01*
X635311D01*
Y77443D01*
X635982Y74938D01*
X637279Y72693D01*
X638227Y71745D01*
X637701Y70475D01*
X627219D01*
X626693Y71745D01*
X627641Y72693D01*
X628938Y74938D01*
X629609Y77443D01*
Y80037D01*
X628938Y82542D01*
X627641Y84787D01*
X625807Y86621D01*
X623562Y87918D01*
X621057Y88589D01*
X618463D01*
X615958Y87918D01*
X613713Y86621D01*
X611879Y84787D01*
X610582Y82542D01*
X609911Y80037D01*
Y77443D01*
X610582Y74938D01*
X611879Y72693D01*
X612827Y71745D01*
X612301Y70475D01*
X601819D01*
X601293Y71745D01*
X602241Y72693D01*
X603538Y74938D01*
X604209Y77443D01*
Y80037D01*
X603538Y82542D01*
X602241Y84787D01*
X600407Y86621D01*
X598162Y87918D01*
X595657Y88589D01*
X593063D01*
X590558Y87918D01*
X589936Y87559D01*
X585353Y92142D01*
X585573Y93020D01*
X585840Y93412D01*
X633739D01*
X635154Y91998D01*
X637114Y91186D01*
X639236D01*
X641197Y91998D01*
X642697Y93498D01*
X643509Y95459D01*
Y97581D01*
X642818Y99249D01*
X643329Y100225D01*
X643549Y100463D01*
X644350Y100555D01*
X661741Y83164D01*
D02*
G37*
G36*
X331488Y101632D02*
X332497Y100958D01*
X333686Y100721D01*
X396419D01*
X396905Y99548D01*
X388963Y91606D01*
X388289Y90597D01*
X388052Y89408D01*
Y88104D01*
X387358Y87918D01*
X385113Y86621D01*
X384108Y85616D01*
X382838Y86142D01*
Y86360D01*
X382601Y87549D01*
X381927Y88558D01*
X376847Y93638D01*
X375839Y94311D01*
X374650Y94548D01*
X320584D01*
X320243Y95818D01*
X321007Y96259D01*
X322841Y98093D01*
X324138Y100338D01*
X324809Y102843D01*
Y105437D01*
X324414Y106910D01*
X325553Y107567D01*
X331488Y101632D01*
D02*
G37*
G36*
X769052Y95811D02*
Y88104D01*
X768358Y87918D01*
X766113Y86621D01*
X764279Y84787D01*
X763838Y84023D01*
X762568Y84364D01*
Y88843D01*
X762331Y90032D01*
X761657Y91041D01*
X760387Y92311D01*
X759379Y92984D01*
X758190Y93221D01*
X748970D01*
X748802Y94491D01*
X750562Y94962D01*
X752807Y96259D01*
X754641Y98093D01*
X755938Y100338D01*
X756609Y102843D01*
Y105437D01*
X756235Y106832D01*
X757374Y107489D01*
X769052Y95811D01*
D02*
G37*
G36*
X739827Y111135D02*
X738879Y110187D01*
X737582Y107942D01*
X736911Y105437D01*
Y102843D01*
X737582Y100338D01*
X738879Y98093D01*
X740713Y96259D01*
X742958Y94962D01*
X744718Y94491D01*
X744550Y93221D01*
X739718D01*
X738529Y92984D01*
X737521Y92311D01*
X733132Y87922D01*
X732459Y86914D01*
X732222Y85725D01*
Y81162D01*
X730952Y80995D01*
X730538Y82542D01*
X729241Y84787D01*
X727407Y86621D01*
X725162Y87918D01*
X722657Y88589D01*
X720063D01*
X717558Y87918D01*
X716936Y87559D01*
X693896Y110599D01*
X693093Y111135D01*
X693175Y112052D01*
X693304Y112405D01*
X739301D01*
X739827Y111135D01*
D02*
G37*
G36*
X794452Y100891D02*
Y88104D01*
X793758Y87918D01*
X791513Y86621D01*
X789679Y84787D01*
X788382Y82542D01*
X787711Y80037D01*
Y77443D01*
X788382Y74938D01*
X789679Y72693D01*
X790627Y71745D01*
X790101Y70475D01*
X779619D01*
X779093Y71745D01*
X780041Y72693D01*
X781338Y74938D01*
X782009Y77443D01*
Y80037D01*
X781338Y82542D01*
X780041Y84787D01*
X778207Y86621D01*
X775962Y87918D01*
X775268Y88104D01*
Y97098D01*
X775031Y98287D01*
X774358Y99296D01*
X755943Y117711D01*
X754934Y118384D01*
X753745Y118621D01*
X748970D01*
X748802Y119891D01*
X750562Y120362D01*
X752807Y121659D01*
X754641Y123493D01*
X755938Y125738D01*
X756609Y128243D01*
Y130837D01*
X755938Y133342D01*
X754641Y135587D01*
X753693Y136535D01*
X754219Y137805D01*
X757538D01*
X794452Y100891D01*
D02*
G37*
G36*
X553691Y94879D02*
X553238Y94692D01*
X551738Y93191D01*
X550926Y91231D01*
Y89109D01*
X551738Y87149D01*
X553238Y85648D01*
X555199Y84836D01*
X557321D01*
X559282Y85648D01*
X560384Y86751D01*
X561146Y86651D01*
X561604Y85313D01*
X561079Y84787D01*
X559782Y82542D01*
X559111Y80037D01*
Y77443D01*
X559782Y74938D01*
X561079Y72693D01*
X562027Y71745D01*
X561501Y70475D01*
X551019D01*
X550493Y71745D01*
X551441Y72693D01*
X552738Y74938D01*
X553409Y77443D01*
Y80037D01*
X552738Y82542D01*
X551441Y84787D01*
X549607Y86621D01*
X547362Y87918D01*
X544857Y88589D01*
X542263D01*
X539758Y87918D01*
X539136Y87559D01*
X533565Y93130D01*
X532557Y93803D01*
X531368Y94040D01*
X409566D01*
X408726Y94879D01*
X409252Y96149D01*
X553438D01*
X553691Y94879D01*
D02*
G37*
G36*
X712541Y83164D02*
X712182Y82542D01*
X711511Y80037D01*
Y77443D01*
X712182Y74938D01*
X713479Y72693D01*
X715313Y70859D01*
X717558Y69562D01*
X720063Y68891D01*
X722657D01*
X725162Y69562D01*
X727407Y70859D01*
X729241Y72693D01*
X730538Y74938D01*
X730952Y76485D01*
X732222Y76318D01*
Y70629D01*
X727496Y65903D01*
X689177D01*
X688691Y67076D01*
X691536Y69921D01*
X692158Y69562D01*
X694663Y68891D01*
X697257D01*
X699762Y69562D01*
X702007Y70859D01*
X703841Y72693D01*
X705138Y74938D01*
X705809Y77443D01*
Y80037D01*
X705138Y82542D01*
X703841Y84787D01*
X702007Y86621D01*
X699762Y87918D01*
X697257Y88589D01*
X694663D01*
X692158Y87918D01*
X689913Y86621D01*
X688079Y84787D01*
X686782Y82542D01*
X686111Y80037D01*
Y77443D01*
X686782Y74938D01*
X687141Y74316D01*
X683300Y70475D01*
X678019D01*
X677493Y71745D01*
X678441Y72693D01*
X679738Y74938D01*
X680409Y77443D01*
Y80037D01*
X679738Y82542D01*
X678441Y84787D01*
X676607Y86621D01*
X674362Y87918D01*
X671857Y88589D01*
X669263D01*
X666758Y87918D01*
X666136Y87559D01*
X649575Y104120D01*
X650061Y105293D01*
X690412D01*
X712541Y83164D01*
D02*
G37*
%LPC*%
G36*
X681705Y342244D02*
X677195D01*
X676407Y342087D01*
X675739Y341641D01*
X675293Y340973D01*
X675136Y340185D01*
Y328675D01*
X675293Y327887D01*
X675739Y327220D01*
X676407Y326773D01*
X677195Y326617D01*
X681705D01*
X682493Y326773D01*
X683161Y327220D01*
X683607Y327887D01*
X683764Y328675D01*
Y340185D01*
X683607Y340973D01*
X683161Y341641D01*
X682493Y342087D01*
X681705Y342244D01*
D02*
G37*
G36*
X646457Y88589D02*
X646176D01*
Y79756D01*
X655009D01*
Y80037D01*
X654338Y82542D01*
X653041Y84787D01*
X651207Y86621D01*
X648962Y87918D01*
X646457Y88589D01*
D02*
G37*
G36*
X644144D02*
X643863D01*
X641358Y87918D01*
X639113Y86621D01*
X637279Y84787D01*
X635982Y82542D01*
X635311Y80037D01*
Y79756D01*
X644144D01*
Y88589D01*
D02*
G37*
%LPD*%
G36*
X388891Y255938D02*
X388405Y254765D01*
X364945D01*
X360426Y259284D01*
Y261284D01*
X361431Y262175D01*
X362159Y261874D01*
X364281D01*
X366241Y262686D01*
X367656Y264100D01*
X380729D01*
X388891Y255938D01*
D02*
G37*
G36*
X602682Y249538D02*
Y238542D01*
X601412Y238016D01*
X600407Y239021D01*
X598162Y240318D01*
X595657Y240989D01*
X593063D01*
X590558Y240318D01*
X589936Y239959D01*
X578652Y251243D01*
X579138Y252416D01*
X599804D01*
X602682Y249538D01*
D02*
G37*
G36*
X833645Y189424D02*
X832916Y188696D01*
X832104Y186735D01*
Y184735D01*
X819387Y172018D01*
X754162D01*
X753636Y173288D01*
X754641Y174293D01*
X755938Y176538D01*
X756609Y179043D01*
Y181637D01*
X755938Y184142D01*
X754641Y186387D01*
X752807Y188221D01*
X751773Y188818D01*
X751429Y190484D01*
X751585Y190694D01*
X833119D01*
X833645Y189424D01*
D02*
G37*
G36*
X742091Y190484D02*
X741747Y188818D01*
X740713Y188221D01*
X738879Y186387D01*
X737582Y184142D01*
X736911Y181637D01*
Y179043D01*
X737582Y176538D01*
X738879Y174293D01*
X739884Y173288D01*
X739358Y172018D01*
X581677D01*
X564174Y189521D01*
X564660Y190694D01*
X741935D01*
X742091Y190484D01*
D02*
G37*
D15*
X845820Y622300D02*
D03*
X820820D02*
D03*
X820420Y698500D02*
D03*
X795420D02*
D03*
X663340D02*
D03*
X688340D02*
D03*
X942510Y223120D02*
D03*
Y198120D02*
D03*
X661200Y622300D02*
D03*
X686200D02*
D03*
X711200D02*
D03*
D16*
X795820D02*
D03*
X770420Y698500D02*
D03*
X638340D02*
D03*
X636200Y622300D02*
D03*
D20*
X58420Y220580D02*
D03*
X142240Y218040D02*
D03*
X218270Y215700D02*
D03*
X58420Y118980D02*
D03*
X139700Y121520D02*
D03*
X218100Y119380D02*
D03*
X1054270Y96720D02*
D03*
Y195780D02*
D03*
D21*
X58420Y195580D02*
D03*
X142240Y193040D02*
D03*
X218270Y190700D02*
D03*
X58420Y93980D02*
D03*
X139700Y96520D02*
D03*
X218100Y94380D02*
D03*
X1054270Y121720D02*
D03*
Y220780D02*
D03*
D26*
X942510Y173120D02*
D03*
D29*
X753745Y242570D02*
X758705Y237610D01*
Y228511D02*
X764540Y222676D01*
X758705Y228511D02*
Y237610D01*
X764540Y205740D02*
Y222676D01*
X416560Y617220D02*
X512572D01*
X547313Y582479D01*
X339068Y604625D02*
X342900Y608457D01*
X323817Y599440D02*
X329002Y604625D01*
X339068D01*
X322580Y599440D02*
X323817D01*
X177800Y516023D02*
X190097D01*
X195580Y510540D01*
X147320Y474577D02*
X149860Y477117D01*
Y487172D01*
X85852Y475488D02*
Y511175D01*
X85344Y474980D02*
X85852Y475488D01*
Y511175D02*
X90537Y515860D01*
X234950Y320548D02*
Y331890D01*
X603250Y334430D02*
Y347472D01*
X609600Y353822D01*
X1056640Y455063D02*
X1057043Y454660D01*
X1069340D01*
X1049020Y509031D02*
X1051560Y511571D01*
Y523643D01*
X1049020Y508000D02*
Y509031D01*
X889000Y421640D02*
Y447040D01*
X908050Y384390D02*
Y392303D01*
X896239Y398780D02*
X913511D01*
X920750Y391541D01*
X889000D02*
X896239Y398780D01*
X739140Y498871D02*
X744220Y503951D01*
Y518563D01*
X739140Y497840D02*
Y498871D01*
X647700Y474980D02*
Y475361D01*
X644652Y471932D02*
X647700Y474980D01*
X644652Y406916D02*
Y471932D01*
Y406916D02*
X649234Y402334D01*
X649468D01*
X654050Y397752D01*
Y386930D02*
Y397752D01*
X657191Y449566D02*
X662257Y444500D01*
X665480D01*
X667013Y477117D02*
X668020D01*
X657191Y467294D02*
X667013Y477117D01*
X657191Y449566D02*
Y467294D01*
X665480Y444500D02*
X670560Y439420D01*
X744363Y397510D02*
X762508D01*
X641350Y386930D02*
Y397510D01*
X500380Y479657D02*
Y492760D01*
X340360Y414020D02*
X343861Y417520D01*
X340360Y387780D02*
Y414020D01*
X367284Y466805D02*
X374142Y459947D01*
Y420878D02*
Y459947D01*
X353884Y292100D02*
X378460D01*
X353060Y327025D02*
Y331780D01*
Y335280D01*
X347407Y326127D02*
X353060Y331780D01*
X347407Y253681D02*
Y326127D01*
X353060Y327025D02*
X367665Y312420D01*
X330200Y297180D02*
X330729Y297709D01*
X299720Y297180D02*
X330200D01*
X269240Y266700D02*
X299720Y297180D01*
X269240Y193040D02*
X279400Y182880D01*
X317500D01*
X410083Y129540D02*
Y138557D01*
X621376Y140913D02*
X758825D01*
X353060Y149860D02*
X612429D01*
X621376Y140913D01*
X344113D02*
X353060Y149860D01*
X80353Y140913D02*
X344113D01*
X58420Y118980D02*
X80353Y140913D01*
X758825D02*
X797560Y102178D01*
X410083Y129540D02*
X416560Y123063D01*
X378460Y327660D02*
Y335280D01*
X365760D02*
X366917Y334123D01*
Y323455D02*
X367792Y322580D01*
X366917Y323455D02*
Y334123D01*
X401685Y312420D02*
X412861Y323596D01*
X367665Y312420D02*
X401685D01*
X905383Y349250D02*
X938022D01*
X666750Y347345D02*
Y357505D01*
Y334430D02*
Y347345D01*
X590550Y354205D02*
Y357505D01*
X884682Y320040D02*
X898525D01*
X860425D02*
X884682D01*
X589281Y355474D02*
X590550Y354205D01*
X587375Y357380D02*
X589281Y355474D01*
X439420Y357380D02*
X587375D01*
X391160Y342900D02*
Y352425D01*
X314960Y342900D02*
Y357632D01*
X261919Y322281D02*
X263525Y320675D01*
X260350Y323850D02*
X261919Y322281D01*
X260350Y331890D02*
X261919Y322281D01*
X262700Y317500D01*
X555244Y637540D02*
X563880D01*
X554228D02*
X555244D01*
X553974Y626500D02*
Y637286D01*
Y595854D02*
Y626500D01*
X558800D01*
X473075D02*
X553974D01*
X457454Y477280D02*
X464820D01*
X457186D02*
X457454D01*
X946150Y378460D02*
X1051560D01*
X946150D02*
Y384390D01*
Y369695D02*
Y378460D01*
X892175Y366520D02*
X942975D01*
X845820Y370965D02*
Y508000D01*
X841375Y366520D02*
X892175D01*
X797560D02*
X841375D01*
X436640Y498094D02*
X457454Y477280D01*
X403860Y375666D02*
Y377825D01*
X206375Y351155D02*
X222250D01*
X226568Y646430D02*
Y650494D01*
X170307Y247650D02*
X341376D01*
X134493D02*
X170307D01*
X304258Y615642D02*
X304800D01*
X312674Y614426D02*
X317500D01*
X1032891Y432054D02*
X1041400D01*
X615950Y337820D02*
X619125D01*
X57150Y384556D02*
X184150D01*
X59182Y465544D02*
Y474980D01*
X216154Y361569D02*
Y457603D01*
X666750Y252730D02*
Y334430D01*
X645160Y231140D02*
X666750Y252730D01*
X959106Y362460D02*
X1051560D01*
X938022Y349250D02*
X945896D01*
X933450Y344678D02*
X938022Y349250D01*
X933450Y331890D02*
Y344678D01*
X945896Y349250D02*
X959106Y362460D01*
X902208Y346075D02*
X905383Y349250D01*
X902208Y323723D02*
Y346075D01*
X898525Y320040D02*
X902208Y323723D01*
X857250Y323215D02*
Y331890D01*
X287020Y365125D02*
Y426340D01*
Y365125D02*
X290703Y361442D01*
X311150D01*
X314960Y357632D01*
X184150Y321560D02*
Y331890D01*
Y321560D02*
X192020Y313690D01*
X258890D01*
X262700Y317500D01*
X572008Y353568D02*
X587375D01*
X589281Y355474D01*
X590550Y334430D01*
X1023620Y471050D02*
X1024725D01*
X1037787Y468560D01*
X1042373Y463974D01*
Y447675D02*
Y463974D01*
Y447675D02*
X1047072Y442976D01*
X1054354D01*
X1059180Y438150D01*
Y378714D02*
Y438150D01*
Y378714D02*
X1059434Y378460D01*
X1051560D02*
X1059434D01*
X273050Y370983D02*
Y384390D01*
X203200Y347980D02*
X206375Y351155D01*
X203200Y324866D02*
Y347980D01*
X199136Y320802D02*
X203200Y324866D01*
X193675Y320802D02*
X199136D01*
X189992Y324485D02*
X193675Y320802D01*
X189992Y324485D02*
Y339725D01*
X186817Y342900D02*
X189992Y339725D01*
X181483Y342900D02*
X186817D01*
X178308Y339725D02*
X181483Y342900D01*
X178308Y319024D02*
Y339725D01*
Y319024D02*
X179578Y317754D01*
Y256921D02*
Y317754D01*
X170307Y247650D02*
X179578Y256921D01*
X892175Y366520D02*
X895350Y331890D01*
X749300Y471050D02*
X767214D01*
X783082Y486918D01*
X554228Y595600D02*
X563880D01*
X553974Y595854D02*
X554228Y595600D01*
X553974Y637286D02*
X554228Y637540D01*
X561975Y716900D02*
X568960D01*
X556514Y711439D02*
X561975Y716900D01*
X556514Y683260D02*
Y711439D01*
Y683260D02*
X566420D01*
X551434Y679450D02*
X556514Y683260D01*
X551434Y641350D02*
Y679450D01*
Y641350D02*
X555244Y637540D01*
X222250Y331890D02*
Y351155D01*
X228092Y357378D01*
Y390906D01*
X235966Y398780D01*
Y485775D01*
X232791Y488950D02*
X235966Y485775D01*
X202565Y488950D02*
X232791D01*
X199390Y485775D02*
X202565Y488950D01*
X199390Y479425D02*
Y485775D01*
X194945Y474980D02*
X199390Y479425D01*
X180340Y474980D02*
X194945D01*
X253222Y351155D02*
X273050Y370983D01*
X222250Y351155D02*
X253222D01*
X317500Y614426D02*
Y623560D01*
X311150Y612902D02*
X312674Y614426D01*
X311150Y597662D02*
Y612902D01*
X363220Y267208D02*
X382016D01*
X392995Y256229D01*
X415544D01*
X416249Y255524D01*
X601091D01*
X605790Y250825D01*
Y222250D02*
Y250825D01*
X600964Y217424D02*
X605790Y222250D01*
X582676Y217424D02*
X600964D01*
X568960Y231140D02*
X582676Y217424D01*
X330200Y623560D02*
Y634238D01*
X332486Y636524D01*
X384175D01*
X387350Y633349D01*
Y611759D02*
Y633349D01*
Y611759D02*
X391033Y608076D01*
X509778D01*
X521716Y280924D02*
X604012D01*
X619760Y265176D01*
Y231140D02*
Y265176D01*
X596379Y582479D02*
X636200Y622300D01*
X547313Y582479D02*
X596379D01*
X217932Y640080D02*
X269494D01*
X211582Y646430D02*
X217932Y640080D01*
X185311Y646430D02*
X211582D01*
X616807Y577907D02*
X661200Y622300D01*
X541528Y577907D02*
X616807D01*
X519487Y599948D02*
X541528Y577907D01*
X336550Y599948D02*
X519487D01*
X330454Y593852D02*
X336550Y599948D01*
X330454Y529082D02*
Y593852D01*
X330200Y528828D02*
X330454Y529082D01*
X284988Y528828D02*
X330200D01*
X219456Y594360D02*
X284988Y528828D01*
X219456Y594360D02*
Y630174D01*
X215900Y633730D02*
X219456Y630174D01*
X185311Y633730D02*
X215900D01*
X97280Y663065D02*
Y706120D01*
X92075Y657860D02*
X97280Y663065D01*
X81280Y657860D02*
X92075D01*
X891794Y573278D02*
X939800D01*
X860425Y604647D02*
X891794Y573278D01*
X860425Y604647D02*
Y641223D01*
X584708Y644398D02*
X860425Y641223D01*
X556260Y90170D02*
X582930D01*
X594360Y78740D01*
X398653Y186436D02*
X447802D01*
X391922Y193167D02*
X398653Y186436D01*
X391922Y193167D02*
Y214376D01*
X252603Y320548D02*
X254254D01*
X247650Y325501D02*
X252603Y320548D01*
X247650Y325501D02*
Y331890D01*
X209550Y320548D02*
Y331890D01*
X405130Y90932D02*
X531368D01*
X543560Y78740D01*
X615950Y334430D02*
Y337820D01*
X619125D02*
X622808Y341503D01*
Y343916D01*
X623062Y344170D01*
X634238D01*
X634492Y343916D01*
Y275082D02*
Y343916D01*
X565855Y96520D02*
X638175D01*
X563118Y99257D02*
X565855Y96520D01*
X401009Y99257D02*
X563118D01*
X391160Y89408D02*
X401009Y99257D01*
X391160Y78740D02*
Y89408D01*
X670560Y231140D02*
X693801Y254381D01*
X917575D01*
X920750Y331890D01*
X772160Y78740D02*
Y97098D01*
X753745Y115513D02*
X772160Y97098D01*
X367284Y115513D02*
X753745D01*
X348047Y134750D02*
X367284Y115513D01*
X152930Y134750D02*
X348047D01*
X139700Y121520D02*
X152930Y134750D01*
X1020344Y62795D02*
X1054270Y96720D01*
X762705Y62795D02*
X1020344D01*
X746760Y78740D02*
X762705Y62795D01*
X645922Y525526D02*
X648208Y527812D01*
X635254Y525526D02*
X645922D01*
X635000Y516427D02*
X635254Y525526D01*
X59182Y474980D02*
X63500D01*
X58928Y465290D02*
X59182Y465544D01*
X53086Y465290D02*
X58928D01*
X52671Y464875D02*
X53086Y465290D01*
X52671Y412530D02*
Y464875D01*
Y412530D02*
X69215Y395986D01*
X193675D01*
X196850Y392811D01*
Y384390D02*
Y392811D01*
X222250Y384390D02*
Y395986D01*
X229108Y402844D01*
X695706Y474980D02*
X711200D01*
X689610Y468884D02*
X695706Y474980D01*
X628650Y386930D02*
Y408178D01*
X247650Y384390D02*
Y451104D01*
X327660Y516023D02*
X347980D01*
X327660Y314452D02*
Y335280D01*
X314960Y387780D02*
Y489331D01*
X320675Y495046D01*
X381000D01*
X401511Y533591D02*
X409575Y525526D01*
X418846D01*
X419100Y516023D01*
X666750Y386930D02*
Y397510D01*
X762508D02*
X800862Y435864D01*
Y514626D01*
X796925Y518563D02*
X800862Y514626D01*
X774700Y518563D02*
X796925D01*
X398780Y441452D02*
Y460547D01*
Y441452D02*
X399542Y440690D01*
Y420878D02*
Y440690D01*
X450342Y556006D02*
Y573278D01*
Y556006D02*
X452120Y554228D01*
Y535133D02*
Y554228D01*
X431800Y447040D02*
Y459740D01*
X424942Y440182D02*
X431800Y447040D01*
X424942Y420878D02*
Y440182D01*
Y560070D02*
Y573278D01*
X419100Y554228D02*
X424942Y560070D01*
X419100Y535537D02*
Y554228D01*
X168402Y535791D02*
Y573278D01*
Y535791D02*
X168656Y535537D01*
X177800D01*
X759460Y542925D02*
Y573278D01*
Y542925D02*
X764308Y538077D01*
X774700D01*
X882650Y331890D02*
Y350014D01*
X879475Y353190D02*
X882650Y350014D01*
X829948Y353190D02*
X879475D01*
X803402Y326644D02*
X829948Y353190D01*
X692404Y326644D02*
X803402D01*
X939800Y553480D02*
Y573278D01*
Y553480D02*
X952500Y540780D01*
X374142Y535693D02*
Y573278D01*
Y535693D02*
X377825Y532010D01*
X386080D01*
X180340Y457440D02*
X190500D01*
X193802Y454138D01*
Y420878D02*
Y454138D01*
X92202Y542798D02*
Y573278D01*
Y542798D02*
X101600Y533400D01*
Y96520D02*
X139700D01*
X99060Y93980D02*
X101600Y96520D01*
X58420Y93980D02*
X99060D01*
X308356Y78740D02*
X314960D01*
X292716Y94380D02*
X308356Y78740D01*
X218100Y94380D02*
X292716D01*
X102870Y193040D02*
X142240D01*
X100330Y195580D02*
X102870Y193040D01*
X58420Y195580D02*
X100330D01*
X260350Y323850D02*
Y331890D01*
X263525Y320675D02*
X311785D01*
X314960Y323850D01*
Y335280D01*
X615950Y386930D02*
Y409448D01*
X639064Y432562D01*
Y478028D01*
X648208Y487172D01*
X767935D01*
X774539Y493776D01*
X789686D01*
X789940Y493522D01*
Y474577D02*
Y493522D01*
X695706Y606806D02*
X711200Y622300D01*
X652272Y606806D02*
X695706D01*
X624078Y578612D02*
X652272Y606806D01*
X624078Y506730D02*
Y578612D01*
Y506730D02*
X624332Y506476D01*
X645922D01*
X657846Y518400D01*
X673100D01*
X590550Y386930D02*
Y486156D01*
X596138Y491744D01*
X665734D01*
X692150Y518160D01*
X711200D01*
X734060Y420878D02*
Y457200D01*
X738886Y462026D01*
X760879D01*
X767842Y455063D01*
X789940D01*
X116840Y474980D02*
Y490220D01*
X120650Y494030D01*
X257048D01*
X260350Y490728D01*
Y384390D02*
Y490728D01*
X442976Y491490D02*
X457186Y477280D01*
X942975Y366520D02*
X946150Y369695D01*
X289560Y231140D02*
X300990Y219710D01*
X374650D01*
X379787Y224847D01*
Y238125D01*
X384175Y242513D01*
X398145D01*
X402533Y238125D01*
Y227367D02*
Y238125D01*
Y227367D02*
X429260Y200640D01*
X142240Y218040D02*
X167278Y243078D01*
X371208D01*
X375215Y247085D01*
X407105D01*
X411112Y243078D01*
X527050D01*
X531368Y238760D01*
Y224974D02*
Y238760D01*
Y224974D02*
X562540Y193802D01*
X845058D01*
X848360Y190500D01*
Y168910D02*
Y190500D01*
X574802Y250698D02*
X594360Y231140D01*
X412636Y250698D02*
X574802D01*
X411677Y251657D02*
X412636Y250698D01*
X363658Y251657D02*
X411677D01*
X355092Y260223D02*
X363658Y251657D01*
X342900Y608457D02*
Y623560D01*
X90537Y515860D02*
X101600D01*
X218440Y516023D02*
X244199D01*
X266192Y494030D01*
Y375412D02*
Y494030D01*
X260096Y369316D02*
X266192Y375412D01*
X238125Y369316D02*
X260096D01*
X234950Y372491D02*
X238125Y369316D01*
X234950Y372491D02*
Y384390D01*
X196850Y331890D02*
Y353060D01*
X196596Y353314D02*
X196850Y353060D01*
X61214Y353314D02*
X196596D01*
X43434Y371094D02*
X61214Y353314D01*
X43434Y371094D02*
Y512236D01*
X47625Y516427D01*
X63500D01*
X216154Y457603D02*
X218440D01*
X214843Y360258D02*
X216154Y361569D01*
X206375Y360258D02*
X214843D01*
X203200Y363433D02*
X206375Y360258D01*
X203200Y363433D02*
Y397383D01*
X200025Y400558D02*
X203200Y397383D01*
X174244Y400558D02*
X200025D01*
X168402Y406400D02*
X174244Y400558D01*
X168402Y406400D02*
Y420878D01*
X184150Y384390D02*
Y384556D01*
X48099Y393607D02*
X57150Y384556D01*
X48099Y393607D02*
Y478502D01*
X74422Y504825D01*
Y520700D01*
X77978Y524256D01*
X124714D01*
X132543Y516427D01*
X142240D01*
X278130Y257302D02*
X336550D01*
X340360Y261112D01*
Y335280D01*
X645471Y103829D02*
X670560Y78740D01*
X333686Y103829D02*
X645471D01*
X321945Y115570D02*
X333686Y103829D01*
X282702Y115570D02*
X321945D01*
X691699Y108401D02*
X721360Y78740D01*
X337877Y108401D02*
X691699D01*
X322326Y123952D02*
X337877Y108401D01*
X234826Y123952D02*
X322326D01*
X228600Y130178D02*
X234826Y123952D01*
X207686Y130178D02*
X228600D01*
X185458Y107950D02*
X207686Y130178D01*
X47752Y107950D02*
X185458D01*
X47498Y108204D02*
X47752Y107950D01*
X47498Y108204D02*
Y209658D01*
X58420Y220580D01*
X498992Y631072D02*
X510540Y642620D01*
X477520Y631072D02*
X498992D01*
X473592Y635000D02*
X477520Y631072D01*
X473592Y635000D02*
Y640452D01*
X471424Y642620D02*
X473592Y640452D01*
X471424Y642620D02*
Y653914D01*
X471170Y654168D02*
X471424Y653914D01*
X384928Y654168D02*
X471170D01*
X372618Y641858D02*
X384928Y654168D01*
X295275Y641858D02*
X372618D01*
X292100Y638683D02*
X295275Y641858D01*
X292100Y623560D02*
Y638683D01*
X797560Y78740D02*
Y102178D01*
X97280Y706120D02*
X148590D01*
X174244Y731774D01*
X293497D01*
X298450Y726821D01*
Y706120D02*
Y726821D01*
Y706120D02*
X301625Y702945D01*
X365125D01*
X368300Y706120D01*
Y717560D01*
X841375Y366520D02*
X845820Y370965D01*
X386080Y501650D02*
Y514470D01*
Y501650D02*
X389636Y498094D01*
X436640D01*
X287020Y442340D02*
X291096D01*
X301244Y432192D01*
Y379984D02*
Y432192D01*
Y379984D02*
X309372Y371856D01*
X400050D01*
X403860Y375666D01*
X63500Y455467D02*
X88900D01*
X92202Y452165D01*
Y420878D02*
Y452165D01*
X684587Y67367D02*
X695960Y78740D01*
X384175Y67367D02*
X684587D01*
X379730Y71812D02*
X384175Y67367D01*
X379730Y71812D02*
Y86360D01*
X374650Y91440D02*
X379730Y86360D01*
X302122Y91440D02*
X374650D01*
X284916Y108645D02*
X302122Y91440D01*
X228835Y108645D02*
X284916D01*
X218100Y119380D02*
X228835Y108645D01*
X192280Y706120D02*
X252222D01*
X275336Y683006D01*
X360426D01*
X381000Y703580D01*
Y717560D01*
X236329Y659130D02*
X363474D01*
X387096Y682752D01*
Y727075D01*
X383921Y730250D02*
X387096Y727075D01*
X307975Y730250D02*
X383921D01*
X304800Y727075D02*
X307975Y730250D01*
X304800Y717560D02*
Y727075D01*
X127000Y650870D02*
Y667512D01*
X165608Y706120D01*
X192280D01*
X1054270Y220780D02*
X1061974Y228484D01*
Y375920D01*
X1059434Y378460D02*
X1061974Y375920D01*
X378460Y378714D02*
Y387780D01*
X378206Y378460D02*
X378460Y378714D01*
X309372Y378460D02*
X378206D01*
X306743Y381089D02*
X309372Y378460D01*
X306743Y381089D02*
Y498767D01*
X313690Y505714D01*
X365125D01*
X368512Y509101D01*
Y513546D01*
X377952Y522986D01*
X397383D01*
X406400Y513969D01*
Y507619D02*
Y513969D01*
Y507619D02*
X409575Y504444D01*
X448564D01*
X452120Y508000D01*
Y515620D01*
X856488D02*
X906780D01*
X869950Y339852D02*
X875792Y345694D01*
X869950Y331890D02*
Y339852D01*
X683260Y573278D02*
Y587502D01*
X679450Y591312D02*
X683260Y587502D01*
X649223Y591312D02*
X679450D01*
X635000Y577089D02*
X649223Y591312D01*
X635000Y535940D02*
Y577089D01*
X459740Y642620D02*
X469020Y633340D01*
Y630555D02*
Y633340D01*
Y630555D02*
X473075Y626500D01*
X558800D02*
X563880Y631580D01*
Y637540D01*
X688975Y242570D02*
X753745D01*
X684530Y238125D02*
X688975Y242570D01*
X684530Y226822D02*
Y238125D01*
X670433Y212725D02*
X684530Y226822D01*
X663575Y212725D02*
X670433D01*
X645160Y231140D02*
X663575Y212725D01*
X524002Y616515D02*
X553466Y587051D01*
X573532D01*
X573786Y587305D01*
Y609346D01*
X573532Y609600D02*
X573786Y609346D01*
X563880Y609600D02*
X573532D01*
X292100Y701294D02*
Y717560D01*
X286512Y695706D02*
X292100Y701294D01*
X263652Y621030D02*
X272034Y612648D01*
X236329Y621030D02*
X263652D01*
X393700Y681228D02*
Y717560D01*
X359912Y647440D02*
X393700Y681228D01*
X263921Y647440D02*
X359912D01*
X262911Y646430D02*
X263921Y647440D01*
X236329Y646430D02*
X262911D01*
X477954Y649806D02*
X485140Y642620D01*
X477954Y649806D02*
Y654242D01*
X473456Y658740D02*
X477954Y654242D01*
X473456Y658740D02*
Y721614D01*
X491490Y739648D01*
X578612D01*
X578866Y739394D01*
Y701451D02*
Y739394D01*
X574675Y697260D02*
X578866Y701451D01*
X566420Y697260D02*
X574675D01*
X797560Y350520D02*
X813432D01*
X820674Y357761D01*
X883156D01*
X888492Y352425D01*
Y323850D02*
Y352425D01*
X884682Y320040D02*
X888492Y323850D01*
X857250Y323215D02*
X860425Y320040D01*
X778510Y611886D02*
X838962D01*
X756412Y633984D02*
X778510Y611886D01*
X697884Y633984D02*
X756412D01*
X686200Y622300D02*
X697884Y633984D01*
X933450Y523240D02*
X952500D01*
X929386Y519176D02*
X933450Y523240D01*
X929386Y508000D02*
Y519176D01*
X925503Y504117D02*
X929386Y508000D01*
X849703Y504117D02*
X925503D01*
X845820Y508000D02*
X849703Y504117D01*
X845820Y508000D02*
Y622300D01*
X117602Y573278D02*
Y588772D01*
X117348Y589026D02*
X117602Y588772D01*
X66675Y589026D02*
X117348D01*
X63500Y585851D02*
X66675Y589026D01*
X63500Y535940D02*
Y585851D01*
X641350Y322580D02*
Y334430D01*
X654050Y311658D02*
Y334430D01*
X365760Y78740D02*
X381705Y62795D01*
X728783D01*
X735330Y69342D01*
Y85725D01*
X739718Y90113D01*
X758190D01*
X759460Y88843D01*
Y73082D02*
Y88843D01*
Y73082D02*
X765175Y67367D01*
X803275D01*
X808933Y73025D01*
Y106115D01*
X926592Y223774D01*
Y340106D01*
X923544Y343154D02*
X926592Y340106D01*
X911225Y343154D02*
X923544D01*
X908050Y339979D02*
X911225Y343154D01*
X908050Y331890D02*
Y339979D01*
X628650Y326771D02*
Y334430D01*
X625475Y323596D02*
X628650Y326771D01*
X412861Y323596D02*
X625475D01*
X820674Y168910D02*
X837438Y185674D01*
X580390Y168910D02*
X820674D01*
X518160Y231140D02*
X580390Y168910D01*
X304800Y615642D02*
Y623560D01*
X304258Y574617D02*
Y615642D01*
Y574617D02*
X321090Y557784D01*
Y541020D02*
Y557784D01*
X341376Y247650D02*
X347407Y253681D01*
X131318Y244475D02*
X134493Y247650D01*
X131318Y203962D02*
Y244475D01*
Y203962D02*
X142240Y193040D01*
X226568Y646430D02*
X236329D01*
X210566Y666496D02*
X226568Y650494D01*
X172080Y666496D02*
X210566D01*
X139954Y634370D02*
X172080Y666496D01*
X127000Y634370D02*
X139954D01*
X563880Y651541D02*
X616380D01*
X663340Y698500D01*
X566420Y683260D02*
X597662D01*
X625602Y711200D01*
X675640D01*
X688340Y698500D01*
X427527Y479253D02*
X431800D01*
X416814Y489966D02*
X427527Y479253D01*
X387924Y489966D02*
X416814D01*
X384175Y486217D02*
X387924Y489966D01*
X362519Y486217D02*
X384175D01*
X354838Y478536D02*
X362519Y486217D01*
X354838Y438404D02*
Y478536D01*
X353060Y436626D02*
X354838Y438404D01*
X353060Y387780D02*
Y436626D01*
X370840Y480060D02*
X398780D01*
X359410Y468630D02*
X370840Y480060D01*
X359410Y407543D02*
Y468630D01*
Y407543D02*
X365125Y401828D01*
X387350D01*
X391160Y398018D01*
Y387780D02*
Y398018D01*
X342900Y448056D02*
Y459740D01*
X365760Y387780D02*
Y393446D01*
X369570Y397256D01*
X384302D01*
X384556Y397002D01*
Y381000D02*
Y397002D01*
Y381000D02*
X388112Y377444D01*
X393954D01*
X397510Y381000D01*
Y397256D01*
X397764Y397510D01*
X506984D01*
X511302Y401828D01*
Y502158D01*
X505460Y508000D02*
X511302Y502158D01*
X505460Y508000D02*
Y516023D01*
X333375Y479253D02*
X342900D01*
X327660Y473538D02*
X333375Y479253D01*
X327660Y387780D02*
Y473538D01*
X920750Y384390D02*
Y391541D01*
X889000Y377317D02*
Y391541D01*
X885825Y374142D02*
X889000Y377317D01*
X864362Y374142D02*
X885825D01*
X864108Y374396D02*
X864362Y374142D01*
X864108Y374396D02*
Y445516D01*
X910971Y492379D01*
X1012825D01*
X1016000Y495554D01*
Y523643D01*
X869950Y384390D02*
Y440645D01*
X900938Y471633D01*
X911860D01*
X982980Y503682D02*
Y523240D01*
X977900Y498602D02*
X982980Y503682D01*
X862076Y498602D02*
X977900D01*
X857250Y493776D02*
X862076Y498602D01*
X857250Y384390D02*
Y493776D01*
X500380Y409575D02*
Y460143D01*
X495935Y405130D02*
X500380Y409575D01*
X450596Y405130D02*
X495935D01*
X450342Y405384D02*
X450596Y405130D01*
X450342Y405384D02*
Y420878D01*
X908812Y439166D02*
X911860Y442214D01*
Y452120D01*
X347980Y535537D02*
Y575691D01*
X365125Y592836D01*
X394081D01*
X399542Y587375D01*
Y573278D02*
Y587375D01*
X672592Y373380D02*
X679450Y380238D01*
X439420Y373380D02*
X672592D01*
X627380Y432054D02*
Y457200D01*
X610571Y476713D02*
X627380D01*
X603250Y469392D02*
X610571Y476713D01*
X603250Y386930D02*
Y469392D01*
X895350Y376428D02*
Y384390D01*
Y376428D02*
X898525Y373253D01*
X936625D01*
X939800Y376428D01*
Y391287D01*
X953643Y405130D01*
X1050925D01*
X1054608Y408813D01*
Y432943D01*
X1050925Y436626D02*
X1054608Y432943D01*
X1042162Y436626D02*
X1050925D01*
X1035050Y443738D02*
X1042162Y436626D01*
X1035050Y443738D02*
Y461518D01*
X1034542Y462026D02*
X1035050Y461518D01*
X1012825Y462026D02*
X1034542D01*
X1009650Y465201D02*
X1012825Y462026D01*
X1009650Y465201D02*
Y469265D01*
X1006475Y472440D02*
X1009650Y469265D01*
X995680Y472440D02*
X1006475D01*
X1023620Y441325D02*
Y453510D01*
Y441325D02*
X1032891Y432054D01*
X1041400Y420878D02*
Y432054D01*
X500360Y154940D02*
X746760D01*
X454660Y200640D02*
X500360Y154940D01*
X314960Y335280D02*
Y342900D01*
X318262Y346202D01*
X387858D01*
X391160Y342900D01*
Y335280D02*
Y342900D01*
X657860Y551180D02*
Y573278D01*
Y551180D02*
X673100Y535940D01*
X479425Y535537D02*
X505460D01*
X475742Y539220D02*
X479425Y535537D01*
X475742Y539220D02*
Y573278D01*
X207772Y477117D02*
X218440D01*
X207518Y476863D02*
X207772Y477117D01*
X207518Y440436D02*
Y476863D01*
Y440436D02*
X209550Y438404D01*
Y384390D02*
Y438404D01*
X965200Y535559D02*
Y573278D01*
X962025Y532384D02*
X965200Y535559D01*
X942594Y532384D02*
X962025D01*
X939845Y535133D02*
X942594Y532384D01*
X906780Y535133D02*
X939845D01*
X198015Y535537D02*
X218440D01*
X193802Y539750D02*
X198015Y535537D01*
X193802Y539750D02*
Y573278D01*
X218270Y190700D02*
X249120D01*
X289560Y231140D01*
X933450Y384390D02*
Y400050D01*
X926592Y406908D02*
X933450Y400050D01*
X926592Y406908D02*
Y437725D01*
X928028Y439161D01*
Y470193D01*
X930275Y472440D01*
X965200D01*
X1036977Y474577D02*
X1056640D01*
X1029208Y482346D02*
X1036977Y474577D01*
X927100Y482346D02*
X1029208D01*
X922689Y477935D02*
X927100Y482346D01*
X922689Y442214D02*
Y477935D01*
X882650Y402175D02*
X922689Y442214D01*
X882650Y384390D02*
Y402175D01*
X822960Y78740D02*
X861822Y117602D01*
X976092D01*
X1054270Y195780D01*
X396115Y357380D02*
X439420D01*
X391160Y352425D02*
X396115Y357380D01*
X408305Y373380D02*
X439420D01*
X403860Y377825D02*
X408305Y373380D01*
X403860Y377825D02*
Y387780D01*
X464820Y459740D02*
X475488D01*
X475742Y459486D01*
Y420878D02*
Y459486D01*
X276225Y442340D02*
X287020D01*
X273050Y439165D02*
X276225Y442340D01*
X273050Y384390D02*
Y439165D01*
X499760Y730900D02*
X568960D01*
X485140Y716280D02*
X499760Y730900D01*
X693168Y366520D02*
X797560D01*
X679450Y380238D02*
X693168Y366520D01*
X679450Y380238D02*
Y386930D01*
X590550Y334430D02*
Y354205D01*
X666750Y347345D02*
X669925Y350520D01*
X797560D01*
X269250Y623560D02*
X292100D01*
X259080Y633730D02*
X269250Y623560D01*
X236329Y633730D02*
X259080D01*
X668020Y457603D02*
X679682D01*
X683260Y454025D01*
Y420878D02*
Y454025D01*
X688340Y698500D02*
X698500Y708660D01*
X810260D01*
X820420Y698500D01*
X590550Y357505D02*
X593725Y360680D01*
X663575D01*
X666750Y357505D01*
X999544Y220780D02*
X1054270D01*
X997204Y223120D02*
X999544Y220780D01*
X942510Y223120D02*
X997204D01*
X427238Y716280D02*
X459740D01*
X425958Y717560D02*
X427238Y716280D01*
X393700Y717560D02*
X425958D01*
X429260Y200640D02*
X454660D01*
X181410Y190700D02*
X218270D01*
X179070Y193040D02*
X181410Y190700D01*
X142240Y193040D02*
X179070D01*
X179940Y94380D02*
X218100D01*
X177800Y96520D02*
X179940Y94380D01*
X139700Y96520D02*
X177800D01*
X107574Y634370D02*
X127000D01*
X100584Y641360D02*
X107574Y634370D01*
X81280Y641360D02*
X100584D01*
X749300Y442214D02*
Y453510D01*
Y442214D02*
X759460Y432054D01*
Y420878D02*
Y432054D01*
X143002Y554990D02*
Y573278D01*
X142240Y554228D02*
X143002Y554990D01*
X142240Y535940D02*
Y554228D01*
X708660Y556514D02*
Y573278D01*
Y556514D02*
X711200Y553974D01*
Y537673D02*
Y553974D01*
X965200Y420878D02*
Y452927D01*
X147320Y439928D02*
Y455063D01*
X143002Y435610D02*
X147320Y439928D01*
X143002Y420878D02*
Y435610D01*
X711200Y439420D02*
Y455467D01*
X708660Y436880D02*
X711200Y439420D01*
X708660Y420878D02*
Y436880D01*
X734060Y560578D02*
Y573278D01*
Y560578D02*
X744220Y550418D01*
Y538077D02*
Y550418D01*
X116840Y438404D02*
Y455467D01*
Y438404D02*
X117602Y437642D01*
Y420878D02*
Y437642D01*
X990600Y561594D02*
Y573278D01*
X982980Y553974D02*
X990600Y561594D01*
X982980Y542753D02*
Y553974D01*
X995680Y439420D02*
Y452927D01*
X990600Y434340D02*
X995680Y439420D01*
X990600Y420878D02*
Y434340D01*
X1041400Y563118D02*
Y573278D01*
Y563118D02*
X1051560Y552958D01*
Y543157D02*
Y552958D01*
X1016000Y543157D02*
Y573278D01*
X292100Y582896D02*
Y623560D01*
Y582896D02*
X293590Y581406D01*
Y541020D02*
Y581406D01*
D30*
X289560Y231140D02*
D03*
X314960Y78740D02*
D03*
X645160D02*
D03*
X314960Y104140D02*
D03*
Y231140D02*
D03*
X289560Y78740D02*
D03*
X340360D02*
D03*
X353060Y200640D02*
D03*
X378460D02*
D03*
X403860D02*
D03*
X429260D02*
D03*
X454660D02*
D03*
X746760Y104140D02*
D03*
Y129540D02*
D03*
Y154940D02*
D03*
Y180340D02*
D03*
Y205740D02*
D03*
X645160Y231140D02*
D03*
X670560Y78740D02*
D03*
X695960D02*
D03*
X721360D02*
D03*
X746760D02*
D03*
X772160D02*
D03*
X797560D02*
D03*
X822960D02*
D03*
X848360D02*
D03*
X873760D02*
D03*
Y231140D02*
D03*
X848360D02*
D03*
X822960D02*
D03*
X797560D02*
D03*
X772160D02*
D03*
X746760D02*
D03*
X721360D02*
D03*
X695960D02*
D03*
X670560D02*
D03*
X365760Y78740D02*
D03*
X391160D02*
D03*
X416560D02*
D03*
X441960D02*
D03*
X467360D02*
D03*
X492760D02*
D03*
X518160D02*
D03*
X543560D02*
D03*
X568960D02*
D03*
X594360D02*
D03*
X619760D02*
D03*
Y231140D02*
D03*
X594360D02*
D03*
X568960D02*
D03*
X543560D02*
D03*
X518160D02*
D03*
X492760D02*
D03*
X467360D02*
D03*
X441960D02*
D03*
X416560D02*
D03*
X391160D02*
D03*
X365760D02*
D03*
X340360D02*
D03*
D31*
X144780Y289560D02*
D03*
X428498D02*
D03*
X993140D02*
D03*
X713740D02*
D03*
D32*
X374142Y420878D02*
D03*
X939800D02*
D03*
X657860D02*
D03*
X92202D02*
D03*
D33*
X399542D02*
D03*
X424942D02*
D03*
X450342D02*
D03*
X475742D02*
D03*
X374142Y573278D02*
D03*
X399542D02*
D03*
X424942D02*
D03*
X450342D02*
D03*
X475742D02*
D03*
X1041400D02*
D03*
X1016000D02*
D03*
X990600D02*
D03*
X965200D02*
D03*
X939800D02*
D03*
X1041400Y420878D02*
D03*
X1016000D02*
D03*
X990600D02*
D03*
X965200D02*
D03*
X683260D02*
D03*
X708660D02*
D03*
X734060D02*
D03*
X759460D02*
D03*
X657860Y573278D02*
D03*
X683260D02*
D03*
X708660D02*
D03*
X734060D02*
D03*
X759460D02*
D03*
X117602Y420878D02*
D03*
X143002D02*
D03*
X168402D02*
D03*
X193802D02*
D03*
X92202Y573278D02*
D03*
X117602D02*
D03*
X143002D02*
D03*
X168402D02*
D03*
X193802D02*
D03*
D34*
X510540Y642620D02*
D03*
X485140D02*
D03*
X510540Y716280D02*
D03*
X485140D02*
D03*
D35*
X459740Y642620D02*
D03*
Y716280D02*
D03*
D36*
X764540Y205740D02*
D03*
X416560Y617220D02*
D03*
X322580Y599440D02*
D03*
X195580Y510540D02*
D03*
X149860Y487172D02*
D03*
X85344Y474980D02*
D03*
X234950Y320548D02*
D03*
X609600Y353822D02*
D03*
X1069340Y454660D02*
D03*
X367284Y466805D02*
D03*
X367792Y322580D02*
D03*
X572008Y353568D02*
D03*
X783082Y486918D02*
D03*
X311150Y597662D02*
D03*
X363220Y267208D02*
D03*
X509778Y608076D02*
D03*
X521716Y280924D02*
D03*
X269494Y640080D02*
D03*
X584708Y644398D02*
D03*
X556260Y90170D02*
D03*
X447802Y186436D02*
D03*
X391922Y214376D02*
D03*
X254254Y320548D02*
D03*
X209550D02*
D03*
X405130Y90932D02*
D03*
X634492Y275082D02*
D03*
X638175Y96520D02*
D03*
X648208Y527812D02*
D03*
X229108Y402844D02*
D03*
X689610Y468884D02*
D03*
X628650Y408178D02*
D03*
X247650Y451104D02*
D03*
X327660Y516023D02*
D03*
Y314452D02*
D03*
X381000Y495046D02*
D03*
X401511Y533591D02*
D03*
X692404Y326644D02*
D03*
X442976Y491490D02*
D03*
X848360Y168910D02*
D03*
X355092Y260223D02*
D03*
X278130Y257302D02*
D03*
X282702Y115570D02*
D03*
X856488Y515620D02*
D03*
X875792Y345694D02*
D03*
X524002Y616515D02*
D03*
X286512Y695706D02*
D03*
X272034Y612648D02*
D03*
X838962Y611886D02*
D03*
X641350Y322580D02*
D03*
X654050Y311658D02*
D03*
X837438Y185674D02*
D03*
X342900Y448056D02*
D03*
X908812Y439166D02*
D03*
X627380Y432054D02*
D03*
D37*
X1049020Y508000D02*
D03*
X889000Y447040D02*
D03*
Y421640D02*
D03*
X908050Y392303D02*
D03*
X739140Y497840D02*
D03*
X647700Y475361D02*
D03*
X744363Y397510D02*
D03*
X641350D02*
D03*
X500380Y492760D02*
D03*
X343861Y417520D02*
D03*
X353884Y292100D02*
D03*
X330729Y297709D02*
D03*
X269240Y266700D02*
D03*
Y193040D02*
D03*
X317500Y182880D02*
D03*
X410083Y138557D02*
D03*
X416560Y123063D02*
D03*
X378460Y292100D02*
D03*
Y327660D02*
D03*
D38*
X590550Y386930D02*
D03*
X603250D02*
D03*
X615950D02*
D03*
X628650D02*
D03*
X641350D02*
D03*
X654050D02*
D03*
X666750D02*
D03*
X679450D02*
D03*
X590550Y334430D02*
D03*
X603250D02*
D03*
X615950D02*
D03*
X628650D02*
D03*
X641350D02*
D03*
X654050D02*
D03*
X666750D02*
D03*
X679450D02*
D03*
X184150Y384390D02*
D03*
X196850D02*
D03*
X209550D02*
D03*
X222250D02*
D03*
X234950D02*
D03*
X247650D02*
D03*
X260350D02*
D03*
X273050D02*
D03*
X184150Y331890D02*
D03*
X196850D02*
D03*
X209550D02*
D03*
X222250D02*
D03*
X234950D02*
D03*
X247650D02*
D03*
X260350D02*
D03*
X273050D02*
D03*
X314960Y387780D02*
D03*
X327660D02*
D03*
X340360D02*
D03*
X353060D02*
D03*
X365760D02*
D03*
X378460D02*
D03*
X391160D02*
D03*
X403860D02*
D03*
X314960Y335280D02*
D03*
X327660D02*
D03*
X340360D02*
D03*
X353060D02*
D03*
X365760D02*
D03*
X378460D02*
D03*
X391160D02*
D03*
X403860D02*
D03*
X946150Y331890D02*
D03*
X933450D02*
D03*
X920750D02*
D03*
X908050D02*
D03*
X895350D02*
D03*
X882650D02*
D03*
X869950D02*
D03*
X857250D02*
D03*
X946150Y384390D02*
D03*
X933450D02*
D03*
X920750D02*
D03*
X908050D02*
D03*
X895350D02*
D03*
X882650D02*
D03*
X869950D02*
D03*
X857250D02*
D03*
D39*
X287020Y426340D02*
D03*
Y442340D02*
D03*
X1051560Y378460D02*
D03*
Y362460D02*
D03*
X797560Y366520D02*
D03*
Y350520D02*
D03*
X439420Y373380D02*
D03*
Y357380D02*
D03*
D40*
X1023620Y453510D02*
D03*
Y471050D02*
D03*
X101600Y533400D02*
D03*
Y515860D02*
D03*
X180340Y457440D02*
D03*
Y474980D02*
D03*
X673100Y535940D02*
D03*
Y518400D02*
D03*
X749300Y453510D02*
D03*
Y471050D02*
D03*
X386080Y532010D02*
D03*
Y514470D02*
D03*
X952500Y540780D02*
D03*
Y523240D02*
D03*
X464820Y459740D02*
D03*
Y477280D02*
D03*
D41*
X566420Y697260D02*
D03*
Y683260D02*
D03*
X568960Y730900D02*
D03*
Y716900D02*
D03*
X563880Y609600D02*
D03*
Y595600D02*
D03*
Y651541D02*
D03*
Y637540D02*
D03*
D42*
X177800Y535537D02*
D03*
Y516023D02*
D03*
X668020Y457603D02*
D03*
Y477117D02*
D03*
X116840Y455467D02*
D03*
Y474980D02*
D03*
X906780Y535133D02*
D03*
Y515620D02*
D03*
X347980Y535537D02*
D03*
Y516023D02*
D03*
X982980Y542753D02*
D03*
Y523240D02*
D03*
X419100Y535537D02*
D03*
Y516023D02*
D03*
X911860Y452120D02*
D03*
Y471633D02*
D03*
X342900Y459740D02*
D03*
Y479253D02*
D03*
X1056640Y455063D02*
D03*
Y474577D02*
D03*
X500380Y460143D02*
D03*
Y479657D02*
D03*
X995680Y452927D02*
D03*
Y472440D02*
D03*
X431800Y459740D02*
D03*
Y479253D02*
D03*
X1051560Y543157D02*
D03*
Y523643D02*
D03*
X505460Y535537D02*
D03*
Y516023D02*
D03*
X1016000Y543157D02*
D03*
Y523643D02*
D03*
X965200Y452927D02*
D03*
Y472440D02*
D03*
X452120Y535133D02*
D03*
Y515620D02*
D03*
X398780Y460547D02*
D03*
Y480060D02*
D03*
X142240Y535940D02*
D03*
Y516427D02*
D03*
X627380Y457200D02*
D03*
Y476713D02*
D03*
X63500Y455467D02*
D03*
Y474980D02*
D03*
X789940Y455063D02*
D03*
Y474577D02*
D03*
X218440Y457603D02*
D03*
Y477117D02*
D03*
X711200Y455467D02*
D03*
Y474980D02*
D03*
X774700Y538077D02*
D03*
Y518563D02*
D03*
X218440Y535537D02*
D03*
Y516023D02*
D03*
X744220Y538077D02*
D03*
Y518563D02*
D03*
X147320Y455063D02*
D03*
Y474577D02*
D03*
X635000Y535940D02*
D03*
Y516427D02*
D03*
X63500Y535940D02*
D03*
Y516427D02*
D03*
X711200Y537673D02*
D03*
Y518160D02*
D03*
D43*
X321090Y541020D02*
D03*
X293590D02*
D03*
D44*
X185311Y659130D02*
D03*
Y646430D02*
D03*
Y633730D02*
D03*
Y621030D02*
D03*
X236329D02*
D03*
Y633730D02*
D03*
Y646430D02*
D03*
D45*
Y659130D02*
D03*
D46*
X127000Y634370D02*
D03*
Y650870D02*
D03*
X81280Y641360D02*
D03*
Y657860D02*
D03*
D47*
X192280Y706120D02*
D03*
X97280D02*
D03*
D48*
X292100Y623560D02*
D03*
X304800D02*
D03*
X317500D02*
D03*
X330200D02*
D03*
X342900D02*
D03*
X355600D02*
D03*
X368300D02*
D03*
X381000D02*
D03*
X393700D02*
D03*
Y717560D02*
D03*
X381000D02*
D03*
X368300D02*
D03*
X355600D02*
D03*
X342900D02*
D03*
X330200D02*
D03*
X317500D02*
D03*
X304800D02*
D03*
X292100D02*
D03*
D49*
X670560Y401320D02*
Y439420D01*
D50*
X666750Y397510D02*
X670560Y401320D01*
M02*
