M48
;Layer_Color=9474304
;FILE_FORMAT=4:4
METRIC,LZ
;TYPE=PLATED
T1F00S00C0.3302
T2F00S00C0.3810
T3F00S00C0.9000
T4F00S00C1.0000
T5F00S00C1.1000
T6F00S00C1.1100
T7F00S00C1.2700
T8F00S00C3.0000
T9F00S00C6.1976
%
T01
X0026924Y0019304
X003175Y0018288
X00330729Y00297709
X00353884Y002921
X0037846
Y0032766
X0026924Y002667
X00410083Y00138557
X0041656Y00123063
X0090805Y00392303
X00889Y0042164
Y0044704
X0104902Y00508
X0073914Y0049784
X00744363Y0039751
X0064135
X006477Y00475361
X0050038Y0049276
X00343861Y0041752
T02
X00282702Y0011557
X0027813Y00257302
X00355092Y00260223
X0036322Y00267208
X00367792Y0032258
X0032766Y00314452
X00254254Y00320548
X0023495
X0020955
X00391922Y00214376
X00447802Y00186436
X0040513Y00090932
X0055626Y0009017
X00638175Y0009652
X00634492Y00275082
X0064135Y0032258
X0065405Y00311658
X00692404Y00326644
X006096Y00353822
X00572008Y00353568
X00521716Y00280924
X0076454Y0020574
X00837438Y00185674
X0084836Y0016891
X00875792Y00345694
X00908812Y00439166
X00856488Y0051562
X00838962Y00611886
X0106934Y0045466
X00783082Y00486918
X0068961Y00468884
X0062738Y00432054
X0062865Y00408178
X00648208Y00527812
X00584708Y00644398
X00524002Y00616515
X00509778Y00608076
X0041656Y0061722
X00401511Y00533591
X00442976Y0049149
X00381Y00495046
X00367284Y00466805
X003429Y00448056
X0032766Y00516023
X0032258Y0059944
X0031115Y00597662
X00272034Y00612648
X00269494Y0064008
X00286512Y00695706
X0019558Y0051054
X0014986Y00487172
X00085344Y0047498
X0024765Y00451104
X00229108Y00402844
T03
X0094251Y0017312
Y0019812
Y0022312
X0084582Y006223
X0082082
X0079582
X0079542Y006985
X0082042
X0077042
X0068834
X0066334
X0063834
X006362Y006223
X006612
X006862
X007112
T04
X0005842Y0009398
Y0011898
Y0019558
Y0022058
X0014224Y0021804
Y0019304
X001397Y0012152
Y0009652
X002181Y0009438
Y0011938
X0021827Y001907
Y002157
X0105427Y0022078
Y0019578
Y0012172
Y0009672
T05
X0045974Y0064262
X0048514
X0051054
Y0071628
X0048514
X0045974
T06
X0028956Y0007874
X0031496
Y0010414
X0034036Y0007874
X0036576
X0039116
X0037846Y0020064
X0035306
X0036576Y0023114
X0039116
X0034036
X0031496
X0028956
X0041656
X0044196
X0046736
X0049276
X0051816
X0054356
X0056896
X0059436
X0061976
X0064516
X0067056
X0069596
X0072136
X0074676
Y0020574
Y0018034
Y0015494
Y0012954
Y0010414
Y0007874
X0072136
X0069596
X0067056
X0064516
X0061976
X0059436
X0056896
X0054356
X0051816
X0049276
X0046736
X0044196
X0041656
X0040386Y0020064
X0042926
X0045466
X0077216Y0023114
Y0007874
X0079756
X0082296
X0084836
X0087376
Y0023114
X0084836
X0082296
X0079756
T07
X009398Y00420878
X009652
X009906
X01016
X010414
Y00573278
X01016
X009906
X009652
X009398
X0075946
X0073406
X0070866
X0068326
X0065786
Y00420878
X0068326
X0070866
X0073406
X0075946
X00475742
X00450342
X00424942
X00399542
Y00573278
X00424942
X00450342
X00475742
X00374142
Y00420878
X00193802
X00168402
X00143002
X00117602
X00092202
Y00573278
X00117602
X00143002
X00168402
X00193802
T08
X0004572Y0033782
X010922
Y006985
X0004318
T09
X0014478Y0028956
X00428498
X0071374
X0099314
M30
