M48
;Layer_Color=9474304
;FILE_FORMAT=4:4
METRIC,LZ
;TYPE=PLATED
T1F00S00C0.2540
T2F00S00C0.3810
T3F00S00C0.7112
T4F00S00C0.9000
T5F00S00C1.0000
T6F00S00C1.1000
T7F00S00C1.1100
T8F00S00C1.2700
%
T01
X0099949Y0038227
X007747Y00518563
T02
X00202184Y00010668
X00146558Y00074168
X0015367Y00304292
X00171704Y00318516
X00160528Y0034544
X0017526Y00370332
X00182245Y00396621
X00367792Y00390144
X0034417Y00337058
X0040386Y0030988
X0045085Y00298958
X00481584Y00387096
X00423418Y00392891
X0065786Y003937
X0070612Y00395986
X0068834Y003556
X00727009Y0035687
X00727011Y00347173
X0075692Y00319532
X00628904Y00362458
X0063754Y0019939
X00569976Y00126606
X0049276Y00135382
X00545084Y00041656
X0060706Y0002032
X0068326Y0003937
X0077216Y0009144
X00867918Y0013462
X00919226Y00256032
X00940054Y00249174
X009525Y003048
X0097282
X0098679Y00308483
X010414Y0030734
X00895858Y00355346
X00966978Y00006604
X009398Y00482346
X0090551Y0051562
X0098298Y00542753
X0084963Y0072898
X0076581Y00474577
X0076835Y00459994
X00759567Y00444513
X00685292Y00516128
X00493522Y00498094
X00442722Y00446786
X00405638Y00516023
X00422402Y0065659
X00518668Y00608838
X00549656Y00601726
X003683Y00702818
X00189992
X00190171Y00498677
X001778Y00498602
X00222504Y00446024
X0036322Y00470916
X00359918Y00397002
X00070104Y0041402
T03
X0032258Y0031242
X0036322
X00389128
X00607651Y00335871
X00657269Y0033782
X0061976Y002286
X0101854Y0049784
X004953Y0061976
X00423958
X003302Y0059944
X0030734Y00475383
T04
X0094776Y0003382
Y0005882
Y0008382
Y0014986
Y0017486
Y0019986
X0102142Y001397
Y001147
Y000897
Y000647
T05
X0003539Y0004084
Y0006584
Y0013736
Y0016236
X0012412Y0015962
Y0013462
X0012429Y000633
Y000383
X0021302Y0003596
Y0006096
X0021319Y0013228
Y0015728
X0110016Y0014986
Y0012486
Y00058855
Y00033855
T06
X005715Y0070866
X005969
X006223
X0073914
X0076454
X0078994
T07
X0028956Y0002794
X0031496
X0034036
X0036576
X0039116
X0031496Y0005334
Y0018034
X0034036
X0036576
X0039116
X0037846Y0014984
X0035306
X0028956Y0018034
X0041656
X0044196
X0046736
X0049276
X0051816
X0054356
X0056896
X0059436
X0061976
X0064516
X0067056
X0069596
X0072136
X0074676
X0077216
X0074676Y0015494
Y0012954
Y0010414
Y0007874
Y0005334
Y0002794
X0077216
X0072136
X0069596
X0067056
X0064516
X0061976
X0059436
X0056896
X0054356
X0051816
X0049276
X0046736
X0044196
X0041656
X0042926Y0014984
X0045466
X0040386
X0079756Y0018034
X0082296
X0084836
X0087376
Y0002794
X0084836
X0082296
X0079756
T08
X009398Y00420878
X009652
X009906
X01016
X010414
Y00573278
X01016
X009906
X009652
X009398
X0075946
X0073406
X0070866
X0068326
X0065786
Y00420878
X0068326
X0070866
X0073406
X0075946
X00475742
X00450342
X00424942
X00399542
Y00573278
X00424942
X00450342
X00475742
X00374142
Y00420878
X00193802
X00168402
X00143002
X00117602
X00092202
Y00573278
X00117602
X00143002
X00168402
X00193802
M30
