M48
;Layer_Color=9474304
;FILE_FORMAT=4:4
METRIC,LZ
;TYPE=PLATED
T1F00S00C0.3302
T2F00S00C0.3810
T3F00S00C0.7112
T4F00S00C0.8000
T5F00S00C0.9000
T6F00S00C1.0000
T7F00S00C1.0160
T8F00S00C1.4700
T9F00S00C1.6002
T10F00S00C1.8000
T11F00S00C2.0200
T12F00S00C2.5400
T13F00S00C3.0000
%
T01
X000254Y000254
X000508
X000762
X001016
X00127
X001524
X001778
X002032
X002286
X00254
X002794
X003048
X003302
X003556
X00381
X003937Y000508
X003683
X003429
X003175
X002921
X003048Y000762
X003302
X003556
X00381
X003937Y001524
X003683
X003429
X003175
X002921
X002667
X002413
X00254Y00127
X002286
X002032
X001778
X001524
X00127
X001016
X000762
X000889Y001524
X001143
X001397
X001651
X001524Y001778
X001016
X000762
Y002286
X001016
X00127
X000889Y00254
X001016Y003302
X00127
X001778
X001905Y003556
X002159
X002413
X002286Y003302
X002794
X003048
X003302
X003556
X00381
X003937Y003556
X003683
X003429
X003937Y003048
X00381Y001778
X003556
X003302
X003048
X002794Y000762
X00254
X002286
X002032
X001778
X001524
X001016
X000762
X000508
X000254
X000381Y001016
X000635
Y000508
X000381
X000254Y00127
X000762Y003302
X000889Y003556
X000635
X001651
X004064Y003302
X004318
X004572
X004826
X00508
X005334
X005588
X005842
X00635
X006858
X007112
Y00381
X006858
X006985Y001524
X006858Y00127
X006604
X00635
X006477Y001524
X006223
X005969
Y001016
X005715
X005461
X005588Y000762
X005842
X00635
X006604
X006858
X007112
X007366
X00762
X007874
X007493Y001016
Y001524
X006985Y001016
X006731
X006477
X005334Y000762
X00508
X004826
X004572
X004318
X004064
Y000254
X004318
X004572
X004826
X004953Y001016
X004699
X004445Y001524
X004191
X004064Y001778
X004191Y003048
X004445
X004699
X008001Y001524
X008255
X008509
X008763
X00889Y00127
X009144
X009398
X009652
X009779Y001524
Y001016
X009652Y000762
X009398
X00889
X008636
X008382
X008128
X008255Y000508
X008509
Y001016
X008763
X009017
X008636Y00127
X008382
X008128
X008001Y001016
X009779Y000508
X009652Y000254
X007112Y004318
X006858
X006985Y004572
X006731
X006858Y004826
X006985Y00508
X006731
X006858Y005334
X007112
X006985Y005588
X006731
X006858Y005842
X007112
X006985Y006096
X007112Y00635
X006858
X006985Y006604
X007239
X007366Y006858
X007112
X006858
X006985Y007112
X007239
X007366Y007366
X00762
X007747Y00762
X007493
X006985
X006731
X006858Y007874
X007112
X006604
X006096
X005842
X005334
X00508
X004572
X004318
X004064
Y006858
X004318
X004572
X004826
X00508
X005334
X005207Y007112
X004953
Y006604
X005207
X005334Y00635
X005588
X005715Y006096
X005461
X005207
X004953
X00508Y00635
X004826
X004699Y006604
X004445
X004191
X004318Y00635
X004445Y006096
X004191
X004445Y007112
X005715
X005969
X006223
X006477
X00635Y006858
X006096
X005842
X005969Y006604
X006223
X006477
X00635Y00635
X006096
X006477Y006096
X006731Y004064
X007874Y007874
X00381
X003556
X003302
X003048
X003175Y00762
X002921
Y007112
X003175
X003302Y006858
X003048
X002921Y006604
Y006096
X003175
X002667
X002413Y006604
X002159
X001905
X001651
X001524Y006858
X00127
X001397Y007112
X001651
X001778Y007366
X001524
X00127
X001016
X000762
X000635Y00762
X000762Y007874
X001016
X00127
X001524
X001778
X002032
X00254
X002413Y00762
X00254Y006858
X002286
X002032
X001905Y006096
X001651
X001397
X001143
X001016Y00635
X000762
X000889Y006604
X000635
X000762Y006858
X000635Y007112
X001143
X000635Y006096
X003556Y00635
X00381
X003937Y006096
X003683Y007112
X00381Y008382
Y00889
X003302
X003048
X003175Y008636
X003048Y008382
X00254
X002286
X002413Y008636
X00254Y00889
X002286
X002032Y009398
X001905Y009652
X002667
X002794Y009398
X003556
X003429Y009652
X001143
X000381
X000508Y009398
X000381Y009144
X000254Y00889
X000381Y008636
X000762Y008382
X000889Y008128
X001143
X001397
X001651
X001524Y008382
Y00889
X002159Y008128
X002413
X000635
X004064Y008382
X004572
X004826
X005334
X006096
Y00889
X005969Y009144
X005715
X005461
X005588Y00889
X005842Y009398
X006604
X006858
X006985Y009144
X007239
X007366Y009398
X007493Y009652
X007747Y009144
X007874Y00889
X00762
Y008382
X007493Y008128
X007239
X006985
X007112Y008382
X006858Y00889
X006731Y009144
X006477
X006731Y009652
X005207
X00508Y009398
X004826Y00889
X004572
X004064
X004318Y009398
X004191Y009652
X008255
X008382Y009398
X008128
X008255Y009144
X008509
X008382Y00889
X008001Y009144
Y008128
T02
X0014097Y00358648
X00254Y0033274
X00237744Y0027305
X0026162Y0023876
X00340614Y00261239
X00556514Y00240284
X00603873Y00224651
X0061976Y003429
X0065786Y00336042
X00672592Y00350012
X00662432Y0037465
X00790448Y00053848
X00937768Y00026924
X00898652Y00235204
X00883412Y00228346
X00581406Y00522986
T03
X0007366Y0010922
X0008128Y0014224
X001397Y001397
X0013994Y0021844
X00154178Y0027305
X00121654Y002921
X0033274Y0036576
X0038608Y0020828
X0050292Y0023114
X00509057Y00310817
X0050038Y0014478
X00637415Y0018034
X0065024Y0022352
X0064008Y00261112
X0069596Y0031496
X0072644Y0010414
X0079756Y0018288
X00842712Y002502
X0083058Y0057404
X0080772Y0055118
X0065024Y0045974
X0061468Y004572
X0057658Y0047244
X0048768Y0050546
X004318Y0046482
T04
X0084582Y0032274
Y0034274
T05
X007239Y002619
Y002969
X0072136Y0035588
Y0039088
X008382Y0046522
Y0049022
Y0051522
X0083329Y0060238
Y0062738
Y0065238
X0083566Y007374
Y007624
Y007874
T06
X0008162Y0004318
X0010162
X0012242
X0014162
X0016242
X0018162
X0020242
X0022162
X0024242
X0026162
X0028162
X0041894
X0043894
X0045974
X0047894
X0049974
X0051894
X0053974
X0055894
X0057974
X0059894
X0061894
X008763Y0004572
X009017
X009271
X0093452Y0071357
X0090952
X0090698Y0078469
X0093198
X0059894Y0042418
X0057974
X0055894
X0053974
X0051894
X0049974
X0047894
X0045974
X0043894
Y0039878
X0045974
X0047894
X0049974
X0051894
X0053974
X0055894
X0057974
X0059894
X0026162
X0024242
X0022162
X0020242
X0018162
X0016242
X0014162
X0012242
X0010162
Y0042418
X0012242
X0014162
X0016242
X0018162
X0020242
X0022162
X0024242
X0026162
X0090698Y0085835
X0093198
T07
X0072644Y0004064
X0075184
X0077724
T08
X0046228Y0060457
Y0064267
X0074168
Y0071887
Y0056647
T09
X0007366Y0052832
Y00588264
X0007874Y00707136
Y0076708
X0021336Y00766064
Y0070612
X0020574Y0058674
Y00526796
X0034036
Y0058674
X0034544Y0070612
Y00766064
T10
X0093218Y0021208
Y0025908
Y0030608
Y003721
Y004191
Y004661
T11
X0046228Y0056647
Y0071887
T12
X001143Y008636
X001905
X0027178
X0034798
X0031242Y0095758
X0023622
X00159634
X00083434
X0039116
X0046736
X0054864
X0062484
X0070866
X0078486
X0074676Y008636
X0066294
X0058674
X0049784
X0042164
X0082296
X0086868Y0095758
X0094488
T13
X0091186Y0014986
X0097282Y006477
X0034798Y004699
X0002794Y0093726
M30
