M48
;Layer_Color=9474304
;FILE_FORMAT=4:4
METRIC,LZ
;TYPE=PLATED
T1F00S00C0.2540
T2F00S00C0.4064
T3F00S00C0.7620
T4F00S00C0.8000
T5F00S00C0.9000
T6F00S00C1.0000
T7F00S00C1.0160
T8F00S00C1.2700
T9F00S00C1.4700
T10F00S00C1.6002
T11F00S00C1.8000
T12F00S00C2.0200
T13F00S00C2.5400
T14F00S00C3.0000
;TYPE=NON_PLATED
T15F00S00C1.1000
%
T01
X000254Y000254
X000508
X000381Y000508
X000254Y000762
X000381Y001016
X000635
X000889
X001143
X00127Y00127
X001397Y001524
X001143
X001016Y001778
X000762
X000635Y001524
X000381
X000254Y001778
X000381Y002032
X000254Y002286
X000381Y00254
X000254Y002794
X000381Y003048
X000254Y003302
X000381Y003556
X000635
X000889
X001016Y003302
X00127
X001524
X001778
X003048
X00381
X003937Y003556
X003556Y001778
X001524
X00127Y002286
X001016
X000762
X000889Y00254
X000762Y00127
Y000762
X001016
X001651Y001016
X000254Y00127
Y00381
X004191Y003556
X004318Y003302
X004572
X004826
X004953Y003556
X005207
X005461
X005715
X005588Y003302
X005334
X005207Y003048
X004953
X004699
X004445
X004191
X004318Y002794
X004064
Y003302
X004699Y003556
X004064Y001778
X005207Y001524
X005715
X005969
X00635Y00127
X006604
X006731Y001524
X006985Y001016
X007112Y000762
X007366
X00762
X007493Y001016
X006858Y000762
X006604
X006731Y000508
X006985
X006223Y001016
X005588Y00127
X008128
X008382
X008509Y001524
X008763
X00889Y00127
X009144
X009398
X009652
X009779Y001524
X009525
Y001016
X009779
X009652Y000762
X009398
X009144
X00889
X008763Y001016
X009271
X009525Y000508
X009779
X009652Y000254
X009398
X009144
X008509Y000508
X008255
X008382Y000762
X008128
X008255Y001016
X008001
X007747Y00762
X007493
X00762Y007874
X007366
Y007366
X00635
X006477Y00762
X006604Y007874
X005334Y007366
X005461Y007112
X005588Y006858
X005334
X005461Y006604
X005715
X005842Y00635
X005969Y006096
X006223
X005207
X004953
X004826Y00635
X004699Y006604
X004445
X004572Y006858
X004826
Y007366
X004318
X004445Y007112
X004191
X004318Y006858
Y00635
X004191Y006096
X004318Y007874
X004064
X00381
Y007366
X003556
X00254
X002286
X002032
X001778
X001905Y00762
Y007112
X001524Y006858
X00127
X001016
X001143Y007112
X00127Y007366
X001016
X000762
Y007874
X001016
X00127
X002286
X00254
Y00635
X002286
X002413Y006096
X001778Y00635
X001524
X001651Y006604
X001397
X001143Y006096
X000381
X000508Y00635
X000254
X000381Y006604
X000254Y006858
Y007366
Y007874
Y005842
X000508
X000381Y005588
X000508Y005334
X000254
X000381Y00508
X000508Y004826
X000254
X000381Y004572
X000508Y004318
X000254
X000381Y004064
X000254Y008382
X000762
X001016
X00127
X001143Y008128
X000889
X001016Y00889
X001143Y009144
X001397
X00127Y009398
X001143Y009652
X001905
X002032Y009398
X002794
X002921Y009144
X003175
X003302Y00889
X003048
X00381
X003556Y008382
X003429Y009652
X001778Y00889
Y008382
X002032
X000889Y009144
X000635
X000381
X000508Y009398
X000381Y009652
X000254Y00889
X004572
X004699Y008636
X004826Y008382
X004572
X004318
X004445Y008128
X004699
X004191
X004318Y009398
X005842
X005969Y009144
X006223
X00635Y00889
X006096
X005842
X005715Y009144
X006096Y008382
X00635
X007112
X007493Y008128
X007747Y008636
X007874Y00889
X007747Y009652
X007493
X007366Y0093726
X006985Y009144
X006731Y009652
X008255Y009144
X008128Y00889
T02
X00142Y0020042
X0017526Y0022606
X0020828Y0027178
X0025146
Y0022352
X0030226Y0020828
X0029718Y0018288
X0029464Y0016256
X0030734Y001651
X00308196Y00088044
X003429Y0008382
X0034544Y000508
X0029718Y0025908
X0023876Y003175
X003048Y0037084
X0037846
X001322Y0028956
X004064Y0023622
X0042164Y0022352
X0043688Y0021336
X004699Y002413
X0049022Y00279654
X0060198Y0023876
X0062738Y0025908
X00644488Y00273494
X00641821Y00228751
X0066548Y0023876
X006223Y0018034
X0058801Y0019431
X008382Y0022098
X0089662Y0019558
X0082042Y00353926
Y004064
X0085852
X0084836Y0045466
X008382Y005969
X0084328Y0060706
X008128Y0059436
X0075692Y0060706
X0075438Y006731
X007747Y0069596
X006604Y006985
X006477Y007239
X0065278Y0074422
X006604Y007747
X0054102Y0075692
X0058928Y0062484
X0063754Y0057658
X0050292Y0044196
X003937Y0087884
X0075946Y0090932
X0078232Y009779
X00899288Y00868551
T03
X00664369Y00283223
T04
X0084582Y0032274
Y0034274
X0086574Y004699
X0081574
X0088686Y005715
X0093686
T05
X0074676Y0025456
Y0028956
Y0035588
Y0039088
X0082578Y00254
X0086078
X009175Y0021336
X009525
X0094662Y0076437
X0092162
X0089662
X0087162
X0084662
X0073914Y0094996
X0071414
X0068914
X0064222Y0086343
X0061722
X0059222
X0080535Y009148
Y009398
Y009648
X00849288Y00845261
X00874288
X00899288
X00924288
X00949288
T06
X0006096Y0004572
X0008636
X0011176
X0013716
X0016256
X0018796
X0021336
X0023876
X0026416
X0028956
X0031496
X0040132Y0004318
X0042672
X0045212
X0047752
X0050292
X0052832
X0055372
X0057912
X0060452
X0062992
X0065532
X008763Y0004572
X009017
X009271
X0062992Y0039878
Y0042418
X0060452
Y0039878
X0057912
Y0042418
X0055372
X0052832
X0050292
X0047752
X0045212
Y0039878
X0042672
X0047752
X0050292
X0052832
X0055372
X0028956Y0040132
Y0042672
X0026416
Y0040132
X0023876
Y0042672
X0021336
X0018796
X0016256
X0013716
X0011176
Y0040132
X0008636
X0013716
X0016256
X0018796
X0021336
X0070378Y0086343
X0072878
T07
X0072644Y0004064
X0075184
X0077724
X0042672Y0042418
X0008636Y0042672
T08
X0016764Y001397
X0080518Y0052324
X009271Y0047752
X00926954Y00445144
X00959974Y00478164
X0053086Y0056642
T09
X0046228Y0060457
Y0064267
X0074168
Y0071887
Y0056647
T10
X0007366Y0052832
Y00588264
X0007874Y00707136
Y0076708
X0021336Y00766064
Y0070612
X0020574Y0058674
Y00526796
X0034036
Y0058674
X0034544Y0070612
Y00766064
T11
X0094488Y002959
Y003429
Y003899
X0093346Y0068326
X0088646
X0083946
T12
X0046228Y0056647
Y0071887
T13
X000635Y0087122
X001397
X002159
X0023622Y0095758
X0031242
X0039116
X003556Y0086868
X00159634Y0095758
X00083434
X0046736
X0054864
X0062484
X0050292Y0086868
X004318
X0086868Y0095758
X0094488
T14
X0091186Y0014986
X0097282Y006477
X0034798Y004699
X0002794Y0093726
T15
X0096262Y0078437
X00965288Y00865261
M30
